<?xml version="1.0" standalone="no"?>
<!DOCTYPE svg PUBLIC "-//W3C//DTD SVG 20010904//EN"
 "http://www.w3.org/TR/2001/REC-SVG-20010904/DTD/svg10.dtd">
<svg version="1.0" xmlns="http://www.w3.org/2000/svg"
 width="668.000000pt" height="436.000000pt" viewBox="0 0 668.000000 436.000000"
 preserveAspectRatio="xMidYMid meet">
<metadata>
Created by potrace 1.16, written by Peter Selinger 2001-2019
</metadata>
<g transform="translate(0.000000,436.000000) scale(0.100000,-0.100000)"
fill="#000000" stroke="none">
<path d="M4863 4215 c-17 -7 -49 -38 -72 -68 -40 -55 -101 -106 -153 -129 -34
-15 -35 -29 -7 -67 19 -26 20 -33 9 -65 -21 -65 -69 -82 -130 -45 -26 16 -54
22 -114 24 -76 2 -82 1 -118 -28 -38 -30 -38 -32 -36 -91 3 -57 2 -60 -29 -78
l-31 -19 -37 32 c-20 18 -43 45 -51 62 -16 30 -16 30 -82 23 -37 -4 -73 -13
-82 -21 -8 -7 -37 -19 -65 -26 -59 -14 -105 -36 -105 -49 0 -6 -9 -10 -20 -10
-10 0 -35 -8 -55 -17 l-35 -17 -35 40 c-19 21 -42 58 -51 81 -15 38 -21 43
-64 52 -26 6 -70 8 -97 4 -60 -7 -92 8 -125 57 l-24 35 -134 2 c-163 2 -184 6
-227 39 -18 14 -54 34 -79 45 -25 12 -55 30 -66 41 -17 17 -22 18 -41 5 -12
-8 -28 -32 -35 -54 -20 -60 -49 -73 -147 -61 -58 8 -97 7 -140 -2 -87 -17
-105 -31 -105 -84 0 -27 -7 -52 -18 -67 -46 -59 -72 -117 -72 -159 0 -37 -6
-48 -43 -85 -41 -41 -75 -56 -179 -79 -15 -3 -30 -15 -33 -27 -6 -18 -12 -20
-41 -15 -20 4 -67 -1 -121 -15 -48 -12 -124 -23 -167 -25 -44 -3 -82 -7 -85
-9 -2 -3 3 -21 12 -40 21 -45 22 -44 -8 -55 -21 -8 -25 -16 -25 -51 0 -33 -4
-42 -21 -46 -11 -3 -57 -23 -101 -44 -87 -43 -109 -47 -128 -24 -18 22 -43 18
-70 -10 -30 -32 -40 -32 -40 0 0 18 -18 43 -56 81 l-56 57 -54 -7 c-70 -8
-123 13 -173 70 -44 50 -66 55 -76 17 -3 -14 -15 -38 -26 -51 -10 -14 -19 -31
-19 -38 0 -7 -10 -22 -22 -34 -16 -15 -21 -30 -20 -57 3 -43 -41 -171 -77
-227 -16 -24 -38 -43 -56 -49 -16 -5 -36 -10 -43 -13 -9 -3 -8 -13 8 -43 30
-59 27 -71 -14 -64 -29 5 -41 0 -80 -33 -54 -45 -69 -83 -56 -139 5 -22 10
-66 10 -97 0 -73 25 -105 90 -117 l45 -8 -83 -80 c-62 -60 -82 -86 -78 -100 3
-10 10 -58 16 -108 6 -49 17 -117 25 -150 26 -112 27 -155 7 -250 -23 -102
-36 -264 -24 -282 4 -7 81 -32 171 -56 90 -25 170 -52 178 -60 27 -27 44 -172
24 -193 -6 -5 -16 -25 -23 -46 -9 -26 -69 -90 -218 -232 -113 -107 -205 -201
-205 -208 0 -6 135 -77 300 -157 l300 -145 245 -7 c245 -6 341 -19 408 -53 54
-27 68 -28 98 -3 16 14 45 28 64 32 54 12 159 7 225 -10 33 -9 78 -16 100 -16
58 0 484 80 517 97 37 19 45 40 24 63 -21 23 -20 33 10 110 22 53 25 74 20
120 -5 47 -2 68 23 131 32 81 37 86 93 95 25 4 43 15 55 32 30 45 93 101 121
108 19 5 31 2 42 -12 8 -10 42 -27 75 -37 63 -18 105 -16 216 14 51 14 56 47
7 52 -28 2 -34 8 -36 31 -3 25 0 27 30 27 18 0 47 9 63 20 17 11 42 20 57 20
18 0 42 13 67 35 39 36 64 44 76 24 14 -22 55 -29 100 -17 51 14 69 4 92 -50
31 -74 101 -68 189 16 70 67 74 77 76 234 1 53 4 101 7 106 3 5 20 17 38 26
40 20 55 46 47 83 -5 24 -1 33 21 47 17 11 25 25 24 39 -8 65 35 90 135 80 55
-5 69 -3 99 16 19 11 40 21 48 21 21 0 79 44 79 60 0 8 -9 30 -20 48 -11 18
-20 49 -20 70 0 46 -8 59 -42 67 -19 5 -32 19 -47 55 -25 58 -26 73 -6 90 19
16 53 9 133 -25 70 -29 201 -43 287 -31 60 10 88 37 111 111 17 53 17 57 1 66
-9 6 -24 24 -33 41 -16 31 -16 32 8 52 14 12 28 29 31 39 4 9 22 27 42 38 20
12 40 30 46 41 5 10 35 30 65 43 40 18 54 29 54 44 0 11 14 30 30 43 35 25 36
34 13 60 -16 18 -16 21 0 47 23 39 21 83 -4 115 -17 22 -19 29 -8 42 9 11 9
21 2 37 -6 12 -16 36 -23 54 -6 17 -30 47 -52 67 -22 20 -38 42 -36 49 3 6 33
31 67 53 35 23 79 58 100 78 20 20 40 36 45 36 4 0 21 -9 36 -20 28 -20 45
-14 35 12 -4 10 17 22 71 43 41 16 84 39 94 52 13 17 28 23 58 23 22 0 57 6
78 14 43 15 254 14 453 -3 90 -7 120 -14 142 -30 29 -22 83 -28 94 -11 3 6 17
10 29 10 13 0 44 9 70 20 35 16 50 18 65 10 29 -15 34 4 9 35 -17 22 -19 32
-12 54 8 23 15 26 64 29 30 2 64 -2 77 -9 13 -7 26 -9 30 -6 12 12 -16 56 -44
71 -44 22 -190 41 -216 27 -12 -6 -64 -20 -115 -30 -73 -16 -98 -18 -117 -9
-33 15 -31 21 6 35 24 9 30 17 27 35 -3 25 -33 35 -145 45 -55 5 -69 2 -125
-25 -35 -16 -80 -35 -100 -42 -24 -7 -51 -28 -73 -54 -35 -43 -36 -43 -113
-48 -80 -6 -101 -14 -246 -92 -102 -54 -135 -42 -168 61 -22 70 -23 139 -4
185 8 19 20 66 26 104 7 38 23 97 37 132 13 34 23 72 21 85 -3 20 -7 22 -60
19 -74 -5 -81 9 -39 83 17 30 31 61 31 69 0 7 -32 40 -71 72 -61 50 -77 58
-118 60 -25 2 -60 -3 -78 -11z"/>
</g>
</svg>
