<?xml version="1.0" standalone="no"?>
<!DOCTYPE svg PUBLIC "-//W3C//DTD SVG 20010904//EN"
 "http://www.w3.org/TR/2001/REC-SVG-20010904/DTD/svg10.dtd">
<svg version="1.0" xmlns="http://www.w3.org/2000/svg"
 width="356.000000pt" height="636.000000pt" viewBox="0 0 356.000000 636.000000"
 preserveAspectRatio="xMidYMid meet">
<metadata>
Created by potrace 1.16, written by Peter Selinger 2001-2019
</metadata>
<g transform="translate(0.000000,636.000000) scale(0.100000,-0.100000)"
fill="#000000" stroke="none">
<path d="M745 6076 c-25 -25 -50 -46 -55 -46 -18 0 -40 -59 -40 -105 0 -39 -5
-51 -34 -78 -19 -18 -39 -49 -46 -69 -12 -40 -86 -141 -143 -198 -40 -39 -57
-76 -57 -123 0 -19 -27 -87 -65 -166 -36 -73 -65 -143 -65 -155 0 -15 19 -34
65 -65 36 -24 69 -51 74 -60 4 -9 5 -47 1 -86 -4 -38 -3 -94 2 -124 9 -48 7
-55 -13 -77 -19 -21 -20 -26 -9 -54 10 -24 10 -33 0 -45 -10 -13 -8 -19 14
-36 14 -11 26 -29 26 -38 0 -13 10 -21 31 -25 52 -10 79 -7 79 9 0 10 7 7 25
-9 14 -13 42 -27 62 -31 21 -4 53 -15 73 -26 76 -41 95 -70 73 -112 -11 -23
-13 -46 -8 -98 5 -47 3 -74 -4 -83 -19 -23 -2 -64 35 -85 22 -13 34 -28 34
-42 0 -17 -3 -19 -14 -10 -12 10 -18 6 -32 -24 -31 -66 -103 -83 -166 -40 -44
30 -52 31 -38 6 5 -11 10 -32 10 -48 0 -25 6 -31 43 -43 32 -11 46 -24 60 -52
16 -33 16 -40 4 -71 -8 -19 -33 -47 -56 -63 -38 -27 -41 -32 -36 -65 7 -43
-14 -69 -35 -44 -7 8 -21 15 -32 15 -19 0 -19 0 0 -32 11 -18 22 -53 25 -77 4
-35 14 -53 42 -79 29 -28 38 -32 50 -22 19 16 37 2 59 -44 23 -48 20 -95 -9
-141 -13 -22 -25 -52 -25 -67 0 -25 -18 -52 -39 -60 -5 -2 -3 -33 5 -72 11
-52 12 -81 4 -124 -5 -31 -10 -59 -10 -64 0 -4 19 -19 41 -34 l42 -26 -7 -60
c-4 -45 -3 -59 7 -56 6 3 17 18 22 34 6 17 19 43 30 60 l19 29 7 -30 c4 -16 7
-51 8 -76 1 -52 -23 -83 -76 -98 l-30 -9 -6 55 c-3 30 -8 58 -11 61 -3 3 -15
-7 -27 -21 -11 -15 -27 -27 -34 -27 -8 0 -19 -9 -24 -19 -11 -20 -3 -32 33
-45 14 -5 17 -12 11 -34 -3 -15 -9 -42 -12 -61 -3 -19 -17 -50 -30 -70 -17
-25 -23 -44 -19 -61 24 -102 21 -120 -29 -180 -19 -23 -35 -51 -35 -61 0 -11
15 -35 34 -53 43 -44 96 -136 96 -169 0 -42 9 -55 74 -101 99 -70 99 -72 102
-186 2 -92 0 -101 -19 -115 -12 -8 -34 -15 -49 -15 -24 0 -28 5 -33 38 -11 64
-16 74 -63 124 -48 51 -87 63 -112 33 -11 -13 -10 -20 9 -43 43 -53 101 -145
101 -161 1 -26 21 -56 90 -132 61 -69 72 -76 220 -147 85 -41 182 -87 216
-102 69 -32 120 -72 129 -101 5 -14 10 -17 19 -10 7 6 17 6 26 1 8 -6 28 -10
43 -10 47 0 64 -16 133 -122 l65 -101 -22 -30 c-12 -17 -18 -33 -13 -35 5 -2
43 -20 84 -40 l75 -37 -1 -86 c-2 -59 -7 -96 -19 -119 -16 -31 -16 -33 4 -46
17 -12 19 -18 9 -33 -14 -22 -3 -71 17 -71 7 0 17 5 20 10 11 17 50 11 117
-19 44 -20 90 -32 142 -37 l76 -7 0 27 c0 22 6 28 31 33 21 4 34 14 40 32 6
14 24 41 42 59 27 28 30 35 19 50 -23 32 -42 81 -42 111 l0 29 66 -21 66 -22
24 30 c31 38 30 70 -1 107 -14 16 -25 40 -25 53 0 14 -13 34 -34 52 -18 15
-36 41 -40 57 -4 17 -16 42 -27 57 -28 39 -24 49 19 49 54 0 70 16 80 83 12
76 34 100 84 92 24 -4 44 -2 53 5 10 8 19 8 34 1 34 -19 74 -12 121 19 25 16
52 30 60 30 9 0 26 7 39 16 20 15 22 22 18 78 -3 33 -8 72 -12 86 -5 20 0 32
25 59 34 35 34 32 14 138 -5 26 0 43 24 80 17 27 42 74 56 105 21 46 23 62 16
90 -15 49 -12 78 5 78 9 0 24 20 35 45 21 49 31 52 104 36 21 -5 45 -7 52 -4
8 3 30 40 50 82 19 42 50 90 69 108 l35 32 0 96 0 96 -42 56 c-23 31 -57 74
-76 95 -32 36 -34 40 -22 69 16 38 7 167 -16 214 -24 51 -57 67 -157 77 l-90
9 -33 -37 c-32 -34 -37 -36 -76 -30 -23 4 -43 8 -44 9 -7 11 -62 139 -86 202
-37 96 -60 125 -102 125 -53 0 -81 21 -81 60 0 43 -22 84 -70 130 -48 46 -58
66 -90 183 -26 96 -26 123 0 113 20 -7 52 62 57 120 3 47 2 49 -34 69 -29 15
-39 28 -47 62 -8 31 -19 47 -39 57 -42 22 -57 43 -43 60 7 8 11 22 9 32 -2 13
10 22 45 35 26 10 55 23 63 29 22 19 17 61 -13 105 -28 41 -29 46 -34 218 -1
58 8 82 37 96 22 10 25 16 20 39 -3 15 -9 53 -13 84 l-6 58 32 6 c36 8 36 6
15 46 -15 30 -15 31 14 62 48 49 48 70 3 161 -22 44 -49 94 -60 110 -15 21
-21 46 -21 84 0 45 -7 66 -40 123 -22 39 -40 73 -40 78 0 17 -84 93 -118 107
-20 8 -49 24 -63 34 -53 37 -136 61 -190 54 -60 -8 -79 4 -79 50 0 21 -9 45
-25 63 -14 17 -25 42 -25 57 0 37 -74 159 -113 187 -17 13 -57 37 -88 53 -49
25 -61 28 -83 17 -14 -6 -34 -29 -46 -52 -19 -36 -24 -40 -59 -40 -28 0 -53
-10 -87 -33 -27 -19 -70 -42 -96 -52 l-48 -18 -38 26 c-68 45 -92 129 -48 170
l23 22 -31 65 c-40 84 -58 88 -121 26z"/>
</g>
</svg>
