<?xml version="1.0" standalone="no"?>
<!DOCTYPE svg PUBLIC "-//W3C//DTD SVG 20010904//EN"
 "http://www.w3.org/TR/2001/REC-SVG-20010904/DTD/svg10.dtd">
<svg version="1.0" xmlns="http://www.w3.org/2000/svg"
 width="790.000000pt" height="762.000000pt" viewBox="0 0 790.000000 762.000000"
 preserveAspectRatio="xMidYMid meet">

<g transform="translate(0.000000,762.000000) scale(0.100000,-0.100000)"
fill="#000000" stroke="none">
<path d="M6143 7309 c-48 -44 -78 -49 -116 -19 -14 11 -36 20 -49 20 -12 0
-36 7 -52 15 -33 18 -102 20 -112 4 -4 -6 -19 -8 -37 -5 -20 4 -39 1 -54 -10
-18 -11 -36 -14 -63 -9 -36 6 -40 4 -55 -25 -11 -21 -21 -30 -32 -26 -8 4 -28
-5 -45 -19 -35 -29 -30 -29 -92 -10 -27 8 -66 15 -88 15 -21 0 -38 3 -38 8 -1
29 -68 59 -184 83 -54 10 -73 10 -101 0 -19 -7 -39 -9 -45 -6 -5 3 -34 -2 -64
-11 -46 -15 -67 -16 -128 -7 -40 5 -81 13 -90 17 -13 6 -26 -2 -50 -27 -32
-34 -35 -35 -133 -42 -55 -4 -178 -7 -274 -7 -162 1 -176 0 -188 -18 -8 -11
-23 -20 -35 -20 -11 0 -36 -13 -55 -30 -28 -25 -42 -30 -84 -30 -48 0 -50 -1
-77 -45 -24 -41 -30 -44 -57 -39 -25 4 -33 1 -47 -23 -9 -15 -28 -39 -43 -53
l-26 -25 -53 29 c-45 24 -56 27 -75 16 -13 -6 -32 -9 -43 -7 -10 3 -36 -2 -56
-10 -20 -9 -53 -19 -72 -22 -29 -5 -36 -12 -45 -41 -15 -53 -20 -57 -82 -65
-45 -5 -67 -15 -102 -43 -43 -36 -47 -37 -150 -43 -58 -3 -98 -6 -89 -7 10 -1
33 -15 51 -32 33 -29 34 -32 42 -132 10 -129 11 -159 1 -230 -8 -54 -7 -58 25
-97 32 -41 33 -42 20 -90 -10 -39 -10 -58 0 -90 9 -32 9 -50 1 -80 -20 -64
-18 -72 48 -201 4 -8 27 -29 51 -46 52 -37 56 -55 12 -66 -33 -8 -33 -9 -33
-69 0 -72 -17 -85 -58 -46 -22 20 -40 26 -97 29 -70 5 -189 -16 -248 -43 -23
-10 -30 -9 -46 5 -15 14 -24 15 -40 7 -11 -6 -42 -11 -68 -11 -27 0 -54 -5
-61 -12 -7 -7 -12 -33 -12 -59 0 -55 -13 -69 -72 -75 -24 -3 -76 -10 -116 -16
l-74 -11 -25 -58 c-14 -33 -33 -61 -44 -64 -30 -10 -22 -34 16 -52 20 -9 35
-24 35 -34 0 -15 -47 -149 -55 -158 -7 -7 -89 -23 -150 -29 -54 -6 -61 -10
-82 -42 -51 -79 -47 -77 -81 -57 -39 22 -54 22 -85 -3 -14 -11 -54 -30 -88
-42 -72 -26 -86 -45 -96 -129 -5 -42 -10 -53 -32 -62 -14 -6 -38 -24 -53 -39
-31 -32 -58 -35 -93 -12 -39 25 -263 24 -328 -2 -39 -15 -50 -17 -65 -6 -9 7
-32 19 -51 28 -32 14 -37 14 -75 -3 -22 -10 -57 -35 -77 -56 -40 -42 -78 -58
-299 -128 -69 -22 -147 -48 -175 -57 l-50 -17 -8 -60 c-4 -33 -16 -163 -26
-290 l-19 -230 23 -20 c25 -23 439 -368 615 -514 63 -52 151 -125 195 -161
362 -300 509 -422 629 -520 154 -127 420 -348 506 -420 67 -57 605 -502 748
-620 57 -47 202 -166 321 -265 120 -99 233 -191 252 -204 19 -13 54 -51 79
-84 33 -46 53 -63 76 -68 49 -9 117 -61 136 -101 10 -21 28 -42 40 -49 13 -6
31 -21 40 -33 13 -15 21 -18 31 -11 106 76 116 77 146 14 15 -30 20 -33 67
-34 36 -1 66 -10 98 -29 41 -24 46 -31 46 -62 0 -27 5 -37 20 -41 24 -6 24
-12 5 -37 -18 -23 -19 -69 -4 -97 8 -16 7 -26 -5 -44 -9 -14 -16 -38 -16 -56
0 -26 3 -30 18 -24 9 4 44 11 77 15 33 5 107 16 165 25 156 23 408 62 598 90
92 14 179 28 194 31 16 3 50 29 77 57 28 29 85 73 128 98 43 25 179 106 303
179 124 73 306 183 405 245 99 61 207 128 240 147 33 19 132 80 220 134 88 55
228 140 310 189 83 48 215 129 295 179 80 50 209 130 287 176 79 47 143 91
143 97 0 11 -30 49 -139 177 -10 11 -18 45 -21 84 l-5 66 -85 26 c-47 15 -99
34 -117 43 -37 20 -95 22 -121 6 -14 -9 -25 -8 -50 5 -17 9 -42 16 -57 16 -19
0 -25 5 -25 22 0 13 -20 43 -50 73 -45 46 -51 57 -61 115 -15 95 -27 119 -68
138 -29 14 -38 25 -45 57 -15 72 -38 114 -88 160 -52 49 -57 68 -36 136 12 42
23 48 103 58 47 6 51 8 62 44 7 20 24 61 38 91 31 67 31 81 -1 124 l-27 34 18
56 c9 30 21 101 26 157 9 95 8 111 -15 202 -23 89 -24 105 -14 166 8 51 8 81
0 118 -7 28 -12 66 -12 84 0 19 -5 37 -11 40 -14 9 -24 38 -65 179 -29 101
-32 125 -24 161 7 32 6 54 -4 83 -8 22 -11 44 -7 48 4 5 -2 56 -14 114 -13 58
-30 139 -38 180 -9 41 -24 129 -33 195 -9 66 -20 135 -26 153 -10 35 -52 71
-109 95 -44 18 -156 102 -169 127 -5 10 -15 42 -21 70 -8 38 -21 62 -48 89
-21 20 -41 48 -44 63 -4 14 -28 46 -53 71 -45 43 -47 48 -55 118 -5 41 -11 90
-15 110 -5 31 -1 41 24 70 17 19 32 46 34 59 3 22 8 25 42 25 40 1 66 23 66
57 0 9 10 23 23 29 38 20 101 81 125 122 19 29 22 46 17 73 -3 20 -1 49 6 69
10 27 10 39 -1 62 -7 15 -14 59 -16 97 -1 38 -8 81 -14 96 -9 22 -8 35 4 65
21 49 20 67 -4 98 -26 33 -25 49 5 77 35 33 31 60 -15 105 l-40 39 -30 -29
c-16 -16 -31 -27 -34 -24 -2 2 -8 14 -15 26 -11 22 -63 53 -88 53 -8 0 -27 9
-42 19 l-26 19 -42 -39z"/>
</g>
</svg>
