<?xml version="1.0" standalone="no"?>
<!DOCTYPE svg PUBLIC "-//W3C//DTD SVG 20010904//EN"
 "http://www.w3.org/TR/2001/REC-SVG-20010904/DTD/svg10.dtd">
<svg version="1.0" xmlns="http://www.w3.org/2000/svg"
 width="684.000000pt" height="596.000000pt" viewBox="0 0 684.000000 596.000000"
 preserveAspectRatio="xMidYMid meet">
<metadata>
Created by potrace 1.16, written by Peter Selinger 2001-2019
</metadata>
<g transform="translate(0.000000,596.000000) scale(0.100000,-0.100000)"
fill="#000000" stroke="none">
<path d="M2308 5677 c-42 -23 -93 -57 -114 -74 -42 -37 -60 -40 -102 -16 -29
17 -32 16 -81 -7 -57 -26 -75 -43 -99 -92 -17 -32 -18 -33 -102 -40 -47 -4
-112 -12 -145 -18 -84 -16 -104 -6 -162 81 -26 40 -56 77 -65 83 -17 10 -160
-4 -240 -25 -43 -11 -41 -4 -43 -139 -1 -111 -11 -134 -83 -202 -41 -38 -51
-54 -55 -90 -3 -23 -8 -56 -12 -73 -5 -26 -2 -32 24 -47 28 -16 31 -22 31 -67
0 -41 11 -75 56 -171 63 -137 63 -142 -1 -211 -24 -25 -50 -59 -58 -76 -14
-26 -24 -31 -69 -37 -63 -9 -98 -28 -120 -67 -26 -45 -56 -51 -155 -34 -47 8
-99 15 -115 15 -29 0 -30 -1 -23 -38 4 -26 0 -50 -14 -82 -11 -25 -23 -63 -26
-85 -6 -31 -22 -55 -69 -103 -33 -35 -78 -75 -98 -88 -32 -21 -37 -29 -43 -76
-6 -49 -3 -59 32 -122 21 -38 51 -83 68 -99 36 -37 99 -66 142 -67 24 0 38 -8
56 -32 38 -51 39 -72 5 -123 -24 -37 -55 -60 -151 -117 -158 -94 -174 -109
-193 -183 -9 -33 -27 -80 -41 -104 -19 -33 -24 -52 -19 -80 4 -25 0 -47 -12
-68 -9 -17 -27 -49 -38 -70 -30 -54 -40 -116 -20 -132 21 -18 67 -2 191 67
229 128 222 125 278 119 30 -2 86 -20 130 -41 l78 -36 -7 -63 c-8 -76 5 -122
52 -187 105 -145 254 -398 254 -432 0 -17 -111 -126 -170 -166 -59 -40 -85
-69 -99 -114 -14 -43 -37 -61 -141 -108 -53 -24 -107 -39 -187 -51 -128 -19
-181 -41 -253 -106 -68 -61 -74 -75 -49 -107 16 -21 29 -26 62 -26 23 0 55 -7
71 -15 16 -9 56 -15 95 -15 72 -1 85 -6 154 -64 66 -56 75 -83 83 -232 7 -122
9 -130 34 -154 14 -14 40 -33 58 -42 43 -23 41 -52 -8 -112 -47 -56 -50 -85
-15 -136 34 -49 68 -151 55 -164 -19 -19 -10 -44 36 -95 51 -56 86 -71 174
-71 78 0 287 -26 403 -51 77 -16 127 -19 240 -17 l142 2 119 -42 c65 -23 127
-42 138 -42 10 0 65 20 121 44 108 47 129 51 439 72 54 3 102 11 107 18 5 6
11 57 13 112 3 113 15 137 68 148 40 8 44 30 30 185 -6 72 -9 139 -5 150 4 13
21 23 48 30 23 5 51 12 63 16 17 5 32 -7 87 -73 67 -81 120 -128 147 -132 44
-6 52 6 81 118 25 93 71 184 112 218 34 28 139 84 159 84 7 0 31 -9 52 -21 46
-24 90 -26 256 -8 l115 12 78 -32 c75 -30 107 -37 107 -26 0 4 -7 20 -16 37
-15 29 -15 31 12 59 32 34 50 36 99 12 36 -17 38 -17 75 5 43 25 72 27 119 11
45 -16 85 4 123 60 17 25 42 59 55 74 21 26 22 35 17 115 -8 124 9 335 31 368
23 35 66 51 187 69 57 8 134 22 171 31 90 22 137 14 190 -28 79 -65 152 -108
180 -108 36 0 95 55 185 175 37 49 84 100 103 113 76 51 72 40 66 187 -4 115
-8 139 -31 182 -25 51 -25 63 2 63 37 0 82 34 104 78 21 44 23 61 25 242 3
258 17 416 46 522 24 82 29 92 102 172 114 125 128 132 310 146 109 9 127 13
192 46 87 45 233 167 233 195 0 22 -76 173 -95 189 -9 7 -38 3 -96 -16 -72
-23 -96 -26 -183 -22 -70 2 -109 9 -126 20 -14 8 -47 18 -75 22 -31 4 -73 20
-115 46 -94 56 -109 60 -236 60 -155 0 -154 -1 -154 160 0 109 2 120 20 130
26 14 46 54 54 113 6 38 14 52 42 75 66 51 80 111 44 191 -20 42 -21 43 -43
27 -61 -44 -74 -47 -137 -34 -55 11 -62 10 -99 -10 -53 -30 -127 -30 -169 1
-181 132 -212 147 -297 147 -44 0 -91 8 -141 25 -41 14 -83 25 -93 25 -11 0
-35 -16 -55 -35 -54 -52 -92 -68 -145 -62 -49 5 -75 -4 -101 -36 -35 -42 -139
6 -178 83 -12 24 -28 50 -35 56 -6 6 -68 18 -135 27 -104 13 -126 18 -138 36
-9 12 -20 21 -25 21 -5 0 -39 -20 -76 -45 -54 -37 -73 -45 -112 -45 -25 0 -68
-7 -96 -16 -59 -18 -126 -12 -182 17 -20 10 -42 19 -49 19 -6 0 -29 -18 -50
-40 -62 -64 -83 -58 -150 45 -59 92 -77 105 -150 105 -85 0 -152 50 -174 128
-5 20 -25 59 -45 86 -19 27 -35 58 -35 68 0 33 -36 58 -85 58 -30 0 -50 6 -60
18 -9 9 -29 34 -46 55 -35 41 -61 46 -107 20 -28 -16 -30 -16 -106 25 -43 23
-85 42 -94 42 -9 0 -51 -19 -94 -43z"/>
</g>
</svg>
