<?xml version="1.0" standalone="no"?>
<!DOCTYPE svg PUBLIC "-//W3C//DTD SVG 20010904//EN"
 "http://www.w3.org/TR/2001/REC-SVG-20010904/DTD/svg10.dtd">
<svg version="1.0" xmlns="http://www.w3.org/2000/svg"
 width="697.000000pt" height="786.000000pt" viewBox="0 0 697.000000 786.000000"
 preserveAspectRatio="xMidYMid meet">

<g transform="translate(0.000000,786.000000) scale(0.100000,-0.100000)"
fill="#000000" stroke="none">
<path d="M635 7499 c-50 -12 -57 -20 -71 -72 -9 -39 -13 -42 -41 -39 -35 3
-48 -10 -57 -60 -5 -28 -12 -38 -26 -38 -34 0 -64 -20 -94 -61 -15 -22 -45
-48 -65 -57 -20 -9 -37 -17 -39 -18 -8 -5 29 -62 61 -95 35 -37 41 -60 63
-277 l6 -64 36 7 37 7 -19 -21 c-23 -25 -8 -27 34 -6 38 20 75 70 89 120 15
56 13 192 -4 239 l-14 40 45 53 c25 29 58 60 75 70 16 9 29 21 29 25 0 14 105
78 127 78 34 0 29 31 -18 111 -39 66 -43 69 -78 68 -20 -1 -54 -5 -76 -10z"/>
<path d="M1115 6713 c-82 -7 -105 -15 -145 -48 l-42 -35 -42 25 c-71 42 -154
26 -215 -39 -14 -15 -46 -40 -73 -57 -43 -28 -53 -30 -100 -25 l-53 7 26 -23
c39 -34 178 -243 214 -323 18 -38 47 -88 64 -109 17 -22 34 -51 37 -65 3 -14
12 -46 20 -70 8 -25 14 -61 14 -80 0 -45 52 -157 87 -187 20 -17 27 -34 30
-75 8 -89 57 -198 132 -293 17 -21 31 -46 31 -55 -1 -42 -21 -96 -44 -118 -14
-13 -30 -42 -36 -66 -17 -66 -30 -86 -67 -98 -30 -10 -33 -14 -33 -50 0 -40
28 -102 92 -204 20 -33 31 -61 29 -82 -2 -39 34 -120 60 -134 12 -6 19 -21 19
-39 0 -36 30 -68 70 -77 30 -6 38 -17 20 -28 -27 -17 -8 -59 55 -125 l66 -67
4 -119 c3 -65 10 -141 16 -167 10 -42 8 -63 -20 -180 -17 -73 -45 -175 -61
-228 -17 -52 -30 -105 -30 -116 0 -12 -5 -25 -10 -28 -6 -3 -28 -39 -51 -80
-46 -85 -50 -89 -137 -135 -58 -31 -67 -40 -77 -77 -15 -51 -60 -131 -90 -158
-12 -11 -42 -34 -67 -51 -36 -26 -47 -40 -56 -77 -17 -66 -15 -89 13 -149 39
-84 33 -117 -26 -131 -14 -4 -41 -17 -60 -30 l-34 -23 3 -99 c3 -82 -1 -110
-17 -155 -12 -30 -21 -77 -21 -105 -1 -93 -20 -190 -52 -260 -25 -55 -33 -89
-38 -155 -7 -107 -32 -159 -92 -192 -70 -38 -72 -60 -17 -195 12 -28 11 -39
-4 -79 -15 -41 -15 -50 -2 -102 8 -31 15 -68 15 -83 0 -14 11 -38 25 -53 27
-30 26 -71 -5 -116 -28 -41 -40 -89 -40 -159 l0 -65 37 36 c21 20 63 48 93 62
50 23 63 25 136 19 68 -5 110 0 250 26 93 18 183 39 199 47 17 7 49 20 73 29
53 18 76 7 111 -55 18 -33 39 -49 129 -95 101 -52 110 -55 162 -50 183 17
1876 29 2095 15 17 -2 49 1 72 5 28 5 48 4 56 -4 8 -6 43 -17 78 -24 l64 -12
27 -57 c33 -68 46 -73 158 -65 76 6 78 6 105 -23 29 -30 59 -39 70 -20 8 13
199 12 255 -2 37 -9 56 -8 102 6 53 15 60 15 98 0 25 -10 52 -14 74 -10 38 7
75 -4 126 -39 34 -23 37 -23 115 -10 157 26 171 26 212 -6 19 -16 37 -29 39
-29 22 0 861 223 868 231 16 16 -21 39 -63 39 -20 0 -41 4 -47 8 -7 4 -29 41
-50 82 -32 62 -50 83 -100 120 -46 33 -63 53 -68 76 -8 37 -17 46 -121 108
-77 47 -144 115 -158 161 -4 11 -8 205 -11 430 -3 226 -8 632 -12 904 l-7 494
189 -6 c104 -4 337 -12 517 -18 200 -7 332 -8 338 -2 5 5 5 22 -1 43 -24 85
-6 197 41 246 l29 30 -35 68 c-45 86 -45 131 -5 326 16 80 30 168 30 195 0 28
7 63 15 79 19 35 19 44 0 62 -8 9 -15 29 -15 46 0 31 0 31 -21 12 -17 -16 -38
-19 -113 -20 -131 -2 -175 -11 -188 -40 -13 -27 -39 -31 -58 -9 -18 22 -37 19
-80 -16 -31 -25 -45 -30 -67 -25 -73 18 -82 18 -109 -3 l-27 -21 -33 29 c-18
16 -41 32 -52 35 -22 7 -72 -9 -72 -23 0 -6 -14 -26 -31 -46 -30 -34 -33 -35
-50 -19 -11 9 -19 23 -19 30 0 7 -14 29 -30 47 -59 67 -48 127 29 167 50 25
64 62 56 155 -7 83 -41 238 -60 274 -19 38 -77 96 -112 115 -17 8 -43 37 -58
63 -25 46 -26 53 -21 153 15 299 21 354 44 398 30 57 55 158 49 197 -4 22 -24
50 -67 91 l-62 59 7 65 c4 36 13 80 21 99 8 18 14 46 14 62 0 25 -5 29 -37 35
-21 4 -55 15 -77 26 -40 20 -61 22 -274 18 -95 -2 -109 0 -182 30 -44 18 -80
37 -81 44 0 6 0 37 1 69 1 50 -1 57 -18 57 -27 0 -84 -20 -103 -36 -11 -10
-47 -14 -123 -14 -93 0 -117 4 -174 26 -60 24 -68 26 -91 13 -48 -27 -107
-182 -97 -254 5 -33 3 -43 -14 -58 -19 -16 -20 -25 -15 -70 10 -77 -3 -99 -81
-141 -76 -42 -90 -42 -194 0 -35 14 -73 23 -85 20 -11 -3 -46 -8 -76 -11 -74
-9 -116 -22 -169 -56 -44 -28 -48 -28 -150 -22 -95 5 -110 4 -147 -16 -23 -11
-49 -21 -57 -21 -8 0 -26 26 -41 58 -62 136 -136 251 -185 287 -54 40 -60 50
-60 108 0 29 -8 54 -25 79 -14 20 -25 43 -25 51 0 8 -9 26 -20 39 -11 14 -24
36 -30 49 -5 13 -20 36 -31 51 -18 22 -22 41 -24 110 -1 78 -5 92 -54 199 -29
62 -62 122 -74 133 -21 18 -44 19 -742 10 -869 -10 -795 -9 -825 -3 -14 3 -43
4 -65 2z"/>
</g>
</svg>
