<?xml version="1.0" standalone="no"?>
<!DOCTYPE svg PUBLIC "-//W3C//DTD SVG 20010904//EN"
 "http://www.w3.org/TR/2001/REC-SVG-20010904/DTD/svg10.dtd">
<svg version="1.0" xmlns="http://www.w3.org/2000/svg"
 width="581.000000pt" height="1000.000000pt" viewBox="0 0 581.000000 1000.000000"
 preserveAspectRatio="xMidYMid meet">

<g transform="translate(0.000000,1000.000000) scale(0.100000,-0.100000)"
fill="#000000" stroke="none">
<path d="M1744 9780 c-26 -28 -46 -40 -64 -40 -42 0 -54 -21 -33 -58 17 -30
17 -32 -6 -62 -25 -35 -25 -35 7 -45 20 -6 22 -4 17 17 -4 16 -1 29 9 37 22
19 46 6 46 -24 0 -33 27 -33 42 0 6 14 18 25 26 25 10 0 12 5 7 18 -19 42 -17
70 4 81 12 7 21 10 22 9 0 -2 2 -21 3 -43 4 -53 -43 -138 -95 -170 -20 -13
-44 -33 -52 -45 -13 -18 -18 -19 -70 -9 -53 11 -167 5 -167 -9 0 -3 5 -20 12
-38 9 -27 8 -43 -7 -92 -21 -72 -17 -88 55 -208 27 -46 50 -86 50 -90 0 -4 -8
-17 -19 -28 -10 -12 -22 -31 -25 -42 -6 -21 -2 -22 78 -29 47 -4 90 -4 97 0
14 9 131 -105 169 -165 23 -36 30 -41 36 -27 3 10 -1 28 -10 42 -9 13 -16 43
-16 65 0 42 23 110 37 110 13 0 113 -104 113 -117 0 -7 18 -33 41 -60 106
-127 124 -137 135 -78 7 40 24 38 24 -3 0 -15 7 -40 15 -55 19 -38 28 -90 20
-118 -7 -21 -8 -21 -21 9 -14 35 -34 41 -55 16 -10 -13 -9 -27 9 -83 28 -85
27 -89 -4 -145 -33 -58 -45 -66 -42 -25 4 41 -17 49 -25 9 -4 -16 -11 -30 -17
-30 -16 0 -12 45 6 77 16 26 16 33 0 86 -14 49 -22 60 -46 69 -36 12 -39 41
-10 98 11 22 20 46 20 54 0 27 -44 67 -80 72 -51 7 -62 -4 -48 -47 29 -90 41
-101 52 -49 3 17 10 30 16 30 13 0 13 -67 0 -75 -26 -16 -8 -76 41 -132 23
-27 27 -38 22 -70 -9 -60 -21 -83 -41 -83 -31 0 -18 -55 20 -94 18 -18 45 -52
60 -77 16 -24 45 -65 66 -92 21 -26 46 -70 56 -98 10 -27 34 -68 52 -90 50
-60 47 -90 -29 -240 -85 -166 -87 -177 -38 -233 38 -44 38 -45 46 -156 6 -106
6 -113 -14 -126 -11 -8 -26 -33 -32 -55 -7 -22 -26 -52 -43 -66 -25 -21 -36
-24 -65 -18 -65 14 -89 9 -127 -25 -35 -30 -41 -32 -92 -27 -97 10 -114 51
-79 192 8 33 20 98 27 145 12 83 12 88 -15 168 -15 45 -25 92 -22 104 4 12 0
42 -7 67 -7 25 -30 116 -51 201 -39 167 -39 201 1 259 17 23 16 25 -9 45 -14
12 -43 33 -65 47 -44 30 -104 113 -104 144 0 11 3 36 7 56 7 35 5 37 -34 60
-40 22 -58 49 -46 69 4 6 4 24 0 40 -5 21 -13 30 -28 31 -13 1 -51 33 -97 81
-71 76 -75 82 -75 126 l0 47 -41 -2 -40 -3 -41 78 c-46 87 -58 128 -42 137 6
4 19 27 29 51 11 24 23 44 28 44 5 0 21 9 36 21 l27 21 -25 43 c-21 35 -23 45
-12 54 20 17 43 4 55 -30 7 -22 22 -35 51 -46 65 -26 49 -73 -25 -73 -49 0
-81 -20 -72 -44 5 -13 11 -15 26 -6 49 26 131 0 117 -37 -4 -8 -9 -26 -12 -39
-8 -31 -20 -31 -28 1 -7 28 -13 29 -51 15 -22 -8 -32 -6 -53 11 -24 19 -27 19
-30 4 -2 -9 -1 -32 2 -50 6 -29 15 -38 59 -59 29 -13 60 -27 69 -30 12 -3 16
-16 16 -50 0 -35 7 -54 26 -77 14 -17 26 -41 26 -54 0 -33 26 -58 49 -45 10 5
35 7 55 3 47 -7 47 10 -1 29 -58 23 -112 107 -117 184 -4 62 9 100 47 142 23
25 43 28 51 10 3 -9 9 -7 20 6 23 28 20 55 -8 65 -18 7 -24 19 -29 53 -10 73
-23 98 -51 98 -14 0 -28 -4 -31 -10 -10 -17 -25 -11 -25 9 0 11 9 23 20 26 11
3 20 15 20 25 0 24 21 70 32 70 23 0 4 40 -27 59 -19 11 -35 27 -35 36 0 8
-12 20 -27 26 -23 9 -30 7 -38 -7 -5 -10 -26 -36 -46 -58 -19 -23 -48 -63 -64
-91 -48 -84 -141 -199 -202 -250 -32 -27 -62 -52 -67 -56 -5 -4 -6 -19 -2 -32
5 -20 12 -24 44 -24 48 0 80 -21 121 -78 18 -25 57 -64 87 -86 30 -22 66 -59
81 -82 15 -23 42 -59 60 -80 18 -20 33 -48 33 -62 0 -30 33 -139 65 -215 13
-30 27 -68 31 -85 9 -41 31 -63 73 -75 20 -6 41 -13 46 -17 20 -15 75 -109
106 -183 27 -65 32 -89 34 -178 2 -73 8 -110 19 -127 9 -13 16 -38 16 -55 0
-17 9 -56 21 -88 30 -82 46 -403 22 -459 -8 -21 -19 -63 -23 -93 -4 -31 -26
-100 -49 -153 -23 -53 -41 -106 -41 -119 0 -13 -9 -59 -19 -103 -29 -123 -34
-204 -16 -255 8 -23 15 -53 15 -66 0 -29 56 -94 80 -94 11 0 22 10 26 23 3 12
31 52 61 89 47 58 61 69 108 83 40 11 61 25 84 54 20 25 43 42 63 47 18 3 54
22 81 40 27 19 54 34 61 34 6 0 29 14 50 30 22 17 44 30 49 30 5 0 31 -20 59
-44 38 -35 59 -46 96 -51 84 -11 91 -14 173 -89 45 -41 98 -82 118 -91 81 -39
118 -55 153 -65 42 -13 98 -70 98 -100 0 -24 54 -60 90 -60 111 1 278 -14 300
-27 58 -36 164 -130 191 -170 17 -24 48 -56 71 -70 30 -20 50 -47 80 -106 22
-44 53 -92 70 -108 30 -27 31 -30 20 -67 -18 -58 -16 -113 3 -106 10 4 15 20
15 44 0 55 50 117 114 141 26 10 57 26 67 35 20 18 32 17 169 -11 41 -8 93
-15 115 -15 34 0 47 -6 76 -37 20 -21 43 -50 52 -65 12 -20 26 -28 45 -28 32
0 46 -9 55 -33 5 -12 15 -17 29 -15 42 6 31 33 -32 77 -75 53 -84 79 -41 120
37 35 38 44 7 68 -23 17 -76 136 -76 170 0 8 14 32 32 54 31 38 32 42 34 152
3 93 0 118 -15 147 -10 20 -22 55 -26 77 -6 40 -5 43 25 58 30 16 32 19 26 56
-5 32 -1 46 19 77 14 22 32 72 41 120 16 76 16 84 0 100 -21 24 -20 56 4 127
11 32 20 64 20 72 0 8 -20 22 -44 32 -24 11 -46 27 -50 36 -3 9 -6 58 -6 108
0 77 -3 94 -20 112 -12 13 -28 58 -41 115 -11 52 -29 109 -40 126 -10 17 -19
40 -19 50 0 11 -6 29 -14 40 -8 11 -24 58 -35 104 -12 46 -32 102 -46 125 -33
57 -125 178 -178 234 -24 25 -66 75 -94 111 -29 36 -62 71 -75 78 -13 7 -34
34 -48 59 -16 31 -35 50 -53 56 -15 5 -40 22 -56 37 -16 16 -41 32 -57 36 -16
4 -55 20 -86 36 -53 26 -58 32 -64 68 -6 35 -15 46 -75 90 -71 51 -90 79 -129
182 -18 50 -24 56 -79 81 -34 15 -66 39 -76 54 -10 16 -29 41 -44 56 -18 20
-26 39 -26 65 0 37 0 37 -50 43 -27 3 -63 11 -78 17 -16 7 -64 12 -108 12 -62
0 -81 -3 -85 -15 -4 -9 -15 -20 -26 -26 -28 -15 -62 11 -99 76 -36 63 -33 61
-81 70 -32 6 -40 3 -59 -20 -20 -22 -29 -25 -60 -20 -22 4 -40 2 -44 -4 -3 -6
1 -11 9 -11 9 0 16 -9 16 -20 0 -12 15 -29 40 -45 84 -53 73 -107 -33 -160
-41 -20 -67 -49 -55 -61 4 -3 24 8 45 24 21 17 51 34 66 38 16 3 36 18 45 33
9 14 17 27 18 29 1 2 22 4 47 6 25 1 57 10 71 19 35 23 36 22 36 -22 0 -34 -5
-42 -35 -60 -19 -11 -35 -25 -35 -30 0 -6 -12 -16 -27 -23 -18 -8 -29 -22 -31
-39 -2 -21 -7 -25 -26 -22 -18 4 -26 -2 -36 -26 -15 -38 -24 -39 -55 -4 l-23
28 -39 -21 c-33 -19 -53 -21 -144 -20 l-106 1 -51 46 c-63 57 -132 143 -132
164 0 9 -11 38 -25 65 -30 60 -31 76 -5 90 11 6 20 18 20 26 0 9 -9 18 -20 21
-21 5 -25 19 -14 47 9 23 25 20 50 -11 l21 -27 47 46 c38 38 46 53 46 82 0 36
11 45 33 26 7 -6 21 -17 31 -24 18 -12 19 -17 8 -54 -14 -47 -2 -88 30 -97 29
-10 21 -48 -17 -85 -19 -19 -35 -37 -35 -41 0 -15 62 -69 78 -69 9 0 40 23 69
50 34 33 61 50 77 50 43 0 40 20 -11 73 -60 63 -89 104 -98 140 -4 15 -20 36
-35 47 -15 11 -37 44 -50 74 -18 45 -32 61 -71 87 -52 33 -69 55 -69 88 0 12
-11 26 -27 35 -16 8 -46 33 -68 56 -38 40 -149 120 -166 120 -5 0 -25 -18 -45
-40z"/>
<path d="M1800 4320 c-69 -32 -141 -62 -162 -65 -20 -4 -44 -12 -54 -20 -16
-11 -17 -17 -6 -51 11 -36 10 -41 -17 -74 -15 -19 -47 -46 -70 -60 -47 -28
-144 -136 -138 -154 2 -6 17 -12 33 -14 50 -4 72 -11 88 -28 21 -20 20 -63 0
-93 -14 -20 -22 -22 -63 -16 -59 8 -101 -19 -101 -66 0 -34 -19 -79 -55 -128
-27 -36 -33 -89 -13 -109 7 -7 39 -12 71 -12 54 0 63 3 99 36 22 19 45 33 51
31 7 -2 13 -20 15 -40 3 -31 0 -37 -17 -37 -12 0 -25 -11 -33 -27 -8 -17 -25
-30 -47 -35 -20 -6 -35 -17 -38 -29 -3 -10 -11 -19 -18 -19 -9 0 -10 -8 -2
-32 10 -31 13 -33 56 -34 76 -1 129 -21 152 -57 42 -69 -6 -118 -82 -83 -35
16 -40 19 -121 73 -30 19 -67 34 -96 38 -26 3 -67 13 -92 22 -25 9 -71 25
-103 36 -35 12 -65 30 -74 44 -9 14 -25 23 -40 23 -14 0 -41 14 -60 30 -34 30
-66 37 -91 21 -12 -7 -11 -14 2 -39 20 -39 20 -42 -3 -42 -25 0 -37 17 -44 63
-9 57 -24 70 -71 64 -43 -6 -71 -32 -60 -57 21 -47 16 -72 -17 -106 -19 -19
-54 -46 -78 -61 -24 -14 -55 -35 -68 -47 -29 -24 -67 -96 -78 -143 -3 -18 -18
-42 -32 -53 -23 -17 -25 -25 -19 -61 5 -32 2 -48 -14 -74 -24 -39 -19 -58 25
-85 36 -22 70 -26 81 -9 4 8 27 9 68 5 60 -6 63 -5 92 25 16 18 59 51 96 76
37 24 70 48 73 53 11 17 33 11 68 -20 22 -19 46 -30 65 -30 33 0 68 -34 78
-75 11 -42 -49 -128 -113 -164 -12 -6 -19 -30 -24 -76 -8 -77 -20 -96 -46 -72
-26 23 -104 57 -133 57 -14 0 -35 -7 -47 -15 -12 -8 -54 -22 -94 -30 -49 -11
-82 -24 -99 -40 -32 -31 -69 -44 -103 -38 -22 4 -27 2 -27 -15 0 -20 25 -34
83 -46 15 -4 37 -18 49 -31 l21 -25 32 20 c40 25 60 25 77 1 7 -10 23 -21 36
-25 12 -4 22 -14 22 -21 0 -8 7 -18 16 -23 13 -7 15 -17 10 -38 -18 -74 -18
-84 -2 -90 22 -8 65 21 77 54 16 41 39 62 69 62 30 0 40 -15 40 -59 0 -39 -53
-96 -124 -134 -49 -27 -66 -43 -99 -97 -29 -48 -40 -77 -41 -110 l-1 -44 -45
-8 c-50 -9 -74 -32 -65 -63 3 -11 11 -45 17 -75 5 -30 14 -63 19 -73 5 -9 19
-43 31 -74 18 -49 19 -61 8 -91 -11 -32 -10 -36 19 -66 24 -24 34 -47 41 -90
14 -84 16 -88 68 -124 26 -18 70 -50 97 -72 47 -38 54 -40 120 -40 52 0 77 -5
99 -19 20 -14 39 -18 58 -14 21 4 38 0 58 -16 20 -14 44 -21 75 -21 25 0 71
-9 103 -20 31 -11 111 -34 176 -50 75 -18 127 -37 141 -50 19 -18 30 -20 79
-14 44 5 65 3 97 -11 51 -24 66 -12 48 38 -17 49 -7 67 39 67 70 0 79 -36 32
-130 -16 -32 -33 -78 -36 -102 -7 -41 -7 -42 11 -25 10 11 26 16 37 14 32 -9
71 12 108 58 19 24 40 46 47 49 6 3 28 -8 49 -25 59 -46 105 -55 199 -36 147
30 185 45 196 76 13 36 52 42 163 27 79 -11 79 -12 132 -70 41 -45 62 -60 95
-67 23 -5 44 -7 47 -5 2 3 -3 23 -12 46 -24 60 -20 81 18 112 28 23 35 36 38
70 3 41 5 43 43 51 22 5 59 17 83 28 53 24 86 24 139 0 54 -25 76 -60 77 -121
1 -38 -4 -54 -23 -74 -24 -26 -137 -66 -186 -66 -39 0 -65 -18 -65 -44 0 -32
31 -57 78 -63 42 -6 52 -19 52 -71 0 -17 16 -33 62 -62 33 -22 67 -40 73 -40
25 0 39 33 44 103 l6 72 32 3 c26 3 36 -3 55 -29 27 -36 121 -82 151 -73 13 4
29 -3 51 -24 17 -16 41 -33 54 -37 36 -11 110 33 154 91 39 53 85 81 113 71
11 -5 13 -16 9 -50 -7 -50 8 -63 50 -48 23 9 76 87 76 113 0 7 -33 43 -72 80
-62 58 -71 71 -62 85 8 13 25 18 56 18 78 0 97 38 68 133 -18 59 -42 82 -86
82 -25 0 -54 29 -54 54 0 9 -5 27 -12 39 -6 12 -11 36 -9 53 1 18 -4 36 -13
43 -8 7 -18 33 -22 57 -4 27 -13 48 -24 54 -29 15 -31 48 -5 78 l24 27 46 -24
c46 -24 47 -24 92 -8 45 17 47 17 98 -7 63 -28 167 -108 185 -141 12 -22 70
-45 117 -45 10 0 41 -11 68 -25 28 -13 61 -25 75 -25 14 0 57 -13 95 -29 53
-21 94 -30 165 -35 l96 -7 27 31 c23 26 34 30 77 30 46 0 52 3 70 33 28 45 26
92 -5 119 -14 12 -25 32 -25 45 0 29 33 63 61 63 11 0 36 18 56 40 20 22 42
40 49 40 7 0 22 -16 34 -36 24 -37 31 -38 95 -14 33 13 32 21 -10 59 -34 31
-35 32 -20 61 8 16 15 40 15 54 0 38 -28 148 -49 196 -15 34 -17 49 -9 81 11
41 3 125 -13 134 -5 4 -23 -4 -40 -16 -25 -18 -39 -20 -79 -15 -47 6 -50 5
-65 -24 -22 -43 -55 -47 -118 -17 -28 15 -63 28 -76 29 -18 2 -28 14 -41 48
-21 55 -52 77 -83 62 -12 -6 -40 -13 -62 -17 -22 -4 -57 -18 -77 -31 -30 -21
-40 -24 -58 -14 -16 9 -25 9 -36 0 -11 -10 -21 -9 -48 4 -43 20 -48 20 -93 -4
-71 -38 -107 -25 -159 56 -20 31 -47 60 -62 66 -32 12 -222 4 -250 -11 -13 -7
-21 -25 -25 -53 -3 -25 -13 -47 -23 -53 -36 -21 -78 -61 -116 -110 -22 -27
-64 -71 -95 -97 -51 -45 -58 -48 -111 -48 -36 0 -74 8 -102 21 -34 15 -56 19
-91 14 -50 -7 -65 2 -71 45 -2 20 -10 26 -36 30 -18 3 -32 10 -31 15 3 19 114
57 179 62 36 2 82 11 103 19 20 8 57 14 82 14 24 0 56 5 72 11 15 6 45 11 65
11 31 -1 46 8 108 67 70 65 71 68 65 104 -7 34 -5 37 17 37 13 0 41 12 62 27
41 27 51 28 155 17 58 -6 65 -9 83 -40 11 -18 42 -49 69 -69 28 -20 59 -51 71
-70 24 -41 36 -43 89 -12 l39 22 39 -22 c37 -22 39 -22 55 -4 9 10 35 21 57
24 51 7 75 28 84 75 4 20 11 59 17 86 l10 48 52 -6 c28 -4 68 -10 89 -13 51
-7 97 13 97 42 0 67 42 116 81 94 17 -8 20 -17 15 -40 -21 -100 -21 -92 5 -84
13 4 40 21 59 37 19 16 41 33 48 39 7 5 12 33 12 62 1 37 8 63 25 92 14 22 25
54 25 71 0 18 7 45 15 60 8 16 15 35 15 42 0 22 -24 8 -38 -21 -15 -32 -67
-63 -77 -46 -4 5 -1 24 6 41 11 27 10 32 -6 44 -28 21 -55 17 -138 -16 -42
-16 -80 -30 -87 -30 -6 0 -38 18 -71 41 -62 42 -61 42 -135 23 -15 -4 -25 2
-38 21 -31 48 3 86 58 66 14 -6 39 -8 56 -5 16 4 44 1 61 -6 27 -12 33 -11 52
8 19 19 19 24 7 35 -45 41 -245 91 -278 71 -26 -16 -26 -50 -1 -91 l23 -36
-27 -21 c-32 -26 -35 -56 -7 -81 14 -12 28 -16 49 -12 23 5 37 0 61 -19 43
-37 38 -46 -20 -38 -49 6 -50 6 -50 -20 0 -23 -2 -25 -19 -16 -30 15 -56 12
-76 -10 -13 -14 -25 -18 -39 -13 -12 4 -38 7 -60 8 -26 0 -42 6 -50 18 -9 15
-6 23 22 45 18 15 32 32 32 39 0 18 -34 33 -51 23 -10 -7 -15 -4 -19 13 -5 17
-14 23 -44 25 -36 3 -37 2 -34 -25 2 -23 8 -29 36 -31 53 -5 37 -18 -46 -35
-49 -11 -101 -31 -137 -53 -92 -55 -138 -30 -76 41 46 53 60 87 67 162 9 92
-8 127 -68 142 -24 5 -61 14 -83 19 -22 6 -75 10 -119 11 -76 0 -138 13 -164
34 -7 6 -19 25 -27 44 -8 18 -28 41 -45 51 -29 16 -30 19 -30 90 l0 72 61 45
c34 25 71 45 83 45 28 0 46 18 46 47 0 16 -12 31 -40 48 -52 33 -68 32 -121
-7 -24 -18 -66 -43 -92 -56 -56 -29 -203 -164 -194 -179 3 -5 33 -20 67 -32
67 -25 83 -44 78 -99 -3 -35 -5 -38 -55 -51 -50 -13 -53 -13 -99 13 -54 30
-62 31 -84 11 -17 -16 -167 -48 -181 -39 -16 10 -9 28 31 89 22 33 40 68 40
77 0 22 -67 98 -87 98 -7 0 -32 -9 -55 -21 -32 -16 -48 -19 -72 -12 -44 12
-42 44 3 57 43 12 66 61 57 122 -10 74 52 106 122 64 42 -26 57 -16 65 44 10
71 -5 98 -81 143 -37 22 -82 44 -99 47 -40 9 -73 49 -73 88 0 24 -6 32 -29 41
-26 10 -32 20 -50 86 -23 83 -53 122 -116 150 -44 20 -80 75 -115 177 -11 31
-25 63 -31 70 -13 16 -131 8 -170 -12 -15 -7 -66 -18 -115 -24 -49 -6 -97 -13
-107 -16 -10 -3 -37 3 -60 15 -23 11 -54 22 -68 25 -14 3 -46 21 -72 41 -25
19 -52 35 -59 34 -7 0 -69 -27 -138 -59z"/>
<path d="M3494 4085 c-67 -34 -88 -128 -41 -184 15 -18 27 -36 27 -41 0 -13
40 -23 83 -22 32 2 39 -2 48 -26 9 -24 12 -25 20 -9 11 20 45 23 52 5 5 -16
74 17 86 41 5 9 9 50 10 91 2 103 -18 136 -86 143 -150 17 -168 18 -199 2z"/>
<path d="M3414 3768 c4 -24 13 -49 20 -56 21 -22 48 12 44 57 -3 33 -6 36 -37
39 l-34 3 7 -43z"/>
<path d="M4252 3428 c-7 -7 -12 -22 -12 -35 0 -13 -6 -23 -14 -23 -8 0 -28
-11 -44 -25 -16 -13 -41 -29 -56 -34 -14 -6 -26 -17 -26 -25 0 -8 -15 -17 -35
-20 -21 -4 -42 -17 -52 -32 -43 -62 -51 -66 -111 -61 -32 3 -71 8 -87 12 -26
6 -33 2 -53 -25 -23 -31 -23 -31 -5 -67 13 -25 30 -41 57 -51 37 -15 42 -14
77 6 20 12 70 27 111 33 40 6 88 17 107 25 18 8 45 14 58 14 14 0 42 13 62 29
20 16 52 35 71 44 19 8 48 28 64 45 l28 30 -17 46 c-10 25 -23 51 -31 57 -7 6
-16 24 -19 40 -5 23 -12 29 -34 29 -15 0 -32 -5 -39 -12z"/>
<path d="M4383 2935 c-10 -8 -31 -15 -46 -15 -35 0 -83 -24 -91 -45 -13 -34
-7 -38 50 -32 59 6 125 46 132 79 4 22 -23 29 -45 13z"/>
<path d="M5298 2083 c-18 -5 -23 -30 -10 -49 18 -25 78 -52 108 -47 18 3 35 0
38 -6 4 -6 18 -11 31 -11 15 0 26 -7 30 -20 4 -12 19 -22 39 -26 99 -18 113
23 30 87 -50 39 -63 44 -120 47 -37 3 -68 10 -75 18 -11 14 -37 16 -71 7z"/>
</g>
</svg>
