<?xml version="1.0" standalone="no"?>
<!DOCTYPE svg PUBLIC "-//W3C//DTD SVG 20010904//EN"
 "http://www.w3.org/TR/2001/REC-SVG-20010904/DTD/svg10.dtd">
<svg version="1.0" xmlns="http://www.w3.org/2000/svg"
 width="271.000000pt" height="538.000000pt" viewBox="0 0 271.000000 538.000000"
 preserveAspectRatio="xMidYMid meet">
<metadata>
Created by potrace 1.16, written by Peter Selinger 2001-2019
</metadata>
<g transform="translate(0.000000,538.000000) scale(0.100000,-0.100000)"
fill="#000000" stroke="none">
<path d="M747 5106 c-64 -71 -67 -77 -67 -125 0 -61 -32 -148 -65 -178 -14
-12 -41 -25 -60 -29 -44 -8 -73 -54 -57 -89 6 -13 8 -71 6 -139 -3 -75 -1
-116 6 -116 13 0 13 -46 0 -71 -6 -10 -16 -19 -23 -19 -26 0 -36 -18 -46 -78
-7 -41 -19 -74 -38 -99 -15 -20 -33 -57 -40 -82 -6 -25 -16 -63 -21 -84 -7
-26 -7 -49 0 -68 5 -16 7 -37 3 -47 -19 -46 -55 -191 -55 -220 0 -18 11 -55
25 -82 19 -38 25 -65 25 -118 0 -70 10 -92 42 -92 15 0 18 -9 18 -65 0 -54 -3
-67 -20 -77 -14 -9 -20 -24 -20 -50 0 -20 -4 -40 -10 -43 -6 -3 -10 -38 -10
-76 0 -75 -7 -94 -52 -149 -39 -48 -39 -123 2 -256 30 -95 29 -113 -2 -114 -4
0 -9 -26 -13 -57 -3 -32 -15 -78 -27 -103 -34 -74 -35 -154 -4 -231 29 -74 33
-114 11 -123 -11 -4 -15 -22 -15 -76 0 -63 3 -74 25 -94 22 -21 25 -31 25 -98
l0 -74 38 -10 c48 -12 50 -38 3 -42 -19 -2 -40 -11 -47 -20 -11 -15 -7 -18 29
-27 39 -9 42 -13 45 -47 3 -30 0 -38 -13 -38 -14 0 -15 -12 -9 -108 6 -101 5
-110 -20 -166 -22 -49 -26 -73 -26 -147 0 -81 -3 -93 -35 -156 -39 -75 -42
-95 -20 -113 8 -7 25 -39 36 -72 24 -63 19 -61 85 -42 19 5 22 0 32 -73 15
-107 17 -109 191 -118 78 -4 143 -11 147 -16 7 -12 44 -12 44 0 0 5 -11 29
-25 52 -29 51 -65 159 -65 197 0 18 18 42 63 86 60 57 65 65 76 126 16 81 26
97 101 155 41 31 60 53 60 68 0 12 3 38 6 58 5 30 2 40 -25 66 -17 17 -46 34
-66 37 -89 17 -99 35 -81 146 17 100 36 116 159 144 23 5 26 10 21 30 -4 18
-1 26 14 30 11 4 27 15 37 26 16 18 16 22 1 61 -14 33 -15 48 -6 75 7 19 15
34 18 34 4 1 20 12 37 25 l30 25 -23 15 c-18 13 -22 25 -22 71 0 32 -10 83
-25 126 -14 39 -25 82 -25 95 0 31 34 38 90 18 25 -9 74 -19 110 -22 60 -5 68
-3 95 20 27 22 28 27 17 51 -18 41 -15 55 23 89 41 36 42 44 15 97 -35 68 -33
70 83 63 62 -3 130 -1 172 6 110 19 250 69 297 104 87 66 152 258 98 287 -21
11 -27 44 -10 55 17 10 11 51 -11 79 -11 15 -38 35 -60 46 -61 32 -71 55 -78
186 l-6 115 31 18 c35 21 37 29 50 260 l7 114 138 147 c158 167 189 194 279
237 41 20 92 58 138 102 72 71 72 71 72 125 0 73 -11 99 -55 126 -29 18 -38
20 -51 9 -25 -21 -42 -61 -49 -122 -8 -63 -4 -59 -97 -96 -18 -7 -28 -18 -28
-31 0 -19 -6 -20 -106 -20 -91 0 -297 30 -313 45 -2 3 10 20 28 40 24 28 31
45 31 78 0 36 6 49 35 77 27 26 35 42 35 69 0 49 -6 56 -80 87 -36 16 -105 53
-155 82 -129 78 -133 80 -186 87 -41 6 -49 10 -49 28 0 14 -41 63 -117 139
l-118 118 -72 0 c-39 0 -79 -3 -87 -6 -9 -4 -26 -28 -37 -55 -22 -51 -39 -63
-39 -29 0 10 -5 30 -11 43 -10 22 -19 25 -92 31 -61 5 -87 12 -102 26 -12 11
-28 20 -36 20 -9 0 -46 -33 -82 -74z"/>
<path d="M751 255 l-2 -145 78 0 c55 0 85 -5 101 -16 39 -27 155 -16 172 16
17 32 12 37 -47 49 -73 14 -113 38 -155 94 -18 24 -51 53 -73 64 -30 14 -41
26 -45 48 -3 15 -10 30 -16 32 -7 2 -11 -45 -13 -142z"/>
</g>
</svg>
