<?xml version="1.0" standalone="no"?>
<!DOCTYPE svg PUBLIC "-//W3C//DTD SVG 20010904//EN"
 "http://www.w3.org/TR/2001/REC-SVG-20010904/DTD/svg10.dtd">
<svg version="1.0" xmlns="http://www.w3.org/2000/svg"
 width="940.000000pt" height="932.000000pt" viewBox="0 0 940.000000 932.000000"
 preserveAspectRatio="xMidYMid meet">
<metadata>
Created by potrace 1.16, written by Peter Selinger 2001-2019
</metadata>
<g transform="translate(0.000000,932.000000) scale(0.100000,-0.100000)"
fill="#000000" stroke="none">
<path d="M4102 9107 c-5 -7 -15 -47 -21 -90 -10 -60 -10 -85 -1 -107 11 -27
46 -50 76 -50 8 0 32 -9 54 -20 26 -13 49 -18 69 -14 24 5 31 3 31 -9 0 -32
-73 -37 -122 -7 -18 11 -48 20 -67 20 -19 0 -42 7 -51 15 -15 14 -20 14 -46 0
-16 -8 -47 -15 -70 -15 -30 0 -46 -6 -64 -25 -26 -28 -40 -25 -40 9 0 32 -5
34 -51 22 -47 -12 -59 -2 -59 51 0 41 -27 50 -89 28 -24 -8 -65 -15 -91 -15
-55 0 -72 -15 -68 -57 3 -25 -1 -28 -27 -31 -16 -2 -37 -9 -45 -16 -8 -7 -27
-17 -42 -24 -16 -6 -28 -16 -28 -22 0 -5 -9 -10 -20 -10 -19 0 -20 4 -15 38 4
20 9 45 12 55 2 10 -1 17 -9 17 -25 0 -58 -31 -66 -63 -6 -24 -23 -42 -67 -71
l-58 -39 -71 38 c-39 21 -100 60 -136 87 -98 73 -135 75 -154 9 -10 -35 -23
-38 -68 -15 -21 11 -43 14 -73 10 -39 -6 -44 -5 -69 29 -35 46 -74 65 -133 65
-26 1 -59 7 -73 15 -40 23 -46 18 -47 -32 -1 -27 -9 -73 -20 -103 l-18 -55
-70 -7 c-67 -6 -145 5 -145 20 0 4 -4 13 -9 21 -7 11 -14 10 -37 -6 -40 -28
-90 -43 -139 -43 -33 0 -56 -9 -103 -40 -33 -22 -66 -40 -73 -40 -7 0 -23 12
-34 27 l-22 26 -74 -23 c-41 -12 -104 -26 -141 -31 -38 -5 -83 -16 -100 -25
-33 -16 -116 -79 -187 -140 -41 -35 -37 -36 -150 19 l-85 40 -80 -13 c-106
-18 -113 -17 -150 19 -25 24 -41 31 -71 31 -56 0 -145 -26 -175 -50 -14 -11
-53 -34 -87 -51 -34 -17 -67 -37 -74 -45 -19 -23 -14 -58 15 -100 22 -33 26
-49 26 -111 0 -85 14 -106 82 -122 24 -6 66 -23 93 -37 28 -15 83 -44 123 -65
40 -21 98 -58 130 -82 31 -24 78 -58 105 -76 51 -34 58 -59 36 -118 -8 -22 -7
-30 5 -39 13 -9 14 -25 9 -91 -7 -97 3 -132 58 -198 51 -62 91 -139 120 -235
19 -64 21 -81 11 -124 -8 -39 -7 -56 3 -71 8 -13 9 -28 4 -42 -6 -16 -2 -29
12 -47 25 -32 18 -60 -21 -76 -40 -16 -63 -55 -56 -92 5 -24 0 -35 -29 -64
-19 -19 -35 -44 -35 -55 0 -20 -45 -109 -60 -119 -4 -3 -9 -14 -11 -25 -3 -13
-17 -22 -43 -28 l-38 -10 6 -49 7 -50 -28 6 c-26 6 -27 5 -9 -8 22 -18 13 -36
-19 -36 -13 0 -30 -6 -37 -14 -8 -7 -35 -22 -60 -34 -51 -22 -107 -77 -108
-105 0 -10 -7 -20 -15 -23 -26 -10 -17 -43 18 -60 17 -9 58 -37 89 -61 57 -44
60 -48 82 -143 4 -17 -6 -48 -31 -97 -19 -40 -38 -92 -40 -116 -4 -40 -1 -46
56 -110 70 -78 83 -100 75 -121 -9 -23 13 -44 57 -56 44 -12 76 -48 85 -96 8
-43 -6 -60 -56 -68 -22 -3 -40 -10 -40 -16 0 -5 18 -24 40 -41 28 -22 46 -48
58 -82 9 -27 25 -53 35 -58 9 -5 17 -13 17 -18 0 -10 -41 -27 -87 -36 -38 -8
-73 -47 -73 -82 0 -14 17 -45 38 -70 93 -114 134 -137 223 -126 67 8 125 -16
191 -79 39 -37 64 -53 96 -59 24 -5 69 -24 100 -44 94 -57 193 -67 254 -24 32
23 61 24 93 3 29 -19 79 -16 176 11 66 19 68 19 158 -2 97 -22 153 -18 165 12
3 10 19 15 43 15 27 0 45 8 66 28 24 23 36 27 83 26 53 -2 114 -19 114 -34 0
-12 49 -30 81 -30 40 0 101 -32 134 -71 24 -30 32 -33 85 -33 66 -1 97 -22
131 -88 12 -24 28 -40 44 -43 14 -3 36 -7 49 -10 24 -5 39 -32 51 -92 7 -37
56 -83 89 -83 27 0 56 -46 56 -89 0 -47 17 -73 68 -106 46 -30 47 -32 45 -78
l-3 -47 44 -12 c38 -10 44 -15 43 -37 -2 -22 5 -28 50 -44 33 -12 53 -26 56
-39 5 -18 11 -20 51 -14 l46 7 0 -31 c0 -23 9 -39 35 -61 21 -19 35 -40 35
-54 0 -42 19 -74 62 -106 38 -27 48 -30 91 -24 91 11 241 55 277 80 51 36 78
33 95 -10 35 -83 126 -74 243 24 28 24 62 61 76 82 15 21 31 39 37 39 7 0 29
16 50 35 22 19 43 35 49 35 35 0 168 -165 214 -268 19 -40 43 -84 54 -97 44
-50 54 -73 43 -94 -15 -28 -14 -56 3 -71 13 -10 12 -18 -7 -56 -18 -38 -19
-49 -9 -77 6 -17 9 -41 6 -53 -8 -29 15 -43 71 -46 48 -3 48 -4 73 49 12 25
78 56 132 61 41 4 49 1 64 -19 10 -15 16 -44 16 -79 0 -64 11 -83 59 -108 34
-17 44 -28 55 -66 6 -17 13 -18 76 -12 l70 7 53 -50 c30 -28 58 -51 63 -51 13
-1 74 -58 74 -70 0 -18 12 -11 44 24 38 42 142 126 213 172 28 18 57 42 63 53
9 17 20 21 68 21 47 0 67 6 112 33 79 47 173 87 205 87 15 0 40 -11 55 -24 16
-13 49 -27 75 -30 39 -6 55 -16 95 -59 46 -49 49 -56 65 -145 16 -89 16 -116
1 -153 -5 -12 3 -22 29 -38 20 -12 35 -25 33 -29 -2 -4 -14 -36 -27 -70 -16
-43 -32 -67 -48 -75 -40 -18 -68 -167 -39 -211 18 -28 96 -56 158 -56 41 0 57
-12 98 -72 14 -20 34 -39 46 -42 12 -3 47 -26 80 -51 32 -25 76 -50 99 -56 85
-22 90 -28 87 -95 -2 -32 -10 -69 -17 -81 -12 -17 -13 -41 -6 -120 5 -54 14
-111 20 -126 6 -16 11 -46 11 -67 0 -32 5 -43 28 -57 15 -10 30 -22 34 -28 11
-15 10 -59 -2 -71 -13 -13 39 -124 58 -124 7 0 24 -11 37 -25 20 -19 25 -34
25 -76 0 -51 2 -54 56 -105 49 -46 55 -55 50 -80 -17 -77 34 -253 95 -332 15
-20 18 -41 17 -127 -1 -82 2 -109 16 -129 9 -14 21 -26 26 -26 23 0 122 64
141 91 11 16 42 40 68 53 26 14 67 41 90 60 48 40 78 51 119 43 18 -4 41 2 70
19 l42 25 82 -36 c45 -19 92 -45 105 -57 20 -18 27 -20 41 -10 42 30 66 34 95
18 19 -10 53 -16 97 -16 65 0 70 -2 85 -27 15 -27 16 -25 12 47 -2 46 -11 88
-22 110 -10 19 -24 56 -31 82 -11 43 -10 50 7 72 10 13 19 36 19 50 0 25 7 34
45 60 16 12 19 23 16 67 -6 86 -4 99 14 119 27 29 12 50 -35 50 -46 0 -49 9
-20 62 23 43 18 64 -15 72 -24 6 -65 75 -65 109 0 9 -7 17 -16 17 -11 0 -14 5
-9 18 19 45 18 52 -6 51 -13 0 -33 -4 -43 -8 -22 -9 -99 37 -110 65 -9 23 -7
67 3 83 12 18 122 9 156 -13 40 -26 48 -21 41 24 -5 33 -3 42 11 47 27 11 71
-51 75 -106 l3 -46 44 55 c24 30 55 62 70 70 18 10 25 22 23 36 -3 19 3 22 51
28 30 4 63 13 72 20 16 12 16 13 0 29 -10 11 -33 17 -58 17 -48 0 -56 4 -80
43 -10 15 -27 27 -38 27 -11 0 -34 6 -52 14 -30 12 -35 21 -52 82 -10 38 -21
95 -24 128 -5 49 -11 62 -33 79 l-27 20 -48 -21 c-54 -23 -72 -19 -114 31 -14
17 -41 36 -60 42 -51 17 -91 104 -94 205 -1 41 2 82 6 90 4 8 10 23 13 33 7
23 104 25 112 2 11 -27 53 -18 73 16 10 17 28 37 40 46 12 8 26 26 31 39 12
31 40 31 70 -1 26 -27 60 -33 60 -11 0 8 -11 23 -25 34 -14 11 -25 28 -25 39
0 11 -7 28 -15 39 -8 10 -15 27 -15 37 0 19 54 57 82 57 9 0 26 12 38 27 19
25 23 26 54 15 45 -16 56 -15 56 7 0 61 -40 102 -113 115 -24 5 -43 16 -54 32
-15 23 -21 25 -60 19 -24 -3 -60 -16 -79 -27 -26 -15 -43 -18 -70 -13 -28 5
-39 2 -49 -12 -11 -14 -16 -15 -26 -6 -9 9 -9 22 1 58 14 52 3 112 -26 136
-14 11 -19 9 -36 -14 -19 -27 -41 -33 -72 -21 -13 5 -15 14 -10 40 6 33 5 34
-27 34 -52 0 -151 -34 -216 -73 -68 -41 -120 -57 -185 -57 -39 0 -50 -5 -71
-30 -14 -16 -30 -30 -35 -30 -13 0 -42 101 -42 145 0 33 -6 44 -46 79 -25 23
-68 62 -96 88 -44 41 -53 46 -84 41 -44 -7 -61 8 -70 63 -5 38 -13 49 -45 71
-31 20 -42 36 -51 70 -7 31 -21 52 -45 70 -19 14 -40 41 -48 59 -19 46 -56 68
-103 60 -49 -7 -110 10 -143 41 -33 31 -156 93 -184 93 -35 0 -56 24 -65 72
-5 25 -27 83 -49 128 -41 85 -42 100 -7 130 22 17 20 42 -5 69 -27 29 -60 41
-115 41 -51 0 -80 13 -107 47 -34 43 -71 54 -190 57 l-111 2 -7 28 c-4 15 -13
34 -19 42 -7 7 -10 25 -6 38 7 27 67 56 118 56 17 0 51 9 75 21 34 16 52 19
81 13 20 -4 66 -9 102 -10 145 -6 161 -10 180 -42 22 -36 71 -72 98 -72 12 0
28 14 41 35 11 20 36 45 56 56 24 15 38 32 45 57 11 43 34 129 50 190 10 38
17 45 68 71 32 16 63 35 69 43 22 26 64 171 58 198 -3 15 -1 48 6 73 16 66 5
111 -42 162 -37 41 -49 65 -30 65 17 0 21 45 8 98 -14 61 -31 70 -93 53 -55
-15 -59 -15 -99 20 -42 37 -122 69 -173 69 -69 0 -106 17 -127 57 -31 57 -53
73 -103 73 -35 0 -52 6 -80 31 -33 29 -40 31 -92 26 -71 -6 -88 4 -96 54 -4
25 -16 47 -31 59 -13 10 -42 41 -64 69 -39 49 -43 51 -90 51 -56 0 -123 35
-134 70 -3 11 -15 20 -26 20 -14 0 -19 7 -19 25 0 15 -8 29 -22 36 -13 7 -28
20 -35 29 -6 9 -30 22 -52 29 -37 11 -44 18 -71 78 -34 75 -36 92 -15 133 8
16 12 35 9 43 -3 9 2 29 10 46 35 66 7 101 -80 101 -64 0 -78 14 -69 69 6 39
4 43 -44 91 -28 28 -51 60 -51 71 0 11 9 37 20 59 11 22 20 54 20 71 0 30 1
31 18 16 37 -33 52 -16 52 57 0 32 6 48 24 65 25 23 146 70 183 71 12 0 27 9
33 19 19 36 41 51 78 51 53 0 92 28 146 104 72 101 97 163 99 247 3 85 -8 105
-49 95 -57 -14 -67 -12 -74 14 -5 19 -13 25 -36 26 -49 2 -52 3 -59 23 -11 36
-56 71 -90 71 -40 0 -47 7 -32 31 9 14 9 22 1 27 -6 4 -14 18 -18 32 -25 87
-34 92 -107 63 -40 -16 -42 -15 -55 2 -21 29 -17 60 16 113 17 27 30 56 30 65
0 32 -65 37 -103 7 -14 -11 -34 -20 -45 -20 -11 0 -29 -11 -40 -25 -23 -29
-50 -33 -59 -9 -5 13 -15 15 -49 10 l-43 -5 -22 60 c-12 33 -26 62 -30 65 -21
13 -99 -49 -99 -78 0 -10 -1 -18 -2 -18 -18 1 -79 29 -92 43 -10 9 -21 17 -25
17 -4 0 -17 20 -29 45 -25 52 -43 62 -79 46 -40 -18 -57 2 -49 61 7 47 7 47
-33 68 -59 30 -64 27 -56 -26 5 -36 3 -50 -11 -65 -18 -20 -44 -26 -44 -9 0
18 -35 11 -48 -10 -9 -15 -23 -20 -53 -20 -40 0 -41 1 -35 28 3 15 11 52 17
83 8 45 16 59 39 73 16 9 32 25 35 36 7 22 20 26 30 10 9 -15 99 -12 121 5 10
8 31 15 47 15 18 0 43 14 73 42 37 34 44 47 42 72 -2 26 -13 37 -58 63 -30 18
-81 55 -112 83 -31 27 -66 50 -77 50 -13 0 -31 -15 -47 -40 -15 -22 -30 -40
-35 -40 -22 0 -68 25 -97 53 -28 27 -35 30 -52 19 -13 -8 -21 -8 -25 -1 -11
17 4 59 20 59 17 0 55 56 55 82 0 9 -6 29 -14 45 -8 15 -22 49 -31 75 -26 74
-44 92 -88 84 -43 -8 -93 -47 -101 -79 -7 -28 -63 -57 -111 -57 -24 0 -45 9
-67 29 -27 23 -37 27 -52 19 -13 -7 -22 -6 -35 6 -10 9 -32 16 -50 16 -25 0
-36 7 -52 34 -23 39 -43 50 -57 33z m578 -777 c43 -46 55 -84 41 -130 -21 -71
-73 -77 -112 -12 -12 20 -35 51 -51 68 -26 28 -28 35 -18 54 12 23 62 49 93
50 11 0 31 -13 47 -30z m558 -290 c23 -22 32 -93 13 -104 -16 -10 -39 5 -45
30 -5 20 -11 23 -30 18 -18 -4 -27 0 -35 14 -16 30 -14 38 12 50 34 17 61 14
85 -8z"/>
<path d="M6014 6762 c-6 -4 -15 -18 -19 -32 -4 -14 -16 -36 -26 -49 -23 -28
-24 -59 -4 -85 8 -11 15 -34 15 -52 0 -17 7 -37 15 -44 23 -19 65 6 72 42 3
15 16 34 28 42 13 8 33 35 45 60 19 40 20 49 8 73 -7 15 -24 33 -38 40 -28 14
-79 17 -96 5z"/>
</g>
</svg>
