<?xml version="1.0" standalone="no"?>
<!DOCTYPE svg PUBLIC "-//W3C//DTD SVG 20010904//EN"
 "http://www.w3.org/TR/2001/REC-SVG-20010904/DTD/svg10.dtd">
<svg version="1.0" xmlns="http://www.w3.org/2000/svg"
 width="973.000000pt" height="576.000000pt" viewBox="0 0 973.000000 576.000000"
 preserveAspectRatio="xMidYMid meet">
<metadata>
Created by potrace 1.16, written by Peter Selinger 2001-2019
</metadata>
<g transform="translate(0.000000,576.000000) scale(0.100000,-0.100000)"
fill="#000000" stroke="none">
<path d="M7045 5460 c-15 -113 -16 -144 -6 -166 7 -16 9 -43 5 -69 -3 -26 -1
-51 6 -64 16 -31 5 -55 -41 -85 l-40 -27 -34 21 c-22 13 -47 20 -67 18 -29 -3
-34 -8 -50 -52 -9 -27 -30 -63 -46 -80 -45 -47 -51 -66 -49 -147 1 -78 -13
-119 -39 -119 -9 0 -33 14 -54 30 -34 27 -44 30 -103 28 -54 -3 -70 1 -95 19
l-30 22 -19 -22 c-10 -12 -31 -39 -47 -60 -34 -46 -91 -76 -126 -66 -14 4 -77
19 -140 34 -132 31 -192 57 -226 98 -30 36 -30 50 1 67 14 7 25 17 25 21 0 4
-30 36 -67 72 -148 143 -204 169 -211 97 -3 -24 5 -51 24 -87 26 -47 27 -55
16 -86 -6 -18 -12 -47 -12 -64 0 -16 -11 -51 -25 -77 -14 -26 -25 -62 -25 -80
0 -38 -46 -96 -75 -96 -9 0 -43 25 -76 56 l-59 57 -80 -17 c-45 -10 -87 -16
-94 -13 -18 7 -31 -3 -50 -40 -21 -42 -20 -66 4 -88 66 -59 45 -193 -44 -287
-49 -52 -58 -58 -93 -57 -54 2 -110 -15 -168 -52 -28 -18 -90 -48 -140 -68
-81 -33 -92 -41 -113 -79 l-23 -42 -64 0 c-73 0 -76 -2 -109 -91 -20 -54 -29
-67 -60 -82 -73 -35 -68 -114 9 -148 62 -28 93 -59 97 -99 2 -28 11 -40 46
-63 24 -16 48 -41 53 -56 6 -14 19 -43 30 -64 28 -54 24 -82 -27 -213 -39 -99
-44 -121 -35 -141 11 -23 15 -24 60 -18 55 7 106 -11 115 -42 3 -10 4 -70 2
-134 -3 -109 -5 -119 -30 -152 -23 -30 -28 -48 -30 -107 -3 -58 -8 -76 -25
-93 l-22 -22 -27 31 c-15 17 -35 41 -44 52 -12 15 -29 22 -53 22 -52 0 -90 24
-113 72 l-21 42 26 58 c17 38 23 62 16 69 -10 10 -104 48 -141 56 -18 4 -34
-4 -68 -38 -43 -42 -45 -43 -79 -31 -25 10 -40 10 -54 3 -30 -17 -34 -15 -92
43 -50 50 -59 54 -114 61 -70 7 -149 40 -182 75 -36 39 -44 18 -31 -86 14
-115 6 -162 -28 -170 -14 -4 -42 -2 -62 4 -21 6 -64 14 -97 16 -33 3 -77 8
-98 12 -33 6 -42 2 -77 -30 -48 -43 -76 -45 -154 -11 -59 26 -124 32 -156 15
-11 -6 -24 -29 -30 -51 -17 -62 -43 -83 -96 -75 -53 7 -90 -6 -99 -34 -4 -11
-17 -32 -31 -47 -15 -16 -24 -38 -24 -58 0 -36 -13 -45 -65 -45 -36 0 -50 -13
-80 -73 -35 -71 -85 -78 -85 -13 0 56 -33 58 -143 7 -80 -36 -92 -39 -107 -26
-9 8 -32 16 -53 19 -48 6 -54 11 -62 46 -11 49 -42 80 -81 80 -41 0 -42 9 -9
48 31 37 31 46 0 60 -35 16 -60 15 -96 -4 -30 -15 -31 -15 -62 19 -45 49 -42
49 -183 6 -43 -13 -79 -11 -119 5 -32 14 -35 19 -35 56 0 34 -3 41 -17 38 -26
-5 -28 -45 -5 -97 57 -131 56 -128 39 -155 -9 -13 -24 -54 -33 -91 -16 -64
-19 -68 -60 -85 -36 -16 -47 -28 -73 -82 -37 -79 -57 -98 -118 -110 -78 -16
-78 -16 -77 17 0 17 -4 33 -9 36 -6 4 -3 34 8 79 24 96 11 110 -48 52 -23 -23
-48 -42 -55 -42 -13 0 -52 71 -52 94 0 9 7 36 16 62 18 54 15 60 -57 98 -37
20 -45 29 -47 57 -2 19 -8 40 -14 46 -13 16 -52 17 -78 1 -15 -10 -30 -9 -74
5 -58 19 -66 31 -44 66 16 26 3 51 -27 51 -21 0 -29 -9 -49 -55 -20 -43 -30
-56 -53 -60 -15 -4 -39 -11 -53 -17 -14 -6 -47 -16 -74 -22 -60 -14 -68 -30
-25 -53 54 -30 67 -48 74 -105 8 -65 -5 -102 -51 -144 -28 -26 -34 -39 -34
-73 0 -22 -9 -58 -20 -79 -24 -46 -19 -67 21 -88 27 -13 29 -19 29 -70 0 -42
7 -66 29 -106 25 -42 28 -55 18 -75 -9 -20 -6 -28 24 -59 47 -50 83 -63 183
-65 l87 -2 -2 -38 c-3 -31 2 -44 26 -70 24 -25 30 -39 30 -77 0 -39 4 -48 25
-59 14 -7 45 -13 70 -13 42 0 48 -3 90 -51 40 -45 48 -50 74 -43 29 7 164 115
199 160 11 15 32 49 46 78 26 50 27 51 77 54 l51 3 67 -74 c36 -41 66 -81 66
-90 0 -9 -15 -26 -33 -38 -38 -26 -57 -48 -57 -66 0 -19 54 -43 98 -43 24 0
49 -8 65 -20 33 -27 55 -25 83 5 24 26 33 29 49 17 21 -15 77 -94 86 -122 12
-34 16 -35 123 -50 44 -6 87 -17 96 -25 24 -21 44 -19 79 10 60 51 72 84 75
207 2 62 6 120 10 130 8 17 36 28 73 28 12 0 30 12 42 29 18 25 29 29 83 35
35 3 79 8 100 12 30 5 38 3 47 -15 17 -31 43 -26 101 20 43 34 57 40 81 35 17
-3 46 1 68 10 36 14 42 14 71 -1 25 -13 46 -15 103 -9 40 4 81 13 92 20 11 8
44 14 73 14 41 0 71 8 119 32 62 30 73 32 217 38 128 5 159 10 206 30 30 13
61 28 68 33 7 5 15 7 18 5 3 -3 -22 -23 -56 -43 -73 -44 -82 -58 -106 -152
-16 -61 -16 -75 -5 -97 11 -20 11 -31 2 -54 -20 -49 -16 -88 13 -127 22 -28
34 -35 61 -35 42 0 50 -14 66 -110 7 -39 22 -86 33 -103 13 -20 68 -58 148
-105 l128 -74 50 11 c95 20 146 15 190 -20 22 -18 49 -33 62 -34 27 -3 125
-51 150 -73 15 -12 27 -13 83 -2 76 14 124 8 182 -26 38 -22 48 -23 132 -17
70 4 94 10 107 24 24 26 37 24 95 -16 56 -38 56 -38 149 -39 54 -1 72 -6 107
-29 38 -26 44 -28 81 -16 37 11 44 9 96 -19 50 -27 63 -30 112 -25 48 5 62 2
122 -28 37 -18 81 -44 98 -56 17 -13 41 -23 53 -23 12 0 40 -9 63 -21 l41 -21
26 21 c14 12 41 29 58 38 35 18 29 19 111 -27 19 -10 60 -43 93 -74 45 -42 66
-56 89 -56 28 0 70 29 70 49 0 5 16 15 35 21 50 16 71 51 55 89 -6 16 -9 39
-5 51 6 20 12 21 47 16 21 -4 57 -2 80 4 51 14 135 91 159 145 23 52 100 131
136 140 16 3 38 16 51 28 21 19 26 20 73 8 27 -7 65 -10 83 -7 19 4 45 1 59
-5 19 -9 29 -8 48 4 18 12 46 15 112 13 l89 -2 55 -57 c62 -64 87 -70 124 -31
20 22 24 38 28 105 4 88 8 92 74 64 34 -14 38 -14 54 4 22 23 39 27 80 17 17
-4 49 -2 73 4 37 10 45 9 88 -16 67 -39 171 -94 177 -94 12 0 3 47 -20 112
-29 80 -33 162 -9 196 19 28 111 75 130 68 11 -4 13 1 8 20 -6 23 6 38 94 127
56 56 106 114 111 130 8 21 17 27 40 27 19 0 35 8 45 21 13 20 21 21 76 16
107 -9 150 14 150 83 0 35 -32 105 -55 117 -12 7 -13 14 -3 40 11 28 9 38 -15
85 -15 29 -27 58 -27 64 0 5 14 29 31 52 29 40 30 43 20 98 -6 32 -18 65 -27
75 -39 43 -57 152 -28 163 22 8 82 7 125 -3 79 -18 139 46 139 148 0 39 5 56
25 77 46 50 32 87 -42 109 -54 16 -144 80 -163 116 -7 11 -27 27 -46 35 -19 8
-34 20 -34 26 0 26 65 106 111 138 27 18 55 43 63 55 11 16 28 24 63 28 60 7
83 -7 102 -59 22 -64 39 -84 70 -84 34 0 46 13 56 58 4 18 13 36 20 38 7 3 35
-6 62 -21 31 -16 74 -28 114 -31 63 -6 64 -6 82 24 19 33 23 97 6 108 -14 8
-49 90 -49 114 0 10 9 21 19 25 10 3 30 17 44 30 21 21 25 38 31 112 4 49 11
105 17 125 11 42 3 88 -15 88 -7 0 -20 6 -30 13 -17 13 -17 15 -2 45 34 66 16
68 -52 7 -27 -25 -53 -45 -56 -45 -3 0 -6 14 -6 31 0 39 46 84 95 93 21 4 38
14 41 24 3 9 11 27 16 39 9 19 5 29 -34 71 -45 51 -159 282 -180 367 -17 66
-47 138 -75 177 -34 50 -26 80 41 143 55 52 69 84 83 188 5 37 -35 174 -59
204 -5 6 -28 15 -51 18 -80 14 -116 35 -152 89 -52 78 -88 115 -126 127 -19 7
-42 19 -52 27 -15 13 -25 14 -68 4 -28 -7 -75 -12 -105 -12 l-55 0 -19 -44
c-24 -58 -48 -70 -124 -64 -44 4 -81 15 -131 42 -57 29 -88 38 -164 46 -115
13 -129 20 -137 70 -4 22 -17 49 -31 62 -23 21 -35 23 -161 26 l-136 4 -55 42
c-31 24 -110 75 -177 114 -66 39 -126 78 -133 86 -20 24 -59 19 -129 -14 -75
-36 -76 -36 -111 -10 -16 10 -59 28 -97 38 -62 17 -70 22 -79 50 -5 18 -12 32
-15 32 -3 0 -14 -63 -25 -140z"/>
</g>
</svg>
