<?xml version="1.0" standalone="no"?>
<!DOCTYPE svg PUBLIC "-//W3C//DTD SVG 20010904//EN"
 "http://www.w3.org/TR/2001/REC-SVG-20010904/DTD/svg10.dtd">
<svg version="1.0" xmlns="http://www.w3.org/2000/svg"
 width="612.000000pt" height="559.000000pt" viewBox="0 0 612.000000 559.000000"
 preserveAspectRatio="xMidYMid meet">
<metadata>
Created by potrace 1.16, written by Peter Selinger 2001-2019
</metadata>
<g transform="translate(0.000000,559.000000) scale(0.100000,-0.100000)"
fill="#000000" stroke="none">
<path d="M2793 5330 c-16 -6 -23 -18 -23 -35 0 -14 -7 -28 -15 -31 -8 -4 -15
-12 -15 -20 0 -11 16 -14 64 -14 36 0 68 -4 71 -10 11 -18 39 -10 88 25 53 40
57 52 22 77 -19 14 -29 16 -50 8 -34 -13 -82 -13 -90 0 -7 12 -22 12 -52 0z"/>
<path d="M3035 5320 c-12 -19 36 -55 75 -55 32 0 35 -3 41 -37 8 -54 -9 -65
-99 -63 -40 1 -78 7 -84 13 -22 22 -64 14 -76 -13 -12 -26 -26 -32 -37 -15
-11 17 -25 11 -25 -10 0 -11 -7 -23 -16 -27 -35 -13 -66 -55 -61 -82 5 -22 0
-30 -24 -43 -16 -10 -34 -30 -40 -45 -6 -15 -23 -40 -40 -55 -34 -31 -37 -53
-9 -70 11 -7 20 -20 20 -30 0 -14 -8 -16 -42 -13 -24 2 -62 9 -86 16 -39 10
-44 10 -57 -7 -13 -18 -14 -18 -23 6 -13 32 -134 148 -169 161 -31 12 -63 3
-63 -17 0 -12 -7 -14 -29 -9 -20 4 -32 2 -38 -8 -4 -7 -16 -17 -26 -20 -11 -4
-21 -16 -24 -27 -4 -15 -14 -20 -42 -20 -57 0 -86 -20 -85 -58 2 -25 -2 -32
-17 -32 -14 0 -19 -7 -19 -25 0 -20 -5 -25 -24 -25 -23 0 -76 -41 -76 -59 0
-5 8 -17 17 -27 13 -13 14 -19 5 -22 -6 -2 -12 -10 -12 -18 0 -19 -76 -19 -83
0 -4 9 -14 12 -25 9 -16 -4 -19 -13 -18 -50 1 -30 7 -49 19 -57 21 -16 22 -27
2 -20 -11 5 -15 -1 -15 -19 0 -14 -4 -28 -8 -31 -9 -6 -50 68 -61 112 -10 37
-33 34 -53 -7 -9 -18 -32 -44 -51 -57 -19 -12 -37 -30 -41 -39 -11 -29 -6 -85
9 -115 14 -27 14 -29 -16 -54 -17 -14 -34 -26 -39 -26 -4 0 -24 -31 -43 -68
-20 -37 -44 -75 -54 -85 -45 -40 -190 -87 -272 -87 -28 0 -44 -7 -66 -30 -20
-21 -38 -30 -60 -30 -19 0 -51 -13 -79 -31 -42 -28 -55 -32 -112 -30 -77 2
-108 -13 -195 -95 -30 -28 -78 -63 -105 -77 -60 -31 -69 -41 -78 -89 -8 -45
-26 -51 -26 -9 0 66 -31 83 -53 28 -39 -93 -42 -105 -24 -125 23 -25 21 -84
-3 -129 -11 -21 -20 -55 -20 -77 0 -43 50 -159 74 -173 36 -20 85 -143 56
-143 -5 0 -10 5 -10 10 0 6 -7 10 -15 10 -8 0 -15 9 -15 20 0 23 -45 74 -59
66 -13 -9 -11 -145 3 -154 19 -11 85 -107 101 -146 8 -19 15 -47 15 -61 0 -15
21 -54 50 -94 62 -85 80 -127 80 -185 0 -35 14 -73 67 -178 l67 -133 0 -111
c0 -124 -8 -144 -55 -144 -27 0 -29 -3 -29 -40 0 -23 7 -54 15 -70 12 -24 22
-30 48 -30 25 0 42 -9 67 -35 42 -43 110 -59 227 -53 81 4 85 5 126 45 24 23
60 45 84 52 31 8 47 20 58 41 18 35 49 53 76 45 10 -4 36 -1 57 6 45 15 173
14 182 -1 5 -8 20 -7 54 2 34 9 54 9 75 2 22 -9 35 -8 62 5 33 16 46 35 69 98
9 24 21 35 49 44 20 6 77 33 128 60 79 42 98 48 130 43 61 -9 186 13 285 51
90 35 94 36 227 34 l136 -1 63 -40 c49 -32 68 -39 92 -34 22 4 39 -1 66 -19
20 -14 45 -25 55 -25 31 0 49 -12 49 -31 0 -17 11 -24 33 -20 12 2 8 -17 -5
-21 -9 -3 -8 -14 3 -44 11 -30 21 -40 42 -42 15 -2 27 -9 27 -15 0 -7 16 -43
35 -81 21 -42 35 -85 35 -107 0 -45 32 -89 66 -89 22 0 31 17 25 53 0 4 4 7 9
7 6 0 10 6 10 13 0 22 52 65 112 91 46 20 61 34 78 66 11 22 27 40 35 40 23 0
6 -70 -26 -107 -18 -21 -32 -53 -40 -93 -11 -59 -12 -60 -43 -57 -28 2 -31 -1
-28 -23 6 -39 22 -50 69 -43 40 5 43 8 69 67 l27 61 14 -35 c18 -41 12 -76
-21 -129 -14 -21 -22 -42 -19 -45 11 -11 68 -6 93 9 39 22 50 18 50 -17 0 -18
9 -58 21 -88 16 -41 19 -67 15 -102 -5 -38 -2 -58 17 -100 14 -29 27 -61 30
-70 3 -9 25 -29 49 -44 24 -14 56 -38 71 -52 24 -23 30 -25 48 -14 21 14 55
-2 164 -76 57 -39 97 -38 140 2 14 13 42 27 61 31 25 4 34 10 30 20 -6 17 10
30 19 15 3 -6 -3 -23 -15 -38 -22 -27 -22 -27 -2 -30 12 -2 31 2 43 9 20 10
21 9 16 -10 -4 -16 1 -26 19 -37 13 -9 24 -25 24 -36 0 -18 5 -19 68 -13 37 4
76 13 87 21 115 81 153 92 249 70 66 -16 70 -16 112 5 38 20 44 27 53 69 18
83 68 194 109 241 22 25 55 70 72 100 18 30 50 74 72 99 22 25 54 65 72 90 21
30 50 54 87 71 42 21 65 42 105 96 65 87 75 106 90 170 7 29 43 103 84 173
l73 122 -5 129 c-5 106 -2 142 13 201 11 39 19 84 19 99 0 17 16 47 41 79 36
45 40 56 34 87 -7 40 -26 39 -40 -3 -18 -52 -25 -57 -46 -38 -10 9 -19 22 -19
27 0 19 -82 171 -105 197 -17 19 -22 32 -18 54 6 31 -8 46 -45 46 -23 0 -23 1
-16 84 7 85 -2 110 -30 87 -14 -12 -36 4 -36 25 0 6 -6 17 -14 23 -11 10 -18
7 -30 -11 -14 -19 -18 -21 -26 -8 -5 8 -10 24 -11 35 0 11 -3 58 -5 104 -4 81
-5 86 -36 112 -31 25 -32 28 -18 53 12 24 12 30 -2 54 -9 15 -25 32 -35 37
-10 6 -34 22 -54 37 -20 15 -39 25 -43 21 -3 -3 -6 3 -6 15 0 28 -10 52 -23
52 -5 0 -34 11 -63 25 -69 33 -87 59 -78 114 5 32 3 46 -11 61 -15 16 -16 24
-6 48 6 15 12 54 12 86 1 49 -4 65 -29 101 -28 40 -29 46 -27 141 1 54 5 111
10 127 6 24 1 33 -39 72 -25 25 -49 57 -52 71 -6 22 -11 25 -35 20 -16 -3 -42
-9 -58 -12 -40 -8 -45 12 -44 168 1 114 -1 130 -19 153 -17 22 -19 31 -10 51
10 21 8 26 -12 39 -20 13 -22 21 -18 63 3 36 -1 59 -17 90 -12 23 -26 42 -32
42 -19 0 -69 -31 -69 -43 0 -28 -50 -131 -73 -151 -14 -11 -31 -32 -37 -45
-11 -20 -10 -26 4 -36 14 -11 14 -14 -4 -30 -11 -10 -20 -31 -20 -47 0 -16 -9
-47 -20 -68 -11 -22 -20 -57 -20 -78 0 -88 -17 -199 -37 -237 -11 -22 -24 -53
-27 -70 -4 -16 -20 -48 -36 -70 -16 -22 -41 -61 -54 -87 -30 -55 -31 -55 -82
-63 -34 -6 -46 -2 -101 36 -35 23 -63 47 -63 54 0 27 -43 65 -86 76 -32 8 -60
27 -103 69 -56 56 -124 100 -154 100 -14 0 -87 73 -87 88 0 4 -19 21 -41 37
-66 49 -67 56 -8 121 50 56 51 58 46 106 -6 45 -4 50 19 60 18 9 27 9 36 0 16
-16 48 4 48 30 0 11 16 38 35 59 31 35 39 69 14 69 -4 0 -20 12 -33 27 -25 27
-27 27 -53 11 -24 -13 -30 -14 -40 -2 -7 7 -13 18 -13 25 0 12 -11 10 -82 -17
-47 -18 -48 -18 -71 4 -16 15 -36 22 -63 22 -27 0 -51 8 -74 25 -21 15 -47 25
-68 25 -27 0 -42 8 -67 36 -26 28 -38 34 -54 29 -15 -4 -27 0 -39 13 -20 24
-116 40 -127 22z m695 -231 c0 -5 -7 -9 -15 -9 -8 0 -15 7 -15 15 0 9 6 12 15
9 8 -4 15 -10 15 -15z m-3372 -2111 c14 -14 16 -48 4 -48 -8 0 -32 43 -32 55
0 9 16 5 28 -7z"/>
<path d="M3754 4863 c-31 -4 -44 -22 -44 -64 0 -18 40 -39 75 -39 28 0 30 3
13 30 -10 16 -9 23 7 40 16 18 17 23 5 30 -8 6 -17 9 -20 8 -3 -1 -19 -3 -36
-5z"/>
<path d="M4123 4400 c-21 -9 -40 -46 -29 -58 4 -3 21 0 39 6 19 7 43 12 55 12
24 0 29 12 10 28 -21 16 -52 21 -75 12z"/>
<path d="M242 3049 c3 -32 30 -60 44 -46 10 9 -22 77 -36 77 -7 0 -10 -14 -8
-31z"/>
<path d="M3395 1490 c-9 -15 4 -49 24 -59 27 -15 110 -16 123 -3 7 7 22 12 35
12 32 0 28 22 -8 43 -34 19 -163 24 -174 7z"/>
<path d="M4227 772 c-29 -31 -17 -89 15 -77 21 8 31 50 18 75 -13 24 -13 24
-33 2z"/>
<path d="M4704 655 c-4 -8 -3 -31 0 -50 6 -31 11 -35 36 -35 35 0 38 13 13 65
-17 37 -40 46 -49 20z"/>
<path d="M4290 571 c-16 -32 -12 -115 10 -164 13 -29 18 -55 14 -75 -8 -38 21
-140 48 -169 11 -12 17 -26 14 -32 -8 -12 -4 -14 63 -40 l52 -21 10 29 c7 20
15 28 25 24 10 -4 19 5 27 26 9 26 16 30 41 28 27 -2 34 3 56 45 14 27 30 48
35 48 13 0 49 182 41 208 -9 29 -22 31 -111 20 -119 -15 -131 -13 -166 16 -33
28 -121 76 -138 76 -6 0 -15 -9 -21 -19z"/>
</g>
</svg>
