<?xml version="1.0" standalone="no"?>
<!DOCTYPE svg PUBLIC "-//W3C//DTD SVG 20010904//EN"
 "http://www.w3.org/TR/2001/REC-SVG-20010904/DTD/svg10.dtd">
<svg version="1.0" xmlns="http://www.w3.org/2000/svg"
 width="847.000000pt" height="684.000000pt" viewBox="0 0 847.000000 684.000000"
 preserveAspectRatio="xMidYMid meet">
<metadata>
Created by potrace 1.16, written by Peter Selinger 2001-2019
</metadata>
<g transform="translate(0.000000,684.000000) scale(0.100000,-0.100000)"
fill="#000000" stroke="none">
<path d="M5377 6643 c-60 -79 -90 -129 -112 -186 -31 -82 -71 -137 -100 -137
-28 0 -105 -64 -105 -87 0 -37 -29 -69 -73 -80 -25 -7 -61 -26 -79 -41 -18
-16 -44 -33 -58 -37 -22 -7 -159 -72 -168 -80 -8 -7 -42 -181 -42 -211 0 -29
-5 -35 -52 -58 -61 -30 -128 -86 -128 -108 0 -8 7 -23 15 -34 21 -28 18 -38
-16 -53 -25 -11 -30 -18 -25 -37 3 -13 9 -36 12 -50 8 -32 -7 -44 -60 -44 -22
0 -62 -11 -91 -26 -48 -25 -57 -26 -120 -18 -62 8 -70 12 -85 39 -26 46 -45
43 -81 -14 -35 -57 -50 -62 -76 -26 -46 65 -48 67 -88 67 -104 0 -275 70 -307
126 -10 16 -35 53 -57 82 -30 40 -40 64 -46 108 -9 69 -14 79 -81 164 -30 37
-54 74 -54 82 0 12 -10 16 -39 16 l-39 0 2 -52 c1 -53 1 -53 -31 -56 -40 -4
-63 27 -74 100 -9 54 -38 95 -71 100 -13 2 -25 17 -34 43 -18 52 -38 66 -86
59 -32 -6 -42 -3 -67 22 -16 16 -36 35 -45 42 -13 10 -15 24 -10 67 7 53 6 55
-22 65 -15 6 -44 12 -63 13 -32 2 -37 -2 -54 -36 -15 -33 -22 -38 -46 -35 -15
1 -46 -6 -69 -16 -34 -15 -44 -17 -57 -6 -19 16 -19 49 0 56 27 11 16 40 -24
62 -30 17 -62 24 -130 28 -55 3 -91 1 -91 -5 0 -5 -11 -23 -25 -39 -13 -16
-34 -54 -45 -85 -29 -76 -72 -105 -133 -88 -23 7 -49 14 -58 17 -35 10 -49
-23 -49 -112 0 -77 24 -224 37 -224 3 0 18 8 33 17 25 14 35 15 69 4 44 -13
54 -36 21 -46 -28 -9 -25 -32 7 -47 16 -8 31 -26 36 -43 5 -17 13 -37 16 -45
9 -17 129 -80 154 -80 9 0 40 -16 68 -35 33 -23 63 -35 84 -35 52 0 120 -34
151 -77 37 -48 60 -68 107 -89 28 -13 37 -23 38 -43 2 -46 -2 -62 -27 -98 -17
-26 -24 -49 -24 -85 0 -41 -5 -55 -27 -78 -16 -16 -41 -45 -57 -65 -28 -35
-32 -37 -74 -31 -35 5 -49 2 -69 -14 -31 -24 -80 -26 -113 -3 -14 9 -49 39
-78 66 -52 48 -55 49 -99 43 -36 -5 -53 -2 -80 15 l-34 21 -49 -26 c-35 -19
-62 -26 -104 -26 -31 0 -73 -7 -93 -15 -59 -25 -87 -20 -130 26 -35 36 -46 41
-103 48 -36 5 -101 19 -145 31 -64 18 -87 29 -114 58 l-33 37 23 43 c21 37 22
44 9 53 -8 5 -30 6 -50 2 -54 -11 -106 -5 -147 16 -21 10 -63 22 -93 26 -30 4
-68 13 -84 21 -16 8 -51 14 -77 14 -45 0 -50 3 -94 53 -43 48 -47 51 -60 34
-10 -14 -21 -17 -47 -12 -33 6 -35 5 -58 -47 -14 -29 -56 -87 -95 -128 -151
-162 -166 -183 -172 -249 -5 -49 -2 -65 16 -94 11 -19 21 -46 21 -60 0 -24 3
-25 73 -29 52 -2 80 -9 99 -23 31 -22 35 -35 13 -35 -8 0 -21 -13 -29 -29 -12
-23 -24 -30 -61 -36 -45 -6 -68 -22 -91 -61 -11 -18 -12 -18 -37 5 -14 12 -30
20 -36 16 -22 -13 -4 -105 20 -105 6 0 29 14 51 31 32 26 45 30 73 26 25 -4
40 0 56 14 12 10 25 19 29 19 3 0 21 -16 40 -35 30 -31 33 -38 22 -55 -15 -24
-16 -67 -1 -75 5 -4 21 -4 35 -1 17 5 24 13 24 31 0 21 6 25 45 30 25 4 58 2
76 -4 17 -6 36 -8 42 -4 21 13 92 21 109 12 10 -5 18 -18 18 -28 0 -11 7 -21
15 -25 8 -3 15 -12 15 -19 0 -8 8 -18 19 -23 10 -5 41 -37 69 -71 29 -34 61
-65 73 -68 18 -6 20 -13 16 -41 -10 -58 -36 -100 -77 -123 -26 -14 -40 -29
-40 -42 0 -12 -12 -27 -31 -37 -17 -9 -49 -30 -71 -45 -38 -27 -39 -29 -36
-80 l3 -52 50 -7 c77 -11 111 -71 65 -113 -21 -19 -29 -85 -9 -85 5 0 29 -20
51 -45 23 -25 47 -45 55 -45 21 0 116 -50 130 -69 7 -9 13 -25 13 -37 0 -37
41 -64 97 -64 65 0 108 -15 128 -46 8 -13 24 -24 35 -24 11 0 62 -21 113 -46
50 -26 101 -47 112 -48 13 -1 19 -7 17 -18 -1 -10 4 -31 13 -47 23 -45 20
-126 -6 -161 -15 -19 -20 -36 -15 -53 4 -17 -1 -33 -15 -51 -14 -18 -19 -35
-15 -50 4 -18 0 -25 -19 -34 -17 -8 -25 -20 -25 -36 0 -14 -5 -37 -12 -51 -17
-38 -57 -33 -120 16 -53 40 -53 40 -124 36 -83 -6 -144 -33 -162 -71 -13 -30
-9 -33 79 -56 24 -7 58 -20 74 -30 17 -10 64 -28 105 -40 41 -13 81 -27 88
-33 6 -5 12 -31 12 -59 0 -27 7 -64 14 -83 13 -31 19 -35 52 -35 51 0 234 -87
234 -111 0 -9 42 -51 94 -93 52 -42 107 -97 123 -121 l28 -45 64 0 c54 0 73 5
125 34 48 27 75 35 125 38 54 2 64 0 74 -17 6 -11 23 -32 38 -47 23 -23 36
-28 78 -28 36 0 51 -4 51 -13 0 -8 9 -22 20 -32 27 -24 25 -42 -5 -49 -30 -8
-32 -27 -5 -51 34 -31 25 -44 -32 -47 -47 -3 -53 -6 -56 -26 -3 -18 -8 -22
-20 -17 -65 28 -72 29 -83 18 -18 -18 5 -141 31 -167 11 -12 29 -33 40 -48 15
-20 32 -28 72 -33 59 -8 88 -28 88 -59 0 -36 28 -66 61 -66 51 0 69 -16 69
-61 0 -54 -13 -76 -57 -94 -56 -23 -82 -20 -89 12 -11 51 -13 53 -52 53 -48 0
-68 -19 -53 -49 6 -11 11 -36 11 -55 0 -39 8 -49 60 -74 24 -12 36 -26 41 -47
3 -16 11 -40 18 -53 7 -13 10 -36 6 -53 -6 -25 4 -116 20 -195 l5 -21 46 23
c25 13 65 42 90 66 41 40 49 60 53 124 1 6 27 37 59 70 31 33 72 79 90 102
l33 42 64 -6 64 -7 17 37 c18 36 18 36 69 30 63 -8 73 2 85 85 10 75 14 81 51
81 37 0 46 20 32 72 -6 21 -7 41 -2 43 4 3 31 10 61 15 44 8 60 18 93 54 22
25 61 54 88 65 26 11 50 28 53 38 15 47 34 73 96 134 61 60 71 67 116 71 65 6
131 39 195 98 29 26 63 51 76 55 35 11 111 84 111 107 0 25 66 85 108 99 20 7
56 8 87 4 49 -6 56 -4 85 22 28 25 30 31 21 56 -14 35 -6 35 92 -3 43 -16 81
-30 83 -30 3 0 3 15 -1 32 -9 43 7 28 49 -45 36 -64 123 -165 249 -289 79 -78
93 -88 141 -98 60 -12 96 -40 96 -74 0 -27 -26 -47 -85 -66 -41 -13 -55 -23
-132 -100 -107 -108 -131 -171 -72 -192 20 -7 36 -22 44 -41 7 -17 30 -42 51
-57 22 -14 46 -41 55 -58 9 -21 38 -47 75 -71 32 -20 72 -54 87 -75 l28 -37
-21 -45 c-17 -35 -33 -50 -73 -70 -28 -15 -57 -32 -64 -40 -8 -7 -30 -16 -51
-19 -20 -3 -50 -10 -67 -15 -16 -5 -48 -7 -70 -4 -47 7 -63 -6 -74 -59 -8 -35
-22 -39 -90 -23 -33 8 -34 8 -27 -20 13 -50 48 -113 85 -150 38 -38 119 -84
147 -84 31 0 84 -32 90 -55 9 -35 47 -66 106 -85 l53 -17 6 -57 c4 -33 14 -65
23 -74 15 -15 20 -15 71 3 l55 18 23 -21 c13 -12 34 -22 48 -22 50 -1 106 -37
150 -97 23 -32 56 -71 73 -88 17 -16 49 -51 70 -77 21 -27 43 -48 48 -48 5 0
22 10 38 22 27 20 33 20 69 8 38 -12 41 -11 88 21 75 52 113 90 138 140 l24
47 -31 148 c-17 82 -36 179 -43 216 -6 37 -19 78 -28 92 -9 14 -21 64 -27 113
-14 123 -14 123 14 123 18 0 32 13 55 48 28 44 31 57 31 125 0 73 -1 76 -32
101 l-32 25 19 21 c17 18 20 37 20 105 0 72 3 87 23 112 12 15 30 41 40 58 24
42 68 85 86 85 10 0 16 -9 16 -26 0 -14 5 -35 12 -47 7 -12 12 -44 12 -72 l1
-50 46 -3 c38 -2 52 2 77 23 16 14 34 25 40 25 14 0 60 -63 67 -93 4 -15 0
-37 -9 -55 -9 -17 -16 -42 -16 -57 0 -14 -3 -25 -7 -26 -48 -5 -70 -12 -78
-26 -5 -8 -22 -34 -37 -57 -34 -50 -36 -70 -8 -61 35 11 122 107 147 162 25
55 26 57 47 538 4 76 5 80 26 103 30 32 46 28 100 -28 27 -27 53 -50 59 -50
26 0 19 24 -18 67 -44 49 -48 58 -29 69 7 4 18 -2 26 -14 22 -33 82 -27 82 9
0 21 -36 49 -63 49 -23 0 -76 26 -104 53 -20 18 -23 30 -23 99 0 44 -5 98 -11
122 -8 34 -7 54 5 96 9 30 16 73 16 96 0 61 15 94 51 107 24 9 29 16 24 32
-14 42 -24 112 -24 167 -1 50 3 62 30 93 28 32 30 39 20 61 -6 14 -8 36 -5 49
4 16 -2 33 -16 53 -31 41 -22 74 25 91 29 10 35 17 35 40 0 32 -63 121 -85
121 -19 0 -28 35 -15 60 12 23 66 50 100 50 24 0 27 27 5 56 -24 32 -17 53 38
111 53 57 97 83 141 83 20 0 30 9 46 40 l20 40 75 0 74 0 54 68 c67 84 73 94
52 86 -13 -6 -14 -3 -4 19 16 34 92 46 227 33 96 -9 106 -8 148 12 62 31 142
29 230 -4 38 -14 74 -30 81 -36 6 -5 25 -38 42 -74 27 -57 53 -85 66 -72 3 3
2 40 -2 82 -6 71 -9 82 -45 124 -45 55 -47 85 -5 90 32 4 34 13 6 38 -17 15
-20 27 -15 60 7 52 -14 84 -55 84 -34 0 -36 -11 -8 -49 27 -37 23 -85 -8 -89
-14 -2 -23 3 -27 16 -17 53 -120 124 -176 120 -53 -4 -68 2 -73 32 -5 21 -12
30 -26 30 -11 0 -33 11 -48 24 -23 20 -26 28 -17 43 27 45 -22 59 -60 18 -26
-28 -84 -55 -118 -55 -33 0 -107 -28 -136 -50 -31 -25 -35 -25 -80 4 -26 17
-61 27 -117 34 -64 7 -99 19 -173 56 -51 26 -100 45 -109 44 -21 -4 -66 60
-57 81 4 9 9 42 12 74 7 84 -9 112 -82 149 -42 21 -94 63 -166 134 -58 58
-119 113 -137 123 -17 11 -50 46 -72 79 -22 33 -47 62 -55 65 -24 9 -81 105
-100 167 -10 30 -21 91 -25 135 -10 101 -56 212 -118 286 -25 30 -65 86 -90
124 -25 39 -89 113 -142 165 -53 53 -110 118 -126 145 -38 65 -99 146 -156
203 -25 26 -72 82 -104 125 -61 82 -95 107 -144 107 -25 0 -38 -10 -74 -57z"/>
<path d="M466 2385 c-20 -26 -35 -35 -57 -35 -17 0 -50 -14 -79 -34 -42 -29
-62 -35 -127 -41 -43 -4 -85 -11 -93 -16 -45 -25 -45 -26 -12 -64 18 -19 32
-44 32 -55 0 -38 11 -50 49 -50 50 0 82 -19 95 -57 6 -18 21 -41 33 -53 14
-13 23 -33 23 -51 0 -31 50 -140 79 -173 9 -10 37 -29 62 -42 26 -13 57 -36
68 -51 38 -49 89 -127 116 -176 15 -28 45 -62 75 -83 28 -20 50 -39 50 -43 0
-4 28 -7 63 -8 87 -1 114 -14 140 -70 35 -74 70 -125 115 -165 37 -33 41 -42
44 -90 l3 -53 61 -16 c33 -9 70 -22 81 -28 12 -6 48 -10 81 -8 51 2 64 -2 85
-21 15 -15 41 -25 73 -28 67 -7 145 -33 169 -55 13 -11 29 -16 42 -13 11 3 38
-3 59 -14 22 -10 74 -25 117 -31 75 -12 78 -12 96 10 21 26 40 27 161 6 47 -8
87 -13 89 -11 2 2 -3 12 -12 21 -18 21 -57 116 -57 140 0 9 -25 54 -56 100
-31 47 -68 114 -81 149 -14 35 -33 69 -43 74 -12 6 -30 44 -47 95 l-27 86 24
44 24 44 -23 25 c-13 14 -40 30 -60 36 -64 20 -115 44 -151 71 -19 14 -51 30
-70 35 -30 8 -35 14 -38 44 -2 19 2 58 8 86 11 45 10 54 -5 77 -11 17 -18 49
-19 89 l-1 63 -55 22 c-97 38 -100 38 -167 -6 -44 -30 -71 -41 -99 -41 -34 0
-48 -9 -101 -60 -35 -32 -63 -63 -63 -69 0 -23 -29 -9 -76 37 -27 26 -75 64
-106 85 -50 33 -59 43 -64 76 -10 64 -16 67 -69 35 -25 -16 -59 -39 -75 -52
l-28 -23 -7 56 c-4 30 -5 65 -1 77 4 16 -3 31 -23 53 -16 17 -36 55 -45 88
-22 78 -43 97 -105 97 -44 0 -51 -3 -75 -35z"/>
</g>
</svg>
