<?xml version="1.0" standalone="no"?>
<!DOCTYPE svg PUBLIC "-//W3C//DTD SVG 20010904//EN"
 "http://www.w3.org/TR/2001/REC-SVG-20010904/DTD/svg10.dtd">
<svg version="1.0" xmlns="http://www.w3.org/2000/svg"
 width="736.000000pt" height="762.000000pt" viewBox="0 0 736.000000 762.000000"
 preserveAspectRatio="xMidYMid meet">
<metadata>
Created by potrace 1.16, written by Peter Selinger 2001-2019
</metadata>
<g transform="translate(0.000000,762.000000) scale(0.100000,-0.100000)"
fill="#000000" stroke="none">
<path d="M1663 7214 c3 -3 25 -10 49 -15 24 -6 76 -26 115 -46 64 -32 76 -35
96 -24 19 10 33 10 72 -2 27 -7 52 -20 56 -28 39 -75 87 -142 119 -168 25 -20
43 -45 49 -69 10 -36 12 -37 93 -57 72 -18 83 -24 86 -44 2 -14 -5 -33 -18
-46 -14 -14 -21 -32 -18 -43 3 -10 -1 -30 -8 -43 -7 -13 -14 -46 -14 -74 0
-27 -7 -59 -15 -69 -8 -11 -15 -30 -15 -41 0 -12 -9 -30 -20 -40 -12 -11 -17
-22 -11 -29 5 -6 12 -33 15 -59 8 -55 -3 -77 -39 -77 -16 0 -25 -8 -29 -25 -5
-18 -15 -27 -36 -32 -35 -7 -53 -25 -48 -50 2 -13 15 -19 47 -23 42 -5 45 -8
74 -62 17 -32 35 -58 41 -58 34 1 40 19 48 162 13 233 17 252 66 300 36 37 46
42 81 40 39 -3 40 -2 28 21 -15 28 -10 147 6 152 7 2 24 6 40 9 21 5 27 12 27
32 0 31 -28 44 -45 21 -15 -20 -35 -22 -35 -4 0 8 -10 19 -22 26 -13 6 -37 22
-54 34 l-31 23 20 27 c17 22 19 31 9 52 -17 36 -29 31 -28 -12 1 -34 -2 -38
-26 -41 -14 -2 -45 2 -68 8 -41 11 -42 12 -35 47 6 32 5 34 -15 28 -16 -5 -23
-1 -31 22 -5 15 -24 39 -42 52 -18 13 -59 55 -92 93 -46 53 -60 76 -60 100 0
17 -6 33 -12 35 -8 3 -13 -4 -13 -15 0 -17 -9 -21 -65 -27 -56 -6 -73 -3 -129
19 -41 16 -84 26 -117 26 -29 0 -50 -3 -46 -6z"/>
<path d="M889 7030 c-6 -16 -15 -30 -20 -30 -13 0 -11 -34 3 -48 8 -8 5 -17
-13 -36 -13 -13 -28 -39 -34 -58 -11 -30 -16 -33 -56 -36 -56 -4 -110 12 -148
43 -16 14 -44 28 -63 31 -31 5 -32 5 -13 -10 11 -9 38 -34 60 -55 43 -42 150
-101 183 -101 11 0 42 11 69 25 26 14 83 34 125 44 43 11 86 25 97 31 11 5 33
10 48 10 16 0 53 8 83 18 46 15 83 18 217 16 l163 -3 6 25 c4 14 1 37 -5 50
-8 17 -8 31 -1 44 13 25 13 30 -3 30 -7 0 -26 -13 -42 -30 l-29 -30 -143 0
c-149 0 -148 0 -143 43 1 14 -4 18 -22 15 -16 -2 -23 -10 -23 -26 0 -12 -11
-29 -24 -38 -21 -15 -26 -15 -57 0 -19 9 -43 16 -53 16 -26 0 -33 11 -18 28
10 13 7 15 -24 9 -32 -5 -41 -1 -65 24 -35 36 -42 36 -55 -1z"/>
<path d="M1647 6873 c-3 -5 -7 -21 -8 -38 -3 -21 1 -31 12 -33 16 -3 29 23 29
61 0 17 -24 24 -33 10z"/>
<path d="M1954 6495 c-8 -32 1 -55 21 -55 22 0 30 27 17 56 -15 31 -30 31 -38
-1z"/>
<path d="M1972 6258 c-15 -15 -16 -38 -2 -38 12 0 23 25 18 40 -2 7 -7 7 -16
-2z"/>
<path d="M132 5865 c-33 -37 -37 -60 -11 -60 15 0 53 68 47 86 -2 6 -18 -5
-36 -26z"/>
<path d="M1632 5848 c2 -24 25 -58 40 -58 15 0 8 47 -10 63 -25 23 -31 21 -30
-5z"/>
<path d="M1660 5721 c0 -12 6 -21 16 -21 9 0 14 7 12 17 -5 25 -28 28 -28 4z"/>
<path d="M1770 5686 c0 -9 7 -16 16 -16 9 0 14 5 12 12 -6 18 -28 21 -28 4z"/>
<path d="M2756 5591 c-11 -17 4 -32 27 -29 31 4 34 -33 8 -83 -26 -49 -19 -67
16 -44 20 14 38 16 88 10 53 -5 69 -12 111 -47 78 -64 92 -71 162 -77 65 -6
66 -7 74 -40 6 -22 41 -66 105 -132 l96 -99 -27 -87 c-15 -49 -31 -98 -37
-111 -11 -28 -12 -72 -1 -72 5 0 14 10 20 23 l11 22 0 -24 c1 -14 -11 -37 -25
-52 -24 -25 -30 -26 -90 -21 -37 3 -64 1 -64 -5 0 -19 25 -33 58 -33 48 0 71
-15 70 -47 0 -30 26 -98 41 -108 20 -12 29 28 15 68 -20 56 -17 86 11 132 27
44 31 72 14 108 -9 19 -5 41 16 110 16 50 25 97 21 110 -3 13 -48 65 -100 114
-54 52 -101 106 -110 127 -14 35 -17 36 -66 36 -57 0 -117 26 -147 63 -38 49
-82 72 -146 77 l-62 5 3 46 c2 26 0 49 -5 52 -20 13 -81 18 -87 8z"/>
<path d="M2680 5545 c-7 -9 -10 -18 -7 -21 10 -11 37 5 37 21 0 19 -14 19 -30
0z"/>
<path d="M1780 5525 c0 -8 5 -15 10 -15 6 0 10 7 10 15 0 8 -4 15 -10 15 -5 0
-10 -7 -10 -15z"/>
<path d="M1612 5459 c-34 -13 -22 -33 21 -37 39 -3 49 12 25 36 -14 14 -15 14
-46 1z"/>
<path d="M1714 5445 c-8 -21 3 -34 26 -28 27 7 27 43 0 43 -11 0 -23 -7 -26
-15z"/>
<path d="M2721 5381 c-7 -5 -11 -15 -9 -22 3 -10 8 -7 17 9 13 24 12 26 -8 13z"/>
<path d="M1253 5174 c-3 -9 -1 -24 4 -33 6 -10 19 -50 28 -90 17 -68 17 -75 2
-101 -10 -15 -17 -44 -17 -63 0 -36 -24 -83 -72 -141 -52 -62 -61 -112 -23
-126 15 -6 27 -20 31 -37 4 -15 17 -37 29 -48 l22 -20 -24 -24 c-22 -23 -23
-24 -23 -3 0 29 -36 39 -61 16 -15 -14 -19 -14 -19 -2 0 8 7 23 15 34 8 10 15
31 15 47 0 23 -4 27 -29 27 -20 0 -32 -6 -36 -19 -8 -25 -56 -34 -71 -14 -7
11 -19 14 -37 9 -32 -8 -36 -32 -7 -41 15 -5 20 -15 20 -41 0 -30 5 -36 38
-52 20 -9 57 -33 80 -54 64 -54 126 -82 151 -68 12 6 21 15 21 20 0 6 5 10 10
10 6 0 10 -22 10 -49 0 -64 6 -79 40 -96 19 -10 33 -29 42 -57 16 -46 44 -62
54 -31 15 41 57 73 106 79 30 4 48 12 48 20 0 21 49 61 107 89 49 23 53 27 53
60 0 19 -9 57 -20 85 -15 38 -17 56 -10 70 5 10 10 29 10 41 0 24 -57 119 -71
119 -11 0 -66 114 -74 154 -3 16 -22 44 -41 61 -23 22 -34 40 -34 60 0 16 -7
36 -15 45 -9 10 -16 41 -18 76 -2 33 -7 65 -11 72 -4 7 -32 11 -69 11 -34 -1
-75 4 -90 10 -39 15 -57 14 -64 -5z"/>
<path d="M1967 5000 l-42 -40 25 -21 c20 -17 32 -20 65 -14 22 4 61 8 87 9 36
1 54 8 75 29 16 14 43 30 61 33 36 7 48 19 32 29 -6 4 -67 9 -136 11 l-125 4
-42 -40z"/>
<path d="M3870 4546 c0 -28 13 -39 63 -55 28 -10 37 -18 37 -35 0 -48 20 -85
48 -88 20 -2 29 -11 37 -38 6 -19 23 -61 38 -94 15 -32 27 -60 27 -63 0 -2 23
-26 50 -53 28 -27 50 -58 50 -69 0 -30 -11 -51 -27 -51 -19 0 -73 -54 -73 -73
0 -25 27 -27 55 -5 22 17 37 20 103 17 69 -4 77 -2 80 15 3 12 -7 29 -24 45
-16 14 -36 40 -44 57 -8 17 -40 53 -70 79 -30 26 -67 70 -83 98 -15 28 -31 55
-36 61 -5 6 -14 28 -21 49 -6 21 -22 45 -35 53 -17 11 -26 29 -31 60 -9 63
-58 114 -108 114 -31 0 -36 -3 -36 -24z"/>
<path d="M1756 4195 c-4 -12 -1 -16 14 -13 24 3 28 22 7 26 -8 2 -17 -4 -21
-13z"/>
<path d="M1614 4176 c-4 -10 -2 -22 4 -28 8 -8 13 -7 18 6 4 10 2 22 -4 28 -8
8 -13 7 -18 -6z"/>
<path d="M1684 4176 c-10 -8 -16 -17 -12 -21 11 -11 48 5 48 21 0 18 -11 18
-36 0z"/>
<path d="M1700 4058 c-38 -39 -88 -81 -112 -92 -24 -12 -45 -29 -46 -40 -5
-25 16 -63 39 -69 12 -3 19 -14 19 -29 0 -13 7 -33 15 -44 8 -12 19 -52 25
-89 15 -94 24 -109 63 -101 17 3 38 13 47 21 19 17 50 20 50 5 0 -6 -10 -14
-23 -19 -13 -5 -29 -16 -37 -25 -11 -15 -11 -19 2 -33 17 -17 26 -14 104 32
19 12 38 16 50 11 17 -7 16 -10 -14 -36 -36 -30 -92 -44 -141 -34 -28 6 -31 4
-31 -19 0 -31 19 -36 132 -36 68 0 80 3 93 22 8 12 15 36 15 54 0 19 6 36 16
41 11 6 14 21 12 58 -3 49 -3 49 -41 52 -40 3 -42 22 -1 22 30 0 31 13 3 168
-24 134 -31 152 -62 152 -30 0 -47 -18 -47 -49 -1 -15 -9 -36 -20 -49 -15 -18
-23 -21 -38 -13 -44 23 -44 37 -2 75 22 20 44 36 50 36 22 0 31 39 15 70 -26
50 -56 41 -135 -42z"/>
<path d="M3000 4113 c0 -26 67 -108 88 -108 31 0 21 22 -33 75 -46 45 -55 51
-55 33z"/>
<path d="M1492 4088 c-34 -21 -42 -38 -18 -38 28 0 66 20 66 34 0 24 -14 26
-48 4z"/>
<path d="M1579 4054 c-7 -9 -33 -25 -56 -35 -24 -10 -43 -23 -43 -28 0 -31 69
-22 103 14 12 13 31 25 42 27 11 2 20 10 20 18 0 22 -49 25 -66 4z"/>
<path d="M1770 3955 c0 -8 5 -15 10 -15 6 0 10 7 10 15 0 8 -4 15 -10 15 -5 0
-10 -7 -10 -15z"/>
<path d="M3160 3881 c0 -10 7 -25 16 -32 9 -8 31 -43 48 -78 34 -71 63 -96 45
-39 -23 74 -74 168 -91 168 -11 0 -18 -8 -18 -19z"/>
<path d="M5187 3871 c-9 -16 -17 -41 -17 -56 0 -15 -5 -45 -12 -67 -8 -28 -8
-42 0 -50 19 -19 54 14 91 85 42 83 38 117 -12 117 -25 0 -36 -6 -50 -29z"/>
<path d="M3310 3606 c0 -19 53 -61 58 -46 4 12 -36 60 -50 60 -4 0 -8 -6 -8
-14z"/>
<path d="M4530 3571 c0 -13 26 -32 33 -24 14 13 6 33 -13 33 -11 0 -20 -4 -20
-9z"/>
<path d="M1750 3433 c0 -5 5 -15 10 -23 7 -11 12 -12 21 -3 6 6 8 16 5 22 -8
12 -36 15 -36 4z"/>
<path d="M4806 3425 c-15 -8 -37 -15 -47 -15 -12 0 -19 -7 -19 -20 0 -26 19
-34 54 -20 19 7 33 7 47 0 37 -20 78 22 47 48 -25 19 -53 22 -82 7z"/>
<path d="M3530 3412 c0 -11 35 -54 80 -98 30 -30 59 -50 162 -110 11 -6 26
-21 34 -33 21 -29 76 -56 170 -82 125 -34 134 -35 134 -10 0 24 -35 45 -72 43
-29 -2 -126 21 -155 36 -10 6 -31 24 -47 41 -17 17 -34 31 -39 31 -16 0 -97
70 -97 84 0 20 -33 45 -83 62 -25 8 -51 22 -58 30 -13 15 -29 19 -29 6z"/>
<path d="M4330 3381 c0 -41 15 -77 50 -121 18 -22 30 -50 30 -67 0 -19 19 -56
56 -108 86 -123 87 -126 73 -194 -12 -54 -11 -61 9 -95 12 -21 22 -39 22 -41
0 -3 -24 8 -52 24 -35 18 -54 35 -56 49 -2 12 -10 22 -18 22 -11 0 -14 -10
-12 -37 3 -35 8 -40 63 -70 33 -18 78 -35 99 -39 75 -12 156 -58 156 -88 0 -6
11 -33 24 -61 14 -27 34 -71 45 -97 11 -27 25 -48 32 -48 22 0 -1 102 -43 189
-41 82 -43 84 -104 112 -37 17 -75 43 -94 66 -31 38 -32 39 -25 120 l6 81 -66
96 c-45 66 -65 105 -65 126 0 22 -12 43 -40 74 -22 24 -48 64 -56 90 -18 52
-34 60 -34 17z"/>
<path d="M5953 2723 c-9 -24 16 -43 50 -37 54 10 97 25 97 35 0 11 -1 11 -79
13 -44 1 -65 -2 -68 -11z"/>
<path d="M3883 2625 c-3 -9 -3 -18 0 -21 9 -9 27 6 27 22 0 19 -19 18 -27 -1z"/>
<path d="M3730 2446 c0 -8 4 -17 9 -20 10 -7 23 19 14 28 -11 11 -23 6 -23 -8z"/>
<path d="M5400 2400 c-13 -25 6 -73 49 -123 33 -37 51 -44 141 -52 30 -2 71
-7 91 -11 34 -6 69 12 69 36 0 22 -34 40 -76 40 -44 0 -104 22 -104 39 0 16
-111 91 -135 91 -14 0 -29 -8 -35 -20z"/>
<path d="M3692 2269 c2 -6 8 -10 13 -10 5 0 11 4 13 10 2 6 -4 11 -13 11 -9 0
-15 -5 -13 -11z"/>
<path d="M5823 2251 c-45 -32 -83 -81 -83 -105 0 -24 35 -37 91 -34 40 2 54
-1 63 -15 26 -41 -95 -197 -164 -210 -20 -4 -37 -19 -54 -46 -17 -26 -35 -41
-55 -46 -35 -7 -91 -66 -91 -95 0 -21 -28 -40 -59 -40 -12 0 -21 -7 -21 -16 0
-21 90 -16 100 6 44 97 47 99 105 117 18 5 40 24 54 46 14 21 32 37 43 37 33
0 111 68 151 133 47 73 53 136 19 185 l-21 29 22 21 c17 18 19 26 11 40 -18
29 -65 26 -111 -7z"/>
<path d="M5437 2198 c-14 -24 -43 -60 -66 -81 -27 -25 -41 -46 -41 -62 0 -14
5 -25 10 -25 6 0 10 6 10 13 0 6 15 26 34 42 38 34 100 141 87 150 -5 3 -20
-14 -34 -37z"/>
<path d="M6165 2150 c-4 -6 -1 -17 5 -26 10 -11 16 -12 26 -3 11 9 11 15 3 25
-14 17 -25 18 -34 4z"/>
<path d="M6252 2148 c3 -7 22 -14 42 -16 28 -2 37 0 34 10 -3 7 -22 14 -42 16
-28 2 -37 0 -34 -10z"/>
<path d="M3755 1997 c-4 -10 -5 -21 -1 -24 10 -10 18 4 13 24 -4 17 -4 17 -12
0z"/>
<path d="M6702 1958 c-16 -21 -43 -91 -36 -97 3 -3 78 -6 167 -7 89 0 170 -1
179 -2 10 -1 35 -21 57 -44 34 -35 43 -39 56 -28 29 24 18 58 -27 87 -52 32
-146 63 -196 63 -21 0 -68 9 -107 20 -84 23 -80 23 -93 8z"/>
<path d="M3773 1894 c-8 -21 13 -64 32 -64 19 0 19 13 0 50 -18 34 -23 36 -32
14z"/>
<path d="M3830 1795 c0 -16 27 -32 37 -21 7 7 -16 36 -28 36 -5 0 -9 -7 -9
-15z"/>
<path d="M3864 1739 c-3 -6 -1 -16 5 -22 8 -8 11 -5 11 11 0 24 -5 28 -16 11z"/>
<path d="M3863 1674 c-7 -18 11 -39 26 -30 17 11 13 46 -4 46 -9 0 -18 -7 -22
-16z"/>
<path d="M6827 892 c-30 -31 -32 -44 -16 -91 13 -38 25 -39 51 -6 11 14 28 25
39 25 62 0 78 49 27 80 -45 27 -69 25 -101 -8z"/>
<path d="M6810 645 c-7 -8 -20 -29 -29 -45 -33 -61 -87 -120 -129 -141 l-44
-22 -28 22 c-16 11 -34 21 -40 21 -6 0 -22 7 -36 17 -22 14 -33 15 -97 3 -49
-9 -80 -21 -98 -37 -14 -12 -35 -23 -47 -23 -12 0 -32 -14 -48 -35 -19 -25
-34 -35 -53 -35 -47 0 -64 -21 -65 -78 -1 -35 4 -56 17 -69 10 -12 15 -27 11
-36 -9 -26 21 -31 62 -12 30 14 52 16 133 10 78 -6 105 -4 135 9 21 9 66 16
100 16 33 0 79 5 100 11 48 13 96 59 96 91 0 21 37 82 91 149 30 38 45 168 21
187 -21 16 -37 15 -52 -3z"/>
</g>
</svg>
