<?xml version="1.0" standalone="no"?>
<!DOCTYPE svg PUBLIC "-//W3C//DTD SVG 20010904//EN"
 "http://www.w3.org/TR/2001/REC-SVG-20010904/DTD/svg10.dtd">
<svg version="1.0" xmlns="http://www.w3.org/2000/svg"
 width="1024.000000pt" height="1024.000000pt" viewBox="0 0 1024.000000 1024.000000"
 preserveAspectRatio="xMidYMid meet">
<metadata>
Created by potrace 1.16, written by Peter Selinger 2001-2019
</metadata>
<g transform="translate(0.000000,1024.000000) scale(0.100000,-0.100000)"
fill="#000000" stroke="none">
<path d="M6327 9902 c-9 -8 -37 -20 -63 -27 -38 -9 -50 -17 -54 -36 -5 -20
-13 -25 -48 -27 -38 -3 -42 -5 -40 -29 2 -15 -3 -28 -11 -31 -7 -2 -22 -14
-32 -26 -10 -11 -41 -45 -69 -74 l-50 -53 5 -196 c5 -186 6 -198 30 -238 33
-57 109 -123 151 -131 74 -14 130 55 185 231 26 84 30 111 25 167 -6 83 5 98
72 98 50 0 112 -29 112 -53 0 -19 -27 -41 -80 -64 -61 -27 -76 -47 -91 -121
l-13 -63 43 -37 c33 -29 45 -47 50 -77 5 -34 10 -41 36 -45 36 -6 55 -39 55
-97 0 -44 8 -50 41 -33 12 7 19 21 19 40 0 27 32 70 51 70 4 0 11 9 14 20 13
41 -43 69 -64 33 -13 -23 -44 -6 -49 26 -8 49 71 95 185 108 46 5 54 3 77 -20
25 -25 26 -31 26 -132 l0 -107 50 -48 c58 -56 60 -67 29 -191 -17 -67 -20
-101 -16 -169 11 -156 79 -389 159 -537 47 -88 51 -93 82 -93 39 0 56 18 80
80 10 25 23 51 29 59 9 10 3 20 -25 45 -20 17 -64 56 -98 86 -97 84 -123 168
-65 206 21 14 28 13 82 -15 97 -49 142 -109 158 -211 15 -90 40 -109 119 -86
78 23 83 33 53 108 -14 35 -28 71 -31 80 -2 9 -24 25 -48 36 -24 11 -74 50
-112 87 -77 76 -150 115 -213 115 -30 0 -45 5 -52 18 -12 22 -31 259 -24 281
3 9 15 26 27 39 l21 23 -24 41 c-26 46 -34 119 -51 458 -5 107 -15 212 -21
232 -19 58 -39 70 -128 78 -54 5 -87 13 -107 27 -16 11 -48 30 -71 42 -29 14
-54 39 -77 75 -19 30 -40 58 -48 62 -7 5 -50 9 -95 10 -60 1 -85 -2 -96 -14z"/>
<path d="M5887 9134 c-30 -15 -76 -28 -121 -33 -85 -10 -85 -10 -246 -117 -72
-48 -151 -91 -187 -103 -82 -28 -211 -37 -288 -21 -54 11 -65 18 -130 85 -145
151 -208 158 -335 39 -80 -76 -112 -88 -191 -73 -31 6 -81 8 -110 5 -30 -3
-126 -10 -214 -15 -193 -11 -311 -30 -427 -71 -49 -16 -108 -30 -132 -30 -42
0 -76 -18 -76 -40 0 -5 -26 -35 -58 -67 -32 -32 -65 -69 -73 -83 -14 -21 -24
-25 -68 -25 -68 0 -74 -11 -72 -136 1 -119 10 -146 55 -164 19 -8 54 -33 77
-55 46 -43 47 -53 14 -139 -18 -49 -14 -80 16 -122 37 -53 16 -138 -53 -214
-48 -53 -49 -55 -67 -165 -21 -127 -22 -123 43 -312 58 -173 59 -191 7 -218
-51 -25 -71 -55 -71 -103 0 -49 20 -56 68 -25 55 36 66 38 101 17 28 -17 32
-25 31 -57 -3 -61 -1 -67 34 -113 18 -24 39 -61 45 -81 7 -20 27 -53 46 -74
29 -32 32 -39 22 -61 -10 -22 -5 -29 52 -87 57 -57 62 -67 56 -94 -5 -26 -2
-33 29 -57 56 -43 76 -83 76 -154 0 -42 6 -74 20 -100 15 -31 17 -45 10 -72
-12 -40 -6 -63 26 -106 29 -39 30 -58 4 -159 -25 -99 -25 -157 0 -212 15 -34
19 -62 17 -126 -2 -80 -1 -84 31 -120 56 -64 48 -99 -64 -266 -35 -53 -80
-134 -100 -180 -39 -90 -40 -99 -13 -245 7 -39 9 -82 6 -96 -8 -32 -129 -201
-207 -290 -32 -36 -68 -84 -80 -107 -28 -54 -36 -140 -20 -243 6 -46 14 -122
15 -169 7 -163 103 -404 210 -527 50 -57 200 -158 288 -194 123 -51 467 -406
596 -616 36 -58 54 -69 76 -47 23 23 19 46 -20 110 -35 57 -39 74 -19 81 12 4
76 -150 94 -224 6 -28 25 -73 41 -98 16 -26 45 -77 63 -114 34 -66 121 -199
274 -418 47 -67 85 -133 95 -165 9 -29 30 -144 46 -256 26 -177 33 -209 60
-257 17 -30 31 -64 31 -75 0 -11 16 -49 35 -86 29 -53 35 -76 35 -124 0 -56 2
-62 40 -99 30 -30 40 -47 40 -73 1 -69 63 -178 101 -178 24 0 24 17 -1 81 -22
54 -27 123 -15 179 21 100 116 225 225 300 67 46 94 75 108 117 6 18 39 65 74
105 35 40 84 106 108 146 98 160 104 166 155 192 64 32 67 52 19 130 -41 67
-40 36 -14 304 11 109 9 215 -6 326 -4 33 0 63 15 108 14 42 21 87 21 142 0
66 4 86 21 109 20 27 20 30 5 75 -11 31 -16 82 -16 150 0 97 2 108 40 199 22
52 40 102 40 111 0 8 -10 34 -22 57 l-22 42 19 86 c18 85 29 283 26 463 -1 66
3 96 15 120 10 18 21 67 25 108 19 174 29 228 54 284 24 55 26 65 19 151 -7
99 -4 111 49 177 28 35 29 40 32 160 3 141 17 197 76 305 21 40 39 78 39 85 0
8 -27 26 -60 41 -39 18 -72 43 -97 74 -34 41 -38 53 -44 125 -6 61 -13 88 -33
118 -31 47 -33 94 -8 160 15 39 23 47 60 58 23 8 42 19 42 25 0 7 -13 35 -30
63 -22 39 -40 56 -76 73 l-47 22 6 51 c5 40 13 58 37 79 37 34 37 49 4 142
-28 79 -32 142 -13 179 40 74 121 138 177 138 19 0 22 6 22 36 0 29 -12 52
-55 108 -49 65 -92 138 -201 344 -36 67 -43 106 -20 115 27 11 54 -24 97 -125
58 -140 166 -347 197 -380 27 -30 60 -36 80 -16 18 18 15 40 -14 82 -22 32
-25 43 -15 57 16 27 15 31 -26 83 -36 46 -36 47 -23 87 12 37 12 45 -3 71 -22
38 -22 91 1 110 34 30 90 41 138 28 41 -12 47 -11 100 16 64 33 75 53 63 115
-15 81 -14 83 54 120 61 32 65 33 188 34 110 0 130 2 148 19 12 11 21 26 21
34 0 12 -9 13 -47 7 -57 -10 -111 -11 -119 -3 -3 4 5 24 18 46 25 45 19 64
-15 42 -12 -8 -67 -36 -122 -63 -55 -27 -138 -72 -184 -100 -47 -28 -130 -70
-185 -95 l-99 -43 -26 19 c-46 34 -48 60 -11 148 61 148 52 241 -33 342 -46
54 -49 101 -12 156 14 20 25 39 25 41 0 14 -112 58 -159 62 -98 9 -131 -7
-210 -100 -38 -45 -87 -99 -110 -120 -23 -21 -41 -46 -41 -56 0 -9 16 -41 34
-70 31 -47 56 -123 56 -166 0 -8 23 -40 50 -70 28 -30 50 -62 50 -70 0 -8 33
-31 78 -52 80 -39 92 -55 69 -87 -14 -19 -15 -18 -43 8 -53 50 -76 58 -122 39
-46 -18 -78 -13 -112 17 -32 28 -84 27 -104 -2 -9 -12 -16 -26 -16 -30 0 -5
23 -24 50 -44 51 -37 65 -69 33 -81 -21 -8 -46 23 -96 119 -46 87 -47 120 -2
128 27 5 30 9 27 40 -5 60 -23 82 -97 120 -85 42 -185 109 -185 123 0 6 12 25
26 44 15 19 23 41 20 50 -6 15 -16 15 -103 -3 -29 -5 -39 -1 -85 41 -61 54
-87 103 -88 162 0 36 -4 43 -34 61 -40 24 -68 94 -70 179 -2 84 15 93 168 93
145 0 206 -15 267 -66 96 -80 149 -82 289 -12 77 38 94 43 173 46 l87 4 36 53
c19 29 55 70 79 90 25 20 45 40 45 44 0 7 -102 53 -180 81 -19 7 -46 23 -60
35 -38 34 -84 54 -142 63 -52 7 -53 8 -56 42 -4 61 -21 204 -28 238 -9 45 12
143 41 194 30 52 31 74 6 88 -24 12 -17 14 -74 -16z"/>
<path d="M2306 8111 c-31 -50 101 -117 179 -91 27 9 35 17 35 35 0 17 -10 27
-41 39 -55 22 -164 33 -173 17z"/>
<path d="M1865 7950 c-10 -17 90 -59 217 -90 221 -54 358 -110 358 -146 0 -18
-18 -17 -50 1 -32 19 -80 19 -80 1 0 -7 9 -25 20 -39 26 -33 25 -47 -3 -47
-13 0 -38 -15 -58 -36 -43 -45 -103 -81 -150 -89 -30 -5 -38 -12 -42 -34 -3
-14 -21 -47 -41 -72 -92 -121 -104 -201 -49 -324 17 -38 35 -92 39 -120 4 -33
17 -63 37 -87 31 -39 36 -67 24 -128 l-8 -35 88 -28 c115 -36 149 -35 221 5
53 30 64 33 149 33 l93 0 43 -47 c36 -40 50 -48 79 -48 22 0 41 7 53 21 17 18
18 23 5 52 -15 35 -18 115 -6 163 7 29 4 36 -42 82 -69 69 -79 104 -63 230 6
53 13 124 15 157 2 33 11 81 20 106 17 45 17 49 -3 114 -12 38 -27 75 -33 83
-21 24 -56 32 -105 23 -69 -13 -88 -2 -113 68 -37 100 -69 121 -250 164 -363
87 -354 85 -365 67z"/>
<path d="M5575 7946 c-17 -12 -18 -18 -8 -52 6 -22 9 -53 6 -70 -7 -44 15 -49
95 -21 78 27 103 57 87 104 -8 20 -21 31 -50 39 -55 17 -107 17 -130 0z"/>
<path d="M907 7902 c-23 -25 -21 -53 6 -93 26 -39 63 -48 99 -25 18 12 32 13
57 6 39 -11 75 1 91 30 19 35 5 47 -63 59 -36 6 -84 18 -107 26 -54 19 -63 19
-83 -3z"/>
<path d="M8255 3867 c-18 -15 -28 -36 -32 -64 -5 -37 -2 -45 25 -73 26 -26 38
-30 84 -30 65 0 73 6 82 51 8 46 -2 93 -26 118 -27 30 -98 29 -133 -2z"/>
<path d="M8554 3860 c-92 -32 -94 -34 -94 -94 0 -32 5 -58 13 -65 8 -6 46 -14
85 -17 120 -11 196 22 194 85 -1 41 -18 69 -55 91 -39 24 -76 24 -143 0z"/>
<path d="M8819 3518 c-15 -24 -36 -62 -48 -85 -11 -23 -29 -44 -40 -48 -37
-12 -71 -46 -81 -85 -11 -43 -37 -58 -69 -41 -11 6 -35 11 -54 11 -63 0 -128
-67 -241 -247 -28 -43 -73 -114 -101 -158 -126 -195 -215 -372 -215 -428 0
-25 10 -47 35 -77 58 -69 48 -129 -34 -210 -30 -31 -33 -37 -27 -78 11 -79 24
-95 79 -98 59 -2 94 -25 122 -80 17 -34 19 -56 17 -162 -2 -85 2 -140 13 -181
18 -72 19 -174 0 -221 -7 -19 -34 -93 -60 -165 -41 -115 -46 -137 -42 -195 9
-143 94 -225 311 -297 118 -40 293 -121 412 -193 71 -44 90 -51 126 -48 41 3
43 5 46 36 4 40 -19 79 -55 93 -14 5 -64 35 -112 67 -128 86 -227 142 -306
172 -81 32 -109 66 -107 134 0 62 22 104 93 183 69 77 129 181 129 225 0 38
-25 48 -119 48 -50 0 -81 4 -81 10 0 6 8 25 17 43 10 20 17 57 17 97 1 78 17
104 94 151 80 49 95 73 89 139 -10 96 -25 129 -80 179 -164 148 -207 201 -207
255 0 69 114 156 206 156 108 0 207 39 291 115 75 66 76 77 11 138 -30 29 -65
72 -79 97 -16 30 -37 51 -62 63 -20 9 -37 23 -37 30 0 15 51 90 141 209 33 42
59 87 59 99 0 13 -10 42 -21 66 l-21 44 35 57 c33 54 35 62 34 137 -2 77 -3
80 -27 83 -20 2 -30 -6 -51 -40z"/>
<path d="M9128 2649 c-47 -14 -113 -71 -139 -121 -24 -46 -34 -121 -25 -172
19 -98 164 -169 182 -88 12 56 24 71 81 99 70 34 103 78 103 137 0 37 -6 48
-53 94 -57 56 -89 67 -149 51z"/>
<path d="M8495 2303 c-41 -45 -26 -142 26 -158 54 -18 149 33 149 80 0 26 -47
71 -97 92 -44 18 -48 17 -78 -14z"/>
<path d="M8713 2180 c-30 -12 -30 -44 1 -114 35 -78 49 -156 41 -229 -7 -59
-5 -64 22 -91 29 -30 87 -59 140 -70 25 -6 42 -1 78 20 44 26 50 26 144 20
116 -9 159 4 191 56 26 42 25 81 -1 135 -25 52 -73 94 -157 135 -58 29 -68 30
-137 25 l-75 -5 -42 49 c-59 68 -140 95 -205 69z"/>
</g>
</svg>
