<?xml version="1.0" standalone="no"?>
<!DOCTYPE svg PUBLIC "-//W3C//DTD SVG 20010904//EN"
 "http://www.w3.org/TR/2001/REC-SVG-20010904/DTD/svg10.dtd">
<svg version="1.0" xmlns="http://www.w3.org/2000/svg"
 width="716.000000pt" height="976.000000pt" viewBox="0 0 716.000000 976.000000"
 preserveAspectRatio="xMidYMid meet">
<metadata>
Created by potrace 1.16, written by Peter Selinger 2001-2019
</metadata>
<g transform="translate(0.000000,976.000000) scale(0.100000,-0.100000)"
fill="#000000" stroke="none">
<path d="M609 9599 c-40 -42 -94 -188 -83 -226 8 -28 30 -30 39 -3 8 24 12 24
95 2 l65 -17 38 -73 c21 -40 35 -77 31 -83 -4 -7 -25 -9 -58 -5 -50 7 -52 6
-63 -23 -7 -21 -20 -32 -39 -36 -16 -4 -35 -8 -42 -11 -19 -6 -42 -67 -42
-112 l0 -39 -87 -40 c-49 -22 -105 -46 -125 -52 -32 -11 -38 -18 -44 -49 -4
-20 -11 -43 -17 -50 -7 -9 -6 -25 3 -53 13 -39 13 -40 -18 -72 -27 -28 -32
-41 -32 -80 0 -44 -17 -76 -47 -88 -4 -2 -6 -40 -3 -85 4 -65 10 -88 32 -121
27 -41 27 -41 69 -32 22 5 57 18 77 28 l37 19 87 -83 c47 -45 109 -97 136
-115 55 -35 66 -58 56 -119 -6 -37 -4 -40 40 -70 25 -18 46 -36 46 -41 0 -5
11 -22 25 -38 20 -24 37 -32 78 -37 47 -7 95 -26 138 -57 13 -9 22 -7 44 10
15 12 41 22 56 22 18 0 34 8 41 20 16 26 20 25 68 -6 45 -30 47 -39 23 -107
-12 -33 -14 -50 -7 -55 6 -4 14 -23 18 -42 7 -41 48 -90 75 -90 10 0 35 -7 54
-15 20 -8 52 -15 71 -15 53 0 54 -18 2 -67 -29 -29 -46 -53 -46 -68 0 -13 -4
-27 -10 -30 -5 -3 -10 -18 -10 -31 0 -24 -3 -25 -32 -18 -18 3 -52 16 -75 27
l-41 20 -24 -27 c-34 -39 -87 -45 -122 -13 -21 20 -42 27 -97 32 -63 6 -73 5
-93 -14 -29 -27 -48 -27 -106 5 -43 24 -52 25 -84 14 l-36 -12 0 -99 c0 -96
-1 -101 -34 -152 -19 -28 -37 -68 -41 -87 -8 -40 -38 -101 -69 -143 -19 -27
-24 -28 -69 -23 -70 10 -77 14 -77 51 0 18 -8 43 -18 55 -16 20 -20 21 -67 9
-79 -19 -107 -36 -96 -58 6 -10 17 -24 26 -31 11 -9 14 -22 9 -44 -8 -39 -41
-86 -60 -86 -7 0 -20 -15 -27 -32 -8 -18 -21 -39 -30 -47 -10 -7 -17 -25 -17
-38 0 -14 -8 -38 -17 -53 -16 -28 -16 -31 14 -97 17 -37 34 -84 38 -103 20
-106 21 -107 92 -141 37 -18 103 -46 148 -64 83 -32 165 -83 261 -162 66 -53
110 -73 161 -73 21 0 60 -8 86 -17 39 -14 53 -15 79 -5 31 11 34 10 72 -30 37
-38 41 -47 44 -105 l4 -63 -30 0 c-36 0 -42 -12 -42 -91 0 -65 9 -89 47 -131
l25 -27 -21 -27 c-13 -16 -18 -31 -12 -38 13 -17 20 -101 9 -120 -5 -9 -14
-16 -20 -16 -7 0 -25 -12 -40 -27 -24 -23 -36 -27 -75 -24 -50 3 -63 -7 -63
-49 0 -14 -9 -42 -20 -62 -13 -24 -17 -47 -14 -70 3 -18 -1 -61 -10 -95 -16
-60 -16 -64 4 -100 11 -21 20 -46 20 -55 0 -12 8 -18 21 -18 13 0 41 -22 73
-56 28 -31 63 -62 77 -70 14 -7 32 -27 39 -44 15 -35 21 -37 45 -10 10 11 22
20 27 20 16 0 8 -81 -12 -122 -11 -23 -20 -52 -20 -64 0 -12 -16 -43 -35 -68
-37 -49 -42 -74 -24 -124 17 -49 101 -81 161 -61 37 12 47 10 139 -20 61 -20
99 -37 96 -44 -2 -7 -20 -21 -40 -32 -20 -11 -42 -32 -48 -46 -6 -15 -26 -44
-46 -65 -47 -51 -53 -71 -53 -163 0 -74 1 -78 30 -99 18 -14 33 -37 40 -62 11
-43 33 -70 56 -70 22 0 18 -88 -6 -135 -18 -34 -19 -46 -10 -80 21 -77 8 -247
-21 -276 -23 -23 -16 -44 21 -59 29 -12 46 -44 68 -124 9 -30 8 -45 -3 -65 -9
-19 -10 -32 -3 -45 6 -10 7 -36 4 -57 -4 -26 -1 -49 9 -69 8 -16 15 -40 15
-53 0 -13 15 -44 33 -68 44 -57 64 -96 72 -141 6 -29 3 -38 -11 -46 -25 -14
-23 -76 2 -122 16 -30 19 -58 19 -185 1 -94 5 -158 13 -171 17 -33 77 -58 103
-44 11 7 23 9 26 7 2 -3 18 -38 34 -78 27 -66 28 -74 14 -95 -8 -13 -15 -37
-15 -53 0 -40 37 -51 86 -28 34 17 47 51 22 59 -9 3 -8 20 6 65 15 50 17 67 7
94 -9 27 -9 34 3 41 9 5 24 28 35 52 10 25 31 52 45 61 21 14 26 25 26 61 0
24 4 44 9 44 13 0 53 -109 45 -123 -4 -7 -16 -22 -27 -34 -19 -21 -19 -28 -9
-104 13 -90 23 -109 58 -109 17 0 31 12 50 43 15 23 31 45 36 48 11 7 13 87 4
117 -9 28 8 58 44 77 25 13 30 23 37 68 8 61 7 70 -14 120 -18 41 -9 63 12 33
8 -10 16 -24 18 -30 3 -7 9 -7 21 3 9 8 18 12 20 10 3 -2 7 -51 11 -109 l7
-105 -41 -47 c-47 -53 -49 -61 -21 -103 11 -16 20 -42 20 -57 0 -15 4 -38 10
-52 8 -22 16 -26 50 -26 l41 0 -6 44 c-9 55 4 64 56 40 30 -13 47 -15 67 -8
52 18 43 38 -56 124 -17 15 -22 30 -22 67 0 60 12 82 34 64 11 -10 14 -24 9
-57 -6 -43 -5 -44 31 -59 62 -26 96 -30 96 -11 0 18 15 22 25 6 9 -14 78 -13
93 2 7 7 12 20 12 30 0 10 16 26 40 38 22 11 40 26 40 33 0 7 -13 34 -30 60
-24 39 -30 59 -30 104 0 48 -4 61 -27 86 l-28 30 37 -7 c35 -6 38 -5 45 21 17
63 8 166 -20 235 l-28 67 22 43 c12 24 31 56 41 71 17 23 19 38 14 79 l-7 50
36 -27 c29 -23 35 -33 35 -66 0 -31 -8 -47 -37 -79 l-36 -41 16 -97 c9 -53 23
-112 33 -130 13 -26 15 -47 10 -94 -4 -32 -10 -66 -12 -73 -7 -17 39 -65 60
-65 9 0 22 13 31 30 21 40 33 38 37 -6 4 -49 30 -59 86 -34 41 19 42 19 42 0
0 -33 -12 -50 -34 -50 -41 0 -48 -13 -41 -72 5 -40 3 -64 -9 -92 -18 -44 -14
-56 19 -56 15 0 36 15 59 42 37 44 42 40 27 -25 -8 -33 -6 -39 16 -57 46 -36
89 -36 160 -1 66 32 83 55 83 110 0 18 12 38 35 61 32 31 35 39 35 90 0 60 23
107 89 182 l32 37 35 -17 c48 -22 61 -12 110 86 28 57 58 99 100 139 54 53 63
67 93 155 32 95 33 99 21 170 -15 89 -23 105 -107 215 -59 77 -66 92 -65 128
2 33 -3 47 -23 65 -14 13 -25 35 -25 48 0 35 -36 89 -70 104 -19 8 -30 20 -30
33 0 11 -9 35 -21 54 -20 33 -20 61 1 61 6 0 25 -16 42 -36 29 -33 36 -36 71
-31 22 3 56 -1 78 -8 22 -8 47 -11 57 -8 25 9 95 58 147 103 54 47 76 49 147
15 45 -22 65 -25 154 -25 l102 0 43 -35 c66 -56 76 -59 199 -61 63 -2 143 -7
178 -13 53 -8 69 -7 98 6 32 16 36 16 64 -1 27 -15 31 -16 36 -2 10 25 27 19
47 -15 16 -29 21 -31 55 -25 36 5 41 3 98 -55 32 -33 83 -79 112 -101 35 -27
64 -61 83 -97 16 -31 47 -81 69 -111 69 -94 158 -279 171 -356 26 -159 23
-149 49 -148 14 1 33 4 43 9 14 6 17 2 17 -28 0 -19 -7 -40 -15 -47 -27 -23
-17 -74 40 -189 31 -63 55 -126 55 -144 0 -18 12 -50 25 -72 46 -74 27 -212
-50 -365 l-33 -66 19 -39 c21 -46 24 -103 7 -174 -19 -86 20 -141 101 -141 34
0 50 -17 89 -95 62 -124 80 -180 92 -280 14 -122 30 -152 141 -269 77 -81 81
-88 89 -146 9 -63 22 -89 88 -177 24 -32 46 -77 56 -117 10 -36 24 -70 32 -77
21 -17 40 -4 47 31 8 36 -41 152 -95 227 -27 37 -30 48 -25 90 3 31 0 61 -10
85 -8 21 -13 48 -10 59 4 16 -6 34 -39 69 -38 40 -44 52 -35 68 14 26 18 272
4 297 -15 28 -7 41 38 67 30 16 42 31 50 60 10 39 14 41 59 39 17 -1 36 10 60
34 53 55 94 42 111 -35 19 -84 57 -103 155 -79 57 15 60 12 94 -93 23 -71 30
-83 53 -89 32 -9 53 8 73 57 15 35 18 17 -50 271 -14 51 -30 141 -36 200 -11
106 -8 388 5 468 7 41 0 84 -50 302 -14 61 -25 117 -25 122 0 6 11 11 24 11
35 0 39 13 22 74 -14 47 -61 332 -81 486 -4 30 -14 71 -21 90 -8 19 -20 96
-28 170 -13 130 -15 135 -45 162 -36 32 -65 129 -55 182 6 33 3 37 -61 87
l-67 53 7 103 c6 87 4 107 -9 128 -10 15 -21 68 -28 130 -12 100 -11 107 10
150 12 25 22 58 22 73 0 47 -26 125 -58 177 -25 40 -34 70 -43 145 -9 69 -20
111 -42 152 -26 52 -28 62 -22 118 5 42 3 65 -5 75 -22 27 -39 16 -51 -30 -16
-62 -44 -63 -53 -2 -6 38 -11 45 -42 56 -41 15 -48 11 -130 -77 -66 -71 -86
-68 -152 23 l-47 65 -13 -47 c-14 -55 -10 -106 20 -236 l20 -89 -21 -43 c-26
-53 -35 -60 -87 -74 -81 -22 -159 -135 -171 -250 -4 -48 0 -74 31 -171 40
-123 40 -154 1 -164 -19 -5 -25 -13 -25 -32 0 -17 -14 -40 -38 -64 -33 -34
-46 -39 -101 -46 -56 -6 -66 -10 -80 -35 -24 -43 -23 -44 -123 55 -46 45 -48
48 -48 104 0 72 -42 201 -75 232 -14 13 -25 31 -25 41 0 18 -12 30 -51 46 -25
11 -27 9 -49 -34 -22 -44 -22 -45 -6 -139 21 -127 21 -134 -7 -134 -48 0 -66
37 -88 176 -11 71 -26 154 -34 184 -14 52 -14 56 6 83 11 16 19 29 17 30 -33
17 -46 35 -73 105 -18 48 -45 96 -63 115 -20 21 -32 43 -32 61 0 15 -13 59
-30 98 -36 83 -36 85 -10 93 27 9 25 33 -5 57 -18 14 -25 29 -25 53 0 33 13
45 49 45 46 0 75 81 76 210 0 74 5 104 20 135 19 37 23 40 65 43 100 5 114 21
115 122 l0 65 33 3 c18 2 64 -4 102 -12 95 -22 145 -20 191 6 40 23 59 60 59
121 0 33 16 67 31 67 6 0 22 -25 36 -56 24 -53 27 -56 56 -50 17 3 33 8 35 11
3 3 4 32 3 66 l-2 62 47 -7 c56 -7 74 -20 74 -52 0 -16 13 -32 44 -54 25 -16
49 -30 55 -30 12 0 24 43 41 146 10 56 10 79 0 108 -9 29 -9 40 0 51 16 19 47
19 66 0 24 -24 37 -18 29 13 -15 57 -15 57 61 58 65 0 75 3 113 33 l41 33 0
87 0 88 39 31 c34 28 39 36 44 89 3 33 27 119 58 202 49 133 52 146 40 175
-24 57 -25 88 -5 103 31 23 66 15 106 -23 l37 -37 62 10 c34 6 77 7 95 3 24
-6 37 -4 45 6 6 8 18 14 25 14 10 0 14 16 14 60 0 49 -3 62 -17 67 -10 4 -22
13 -26 21 -6 9 -18 12 -33 8 -20 -5 -26 -2 -34 19 -5 14 -16 25 -25 25 -8 0
-23 16 -32 35 -13 28 -24 36 -57 42 -29 6 -44 16 -56 38 -18 32 -43 42 -105
44 -34 1 -43 6 -63 36 -20 31 -27 35 -65 35 -34 0 -49 6 -67 25 -13 14 -48 33
-78 41 -50 15 -67 15 -243 -6 -103 -12 -193 -19 -199 -15 -5 3 -20 -1 -32 -9
-12 -9 -32 -16 -44 -16 -12 0 -24 -7 -28 -15 -10 -26 -53 -36 -103 -23 -36 9
-48 17 -57 40 -6 15 -13 28 -16 28 -3 0 -21 -11 -40 -25 -28 -20 -45 -25 -97
-25 -38 0 -76 6 -94 15 -16 9 -60 19 -97 24 -46 6 -83 18 -111 35 -39 25 -44
26 -66 12 -16 -11 -60 -16 -161 -19 -107 -3 -156 -9 -214 -26 -41 -12 -112
-25 -157 -28 -71 -5 -86 -3 -113 14 -30 19 -36 19 -78 7 -60 -18 -97 -18 -128
2 -23 16 -27 16 -64 -1 -37 -17 -43 -17 -93 -1 -52 16 -54 16 -120 -9 -91 -34
-119 -32 -215 14 -60 30 -112 46 -199 61 -117 21 -186 45 -338 115 -78 36 -88
37 -155 20 -22 -6 -28 -2 -41 27 -9 18 -22 56 -29 84 -12 48 -11 59 34 235 25
102 46 196 46 210 0 14 -20 53 -45 87 -45 62 -45 62 -34 108 9 34 9 55 0 84
-13 44 -7 62 46 148 18 29 33 55 33 58 0 3 -13 10 -30 15 -34 12 -37 28 -13
66 l17 25 -30 -6 c-30 -7 -32 -5 -57 52 -15 33 -27 76 -27 96 0 49 -41 114
-78 122 -61 13 -61 13 -64 62 -3 43 -5 47 -30 50 -25 3 -28 0 -28 -25 0 -20
-11 -40 -35 -63 -31 -30 -34 -38 -29 -70 4 -20 18 -45 33 -58 l26 -22 -38 -34
c-33 -29 -39 -41 -41 -80 -2 -32 -9 -51 -22 -61 -17 -13 -22 -11 -50 22 -30
36 -31 36 -89 29 -47 -5 -61 -3 -76 10 -18 16 -20 16 -38 0 -17 -15 -22 -16
-53 -3 -19 8 -48 30 -64 49 -16 19 -40 38 -54 41 -14 4 -32 20 -42 36 -12 21
-33 35 -78 52 -71 26 -69 23 -105 176 -31 129 -31 141 -3 145 32 5 33 27 1 38
-49 17 -58 26 -63 61 -4 29 -10 35 -44 44 -21 6 -55 26 -74 43 -31 30 -37 31
-56 19 -21 -14 -66 -73 -66 -88 0 -21 54 -69 78 -69 34 0 44 -8 59 -42 7 -16
19 -28 28 -28 9 0 15 -9 15 -22 0 -12 7 -29 16 -39 21 -23 12 -36 -36 -49 -51
-14 -87 -4 -107 29 -23 36 -43 51 -70 51 -24 0 -27 -4 -37 -52 -4 -16 -13 -28
-20 -28 -14 0 -66 53 -84 87 -13 22 -55 20 -117 -7 -81 -35 -91 1 -15 50 28
18 50 38 50 46 0 7 -14 21 -31 29 -17 9 -37 31 -44 49 -8 18 -38 59 -68 90
-49 52 -57 57 -91 54 -28 -2 -42 3 -52 17 -33 47 -79 85 -120 101 -29 11 -46
24 -49 38 -2 12 -8 41 -13 66 l-8 45 -35 -36z"/>
<path d="M4190 3380 c-30 -16 -59 -31 -64 -33 -16 -6 3 -51 39 -92 20 -22 40
-58 45 -80 16 -63 33 -88 73 -110 20 -11 45 -31 54 -45 9 -14 22 -29 27 -33
18 -13 109 3 139 24 20 15 32 18 41 10 19 -16 112 -2 135 20 19 18 19 21 4 64
-14 43 -34 57 -48 35 -14 -23 -26 -8 -19 25 8 43 -8 65 -47 65 -19 0 -34 -9
-49 -31 l-22 -30 -24 22 c-16 15 -22 29 -18 44 4 17 -7 40 -41 86 -25 35 -54
70 -63 77 -28 21 -102 13 -162 -18z"/>
<path d="M3863 3328 c-54 -44 -113 -138 -113 -178 0 -17 3 -19 19 -11 24 14
31 5 24 -30 -8 -43 33 -117 69 -125 38 -8 45 -25 53 -124 4 -47 15 -122 26
-167 19 -78 19 -86 5 -144 -9 -34 -33 -94 -53 -135 -41 -81 -39 -91 19 -103
l33 -7 3 -82 c2 -45 6 -82 11 -82 4 0 16 9 26 20 10 11 24 20 31 20 7 0 25 19
41 42 18 26 40 46 62 53 48 16 63 41 55 92 -4 29 0 59 14 100 11 32 32 112 46
178 15 66 28 128 30 138 3 10 -4 50 -13 90 -14 56 -29 87 -68 139 -51 67 -103
182 -125 279 -13 57 -24 66 -94 74 -46 5 -52 3 -101 -37z"/>
<path d="M4970 3164 c0 -5 14 -35 30 -68 26 -52 28 -65 23 -121 -8 -90 2 -130
46 -178 21 -23 44 -55 52 -71 10 -21 27 -34 58 -44 44 -15 45 -14 67 12 48 55
44 77 -51 265 -48 96 -96 178 -108 185 -26 17 -117 32 -117 20z"/>
<path d="M4503 2894 c-15 -24 -15 -29 -1 -68 13 -35 14 -52 5 -90 -8 -35 -8
-62 1 -103 8 -40 8 -68 1 -105 -6 -28 -9 -73 -6 -101 2 -28 -2 -76 -9 -106
-17 -73 -17 -81 2 -81 27 0 74 40 88 75 8 19 27 40 43 48 45 24 60 48 72 111
17 92 14 121 -18 171 -30 47 -53 123 -50 160 1 11 1 36 1 57 -2 31 -6 38 -33
47 -51 18 -77 13 -96 -15z"/>
</g>
</svg>
