<?xml version="1.0" standalone="no"?>
<!DOCTYPE svg PUBLIC "-//W3C//DTD SVG 20010904//EN"
 "http://www.w3.org/TR/2001/REC-SVG-20010904/DTD/svg10.dtd">
<svg version="1.0" xmlns="http://www.w3.org/2000/svg"
 width="1024.000000pt" height="1024.000000pt" viewBox="0 0 1024.000000 1024.000000"
 preserveAspectRatio="xMidYMid meet">
<metadata>
Created by potrace 1.16, written by Peter Selinger 2001-2019
</metadata>
<g transform="translate(0.000000,1024.000000) scale(0.100000,-0.100000)"
fill="#000000" stroke="none">
<path d="M2510 9920 c-25 -13 -47 -17 -76 -13 -37 5 -43 2 -69 -28 -43 -52
-65 -63 -137 -70 -55 -5 -78 -13 -120 -41 -29 -19 -71 -38 -93 -42 -54 -11
-87 -36 -156 -124 -42 -54 -59 -83 -59 -105 0 -24 -14 -44 -73 -101 -93 -92
-279 -304 -323 -370 -52 -79 -53 -103 -5 -160 50 -61 58 -98 66 -297 l6 -157
-31 -76 c-16 -42 -30 -85 -30 -95 0 -11 20 -71 45 -133 43 -110 143 -441 166
-549 7 -31 22 -62 36 -77 l25 -25 -38 -121 c-44 -138 -50 -218 -20 -275 18
-33 18 -36 -9 -147 l-28 -113 25 -58 c51 -116 55 -175 28 -357 -14 -93 -8
-120 29 -161 27 -28 29 -37 35 -150 14 -240 23 -341 34 -367 9 -22 7 -39 -8
-84 -11 -31 -20 -75 -20 -97 0 -32 -6 -46 -35 -73 -44 -41 -46 -73 -5 -97 16
-10 33 -30 37 -45 3 -15 17 -49 30 -77 12 -27 23 -63 23 -79 0 -17 10 -40 22
-53 21 -22 22 -32 19 -141 -2 -71 -8 -130 -17 -151 -21 -50 -18 -114 6 -136
13 -12 20 -31 20 -54 0 -20 9 -49 21 -66 19 -28 20 -43 18 -240 -2 -180 0
-214 14 -240 21 -38 21 -50 -2 -118 -13 -36 -18 -69 -14 -92 3 -20 -2 -69 -12
-111 -13 -57 -16 -90 -9 -137 4 -34 8 -107 8 -161 1 -92 3 -100 23 -109 20 -9
21 -15 16 -76 -5 -64 -4 -69 24 -102 26 -29 31 -44 35 -100 5 -91 50 -178 128
-255 33 -32 60 -65 60 -74 0 -8 11 -37 25 -63 31 -56 24 -78 -33 -105 -31 -14
-37 -23 -40 -52 -3 -48 7 -60 69 -75 30 -7 44 -13 33 -14 -41 -2 -64 -32 -70
-91 -9 -85 -13 -90 -37 -41 -25 50 -55 75 -76 62 -11 -7 -11 -21 4 -82 27
-114 45 -139 94 -139 22 0 178 -81 251 -131 94 -63 182 -100 276 -114 66 -10
99 -36 113 -88 24 -97 0 -231 -49 -278 -50 -48 -48 -64 13 -125 44 -44 60 -54
88 -54 19 0 113 -27 209 -61 171 -59 179 -61 335 -72 l160 -12 63 -42 c34 -23
77 -44 94 -48 85 -18 274 -77 289 -91 23 -21 87 -43 125 -44 17 0 61 -16 98
-35 75 -39 127 -44 195 -20 66 23 151 35 255 36 79 1 101 -2 122 -17 70 -50
80 -54 137 -54 38 0 59 -4 61 -12 16 -62 23 -74 51 -83 46 -15 51 -21 84 -90
16 -36 34 -65 40 -65 15 0 49 -81 57 -135 6 -43 13 -56 58 -98 28 -26 76 -60
106 -75 48 -23 68 -27 182 -30 177 -6 280 19 369 89 59 46 219 119 277 126 52
6 54 7 79 57 14 28 36 65 48 81 13 17 26 46 30 65 15 73 120 247 164 273 26
15 112 30 243 43 37 3 81 14 97 23 16 9 82 66 148 127 65 62 173 159 240 217
126 108 134 113 254 137 59 11 104 46 111 85 2 11 39 48 83 83 165 131 245
235 245 319 0 76 57 132 143 139 61 5 74 18 75 76 1 38 6 47 66 102 70 65 86
94 86 157 0 34 7 47 41 82 23 23 55 62 72 87 16 25 69 86 117 135 89 91 109
128 110 200 1 36 20 77 83 173 27 39 64 107 83 150 20 42 49 104 65 137 23 47
29 74 29 123 0 35 5 93 11 130 10 61 8 76 -15 165 -29 113 -31 117 -55 117
-32 0 -59 32 -100 115 -46 95 -54 103 -112 113 -43 7 -44 8 -49 52 -4 40 -8
45 -33 48 -16 2 -56 -10 -94 -27 -119 -56 -198 -37 -313 76 -41 41 -87 81
-101 88 -15 8 -36 30 -47 49 -19 32 -20 39 -7 69 16 40 11 50 -36 70 -20 8
-70 48 -111 88 -59 59 -77 84 -87 122 -17 61 -46 97 -76 97 -13 0 -73 -32
-134 -71 -144 -93 -181 -93 -241 0 -35 56 -90 110 -149 146 -25 15 -59 43 -76
61 -44 47 -77 57 -160 49 -89 -8 -97 0 -124 115 -29 120 -37 126 -162 122
-119 -3 -100 -14 -323 183 -81 72 -172 151 -203 177 -63 53 -183 108 -304 138
-44 11 -101 30 -127 43 -234 120 -229 116 -299 221 -25 39 -63 95 -82 125 -20
30 -73 88 -119 129 -50 46 -95 98 -114 131 -78 140 -107 197 -108 210 0 8 -56
68 -123 135 -149 145 -192 209 -229 335 -15 53 -41 115 -61 145 -18 28 -42 76
-52 106 -32 100 -71 174 -117 225 -25 28 -59 81 -75 120 -17 39 -49 98 -71
133 -49 75 -59 128 -42 215 17 94 -7 166 -90 259 -8 10 -26 50 -40 90 -23 66
-29 75 -84 113 -32 22 -58 44 -58 49 1 4 16 17 34 30 30 20 33 27 32 67 -3 66
-21 123 -50 155 -25 26 -26 31 -16 68 7 28 7 46 0 59 -12 23 -177 102 -233
112 -34 6 -59 27 -187 157 -82 83 -150 160 -153 172 -2 11 -6 30 -7 41 -2 11
-34 41 -75 70 -39 27 -102 74 -139 102 -38 29 -96 63 -129 76 -34 13 -93 47
-132 75 -39 29 -90 61 -114 72 -57 25 -142 26 -189 0z"/>
</g>
</svg>
