<?xml version="1.0" standalone="no"?>
<!DOCTYPE svg PUBLIC "-//W3C//DTD SVG 20010904//EN"
 "http://www.w3.org/TR/2001/REC-SVG-20010904/DTD/svg10.dtd">
<svg version="1.0" xmlns="http://www.w3.org/2000/svg"
 width="466.000000pt" height="404.000000pt" viewBox="0 0 466.000000 404.000000"
 preserveAspectRatio="xMidYMid meet">

<g transform="translate(0.000000,404.000000) scale(0.100000,-0.100000)"
fill="#000000" stroke="none">
<path d="M2382 4010 c-7 -11 -21 -20 -32 -20 -10 0 -27 -13 -37 -30 -9 -16
-25 -30 -34 -30 -11 0 -20 -11 -24 -30 -4 -16 -12 -30 -18 -30 -16 0 -67 -47
-68 -63 -1 -7 -1 -16 1 -22 1 -5 -1 -24 -5 -42 l-6 -33 -87 2 c-73 1 -91 5
-114 24 -27 22 -29 22 -68 7 -43 -17 -90 -64 -90 -89 0 -8 -4 -14 -9 -14 -5 0
-17 -7 -26 -16 -14 -14 -20 -15 -40 -4 -34 18 -45 5 -45 -51 0 -39 -5 -55 -23
-73 -21 -21 -23 -31 -19 -78 4 -50 2 -56 -23 -72 -38 -25 -18 -36 67 -35 101
1 111 -14 53 -75 -19 -21 -35 -46 -35 -57 0 -16 -7 -19 -50 -19 -27 0 -50 -4
-50 -9 0 -6 -13 -6 -32 0 -26 7 -35 6 -44 -6 -6 -8 -17 -15 -24 -15 -7 0 -10
-7 -6 -15 15 -40 -61 -125 -113 -125 -37 0 -81 -22 -81 -40 0 -10 -7 -20 -15
-24 -8 -3 -15 -11 -15 -19 0 -7 -5 -18 -12 -25 -8 -8 -11 -47 -10 -114 1 -95
0 -103 -23 -126 -14 -13 -27 -41 -30 -61 -4 -20 -16 -53 -27 -74 -11 -21 -18
-41 -15 -44 3 -3 22 -5 41 -5 20 0 36 -5 36 -11 0 -6 6 -18 14 -26 7 -9 16
-33 19 -53 5 -31 3 -38 -10 -38 -9 0 -24 -7 -33 -15 -13 -12 -23 -13 -44 -5
-34 13 -41 33 -22 63 15 22 15 26 -4 50 l-21 27 -39 -20 c-22 -11 -53 -20 -70
-20 -20 0 -30 -5 -30 -15 0 -8 -14 -30 -31 -50 -31 -35 -62 -45 -75 -24 -9 14
-62 4 -86 -17 -13 -12 -15 -21 -8 -35 18 -33 11 -64 -20 -87 -30 -22 -30 -22
-30 -2 0 12 -7 20 -16 20 -25 0 -82 -38 -89 -60 -10 -31 -53 -34 -94 -6 -38
27 -70 33 -87 17 -19 -18 -63 -22 -71 -6 -13 23 -73 9 -73 -16 0 -23 -18 -25
-27 -4 -3 11 -17 15 -42 14 -20 -1 -43 2 -52 5 -20 9 -33 -29 -18 -55 5 -10 9
-32 9 -48 0 -17 4 -39 9 -49 5 -9 14 -46 21 -82 16 -89 92 -323 107 -333 7 -4
13 -14 13 -20 0 -7 6 -19 13 -26 6 -6 13 -35 14 -64 1 -29 4 -114 7 -189 l6
-137 -48 -40 c-30 -27 -57 -41 -75 -41 -40 0 -79 -23 -123 -73 -54 -62 -114
-166 -114 -199 0 -24 5 -29 45 -39 25 -6 48 -15 51 -20 3 -5 14 -9 25 -9 11 0
22 -7 25 -15 3 -8 21 -23 39 -34 28 -16 35 -27 40 -64 4 -28 2 -53 -5 -67 -6
-12 -12 -46 -12 -76 -1 -44 -5 -57 -21 -65 -18 -10 -19 -19 -15 -95 4 -68 8
-87 24 -99 10 -8 21 -15 24 -15 9 0 -1 70 -11 76 -15 9 -10 23 12 34 13 7 40
9 70 5 43 -6 49 -10 44 -26 -10 -30 59 -26 90 6 14 13 25 28 25 33 0 5 18 17
40 27 39 17 58 45 45 65 -4 6 3 26 15 45 23 37 26 38 165 40 22 0 45 3 50 7 6
4 29 5 50 3 28 -2 52 4 81 21 44 26 112 32 132 12 17 -17 213 -22 223 -6 6 9
11 8 23 -1 11 -9 29 -11 55 -7 31 5 46 1 77 -21 25 -16 56 -27 87 -30 34 -3
57 -11 75 -28 28 -27 47 -31 57 -15 14 23 101 7 108 -19 5 -21 84 -38 101 -21
5 5 34 10 63 10 l53 0 0 -39 c0 -24 5 -41 14 -44 9 -4 12 -14 9 -27 -5 -20 -3
-21 51 -16 33 2 56 0 56 -5 0 -6 5 -7 10 -4 6 4 8 11 5 16 -4 5 3 9 14 9 11 0
23 -5 27 -11 3 -6 14 -9 24 -6 10 2 24 1 31 -4 11 -7 11 -13 -3 -37 -17 -28
-17 -30 1 -46 22 -20 31 -20 31 -2 0 7 7 19 15 26 8 7 15 25 15 41 0 41 20 47
46 14 21 -27 26 -28 61 -19 26 6 42 17 51 36 7 16 22 33 33 38 16 9 19 7 19
-12 0 -13 9 -29 20 -36 11 -7 20 -19 20 -27 0 -20 19 -19 42 1 15 15 23 15 63
4 35 -10 45 -17 45 -34 0 -37 12 -66 26 -66 8 0 14 -4 14 -10 0 -5 5 -10 10
-10 6 0 10 12 10 28 0 15 3 37 6 50 8 27 57 55 83 47 12 -4 30 5 51 25 18 16
35 30 39 30 4 0 13 -16 21 -35 8 -19 17 -35 22 -35 4 0 8 -15 8 -34 0 -18 7
-39 15 -46 8 -7 15 -23 15 -36 0 -23 23 -34 34 -15 3 4 17 6 31 3 21 -4 27 1
36 27 6 17 15 29 19 26 5 -3 21 6 36 20 36 34 54 32 54 -5 0 -26 4 -30 28 -30
15 0 34 6 40 13 7 6 23 13 35 14 12 1 46 4 75 7 47 5 55 3 83 -22 21 -19 32
-38 33 -60 2 -38 55 -92 91 -92 39 0 71 80 43 108 -7 7 -14 31 -15 54 -2 23
-8 45 -14 49 -16 9 -25 99 -10 99 6 0 11 6 11 14 0 8 7 16 15 20 8 3 15 12 15
21 0 31 44 108 69 120 12 5 21 18 21 27 0 10 11 25 25 34 15 9 27 30 31 50 3
19 9 34 13 34 3 1 25 4 47 9 33 6 46 4 65 -10 32 -25 56 -24 63 4 10 41 35 47
125 32 44 -8 87 -12 94 -9 21 8 9 64 -14 64 -14 0 -19 7 -19 27 0 17 -10 35
-25 48 -22 18 -24 24 -16 58 6 23 5 39 -1 43 -5 4 -7 21 -3 40 3 21 2 34 -4
34 -6 0 -8 7 -5 15 4 8 12 15 20 15 18 0 18 16 0 23 -7 3 -23 25 -34 48 -21
43 -21 43 -2 64 24 25 26 58 5 75 -8 7 -15 19 -15 26 0 8 -4 14 -9 14 -15 0
-64 57 -67 77 -2 9 -14 26 -28 36 -29 21 -34 37 -12 37 8 0 18 9 21 20 3 11
11 20 16 20 6 0 8 8 5 18 -4 10 1 33 10 51 15 30 19 32 51 26 20 -4 40 -2 48
5 20 16 95 -24 95 -51 0 -11 8 -22 18 -25 9 -3 26 -10 37 -14 57 -24 155 -16
155 12 0 4 9 8 20 8 13 0 24 10 30 25 6 15 17 25 29 25 13 0 26 15 40 45 15
31 27 45 41 45 11 0 20 4 20 9 0 5 15 12 33 15 25 5 32 11 32 28 1 13 4 35 8
51 6 23 4 27 -13 27 -11 0 -23 7 -26 15 -4 8 -10 12 -15 10 -4 -3 -17 2 -28
12 -10 10 -30 28 -44 40 -40 37 -42 92 -3 106 22 7 -5 37 -32 37 -16 0 -35 7
-42 15 -7 8 -21 15 -31 15 -11 0 -19 4 -19 9 0 5 -12 14 -27 20 -22 9 -41 8
-84 -3 -46 -12 -62 -13 -83 -3 -26 12 -33 35 -18 53 19 20 40 102 39 144 -2
40 -4 45 -24 43 -15 -2 -23 3 -23 13 0 12 -6 15 -21 11 -12 -3 -28 0 -36 9 -8
8 -22 14 -31 14 -9 0 -29 10 -43 23 -15 12 -42 34 -61 49 -27 21 -34 34 -35
65 -1 21 -9 52 -17 68 -9 17 -16 37 -16 46 0 8 -15 22 -32 30 -42 18 -45 36
-13 83 39 58 34 74 -22 78 -35 2 -48 7 -48 18 0 17 -33 47 -82 75 -36 21 -42
49 -18 81 8 10 15 29 15 42 0 15 6 22 19 22 26 0 48 27 33 42 -19 19 -14 30
11 26 16 -2 22 2 21 15 0 9 -1 34 -2 55 -1 23 -10 47 -22 60 -11 12 -20 27
-20 35 0 7 -11 24 -25 37 -31 29 -31 31 2 70 21 26 27 44 29 93 1 34 4 69 5
77 5 36 -2 58 -22 63 -12 3 -22 0 -26 -9 -9 -23 -41 -17 -45 9 -2 14 -9 21
-19 19 -12 -2 -21 10 -30 40 -10 31 -20 44 -39 48 -15 4 -26 15 -30 30 -4 18
-13 25 -31 26 -34 1 -75 20 -82 38 -8 21 -29 20 -58 -3 -24 -19 -25 -19 -48 0
-17 14 -27 16 -36 9 -7 -6 -20 -8 -29 -4 -11 4 -19 -1 -25 -18 -12 -31 -43
-58 -48 -41 -7 20 -65 -6 -98 -44 l-30 -34 -34 30 -34 30 12 58 c6 31 15 60
21 63 16 10 -1 50 -21 50 -10 0 -21 5 -24 10 -3 6 -19 10 -34 10 -16 0 -34 7
-41 15 -7 8 -28 15 -46 15 -38 0 -114 -27 -114 -41 0 -5 -14 -9 -30 -9 -23 0
-33 6 -40 24 -5 13 -14 27 -20 31 -6 4 -10 19 -8 33 3 27 2 27 -64 28 -57 1
-67 -2 -71 -18 -5 -19 -37 -26 -37 -8 0 6 -7 10 -15 10 -8 0 -15 6 -15 13 0
14 -44 57 -58 57 -4 0 -13 -9 -20 -20z"/>
</g>
</svg>
