<?xml version="1.0" standalone="no"?>
<!DOCTYPE svg PUBLIC "-//W3C//DTD SVG 20010904//EN"
 "http://www.w3.org/TR/2001/REC-SVG-20010904/DTD/svg10.dtd">
<svg version="1.0" xmlns="http://www.w3.org/2000/svg"
 width="752.000000pt" height="604.000000pt" viewBox="0 0 752.000000 604.000000"
 preserveAspectRatio="xMidYMid meet">
<metadata>
Created by potrace 1.16, written by Peter Selinger 2001-2019
</metadata>
<g transform="translate(0.000000,604.000000) scale(0.100000,-0.100000)"
fill="#000000" stroke="none">
<path d="M4165 5888 c-15 -18 -42 -65 -60 -104 -18 -39 -43 -79 -56 -88 -25
-17 -96 -20 -198 -8 l-55 7 -14 64 -14 64 -48 -6 c-78 -9 -230 -94 -230 -129
0 -10 20 -59 45 -108 25 -49 45 -91 45 -94 0 -2 -22 -9 -50 -16 -45 -11 -53
-10 -86 10 -32 21 -44 22 -116 16 -45 -4 -85 -9 -90 -12 -5 -4 -7 -17 -3 -31
4 -19 -6 -41 -49 -101 -110 -157 -199 -234 -303 -262 -31 -9 -65 -29 -95 -57
-35 -32 -55 -43 -80 -43 -18 0 -42 -7 -52 -15 -29 -22 -46 -18 -46 9 0 31 -17
43 -25 17 -9 -29 -59 -46 -103 -35 -37 9 -40 14 -56 94 -11 53 -25 60 -144 76
-78 10 -129 22 -162 39 -56 28 -76 31 -83 11 -3 -8 -29 -16 -62 -21 -52 -6
-56 -9 -52 -28 21 -86 20 -96 -8 -107 -14 -5 -52 -10 -83 -10 -55 0 -59 2
-115 55 -32 30 -65 71 -73 91 -13 32 -13 38 0 60 21 31 20 52 -4 107 l-20 46
-98 -47 c-53 -25 -124 -51 -157 -57 -95 -18 -299 -154 -645 -432 -79 -64 -279
-199 -422 -286 -35 -22 -79 -51 -97 -66 l-34 -28 22 -94 c36 -155 39 -165 66
-179 14 -7 37 -38 52 -68 l27 -55 -23 -43 c-15 -28 -21 -51 -17 -66 4 -13 13
-62 20 -110 18 -115 75 -210 101 -168 8 13 30 13 78 -1 37 -10 67 -48 161
-202 23 -37 74 -68 103 -61 14 4 33 -2 53 -16 17 -12 46 -23 63 -24 30 -1 34
3 62 60 17 34 36 69 44 79 24 27 148 85 184 85 18 0 50 9 72 20 69 35 85 29
135 -52 50 -79 80 -113 131 -143 45 -27 59 -66 36 -104 -25 -43 -21 -77 19
-142 31 -50 38 -73 46 -146 6 -49 16 -99 23 -113 8 -16 43 -40 91 -64 l79 -39
55 19 c33 11 71 34 94 56 42 41 66 47 86 23 10 -13 11 -24 1 -56 -7 -23 -11
-43 -8 -45 2 -2 22 2 45 10 22 8 70 14 106 14 55 -1 68 -5 80 -22 8 -12 23
-30 33 -41 54 -57 88 -169 71 -233 -12 -43 -6 -77 29 -154 23 -52 29 -59 52
-56 20 2 32 15 51 53 14 27 36 55 50 62 33 18 158 7 224 -19 58 -23 82 -19
188 29 l76 35 37 -41 c20 -22 56 -51 78 -63 32 -18 51 -39 77 -88 25 -46 41
-65 55 -65 17 0 20 6 18 38 -1 20 1 37 5 37 4 0 25 -10 47 -23 59 -33 59 -64
1 -132 -41 -48 -46 -58 -46 -103 0 -27 -7 -71 -15 -98 -16 -53 -19 -94 -7 -94
4 0 24 5 45 11 48 13 63 2 72 -51 4 -21 17 -53 31 -71 41 -56 32 -74 -59 -119
-64 -31 -81 -72 -53 -125 13 -23 16 -43 11 -64 -6 -30 -6 -31 28 -31 26 0 40
-7 54 -24 l18 -24 70 18 c94 25 133 24 243 -5 162 -43 199 -36 338 66 41 30
83 51 128 63 81 22 99 43 116 131 11 58 10 68 -4 84 -9 10 -16 26 -16 37 0 28
34 80 67 99 15 10 48 45 73 78 25 33 56 69 70 79 25 19 27 18 85 -3 77 -29 81
-33 56 -58 -15 -15 -21 -34 -21 -64 0 -39 -3 -43 -22 -43 -20 1 -23 -3 -20
-30 2 -19 -3 -36 -13 -44 -17 -14 -20 -51 -4 -67 8 -8 6 -24 -5 -57 -9 -26
-16 -58 -16 -71 0 -13 -10 -45 -22 -70 -21 -43 -21 -46 -5 -62 10 -10 36 -22
59 -28 32 -8 50 -21 76 -54 38 -50 39 -79 6 -162 -18 -45 -17 -47 5 -98 21
-49 21 -55 8 -96 l-15 -43 52 -6 c56 -7 76 -3 118 26 38 26 64 22 95 -13 34
-38 66 -55 129 -69 54 -12 99 -49 109 -89 9 -36 24 -51 50 -51 13 0 29 -10 38
-24 23 -34 141 -51 173 -25 11 9 118 -64 128 -88 3 -6 -2 -33 -10 -59 -20 -69
-13 -80 34 -53 27 16 46 20 65 15 44 -11 95 -64 129 -134 18 -37 40 -78 50
-91 18 -24 18 -25 -2 -46 -26 -27 -26 -27 10 -53 l30 -22 52 26 c29 15 65 35
80 45 35 25 53 24 92 -6 29 -22 34 -23 40 -9 3 8 6 26 6 38 0 12 7 32 16 45
17 23 20 23 115 17 l98 -7 13 28 c8 16 21 26 29 24 59 -15 98 -12 127 9 16 12
35 33 43 46 10 20 10 27 -6 44 -17 19 -16 22 24 103 22 45 41 90 41 99 0 18
-40 53 -70 63 -17 5 -17 8 -2 56 18 57 11 71 -46 86 -30 8 -37 17 -74 101
l-41 92 -37 0 c-35 0 -38 2 -44 37 -3 21 -6 68 -6 104 0 63 1 67 25 73 34 9
31 23 -11 48 -40 23 -39 17 -3 140 17 60 25 71 65 99 47 32 52 49 30 100 -5
11 5 31 30 60 31 38 35 48 31 82 -4 30 1 51 24 94 16 30 29 66 29 79 0 18 9
30 32 42 54 29 75 55 82 106 7 42 12 49 41 62 48 20 64 18 87 -11 22 -28 59
-33 78 -10 7 8 25 15 41 15 23 0 30 -5 34 -27 9 -42 20 -58 41 -58 17 0 19 7
16 57 l-2 57 40 11 c22 6 40 15 40 20 0 5 -9 32 -20 60 -11 28 -17 57 -13 63
27 46 82 98 113 108 69 21 80 30 80 67 0 42 26 99 49 107 9 3 31 1 50 -5 27
-7 41 -5 72 11 22 10 39 22 39 25 0 12 -63 93 -76 98 -7 3 -20 16 -29 30 -16
24 -16 30 5 98 27 88 28 115 5 131 -9 7 -29 35 -43 62 -26 47 -30 50 -77 57
-28 3 -73 7 -101 7 l-51 1 -48 70 -48 69 41 55 c23 30 50 57 60 60 16 5 68 93
60 101 -2 2 -38 8 -82 14 -91 13 -99 17 -93 43 4 14 -10 39 -48 83 -29 35 -56
72 -59 83 -10 31 -70 55 -121 48 l-42 -7 -6 39 c-6 37 -8 38 -65 50 -77 16
-98 15 -151 -5 -43 -17 -44 -17 -63 6 -18 23 -18 24 -77 7 -67 -19 -92 -13
-131 28 l-24 27 -31 -36 c-23 -28 -40 -38 -72 -42 l-42 -6 10 37 c15 55 -5
112 -57 163 -55 55 -57 84 -9 144 19 24 35 49 35 55 0 7 12 19 26 29 22 14 84
129 84 156 0 5 -14 9 -31 9 l-30 0 20 26 c37 47 63 133 56 185 -6 43 -4 49 24
78 24 24 31 41 31 70 0 33 4 40 25 45 24 6 36 26 16 26 -24 0 -22 41 3 71 14
17 26 36 26 43 0 19 -22 36 -47 36 -13 0 -31 9 -41 21 -36 44 -71 53 -192 54
-105 0 -119 2 -166 27 -58 31 -101 77 -109 116 -13 64 -23 79 -78 117 -42 28
-62 37 -71 30 -8 -6 -35 -28 -62 -50 -45 -38 -50 -40 -110 -37 -42 1 -77 -3
-101 -14 -21 -8 -73 -18 -117 -21 l-78 -6 7 60 c5 49 4 63 -10 76 -23 23 -59
31 -83 18 -34 -18 -82 -14 -82 7 0 30 -49 120 -80 145 -36 31 -49 57 -39 82
14 35 10 109 -9 145 -16 33 -87 84 -104 74 -4 -3 -15 -29 -24 -59 -13 -40 -35
-73 -82 -125 -35 -38 -67 -70 -72 -70 -5 0 -16 8 -26 18 -15 14 -37 17 -133
17 -113 0 -116 1 -119 23 -3 22 -2 23 47 16 l51 -7 -15 37 c-12 29 -13 45 -5
76 14 51 2 75 -47 95 -50 21 -58 19 -88 -17z"/>
</g>
</svg>
