<?xml version="1.0" standalone="no"?>
<!DOCTYPE svg PUBLIC "-//W3C//DTD SVG 20010904//EN"
 "http://www.w3.org/TR/2001/REC-SVG-20010904/DTD/svg10.dtd">
<svg version="1.0" xmlns="http://www.w3.org/2000/svg"
 width="566.000000pt" height="1024.000000pt" viewBox="0 0 566.000000 1024.000000"
 preserveAspectRatio="xMidYMid meet">

<g transform="translate(0.000000,1024.000000) scale(0.100000,-0.100000)"
fill="#000000" stroke="none">
<path d="M3320 10230 c0 -6 -15 -19 -32 -30 -26 -16 -51 -20 -123 -20 -49 -1
-102 -6 -116 -13 -24 -11 -74 -51 -179 -144 -61 -54 -87 -115 -99 -231 -6 -57
-17 -116 -26 -131 -8 -16 -43 -54 -79 -85 -74 -66 -83 -85 -96 -215 -6 -51
-16 -105 -23 -120 -7 -14 -36 -39 -67 -56 -144 -78 -187 -122 -220 -219 -11
-35 -29 -75 -39 -88 -32 -41 -50 -84 -65 -158 -21 -97 -37 -121 -141 -210 -86
-72 -93 -82 -150 -194 -67 -132 -108 -179 -196 -226 -65 -34 -92 -66 -87 -101
4 -28 -21 -37 -103 -38 -66 -1 -98 19 -129 79 -27 52 -71 87 -175 136 -49 23
-114 61 -144 83 -71 53 -108 64 -200 59 -193 -11 -372 -175 -402 -368 -4 -30
-13 -350 -19 -710 -31 -1896 -91 -3389 -195 -4830 -32 -446 -56 -834 -75
-1230 -25 -517 -37 -671 -60 -785 -49 -237 -35 -325 55 -345 53 -12 185 5 323
41 90 23 148 31 283 39 117 6 177 6 193 -1 13 -6 36 -30 51 -54 41 -65 86 -76
212 -53 l65 12 -6 40 c-25 160 -16 270 29 337 13 20 54 57 92 82 72 47 103 79
156 162 25 39 46 57 92 80 51 25 67 41 106 99 42 64 51 72 126 106 44 21 87
48 96 61 21 30 22 90 1 179 -18 81 -10 110 43 146 29 19 62 30 200 64 96 24
121 86 69 169 -14 22 -23 41 -19 41 18 0 166 -88 208 -123 25 -21 58 -61 74
-88 l28 -49 62 74 c34 42 80 106 103 143 22 37 80 109 128 158 99 102 111 122
141 232 25 92 43 127 77 145 57 30 107 104 176 263 79 178 95 205 114 182 7
-8 18 -31 25 -52 8 -22 18 -40 24 -42 14 -5 21 34 33 184 10 126 36 220 70
252 9 9 38 33 63 53 38 32 47 45 51 80 3 24 11 86 17 139 11 83 10 108 -4 179
-21 104 -10 137 59 178 25 15 64 42 85 61 56 48 55 94 -7 208 -76 139 -62 223
44 269 116 50 126 57 139 95 16 49 2 154 -38 292 -37 127 -58 161 -121 202
-177 114 -192 431 -53 1072 25 114 59 270 75 345 42 202 62 226 167 206 101
-19 159 25 123 93 -17 30 -108 93 -211 144 -122 61 -155 86 -170 132 -24 72
-11 270 17 259 8 -3 20 -9 28 -12 15 -6 91 118 150 248 41 87 52 145 66 338 6
80 15 171 21 204 22 122 85 264 174 391 64 91 75 118 75 181 0 49 6 67 39 123
47 78 133 324 161 460 11 53 25 178 32 278 10 153 10 199 -2 285 -17 116 -19
246 -7 329 l9 56 -125 -43 c-69 -23 -159 -61 -200 -83 -48 -27 -86 -41 -110
-41 -36 0 -37 1 -37 39 l0 40 -56 7 c-70 8 -158 0 -301 -30 -62 -13 -113 -21
-113 -19 0 3 10 23 22 44 12 21 19 41 16 44 -3 3 -31 -6 -63 -21 -71 -31 -148
-42 -170 -24 -23 19 -18 65 11 99 16 19 71 53 140 87 84 41 122 66 144 94 65
82 78 160 34 201 -24 22 -33 24 -117 22 -87 -2 -95 -1 -159 32 -70 37 -88 42
-88 25z"/>
<path d="M5289 8908 c-25 -17 -61 -52 -80 -78 -33 -44 -43 -72 -84 -222 -14
-53 -34 -86 -143 -243 -30 -43 -46 -79 -55 -126 -8 -37 -31 -101 -51 -142 -21
-42 -40 -95 -43 -119 -10 -78 -25 -94 -133 -146 -55 -26 -100 -50 -100 -53 0
-12 45 -19 130 -19 116 0 141 14 210 117 30 45 71 101 91 125 70 82 88 120
150 306 34 103 73 209 87 237 14 29 59 83 108 131 80 77 84 84 84 125 0 38 -5
48 -50 91 -27 26 -56 48 -63 48 -7 0 -33 -14 -58 -32z"/>
<path d="M5032 8767 c-26 -27 -32 -41 -32 -76 l0 -43 33 6 c44 9 60 32 52 80
-10 66 -17 70 -53 33z"/>
<path d="M4893 8647 c-30 -34 -53 -74 -53 -93 0 -13 6 -15 33 -10 39 7 67 39
67 76 0 42 -22 55 -47 27z"/>
<path d="M4671 7376 c-35 -106 -38 -147 -15 -170 18 -19 17 -19 48 -5 36 17
50 59 43 132 -7 71 -24 137 -36 137 -5 0 -23 -42 -40 -94z"/>
<path d="M4380 7195 c-7 -9 -56 -48 -109 -87 -53 -39 -109 -83 -125 -97 -38
-35 -87 -102 -81 -111 15 -23 148 39 252 117 118 89 147 138 105 176 -23 21
-26 21 -42 2z"/>
<path d="M4433 6853 c-7 -2 -13 -20 -13 -40 0 -59 88 -125 106 -78 9 23 -15
83 -43 105 -27 21 -30 22 -50 13z"/>
<path d="M5470 6468 c-24 -9 -25 -20 -5 -84 23 -78 20 -112 -16 -145 -29 -27
-83 -49 -121 -49 -9 0 -26 12 -38 28 -19 22 -24 25 -32 12 -5 -8 -38 -62 -74
-120 -119 -192 -142 -255 -180 -476 -34 -202 -30 -287 16 -426 34 -103 52
-120 71 -70 8 19 8 48 0 102 -6 41 -11 95 -11 120 0 75 30 248 65 370 18 63
36 131 40 150 12 55 41 105 70 118 14 7 55 12 90 12 80 0 107 20 163 123 22
39 59 90 81 111 25 25 43 53 47 73 7 38 -17 112 -44 136 -19 17 -92 26 -122
15z"/>
<path d="M4376 6399 c-49 -39 -24 -109 52 -148 86 -43 152 -32 138 22 -8 35
-118 147 -144 147 -10 0 -31 -9 -46 -21z"/>
<path d="M5418 5828 c-3 -196 -1 -219 16 -236 20 -20 71 -6 97 26 27 35 22 93
-15 146 -22 33 -26 47 -20 82 3 25 1 51 -6 65 -15 30 -51 69 -62 69 -4 0 -9
-69 -10 -152z"/>
<path d="M4523 5963 c-14 -5 -17 -43 -7 -79 3 -11 18 -28 34 -38 28 -16 29
-16 45 8 18 27 11 51 -28 94 -21 23 -24 24 -44 15z"/>
<path d="M4494 5542 c-25 -16 -35 -53 -28 -102 13 -95 69 -46 62 55 -3 48 -13
62 -34 47z"/>
<path d="M5327 5494 c-19 -10 -27 -21 -23 -31 3 -8 6 -19 6 -23 0 -19 45 -50
71 -50 19 0 28 6 33 23 22 83 -16 119 -87 81z"/>
<path d="M5212 5272 c-10 -7 -10 -20 -1 -63 15 -72 25 -89 53 -89 31 0 47 20
53 69 8 56 -16 91 -60 91 -17 0 -38 -4 -45 -8z"/>
<path d="M4626 4691 c-35 -36 -31 -65 8 -69 41 -5 85 16 92 44 14 57 -54 73
-100 25z"/>
</g>
</svg>
