<?xml version="1.0" standalone="no"?>
<!DOCTYPE svg PUBLIC "-//W3C//DTD SVG 20010904//EN"
 "http://www.w3.org/TR/2001/REC-SVG-20010904/DTD/svg10.dtd">
<svg version="1.0" xmlns="http://www.w3.org/2000/svg"
 width="768.000000pt" height="1024.000000pt" viewBox="0 0 768.000000 1024.000000"
 preserveAspectRatio="xMidYMid meet">
<metadata>
Created by potrace 1.16, written by Peter Selinger 2001-2019
</metadata>
<g transform="translate(0.000000,1024.000000) scale(0.100000,-0.100000)"
fill="#000000" stroke="none">
<path d="M4547 9974 c-21 -14 -63 -29 -94 -34 -60 -10 -93 -32 -93 -61 0 -37
-47 -53 -164 -59 -92 -5 -120 -11 -166 -33 -30 -14 -74 -29 -98 -33 -61 -10
-76 -35 -67 -116 16 -155 26 -187 66 -234 22 -25 39 -48 39 -52 -1 -4 -19 -20
-41 -35 -35 -24 -40 -32 -35 -55 24 -104 21 -122 -29 -182 -19 -23 -38 -54
-41 -69 -4 -14 -15 -35 -25 -47 -11 -11 -19 -33 -20 -50 -3 -71 -9 -84 -57
-108 -26 -14 -67 -45 -92 -71 -25 -26 -73 -67 -107 -92 -60 -43 -143 -127
-143 -144 0 -14 -63 -26 -100 -19 -19 4 -65 16 -102 26 -64 17 -70 17 -121 1
-30 -9 -76 -17 -104 -17 -27 0 -76 -9 -108 -20 -79 -27 -99 -25 -133 11 -25
27 -39 32 -98 38 -110 12 -161 3 -184 -29 -11 -16 -39 -38 -63 -49 -46 -23
-71 -56 -81 -112 -5 -28 -12 -38 -31 -43 -13 -3 -27 -15 -30 -26 -6 -18 -15
-20 -91 -20 l-85 0 -15 -37 c-14 -33 -14 -40 0 -70 9 -19 16 -35 16 -38 0 -13
-35 -35 -55 -35 -36 0 -73 -20 -79 -43 -6 -24 14 -77 37 -96 44 -36 0 -38
-110 -4 -61 19 -83 9 -83 -39 0 -40 -15 -65 -43 -72 -19 -4 -29 -21 -51 -84
-14 -42 -26 -95 -26 -116 0 -46 -41 -122 -106 -198 -33 -39 -44 -60 -44 -85 0
-19 -7 -50 -15 -70 -21 -50 -19 -100 6 -140 l21 -34 -26 -37 c-30 -44 -42
-110 -31 -178 6 -42 16 -58 78 -122 42 -43 103 -92 148 -119 41 -24 108 -73
147 -109 101 -89 179 -140 245 -159 31 -9 78 -33 104 -54 27 -20 74 -54 106
-74 31 -20 57 -38 57 -41 0 -2 4 -27 10 -55 6 -33 6 -85 0 -142 -7 -71 -6 -96
6 -124 20 -48 18 -108 -7 -201 -26 -100 -22 -165 13 -218 24 -35 26 -44 21
-110 -3 -40 0 -89 6 -113 14 -52 74 -128 130 -168 24 -16 60 -54 81 -85 21
-31 46 -62 55 -70 10 -8 29 -33 44 -55 24 -38 26 -48 31 -220 4 -99 11 -191
17 -205 18 -42 26 -294 12 -364 -14 -73 -9 -103 27 -145 25 -31 25 -31 7 -58
-46 -68 -54 -124 -27 -189 14 -33 15 -48 5 -99 -6 -33 -11 -159 -12 -280 0
-121 -1 -245 -1 -275 0 -30 6 -111 13 -180 7 -69 13 -206 14 -305 1 -110 6
-194 13 -215 16 -47 15 -200 -3 -280 -8 -36 -15 -108 -16 -160 -1 -52 -4 -129
-8 -170 l-6 -74 -44 -13 c-68 -19 -74 -29 -68 -95 4 -42 14 -72 36 -107 29
-45 31 -53 31 -145 0 -83 -3 -102 -20 -123 -25 -33 -25 -63 0 -96 11 -14 29
-55 40 -91 20 -64 52 -101 102 -119 9 -3 24 -20 33 -37 9 -18 32 -46 51 -62
19 -17 37 -42 40 -57 4 -14 13 -47 21 -73 26 -81 20 -90 -71 -104 -95 -15
-160 -52 -189 -107 -25 -49 -12 -82 46 -118 61 -38 117 -44 174 -19 25 11 72
24 105 30 32 5 74 18 92 29 61 38 541 112 876 136 191 13 460 50 505 69 21 9
39 26 46 43 6 15 20 47 32 70 20 40 20 47 8 157 -16 147 -11 172 50 241 33 38
49 65 49 83 0 34 -32 105 -68 152 -24 31 -27 45 -30 120 -1 47 -7 101 -13 121
-11 35 -10 38 30 78 34 34 41 48 41 79 0 25 -7 43 -20 55 -18 15 -20 29 -19
129 0 62 4 171 8 242 6 123 8 129 33 150 33 26 45 84 29 142 -8 28 -26 55 -60
85 -57 52 -68 84 -53 148 6 25 14 85 17 132 8 101 -5 143 -62 201 l-35 36 27
56 c27 54 27 57 14 121 -12 62 -11 75 16 209 l29 143 -22 65 c-27 79 -27 99
-2 198 35 139 51 482 26 575 -7 28 -11 55 -10 60 2 6 8 51 14 100 17 154 28
217 37 226 21 21 148 38 233 32 99 -7 119 0 191 68 30 28 51 58 57 82 7 24 32
61 63 94 l51 54 -5 57 c-10 105 -28 187 -47 214 -11 15 -20 33 -20 39 0 7 22
36 50 65 47 49 62 75 90 151 8 22 28 41 59 59 62 36 90 63 107 103 16 39 19
107 4 116 -14 9 -12 48 3 69 8 11 40 23 87 32 103 19 174 57 248 130 72 72 92
112 92 184 0 53 19 104 43 113 22 8 47 71 47 117 0 57 -19 88 -95 158 l-67 61
20 43 c45 102 105 139 193 118 88 -21 115 1 138 118 6 29 20 73 31 97 50 110
51 218 2 261 -15 13 -44 39 -64 58 -20 18 -49 41 -64 50 -28 19 -29 25 -9 236
6 60 4 70 -24 122 -26 48 -31 69 -31 126 0 75 -13 102 -57 121 -28 12 -46 34
-161 194 -143 198 -166 267 -117 340 35 50 115 254 115 291 0 24 -13 42 -71
95 -39 36 -80 83 -90 104 -22 42 -133 119 -209 145 -52 17 -122 77 -167 142
-17 26 -54 64 -82 85 -32 25 -61 59 -81 96 -24 45 -47 70 -101 109 -39 29 -90
72 -113 96 -22 24 -56 52 -75 62 -23 12 -37 28 -45 52 -9 29 -22 41 -75 68
-35 17 -71 32 -80 32 -9 0 -33 -12 -54 -26z"/>
</g>
</svg>
