<?xml version="1.0" standalone="no"?>
<!DOCTYPE svg PUBLIC "-//W3C//DTD SVG 20010904//EN"
 "http://www.w3.org/TR/2001/REC-SVG-20010904/DTD/svg10.dtd">
<svg version="1.0" xmlns="http://www.w3.org/2000/svg"
 width="1024.000000pt" height="1024.000000pt" viewBox="0 0 1024.000000 1024.000000"
 preserveAspectRatio="xMidYMid meet">
<metadata>
Created by potrace 1.16, written by Peter Selinger 2001-2019
</metadata>
<g transform="translate(0.000000,1024.000000) scale(0.100000,-0.100000)"
fill="#000000" stroke="none">
<path d="M3637 7070 c-21 -22 -26 -35 -21 -54 3 -13 1 -34 -6 -46 -9 -17 -17
-20 -42 -15 -23 5 -35 2 -53 -15 -21 -20 -26 -20 -64 -9 -35 10 -44 10 -58 -3
-12 -10 -38 -16 -75 -16 -77 0 -92 -7 -106 -45 -15 -40 -56 -87 -76 -87 -9 0
-22 -16 -30 -35 -14 -32 -19 -35 -55 -35 -37 0 -42 -3 -61 -40 -11 -22 -34
-55 -51 -75 -18 -21 -29 -41 -25 -50 3 -9 -3 -23 -14 -32 -15 -13 -20 -30 -20
-68 0 -48 -2 -52 -54 -98 -37 -33 -61 -64 -75 -101 -16 -38 -37 -65 -78 -99
-47 -40 -61 -47 -99 -47 -34 0 -51 -6 -78 -30 -19 -17 -36 -41 -38 -53 -2 -13
-15 -27 -35 -36 -39 -17 -68 -85 -65 -154 2 -45 0 -48 -32 -63 -35 -17 -66
-67 -66 -108 0 -18 -13 -32 -48 -55 -39 -24 -53 -42 -72 -87 l-23 -56 -58 6
c-95 11 -143 -26 -132 -102 6 -36 -10 -62 -37 -62 -25 0 -30 -20 -14 -52 12
-23 12 -29 -1 -42 -8 -8 -24 -18 -35 -21 -22 -7 -23 -14 -11 -67 7 -31 5 -40
-10 -54 -12 -11 -19 -31 -19 -54 0 -20 -5 -41 -12 -48 -9 -9 -9 -21 0 -50 7
-22 12 -50 12 -64 0 -14 9 -33 20 -43 28 -25 22 -65 -11 -84 -23 -13 -28 -12
-67 14 l-43 28 -27 -20 c-21 -16 -28 -31 -32 -69 -6 -58 -28 -73 -112 -78 -51
-3 -115 -27 -130 -50 -4 -6 -8 -23 -8 -38 0 -47 -36 -117 -65 -124 -20 -5 -25
-12 -25 -39 0 -19 -5 -37 -10 -40 -34 -21 18 -51 82 -47 15 1 31 -4 35 -11 12
-21 53 -40 98 -46 39 -6 40 -7 53 -61 10 -44 10 -75 1 -153 -11 -92 -6 -187 9
-187 4 0 27 18 51 40 25 22 47 40 51 40 22 0 49 -49 52 -94 3 -48 4 -50 46
-65 39 -14 45 -14 71 2 49 29 120 3 121 -44 0 -11 12 -18 41 -22 49 -6 50 -7
55 -49 15 -126 15 -128 50 -154 31 -24 36 -25 84 -15 36 8 57 8 71 0 14 -7 30
-7 54 1 20 7 53 8 80 5 42 -7 49 -5 101 35 33 25 61 39 71 36 8 -3 42 1 75 10
58 14 61 14 82 -4 26 -24 62 -36 98 -33 21 2 30 -4 44 -31 9 -18 22 -37 28
-41 6 -4 57 -5 114 -1 91 5 106 4 123 -12 11 -10 57 -32 102 -48 93 -35 106
-55 62 -96 -33 -31 -32 -58 1 -71 28 -10 64 -4 64 11 0 5 11 17 25 26 23 15
27 15 68 -5 30 -14 53 -19 74 -15 27 5 33 2 53 -31 17 -27 27 -34 39 -28 9 4
54 8 101 9 72 1 87 4 95 20 23 43 24 44 63 30 29 -11 72 -11 200 -4 148 9 179
14 330 57 178 49 189 56 162 106 -10 18 -10 31 0 61 16 51 23 58 78 90 42 23
54 25 117 20 66 -6 73 -4 117 23 34 22 47 37 50 58 2 23 9 29 43 36 78 17 131
-5 268 -109 114 -87 133 -97 222 -123 53 -16 105 -37 116 -47 14 -12 29 -15
59 -11 31 4 46 0 66 -16 31 -24 28 -24 359 2 305 24 273 22 392 24 l102 2 43
41 43 42 165 -5 c158 -4 169 -6 264 -40 141 -50 191 -39 244 57 15 27 32 50
37 50 6 0 36 -16 68 -35 125 -75 129 -76 253 -56 60 9 123 25 141 34 38 20 73
21 132 3 64 -18 117 -4 225 61 126 76 153 98 176 143 27 53 47 70 81 70 38 0
209 -86 209 -105 0 -25 43 -43 119 -48 59 -4 83 -1 118 15 24 11 47 27 50 36
2 9 9 26 14 37 4 11 10 64 12 117 3 74 1 100 -9 109 -8 6 -14 20 -14 31 0 11
-14 33 -30 48 -18 17 -30 38 -30 54 0 20 -9 30 -39 45 -35 18 -42 28 -63 93
-18 54 -23 81 -16 103 4 17 5 50 2 75 -5 41 -3 47 18 58 14 8 32 36 47 75 l24
62 -26 46 c-25 45 -25 48 -8 63 20 18 52 21 68 5 15 -15 67 -7 71 12 2 9 -22
36 -56 65 -33 27 -72 68 -86 91 -25 38 -26 48 -20 102 5 46 3 64 -10 82 -9 13
-16 33 -16 46 0 13 -8 24 -19 28 -13 4 -22 19 -26 45 -4 22 -10 42 -14 44 -4
3 -38 -5 -76 -16 -66 -20 -69 -20 -101 -3 -24 13 -47 16 -85 13 -42 -4 -54 -2
-67 13 -22 25 -42 24 -69 -5 -16 -16 -30 -22 -48 -18 -14 2 -39 -1 -56 -8 -22
-10 -35 -10 -52 -2 -12 6 -42 13 -67 14 -41 3 -45 5 -50 33 -7 41 -43 48 -97
17 l-42 -23 -16 24 c-8 13 -26 29 -39 35 -13 6 -27 23 -31 39 -9 37 -23 53
-46 53 -11 0 -30 17 -45 42 -24 38 -25 44 -13 80 11 34 10 43 -4 68 -18 29
-15 73 6 100 7 8 35 34 63 57 49 40 52 46 68 123 15 70 16 90 6 143 -16 79
-45 106 -95 89 -46 -17 -49 -16 -69 25 -16 33 -16 37 -2 45 9 5 16 16 16 24 0
12 7 14 30 9 20 -4 30 -3 30 5 0 7 7 10 15 7 17 -7 20 -3 30 41 5 27 4 32 -11
32 -10 0 -28 10 -40 21 -22 21 -25 21 -62 6 -44 -18 -52 -15 -52 19 0 18 -15
31 -70 60 -48 25 -70 42 -70 55 0 10 -16 43 -34 73 -30 46 -38 53 -60 49 -19
-4 -26 -1 -26 10 0 8 -12 18 -27 21 -16 4 -52 23 -80 42 -29 19 -64 34 -77 34
-16 0 -27 7 -31 20 -4 14 -15 20 -36 20 -27 0 -29 -3 -29 -39 0 -33 -4 -40
-22 -43 -17 -2 -25 -14 -35 -48 -8 -30 -25 -56 -50 -77 l-37 -31 -32 25 c-20
15 -40 22 -51 19 -10 -3 -81 5 -157 18 -103 18 -143 22 -156 14 -13 -9 -25 -5
-56 16 -49 33 -109 36 -117 6 -8 -32 -40 -23 -87 25 -46 47 -69 55 -90 30 -16
-19 -50 -20 -50 -1 0 23 -30 29 -174 31 -138 2 -139 2 -216 40 l-77 38 -61
-42 c-35 -23 -73 -41 -88 -41 -16 0 -39 -11 -55 -26 l-28 -27 -33 35 c-22 23
-53 42 -90 54 -58 18 -58 18 -81 -4 -31 -29 -92 -30 -115 -2 -17 20 -54 25
-127 18 -27 -3 -31 0 -39 35 -7 28 -31 58 -92 117 -46 44 -90 80 -99 80 -9 0
-26 -6 -38 -14 -15 -9 -41 -12 -84 -9 -57 5 -66 9 -97 43 -18 20 -35 42 -37
49 -2 6 -28 12 -59 14 -53 2 -55 1 -58 -25 -5 -39 -49 -68 -106 -68 -33 0 -52
-6 -67 -21 -25 -25 -40 -21 -57 17 -8 16 -35 43 -60 59 -42 27 -56 30 -132 32
-47 1 -88 2 -92 2 -4 1 -21 21 -39 46 -23 32 -39 45 -56 45 -13 0 -46 11 -73
25 -27 14 -51 25 -52 25 -2 -1 -16 -14 -31 -30z"/>
</g>
</svg>
