<?xml version="1.0" standalone="no"?>
<!DOCTYPE svg PUBLIC "-//W3C//DTD SVG 20010904//EN"
 "http://www.w3.org/TR/2001/REC-SVG-20010904/DTD/svg10.dtd">
<svg version="1.0" xmlns="http://www.w3.org/2000/svg"
 width="572.000000pt" height="620.000000pt" viewBox="0 0 572.000000 620.000000"
 preserveAspectRatio="xMidYMid meet">
<metadata>
Created by potrace 1.16, written by Peter Selinger 2001-2019
</metadata>
<g transform="translate(0.000000,620.000000) scale(0.100000,-0.100000)"
fill="#000000" stroke="none">
<path d="M1805 5978 c-13 -20 -24 -23 -88 -23 -52 -1 -103 -10 -182 -34 -177
-53 -242 -94 -334 -208 -32 -40 -55 -57 -93 -70 -47 -17 -96 -61 -175 -157
-18 -22 -29 -26 -75 -26 -63 0 -85 -16 -122 -88 -29 -57 -53 -80 -130 -121
-70 -37 -71 -37 -103 -11 -23 18 -41 20 -164 20 -130 0 -139 -1 -150 -21 -9
-18 -6 -27 23 -62 91 -113 290 -387 330 -455 70 -118 71 -157 8 -229 -41 -46
-43 -63 -25 -180 18 -124 19 -166 3 -209 -9 -25 -9 -39 -1 -56 7 -13 21 -43
32 -68 11 -25 29 -59 41 -77 l21 -31 -26 -28 c-14 -15 -25 -37 -25 -49 0 -13
-18 -47 -40 -76 -23 -30 -43 -65 -46 -79 -3 -14 -12 -37 -20 -52 -8 -14 -14
-44 -14 -67 0 -35 6 -46 47 -85 l47 -45 -33 -64 c-51 -100 -50 -125 3 -239 51
-108 78 -134 126 -124 34 6 76 -9 85 -32 3 -8 -3 -25 -13 -36 -30 -32 -42 -61
-42 -99 0 -23 -8 -41 -26 -58 -14 -13 -44 -57 -67 -98 -22 -40 -55 -89 -74
-107 -40 -40 -41 -53 -8 -84 14 -13 32 -45 39 -70 8 -26 34 -76 59 -112 24
-36 46 -70 48 -74 2 -5 18 -17 34 -26 17 -9 34 -29 39 -45 5 -15 32 -98 62
-183 29 -85 55 -165 59 -178 7 -24 96 -94 170 -133 25 -13 47 -31 51 -39 3 -8
-11 -47 -32 -86 l-38 -72 32 -36 c18 -20 32 -42 32 -48 0 -6 -18 -28 -40 -48
-40 -37 -40 -37 -26 -72 9 -21 12 -50 9 -76 -5 -41 -5 -41 43 -64 l49 -23 1
-65 c1 -50 4 -66 19 -74 112 -66 145 -108 166 -206 6 -30 27 -85 45 -122 19
-37 34 -77 34 -88 0 -11 14 -45 31 -75 33 -59 79 -210 79 -261 0 -18 9 -42 19
-55 17 -21 27 -24 79 -22 121 3 208 50 250 133 12 25 39 61 61 81 25 23 40 48
45 71 8 42 16 50 76 75 25 10 55 25 68 34 25 18 52 77 52 114 0 14 6 28 14 31
16 6 80 -24 151 -73 40 -28 56 -34 84 -29 19 3 93 13 165 22 122 16 135 16
187 1 75 -22 148 -88 179 -159 22 -52 56 -98 71 -98 5 0 11 17 14 38 4 20 11
53 17 72 15 52 88 234 97 243 5 5 105 20 222 34 l213 25 31 -37 c23 -27 38
-36 55 -33 22 3 26 16 67 218 46 224 56 336 40 455 l-8 60 65 129 c45 89 71
153 83 208 12 58 23 84 37 93 12 8 95 34 186 59 222 61 209 57 344 110 144 57
217 72 401 80 137 6 142 5 220 -23 250 -91 302 -112 316 -130 9 -11 19 -37 23
-58 9 -55 19 -67 50 -59 31 8 66 40 66 60 0 8 -20 27 -44 42 -25 16 -47 36
-49 44 -5 19 68 249 102 323 18 38 20 54 13 76 -10 29 18 224 38 262 16 29 11
65 -12 94 -13 16 -48 78 -78 139 l-55 111 -60 6 c-69 6 -91 17 -147 67 -49 45
-78 99 -93 178 -10 52 -10 68 3 100 8 22 16 64 16 94 1 64 17 59 -154 41 -58
-6 -195 -17 -305 -26 -110 -9 -217 -18 -237 -21 -56 -8 -82 23 -98 117 -30
188 -44 222 -121 298 -57 55 -57 61 4 81 l37 12 0 56 c-1 79 -16 137 -49 186
-59 86 -74 126 -72 198 1 60 -2 72 -22 92 -13 13 -50 31 -83 41 -32 9 -88 33
-123 53 l-64 36 -66 -13 c-36 -7 -106 -17 -155 -21 l-88 -9 -54 39 c-29 22
-65 56 -80 75 -25 34 -29 35 -70 29 -30 -4 -66 0 -121 16 -141 39 -165 51
-215 103 -45 47 -48 49 -79 38 -50 -17 -65 -14 -136 29 -75 45 -103 49 -151
20 -25 -15 -50 -20 -105 -20 -103 0 -140 13 -159 54 -13 25 -36 44 -100 79
-47 25 -95 47 -109 49 -16 2 -30 15 -41 38 -10 19 -35 55 -58 80 -117 131
-132 164 -123 268 5 60 2 74 -22 121 -38 77 -44 149 -16 210 22 46 22 49 7
101 -9 30 -16 71 -16 92 0 25 -7 45 -20 58 -26 26 -45 25 -65 -2z"/>
</g>
</svg>
