<?xml version="1.0" standalone="no"?>
<!DOCTYPE svg PUBLIC "-//W3C//DTD SVG 20010904//EN"
 "http://www.w3.org/TR/2001/REC-SVG-20010904/DTD/svg10.dtd">
<svg version="1.0" xmlns="http://www.w3.org/2000/svg"
 width="1024.000000pt" height="979.000000pt" viewBox="0 0 1024.000000 979.000000"
 preserveAspectRatio="xMidYMid meet">
<metadata>
Created by potrace 1.16, written by Peter Selinger 2001-2019
</metadata>
<g transform="translate(0.000000,979.000000) scale(0.100000,-0.100000)"
fill="#000000" stroke="none">
<path d="M3140 9782 c-57 -8 -101 -24 -131 -49 l-32 -27 7 -87 c9 -115 5 -118
-107 -94 -52 12 -128 19 -207 20 -119 2 -129 3 -195 34 -243 113 -285 101
-444 -131 -29 -43 -87 -108 -129 -145 -79 -71 -111 -124 -112 -181 0 -47 -20
-119 -36 -133 -8 -6 -14 -28 -14 -48 0 -75 -43 -98 -228 -122 -149 -19 -195 3
-292 146 -49 72 -85 109 -183 182 -75 57 -97 101 -97 197 0 65 -3 78 -25 104
-29 34 -82 62 -118 62 -23 0 -26 5 -41 87 -17 94 -37 135 -77 165 -25 19 -30
19 -160 3 -82 -10 -150 -23 -174 -35 -22 -11 -73 -52 -112 -92 l-73 -73 30
-75 c35 -88 36 -97 12 -123 -13 -14 -19 -44 -23 -121 -4 -55 -10 -113 -14
-128 -6 -24 0 -35 53 -90 105 -111 109 -143 26 -226 l-55 -57 3 -70 3 -70 -97
-3 c-120 -3 -119 -2 -47 -139 48 -92 51 -101 47 -159 -3 -48 -10 -70 -31 -97
-15 -20 -27 -46 -27 -59 0 -13 35 -75 78 -138 l77 -115 45 2 c257 15 371 14
394 0 13 -9 48 -66 80 -132 53 -108 65 -125 157 -216 55 -54 104 -110 109
-124 6 -15 10 -53 10 -86 0 -66 7 -77 93 -142 32 -24 37 -34 37 -67 0 -22 -13
-72 -29 -112 -53 -137 -51 -159 26 -223 63 -53 77 -89 58 -152 -8 -26 -15 -51
-15 -54 0 -4 30 -16 68 -28 37 -12 77 -30 89 -40 48 -40 38 -96 -28 -168 l-40
-43 7 -93 c15 -222 27 -251 183 -447 148 -185 187 -210 331 -210 104 0 125
-15 116 -82 -7 -54 14 -118 51 -151 11 -9 59 -27 107 -38 109 -27 131 -44 151
-117 32 -114 46 -141 97 -187 39 -35 69 -51 132 -71 129 -40 167 -90 187 -246
25 -206 62 -258 281 -401 159 -103 184 -136 258 -332 30 -78 43 -98 100 -155
103 -103 450 -414 478 -429 39 -21 91 -17 147 11 69 35 99 40 147 28 54 -15
132 -89 154 -146 24 -63 5 -123 -65 -209 -58 -71 -60 -130 -4 -137 25 -3 28
-9 54 -118 45 -190 95 -353 111 -364 24 -15 48 1 65 44 18 46 28 48 83 20 82
-42 104 -81 114 -210 4 -42 14 -87 24 -105 17 -29 21 -30 103 -35 46 -3 91
-10 100 -15 36 -21 396 -358 412 -385 19 -31 95 -239 104 -281 5 -25 1 -28
-59 -47 -99 -32 -161 -42 -263 -42 -52 0 -95 -4 -95 -8 0 -5 58 -36 129 -71
l129 -63 66 7 c62 7 72 5 137 -25 60 -27 78 -31 117 -26 144 19 162 19 183 0
29 -27 44 -58 64 -142 19 -79 39 -103 124 -147 51 -26 97 -71 158 -155 76
-104 83 -107 175 -85 31 8 47 -3 203 -138 49 -43 132 -108 183 -144 99 -70
172 -144 202 -203 10 -20 26 -43 35 -50 22 -18 80 -14 172 11 91 25 114 21
201 -38 80 -54 121 -73 160 -73 49 0 114 29 186 81 l68 51 -28 29 c-33 34 -30
38 46 70 30 12 60 27 66 33 9 8 8 39 -2 121 -26 211 -38 235 -164 320 -87 59
-107 84 -116 143 -4 26 -15 76 -25 112 -11 36 -19 73 -19 82 0 10 25 41 56 70
l56 53 -7 55 c-12 103 -11 112 37 185 25 39 60 94 77 122 52 83 85 106 180
127 66 14 91 24 114 47 29 29 29 32 24 102 -4 40 -9 95 -13 123 -5 40 -2 61
15 100 18 39 21 60 16 104 -5 51 -3 61 39 145 43 84 46 95 46 168 0 77 1 80
32 105 18 15 80 72 138 128 122 117 155 141 216 160 86 26 141 -8 209 -130 60
-107 109 -136 233 -136 79 0 99 10 124 66 25 57 18 90 -31 146 -52 59 -61 79
-61 136 0 83 -54 235 -97 275 -11 9 -53 24 -93 31 -92 18 -108 32 -93 86 l10
40 -63 0 c-35 0 -64 4 -64 8 0 5 17 33 38 63 31 45 52 62 127 101 49 26 90 47
91 45 1 -1 12 -35 23 -74 12 -40 24 -73 27 -73 4 0 33 7 67 16 54 14 64 14
108 0 70 -23 78 -21 100 30 11 25 27 48 35 51 7 3 35 -2 61 -11 50 -17 263
-23 263 -8 0 5 -11 37 -26 71 -16 41 -24 77 -22 104 3 36 9 45 46 71 l43 31
39 -23 c46 -26 65 -27 115 -6 20 8 39 13 42 10 3 -3 -4 -33 -16 -67 -12 -35
-21 -71 -21 -81 0 -20 74 -62 95 -55 7 3 29 35 49 71 21 37 48 73 61 82 13 9
54 20 91 24 40 5 78 16 93 28 28 21 29 27 15 149 -5 45 -2 74 10 109 36 108
11 187 -82 259 -66 49 -69 56 -81 140 -5 36 -15 73 -22 82 -7 8 -53 35 -101
59 -152 76 -179 113 -243 328 -22 72 -34 97 -71 136 -49 52 -55 82 -29 144
l15 36 53 -20 c28 -10 84 -26 123 -34 39 -8 103 -30 142 -50 140 -70 220 -65
309 19 l46 44 -7 59 -7 58 96 13 c56 8 99 19 107 28 6 8 14 52 16 97 6 118 8
117 -172 109 -164 -7 -193 -2 -202 31 -3 13 -21 39 -40 57 -39 38 -42 59 -14
124 11 26 20 48 20 50 0 2 -48 5 -106 7 l-106 3 -52 56 c-61 66 -108 158 -129
257 -21 92 -47 128 -122 163 -69 33 -146 38 -215 14 -81 -29 -84 -27 -150 92
-50 89 -64 159 -51 254 9 66 13 74 61 125 l52 55 -7 113 c-8 140 2 183 52 225
36 29 37 34 38 93 l0 62 40 12 c40 11 40 11 43 65 3 47 7 58 37 86 38 35 38
37 39 163 1 82 3 88 43 154 53 86 61 133 38 229 -26 112 -21 132 50 187 40 32
59 54 58 66 -24 191 -37 214 -153 271 -175 86 -259 102 -342 65 -24 -10 -79
-27 -122 -36 -99 -22 -125 -33 -267 -112 -127 -71 -191 -98 -255 -108 -37 -7
-45 -4 -85 28 -65 53 -142 87 -240 107 -99 20 -142 37 -147 59 -3 18 40 45 87
54 19 3 40 11 48 17 23 20 15 64 -20 101 -31 33 -33 39 -34 113 -1 102 -5 105
-110 74 -23 -7 -45 -11 -48 -8 -3 4 6 27 20 52 28 49 28 49 -27 66 -55 18 -62
32 -48 88 24 92 -17 166 -83 149 -25 -6 -38 -29 -57 -103 -13 -52 -35 -56 -82
-14 -50 43 -70 46 -127 16 -28 -14 -74 -30 -102 -36 -68 -15 -120 5 -182 70
-52 54 -59 57 -194 70 -96 10 -129 22 -178 66 -107 95 -162 110 -209 54 -28
-33 -28 -34 -26 -126 1 -54 -1 -63 -22 -76 -33 -21 -118 -37 -197 -37 -55 0
-74 4 -97 22 -16 12 -31 23 -33 25 -3 2 5 13 16 26 27 29 43 61 43 86 0 29
-39 36 -123 21 -40 -7 -97 -16 -127 -20 -31 -4 -70 -15 -87 -23 -50 -26 -100
-94 -124 -166 -11 -36 -30 -74 -41 -83 -27 -24 -120 -24 -170 0 -44 20 -204
158 -254 219 -37 46 -90 69 -132 58 -15 -3 -62 -19 -104 -36 -97 -36 -124 -36
-179 1 -60 40 -103 40 -146 -2 l-33 -32 -11 32 c-18 51 -40 43 -82 -30 -15
-27 -32 -48 -37 -48 -15 0 -12 52 5 101 32 91 -9 117 -87 54 -72 -58 -99 -67
-149 -50 -60 22 -75 38 -99 111 -27 81 -53 114 -90 114 -24 0 -34 -9 -65 -59
-54 -87 -81 -95 -204 -61 -109 31 -146 53 -199 123 -67 88 -132 157 -164 173
-34 18 -86 17 -118 -1 -40 -23 -54 -18 -92 34 -36 48 -59 60 -108 53z"/>
</g>
</svg>
