<?xml version="1.0" standalone="no"?>
<!DOCTYPE svg PUBLIC "-//W3C//DTD SVG 20010904//EN"
 "http://www.w3.org/TR/2001/REC-SVG-20010904/DTD/svg10.dtd">
<svg version="1.0" xmlns="http://www.w3.org/2000/svg"
 width="1024.000000pt" height="1024.000000pt" viewBox="0 0 1024.000000 1024.000000"
 preserveAspectRatio="xMidYMid meet">
<metadata>
Created by potrace 1.16, written by Peter Selinger 2001-2019
</metadata>
<g transform="translate(0.000000,1024.000000) scale(0.100000,-0.100000)"
fill="#000000" stroke="none">
<path d="M5425 9799 c-74 -14 -176 -49 -210 -72 -16 -12 -54 -42 -83 -69 -59
-53 -113 -73 -171 -63 -25 4 -71 -2 -139 -19 -164 -42 -290 -107 -439 -227
-76 -61 -239 -159 -264 -159 -28 1 -85 66 -113 130 -35 80 -36 81 -116 167
-64 69 -67 71 -152 93 -81 21 -96 22 -205 13 -66 -6 -415 -66 -788 -136 -615
-115 -686 -126 -864 -138 -107 -6 -215 -17 -240 -24 l-46 -11 0 -1850 c-1
-1017 -2 -1859 -3 -1871 l-2 -23 -475 0 -475 0 0 -1443 0 -1443 139 -121 c269
-235 452 -520 580 -908 96 -290 95 -340 -18 -560 -84 -163 -94 -203 -89 -343
5 -123 15 -159 57 -205 34 -38 82 -49 167 -38 54 7 114 3 279 -17 116 -14 262
-26 325 -26 100 0 121 3 162 23 30 14 55 36 69 59 51 85 103 123 235 171 81
30 114 58 229 201 75 94 120 139 198 198 56 42 118 92 139 111 63 56 122 183
178 386 66 238 98 314 171 396 82 93 160 128 290 131 75 2 109 -2 167 -20 90
-29 121 -46 242 -138 141 -106 186 -131 327 -179 70 -24 187 -68 259 -98 291
-121 369 -134 647 -106 331 34 461 76 556 181 88 97 116 163 261 619 28 86 64
181 81 212 32 60 102 120 174 148 320 128 373 157 522 281 176 147 236 255
301 544 36 162 46 191 89 267 59 103 101 141 323 290 361 242 410 281 596 475
190 199 298 272 524 352 151 54 281 122 369 194 138 114 200 150 297 175 49
13 93 27 98 32 15 14 -47 58 -114 80 -146 48 -180 86 -180 201 0 35 -4 68 -8
73 -12 17 -105 91 -131 105 -60 31 -208 72 -379 105 -103 19 -231 47 -285 62
-148 39 -169 59 -330 298 -74 110 -140 218 -147 240 -16 46 -18 181 -6 310 6
63 5 112 -4 163 l-12 73 -49 25 c-43 21 -61 24 -142 23 -122 -1 -150 11 -183
82 -14 30 -37 97 -50 149 -41 154 -74 184 -302 274 -239 94 -539 283 -678 428
-76 78 -136 191 -203 383 -124 358 -100 307 -228 475 -177 233 -285 385 -368
520 l-89 145 -7 120 c-4 66 -8 123 -8 128 -1 10 -195 7 -256 -4z"/>
</g>
</svg>
