<?xml version="1.0" standalone="no"?>
<!DOCTYPE svg PUBLIC "-//W3C//DTD SVG 20010904//EN"
 "http://www.w3.org/TR/2001/REC-SVG-20010904/DTD/svg10.dtd">
<svg version="1.0" xmlns="http://www.w3.org/2000/svg"
 width="688.000000pt" height="712.000000pt" viewBox="0 0 688.000000 712.000000"
 preserveAspectRatio="xMidYMid meet">
<metadata>
Created by potrace 1.16, written by Peter Selinger 2001-2019
</metadata>
<g transform="translate(0.000000,712.000000) scale(0.100000,-0.100000)"
fill="#000000" stroke="none">
<path d="M2416 6808 c-5 -25 -19 -41 -54 -65 -27 -18 -58 -33 -69 -33 -11 0
-38 -6 -59 -13 -22 -8 -56 -12 -76 -9 -32 3 -44 -1 -73 -27 -32 -28 -43 -31
-108 -33 -111 -3 -129 -2 -172 14 -71 27 -95 30 -89 13 4 -9 19 -22 35 -31 16
-8 36 -25 45 -39 15 -23 15 -27 -4 -57 -19 -31 -25 -118 -10 -133 3 -3 40 -10
83 -14 120 -14 127 -42 17 -71 -48 -13 -59 -20 -72 -47 -8 -18 -33 -42 -55
-54 -46 -26 -106 -72 -146 -111 -22 -23 -36 -28 -76 -28 -43 0 -57 6 -113 47
-36 26 -76 47 -90 48 -21 0 -26 6 -30 40 -7 45 -36 95 -55 95 -8 0 -28 -12
-45 -26 -27 -24 -34 -25 -55 -14 -19 10 -27 10 -46 -4 -17 -12 -46 -16 -111
-16 -84 0 -88 -1 -94 -24 -8 -34 12 -66 46 -72 33 -7 43 -23 46 -76 2 -41 1
-43 -26 -28 -26 14 -125 -21 -124 -43 0 -10 1 -31 2 -49 2 -23 14 -42 48 -73
63 -58 84 -93 84 -138 0 -21 -26 -134 -59 -250 -32 -117 -61 -224 -65 -239 -8
-33 -28 -36 -56 -8 -23 23 -76 27 -99 6 -17 -15 -142 -56 -171 -56 -10 0 -39
-15 -63 -34 -25 -19 -59 -42 -75 -50 -24 -13 -31 -24 -37 -63 -4 -27 -16 -58
-28 -71 -19 -21 -20 -26 -9 -68 14 -52 10 -64 -21 -64 -43 -1 -66 -33 -74
-105 -9 -74 -4 -118 16 -139 10 -12 37 -50 60 -86 36 -57 39 -66 26 -80 -8 -9
-15 -20 -15 -23 0 -4 31 -7 68 -7 64 0 70 -2 90 -30 12 -16 22 -36 22 -45 0
-22 41 -35 109 -35 51 0 62 4 97 33 42 36 76 57 93 57 14 0 14 -35 0 -58 -7
-11 -7 -49 -2 -112 l8 -95 160 2 c153 2 188 8 247 39 14 8 40 14 56 14 34 0
54 15 71 57 12 29 86 83 114 83 9 0 35 7 58 17 34 13 48 14 72 5 19 -7 36 -8
47 -2 19 10 47 -11 36 -28 -3 -6 -1 -24 5 -42 9 -24 9 -37 -1 -55 -8 -15 -10
-37 -5 -62 4 -21 8 -55 9 -75 2 -39 20 -68 42 -68 8 0 17 -13 20 -28 4 -20 18
-34 49 -51 24 -13 51 -31 60 -41 14 -16 19 -16 61 -2 44 14 46 14 73 -12 17
-16 38 -26 57 -26 20 0 39 -9 57 -28 15 -15 37 -29 51 -30 13 -1 46 -10 72
-20 36 -13 50 -23 52 -40 5 -30 60 -52 132 -52 43 0 65 -6 91 -23 l34 -23 0
-104 c1 -97 3 -109 29 -152 18 -32 26 -58 24 -80 l-3 -33 146 -3 146 -3 7 -37
c3 -20 6 -58 6 -84 0 -44 2 -48 28 -54 15 -3 34 -8 43 -10 21 -6 95 -140 103
-187 6 -33 1 -50 -33 -117 -23 -43 -41 -88 -41 -99 0 -11 -4 -22 -9 -26 -16
-9 -5 -77 13 -87 9 -5 16 -17 16 -26 0 -10 9 -35 20 -57 13 -26 18 -50 15 -70
-12 -65 -12 -157 -1 -161 36 -12 228 -22 255 -13 24 9 39 7 71 -7 44 -20 39
-9 81 -178 23 -94 48 -133 77 -121 68 29 70 29 104 11 l33 -18 -4 -91 c-1 -51
-7 -100 -12 -109 -5 -9 -9 -25 -9 -36 0 -15 6 -18 30 -14 46 7 80 -5 80 -29 0
-11 6 -32 14 -47 8 -16 15 -69 17 -125 l4 -99 -39 -13 c-22 -8 -43 -21 -48
-29 -5 -9 -15 -16 -23 -16 -7 0 -34 -16 -59 -35 -26 -19 -49 -35 -52 -35 -16
0 -93 -68 -96 -85 -2 -12 -12 -21 -25 -23 -27 -4 -71 -53 -80 -90 -3 -15 -9
-29 -14 -32 -4 -3 -37 -49 -73 -103 -51 -76 -62 -99 -51 -103 14 -6 71 1 100
12 17 7 114 -90 148 -148 30 -52 38 -56 57 -33 18 22 30 19 66 -20 17 -19 45
-38 62 -41 34 -7 68 -38 74 -69 2 -11 10 -19 18 -17 31 7 87 -31 125 -84 22
-31 48 -60 58 -65 21 -12 22 -39 2 -65 -22 -29 -18 -79 8 -110 l24 -27 31 23
c29 22 62 82 62 115 0 8 11 50 25 95 24 74 25 82 10 102 -19 28 -19 54 -1 65
7 4 22 24 32 43 13 24 25 34 37 32 27 -5 45 15 52 58 4 21 18 51 31 65 23 25
24 29 9 51 -8 13 -15 36 -14 51 0 26 1 27 12 9 26 -42 55 -65 76 -59 30 8 27
-16 -10 -93 -21 -44 -36 -64 -48 -64 -13 0 -20 -10 -25 -30 -3 -19 -14 -34
-29 -39 -14 -5 -37 -21 -52 -35 -15 -14 -32 -26 -36 -26 -5 0 -9 -7 -9 -15 0
-40 86 10 167 96 36 40 128 196 144 248 20 64 90 192 135 248 25 31 44 64 44
78 0 14 5 25 10 25 6 0 10 6 10 13 0 7 5 18 12 25 14 14 20 60 7 67 -5 4 -9
16 -9 28 0 12 -7 31 -15 41 -8 11 -15 34 -15 51 0 18 -7 54 -15 80 -16 54 -13
65 16 65 21 0 25 20 7 38 -9 9 -8 12 5 12 20 0 24 36 5 43 -14 5 26 40 50 43
17 3 80 57 81 70 1 6 22 26 49 44 26 18 66 53 88 77 27 28 50 43 66 43 14 0
41 14 59 30 33 30 43 31 94 15 15 -5 23 1 33 23 12 28 79 82 102 82 18 0 11
18 -10 25 -51 16 -4 46 93 60 58 8 63 -9 7 -26 -22 -7 -40 -16 -40 -21 0 -10
10 -8 84 20 27 11 53 26 58 36 14 25 38 20 38 -10 l0 -25 83 6 c120 9 127 11
127 40 0 19 11 33 47 55 26 17 52 30 57 30 6 0 26 9 43 20 l33 19 -20 45 -19
45 25 36 c13 20 24 42 24 50 0 8 9 20 20 27 11 7 20 24 20 38 1 24 17 49 84
134 l29 37 -11 82 c-9 74 -9 86 9 127 11 25 32 57 46 72 21 22 25 33 20 64 -4
20 -1 46 5 58 6 12 13 50 15 86 7 99 9 458 3 458 -29 -2 -44 32 -20 47 5 3 10
22 10 41 0 20 7 42 15 50 8 9 15 21 15 28 0 14 -33 52 -52 59 -7 2 -10 7 -6
11 3 4 18 0 33 -10 24 -16 26 -16 39 2 12 15 16 16 30 5 22 -18 20 -30 -6 -59
-26 -28 -20 -27 37 7 49 29 85 79 114 157 13 32 26 61 30 64 4 3 17 28 28 55
16 37 33 58 67 80 25 17 48 38 51 48 4 9 12 17 18 18 22 2 176 180 200 232 71
151 71 149 59 168 -15 23 -15 56 -2 64 15 9 12 79 -4 112 -48 98 -69 154 -75
198 -6 49 -7 50 -64 78 -54 26 -62 28 -110 17 -48 -10 -53 -9 -69 10 -9 11
-22 20 -28 20 -7 0 -28 13 -46 30 -19 16 -47 33 -62 36 -33 8 -71 42 -129 117
-24 31 -50 57 -57 57 -7 0 -21 9 -31 20 -10 11 -28 20 -39 20 -12 0 -44 15
-71 34 -46 31 -102 48 -150 46 -11 -1 -42 -2 -70 -4 -27 -1 -58 -6 -67 -10
-10 -5 -27 -1 -44 10 -32 21 -64 28 -64 14 0 -17 -27 -11 -34 7 -5 13 -9 14
-15 5 -9 -15 -117 5 -168 31 -40 21 -73 22 -73 2 0 -8 -9 -15 -20 -15 -11 0
-20 -4 -20 -9 0 -5 -9 -13 -20 -16 -11 -3 -20 -15 -20 -26 0 -25 -17 -25 -25
1 -8 26 -21 18 -28 -17 -3 -16 -12 -37 -20 -48 -14 -18 -15 -15 -10 30 2 28 9
63 14 79 7 21 6 32 -3 37 -9 6 -9 11 1 22 10 13 6 23 -21 61 -28 38 -38 45
-69 45 -24 1 -39 -4 -43 -14 -9 -25 -30 -17 -54 20 -13 20 -30 35 -42 35 -10
0 -22 5 -25 10 -3 6 -14 10 -24 10 -10 0 -24 7 -31 15 -7 8 -23 15 -37 15 -13
0 -34 7 -47 16 -32 20 -107 28 -119 11 -7 -9 -10 -9 -14 1 -12 30 -93 -1 -93
-37 0 -22 -31 -50 -95 -87 -62 -35 -82 -59 -91 -104 -8 -40 -21 -68 -41 -89
-10 -10 -13 -25 -8 -48 8 -44 -4 -63 -21 -32 -19 35 -17 60 8 86 15 16 23 39
25 72 l3 48 -85 -2 c-47 -1 -85 2 -85 6 0 13 56 29 99 27 32 -1 47 3 57 17 7
10 20 15 28 12 24 -9 106 31 106 52 0 10 9 26 20 36 36 33 53 125 22 125 -10
0 -27 7 -38 15 -25 19 -49 19 -79 -1 -25 -16 -30 -16 -130 5 -46 11 -51 10
-74 -13 -21 -21 -23 -29 -14 -48 9 -20 7 -25 -13 -35 -14 -6 -26 -7 -30 -2
-10 17 -27 9 -67 -33 l-40 -43 7 43 c6 38 4 43 -11 40 -15 -2 -50 -57 -66
-102 -2 -6 -7 -8 -10 -5 -10 9 15 71 44 109 14 19 30 46 34 60 10 34 32 58 80
86 22 13 69 56 104 96 55 64 64 79 67 120 4 53 -10 71 -53 66 -26 -3 -29 2
-59 79 -18 46 -41 95 -51 110 -26 39 -43 80 -43 106 0 23 -31 111 -43 123 -4
4 -7 0 -7 -8 0 -9 -13 -27 -28 -40 -43 -36 -122 -137 -122 -156 0 -26 -79
-162 -98 -169 -9 -4 -29 -20 -43 -36 -29 -34 -44 -31 -52 13 -7 34 -30 39 -58
14 -25 -22 -55 -3 -75 47 -9 21 -21 39 -27 39 -6 0 -18 7 -27 15 -14 12 -35
14 -121 7 -104 -7 -104 -7 -107 -34 -2 -16 1 -28 6 -28 10 0 32 -44 32 -67 0
-12 -7 -14 -37 -8 -21 4 -61 8 -90 10 -28 1 -56 6 -63 10 -25 15 -80 -5 -95
-35 -14 -26 -21 -30 -60 -30 -35 0 -48 -5 -63 -25 -14 -18 -30 -25 -54 -25
-19 0 -39 -5 -45 -11 -6 -6 -19 -8 -29 -5 -22 7 -94 73 -94 86 0 5 -17 29 -38
53 -34 38 -38 50 -37 88 4 71 42 193 72 230 17 20 16 29 -2 29 -8 0 -22 11
-31 25 -9 14 -26 25 -38 25 -32 0 -38 9 -21 34 18 24 19 59 5 87 -8 14 -21 19
-54 19 -41 0 -44 -2 -50 -32z"/>
</g>
</svg>
