<?xml version="1.0" standalone="no"?>
<!DOCTYPE svg PUBLIC "-//W3C//DTD SVG 20010904//EN"
 "http://www.w3.org/TR/2001/REC-SVG-20010904/DTD/svg10.dtd">
<svg version="1.0" xmlns="http://www.w3.org/2000/svg"
 width="628.000000pt" height="559.000000pt" viewBox="0 0 628.000000 559.000000"
 preserveAspectRatio="xMidYMid meet">
<metadata>
Created by potrace 1.16, written by Peter Selinger 2001-2019
</metadata>
<g transform="translate(0.000000,559.000000) scale(0.100000,-0.100000)"
fill="#000000" stroke="none">
<path d="M4705 5403 c-38 -7 -113 -28 -165 -48 -52 -20 -144 -53 -205 -74
-142 -49 -283 -126 -448 -244 -72 -51 -142 -99 -155 -106 -13 -7 -83 -54 -155
-105 -173 -121 -279 -189 -351 -227 -57 -30 -198 -135 -340 -253 -114 -95
-387 -376 -499 -514 -57 -70 -119 -143 -138 -161 -71 -71 -217 -145 -359 -181
-166 -42 -336 -108 -372 -143 -45 -45 -240 -156 -298 -170 -14 -3 -56 -25 -95
-49 l-70 -43 -140 0 c-108 -1 -150 -5 -185 -19 -103 -40 -108 -40 -169 -9 -56
28 -56 28 -241 26 -102 -1 -196 -6 -210 -11 l-24 -9 22 -12 c12 -6 72 -16 134
-22 121 -11 241 -40 273 -67 11 -10 41 -43 67 -74 35 -41 65 -64 113 -86 83
-40 171 -139 231 -264 44 -93 56 -112 98 -158 103 -112 100 -106 107 -274 5
-150 5 -152 42 -223 43 -84 45 -108 20 -260 -17 -102 -16 -106 3 -142 35 -66
148 -101 326 -101 64 0 102 6 140 20 61 23 103 25 137 6 25 -14 42 -58 82
-211 25 -97 111 -305 147 -357 15 -21 43 -46 62 -56 19 -9 71 -56 114 -102
126 -135 201 -206 247 -236 90 -57 99 -70 99 -144 0 -82 15 -105 82 -125 l52
-15 80 36 c206 92 239 115 388 266 71 73 133 137 136 141 16 19 128 107 142
112 8 3 30 27 48 55 l34 49 -3 133 c-3 154 8 198 69 281 63 85 122 202 122
242 0 46 -18 46 -74 1 -126 -104 -186 -29 -74 93 50 54 120 142 198 247 44 58
60 91 78 156 45 167 39 301 -14 314 -14 4 -30 2 -37 -5 -6 -6 -26 -11 -45 -11
-39 0 -92 48 -92 84 0 11 -10 57 -21 101 -13 51 -22 123 -24 196 -2 64 -11
151 -20 193 -9 42 -20 148 -24 234 -5 99 -12 166 -21 182 -18 32 -18 137 0
189 17 53 4 114 -25 119 -106 17 -165 141 -120 257 22 60 46 75 117 75 52 0
62 3 97 36 28 24 48 56 66 104 49 128 62 135 261 144 225 10 382 63 445 149
31 43 31 44 50 135 13 67 41 118 74 136 11 6 21 11 21 11 1 0 4 9 8 21 3 11 0
28 -7 38 -12 17 -17 15 -65 -32 -51 -49 -87 -70 -100 -58 -13 13 34 79 108
154 139 140 167 189 180 314 6 52 15 86 29 105 12 16 74 57 141 93 117 64 137
81 124 113 -14 37 -133 58 -229 40z"/>
<path d="M4979 4641 c-42 -42 -37 -63 20 -99 94 -58 104 -112 28 -156 -23 -13
-60 -27 -82 -31 -80 -13 -123 -42 -155 -104 -41 -80 -80 -123 -112 -123 -37 0
-85 37 -93 72 -4 17 -11 30 -17 30 -7 0 -8 -28 -2 -87 12 -122 9 -153 -15
-200 -31 -63 -35 -111 -16 -204 10 -46 19 -138 20 -204 2 -66 8 -140 15 -165
11 -42 82 -228 114 -302 72 -163 140 -436 156 -628 18 -227 26 -282 50 -359
31 -98 53 -112 170 -108 85 2 86 2 160 -43 67 -41 79 -44 139 -44 36 0 87 3
112 8 46 8 46 8 99 -42 69 -66 97 -78 152 -64 40 10 44 9 90 -24 74 -54 163
-94 227 -100 52 -6 60 -4 81 17 87 91 53 177 -161 401 -193 204 -226 258 -207
340 16 67 4 233 -21 296 -34 84 -25 182 24 287 53 110 46 194 -25 315 -53 91
-68 136 -51 153 25 25 12 72 -33 122 -45 48 -45 49 -45 121 0 76 -8 102 -46
144 -29 32 -45 108 -45 215 l0 84 -57 56 c-31 30 -60 55 -64 55 -5 0 -14 27
-21 60 -14 72 -40 99 -130 144 -75 37 -99 68 -106 134 -4 48 -5 50 -41 56 -64
10 -82 7 -112 -23z"/>
</g>
</svg>
