<?xml version="1.0" standalone="no"?>
<!DOCTYPE svg PUBLIC "-//W3C//DTD SVG 20010904//EN"
 "http://www.w3.org/TR/2001/REC-SVG-20010904/DTD/svg10.dtd">
<svg version="1.0" xmlns="http://www.w3.org/2000/svg"
 width="740.000000pt" height="500.000000pt" viewBox="0 0 740.000000 500.000000"
 preserveAspectRatio="xMidYMid meet">
<metadata>
Created by potrace 1.16, written by Peter Selinger 2001-2019
</metadata>
<g transform="translate(0.000000,500.000000) scale(0.100000,-0.100000)"
fill="#000000" stroke="none">
<path d="M5393 4741 c-98 -16 -122 -24 -183 -61 -39 -24 -94 -48 -123 -55 -29
-7 -95 -24 -147 -39 -52 -14 -135 -33 -183 -41 -86 -15 -148 -39 -195 -76 -12
-9 -42 -20 -65 -24 -48 -8 -77 -31 -111 -89 -14 -23 -50 -61 -81 -86 -39 -30
-66 -62 -85 -100 -34 -66 -162 -184 -213 -194 -17 -4 -61 -24 -97 -46 -61 -36
-118 -57 -231 -83 -43 -10 -49 -8 -105 26 -77 47 -129 58 -204 45 -55 -11 -61
-10 -115 17 l-57 29 -61 -21 c-38 -13 -101 -24 -163 -28 -94 -6 -104 -5 -164
20 -95 40 -159 33 -232 -23 -64 -49 -110 -67 -215 -83 -77 -11 -80 -11 -193
24 -63 19 -135 35 -160 35 -26 0 -82 14 -130 32 -70 26 -93 30 -130 25 -84
-14 -134 -9 -205 19 -62 25 -80 27 -155 24 -71 -4 -99 -10 -165 -40 -123 -55
-148 -61 -244 -56 -108 6 -177 34 -187 75 -9 35 10 126 33 158 11 15 38 31 70
41 57 17 83 43 83 86 0 40 -24 58 -79 58 -37 0 -71 11 -152 51 -57 29 -128 58
-156 65 -51 12 -54 11 -72 -12 -27 -34 -34 -76 -26 -140 l6 -54 -34 -15 c-19
-8 -41 -25 -50 -39 -11 -16 -30 -26 -57 -31 -68 -11 -76 -26 -91 -155 -18
-164 -17 -192 8 -223 11 -15 24 -43 27 -62 5 -24 20 -46 51 -72 25 -20 47 -44
49 -53 2 -8 12 -49 21 -91 20 -94 61 -149 133 -175 26 -9 61 -28 79 -41 17
-12 46 -23 63 -23 40 0 129 -82 173 -158 33 -60 55 -77 110 -87 88 -16 72 -81
-56 -240 -54 -66 -99 -132 -103 -149 -18 -83 -65 -119 -141 -109 -25 3 -59 -1
-89 -11 -50 -17 -134 -86 -134 -110 0 -7 13 -30 30 -52 34 -45 37 -81 15 -167
-28 -108 -22 -124 78 -200 34 -25 37 -32 32 -63 -3 -19 -7 -49 -10 -67 -4 -22
-14 -38 -30 -47 -14 -7 -25 -20 -25 -27 0 -8 -7 -27 -15 -42 -13 -25 -30 -36
-89 -55 -15 -5 -8 -17 50 -77 38 -38 84 -92 102 -119 43 -65 118 -106 292
-163 l133 -44 31 -89 c42 -119 106 -235 142 -255 36 -19 55 -56 47 -89 -3 -14
-21 -45 -39 -69 -19 -24 -34 -50 -34 -56 0 -7 10 -61 23 -121 14 -67 23 -142
22 -196 l0 -86 115 -8 c147 -9 191 3 201 56 8 36 40 70 67 70 8 0 24 -8 34
-17 17 -15 22 -15 41 -3 70 44 129 51 241 28 56 -11 58 -10 82 15 21 23 33 27
79 27 45 0 57 4 67 21 7 11 44 36 82 56 64 32 69 33 87 17 19 -17 24 -16 94
10 40 14 40 14 37 63 -5 68 11 81 80 64 l50 -13 37 36 c20 20 42 36 49 36 7 0
22 -16 33 -35 24 -40 23 -40 79 -20 23 8 53 15 65 15 13 0 43 11 66 25 24 14
49 25 54 25 6 0 29 -40 53 -89 l42 -89 65 -4 c62 -4 68 -6 113 -51 53 -52 72
-58 72 -24 0 36 12 45 70 52 47 6 67 2 140 -25 47 -18 107 -39 133 -47 35 -10
65 -30 103 -69 30 -30 61 -54 68 -54 26 0 291 101 310 118 14 14 34 16 100 14
79 -4 83 -3 144 33 66 40 73 40 124 3 14 -10 30 -6 90 21 40 18 94 40 119 47
58 18 83 45 102 110 13 45 13 55 1 72 -10 14 -12 34 -8 59 5 31 -1 50 -28 103
-23 45 -40 66 -55 68 -29 4 -50 31 -58 72 -6 33 -4 37 35 62 58 38 101 44 164
23 31 -11 63 -15 78 -12 24 6 26 10 21 46 -12 88 17 118 124 131 59 8 72 13
97 41 25 28 28 37 22 75 -5 36 -2 48 19 73 23 27 31 29 108 34 99 6 199 28
260 58 35 17 52 35 78 82 l34 59 83 -6 c81 -6 82 -6 114 24 17 16 37 30 45 30
34 0 89 -34 158 -100 41 -39 91 -78 111 -86 20 -8 47 -26 59 -40 l24 -26 29
30 c34 35 124 82 157 82 12 0 39 -7 59 -15 43 -18 56 -13 56 21 0 30 34 46 67
31 25 -11 153 0 153 14 0 29 -72 114 -186 221 -71 66 -133 129 -138 140 -6 13
-6 30 2 50 14 39 7 56 -33 72 -26 11 -33 21 -41 57 -7 36 -13 45 -34 47 -14 2
-34 12 -45 22 -31 28 -79 34 -119 15 -39 -19 -91 -13 -100 11 -7 17 14 63 50
111 17 23 35 34 62 38 81 13 77 10 77 62 0 45 2 49 37 68 33 18 38 24 38 57 0
43 3 44 118 51 40 2 75 7 79 10 3 3 0 37 -8 74 -7 37 -13 115 -14 173 0 58 -5
134 -9 170 -7 54 -5 79 14 146 20 76 21 84 6 112 -9 17 -16 34 -16 37 0 3 20
14 45 25 52 22 74 61 95 162 21 104 60 132 209 149 88 10 106 10 148 -5 26 -9
55 -19 63 -22 22 -7 116 110 141 176 18 47 19 60 9 85 -20 49 -40 138 -40 177
0 20 -4 48 -10 62 -9 25 -13 26 -82 26 -153 0 -400 47 -520 99 -54 23 -74 50
-115 154 -34 87 -46 97 -81 68 -52 -42 -155 -79 -178 -63 -5 4 -27 31 -48 60
-21 28 -40 52 -42 52 -3 0 -17 -9 -32 -19 -20 -14 -52 -21 -128 -25 -99 -7
-100 -6 -145 23 -24 17 -50 31 -57 31 -7 0 -27 15 -45 34 -28 30 -40 35 -92
40 -33 3 -78 7 -100 10 -22 3 -91 -3 -152 -13z"/>
</g>
</svg>
