<?xml version="1.0" standalone="no"?>
<!DOCTYPE svg PUBLIC "-//W3C//DTD SVG 20010904//EN"
 "http://www.w3.org/TR/2001/REC-SVG-20010904/DTD/svg10.dtd">
<svg version="1.0" xmlns="http://www.w3.org/2000/svg"
 width="1024.000000pt" height="736.000000pt" viewBox="0 0 1024.000000 736.000000"
 preserveAspectRatio="xMidYMid meet">
<metadata>
Created by potrace 1.16, written by Peter Selinger 2001-2019
</metadata>
<g transform="translate(0.000000,736.000000) scale(0.100000,-0.100000)"
fill="#000000" stroke="none">
<path d="M6362 7351 c-23 -6 -75 -50 -175 -148 -204 -200 -261 -235 -415 -258
-139 -21 -154 -27 -250 -98 -138 -102 -304 -210 -343 -223 -29 -11 -55 -10
-135 1 -128 19 -170 18 -226 -1 -84 -28 -91 -43 -100 -216 -5 -92 -14 -158
-21 -167 -20 -24 -89 -51 -132 -51 -28 0 -64 13 -122 45 -94 50 -240 109 -294
119 -51 9 -78 -4 -156 -77 -87 -81 -141 -117 -228 -151 -89 -35 -141 -69 -158
-103 -8 -16 -17 -59 -20 -98 -3 -38 -14 -88 -23 -110 -12 -26 -20 -80 -24
-158 -5 -86 -11 -122 -22 -133 -14 -14 -17 -14 -31 0 -21 21 -45 20 -86 -5
l-34 -20 -41 39 c-23 22 -57 44 -76 50 -43 13 -173 33 -178 27 -10 -9 -44
-375 -38 -406 4 -26 16 -40 46 -59 47 -29 50 -43 14 -66 -19 -13 -59 -19 -148
-24 -67 -4 -127 -9 -133 -13 -6 -4 -13 -30 -17 -58 -9 -70 -41 -102 -88 -89
-18 6 -35 10 -37 10 -2 0 -63 58 -136 130 -139 137 -173 159 -277 180 l-57 11
35 54 c18 30 34 58 34 64 0 18 -53 51 -83 51 -23 0 -40 -11 -76 -50 -25 -27
-62 -56 -81 -64 -48 -19 -67 -43 -79 -96 -5 -25 -14 -46 -18 -48 -4 -2 -37
-18 -73 -36 -64 -32 -79 -48 -97 -111 -7 -25 -16 -32 -57 -42 -27 -7 -51 -14
-53 -17 -3 -3 6 -38 21 -78 14 -40 29 -97 34 -127 6 -46 11 -57 37 -71 l30
-17 -1 -104 c-1 -60 -7 -121 -15 -144 -13 -36 -18 -40 -51 -43 -20 -2 -53 4
-73 12 -78 33 -161 13 -191 -46 -14 -26 -14 -37 -4 -72 7 -23 25 -57 40 -76
37 -48 58 -92 52 -110 -3 -8 -13 -27 -23 -41 -12 -17 -19 -48 -21 -95 -3 -68
-3 -69 -33 -72 -41 -5 -56 -20 -49 -48 6 -22 3 -24 -27 -24 -40 0 -95 -31
-102 -57 -3 -10 -8 -34 -11 -55 -4 -23 -15 -42 -32 -53 -14 -9 -32 -32 -40
-50 -15 -36 -69 -86 -122 -111 -55 -26 -198 -45 -284 -38 -122 10 -155 1 -244
-66 -126 -95 -167 -114 -254 -117 -41 -1 -76 -3 -78 -3 -14 -1 30 -48 76 -81
83 -60 91 -74 92 -144 1 -33 8 -78 16 -100 49 -127 48 -117 24 -223 -32 -141
-59 -231 -82 -275 -29 -57 -96 -125 -149 -152 -57 -29 -96 -74 -105 -120 -3
-20 1 -66 10 -107 8 -40 18 -86 21 -103 7 -46 -13 -154 -42 -215 -20 -43 -25
-69 -24 -122 1 -47 -5 -83 -20 -120 -11 -29 -21 -71 -21 -93 -2 -85 60 -208
119 -238 16 -8 71 -17 123 -20 125 -8 246 -27 265 -41 14 -10 13 -15 -5 -51
-37 -72 -24 -101 69 -165 49 -34 83 -114 90 -214 l6 -81 61 3 c47 3 71 -1 101
-16 57 -30 64 -41 52 -86 -13 -49 -5 -71 39 -101 47 -32 117 -33 219 -4 40 11
78 17 83 14 6 -3 10 -26 10 -50 0 -41 3 -46 37 -64 48 -24 139 -51 173 -51 35
0 73 41 104 111 16 36 43 72 78 104 81 73 85 75 148 63 l55 -11 90 59 90 59
81 -3 c72 -2 92 1 158 28 103 41 157 39 412 -14 79 -17 83 -17 140 3 32 12 70
21 84 21 34 0 70 -34 70 -65 0 -18 10 -30 38 -44 47 -24 63 -42 82 -95 14 -36
20 -41 51 -44 31 -3 38 -9 58 -49 31 -64 156 -274 178 -299 24 -28 57 -38 82
-25 10 6 31 32 46 58 27 45 28 49 15 92 -8 25 -14 78 -15 116 -1 48 -8 89 -25
132 l-25 62 31 33 c30 31 32 38 33 111 1 67 -3 86 -28 135 -46 92 -48 115 -12
171 38 59 38 70 1 106 -59 57 -76 127 -40 172 32 41 26 65 -22 88 -28 13 -55
38 -75 69 -38 55 -43 109 -19 205 8 31 17 86 21 122 6 62 25 114 75 199 14 25
20 53 20 97 l0 63 148 0 c101 0 162 -5 196 -15 41 -13 143 -15 617 -15 l567 0
54 25 c67 31 103 31 203 -1 79 -26 83 -26 260 -18 280 12 313 10 384 -21 58
-26 65 -27 114 -16 41 10 66 10 117 1 71 -13 103 -27 148 -65 l31 -26 96 78
c85 69 155 151 155 183 0 21 22 19 57 -5 51 -34 72 -32 118 16 73 75 54 74
390 8 165 -33 354 -68 420 -79 130 -21 125 -18 198 -114 36 -47 59 -46 153 5
76 42 76 42 147 34 40 -5 97 -9 127 -9 58 0 72 7 176 89 33 26 47 30 116 34
l78 3 0 33 c0 37 8 46 81 83 38 19 57 36 64 55 9 26 7 36 -20 99 -6 15 0 17
42 16 27 -1 56 3 64 8 8 5 39 9 69 9 44 0 54 3 52 15 -18 75 -17 77 36 110 55
34 67 54 57 100 l-7 30 71 0 71 0 59 -54 c79 -73 111 -77 286 -37 121 28 131
29 142 13 28 -39 35 -42 96 -42 41 0 73 6 94 18 35 19 326 292 349 327 8 12
18 42 22 66 6 36 14 48 43 67 33 21 38 31 53 97 19 88 15 100 -53 194 -26 36
-78 116 -116 176 -71 114 -144 212 -189 254 -29 27 -27 34 17 59 23 12 64 18
139 22 l107 5 -37 59 c-32 50 -37 68 -36 115 0 31 4 66 8 78 7 19 2 25 -41 47
-51 25 -116 89 -127 124 -8 23 -45 39 -115 48 -59 8 -81 -3 -175 -85 l-70 -61
-150 0 c-83 0 -165 4 -182 9 -31 9 -277 210 -428 350 -90 83 -141 110 -207
111 -52 0 -83 25 -98 78 -11 35 8 372 21 372 4 0 36 -15 70 -32 60 -32 67 -33
162 -30 109 3 158 18 177 53 10 20 8 25 -15 46 -15 12 -59 32 -99 44 -40 11
-107 33 -151 47 -78 27 -79 28 -97 76 -23 61 -37 76 -122 132 -125 83 -155 94
-248 94 -112 0 -127 9 -159 95 -50 134 -89 192 -151 227 -45 25 -68 62 -105
172 -31 90 -30 108 6 158 36 50 39 98 9 148 -26 42 -29 44 -151 120 -82 51
-99 67 -118 106 -27 56 -23 104 14 172 78 140 89 190 58 267 -18 45 -19 54 -6
84 24 57 7 72 -141 120 -49 16 -158 54 -242 85 -84 31 -166 56 -183 56 -18 0
-59 -11 -93 -24 -34 -13 -70 -26 -80 -30 -10 -3 -48 6 -83 20 -92 36 -311 62
-382 45z"/>
</g>
</svg>
