<?xml version="1.0" standalone="no"?>
<!DOCTYPE svg PUBLIC "-//W3C//DTD SVG 20010904//EN"
 "http://www.w3.org/TR/2001/REC-SVG-20010904/DTD/svg10.dtd">
<svg version="1.0" xmlns="http://www.w3.org/2000/svg"
 width="900.000000pt" height="1024.000000pt" viewBox="0 0 900.000000 1024.000000"
 preserveAspectRatio="xMidYMid meet">
<metadata>
Created by potrace 1.16, written by Peter Selinger 2001-2019
</metadata>
<g transform="translate(0.000000,1024.000000) scale(0.100000,-0.100000)"
fill="#000000" stroke="none">
<path d="M6850 10234 c-30 -13 -63 -50 -91 -105 -15 -32 -40 -66 -55 -78 -54
-43 -332 -108 -412 -97 -45 6 -117 37 -180 77 -49 32 -77 16 -97 -56 -14 -48
-24 -61 -69 -94 -32 -24 -58 -53 -66 -73 -46 -118 -72 -133 -226 -133 -93 1
-106 3 -166 33 -86 42 -145 95 -232 211 -40 53 -96 117 -123 142 -44 42 -59
49 -142 68 -51 11 -101 21 -112 21 -11 0 -47 11 -81 25 -34 14 -63 25 -64 25
-1 0 -6 -25 -10 -56 -5 -42 -14 -65 -36 -90 l-30 -34 31 -53 c47 -82 83 -231
88 -369 6 -139 3 -147 -87 -208 -69 -47 -89 -79 -83 -136 4 -29 -2 -54 -17
-85 -20 -38 -22 -53 -17 -129 4 -47 2 -113 -4 -146 -10 -55 -8 -66 10 -102 22
-44 27 -92 11 -121 -5 -10 -14 -49 -20 -87 -17 -112 -154 -360 -229 -413 -32
-23 -211 -91 -258 -98 -26 -4 -38 1 -63 26 -48 48 -72 61 -109 61 -65 0 -109
-43 -194 -191 -15 -26 -41 -59 -59 -74 -30 -26 -37 -27 -108 -23 -86 5 -148
29 -200 77 -19 18 -54 41 -77 52 -48 22 -63 19 -153 -37 -45 -28 -75 -37 -154
-49 -65 -10 -124 -27 -179 -51 -84 -37 -157 -51 -201 -40 -15 4 -51 29 -81 56
-58 53 -74 57 -136 38 -32 -9 -53 -8 -117 6 -73 17 -79 17 -122 1 -25 -10 -70
-20 -100 -22 -66 -6 -80 -16 -80 -57 0 -35 -24 -76 -44 -76 -41 0 -139 152
-135 210 3 57 -3 79 -32 124 -26 39 -31 54 -26 86 3 22 14 51 26 66 25 31 27
66 6 84 -20 17 -19 33 5 55 19 18 19 18 -8 49 -48 55 -93 133 -99 173 -9 57
-18 64 -74 57 l-49 -7 -19 44 c-38 90 -95 118 -266 130 -114 8 -255 34 -319
59 -16 6 -47 26 -68 45 -45 41 -76 44 -108 10 -32 -34 -79 -33 -173 5 -85 34
-150 39 -187 13 -38 -25 -39 -30 -37 -133 1 -70 -4 -110 -18 -153 -18 -56 -18
-60 -2 -89 15 -25 16 -36 6 -63 -10 -26 -9 -41 4 -80 20 -57 10 -88 -40 -120
-37 -23 -53 -53 -53 -98 0 -26 -12 -43 -69 -97 -38 -36 -74 -75 -80 -87 -19
-37 -13 -77 17 -112 25 -30 33 -33 111 -42 47 -5 91 -15 99 -22 9 -6 29 -41
45 -77 21 -46 47 -82 88 -120 l59 -55 0 -76 c0 -101 11 -115 166 -191 124 -61
179 -102 195 -146 5 -13 9 -52 9 -87 0 -62 1 -65 31 -81 17 -8 50 -33 74 -55
45 -42 100 -69 138 -69 29 0 99 -49 123 -85 12 -18 20 -64 27 -153 14 -189 15
-180 -31 -256 -51 -85 -79 -157 -100 -257 -14 -66 -14 -82 -3 -117 12 -36 12
-47 -3 -84 -23 -63 -20 -104 14 -165 48 -85 40 -115 -43 -153 -26 -13 -52 -31
-58 -41 -5 -10 -8 -47 -7 -81 2 -35 0 -72 -5 -84 -6 -17 1 -26 44 -55 95 -64
89 -63 218 -48 150 18 256 16 303 -4 49 -21 93 -110 84 -172 -17 -121 -18
-145 -2 -214 17 -76 15 -103 -17 -164 -19 -37 -19 -39 -2 -77 11 -25 15 -51
12 -77 -21 -142 -21 -135 12 -176 45 -58 47 -73 15 -133 -27 -50 -28 -54 -15
-102 12 -47 11 -53 -13 -98 -15 -31 -27 -75 -31 -119 -9 -95 -20 -128 -71
-211 -77 -125 -80 -167 -18 -249 30 -38 38 -59 45 -118 7 -56 15 -79 39 -108
34 -43 38 -58 26 -113 -8 -34 -6 -41 17 -62 15 -13 31 -42 37 -63 6 -21 30
-68 55 -104 25 -36 54 -91 66 -122 16 -44 31 -64 65 -88 57 -40 75 -81 84
-193 7 -96 12 -109 63 -153 42 -36 50 -64 33 -122 -18 -60 -16 -68 36 -109 25
-21 49 -53 65 -88 35 -81 110 -201 150 -243 40 -42 96 -183 119 -298 22 -110
28 -121 99 -174 75 -57 86 -81 82 -186 -2 -73 -2 -73 34 -105 52 -45 61 -67
53 -134 -5 -48 -2 -66 14 -98 11 -22 28 -46 36 -53 9 -7 26 -45 38 -83 27 -84
54 -109 190 -172 51 -24 102 -52 114 -63 33 -28 64 -98 79 -176 8 -40 17 -85
21 -100 5 -21 1 -34 -13 -50 -38 -42 -36 -45 24 -57 32 -6 83 -22 114 -36 42
-18 74 -24 126 -24 57 0 73 -4 88 -20 57 -63 144 25 130 133 -7 57 12 105 53
129 50 30 130 123 143 168 10 33 20 46 46 56 43 18 43 18 94 -15 86 -57 151
-54 254 14 37 25 85 50 105 55 20 5 66 29 101 51 35 23 85 51 110 61 36 15 51
28 64 57 9 21 27 50 40 64 22 23 29 25 84 20 60 -6 61 -5 78 27 36 64 47 74
91 72 83 -3 138 82 161 250 8 54 17 78 49 122 21 31 45 76 52 102 14 50 51 81
122 104 22 6 54 29 75 54 21 23 73 66 116 96 102 70 157 134 212 246 42 87 47
93 122 145 43 29 86 63 95 74 25 29 22 68 -7 111 -32 46 -31 54 5 167 17 52
30 104 30 116 0 31 26 78 50 91 26 14 46 55 54 112 9 61 44 104 93 113 90 17
133 66 194 225 69 180 106 223 200 236 68 9 127 -11 178 -62 24 -24 45 -44 47
-44 3 0 13 15 24 32 26 44 25 86 -5 160 -14 34 -25 67 -25 73 0 7 -11 29 -25
49 -14 20 -25 46 -25 57 0 33 188 395 241 464 64 84 70 101 63 188 l-6 72 42
53 c23 29 54 59 69 66 14 8 41 28 60 45 30 27 42 31 91 31 45 0 65 6 95 25 52
36 135 76 245 120 160 63 240 106 289 155 25 26 71 63 102 82 117 75 126 127
44 251 -75 112 -72 185 12 235 21 13 74 46 117 73 44 27 96 52 115 55 49 9 69
29 101 99 46 102 73 108 118 27 28 -50 36 -51 167 -22 98 22 151 46 234 105
l54 39 -57 13 c-129 29 -154 99 -46 132 23 7 47 23 57 37 15 24 15 33 2 102
-8 43 -12 97 -8 122 5 41 3 47 -33 84 -42 44 -45 60 -23 124 29 81 0 144 -84
187 -69 35 -73 42 -57 105 14 54 20 61 74 91 21 12 34 31 46 66 9 26 31 71 49
98 30 45 57 104 57 126 0 14 -36 11 -150 -11 -266 -51 -317 -48 -424 21 -33
21 -66 39 -74 39 -25 0 -78 -30 -107 -60 -16 -17 -37 -30 -46 -30 -10 0 -38
21 -63 48 -36 37 -46 54 -46 82 0 75 -67 144 -198 206 -57 27 -92 53 -133 97
-47 50 -62 60 -89 60 -38 0 -45 -7 -123 -127 -62 -93 -118 -130 -201 -131 -49
0 -50 0 -106 70 -32 39 -75 79 -96 90 -37 19 -46 34 -59 98 -3 15 -13 34 -23
42 -79 64 -82 68 -82 97 0 18 22 69 54 127 67 119 86 175 86 251 0 66 38 200
66 231 14 15 31 19 86 19 l69 0 63 63 c83 81 110 134 110 214 1 34 -2 64 -5
67 -6 7 -183 -85 -208 -108 -32 -29 -76 -38 -120 -26 -49 13 -111 64 -111 91
0 10 15 40 34 66 19 27 50 94 70 151 43 125 44 126 122 228 57 76 84 131 84
176 0 9 15 29 34 45 70 59 136 185 136 263 0 37 23 92 55 130 24 29 35 52 35
75 0 21 11 45 30 70 27 34 29 40 17 59 -9 14 -49 32 -111 53 -69 23 -118 47
-173 87 -43 30 -107 74 -143 98 l-65 43 0 58 c0 73 -9 80 -98 72 -61 -5 -70
-3 -85 15 -17 21 -101 36 -132 24z"/>
</g>
</svg>
