<?xml version="1.0" standalone="no"?>
<!DOCTYPE svg PUBLIC "-//W3C//DTD SVG 20010904//EN"
 "http://www.w3.org/TR/2001/REC-SVG-20010904/DTD/svg10.dtd">
<svg version="1.0" xmlns="http://www.w3.org/2000/svg"
 width="1024.000000pt" height="768.000000pt" viewBox="0 0 1024.000000 768.000000"
 preserveAspectRatio="xMidYMid meet">
<metadata>
Created by potrace 1.16, written by Peter Selinger 2001-2019
</metadata>
<g transform="translate(0.000000,768.000000) scale(0.100000,-0.100000)"
fill="#000000" stroke="none">
<path d="M2041 7145 c-51 -25 -99 -45 -106 -45 -24 0 -151 -73 -192 -111 -24
-22 -48 -40 -55 -41 -20 -2 -51 -5 -79 -7 -45 -2 -139 -103 -139 -150 0 -37
26 -71 54 -71 44 0 60 -42 66 -173 8 -162 -4 -155 214 -137 154 13 162 16 265
130 62 68 86 87 150 117 42 20 91 49 109 64 18 16 40 29 49 29 9 0 47 32 84
71 56 58 69 76 69 103 0 40 -49 90 -100 103 -32 8 -36 13 -41 53 -8 57 -36 80
-98 80 -26 0 -56 7 -67 15 -33 25 -84 17 -183 -30z"/>
<path d="M2501 6417 c-6 -8 -29 -22 -51 -32 -34 -15 -40 -22 -38 -44 3 -25 1
-26 -65 -32 -59 -5 -72 -10 -102 -39 -49 -47 -74 -137 -36 -125 14 4 23 0 31
-15 11 -21 36 -34 164 -81 78 -29 79 -29 100 -11 13 12 51 23 104 31 117 17
192 54 192 95 0 49 -21 97 -48 109 -55 23 -84 48 -72 62 8 10 7 21 -5 44 -20
39 -54 48 -91 25 -26 -18 -27 -18 -42 4 -17 25 -25 27 -41 9z"/>
<path d="M7995 6203 c-112 -73 -115 -77 -115 -150 0 -55 4 -67 25 -89 22 -22
24 -28 13 -41 -14 -17 -18 -126 -6 -156 7 -16 10 -16 36 -3 28 15 29 15 49
-27 11 -24 26 -84 33 -134 16 -115 19 -120 60 -103 50 21 61 37 54 76 -5 27
-2 38 10 47 11 8 21 39 28 84 l11 72 -32 36 -32 37 2 109 c1 60 0 112 -4 115
-3 4 0 19 8 35 23 43 18 62 -23 102 -21 20 -40 37 -42 37 -3 -1 -36 -21 -75
-47z"/>
<path d="M4093 5719 c-98 -32 -103 -36 -103 -111 0 -50 42 -97 106 -118 47
-16 49 -18 57 -66 5 -27 17 -58 28 -70 10 -11 31 -49 45 -84 14 -36 32 -73 40
-84 15 -22 15 -21 34 54 12 48 77 171 108 207 10 12 41 31 69 42 48 19 54 19
109 4 33 -8 102 -35 155 -59 94 -43 98 -44 202 -44 58 0 112 3 121 6 12 5 16
20 16 61 0 44 -3 54 -14 50 -8 -3 -33 8 -56 24 -58 42 -72 46 -206 59 -94 8
-133 17 -184 40 -61 28 -70 29 -125 20 -114 -19 -137 -15 -196 34 -82 66 -99
69 -206 35z"/>
<path d="M8071 4471 c-10 -40 -9 -69 3 -166 l16 -119 -27 -28 c-15 -15 -32
-28 -39 -28 -22 0 -51 -39 -64 -85 -10 -34 -10 -55 -1 -92 14 -55 31 -70 122
-108 35 -15 75 -37 87 -48 22 -20 33 -22 125 -19 92 2 109 6 172 36 39 18 107
63 152 99 45 36 91 70 101 76 11 6 23 26 26 46 4 19 11 35 16 35 17 0 11 36
-10 63 -16 20 -19 34 -14 66 10 64 -2 107 -35 121 -20 8 -32 23 -40 50 -14 48
-39 64 -139 90 -119 30 -146 28 -171 -15 -14 -24 -28 -35 -44 -35 -46 0 -148
42 -184 76 -20 19 -37 34 -38 34 0 0 -7 -22 -14 -49z"/>
<path d="M5776 1936 l-39 -33 29 -7 29 -8 -30 -15 c-16 -9 -31 -17 -33 -18 -2
-1 10 -15 26 -31 16 -16 37 -50 46 -76 18 -46 18 -48 -3 -91 -11 -24 -21 -53
-21 -66 0 -12 -11 -33 -25 -46 -23 -24 -24 -26 -10 -66 21 -59 19 -92 -11
-150 l-27 -50 26 -52 c14 -29 28 -62 32 -74 3 -12 16 -25 28 -29 12 -3 37 -13
55 -21 30 -14 32 -18 32 -66 0 -50 1 -52 71 -117 62 -58 82 -70 154 -94 50
-16 124 -30 184 -35 55 -5 104 -12 108 -14 5 -3 37 1 72 10 l62 16 34 67 c19
37 31 70 28 74 -4 3 10 21 30 39 19 19 39 45 42 59 7 26 2 35 -51 91 -33 34
-124 212 -124 241 0 22 -4 26 -28 26 -20 0 -38 11 -59 35 -20 23 -40 35 -57
35 -33 0 -87 48 -153 138 -30 39 -60 72 -68 72 -8 0 -15 6 -15 13 0 7 -27 29
-61 48 -34 19 -70 47 -81 62 -19 27 -19 29 -3 41 13 9 16 20 11 43 -9 39 -46
61 -80 45 -27 -12 -36 -7 -36 20 0 29 -40 21 -84 -16z"/>
<path d="M7307 1952 c-29 -13 -37 -21 -33 -36 7 -26 -9 -54 -55 -97 -44 -41
-51 -76 -17 -81 32 -4 33 -24 4 -51 -21 -20 -25 -30 -20 -55 4 -20 1 -38 -10
-53 -29 -42 -21 -78 30 -125 54 -50 136 -94 176 -94 22 0 33 8 46 30 9 17 24
32 32 34 8 2 26 7 40 10 35 8 70 73 70 130 0 25 -7 78 -15 118 -9 40 -15 91
-15 113 3 77 0 95 -21 116 -17 17 -28 19 -65 13 -40 -6 -44 -4 -44 14 0 27
-17 37 -35 22 -11 -9 -15 -9 -15 -1 0 14 -6 13 -53 -7z"/>
<path d="M4090 1161 c-14 -4 -67 -29 -119 -55 -185 -93 -277 -233 -225 -341
22 -47 146 -156 234 -207 108 -62 228 -41 334 59 57 54 58 56 51 97 -4 22 -7
66 -6 96 3 98 -56 285 -104 330 -26 24 -120 36 -165 21z"/>
<path d="M3210 758 c-85 -24 -91 -29 -85 -59 6 -25 4 -29 -15 -29 -18 0 -19
-3 -9 -21 6 -12 8 -36 4 -56 -4 -23 -3 -33 4 -29 6 4 19 -1 30 -11 46 -43 74
-63 87 -63 8 0 31 16 50 36 36 35 36 36 32 109 -2 55 -9 81 -24 101 -24 33
-29 35 -74 22z"/>
</g>
</svg>
