<?xml version="1.0" standalone="no"?>
<!DOCTYPE svg PUBLIC "-//W3C//DTD SVG 20010904//EN"
 "http://www.w3.org/TR/2001/REC-SVG-20010904/DTD/svg10.dtd">
<svg version="1.0" xmlns="http://www.w3.org/2000/svg"
 width="646.000000pt" height="580.000000pt" viewBox="0 0 646.000000 580.000000"
 preserveAspectRatio="xMidYMid meet">
<metadata>
Created by potrace 1.16, written by Peter Selinger 2001-2019
</metadata>
<g transform="translate(0.000000,580.000000) scale(0.100000,-0.100000)"
fill="#000000" stroke="none">
<path d="M6157 5615 c-15 -19 -34 -35 -42 -35 -10 0 -16 -16 -21 -49 -4 -29
-12 -52 -21 -55 -22 -9 -93 17 -99 36 -3 10 -17 21 -31 24 -21 6 -30 2 -45
-17 -10 -13 -23 -30 -29 -37 -6 -7 -14 -25 -18 -40 -6 -22 -12 -26 -34 -24
-21 3 -27 -1 -27 -16 0 -20 -39 -62 -58 -62 -7 0 -15 -6 -18 -14 -10 -26 -34
-26 -56 -1 -24 27 -48 33 -48 11 0 -7 -18 -32 -40 -55 -23 -23 -38 -46 -35
-51 8 -14 -48 -13 -62 1 -11 11 -37 1 -74 -29 -14 -11 -23 -6 -61 33 -25 25
-53 61 -64 80 -14 26 -23 33 -37 29 -10 -3 -29 1 -42 10 -13 9 -31 16 -40 16
-9 0 -24 13 -33 30 -9 16 -26 31 -37 32 -13 2 -21 14 -26 35 -7 36 -26 63 -43
63 -6 0 -27 -13 -46 -29 -30 -26 -33 -31 -20 -46 12 -15 11 -16 -16 -13 -24 3
-29 0 -27 -18 3 -25 -30 -58 -61 -61 -11 0 -30 -4 -41 -8 -15 -4 -28 1 -45 18
-14 13 -35 27 -46 31 -19 6 -22 2 -28 -41 -12 -86 -38 -104 -134 -89 -33 5
-44 3 -48 -9 -7 -17 -59 -21 -69 -5 -3 6 -13 10 -21 10 -23 0 -18 -57 6 -70
14 -7 20 -21 20 -45 0 -49 8 -64 49 -85 28 -14 40 -28 49 -58 6 -21 25 -51 42
-65 16 -15 30 -31 30 -36 0 -5 -18 -23 -39 -41 -34 -26 -40 -38 -43 -73 -3
-38 -5 -42 -28 -39 -23 3 -62 3 -154 2 -31 0 -47 7 -81 37 -23 21 -56 50 -73
65 -19 15 -32 36 -32 50 0 16 -11 28 -35 40 -22 11 -37 14 -41 7 -4 -6 -15 -4
-31 6 -14 9 -34 15 -44 12 -10 -3 -19 -1 -19 4 0 5 -12 14 -27 20 -16 7 -38
16 -50 22 -17 8 -32 4 -76 -21 -74 -42 -156 -47 -186 -11 -11 13 -20 27 -21
31 0 3 -13 11 -29 16 -17 6 -34 23 -42 41 -8 17 -17 31 -21 31 -5 0 -8 7 -8
15 0 8 -9 20 -20 27 -14 9 -20 24 -20 49 0 19 -3 38 -6 42 -10 10 -34 -4 -34
-21 0 -33 -43 -103 -72 -118 -41 -21 -68 -8 -102 51 -21 35 -27 57 -24 87 l3
41 -50 12 c-27 6 -60 17 -73 24 -13 7 -30 10 -39 7 -8 -3 -26 3 -40 14 -25 19
-25 19 -64 -3 -38 -21 -40 -21 -50 -4 -10 18 -12 18 -35 -4 -19 -18 -27 -20
-36 -11 -7 7 -19 12 -28 12 -17 0 -70 -45 -70 -60 0 -14 -34 -12 -65 2 -21 9
-29 9 -41 -4 -13 -13 -21 -13 -52 -2 -20 7 -59 13 -87 14 -27 0 -59 7 -69 15
-26 20 -55 19 -77 -1 -23 -21 -51 -12 -43 13 4 12 -2 8 -18 -9 -27 -30 -47
-35 -65 -17 -9 9 -20 6 -45 -9 -49 -29 -96 -38 -104 -18 -5 13 -14 15 -43 10
-20 -4 -40 -13 -44 -20 -10 -18 -56 -8 -80 17 -20 21 -26 22 -45 11 -7 -5 -43
-1 -80 9 -58 15 -67 20 -64 38 4 26 -46 50 -60 29 -4 -7 -8 -16 -8 -20 0 -14
-40 -18 -60 -6 -18 11 -29 9 -87 -22 -45 -23 -68 -30 -71 -22 -6 18 -27 14
-47 -8 -15 -16 -31 -20 -85 -20 -37 0 -84 -7 -103 -15 -20 -8 -49 -15 -64 -15
-15 0 -41 -7 -57 -15 -15 -8 -34 -15 -40 -15 -7 0 -33 -19 -57 -41 -24 -23
-64 -50 -89 -61 -50 -22 -60 -32 -60 -68 0 -14 -9 -40 -20 -58 -11 -18 -20
-47 -21 -65 0 -27 -9 -39 -62 -78 -53 -39 -65 -53 -80 -99 -10 -29 -27 -64
-37 -78 -11 -13 -20 -35 -20 -47 0 -19 -17 -31 -95 -70 -80 -40 -95 -51 -95
-71 0 -16 10 -29 33 -40 22 -12 27 -19 17 -22 -8 -3 -26 -13 -40 -22 -30 -21
-127 -31 -191 -21 -67 11 -87 -5 -70 -57 9 -26 11 -75 7 -161 -5 -113 -3 -126
14 -149 11 -13 20 -34 20 -46 0 -30 47 -116 81 -148 16 -15 29 -34 29 -42 0
-9 10 -26 21 -37 13 -13 17 -24 11 -28 -5 -3 -8 -31 -5 -61 2 -30 4 -67 4 -81
0 -15 9 -35 19 -47 16 -17 17 -26 9 -56 -5 -20 -14 -36 -19 -36 -15 0 -12 -76
3 -89 8 -6 28 -14 45 -17 17 -4 39 -15 48 -25 9 -11 20 -19 24 -19 17 0 127
-118 133 -142 5 -17 18 -30 37 -36 38 -14 40 -43 4 -71 -27 -21 -30 -36 -50
-213 -6 -52 -4 -60 30 -116 26 -43 36 -71 36 -100 0 -23 4 -44 10 -47 11 -7
44 -78 53 -115 3 -14 27 -52 52 -84 45 -58 50 -75 48 -171 0 -23 28 -76 42
-78 6 -1 12 12 13 28 6 54 37 72 60 35 11 -19 11 -19 -7 -8 -26 16 -30 11 -33
-39 -2 -23 -6 -39 -10 -36 -5 2 -13 1 -18 -2 -18 -11 10 -36 33 -29 11 3 27 7
36 9 9 1 19 15 22 31 7 29 10 22 13 -28 1 -14 8 -33 15 -42 12 -14 11 -16 -4
-10 -13 5 -16 3 -13 -7 3 -8 14 -14 26 -14 26 -1 47 -19 38 -34 -4 -6 -17 -11
-28 -11 -20 0 -20 -1 -5 -18 10 -10 17 -28 17 -39 0 -36 11 -53 35 -53 13 0
26 -7 29 -16 8 -22 8 -26 -4 -19 -18 11 -58 -23 -79 -65 -15 -32 -16 -40 -5
-40 31 0 70 -129 43 -145 -7 -5 -8 -29 -4 -69 4 -35 2 -72 -4 -88 -8 -21 -7
-31 5 -43 9 -8 20 -15 25 -15 6 0 7 -9 4 -21 -7 -21 -5 -22 45 -17 42 4 57 11
74 33 20 25 27 27 60 21 21 -4 48 -17 61 -30 12 -12 26 -21 31 -20 5 1 21 5
35 8 24 5 27 11 31 64 2 37 14 80 32 115 15 31 24 61 21 67 -4 6 -1 17 5 25 6
8 9 18 6 24 -3 5 3 7 14 4 11 -3 20 0 20 6 0 6 13 11 28 11 22 0 35 -10 60
-45 23 -33 38 -45 56 -45 30 0 38 -11 43 -63 2 -22 17 -66 33 -99 37 -73 38
-102 2 -135 -15 -14 -26 -30 -24 -35 1 -6 -3 -16 -9 -24 -8 -10 -8 -14 0 -14
6 0 11 -4 11 -10 0 -5 -23 -10 -51 -10 -64 0 -82 -10 -108 -61 -27 -50 -47
-72 -61 -64 -5 3 -10 2 -10 -3 0 -13 28 -25 66 -30 6 -1 17 -16 24 -33 11 -25
17 -29 36 -25 20 5 25 1 32 -26 8 -30 12 -33 43 -30 19 1 51 3 72 3 40 2 46
12 20 41 -9 10 -11 18 -5 18 6 0 14 -4 17 -10 3 -5 26 -10 51 -10 33 0 46 4
51 17 4 10 14 28 24 41 14 18 17 34 12 74 -5 39 -3 49 6 44 7 -5 10 -14 7 -22
-3 -8 1 -14 10 -14 9 0 22 -17 31 -39 11 -29 22 -40 42 -44 14 -2 55 -12 89
-22 41 -11 83 -15 117 -11 42 4 55 2 59 -10 5 -13 8 -13 28 0 12 9 32 16 44
16 26 0 64 -43 64 -72 0 -17 5 -19 38 -13 32 5 41 2 62 -19 13 -15 32 -26 42
-26 10 0 18 -4 18 -9 0 -4 19 -11 42 -14 45 -6 57 3 127 94 l25 32 100 -9
c128 -10 214 -8 232 7 7 6 30 35 49 65 31 46 49 61 116 94 87 44 96 60 59 107
-11 14 -20 34 -20 45 0 10 -7 33 -16 49 -14 28 -14 33 2 57 17 28 53 61 67 62
4 0 7 -11 7 -24 0 -18 4 -23 18 -19 10 2 43 -5 73 -16 30 -12 66 -21 81 -21
14 0 40 -11 56 -25 39 -32 49 -32 57 5 4 17 19 40 35 52 16 11 31 29 33 39 5
20 37 27 37 8 0 -6 6 -9 14 -6 7 3 18 1 22 -3 14 -14 183 24 242 54 65 33 105
34 119 4 6 -13 27 -43 47 -66 22 -27 36 -54 36 -71 0 -20 7 -31 25 -39 32 -15
55 -15 55 -1 0 6 8 21 19 34 l18 24 29 -30 c46 -48 107 -79 156 -79 25 0 54
-7 68 -17 21 -15 23 -15 17 0 -3 8 -11 35 -17 59 -7 24 -18 52 -25 64 -7 11
-13 37 -13 58 0 38 0 38 34 33 19 -3 34 -3 34 1 0 23 -33 108 -47 124 -20 22
-31 23 -55 1 -10 -9 -18 -11 -18 -5 0 5 -22 27 -50 47 -28 20 -50 43 -50 50 0
18 -39 45 -66 45 -25 0 -49 25 -58 62 -3 15 -15 30 -27 33 -18 6 -20 12 -14
63 4 32 11 69 16 83 7 17 6 35 -1 53 -5 15 -10 45 -10 66 0 35 -3 39 -35 50
-19 6 -35 15 -35 20 0 5 -3 15 -6 24 -4 10 -1 16 9 16 8 0 20 14 26 30 11 34
31 38 75 15 38 -20 65 -19 73 3 3 9 13 25 22 36 9 10 21 34 26 55 13 45 49 53
101 21 26 -17 43 -20 69 -16 19 4 36 2 40 -4 3 -5 18 -10 33 -10 16 0 39 -12
59 -32 33 -31 34 -32 79 -20 38 10 49 10 67 -3 25 -17 67 -20 67 -4 0 6 -8 23
-19 37 -28 41 -29 54 -10 92 11 19 16 42 14 52 -4 10 1 20 11 26 16 9 14 15
-14 66 l-32 56 27 6 c18 5 30 2 38 -10 14 -19 32 -21 37 -5 5 15 117 20 141 7
13 -7 23 -6 30 1 6 6 16 7 27 1 32 -17 59 1 91 59 l32 58 101 -1 c101 -1 102
-1 146 33 66 51 120 103 120 117 0 7 9 16 20 19 11 4 27 19 35 34 11 22 32 34
102 59 119 43 132 42 179 -14 42 -48 70 -52 76 -11 2 13 17 29 36 39 51 25 72
48 72 78 0 15 8 45 17 66 17 39 24 85 24 159 0 63 -6 124 -14 131 -4 4 -7 35
-7 69 0 56 -3 65 -35 102 -19 23 -35 51 -35 63 0 12 -5 31 -11 42 -8 15 -8 27
2 44 11 21 10 26 -5 37 -16 12 -10 29 72 222 l89 210 -6 97 c-5 80 -10 101
-28 120 -11 13 -35 54 -52 92 -17 38 -49 87 -71 109 -38 39 -39 43 -36 96 1
31 6 64 11 74 5 11 2 24 -8 35 -8 9 -17 33 -19 52 -3 34 -4 35 -42 32 -46 -4
-56 7 -56 62 0 25 -6 43 -17 51 -16 12 -15 19 10 97 29 90 32 122 18 162 -8
19 -6 30 10 49 10 14 19 32 19 40 0 24 27 42 44 28 7 -6 20 -9 29 -5 19 7 81
160 73 181 -4 9 3 31 14 49 18 32 19 94 1 94 -3 0 -19 -16 -34 -35z"/>
<path d="M934 2006 c-3 -8 2 -28 10 -45 18 -34 21 -60 6 -62 -5 -1 -16 -2 -22
-3 -9 -1 -12 -15 -11 -41 1 -22 3 -58 3 -80 1 -59 8 -75 35 -75 19 0 24 7 29
38 8 47 0 130 -14 146 -7 10 -6 17 6 27 19 16 13 71 -10 94 -18 19 -25 19 -32
1z"/>
</g>
</svg>
