<?xml version="1.0" standalone="no"?>
<!DOCTYPE svg PUBLIC "-//W3C//DTD SVG 20010904//EN"
 "http://www.w3.org/TR/2001/REC-SVG-20010904/DTD/svg10.dtd">
<svg version="1.0" xmlns="http://www.w3.org/2000/svg"
 width="715.000000pt" height="1024.000000pt" viewBox="0 0 715.000000 1024.000000"
 preserveAspectRatio="xMidYMid meet">
<metadata>
Created by potrace 1.16, written by Peter Selinger 2001-2019
</metadata>
<g transform="translate(0.000000,1024.000000) scale(0.100000,-0.100000)"
fill="#000000" stroke="none">
<path d="M5456 10206 c-28 -52 -59 -61 -130 -36 -49 17 -63 18 -85 7 -31 -15
-37 -38 -21 -87 10 -32 10 -43 -5 -74 -10 -20 -31 -46 -47 -57 -25 -19 -28
-25 -22 -57 14 -76 36 -92 158 -111 118 -19 132 -26 176 -92 22 -32 49 -64 61
-72 19 -14 20 -17 5 -46 -10 -18 -16 -54 -16 -88 1 -106 -11 -197 -28 -216
-16 -18 -15 -22 11 -68 17 -31 27 -64 27 -89 l0 -40 -172 -115 c-188 -125
-186 -124 -302 -105 -73 12 -91 3 -117 -56 -11 -24 -38 -64 -60 -90 -45 -53
-69 -96 -94 -174 -33 -102 -74 -168 -137 -216 -60 -47 -66 -59 -47 -112 9 -25
7 -37 -11 -73 -45 -87 -52 -118 -38 -177 l12 -55 -36 -31 c-20 -17 -59 -50
-87 -74 -28 -24 -51 -49 -51 -55 0 -7 -11 -33 -25 -59 -30 -57 -31 -68 -5
-118 27 -52 25 -86 -6 -149 -38 -75 -82 -114 -153 -134 -103 -29 -151 -88
-151 -187 0 -31 -10 -74 -25 -111 -30 -74 -43 -141 -51 -267 -7 -87 -9 -97
-35 -119 -15 -14 -33 -38 -39 -54 -16 -37 -36 -42 -121 -34 -81 8 -89 4 -124
-65 -18 -35 -40 -57 -89 -89 -36 -23 -70 -51 -76 -61 -5 -10 -10 -48 -10 -85
0 -69 -17 -118 -45 -129 -22 -8 -45 -68 -45 -118 -1 -42 -10 -63 -110 -242
-28 -51 -33 -70 -37 -150 -5 -90 -6 -92 -54 -158 -26 -37 -64 -102 -84 -145
-30 -65 -35 -85 -30 -120 l6 -42 -70 -40 c-78 -46 -132 -103 -166 -174 -19
-41 -21 -54 -13 -98 13 -70 6 -90 -39 -114 -21 -11 -64 -46 -95 -78 l-57 -58
-33 17 c-23 13 -57 18 -113 19 l-79 0 -13 45 c-17 57 -30 70 -105 100 -78 31
-118 83 -126 160 -4 46 -9 55 -42 78 -21 15 -52 35 -69 44 -16 9 -51 46 -77
82 -26 36 -51 66 -56 66 -4 0 -10 -10 -12 -22 -31 -148 -39 -178 -55 -192 -20
-18 -227 -69 -242 -60 -5 3 -6 24 -3 47 5 43 -18 107 -42 114 -11 4 -192 -140
-249 -197 -22 -22 -39 -30 -66 -30 -20 0 -42 -6 -48 -14 -7 -8 -21 -50 -31
-94 -25 -103 -49 -155 -69 -147 -48 19 -69 17 -82 -6 -17 -33 -28 -39 -75 -39
-46 0 -84 -31 -84 -68 0 -14 -7 -23 -22 -26 -85 -17 -82 -14 -118 -112 -11
-29 -262 -256 -388 -349 -61 -46 -69 -63 -48 -104 9 -17 16 -48 16 -70 0 -33
6 -46 30 -68 37 -33 37 -47 1 -153 -19 -57 -30 -115 -34 -177 -3 -52 -12 -103
-21 -120 -8 -15 -53 -69 -99 -120 -64 -70 -89 -106 -106 -152 -12 -33 -26 -63
-31 -66 -6 -4 -10 -17 -10 -29 0 -25 28 -49 72 -59 18 -5 35 -23 56 -59 31
-55 78 -106 88 -96 3 4 -2 34 -10 68 -21 80 -20 87 5 64 20 -18 21 -18 34 -1
12 16 13 16 18 -5 2 -13 8 -32 12 -43 8 -20 7 -20 -7 -1 -17 22 -48 16 -48 -9
0 -22 57 -78 71 -70 6 4 8 13 5 21 -4 11 -1 12 17 1 12 -6 23 -12 25 -13 1 -1
-7 -21 -18 -45 -28 -63 -26 -115 10 -185 17 -32 35 -86 41 -118 5 -33 17 -72
26 -86 22 -38 91 -80 130 -80 22 0 36 -6 43 -20 14 -25 48 -25 80 0 16 12 41
20 67 20 44 0 103 38 103 66 0 20 4 18 56 -21 53 -41 83 -44 133 -13 l36 23
-19 -30 c-11 -17 -25 -39 -33 -51 -13 -20 -11 -22 29 -38 24 -9 51 -23 61 -30
18 -14 16 -17 -22 -55 -23 -23 -41 -45 -41 -51 0 -15 -34 -12 -56 6 -17 14
-17 15 -1 10 25 -8 57 11 57 33 0 9 -12 28 -26 42 l-26 24 -19 -24 c-11 -14
-17 -31 -14 -42 5 -14 2 -17 -9 -13 -25 10 -20 -8 33 -108 l48 -93 44 -5 43
-5 -26 -17 c-15 -10 -32 -18 -37 -18 -31 0 -14 -30 57 -105 82 -84 115 -138
159 -254 32 -87 33 -139 1 -241 -30 -96 -52 -200 -52 -245 0 -16 5 -98 11
-181 12 -171 29 -225 84 -267 59 -44 105 -50 324 -43 110 3 358 2 550 -3 193
-4 363 -4 379 0 15 5 49 28 76 53 78 73 201 86 296 30 44 -26 47 -26 102 -13
39 9 97 12 182 9 247 -8 373 -6 423 10 45 14 50 13 90 -7 40 -21 48 -22 207
-13 91 4 188 13 215 19 28 6 91 12 140 13 l90 3 3 -54 3 -54 242 6 c133 4 362
10 509 14 l266 6 25 -26 c13 -15 26 -27 29 -27 3 0 24 18 47 40 45 43 65 48
96 26 23 -16 174 -76 192 -76 7 0 18 11 26 25 l13 26 27 -21 c20 -16 27 -31
27 -55 0 -21 6 -35 16 -39 25 -10 32 -7 58 20 l24 27 26 -28 c24 -26 29 -27
88 -21 58 6 69 4 131 -25 65 -30 72 -31 150 -24 68 5 104 2 205 -19 135 -28
171 -44 196 -87 10 -17 41 -40 80 -59 42 -20 76 -45 100 -75 44 -53 56 -56 56
-15 0 27 4 30 40 36 49 8 52 27 15 106 -14 29 -25 62 -25 74 0 11 -14 42 -32
68 -28 44 -30 50 -18 70 8 11 17 46 20 76 5 52 7 56 40 66 49 16 59 48 36 121
-10 32 -30 78 -44 102 -23 39 -26 56 -27 150 -1 86 -5 114 -22 146 l-21 40 20
39 c27 54 18 97 -30 136 -117 95 -156 117 -234 134 -40 9 -79 46 -186 179
-337 421 -402 543 -418 792 -4 50 -12 100 -20 111 -17 28 -164 142 -285 220
-53 35 -99 70 -103 79 -3 9 -3 63 1 121 4 74 2 116 -7 144 -12 37 -11 42 13
77 24 35 26 43 20 117 -6 77 -7 79 -55 127 -26 26 -48 53 -48 59 0 6 12 39 26
73 25 58 26 66 15 122 -9 43 -9 75 -1 114 15 81 12 144 -11 213 -28 87 -46
108 -98 115 -36 5 -49 13 -82 56 -33 41 -37 52 -27 65 20 24 133 95 226 141
68 34 86 48 98 76 8 19 14 42 14 51 0 9 16 51 35 94 19 43 43 118 54 169 10
50 24 98 32 107 7 8 39 29 70 45 32 16 69 43 82 61 33 44 85 168 103 248 14
60 20 70 83 130 134 127 221 262 221 342 0 41 -34 89 -81 113 -36 19 -47 41
-71 135 -10 41 -49 140 -87 220 -37 80 -88 194 -112 255 -53 136 -84 171 -157
185 -46 8 -60 18 -120 77 -37 38 -122 106 -190 151 -82 56 -131 96 -147 122
-27 43 -61 70 -86 70 -10 0 -32 12 -49 27 -28 23 -31 31 -26 61 8 50 -13 82
-86 132 -35 24 -94 73 -133 110 -38 36 -85 72 -102 79 -18 8 -33 16 -33 20 0
3 29 32 64 63 50 45 68 69 85 116 26 69 50 94 105 112 46 15 163 9 281 -14
139 -27 463 -13 558 23 43 16 89 13 117 -9 17 -13 40 -19 70 -19 53 1 202 40
207 55 2 6 -19 20 -46 32 -80 37 -125 75 -206 177 -42 54 -107 129 -145 169
-72 76 -93 110 -105 166 -4 19 -20 78 -37 130 -37 116 -35 164 10 234 40 62
40 89 2 177 -49 115 -53 142 -34 203 16 51 16 55 -5 116 -20 56 -21 68 -10
116 10 44 10 59 -1 82 -13 26 -24 81 -38 192 -6 51 -10 56 -45 75 -46 24 -65
66 -77 171 -5 39 -21 115 -36 168 -24 85 -30 96 -50 96 -13 0 -26 5 -29 11 -4
6 -37 30 -74 53 -54 35 -70 52 -90 94 -14 29 -27 52 -30 52 -4 0 -15 -15 -25
-34z"/>
<path d="M80 2831 c0 -4 -15 -12 -32 -17 -36 -10 -51 -50 -26 -65 10 -6 10
-11 0 -21 -6 -6 -12 -23 -12 -36 0 -21 4 -23 25 -18 18 5 31 0 46 -15 25 -25
79 -21 110 7 19 17 19 18 0 38 -10 12 -21 37 -25 56 -7 40 -41 80 -68 80 -10
0 -18 -4 -18 -9z"/>
</g>
</svg>
