<?xml version="1.0" standalone="no"?>
<!DOCTYPE svg PUBLIC "-//W3C//DTD SVG 20010904//EN"
 "http://www.w3.org/TR/2001/REC-SVG-20010904/DTD/svg10.dtd">
<svg version="1.0" xmlns="http://www.w3.org/2000/svg"
 width="1024.000000pt" height="833.000000pt" viewBox="0 0 1024.000000 833.000000"
 preserveAspectRatio="xMidYMid meet">
<metadata>
Created by potrace 1.16, written by Peter Selinger 2001-2019
</metadata>
<g transform="translate(0.000000,833.000000) scale(0.100000,-0.100000)"
fill="#000000" stroke="none">
<path d="M4561 8315 c-136 -25 -232 -88 -324 -215 -85 -117 -104 -139 -148
-176 -60 -50 -79 -81 -79 -133 0 -33 7 -52 30 -80 54 -66 75 -84 128 -108 57
-27 60 -43 6 -43 -52 0 -101 25 -148 75 -25 26 -55 47 -73 51 -27 5 -33 2 -52
-29 -16 -26 -22 -51 -22 -94 0 -32 0 -81 -1 -109 -1 -34 6 -66 21 -96 18 -38
30 -49 72 -66 l50 -21 -14 -33 c-20 -49 -5 -89 53 -141 64 -58 98 -70 136 -50
51 26 74 54 74 90 0 45 17 42 25 -6 6 -39 7 -39 61 -46 l55 -7 -3 -36 c-3 -37
-4 -37 -51 -40 -62 -4 -68 -20 -28 -84 29 -46 31 -54 20 -80 -6 -15 -15 -28
-19 -28 -4 0 -13 -14 -20 -31 -20 -47 -51 -62 -118 -57 -44 3 -67 11 -95 32
-35 27 -42 28 -108 24 -79 -6 -93 -14 -84 -51 9 -32 101 -83 170 -92 27 -3 57
-13 67 -22 20 -18 48 -96 48 -133 0 -47 32 -122 64 -151 33 -30 64 -36 96 -19
14 8 30 6 56 -5 53 -22 72 -19 159 25 53 27 92 40 119 40 24 0 64 12 96 28 48
24 59 35 89 93 34 65 34 67 18 93 -10 14 -36 38 -59 54 -33 21 -53 27 -98 27
-51 -1 -66 -6 -154 -59 -53 -33 -99 -63 -102 -68 -10 -15 -59 -8 -111 17 -49
22 -53 27 -53 59 0 51 9 66 40 66 15 0 47 7 70 15 23 8 58 15 76 15 26 0 45
10 78 40 48 44 75 49 114 21 34 -24 64 -33 78 -23 16 10 39 59 54 114 11 42
10 51 -4 73 -11 16 -26 25 -42 25 -25 0 -26 2 -20 43 4 23 9 66 12 95 3 29 16
71 28 93 19 34 22 47 15 95 -4 31 -18 72 -32 92 -13 21 -32 52 -41 70 l-17 33
45 77 45 77 -6 100 c-3 55 0 146 6 202 14 115 1 285 -25 335 -30 57 -85 68
-223 43z"/>
<path d="M3746 7421 c-10 -11 -20 -38 -23 -60 -5 -37 -3 -41 21 -51 36 -13 34
-14 56 23 25 40 25 69 2 90 -24 22 -35 21 -56 -2z"/>
<path d="M3548 7209 c-35 -13 -41 -34 -23 -72 8 -18 14 -50 13 -71 -2 -47 15
-62 81 -72 47 -7 101 -48 101 -77 0 -23 22 -26 63 -10 32 13 37 20 37 47 0 39
-81 180 -113 197 -12 7 -37 25 -55 40 -34 30 -59 34 -104 18z"/>
<path d="M3868 7133 c-19 -22 -31 -70 -19 -77 5 -3 12 -23 16 -43 9 -49 21
-63 56 -63 50 0 77 19 82 59 5 39 -8 67 -51 114 -29 31 -62 35 -84 10z"/>
<path d="M3233 7087 c-24 -11 -43 -24 -43 -27 0 -11 70 -40 98 -40 49 0 72 12
79 38 13 52 -58 68 -134 29z"/>
<path d="M3117 6994 c-15 -15 -7 -65 14 -82 12 -9 33 -29 47 -44 38 -42 90
-39 131 7 36 41 49 81 32 98 -7 7 -45 12 -94 12 -45 1 -91 4 -102 8 -11 5 -24
5 -28 1z"/>
<path d="M3983 6928 c-21 -10 -33 -35 -33 -70 0 -15 9 -18 54 -18 65 0 89 18
84 64 -3 29 -6 31 -43 33 -22 1 -50 -3 -62 -9z"/>
<path d="M2915 6886 c-22 -7 -61 -28 -87 -47 -25 -19 -65 -45 -88 -59 -65 -39
-80 -57 -80 -96 0 -37 12 -46 83 -59 29 -6 40 -2 71 26 36 31 39 32 72 20 32
-12 39 -11 72 12 29 20 44 42 70 106 27 66 32 84 22 96 -15 18 -79 19 -135 1z"/>
<path d="M3508 6893 c-26 -7 -32 -55 -12 -97 15 -30 23 -36 50 -36 38 0 57 20
56 60 -2 60 -37 88 -94 73z"/>
<path d="M3312 6673 c-6 -10 -15 -52 -22 -94 -7 -42 -16 -83 -20 -90 -15 -23
-54 5 -99 73 -33 51 -52 68 -92 87 l-50 23 -54 -26 c-29 -15 -57 -32 -63 -39
-5 -6 -13 -48 -17 -92 l-7 -80 39 -15 c21 -8 61 -17 88 -20 44 -4 50 -8 53
-31 2 -16 -6 -35 -23 -53 -30 -32 -32 -57 -7 -79 35 -32 117 -15 187 38 43 33
50 35 123 35 87 0 97 5 136 67 25 42 34 105 18 129 -10 16 -48 34 -71 34 -14
0 -24 12 -36 48 -25 72 -39 97 -57 100 -9 2 -21 -5 -26 -15z"/>
<path d="M3736 6645 c-60 -22 -73 -23 -112 -13 -38 11 -46 10 -61 -4 -24 -25
-20 -71 11 -118 36 -54 80 -80 137 -80 l46 0 7 -50 c8 -63 30 -75 102 -57 59
15 62 22 63 175 1 113 1 114 -28 143 -36 36 -70 37 -165 4z"/>
<path d="M4025 6446 c-32 -31 -36 -39 -33 -77 3 -41 6 -44 58 -71 73 -37 104
-34 108 10 7 66 -46 172 -84 172 -7 0 -29 -15 -49 -34z"/>
<path d="M3558 6363 c-48 -53 -46 -89 7 -99 46 -8 73 2 90 36 8 16 15 31 15
34 0 6 -72 56 -80 56 -4 0 -18 -12 -32 -27z"/>
<path d="M2436 6373 c-3 -3 -6 -32 -6 -64 0 -49 -5 -64 -34 -105 -19 -27 -53
-79 -75 -115 -22 -36 -58 -82 -81 -103 l-41 -37 37 -51 c46 -65 73 -125 74
-162 l0 -29 58 6 c31 2 68 10 82 17 14 6 54 49 90 95 63 82 122 135 182 165
17 8 63 31 102 50 59 29 72 40 74 62 6 55 -55 131 -121 149 -25 7 -60 28 -88
54 -27 26 -63 48 -85 53 -53 13 -160 23 -168 15z"/>
<path d="M4935 6290 c-33 -9 -89 -32 -123 -50 -55 -28 -69 -32 -110 -26 -66 9
-61 10 -122 -7 -42 -11 -58 -21 -71 -43 -64 -116 -69 -267 -13 -419 12 -32 26
-46 70 -70 64 -35 67 -54 10 -70 -22 -7 -41 -16 -43 -21 -6 -17 40 -77 77
-102 34 -23 40 -24 150 -17 63 3 138 11 165 16 28 5 95 13 150 18 115 9 150
24 212 87 40 41 44 43 70 32 15 -6 42 -22 59 -34 18 -13 60 -33 95 -45 35 -12
85 -32 111 -45 26 -13 60 -24 76 -24 47 0 101 -28 177 -91 90 -74 99 -91 91
-166 -4 -32 -9 -89 -13 -126 l-5 -68 46 -42 c25 -24 46 -47 46 -53 0 -17 -62
-71 -112 -97 -26 -14 -78 -31 -116 -37 l-69 -13 -1 -79 c-2 -113 13 -138 83
-138 45 0 69 13 135 75 53 50 132 80 194 73 48 -6 289 -98 400 -154 25 -12 41
-12 120 1 120 20 355 80 370 95 21 22 -27 44 -200 94 -93 26 -173 53 -179 58
-6 6 28 7 96 2 83 -5 117 -3 161 10 31 9 65 16 76 16 35 0 35 17 1 91 -24 51
-49 85 -94 127 -56 53 -156 112 -188 112 -31 0 -175 43 -204 61 -37 23 -73 76
-73 108 0 16 6 21 26 21 35 0 176 -37 218 -57 27 -12 49 -14 110 -8 77 7 77 7
71 33 -3 15 -10 70 -15 122 -11 105 -32 206 -48 237 -10 18 -24 20 -154 26
-79 3 -208 3 -288 0 -166 -6 -221 3 -247 43 -16 25 -15 28 6 68 13 23 22 51
20 61 -6 28 -134 121 -194 141 -27 9 -81 20 -120 24 -38 4 -101 19 -140 34
-54 20 -89 26 -151 26 -76 0 -85 2 -132 34 -41 28 -62 34 -116 38 -73 4 -85
11 -69 37 16 26 -4 62 -47 83 -45 23 -153 22 -235 -2z"/>
<path d="M4215 6183 c-120 -14 -141 -43 -125 -164 6 -45 15 -92 21 -106 5 -13
9 -68 9 -121 0 -90 -2 -101 -27 -137 -25 -36 -28 -51 -31 -142 -4 -91 -2 -107
21 -155 20 -44 36 -62 87 -96 34 -23 68 -42 75 -42 33 0 45 -36 49 -142 4
-105 4 -106 -26 -142 -16 -20 -39 -36 -50 -36 -12 0 -49 16 -84 35 -34 19 -73
35 -86 35 -27 0 -82 -52 -92 -87 -7 -21 -49 -40 -127 -57 -44 -10 -226 32
-278 64 -25 15 -60 31 -77 34 -29 6 -32 11 -37 52 -2 25 -6 47 -9 49 -2 2 -38
7 -80 11 -76 7 -77 6 -107 -24 -66 -65 -28 -94 88 -68 86 20 91 20 91 1 0 -8
-19 -23 -43 -33 -47 -21 -94 -70 -103 -108 -8 -31 -28 -30 -66 2 -17 14 -54
37 -82 51 -46 23 -54 25 -99 14 -127 -29 -269 -4 -295 54 -11 24 -10 30 12 56
36 42 41 80 16 121 -16 28 -34 40 -93 62 -39 15 -82 31 -93 36 -12 5 -74 58
-137 119 -79 76 -132 118 -169 134 -29 14 -66 38 -82 56 -35 37 -43 38 -71 11
-12 -12 -38 -23 -57 -26 -31 -6 -36 -3 -46 22 -21 54 -32 109 -32 158 0 45 -1
48 -22 42 -13 -4 -86 -9 -163 -13 -128 -5 -149 -3 -246 20 -117 28 -146 26
-220 -21 -59 -36 -70 -25 -146 153 -30 71 -84 145 -104 145 -10 0 -41 -46
-416 -597 -113 -167 -195 -287 -543 -795 l-121 -178 23 -30 c12 -17 32 -37 45
-46 69 -44 100 -133 106 -304 l2 -75 45 3 c25 1 74 14 109 28 83 33 89 27 106
-102 7 -55 20 -151 28 -214 9 -63 18 -177 22 -253 6 -145 16 -185 65 -278 55
-104 39 -171 -65 -279 -69 -72 -72 -78 -89 -154 -13 -53 -16 -95 -12 -130 9
-67 44 -195 62 -226 51 -87 57 -112 56 -231 l-1 -117 58 -88 c42 -64 71 -96
101 -114 80 -47 100 -71 109 -126 4 -28 25 -82 46 -120 22 -38 48 -87 58 -109
38 -78 65 -112 94 -119 15 -4 93 -27 173 -51 201 -62 566 -147 810 -190 452
-78 682 -115 820 -130 198 -22 608 -44 820 -45 226 0 720 25 880 45 171 20
270 19 366 -5 146 -37 355 -67 409 -58 28 4 100 11 161 17 61 5 121 15 133 22
12 8 43 42 67 77 39 53 57 68 124 102 110 55 159 55 238 1 33 -24 88 -49 132
-61 41 -12 81 -27 89 -34 8 -6 45 -51 81 -101 129 -173 159 -191 337 -206 136
-11 170 -22 220 -69 25 -24 33 -42 44 -102 18 -104 15 -215 -9 -348 -26 -139
-28 -198 -7 -206 21 -8 101 41 157 97 26 26 74 65 105 85 32 21 97 77 146 125
79 80 87 92 87 126 0 55 17 106 43 131 12 12 63 41 112 65 89 44 91 45 132
119 24 40 54 102 68 137 44 113 88 159 222 234 65 36 143 75 173 86 77 29 149
95 188 173 29 59 30 67 21 118 -29 168 -37 283 -23 356 5 30 9 33 34 28 29 -6
49 8 81 55 35 54 120 -11 194 -148 27 -50 55 -91 61 -91 7 0 25 -11 41 -23 56
-47 120 -43 204 13 39 25 50 40 74 102 51 131 93 141 79 19 -4 -42 -8 -121 -8
-176 -1 -120 14 -157 69 -175 33 -11 40 -9 74 13 41 27 53 56 67 165 7 57 74
184 123 237 16 17 38 60 51 100 12 39 39 100 60 136 21 36 42 78 46 95 11 45
42 114 59 131 10 9 15 28 13 47 -4 37 -41 59 -100 59 -32 0 -41 4 -53 27 -8
15 -30 41 -50 59 -29 25 -40 30 -51 20 -20 -17 -17 -65 11 -144 47 -134 15
-215 -114 -284 -56 -30 -64 -31 -172 -31 -90 0 -123 4 -154 19 -56 26 -95 71
-106 122 -13 62 -30 99 -43 99 -7 0 -23 -12 -35 -26 -12 -14 -24 -24 -27 -21
-2 2 7 34 21 71 30 80 32 151 6 185 -27 36 -97 34 -178 -3 -35 -16 -63 -32
-63 -35 0 -4 -27 -35 -60 -70 -33 -35 -75 -89 -92 -120 -17 -31 -49 -77 -71
-102 -28 -34 -47 -75 -71 -148 -18 -56 -37 -105 -41 -109 -10 -10 4 216 17
258 6 19 22 48 35 64 45 54 66 108 68 177 3 96 28 162 68 181 17 8 52 32 77
53 25 21 70 54 100 73 30 19 73 51 95 72 22 21 87 63 145 95 180 98 230 162
230 294 0 117 14 169 61 226 62 74 87 124 100 196 19 106 10 130 -89 231 l-86
88 -97 0 -97 0 -52 44 -52 44 -76 -28 c-42 -16 -90 -34 -107 -40 -41 -16 -343
-5 -405 15 -32 11 -52 26 -70 53 -55 83 -97 111 -330 221 -103 48 -279 144
-350 190 l-65 42 -3 -27 c-5 -38 27 -173 50 -212 16 -25 19 -45 15 -95 -7 -89
-30 -178 -49 -190 -11 -8 -39 -6 -95 6 -43 8 -107 21 -143 26 -36 6 -76 19
-90 29 -46 34 -120 193 -120 258 0 11 -65 2 -92 -12 -43 -22 -152 -13 -188 16
-40 32 -80 46 -170 60 l-84 13 -41 -46 c-49 -56 -77 -67 -164 -67 -37 0 -83
-5 -102 -11 -75 -25 -77 -69 -9 -163 37 -51 50 -78 50 -103 0 -46 21 -83 80
-142 28 -28 54 -61 59 -74 20 -52 23 -132 7 -200 -9 -38 -16 -74 -16 -81 0
-12 67 -47 170 -89 58 -24 138 -94 169 -149 34 -59 56 -167 48 -236 -6 -51
-100 -251 -154 -325 l-35 -47 54 -58 c29 -32 67 -85 85 -118 18 -33 59 -95 91
-137 l59 -76 5 -93 c5 -81 3 -97 -13 -120 -11 -14 -32 -29 -48 -33 -42 -9
-158 19 -226 55 -126 67 -192 161 -255 362 -21 68 -43 136 -49 152 l-11 28
-178 -7 -177 -7 -130 35 c-92 25 -146 45 -181 69 -92 62 -261 98 -464 98
l-127 0 -40 83 c-22 45 -46 96 -52 114 -19 48 -50 63 -129 63 -100 0 -107 10
-99 142 6 118 53 351 91 452 28 74 74 155 110 196 38 42 92 152 99 198 6 51
18 66 103 128 73 54 79 66 94 215 6 52 15 111 20 130 6 18 10 51 10 71 0 20 5
60 11 89 l11 51 35 -5 c20 -4 43 -13 53 -22 9 -8 21 -15 26 -15 8 0 41 48 101
148 8 13 30 41 49 62 33 36 35 42 29 83 -5 33 -18 57 -46 88 -22 24 -51 63
-66 87 -25 42 -25 46 -13 98 13 52 12 55 -11 81 -13 14 -51 44 -84 65 -55 36
-64 39 -107 33 -60 -7 -138 -40 -138 -57 0 -7 12 -31 26 -52 29 -42 29 -24 3
-251 -6 -49 -14 -116 -17 -148 l-7 -59 -27 22 c-31 24 -58 101 -58 165 0 106
-60 185 -139 185 -37 0 -41 -3 -41 -24 0 -39 -15 -39 -56 0 -22 20 -54 46 -73
58 -32 20 -34 25 -38 91 -4 63 -8 74 -41 113 -78 92 -135 168 -148 200 -21 48
-4 139 45 237 22 44 48 105 57 136 16 54 16 57 -4 102 -20 46 -22 47 -64 46
-24 -1 -56 -4 -73 -6z"/>
<path d="M3847 6101 c-26 -17 -59 -34 -75 -37 -34 -9 -42 -20 -42 -61 0 -24 8
-38 36 -61 45 -37 45 -75 0 -80 -16 -2 -33 1 -39 7 -6 6 -29 11 -50 11 l-40 0
6 -41 c5 -41 57 -109 83 -109 23 0 90 -63 120 -113 17 -29 38 -54 48 -55 10
-2 32 10 50 26 17 16 41 35 53 41 33 17 63 89 63 154 0 59 -12 98 -41 132 -11
13 -18 43 -21 87 -7 121 -60 156 -151 99z"/>
<path d="M3440 6058 c-37 -40 -37 -68 -1 -100 26 -23 40 -28 82 -28 l52 0 -6
47 c-4 38 -12 53 -38 75 -40 34 -62 35 -89 6z"/>
<path d="M2865 6001 c-33 -9 -90 -31 -128 -48 -51 -25 -67 -37 -67 -53 0 -23
-24 -76 -48 -103 -24 -27 0 -93 44 -119 42 -25 44 -44 4 -53 -34 -7 -50 -31
-50 -72 1 -55 19 -64 165 -89 132 -22 193 -44 203 -73 6 -17 -19 -12 -104 20
l-61 23 -88 -22 c-49 -12 -92 -25 -97 -30 -17 -17 5 -71 46 -113 30 -31 58
-49 98 -62 31 -9 61 -23 67 -31 6 -8 14 -44 18 -80 l6 -66 54 -16 c37 -11 82
-15 136 -12 71 3 91 8 154 41 40 20 77 37 84 37 6 0 28 14 49 30 21 17 41 30
45 30 4 0 29 -16 55 -35 63 -46 119 -65 195 -65 80 0 111 21 101 67 -4 18 -14
37 -22 44 -24 20 -17 53 17 73 27 16 30 22 27 64 -3 46 -3 46 -52 58 -53 14
-133 74 -154 117 -7 15 -17 64 -21 109 -5 46 -17 106 -26 133 -9 28 -26 82
-38 120 -22 74 -66 132 -102 135 -59 6 -58 8 -51 -97 4 -54 9 -118 12 -143 5
-49 -8 -82 -26 -64 -5 5 -24 50 -41 100 -37 109 -53 125 -117 117 -41 -4 -52
-2 -78 20 -16 14 -46 27 -65 29 -33 3 -34 4 -37 51 -4 55 -9 56 -107 28z"/>
<path d="M5635 5352 c-42 -15 -55 -29 -63 -73 -15 -81 17 -139 78 -139 52 0
103 36 114 82 8 31 5 45 -15 85 -22 42 -29 48 -60 50 -18 1 -43 -2 -54 -5z"/>
<path d="M5123 4599 c-41 -15 -62 -64 -58 -138 1 -36 8 -78 15 -93 9 -19 10
-35 3 -55 -13 -35 -5 -135 11 -145 6 -4 34 -5 62 -2 l51 6 16 -41 c12 -28 23
-41 36 -41 26 0 37 17 50 78 22 107 65 153 123 133 18 -7 68 -15 110 -18 73
-6 79 -5 97 18 11 13 20 38 21 55 0 34 1 34 -145 100 -44 19 -114 47 -155 61
-41 14 -97 36 -123 50 -73 36 -90 41 -114 32z"/>
<path d="M5818 4414 c-15 -16 -15 -20 9 -55 22 -34 31 -39 63 -39 39 0 80 32
80 63 0 42 -117 66 -152 31z"/>
<path d="M5484 4130 c-46 -37 -52 -50 -53 -107 -1 -49 16 -93 36 -93 19 0 119
106 134 142 33 80 -42 117 -117 58z"/>
<path d="M5793 4140 c-21 -8 -23 -16 -23 -79 0 -68 1 -70 34 -90 41 -26 63
-27 70 -3 10 36 16 147 9 158 -11 17 -64 24 -90 14z"/>
<path d="M9225 3650 c-33 -65 -33 -133 0 -257 14 -53 30 -103 34 -112 20 -37
81 -225 81 -250 0 -15 9 -52 20 -84 11 -31 20 -82 20 -112 0 -42 4 -57 16 -62
23 -9 100 36 130 75 14 18 49 44 77 58 59 30 86 58 122 126 14 26 35 53 47 59
20 11 26 7 63 -35 30 -33 48 -46 68 -46 39 0 50 36 43 136 -6 66 -4 85 8 97
14 13 23 11 88 -24 73 -39 100 -44 156 -33 38 8 47 37 27 93 -26 74 -44 90
-99 91 -43 0 -53 4 -82 36 -25 26 -34 45 -34 70 0 28 -4 35 -25 40 -19 5 -33
-1 -60 -25 -20 -17 -40 -31 -45 -31 -5 0 -21 18 -34 39 -45 70 -90 66 -167
-16 l-51 -54 -50 11 c-26 7 -64 9 -83 6 -19 -3 -50 -9 -68 -12 -48 -8 -67 19
-84 118 -20 113 -35 148 -67 148 -21 0 -31 -10 -51 -50z"/>
<path d="M6253 3058 c-45 -58 -56 -143 -23 -173 17 -16 25 -17 59 -6 30 9 42
19 50 43 18 50 14 105 -9 128 -22 22 -63 26 -77 8z"/>
<path d="M103 2870 c-22 -9 -23 -11 -17 -152 12 -289 16 -323 40 -326 18 -3
23 4 29 35 5 21 9 63 10 93 2 45 12 74 55 157 29 56 49 106 45 112 -8 14 -121
91 -132 90 -4 0 -18 -4 -30 -9z"/>
<path d="M8770 2800 c-68 -7 -104 -22 -155 -65 -24 -21 -27 -27 -15 -34 49
-32 236 -17 319 24 57 29 74 47 65 69 -7 18 -85 20 -214 6z"/>
<path d="M6258 2343 c-28 -7 -21 -33 20 -72 47 -45 100 -63 147 -50 46 13 46
37 -1 89 -35 38 -39 40 -93 39 -31 -1 -64 -3 -73 -6z"/>
<path d="M367 1933 c4 -32 15 -60 33 -84 16 -20 36 -63 45 -95 9 -32 27 -75
39 -94 13 -19 47 -80 76 -135 43 -80 70 -115 134 -177 84 -80 86 -82 124 -72
19 6 22 13 22 60 0 43 -8 68 -44 136 -24 46 -54 118 -66 161 -21 71 -28 82
-78 125 -30 26 -95 86 -143 135 -70 69 -94 87 -117 87 -29 0 -29 -1 -25 -47z"/>
</g>
</svg>
