<?xml version="1.0" standalone="no"?>
<!DOCTYPE svg PUBLIC "-//W3C//DTD SVG 20010904//EN"
 "http://www.w3.org/TR/2001/REC-SVG-20010904/DTD/svg10.dtd">
<svg version="1.0" xmlns="http://www.w3.org/2000/svg"
 width="936.000000pt" height="656.000000pt" viewBox="0 0 936.000000 656.000000"
 preserveAspectRatio="xMidYMid meet">
<metadata>
Created by potrace 1.16, written by Peter Selinger 2001-2019
</metadata>
<g transform="translate(0.000000,656.000000) scale(0.100000,-0.100000)"
fill="#000000" stroke="none">
<path d="M5794 6321 c-29 -7 -50 -17 -119 -55 -38 -20 -56 -20 -99 1 -35 16
-36 16 -96 -15 -33 -18 -67 -32 -76 -32 -52 0 -101 -64 -88 -115 4 -17 0 -26
-16 -35 -37 -20 -42 -53 -18 -116 l22 -56 -24 -45 c-30 -57 -61 -80 -115 -89
-54 -8 -68 -22 -97 -104 l-24 -65 -42 3 c-39 2 -49 -2 -97 -43 -29 -25 -58
-59 -63 -74 -6 -15 -26 -38 -45 -50 -37 -23 -41 -30 -53 -94 -4 -23 -17 -46
-34 -60 -15 -12 -33 -32 -39 -44 -7 -14 -28 -27 -54 -34 -23 -7 -53 -24 -66
-38 -20 -21 -34 -26 -70 -26 -43 0 -46 -2 -51 -30 -8 -46 -37 -82 -87 -106
-44 -21 -47 -21 -98 -5 -82 26 -133 21 -190 -16 -60 -40 -154 -54 -435 -63
l-195 -7 -30 -28 c-16 -15 -45 -31 -62 -35 -45 -9 -42 -33 6 -70 54 -42 90
-88 97 -124 6 -28 1 -36 -34 -70 -22 -21 -50 -57 -61 -80 -12 -22 -34 -47 -50
-55 -16 -9 -31 -26 -35 -39 -4 -17 -23 -33 -59 -51 -41 -21 -57 -37 -73 -69
l-19 -42 -75 -7 c-143 -14 -235 -30 -314 -55 -54 -17 -92 -23 -120 -19 -155
20 -156 20 -187 -3 -16 -12 -86 -40 -156 -62 -123 -40 -128 -42 -189 -104 -46
-47 -72 -64 -100 -70 -21 -3 -51 -18 -67 -31 -36 -31 -42 -30 -75 4 -15 16
-35 32 -45 35 -9 4 -22 18 -27 33 -6 15 -22 40 -35 56 -14 16 -25 36 -25 43 0
26 -22 27 -48 2 -15 -14 -40 -27 -57 -29 -25 -2 -30 -8 -33 -34 -3 -28 -11
-35 -85 -73 -45 -22 -98 -44 -117 -48 -19 -3 -62 -21 -95 -39 -93 -50 -117
-52 -166 -13 -38 30 -42 31 -80 20 -27 -8 -45 -9 -57 -2 -14 8 -28 -1 -78 -52
-34 -34 -82 -80 -108 -103 -37 -32 -46 -47 -46 -73 0 -17 -14 -58 -30 -91 -17
-33 -37 -87 -44 -120 -18 -76 -29 -90 -72 -90 -31 0 -36 -5 -62 -57 -16 -32
-44 -103 -62 -158 -50 -154 -56 -160 -142 -179 -14 -3 -40 -17 -56 -31 -17
-14 -34 -25 -39 -25 -6 0 -18 -9 -28 -20 -13 -15 -16 -29 -12 -57 8 -48 35
-73 85 -80 l42 -6 -3 -151 c-3 -143 -5 -154 -31 -203 -34 -63 -31 -93 9 -112
58 -27 63 -36 70 -139 4 -53 12 -105 17 -115 5 -10 12 -50 15 -90 3 -40 11
-83 18 -97 22 -42 67 -78 128 -100 31 -12 57 -25 57 -29 0 -5 12 -26 27 -47
16 -23 30 -61 34 -93 5 -38 16 -62 35 -82 l27 -28 -31 -18 c-18 -10 -34 -24
-37 -31 -12 -33 38 -96 205 -262 171 -170 214 -223 240 -303 13 -40 26 -49 97
-67 32 -8 43 -17 51 -39 6 -16 24 -37 41 -47 39 -23 56 -63 46 -112 -8 -42 -8
-37 3 -162 9 -101 24 -143 73 -200 29 -34 31 -34 45 -15 19 25 179 321 195
360 12 29 14 53 22 260 2 69 9 109 20 130 9 17 17 44 17 61 0 17 9 43 20 57
21 26 22 26 140 23 82 -2 124 -7 136 -16 14 -12 18 -11 33 8 12 17 29 23 69
26 32 2 61 11 73 22 17 15 23 15 44 4 22 -12 27 -10 58 16 l33 30 119 -13 c66
-6 123 -12 128 -12 4 -1 7 -14 7 -30 0 -17 6 -31 16 -35 22 -8 20 -9 49 21 24
26 25 27 25 7 0 -39 25 -49 75 -30 50 20 81 14 90 -15 8 -25 22 -24 30 1 3 11
18 29 32 40 21 16 35 19 68 14 31 -4 44 -2 54 10 14 16 41 22 41 9 1 -5 12
-21 26 -38 l25 -30 -6 80 c-5 56 -2 102 9 153 22 100 20 204 -4 272 l-19 55
20 18 c12 9 36 17 55 17 44 0 62 19 114 119 24 45 69 111 101 147 33 35 59 71
59 78 0 21 49 56 77 56 14 0 35 13 53 33 16 19 56 48 89 65 54 30 66 32 155
32 124 0 167 -16 194 -72 16 -36 26 -43 68 -55 27 -8 64 -17 83 -20 20 -3 66
-30 110 -63 115 -87 171 -153 171 -201 0 -18 12 -37 37 -59 l36 -32 132 7
c145 8 147 7 225 -53 41 -31 49 -33 95 -28 40 4 57 1 83 -14 48 -29 98 -34
184 -16 81 17 114 12 150 -21 14 -13 32 -15 87 -10 85 7 136 -6 176 -44 25
-24 40 -29 78 -29 76 0 114 21 139 77 11 26 27 56 36 66 12 13 13 20 4 29 -22
22 -14 58 16 69 52 21 57 26 65 71 11 57 42 95 92 112 32 11 41 19 43 42 4 27
17 44 35 44 5 0 29 -21 53 -46 44 -45 46 -46 93 -39 47 6 49 6 69 -29 11 -19
32 -42 47 -52 25 -16 27 -16 68 13 125 89 127 90 256 113 69 12 133 27 143 35
11 7 28 11 38 8 11 -3 22 2 29 15 10 19 55 32 107 32 15 0 24 8 28 25 4 17 14
25 34 27 19 2 27 9 28 23 2 44 4 47 22 40 9 -4 44 -11 77 -15 44 -7 65 -15 80
-33 11 -13 28 -27 38 -30 9 -4 17 -13 17 -20 0 -34 25 -37 106 -11 167 54 232
71 262 66 16 -2 39 1 51 7 18 10 21 21 21 82 0 83 12 99 100 130 70 25 78 24
102 -6 11 -14 26 -25 34 -25 9 0 22 -7 30 -15 11 -11 21 -12 33 -5 23 12 31 4
31 -28 0 -23 1 -24 53 -15 28 4 77 7 107 6 44 -2 59 1 78 20 14 12 26 18 28
12 2 -5 13 -25 24 -42 20 -33 34 -38 103 -33 22 1 38 -8 68 -41 l39 -43 68 22
c85 27 100 27 129 0 l22 -21 46 42 c89 82 144 88 289 31 43 -17 81 -29 84 -25
3 3 -15 27 -41 53 -61 62 -68 85 -61 190 6 76 4 94 -15 139 -31 70 -50 85
-166 133 -70 28 -109 51 -130 75 -25 27 -49 39 -133 64 -56 16 -107 33 -113
36 -6 4 -2 19 11 39 11 19 20 38 20 45 0 6 -33 36 -74 66 -41 30 -78 59 -81
65 -4 6 1 41 11 79 27 104 16 134 -65 180 -35 20 -68 44 -72 54 -5 9 -14 25
-19 35 -6 9 -17 32 -25 50 -9 17 -20 32 -26 32 -6 0 -33 17 -60 39 -28 22 -94
57 -156 81 -166 66 -213 94 -250 147 -21 29 -49 55 -75 68 -57 27 -59 48 -9
99 l42 42 -15 63 c-18 77 -29 91 -75 91 -63 1 -149 54 -173 107 -1 4 -40 39
-86 77 l-83 68 -44 -12 c-41 -12 -45 -11 -80 16 -33 25 -39 26 -69 16 -41 -15
-68 -15 -99 -1 -23 10 -25 18 -29 88 -4 63 -2 79 13 96 14 15 16 30 12 63 -3
23 -10 45 -15 48 -5 3 -75 10 -156 15 -80 5 -164 14 -186 20 -22 6 -63 8 -93
4 -51 -6 -53 -5 -53 17 0 13 9 47 20 76 32 83 26 106 -21 81 -28 -14 -59 14
-59 53 0 35 40 78 72 78 13 0 34 7 47 16 23 16 23 21 18 113 -4 83 -2 106 19
168 45 133 30 225 -55 338 -41 55 -111 168 -111 180 0 22 -91 131 -139 166
-119 89 -162 131 -191 189 -37 73 -76 106 -142 119 -79 16 -169 21 -204 12z"/>
</g>
</svg>
