<?xml version="1.0" standalone="no"?>
<!DOCTYPE svg PUBLIC "-//W3C//DTD SVG 20010904//EN"
 "http://www.w3.org/TR/2001/REC-SVG-20010904/DTD/svg10.dtd">
<svg version="1.0" xmlns="http://www.w3.org/2000/svg"
 width="768.000000pt" height="1024.000000pt" viewBox="0 0 768.000000 1024.000000"
 preserveAspectRatio="xMidYMid meet">
<metadata>
Created by potrace 1.16, written by Peter Selinger 2001-2019
</metadata>
<g transform="translate(0.000000,1024.000000) scale(0.100000,-0.100000)"
fill="#000000" stroke="none">
<path d="M2243 9887 c-4 -7 -30 -24 -58 -38 -27 -14 -117 -59 -200 -101 -82
-42 -169 -81 -192 -87 -26 -7 -53 -24 -72 -47 l-31 -35 4 -117 c5 -154 19
-240 44 -282 18 -29 20 -44 15 -109 -4 -61 -1 -88 15 -136 19 -55 19 -65 7
-123 -22 -107 1 -160 115 -261 95 -85 103 -101 94 -205 l-7 -83 69 -70 c38
-38 94 -98 125 -134 l56 -64 -48 -53 c-38 -42 -50 -63 -59 -109 -7 -32 -19
-75 -28 -96 -8 -21 -16 -70 -17 -110 -1 -40 -9 -90 -18 -112 -11 -26 -16 -72
-17 -135 0 -52 -5 -115 -11 -140 -10 -43 -21 -204 -34 -495 -5 -109 -11 -140
-32 -189 l-26 -59 12 -148 c7 -86 9 -197 5 -264 l-7 -116 -146 -148 c-80 -81
-163 -160 -184 -176 -20 -15 -61 -59 -91 -99 -30 -39 -73 -89 -96 -111 -52
-50 -158 -184 -195 -248 -15 -26 -62 -91 -105 -143 -103 -127 -129 -177 -139
-264 -6 -56 -13 -76 -33 -97 -15 -16 -30 -40 -33 -55 -6 -21 -16 -30 -45 -38
-82 -22 -116 -79 -87 -149 9 -20 20 -75 26 -123 6 -49 19 -105 31 -127 11 -22
20 -54 20 -71 0 -45 42 -120 103 -187 30 -32 64 -78 76 -102 45 -87 110 -179
133 -187 13 -4 61 -8 108 -8 l84 -1 19 -70 c24 -93 37 -110 92 -124 43 -11 48
-16 71 -66 18 -38 27 -80 31 -133 4 -65 10 -86 39 -134 23 -38 34 -68 34 -95
0 -21 7 -49 16 -61 10 -15 13 -32 9 -52 -4 -17 -2 -45 5 -64 9 -27 8 -44 -5
-83 -15 -45 -16 -153 -6 -335 1 -10 1 -38 0 -62 -2 -34 4 -54 29 -91 17 -25
34 -60 37 -76 4 -16 19 -42 35 -57 15 -15 36 -45 47 -66 11 -22 37 -51 58 -65
67 -45 59 -49 -85 -43 -93 3 -142 1 -170 -8 -31 -10 -49 -11 -78 -2 -20 6 -90
14 -155 17 l-119 5 -29 -32 c-115 -126 -139 -159 -139 -190 0 -53 48 -159 95
-208 23 -25 45 -57 49 -71 6 -27 41 -75 84 -113 12 -12 37 -36 55 -55 93 -98
132 -131 175 -147 26 -10 51 -24 56 -32 18 -30 47 -51 83 -61 21 -6 44 -15 51
-20 8 -4 22 -48 33 -97 23 -107 28 -119 95 -261 36 -74 61 -114 74 -118 24 -7
25 -23 5 -49 -8 -11 -15 -37 -15 -58 0 -50 30 -78 84 -78 23 0 55 -9 74 -20
18 -11 43 -20 55 -20 36 0 186 46 205 63 9 9 38 21 64 27 35 9 61 26 98 62 27
27 50 53 50 59 0 18 17 9 28 -16 7 -14 17 -31 23 -38 5 -7 19 -27 30 -46 20
-33 21 -34 78 -28 59 5 127 33 150 61 8 10 29 16 52 16 31 0 48 8 89 45 32 28
60 45 76 45 14 0 58 11 97 24 82 27 346 57 467 53 105 -3 136 12 166 79 17 38
35 61 63 78 23 15 54 49 74 83 20 32 61 82 91 112 87 83 85 111 -11 182 l-56
42 29 15 c22 12 67 16 199 17 188 1 251 10 346 51 46 19 86 28 144 31 76 3 81
5 107 36 62 74 81 87 155 109 62 18 79 28 101 57 15 20 43 56 63 81 20 25 44
61 54 80 16 34 134 140 155 140 6 0 51 38 101 85 50 47 95 85 99 85 5 0 18 16
31 36 17 27 22 50 21 97 -1 73 8 93 48 102 17 4 51 25 77 46 25 22 52 38 59
35 21 -8 59 9 87 39 20 22 38 29 108 37 61 8 94 8 126 0 24 -7 54 -12 68 -12
30 0 82 52 120 121 25 46 27 59 23 121 -7 88 -30 118 -93 118 -38 0 -46 4 -78
46 -46 58 -57 117 -31 165 23 44 23 134 1 157 -10 9 -32 16 -52 15 l-35 -1 0
52 c0 32 -8 67 -20 91 -25 48 -25 54 0 85 24 31 26 82 3 102 -28 25 -166 88
-191 88 -13 0 -35 -12 -49 -26 -29 -29 -70 -35 -84 -13 -15 23 -10 70 10 103
11 17 49 56 85 85 133 107 137 124 77 288 -22 59 -37 112 -33 119 4 7 48 43
97 82 168 130 183 163 110 236 -14 14 -25 36 -25 50 0 14 -5 37 -12 51 -14 32
-5 40 59 50 63 9 83 35 83 106 0 51 5 64 37 110 21 29 59 75 84 104 59 67 64
89 38 165 l-21 62 28 30 c16 17 42 38 57 48 26 16 32 16 87 2 l59 -16 52 33
c52 32 53 32 94 17 23 -9 71 -16 112 -16 61 0 76 4 100 24 26 22 28 30 27 83
-1 32 -5 545 -9 1141 l-8 1082 -251 126 c-138 70 -390 197 -561 284 -170 87
-521 264 -780 395 -258 131 -578 293 -710 360 -132 67 -420 214 -640 325 -630
319 -1332 677 -1511 771 -132 69 -166 80 -181 56z"/>
</g>
</svg>
