<?xml version="1.0" standalone="no"?>
<!DOCTYPE svg PUBLIC "-//W3C//DTD SVG 20010904//EN"
 "http://www.w3.org/TR/2001/REC-SVG-20010904/DTD/svg10.dtd">
<svg version="1.0" xmlns="http://www.w3.org/2000/svg"
 width="614.000000pt" height="1024.000000pt" viewBox="0 0 614.000000 1024.000000"
 preserveAspectRatio="xMidYMid meet">
<metadata>
Created by potrace 1.16, written by Peter Selinger 2001-2019
</metadata>
<g transform="translate(0.000000,1024.000000) scale(0.100000,-0.100000)"
fill="#000000" stroke="none">
<path d="M2406 9695 c-17 -18 -22 -33 -31 -99 -8 -59 -39 -92 -102 -108 -40
-10 -44 -13 -39 -37 3 -14 8 -57 12 -96 3 -38 13 -86 21 -105 28 -65 35 -114
36 -270 2 -128 5 -159 19 -180 26 -39 31 -100 18 -212 -7 -57 -14 -137 -14
-178 -1 -68 -3 -75 -22 -78 -17 -2 -23 -12 -28 -49 -9 -67 -8 -73 14 -73 19 0
19 -5 13 -137 -5 -113 -3 -147 11 -186 20 -60 22 -155 2 -163 -23 -9 -29 -85
-10 -123 20 -41 14 -163 -11 -232 -20 -54 -20 -54 -1 -106 14 -39 14 -45 -3
-85 -11 -26 -20 -81 -24 -137 -4 -69 -12 -106 -29 -141 -20 -39 -22 -52 -13
-82 5 -20 20 -44 32 -54 19 -17 22 -30 24 -104 2 -112 3 -109 -27 -122 -26
-12 -26 -14 -21 -93 3 -47 17 -119 35 -175 59 -189 73 -288 68 -460 -2 -86 -9
-168 -16 -185 -7 -16 -16 -79 -21 -140 -5 -60 -16 -135 -24 -165 -9 -30 -20
-80 -24 -110 -5 -30 -13 -73 -19 -95 -6 -22 -14 -73 -18 -113 -5 -57 -11 -75
-26 -83 -16 -9 -18 -18 -12 -74 l7 -64 -34 -3 -34 -3 3 -70 c2 -58 8 -77 31
-111 22 -32 29 -55 33 -113 4 -50 11 -81 25 -99 44 -59 57 -96 57 -167 1 -59
-2 -73 -20 -91 -20 -20 -21 -30 -19 -155 4 -145 20 -223 55 -254 11 -10 20
-26 20 -37 0 -18 8 -22 45 -19 45 4 73 23 79 53 6 28 8 29 45 23 33 -5 41 -3
55 17 l16 22 0 -22 c0 -12 -15 -35 -35 -53 -57 -52 -40 -95 19 -48 14 11 26
16 26 10 0 -6 -5 -11 -11 -11 -11 0 -9 -28 5 -60 5 -12 0 -16 -20 -15 -39 0
-40 -20 -3 -36 l32 -13 -27 -9 c-24 -8 -27 -13 -21 -36 4 -14 8 -34 10 -44 2
-9 6 -21 9 -25 2 -4 -1 -35 -9 -70 -10 -51 -10 -65 1 -79 16 -21 18 -75 5
-121 -11 -36 -5 -62 12 -62 7 0 31 -8 53 -17 38 -16 43 -22 47 -58 7 -46 -15
-77 -71 -101 -44 -18 -39 -43 13 -69 l40 -20 -40 -5 c-28 -4 -41 -10 -43 -24
-6 -27 14 -42 33 -26 25 21 28 4 5 -28 -13 -18 -24 -50 -27 -78 -4 -47 -4 -48
11 -24 19 30 19 23 5 -38 -13 -53 -29 -78 -29 -45 0 24 -22 43 -28 25 -2 -7
-13 -12 -25 -11 -12 0 -16 3 -9 6 19 8 13 26 -16 49 -30 23 -98 38 -107 23 -4
-5 -17 -9 -31 -9 -28 0 -29 -2 -8 -41 12 -25 18 -28 30 -18 25 21 16 -11 -13
-46 -42 -50 -73 -104 -73 -126 0 -23 41 -45 66 -35 15 6 15 9 -5 29 -27 30
-27 33 9 41 21 4 40 -1 63 -14 40 -25 76 -28 57 -5 -10 13 -9 15 12 15 13 0
33 -6 43 -14 24 -17 30 -82 9 -90 -19 -7 -18 -45 3 -68 15 -17 15 -18 -11 -18
-23 0 -27 -4 -24 -23 3 -20 8 -22 53 -21 28 0 40 -1 28 -3 -23 -4 -30 -17 -14
-27 5 -3 23 -1 41 5 21 8 28 14 20 19 -9 6 -7 11 9 19 29 16 61 -2 61 -34 0
-23 -3 -25 -51 -25 l-52 0 6 -41 c7 -50 10 -54 36 -39 13 7 21 7 21 1 0 -6 -8
-15 -19 -20 -10 -6 -24 -23 -30 -39 -10 -24 -9 -36 4 -68 9 -22 23 -60 31 -86
20 -67 54 -61 54 8 0 13 5 24 10 24 6 0 10 -17 10 -37 0 -21 9 -51 20 -68 11
-16 20 -37 20 -45 -1 -8 -8 -2 -16 13 -11 20 -22 27 -37 25 -18 -2 -21 -9 -19
-35 2 -17 -4 -48 -12 -68 -22 -52 -21 -59 19 -78 44 -21 69 -22 85 -2 17 21
26 19 26 -5 0 -14 -7 -20 -23 -20 -27 0 -29 -9 -7 -36 11 -13 17 -15 20 -6 10
22 25 12 22 -14 -2 -22 -14 -34 -46 -51 -7 -3 30 -53 39 -53 5 0 9 7 9 15 0 8
5 15 10 15 6 0 10 -9 10 -20 0 -11 4 -20 9 -20 5 0 11 -11 13 -25 5 -21 2 -25
-13 -20 -32 10 -23 -28 11 -47 17 -9 40 -33 51 -53 12 -19 25 -35 30 -35 12 0
11 32 -1 64 -5 15 -6 26 0 26 5 0 12 -9 15 -20 3 -11 10 -20 15 -20 5 0 14 9
20 20 6 11 20 20 31 20 30 0 19 22 -22 43 -32 18 -32 18 -5 12 33 -7 76 -33
76 -46 0 -5 9 -9 20 -9 11 0 20 -4 20 -9 0 -5 -9 -13 -20 -16 -21 -7 -27 -30
-10 -40 6 -3 10 -19 10 -35 0 -16 -4 -32 -10 -35 -6 -4 -10 8 -10 27 0 34 -15
58 -35 58 -7 0 -10 -12 -7 -32 5 -30 3 -32 -12 -19 -14 12 -19 11 -34 -3 -10
-9 -23 -16 -29 -16 -18 0 -24 -44 -7 -53 12 -7 14 -18 9 -49 -7 -37 -6 -39 11
-30 21 10 44 6 44 -9 0 -4 -12 -15 -26 -22 l-27 -14 29 -7 c16 -4 37 -9 47
-12 13 -4 17 1 17 23 l1 28 14 -25 c18 -32 18 -40 0 -40 -24 0 -17 -29 9 -42
33 -14 56 -4 56 26 0 17 9 28 35 40 20 10 47 36 62 59 14 23 30 44 34 47 4 3
4 12 0 19 -7 10 -21 12 -55 7 -37 -6 -49 -13 -61 -36 -12 -23 -21 -29 -45 -27
-30 2 -38 19 -22 44 8 13 76 31 148 39 38 4 42 2 48 -21 4 -14 13 -25 21 -25
24 0 18 -44 -10 -70 -14 -13 -25 -34 -25 -46 0 -29 -14 -38 -30 -19 -16 20
-69 19 -76 0 -8 -21 22 -64 54 -77 58 -23 146 -37 160 -25 27 22 33 57 16 92
-8 18 -17 66 -19 107 l-3 74 71 37 c60 30 76 44 96 82 l24 45 68 -6 c57 -6 69
-4 69 8 0 12 -28 18 -130 28 l-130 13 -131 -31 -130 -32 -44 36 c-42 36 -43
37 -47 113 -3 42 -13 95 -23 119 -14 35 -22 42 -44 42 -17 0 -38 -11 -56 -30
-16 -17 -36 -30 -46 -30 -21 0 -55 78 -75 169 -24 114 -16 170 30 221 27 29
34 54 46 170 9 81 9 86 -16 123 -21 33 -24 45 -18 85 4 26 15 57 25 70 15 19
17 35 12 86 -4 49 -2 64 11 75 22 18 20 49 -4 89 -13 20 -20 49 -19 75 1 23
-2 63 -6 89 -6 36 -4 53 9 72 34 53 12 96 -49 96 -34 0 -65 17 -65 35 0 13 20
21 101 39 31 7 40 23 28 54 -7 18 -16 22 -52 22 -37 0 -46 4 -55 25 -6 14 -9
38 -6 54 5 26 2 32 -26 46 -31 16 -32 19 -28 67 7 68 1 84 -33 98 -23 10 -29
19 -29 44 0 18 -5 58 -11 90 -9 52 -8 62 11 99 24 46 22 81 -9 125 -24 32 -44
146 -46 255 -1 43 -6 82 -13 89 -8 8 -8 17 0 31 7 14 7 31 -3 59 -12 37 -11
41 8 57 18 13 22 29 25 97 3 77 4 82 36 108 38 33 42 70 12 109 -11 14 -20 36
-20 50 0 13 -8 35 -18 48 -10 13 -24 44 -31 69 -18 70 -29 211 -18 245 21 65
27 75 47 75 15 0 20 7 20 24 0 14 11 38 25 54 24 29 24 31 10 78 -8 27 -15 61
-15 75 0 15 -7 32 -15 39 -19 16 -19 37 -1 47 9 5 15 32 18 78 3 59 9 78 36
118 33 50 39 86 21 134 -6 15 -15 53 -21 83 -5 31 -20 67 -34 83 -17 20 -24
41 -24 72 0 35 -8 53 -40 96 -30 40 -37 56 -30 70 20 36 12 70 -19 82 -16 6
-34 21 -40 34 -17 38 -13 105 9 141 14 22 20 50 20 89 0 47 4 61 25 83 25 26
26 29 16 91 -15 91 -13 199 4 229 9 15 14 53 15 97 0 67 2 74 38 120 59 75 78
112 107 206 24 76 30 87 50 87 30 0 55 25 55 54 0 13 -13 40 -30 61 -32 41
-39 79 -15 89 22 8 18 41 -17 139 l-31 88 21 29 c26 35 28 79 6 122 -16 30
-15 32 7 49 13 10 71 45 129 78 l105 60 27 122 27 122 -22 29 c-12 17 -28 27
-37 25 -90 -27 -111 -30 -120 -21 -6 6 -17 44 -26 85 -8 41 -24 92 -34 114
-10 22 -26 74 -35 115 -18 80 -56 150 -80 150 -17 0 -39 46 -30 61 3 4 -5 18
-19 30 -20 18 -24 30 -24 80 0 48 3 59 19 64 23 7 23 14 4 39 -21 27 -19 40
10 74 41 49 30 82 -27 82 -11 0 -33 13 -49 29 -24 24 -29 38 -29 76 0 51 -30
132 -67 182 -13 18 -32 53 -43 78 -21 48 -45 58 -74 30z"/>
<path d="M2253 3628 c-5 -8 -5 -56 0 -118 4 -58 8 -133 8 -167 -1 -55 2 -65
23 -79 54 -35 137 0 108 46 -16 26 -15 30 3 30 18 0 18 -1 0 44 -8 20 -21 36
-29 36 -8 0 -17 12 -21 27 -5 23 -2 32 20 49 26 21 27 23 15 60 -16 51 -39 76
-62 68 -10 -3 -18 -1 -18 5 0 15 -36 14 -47 -1z"/>
<path d="M2502 1958 c-18 -18 -14 -46 8 -60 13 -9 20 -24 20 -45 0 -28 -4 -33
-24 -33 -60 0 -75 -30 -27 -54 26 -14 50 -61 36 -74 -3 -3 -5 0 -5 6 0 14 -37
35 -50 27 -6 -3 -5 -15 2 -30 8 -18 19 -25 40 -25 15 0 28 5 28 11 0 5 5 7 10
4 6 -4 10 11 11 37 0 33 2 38 9 23 5 -11 9 -35 9 -53 1 -38 25 -52 48 -29 20
19 19 85 0 125 -8 15 -14 43 -15 62 -2 19 -9 40 -17 46 -8 6 -15 23 -15 36 0
18 -7 27 -22 32 -31 8 -32 8 -46 -6z"/>
<path d="M3500 1206 c0 -36 -21 -51 -85 -59 l-30 -4 33 -8 c32 -7 45 -25 18
-25 -24 0 -36 -25 -29 -63 7 -47 36 -56 98 -32 79 30 78 -7 -2 -56 -27 -17
-33 -27 -33 -54 0 -42 28 -65 98 -84 51 -14 74 -43 52 -65 -7 -7 -10 -1 -10
16 0 24 -3 25 -54 25 -42 0 -53 -3 -49 -13 7 -19 -14 -17 -66 6 -24 11 -46 19
-48 17 -2 -2 16 -17 39 -33 38 -26 39 -29 19 -32 -13 -2 -28 1 -34 7 -8 8 -16
6 -28 -5 -11 -10 -19 -12 -24 -5 -3 6 -13 11 -21 11 -8 0 -12 -4 -9 -10 3 -5
-3 -10 -14 -10 -12 0 -21 -7 -21 -15 0 -8 -9 -15 -20 -15 -11 0 -20 -4 -20 -9
0 -18 39 -22 66 -8 24 12 31 12 58 -1 80 -40 77 -39 131 -11 34 17 51 19 106
14 87 -9 114 4 104 48 -17 81 -75 435 -75 460 0 36 -21 43 -59 21 -30 -18 -31
-18 -54 4 -31 30 -37 28 -37 -12z"/>
<path d="M2998 903 c-24 -3 -38 -9 -38 -18 0 -7 17 -34 38 -59 36 -43 39 -45
94 -45 36 -1 62 4 70 12 10 11 19 10 50 -7 46 -24 64 -14 49 27 -8 21 -17 27
-41 27 -16 0 -30 -4 -30 -10 0 -5 -5 -10 -10 -10 -6 0 -8 10 -5 23 5 18 1 26
-20 35 -14 7 -39 12 -55 12 -16 0 -32 5 -35 10 -3 6 -12 9 -18 8 -7 -1 -29 -3
-49 -5z"/>
<path d="M3647 650 c-33 -17 -66 -30 -74 -30 -8 0 -13 -7 -11 -17 2 -10 10
-18 19 -18 8 0 26 -7 40 -16 54 -34 55 -35 36 -6 -17 27 -17 27 8 37 39 15 55
12 55 -10 0 -16 7 -20 35 -20 24 0 39 -6 47 -20 15 -23 38 -27 38 -7 0 17 -32
47 -49 47 -9 0 -11 8 -7 26 6 24 5 26 -18 20 -27 -7 -56 1 -56 15 0 5 14 9 31
9 17 0 28 4 24 10 -11 18 -59 10 -118 -20z"/>
</g>
</svg>
