<?xml version="1.0" standalone="no"?>
<!DOCTYPE svg PUBLIC "-//W3C//DTD SVG 20010904//EN"
 "http://www.w3.org/TR/2001/REC-SVG-20010904/DTD/svg10.dtd">
<svg version="1.0" xmlns="http://www.w3.org/2000/svg"
 width="868.000000pt" height="505.000000pt" viewBox="0 0 868.000000 505.000000"
 preserveAspectRatio="xMidYMid meet">
<metadata>
Created by potrace 1.16, written by Peter Selinger 2001-2019
</metadata>
<g transform="translate(0.000000,505.000000) scale(0.100000,-0.100000)"
fill="#000000" stroke="none">
<path d="M6810 4920 c-52 -5 -115 -13 -139 -19 -24 -5 -50 -7 -57 -4 -16 6
-133 -67 -133 -84 -1 -7 17 -13 42 -15 34 -2 41 -6 39 -21 -2 -10 1 -24 7 -31
13 -16 3 -30 -39 -51 -35 -17 -89 -71 -90 -89 0 -5 -7 -16 -15 -25 -43 -48
-52 -59 -58 -74 -3 -9 -2 -17 3 -17 6 0 10 -7 10 -15 0 -18 -31 -35 -64 -35
-15 0 -50 -14 -80 -30 -54 -31 -54 -31 -117 -17 -35 8 -72 17 -81 21 -12 6
-25 -4 -52 -41 -20 -26 -42 -62 -51 -80 -9 -18 -20 -35 -25 -38 -6 -3 -10 -17
-10 -29 0 -15 -7 -26 -20 -29 -26 -7 -25 -22 1 -48 15 -15 27 -19 42 -14 49
17 125 17 156 0 30 -15 33 -15 65 10 42 32 111 35 149 5 14 -11 28 -20 32 -20
15 0 113 -82 125 -106 19 -34 1 -46 -60 -38 -94 11 -156 10 -189 -3 -19 -7
-43 -11 -53 -7 -12 3 -24 0 -31 -9 -7 -8 -33 -17 -58 -19 -50 -6 -99 -40 -99
-69 0 -10 -10 -21 -22 -25 -13 -3 -30 -13 -39 -20 -10 -9 -43 -15 -90 -16 -59
-1 -78 -6 -96 -22 -33 -32 -45 -41 -81 -55 -40 -17 -148 -8 -172 14 -17 16
-86 20 -106 7 -13 -8 -54 -78 -54 -91 0 -5 16 -24 35 -42 36 -35 43 -49 23
-49 -6 0 -19 -6 -27 -13 -9 -8 -34 -19 -56 -25 -23 -7 -55 -27 -76 -49 -55
-57 -145 -81 -329 -87 -183 -6 -278 -26 -401 -85 -49 -24 -119 -28 -119 -8 0
10 -17 13 -62 13 -41 -1 -84 7 -123 21 -33 12 -81 24 -107 28 -31 4 -51 13
-58 24 -15 29 -141 45 -285 36 -79 -4 -156 -2 -225 6 -58 8 -134 12 -170 11
-64 -3 -67 -1 -106 35 -22 21 -51 59 -63 86 -13 26 -29 47 -37 47 -8 0 -14 9
-14 20 0 15 -7 20 -25 20 -26 0 -106 28 -115 41 -6 8 -85 45 -116 53 -12 4
-74 9 -138 11 -130 5 -202 19 -228 42 -24 22 -23 36 6 70 16 20 22 34 16 43
-5 8 -5 21 1 31 16 31 10 49 -31 89 -22 22 -40 46 -40 54 0 18 -60 62 -78 58
-8 -2 -22 4 -32 13 -13 12 -28 14 -53 10 -21 -4 -37 -3 -41 4 -4 6 -16 11 -26
11 -11 0 -24 9 -30 20 -6 11 -25 23 -43 28 -17 5 -32 13 -32 20 0 6 -9 18 -20
26 -11 9 -15 16 -8 16 7 0 10 7 7 15 -4 11 -19 13 -62 10 -32 -2 -65 -4 -74
-4 -12 -1 -18 -9 -18 -24 0 -35 -31 -57 -90 -64 -47 -5 -54 -9 -65 -37 -10
-23 -11 -45 -4 -79 10 -53 -2 -77 -38 -77 -10 0 -29 -7 -42 -16 -16 -12 -25
-13 -30 -6 -4 7 -41 13 -82 15 -42 3 -85 9 -97 16 -43 23 -55 14 -96 -72 -21
-45 -45 -94 -53 -110 -16 -31 -10 -47 17 -47 13 0 17 -5 13 -19 -4 -16 -13
-18 -55 -16 -28 1 -54 8 -58 15 -5 9 -20 8 -61 -4 -30 -8 -76 -17 -104 -21
-94 -11 -139 -45 -60 -45 l35 0 -6 -44 c-5 -35 -2 -52 19 -87 26 -47 44 -104
29 -95 -5 3 -18 -1 -28 -9 -15 -11 -16 -15 -4 -15 8 0 2 -8 -13 -16 -27 -15
-28 -18 -22 -65 6 -45 5 -49 -14 -49 -55 0 -224 -70 -254 -106 -21 -24 -29
-26 -111 -28 -93 -2 -90 0 -121 -61 -6 -11 -19 -21 -30 -21 -11 -1 -37 -5 -57
-9 -35 -7 -38 -5 -38 15 0 19 -4 21 -23 15 -12 -4 -38 -9 -57 -12 -19 -3 -37
-8 -40 -12 -12 -15 -61 -41 -78 -41 -28 0 -52 -32 -45 -58 4 -18 1 -24 -17
-29 -18 -5 -21 -11 -16 -32 7 -27 13 -58 15 -77 2 -18 30 -25 50 -12 24 15 98
-11 93 -33 -4 -16 18 -100 30 -116 14 -18 1 -32 -30 -31 -16 1 -37 -4 -47 -9
-16 -9 -13 -12 21 -24 21 -7 43 -12 48 -11 18 5 66 -10 60 -19 -3 -5 6 -9 19
-9 35 0 60 -33 55 -70 -3 -19 0 -30 8 -30 6 0 15 -7 18 -16 4 -11 14 -15 29
-12 13 3 28 -1 35 -8 16 -17 107 -44 146 -44 17 0 57 13 89 30 32 16 77 32
102 35 38 6 47 4 72 -19 15 -14 33 -26 40 -26 7 0 13 -5 13 -11 0 -7 10 -9 25
-5 29 7 28 9 14 -35 -17 -55 -31 -79 -46 -79 -7 0 -16 -7 -19 -15 -4 -8 -12
-15 -19 -15 -8 0 -15 -10 -17 -22 -2 -14 -11 -24 -23 -26 -60 -9 -66 -12 -56
-31 7 -12 6 -22 -1 -29 -15 -15 16 -62 40 -62 11 0 21 -13 28 -35 12 -38 11
-40 -40 -65 -25 -13 -29 -13 -41 3 -7 9 -22 17 -34 17 -28 0 -28 -36 0 -66 15
-16 21 -35 21 -68 0 -39 3 -46 19 -46 10 0 19 5 19 12 0 6 16 -6 36 -26 20
-21 42 -35 50 -32 17 7 74 -25 74 -41 0 -7 12 -16 28 -19 31 -8 68 -30 96 -58
18 -18 19 -18 35 7 19 32 27 36 68 30 20 -3 35 -12 38 -24 4 -10 12 -19 20
-19 7 0 26 -11 42 -24 16 -14 43 -28 59 -32 16 -4 41 -21 56 -38 24 -27 29
-29 52 -18 21 9 28 8 41 -4 8 -9 15 -21 15 -28 0 -17 94 -68 113 -60 12 4 14
0 10 -15 -6 -22 -5 -22 55 -24 17 0 37 -12 54 -31 21 -24 28 -27 28 -14 0 15
4 16 26 6 20 -10 27 -9 34 2 7 12 17 10 59 -9 55 -26 110 -25 192 5 38 13 45
13 58 0 12 -13 12 -20 2 -42 -9 -20 -9 -30 -1 -38 8 -8 23 3 56 41 63 73 131
104 151 68 6 -11 32 -16 87 -19 64 -4 82 -9 99 -26 16 -18 26 -21 56 -15 51 8
91 26 91 39 0 6 13 20 29 31 17 11 32 27 34 37 4 13 15 18 40 18 29 0 77 25
97 51 12 16 69 38 75 29 3 -5 24 -14 46 -20 35 -10 43 -8 72 13 46 34 62 38
80 17 13 -16 13 -19 1 -24 -8 -3 -11 -12 -8 -21 5 -13 9 -13 21 -3 12 10 18 9
28 -6 12 -16 11 -21 -11 -43 -13 -13 -24 -26 -24 -28 0 -2 15 -3 33 -3 50 2
91 -5 105 -16 10 -7 19 -4 34 14 13 17 21 21 25 13 2 -7 10 -13 17 -13 19 0
42 -31 50 -65 10 -42 26 -60 38 -43 7 10 11 9 22 -5 13 -17 14 -38 5 -209 -1
-15 -6 -25 -10 -22 -4 2 -13 -5 -19 -16 -6 -11 -17 -20 -24 -20 -7 0 -18 -11
-24 -25 -6 -14 -18 -25 -25 -25 -7 0 -21 -17 -30 -38 -19 -43 -22 -72 -8 -72
8 0 9 -24 1 -55 -6 -24 2 -26 27 -9 29 18 133 28 133 13 0 -5 -4 -9 -10 -9 -5
0 -10 -7 -10 -15 0 -8 4 -15 9 -15 5 0 12 -17 16 -37 8 -43 18 -53 57 -53 33
0 43 -13 22 -30 -8 -7 -12 -20 -10 -27 3 -8 -1 -27 -9 -43 -20 -38 -19 -40 9
-40 48 0 87 -12 82 -26 -3 -7 1 -20 9 -28 8 -8 15 -19 15 -25 0 -16 73 -6 103
14 32 21 37 18 46 -26 6 -29 10 -32 46 -33 l40 -1 -4 44 c-1 25 -9 55 -18 67
-8 13 -12 32 -8 43 5 16 13 19 46 16 33 -3 42 0 55 20 13 21 19 22 45 13 16
-5 29 -14 29 -19 0 -16 26 -10 45 11 12 14 22 17 30 10 7 -6 15 -6 22 1 7 7
14 5 23 -6 16 -19 40 -20 40 -1 0 20 20 31 29 17 10 -16 81 14 81 35 0 8 15
21 33 29 29 13 34 12 47 -3 26 -28 55 -40 83 -35 17 3 27 1 27 -6 0 -7 9 -9
23 -6 12 3 29 1 37 -4 12 -8 12 -12 -3 -29 -19 -21 -22 -42 -7 -42 6 0 10 -11
10 -25 0 -18 5 -25 20 -25 11 0 20 -4 20 -10 0 -5 11 -12 25 -16 14 -3 25 -11
25 -16 0 -6 14 -8 35 -5 19 3 37 2 40 -4 7 -11 73 -3 90 11 6 5 15 6 19 2 8
-7 13 -8 41 -11 8 0 14 -4 14 -8 -3 -19 3 -20 39 -12 20 4 45 6 55 3 15 -5 15
-7 2 -20 -20 -20 -19 -55 2 -104 15 -35 22 -40 49 -40 17 0 37 6 43 14 13 15
4 49 -10 40 -5 -3 -6 2 -3 10 4 11 0 16 -12 16 -14 0 -15 3 -6 12 10 10 17 10
33 0 18 -12 20 -11 15 5 -11 35 15 52 106 70 48 9 86 21 85 26 -1 6 15 11 36
12 22 1 37 -3 37 -9 0 -16 38 -14 45 2 4 10 -1 11 -17 6 -20 -6 -21 -5 -10 9
7 8 21 13 32 10 13 -4 20 1 23 19 l4 23 8 -22 c6 -17 10 -19 20 -10 7 7 10 16
7 21 -3 5 2 7 10 3 10 -3 19 3 27 19 8 18 8 23 0 19 -7 -5 -9 1 -7 16 4 29 24
36 32 11 6 -17 12 -19 44 -11 22 5 38 4 40 -1 2 -6 10 -10 19 -10 10 0 12 6 8
20 -8 24 1 26 22 4 15 -14 17 -14 26 1 7 13 17 15 48 10 32 -6 39 -4 39 9 0
13 4 14 18 8 16 -9 28 -8 62 5 8 4 21 5 28 4 8 -1 16 7 19 18 3 12 11 21 18
21 7 0 15 9 18 21 4 16 11 19 29 14 18 -5 20 -4 8 4 -9 6 -10 11 -3 11 6 0 19
7 27 16 15 14 16 14 16 -1 0 -24 20 -7 21 18 0 12 3 17 5 10 6 -15 74 44 74
63 0 19 37 36 60 29 15 -5 21 0 26 18 3 14 15 28 27 31 15 4 18 8 10 14 -7 4
-9 13 -4 21 6 10 10 9 15 -4 5 -15 7 -15 23 1 13 12 14 19 5 22 -6 2 -12 8
-12 14 0 6 14 8 36 4 36 -7 69 7 58 25 -9 14 -24 10 -24 -6 0 -13 -2 -14 -14
-3 -8 7 -10 15 -5 16 5 2 12 21 15 43 4 25 13 40 25 44 17 6 17 8 4 21 -8 9
-15 21 -15 27 0 8 3 8 8 -1 12 -18 42 -4 42 19 0 10 7 19 15 19 9 0 12 6 9 15
-4 8 -1 15 5 15 15 0 51 41 45 52 -6 9 47 87 59 88 5 0 5 -10 1 -22 -6 -19 -2
-17 20 10 15 17 34 32 42 32 10 0 11 6 4 26 -8 19 -6 29 5 40 20 20 19 31 -2
43 -28 15 -10 22 19 7 26 -14 26 -13 30 25 2 28 0 39 -10 39 -7 0 -10 5 -7 10
3 6 16 8 29 4 14 -3 28 2 40 15 17 19 17 20 -3 30 -12 7 -18 17 -15 26 10 26
-5 19 -52 -24 -13 -12 -18 -11 -37 6 -36 33 -45 35 -78 18 -33 -18 -59 -14
-59 8 0 10 8 13 25 9 14 -2 25 0 25 6 0 15 82 62 108 62 23 0 28 15 12 40 -6
9 -5 17 2 21 6 4 -7 12 -29 18 -22 6 -46 17 -52 25 -7 8 -22 17 -35 20 -13 3
-26 13 -30 21 -7 19 8 19 24 0 7 -8 19 -15 27 -15 7 0 16 -6 19 -14 3 -8 16
-17 29 -20 13 -3 30 -9 39 -12 28 -11 17 12 -11 24 l-28 12 28 -5 c39 -8 37
29 -3 50 -16 9 -30 22 -30 31 0 9 -18 23 -40 32 -34 14 -40 21 -35 40 3 14 -2
34 -13 50 -18 26 -37 65 -62 129 -10 26 -22 35 -62 49 -27 9 -52 22 -55 30 -3
8 -14 14 -24 14 -25 0 -24 11 2 41 12 13 28 34 36 47 9 12 21 22 27 22 6 0 18
9 26 20 8 11 20 20 27 20 16 0 17 12 1 28 -9 9 -8 12 6 12 10 0 14 -4 10 -12
-5 -8 0 -9 17 -5 13 4 27 7 32 7 4 0 7 9 7 20 0 11 7 20 15 20 7 0 18 6 22 14
8 13 116 58 138 56 6 0 24 -1 40 -3 23 -1 30 2 29 16 -1 9 2 17 6 17 4 0 10 9
13 20 4 17 0 20 -23 20 -16 0 -31 4 -34 9 -3 5 -24 7 -46 4 -21 -3 -47 -2 -57
2 -10 5 -24 7 -30 6 -7 -1 -13 2 -13 6 0 5 -13 17 -30 26 -16 10 -30 14 -30 9
0 -6 -11 -13 -25 -16 -25 -6 -42 -19 -89 -63 -50 -49 -164 -5 -115 44 8 8 7
19 -3 40 -12 25 -19 28 -68 30 -69 3 -104 17 -120 49 -19 35 13 94 51 94 15 0
29 -6 32 -12 3 -10 9 -10 29 0 14 8 34 12 44 11 24 -5 59 20 68 47 9 30 33 48
97 71 37 14 74 39 109 73 52 51 54 52 99 45 47 -6 96 -33 96 -53 0 -19 -60
-82 -78 -82 -11 0 -21 -9 -24 -20 -3 -11 -11 -20 -17 -20 -7 0 -13 -7 -13 -15
0 -9 9 -15 23 -15 13 0 24 -8 27 -20 4 -16 -2 -22 -34 -31 -38 -12 -48 -22
-31 -33 13 -8 82 13 82 24 0 6 3 9 8 8 13 -4 52 13 52 23 0 24 177 89 245 89
20 0 39 9 58 29 27 29 178 111 204 111 17 0 88 68 96 92 10 28 52 33 76 9 15
-15 34 -21 64 -21 23 0 52 -3 63 -6 28 -7 40 23 19 46 -27 30 -18 40 40 40 59
0 105 16 105 36 0 7 14 14 32 16 27 2 33 8 40 36 13 48 32 50 73 6 19 -20 38
-34 42 -31 3 4 1 13 -5 20 -15 18 -5 27 27 27 32 0 44 8 57 40 13 31 10 166
-5 203 -13 35 -7 47 23 47 12 0 32 12 45 26 15 17 28 23 39 19 36 -14 143 -35
151 -31 5 3 11 19 14 36 4 18 13 30 22 30 9 0 20 10 25 23 15 33 33 61 48 70
6 4 12 19 12 32 0 14 5 25 10 25 6 0 10 9 10 20 0 11 4 28 9 38 5 9 12 25 15
35 3 9 14 17 24 17 10 0 27 9 37 20 17 19 17 21 0 40 -14 16 -15 23 -6 34 7 8
9 20 5 27 -9 16 -108 5 -139 -15 -13 -9 -31 -13 -40 -10 -18 7 -96 -24 -107
-42 -5 -8 -46 -12 -118 -13 -91 -2 -110 1 -110 13 0 8 -7 19 -16 24 -13 7 -14
13 -5 30 9 17 8 24 -9 40 -13 12 -18 25 -14 35 5 13 0 17 -19 17 -28 0 -77 19
-77 29 0 15 -65 44 -102 45 -22 2 -43 7 -46 13 -4 6 -33 11 -67 10 -76 -2
-118 23 -109 64 3 18 0 28 -10 32 -9 4 -16 17 -16 31 0 14 -13 36 -30 53 -17
16 -28 34 -25 43 3 9 -4 26 -15 38 -12 12 -18 22 -15 22 3 0 -3 10 -14 22 -11
11 -18 25 -15 29 5 9 -3 22 -42 64 -12 13 -20 26 -17 29 3 3 -6 11 -21 17 -14
7 -26 15 -26 19 0 11 -81 30 -122 28 -34 -2 -56 5 -112 34 -28 14 -109 17
-216 8z m-33 -3233 c-2 -6 -10 -13 -18 -15 -8 -3 -11 -1 -7 3 4 5 3 14 -3 21
-8 9 -5 11 11 7 11 -3 19 -10 17 -16z"/>
<path d="M6820 2976 c0 -2 7 -7 16 -10 8 -3 12 -2 9 4 -6 10 -25 14 -25 6z"/>
<path d="M6788 1763 c7 -3 16 -2 19 1 4 3 -2 6 -13 5 -11 0 -14 -3 -6 -6z"/>
<path d="M5128 337 c-13 -4 -36 -7 -51 -4 -15 2 -30 0 -33 -5 -3 -4 -14 -8
-25 -8 -11 0 -22 -6 -25 -14 -3 -8 -22 -26 -43 -40 -36 -25 -37 -28 -34 -79 3
-58 16 -73 72 -83 20 -4 41 -11 47 -16 8 -5 18 -3 27 7 9 8 22 15 31 15 8 0
20 9 26 20 6 11 19 20 28 20 12 0 22 14 31 44 7 24 24 54 37 67 31 29 32 65 2
75 -32 11 -63 11 -90 1z"/>
</g>
</svg>
