<?xml version="1.0" standalone="no"?>
<!DOCTYPE svg PUBLIC "-//W3C//DTD SVG 20010904//EN"
 "http://www.w3.org/TR/2001/REC-SVG-20010904/DTD/svg10.dtd">
<svg version="1.0" xmlns="http://www.w3.org/2000/svg"
 width="734.000000pt" height="1024.000000pt" viewBox="0 0 734.000000 1024.000000"
 preserveAspectRatio="xMidYMid meet">
<metadata>
Created by potrace 1.16, written by Peter Selinger 2001-2019
</metadata>
<g transform="translate(0.000000,1024.000000) scale(0.100000,-0.100000)"
fill="#000000" stroke="none">
<path d="M4417 10233 c-4 -3 -7 -20 -7 -38 0 -17 -6 -39 -13 -49 -18 -24 -51
-17 -55 12 -5 30 -14 28 -34 -8 -9 -17 -24 -30 -33 -30 -25 0 -17 -18 15 -35
33 -17 36 -25 18 -43 -19 -19 -56 -14 -63 8 -10 31 -37 41 -78 28 -35 -11 -36
-11 -21 -39 7 -15 14 -38 14 -51 0 -32 -106 -145 -145 -154 -16 -4 -62 -22
-102 -41 -40 -18 -83 -33 -96 -33 -39 0 -245 -150 -337 -245 l-45 -47 -159 7
c-123 6 -169 12 -200 26 -23 10 -63 19 -90 19 -44 0 -53 -4 -87 -40 -39 -41
-50 -85 -46 -182 1 -36 -33 -118 -60 -140 -10 -8 -18 -7 -31 5 -9 8 -38 18
-64 22 -27 4 -48 10 -48 14 1 3 21 21 45 39 67 49 59 82 -21 82 -24 0 -42 8
-58 25 -37 39 -84 34 -141 -15 -25 -22 -55 -40 -66 -40 -11 0 -44 -22 -73 -50
-29 -27 -62 -50 -74 -50 -15 0 -22 -8 -27 -30 -8 -35 -17 -42 -62 -46 -45 -3
-62 -28 -63 -90 0 -33 -5 -56 -15 -64 -19 -16 -19 -49 0 -56 26 -10 17 -23
-34 -49 -61 -30 -68 -41 -45 -66 20 -23 52 -25 60 -4 4 8 11 15 16 15 22 0 1
-88 -31 -131 -17 -24 -31 -54 -31 -68 0 -15 -10 -34 -27 -47 -35 -27 -26 -50
26 -64 l41 -11 0 -59 0 -60 -125 0 -125 0 0 -40 c0 -40 0 -40 -38 -40 -36 0
-39 -2 -70 -63 -17 -35 -35 -78 -38 -95 -9 -43 -51 -80 -98 -85 -37 -4 -56
-19 -56 -44 0 -23 -52 -52 -106 -58 -58 -8 -69 -19 -28 -29 44 -11 21 -30 -74
-61 -51 -16 -92 -32 -92 -35 0 -16 89 -105 117 -116 l33 -14 0 -79 c0 -61 3
-80 15 -85 10 -4 15 -20 15 -51 l0 -45 -50 0 c-59 0 -63 11 -28 79 23 42 23
43 4 55 -11 6 -34 26 -52 45 -19 21 -38 32 -47 28 -19 -7 -53 29 -62 65 -9 34
-26 49 -67 57 -28 6 -35 14 -56 69 -15 39 -29 62 -39 62 -18 0 -113 -91 -113
-109 0 -7 14 -20 32 -29 51 -27 81 -60 75 -84 -8 -29 6 -58 52 -112 23 -26 41
-56 41 -67 0 -11 -22 -44 -50 -73 -48 -51 -50 -55 -50 -110 l0 -57 -35 7 c-30
5 -36 3 -52 -24 -14 -23 -22 -28 -38 -22 -29 11 -46 35 -54 72 -8 37 -20 43
-46 24 -18 -13 -18 -18 -6 -65 l13 -51 -31 -29 c-28 -27 -31 -34 -31 -94 0
-83 14 -122 49 -136 15 -7 35 -25 45 -42 16 -28 17 -32 2 -48 -24 -27 -19 -43
27 -76 30 -22 45 -41 51 -68 10 -41 24 -45 61 -21 25 16 25 16 25 -18 0 -22 7
-42 20 -53 23 -21 27 -89 8 -142 -11 -29 -16 -33 -50 -33 l-38 0 0 -45 c0 -40
5 -48 49 -90 35 -33 57 -65 75 -111 33 -80 34 -114 5 -114 -12 0 -23 -8 -26
-19 -3 -13 -20 -23 -51 -31 -50 -12 -82 -34 -82 -56 0 -18 37 -36 59 -29 22 7
34 -16 25 -51 -4 -17 -1 -26 10 -30 14 -5 16 -26 16 -138 0 -90 5 -146 16
-181 8 -27 16 -91 17 -141 2 -87 1 -93 -24 -118 -36 -35 -42 -63 -20 -85 21
-21 11 -51 -16 -51 -23 0 -12 -84 16 -114 11 -12 21 -29 21 -37 0 -8 21 -24
46 -37 l45 -23 44 20 c48 21 53 16 30 -29 -15 -28 -45 -42 -45 -20 0 22 -30 8
-36 -17 -5 -19 -2 -30 11 -39 18 -13 18 -14 0 -34 -10 -11 -33 -22 -51 -26
-36 -7 -41 -18 -22 -59 9 -21 9 -29 -5 -42 -13 -14 -20 -14 -46 -4 -16 7 -35
10 -41 6 -17 -10 -40 -69 -40 -102 0 -20 -13 -38 -46 -68 l-47 -41 17 -33 c19
-36 15 -51 -9 -31 -13 11 -15 8 -15 -19 0 -48 -16 -71 -50 -71 -25 0 -30 -4
-30 -23 0 -29 26 -67 46 -67 11 0 14 -9 12 -32 -3 -30 -6 -33 -40 -36 l-38 -3
6 45 7 45 -74 -6 c-50 -4 -78 -10 -86 -21 -18 -21 -16 -28 8 -51 12 -11 19
-25 17 -31 -5 -15 -88 58 -88 78 0 12 -4 11 -23 -6 -31 -29 -41 -28 -33 4 7
25 6 25 -40 -12 -59 -49 -148 -155 -174 -209 -34 -69 -28 -100 37 -184 45 -60
43 -76 -11 -91 -41 -11 -47 -10 -72 9 -36 28 -46 27 -68 -11 -28 -49 -57 -78
-78 -78 -47 0 16 -77 74 -89 30 -6 34 -11 43 -55 18 -84 99 -157 220 -198 46
-15 50 -19 47 -47 -4 -34 20 -54 78 -66 61 -13 122 -36 161 -62 36 -24 49 -26
134 -20 27 2 30 -1 36 -37 6 -39 38 -76 64 -76 8 0 25 4 39 10 l26 10 0 -66
c0 -59 3 -69 28 -94 33 -33 122 -55 182 -45 33 6 51 1 111 -29 79 -40 113 -44
141 -19 17 15 20 15 42 -6 19 -18 33 -22 77 -19 l54 3 7 49 c4 27 12 54 18 60
6 6 36 11 68 11 56 0 57 -1 74 -37 15 -32 23 -38 50 -38 26 0 44 -12 96 -66
59 -60 67 -65 97 -60 40 8 92 -10 100 -35 4 -10 18 -22 33 -25 47 -10 72 -23
72 -39 0 -11 11 -15 39 -15 32 0 46 6 70 32 22 24 31 28 31 16 0 -9 16 -25 35
-37 20 -11 45 -36 56 -56 23 -39 51 -45 99 -20 32 17 43 5 33 -36 -8 -29 20
-49 69 -49 21 0 38 -4 38 -9 0 -18 86 -105 118 -118 36 -15 38 -25 17 -90 -6
-18 -2 -25 16 -31 15 -6 18 -11 11 -16 -19 -12 -14 -24 16 -38 22 -11 27 -20
26 -46 -2 -31 -1 -32 41 -32 68 0 95 -14 95 -50 0 -27 3 -30 33 -30 34 0 77
-33 77 -59 0 -10 9 -12 33 -7 73 13 71 14 88 -39 12 -39 23 -53 48 -66 18 -8
37 -22 42 -30 14 -23 10 -56 -7 -63 -13 -5 -15 -15 -11 -42 9 -53 34 -77 74
-71 22 4 33 2 33 -7 0 -6 5 -17 12 -24 9 -9 18 -6 41 16 28 27 29 27 44 7 10
-14 13 -33 9 -63 -5 -35 -2 -49 14 -69 25 -32 25 -55 0 -78 -40 -36 -10 -107
51 -119 40 -8 59 -23 59 -48 0 -27 29 -34 62 -15 37 21 57 22 64 2 4 -9 19
-15 40 -15 28 0 34 4 34 20 0 11 6 23 14 26 22 8 56 -14 56 -36 0 -24 8 -25
39 -4 19 14 26 14 47 3 20 -10 32 -11 57 -1 20 8 35 8 41 2 6 -6 22 -10 38
-10 21 0 31 8 44 31 16 32 28 34 91 14 19 -6 26 -1 40 26 25 46 68 89 90 89
10 0 34 -9 54 -19 23 -13 41 -16 50 -10 26 16 31 9 24 -31 -7 -42 -4 -46 24
-30 16 8 20 5 25 -20 3 -17 12 -30 20 -30 8 0 50 18 93 41 79 42 119 47 177
23 17 -7 19 -4 13 30 -4 27 -3 35 6 29 92 -55 158 -108 163 -129 6 -23 11 -25
48 -23 60 3 66 1 66 -20 0 -13 8 -21 23 -23 14 -2 23 -11 25 -26 3 -18 10 -22
38 -22 30 0 34 -3 34 -27 0 -25 1 -26 20 -8 21 19 50 14 50 -10 0 -8 6 -16 13
-17 6 0 19 -2 27 -2 24 -3 15 -20 -87 -174 -204 -309 -283 -436 -283 -456 0
-53 57 -87 147 -89 37 0 50 4 66 24 l19 23 29 -34 c36 -43 58 -82 62 -112 3
-16 13 -24 33 -29 47 -9 73 -28 87 -62 l13 -32 12 55 c6 30 51 248 101 485
208 999 252 1258 232 1362 -13 65 -31 100 -87 176 -49 66 -52 74 -27 92 17 12
17 16 0 62 -9 26 -17 55 -17 63 0 11 -20 22 -57 33 -69 22 -83 32 -83 62 0 26
-17 35 -65 35 -55 0 -60 15 -64 193 -2 87 0 192 4 233 l7 74 67 0 c56 0 73 4
101 25 33 24 80 34 80 16 0 -5 7 -11 14 -14 10 -4 23 7 36 29 25 40 53 44 75
10 17 -25 108 -51 156 -44 30 4 37 46 13 82 -13 21 -14 29 -4 41 15 18 6 45
-42 116 -27 40 -34 45 -67 44 -20 0 -41 -3 -46 -6 -6 -2 -51 -3 -102 -1 -80 3
-92 6 -96 23 -7 24 -52 26 -66 2 -18 -34 -24 32 -16 202 l7 165 68 0 c59 0 68
2 73 20 4 16 14 20 46 20 37 0 41 -2 41 -25 0 -25 1 -26 53 -18 28 4 149 7
267 7 234 1 331 -11 377 -47 26 -21 27 -21 18 -2 -4 11 -10 36 -13 56 -3 30 0
37 17 42 17 4 21 13 21 46 0 45 1 46 33 30 45 -23 87 -72 87 -101 0 -26 3 -28
43 -29 99 -3 118 11 160 109 33 80 59 102 121 102 19 0 41 7 50 15 14 14 25 1
111 -127 104 -156 103 -153 84 -279 -12 -73 -8 -130 10 -158 13 -21 131 27
131 54 0 11 -12 70 -26 130 -14 61 -32 139 -40 175 -8 36 -28 94 -44 129 -25
52 -28 67 -18 78 10 13 7 20 -19 43 -17 16 -37 38 -44 51 -10 20 -9 25 15 44
14 11 26 25 26 31 0 30 -190 204 -222 204 -21 0 -38 21 -38 46 0 20 -6 23 -47
26 -41 3 -48 6 -51 26 l-3 22 -29 -20 c-15 -11 -34 -20 -41 -20 -19 0 96 114
224 222 120 103 129 123 81 180 -33 40 -74 122 -74 148 0 17 -6 20 -50 20 -47
0 -50 2 -50 25 0 16 -6 25 -15 25 -12 0 -15 15 -15 75 0 68 -2 75 -20 75 -13
0 -20 7 -20 20 0 11 -7 23 -15 26 -11 5 -15 22 -15 67 0 34 -7 145 -15 247 -9
102 -15 236 -13 299 l3 114 58 20 c72 24 81 42 74 155 -5 81 -5 82 19 82 19 0
24 5 24 25 0 19 5 25 21 25 31 0 101 74 97 102 -2 19 -8 23 -35 21 -31 -3 -32
-2 -35 44 -3 45 -6 49 -48 73 -66 37 -167 36 -230 -2 -133 -80 -158 -84 -248
-49 -70 28 -110 27 -152 -4 -38 -28 -78 -33 -86 -10 -4 10 -20 15 -48 15 -23
0 -51 7 -62 15 -20 15 -75 19 -136 9 -28 -5 -38 -11 -38 -25 0 -17 -8 -19 -77
-19 l-78 0 -35 48 c-20 26 -102 137 -183 248 -85 117 -157 206 -172 212 -14 7
-39 12 -56 12 -25 0 -30 -5 -35 -30 -5 -21 -12 -30 -26 -30 -33 0 -58 19 -58
45 0 21 -5 25 -32 25 -42 0 -60 12 -56 36 3 16 -6 20 -62 26 -121 13 -182 -7
-194 -62 -5 -26 -9 -31 -23 -24 -10 4 -49 10 -88 11 -38 2 -79 8 -91 14 -21
11 -211 8 -310 -5 -48 -6 -53 -5 -68 20 -14 20 -23 24 -43 19 -57 -14 -83 23
-83 121 l0 54 -64 0 c-35 0 -66 4 -68 9 -1 5 -19 11 -38 13 l-35 4 -3 166 c-3
181 2 198 54 198 22 0 24 3 24 54 0 49 -2 55 -22 58 -20 3 -23 10 -26 61 -3
48 -6 57 -22 57 -40 0 -130 136 -130 196 0 25 -16 78 -41 138 -24 59 -38 104
-34 116 5 17 2 20 -29 20 -19 0 -41 -7 -50 -15 -8 -8 -17 -15 -20 -15 -10 0
-30 45 -35 82 l-6 37 -64 -32 c-37 -18 -66 -39 -69 -50 -9 -34 -92 -5 -92 32
1 25 156 181 180 181 25 0 40 35 40 91 0 28 4 39 15 39 12 0 15 17 15 95 0 78
3 95 15 95 12 0 15 19 15 114 l0 114 46 62 c25 34 54 65 65 67 12 4 23 20 29
47 27 104 35 120 60 126 17 4 26 15 30 35 16 76 47 98 136 97 l62 -1 5 36 c4
19 14 44 24 55 10 11 38 61 63 111 37 76 50 93 75 101 17 5 60 22 97 38 37 16
108 35 158 42 101 15 122 28 165 102 24 41 54 61 83 55 19 -3 42 18 42 39 0
35 -38 106 -84 157 -61 68 -150 113 -222 113 -29 0 -56 5 -59 10 -7 11 -28 13
-38 3z m-3337 -5186 c0 -7 -13 -26 -30 -42 -33 -31 -39 -21 -15 25 16 30 45
41 45 17z"/>
</g>
</svg>
