<?xml version="1.0" standalone="no"?>
<!DOCTYPE svg PUBLIC "-//W3C//DTD SVG 20010904//EN"
 "http://www.w3.org/TR/2001/REC-SVG-20010904/DTD/svg10.dtd">
<svg version="1.0" xmlns="http://www.w3.org/2000/svg"
 width="1024.000000pt" height="772.000000pt" viewBox="0 0 1024.000000 772.000000"
 preserveAspectRatio="xMidYMid meet">
<metadata>
Created by potrace 1.16, written by Peter Selinger 2001-2019
</metadata>
<g transform="translate(0.000000,772.000000) scale(0.100000,-0.100000)"
fill="#000000" stroke="none">
<path d="M1027 7706 c-27 -7 -53 -18 -60 -25 -6 -6 -29 -11 -51 -11 -24 0 -54
-8 -71 -20 -16 -11 -42 -20 -57 -20 -18 0 -29 -7 -33 -20 -7 -22 -18 -25 -44
-10 -24 12 -87 -5 -126 -34 -16 -13 -44 -31 -62 -40 -48 -24 -70 -52 -119
-150 -44 -87 -65 -179 -65 -275 0 -19 -9 -52 -20 -73 l-20 -39 36 -71 c29 -60
35 -81 35 -137 0 -47 6 -77 20 -104 38 -71 16 -250 -45 -352 -22 -39 -27 -61
-32 -148 -5 -86 -3 -108 12 -136 20 -40 15 -92 -20 -190 -29 -82 -43 -175 -34
-221 4 -19 3 -56 -3 -82 -9 -35 -8 -61 0 -98 7 -30 9 -85 5 -144 -5 -82 -3
-99 15 -137 11 -24 23 -58 27 -76 6 -28 2 -35 -39 -69 -45 -38 -58 -63 -71
-139 -9 -55 -32 -95 -54 -95 -24 0 -71 -78 -71 -119 0 -16 -5 -33 -11 -36 -6
-4 -23 -25 -39 -47 -31 -42 -30 -33 -14 -195 3 -32 14 -63 27 -80 12 -15 22
-32 22 -38 2 -27 17 -114 25 -145 8 -29 21 -42 68 -70 69 -40 152 -142 152
-187 1 -88 38 -168 138 -293 37 -47 193 -117 287 -129 78 -10 80 -9 100 15 24
29 65 24 65 -8 0 -18 5 -19 38 -14 20 4 67 9 103 12 125 11 259 -43 278 -113
11 -39 108 -171 185 -250 31 -33 68 -59 96 -70 25 -9 66 -36 92 -61 34 -33 57
-46 83 -49 30 -3 35 -1 35 17 0 41 34 17 57 -40 21 -54 22 -55 66 -58 36 -2
46 -8 55 -27 15 -33 46 -34 39 -2 -3 12 -9 35 -13 51 -6 26 -5 27 13 18 11 -6
28 -29 38 -51 20 -45 36 -50 94 -30 25 9 31 16 31 40 0 27 3 29 39 29 45 0 71
29 71 81 0 43 43 114 78 128 16 7 46 33 67 58 l38 46 -40 36 c-23 20 -46 46
-52 58 -6 12 -24 24 -41 28 -33 7 -70 47 -101 106 -12 25 -33 45 -57 57 -36
16 -37 19 -42 78 -6 76 -85 242 -130 276 -24 18 -30 29 -30 61 0 22 -16 79
-35 128 -33 81 -35 92 -24 127 9 31 8 48 -5 92 -9 30 -16 90 -16 135 0 44 -4
85 -9 90 -5 6 -26 51 -46 100 -21 50 -43 97 -51 106 -8 8 -14 29 -14 46 0 22
-7 36 -26 48 -31 20 -63 87 -64 131 0 20 -16 55 -45 98 -25 37 -45 73 -45 80
0 13 -51 63 -91 88 -15 9 -44 50 -65 92 -36 70 -38 77 -26 109 11 31 9 47 -19
142 -31 107 -31 108 -11 134 16 23 17 31 7 61 -9 27 -9 42 1 65 6 17 15 57 19
90 6 44 15 68 35 91 30 35 40 102 40 264 0 47 4 114 9 150 8 62 7 67 -21 109
-36 53 -44 90 -29 132 9 26 8 35 -5 50 -14 15 -14 20 0 50 9 19 32 53 51 77
32 40 35 49 35 111 0 40 5 74 14 86 7 11 21 44 31 74 14 42 15 58 6 77 -6 14
-11 47 -11 74 0 56 -41 168 -71 196 -10 9 -19 27 -19 38 0 12 -8 35 -18 51
-10 17 -21 49 -24 73 -4 23 -13 53 -21 66 -20 30 -96 52 -134 38 -23 -8 -33
-6 -52 9 -13 11 -37 19 -54 19 -17 0 -45 11 -63 25 -37 28 -33 28 -97 11z"/>
<path d="M9502 2780 c-19 -11 -52 -37 -74 -58 -57 -53 -125 -100 -164 -112
-19 -7 -39 -20 -44 -30 -21 -39 -11 -65 45 -120 73 -72 74 -97 5 -165 -33 -32
-50 -58 -51 -75 -1 -45 -24 -137 -38 -154 -21 -25 -66 -46 -100 -46 -24 0 -39
-12 -81 -62 -126 -152 -133 -157 -239 -186 -53 -14 -116 -25 -141 -24 -68 2
-107 -6 -137 -32 -15 -12 -44 -28 -63 -35 -33 -11 -36 -10 -58 16 l-23 28 -24
-28 c-25 -28 -26 -28 -82 -16 -32 6 -70 13 -85 16 -40 7 -54 28 -40 59 17 35
-7 42 -72 20 -44 -15 -63 -16 -136 -6 -195 24 -198 26 -224 95 -10 24 -26 47
-36 50 -35 11 -189 1 -195 -13 -3 -8 -13 -11 -25 -7 -15 5 -20 2 -20 -12 0
-12 18 -30 46 -48 25 -16 54 -41 65 -56 11 -15 29 -31 40 -34 12 -4 44 -24 72
-45 28 -22 84 -53 124 -70 41 -17 92 -44 114 -60 22 -16 69 -38 104 -50 35
-12 81 -33 102 -47 21 -14 61 -36 88 -48 28 -13 75 -35 105 -50 114 -56 152
-65 225 -52 61 10 72 9 128 -12 34 -12 108 -38 164 -57 100 -35 104 -37 158
-102 31 -37 70 -93 87 -125 33 -62 88 -117 116 -117 36 0 93 -22 123 -47 17
-15 46 -59 64 -99 37 -82 61 -101 134 -113 32 -5 70 -21 99 -41 60 -42 259
-237 278 -272 18 -35 18 -96 -2 -143 -8 -21 -13 -43 -10 -50 2 -7 30 -27 62
-46 61 -34 101 -39 204 -24 41 6 47 10 60 43 7 20 14 74 15 118 2 86 8 104 30
104 8 0 21 10 29 22 14 20 13 23 -22 54 l-37 32 3 103 c2 56 7 110 12 119 6
11 3 26 -11 46 -10 16 -19 40 -19 54 -1 14 -7 36 -15 50 -20 36 -18 108 6 197
27 99 32 108 69 123 38 16 38 24 -1 40 -28 12 -30 15 -24 52 6 35 3 44 -21 69
-24 25 -28 37 -27 83 1 46 -4 62 -33 107 -30 47 -34 61 -34 120 0 48 -4 68
-14 72 -9 4 -15 28 -18 71 -4 60 -7 70 -40 104 -37 38 -85 145 -95 212 -3 19
-12 44 -19 55 -8 11 -14 38 -14 61 0 25 -6 47 -15 54 -8 7 -15 29 -15 49 0 26
-10 50 -32 80 l-32 44 22 41 c39 73 27 136 -42 218 -93 111 -187 151 -254 108z"/>
<path d="M7344 1955 c-3 -8 -3 -19 1 -25 9 -14 45 6 45 25 0 19 -39 19 -46 0z"/>
<path d="M3573 1475 c-23 -19 -51 -35 -64 -35 -12 0 -42 -9 -65 -21 -39 -18
-44 -25 -50 -65 -3 -25 -4 -66 0 -90 3 -28 1 -52 -6 -64 -10 -15 -9 -22 5 -38
9 -10 17 -23 17 -29 0 -5 15 -30 34 -54 54 -72 70 -137 39 -171 -15 -17 -13
-18 51 -18 51 0 78 -6 116 -25 60 -31 76 -54 87 -125 11 -76 7 -103 -17 -119
-12 -8 -20 -24 -20 -42 0 -32 12 -36 50 -14 36 20 54 18 65 -7 14 -32 107 -49
133 -24 22 19 71 21 141 4 41 -9 53 -17 57 -35 8 -29 39 -47 70 -39 19 5 24
13 24 38 l0 31 57 -6 c49 -5 62 -11 83 -37 37 -45 74 -41 61 8 -15 53 11 66
72 37 18 -8 50 -21 72 -28 32 -11 47 -25 74 -70 38 -65 55 -65 45 -2 -5 38 -3
44 15 50 13 4 36 -3 64 -19 35 -21 57 -26 109 -26 96 0 127 -8 134 -36 5 -19
10 -21 29 -14 15 6 48 2 101 -12 44 -11 106 -21 139 -22 54 -1 65 -5 106 -38
25 -21 56 -38 67 -38 19 0 21 5 20 53 0 28 3 81 7 118 l7 65 -42 40 c-23 21
-51 57 -62 79 -37 72 -67 105 -97 105 -18 0 -48 17 -89 50 -34 27 -88 63 -120
79 -53 27 -62 28 -78 16 -29 -22 -64 -18 -119 14 -35 20 -57 43 -75 75 -22 41
-28 46 -60 46 -45 1 -85 34 -103 85 l-14 40 -64 3 -63 3 -99 91 -99 92 -41
-12 c-36 -9 -47 -8 -75 9 -18 10 -49 19 -69 19 -25 0 -45 9 -68 29 -24 21 -48
30 -90 36 -32 4 -75 13 -97 21 -22 8 -71 14 -108 14 -68 0 -68 0 -75 30 -6 27
-11 30 -44 30 -28 0 -47 -9 -78 -35z"/>
<path d="M4353 353 c-20 -7 -15 -21 12 -39 32 -21 39 -14 24 20 -13 27 -15 28
-36 19z"/>
<path d="M3729 184 c-108 -78 -142 -123 -77 -100 18 6 46 25 63 41 l30 30 7
-54 c8 -52 18 -67 62 -92 17 -10 18 -9 11 12 -17 50 -17 167 -1 201 9 17 14
33 13 35 -2 2 -51 -31 -108 -73z"/>
<path d="M4050 250 c0 -6 7 -25 16 -42 10 -19 14 -46 11 -72 -4 -43 15 -96 35
-96 8 0 9 26 4 89 -5 75 -4 90 10 102 15 12 14 14 -3 20 -28 11 -73 10 -73 -1z"/>
<path d="M3518 199 c-33 -18 -21 -39 21 -39 33 0 39 3 43 25 5 22 2 25 -21 25
-14 0 -34 -5 -43 -11z"/>
<path d="M4176 164 c-7 -18 1 -35 43 -88 l31 -38 10 27 c9 23 6 29 -19 51 -17
14 -33 34 -36 44 -8 24 -21 26 -29 4z"/>
</g>
</svg>
