<?xml version="1.0" standalone="no"?>
<!DOCTYPE svg PUBLIC "-//W3C//DTD SVG 20010904//EN"
 "http://www.w3.org/TR/2001/REC-SVG-20010904/DTD/svg10.dtd">
<svg version="1.0" xmlns="http://www.w3.org/2000/svg"
 width="1024.000000pt" height="682.000000pt" viewBox="0 0 1024.000000 682.000000"
 preserveAspectRatio="xMidYMid meet">
<metadata>
Created by potrace 1.16, written by Peter Selinger 2001-2019
</metadata>
<g transform="translate(0.000000,682.000000) scale(0.100000,-0.100000)"
fill="#000000" stroke="none">
<path d="M6250 5404 c-57 -30 -80 -36 -186 -46 l-122 -11 -17 -36 c-9 -20 -27
-52 -41 -71 -20 -31 -22 -41 -14 -70 24 -84 16 -138 -39 -267 -46 -106 -58
-126 -90 -145 -20 -12 -39 -27 -43 -32 -14 -20 -8 -75 12 -126 23 -60 18 -93
-16 -109 -36 -16 -40 -14 -54 20 -10 24 -32 40 -99 74 -85 42 -88 43 -140 32
-44 -8 -59 -7 -85 6 -17 8 -64 18 -104 21 -60 4 -86 12 -152 47 -79 42 -81 43
-109 26 -26 -15 -50 -16 -257 -7 -354 15 -318 19 -354 -42 -24 -43 -30 -64
-30 -115 0 -34 5 -73 11 -87 9 -18 8 -42 -5 -101 -17 -85 -14 -100 14 -85 11
6 54 13 97 16 66 5 86 11 128 39 67 44 85 48 172 40 73 -7 75 -8 89 -41 8 -18
14 -45 14 -60 0 -15 14 -43 35 -67 49 -57 51 -75 20 -154 -28 -71 -67 -118
-92 -109 -53 21 -60 19 -67 -17 -4 -19 -23 -54 -44 -77 -51 -58 -53 -68 -26
-119 l23 -44 -19 -38 c-31 -59 -13 -79 71 -79 40 0 49 -11 49 -61 0 -32 2 -32
78 -29 52 2 52 2 68 -36 15 -36 15 -42 -11 -126 -24 -81 -25 -94 -15 -145 11
-52 6 -320 -6 -365 -3 -11 -15 -18 -28 -18 -13 0 -30 -8 -39 -18 -20 -21 -36
-100 -30 -136 4 -18 -5 -35 -34 -66 -36 -39 -41 -41 -73 -33 -33 9 -35 13 -40
56 -5 35 -14 56 -36 78 l-31 31 -52 -64 c-73 -87 -98 -96 -196 -68 -16 5 -49
14 -73 20 -41 11 -43 12 -37 43 5 25 0 41 -21 72 -15 22 -33 55 -41 73 -18 44
-60 58 -160 53 -37 -1 -41 -14 -18 -57 31 -61 10 -145 -44 -170 -46 -23 -152
-30 -190 -14 -23 9 -37 9 -63 0 -29 -11 -40 -10 -72 5 -52 25 -60 13 -45 -64
12 -54 11 -65 -4 -90 -25 -42 -21 -58 17 -76 18 -9 44 -27 57 -41 l23 -25 -29
-24 c-39 -31 -27 -52 46 -82 65 -26 72 -47 29 -88 -37 -35 -38 -49 -3 -81 33
-30 23 -55 -25 -65 -60 -12 -82 -1 -104 52 -23 55 -40 61 -64 24 -11 -16 -33
-29 -61 -36 -50 -13 -78 -43 -94 -102 -10 -38 -9 -41 23 -76 68 -74 194 -197
241 -234 43 -34 47 -42 47 -80 0 -53 16 -112 36 -132 26 -26 79 -19 118 16 20
17 40 28 46 24 7 -4 23 21 42 63 27 62 35 71 63 76 17 4 63 22 101 41 101 51
125 47 139 -27 7 -35 9 -37 62 -48 41 -9 66 -22 98 -51 56 -52 99 -53 152 -5
35 32 38 38 38 92 0 69 13 77 76 49 38 -18 39 -18 79 9 22 14 46 26 53 26 7 0
33 14 56 32 l44 32 23 -28 c33 -37 40 -73 20 -95 -23 -25 -22 -112 2 -141 15
-19 28 -23 74 -23 71 0 93 16 203 143 76 89 89 99 127 105 24 4 58 13 76 21
30 12 32 16 32 62 0 60 9 69 92 86 58 12 66 16 100 62 65 84 133 229 131 277
-1 23 -5 121 -9 217 -12 272 -11 307 15 334 12 12 43 33 69 45 58 27 82 61
134 188 22 54 49 110 60 125 36 51 145 121 246 159 23 8 61 45 118 115 l85
104 -7 104 c-8 128 4 186 56 258 49 69 54 88 36 134 -9 22 -15 62 -15 89 1 28
-2 74 -6 102 -7 50 -6 55 27 95 19 24 39 50 44 58 5 8 9 92 9 185 1 132 5 185
19 235 21 76 181 392 228 451 27 33 33 50 32 85 -1 48 -28 126 -49 144 -20 17
-75 5 -121 -26 -36 -25 -39 -25 -78 -10 -23 8 -72 18 -111 21 -39 4 -94 18
-124 31 -68 30 -82 29 -161 -12z"/>
</g>
</svg>
