<?xml version="1.0" standalone="no"?>
<!DOCTYPE svg PUBLIC "-//W3C//DTD SVG 20010904//EN"
 "http://www.w3.org/TR/2001/REC-SVG-20010904/DTD/svg10.dtd">
<svg version="1.0" xmlns="http://www.w3.org/2000/svg"
 width="1024.000000pt" height="939.000000pt" viewBox="0 0 1024.000000 939.000000"
 preserveAspectRatio="xMidYMid meet">
<metadata>
Created by potrace 1.16, written by Peter Selinger 2001-2019
</metadata>
<g transform="translate(0.000000,939.000000) scale(0.100000,-0.100000)"
fill="#000000" stroke="none">
<path d="M1025 9356 c-46 -20 -61 -44 -104 -159 -22 -58 -51 -123 -65 -144
-33 -48 -33 -77 0 -120 49 -65 40 -127 -21 -139 -26 -5 -40 2 -90 40 -32 25
-63 46 -70 46 -25 0 -55 -32 -55 -60 0 -49 19 -83 75 -136 38 -35 55 -59 55
-76 0 -41 -27 -55 -122 -63 -68 -5 -93 -12 -119 -30 -39 -30 -60 -21 -89 35
-17 33 -25 40 -51 40 -17 0 -53 -10 -81 -22 -42 -18 -53 -29 -69 -65 l-18 -43
-70 0 c-63 0 -74 -3 -102 -28 -48 -43 -33 -53 75 -50 106 2 122 -4 192 -79
l40 -43 76 0 c83 0 108 -12 108 -54 0 -27 29 -56 56 -56 10 0 30 9 44 19 21
17 28 18 55 7 17 -7 57 -16 89 -20 76 -10 81 -12 102 -44 21 -32 39 -288 23
-331 -6 -14 -28 -45 -50 -67 -30 -30 -42 -52 -46 -83 -7 -49 -2 -50 82 -21 71
24 115 26 115 5 0 -28 -32 -65 -79 -92 -25 -15 -82 -51 -125 -80 -87 -58 -142
-78 -190 -69 -27 5 -36 0 -73 -39 -24 -24 -43 -51 -43 -61 0 -9 16 -47 36 -85
25 -48 34 -76 30 -93 -3 -13 -63 -83 -133 -156 -71 -73 -129 -136 -131 -140
-2 -5 17 -21 43 -35 63 -37 71 -55 46 -108 -11 -23 -28 -54 -38 -69 -32 -50 1
-153 142 -443 85 -175 104 -204 237 -362 72 -86 115 -157 148 -243 40 -107
116 -141 304 -139 l111 2 85 -42 c79 -38 91 -41 170 -41 113 -1 151 -11 246
-64 43 -25 102 -50 131 -56 89 -19 163 -88 163 -151 0 -31 25 -53 72 -64 37
-9 79 -53 143 -150 30 -44 69 -90 88 -102 26 -16 39 -35 52 -75 36 -110 63
-156 100 -168 47 -15 108 2 134 38 10 15 33 67 49 116 17 48 42 106 57 127 22
34 100 99 160 134 17 10 16 13 -8 38 -29 29 -33 47 -15 65 18 18 54 15 99 -9
23 -11 42 -19 43 -17 1 2 23 35 49 75 53 78 96 116 156 138 69 24 98 43 111
75 7 17 10 33 7 36 -2 3 -54 -6 -113 -19 -60 -14 -111 -23 -112 -22 -2 2 3 34
12 72 14 64 14 69 -3 86 -15 15 -16 25 -7 66 8 41 7 53 -8 76 -18 27 -18 27
-109 20 -87 -6 -95 -5 -137 19 -113 65 -161 85 -235 99 -118 22 -131 30 -226
125 -48 48 -96 95 -108 105 -15 12 -21 28 -21 57 0 34 -8 48 -59 105 -65 72
-75 99 -86 240 -4 44 -11 97 -16 119 -6 21 -8 40 -5 43 7 7 33 -52 46 -103 16
-66 94 -131 177 -149 18 -3 76 -1 129 6 93 12 98 12 108 -6 25 -45 75 -81 137
-100 116 -34 226 -102 235 -144 13 -67 20 -76 104 -129 137 -86 236 -130 320
-143 168 -25 179 -29 229 -72 26 -23 62 -50 80 -59 38 -21 39 -37 6 -76 -46
-55 -33 -83 64 -145 41 -26 168 -178 187 -224 23 -55 17 -85 -37 -174 -61 -99
-73 -161 -45 -233 17 -45 87 -121 161 -174 22 -16 74 -59 115 -95 110 -97 142
-110 257 -108 55 1 117 -5 151 -13 31 -8 116 -27 187 -41 93 -19 176 -44 290
-90 88 -35 186 -68 217 -75 67 -13 85 -32 94 -101 3 -25 9 -50 13 -55 23 -32
55 -45 127 -54 60 -6 100 -19 164 -49 51 -25 98 -41 120 -41 28 0 57 -14 121
-56 80 -54 223 -128 321 -167 27 -11 72 -44 110 -81 53 -51 77 -67 131 -85 86
-29 106 -46 118 -101 12 -55 31 -77 73 -85 54 -11 75 -27 136 -106 34 -43 66
-84 73 -91 25 -25 105 -144 127 -188 46 -90 61 -152 66 -264 2 -59 9 -116 14
-126 5 -10 28 -32 50 -50 63 -50 56 -68 -57 -131 -76 -42 -86 -63 -94 -191 -6
-107 -7 -110 -40 -144 -19 -20 -53 -47 -76 -61 -77 -45 -142 -141 -143 -208 0
-43 28 -84 106 -151 81 -70 146 -135 234 -234 92 -104 122 -116 368 -146 248
-31 338 -53 427 -105 79 -46 109 -54 160 -45 55 11 69 48 56 149 -6 44 -11
117 -11 162 0 67 -4 90 -26 133 -34 69 -97 117 -188 143 -212 62 -220 67 -256
159 -12 30 -36 76 -55 101 -44 61 -50 83 -29 104 12 12 26 15 48 11 93 -19
101 -19 132 7 61 51 86 56 139 31 32 -15 57 -54 86 -132 17 -46 63 -74 194
-117 118 -40 189 -47 302 -32 61 9 63 8 72 -15 5 -13 7 -36 4 -51 -5 -23 -10
-27 -42 -27 -80 0 -76 -27 13 -104 49 -42 71 -76 49 -76 -54 -1 -17 -85 57
-131 52 -32 67 -60 55 -101 -10 -30 -56 -97 -85 -123 -68 -60 -89 -147 -47
-188 12 -13 89 -56 170 -97 134 -66 158 -82 243 -163 192 -182 298 -358 336
-559 13 -65 26 -118 29 -118 14 0 51 95 60 152 18 112 -20 283 -87 389 -68
110 -166 199 -291 267 -47 26 -69 44 -71 59 -4 29 33 53 85 53 44 0 45 0 58
68 9 44 49 61 164 69 104 7 140 20 174 65 77 100 92 285 46 572 -17 104 -70
239 -114 287 -72 80 -80 140 -30 224 37 64 100 110 223 164 180 79 247 141
259 240 12 102 -78 223 -192 256 -92 26 -147 59 -229 134 -59 55 -87 74 -130
86 l-55 16 -5 52 c-3 29 -12 239 -21 467 -9 228 -21 450 -25 493 -14 120 -13
123 127 157 105 26 133 100 68 181 -61 76 -44 124 60 170 118 52 291 -4 548
-177 61 -42 123 -81 136 -86 54 -20 118 37 106 93 -8 37 2 37 45 -1 60 -51 97
-35 60 27 -17 30 -20 45 -14 94 8 75 5 78 -141 169 -123 77 -150 85 -285 94
-52 4 -112 11 -134 17 -73 20 -176 158 -176 237 0 34 -1 34 -32 27 -89 -19
-102 -18 -139 11 -41 32 -105 111 -218 270 -44 61 -115 148 -158 194 -43 45
-99 117 -124 159 -42 70 -52 79 -115 111 -93 47 -103 55 -163 127 -29 34 -75
79 -104 99 -84 60 -117 95 -149 159 -17 34 -69 102 -117 155 -214 233 -463
534 -579 699 -92 131 -131 209 -216 426 -37 94 -96 240 -131 326 -36 86 -70
179 -77 208 -9 39 -15 50 -27 47 -9 -3 -36 -8 -61 -11 -65 -10 -121 -40 -155
-85 -73 -94 -136 -90 -245 16 -60 58 -71 64 -108 64 -51 0 -145 -34 -309 -111
-148 -70 -144 -70 -245 18 -35 30 -89 68 -122 85 -65 33 -62 32 -303 22 -233
-9 -293 10 -321 105 -10 30 -10 50 -1 83 26 94 -7 125 -175 168 -63 16 -127
37 -141 46 -14 9 -44 48 -66 85 -91 152 -142 166 -259 68 -66 -54 -82 -56
-127 -16 -43 38 -120 86 -185 115 -23 11 -78 36 -122 56 -43 20 -99 51 -125
69 -128 94 -199 115 -300 91 -83 -19 -110 -34 -190 -107 -69 -63 -285 -199
-377 -238 l-51 -22 -214 76 c-410 145 -445 159 -584 231 -77 41 -176 86 -220
101 -44 16 -125 51 -179 78 l-100 50 -165 8 c-91 4 -181 13 -200 18 -48 15
-94 48 -122 90 -37 55 -75 87 -117 99 -52 16 -160 15 -197 -2z"/>
<path d="M6903 8525 c-32 -23 -42 -68 -42 -193 0 -131 6 -154 48 -171 44 -19
83 -3 93 38 8 28 10 30 24 16 18 -17 54 -20 54 -4 0 23 -61 191 -91 251 -41
82 -50 88 -86 63z"/>
<path d="M6736 8130 c-38 -10 -72 -24 -76 -30 -11 -18 -1 -46 27 -71 20 -20
35 -24 89 -24 57 0 68 3 85 24 26 32 24 67 -6 96 -28 29 -27 29 -119 5z"/>
<path d="M2323 6134 c-31 -7 -30 -41 2 -56 14 -6 28 -22 31 -35 4 -13 20 -35
37 -49 29 -24 37 -26 93 -21 54 5 154 42 154 56 0 4 -30 28 -67 55 -66 49 -67
50 -147 52 -45 1 -91 0 -103 -2z"/>
<path d="M2621 5801 c-38 -10 -35 -26 10 -55 54 -36 107 -45 125 -21 35 48
-54 99 -135 76z"/>
<path d="M2881 5777 c-21 -26 70 -83 121 -75 33 4 37 50 6 72 -28 20 -111 21
-127 3z"/>
<path d="M3132 5658 c-19 -19 -14 -35 21 -62 50 -38 77 -31 77 20 0 39 -70 70
-98 42z"/>
<path d="M3238 5384 c-29 -15 -48 -42 -48 -69 0 -13 7 -15 38 -9 69 12 102 31
102 57 0 38 -43 48 -92 21z"/>
</g>
</svg>
