<?xml version="1.0" standalone="no"?>
<!DOCTYPE svg PUBLIC "-//W3C//DTD SVG 20010904//EN"
 "http://www.w3.org/TR/2001/REC-SVG-20010904/DTD/svg10.dtd">
<svg version="1.0" xmlns="http://www.w3.org/2000/svg"
 width="1024.000000pt" height="682.000000pt" viewBox="0 0 1024.000000 682.000000"
 preserveAspectRatio="xMidYMid meet">
<metadata>
Created by potrace 1.16, written by Peter Selinger 2001-2019
</metadata>
<g transform="translate(0.000000,682.000000) scale(0.100000,-0.100000)"
fill="#000000" stroke="none">
<path d="M4625 5510 c-11 -4 -35 -14 -52 -20 -36 -13 -42 -30 -18 -50 26 -22
17 -33 -22 -28 -64 9 -113 34 -113 58 0 43 -24 12 -39 -49 -14 -60 -14 -64 4
-77 16 -12 17 -19 9 -42 -6 -16 -16 -25 -25 -23 -26 8 -104 4 -148 -8 l-44
-13 6 -69 c7 -82 -2 -87 -75 -39 -27 18 -71 35 -105 41 -87 17 -93 21 -78 62
6 14 2 17 -22 17 -35 0 -53 16 -53 47 0 23 -1 23 -34 9 -20 -8 -39 -10 -47 -5
-40 25 -98 -12 -126 -81 -21 -49 -50 -78 -87 -85 -57 -12 -65 -16 -68 -38 -2
-16 -14 -26 -44 -35 -37 -12 -43 -18 -52 -54 -8 -32 -7 -47 6 -74 14 -29 14
-45 3 -127 -11 -85 -10 -98 6 -133 35 -78 55 -88 102 -53 23 17 33 19 49 10
31 -16 34 -40 12 -79 -26 -43 -20 -75 17 -91 38 -16 76 -49 69 -59 -3 -5 -18
-12 -33 -15 -16 -4 -42 -15 -59 -26 -27 -16 -32 -26 -38 -75 -8 -70 3 -92 51
-101 43 -8 84 -27 102 -48 6 -8 18 -52 25 -98 8 -46 17 -92 21 -102 7 -16 3
-18 -26 -15 -28 2 -38 10 -54 40 -20 38 -45 51 -45 23 0 -23 -24 -18 -50 10
-23 25 -27 25 -110 19 -47 -3 -89 -10 -94 -15 -6 -5 -11 -30 -12 -56 0 -27 -5
-60 -9 -75 -5 -22 -4 -28 8 -28 9 0 29 -12 47 -26 26 -22 37 -25 69 -20 38 6
38 5 45 -32 9 -56 8 -62 -12 -62 -12 0 -27 -18 -43 -52 -21 -44 -24 -58 -16
-86 8 -27 6 -41 -15 -85 -14 -28 -28 -60 -32 -69 -7 -23 -50 -23 -101 -2 -29
12 -44 13 -62 5 -28 -13 -28 -20 -4 -63 11 -18 23 -58 27 -88 4 -31 18 -71 31
-91 30 -45 35 -152 11 -248 -14 -57 -22 -71 -74 -120 -33 -31 -77 -70 -99 -87
l-40 -32 30 -7 c17 -3 40 -11 52 -17 12 -6 33 -8 47 -4 25 6 26 4 26 -33 l0
-39 40 5 c29 4 48 0 77 -17 28 -17 59 -23 131 -27 l93 -6 20 -38 c10 -21 19
-48 19 -59 0 -11 7 -23 15 -26 9 -4 15 -19 15 -35 0 -41 32 -69 78 -69 29 0
45 -7 67 -30 22 -23 38 -30 67 -30 l38 0 -6 -43 c-5 -33 -1 -56 14 -91 19 -41
20 -49 7 -79 -13 -32 -12 -52 10 -124 6 -18 2 -25 -18 -32 -23 -9 -26 -17 -29
-63 -3 -46 -6 -53 -27 -58 -13 -3 -30 -15 -38 -26 -12 -18 -11 -24 8 -48 l21
-27 -21 -23 c-20 -21 -21 -33 -21 -180 0 -89 4 -166 10 -177 8 -14 21 -19 48
-19 36 0 70 17 149 76 12 9 41 20 63 25 40 9 105 45 146 82 15 13 46 21 99 26
66 6 81 11 100 33 14 17 37 28 66 33 24 4 60 15 79 25 19 9 56 22 82 29 26 6
89 29 140 52 83 36 167 65 238 83 14 3 138 15 275 27 138 11 277 24 310 29 33
5 89 14 125 19 36 6 153 18 261 27 196 17 197 17 325 -5 278 -48 380 -62 417
-57 20 3 55 9 78 12 25 4 45 2 52 -5 6 -6 44 -11 85 -11 l74 0 -7 75 c-6 65
-5 75 9 75 22 0 20 28 -5 111 -22 74 -32 82 -94 77 -25 -3 -31 1 -33 20 -2 12
-15 30 -29 39 -21 14 -24 22 -20 54 4 29 -2 52 -28 102 -19 36 -37 87 -41 113
-4 26 -15 61 -25 78 -9 17 -27 80 -39 141 -19 92 -20 115 -10 143 6 19 9 49 6
67 -5 27 1 49 33 112 24 49 48 82 62 88 13 6 23 17 21 24 -2 8 9 26 24 42 20
21 25 34 21 56 -10 52 28 224 66 300 20 39 41 91 48 116 12 49 56 89 112 103
26 6 27 8 21 55 l-7 49 37 0 c22 0 36 5 36 13 0 41 -51 352 -59 360 -6 6 -8
22 -5 36 3 17 -7 49 -28 91 -26 51 -39 66 -58 68 -44 6 -45 19 -7 68 39 49 45
72 25 92 -9 9 -9 18 0 37 7 14 12 40 12 57 0 25 -3 29 -17 23 -36 -16 -74 -17
-89 -4 -9 8 -33 47 -52 87 -28 59 -43 77 -73 92 -21 11 -40 29 -44 40 -3 11
-19 29 -36 40 -16 12 -29 28 -29 37 0 11 -6 14 -22 8 -54 -16 -69 -16 -93 -1
-71 47 -265 35 -379 -24 -34 -17 -74 -30 -96 -30 -20 0 -57 -10 -81 -23 -35
-19 -47 -33 -60 -67 -22 -59 -41 -71 -72 -42 -13 12 -35 22 -50 22 -24 0 -27
3 -25 32 2 24 -2 33 -14 36 -11 2 -18 -3 -18 -12 0 -9 -8 -16 -19 -16 -11 0
-23 -4 -26 -10 -3 -5 -17 -10 -31 -10 -30 0 -83 56 -84 87 0 28 -14 36 -70 43
l-44 5 2 45 c3 53 -2 62 -45 84 -32 16 -33 19 -33 75 l0 58 -46 18 c-34 13
-60 16 -101 11 -55 -6 -56 -6 -104 39 -67 63 -83 67 -168 46 -80 -20 -124 -47
-129 -78 -2 -13 -13 -23 -30 -26 -19 -4 -32 -16 -42 -39 -20 -45 -64 -50 -109
-13 -35 30 -39 46 -15 66 22 18 9 106 -19 137 l-21 23 23 43 c14 24 21 51 18
60 -7 17 -39 20 -72 6z"/>
</g>
</svg>
