<?xml version="1.0" standalone="no"?>
<!DOCTYPE svg PUBLIC "-//W3C//DTD SVG 20010904//EN"
 "http://www.w3.org/TR/2001/REC-SVG-20010904/DTD/svg10.dtd">
<svg version="1.0" xmlns="http://www.w3.org/2000/svg"
 width="708.000000pt" height="676.000000pt" viewBox="0 0 708.000000 676.000000"
 preserveAspectRatio="xMidYMid meet">
<metadata>
Created by potrace 1.16, written by Peter Selinger 2001-2019
</metadata>
<g transform="translate(0.000000,676.000000) scale(0.100000,-0.100000)"
fill="#000000" stroke="none">
<path d="M3370 6576 l-55 -33 1 -51 c1 -27 9 -65 18 -82 8 -18 13 -36 11 -40
-12 -20 -64 -20 -125 0 -64 19 -121 26 -133 14 -3 -3 -1 -17 5 -30 10 -22 8
-28 -23 -54 -19 -16 -51 -34 -71 -40 -20 -6 -40 -15 -43 -20 -3 -6 -19 -10
-34 -10 -15 0 -32 -5 -38 -11 -7 -7 -29 -15 -50 -18 -28 -5 -41 -13 -50 -32
-21 -43 -39 -53 -71 -40 -43 18 -80 4 -107 -39 -13 -21 -29 -41 -35 -45 -5 -3
-10 -22 -10 -41 0 -35 9 -47 73 -97 38 -30 46 -92 22 -173 -10 -32 -21 -86
-24 -119 -5 -53 -9 -61 -33 -69 -22 -8 -32 -6 -47 8 -14 12 -29 17 -48 13 -44
-8 -100 -32 -121 -50 -10 -9 -27 -17 -38 -17 -10 0 -46 -12 -79 -25 -33 -14
-67 -25 -76 -25 -20 0 -49 -31 -49 -53 0 -9 9 -21 20 -27 11 -6 20 -17 20 -25
0 -17 21 -20 37 -4 14 14 78 -44 70 -64 -3 -8 -24 -17 -47 -20 -23 -3 -50 -13
-61 -23 -38 -35 -18 -130 39 -182 l36 -33 -21 -20 c-13 -14 -39 -23 -69 -26
-28 -3 -58 -14 -70 -25 -17 -15 -29 -17 -65 -12 -35 6 -53 16 -89 55 -33 36
-60 54 -104 69 -32 11 -64 27 -71 36 -15 22 -35 10 -35 -21 0 -28 -34 -55 -70
-55 -17 0 -37 14 -65 45 -24 28 -56 51 -80 60 -37 12 -41 17 -46 56 -4 33 -14
49 -42 73 -26 22 -37 39 -37 59 0 47 -26 43 -75 -9 -24 -27 -44 -56 -45 -65
-1 -64 -43 -103 -161 -149 l-53 -21 -48 22 c-43 20 -51 21 -74 9 -47 -26 -154
-9 -189 30 -11 12 -31 20 -52 20 -35 0 -40 -9 -21 -39 17 -28 -5 -51 -49 -51
-19 0 -47 -7 -64 -15 -32 -17 -39 -15 -107 31 -30 21 -43 24 -77 18 -65 -12
-86 -6 -157 41 -69 46 -93 54 -100 34 -2 -7 4 -57 14 -113 10 -55 16 -107 13
-116 -3 -8 5 -33 16 -55 18 -33 21 -55 20 -140 -1 -71 3 -108 13 -128 8 -15
13 -34 10 -41 -7 -18 14 -96 26 -96 5 0 25 -24 45 -52 20 -29 52 -75 71 -101
41 -59 61 -124 45 -148 -8 -14 -4 -25 19 -54 16 -20 32 -45 35 -55 5 -16 72
-70 88 -70 4 0 7 9 7 20 0 18 5 20 37 18 l38 -3 -3 58 c-4 55 -2 59 31 90 20
18 39 44 42 60 4 15 11 30 16 33 5 3 9 14 9 25 0 24 6 24 37 -1 31 -24 78 -26
87 -4 3 9 6 44 6 78 0 53 4 66 25 86 18 17 22 27 15 40 -8 15 -4 19 25 24 36
7 40 15 26 51 -5 12 -3 30 5 47 8 15 14 35 14 45 0 28 59 165 81 188 19 19 19
19 76 -9 32 -15 83 -43 114 -62 31 -19 63 -34 70 -34 8 0 20 -15 28 -32 18
-43 195 -212 243 -234 35 -16 38 -21 53 -88 8 -39 25 -97 37 -129 l21 -59 -21
-66 c-30 -97 -32 -112 -33 -215 -1 -106 16 -161 81 -267 42 -69 146 -196 219
-269 24 -24 54 -62 66 -85 17 -32 37 -49 91 -79 38 -21 87 -56 109 -79 l40
-40 -38 5 c-22 4 -64 25 -102 51 -83 60 -100 60 -74 2 7 -14 9 -32 5 -41 -5
-15 -11 -12 -42 14 -38 34 -58 32 -51 -5 5 -30 3 -30 -37 1 -18 14 -38 25 -44
25 -19 0 -14 -42 8 -75 11 -16 20 -45 20 -64 0 -23 7 -39 24 -52 13 -10 26
-29 29 -41 4 -13 16 -27 29 -33 12 -5 25 -23 29 -38 9 -35 56 -97 72 -97 7 0
46 -43 87 -96 41 -52 88 -102 103 -110 15 -8 33 -26 39 -39 6 -14 19 -25 28
-25 25 0 118 -72 124 -96 7 -27 30 -42 135 -87 76 -33 86 -35 96 -20 9 12 14
13 19 4 5 -7 1 -20 -8 -30 -22 -24 -21 -28 14 -46 17 -9 30 -22 30 -29 0 -8 5
-16 11 -18 9 -3 9 -18 0 -58 -14 -67 3 -128 55 -189 29 -33 42 -41 70 -41 19
0 43 -5 53 -12 15 -9 28 -6 75 20 30 18 68 32 83 32 24 -1 25 -2 11 -11 -10
-5 -18 -17 -18 -24 0 -12 16 -15 78 -15 74 1 76 1 56 18 -12 9 -30 22 -40 28
-33 20 -1 39 66 39 65 0 79 -7 60 -30 -25 -30 -5 -45 60 -45 55 0 65 -3 92
-30 36 -37 98 -70 130 -70 12 0 35 -12 51 -27 22 -22 49 -32 125 -48 94 -20
97 -21 127 -63 16 -24 53 -69 80 -100 28 -32 57 -70 65 -86 24 -47 86 -101
162 -141 83 -44 208 -165 307 -297 64 -85 60 -84 141 -58 38 12 75 29 81 36
16 19 4 74 -34 150 -28 57 -37 66 -87 90 -105 49 -149 83 -160 122 -12 45 -16
50 -60 83 -22 16 -51 56 -76 105 -58 112 -60 119 -33 168 15 29 20 51 15 69
-7 30 -50 57 -93 58 -45 1 -62 11 -158 95 -61 53 -119 117 -178 197 -58 79
-98 122 -120 133 -39 19 -63 55 -75 110 -7 33 -17 45 -64 76 -58 39 -96 82
-142 161 -16 29 -40 54 -59 63 -18 9 -40 29 -49 45 -10 17 -25 29 -38 29 -11
0 -27 8 -35 18 -100 119 -155 196 -155 218 0 14 -7 39 -16 56 -12 23 -14 45
-9 89 5 44 3 65 -7 82 -8 12 -18 40 -22 62 -4 22 -12 45 -17 51 -4 6 -11 36
-13 68 -6 68 -7 70 -57 102 -39 24 -53 64 -29 79 22 14 10 67 -21 96 -17 16
-34 29 -38 29 -4 0 -14 11 -21 25 -7 13 -21 27 -32 31 -10 3 -18 14 -18 24 0
31 -36 45 -66 25 -37 -24 -56 -12 -103 61 -47 75 -49 97 -8 102 21 3 27 9 27
27 0 13 -4 26 -9 29 -4 3 -14 26 -21 51 l-13 46 37 38 c41 42 45 69 15 118
l-21 34 21 49 c12 27 21 68 21 92 0 77 50 119 142 117 97 -2 108 -8 159 -83
27 -38 51 -82 54 -98 4 -17 18 -34 35 -43 15 -8 46 -36 69 -63 41 -50 92 -82
129 -82 36 0 78 46 101 110 12 33 29 66 38 73 39 32 62 61 68 88 11 48 50 71
115 66 62 -4 178 -31 228 -53 43 -18 61 -18 69 3 11 27 88 103 106 103 11 0
17 -8 17 -25 0 -28 39 -50 70 -40 12 4 26 -6 44 -30 15 -19 36 -35 47 -35 11
0 37 -11 57 -25 48 -33 127 -36 137 -5 9 29 27 25 76 -16 40 -33 47 -36 91
-31 36 5 48 3 48 -7 0 -37 167 -61 202 -29 22 19 47 10 99 -35 19 -16 44 -32
55 -36 12 -4 29 -15 39 -26 13 -15 31 -20 66 -20 45 0 50 3 72 38 26 40 81
102 91 102 4 0 33 -22 65 -49 44 -36 70 -50 105 -55 54 -8 66 -3 66 28 0 13 8
34 19 47 l18 23 28 -20 c77 -54 80 -55 127 -51 42 4 50 1 79 -29 41 -42 109
-55 109 -20 0 6 20 12 50 13 28 1 50 -2 50 -7 0 -15 19 -12 36 5 24 24 34 18
34 -19 0 -25 7 -40 25 -54 14 -11 25 -25 25 -31 0 -6 3 -11 8 -12 50 -5 58
-12 65 -63 5 -32 3 -39 -13 -43 -36 -10 -38 -75 -2 -87 9 -3 29 -15 43 -26 29
-24 116 -37 174 -26 36 7 36 8 30 45 -8 51 13 71 51 47 25 -17 26 -17 72 29
45 44 46 46 28 60 -11 8 -32 15 -48 15 -34 0 -34 3 -7 41 17 25 20 40 16 92
-3 34 -8 77 -12 95 -6 28 -5 32 13 32 12 0 24 -4 27 -10 10 -15 22 -12 45 12
11 12 20 34 20 48 0 38 8 41 51 20 50 -26 79 -26 79 0 0 25 14 25 48 0 15 -11
48 -23 74 -26 l47 -7 -5 29 c-9 49 -36 67 -106 72 -70 5 -91 16 -83 43 8 23
-8 32 -37 19 -41 -19 -107 9 -146 60 -24 32 -52 53 -93 72 -43 20 -59 32 -59
47 0 14 8 21 27 23 35 4 39 21 12 47 -25 23 -29 79 -7 92 7 5 29 6 48 3 44 -7
71 16 50 41 -7 8 -18 15 -25 15 -8 0 -22 11 -33 25 -24 31 -29 31 -52 3 l-18
-23 -24 22 c-12 11 -32 23 -43 25 -27 5 -30 40 -5 63 11 10 20 29 20 42 0 15
9 27 25 35 24 11 24 12 10 35 -9 13 -13 33 -10 44 4 13 1 21 -10 25 -13 5 -10
10 14 25 36 22 36 22 15 44 -15 15 -18 15 -35 -1 -16 -14 -23 -15 -49 -4 -40
17 -42 52 -2 48 24 -3 27 0 25 26 -3 37 -10 43 -33 28 -11 -7 -22 -12 -25 -12
-12 0 -4 59 10 70 9 7 13 21 10 30 -3 9 1 23 10 30 8 7 15 19 15 28 0 21 -66
9 -95 -18 -27 -26 -33 -25 -77 5 -20 14 -46 25 -57 25 -20 0 -71 -57 -71 -79
0 -6 -21 -34 -46 -61 -34 -36 -54 -50 -74 -50 -15 0 -35 -9 -46 -21 -10 -12
-32 -30 -47 -41 -27 -19 -29 -19 -47 -3 -14 13 -28 15 -57 11 -26 -5 -56 0
-98 14 -67 23 -171 35 -180 20 -11 -17 -83 -12 -93 7 -8 14 -22 15 -90 10 -68
-4 -86 -2 -114 14 -55 32 -134 67 -167 74 -25 5 -35 16 -52 55 -31 72 -63 97
-139 109 -36 6 -90 11 -121 11 -65 0 -75 6 -53 31 18 20 17 21 -36 33 -14 3
-36 15 -49 26 -19 17 -21 23 -11 35 11 13 9 19 -8 38 -12 12 -28 39 -37 60 -8
20 -19 36 -23 36 -23 -4 -32 4 -32 31 0 39 -19 55 -141 119 -121 64 -170 110
-193 179 -20 60 -69 108 -121 118 -27 5 -43 17 -65 50 -35 51 -67 74 -134 99
-27 11 -63 30 -79 44 -28 24 -131 71 -152 71 -5 -1 -35 -16 -65 -34z m-1073
-3492 c-9 -9 -28 6 -21 18 4 6 10 6 17 -1 6 -6 8 -13 4 -17z m48 -70 c34 -22
23 -34 -31 -34 -45 0 -57 13 -32 38 16 16 34 15 63 -4z"/>
<path d="M1280 4681 c-5 -11 -10 -43 -10 -71 0 -64 -11 -86 -47 -93 -41 -8
-83 -44 -83 -72 0 -14 16 -38 40 -62 35 -33 49 -39 98 -43 56 -5 57 -5 67 -44
8 -26 19 -42 35 -48 13 -5 30 -18 37 -28 19 -27 69 -27 78 0 4 14 15 20 36 20
37 0 39 27 4 68 -14 17 -32 46 -40 66 -8 19 -27 41 -42 48 -30 14 -44 61 -24
81 15 15 -4 43 -37 55 -24 8 -30 18 -35 49 -7 39 -40 93 -57 93 -5 0 -14 -9
-20 -19z"/>
<path d="M1008 4600 c-47 -28 -43 -128 7 -180 17 -18 29 -43 32 -71 3 -24 9
-48 13 -54 5 -5 11 -31 15 -57 9 -61 -12 -74 -54 -34 -46 44 -55 36 -47 -46 4
-40 15 -91 26 -114 11 -22 20 -47 20 -55 0 -8 7 -32 15 -54 16 -45 20 -105 6
-105 -5 0 -14 7 -21 15 -21 25 -30 17 -30 -28 0 -30 7 -53 24 -76 22 -30 23
-36 11 -64 -16 -42 -10 -57 25 -57 23 0 34 -9 59 -49 33 -55 67 -79 84 -62 7
7 -7 29 -50 73 -76 80 -97 119 -90 170 7 51 14 57 34 28 27 -39 75 -90 83 -90
5 0 16 7 24 16 14 14 13 20 -9 62 -35 69 -48 153 -44 293 3 98 8 129 22 149
25 36 21 53 -22 88 -57 46 -73 89 -75 199 -2 70 -6 97 -17 104 -17 11 -20 11
-41 -1z"/>
<path d="M1214 4289 c-3 -6 3 -20 14 -32 19 -19 22 -19 28 -4 11 29 -26 61
-42 36z"/>
<path d="M1509 4180 c-11 -7 -9 -14 11 -34 37 -41 64 -31 40 13 -12 23 -33 32
-51 21z"/>
<path d="M1481 4111 c-20 -13 -6 -41 20 -41 16 0 19 3 12 13 -6 6 -12 17 -14
24 -3 8 -9 9 -18 4z"/>
<path d="M1427 4049 c-11 -7 -16 -17 -12 -29 4 -13 -2 -24 -20 -36 l-26 -17
23 -24 c16 -17 29 -22 46 -18 19 5 32 -4 69 -45 46 -52 83 -65 83 -31 0 11
-23 46 -50 78 -28 32 -53 69 -57 83 -6 27 -21 50 -32 50 -3 0 -14 -5 -24 -11z"/>
<path d="M1544 4044 c3 -9 6 -18 6 -20 0 -2 5 -4 10 -4 6 0 10 9 10 20 0 12
-7 20 -16 20 -11 0 -14 -5 -10 -16z"/>
<path d="M1480 3861 c0 -17 36 -54 49 -50 9 3 6 12 -9 32 -21 27 -40 35 -40
18z"/>
<path d="M872 3800 c-15 -25 -15 -53 0 -68 19 -19 25 -14 30 21 3 17 8 40 13
50 11 25 -27 23 -43 -3z"/>
<path d="M1460 3782 c0 -23 29 -70 75 -122 25 -28 45 -56 45 -63 0 -7 9 -29
20 -50 11 -20 20 -46 20 -57 0 -26 134 -153 169 -160 20 -4 26 -11 24 -30 -1
-14 0 -35 3 -47 6 -29 52 -83 71 -83 13 0 13 3 3 15 -18 22 -8 26 29 12 30
-11 34 -10 51 13 27 35 25 42 -19 78 -30 24 -41 41 -46 72 -5 29 -15 46 -38
62 -29 21 -30 21 -23 2 7 -18 6 -18 -13 1 -11 11 -26 38 -33 60 -8 26 -22 44
-40 53 -15 7 -37 26 -50 43 -13 17 -37 47 -55 67 -29 34 -34 36 -54 23 -21
-12 -24 -11 -43 15 -35 50 -95 110 -96 96z"/>
<path d="M940 3659 c7 -11 14 -18 17 -15 8 8 -5 36 -17 36 -7 0 -7 -6 0 -21z"/>
<path d="M912 3564 c2 -11 11 -20 22 -22 13 -3 17 1 14 14 -2 11 -11 20 -22
22 -13 3 -17 -1 -14 -14z"/>
<path d="M1225 3520 c3 -5 11 -10 16 -10 6 0 7 5 4 10 -3 6 -11 10 -16 10 -6
0 -7 -4 -4 -10z"/>
<path d="M1180 3465 c-16 -19 15 -42 35 -25 8 7 15 16 15 20 0 14 -39 18 -50
5z"/>
<path d="M1555 3470 c3 -5 8 -10 11 -10 2 0 4 5 4 10 0 6 -5 10 -11 10 -5 0
-7 -4 -4 -10z"/>
<path d="M1590 3414 c0 -17 44 -64 61 -64 26 0 24 16 -7 45 -25 23 -54 33 -54
19z"/>
<path d="M1324 3379 c-3 -6 -2 -21 4 -32 6 -12 13 -30 16 -39 6 -20 36 -25 36
-5 0 57 -37 107 -56 76z"/>
<path d="M1440 3354 c-20 -52 -6 -84 37 -84 23 0 32 23 13 35 -5 3 -10 22 -10
41 0 41 -26 47 -40 8z"/>
<path d="M1920 3342 c0 -5 11 -19 25 -32 29 -27 33 -15 6 18 -20 23 -31 28
-31 14z"/>
<path d="M1535 3320 c3 -5 8 -10 11 -10 2 0 4 5 4 10 0 6 -5 10 -11 10 -5 0
-7 -4 -4 -10z"/>
<path d="M1230 3291 c0 -16 51 -71 66 -71 21 0 17 24 -11 54 -23 25 -55 35
-55 17z"/>
<path d="M1732 3203 c3 -26 7 -28 51 -31 26 -2 47 1 47 5 0 12 -64 53 -84 53
-13 0 -17 -7 -14 -27z"/>
<path d="M1403 3174 c-3 -8 -1 -20 5 -26 15 -15 43 -2 36 16 -8 21 -34 28 -41
10z"/>
<path d="M1460 3116 c0 -31 11 -42 38 -38 18 2 33 -2 41 -12 16 -19 45 -22 39
-4 -2 6 -13 16 -24 22 -10 6 -31 18 -46 28 -33 22 -48 23 -48 4z"/>
<path d="M1583 3004 c-7 -18 11 -39 25 -30 12 7 4 46 -9 46 -6 0 -12 -7 -16
-16z"/>
<path d="M1650 3011 c0 -18 39 -81 51 -81 18 0 9 26 -21 60 -16 19 -29 29 -30
21z"/>
<path d="M1513 2990 c-30 -12 -29 -23 3 -41 39 -21 183 -186 226 -260 53 -90
118 -156 118 -119 0 5 13 7 30 4 28 -6 30 -5 30 25 0 31 -14 42 -23 19 -6 -14
-104 82 -146 144 -28 39 -208 240 -214 237 -1 0 -12 -4 -24 -9z"/>
<path d="M1760 2946 c0 -21 122 -146 143 -146 33 0 17 28 -50 87 -82 72 -93
79 -93 59z"/>
<path d="M1760 2836 c0 -21 63 -100 83 -104 30 -6 19 35 -21 78 -40 41 -62 51
-62 26z"/>
<path d="M1950 2769 c0 -36 182 -228 225 -237 22 -5 18 7 -15 57 -17 24 -30
47 -30 51 0 4 -14 13 -31 20 -17 7 -56 37 -87 66 -61 59 -62 59 -62 43z"/>
<path d="M1860 2536 c0 -16 27 -29 41 -20 13 8 -9 34 -27 34 -8 0 -14 -6 -14
-14z"/>
<path d="M2000 2539 c0 -19 55 -72 70 -67 6 2 -7 21 -30 43 -25 24 -40 33 -40
24z"/>
<path d="M2350 2413 c0 -12 38 -48 45 -41 3 2 -6 15 -20 28 -14 13 -25 19 -25
13z"/>
<path d="M2937 1824 c-14 -14 -6 -24 19 -24 16 0 24 5 22 13 -5 14 -31 21 -41
11z"/>
<path d="M3037 1743 c-14 -14 -5 -22 56 -51 34 -17 79 -41 99 -53 53 -32 59
-16 12 32 -59 61 -142 97 -167 72z"/>
<path d="M3297 1678 c-3 -18 -8 -43 -12 -55 -6 -19 0 -27 41 -53 79 -50 143
-65 279 -65 103 0 126 3 160 21 22 12 40 27 40 35 0 39 -343 148 -426 135 -21
-3 -40 -2 -44 4 -13 21 -33 9 -38 -22z"/>
<path d="M3414 1426 c35 -29 21 -41 -31 -27 -51 15 -140 14 -149 -1 -4 -6 -2
-14 5 -16 7 -2 24 -15 38 -28 17 -15 38 -24 59 -24 18 0 57 -9 86 -20 73 -27
276 -50 506 -57 141 -4 192 -3 192 6 0 6 -3 11 -7 11 -4 0 -125 16 -268 35
-235 32 -262 38 -277 58 -36 46 -49 57 -70 57 -13 0 -36 7 -52 15 -46 24 -66
18 -32 -9z"/>
<path d="M3170 1355 c13 -16 60 -21 60 -6 0 11 -25 21 -52 21 -17 0 -18 -3 -8
-15z"/>
<path d="M2873 1219 c-36 -10 -42 -23 -17 -33 10 -4 13 -13 9 -27 -7 -21 -5
-21 78 -18 47 2 88 7 91 10 3 3 7 16 8 29 3 21 -3 25 -37 33 -71 15 -99 16
-132 6z"/>
<path d="M2465 1180 c-3 -5 1 -10 9 -10 9 0 16 5 16 10 0 6 -4 10 -9 10 -6 0
-13 -4 -16 -10z"/>
<path d="M3937 1124 c-10 -11 21 -63 49 -80 18 -12 50 -18 107 -19 87 -2 108
-9 172 -60 49 -40 78 -55 103 -55 10 0 36 -17 58 -38 39 -39 179 -102 224
-102 12 0 31 -10 43 -23 39 -40 74 -50 130 -35 l50 12 36 -41 c20 -22 79 -68
131 -102 52 -35 98 -71 102 -81 4 -11 28 -24 65 -35 69 -20 113 -44 113 -63 0
-21 69 -80 153 -129 43 -26 86 -57 97 -70 10 -13 23 -23 30 -23 7 0 25 -8 41
-17 46 -27 46 -6 1 35 -36 34 -42 45 -42 80 0 59 -13 85 -61 121 -38 27 -51
31 -109 31 -65 0 -68 1 -128 49 -34 27 -71 52 -82 56 -12 4 -25 18 -30 31 -5
13 -21 29 -35 34 -14 5 -28 17 -31 25 -4 8 -12 15 -20 15 -13 0 -94 64 -147
117 -15 15 -37 47 -48 70 -25 52 -41 65 -71 58 -13 -3 -41 1 -63 11 -34 14
-47 14 -90 4 -43 -10 -56 -10 -89 4 -21 9 -56 16 -77 16 -31 0 -48 8 -90 46
-82 72 -241 134 -348 134 -42 1 -73 6 -85 15 -21 16 -48 20 -59 9z"/>
<path d="M2750 1080 c0 -11 7 -20 15 -20 17 0 18 2 9 24 -9 23 -24 20 -24 -4z"/>
<path d="M3530 1051 c0 -5 7 -14 16 -22 14 -12 14 -14 -6 -21 -38 -14 -21 -42
30 -49 25 -4 70 -17 100 -29 76 -30 124 -29 189 5 l54 29 66 -17 c72 -19 131
-22 131 -8 0 14 -61 62 -100 79 -27 11 -62 13 -170 7 -120 -6 -142 -4 -200 14
-69 22 -110 27 -110 12z"/>
<path d="M3332 728 c5 -15 28 -18 29 -3 0 6 -7 12 -17 13 -10 3 -15 -1 -12
-10z"/>
<path d="M4304 725 c-11 -26 16 -45 63 -45 26 0 71 -12 111 -28 118 -50 291
-88 260 -57 -7 7 -110 46 -224 85 -45 15 -95 35 -112 44 -40 20 -91 21 -98 1z"/>
<path d="M3700 706 c-10 -27 5 -56 31 -56 33 0 89 28 89 44 0 16 -16 21 -78
29 -27 3 -35 0 -42 -17z"/>
<path d="M4872 631 c-10 -6 -7 -12 11 -24 59 -38 111 -28 61 12 -28 22 -51 26
-72 12z"/>
<path d="M4995 550 c-3 -5 1 -10 9 -10 9 0 16 5 16 10 0 6 -4 10 -9 10 -6 0
-13 -4 -16 -10z"/>
<path d="M5072 528 c3 -7 13 -15 24 -17 16 -3 17 -1 5 13 -16 19 -34 21 -29 4z"/>
</g>
</svg>
