<?xml version="1.0" standalone="no"?>
<!DOCTYPE svg PUBLIC "-//W3C//DTD SVG 20010904//EN"
 "http://www.w3.org/TR/2001/REC-SVG-20010904/DTD/svg10.dtd">
<svg version="1.0" xmlns="http://www.w3.org/2000/svg"
 width="1024.000000pt" height="614.000000pt" viewBox="0 0 1024.000000 614.000000"
 preserveAspectRatio="xMidYMid meet">
<metadata>
Created by potrace 1.16, written by Peter Selinger 2001-2019
</metadata>
<g transform="translate(0.000000,614.000000) scale(0.100000,-0.100000)"
fill="#000000" stroke="none">
<path d="M3920 4662 c0 -14 23 -32 42 -32 27 0 22 19 -8 30 -31 12 -34 12 -34
2z"/>
<path d="M4010 4610 c0 -5 5 -10 10 -10 6 0 10 5 10 10 0 6 -4 10 -10 10 -5 0
-10 -4 -10 -10z"/>
<path d="M2920 4566 c0 -19 4 -46 10 -60 7 -19 6 -29 -6 -41 -19 -19 -29 -19
-48 1 -20 19 -33 12 -50 -31 -17 -39 -60 -65 -98 -58 -16 3 -36 -1 -50 -11
-31 -22 -35 -21 -53 13 -8 16 -22 31 -32 33 -12 2 -17 13 -17 38 -1 39 4 38
-96 20 -30 -5 -96 -7 -146 -4 -91 7 -92 7 -109 -20 -19 -29 -43 -33 -83 -12
-15 7 -42 17 -59 21 -29 6 -33 4 -33 -13 0 -56 -37 -73 -42 -20 -2 17 -8 33
-15 35 -6 2 -39 -21 -73 -51 -68 -60 -94 -73 -114 -56 -19 15 -102 -6 -120
-31 -7 -11 -49 -30 -97 -44 -46 -14 -92 -28 -101 -32 -13 -4 -18 0 -18 15 0
19 -6 17 -58 -19 -45 -31 -70 -41 -115 -46 -48 -5 -55 -8 -45 -20 9 -11 9 -16
-3 -24 -8 -5 -20 -9 -26 -9 -7 0 -13 -4 -13 -9 0 -5 -19 -16 -42 -23 -39 -13
-44 -19 -52 -56 -6 -23 -15 -42 -22 -42 -20 0 -111 -88 -128 -124 -9 -19 -16
-45 -16 -59 0 -13 -9 -36 -21 -51 -20 -25 -20 -28 -5 -51 10 -15 26 -25 40
-25 22 0 25 -6 35 -66 7 -37 10 -69 7 -72 -3 -3 -14 2 -24 11 -23 21 -46 22
-62 2 -18 -21 -47 -19 -53 5 -7 28 -34 25 -73 -9 -32 -28 -88 -51 -127 -51
-10 0 -34 -7 -54 -15 -28 -12 -39 -12 -50 -3 -11 9 -15 7 -20 -10 -6 -24 -19
-27 -43 -12 -17 10 -40 -5 -40 -27 0 -16 74 -52 106 -53 12 0 46 16 75 36 85
57 104 64 174 64 64 0 65 -1 65 -26 0 -15 -14 -51 -31 -80 l-30 -54 39 0 c31
0 52 10 112 56 40 30 87 62 104 71 38 20 101 21 143 3 29 -13 34 -12 52 5 12
10 21 28 21 40 0 13 7 25 15 29 20 7 19 32 -1 40 -11 4 -13 10 -6 19 5 6 13
23 17 37 16 55 29 60 153 60 101 0 117 2 145 22 18 12 35 26 38 31 4 5 10 0
14 -12 11 -34 34 -51 72 -51 37 0 74 30 136 113 29 39 60 47 98 27 29 -16 57
4 69 49 13 48 81 113 136 131 75 23 141 70 157 112 13 32 20 38 44 38 16 0 51
-7 78 -16 40 -14 54 -15 82 -5 28 10 47 10 99 0 52 -10 74 -10 113 0 42 10 56
10 95 -3 33 -11 86 -16 179 -16 130 -1 133 -1 191 -33 113 -61 123 -117 28
-159 -39 -18 -74 -23 -199 -27 -221 -9 -229 -29 -46 -116 91 -43 123 -64 140
-90 19 -28 29 -33 69 -37 26 -2 64 3 86 10 29 10 43 10 53 2 8 -7 28 -9 50 -4
58 10 109 -11 124 -52 11 -31 16 -34 50 -34 29 0 43 6 55 23 15 22 16 22 31 3
8 -11 15 -28 15 -39 0 -10 4 -16 9 -13 26 16 21 166 -5 166 -8 0 -14 7 -14 15
0 23 38 18 54 -7 8 -13 18 -36 21 -53 20 -91 22 -93 93 -116 91 -29 265 -37
346 -16 52 14 62 14 80 1 21 -15 66 -19 66 -6 0 4 -14 25 -30 46 -46 61 -37
92 11 40 13 -14 34 -30 47 -35 25 -10 31 -49 7 -49 -19 0 -19 -3 6 -52 36 -70
106 -131 187 -162 40 -16 87 -40 104 -54 25 -21 42 -26 87 -27 50 0 57 -3 68
-26 13 -27 14 -27 97 -22 81 6 85 5 111 -21 15 -15 30 -25 33 -22 3 4 13 -1
23 -10 14 -13 22 -13 39 -4 18 10 24 9 31 -1 5 -8 9 -17 9 -22 0 -16 53 -28
81 -18 22 7 31 6 41 -6 18 -22 71 -43 108 -43 17 0 50 10 73 22 28 14 67 23
117 26 41 2 82 10 90 17 8 8 36 19 62 25 44 11 49 11 77 -11 16 -13 30 -29 30
-35 1 -20 36 -44 49 -34 9 7 9 7 2 -2 -6 -7 -2 -19 10 -36 11 -13 31 -61 46
-106 14 -44 33 -89 42 -100 13 -14 14 -20 5 -23 -15 -5 -17 -59 -3 -68 6 -3
10 -30 10 -59 0 -49 3 -55 48 -98 26 -25 58 -49 72 -53 14 -4 38 -18 53 -31
16 -13 32 -24 37 -24 4 0 11 -11 14 -24 4 -15 14 -26 29 -28 14 -2 27 -15 36
-35 8 -18 21 -33 28 -33 8 0 29 -11 47 -25 26 -20 45 -25 89 -25 31 0 59 5 62
10 9 15 71 12 112 -5 19 -8 57 -15 84 -15 26 0 51 -5 54 -10 5 -8 11 -7 21 1
11 9 23 9 53 -1 34 -11 43 -10 93 14 30 14 62 26 70 26 9 0 26 -16 37 -36 19
-32 25 -35 51 -29 27 6 30 4 30 -18 0 -14 -7 -27 -15 -31 -37 -14 0 -60 41
-51 12 3 34 -8 59 -30 35 -30 38 -37 28 -52 -7 -10 -25 -40 -39 -68 -34 -65
-52 -85 -78 -85 -12 0 -31 -10 -42 -23 -12 -12 -39 -28 -60 -36 -47 -17 -109
-58 -148 -100 -17 -17 -37 -31 -47 -31 -10 0 -19 -11 -23 -31 -3 -18 -29 -55
-66 -93 -33 -35 -60 -69 -60 -77 0 -41 66 -50 175 -24 33 8 86 15 117 15 48 0
58 3 63 20 3 11 16 22 28 25 40 10 121 8 171 -4 56 -13 137 -3 201 25 29 12
86 19 210 25 94 4 226 17 294 29 115 19 128 19 177 5 67 -19 104 -19 154 1 36
14 44 15 73 1 17 -8 60 -20 94 -27 35 -7 70 -21 79 -31 15 -17 33 -19 143 -19
69 0 143 5 165 11 38 10 79 42 87 68 3 9 12 11 27 7 28 -9 28 -23 1 -31 -26
-9 -21 -41 6 -37 112 16 121 20 136 59 7 18 16 23 43 23 25 0 40 7 54 25 28
36 65 46 177 50 55 2 133 11 174 20 62 15 80 15 112 5 35 -12 41 -11 59 5 11
10 20 24 20 31 0 7 18 25 40 41 32 23 40 34 40 61 0 21 -6 35 -17 39 -9 4 -29
20 -44 37 l-28 31 -31 -18 c-42 -23 -105 -22 -129 2 -10 10 -31 23 -47 28 -18
6 -43 29 -65 63 -21 30 -52 61 -73 72 -20 10 -36 22 -36 27 0 5 -13 14 -30 19
-19 7 -32 20 -36 36 -5 23 -11 26 -53 26 -34 0 -57 8 -90 30 -42 29 -46 29
-130 23 -71 -5 -92 -3 -112 10 -17 11 -37 14 -67 10 -41 -5 -42 -6 -26 -24 16
-18 16 -19 -15 -19 -24 0 -34 6 -40 24 -14 36 -91 51 -91 17 0 -16 -6 -18 -44
-14 -27 3 -46 1 -51 -6 -11 -18 -35 6 -35 35 0 33 -24 30 -50 -6 -36 -51 -90
-36 -90 26 0 35 19 60 57 75 48 18 71 11 88 -25 14 -29 64 -66 89 -66 18 0 1
32 -33 63 -39 35 -74 50 -143 62 -40 6 -49 19 -22 29 25 10 34 7 34 -9 0 -8 4
-15 9 -15 14 0 56 53 71 89 12 29 11 35 -7 59 -11 15 -29 28 -39 30 -10 2 -28
14 -39 28 l-21 24 -59 -16 c-77 -21 -153 -28 -263 -22 -28 1 -34 6 -39 30 -6
29 -38 53 -103 78 -19 8 -47 22 -62 32 -22 15 -42 18 -105 16 -84 -3 -95 -13
-44 -40 31 -15 32 -17 13 -27 -28 -15 -62 -13 -92 4 -25 14 -25 14 -2 15 24 0
40 26 26 40 -6 6 -24 12 -41 16 -29 6 -31 4 -26 -16 6 -21 4 -22 -23 -16 -32
9 -54 24 -54 38 0 6 7 7 16 4 17 -6 54 9 54 23 0 4 -32 19 -70 32 -62 21 -72
22 -80 9 -5 -8 -10 -22 -10 -31 0 -17 -36 -33 -52 -23 -18 11 -7 34 17 34 25
0 51 32 40 50 -3 6 -17 10 -31 10 -25 0 -82 45 -161 128 l-42 44 -25 -51 c-28
-54 -49 -71 -90 -71 -19 0 -27 7 -32 25 -3 14 -4 32 0 40 4 10 -5 19 -28 29
-33 14 -56 36 -37 36 5 0 13 -5 16 -10 3 -6 17 -7 31 -4 15 4 41 -1 65 -11 34
-16 42 -16 54 -4 8 8 11 25 8 42 -4 20 -11 27 -29 27 -15 0 -45 20 -79 50 -33
30 -65 50 -79 50 -39 0 -131 67 -145 107 -11 28 -17 34 -39 31 -14 -2 -27 -8
-29 -15 -6 -16 60 -79 92 -87 43 -11 85 -47 85 -73 0 -12 9 -28 20 -35 11 -7
20 -21 20 -31 0 -16 -5 -18 -27 -13 -32 8 -63 40 -63 66 0 20 -19 30 -58 30
-15 0 -51 11 -80 25 -30 14 -67 25 -83 25 -23 0 -32 7 -48 38 -20 40 -55 62
-96 62 -44 0 -70 20 -100 78 l-30 57 -123 46 c-120 46 -162 70 -162 94 0 20
-32 40 -95 59 -75 23 -124 48 -149 75 -29 32 -54 27 -58 -11 -4 -42 -18 -40
-40 4 -16 33 -18 34 -106 47 -65 9 -96 9 -111 2 -11 -6 -71 -11 -133 -11 -137
0 -166 12 -219 91 -33 49 -92 109 -148 149 -17 13 -25 33 -30 83 -1 4 -14 7
-30 7 -18 0 -52 17 -96 49 l-67 49 28 17 c27 15 27 16 4 10 -86 -21 -102 -18
-169 29 -36 25 -69 46 -74 46 -5 0 -21 -12 -34 -26 -22 -24 -30 -26 -77 -21
-31 3 -80 19 -117 38 -39 20 -76 32 -96 30 -30 -1 -35 3 -59 50 -19 38 -25 62
-21 86 5 26 2 33 -10 33 -12 0 -14 -7 -10 -36 4 -25 2 -37 -8 -40 -19 -8 -87
15 -80 27 8 12 -8 12 -20 0 -11 -10 -139 -51 -161 -51 -7 0 -25 11 -40 25 -15
14 -31 25 -35 25 -5 0 -26 -16 -48 -35 -21 -19 -45 -35 -54 -35 -9 0 -37 18
-62 40 l-46 40 -92 0 c-86 0 -93 -2 -102 -22 -10 -23 -125 -87 -155 -88 -28 0
24 40 76 58 41 15 50 22 52 46 2 16 -2 33 -10 37 -7 5 -51 9 -98 9 -51 0 -115
8 -160 20 -43 11 -108 20 -152 20 l-78 0 0 -34z"/>
<path d="M4110 4590 c0 -5 5 -10 10 -10 6 0 10 5 10 10 0 6 -4 10 -10 10 -5 0
-10 -4 -10 -10z"/>
<path d="M4224 4589 c-9 -14 14 -29 46 -29 32 0 57 15 41 24 -6 4 -15 5 -20 1
-5 -3 -12 -1 -16 5 -8 13 -42 13 -51 -1z"/>
<path d="M3963 4563 c-12 -2 -26 -10 -31 -16 -8 -9 3 -12 41 -12 41 0 52 4 55
18 4 17 -13 20 -65 10z"/>
<path d="M4355 4550 c-4 -6 5 -10 19 -10 14 0 26 5 26 10 0 6 -9 10 -19 10
-11 0 -23 -4 -26 -10z"/>
<path d="M4530 4505 c0 -8 4 -15 8 -15 5 0 16 -15 25 -32 14 -29 16 -30 16
-10 1 12 7 22 14 22 14 1 -39 50 -54 50 -5 0 -9 -7 -9 -15z"/>
<path d="M4642 4459 c2 -7 10 -15 17 -17 8 -3 12 1 9 9 -2 7 -10 15 -17 17 -8
3 -12 -1 -9 -9z"/>
<path d="M4695 4429 c-4 -6 -5 -13 -2 -16 7 -7 27 6 27 18 0 12 -17 12 -25 -2z"/>
<path d="M4425 4397 c-16 -12 -12 -15 35 -20 59 -7 65 -5 57 18 -8 19 -66 20
-92 2z"/>
<path d="M5043 4233 c-7 -2 -13 -11 -13 -20 0 -10 6 -12 21 -8 15 5 29 -4 60
-39 23 -25 45 -46 51 -46 6 0 27 -13 48 -30 21 -16 43 -30 48 -30 23 0 -25 60
-59 76 -20 9 -56 36 -80 60 -42 43 -51 48 -76 37z"/>
<path d="M5490 4097 c0 -8 14 -17 31 -21 50 -10 69 -7 69 10 0 12 -7 14 -29 9
-17 -3 -39 -1 -50 5 -17 8 -21 8 -21 -3z"/>
<path d="M5366 4071 c-7 -10 23 -20 42 -14 6 3 12 9 12 14 0 12 -47 12 -54 0z"/>
<path d="M5431 4067 c-6 -6 -11 -15 -11 -20 0 -12 43 -4 47 9 5 16 -22 25 -36
11z"/>
<path d="M5210 4046 c0 -9 5 -16 10 -16 6 0 10 4 10 9 0 6 -4 13 -10 16 -5 3
-10 -1 -10 -9z"/>
<path d="M5556 4044 c-15 -39 2 -91 22 -69 4 4 1 10 -5 12 -15 5 -17 43 -3 43
6 0 10 7 10 15 0 20 -16 19 -24 -1z"/>
<path d="M5828 4024 c24 -17 39 -14 27 5 -3 6 -16 11 -28 11 l-21 0 22 -16z"/>
<path d="M5368 4023 c6 -2 18 -2 25 0 6 3 1 5 -13 5 -14 0 -19 -2 -12 -5z"/>
<path d="M5842 3984 c-12 -8 -22 -20 -22 -26 0 -7 4 -7 13 1 16 13 28 5 20
-15 -4 -10 4 -14 32 -14 22 0 47 -8 63 -20 22 -18 34 -20 81 -14 51 6 55 6 42
-10 -22 -26 -8 -28 40 -7 24 11 47 17 51 15 17 -11 7 16 -17 44 -14 17 -25 35
-25 41 0 15 -45 24 -67 13 -10 -5 -41 -13 -70 -17 -40 -5 -57 -3 -75 9 -28 20
-38 20 -66 0z"/>
<path d="M5766 3981 c-12 -5 -16 -10 -9 -14 13 -8 43 2 43 14 0 10 -8 10 -34
0z"/>
<path d="M5660 3940 c0 -5 18 -10 41 -10 24 0 38 4 34 10 -3 6 -22 10 -41 10
-19 0 -34 -4 -34 -10z"/>
<path d="M5310 3900 c0 -5 5 -10 10 -10 6 0 10 5 10 10 0 6 -4 10 -10 10 -5 0
-10 -4 -10 -10z"/>
<path d="M6207 3880 c-42 -8 -61 -20 -30 -20 11 0 26 -7 33 -15 7 -8 19 -15
27 -15 8 0 21 -16 29 -35 10 -25 21 -35 37 -35 12 0 31 -7 41 -15 22 -17 56
-20 56 -6 0 5 -9 13 -20 16 -14 4 -20 15 -20 35 0 62 -71 104 -153 90z"/>
<path d="M6468 3798 c12 -12 24 -19 28 -15 10 10 -16 37 -34 37 -13 0 -12 -4
6 -22z"/>
<path d="M6420 3743 c0 -15 -8 -41 -18 -58 l-18 -29 29 -25 c16 -13 37 -25 48
-26 10 -1 28 -10 40 -21 21 -19 21 -19 40 5 24 30 24 48 -1 56 -12 4 -19 14
-18 23 2 13 -3 16 -24 14 -16 -1 -28 2 -28 8 0 5 -9 10 -21 10 -18 0 -20 4
-14 29 3 17 2 32 -4 36 -7 4 -11 -5 -11 -22z"/>
<path d="M6540 3741 c11 -39 25 -63 48 -84 35 -32 32 -3 -6 56 -41 63 -55 72
-42 28z"/>
<path d="M6133 3715 c-9 -25 4 -29 17 -6 7 15 7 21 0 21 -6 0 -13 -7 -17 -15z"/>
<path d="M6470 3550 c0 -52 56 -84 78 -44 14 26 32 7 25 -26 -5 -28 -4 -30 26
-30 18 0 40 -9 51 -20 24 -24 30 -25 30 -5 0 8 5 15 10 15 6 0 10 -5 10 -11 0
-6 7 -9 16 -7 12 2 17 16 19 48 4 67 -2 83 -31 76 -13 -4 -47 1 -74 10 -40 13
-53 14 -65 4 -14 -12 -42 -10 -77 5 -14 5 -18 2 -18 -15z"/>
<path d="M2144 3453 c5 -15 0 -25 -19 -37 -63 -41 -83 -88 -51 -115 8 -7 18
-25 21 -41 3 -16 13 -34 21 -41 8 -6 14 -22 14 -35 0 -19 7 -26 30 -30 27 -6
44 -34 20 -34 -5 0 -10 5 -10 10 0 12 -39 -8 -55 -28 -14 -18 -59 -1 -98 38
-49 48 -55 39 -26 -37 5 -13 13 -23 18 -23 6 0 16 -12 23 -27 12 -25 22 -29
83 -38 39 -6 78 -15 89 -19 55 -26 354 109 307 139 -6 3 -11 14 -11 24 0 10
-9 25 -20 32 -18 13 -19 17 -8 46 11 30 10 35 -17 63 -16 16 -35 30 -42 30 -8
0 -13 12 -13 33 0 31 -3 33 -86 65 -47 18 -106 35 -131 39 -42 6 -45 5 -39
-14z"/>
</g>
</svg>
