<?xml version="1.0" standalone="no"?>
<!DOCTYPE svg PUBLIC "-//W3C//DTD SVG 20010904//EN"
 "http://www.w3.org/TR/2001/REC-SVG-20010904/DTD/svg10.dtd">
<svg version="1.0" xmlns="http://www.w3.org/2000/svg"
 width="1024.000000pt" height="786.000000pt" viewBox="0 0 1024.000000 786.000000"
 preserveAspectRatio="xMidYMid meet">
<metadata>
Created by potrace 1.16, written by Peter Selinger 2001-2019
</metadata>
<g transform="translate(0.000000,786.000000) scale(0.100000,-0.100000)"
fill="#000000" stroke="none">
<path d="M9653 6716 c-29 -6 -61 -21 -72 -33 -12 -12 -40 -27 -64 -34 -23 -6
-56 -19 -73 -30 -17 -10 -43 -19 -58 -19 -25 0 -38 -10 -89 -70 -9 -11 -35
-21 -64 -24 -49 -7 -60 -10 -172 -52 -35 -13 -71 -24 -80 -24 -29 -1 -131 -47
-187 -86 -61 -42 -120 -103 -145 -151 -15 -28 -22 -31 -77 -35 -57 -4 -64 -7
-104 -50 -39 -42 -50 -47 -123 -62 -44 -9 -100 -23 -125 -31 -25 -8 -70 -15
-101 -15 l-56 0 -102 -110 c-98 -105 -108 -113 -206 -159 -56 -26 -170 -94
-254 -151 -112 -75 -170 -108 -219 -122 -95 -29 -253 -92 -349 -140 l-82 -40
-94 7 c-84 6 -103 4 -177 -19 -56 -17 -96 -24 -124 -20 -36 5 -51 -1 -126 -47
-253 -153 -248 -151 -340 -159 -48 -4 -107 -16 -135 -27 -143 -60 -188 -73
-243 -73 -31 0 -91 -9 -132 -20 -41 -11 -91 -20 -111 -20 -20 0 -58 -7 -85
-15 -63 -19 -226 -11 -264 13 -30 20 -89 42 -111 42 -9 0 -22 -7 -29 -15 -19
-23 -121 -20 -172 6 -26 14 -51 19 -69 15 -18 -3 -52 4 -92 19 -52 19 -85 24
-183 26 -158 2 -209 0 -271 -12 -44 -9 -57 -7 -90 9 -21 11 -61 25 -90 32 -47
12 -55 12 -103 -9 -61 -26 -77 -25 -220 21 -52 17 -124 34 -158 38 -47 6 -80
18 -122 44 -32 20 -63 36 -70 36 -6 0 -39 16 -71 35 -33 19 -64 35 -69 35 -5
0 -9 -35 -11 -77 -5 -207 -6 -196 22 -233 l26 -35 -2 -230 c-3 -276 -14 -330
-86 -413 -16 -18 -29 -39 -29 -47 0 -26 -172 -188 -227 -214 l-51 -24 -28 22
c-14 11 -35 21 -44 21 -10 0 -64 21 -121 46 -132 59 -256 104 -291 104 -16 0
-42 13 -62 30 -22 20 -53 34 -89 41 -50 10 -60 9 -102 -11 -30 -15 -54 -20
-72 -15 -19 4 -32 0 -52 -18 -37 -34 -177 -72 -214 -58 -16 6 -30 11 -32 11
-2 0 -20 -34 -40 -75 -20 -42 -47 -82 -59 -91 -13 -8 -47 -61 -75 -118 -28
-57 -70 -127 -92 -157 -22 -29 -42 -64 -45 -76 -7 -24 -76 -53 -129 -53 -20 0
-40 -9 -54 -24 -62 -66 -212 -46 -318 42 -26 22 -63 47 -81 56 -17 9 -32 21
-32 25 0 5 -16 24 -35 42 -19 19 -35 39 -35 46 0 7 -18 25 -40 39 -25 17 -40
35 -41 48 0 20 -1 21 -9 1 -4 -11 -16 -62 -25 -112 -22 -118 -16 -172 29 -238
19 -27 37 -69 41 -91 4 -25 16 -51 31 -65 21 -20 24 -31 24 -98 0 -62 -4 -78
-21 -97 l-21 -22 40 -94 c37 -84 39 -95 26 -113 -32 -45 -34 -35 39 -169 23
-43 40 -62 59 -67 14 -4 46 -22 71 -40 25 -19 52 -38 61 -44 24 -14 46 -109
44 -185 -1 -62 0 -67 35 -103 34 -35 37 -43 37 -95 0 -79 29 -111 130 -141 72
-22 102 -44 142 -103 9 -14 29 -29 44 -32 15 -4 68 -25 119 -47 51 -21 109
-39 129 -39 49 0 95 -21 130 -59 17 -17 35 -31 42 -31 7 0 34 -11 59 -25 26
-13 63 -27 83 -31 21 -4 57 -21 82 -39 54 -39 90 -58 184 -96 86 -35 91 -35
112 -4 12 19 25 25 51 25 18 0 53 10 76 22 23 12 65 25 92 28 28 4 84 17 126
30 75 23 78 23 114 6 27 -13 49 -16 85 -11 41 6 55 2 105 -24 73 -39 80 -45
124 -106 59 -80 77 -116 95 -193 l18 -72 -27 -31 c-31 -37 -22 -55 20 -39 15
6 85 12 154 13 131 2 151 -2 199 -46 16 -15 25 -18 34 -9 16 16 -7 69 -53 117
-32 33 -39 49 -45 95 -6 54 12 163 37 220 19 43 139 141 219 178 41 20 97 54
123 75 47 39 52 40 150 49 71 7 127 6 182 -2 44 -7 147 -10 228 -8 l149 3 23
29 c22 28 25 29 89 24 49 -4 68 -2 77 8 6 8 21 14 33 14 12 0 39 17 61 40 21
21 52 42 69 45 93 19 163 50 206 91 58 54 99 71 242 99 126 24 163 44 227 123
16 20 52 49 79 64 49 26 51 27 83 9 19 -9 44 -23 56 -31 19 -12 25 -11 56 13
27 20 41 43 57 91 16 49 31 73 58 95 l37 29 -4 180 c-3 177 -3 181 24 240 25
55 31 62 83 85 91 40 128 48 287 59 213 14 212 14 237 -9 13 -11 41 -30 64
-41 22 -11 59 -36 82 -55 61 -51 121 -72 166 -57 45 15 102 78 116 129 8 29
17 42 33 46 172 42 172 42 290 30 74 -7 124 -17 140 -28 15 -9 35 -17 47 -17
11 0 37 -15 57 -34 21 -18 52 -36 68 -39 17 -3 41 -8 54 -12 19 -7 22 -5 19
11 -2 11 -12 19 -23 19 -21 0 -43 53 -44 107 -2 52 -42 137 -87 183 -24 25
-44 51 -44 58 -1 18 -30 49 -75 78 -25 16 -56 51 -79 90 -22 35 -56 87 -76
114 -21 28 -48 71 -60 98 -22 47 -37 62 -116 116 -57 40 -104 114 -104 165 0
23 -7 76 -15 119 -8 43 -15 115 -15 160 0 87 9 111 73 190 19 24 30 51 34 86
5 48 9 53 41 67 20 8 58 37 84 63 27 27 56 52 64 55 9 4 46 -4 82 -16 l65 -22
47 27 c26 15 57 27 68 27 24 0 116 104 125 140 17 75 52 152 80 180 18 17 92
76 165 131 131 99 265 173 432 236 108 41 126 52 149 94 16 29 47 56 109 95
97 63 141 97 221 170 31 28 70 56 86 61 21 7 33 19 41 43 6 18 18 38 27 45 8
6 28 41 42 78 30 75 35 79 90 97 22 7 71 28 110 47 38 18 81 33 95 33 14 0 41
10 60 22 19 12 67 33 105 47 69 26 71 28 105 93 19 36 44 76 54 87 12 13 21
39 22 62 1 22 9 48 18 58 17 19 21 32 9 30 -5 -1 -31 -7 -60 -13z"/>
</g>
</svg>
