<?xml version="1.0" standalone="no"?>
<!DOCTYPE svg PUBLIC "-//W3C//DTD SVG 20010904//EN"
 "http://www.w3.org/TR/2001/REC-SVG-20010904/DTD/svg10.dtd">
<svg version="1.0" xmlns="http://www.w3.org/2000/svg"
 width="704.000000pt" height="404.000000pt" viewBox="0 0 704.000000 404.000000"
 preserveAspectRatio="xMidYMid meet">
<metadata>
Created by potrace 1.16, written by Peter Selinger 2001-2019
</metadata>
<g transform="translate(0.000000,404.000000) scale(0.100000,-0.100000)"
fill="#000000" stroke="none">
<path d="M2186 3813 c-24 -48 -24 -78 1 -81 12 -2 25 -12 28 -22 4 -12 22 -24
46 -30 27 -8 39 -16 39 -29 0 -27 -22 -41 -79 -50 -37 -6 -61 -17 -90 -44 -50
-45 -100 -71 -171 -87 -30 -7 -74 -24 -97 -37 -37 -21 -43 -30 -43 -58 0 -38
-16 -48 -85 -50 -69 -3 -178 -22 -221 -40 -36 -14 -42 -21 -48 -53 -6 -42 -50
-112 -70 -112 -7 0 -25 9 -39 20 -14 11 -28 20 -31 20 -3 0 -19 -21 -36 -46
-28 -40 -35 -44 -59 -39 -33 7 -43 -3 -60 -62 -13 -48 -34 -63 -86 -63 -19 0
-51 -7 -70 -14 -31 -13 -35 -19 -35 -54 0 -73 -70 -105 -135 -62 -42 28 -68
25 -139 -15 -35 -19 -76 -35 -93 -35 -16 0 -51 -7 -76 -16 -85 -29 -189 -173
-220 -303 -6 -28 -15 -51 -18 -51 -3 0 -20 28 -37 63 -18 36 -40 66 -54 72
-12 6 -28 21 -34 33 -19 39 -30 45 -53 33 -15 -9 -21 -21 -21 -46 0 -18 -5
-37 -10 -40 -18 -11 -11 -24 21 -41 57 -29 79 -61 79 -116 0 -45 4 -54 43 -93
24 -24 59 -50 78 -59 19 -9 66 -33 104 -54 61 -33 70 -41 70 -67 1 -16 6 -30
13 -33 6 -2 21 -11 33 -21 l21 -17 -36 -72 c-20 -39 -36 -80 -36 -90 0 -10
-13 -31 -30 -45 -16 -15 -30 -31 -30 -36 0 -12 64 -67 100 -86 23 -12 30 -22
30 -44 0 -16 10 -42 23 -58 13 -15 31 -49 40 -74 11 -28 27 -50 41 -57 18 -8
26 -22 31 -54 10 -57 33 -95 67 -109 16 -7 42 -31 58 -54 39 -56 76 -72 135
-55 39 11 48 10 82 -7 21 -11 45 -34 55 -52 9 -18 51 -68 92 -111 42 -43 76
-84 76 -92 0 -22 33 -48 61 -48 36 0 123 -44 146 -74 12 -15 24 -44 28 -66 11
-63 88 -118 123 -87 42 36 65 25 144 -71 15 -19 36 -32 50 -32 33 -1 50 -17
88 -87 26 -47 40 -63 56 -63 12 0 52 -23 90 -51 38 -28 84 -58 102 -67 38 -18
39 -23 12 -47 -20 -19 -20 -19 12 -52 30 -31 35 -33 105 -33 74 0 131 -16 165
-46 15 -15 20 -13 57 22 22 22 49 47 60 56 12 10 21 29 21 43 l0 24 50 -26
c44 -23 53 -24 79 -13 27 11 33 9 64 -14 19 -14 39 -26 46 -26 16 0 33 47 30
85 -4 58 1 75 31 107 17 17 35 48 40 70 12 43 27 46 109 27 62 -14 74 -8 57
31 -9 23 -10 46 -4 83 5 29 6 91 2 138 -6 81 -5 87 16 102 16 11 30 13 53 6
18 -5 44 -9 58 -9 20 0 32 -9 47 -34 l20 -34 43 12 c23 7 48 21 55 31 26 36
105 15 269 -72 22 -12 68 -34 103 -49 59 -26 65 -26 116 -14 30 7 65 10 78 7
14 -4 66 -38 116 -77 49 -38 101 -74 115 -79 39 -15 308 -17 334 -3 13 7 32
30 43 51 17 35 24 40 69 46 36 5 57 2 80 -10 17 -9 36 -13 41 -10 16 10 48
-13 52 -37 4 -32 102 -59 179 -51 63 6 61 8 74 -74 4 -24 10 -43 15 -43 5 0
18 30 31 68 33 101 67 167 111 217 71 80 114 91 194 49 52 -28 91 -28 151 -3
26 10 38 10 70 0 37 -12 42 -11 106 24 55 30 71 45 94 88 25 46 33 52 67 58
33 5 52 19 106 78 37 39 74 71 83 71 28 0 94 72 105 115 23 88 52 201 57 227
9 45 46 75 132 108 86 33 123 64 123 105 0 22 61 116 108 167 23 25 30 27 96
25 59 -1 80 3 128 27 66 31 75 50 58 117 -33 126 -55 164 -86 152 -8 -3 -26 3
-41 12 -15 10 -41 18 -59 17 -28 -1 -32 2 -44 41 -6 23 -21 62 -32 86 -11 24
-18 57 -16 73 3 16 -1 33 -9 39 -7 6 -13 24 -13 39 0 37 -8 42 -40 23 -26 -15
-32 -14 -101 9 -65 22 -77 23 -95 11 -21 -13 -54 -9 -54 7 0 5 -22 24 -49 44
-40 28 -56 34 -83 30 -30 -5 -37 -1 -71 40 -39 47 -70 59 -81 30 -4 -11 1 -18
14 -21 30 -8 26 -41 -4 -36 -16 3 -38 -5 -66 -26 -75 -54 -136 -33 -185 64
-32 62 -66 95 -99 95 -12 0 -35 14 -51 30 -28 29 -28 30 -9 44 10 8 43 26 72
41 62 32 70 44 47 79 -12 18 -15 36 -11 59 5 29 3 35 -19 45 -36 16 -45 15
-45 -6 0 -37 -35 -54 -124 -61 -47 -4 -91 -12 -97 -18 -9 -9 -18 -7 -39 9 -22
16 -32 18 -48 9 -18 -9 -21 -7 -26 24 -6 28 -11 35 -31 35 -36 0 -77 18 -110
49 -16 16 -43 31 -60 35 -16 4 -73 21 -126 37 -102 32 -136 34 -152 8 -12 -20
48 -119 113 -186 30 -31 40 -50 40 -73 0 -29 -2 -32 -25 -26 -17 4 -37 -1 -65
-19 -22 -14 -53 -28 -68 -31 -19 -4 -37 -21 -62 -60 -49 -77 -83 -108 -113
-100 -53 13 -117 93 -117 147 0 29 -124 155 -166 169 -26 9 -36 19 -42 43 -8
29 -12 32 -50 32 -33 0 -48 7 -76 34 -20 19 -36 39 -36 43 0 22 85 99 119 108
31 8 41 18 64 65 15 31 27 61 27 69 0 7 -23 34 -50 60 -49 46 -51 47 -108 44
-50 -3 -57 -6 -60 -25 -4 -28 -21 -29 -65 -3 -40 24 -57 20 -80 -20 -33 -55
-77 -49 -77 12 0 59 -20 70 -88 46 -32 -12 -35 -11 -58 17 -13 17 -24 35 -24
42 0 6 -7 18 -15 26 -12 13 -20 13 -60 -2 -45 -16 -47 -15 -86 7 -23 13 -71
28 -108 33 -36 5 -83 16 -104 26 -37 16 -38 16 -53 -5 -22 -31 -32 -27 -44 18
-6 22 -18 46 -26 52 -67 53 -74 65 -74 122 0 48 -3 58 -25 72 -17 11 -36 14
-55 10 -17 -3 -30 -2 -30 2 0 4 -4 14 -10 22 -8 12 -11 12 -27 -3 -17 -15 -23
-15 -68 -2 -27 9 -56 13 -66 10 -28 -9 -32 -36 -8 -58 16 -15 19 -26 14 -46
-4 -14 -7 -46 -8 -71 l-2 -45 -70 -3 c-67 -2 -72 -4 -107 -42 l-37 -39 -52 15
c-75 23 -99 32 -99 41 1 5 5 27 9 51 l9 43 -39 -6 c-43 -7 -45 -4 -28 44 14
39 3 54 -65 91 -41 22 -49 23 -80 12 -31 -11 -40 -10 -75 8 -53 27 -68 25 -85
-7z"/>
</g>
</svg>
