<?xml version="1.0" standalone="no"?>
<!DOCTYPE svg PUBLIC "-//W3C//DTD SVG 20010904//EN"
 "http://www.w3.org/TR/2001/REC-SVG-20010904/DTD/svg10.dtd">
<svg version="1.0" xmlns="http://www.w3.org/2000/svg"
 width="1024.000000pt" height="1024.000000pt" viewBox="0 0 1024.000000 1024.000000"
 preserveAspectRatio="xMidYMid meet">
<metadata>
Created by potrace 1.16, written by Peter Selinger 2001-2019
</metadata>
<g transform="translate(0.000000,1024.000000) scale(0.100000,-0.100000)"
fill="#000000" stroke="none">
<path d="M6694 9070 c-19 -7 -30 -27 -48 -83 -3 -9 -19 -20 -36 -23 -16 -4
-35 -13 -41 -20 -6 -8 -20 -14 -31 -14 -11 0 -28 -5 -38 -10 -34 -18 -102 0
-137 37 -39 41 -58 42 -77 4 -16 -30 -77 -61 -120 -61 -13 0 -40 -7 -59 -15
-20 -8 -48 -15 -62 -15 -23 0 -58 -16 -158 -73 -38 -21 -93 -16 -170 14 -42
17 -55 18 -86 8 -60 -19 -81 -37 -81 -68 0 -20 -7 -31 -25 -39 -18 -8 -26 -22
-31 -50 -5 -30 -15 -46 -47 -71 -22 -17 -48 -31 -56 -31 -39 0 -181 32 -229
52 -50 21 -54 21 -81 5 -29 -17 -33 -16 -123 14 -18 6 -51 16 -73 21 -22 6
-51 21 -65 34 -22 20 -32 22 -81 17 -33 -3 -71 -1 -92 6 -31 11 -41 22 -68 77
-22 46 -38 68 -57 75 -15 6 -45 20 -67 32 -35 18 -67 27 -152 41 -13 2 -29 8
-36 15 -8 6 -46 12 -86 12 -63 1 -78 -2 -119 -28 -28 -17 -70 -59 -103 -103
-32 -41 -82 -99 -112 -128 l-56 -53 6 -67 c2 -37 1 -78 -4 -91 -7 -16 -5 -44
5 -85 9 -39 12 -96 10 -157 l-4 -96 -42 -50 c-23 -28 -45 -66 -49 -84 -3 -19
-17 -50 -30 -69 -12 -19 -23 -39 -23 -44 0 -5 -12 -34 -27 -65 -27 -58 -41
-149 -42 -269 -1 -46 -8 -76 -26 -112 -14 -27 -25 -65 -25 -83 0 -19 -12 -56
-26 -83 -19 -36 -24 -56 -19 -79 4 -16 8 -58 9 -92 0 -34 7 -68 14 -74 17 -18
15 -74 -4 -89 -8 -8 -34 -50 -56 -94 -34 -67 -41 -92 -43 -147 -1 -39 -9 -76
-18 -90 -8 -13 -21 -44 -27 -68 -8 -32 -28 -60 -70 -102 -54 -55 -61 -59 -105
-59 -84 0 -138 -47 -175 -155 -28 -81 -76 -163 -113 -193 -18 -15 -58 -51 -89
-82 -66 -64 -71 -85 -43 -168 17 -50 17 -55 0 -100 -14 -35 -19 -77 -19 -167
-1 -90 -5 -129 -18 -155 -9 -19 -32 -70 -52 -112 -37 -83 -41 -86 -131 -107
-87 -21 -179 -98 -297 -251 -77 -99 -118 -133 -156 -128 -41 5 -55 43 -41 109
10 45 9 53 -5 61 -9 5 -16 20 -16 33 0 43 -69 36 -177 -17 -57 -28 -63 -29
-78 -14 -34 34 -45 20 -45 -54 0 -69 0 -70 -26 -70 -15 0 -41 -9 -58 -19 -43
-27 -90 -15 -138 32 -20 21 -44 37 -54 37 -37 0 -132 -57 -192 -115 l-62 -61
0 -114 c0 -63 -5 -132 -10 -152 -11 -37 -11 -37 -68 -40 l-57 -3 29 -28 c58
-55 136 -57 336 -8 52 12 86 15 110 10 19 -5 98 -9 175 -9 77 0 178 -5 223
-10 58 -8 140 -7 275 0 106 6 287 13 402 14 134 2 219 7 232 15 45 23 73 9 73
-37 0 -9 12 -34 28 -56 23 -33 27 -48 24 -95 -3 -70 14 -158 37 -191 33 -46
40 -67 52 -141 9 -61 16 -80 43 -109 90 -96 206 -276 206 -319 l0 -24 108 7
c125 7 172 18 197 46 21 24 65 26 104 5 27 -13 30 -13 56 15 35 37 46 37 103
4 40 -24 52 -26 118 -22 99 7 116 22 108 92 -6 47 -3 55 22 86 25 30 29 42 31
113 3 105 5 106 156 107 104 0 123 3 148 21 70 50 129 39 129 -25 0 -18 5 -47
11 -63 14 -41 61 -53 166 -42 43 4 137 8 209 8 126 1 131 0 154 -24 27 -29 31
-95 7 -141 -8 -16 -18 -49 -22 -74 -6 -40 -2 -54 35 -125 22 -43 41 -93 41
-110 1 -16 -9 -70 -22 -120 -17 -68 -23 -119 -23 -210 0 -141 11 -172 82 -235
92 -79 89 -75 96 -158 10 -150 19 -207 34 -230 14 -21 12 -24 -19 -55 l-34
-32 15 -46 c28 -83 55 -95 107 -47 19 18 29 19 95 13 40 -5 106 -8 146 -7 64
1 78 5 118 33 l46 31 55 -15 c30 -9 61 -13 69 -10 8 3 26 -3 41 -12 25 -17 27
-17 40 1 7 10 13 22 13 26 0 13 46 27 68 21 12 -3 25 -18 31 -34 8 -25 15 -29
45 -29 51 0 73 -36 57 -89 -6 -21 -18 -44 -27 -51 -13 -12 -10 -15 23 -26 56
-20 76 -17 108 16 53 55 95 70 201 70 95 0 96 0 89 -22 -26 -81 -12 -149 36
-174 16 -8 29 -21 29 -28 0 -19 21 -25 44 -14 12 7 22 6 29 -1 6 -6 26 -11 44
-11 19 0 47 -10 64 -22 27 -20 43 -23 137 -24 59 -1 115 -5 125 -9 10 -4 45
-5 77 -3 75 5 108 29 129 90 20 58 24 62 54 54 20 -5 26 -14 31 -48 6 -38 12
-45 48 -63 44 -21 53 -33 62 -76 12 -57 88 -105 127 -80 29 17 48 13 60 -13 9
-19 25 -27 71 -37 42 -10 65 -21 75 -36 8 -12 30 -25 48 -29 19 -3 41 -14 51
-25 14 -16 15 -23 4 -49 -11 -27 -11 -34 4 -48 9 -9 36 -22 59 -27 38 -10 44
-16 63 -63 11 -28 28 -60 37 -70 9 -10 17 -30 17 -44 0 -74 147 -66 249 13 13
11 32 19 42 19 25 0 40 -29 26 -51 -8 -13 -7 -21 2 -33 17 -21 47 -21 55 0 9
22 7 497 -2 510 -5 8 -23 9 -54 5 -50 -8 -78 -25 -78 -48 0 -27 -30 -73 -48
-73 -10 0 -26 6 -37 14 -11 7 -37 16 -57 20 -31 6 -49 21 -105 86 -37 44 -72
80 -78 80 -5 0 -35 18 -65 40 -46 34 -55 45 -57 74 -1 19 -9 48 -18 65 -14 29
-14 33 5 70 11 22 24 71 30 108 14 95 26 135 57 179 24 37 25 42 14 84 -19 69
-24 180 -11 230 22 86 23 99 6 106 -9 4 -16 18 -16 34 0 48 -36 118 -62 122
-20 3 -23 9 -26 57 -3 49 0 59 42 120 25 36 60 81 78 100 18 19 47 55 63 80
l30 45 137 17 c75 10 212 25 305 33 269 25 273 26 273 46 0 9 -13 34 -29 54
-16 20 -35 60 -41 89 -7 28 -16 57 -20 62 -5 6 -11 33 -15 60 -6 44 -14 57
-67 108 -33 32 -87 71 -119 87 -32 16 -66 42 -76 57 -10 15 -35 44 -55 64 -26
26 -40 50 -44 78 -4 22 -15 48 -25 57 -11 9 -19 24 -19 32 0 9 -18 53 -40 98
-22 46 -40 91 -40 101 0 10 14 36 32 57 17 21 32 50 33 65 1 16 -17 59 -47
109 l-49 83 -6 117 -6 117 32 61 c26 50 32 69 29 110 -4 47 -4 48 -12 17 -10
-41 -32 -61 -48 -45 -8 8 -8 48 0 154 19 235 23 374 11 405 -6 15 -37 65 -69
109 -68 93 -80 143 -42 170 21 14 21 16 6 39 -15 23 -15 27 0 50 9 13 16 35
16 48 0 13 14 43 31 67 25 35 30 48 24 76 -7 38 4 43 50 22 23 -10 29 -8 63
24 20 20 57 48 81 63 l43 27 -6 88 c-7 86 -7 88 18 108 19 15 26 29 26 55 0
67 -21 85 -54 48 -25 -28 -76 -35 -92 -14 -22 29 -16 56 21 109 19 27 35 57
35 66 0 20 32 43 71 52 22 5 29 15 38 52 14 55 73 175 95 193 12 10 16 31 16
78 0 79 11 101 90 178 37 36 75 86 95 125 18 36 46 81 62 102 34 44 148 142
225 192 83 54 88 63 55 92 -16 13 -34 24 -41 24 -8 0 -17 12 -20 26 -6 24 -9
25 -54 19 -42 -6 -51 -3 -76 20 -17 16 -26 32 -22 41 3 9 6 21 6 28 0 7 14 30
30 51 34 42 37 61 15 85 -26 28 -21 99 10 158 35 67 29 92 -27 114 -24 9 -55
19 -69 22 -20 4 -29 15 -38 46 -13 45 -50 74 -107 85 -25 4 -41 16 -58 43 -13
20 -49 61 -80 90 -47 45 -56 59 -56 88 0 30 -6 38 -47 64 -26 17 -53 30 -60
30 -7 0 -41 -29 -76 -65 -69 -71 -92 -78 -134 -45 -16 12 -41 20 -65 20 -24 0
-50 8 -68 22 -24 17 -32 19 -44 9 -8 -7 -18 -20 -21 -29 -6 -19 -75 -62 -100
-62 -9 0 -18 7 -21 15 -4 8 -10 15 -16 15 -5 0 -32 10 -59 21 -39 17 -49 26
-49 45 0 22 -4 24 -43 24 -47 0 -87 30 -87 64 0 27 -32 76 -50 76 -24 0 -80
38 -80 55 0 23 -93 65 -142 65 -42 0 -63 -13 -105 -64 -10 -12 -19 -12 -48 -4
-26 9 -44 8 -74 -2 -36 -12 -42 -11 -67 9 -14 11 -32 21 -39 21 -7 0 -24 9
-38 20 -17 14 -41 20 -74 20 -26 1 -66 7 -88 15 -43 16 -147 19 -181 5z"/>
</g>
</svg>
