<?xml version="1.0" standalone="no"?>
<!DOCTYPE svg PUBLIC "-//W3C//DTD SVG 20010904//EN"
 "http://www.w3.org/TR/2001/REC-SVG-20010904/DTD/svg10.dtd">
<svg version="1.0" xmlns="http://www.w3.org/2000/svg"
 width="1024.000000pt" height="786.000000pt" viewBox="0 0 1024.000000 786.000000"
 preserveAspectRatio="xMidYMid meet">
<metadata>
Created by potrace 1.16, written by Peter Selinger 2001-2019
</metadata>
<g transform="translate(0.000000,786.000000) scale(0.100000,-0.100000)"
fill="#000000" stroke="none">
<path d="M3806 7272 c-49 -31 -125 -90 -168 -130 -61 -56 -103 -84 -185 -123
-113 -54 -145 -60 -259 -45 l-60 8 -41 -46 c-23 -26 -44 -58 -48 -73 -3 -15
-23 -47 -43 -72 -57 -69 -118 -153 -132 -180 -6 -13 -21 -55 -31 -93 -37 -133
-119 -260 -243 -374 -115 -107 -177 -144 -263 -155 -116 -14 -203 -11 -252 11
-60 28 -182 26 -165 -2 6 -10 -1 -16 -81 -72 -46 -32 -54 -35 -87 -26 -23 7
-45 7 -61 1 -34 -13 -83 2 -119 35 -39 38 -64 24 -118 -67 -62 -105 -89 -139
-109 -139 -25 0 -56 -38 -71 -85 -7 -22 -24 -56 -39 -75 -40 -53 -108 -171
-131 -229 -16 -43 -20 -72 -19 -169 l2 -117 10 73 c5 39 13 72 16 72 17 -1 49
-39 55 -65 4 -17 13 -37 20 -45 7 -8 18 -34 26 -58 20 -62 30 -67 76 -32 45
34 56 36 88 15 20 -13 25 -13 35 -1 18 22 2 46 -30 46 -31 0 -39 17 -14 26 20
8 20 87 0 104 -8 7 -15 16 -15 21 0 15 75 79 94 79 10 0 36 17 57 39 30 29 39
47 39 72 0 36 14 83 42 144 l18 40 62 0 c83 1 132 27 124 68 -5 25 -3 27 25
27 17 0 38 -4 48 -10 14 -7 24 -4 41 15 13 14 33 25 46 25 12 0 27 7 34 15 7
8 19 15 26 15 8 0 14 -7 14 -15 0 -22 11 -19 50 15 56 48 141 35 168 -25 12
-26 16 -27 63 -23 36 4 58 12 77 31 15 14 39 28 54 31 15 2 66 14 113 26 47
12 94 18 105 15 23 -7 90 12 90 25 0 5 -4 12 -10 15 -20 12 -9 32 25 48 44 21
51 21 35 2 -18 -22 -2 -35 48 -42 39 -5 42 -4 58 31 23 48 50 47 123 -4 31
-22 62 -40 69 -40 6 0 27 14 45 30 53 46 110 35 148 -27 11 -18 25 -33 30 -33
5 0 41 -29 79 -65 71 -67 74 -68 125 -65 46 3 72 24 79 67 10 56 65 212 91
258 12 22 26 52 29 68 4 15 36 60 72 99 49 53 64 77 60 92 -2 12 -10 44 -16
71 -6 28 -15 58 -20 68 -6 9 -7 42 -4 72 4 35 2 65 -6 85 -11 26 -10 36 5 71
14 30 16 42 7 51 -7 7 -12 25 -12 41 0 16 -9 42 -20 57 -23 32 -90 185 -90
205 0 7 18 51 40 96 22 46 40 88 40 93 1 20 37 55 100 98 35 24 63 48 64 53 3
26 -47 9 -128 -43z"/>
<path d="M4515 6390 c-32 -12 -130 -40 -145 -40 -7 0 -42 -14 -77 -30 -54 -26
-64 -34 -61 -53 2 -17 13 -24 46 -31 31 -7 42 -14 42 -27 0 -14 7 -19 30 -19
23 0 33 -6 39 -22 8 -21 10 -21 16 -5 4 9 2 24 -4 31 -14 16 -5 25 44 41 25 9
30 15 28 40 -2 26 4 33 42 53 25 12 59 22 77 22 l31 0 -23 25 c-24 25 -49 30
-85 15z"/>
<path d="M3161 5811 c-16 -16 -29 -18 -79 -14 -37 4 -62 2 -66 -5 -4 -7 -25
-9 -56 -5 -57 7 -131 -22 -151 -59 -6 -12 -20 -31 -31 -42 -10 -11 -21 -31
-25 -44 -3 -12 -18 -29 -34 -38 -22 -11 -29 -22 -29 -44 0 -23 -4 -30 -20 -30
-17 0 -20 7 -20 53 0 29 5 58 10 63 7 7 5 17 -4 30 -13 17 -26 19 -140 17
-133 -2 -161 -9 -176 -49 -5 -13 -19 -28 -30 -32 -20 -8 -110 -118 -110 -135
0 -4 11 -35 26 -68 l25 -61 -20 -39 c-25 -47 -19 -95 15 -124 13 -11 26 -34
30 -51 5 -25 -1 -39 -35 -82 -23 -28 -41 -56 -41 -62 0 -12 28 -6 72 16 35 18
72 18 87 0 22 -26 26 -120 7 -149 -12 -17 -16 -41 -14 -74 l3 -48 42 2 c35 1
42 -2 47 -20 10 -38 7 -47 -16 -47 -13 0 -34 -9 -48 -20 -14 -11 -28 -20 -32
-20 -13 0 -58 98 -58 127 0 14 10 37 22 50 20 21 20 25 6 39 -9 9 -41 18 -77
21 -52 5 -61 9 -61 26 0 16 -3 17 -15 7 -20 -16 -19 -30 2 -45 15 -11 15 -15
3 -29 -7 -10 -24 -16 -39 -14 -23 3 -26 0 -23 -27 3 -37 -19 -71 -42 -62 -25
10 -23 126 4 160 11 14 20 37 20 51 0 16 6 26 15 26 8 0 15 5 15 11 0 6 16 26
36 44 l36 34 -21 34 c-11 19 -21 44 -21 55 0 28 -46 95 -72 105 -23 8 -38 1
-38 -19 0 -18 -19 -18 -44 1 -47 35 -98 5 -159 -93 -20 -33 -37 -62 -37 -65 0
-3 17 -7 38 -9 30 -2 38 -7 40 -25 4 -25 -14 -29 -86 -24 -23 1 -34 -3 -38
-16 -18 -55 -31 -80 -57 -110 -23 -26 -34 -32 -53 -27 -34 9 -30 -8 16 -61 38
-44 49 -73 33 -89 -5 -4 -8 -44 -8 -89 l0 -82 -60 2 c-43 2 -67 8 -89 24 -26
20 -33 21 -63 10 -19 -7 -37 -11 -40 -8 -11 11 20 49 48 59 17 6 28 13 26 17
-2 3 -9 21 -16 39 -14 35 -31 41 -51 17 -18 -21 -33 -19 -60 9 -15 17 -45 30
-91 40 -91 21 -109 21 -109 -4 0 -14 -7 -20 -21 -20 -20 0 -21 4 -17 45 5 42
4 45 -17 45 -41 0 -55 11 -55 41 0 22 -5 29 -20 29 -25 0 -25 9 0 90 11 36 20
66 20 68 0 1 -7 2 -15 2 -8 0 -15 -2 -15 -4 0 -25 -39 -147 -67 -210 -32 -72
-34 -83 -27 -135 4 -31 6 -93 5 -137 -3 -81 -3 -81 28 -103 22 -16 35 -38 46
-76 13 -42 23 -58 50 -74 23 -13 35 -28 37 -47 2 -20 9 -28 27 -31 31 -4 33
-7 26 -25 -5 -13 -55 -48 -70 -48 -3 0 -11 14 -17 30 -6 20 -19 32 -36 36 -15
4 -31 9 -37 13 -5 3 -19 5 -30 6 -18 0 -20 8 -23 68 -2 37 -7 67 -12 67 -4 0
-7 -8 -5 -17 2 -10 9 -90 15 -178 11 -143 10 -173 -6 -280 -25 -160 -22 -336
7 -448 12 -45 25 -122 29 -170 4 -48 10 -91 14 -94 3 -4 6 46 6 109 0 89 -5
130 -21 179 -26 83 -36 189 -20 228 10 23 10 34 1 52 -11 20 -11 21 11 15 13
-4 38 -11 55 -15 82 -21 154 -117 154 -206 0 -36 5 -48 31 -69 32 -27 48 -72
49 -132 0 -21 -9 -39 -32 -60 -81 -76 -138 -93 -124 -39 4 16 2 25 -5 25 -7 0
-17 7 -24 16 -10 14 -15 6 -35 -52 -13 -38 -25 -91 -25 -119 -3 -93 -42 -272
-112 -505 -3 -11 15 -23 59 -43 35 -15 91 -50 123 -77 71 -59 88 -64 47 -14
-17 20 -28 43 -25 53 2 10 -3 23 -11 30 -21 18 -20 61 3 91 17 21 23 23 48 14
28 -10 32 -23 18 -56 -5 -12 13 -38 65 -93 39 -43 78 -88 87 -101 13 -20 24
-24 68 -24 43 0 62 -6 101 -33 53 -35 78 -77 88 -145 3 -23 13 -53 21 -66 14
-21 14 -29 0 -85 -15 -57 -15 -68 1 -144 25 -117 25 -202 0 -252 -20 -40 -23
-84 -19 -280 1 -38 1 -85 0 -104 -2 -30 2 -35 27 -42 15 -4 36 -15 46 -24 20
-18 38 -15 98 12 24 12 39 13 60 5 15 -6 50 -10 78 -11 37 0 70 -9 115 -31 52
-25 73 -30 109 -26 58 7 173 -38 178 -69 9 -64 10 -65 58 -65 37 0 53 6 81 30
22 20 44 30 65 30 23 0 42 10 68 34 19 19 53 41 75 48 30 10 42 21 50 43 11
32 52 74 72 75 17 0 43 -40 36 -56 -3 -9 -13 -12 -29 -8 -31 8 -30 -3 0 -31
17 -16 21 -26 14 -33 -16 -16 0 -32 33 -32 17 0 32 -6 35 -15 4 -8 13 -15 21
-15 11 0 13 7 8 32 -7 31 -16 43 -39 51 -5 2 -7 11 -3 21 6 14 14 16 39 11
l31 -7 -7 48 c-9 69 -37 133 -61 140 -54 15 -92 38 -113 69 -23 36 -36 43 -47
25 -3 -5 -16 -10 -27 -10 -12 0 -30 -8 -40 -17 -17 -15 -23 -16 -61 -3 -35 12
-43 20 -45 44 -3 28 -3 28 37 21 38 -6 44 -4 76 28 19 19 35 40 35 46 0 25
-53 61 -87 61 -28 0 -34 4 -31 18 3 13 12 16 36 14 32 -3 32 -3 20 24 -12 25
-10 29 27 60 48 41 110 63 127 46 19 -19 45 -14 62 10 21 30 20 38 -4 38 -11
0 -20 7 -20 16 0 11 6 14 20 9 12 -4 27 -1 35 5 19 16 20 60 2 60 -8 0 -22 9
-32 20 -25 27 -60 25 -101 -6 -19 -15 -34 -22 -34 -16 0 15 48 51 77 59 20 4
23 10 18 27 -4 11 -8 38 -9 60 -1 41 -11 51 -58 61 -34 7 -39 38 -5 33 24 -3
25 4 12 78 -7 38 -5 43 16 49 40 11 89 39 89 50 0 6 -16 26 -35 45 -31 30 -39
33 -63 25 -39 -14 -132 -7 -132 9 0 23 26 36 59 30 29 -6 31 -4 31 21 0 24 3
26 23 20 44 -14 87 -17 100 -7 8 7 18 7 27 2 29 -18 40 -11 40 25 0 28 8 44
38 74 39 40 82 95 82 105 0 3 -20 6 -45 6 -34 0 -45 4 -45 16 0 16 -66 84 -81
84 -5 0 -9 6 -9 14 0 10 -18 15 -65 18 -65 4 -81 11 -87 38 -3 13 32 18 155
21 10 0 31 -11 48 -25 16 -14 54 -33 84 -42 53 -17 56 -17 102 4 27 12 76 27
111 33 60 11 62 12 46 30 -10 11 -15 20 -13 22 2 2 21 14 41 27 46 30 48 40 8
40 -26 0 -30 4 -30 28 0 18 10 39 28 55 35 35 62 66 62 72 0 3 -7 5 -15 5 -8
0 -15 -5 -15 -11 0 -7 -14 -9 -37 -6 -168 25 -209 41 -183 71 9 12 10 19 1 30
-13 15 -1 29 14 18 6 -4 15 -16 21 -27 17 -31 52 -32 60 -1 7 31 15 33 139 32
l100 -1 0 -28 c1 -28 21 -50 38 -40 5 3 5 22 2 44 -6 35 -5 39 20 45 16 4 33
20 45 45 23 44 25 67 8 120 -8 30 -8 45 1 65 11 25 11 26 -15 20 -35 -9 -28
14 10 33 26 12 28 16 22 55 -4 22 -23 73 -42 112 -29 59 -34 76 -25 92 6 12
11 31 11 43 0 15 23 44 65 85 36 34 65 69 65 77 0 8 11 35 25 60 33 58 69 67
134 35 51 -26 55 -46 18 -85 -17 -20 -19 -27 -9 -48 7 -14 12 -32 12 -40 0
-20 -47 -19 -58 1 -8 14 -13 13 -45 -6 -39 -23 -42 -28 -29 -46 13 -20 48 -25
77 -10 25 13 31 13 49 0 11 -8 28 -14 38 -14 24 0 23 -29 -3 -56 l-21 -23 22
-35 c26 -42 36 -45 51 -12 9 18 8 33 0 57 -16 46 -14 77 7 107 10 15 22 35 25
44 3 10 21 24 39 31 39 17 64 8 80 -29 10 -20 8 -29 -11 -55 l-22 -30 28 -22
c37 -29 47 -28 53 8 3 17 14 47 23 67 9 21 17 46 17 57 0 11 15 32 34 46 18
14 48 53 66 88 18 34 50 87 70 117 37 53 38 58 43 165 l6 110 -39 27 c-24 17
-40 37 -45 56 -3 16 -17 39 -30 52 -22 21 -26 21 -92 10 -37 -7 -88 -13 -113
-14 -25 -1 -50 -4 -56 -8 -6 -4 -41 -12 -77 -18 -66 -10 -68 -10 -141 25 -58
27 -76 41 -86 66 -18 41 -59 91 -71 83 -5 -3 -23 -32 -39 -64 -38 -76 -41
-151 -7 -188 20 -23 21 -25 2 -18 -11 4 -32 10 -47 13 -28 6 -34 13 -20 27 8
8 8 14 11 97 1 55 2 57 81 143 44 49 80 95 80 104 -1 23 -37 102 -47 102 -14
0 -137 -28 -155 -35 -13 -5 -21 2 -32 29 -18 42 -28 44 -61 12 -13 -13 -36
-27 -51 -30 -15 -4 -43 -20 -61 -36 -38 -34 -80 -47 -182 -56 -55 -5 -72 -4
-67 4 4 7 14 12 22 12 8 0 47 7 86 16 50 11 79 25 101 45 16 16 35 29 42 29 7
0 20 9 29 19 10 11 25 17 33 14 9 -3 35 5 59 18 42 23 44 23 57 5 13 -17 16
-17 38 -3 19 12 34 14 73 6 26 -5 52 -6 57 -3 15 9 10 39 -16 99 -19 42 -25
71 -23 113 1 31 -4 67 -10 79 -16 29 -15 65 4 174 18 104 16 109 -49 109 -29
0 -40 5 -44 18 -2 10 -21 27 -41 38 -20 10 -56 39 -81 63 -70 66 -76 71 -94
71 -10 0 -26 -9 -36 -19z"/>
<path d="M1810 5544 c-6 -14 -10 -29 -10 -33 0 -4 -11 -18 -24 -30 -19 -18
-40 -24 -107 -29 l-84 -7 -12 -70 c-9 -58 -9 -73 3 -86 21 -24 17 -38 -13 -45
-76 -17 -93 -25 -93 -49 0 -13 -11 -32 -25 -43 -14 -11 -25 -26 -25 -33 0 -9
3 -10 11 -2 13 13 59 4 66 -13 3 -8 16 -14 29 -14 19 0 24 -5 24 -25 0 -15 7
-39 15 -54 14 -27 16 -28 57 -18 73 16 84 24 108 68 12 24 33 56 46 72 13 16
24 39 24 52 0 13 7 30 15 39 19 19 19 35 -2 77 -10 19 -17 57 -18 84 0 48 1
50 30 53 39 5 45 16 45 80 0 49 -1 52 -25 52 -18 0 -28 -7 -35 -26z"/>
<path d="M2080 5450 c0 -5 7 -10 15 -10 8 0 15 5 15 10 0 6 -7 10 -15 10 -8 0
-15 -4 -15 -10z"/>
<path d="M1978 5333 c-16 -2 -28 -10 -28 -17 0 -17 33 -46 51 -46 17 1 69 45
69 60 0 10 -38 11 -92 3z"/>
<path d="M5059 5085 c-71 -19 -75 -24 -44 -52 l26 -25 23 21 c12 12 32 21 44
21 12 0 26 8 31 19 18 34 -2 38 -80 16z"/>
<path d="M1449 4978 c-14 -20 -18 -20 -66 -8 -48 13 -83 9 -83 -7 1 -4 19 -20
40 -35 33 -23 40 -34 40 -61 0 -23 8 -41 26 -58 23 -22 26 -23 35 -6 6 9 19
17 29 17 31 0 40 30 23 79 -11 34 -12 50 -4 68 14 31 14 33 -6 33 -10 -1 -25
-10 -34 -22z"/>
<path d="M1510 4938 c1 -14 34 -58 44 -58 11 0 6 46 -6 58 -16 16 -38 15 -38
0z"/>
<path d="M1548 4727 c-12 -29 -10 -73 3 -60 6 6 9 26 7 44 -2 26 -5 30 -10 16z"/>
<path d="M5820 3766 c-40 -14 -119 -70 -202 -143 -31 -26 -87 -70 -127 -98
-65 -46 -94 -85 -77 -102 13 -14 75 -7 94 10 19 18 59 22 77 9 45 -31 82 -184
54 -218 -9 -11 -8 -23 4 -52 9 -20 21 -62 28 -92 7 -30 18 -69 25 -87 15 -35
5 -120 -15 -132 -6 -4 -10 -18 -9 -31 5 -36 -17 -34 -35 5 -9 19 -21 35 -27
35 -7 0 -7 -7 0 -21 16 -29 2 -39 -19 -13 -11 13 -22 18 -31 13 -8 -4 -23 -10
-33 -13 -9 -3 -22 -18 -29 -33 -9 -23 -12 -25 -15 -10 -3 10 6 39 20 65 13 26
28 62 31 79 9 40 25 51 41 29 9 -12 21 -15 38 -11 23 6 25 11 26 65 0 34 -6
71 -14 87 -8 15 -15 40 -15 55 0 15 -11 39 -25 54 -30 33 -31 44 -5 77 11 14
20 29 20 34 0 10 -99 53 -122 53 -22 0 -22 -9 -3 -34 8 -11 15 -29 15 -41 0
-12 4 -25 9 -31 17 -19 32 -77 21 -88 -5 -5 -10 -18 -10 -28 0 -13 -8 -18 -28
-18 -45 0 -59 -26 -70 -120 -10 -90 -46 -197 -73 -213 -9 -6 -24 -7 -34 -3
-17 6 -17 8 4 29 24 27 25 34 9 70 -12 26 -17 27 -86 27 -65 0 -73 2 -70 18 2
13 16 18 58 22 42 4 56 9 58 23 2 9 -2 17 -8 17 -8 0 -9 10 -5 30 9 40 -14 48
-58 21 -61 -38 -119 -21 -80 22 11 12 23 30 26 40 5 14 15 17 44 15 36 -3 38
-1 41 28 2 21 -6 41 -28 69 -33 41 -46 76 -36 100 7 20 46 19 61 -2 16 -22 35
-8 35 25 0 15 9 38 20 52 28 36 24 69 -6 41 -5 -5 -40 -21 -78 -36 l-68 -27
-29 21 c-22 16 -42 21 -81 20 -101 -3 -223 24 -261 58 -9 9 -20 13 -24 9 -11
-11 37 -45 75 -52 18 -3 35 -10 38 -15 2 -5 27 -11 55 -15 27 -4 61 -15 74
-26 22 -17 25 -27 25 -82 0 -81 -31 -131 -75 -120 -11 3 -38 -4 -59 -14 -39
-19 -40 -20 -37 -70 2 -43 -1 -53 -25 -76 -16 -14 -41 -28 -57 -32 -15 -3 -31
-12 -34 -20 -7 -20 -85 -18 -122 3 -25 15 -35 16 -60 5 -17 -6 -44 -17 -60
-24 -23 -9 -35 -9 -53 0 -39 20 -110 32 -129 21 -10 -5 -22 -9 -26 -8 -30 5
-34 -4 -8 -18 16 -9 50 -16 74 -15 38 0 49 -5 75 -33 17 -18 41 -36 53 -39 34
-11 49 -34 32 -50 -10 -9 -37 -11 -97 -7 -98 7 -110 -4 -14 -13 61 -7 72 -11
116 -51 42 -38 50 -50 57 -97 13 -77 4 -108 -31 -108 -34 0 -59 -25 -42 -42 9
-9 15 -7 26 7 20 28 41 13 74 -57 23 -47 32 -84 37 -144 l7 -81 -66 -29 c-36
-15 -66 -33 -66 -40 0 -6 12 -16 27 -23 27 -12 42 -3 43 27 0 17 35 15 50 -3
18 -22 -4 -45 -44 -46 -28 0 -29 -1 -12 -12 51 -32 93 -79 105 -117 13 -44 32
-49 41 -9 7 31 40 39 40 10 0 -33 -34 -81 -50 -71 -40 25 -40 -27 1 -66 29
-27 31 -28 44 -11 9 13 24 17 51 16 22 -1 52 3 67 10 16 6 29 11 31 11 1 0 0
-14 -2 -31 -4 -24 -1 -30 9 -27 9 3 13 15 11 31 -4 32 9 34 52 7 18 -10 65
-24 104 -30 71 -11 73 -11 103 14 35 30 39 30 74 14 27 -12 27 -37 -1 -69 -20
-23 -17 -29 15 -29 39 0 88 -18 95 -35 6 -17 4 -18 -56 -36 -51 -14 -60 -31
-28 -51 11 -7 20 -18 20 -25 0 -7 9 -13 19 -13 21 0 61 -44 61 -66 0 -18 4
-19 -80 16 -70 29 -100 37 -87 23 4 -3 39 -19 79 -35 71 -29 157 -95 151 -115
-2 -6 0 -14 6 -17 5 -4 12 3 16 14 3 11 13 20 21 20 21 0 74 -29 74 -40 0 -5
13 -16 30 -25 26 -13 34 -14 62 -2 18 8 39 21 46 30 7 9 27 19 43 22 34 8 35
11 10 67 -57 129 -63 161 -23 125 26 -24 41 -21 48 7 13 51 3 61 -59 62 -32 0
-60 -3 -63 -8 -9 -15 -24 -8 -24 11 0 11 -9 23 -20 26 -46 15 -7 67 63 85 35
9 58 24 85 55 53 61 107 85 186 85 55 0 67 3 76 20 7 13 21 20 39 20 30 0 41
17 56 84 9 40 -22 125 -49 138 -13 5 -30 23 -40 39 -14 24 -23 29 -58 29 -74
0 -119 20 -136 59 -19 46 -10 136 19 194 56 109 182 201 258 187 47 -9 61 -3
61 24 0 27 18 46 42 46 10 0 18 7 18 15 0 8 4 15 10 15 20 0 39 59 40 121 0
35 1 82 1 104 1 51 -16 128 -52 235 -16 47 -29 94 -29 105 0 42 23 98 65 160
25 36 45 69 45 73 -1 14 -70 81 -100 97 -16 8 -51 18 -77 21 -27 3 -61 15 -77
26 -16 12 -56 24 -95 29 -85 11 -89 11 -131 -5z"/>
<path d="M3826 3488 c-9 -12 -16 -37 -16 -54 0 -26 5 -33 28 -39 46 -11 62
-33 62 -85 0 -36 -5 -52 -23 -68 -13 -12 -28 -22 -34 -22 -14 0 -33 -46 -33
-83 0 -18 9 -47 20 -64 22 -37 52 -43 88 -17 19 13 21 21 16 53 -5 31 -1 48
20 83 29 50 33 73 12 65 -23 -9 -44 15 -48 53 -3 30 0 35 20 38 25 4 20 22 -7
22 -28 0 -59 41 -67 88 -8 52 -18 59 -38 30z"/>
<path d="M3675 3420 c3 -5 15 -10 26 -10 10 0 19 5 19 10 0 6 -12 10 -26 10
-14 0 -23 -4 -19 -10z"/>
<path d="M4490 3335 c7 -8 16 -15 21 -15 5 0 6 7 3 15 -4 8 -13 15 -21 15 -13
0 -13 -3 -3 -15z"/>
<path d="M4550 3281 c0 -12 37 -34 51 -29 5 2 -4 11 -21 21 -16 10 -30 14 -30
8z"/>
<path d="M3253 3225 c-3 -9 -3 -18 0 -22 11 -10 57 7 57 22 0 20 -49 20 -57 0z"/>
<path d="M5348 3068 c-32 -11 -34 -17 -14 -43 19 -27 46 -13 46 25 0 16 -1 30
-2 29 -2 0 -15 -5 -30 -11z"/>
<path d="M3548 3038 c-2 -18 -11 -24 -35 -26 -43 -4 -43 -22 0 -22 39 0 57 15
57 47 0 30 -18 30 -22 1z"/>
<path d="M6274 2818 c-9 -18 -32 -54 -50 -79 -19 -26 -34 -53 -34 -62 0 -18
65 -77 85 -77 8 0 34 14 59 31 39 26 46 35 46 63 0 20 -8 40 -20 51 -10 9 -27
37 -36 61 -9 24 -20 44 -25 44 -5 0 -16 -15 -25 -32z"/>
<path d="M6467 2791 c-8 -37 6 -86 24 -86 18 0 24 52 10 88 -14 35 -27 34 -34
-2z"/>
<path d="M3565 2681 c10 -45 -20 -54 -51 -16 l-22 28 -54 -25 c-29 -14 -64
-29 -78 -33 -37 -11 -119 -53 -167 -87 -48 -33 -130 -60 -155 -52 -9 3 -26 21
-38 40 -14 25 -25 34 -36 30 -9 -3 -21 -6 -28 -6 -7 0 -20 -18 -29 -40 -16
-41 -32 -49 -68 -30 -15 9 -19 7 -19 -6 0 -9 9 -18 20 -21 10 -3 26 -16 35
-29 8 -13 24 -24 35 -24 12 0 24 -10 30 -24 5 -14 19 -30 30 -36 32 -17 16
-24 -24 -10 -19 6 -44 23 -55 38 -13 18 -20 22 -21 12 0 -28 29 -58 64 -64 38
-7 56 -24 37 -35 -8 -5 -5 -13 9 -26 26 -24 25 -33 -5 -41 -47 -12 -18 -61 30
-51 19 3 29 -1 38 -17 13 -24 14 -28 22 -144 6 -94 23 -127 70 -140 23 -6 31
-15 33 -36 3 -23 6 -25 18 -15 12 10 19 7 39 -11 l25 -24 30 22 c16 12 32 22
35 22 3 0 17 -24 30 -54 13 -30 29 -57 34 -61 18 -11 12 -35 -8 -35 -10 0 -25
-7 -32 -16 -7 -9 -24 -20 -37 -25 -13 -5 -22 -15 -19 -22 4 -12 17 -13 52 -2
13 4 34 -3 58 -19 50 -34 61 -33 54 4 -5 25 -3 30 12 30 10 0 26 -9 36 -20 10
-11 23 -20 29 -20 5 0 23 -12 38 -27 25 -24 31 -26 49 -15 17 11 23 10 38 -10
12 -14 31 -23 52 -25 19 -1 52 -5 75 -8 32 -6 51 -2 92 19 58 29 62 30 62 15
0 -15 -58 -66 -91 -79 -23 -10 -27 -17 -25 -48 5 -84 51 -104 141 -60 47 23
64 56 23 44 -42 -13 -53 -11 -56 10 -2 14 6 27 22 37 22 15 23 19 13 46 -9 24
-7 34 7 55 14 23 22 26 49 21 44 -9 75 25 91 101 8 33 21 88 31 124 15 54 16
75 6 131 -14 89 -27 119 -48 120 -10 1 0 5 21 10 26 6 43 6 50 -1 5 -5 14 -10
19 -10 5 0 -7 18 -26 39 -20 22 -41 57 -47 78 -16 56 -40 96 -89 148 -37 39
-47 45 -71 40 -16 -3 -31 -2 -35 4 -3 6 -15 11 -26 11 -16 0 -18 -5 -13 -25 5
-21 3 -25 -14 -25 -12 0 -23 9 -28 22 -5 17 0 27 22 45 34 27 47 28 64 8 17
-20 36 -19 59 4 10 10 33 22 50 26 36 8 41 33 11 60 -11 10 -20 27 -20 37 0
25 -78 178 -90 178 -13 0 -13 -1 5 -43 8 -20 15 -41 15 -46 0 -6 -7 -8 -15 -5
-19 8 -19 -6 -2 -30 14 -19 11 -66 -3 -66 -4 0 -13 7 -20 15 -7 8 -16 15 -21
15 -19 0 -8 -28 21 -53 37 -34 38 -43 3 -50 -96 -19 -121 -29 -132 -53 -10
-24 -46 -44 -78 -44 -13 0 -14 8 -9 41 9 58 23 79 50 79 30 0 42 28 20 45 -14
10 -15 15 -4 35 12 23 9 27 -39 72 -69 63 -111 94 -140 103 -22 7 -23 5 -16
-24z"/>
<path d="M1245 2379 c-4 -6 -13 -8 -21 -5 -23 9 -27 -14 -6 -37 10 -12 26 -35
34 -52 30 -61 60 -110 79 -130 19 -19 19 -19 19 3 0 13 -6 35 -14 51 -9 17
-11 32 -5 42 5 8 9 26 9 42 0 23 -4 27 -30 27 -28 0 -30 3 -30 35 0 35 -20 49
-35 24z"/>
<path d="M1452 2028 c-16 -16 -15 -38 2 -38 7 0 19 7 26 15 7 8 19 15 26 15 8
0 14 5 14 10 0 14 -54 12 -68 -2z"/>
<path d="M8865 1980 c-4 -22 -15 -46 -24 -53 -19 -13 -33 -101 -37 -227 -1
-36 -3 -69 -4 -75 -10 -42 54 -79 153 -88 38 -4 56 -12 92 -46 36 -33 52 -41
83 -41 21 0 47 -7 58 -15 10 -8 33 -15 50 -15 38 0 57 34 48 88 -4 30 0 46 25
85 17 26 31 54 31 61 0 28 -40 64 -80 71 -41 7 -100 60 -100 90 0 23 -36 36
-79 29 -39 -6 -40 -6 -65 45 -18 35 -37 56 -64 70 -20 11 -43 29 -50 40 -18
31 -29 26 -37 -19z"/>
<path d="M2862 1963 c5 -25 28 -28 28 -4 0 12 -6 21 -16 21 -9 0 -14 -7 -12
-17z"/>
<path d="M4587 1923 c-11 -18 2 -80 20 -95 14 -11 15 -10 8 12 -5 14 -11 41
-14 60 -4 22 -9 30 -14 23z"/>
<path d="M1390 1823 c0 -11 -3 -23 -6 -26 -4 -3 -8 -35 -9 -69 -1 -35 -7 -73
-13 -85 -10 -17 -7 -24 18 -47 17 -14 30 -31 30 -36 0 -6 5 -10 11 -10 6 0 8
9 4 21 -5 15 -2 22 12 25 16 5 19 14 17 62 -1 51 7 83 38 145 13 25 7 29 -52
35 -45 4 -50 2 -50 -15z"/>
<path d="M5198 1808 c-34 -37 -34 -38 -5 -31 24 6 47 30 47 50 0 20 -13 15
-42 -19z"/>
<path d="M4564 1776 c-3 -8 -4 -23 -2 -33 3 -14 8 -11 21 15 15 28 16 32 2 32
-9 0 -18 -6 -21 -14z"/>
<path d="M3180 1748 c0 -13 -5 -29 -11 -35 -17 -17 -1 -33 32 -33 43 0 47 24
10 61 -31 30 -31 30 -31 7z"/>
<path d="M4277 1713 c-8 -16 -28 -73 -45 -128 -33 -107 -60 -149 -164 -260
-58 -61 -77 -95 -53 -95 17 0 48 -48 39 -61 -3 -6 -17 -9 -30 -6 -21 4 -24 0
-24 -24 0 -30 -31 -59 -62 -59 -24 0 -23 -8 5 -34 15 -14 29 -48 41 -98 16
-70 20 -78 42 -78 26 0 60 42 49 60 -17 27 57 259 119 375 9 17 16 38 16 48 0
11 8 31 18 45 25 36 37 71 61 172 32 138 35 170 17 170 -8 0 -22 -12 -29 -27z"/>
<path d="M2812 1560 c-51 -37 -53 -50 -7 -50 42 0 45 -12 8 -26 l-28 -10 33
-18 c28 -14 39 -15 67 -6 38 13 59 6 51 -16 -3 -8 1 -17 9 -21 13 -5 13 -7 -2
-19 -14 -11 -15 -14 -3 -13 43 4 60 -2 60 -21 0 -11 5 -20 10 -20 6 0 10 -7
10 -15 0 -8 5 -15 11 -15 5 0 7 -4 4 -10 -13 -21 -54 -10 -69 19 -14 27 -34
41 -58 41 -6 0 -6 -6 2 -15 7 -8 10 -21 7 -29 -8 -19 13 -83 32 -100 13 -12
25 -13 56 -5 83 22 88 21 123 -11 28 -28 43 -60 26 -60 -3 0 -23 14 -44 30
-44 35 -70 39 -70 10 0 -21 9 -26 83 -49 33 -11 40 -10 66 8 16 12 37 21 46
21 28 0 10 82 -40 180 -42 83 -44 85 -98 105 -42 15 -63 30 -85 61 -30 42
-100 84 -139 84 -11 0 -39 -14 -61 -30z"/>
<path d="M5817 1533 c-18 -17 -5 -29 28 -25 45 5 63 -10 63 -53 0 -46 8 -55
45 -55 31 -1 31 -1 12 -16 -11 -8 -28 -21 -38 -29 -33 -29 -50 -15 -20 17 15
17 15 18 -4 18 -11 0 -33 -10 -48 -22 -25 -19 -28 -20 -37 -5 -11 21 -28 22
-28 2 0 -10 -10 -15 -30 -15 -27 0 -30 -3 -25 -23 4 -15 -1 -32 -15 -49 l-21
-27 26 -17 c14 -9 24 -24 23 -32 -3 -18 23 -27 56 -18 12 3 45 36 74 75 29 38
63 71 75 74 76 18 122 19 179 1 43 -13 64 -15 76 -7 27 17 25 49 -5 83 -32 36
-136 70 -216 70 -37 0 -53 5 -70 24 -22 23 -87 42 -100 29z"/>
<path d="M3340 1510 c12 -23 14 -24 43 -8 21 11 21 11 2 19 -11 4 -28 8 -38 8
-15 1 -16 -2 -7 -19z"/>
<path d="M3967 1519 c8 -8 16 -8 30 0 16 9 14 10 -11 11 -22 0 -27 -3 -19 -11z"/>
<path d="M3480 1486 c0 -9 5 -16 10 -16 6 0 10 4 10 9 0 6 -4 13 -10 16 -5 3
-10 -1 -10 -9z"/>
<path d="M3740 1429 c0 -5 5 -7 10 -4 6 3 10 8 10 11 0 2 -4 4 -10 4 -5 0 -10
-5 -10 -11z"/>
<path d="M4980 1391 c0 -12 40 -61 50 -61 5 0 12 10 16 22 4 15 1 25 -12 35
-20 15 -54 18 -54 4z"/>
<path d="M3668 1363 c7 -3 16 -2 19 1 4 3 -2 6 -13 5 -11 0 -14 -3 -6 -6z"/>
<path d="M4874 1335 c-4 -8 -12 -15 -20 -15 -19 0 -18 -29 1 -36 8 -3 22 1 30
10 9 9 26 16 37 16 20 0 21 1 3 20 -21 24 -43 26 -51 5z"/>
<path d="M4591 1329 c-20 -6 -35 -18 -38 -30 -5 -16 -11 -19 -30 -14 -31 7
-113 -47 -113 -75 0 -11 4 -20 9 -20 5 0 16 -18 25 -41 12 -29 26 -44 51 -55
19 -8 35 -18 35 -22 0 -14 -65 -72 -81 -72 -8 0 -20 5 -26 11 -8 8 -18 6 -36
-6 -21 -14 -24 -20 -15 -34 16 -26 71 -61 114 -72 90 -24 227 -102 329 -185
57 -46 108 -84 114 -84 6 0 16 9 23 20 7 11 23 20 35 20 13 0 31 12 44 30 22
29 22 29 118 27 53 -2 106 -8 118 -15 12 -7 35 -12 50 -12 24 0 33 8 52 42
l22 42 -25 19 c-34 25 -33 43 4 56 22 7 30 16 30 33 0 30 -33 83 -63 103 -14
9 -27 29 -31 46 -3 16 -18 41 -33 55 -23 21 -25 28 -15 45 10 16 9 19 -6 19
-9 0 -35 12 -56 26 -44 30 -64 22 -45 -19 19 -41 6 -57 -46 -57 -46 0 -58 -13
-33 -38 9 -9 1 -12 -35 -12 -59 0 -103 21 -111 55 -4 14 -12 25 -20 25 -24 0
-106 74 -106 96 0 12 -10 25 -25 32 -14 6 -25 16 -25 22 0 12 -84 50 -108 49
-9 0 -32 -5 -51 -10z"/>
<path d="M5257 1312 c-22 -24 -21 -39 2 -51 13 -8 20 -26 25 -69 6 -50 11 -62
37 -81 26 -19 30 -28 25 -51 -4 -24 2 -35 39 -73 38 -38 45 -50 45 -84 0 -30
5 -44 22 -55 l21 -14 -28 -52 -28 -53 23 -57 c47 -117 61 -142 77 -142 14 0
15 12 9 105 -6 91 -5 110 12 147 31 70 128 211 161 236 17 12 38 34 47 47 15
23 15 26 -5 51 -12 15 -21 33 -21 40 0 27 -31 44 -83 44 -59 1 -77 11 -101 58
-16 31 -19 33 -35 18 -25 -23 -46 -20 -73 12 -36 44 -49 48 -67 23 l-17 -22
-26 20 c-32 26 -40 26 -61 3z"/>
<path d="M5560 1307 c0 -21 56 -57 88 -57 38 0 19 25 -21 28 -24 2 -42 11 -52
25 -13 18 -15 19 -15 4z"/>
<path d="M3480 1285 c0 -12 9 -30 20 -40 11 -10 20 -22 20 -27 0 -8 88 -100
141 -146 l25 -22 34 25 c19 14 42 25 52 25 27 0 33 27 13 50 -20 23 -44 28
-26 6 10 -12 6 -14 -25 -11 -34 2 -56 18 -67 49 -3 8 -8 7 -18 -1 -7 -7 -16
-13 -20 -13 -3 0 -27 26 -52 59 -51 65 -97 87 -97 46z"/>
<path d="M3907 1253 c-10 -10 -8 -53 2 -53 10 0 21 24 21 46 0 15 -12 19 -23
7z"/>
</g>
</svg>
