<?xml version="1.0" standalone="no"?>
<!DOCTYPE svg PUBLIC "-//W3C//DTD SVG 20010904//EN"
 "http://www.w3.org/TR/2001/REC-SVG-20010904/DTD/svg10.dtd">
<svg version="1.0" xmlns="http://www.w3.org/2000/svg"
 width="900.000000pt" height="1024.000000pt" viewBox="0 0 900.000000 1024.000000"
 preserveAspectRatio="xMidYMid meet">
<metadata>
Created by potrace 1.16, written by Peter Selinger 2001-2019
</metadata>
<g transform="translate(0.000000,1024.000000) scale(0.100000,-0.100000)"
fill="#000000" stroke="none">
<path d="M7090 10080 c-609 -262 -558 -237 -594 -291 -33 -51 -48 -59 -113
-59 -23 0 -47 -6 -53 -12 -5 -7 -18 -23 -28 -35 -9 -12 -29 -25 -43 -28 -22
-6 -29 -1 -47 30 -19 31 -25 35 -49 29 -47 -11 -72 -41 -75 -92 -3 -46 -3 -46
-48 -57 -37 -9 -46 -15 -48 -35 -2 -14 -13 -33 -25 -42 -19 -15 -20 -20 -9
-39 11 -18 11 -24 -4 -40 -12 -14 -14 -23 -7 -30 24 -24 2 -47 -62 -63 -35 -9
-73 -16 -84 -16 -13 0 -27 -16 -45 -52 -14 -29 -26 -57 -26 -63 0 -5 -9 -16
-20 -23 -11 -7 -20 -18 -20 -25 0 -7 -15 -28 -34 -46 -21 -21 -36 -46 -40 -69
-3 -20 -8 -49 -12 -64 -5 -24 -2 -28 39 -46 49 -22 61 -40 98 -137 21 -56 21
-58 4 -124 -10 -36 -19 -67 -20 -69 -2 -2 -44 -7 -94 -12 -119 -11 -189 -34
-193 -63 -2 -15 -11 -23 -29 -25 -21 -2 -29 -12 -39 -43 -11 -33 -19 -41 -52
-49 -21 -6 -60 -8 -87 -4 -45 6 -50 4 -66 -19 -9 -14 -30 -29 -46 -32 -26 -6
-29 -11 -29 -46 0 -21 -2 -39 -5 -39 -10 0 -175 132 -249 199 -42 38 -116 118
-163 177 -149 186 -167 200 -373 309 -419 221 -470 246 -487 241 -10 -3 -95
-83 -190 -178 -157 -158 -185 -193 -333 -403 l-161 -230 -70 -218 -70 -217
-267 -271 -266 -271 -112 -199 c-62 -109 -139 -232 -172 -274 -55 -69 -61 -82
-82 -172 -24 -106 -33 -124 -52 -105 -7 7 -15 12 -19 12 -4 0 -61 -86 -126
-192 -69 -112 -143 -218 -179 -257 -107 -115 -110 -120 -569 -832 -71 -111
-138 -207 -150 -214 -11 -8 -83 -41 -160 -75 -76 -33 -142 -66 -146 -72 -4 -6
-10 -46 -14 -88 -4 -42 -10 -82 -14 -88 -4 -6 -74 -41 -156 -77 -83 -37 -155
-72 -161 -78 -6 -7 -41 -100 -76 -207 -58 -172 -65 -202 -60 -252 3 -46 1 -62
-16 -85 -19 -27 -20 -37 -12 -198 l7 -170 -57 -77 c-52 -71 -58 -85 -69 -155
-7 -43 -24 -103 -38 -134 l-25 -56 76 -380 76 -379 0 -275 c0 -269 1 -276 21
-295 12 -10 28 -34 36 -53 13 -31 13 -35 -6 -55 -12 -12 -21 -25 -21 -29 0 -3
19 -15 43 -27 115 -56 192 -126 232 -211 l28 -58 -36 -41 c-33 -36 -37 -46
-37 -97 0 -75 -29 -132 -93 -186 -73 -61 -97 -88 -112 -124 -9 -21 -21 -33
-33 -33 -18 0 -20 -14 -27 -272 -7 -262 -8 -274 -31 -313 -13 -22 -30 -61 -39
-85 l-16 -45 35 -33 c23 -20 46 -32 64 -32 17 0 38 -10 52 -25 19 -21 33 -25
77 -25 74 0 133 -14 313 -75 58 -19 121 -35 141 -35 20 0 64 -3 98 -6 l61 -7
0 -57 c0 -67 23 -100 59 -81 11 6 42 11 70 11 l51 0 0 36 c0 39 2 39 79 8 27
-11 71 -12 243 -4 116 6 214 12 219 15 4 3 11 33 15 66 4 33 13 66 20 74 8 8
36 17 62 20 26 3 54 7 62 8 8 1 16 13 16 26 2 31 41 60 81 61 22 0 36 6 43 21
16 29 74 23 78 -9 3 -18 10 -22 36 -22 19 0 52 7 76 15 50 18 97 10 156 -27
l41 -26 119 14 c65 7 166 21 223 30 100 17 104 18 124 51 16 29 24 33 46 28
16 -3 40 2 62 14 31 17 42 18 72 9 33 -10 41 -8 97 25 65 39 84 44 96 26 4 -7
22 -9 45 -6 29 4 72 -5 162 -34 199 -64 162 -73 388 100 234 179 284 204 579
287 113 31 210 61 216 66 6 5 14 26 18 48 6 36 10 40 47 50 22 6 60 8 85 4 39
-5 48 -12 61 -39 12 -24 26 -36 57 -45 55 -16 120 -54 145 -86 l20 -25 109 30
c104 30 111 31 151 16 l42 -15 22 50 c31 70 58 64 70 -14 4 -26 17 -49 37 -67
16 -15 30 -36 30 -45 0 -10 10 -28 23 -42 19 -20 23 -39 28 -120 6 -94 29
-169 59 -187 28 -17 198 -44 275 -44 47 0 89 -2 95 -6 5 -3 10 -19 10 -35 0
-40 15 -45 57 -20 32 19 37 20 45 6 16 -29 79 -19 179 28 52 23 100 50 108 60
10 12 30 16 81 16 l67 0 185 298 c171 275 319 514 746 1202 260 419 568 914
648 1043 41 65 74 122 74 126 0 4 -12 18 -26 32 -40 37 -61 80 -69 136 -6 49
-10 55 -58 90 -29 20 -67 50 -85 65 -28 24 -41 28 -83 27 -27 -1 -54 2 -58 7
-5 5 -16 34 -25 65 -8 31 -30 73 -47 95 -17 21 -51 80 -76 131 -46 94 -46 99
-28 175 6 20 0 37 -25 73 l-32 47 -34 -33 c-38 -37 -41 -45 -18 -70 23 -26 9
-56 -29 -64 -18 -4 -63 -23 -101 -41 -70 -36 -100 -37 -111 -6 -3 9 -16 29
-30 44 -20 24 -32 28 -75 28 -40 0 -56 -5 -69 -21 -15 -19 -20 -20 -84 -9 -40
7 -96 9 -135 6 -91 -9 -160 -8 -267 5 -103 13 -284 5 -387 -17 -38 -7 -83 -14
-99 -14 -35 0 -96 29 -123 59 -26 29 -33 27 -57 -14 -20 -33 -24 -35 -72 -35
-110 -1 -175 -17 -243 -60 -86 -54 -139 -73 -186 -65 -34 6 -39 4 -47 -18 -8
-20 -21 -26 -69 -36 -33 -6 -66 -18 -72 -26 -7 -8 -22 -15 -34 -15 -12 0 -27
-5 -33 -11 -5 -5 -35 -13 -64 -16 -43 -4 -57 -2 -68 11 -21 25 -30 20 -51 -28
-15 -35 -25 -45 -50 -51 -19 -4 -36 -16 -42 -30 -9 -20 -6 -31 18 -69 16 -25
36 -46 44 -46 8 0 32 -5 52 -10 38 -11 38 -11 31 -55 -4 -30 -1 -50 7 -60 11
-13 9 -19 -6 -36 -16 -17 -26 -19 -69 -14 -27 4 -83 15 -123 26 -91 24 -92 24
-92 -6 0 -13 -5 -36 -12 -50 -11 -24 -16 -25 -86 -25 -72 0 -75 1 -106 34 -17
19 -58 50 -91 70 -40 23 -68 49 -85 77 -18 30 -37 46 -68 58 -54 21 -110 65
-124 97 -15 33 8 104 34 104 30 0 28 63 -3 96 -14 15 -19 29 -14 43 5 17 0 21
-30 27 -32 6 -55 27 -55 52 0 20 54 33 109 26 77 -10 133 -35 189 -88 26 -25
60 -50 75 -55 23 -9 29 -7 49 18 13 16 39 34 58 40 33 12 36 11 60 -20 62 -79
63 -79 113 -82 27 -2 51 1 54 6 3 5 -6 20 -18 34 -22 24 -22 25 -4 19 11 -4
45 -10 75 -13 30 -3 69 -14 86 -24 33 -20 64 -25 64 -10 0 4 -5 23 -11 40 -14
41 4 81 36 81 28 0 50 62 33 93 -6 13 -9 54 -6 107 4 71 11 97 34 139 34 64
103 123 203 176 l76 40 6 71 c4 63 11 80 54 149 26 43 59 100 72 126 12 27 26
49 31 50 4 0 41 2 82 3 89 4 163 36 195 85 21 32 43 39 62 20 14 -14 71 10
103 46 46 50 106 69 129 41 7 -8 42 -15 90 -19 63 -4 87 -10 117 -31 l39 -26
17 22 17 23 21 -28 c25 -31 36 -34 44 -9 3 10 20 26 37 36 17 10 49 47 71 82
38 61 42 64 79 64 25 0 46 7 58 19 19 19 20 19 57 0 45 -23 114 -25 153 -5 15
8 45 17 67 20 58 7 104 26 104 43 0 27 40 71 70 78 21 5 43 23 70 61 22 29 48
58 58 63 21 11 102 152 102 178 0 11 11 25 24 31 13 6 27 20 31 31 5 17 15 21
46 21 36 0 39 2 39 28 0 37 26 72 54 72 19 0 31 15 64 78 61 117 60 116 220
122 135 5 136 5 142 30 6 24 9 25 73 23 37 -1 76 -7 86 -13 11 -5 53 -10 93
-10 71 0 76 2 106 33 20 21 32 43 32 60 0 26 2 27 53 27 28 0 74 -7 101 -15
88 -27 201 -16 212 19 3 11 34 77 69 146 127 252 205 497 205 645 0 83 -16
164 -37 188 -17 18 -17 19 0 32 16 11 17 19 9 49 -6 19 -19 48 -31 64 -18 26
-19 32 -6 68 8 21 14 71 15 110 0 65 -2 72 -30 99 -24 23 -30 37 -30 70 0 47
-50 140 -97 179 -42 35 -55 86 -36 136 15 37 15 44 -6 103 -11 35 -21 88 -21
118 0 30 -12 89 -26 134 -14 44 -28 102 -31 129 -4 32 -17 64 -39 95 -105 149
-121 178 -132 235 -15 75 -15 135 0 193 11 44 10 47 -16 70 -15 12 -36 23 -48
23 -18 0 -20 -4 -13 -32 20 -94 19 -107 -8 -119 -37 -17 -50 -8 -93 63 -20 35
-49 79 -64 98 -15 19 -44 66 -65 103 -20 37 -57 90 -82 117 -24 27 -61 75 -83
107 -21 32 -57 78 -80 103 -22 25 -53 65 -67 90 -55 93 -107 164 -153 209 -29
28 -54 65 -65 95 -10 26 -38 76 -64 110 -51 67 -63 93 -80 176 -34 162 -45
200 -55 199 -6 -1 -175 -72 -376 -159z"/>
</g>
</svg>
