<?xml version="1.0" standalone="no"?>
<!DOCTYPE svg PUBLIC "-//W3C//DTD SVG 20010904//EN"
 "http://www.w3.org/TR/2001/REC-SVG-20010904/DTD/svg10.dtd">
<svg version="1.0" xmlns="http://www.w3.org/2000/svg"
 width="574.000000pt" height="1024.000000pt" viewBox="0 0 574.000000 1024.000000"
 preserveAspectRatio="xMidYMid meet">
<metadata>
Created by potrace 1.16, written by Peter Selinger 2001-2019
</metadata>
<g transform="translate(0.000000,1024.000000) scale(0.100000,-0.100000)"
fill="#000000" stroke="none">
<path d="M1070 10224 c-14 -3 -72 -14 -130 -26 -92 -18 -125 -20 -267 -14
l-162 7 -46 -78 c-58 -100 -120 -258 -136 -347 -7 -45 -9 -96 -4 -145 5 -42 9
-104 10 -139 1 -59 4 -66 38 -97 62 -57 63 -135 4 -228 -48 -75 -93 -98 -207
-104 -47 -3 -94 -11 -106 -18 -51 -32 -55 -127 -7 -165 34 -26 70 -25 143 4
80 33 113 39 161 31 50 -9 111 -61 141 -119 74 -145 -13 -503 -154 -632 -24
-21 -85 -61 -136 -88 -103 -55 -136 -87 -147 -142 -4 -21 -17 -45 -31 -56 -13
-11 -24 -29 -24 -41 0 -38 50 -131 85 -160 30 -24 33 -31 25 -57 -12 -41 0
-76 60 -174 67 -111 85 -155 104 -248 22 -109 20 -148 -14 -247 -34 -98 -33
-103 19 -185 16 -27 35 -74 42 -105 14 -69 18 -76 90 -176 75 -103 81 -120 88
-241 7 -99 8 -103 56 -185 29 -48 80 -112 121 -153 40 -39 75 -81 79 -94 5
-18 -3 -39 -31 -85 -67 -109 -50 -148 106 -248 179 -115 200 -139 200 -225 0
-47 7 -62 85 -184 100 -158 146 -261 153 -346 4 -54 1 -66 -22 -100 -36 -54
-36 -108 1 -126 18 -9 29 -24 34 -46 10 -48 33 -69 136 -120 126 -62 193 -132
193 -200 0 -10 18 -33 40 -51 58 -46 70 -70 91 -172 23 -114 41 -144 115 -194
32 -23 73 -61 90 -86 36 -54 70 -156 84 -254 15 -105 12 -291 -5 -355 -17 -65
-19 -149 -5 -240 15 -92 17 -96 65 -150 56 -63 64 -107 40 -234 -24 -125 -18
-195 21 -244 17 -20 76 -67 131 -104 115 -76 145 -110 181 -206 37 -99 43
-283 12 -402 -58 -229 -58 -223 -5 -370 15 -43 30 -111 35 -158 10 -107 33
-143 158 -237 130 -98 171 -165 156 -255 -12 -68 -116 -250 -156 -271 -11 -6
-33 -8 -49 -5 -40 8 -36 -8 9 -35 20 -12 54 -38 75 -56 20 -18 40 -33 45 -34
46 -6 241 -5 290 2 34 5 124 30 199 54 125 41 146 45 235 45 54 0 98 4 98 9 0
5 -7 28 -15 51 -32 89 -17 124 72 169 24 12 71 39 105 62 34 22 81 45 105 51
23 5 47 15 52 22 5 6 30 63 56 126 54 132 121 234 171 257 29 14 49 15 157 5
138 -12 179 -25 239 -77 23 -19 51 -35 61 -35 11 0 45 14 74 30 34 20 96 40
166 56 222 49 308 84 384 160 78 78 92 125 109 346 14 193 34 299 73 389 23
54 53 82 109 104 53 21 57 36 48 169 -15 243 33 605 98 746 34 73 42 163 22
232 -8 30 -39 87 -67 127 -28 40 -63 99 -78 130 -24 51 -26 66 -24 161 2 78
-3 123 -17 175 -21 76 -45 312 -36 349 3 14 34 41 76 70 62 41 71 50 68 74 -2
21 -18 37 -68 70 -45 30 -64 48 -62 60 11 53 13 103 4 134 l-10 36 75 12 c69
11 168 39 195 56 7 5 6 11 -6 20 -10 6 -32 41 -49 75 -41 82 -84 113 -146 106
-45 -5 -141 17 -141 32 0 24 52 80 99 105 68 37 88 77 71 145 -13 55 -53 126
-78 140 -15 9 -15 13 -3 43 50 122 39 156 -69 212 -39 21 -74 45 -77 54 -7 17
12 94 46 182 11 30 25 74 31 97 7 28 25 56 56 85 40 38 47 53 60 111 15 75 40
129 91 201 33 46 35 53 30 108 -4 44 -19 87 -60 171 -48 96 -56 122 -61 186
-4 53 -13 90 -31 125 -15 28 -30 79 -34 116 -12 90 -30 123 -117 205 -87 83
-90 97 -44 207 48 112 42 143 -39 201 -80 58 -111 61 -259 27 -60 -13 -68 -10
-103 47 l-21 34 26 102 c29 113 31 152 15 212 -14 50 -39 77 -113 123 -51 31
-71 36 -145 42 l-85 7 -59 63 c-72 76 -96 128 -132 285 -36 155 -51 188 -123
269 -58 66 -102 152 -102 199 0 12 9 42 20 66 11 24 20 49 20 57 0 16 -68 63
-130 89 -25 11 -67 34 -94 52 -26 18 -53 33 -58 33 -17 0 -52 -22 -85 -52
l-31 -30 -69 11 c-200 35 -217 44 -272 136 -42 69 -83 90 -165 82 -41 -4 -54
-10 -85 -44 -20 -23 -50 -43 -67 -47 -67 -15 -171 28 -313 128 -36 25 -74 46
-86 46 -23 0 -167 -55 -241 -93 -75 -38 -109 -41 -201 -18 -45 12 -104 21
-132 21 -51 0 -52 1 -82 50 -17 27 -71 88 -121 134 l-91 85 2 74 2 75 -47 43
c-28 27 -61 74 -84 121 -56 112 -163 268 -221 323 -27 25 -80 61 -117 78 -62
29 -76 32 -182 34 -63 0 -126 -1 -140 -3z"/>
</g>
</svg>
