<?xml version="1.0" standalone="no"?>
<!DOCTYPE svg PUBLIC "-//W3C//DTD SVG 20010904//EN"
 "http://www.w3.org/TR/2001/REC-SVG-20010904/DTD/svg10.dtd">
<svg version="1.0" xmlns="http://www.w3.org/2000/svg"
 width="940.000000pt" height="640.000000pt" viewBox="0 0 940.000000 640.000000"
 preserveAspectRatio="xMidYMid meet">
<metadata>
Created by potrace 1.16, written by Peter Selinger 2001-2019
</metadata>
<g transform="translate(0.000000,640.000000) scale(0.100000,-0.100000)"
fill="#000000" stroke="none">
<path d="M2594 6200 c-79 -12 -144 -54 -144 -94 0 -34 -13 -45 -79 -71 -42
-16 -73 -22 -92 -18 -17 3 -41 0 -55 -7 -20 -11 -27 -11 -41 2 -10 9 -28 19
-40 22 -21 7 -23 4 -23 -32 0 -27 -5 -42 -16 -46 -31 -12 -140 -6 -160 9 -10
8 -38 15 -62 15 -48 0 -173 31 -217 54 -17 9 -37 16 -46 16 -9 0 -34 14 -55
31 -59 48 -89 57 -217 65 -100 6 -128 4 -178 -11 -32 -10 -59 -24 -59 -31 0
-22 -20 -27 -39 -10 -34 31 -51 21 -51 -29 0 -36 -5 -51 -24 -68 -31 -28 -94
-67 -110 -67 -7 0 -21 -7 -32 -15 -10 -8 -29 -15 -41 -15 -13 0 -23 -5 -23
-11 0 -6 -16 -25 -35 -43 -24 -23 -35 -42 -35 -62 l0 -29 25 28 c34 36 41 34
49 -11 3 -22 14 -50 24 -63 23 -29 37 -126 16 -108 -7 6 -23 9 -36 7 -38 -5
-35 -47 6 -97 35 -42 38 -67 10 -83 -8 -6 -11 -27 -7 -70 4 -51 11 -69 34 -93
30 -33 49 -74 49 -109 0 -12 10 -33 22 -46 17 -18 21 -33 19 -72 -2 -33 2 -55
12 -66 27 -32 29 -59 6 -109 -21 -43 -27 -99 -17 -143 2 -10 -3 -14 -17 -12
-60 11 -135 -19 -135 -52 0 -8 -13 -16 -30 -19 -29 -6 -40 -29 -20 -42 5 -3
21 -31 35 -61 14 -30 29 -54 35 -54 5 0 10 -7 10 -15 0 -8 9 -15 20 -15 11 0
20 5 20 11 0 6 22 -12 49 -40 34 -35 58 -51 75 -51 14 0 28 -4 31 -10 3 -5 19
-10 34 -10 15 0 32 -5 39 -12 15 -15 16 -48 2 -48 -5 0 -10 -9 -10 -20 0 -11
5 -20 10 -20 6 0 10 -4 10 -10 0 -5 -8 -10 -18 -10 -14 0 -18 -9 -19 -40 -1
-22 -6 -46 -10 -53 -4 -6 -8 -25 -8 -42 0 -27 -4 -30 -32 -33 -21 -2 -33 -9
-33 -18 0 -12 -7 -14 -29 -9 -20 4 -30 2 -34 -9 -4 -9 -2 -18 4 -22 6 -3 3
-11 -7 -19 -10 -7 -15 -19 -11 -29 4 -9 2 -16 -4 -16 -5 0 -14 -11 -19 -25 -5
-14 -16 -25 -23 -25 -24 0 -77 -31 -77 -45 0 -8 -10 -15 -22 -17 -15 -2 -24
-11 -26 -25 -2 -13 -10 -23 -18 -23 -8 0 -14 -9 -14 -21 0 -18 -3 -19 -15 -9
-9 8 -25 9 -47 4 -18 -4 -41 -7 -50 -5 -9 1 -24 -9 -34 -23 -9 -15 -23 -26
-31 -26 -8 0 -20 -13 -26 -30 -6 -16 -17 -30 -24 -30 -7 0 -10 -7 -6 -16 7
-18 47 -12 70 12 9 8 22 13 29 10 8 -3 14 1 14 10 0 11 5 14 18 9 9 -3 42 -13
73 -22 l57 -16 11 -57 c9 -45 17 -59 36 -68 13 -6 34 -25 46 -41 13 -17 28
-31 33 -31 22 0 17 -197 -7 -305 l-22 -100 -51 -25 c-27 -14 -62 -37 -77 -53
-30 -31 -50 -95 -41 -131 5 -22 2 -25 -32 -32 -22 -4 -51 -2 -71 5 -26 10 -37
10 -48 1 -11 -9 -19 -7 -36 9 -24 22 -78 28 -96 10 -7 -7 -21 -3 -48 15 -50
34 -65 33 -98 -9 -15 -19 -35 -35 -43 -35 -23 0 -11 -24 14 -28 11 -2 26 -10
32 -18 7 -8 18 -14 24 -14 7 0 23 -19 36 -41 12 -23 60 -83 106 -134 46 -51
84 -99 84 -108 0 -17 -21 -27 -56 -27 -28 0 -30 -15 -10 -63 11 -27 25 -38 86
-62 65 -26 75 -34 88 -67 11 -27 23 -40 41 -44 14 -4 37 -19 51 -34 16 -17 61
-41 125 -65 55 -21 103 -41 108 -44 7 -7 -93 -204 -114 -226 -5 -5 -9 -21 -9
-37 0 -17 -7 -31 -20 -38 -11 -6 -20 -21 -20 -33 0 -13 -7 -32 -15 -43 -22
-29 -19 -75 5 -81 11 -3 20 -11 20 -17 0 -7 12 -23 26 -37 22 -21 25 -29 19
-65 -4 -30 -2 -44 10 -54 23 -19 18 -69 -11 -124 -28 -53 -27 -55 29 -90 116
-71 150 -101 174 -154 l23 -53 -20 -26 c-30 -39 -25 -61 35 -153 30 -47 55
-94 55 -107 0 -26 -25 -53 -49 -53 -14 0 -20 -11 -25 -40 -5 -35 -10 -41 -36
-47 -40 -7 -38 -21 5 -39 45 -18 83 -18 131 2 28 12 58 15 106 12 113 -9 192
-78 233 -208 11 -32 34 -72 56 -97 22 -24 39 -48 40 -55 0 -7 13 -23 29 -35
23 -19 29 -20 34 -8 3 8 12 15 19 15 8 0 26 27 41 59 14 32 33 61 41 65 8 3
18 23 21 46 4 22 11 40 16 40 6 0 8 9 5 20 -5 21 25 120 66 211 27 59 66 99
98 99 15 0 19 8 19 35 0 28 4 35 17 33 10 -2 22 7 30 24 7 14 43 50 79 80 36
29 73 66 81 81 8 16 29 48 48 72 18 25 36 58 40 75 4 16 16 35 27 41 11 6 27
28 37 48 9 21 31 52 48 69 47 47 125 170 145 227 28 80 24 109 -22 159 -34 37
-39 48 -34 74 5 27 1 36 -25 61 -18 17 -31 39 -31 53 0 25 34 88 48 88 4 0 21
13 38 28 38 37 58 44 81 27 10 -8 29 -15 42 -15 40 0 92 -40 113 -86 10 -24
27 -48 37 -53 24 -13 80 2 127 34 45 30 114 108 114 128 0 8 9 26 21 41 23 29
69 36 69 11 0 -22 20 -18 41 8 17 22 24 24 104 21 l86 -2 40 37 c36 35 39 42
39 89 0 37 4 52 13 52 8 0 22 10 33 21 17 19 26 21 79 15 32 -3 64 -11 69 -16
6 -6 27 -10 47 -10 46 0 69 -21 69 -63 0 -18 7 -43 16 -55 13 -19 14 -28 4
-51 -6 -15 -8 -39 -5 -53 4 -16 -2 -40 -19 -73 -39 -73 -36 -92 24 -118 27
-12 52 -29 55 -37 3 -8 21 -24 42 -35 20 -11 36 -24 35 -30 -2 -18 -45 -17
-59 1 -11 15 -17 16 -31 8 -9 -6 -17 -20 -17 -30 0 -16 9 -20 52 -22 29 -2 56
-9 63 -17 21 -25 55 -17 147 31 109 58 156 67 246 47 73 -16 97 -14 165 11 42
16 45 16 88 -6 40 -20 48 -21 77 -9 18 7 68 14 112 15 l80 1 22 46 c12 25 33
54 48 63 14 9 25 23 25 32 0 8 15 29 34 47 18 18 50 61 72 97 21 36 54 88 73
115 20 28 41 59 47 70 9 16 25 21 80 26 75 6 158 38 221 86 32 25 44 28 102
26 137 -3 308 -21 369 -39 53 -15 63 -21 68 -43 11 -55 23 -70 63 -82 61 -18
74 -9 66 51 -6 47 -6 49 19 56 37 9 112 -23 148 -65 30 -34 35 -36 92 -35 34
0 95 11 136 24 62 19 98 23 213 24 133 1 138 2 143 23 10 37 31 48 44 23 10
-18 17 -21 43 -15 18 3 61 10 97 15 36 4 84 11 108 15 l42 8 0 -41 c0 -50 12
-58 109 -72 38 -5 88 -17 111 -26 55 -22 190 -15 288 16 59 18 78 20 98 11 14
-6 42 -11 62 -11 22 0 67 -14 109 -34 58 -28 75 -42 86 -68 8 -18 26 -39 41
-47 15 -8 35 -33 45 -55 10 -23 25 -47 34 -55 10 -7 17 -17 17 -21 0 -4 20
-50 44 -101 24 -52 46 -102 50 -112 3 -10 11 -15 16 -12 6 4 66 8 133 8 l122
2 1 60 c1 78 17 123 59 170 40 43 46 85 18 133 -9 16 -14 36 -10 45 9 23 46
21 71 -2 12 -11 55 -29 96 -41 41 -12 91 -27 110 -33 20 -5 52 -7 72 -3 30 5
38 13 52 49 9 23 16 61 16 82 0 69 17 108 70 160 32 32 52 61 56 82 3 18 12
33 18 33 20 0 50 40 99 132 40 75 47 96 47 146 0 50 -4 61 -29 87 -47 48 -94
80 -116 80 -13 0 -48 30 -97 83 -41 46 -91 93 -109 104 -19 12 -56 40 -84 63
-27 23 -63 45 -80 49 -16 4 -45 26 -64 48 -19 22 -55 57 -81 77 -25 20 -79 74
-120 120 -141 160 -239 239 -324 262 -23 6 -63 18 -89 26 -47 15 -49 14 -72
-7 -14 -13 -31 -20 -39 -17 -18 7 -22 37 -6 37 6 0 10 5 10 10 0 6 -7 10 -15
10 -8 0 -43 19 -76 41 -53 37 -69 42 -131 47 -57 4 -73 2 -83 -11 -6 -8 -29
-17 -51 -19 -34 -3 -39 -6 -39 -28 0 -43 -12 -50 -84 -50 -48 0 -72 4 -81 15
-6 8 -31 26 -55 39 -24 14 -53 42 -65 61 -12 19 -28 35 -36 35 -17 0 -19 -21
-3 -37 6 -6 9 -21 7 -34 -3 -26 4 -25 -115 -16 -23 2 -47 8 -55 14 -31 26 -64
32 -97 16 -30 -15 -33 -15 -54 4 -35 31 -115 66 -142 61 -30 -6 -124 24 -136
43 -5 8 -9 26 -9 40 0 20 -8 30 -38 43 -21 10 -54 16 -73 14 -30 -3 -34 -7
-37 -35 -2 -25 -8 -33 -22 -33 -10 0 -22 5 -25 10 -4 6 -22 10 -40 8 -18 -1
-40 4 -48 10 -11 9 -22 10 -42 2 -19 -7 -44 -7 -84 1 -46 9 -64 9 -100 -4 -55
-20 -91 -7 -91 32 0 14 -7 39 -15 55 -14 26 -14 36 -1 90 8 34 18 87 22 119 7
66 18 75 66 57 18 -6 83 -15 143 -20 61 -5 144 -18 185 -30 41 -11 84 -22 95
-24 11 -2 28 -7 38 -11 10 -4 17 -3 17 4 0 7 36 11 110 11 91 0 117 -3 147
-20 38 -20 130 -27 180 -14 23 6 53 67 53 108 0 16 15 36 45 60 50 42 89 90
100 124 6 21 4 22 -67 22 -51 0 -80 -5 -96 -16 -25 -17 -92 -12 -92 7 0 5 15
34 33 62 61 95 61 96 33 109 -23 10 -28 8 -47 -15 -11 -15 -27 -27 -35 -27
-16 0 -102 -54 -141 -89 -13 -10 -23 -28 -23 -38 0 -11 -3 -22 -6 -26 -9 -9
-62 13 -68 29 -3 8 -16 14 -30 14 -14 0 -28 5 -31 10 -3 6 -14 10 -24 10 -10
0 -24 7 -31 15 -9 11 -22 14 -42 10 -16 -4 -34 -2 -41 3 -17 13 -205 23 -251
13 -21 -5 -61 -24 -90 -42 -42 -26 -65 -33 -131 -39 -53 -5 -94 -15 -123 -30
-55 -29 -126 -23 -197 16 -61 34 -91 63 -137 134 -19 30 -47 66 -61 79 -16 14
-28 39 -32 65 -4 22 -20 65 -36 94 -28 50 -30 58 -23 124 l7 71 -38 31 c-34
29 -37 35 -37 86 1 30 8 71 18 91 23 52 12 104 -31 143 -116 107 -134 115
-242 116 -115 0 -162 -16 -189 -67 -27 -51 -61 -73 -136 -85 -62 -11 -69 -10
-139 17 -65 26 -85 29 -165 27 l-91 -2 -117 114 c-64 63 -121 127 -126 143 -6
15 -23 35 -38 44 -15 9 -50 33 -79 54 l-51 37 -56 -12 c-37 -8 -69 -23 -97
-46 -47 -39 -47 -39 -77 -18 -19 13 -28 13 -58 4 -28 -10 -42 -9 -72 3 -20 8
-56 18 -79 22 -24 4 -61 21 -87 41 -25 19 -53 34 -63 34 -10 0 -43 23 -72 51
-52 49 -55 51 -97 44 -39 -6 -44 -4 -44 13 0 11 -11 27 -24 36 -14 8 -31 28
-38 43 -8 16 -23 29 -36 31 -12 2 -32 17 -45 33 -20 28 -26 30 -62 25 -23 -4
-63 0 -95 9 -69 19 -90 19 -90 1 0 -22 -21 -31 -34 -15 -19 25 -99 79 -115 78
-9 -1 -39 -5 -67 -9z"/>
</g>
</svg>
