<?xml version="1.0" standalone="no"?>
<!DOCTYPE svg PUBLIC "-//W3C//DTD SVG 20010904//EN"
 "http://www.w3.org/TR/2001/REC-SVG-20010904/DTD/svg10.dtd">
<svg version="1.0" xmlns="http://www.w3.org/2000/svg"
 width="1024.000000pt" height="1024.000000pt" viewBox="0 0 1024.000000 1024.000000"
 preserveAspectRatio="xMidYMid meet">
<metadata>
Created by potrace 1.16, written by Peter Selinger 2001-2019
</metadata>
<g transform="translate(0.000000,1024.000000) scale(0.100000,-0.100000)"
fill="#000000" stroke="none">
<path d="M4105 9750 c7 -22 -8 -55 -41 -89 -31 -31 -30 -46 6 -72 33 -25 31
-42 -5 -33 -20 5 -25 2 -30 -23 -11 -49 -14 -52 -40 -58 -14 -3 -36 -7 -50
-10 -22 -5 -25 -10 -25 -54 0 -34 -5 -53 -18 -64 -24 -22 -42 -22 -42 1 0 25
-62 116 -83 120 -10 2 -17 -3 -17 -13 0 -9 -22 -38 -50 -66 -27 -27 -50 -54
-50 -59 0 -4 -15 -18 -34 -29 -28 -17 -62 -24 -173 -32 -76 -6 -166 -10 -201
-9 -49 1 -63 -2 -68 -15 -4 -9 -35 -36 -69 -60 -56 -41 -68 -45 -119 -45 -49
0 -58 -3 -65 -22 -13 -37 -20 -108 -10 -114 14 -8 31 -44 21 -44 -5 0 -22 18
-37 41 -28 40 -28 41 -11 70 25 42 15 79 -22 79 -39 0 -135 -60 -209 -131 -57
-55 -65 -59 -108 -59 -32 0 -60 -8 -91 -26 -38 -22 -52 -25 -92 -20 -55 7 -64
1 -105 -60 -32 -47 -46 -129 -28 -162 6 -12 30 -31 52 -43 67 -34 97 -132 59
-194 -30 -48 -23 -102 19 -150 31 -36 40 -76 22 -104 -11 -17 -41 -7 -41 13 0
10 -6 13 -15 10 -18 -7 -20 -68 -5 -192 8 -76 7 -89 -16 -162 -18 -55 -33 -84
-50 -95 -13 -8 -24 -24 -24 -35 0 -27 -76 -107 -108 -113 -18 -4 -34 -18 -46
-42 -28 -51 -80 -93 -132 -107 -32 -9 -61 -28 -96 -63 -43 -43 -49 -54 -44
-78 5 -25 0 -35 -32 -66 -20 -20 -58 -48 -85 -63 -58 -34 -60 -54 -12 -107 20
-22 35 -49 35 -63 0 -14 9 -33 20 -43 11 -10 20 -22 20 -28 0 -5 16 -36 36
-69 41 -68 74 -87 151 -89 44 -2 43 -2 -22 -11 -89 -12 -142 6 -147 49 -2 17
-10 29 -21 31 -13 3 -25 -12 -46 -60 -16 -35 -38 -74 -48 -88 -26 -33 -53
-115 -53 -159 0 -50 -40 -130 -84 -169 -43 -37 -43 -37 -96 -16 -34 14 -43 14
-57 3 -9 -8 -41 -15 -72 -16 -31 -1 -67 -3 -81 -4 -14 -1 -32 1 -41 5 -11 5
-21 -6 -39 -43 -13 -28 -34 -61 -48 -73 -83 -78 -63 -138 126 -371 59 -73 62
-83 45 -132 -8 -22 -17 -69 -20 -103 -4 -45 -11 -65 -22 -70 -23 -8 -31 -23
-31 -61 0 -21 -9 -44 -25 -63 -31 -36 -33 -86 -5 -121 11 -14 20 -35 20 -46 0
-11 15 -41 34 -65 23 -30 35 -59 40 -95 4 -28 20 -85 36 -125 36 -88 38 -120
9 -140 -16 -11 -20 -21 -16 -43 4 -15 9 -42 13 -59 10 -50 -49 -154 -87 -154
-9 0 -34 -16 -53 -35 -21 -20 -47 -35 -60 -35 -13 0 -29 -7 -36 -15 -15 -18
-25 -19 -42 -2 -20 20 -98 49 -98 36 0 -6 27 -40 59 -75 38 -42 62 -78 68
-102 7 -31 13 -38 38 -40 17 -2 53 -19 82 -39 42 -29 63 -36 117 -40 37 -3 69
-10 72 -14 3 -5 16 -9 28 -9 24 0 77 -51 251 -240 105 -114 112 -120 150 -120
26 0 35 -5 44 -28 6 -15 33 -42 60 -60 40 -27 56 -33 92 -30 37 2 45 7 53 29
7 21 5 30 -12 47 -20 20 -40 87 -29 99 3 3 18 -4 33 -16 35 -27 52 -27 65 3 7
14 22 27 35 30 13 4 32 19 41 34 10 15 33 43 53 62 24 24 48 67 74 135 42 106
79 155 118 155 13 0 29 5 36 12 7 7 12 8 12 2 0 -13 -29 -39 -52 -47 -10 -4
-18 -15 -18 -26 0 -11 -9 -35 -20 -54 -12 -20 -25 -49 -30 -66 -8 -28 -7 -31
15 -31 13 0 27 4 30 10 9 15 41 12 56 -6 7 -8 21 -13 31 -11 10 3 18 1 18 -4
0 -17 -30 -22 -57 -10 -38 17 -63 5 -63 -30 0 -28 -18 -53 -54 -74 -22 -13
-11 -45 15 -45 10 0 29 -5 43 -11 20 -9 32 -9 58 4 18 8 42 18 54 21 45 14 94
148 94 261 0 40 4 96 10 124 10 56 -3 100 -35 118 -19 11 -21 33 -11 128 9 91
17 105 57 105 22 0 29 5 29 20 0 13 14 25 46 40 55 24 54 24 54 6 0 -8 -13
-19 -30 -25 -21 -7 -30 -16 -30 -33 0 -16 -10 -28 -33 -38 -21 -10 -32 -22
-32 -36 0 -11 -6 -28 -13 -37 -12 -14 -11 -20 7 -43 16 -21 21 -41 21 -90 0
-34 4 -74 10 -88 6 -17 6 -36 -1 -56 -14 -38 -6 -70 25 -107 13 -15 26 -44 30
-65 7 -36 21 -48 57 -48 28 0 52 -63 46 -125 -3 -41 -11 -57 -39 -87 -20 -21
-38 -51 -41 -70 -10 -62 -20 -93 -32 -108 -7 -8 -18 -35 -25 -60 -6 -25 -29
-97 -51 -160 -21 -63 -35 -118 -30 -123 14 -14 -5 -75 -35 -114 -17 -22 -35
-66 -45 -112 -20 -81 -45 -115 -96 -127 -21 -6 -31 -2 -49 21 -26 33 -54 28
-54 -10 0 -28 -42 -96 -80 -130 -26 -24 -174 -49 -202 -34 -27 14 -37 11 -44
-16 -7 -28 -24 -34 -24 -8 0 14 -5 12 -26 -10 -33 -35 -24 -47 56 -77 66 -25
72 -37 39 -78 l-21 -27 37 -14 37 -14 -7 -64 c-6 -55 -4 -66 14 -89 22 -28 27
-78 12 -103 -6 -10 -4 -25 6 -44 12 -24 12 -34 2 -59 -12 -29 -11 -32 14 -50
21 -15 27 -28 27 -58 0 -26 8 -48 25 -68 29 -35 27 -38 -60 -76 -68 -31 -95
-52 -95 -76 0 -23 -42 -60 -67 -60 -12 0 -35 11 -51 25 -50 42 -144 33 -161
-16 -5 -16 -17 -32 -25 -35 -9 -3 -21 -23 -27 -44 -10 -33 -9 -41 5 -55 9 -10
16 -33 16 -56 0 -97 49 -139 115 -100 45 26 95 28 95 4 0 -9 -15 -33 -34 -53
-37 -38 -166 -237 -166 -255 0 -23 103 -95 137 -95 6 0 32 17 56 38 25 22 76
60 115 85 38 26 86 67 107 92 20 25 50 52 66 61 43 22 90 4 159 -61 71 -68 87
-75 159 -75 l60 0 45 -59 c53 -69 76 -77 163 -62 42 8 64 18 78 36 35 42 74
34 146 -30 46 -42 69 -55 93 -55 80 0 97 -28 51 -82 -38 -45 -32 -75 35 -173
15 -22 32 -63 38 -90 18 -84 29 -103 72 -125 29 -15 42 -29 46 -49 5 -22 14
-30 42 -37 29 -7 41 -17 55 -47 l17 -37 65 0 c36 0 82 -7 105 -16 33 -13 46
-14 66 -5 35 16 41 14 66 -14 24 -27 55 -32 80 -12 29 23 56 72 63 115 7 46
12 50 93 71 35 10 42 16 42 36 0 14 -9 42 -20 62 -37 69 -22 124 52 188 47 40
157 97 240 123 l53 17 5 55 c3 30 15 74 28 97 28 53 28 63 -2 63 -48 0 -59
107 -17 161 32 41 48 82 66 161 9 43 30 97 46 123 25 40 29 55 29 119 0 115
20 155 150 306 39 45 70 82 70 83 25 113 33 175 39 277 8 134 18 170 59 212
30 33 66 36 101 9 25 -19 31 -59 20 -115 -7 -35 22 -28 66 17 54 53 58 82 15
120 -56 51 -33 107 65 157 44 23 51 33 57 90 2 20 9 26 33 28 34 4 55 26 55
58 0 13 14 32 35 48 19 15 35 33 35 41 0 7 9 16 19 20 11 3 35 23 54 44 19 21
55 57 79 79 50 46 27 37 783 302 123 43 590 208 680 240 44 15 127 45 185 65
58 20 120 43 137 51 18 7 222 158 452 335 l419 321 239 280 c131 154 254 300
273 323 115 139 146 172 176 187 25 14 33 24 32 45 -1 32 214 829 227 841 3 3
18 -6 33 -21 42 -41 85 -52 116 -32 21 14 32 15 56 6 33 -11 60 -6 60 12 0 6
-12 23 -27 39 -24 25 -25 30 -13 53 12 23 11 29 -9 56 -17 22 -21 38 -16 59 5
22 1 38 -14 59 -36 50 -44 81 -25 102 11 12 14 27 9 48 -6 26 -3 32 24 45 39
20 44 31 29 55 -9 15 -9 25 0 45 14 31 0 49 -66 86 -23 13 -43 33 -46 46 -4
13 -13 24 -22 24 -29 0 -91 39 -117 73 -18 23 -33 66 -47 128 -11 51 -26 102
-35 115 -23 35 -122 84 -171 84 l-43 0 -7 45 c-9 62 -1 79 34 70 15 -4 51 -7
81 -7 47 1 58 -2 93 -33 51 -43 90 -52 125 -30 20 14 30 15 50 6 19 -9 32 -8
58 5 76 36 70 45 -57 90 -94 34 -267 126 -298 159 -28 29 -46 31 -72 8 -16
-14 -23 -15 -39 -5 -13 8 -37 10 -69 6 -72 -9 -97 1 -165 68 -34 33 -84 72
-111 87 -55 30 -140 133 -180 219 -19 41 -29 52 -47 52 -13 0 -28 -5 -34 -11
-19 -19 -46 -5 -58 31 -11 32 -15 35 -61 40 -27 3 -79 20 -116 38 -83 40 -101
40 -128 2 -20 -28 -25 -30 -78 -28 l-57 3 3 -74 c2 -41 1 -85 -2 -97 -7 -28
-45 -41 -136 -48 -41 -2 -84 -7 -96 -11 -17 -5 -25 0 -41 27 -17 29 -27 34
-86 46 -94 17 -97 17 -97 -17 0 -40 -14 -46 -48 -21 l-28 21 -53 -20 c-71 -29
-85 -27 -135 19 -39 36 -48 40 -97 40 -62 0 -66 3 -99 50 -46 67 -57 70 -150
40 -34 -11 -75 -20 -91 -20 -18 0 -32 7 -39 20 -9 17 -21 20 -71 20 -42 0 -73
7 -102 22 -23 12 -55 24 -72 28 -29 6 -30 7 -30 67 0 42 -5 67 -16 79 -26 30
-31 60 -18 104 25 83 -22 154 -87 129 -36 -13 -56 -5 -141 54 l-71 50 -7 61
c-8 72 -27 106 -58 106 -12 0 -53 -12 -92 -25 -77 -27 -156 -33 -174 -12 -6 8
-14 28 -17 45 -6 30 -9 32 -51 32 -30 0 -53 7 -70 20 -19 15 -41 20 -84 20
-53 0 -63 4 -96 34 -21 18 -58 44 -83 56 -25 12 -61 37 -81 55 -22 20 -62 40
-105 53 -62 19 -76 28 -144 98 -100 104 -144 134 -191 134 -23 0 -43 6 -51 16
-7 9 -23 26 -35 39 -13 12 -23 27 -23 32 0 6 -20 13 -45 15 -61 7 -92 30 -106
78 -7 22 -16 40 -21 40 -15 0 -117 92 -124 112 -3 10 -12 18 -20 18 -11 0 -13
-6 -9 -20z"/>
<path d="M3971 9661 c-6 -10 -33 -36 -61 -56 -27 -20 -50 -43 -50 -50 0 -22
59 -65 90 -65 15 0 33 7 40 14 10 14 15 74 11 149 -1 31 -16 35 -30 8z"/>
<path d="M2596 4110 c-5 -16 -24 -102 -33 -156 -6 -37 19 -67 51 -62 17 2 21
11 23 48 1 25 5 63 8 86 6 35 3 45 -18 70 -20 22 -27 26 -31 14z"/>
<path d="M2275 3849 c-27 -17 -64 -33 -83 -36 -28 -5 -37 -13 -49 -42 -8 -20
-31 -58 -51 -86 l-36 -50 -4 -125 c-5 -140 -4 -141 64 -165 34 -11 40 -10 72
11 19 13 47 24 63 24 28 0 30 3 43 62 6 28 -31 119 -54 133 -21 13 -10 45 21
61 33 17 112 13 124 -7 13 -20 43 -8 55 21 20 49 48 78 80 85 46 10 83 75 43
75 -10 0 -49 16 -87 35 -90 45 -135 46 -201 4z"/>
</g>
</svg>
