<?xml version="1.0" standalone="no"?>
<!DOCTYPE svg PUBLIC "-//W3C//DTD SVG 20010904//EN"
 "http://www.w3.org/TR/2001/REC-SVG-20010904/DTD/svg10.dtd">
<svg version="1.0" xmlns="http://www.w3.org/2000/svg"
 width="1024.000000pt" height="1024.000000pt" viewBox="0 0 1024.000000 1024.000000"
 preserveAspectRatio="xMidYMid meet">
<metadata>
Created by potrace 1.16, written by Peter Selinger 2001-2019
</metadata>
<g transform="translate(0.000000,1024.000000) scale(0.100000,-0.100000)"
fill="#000000" stroke="none">
<path d="M2340 8043 c-23 -11 -69 -18 -135 -20 -55 -1 -117 -3 -137 -4 -21 0
-53 0 -72 1 -41 2 -75 -20 -110 -75 -33 -49 -34 -106 -4 -172 47 -106 18 -266
-89 -475 -42 -82 -47 -101 -47 -159 -1 -62 3 -74 61 -186 88 -170 97 -211 95
-418 0 -93 -24 -811 -51 -1595 -28 -784 -58 -1625 -66 -1870 -9 -245 -20 -539
-24 -655 -5 -115 -5 -214 0 -219 8 -9 5998 10 6477 20 144 4 262 10 262 14 0
20 -55 72 -108 102 -31 18 -82 55 -113 83 -31 27 -71 61 -88 75 -26 20 -34 35
-39 75 l-7 50 -86 7 c-101 7 -132 21 -178 78 -18 23 -56 58 -83 78 l-50 35 6
56 c5 43 3 61 -9 78 -9 13 -19 46 -22 75 -3 28 -16 67 -28 85 -19 26 -24 52
-30 145 -6 112 0 158 25 173 7 4 17 2 23 -4 6 -6 23 -11 37 -11 14 0 35 -7 46
-15 26 -20 33 -19 27 5 -7 25 -40 50 -67 50 -11 0 -41 21 -66 48 -25 26 -58
55 -72 64 -16 11 -28 30 -32 51 -8 41 -25 58 -88 85 -56 24 -70 46 -92 136
-19 76 -29 99 -91 201 -23 39 -58 113 -76 165 -20 56 -51 120 -76 155 -119
166 -335 524 -354 587 -9 28 -9 52 0 96 8 44 9 73 1 108 -12 54 -71 159 -120
214 -92 102 -178 252 -183 316 -2 25 2 29 26 32 34 4 36 30 5 59 -13 12 -50
34 -83 51 -93 47 -137 101 -199 245 -18 41 -34 62 -58 75 -61 32 -84 63 -92
121 -9 68 -27 103 -71 136 -42 33 -45 43 -49 147 -4 101 -19 139 -80 200 -40
40 -46 52 -46 88 0 92 54 202 92 188 21 -8 48 -91 48 -145 0 -112 37 -172 169
-272 135 -104 151 -129 151 -244 0 -76 20 -179 45 -231 12 -24 41 -45 123 -90
130 -72 150 -89 158 -135 9 -48 26 -80 61 -113 28 -27 127 -78 151 -78 32 0
86 36 109 74 29 45 32 79 19 218 l-9 88 41 39 c62 60 78 102 112 287 26 137
40 187 75 264 63 138 63 138 21 155 l-36 15 0 78 c0 71 -5 91 -74 272 -41 107
-117 309 -170 449 -53 140 -98 256 -100 258 -2 2 -32 -12 -67 -31 -88 -49
-138 -65 -235 -76 -52 -5 -109 -20 -154 -39 -74 -32 -91 -31 -120 3 -17 22
-43 20 -58 -4 -10 -17 -19 -19 -51 -14 -28 5 -46 2 -62 -10 -13 -9 -31 -16
-41 -16 -39 0 -126 42 -175 85 -28 25 -56 45 -62 45 -6 0 -23 -18 -37 -40 -40
-60 -99 -67 -123 -14 -7 15 -27 32 -51 41 -26 11 -40 22 -40 34 0 26 46 53 86
52 65 -2 30 48 -51 72 -40 12 -55 12 -108 0 -68 -15 -79 -14 -211 30 -44 14
-94 25 -110 23 -28 -3 -31 -6 -28 -34 4 -37 -28 -67 -87 -85 -46 -13 -153 -8
-158 8 -3 7 15 26 39 44 24 18 34 28 23 24 -53 -21 -118 -28 -163 -17 -62 14
-78 4 -84 -53 -7 -59 -31 -85 -77 -85 -64 0 -99 -17 -200 -98 -129 -104 -212
-145 -303 -150 -65 -4 -74 -2 -148 37 -94 49 -209 78 -357 91 -95 9 -116 14
-188 50 -45 22 -94 40 -113 40 -40 0 -79 19 -109 54 -19 22 -31 26 -75 26 -29
0 -72 7 -95 16 -41 16 -45 16 -94 -6 -59 -25 -74 -22 -143 34 -60 49 -78 56
-169 66 -46 6 -110 19 -142 30 -70 24 -118 25 -165 3z"/>
</g>
</svg>
