<?xml version="1.0" standalone="no"?>
<!DOCTYPE svg PUBLIC "-//W3C//DTD SVG 20010904//EN"
 "http://www.w3.org/TR/2001/REC-SVG-20010904/DTD/svg10.dtd">
<svg version="1.0" xmlns="http://www.w3.org/2000/svg"
 width="1024.000000pt" height="768.000000pt" viewBox="0 0 1024.000000 768.000000"
 preserveAspectRatio="xMidYMid meet">
<metadata>
Created by potrace 1.16, written by Peter Selinger 2001-2019
</metadata>
<g transform="translate(0.000000,768.000000) scale(0.100000,-0.100000)"
fill="#000000" stroke="none">
<path d="M3225 6458 c-11 -6 -44 -33 -73 -61 -47 -43 -57 -48 -85 -43 -127 24
-164 16 -267 -60 -39 -29 -62 -40 -64 -32 -3 7 -7 25 -10 40 -5 22 -15 30 -47
38 -53 15 -116 4 -145 -25 -35 -35 -40 -86 -17 -165 l20 -68 -24 -19 c-39 -30
-53 -163 -19 -185 6 -4 34 -8 63 -8 l52 0 45 -90 c49 -98 78 -183 70 -205 -11
-27 -195 -75 -292 -75 -77 0 -167 -29 -239 -77 -29 -19 -53 -38 -53 -42 0 -3
-36 -44 -81 -91 -44 -46 -89 -100 -99 -119 -30 -59 -89 -218 -95 -258 -11 -65
-15 -71 -45 -78 -23 -5 -49 4 -127 47 -87 47 -105 53 -158 53 -42 0 -69 -6
-89 -18 -15 -11 -58 -30 -94 -43 -53 -19 -80 -37 -137 -93 -93 -93 -248 -215
-294 -231 -59 -21 -181 -117 -181 -143 0 -12 -9 -39 -20 -60 -11 -20 -20 -43
-20 -51 0 -8 -10 -18 -22 -22 -12 -4 -46 -23 -75 -42 -40 -26 -59 -48 -78 -88
-14 -30 -46 -74 -72 -98 -45 -43 -47 -47 -49 -108 -2 -35 -6 -89 -10 -120 -6
-55 -5 -59 25 -87 17 -16 31 -33 31 -39 0 -5 -18 -12 -40 -15 -50 -6 -70 -22
-70 -53 0 -29 32 -51 88 -60 24 -4 60 -18 80 -32 65 -44 178 -91 236 -98 47
-6 69 -16 124 -56 37 -27 113 -72 169 -100 57 -28 103 -54 103 -58 0 -4 27
-19 60 -34 37 -17 66 -37 76 -55 11 -19 42 -39 95 -64 72 -32 81 -40 99 -79
10 -24 24 -66 31 -93 19 -82 26 -93 89 -139 75 -56 127 -63 319 -43 165 17
300 3 431 -43 47 -17 117 -34 156 -40 38 -5 100 -16 136 -25 61 -14 444 -39
551 -35 26 0 89 -6 140 -15 50 -9 142 -20 203 -25 120 -9 165 -23 224 -70 22
-17 83 -46 137 -64 134 -46 184 -70 235 -112 59 -50 106 -79 153 -94 22 -7 58
-25 80 -40 133 -91 172 -112 240 -129 22 -6 64 -26 94 -46 30 -19 84 -44 120
-56 79 -26 136 -54 256 -124 51 -30 113 -58 143 -64 65 -13 119 -41 152 -76
32 -35 55 -46 167 -84 136 -45 245 -71 299 -71 66 0 163 -18 264 -48 47 -13
122 -31 166 -38 84 -13 92 -15 234 -58 46 -15 110 -30 142 -36 32 -5 101 -27
153 -49 99 -43 137 -48 195 -30 20 7 144 14 290 16 140 3 271 6 290 6 19 1 97
-7 172 -17 116 -15 148 -16 209 -6 41 7 97 9 130 6 38 -5 84 -2 131 8 111 23
220 30 259 17 80 -25 336 -56 471 -55 119 0 140 3 158 19 26 23 25 32 -6 90
-25 48 -25 49 -6 74 10 14 34 29 53 34 19 5 56 30 84 56 30 29 84 64 135 89
71 34 96 53 152 116 70 76 92 115 82 141 -3 8 -31 26 -61 40 -40 19 -58 35
-68 58 -17 41 -37 58 -105 89 -60 27 -111 72 -136 120 -14 26 -14 32 -1 46 8
10 18 34 21 55 4 21 14 41 22 44 8 3 47 -9 87 -28 83 -38 122 -41 163 -12 16
11 40 24 54 28 14 4 55 25 91 46 36 21 77 41 92 44 59 15 84 90 72 211 -9 84
-35 121 -100 145 -55 21 -100 24 -110 9 -3 -5 -15 -10 -26 -10 -18 0 -20 5
-15 38 3 20 8 61 12 90 5 45 14 63 59 115 52 61 52 63 60 147 10 123 11 181 2
217 -8 30 -4 37 52 97 53 57 61 71 61 104 0 22 -5 53 -11 71 -10 29 -9 35 14
59 37 40 57 86 57 130 0 22 7 56 15 75 27 65 21 82 -40 116 -45 26 -60 41 -84
89 -26 52 -35 61 -78 77 -26 10 -70 30 -98 45 -43 23 -50 31 -53 61 -4 53 -22
89 -53 104 -23 13 -41 13 -104 4 -64 -10 -81 -17 -104 -41 -26 -28 -32 -30
-122 -32 -66 -1 -104 -7 -126 -19 -30 -16 -36 -16 -63 -2 -49 25 -99 19 -160
-20 -66 -43 -100 -53 -110 -34 -5 8 -23 34 -42 58 -18 23 -47 68 -64 100 -21
39 -42 62 -69 76 -32 17 -40 28 -51 70 -7 28 -13 64 -14 81 0 40 -22 59 -96
84 -74 24 -87 25 -149 1 -74 -29 -159 -45 -191 -36 -44 11 -216 30 -242 27
-25 -4 -52 -48 -52 -86 0 -13 11 -48 24 -77 14 -29 23 -56 20 -61 -3 -4 -32
-8 -65 -8 -67 0 -99 -21 -99 -65 0 -22 -4 -25 -34 -25 -18 0 -39 -7 -46 -15
-7 -8 -18 -15 -25 -15 -7 0 -23 -8 -36 -19 -13 -10 -46 -21 -74 -24 -40 -4
-54 -11 -73 -35 -23 -30 -24 -30 -60 -15 -72 30 -181 9 -252 -47 -29 -24 -129
-62 -141 -54 -5 3 -9 20 -9 37 0 18 -8 46 -19 63 -10 16 -21 46 -23 65 -3 19
-11 55 -18 81 -12 41 -12 53 5 108 19 61 19 63 -1 99 -12 23 -36 45 -64 59
-40 21 -54 23 -123 18 -69 -5 -86 -2 -160 25 -45 16 -104 44 -132 61 -40 24
-59 30 -95 28 -129 -7 -158 -1 -185 42 -28 44 -63 66 -115 73 -57 8 -80 27
-62 55 7 11 12 53 12 95 0 67 -3 79 -25 100 -30 31 -39 31 -97 0 -58 -31 -77
-31 -123 -3 -33 19 -43 20 -91 11 -30 -5 -57 -6 -59 -2 -3 4 -20 47 -39 97
-42 109 -77 165 -122 193 -19 11 -52 36 -75 55 -66 55 -140 54 -216 -2 -36
-27 -38 -26 -47 36 -7 52 -46 140 -82 187 -14 18 -45 47 -70 64 -38 26 -45 36
-41 56 8 42 -26 147 -58 179 -26 27 -83 47 -149 53 l-71 6 3 40 c4 51 -30 144
-65 179 -54 55 -128 21 -173 -79 -32 -72 -39 -75 -109 -50 -23 8 -65 17 -93
21 -36 5 -57 14 -72 32 -27 32 -96 61 -171 73 -33 6 -85 22 -115 36 -32 15
-84 29 -125 33 -38 4 -97 14 -130 23 -33 8 -72 18 -87 21 -19 4 -30 15 -34 31
-10 42 -64 58 -109 33z"/>
</g>
</svg>
