<?xml version="1.0" standalone="no"?>
<!DOCTYPE svg PUBLIC "-//W3C//DTD SVG 20010904//EN"
 "http://www.w3.org/TR/2001/REC-SVG-20010904/DTD/svg10.dtd">
<svg version="1.0" xmlns="http://www.w3.org/2000/svg"
 width="1024.000000pt" height="1024.000000pt" viewBox="0 0 1024.000000 1024.000000"
 preserveAspectRatio="xMidYMid meet">
<metadata>
Created by potrace 1.16, written by Peter Selinger 2001-2019
</metadata>
<g transform="translate(0.000000,1024.000000) scale(0.100000,-0.100000)"
fill="#000000" stroke="none">
<path d="M2332 8074 c-18 -14 -51 -59 -73 -100 -26 -47 -58 -88 -90 -115 -27
-23 -54 -50 -60 -61 -6 -11 -15 -84 -20 -162 -11 -169 -20 -206 -60 -243 -53
-49 -62 -75 -43 -129 20 -60 13 -88 -31 -108 -28 -14 -43 -15 -68 -7 -18 5
-71 12 -119 16 l-87 7 -45 -46 c-46 -48 -94 -151 -118 -256 -11 -47 -9 -53 37
-169 26 -66 55 -127 65 -136 28 -25 89 -44 144 -45 33 0 67 -9 102 -27 51 -26
56 -26 104 -14 46 12 52 11 85 -9 19 -12 45 -21 57 -20 50 4 69 -1 101 -30 19
-16 42 -30 51 -30 20 0 111 114 215 270 l80 119 -6 70 c-7 85 6 112 65 129 44
13 57 34 53 89 -2 45 18 88 82 167 31 38 79 116 107 172 36 72 64 115 94 141
66 59 74 77 85 200 12 128 5 160 -38 185 -17 9 -41 35 -55 57 -31 48 -44 50
-156 25 -60 -14 -84 -15 -134 -6 -34 6 -95 14 -136 18 -98 8 -106 10 -90 29
10 12 10 18 0 30 -19 23 -61 18 -98 -11z"/>
<path d="M4981 5560 c-30 -22 -41 -37 -38 -48 3 -9 12 -35 20 -57 10 -28 14
-81 12 -181 -1 -136 -2 -142 -28 -176 -32 -42 -33 -50 -8 -102 22 -45 59 -256
63 -352 3 -52 -1 -67 -24 -102 -15 -22 -48 -55 -73 -72 -45 -31 -56 -52 -33
-66 9 -6 5 -10 -12 -14 -19 -4 -27 -15 -34 -45 -15 -70 -24 -83 -103 -145
-163 -128 -212 -191 -213 -272 0 -31 4 -38 19 -38 12 0 21 -9 25 -27 4 -21 18
-34 53 -51 62 -29 76 -28 140 8 62 35 115 39 158 10 17 -11 38 -20 48 -20 17
0 35 -26 24 -36 -2 -3 -33 5 -68 16 -41 14 -74 19 -96 15 -38 -7 -40 -11 -16
-37 13 -14 14 -21 5 -30 -9 -9 -17 -7 -33 11 -19 21 -22 21 -45 7 -33 -23 -69
-20 -127 9 -28 14 -60 25 -71 23 -28 -4 -66 -64 -66 -104 0 -53 -16 -84 -44
-84 -21 0 -25 -5 -28 -32 -3 -28 -12 -39 -68 -74 -122 -78 -120 -76 -120 -155
0 -88 -19 -127 -96 -193 -62 -54 -84 -95 -84 -155 0 -30 -5 -43 -20 -51 -11
-6 -20 -21 -20 -35 0 -18 -6 -24 -27 -27 -40 -4 -40 -31 1 -76 20 -22 36 -44
36 -49 0 -6 9 -22 21 -37 29 -37 65 -33 165 19 75 40 92 45 148 45 l64 0 17
-42 c9 -24 26 -53 38 -66 16 -17 23 -41 27 -85 6 -74 5 -74 125 -18 92 43 115
62 115 98 0 16 14 40 40 65 22 22 40 45 40 51 0 6 -10 21 -22 34 -28 30 -15
43 15 15 13 -12 36 -22 50 -22 36 0 48 29 19 48 l-21 14 25 45 c13 25 24 54
24 64 0 27 17 32 23 7 3 -11 -1 -37 -9 -56 -17 -42 -17 -42 1 -42 8 0 19 -9
25 -21 16 -29 -5 -57 -81 -110 -74 -52 -89 -72 -73 -96 8 -12 23 -17 45 -16
139 6 156 5 188 -12 40 -20 100 -14 148 15 27 16 32 26 40 81 11 84 33 91 33
10 0 -77 -12 -107 -46 -115 -36 -9 -78 -42 -64 -51 5 -3 15 -3 20 0 17 11 11
-11 -8 -28 -24 -22 -28 -21 -59 3 -14 11 -34 20 -44 20 -16 0 -17 -4 -9 -26 6
-14 10 -45 10 -70 0 -66 26 -88 96 -80 l54 6 0 -43 c0 -48 13 -67 45 -67 12 0
32 -12 46 -26 35 -38 67 -48 95 -29 13 8 34 15 48 15 24 0 25 3 28 63 l3 62
1642 6 c903 3 1645 8 1649 11 3 4 2 636 -2 1406 l-7 1399 -491 6 c-270 4 -897
10 -1393 14 l-901 6 -62 -22 c-35 -13 -69 -20 -78 -15 -9 4 -52 8 -95 9 -70 3
-81 0 -106 -21 -36 -30 -49 -30 -63 0 -13 30 -44 43 -127 51 -36 3 -81 15
-101 25 -56 28 -213 135 -230 155 -11 13 -15 42 -15 99 0 96 -9 103 -74 56z"/>
<path d="M4300 2435 c-15 -18 -6 -45 15 -45 9 0 15 9 15 24 0 31 -14 40 -30
21z"/>
<path d="M3851 2226 c-29 -31 -25 -68 10 -80 38 -13 63 -2 49 23 -5 11 -10 33
-10 50 0 38 -18 40 -49 7z"/>
</g>
</svg>
