<?xml version="1.0" standalone="no"?>
<!DOCTYPE svg PUBLIC "-//W3C//DTD SVG 20010904//EN"
 "http://www.w3.org/TR/2001/REC-SVG-20010904/DTD/svg10.dtd">
<svg version="1.0" xmlns="http://www.w3.org/2000/svg"
 width="1024.000000pt" height="768.000000pt" viewBox="0 0 1024.000000 768.000000"
 preserveAspectRatio="xMidYMid meet">
<metadata>
Created by potrace 1.16, written by Peter Selinger 2001-2019
</metadata>
<g transform="translate(0.000000,768.000000) scale(0.100000,-0.100000)"
fill="#000000" stroke="none">
<path d="M3538 7367 c-33 -25 -53 -54 -89 -127 -26 -52 -57 -123 -69 -158 -18
-49 -36 -75 -81 -118 -31 -31 -63 -69 -70 -86 -12 -29 -14 -30 -62 -25 -46 6
-51 4 -84 -28 -20 -19 -40 -35 -44 -35 -10 0 -39 29 -39 40 0 5 -9 12 -20 15
-22 7 -85 -25 -150 -75 -64 -50 -77 -54 -107 -31 -26 21 -68 27 -89 13 -6 -4
-28 -33 -48 -64 -38 -60 -57 -70 -176 -94 -83 -16 -87 -22 -154 -254 -9 -30
-26 -73 -39 -95 l-23 -40 -60 3 c-42 2 -75 -3 -110 -16 -67 -26 -178 -37 -193
-19 -6 8 -29 22 -51 32 -37 16 -41 17 -64 1 -17 -11 -32 -37 -45 -81 -18 -57
-19 -72 -9 -110 10 -36 9 -64 -6 -151 -15 -97 -20 -111 -51 -146 -22 -24 -35
-48 -35 -66 0 -15 -9 -47 -20 -71 -28 -60 -25 -84 14 -135 33 -43 42 -78 45
-170 1 -16 8 -37 17 -47 14 -16 12 -22 -29 -72 -47 -58 -126 -242 -153 -359
-8 -34 -23 -75 -33 -92 -10 -17 -24 -48 -31 -69 -6 -20 -29 -67 -50 -105 -23
-39 -53 -117 -73 -187 -46 -159 -50 -180 -38 -203 8 -16 5 -25 -15 -48 -30
-34 -63 -101 -64 -129 -1 -36 -36 -99 -86 -154 -27 -29 -54 -62 -60 -73 -18
-34 -11 -285 10 -333 11 -26 15 -52 11 -76 -4 -25 -1 -47 9 -68 9 -17 16 -55
16 -90 0 -33 5 -72 10 -87 6 -15 12 -81 15 -148 2 -67 9 -137 14 -156 6 -19
11 -51 11 -72 0 -57 68 -101 99 -64 8 9 38 16 79 19 37 2 98 12 137 21 68 16
71 16 127 -5 32 -12 78 -34 103 -50 79 -50 94 -42 132 71 25 76 51 109 91 119
66 17 143 31 170 31 38 0 112 -75 112 -113 0 -40 14 -64 75 -127 31 -32 67
-84 86 -122 26 -56 36 -68 55 -68 26 0 80 65 91 109 9 39 108 274 153 366 22
44 44 100 51 125 15 61 145 330 159 330 6 0 43 -33 83 -74 87 -89 159 -129
232 -130 28 0 56 2 64 5 9 2 40 -39 91 -121 65 -106 85 -131 134 -165 54 -38
62 -40 129 -40 55 0 83 6 120 23 26 13 78 28 115 33 83 11 147 28 231 63 78
32 97 48 112 95 19 61 34 71 104 71 60 0 64 -2 98 -40 20 -21 48 -62 62 -89
14 -28 34 -55 44 -61 62 -33 313 12 358 64 28 33 35 33 90 -5 61 -43 142 -69
209 -69 44 0 64 -5 88 -23 17 -13 46 -29 65 -35 48 -17 155 -15 198 3 22 10
68 15 125 15 81 0 97 -3 152 -31 104 -53 124 -68 177 -140 41 -54 63 -74 107
-95 97 -46 220 -84 270 -84 35 0 67 -9 111 -31 53 -26 81 -52 177 -163 64 -72
140 -168 170 -213 52 -79 154 -274 154 -297 1 -32 107 -105 210 -146 79 -31
202 -106 277 -170 36 -30 91 -74 122 -98 81 -62 157 -136 184 -179 24 -37 59
-142 71 -213 10 -55 60 -143 95 -167 18 -12 69 -34 114 -49 45 -15 94 -33 109
-40 26 -14 127 -132 242 -286 66 -88 89 -99 147 -68 72 37 102 28 196 -61 l61
-59 86 0 c81 0 87 2 95 22 4 13 6 40 4 60 -4 28 1 44 20 70 14 18 32 50 40 70
14 34 21 38 89 58 92 28 136 50 182 93 32 31 36 40 36 86 0 47 -3 53 -32 71
-18 11 -43 20 -56 20 -27 0 -73 -22 -91 -44 -22 -26 -68 -18 -152 25 -78 41
-79 41 -95 98 -48 165 -57 179 -107 191 -12 3 -31 23 -43 43 -11 20 -39 57
-61 82 l-40 45 -86 0 c-77 0 -88 2 -116 26 -40 33 -65 115 -66 211 0 65 -3 74
-29 102 -24 25 -29 39 -28 71 2 22 -2 49 -9 61 -10 19 -16 21 -70 15 l-58 -7
-20 40 c-12 22 -29 42 -40 46 -10 3 -43 34 -72 68 -30 34 -69 78 -88 97 -18
19 -44 51 -57 71 -20 32 -28 37 -73 41 -40 4 -56 11 -80 36 -27 30 -34 32 -98
32 -43 0 -76 5 -89 14 -20 14 -58 89 -68 136 -4 15 -28 41 -61 65 -56 41 -88
87 -99 141 -5 21 -28 51 -66 87 -39 37 -62 68 -69 93 -6 23 -30 56 -63 88 -29
29 -75 83 -101 121 -26 39 -73 98 -105 132 -51 57 -63 64 -120 79 -52 13 -73
13 -112 4 -50 -12 -48 -13 -134 37 -11 7 -43 13 -71 13 -85 0 -155 63 -155
138 0 23 -8 39 -27 55 -15 12 -55 47 -88 78 -85 79 -103 89 -155 89 -78 -1
-129 -16 -185 -55 l-55 -37 -80 47 c-97 57 -137 93 -145 131 -16 78 -29 107
-65 149 -46 53 -48 66 -20 120 31 60 27 97 -16 134 -49 44 -181 130 -208 137
-18 4 -37 -5 -77 -38 -46 -38 -54 -50 -57 -83 -4 -51 15 -119 40 -142 46 -41
59 -108 38 -183 -15 -51 -21 -57 -62 -65 -32 -6 -40 -3 -74 28 l-39 35 13 46
c19 71 15 99 -24 173 -19 37 -33 76 -30 86 5 20 -28 116 -52 155 -24 37 -71
56 -134 54 -57 -1 -57 -1 -67 33 -5 18 -7 62 -4 97 8 95 -26 211 -76 258 -76
72 -119 141 -131 210 -6 35 -18 77 -27 93 -22 44 -63 213 -63 263 0 23 -5 55
-10 70 -6 14 -15 71 -21 125 -5 54 -18 117 -29 141 -10 24 -23 71 -29 105 -5
34 -15 72 -22 84 -8 16 -10 51 -6 112 6 88 5 90 -24 126 -32 40 -55 133 -44
180 7 34 -8 77 -39 111 -15 16 -25 42 -29 72 -3 37 -13 57 -40 87 -34 38 -36
43 -30 89 4 35 1 56 -10 73 -8 13 -18 40 -21 59 -3 21 -26 60 -54 95 -59 72
-78 107 -88 160 -12 65 -33 118 -63 155 -15 19 -33 50 -39 69 -7 19 -23 49
-37 67 -14 18 -25 44 -25 58 0 32 -36 115 -62 144 -33 35 -95 30 -150 -11z"/>
<path d="M5392 4989 c-39 -39 -47 -63 -31 -100 24 -60 112 -79 148 -32 40 50
40 105 -1 143 -33 30 -78 26 -116 -11z"/>
<path d="M5405 4688 c-11 -6 -39 -29 -62 -51 -32 -31 -43 -49 -43 -72 0 -39 9
-52 55 -79 l38 -23 -29 -14 c-37 -18 -46 -75 -16 -102 21 -19 156 -36 297 -37
50 0 121 -5 159 -10 39 -5 79 -5 92 0 56 22 30 104 -51 158 -41 28 -57 33 -88
29 -22 -3 -49 -15 -61 -26 -26 -25 -53 -27 -83 -6 -16 11 -21 28 -25 79 -5 76
-15 91 -97 135 -67 35 -60 34 -86 19z"/>
</g>
</svg>
