<?xml version="1.0" standalone="no"?>
<!DOCTYPE svg PUBLIC "-//W3C//DTD SVG 20010904//EN"
 "http://www.w3.org/TR/2001/REC-SVG-20010904/DTD/svg10.dtd">
<svg version="1.0" xmlns="http://www.w3.org/2000/svg"
 width="704.000000pt" height="444.000000pt" viewBox="0 0 704.000000 444.000000"
 preserveAspectRatio="xMidYMid meet">
<metadata>
Created by potrace 1.16, written by Peter Selinger 2001-2019
</metadata>
<g transform="translate(0.000000,444.000000) scale(0.100000,-0.100000)"
fill="#000000" stroke="none">
<path d="M3640 4246 c0 -22 16 -36 41 -36 15 0 10 26 -9 43 -25 23 -32 21 -32
-7z"/>
<path d="M4361 4237 c-10 -28 -9 -42 5 -76 16 -39 15 -43 -1 -61 -26 -28 -35
-26 -91 26 -90 84 -102 93 -108 87 -11 -12 -6 -48 16 -109 12 -33 19 -67 16
-76 -4 -8 -24 -18 -45 -21 -23 -4 -43 -15 -51 -28 -12 -19 -20 -21 -68 -16
-51 5 -114 37 -114 57 0 5 -13 1 -30 -8 -29 -17 -29 -17 -59 18 -33 40 -50 35
-31 -10 11 -27 11 -34 -2 -46 -14 -14 -21 -12 -66 13 -47 26 -53 27 -96 15
-57 -15 -72 -9 -87 36 -6 21 -16 43 -22 50 -15 19 -83 52 -91 45 -10 -10 -7
-77 5 -112 15 -43 4 -79 -25 -87 -39 -9 -66 4 -73 37 -6 31 -20 38 -29 14 -4
-8 -15 -15 -25 -15 -22 0 -23 -4 -9 -30 16 -29 -8 -36 -41 -11 -31 23 -54 27
-64 11 -11 -18 -39 -10 -71 21 -26 25 -44 33 -83 37 l-51 5 -20 -47 c-16 -37
-28 -51 -62 -66 -24 -11 -55 -20 -70 -20 -33 0 -35 -9 -7 -33 24 -21 22 -60
-3 -65 -9 -2 -47 20 -85 47 -75 55 -98 62 -108 31 -8 -25 10 -59 46 -88 49
-40 31 -120 -21 -92 -13 7 -45 9 -88 5 -49 -5 -82 -3 -123 9 -53 16 -59 16
-93 0 -20 -10 -36 -23 -36 -30 0 -6 -8 -22 -18 -34 -16 -19 -21 -20 -45 -9
-22 10 -33 9 -66 -5 -28 -13 -50 -16 -79 -11 -39 6 -40 5 -51 -27 -9 -28 -7
-49 9 -113 11 -43 20 -81 20 -85 0 -3 -25 -17 -56 -29 -54 -23 -55 -25 -52
-59 2 -26 -2 -37 -15 -41 -16 -6 -15 -9 7 -42 23 -33 46 -48 103 -64 18 -5 24
-1 29 20 6 23 10 25 38 19 42 -9 46 -12 46 -36 0 -16 -5 -19 -24 -14 -15 4
-28 0 -37 -10 -9 -11 -22 -14 -45 -10 -23 5 -33 2 -38 -9 -3 -10 -19 -15 -45
-15 -65 0 -61 -41 15 -162 39 -61 30 -102 -14 -68 -32 26 -50 26 -28 1 14 -16
15 -24 6 -40 -6 -12 -9 -25 -6 -30 9 -13 99 -20 120 -9 13 7 41 6 93 -3 65
-12 73 -16 71 -33 -4 -29 -148 -62 -191 -45 -33 14 -44 7 -22 -14 21 -22 19
-27 -14 -38 -37 -13 -40 -27 -28 -121 8 -67 7 -81 -8 -104 -14 -22 -15 -28 -4
-35 23 -15 39 -10 48 13 7 21 9 20 20 -15 12 -36 61 -87 85 -87 9 0 12 -27 12
-97 0 -65 7 -118 18 -158 24 -80 31 -88 77 -80 33 6 39 3 58 -23 15 -21 32
-31 58 -35 21 -3 55 -11 76 -19 33 -11 40 -19 54 -66 9 -29 25 -59 34 -68 16
-14 21 -14 64 5 25 11 61 23 80 27 47 8 64 31 76 102 16 89 24 97 106 97 113
-1 193 -57 193 -136 0 -34 -5 -42 -47 -74 -71 -54 -77 -71 -79 -210 -1 -138
-14 -187 -79 -311 -59 -112 -83 -188 -65 -209 16 -20 70 -16 80 5 4 8 13 26
19 41 17 35 124 93 148 80 31 -16 122 -6 154 18 24 18 38 21 72 16 31 -5 56
-1 95 14 29 12 62 21 73 21 11 0 49 27 84 60 69 64 71 65 128 49 31 -8 37 -14
37 -37 0 -34 30 -91 58 -110 20 -13 22 -12 28 14 4 15 2 41 -5 59 -12 36 -14
65 -4 65 4 0 25 -19 48 -42 22 -24 54 -51 72 -60 19 -10 38 -31 47 -51 11 -26
26 -41 60 -56 25 -11 46 -24 46 -29 0 -5 28 -32 61 -61 59 -49 63 -51 85 -36
34 22 41 20 78 -33 45 -62 98 -92 164 -92 87 0 93 -8 70 -94 -15 -56 -4 -69
89 -122 54 -30 63 -39 63 -63 0 -15 17 -67 38 -117 42 -98 58 -112 174 -155
51 -19 57 -25 65 -57 16 -69 98 -80 170 -24 21 16 60 35 87 41 65 16 95 32
147 81 24 22 46 40 50 40 3 0 14 -8 23 -19 9 -10 30 -21 47 -25 18 -3 48 -25
77 -57 26 -29 69 -62 97 -75 60 -29 147 -33 167 -8 7 8 30 34 51 56 33 36 37
46 37 94 0 45 5 59 29 86 24 27 38 33 82 38 60 6 60 7 44 92 -12 59 0 84 50
108 46 22 83 23 200 5 37 -6 41 -4 58 23 9 17 17 46 17 66 0 33 -4 38 -50 61
-66 34 -83 59 -69 108 13 50 10 57 -31 71 l-35 11 -7 85 c-5 67 -15 104 -46
175 -58 133 -57 130 -17 285 l35 138 -30 223 c-17 123 -40 284 -50 357 -23
153 -24 198 -7 228 7 12 95 93 196 180 202 175 182 147 254 344 9 25 32 61 51
80 46 48 76 100 76 131 0 57 62 99 166 114 28 3 65 15 81 25 36 21 93 105 93
136 0 13 -24 49 -57 86 -87 97 -85 97 -143 45 -75 -68 -175 -85 -265 -47 -26
11 -79 25 -118 31 -40 6 -92 19 -117 30 -97 40 -158 49 -345 49 -240 0 -253 4
-390 121 -139 119 -220 157 -227 107 -5 -39 -58 -36 -127 6 -32 20 -68 36 -78
36 -11 0 -38 12 -59 27 -52 35 -100 52 -152 53 -37 0 -52 7 -89 40 -25 22 -54
40 -64 40 -9 0 -24 3 -33 6 -12 5 -16 -1 -16 -24 0 -31 -22 -58 -40 -47 -5 3
-10 17 -10 30 0 15 -7 26 -20 30 -27 8 -40 -1 -40 -29 0 -28 -29 -56 -58 -56
-25 0 -24 -3 -27 63 -2 35 -11 60 -32 90 -39 53 -49 55 -62 14z"/>
<path d="M3125 4211 c-20 -39 -13 -76 16 -91 38 -21 50 -7 35 43 -7 24 -18 52
-23 62 -10 17 -12 16 -28 -14z"/>
<path d="M2530 3802 c0 -20 29 -52 48 -52 21 0 22 18 1 44 -24 30 -49 34 -49
8z"/>
<path d="M2450 3794 c0 -15 43 -64 56 -64 22 0 17 37 -8 54 -23 16 -48 21 -48
10z"/>
<path d="M1086 3408 c-25 -86 -30 -93 -74 -96 -39 -3 -42 -5 -42 -33 0 -22 -5
-29 -20 -29 -13 0 -20 -7 -20 -18 0 -10 -12 -30 -28 -45 l-27 -26 -145 9 c-80
5 -156 12 -170 15 -14 3 -32 1 -40 -5 -16 -11 -21 -6 80 -87 44 -35 45 -35
110 -27 122 14 129 13 164 -29 27 -34 31 -47 32 -100 0 -34 9 -86 19 -116 17
-53 17 -55 -1 -68 -18 -14 -18 -15 6 -33 43 -33 77 -43 126 -35 42 6 48 11 84
68 22 34 42 74 46 89 7 36 15 35 59 -3 l36 -32 27 24 c15 13 30 29 34 34 14
18 8 43 -9 48 -10 3 10 5 45 6 45 1 62 5 62 15 0 17 44 10 61 -10 15 -18 38
-18 45 0 3 8 -2 28 -10 45 -10 18 -15 49 -14 73 3 41 2 43 -22 40 -22 -2 -29
5 -53 53 -17 35 -36 59 -51 65 -14 5 -28 16 -33 24 -5 9 -34 20 -68 26 -102
18 -105 21 -105 89 0 64 2 62 -68 76 -22 5 -33 3 -36 -7z"/>
<path d="M1652 3288 c-16 -16 -15 -61 2 -103 16 -37 30 -42 71 -23 21 10 28 8
48 -10 20 -18 24 -19 42 -6 11 8 34 14 50 12 25 -2 31 1 33 20 5 33 -48 82
-88 82 -17 0 -48 9 -70 20 -45 23 -71 25 -88 8z"/>
<path d="M1606 2609 c-3 -8 -7 -30 -8 -49 -3 -31 -6 -35 -35 -38 -29 -3 -33
-7 -33 -32 0 -24 7 -33 39 -49 21 -11 55 -39 74 -63 31 -37 37 -40 51 -28 14
11 26 11 71 0 29 -7 60 -10 69 -7 20 8 20 44 0 92 -8 21 -14 49 -14 64 4 48 0
52 -65 82 -77 36 -142 48 -149 28z"/>
<path d="M968 2560 c-37 -50 -66 -63 -161 -71 -101 -8 -116 -16 -101 -57 20
-52 -17 -125 -48 -94 -7 7 -14 30 -17 53 -7 47 -26 62 -34 27 -4 -13 -23 -32
-44 -43 -38 -20 -47 -37 -58 -108 -9 -60 -36 -46 -61 33 -22 67 -49 98 -93
102 -19 2 -26 -3 -31 -22 -6 -26 -25 -30 -65 -15 -14 5 -10 -3 13 -25 19 -17
43 -52 54 -78 12 -26 29 -58 39 -72 14 -19 17 -35 12 -63 -5 -34 -8 -38 -29
-33 -21 6 -24 3 -24 -19 0 -30 -11 -32 -35 -5 -26 28 -35 25 -28 -10 5 -27 3
-30 -21 -30 -21 0 -26 -5 -26 -25 0 -38 48 -84 110 -104 52 -17 56 -20 73 -69
18 -47 24 -53 93 -88 41 -21 74 -44 74 -51 0 -7 -15 -39 -33 -72 -32 -58 -33
-59 -59 -45 -32 17 -31 17 -89 -76 -69 -113 -73 -126 -51 -168 32 -62 42 -62
126 1 67 51 76 61 76 90 0 17 11 55 23 82 13 28 31 82 41 120 10 39 22 87 27
107 16 63 69 95 147 88 13 -1 34 6 48 15 24 15 27 15 45 -1 18 -17 20 -17 33
2 12 15 17 17 27 7 18 -18 59 -16 81 4 17 15 18 15 18 -5 0 -25 27 -42 69 -42
35 0 37 4 16 54 -14 33 -14 37 1 43 8 3 33 1 53 -6 55 -16 57 -16 76 37 23 60
23 60 41 33 16 -22 17 -22 36 -4 31 28 49 70 42 98 -8 31 15 35 34 5 7 -11 21
-20 31 -20 30 0 81 54 81 85 0 24 3 26 28 20 25 -5 30 -1 50 40 26 53 46 58
58 14 9 -32 38 -59 49 -47 4 3 2 16 -5 27 -9 19 -8 21 13 21 14 0 30 -7 37
-15 18 -21 30 -19 30 6 0 27 -52 77 -118 112 -41 21 -54 34 -58 57 -4 20 -18
36 -41 50 -19 11 -57 39 -85 62 -42 36 -61 45 -131 58 -45 9 -87 15 -93 13 -6
-2 -20 -20 -30 -39 -20 -37 -35 -42 -54 -20 -8 11 -18 12 -36 5 -39 -14 -42
-13 -79 46 -20 30 -38 55 -40 55 -2 0 -14 -14 -27 -30z"/>
<path d="M238 2182 c-39 -3 -50 -15 -22 -26 24 -9 38 -7 59 7 23 17 11 23 -37
19z"/>
<path d="M862 1718 c-15 -15 -15 -38 -2 -58 9 -13 11 -13 20 0 22 33 6 82 -18
58z"/>
<path d="M2370 1551 c-12 -24 -13 -41 0 -61 7 -12 12 -12 29 4 28 25 29 76 1
76 -10 0 -24 -9 -30 -19z"/>
<path d="M1554 996 c-7 -30 1 -46 25 -46 28 0 31 10 15 41 -18 35 -32 37 -40
5z"/>
</g>
</svg>
