<?xml version="1.0" standalone="no"?>
<!DOCTYPE svg PUBLIC "-//W3C//DTD SVG 20010904//EN"
 "http://www.w3.org/TR/2001/REC-SVG-20010904/DTD/svg10.dtd">
<svg version="1.0" xmlns="http://www.w3.org/2000/svg"
 width="1024.000000pt" height="1024.000000pt" viewBox="0 0 1024.000000 1024.000000"
 preserveAspectRatio="xMidYMid meet">
<metadata>
Created by potrace 1.16, written by Peter Selinger 2001-2019
</metadata>
<g transform="translate(0.000000,1024.000000) scale(0.100000,-0.100000)"
fill="#000000" stroke="none">
<path d="M4745 8481 c-88 -25 -165 -50 -171 -54 -7 -3 -58 -72 -114 -151 -99
-140 -108 -150 -327 -343 -124 -109 -237 -207 -250 -218 -20 -16 -33 -53 -68
-190 -24 -94 -53 -192 -65 -220 -35 -82 -210 -440 -288 -590 -40 -77 -110
-214 -154 -305 -60 -121 -91 -173 -117 -195 -20 -16 -84 -77 -143 -135 -95
-92 -111 -112 -133 -171 -30 -78 -79 -162 -139 -239 -71 -90 -147 -252 -157
-335 -5 -38 -16 -119 -24 -180 -35 -262 -51 -874 -27 -1057 15 -111 54 -288
73 -335 l14 -33 45 40 c25 22 51 40 58 40 6 0 12 7 12 15 0 9 9 15 24 15 13 0
40 13 61 30 20 16 45 32 56 35 11 4 21 19 25 41 3 19 8 33 10 32 1 -2 12 -67
24 -145 l20 -141 76 -74 c42 -40 104 -89 140 -108 l64 -35 0 -105 c0 -102 -1
-108 -35 -170 -19 -36 -34 -74 -34 -85 0 -11 21 -62 48 -114 46 -91 50 -96
187 -210 133 -112 146 -126 314 -347 l175 -231 185 -71 c102 -39 394 -151 650
-248 l465 -177 905 -7 c498 -3 908 -5 913 -3 4 2 7 192 7 421 0 368 2 431 20
537 11 70 20 169 20 236 0 90 7 147 30 257 17 78 30 169 30 202 0 32 14 144
31 247 17 103 28 203 25 222 -7 43 7 61 48 61 24 0 35 -7 48 -30 22 -39 58
-39 133 0 31 17 66 30 76 30 25 0 59 -35 59 -61 0 -32 49 -89 76 -89 l24 0 1
233 c0 127 4 426 8 662 l7 430 -27 70 c-15 39 -62 151 -104 250 l-78 180 -8
235 -7 235 65 290 65 290 -36 290 c-20 160 -36 307 -36 327 0 35 -3 38 -37 47
-133 36 -245 59 -262 54 -17 -4 -27 10 -67 88 -25 52 -48 96 -50 98 -2 2 -98
-40 -213 -94 l-210 -97 -98 68 c-54 38 -139 98 -190 134 -51 36 -173 121 -273
190 -100 69 -222 154 -273 190 -51 36 -135 95 -187 131 -115 79 -444 308 -594
413 -73 51 -118 76 -135 75 -14 -1 -98 -22 -186 -48z"/>
</g>
</svg>
