<?xml version="1.0" standalone="no"?>
<!DOCTYPE svg PUBLIC "-//W3C//DTD SVG 20010904//EN"
 "http://www.w3.org/TR/2001/REC-SVG-20010904/DTD/svg10.dtd">
<svg version="1.0" xmlns="http://www.w3.org/2000/svg"
 width="1024.000000pt" height="1024.000000pt" viewBox="0 0 1024.000000 1024.000000"
 preserveAspectRatio="xMidYMid meet">
<metadata>
Created by potrace 1.16, written by Peter Selinger 2001-2019
</metadata>
<g transform="translate(0.000000,1024.000000) scale(0.100000,-0.100000)"
fill="#000000" stroke="none">
<path d="M3906 7758 c-7 -18 -39 -97 -71 -175 -32 -79 -60 -143 -64 -143 -3 0
-22 23 -41 51 -67 97 -80 109 -113 109 -42 0 -52 -8 -71 -54 -11 -26 -21 -36
-31 -33 -8 4 -41 12 -74 18 -77 16 -105 7 -148 -49 -35 -46 -44 -103 -22 -143
8 -15 6 -27 -11 -54 -13 -21 -19 -42 -15 -57 5 -18 -5 -38 -43 -84 -72 -90
-85 -129 -86 -259 l-1 -110 -95 -5 c-79 -4 -101 -9 -129 -29 -52 -37 -106
-130 -132 -226 -25 -97 -43 -120 -98 -130 -22 -3 -41 -12 -44 -18 -2 -7 0 -36
6 -65 11 -50 10 -56 -22 -119 l-34 -66 18 -33 c18 -34 18 -34 -8 -70 -25 -36
-25 -38 -10 -76 15 -37 15 -41 -4 -66 -11 -15 -32 -31 -46 -36 -22 -8 -29 -5
-53 23 -41 49 -54 61 -67 61 -6 0 -32 -22 -57 -48 -53 -55 -77 -120 -65 -180
19 -101 20 -94 -16 -124 -31 -27 -34 -33 -32 -81 2 -40 -5 -67 -29 -120 l-32
-69 19 -171 c11 -95 19 -192 17 -216 -5 -84 -61 -149 -118 -135 -13 3 -38 1
-55 -7 -27 -11 -36 -10 -66 6 -30 17 -38 17 -71 5 -20 -8 -59 -17 -87 -20
l-50 -5 3 -45 c3 -65 -3 -83 -44 -123 -25 -24 -37 -44 -36 -63 0 -33 27 -56
59 -48 14 4 33 0 48 -10 28 -18 58 -20 84 -6 14 7 24 4 41 -15 17 -18 34 -25
61 -25 34 0 42 -5 68 -44 17 -24 44 -49 61 -56 38 -16 52 -40 44 -79 -6 -26
-2 -32 27 -50 19 -11 48 -39 65 -63 23 -32 39 -44 69 -50 52 -11 65 -24 65
-64 0 -28 5 -36 27 -45 69 -27 78 -34 84 -72 3 -21 16 -48 27 -60 13 -14 22
-36 22 -54 0 -21 12 -45 35 -74 23 -27 34 -48 29 -58 -16 -39 -13 -50 20 -90
22 -26 36 -54 36 -70 0 -21 8 -31 36 -44 23 -11 40 -29 50 -52 8 -19 17 -35
20 -35 2 0 18 10 34 22 l30 22 29 -28 c18 -17 31 -24 35 -17 11 16 72 13 86
-5 11 -12 10 -18 -3 -32 -16 -15 -15 -18 4 -38 20 -22 20 -22 1 -40 -13 -13
-21 -38 -25 -82 -5 -62 -5 -62 39 -116 24 -29 44 -60 44 -68 0 -8 10 -24 23
-35 20 -19 39 -22 227 -28 l205 -7 260 -174 c144 -95 273 -178 289 -183 41
-16 101 -13 141 6 36 17 38 17 78 -7 32 -18 63 -25 128 -30 67 -5 92 -11 114
-28 21 -16 41 -22 81 -22 29 0 64 -4 78 -10 22 -8 31 -3 86 50 33 32 66 73 72
92 22 65 35 74 239 163 175 77 202 87 222 76 32 -17 78 -60 116 -109 33 -43
35 -44 80 -37 127 17 162 17 211 -1 47 -17 50 -17 69 0 10 9 24 37 31 62 20
69 31 73 210 71 180 -2 203 5 245 77 61 104 230 215 360 236 33 6 178 10 321
10 l261 0 449 457 c247 252 558 568 691 703 l242 245 -37 7 c-20 4 -116 7
-214 7 l-176 1 -194 66 c-416 142 -753 255 -973 329 l-230 78 -80 78 c-71 70
-85 79 -117 79 -41 0 -78 30 -78 63 0 10 -18 36 -40 58 -25 24 -40 49 -40 64
0 45 -18 75 -45 75 -26 0 -27 2 -56 78 -7 19 -31 54 -55 80 -28 30 -45 58 -49
83 -4 21 -19 51 -36 68 -35 37 -36 41 -7 38 17 -1 23 5 28 29 4 16 19 48 33
69 32 48 34 65 6 65 -12 0 -30 11 -41 25 -24 31 -75 33 -111 5 -21 -17 -41
-20 -112 -21 -66 0 -95 -5 -117 -19 -24 -14 -36 -16 -59 -8 -16 6 -33 18 -37
27 -5 9 -8 75 -7 146 3 147 16 194 62 219 20 10 54 59 117 171 101 176 99 158
21 258 -26 32 -64 66 -93 82 -44 24 -53 35 -77 91 -15 36 -48 87 -73 115 -45
50 -124 99 -160 99 -38 0 -69 36 -76 88 -8 59 -53 127 -117 176 -44 34 -122
66 -160 66 -26 0 -87 31 -124 65 -61 54 -71 58 -139 51 -54 -5 -65 -4 -80 13
-14 15 -26 18 -53 14 -27 -5 -38 -2 -45 10 -12 23 -34 21 -66 -4 -20 -15 -34
-19 -63 -14 -22 4 -40 2 -44 -4 -11 -19 -23 -12 -30 17 -7 29 -42 72 -59 72
-6 0 -30 -21 -52 -47 -39 -45 -45 -48 -105 -55 -35 -4 -80 -10 -100 -14 -31
-5 -39 -2 -62 25 -14 17 -31 47 -38 66 -12 32 -16 35 -54 35 -32 0 -47 6 -66
26 -44 47 -58 49 -73 12z"/>
</g>
</svg>
