<?xml version="1.0" standalone="no"?>
<!DOCTYPE svg PUBLIC "-//W3C//DTD SVG 20010904//EN"
 "http://www.w3.org/TR/2001/REC-SVG-20010904/DTD/svg10.dtd">
<svg version="1.0" xmlns="http://www.w3.org/2000/svg"
 width="881.000000pt" height="816.000000pt" viewBox="0 0 881.000000 816.000000"
 preserveAspectRatio="xMidYMid meet">
<metadata>
Created by potrace 1.16, written by Peter Selinger 2001-2019
</metadata>
<g transform="translate(0.000000,816.000000) scale(0.100000,-0.100000)"
fill="#000000" stroke="none">
<path d="M2544 7757 c-29 -25 -26 -47 7 -47 19 0 69 44 69 61 0 18 -50 8 -76
-14z"/>
<path d="M7510 7760 c0 -5 -9 -10 -19 -10 -14 0 -18 -5 -14 -21 5 -16 11 -19
32 -14 33 8 34 9 26 34 -6 21 -25 29 -25 11z"/>
<path d="M7780 7735 c0 -28 -15 -33 -28 -9 -5 9 -14 14 -21 10 -22 -14 -10
-34 27 -42 31 -6 33 -8 13 -12 -32 -5 -52 -27 -45 -46 5 -12 2 -15 -11 -9 -15
5 -17 2 -13 -15 5 -17 2 -22 -15 -22 -11 0 -29 -7 -39 -17 -21 -19 -37 -10
-19 11 7 8 11 25 10 38 -2 13 2 33 9 45 12 22 16 53 7 53 -22 0 -185 -151
-185 -171 0 -21 -33 -59 -51 -59 -20 0 -26 24 -9 35 6 3 10 14 10 25 0 10 7
21 17 24 14 6 14 8 -3 21 -18 14 -18 15 6 35 14 11 35 20 46 20 28 0 51 27 36
42 -8 8 -20 7 -43 -3 -25 -10 -34 -10 -37 -1 -2 7 -12 12 -22 12 -9 0 -23 7
-30 15 -21 25 -41 18 -38 -12 3 -28 -1 -30 -37 -17 -18 7 -18 6 -6 -9 7 -9 19
-17 26 -17 7 0 19 -7 26 -16 12 -15 10 -16 -17 -10 -23 5 -34 2 -45 -10 -11
-13 -11 -18 -1 -21 27 -10 10 -21 -23 -16 -22 4 -41 1 -52 -8 -13 -11 -17 -11
-20 -1 -5 12 -93 18 -93 6 0 -3 7 -12 15 -20 11 -11 19 -12 34 -4 32 16 43 12
35 -12 -4 -13 -10 -25 -14 -28 -19 -14 -17 -38 3 -44 27 -7 16 -18 -23 -22
-24 -3 -33 1 -42 20 -6 15 -16 22 -24 19 -10 -3 -12 0 -8 10 4 11 -3 17 -26
22 -17 4 -34 4 -37 1 -4 -3 1 -6 10 -6 9 0 17 -6 17 -14 0 -8 6 -17 13 -19 6
-3 -1 -6 -17 -6 -25 -1 -27 1 -15 16 12 15 12 16 -5 10 -13 -5 -23 -1 -33 13
-17 24 -48 28 -39 5 3 -9 0 -15 -8 -15 -8 0 -16 7 -20 15 -8 22 -36 19 -36 -4
0 -21 19 -31 61 -31 28 0 42 -24 18 -32 -7 -2 -7 -12 0 -31 6 -15 8 -27 5 -27
-7 0 -31 20 -56 48 -12 12 -28 22 -35 22 -20 0 -54 -38 -40 -43 7 -3 4 -8 -7
-13 -13 -5 -21 -3 -24 4 -6 18 -23 14 -43 -9 -14 -16 -16 -26 -8 -40 7 -13 6
-19 -1 -19 -6 0 -23 -11 -38 -25 -25 -23 -42 -31 -42 -20 0 2 10 13 22 25 16
15 23 34 25 76 3 53 2 56 -14 43 -26 -19 -53 -52 -53 -65 0 -6 10 -16 23 -23
21 -11 21 -11 -6 -7 -22 3 -31 -2 -39 -20 -6 -13 -15 -24 -20 -24 -5 0 -2 13
7 30 17 32 20 90 6 90 -6 0 -12 -4 -15 -9 -3 -5 -21 -12 -40 -15 -42 -8 -67
-33 -45 -46 8 -5 14 -15 14 -21 0 -12 16 -23 48 -33 23 -7 22 -36 -3 -36 -13
0 -18 5 -14 15 4 10 0 15 -13 15 -11 0 -28 9 -38 20 -22 24 -65 27 -65 5 0 -9
12 -18 30 -22 37 -7 49 -21 17 -20 -12 0 -29 -3 -38 -7 -13 -5 -18 0 -22 23
-4 17 -13 31 -20 31 -15 0 -37 -41 -37 -70 0 -14 -10 -21 -35 -26 -38 -7 -47
-29 -15 -39 38 -12 18 -32 -27 -26 -18 3 -16 -10 3 -24 13 -9 9 -11 -27 -9
-45 2 -99 -12 -99 -26 0 -5 -2 -14 -5 -22 -4 -11 9 -12 67 -8 50 4 81 2 98 -7
l25 -13 -25 -2 c-14 0 -33 -1 -42 0 -10 1 -18 -3 -18 -9 0 -5 -5 -7 -12 -3
-16 10 -128 16 -128 6 0 -4 14 -13 31 -21 37 -16 39 -58 2 -54 -15 2 -20 -2
-17 -15 2 -9 0 -23 -5 -31 -12 -19 -34 -2 -51 39 -12 29 -30 41 -30 19 0 -6
-9 -8 -20 -4 -15 5 -18 3 -14 -10 4 -8 13 -14 22 -13 9 2 18 -5 20 -14 2 -10
-1 -18 -7 -18 -6 0 -11 5 -11 10 0 15 -26 12 -40 -5 -7 -9 -29 -15 -52 -15
-25 0 -37 -4 -33 -11 4 -6 21 -9 39 -8 17 1 45 1 61 0 26 -2 27 -4 10 -11 -11
-4 -30 -6 -41 -3 -12 2 -25 0 -28 -6 -4 -6 0 -11 8 -11 19 0 21 -16 4 -24 -7
-3 6 -4 30 -2 37 4 41 2 26 -8 -12 -9 -14 -15 -6 -20 7 -4 12 -12 12 -17 0 -5
-12 -1 -27 10 -24 18 -34 19 -73 10 -25 -6 -49 -14 -54 -20 -11 -10 -9 -10 34
-13 14 -2 48 -6 75 -11 l50 -8 -33 -9 c-20 -5 -39 -5 -51 2 -26 13 -31 13 -31
-5 0 -17 -17 -20 -22 -4 -2 6 -14 8 -31 4 -28 -7 -37 -24 -14 -26 13 -1 -38
-16 -85 -26 -29 -5 -39 -33 -13 -33 8 0 15 -7 15 -15 0 -9 -9 -15 -22 -15 -12
0 -36 -5 -54 -12 -31 -11 -32 -12 -17 -35 14 -22 14 -23 -6 -23 -11 0 -21 -6
-21 -13 0 -10 20 -13 75 -12 73 1 95 -7 55 -20 -11 -3 -20 -11 -20 -16 0 -5
-11 -9 -25 -9 -14 0 -25 5 -25 10 0 14 -31 13 -63 -2 -27 -13 -36 -28 -16 -28
5 0 7 -5 4 -11 -4 -6 2 -13 14 -16 12 -3 21 -9 21 -14 0 -8 -28 -5 -66 6 -16
5 -24 -41 -11 -54 6 -6 7 -14 3 -18 -4 -4 -12 0 -17 9 -5 10 -16 15 -25 11
-12 -4 -8 -12 17 -34 36 -32 33 -48 -7 -30 -28 13 -44 7 -44 -15 0 -12 4 -12
20 -4 18 9 20 8 20 -15 0 -31 7 -31 37 -3 13 12 26 19 29 15 4 -4 -8 -20 -26
-37 -28 -26 -39 -30 -90 -30 -33 0 -62 -4 -65 -10 -3 -5 3 -10 14 -10 21 0 21
0 -1 -25 -12 -14 -28 -25 -35 -25 -7 0 -13 -7 -13 -15 0 -9 9 -15 23 -15 16 0
18 -3 8 -9 -7 -5 -10 -14 -7 -20 4 -6 1 -11 -8 -11 -8 0 -22 -7 -31 -17 -14
-14 -18 -14 -26 -2 -5 8 -9 20 -9 27 0 24 -32 9 -43 -20 -3 -10 -14 -18 -24
-18 -21 -1 -63 -33 -63 -49 0 -6 -5 -11 -12 -11 -6 0 -3 -9 7 -20 18 -20 17
-20 -11 -20 -28 0 -54 -15 -54 -30 0 -4 14 -5 30 -2 18 3 30 0 30 -7 0 -6 -9
-11 -20 -11 -11 0 -20 -7 -20 -15 0 -35 40 -27 123 24 46 28 47 35 5 26 l-33
-6 30 16 c16 9 44 27 61 40 30 23 30 23 43 3 10 -17 9 -20 -8 -25 -24 -6 -28
-23 -6 -23 33 0 13 -28 -24 -34 -34 -5 -40 -10 -43 -33 -3 -26 -6 -28 -53 -28
-41 0 -50 -3 -49 -18 1 -11 -5 -17 -18 -17 -10 0 -18 6 -16 13 2 7 -7 25 -19
41 -27 34 -53 29 -54 -11 0 -15 -3 -22 -6 -15 -6 16 -23 16 -23 -1 0 -19 -43
-57 -63 -57 -9 0 -17 -5 -17 -10 0 -6 -10 -8 -24 -4 -13 3 -27 1 -30 -5 -5 -7
3 -11 20 -11 21 0 25 -3 16 -12 -9 -9 -7 -14 6 -24 16 -13 16 -13 -1 -14 -10
0 -31 14 -48 31 -33 33 -54 32 -24 -1 10 -11 13 -20 7 -20 -7 0 -12 5 -12 11
0 8 -15 9 -46 4 -36 -5 -50 -3 -65 11 -16 14 -21 15 -35 3 -14 -12 -14 -14 2
-26 17 -12 17 -13 0 -13 -9 0 -14 -4 -11 -10 9 -14 42 -12 49 3 5 10 7 10 12
0 3 -7 10 -13 15 -13 6 0 7 5 4 10 -3 6 1 10 9 10 20 0 21 -16 1 -24 -20 -7
-19 -26 1 -26 8 0 12 -4 9 -10 -8 -13 -45 -13 -45 1 0 5 -8 9 -17 7 -10 -1
-23 1 -30 5 -6 4 -14 3 -17 -2 -3 -5 -16 -7 -29 -4 -21 4 -22 4 -3 -11 11 -9
23 -16 28 -16 4 0 8 -7 8 -15 0 -9 7 -18 16 -22 13 -5 13 -7 2 -14 -11 -8 -11
-10 0 -18 11 -7 11 -9 -1 -14 -21 -8 -27 1 -27 39 0 20 -6 34 -16 38 -25 10
-45 -12 -38 -43 l5 -26 -17 23 c-9 12 -23 22 -30 22 -17 0 -18 -37 -1 -43 6
-3 2 -6 -10 -6 -12 -1 -29 -4 -37 -7 -12 -5 -15 -2 -10 10 3 9 1 16 -5 16 -6
0 -11 -7 -11 -16 0 -8 -13 -20 -29 -25 -20 -7 -30 -19 -35 -40 -5 -25 -9 -29
-26 -24 -11 4 -20 2 -20 -4 0 -12 11 -14 48 -11 12 1 22 -3 22 -9 0 -6 -7 -11
-15 -11 -8 0 -15 -5 -15 -11 0 -5 4 -8 9 -5 4 3 19 -3 31 -14 l23 -20 -39 0
c-54 0 -72 -13 -39 -28 32 -15 65 -15 99 -2 18 6 34 6 50 -1 21 -10 28 -7 55
21 17 18 31 29 31 23 0 -5 -5 -14 -12 -21 -9 -9 -8 -13 5 -17 16 -7 55 10 72
31 6 6 21 15 35 19 23 5 23 5 8 -8 -10 -8 -18 -22 -18 -31 0 -13 6 -15 28 -10
21 5 24 4 16 -5 -6 -7 -30 -15 -53 -18 -43 -6 -49 -11 -29 -31 9 -9 9 -15 0
-24 -9 -9 -12 -9 -12 1 0 8 -7 10 -20 6 -22 -7 -26 5 -9 22 28 28 -22 44 -56
19 -14 -10 -23 -11 -37 -3 -21 14 -121 -5 -141 -25 -16 -17 -15 -70 1 -76 9
-3 11 3 6 23 -7 28 6 45 36 45 12 -1 12 -3 -2 -14 -27 -20 -23 -37 6 -27 23 9
23 9 21 -47 -1 -31 -1 -60 2 -64 2 -4 17 -2 33 4 17 5 28 13 25 18 -8 13 18
27 75 38 58 11 95 -1 41 -13 -25 -5 -33 -13 -38 -36 -3 -16 -10 -32 -14 -35
-12 -7 -11 13 1 37 8 14 7 19 -2 19 -21 0 -59 -30 -52 -41 3 -6 -3 -13 -15
-16 -11 -3 -23 -14 -26 -24 -4 -10 -11 -19 -16 -19 -5 0 -9 -7 -9 -16 0 -14 3
-14 15 -4 11 9 15 10 15 1 0 -8 8 -10 23 -6 22 6 22 6 2 -9 -39 -30 -45 -37
-40 -47 10 -14 43 -11 53 6 5 10 15 13 27 9 17 -7 17 -8 -2 -15 -11 -4 -23
-16 -25 -27 -4 -16 -1 -18 15 -14 14 3 18 1 13 -6 -4 -7 -14 -12 -22 -12 -14
0 -42 -46 -33 -54 3 -3 21 -1 42 3 21 5 37 5 37 0 0 -5 -9 -9 -19 -9 -11 0
-27 -7 -35 -15 -14 -14 -18 -14 -41 1 -30 20 -52 13 -57 -18 -6 -36 10 -60 64
-96 42 -28 56 -33 87 -28 23 5 31 4 22 -3 -25 -16 -2 -29 68 -36 46 -4 76 -3
90 5 12 6 33 12 45 13 24 2 136 98 136 117 0 5 7 10 15 10 8 0 19 9 25 20 6
11 20 20 31 20 15 0 19 5 15 16 -5 12 -1 14 17 8 46 -15 66 -5 97 48 8 13 6
22 -10 38 -23 23 -24 22 13 24 21 2 27 -2 27 -19 0 -26 39 -65 64 -65 11 0 16
-5 13 -13 -3 -7 -1 -33 5 -58 5 -24 9 -54 9 -66 -1 -18 5 -23 24 -23 19 0 23
-4 18 -16 -5 -14 -1 -16 23 -11 16 3 24 4 17 1 -7 -3 -9 -12 -6 -20 3 -8 0
-28 -7 -44 -10 -25 -10 -34 4 -55 9 -13 16 -36 16 -50 0 -16 6 -25 15 -25 9 0
18 -8 21 -17 12 -38 30 -69 47 -81 9 -7 17 -20 17 -28 0 -8 11 -19 25 -24 29
-11 34 -40 7 -40 -28 0 -34 -11 -17 -30 15 -16 14 -17 -12 -13 -26 4 -26 3
-10 -10 9 -8 17 -19 17 -24 0 -6 12 -28 26 -49 22 -32 24 -41 14 -57 -20 -32
3 -42 100 -43 100 -1 108 5 95 67 -8 35 19 69 56 69 15 0 19 4 15 16 -5 14 5
15 80 13 l86 -3 20 39 c11 22 26 47 33 55 20 23 44 98 38 121 -3 11 2 28 12
39 14 15 15 23 6 34 -6 7 -9 21 -5 30 3 9 1 23 -6 31 -12 15 -3 37 25 57 6 5
6 18 -2 37 -10 27 -9 31 8 36 21 7 26 25 7 25 -21 0 46 37 79 44 23 5 33 15
38 34 l7 27 15 -22 c17 -26 33 -30 33 -9 0 8 12 24 27 36 24 18 25 24 15 41
-15 24 -11 33 25 49 16 6 41 27 56 46 28 33 28 34 10 58 -10 14 -27 28 -38 32
-11 4 -40 29 -65 55 -36 38 -50 47 -68 43 -12 -4 -22 -2 -22 4 0 6 -10 12 -22
14 -26 4 -34 30 -41 141 -4 59 -2 80 9 91 8 8 14 21 14 29 0 8 6 30 14 48 12
29 12 38 0 59 -20 36 -18 40 23 37 34 -2 37 1 45 32 8 28 6 39 -11 62 -12 15
-17 30 -12 34 5 3 12 -3 16 -14 11 -35 29 -42 63 -25 17 8 29 20 27 27 -9 23
36 57 74 57 11 0 29 14 42 31 16 23 27 29 44 25 14 -4 28 0 36 10 7 8 41 28
77 44 53 25 66 35 78 67 10 26 28 46 55 61 47 27 49 42 9 75 -20 17 -26 27
-17 31 9 5 9 7 0 12 -20 9 -15 23 20 57 38 36 51 64 35 69 -6 2 -8 10 -4 16 4
8 16 10 28 6 14 -4 24 1 34 15 9 12 22 21 29 21 8 0 18 15 23 33 7 27 13 32
38 33 16 0 37 -6 48 -15 17 -14 20 -14 28 -1 9 13 25 14 106 8 62 -5 101 -13
112 -23 9 -8 23 -15 32 -15 8 0 28 -10 43 -21 22 -18 26 -28 22 -58 -3 -27 1
-42 16 -58 23 -25 16 -43 -8 -23 -10 8 -15 9 -15 1 0 -6 5 -11 10 -11 6 0 10
-5 10 -10 0 -6 -16 -8 -41 -4 -36 6 -44 4 -75 -27 -19 -18 -34 -37 -34 -42 0
-5 -11 -18 -24 -28 -14 -11 -28 -28 -31 -39 -4 -11 -12 -20 -18 -20 -7 0 -19
-9 -27 -20 -8 -11 -20 -20 -27 -20 -7 0 -13 -6 -13 -12 -1 -16 -81 -73 -98
-70 -6 2 -17 -9 -24 -23 -6 -14 -18 -25 -25 -25 -10 0 -12 -6 -8 -19 8 -25
-14 -35 -84 -40 -16 -1 -21 -5 -17 -16 3 -9 -8 -29 -29 -50 -28 -27 -35 -42
-35 -74 0 -26 5 -41 16 -45 13 -5 15 -15 10 -49 -5 -33 -1 -54 18 -94 15 -32
21 -55 15 -59 -5 -3 -7 -15 -4 -25 4 -11 2 -26 -5 -34 -6 -7 -12 -39 -13 -71
-2 -57 -2 -58 29 -64 17 -4 42 -14 55 -23 13 -10 32 -17 43 -17 10 0 34 -10
53 -21 l35 -22 -31 -13 c-17 -7 -31 -18 -31 -23 0 -11 26 -4 46 11 7 5 22 -2
38 -17 15 -14 39 -25 53 -25 47 0 158 24 171 37 15 15 70 30 138 39 27 4 54
10 59 14 6 4 30 11 55 15 25 4 50 12 57 17 6 5 27 9 45 8 105 -5 106 -5 128
23 11 14 58 51 103 80 151 99 417 379 417 439 0 16 -59 69 -123 111 -103 66
-103 66 -62 99 49 41 47 86 -7 114 -26 14 -29 19 -26 57 3 38 1 42 -20 42 -13
0 -27 7 -32 15 -15 24 -12 60 5 60 19 0 20 26 0 33 -12 5 -12 10 0 34 8 15 15
36 15 46 0 11 9 21 21 24 35 10 19 68 -43 159 -31 43 -63 94 -72 111 -16 31
-15 35 3 70 11 21 40 55 65 76 25 21 46 45 46 53 0 24 -114 134 -139 134 -37
0 -60 18 -72 58 -10 35 -9 42 15 76 33 49 33 56 -1 56 -40 0 -15 20 44 35 41
10 48 16 55 44 7 24 14 31 33 31 13 0 27 5 30 10 3 6 17 10 30 10 24 0 42 29
36 59 -2 9 8 7 32 -8 51 -31 77 -28 77 9 0 24 -5 31 -26 36 -16 4 -29 2 -34
-5 -5 -9 -9 -6 -13 8 -7 27 -24 27 -32 0 -5 -15 -13 -19 -28 -15 -11 3 -29 1
-39 -5 -23 -12 -23 -1 -1 23 12 13 13 22 6 29 -8 8 -13 8 -17 0 -11 -18 -25
-12 -19 8 4 15 -3 20 -43 26 -26 4 -58 11 -72 16 -50 19 -11 20 87 3 100 -17
102 -17 139 3 20 11 54 24 75 27 32 6 38 11 35 29 -2 16 -11 23 -33 25 -16 2
-34 8 -39 13 -6 5 -23 9 -39 9 -25 0 -27 2 -17 15 17 20 2 38 -26 31 -15 -4
-24 -2 -24 5 0 11 -25 8 -66 -8 -14 -5 -16 -3 -10 12 4 11 0 25 -10 36 -12 14
-21 15 -43 8 -31 -11 -67 -77 -51 -93 14 -14 13 -29 -1 -20 -7 4 -20 -4 -31
-17 -19 -23 -19 -23 -13 -2 5 19 1 22 -27 25 l-33 3 33 18 c34 18 42 37 17 37
-8 0 -15 7 -15 15 0 8 6 12 13 10 16 -6 60 32 52 45 -4 6 -16 8 -28 4 -20 -6
-21 -5 -7 11 14 17 13 18 -27 12 -25 -4 -44 -3 -48 3 -11 18 -25 10 -25 -15z
m60 -99 c0 -2 -7 -6 -15 -10 -8 -3 -15 -1 -15 4 0 6 7 10 15 10 8 0 15 -2 15
-4z m-1040 -296 c0 -5 -2 -10 -4 -10 -3 0 -8 5 -11 10 -3 6 -1 10 4 10 6 0 11
-4 11 -10z m-1020 -717 c-1 -19 -18 -33 -34 -27 -13 5 -14 9 -5 20 12 15 39
19 39 7z m-205 -403 c4 -7 -3 -8 -22 -4 -38 9 -42 14 -10 14 14 0 29 -5 32
-10z m-620 -510 c7 -12 -2 -12 -30 0 -19 8 -19 9 2 9 12 1 25 -3 28 -9z m60
-1 c11 -17 -1 -21 -15 -4 -8 9 -8 15 -2 15 6 0 14 -5 17 -11z m-312 -191 c67
-1 68 -1 36 -15 -24 -10 -35 -10 -45 -2 -11 9 -14 8 -14 -4 0 -10 -9 -14 -25
-13 -14 0 -25 4 -25 9 0 4 -9 7 -19 7 -11 0 -22 4 -25 9 -9 14 7 23 29 16 11
-4 51 -7 88 -7z m-83 -98 c0 -5 -2 -10 -4 -10 -3 0 -8 5 -11 10 -3 6 -1 10 4
10 6 0 11 -4 11 -10z m713 -364 c3 -8 0 -19 -7 -26 -10 -8 -15 -7 -20 6 -3 8
-6 20 -6 25 0 15 27 10 33 -5z m847 -250 c0 -9 -30 -14 -35 -6 -4 6 3 10 14
10 12 0 21 -2 21 -4z"/>
<path d="M2458 7713 c-20 -5 -25 -33 -5 -33 6 0 23 9 37 20 23 18 23 19 5 19
-11 -1 -28 -3 -37 -6z"/>
<path d="M7110 7653 c-8 -3 -19 -12 -23 -19 -11 -19 -35 -18 -39 2 -3 13 -5
13 -23 0 -14 -11 -17 -18 -9 -26 15 -15 86 2 115 29 22 21 13 27 -21 14z"/>
<path d="M7213 7629 c0 -23 5 -29 23 -29 12 0 25 7 28 16 8 22 9 21 -22 32
-27 9 -29 8 -29 -19z"/>
<path d="M7040 7550 c0 -5 12 -10 28 -10 21 0 24 2 12 10 -20 13 -40 13 -40 0z"/>
<path d="M6610 7530 c0 -5 5 -10 10 -10 6 0 10 -9 10 -20 0 -16 7 -20 30 -20
36 0 39 17 6 30 -13 5 -27 14 -31 19 -8 14 -25 14 -25 1z"/>
<path d="M7100 7529 c0 -5 5 -7 10 -4 6 3 10 8 10 11 0 2 -4 4 -10 4 -5 0 -10
-5 -10 -11z"/>
<path d="M6748 7519 c-22 -12 -24 -44 -4 -36 8 3 16 1 18 -5 3 -7 11 -9 20 -6
11 4 14 15 11 32 -6 28 -17 32 -45 15z"/>
<path d="M6850 7520 c0 -5 7 -10 15 -10 8 0 15 5 15 10 0 6 -7 10 -15 10 -8 0
-15 -4 -15 -10z"/>
<path d="M6537 7465 c-17 -23 -17 -25 2 -35 29 -15 45 -12 59 10 10 16 10 20
-2 20 -8 0 -16 7 -20 15 -8 21 -18 18 -39 -10z"/>
<path d="M6498 7404 c4 -24 6 -24 21 -9 14 14 14 17 1 25 -23 15 -28 12 -22
-16z"/>
<path d="M6434 7396 c-20 -22 9 -49 45 -41 28 6 29 7 13 24 -11 11 -21 15 -29
9 -7 -6 -13 -4 -15 5 -2 12 -5 12 -14 3z"/>
<path d="M6400 7360 c0 -5 7 -10 16 -10 8 0 12 5 9 10 -3 6 -10 10 -16 10 -5
0 -9 -4 -9 -10z"/>
<path d="M6340 7332 c0 -5 -16 -16 -35 -25 -26 -12 -35 -23 -35 -41 0 -18 -6
-26 -22 -29 -21 -4 -21 -4 2 -6 14 0 35 6 46 14 12 8 24 12 27 9 3 -3 14 -3
25 0 24 8 33 47 17 70 -13 17 -25 21 -25 8z"/>
<path d="M6082 7265 c-11 -14 -25 -25 -32 -25 -8 0 -10 -9 -6 -24 7 -30 -2
-56 -19 -56 -7 0 -16 -6 -18 -12 -3 -7 -6 -2 -6 13 -1 25 -17 49 -34 49 -4 0
-7 -8 -5 -17 1 -10 -1 -24 -5 -30 -5 -8 -3 -13 3 -13 6 0 9 -4 5 -10 -3 -5
-12 -7 -20 -3 -10 3 -15 -2 -15 -16 0 -25 7 -26 48 -5 21 10 37 12 48 6 14 -8
12 -10 -10 -16 -31 -8 -34 -22 -6 -29 13 -3 29 5 50 26 31 32 37 47 20 47 -7
0 -7 6 -1 18 7 13 7 22 0 29 -7 7 -6 15 4 24 14 15 37 53 37 63 0 14 -20 4
-38 -19z m-27 -125 c3 -5 -3 -10 -15 -10 -12 0 -18 5 -15 10 3 6 10 10 15 10
5 0 12 -4 15 -10z"/>
<path d="M6240 7260 c0 -5 5 -10 10 -10 6 0 10 5 10 10 0 6 -4 10 -10 10 -5 0
-10 -4 -10 -10z"/>
<path d="M6120 7160 c0 -5 5 -10 12 -10 6 0 2 -9 -10 -20 -12 -11 -28 -20 -37
-20 -8 0 -15 -5 -15 -10 0 -6 -11 -22 -25 -35 -15 -13 -22 -26 -16 -29 5 -3
19 6 31 21 15 20 23 24 27 15 4 -10 9 -8 20 7 8 12 22 21 32 21 24 0 41 20 41
47 0 19 -5 23 -30 23 -16 0 -30 -4 -30 -10z"/>
<path d="M5883 7153 c-7 -2 -13 -14 -13 -25 0 -28 34 -19 38 10 3 22 -2 25
-25 15z"/>
<path d="M5940 7060 c0 -5 5 -10 10 -10 6 0 10 5 10 10 0 6 -4 10 -10 10 -5 0
-10 -4 -10 -10z"/>
<path d="M5868 7043 c-30 -36 -30 -43 -1 -43 21 0 32 8 45 30 17 30 17 30 -6
30 -13 0 -30 -8 -38 -17z"/>
<path d="M5746 7024 c-3 -9 -6 -25 -6 -35 0 -19 2 -19 28 -5 15 8 36 17 47 21
20 6 20 7 1 21 -26 19 -62 18 -70 -2z"/>
<path d="M5648 6953 c-20 -42 -18 -48 10 -39 19 7 32 40 24 64 -6 20 -16 13
-34 -25z"/>
<path d="M6005 6979 c-4 -6 -5 -13 -2 -16 7 -7 27 6 27 18 0 12 -17 12 -25 -2z"/>
<path d="M5935 6880 c3 -5 10 -10 16 -10 5 0 9 5 9 10 0 6 -7 10 -16 10 -8 0
-12 -4 -9 -10z"/>
<path d="M5933 6845 c-19 -21 -16 -27 7 -15 11 6 20 15 20 20 0 14 -13 12 -27
-5z"/>
<path d="M1360 6571 c0 -6 5 -13 10 -16 14 -9 12 -34 -4 -51 -17 -16 -66 -19
-66 -3 0 21 -45 3 -58 -23 -17 -36 -34 -35 -65 2 -29 34 -67 41 -67 11 0 -10
7 -24 15 -31 9 -7 15 -28 14 -49 0 -33 -1 -34 -10 -12 -5 13 -20 32 -34 42
-13 11 -27 28 -30 39 -7 21 -58 29 -70 10 -3 -5 -17 -10 -31 -10 -23 0 -24 -2
-18 -40 6 -36 5 -40 -15 -40 -11 0 -21 6 -21 13 -1 6 -16 29 -34 51 -26 31
-37 37 -55 31 -16 -5 -20 -12 -16 -23 14 -35 16 -78 6 -104 -13 -35 -27 -36
-35 -3 -11 42 -56 24 -56 -22 0 -13 -4 -23 -10 -23 -5 0 -7 -13 -3 -30 8 -44
-13 -37 -24 8 -7 27 -14 36 -26 34 -11 -2 -17 4 -17 18 0 11 -6 20 -14 20 -8
0 -17 7 -20 16 -9 23 -8 26 12 22 11 -2 26 3 35 11 15 12 14 16 -13 39 -17 15
-30 31 -30 37 0 6 -16 17 -35 25 -19 8 -35 17 -35 21 0 11 -53 28 -80 25 -14
-2 -32 -4 -40 -5 -10 -1 -11 -4 -4 -11 7 -7 19 -8 37 -1 17 7 27 7 27 1 0 -6
7 -10 15 -10 8 0 15 -4 15 -10 0 -5 -15 -8 -33 -7 -45 3 -46 -16 0 -28 34 -9
38 -13 35 -37 -2 -20 -9 -28 -22 -28 -12 0 -17 5 -14 14 3 9 -3 14 -19 14 -13
0 -35 11 -50 26 -32 32 -62 35 -54 6 4 -17 2 -20 -15 -14 -36 11 -15 -19 23
-32 34 -12 33 -13 -15 -7 -36 5 -47 3 -42 -5 4 -7 14 -12 22 -12 8 0 14 -7 14
-15 0 -8 7 -15 15 -15 9 0 12 6 9 15 -4 10 0 15 15 15 26 0 26 -5 1 -32 l-20
-22 -30 22 c-16 12 -39 22 -52 21 l-23 0 22 -11 c13 -6 23 -19 23 -30 0 -22
-3 -22 -41 -3 -29 16 -49 13 -49 -6 0 -5 13 -9 30 -9 17 0 33 -7 38 -17 9 -15
12 -15 47 1 20 10 43 15 51 12 8 -3 14 -2 14 3 0 10 49 26 65 22 6 -2 15 -4
22 -5 7 -1 15 -5 19 -8 3 -4 13 -4 21 -1 8 3 32 0 53 -7 l39 -13 -37 -18 c-20
-11 -42 -19 -49 -19 -19 0 -27 -21 -12 -32 8 -5 33 -7 56 -4 34 5 41 3 37 -9
-4 -11 -22 -15 -59 -15 -30 0 -57 -5 -60 -11 -4 -6 -13 -8 -20 -5 -8 3 -29 0
-47 -5 -18 -6 -59 -10 -90 -11 -50 0 -58 -3 -58 -19 0 -17 6 -18 77 -13 43 3
90 7 105 9 40 6 92 -14 78 -30 -6 -7 -8 -20 -4 -29 7 -18 24 -22 24 -6 0 20
29 9 32 -12 3 -20 8 -23 43 -20 22 2 36 0 32 -5 -5 -4 -19 -8 -30 -8 -16 0
-22 -6 -22 -21 0 -29 -23 -54 -49 -54 -12 0 -27 -5 -34 -12 -9 -9 -16 -8 -30
5 -23 21 -31 15 -25 -18 4 -21 10 -24 47 -23 22 0 51 4 63 9 13 5 25 4 28 -1
10 -16 65 -12 65 4 0 15 29 30 39 21 3 -3 -1 -10 -9 -15 -12 -8 -11 -10 5 -12
11 -1 29 -2 40 -3 11 -1 30 -3 43 -4 26 -1 30 -18 5 -23 -13 -3 -8 -8 17 -19
88 -39 270 -64 285 -39 3 6 17 10 30 10 16 0 25 7 29 24 5 21 14 26 61 31 30
4 58 11 61 16 3 5 23 9 44 9 28 0 47 7 67 26 32 30 95 64 118 64 8 0 15 7 15
15 0 13 7 15 35 9 20 -3 41 -2 48 4 6 6 23 12 37 14 23 3 25 7 23 53 -1 37 1
46 8 33 14 -25 36 -22 50 5 7 12 16 25 22 28 16 11 -4 31 -24 26 -24 -6 -25 8
-2 17 10 4 20 1 25 -9 10 -16 38 -21 38 -6 0 5 -7 14 -15 21 -14 11 -13 14 1
25 14 9 14 14 4 20 -9 5 -11 4 -6 -3 4 -7 2 -12 -3 -12 -16 0 -13 16 4 30 19
16 19 30 1 30 -8 0 -16 4 -18 8 -1 5 -18 12 -36 15 -24 5 -34 3 -38 -8 -10
-25 -25 -17 -18 10 5 22 3 25 -20 25 -26 0 -36 22 -16 35 16 10 12 35 -6 35
-8 0 -24 5 -35 11 -19 10 -20 12 -4 29 24 26 1 36 -25 10 -19 -19 -22 -19 -50
-5 -17 9 -30 21 -30 27 0 19 -34 37 -72 38 -21 0 -38 -4 -38 -9z m-720 -431
c0 -5 -4 -10 -9 -10 -5 0 -18 -3 -28 -7 -16 -6 -16 -5 -4 10 15 19 41 23 41 7z"/>
<path d="M5760 6519 c0 -5 5 -7 10 -4 6 3 10 8 10 11 0 2 -4 4 -10 4 -5 0 -10
-5 -10 -11z"/>
<path d="M530 6340 c0 -5 7 -10 15 -10 8 0 15 5 15 10 0 6 -7 10 -15 10 -8 0
-15 -4 -15 -10z"/>
<path d="M1780 6261 c0 -5 5 -13 10 -16 6 -3 10 -2 10 4 0 5 -4 13 -10 16 -5
3 -10 2 -10 -4z"/>
<path d="M5545 6260 c4 -6 11 -8 16 -5 14 9 11 15 -7 15 -8 0 -12 -5 -9 -10z"/>
<path d="M5441 6201 c-7 -5 -9 -11 -4 -14 5 -3 15 -2 22 2 7 5 9 11 4 14 -5 3
-15 2 -22 -2z"/>
<path d="M1740 6190 c0 -5 5 -10 10 -10 6 0 10 5 10 10 0 6 -4 10 -10 10 -5 0
-10 -4 -10 -10z"/>
<path d="M5320 6090 c0 -5 5 -10 10 -10 6 0 10 5 10 10 0 6 -4 10 -10 10 -5 0
-10 -4 -10 -10z"/>
<path d="M550 6081 c0 -6 5 -13 10 -16 6 -3 10 1 10 9 0 9 -4 16 -10 16 -5 0
-10 -4 -10 -9z"/>
<path d="M5040 5900 c0 -12 35 -31 44 -23 3 3 -2 12 -12 19 -20 16 -32 17 -32
4z"/>
<path d="M4990 5881 c0 -18 18 -21 30 -6 10 13 9 15 -9 15 -11 0 -21 -4 -21
-9z"/>
<path d="M4915 5861 c-3 -5 4 -13 16 -16 23 -8 34 -1 24 14 -8 13 -32 14 -40
2z"/>
<path d="M5035 5851 c3 -5 -1 -11 -7 -14 -10 -4 -10 -7 0 -18 11 -12 17 -11
39 1 39 22 39 37 -2 38 -20 1 -33 -3 -30 -7z"/>
<path d="M4990 5810 c0 -5 5 -10 10 -10 6 0 10 5 10 10 0 6 -4 10 -10 10 -5 0
-10 -4 -10 -10z"/>
<path d="M4940 5800 c0 -5 7 -10 16 -10 8 0 12 5 9 10 -3 6 -10 10 -16 10 -5
0 -9 -4 -9 -10z"/>
<path d="M4695 5670 c-3 -5 1 -10 10 -10 9 0 13 5 10 10 -3 6 -8 10 -10 10 -2
0 -7 -4 -10 -10z"/>
<path d="M2804 5616 c-4 -11 -11 -12 -33 -3 -25 9 -33 7 -59 -14 -17 -13 -31
-27 -31 -32 -1 -9 31 -23 73 -32 23 -5 27 -8 16 -15 -13 -8 -12 -12 5 -24 24
-19 32 -19 41 -4 4 6 2 14 -4 16 -25 8 -1 72 27 72 18 0 13 24 -9 38 -17 10
-21 10 -26 -2z"/>
<path d="M4620 5620 c0 -5 4 -10 9 -10 6 0 13 5 16 10 3 6 -1 10 -9 10 -9 0
-16 -4 -16 -10z"/>
<path d="M4525 5581 c-3 -6 4 -15 15 -21 23 -12 26 -5 6 16 -9 8 -17 10 -21 5z"/>
<path d="M4485 5510 c-3 -5 1 -10 10 -10 9 0 13 5 10 10 -3 6 -8 10 -10 10 -2
0 -7 -4 -10 -10z"/>
<path d="M2750 5449 c0 -20 25 -48 43 -49 15 0 6 36 -13 53 -26 22 -30 21 -30
-4z"/>
<path d="M4518 5403 c6 -2 18 -2 25 0 6 3 1 5 -13 5 -14 0 -19 -2 -12 -5z"/>
<path d="M4510 5319 c0 -5 5 -7 10 -4 6 3 10 8 10 11 0 2 -4 4 -10 4 -5 0 -10
-5 -10 -11z"/>
<path d="M3614 5268 c-15 -13 -42 -27 -58 -33 -38 -13 -43 -29 -14 -43 16 -7
18 -11 7 -11 -9 -1 -22 -8 -29 -16 -11 -13 -8 -17 19 -26 34 -12 36 -16 21
-53 -9 -26 -2 -40 16 -28 14 10 35 62 29 72 -3 5 -1 11 5 15 5 3 10 18 10 32
0 15 8 36 19 47 26 29 36 66 18 66 -8 0 -27 -10 -43 -22z"/>
<path d="M4540 5198 c1 -52 32 -78 45 -37 4 11 5 21 3 22 -1 1 -13 8 -25 15
-19 10 -23 10 -23 0z"/>
<path d="M6654 5166 c4 -18 1 -26 -11 -29 -11 -3 -6 -5 11 -6 21 -1 27 3 23
13 -3 8 -1 17 6 20 9 3 8 8 -3 15 -24 17 -33 13 -26 -13z"/>
<path d="M6618 5153 c7 -3 16 -2 19 1 4 3 -2 6 -13 5 -11 0 -14 -3 -6 -6z"/>
<path d="M6690 5150 c0 -5 5 -10 10 -10 6 0 10 5 10 10 0 6 -4 10 -10 10 -5 0
-10 -4 -10 -10z"/>
<path d="M6981 5154 c-1 -6 -20 -16 -43 -21 l-43 -11 35 -1 c41 -1 65 11 57
30 -3 8 -6 9 -6 3z"/>
<path d="M4610 5120 c0 -5 5 -10 10 -10 6 0 10 5 10 10 0 6 -4 10 -10 10 -5 0
-10 -4 -10 -10z"/>
<path d="M6682 5113 c5 -25 28 -28 28 -4 0 12 -6 21 -16 21 -9 0 -14 -7 -12
-17z"/>
<path d="M4577 5103 c-10 -9 -9 -23 2 -23 5 0 11 7 15 15 5 15 -5 20 -17 8z"/>
<path d="M4540 5076 c0 -18 17 -29 30 -21 8 5 7 11 -1 21 -15 18 -29 18 -29 0z"/>
<path d="M7100 5060 c-13 -9 -13 -10 0 -10 8 0 22 5 30 10 13 9 13 10 0 10 -8
0 -22 -5 -30 -10z"/>
<path d="M4525 5040 c3 -5 8 -10 11 -10 2 0 4 5 4 10 0 6 -5 10 -11 10 -5 0
-7 -4 -4 -10z"/>
<path d="M4535 5010 c-3 -5 3 -10 15 -10 12 0 18 5 15 10 -3 6 -10 10 -15 10
-5 0 -12 -4 -15 -10z"/>
<path d="M4584 5008 c9 -50 27 -71 41 -48 3 6 -1 10 -10 10 -11 0 -14 6 -9 25
5 18 2 25 -9 25 -8 0 -14 -6 -13 -12z"/>
<path d="M7475 5001 c-6 -5 -28 -11 -50 -13 -22 -2 -46 -7 -52 -11 -7 -4 -23
-5 -36 -2 -16 4 -30 0 -42 -12 -10 -10 -37 -22 -59 -28 -36 -9 -41 -14 -41
-37 1 -17 -5 -28 -13 -28 -7 0 -11 4 -8 9 3 5 -5 8 -19 7 -29 -1 -34 -16 -6
-16 10 0 24 -6 31 -14 6 -8 24 -17 38 -19 24 -4 24 -4 -5 -6 -35 -1 -43 -17
-20 -39 6 -7 12 -18 12 -24 0 -6 17 -20 37 -30 30 -16 40 -17 57 -6 27 16 39
3 21 -25 -10 -15 -13 -49 -12 -112 1 -49 -2 -94 -6 -100 -4 -5 -24 -19 -45
-30 -39 -19 -39 -19 -75 0 -20 11 -38 29 -40 39 -3 11 -16 29 -31 40 -14 12
-35 31 -46 43 -29 30 -43 30 -106 -1 -59 -28 -79 -55 -79 -105 0 -22 -6 -30
-23 -35 -18 -4 -24 -16 -34 -68 -13 -72 -4 -187 16 -212 8 -9 11 -26 7 -41 -5
-20 -3 -25 13 -25 11 0 22 -4 25 -9 7 -12 48 -21 121 -29 l60 -7 -3 -65 c-2
-36 -6 -68 -9 -73 -6 -10 -342 2 -363 13 -20 11 -66 2 -81 -16 -13 -16 -49
-19 -49 -4 0 6 -11 10 -24 10 -38 0 -56 10 -71 41 -19 36 -19 43 1 35 8 -3 12
-2 9 4 -16 25 -205 3 -238 -28 -13 -12 -35 -22 -49 -22 -17 0 -35 -11 -51 -30
-16 -19 -35 -30 -51 -30 -40 0 -129 -21 -153 -36 -12 -8 -32 -14 -45 -14 -17
0 -19 -3 -10 -12 7 -7 12 -23 12 -37 0 -23 -1 -23 -18 -8 -10 10 -35 17 -54
17 -33 0 -36 3 -43 36 -6 32 -9 36 -31 31 -18 -3 -34 4 -57 24 -41 37 -93 39
-134 5 -20 -17 -37 -23 -54 -19 -20 4 -31 -2 -47 -21 -19 -25 -62 -36 -62 -16
0 6 -11 8 -25 4 -31 -8 -35 20 -5 36 11 6 20 18 20 26 0 12 -6 15 -27 10 -14
-4 -39 -2 -55 5 -22 9 -31 9 -44 -1 -12 -11 -15 -11 -12 0 2 7 -8 16 -22 20
-17 4 -21 8 -12 14 26 16 -12 80 -58 98 l-25 10 24 19 c21 17 22 23 12 45 -14
32 -14 34 5 34 10 0 14 6 10 15 -3 10 1 15 14 15 23 0 35 16 18 23 -7 3 -3 6
8 6 28 1 44 21 51 65 6 41 6 40 33 24 16 -11 22 -9 34 7 23 31 13 40 -42 40
-29 -1 -52 3 -52 7 0 4 5 8 10 8 20 0 10 19 -12 23 l-23 4 23 2 c20 1 23 6 20
31 -1 17 2 34 7 38 31 22 44 79 23 100 -9 9 -7 13 5 18 17 6 24 34 9 34 -5 0
-17 -9 -27 -20 -10 -11 -27 -20 -38 -20 -10 0 -38 -20 -60 -44 -39 -41 -46
-44 -110 -51 -70 -8 -97 -26 -97 -67 0 -26 27 -22 45 6 29 45 118 58 95 15 -8
-14 -6 -27 4 -47 15 -29 15 -29 -10 -24 -19 3 -24 9 -21 23 3 11 1 19 -4 19
-5 0 -9 -4 -9 -10 0 -5 -6 -10 -14 -10 -10 0 -12 7 -8 23 5 19 4 20 -11 9 -13
-11 -14 -17 -4 -33 18 -30 -3 -44 -44 -30 -25 9 -34 8 -40 -1 -10 -16 0 -69
17 -89 18 -20 18 -45 1 -52 -8 -3 -14 -19 -15 -36 -1 -26 4 -32 34 -41 34 -12
34 -12 34 -75 0 -47 4 -64 15 -69 8 -3 15 -12 15 -20 0 -7 7 -17 16 -20 19 -7
10 -24 -20 -36 -16 -7 -17 -9 -4 -9 11 -1 15 -6 12 -16 -4 -9 0 -15 10 -15 9
0 16 -7 16 -15 0 -8 -7 -15 -16 -15 -8 0 -12 -4 -9 -10 3 -5 19 -10 35 -10 20
0 41 -12 70 -40 23 -22 36 -40 29 -40 -7 0 -28 14 -45 31 -31 30 -102 53 -122
40 -14 -10 -21 -38 -11 -48 6 -6 6 -18 0 -34 -9 -23 -10 -23 -10 -2 -1 12 -6
25 -12 28 -17 11 -23 -3 -9 -20 11 -13 9 -15 -14 -15 -22 0 -26 4 -26 30 l0
30 -61 -2 c-54 -3 -62 -6 -77 -31 -14 -23 -15 -29 -3 -36 8 -5 20 -7 28 -4 7
3 13 0 13 -6 0 -17 -31 -13 -52 6 -14 13 -36 16 -94 15 -46 -1 -72 2 -69 8 4
6 -13 10 -41 10 -76 0 -175 -75 -133 -101 17 -10 28 -3 40 27 9 27 63 54 101
53 l23 0 -22 -9 c-42 -17 -61 -90 -24 -90 11 0 23 -4 26 -10 3 -5 1 -10 -4
-10 -22 0 -10 -28 14 -34 31 -8 31 -14 0 -48 -26 -30 -60 -36 -90 -15 -15 11
-17 22 -11 56 6 38 4 42 -19 53 -31 14 -38 7 -37 -32 0 -16 -4 -32 -9 -35 -5
-4 -9 -15 -9 -25 0 -10 -19 -34 -42 -53 -35 -29 -40 -38 -30 -50 17 -20 72
-30 89 -16 7 7 17 9 20 5 11 -11 -18 -26 -50 -26 -33 0 -43 -20 -27 -51 11
-20 10 -21 -14 -15 -81 20 -114 19 -169 -8 -31 -14 -65 -26 -76 -26 -11 0 -22
-4 -25 -9 -3 -5 -26 -14 -51 -20 -28 -7 -48 -18 -51 -29 -3 -9 -11 -29 -18
-43 -11 -21 -11 -29 0 -44 8 -10 14 -25 14 -31 0 -19 -81 -64 -127 -71 -52 -8
-83 -30 -83 -59 0 -15 -6 -24 -15 -24 -8 0 -15 -4 -15 -9 0 -7 -68 -8 -152 -2
-9 0 -21 15 -27 31 -8 26 -15 30 -45 30 -47 0 -53 -14 -21 -52 23 -27 26 -39
22 -74 -5 -45 -1 -57 23 -67 8 -4 -4 -6 -27 -4 -24 1 -43 -1 -43 -4 0 -4 -17
-5 -39 -2 -21 3 -47 0 -58 -6 -17 -9 -25 -5 -47 19 -29 34 -51 37 -84 15 -12
-9 -45 -18 -74 -20 -90 -6 -116 -14 -111 -36 6 -21 16 -24 43 -9 13 7 21 5 31
-7 11 -13 11 -17 2 -20 -7 -3 -13 -11 -13 -19 0 -8 -7 -14 -15 -14 -8 0 -15
-4 -15 -9 0 -15 22 -26 55 -28 65 -4 155 -27 155 -40 0 -7 6 -10 15 -7 25 10
74 -16 77 -39 2 -18 9 -21 35 -19 18 2 41 -2 50 -8 15 -9 14 -10 -11 -8 -16 2
-31 -2 -33 -9 -3 -7 3 -13 12 -13 9 0 15 -6 12 -12 -2 -7 -10 -12 -16 -11 -19
5 -12 -17 13 -41 12 -13 26 -31 29 -39 3 -8 26 -20 51 -28 25 -7 46 -18 46
-24 1 -5 5 -29 9 -53 5 -23 7 -42 6 -42 -2 0 -12 15 -24 32 -12 20 -21 27 -21
17 0 -23 37 -67 71 -84 24 -13 29 -21 28 -53 0 -35 -1 -35 -10 -12 -11 27 -38
60 -49 60 -4 0 -10 -24 -14 -54 -3 -30 -9 -61 -12 -70 -5 -12 0 -16 17 -16
l24 0 -21 -18 c-16 -13 -24 -37 -33 -104 -8 -56 -19 -92 -29 -101 -26 -21
-109 -42 -124 -30 -21 16 -74 23 -86 11 -8 -8 -21 -8 -49 0 -24 7 -60 9 -98 4
-58 -7 -158 5 -233 27 -18 6 -43 7 -55 3 -12 -4 -44 -7 -72 -5 -27 1 -65 2
-84 2 -19 1 -38 6 -41 11 -10 16 -77 22 -101 9 -11 -6 -18 -17 -15 -24 6 -18
-9 -28 -46 -30 -34 -3 -91 -29 -108 -50 -10 -12 -9 -17 3 -30 9 -8 24 -15 33
-15 16 0 16 -1 -2 -16 -18 -15 -18 -15 9 -11 22 3 27 1 25 -13 -2 -9 3 -24 10
-33 11 -13 9 -19 -14 -42 -20 -20 -25 -32 -20 -53 4 -15 10 -45 15 -67 4 -23
11 -47 16 -55 12 -19 7 -83 -7 -91 -6 -4 -12 -22 -14 -40 -9 -91 -33 -155 -60
-166 -9 -3 -14 -20 -14 -43 0 -22 -5 -42 -10 -45 -20 -13 -10 -35 16 -35 17 0
28 6 31 20 7 28 23 25 23 -4 0 -13 -10 -30 -23 -39 -12 -8 -19 -18 -14 -23 4
-4 13 -2 19 4 15 15 45 15 54 1 3 -6 1 -14 -5 -18 -7 -5 -12 -43 -13 -100 -1
-51 -5 -94 -10 -97 -20 -13 -4 -20 41 -18 27 1 64 -1 84 -5 28 -7 38 -5 51 10
25 30 99 25 153 -8 38 -25 43 -31 37 -55 -4 -21 -2 -28 10 -28 10 0 16 -9 16
-25 0 -19 10 -29 40 -45 45 -23 65 -18 97 25 12 17 34 30 63 36 24 6 47 15 51
21 4 6 56 11 125 12 73 1 128 7 142 15 13 7 35 10 49 6 18 -4 30 0 44 16 10
12 19 28 19 35 0 25 60 64 98 64 46 0 66 12 59 36 -10 35 34 106 81 129 68 34
70 40 29 80 -30 29 -37 43 -37 74 0 25 7 44 20 56 11 10 20 22 20 26 0 5 16
33 35 63 23 36 45 57 65 65 18 6 29 15 25 21 -16 27 7 49 63 61 31 7 61 16 66
21 6 4 18 8 28 8 11 0 31 8 46 19 15 10 51 33 80 51 48 30 53 36 50 62 -3 21
0 32 13 39 17 8 16 11 -7 36 -44 48 -29 110 36 143 21 11 43 27 48 37 8 14 15
15 53 5 65 -17 84 -18 84 -5 0 18 15 28 15 10 0 -13 6 -15 28 -11 22 5 30 1
40 -18 26 -48 192 -67 192 -22 0 8 4 14 8 14 5 0 22 13 38 30 16 16 37 30 47
30 9 0 36 9 60 19 23 10 50 21 60 25 9 3 17 15 17 26 0 11 4 20 9 20 6 0 22
11 37 25 33 30 52 31 99 5 20 -11 42 -20 50 -20 8 0 15 -4 15 -9 0 -5 13 -12
30 -16 34 -7 38 -13 61 -75 34 -93 44 -115 57 -123 6 -4 12 -15 12 -22 0 -8 6
-15 14 -15 19 0 39 -26 40 -53 1 -17 6 -21 24 -19 27 4 72 -22 72 -42 0 -7 14
-19 30 -26 17 -7 30 -17 30 -22 0 -17 54 -68 71 -68 9 0 22 -7 29 -15 7 -8 25
-15 40 -15 51 0 89 -12 95 -31 3 -10 24 -26 45 -36 22 -10 40 -24 40 -30 0 -8
14 -13 34 -13 36 0 53 -21 41 -53 -7 -17 44 -47 80 -47 16 0 26 -9 35 -32 8
-18 19 -40 25 -48 7 -8 17 -33 23 -55 6 -22 14 -50 17 -62 6 -18 2 -25 -19
-33 -15 -5 -26 -17 -26 -28 0 -21 -29 -64 -30 -44 0 14 -45 7 -67 -10 -7 -6
-20 -7 -29 -4 -9 3 -30 0 -47 -8 -18 -8 -55 -16 -84 -19 -43 -3 -56 0 -80 19
-35 29 -41 29 -70 2 -17 -16 -26 -19 -31 -11 -10 16 -52 5 -52 -14 0 -9 -6
-13 -15 -9 -20 7 -19 2 7 -38 19 -28 30 -35 69 -40 26 -4 49 -10 51 -14 5 -14
99 -62 120 -62 10 0 29 -11 41 -24 22 -24 93 -50 109 -40 4 3 8 14 8 25 0 11
7 22 15 25 18 7 12 39 -13 67 -17 19 -16 19 40 121 15 27 17 28 18 10 0 -12 6
-26 13 -32 18 -15 65 -3 72 19 3 10 15 21 25 24 22 7 35 38 31 76 -2 27 29 49
69 49 15 0 20 7 20 29 0 33 -24 66 -60 84 -21 11 -24 19 -22 47 3 31 33 85 57
102 18 14 33 8 38 -13 5 -17 11 -20 36 -14 25 5 35 2 56 -21 14 -15 25 -38 25
-50 0 -19 5 -24 24 -24 30 0 38 11 39 57 1 29 -5 41 -33 64 -19 16 -39 29 -44
29 -5 0 -37 18 -72 40 -35 22 -67 40 -70 40 -18 0 -144 64 -144 73 0 6 7 18
16 28 9 10 14 25 10 34 -5 13 -17 15 -68 11 -81 -8 -126 1 -133 25 -4 10 -18
24 -33 31 -37 18 -89 91 -102 141 -15 62 -33 92 -58 95 -12 2 -42 23 -67 48
-25 24 -50 44 -55 44 -15 0 -50 66 -50 94 0 15 7 29 15 32 20 8 19 21 -5 51
-18 23 -18 27 -3 49 8 13 24 24 34 24 24 0 71 21 85 39 8 10 13 11 18 2 4 -6
16 -9 27 -6 30 10 43 -4 24 -25 -16 -17 -15 -21 3 -62 35 -73 37 -75 66 -47
14 13 26 32 26 41 0 21 12 29 29 19 8 -5 11 -17 6 -30 -4 -15 -1 -23 10 -27
21 -9 33 5 15 16 -8 6 -10 10 -4 10 5 0 19 -6 29 -14 17 -12 18 -17 6 -39 -17
-32 -11 -40 49 -73 54 -30 64 -44 25 -36 -40 7 -31 -21 19 -62 24 -20 49 -36
55 -36 6 0 11 -7 11 -15 0 -16 6 -18 61 -15 21 1 40 -3 44 -9 3 -7 -2 -11 -14
-11 -14 0 -19 -6 -18 -20 2 -26 14 -25 36 1 l16 20 24 -20 c13 -12 30 -21 36
-21 7 0 27 -14 44 -32 48 -49 47 -26 -1 28 -48 54 -68 74 -151 152 -39 36 -57
60 -57 76 0 14 -11 33 -25 44 -19 15 -25 29 -25 61 0 47 12 52 47 19 l23 -21
23 21 c18 17 32 20 75 17 28 -2 57 -7 63 -11 6 -3 43 -8 82 -9 40 -2 82 -3 95
-4 12 -1 22 -7 22 -15 0 -8 5 -18 10 -21 18 -11 50 6 50 26 0 11 7 22 15 25
12 5 10 10 -8 24 -24 19 -52 93 -42 110 3 6 15 10 25 10 23 0 70 20 70 30 0 4
21 6 48 5 40 -1 53 -7 90 -41 28 -26 42 -48 42 -65 0 -21 9 -30 48 -48 42 -20
47 -26 47 -54 0 -38 26 -70 52 -65 10 2 26 -6 35 -17 10 -11 17 -15 18 -8 0 7
9 17 20 23 16 8 26 7 42 -5 l22 -15 -22 0 c-26 0 -27 -3 -5 -37 16 -25 16 -26
-5 -43 -37 -30 -26 -71 35 -127 29 -28 32 -36 23 -53 -6 -11 -19 -20 -29 -20
-27 0 -44 -26 -37 -56 4 -14 2 -32 -4 -40 -12 -13 0 -28 54 -72 10 -8 16 -29
16 -58 0 -36 -5 -49 -27 -68 -22 -19 -33 -22 -60 -16 -28 7 -39 3 -69 -21 -28
-22 -47 -29 -82 -29 -42 0 -44 -1 -40 -25 4 -18 -3 -33 -23 -55 -16 -16 -29
-36 -29 -44 0 -7 -9 -16 -20 -19 -11 -3 -20 -14 -20 -25 0 -25 -23 -44 -44
-36 -24 9 -19 -13 6 -27 12 -6 33 -24 48 -40 18 -20 37 -29 62 -31 27 -2 38
-8 42 -23 7 -25 2 -29 -23 -15 -18 9 -21 8 -21 -8 0 -24 29 -82 41 -82 16 0
24 5 22 12 -5 15 15 8 21 -7 4 -11 12 -13 28 -7 40 14 157 6 194 -14 35 -19
44 -34 20 -34 -8 0 -16 -7 -20 -15 -7 -19 4 -19 40 0 33 17 54 19 54 5 0 -12
49 -45 56 -38 2 3 0 17 -5 31 -7 18 -7 27 1 29 17 6 0 28 -22 28 -10 0 -23 6
-27 14 -12 19 -123 76 -153 77 -20 1 -17 3 13 11 26 7 37 15 33 24 -3 8 -9 21
-12 29 -7 18 27 21 56 5 29 -16 34 6 6 27 -13 10 -41 40 -60 66 -29 37 -36 55
-33 82 4 38 22 65 44 65 13 0 13 -3 3 -15 -13 -16 -4 -29 43 -56 9 -5 17 -16
17 -23 0 -7 12 -18 28 -25 l27 -11 -22 19 c-43 36 -24 56 20 21 35 -28 56 -26
29 3 -12 13 -22 26 -22 30 0 15 35 6 57 -15 13 -12 26 -18 30 -15 8 9 -36 57
-52 57 -18 0 -48 37 -41 49 5 7 13 7 26 -1 16 -10 25 -8 50 11 19 13 38 20 48
16 16 -6 16 -7 0 -16 -27 -15 -22 -39 7 -39 19 0 25 5 25 21 0 11 7 28 16 37
14 13 23 14 60 4 24 -7 55 -12 69 -12 13 0 28 -7 33 -16 8 -14 12 -12 30 11
12 15 22 36 22 45 0 10 7 23 15 30 20 17 19 56 -2 64 -15 6 -15 9 5 28 21 22
83 48 115 48 10 0 20 -6 23 -14 4 -11 16 -13 42 -9 20 3 39 8 41 10 3 2 -14
21 -38 43 l-43 40 30 25 c21 17 31 37 35 66 7 52 26 72 69 73 37 1 37 0 38
136 0 13 5 29 10 34 6 6 10 18 10 28 0 10 5 18 11 18 7 0 9 11 6 29 -4 20 -2
31 8 35 10 4 15 -1 15 -15 0 -17 4 -20 23 -15 12 3 29 6 37 6 22 0 40 45 31
78 -9 33 -32 39 -76 18 -18 -9 -47 -19 -64 -22 -62 -13 -101 77 -78 181 5 26
4 55 -4 83 -11 39 -27 61 -102 142 -13 14 -27 38 -31 54 -4 15 -13 33 -19 40
-68 61 -63 59 -95 42 -16 -8 -32 -22 -35 -31 -5 -11 -21 -15 -65 -15 -49 0
-62 -4 -82 -25 -13 -14 -29 -25 -35 -25 -6 0 -22 11 -35 25 -23 25 -54 33 -64
17 -6 -10 -136 8 -136 20 0 13 -38 9 -43 -4 -4 -10 -7 -10 -18 0 -7 6 -19 12
-25 12 -13 0 -47 30 -72 62 -11 14 -9 24 15 68 23 42 32 50 51 47 18 -4 22 -1
17 12 -4 9 -8 24 -10 34 -2 10 -7 27 -10 38 -5 15 12 37 75 97 45 42 91 80
103 83 16 4 22 12 20 30 -3 55 -12 80 -37 113 -27 37 -37 98 -22 143 6 19 1
26 -28 44 -20 12 -36 27 -36 35 0 8 25 28 55 45 l54 31 -6 46 c-3 26 -17 70
-30 97 -25 55 -30 94 -10 96 6 1 41 3 77 5 36 1 73 3 83 4 10 1 17 9 17 21 0
15 5 19 19 14 12 -3 21 0 25 10 7 20 36 19 51 -2 7 -9 19 -14 29 -10 22 9 20
28 -4 34 -24 6 -24 12 -5 37 8 11 15 30 15 41 0 25 29 55 53 55 9 0 20 6 24
13 4 7 21 17 38 22 36 12 47 45 16 45 -12 0 -21 5 -21 10 0 16 31 60 42 60 5
0 17 7 25 16 11 11 26 14 47 10 28 -5 38 0 84 42 51 47 51 48 41 85 -5 20 -21
50 -36 67 -21 26 -24 37 -19 70 6 35 3 41 -24 62 -37 27 -37 38 -4 77 l26 31
-21 35 c-11 19 -18 42 -15 50 4 8 -1 34 -11 57 l-16 42 35 30 c19 17 37 41 41
53 3 12 15 25 26 28 23 8 26 35 3 35 -8 0 -24 -5 -34 -10 -14 -8 -29 -6 -55 4
-20 9 -41 13 -48 10 -7 -2 -42 2 -78 11 -73 17 -140 19 -154 6z m-2275 -526
c0 -11 -40 -24 -57 -18 -14 6 -11 9 17 14 19 4 36 7 38 8 1 0 2 -1 2 -4z m37
-1 c-3 -3 -12 -4 -19 -1 -8 3 -5 6 6 6 11 1 17 -2 13 -5z m-202 -1834 c3 -5
23 -10 43 -10 48 0 82 -24 82 -56 0 -32 29 -76 46 -70 8 3 18 -3 23 -12 8 -14
13 -15 30 -4 25 15 51 16 51 2 0 -6 -7 -13 -15 -16 -8 -4 -15 -15 -15 -26 0
-17 -4 -19 -26 -14 -25 7 -26 5 -21 -23 6 -29 5 -30 -18 -19 -18 8 -28 8 -39
-1 -17 -15 -36 -7 -36 15 0 8 -7 14 -16 14 -12 0 -15 -6 -10 -25 5 -18 1 -28
-14 -37 -11 -7 -20 -23 -20 -35 0 -13 -2 -23 -4 -23 -10 0 -76 74 -76 85 0 36
-38 16 -54 -28 -3 -11 -15 -21 -26 -24 -11 -3 -20 -10 -20 -16 0 -8 -3 -8 -11
0 -8 8 -20 7 -45 -3 -42 -18 -54 -18 -54 1 0 7 -7 18 -15 23 -9 4 -19 21 -24
38 -8 30 -28 35 -78 19 -16 -5 -25 -3 -29 8 -4 10 18 40 65 88 39 39 71 78 71
85 0 9 12 14 33 14 18 0 38 5 44 11 6 6 31 11 55 11 30 -1 48 5 61 19 19 20
52 25 62 9z"/>
<path d="M4530 4980 c0 -5 9 -10 20 -10 11 0 20 5 20 10 0 6 -9 10 -20 10 -11
0 -20 -4 -20 -10z"/>
<path d="M4640 4970 c0 -5 5 -10 11 -10 5 0 7 5 4 10 -3 6 -8 10 -11 10 -2 0
-4 -4 -4 -10z"/>
<path d="M4560 4960 c-12 -8 -12 -10 3 -16 21 -8 35 2 21 16 -5 5 -15 6 -24 0z"/>
<path d="M6450 4955 c0 -8 7 -15 16 -15 14 0 14 3 4 15 -7 8 -14 15 -16 15 -2
0 -4 -7 -4 -15z"/>
<path d="M4527 4946 c-4 -10 -5 -21 -2 -24 9 -9 17 6 13 25 -3 17 -4 17 -11
-1z"/>
<path d="M3274 4887 c-5 -19 -8 -39 -6 -45 6 -18 42 -15 42 3 0 11 9 14 31 13
20 -2 34 2 37 11 3 8 0 11 -6 7 -6 -4 -21 5 -34 19 -30 34 -51 32 -64 -8z"/>
<path d="M7034 4885 c-10 -8 -27 -15 -37 -15 -24 0 -11 -20 12 -20 10 0 25
-10 33 -22 l14 -22 22 22 c26 26 27 38 8 58 -18 18 -27 18 -52 -1z"/>
<path d="M7127 4814 c-10 -11 3 -24 23 -24 13 0 17 5 14 15 -6 15 -26 20 -37
9z"/>
<path d="M3220 4796 c-36 -6 -71 -15 -79 -20 -8 -5 -16 -4 -22 5 -6 11 -11 10
-27 -4 -17 -16 -20 -16 -25 -2 -10 24 -40 19 -32 -5 4 -11 2 -20 -4 -20 -6 0
-11 -4 -11 -10 0 -5 7 -10 16 -10 8 0 13 -4 10 -9 -3 -5 -14 -7 -25 -4 -15 4
-19 -1 -19 -24 0 -15 5 -34 10 -40 8 -10 4 -13 -15 -13 -14 0 -29 -5 -33 -11
-5 -8 -10 -6 -16 5 -5 9 -14 16 -19 16 -13 0 -1 -63 12 -68 5 -2 9 -8 9 -14 0
-6 -7 -8 -15 -4 -9 3 -15 0 -15 -9 0 -8 9 -15 19 -15 10 0 22 -7 25 -16 3 -9
2 -12 -4 -9 -7 4 -9 -7 -7 -29 4 -32 2 -36 -14 -31 -21 7 -27 -11 -6 -18 14
-5 5 -18 -15 -21 -8 -1 -27 -12 -43 -24 l-29 -23 22 -15 c21 -15 32 -41 12
-29 -5 3 -18 1 -27 -5 -14 -9 -9 -10 26 -5 56 7 63 12 56 36 -5 14 -3 17 9 13
9 -3 16 -2 16 4 0 5 16 22 35 36 35 27 35 27 32 5 -2 -13 -12 -25 -22 -29 -16
-6 -16 -7 -1 -23 16 -16 16 -17 -8 -17 -14 0 -26 -3 -27 -7 -1 -10 -6 -39 -15
-83 -4 -19 -8 -46 -10 -59 -2 -13 -8 -29 -13 -34 -13 -13 -14 -44 -2 -51 15
-10 41 5 39 22 -1 10 0 28 1 42 2 24 2 24 16 -7 8 -18 21 -33 30 -33 24 0 18
44 -10 68 -33 29 -31 51 9 90 37 36 49 40 39 15 -5 -13 -2 -15 11 -10 14 6 16
3 11 -13 -4 -11 -2 -20 2 -20 5 0 18 -7 29 -16 18 -15 17 -15 -13 -10 -31 5
-33 3 -33 -22 0 -16 8 -32 20 -40 27 -16 25 -26 -11 -63 -34 -35 -36 -68 -3
-84 12 -6 29 -17 38 -24 14 -11 16 -11 16 2 0 12 7 15 33 10 22 -3 44 1 67 14
38 21 110 30 110 13 0 -5 -11 -10 -24 -10 -17 0 -30 -10 -45 -35 -19 -33 -19
-36 -3 -65 9 -16 23 -30 30 -30 6 0 12 -9 12 -20 0 -25 8 -25 36 1 32 30 40
-2 9 -39 -18 -21 -21 -32 -13 -40 8 -8 8 -15 0 -25 -10 -11 -8 -20 8 -39 10
-14 17 -28 13 -32 -3 -3 -12 2 -19 12 -9 10 -17 13 -21 7 -5 -5 -22 -10 -38
-11 -63 -2 -101 -16 -139 -49 -21 -19 -42 -35 -47 -35 -5 0 -9 -4 -9 -10 0
-15 32 -12 54 5 26 20 36 19 36 -4 0 -11 6 -22 13 -24 10 -4 10 -6 0 -6 -7 -1
-13 -8 -13 -16 0 -8 6 -15 13 -15 7 0 8 -3 2 -8 -5 -4 -15 -16 -21 -27 -10
-20 -67 -52 -132 -76 -30 -11 -31 -13 -17 -29 8 -9 15 -22 15 -28 0 -6 5 -14
12 -18 8 -5 9 -2 5 9 -3 9 -2 19 3 22 4 3 10 0 12 -5 2 -7 14 -7 36 1 25 8 36
9 45 0 8 -8 8 -11 -2 -11 -11 0 -11 -3 -1 -15 16 -19 27 -19 48 1 15 15 18 14
38 -9 28 -33 71 -46 80 -24 3 9 19 19 35 22 16 4 31 11 34 16 4 5 16 14 28 20
20 11 19 9 -3 -12 -14 -13 -34 -35 -45 -49 -24 -31 -66 -50 -86 -41 -8 4 -37
6 -66 3 -40 -3 -52 -8 -56 -23 -3 -10 -11 -19 -19 -19 -7 0 -18 -13 -24 -29
-11 -29 -103 -103 -149 -121 -14 -5 -25 -14 -25 -19 0 -14 28 -21 33 -8 3 9 9
9 25 0 18 -11 25 -8 51 16 35 33 93 44 147 29 47 -12 62 -6 79 36 13 30 20 35
52 38 21 2 49 -2 63 -8 14 -6 43 -10 65 -9 52 4 54 5 30 15 -17 7 -16 9 10 9
45 2 76 12 68 24 -4 7 0 8 13 3 10 -5 69 -10 129 -11 111 -3 191 12 223 43 7
6 19 12 27 12 16 0 23 18 17 42 -3 14 -12 16 -53 11 -39 -5 -50 -3 -55 11 -3
9 -11 13 -18 9 -7 -4 -8 -3 -1 5 6 6 21 12 35 14 17 2 25 9 25 23 0 13 8 21
23 23 16 2 22 8 18 18 -3 9 1 14 12 14 26 1 47 21 60 59 29 83 6 115 -96 132
-58 9 -71 4 -85 -35 -3 -6 -14 -1 -28 12 l-24 24 23 15 c12 9 22 21 22 28 0
18 -49 75 -64 75 -7 0 -21 9 -31 20 -16 17 -16 20 -2 20 9 0 19 -4 22 -10 3
-5 10 -10 16 -10 15 0 10 26 -11 52 -10 14 -17 28 -14 31 3 3 -3 15 -13 28
-44 56 -73 79 -97 79 -30 0 -60 51 -82 140 -7 30 -21 59 -30 65 -10 6 -28 20
-41 32 -47 45 -75 53 -160 46 -68 -5 -80 -3 -93 12 -14 17 -13 17 8 6 25 -14
72 -7 84 11 3 6 20 11 37 11 33 0 40 17 16 37 -14 12 -24 11 -70 -5 -13 -4
-12 -1 5 9 14 8 33 15 43 16 31 0 111 91 125 142 8 26 20 49 28 52 22 9 17 44
-8 52 -30 9 -229 11 -235 2 -2 -5 -12 -8 -21 -8 -9 0 -30 -7 -46 -15 -16 -9
-32 -12 -35 -9 -3 4 0 9 7 11 6 3 12 11 12 19 0 8 10 14 23 14 20 1 21 2 5 14
-27 20 -22 29 27 60 25 16 45 32 45 35 0 3 10 11 23 16 16 7 22 18 22 40 0 35
-6 37 -95 21z m-75 -156 c3 -6 -1 -7 -9 -4 -18 7 -21 14 -7 14 6 0 13 -4 16
-10z m-214 -255 c-39 -18 -41 -18 -41 -6 0 10 23 18 55 19 13 1 8 -4 -14 -13z
m769 -601 c0 -2 -9 -4 -21 -4 -11 0 -18 4 -14 10 5 8 35 3 35 -6z"/>
<path d="M7065 4799 c-4 -6 -13 -8 -20 -5 -8 3 -28 -2 -44 -10 -17 -9 -35 -13
-41 -9 -5 3 -10 2 -10 -4 0 -5 5 -13 11 -17 8 -4 7 -9 -2 -15 -11 -7 -10 -13
8 -31 21 -20 23 -21 41 -5 10 9 31 17 46 17 15 0 39 11 53 25 26 24 26 25 8
45 -20 22 -40 26 -50 9z"/>
<path d="M2820 4750 c0 -5 -9 -10 -21 -10 -16 0 -19 -4 -14 -20 5 -16 2 -20
-19 -20 -27 0 -31 -7 -18 -26 10 -15 42 -25 42 -13 0 6 4 8 9 5 17 -11 42 6
36 24 -3 9 1 23 10 30 21 18 19 40 -5 40 -11 0 -20 -4 -20 -10z"/>
<path d="M5455 4710 c-19 -8 -19 -9 3 -9 12 -1 22 4 22 9 0 6 -1 10 -2 9 -2 0
-12 -4 -23 -9z"/>
<path d="M7246 4701 c-4 -5 -2 -12 3 -15 5 -4 12 -2 15 3 4 5 2 12 -3 15 -5 4
-12 2 -15 -3z"/>
<path d="M6960 4670 c-8 -5 -11 -12 -8 -16 10 -9 38 3 38 16 0 12 -10 13 -30
0z"/>
<path d="M6441 4619 c-40 -42 -40 -43 -36 -107 2 -36 6 -67 9 -69 9 -10 27 9
22 23 -3 8 -2 14 3 14 18 0 73 62 63 72 -15 15 -3 45 24 63 26 17 23 38 -4 33
-10 -1 -22 1 -29 5 -7 5 -27 -9 -52 -34z"/>
<path d="M2748 4643 c-10 -3 -18 -9 -18 -14 0 -15 30 -23 43 -10 14 14 -2 29
-25 24z"/>
<path d="M2510 4630 c0 -5 5 -10 11 -10 5 0 7 5 4 10 -3 6 -8 10 -11 10 -2 0
-4 -4 -4 -10z"/>
<path d="M2687 4603 c-12 -11 -8 -31 9 -47 14 -15 17 -14 34 6 13 17 15 27 8
36 -11 13 -40 16 -51 5z"/>
<path d="M2840 4591 c0 -15 -5 -18 -22 -13 -14 3 -19 1 -14 -6 3 -6 2 -13 -4
-17 -18 -11 -11 -25 12 -22 12 1 23 -2 23 -8 1 -20 17 -35 36 -35 18 0 20 5
15 33 -8 53 -17 75 -32 81 -9 3 -14 -1 -14 -13z"/>
<path d="M1765 4580 c3 -5 10 -10 16 -10 5 0 9 5 9 10 0 6 -7 10 -16 10 -8 0
-12 -4 -9 -10z"/>
<path d="M5351 4526 c-18 -21 4 -30 29 -13 18 13 19 15 5 21 -22 8 -21 8 -34
-8z"/>
<path d="M6221 4504 c-12 -19 -21 -40 -21 -46 0 -6 -11 -25 -24 -43 -32 -42
-44 -100 -22 -108 11 -4 16 -1 16 12 0 10 7 24 15 31 8 7 15 19 15 27 0 8 10
33 22 56 34 67 38 76 38 92 0 26 -17 17 -39 -21z"/>
<path d="M2684 4519 c-3 -6 2 -20 13 -31 20 -19 20 -19 20 11 0 31 -19 42 -33
20z"/>
<path d="M2918 4503 c7 -3 16 -2 19 1 4 3 -2 6 -13 5 -11 0 -14 -3 -6 -6z"/>
<path d="M2907 4483 c-4 -3 -7 -11 -7 -17 0 -6 5 -5 12 2 6 6 9 14 7 17 -3 3
-9 2 -12 -2z"/>
<path d="M2674 4466 c-8 -22 3 -33 18 -18 9 9 9 15 0 24 -9 9 -13 7 -18 -6z"/>
<path d="M2835 4470 c-4 -6 -3 -16 3 -22 6 -6 12 -6 17 2 4 6 3 16 -3 22 -6 6
-12 6 -17 -2z"/>
<path d="M2798 4380 c-7 -11 -22 -20 -32 -20 -15 0 -17 -3 -9 -11 8 -8 19 -5
42 12 31 23 40 39 21 39 -5 0 -15 -9 -22 -20z"/>
<path d="M2861 4276 c-8 -9 -11 -19 -7 -23 9 -9 29 13 24 27 -2 8 -8 7 -17 -4z"/>
<path d="M2918 4276 c-20 -15 -35 -66 -19 -66 6 0 11 7 11 16 0 9 7 22 16 29
9 6 15 17 13 23 -3 7 -9 7 -21 -2z"/>
<path d="M3013 4271 c-24 -20 -30 -41 -13 -41 6 0 10 5 10 10 0 6 8 10 18 8
11 -2 18 4 20 20 4 27 -6 28 -35 3z"/>
<path d="M5523 4275 c-16 -12 -16 -17 -6 -46 13 -33 10 -49 -8 -49 -6 0 -7 9
-4 20 7 22 -9 28 -21 8 -6 -9 -10 -5 -14 11 -4 17 -13 25 -35 27 -20 2 -25 0
-16 -5 23 -15 5 -41 -29 -41 l-30 0 20 -32 c11 -18 20 -43 20 -55 0 -19 6 -23
28 -23 16 0 39 -9 52 -20 13 -11 29 -20 37 -20 7 0 13 9 13 20 0 15 7 20 25
20 29 0 33 21 8 45 -15 16 -14 18 12 39 26 21 27 26 19 61 -11 44 -41 62 -71
40z"/>
<path d="M5291 4248 c0 -7 4 -22 9 -33 7 -18 8 -18 15 -3 4 11 1 24 -9 33 -12
12 -16 13 -15 3z"/>
<path d="M2830 4222 c0 -6 -3 -19 -7 -29 -6 -16 -5 -16 10 -4 15 12 17 11 17
-4 0 -9 6 -15 13 -12 6 2 12 15 12 28 0 17 -6 25 -22 27 -13 2 -23 -1 -23 -6z"/>
<path d="M5213 4156 c-23 -11 -32 -36 -13 -36 6 0 10 -6 10 -14 0 -15 58 -46
87 -46 16 0 19 -6 15 -30 -3 -18 0 -30 7 -30 6 0 11 7 11 15 0 9 7 18 15 21 8
4 15 15 15 26 0 13 -5 18 -13 15 -10 -4 -13 2 -9 18 3 17 -2 27 -20 36 -12 6
-27 18 -31 25 -9 16 -43 16 -74 0z"/>
<path d="M5310 4161 c0 -5 5 -13 10 -16 6 -3 10 -2 10 4 0 5 -4 13 -10 16 -5
3 -10 2 -10 -4z"/>
<path d="M2693 4123 c-7 -2 -13 -18 -13 -34 0 -29 -13 -39 -25 -19 -3 6 -25
10 -48 10 -32 0 -45 -5 -56 -21 -11 -18 -11 -23 1 -30 10 -7 10 -9 1 -9 -7 0
-13 -7 -13 -15 0 -12 -7 -14 -27 -9 -26 7 -27 6 -14 -10 9 -11 23 -15 35 -12
19 5 57 -9 46 -16 -3 -2 -14 -8 -25 -14 -11 -6 -21 -21 -23 -33 -3 -16 -8 -20
-23 -16 -10 3 -27 7 -38 10 -11 3 -21 0 -24 -9 -5 -13 -10 -13 -37 1 -26 13
-36 13 -55 3 -13 -7 -28 -9 -34 -6 -6 4 -11 2 -11 -3 0 -6 4 -11 9 -11 5 0 11
-9 14 -21 3 -11 15 -23 26 -26 30 -8 26 -23 -9 -29 -34 -7 -41 -24 -10 -24 11
0 20 -4 20 -10 0 -5 -11 -10 -25 -10 -16 0 -25 -6 -25 -16 0 -11 6 -14 20 -9
22 7 28 -10 8 -19 -7 -3 -1 -4 15 -1 15 3 27 1 27 -5 0 -5 20 -10 45 -10 55 0
65 -27 13 -32 -21 -2 -34 -9 -34 -18 -1 -8 -2 -20 -3 -27 0 -6 -11 -15 -23
-19 -20 -6 -20 -7 -4 -19 20 -15 56 -9 74 14 10 13 14 13 21 3 5 -8 11 -13 15
-13 26 4 13 -3 -29 -15 -27 -8 -68 -12 -90 -10 -22 2 -32 1 -22 -1 22 -6 23
-23 1 -23 -12 0 -15 -6 -11 -21 5 -19 3 -21 -25 -15 -18 3 -37 1 -44 -5 -24
-20 -15 -27 26 -22 26 4 40 2 40 -6 0 -6 -11 -11 -24 -11 -23 0 -54 -25 -44
-36 9 -8 62 -8 82 1 14 6 17 5 12 -4 -5 -7 -20 -17 -34 -23 -15 -6 -22 -12
-15 -15 7 -3 26 2 43 10 27 14 54 7 30 -8 -21 -13 -8 -22 37 -24 45 -1 103 16
103 31 0 5 9 8 21 8 16 0 19 4 14 21 -6 18 -4 19 12 11 22 -12 93 6 93 24 0
19 85 41 136 37 43 -4 46 -3 41 16 -3 12 -1 23 4 26 20 13 50 101 44 130 -3
17 -8 48 -11 70 -3 22 -12 53 -20 69 -20 41 -10 70 23 61 19 -4 26 -1 30 15 3
13 14 20 29 20 13 0 24 5 24 10 0 6 -4 10 -9 10 -5 0 -11 9 -14 20 -3 13 0 20
9 20 8 0 14 -5 14 -12 0 -6 2 -9 5 -6 12 12 -9 38 -31 38 -13 0 -24 5 -24 10
0 6 5 10 12 10 7 0 6 6 -3 18 -8 9 -21 29 -28 44 -10 20 -24 28 -54 34 -27 4
-42 3 -45 -5 -2 -6 -10 -11 -17 -11 -8 0 -18 -8 -24 -17 -15 -27 -26 -6 -12
21 20 37 -3 57 -46 39z"/>
<path d="M2640 4101 c0 -6 5 -13 10 -16 6 -3 10 1 10 9 0 9 -4 16 -10 16 -5 0
-10 -4 -10 -9z"/>
<path d="M5897 4091 c-3 -12 4 -23 23 -35 16 -9 33 -16 39 -16 21 0 11 38 -14
54 -32 21 -42 20 -48 -3z"/>
<path d="M5190 4045 c12 -13 27 -22 33 -18 6 4 1 14 -12 25 -34 26 -48 22 -21
-7z"/>
<path d="M5535 4040 c-3 -5 1 -10 10 -10 9 0 13 5 10 10 -3 6 -8 10 -10 10 -2
0 -7 -4 -10 -10z"/>
<path d="M5370 4020 c-10 -18 -7 -22 25 -35 19 -9 46 -13 60 -9 14 3 31 1 38
-4 10 -9 16 -4 24 19 10 25 9 31 -7 39 -33 18 -41 11 -24 -17 11 -19 11 -22 1
-10 -8 9 -26 17 -41 17 -14 0 -26 5 -26 10 0 18 -39 10 -50 -10z"/>
<path d="M3028 4010 c13 -10 22 -22 22 -27 -1 -4 3 -9 9 -11 15 -5 14 5 -5 33
-9 14 -24 25 -33 25 -13 -1 -11 -5 7 -20z"/>
<path d="M5374 3949 c-10 -17 13 -36 27 -22 12 12 4 33 -11 33 -5 0 -12 -5
-16 -11z"/>
<path d="M5738 3953 c7 -3 16 -2 19 1 4 3 -2 6 -13 5 -11 0 -14 -3 -6 -6z"/>
<path d="M5687 3931 c-7 -27 7 -35 33 -19 21 13 27 28 11 28 -5 0 -16 3 -24 6
-9 3 -16 -3 -20 -15z"/>
<path d="M3105 3910 c-3 -11 -13 -20 -21 -20 -19 0 -18 -19 1 -27 20 -7 55 24
55 49 0 24 -27 23 -35 -2z"/>
<path d="M2302 3852 c-9 -3 -7 -9 8 -19 12 -8 24 -13 27 -9 9 9 -21 33 -35 28z"/>
<path d="M4760 3785 c-14 -8 -34 -14 -44 -15 -11 0 -17 -3 -14 -6 12 -11 98 8
98 22 0 17 -8 17 -40 -1z"/>
<path d="M3108 3729 c-10 -6 -14 -17 -11 -30 7 -25 56 -23 61 3 4 22 -28 39
-50 27z"/>
<path d="M4553 3556 c-29 -14 -31 -46 -3 -46 27 0 64 41 48 52 -15 9 -16 9
-45 -6z"/>
<path d="M4345 3390 c3 -5 8 -10 11 -10 2 0 4 5 4 10 0 6 -5 10 -11 10 -5 0
-7 -4 -4 -10z"/>
<path d="M4287 3383 c-26 -7 -16 -26 19 -35 45 -12 62 -2 36 22 -22 20 -24 21
-55 13z"/>
<path d="M3560 3210 c-12 -8 -12 -10 3 -16 9 -3 25 -3 34 0 15 6 15 8 3 16 -8
6 -17 10 -20 10 -3 0 -12 -4 -20 -10z"/>
<path d="M2848 3053 c7 -3 16 -2 19 1 4 3 -2 6 -13 5 -11 0 -14 -3 -6 -6z"/>
<path d="M3385 2980 c-8 -13 4 -32 16 -25 12 8 12 35 0 35 -6 0 -13 -4 -16
-10z"/>
<path d="M3445 2929 c-10 -15 1 -23 20 -15 9 3 13 10 10 16 -8 13 -22 13 -30
-1z"/>
<path d="M3027 2793 c-4 -3 -7 -11 -7 -17 0 -6 5 -5 12 2 6 6 9 14 7 17 -3 3
-9 2 -12 -2z"/>
<path d="M3290 2582 c0 -5 7 -13 16 -16 10 -4 14 -1 12 6 -5 15 -28 23 -28 10z"/>
<path d="M3420 2460 c0 -5 5 -10 11 -10 5 0 7 5 4 10 -3 6 -8 10 -11 10 -2 0
-4 -4 -4 -10z"/>
<path d="M5856 2103 c3 -21 11 -42 17 -48 7 -7 8 -4 3 8 -3 10 -6 32 -6 48 0
16 -5 29 -10 29 -7 0 -8 -14 -4 -37z"/>
<path d="M5960 1960 c24 -22 46 -37 49 -34 7 7 -68 74 -82 74 -6 0 9 -18 33
-40z"/>
<path d="M5190 1800 c0 -5 5 -10 10 -10 6 0 10 5 10 10 0 6 -4 10 -10 10 -5 0
-10 -4 -10 -10z"/>
<path d="M6100 1800 c0 -5 7 -10 15 -10 8 0 15 5 15 10 0 6 -7 10 -15 10 -8 0
-15 -4 -15 -10z"/>
<path d="M5120 1771 c0 -25 -4 -31 -21 -31 -11 0 -29 -5 -40 -10 -24 -13 -53
-80 -40 -93 5 -5 7 -16 4 -23 -3 -9 2 -14 12 -14 14 0 15 -3 5 -15 -10 -12 -9
-15 4 -15 12 0 16 -6 12 -17 -4 -13 2 -22 21 -30 33 -16 41 -11 49 35 4 20 11
43 17 50 14 18 18 94 6 108 -5 6 -8 26 -7 44 2 19 -2 35 -9 37 -9 3 -13 -6
-13 -26z"/>
<path d="M6213 1783 c15 -2 37 -2 50 0 12 2 0 4 -28 4 -27 0 -38 -2 -22 -4z"/>
<path d="M5248 1763 c-29 -7 -20 -23 12 -23 20 0 30 5 30 15 0 15 -9 17 -42 8z"/>
<path d="M6215 1750 c-3 -5 -1 -10 4 -10 6 0 11 5 11 10 0 6 -2 10 -4 10 -3 0
-8 -4 -11 -10z"/>
<path d="M5220 1720 c0 -5 5 -10 10 -10 6 0 10 5 10 10 0 6 -4 10 -10 10 -5 0
-10 -4 -10 -10z"/>
<path d="M5340 1680 c0 -5 5 -10 10 -10 6 0 10 5 10 10 0 6 -4 10 -10 10 -5 0
-10 -4 -10 -10z"/>
<path d="M5051 1445 c-47 -38 -60 -42 -79 -23 -25 25 -23 -21 3 -67 19 -35 24
-55 20 -76 -4 -18 -2 -29 4 -29 14 0 14 -33 1 -46 -15 -15 -23 -114 -9 -114 6
0 9 7 5 15 -3 8 -1 15 4 15 6 0 10 -4 10 -10 0 -14 37 -31 54 -24 9 3 16 17
16 31 0 21 4 24 23 20 12 -2 29 -8 38 -11 14 -6 18 5 27 76 6 46 11 94 12 108
4 84 3 104 -8 108 -7 2 -12 8 -12 13 0 16 -34 49 -50 49 -8 0 -35 -16 -59 -35z"/>
<path d="M5640 1430 c0 -5 5 -10 11 -10 5 0 7 5 4 10 -3 6 -8 10 -11 10 -2 0
-4 -4 -4 -10z"/>
<path d="M5782 1403 c-6 -2 -10 -9 -7 -13 7 -11 35 -2 35 11 0 10 -8 10 -28 2z"/>
<path d="M4329 1269 c14 -5 31 -19 38 -30 18 -24 33 -16 33 17 0 22 -4 24 -47
23 -42 0 -45 -2 -24 -10z"/>
<path d="M4178 1257 c-26 -7 -38 -16 -38 -29 0 -12 -7 -18 -21 -18 -14 0 -19
-5 -17 -17 2 -13 14 -18 43 -20 22 0 41 -6 43 -12 6 -17 37 -13 53 7 16 19 39
59 39 67 0 3 -9 5 -20 5 -11 0 -23 7 -26 15 -4 8 -9 14 -13 14 -3 -1 -23 -6
-43 -12z"/>
<path d="M6627 1233 c-8 -7 42 -73 56 -73 6 0 1 9 -11 20 -12 12 -22 27 -22
35 0 16 -14 27 -23 18z"/>
<path d="M6690 1140 c0 -5 5 -10 11 -10 5 0 7 5 4 10 -3 6 -8 10 -11 10 -2 0
-4 -4 -4 -10z"/>
<path d="M3957 1109 c-29 -22 -28 -39 2 -39 22 0 55 35 46 49 -9 15 -16 13
-48 -10z"/>
<path d="M7125 1100 c-8 -13 3 -30 18 -30 7 0 23 -14 37 -31 22 -27 77 -59
102 -59 5 0 8 12 6 28 -2 21 -9 28 -30 30 -14 2 -32 10 -38 18 -7 8 -16 14
-21 14 -5 0 -18 9 -29 20 -22 22 -36 25 -45 10z"/>
<path d="M7320 1086 c0 -29 17 -43 33 -27 8 8 9 16 1 28 -17 27 -34 27 -34 -1z"/>
<path d="M5970 1060 c0 -5 5 -10 10 -10 6 0 10 5 10 10 0 6 -4 10 -10 10 -5 0
-10 -4 -10 -10z"/>
<path d="M6756 1054 c-9 -22 -8 -24 9 -24 8 0 15 9 15 20 0 24 -15 27 -24 4z"/>
<path d="M5920 1023 c0 -5 7 -18 15 -29 15 -18 15 -18 13 5 -3 23 -28 44 -28
24z"/>
<path d="M6742 988 c-16 -16 3 -48 29 -48 15 0 19 5 15 16 -3 9 -6 22 -6 30 0
17 -22 18 -38 2z"/>
<path d="M6920 965 c-7 -9 -21 -13 -31 -10 -13 4 -19 1 -19 -9 0 -8 -8 -20
-17 -25 -16 -9 -13 -15 25 -50 42 -41 53 -66 30 -74 -10 -3 -8 -14 7 -43 22
-42 38 -47 43 -14 2 11 8 20 13 20 16 0 44 -39 49 -68 6 -32 23 -36 28 -7 2
11 8 24 12 28 11 12 50 -10 50 -28 0 -8 7 -15 15 -15 8 0 15 5 15 10 0 6 -4
10 -9 10 -5 0 -11 23 -13 51 -3 29 -14 62 -27 79 -27 37 -26 42 1 38 12 -2 28
-13 34 -26 10 -20 12 -21 18 -6 4 10 2 22 -4 28 -5 5 -10 18 -10 28 0 11 -7
18 -18 18 -11 0 -27 9 -37 20 -9 10 -34 24 -54 31 -20 6 -40 15 -45 20 -15 14
-42 11 -56 -6z"/>
<path d="M7294 953 c3 -8 6 -17 6 -19 0 -2 9 -4 20 -4 29 0 25 27 -6 33 -19 3
-24 1 -20 -10z"/>
<path d="M7357 924 c-9 -10 79 -94 98 -94 11 0 0 17 -33 50 -52 52 -55 54 -65
44z"/>
<path d="M12 907 c-10 -12 -7 -15 19 -21 46 -9 77 -7 84 5 10 14 6 16 -46 24
-34 5 -48 3 -57 -8z"/>
<path d="M7170 890 c0 -5 5 -10 10 -10 6 0 10 5 10 10 0 6 -4 10 -10 10 -5 0
-10 -4 -10 -10z"/>
<path d="M7290 865 c0 -9 6 -12 15 -9 8 4 15 10 15 15 0 5 -7 9 -15 9 -8 0
-15 -7 -15 -15z"/>
<path d="M7307 835 c-4 -8 -2 -17 3 -20 6 -4 10 -4 10 -1 0 2 3 11 6 20 3 9 2
16 -4 16 -5 0 -12 -7 -15 -15z"/>
<path d="M7380 835 c0 -8 5 -15 10 -15 6 0 10 7 10 15 0 8 -4 15 -10 15 -5 0
-10 -7 -10 -15z"/>
<path d="M7310 790 c0 -5 7 -10 15 -10 8 0 15 5 15 10 0 6 -7 10 -15 10 -8 0
-15 -4 -15 -10z"/>
<path d="M7460 790 c0 -5 -7 -7 -15 -4 -16 6 -45 -12 -45 -27 0 -5 9 -9 20 -9
11 0 20 5 20 12 0 6 8 4 19 -6 17 -15 19 -15 25 -1 10 28 7 45 -9 45 -8 0 -15
-4 -15 -10z"/>
<path d="M7510 780 c0 -5 5 -10 10 -10 6 0 10 5 10 10 0 6 -4 10 -10 10 -5 0
-10 -4 -10 -10z"/>
<path d="M7350 762 c0 -12 -5 -22 -11 -22 -11 0 -39 -25 -39 -35 0 -4 10 -5
22 -3 30 4 58 52 40 70 -9 9 -12 7 -12 -10z"/>
<path d="M100 761 c0 -5 7 -12 16 -15 22 -9 24 -8 24 9 0 8 -9 15 -20 15 -11
0 -20 -4 -20 -9z"/>
<path d="M7527 742 c-10 -10 -17 -22 -17 -26 0 -9 49 27 50 37 0 13 -17 7 -33
-11z"/>
<path d="M5490 736 c0 -2 7 -9 15 -16 12 -10 15 -10 15 4 0 9 -7 16 -15 16 -8
0 -15 -2 -15 -4z"/>
<path d="M7427 723 c-13 -12 -7 -20 15 -18 27 2 37 25 11 25 -11 0 -23 -3 -26
-7z"/>
<path d="M7380 700 c0 -5 5 -10 10 -10 6 0 10 5 10 10 0 6 -4 10 -10 10 -5 0
-10 -4 -10 -10z"/>
<path d="M7593 703 c-18 -7 -16 -23 2 -23 8 0 15 7 15 15 0 8 -1 15 -2 14 -2
0 -9 -3 -15 -6z"/>
<path d="M7452 669 c2 -6 8 -10 13 -10 5 0 11 4 13 10 2 6 -4 11 -13 11 -9 0
-15 -5 -13 -11z"/>
<path d="M7505 660 c-3 -5 1 -10 10 -10 9 0 13 5 10 10 -3 6 -8 10 -10 10 -2
0 -7 -4 -10 -10z"/>
<path d="M7100 641 c0 -12 5 -21 10 -21 6 0 10 6 10 14 0 8 -4 18 -10 21 -5 3
-10 -3 -10 -14z"/>
<path d="M5842 585 c6 -14 19 -25 30 -25 24 0 23 11 -2 33 -29 25 -42 21 -28
-8z"/>
<path d="M7150 576 c0 -9 5 -16 10 -16 6 0 10 4 10 9 0 6 -4 13 -10 16 -5 3
-10 -1 -10 -9z"/>
<path d="M7707 546 c-4 -11 -3 -24 3 -30 14 -14 18 -5 10 24 -5 23 -7 23 -13
6z"/>
<path d="M7196 518 c-11 -42 -7 -46 57 -53 35 -4 74 -16 90 -27 24 -17 36 -18
110 -11 45 4 92 6 104 5 14 -2 24 4 28 18 10 30 2 33 -39 16 -34 -14 -36 -14
-36 3 0 13 -8 18 -27 19 -122 4 -174 10 -189 23 -9 7 -27 12 -39 11 -13 -2
-26 2 -30 7 -10 18 -22 13 -29 -11z"/>
<path d="M8730 528 c-14 -6 -41 -19 -61 -29 -23 -11 -41 -14 -50 -8 -22 14
-56 11 -63 -6 -3 -8 -14 -15 -25 -15 -11 0 -32 -5 -46 -12 -34 -15 -31 -57 5
-76 32 -17 103 -8 147 18 19 11 43 20 53 20 25 0 35 17 20 35 -17 20 2 42 55
66 34 15 36 18 15 18 -14 0 -36 -5 -50 -11z"/>
<path d="M7677 503 c-4 -3 -7 -11 -7 -17 0 -6 5 -5 12 2 6 6 9 14 7 17 -3 3
-9 2 -12 -2z"/>
<path d="M7265 400 c3 -5 8 -10 11 -10 2 0 4 5 4 10 0 6 -5 10 -11 10 -5 0 -7
-4 -4 -10z"/>
<path d="M1380 125 c0 -8 7 -15 15 -15 8 0 15 7 15 15 0 8 -7 15 -15 15 -8 0
-15 -7 -15 -15z"/>
<path d="M1254 78 c-4 -6 1 -15 10 -20 9 -5 14 -13 11 -19 -4 -5 5 -9 19 -9
24 0 44 29 32 48 -8 13 -64 13 -72 0z"/>
<path d="M1357 44 c-3 -5 1 -17 8 -27 7 -10 16 -14 19 -9 3 5 -1 17 -8 27 -7
10 -15 14 -19 9z"/>
</g>
</svg>
