<?xml version="1.0" standalone="no"?>
<!DOCTYPE svg PUBLIC "-//W3C//DTD SVG 20010904//EN"
 "http://www.w3.org/TR/2001/REC-SVG-20010904/DTD/svg10.dtd">
<svg version="1.0" xmlns="http://www.w3.org/2000/svg"
 width="1024.000000pt" height="829.000000pt" viewBox="0 0 1024.000000 829.000000"
 preserveAspectRatio="xMidYMid meet">
<metadata>
Created by potrace 1.16, written by Peter Selinger 2001-2019
</metadata>
<g transform="translate(0.000000,829.000000) scale(0.100000,-0.100000)"
fill="#000000" stroke="none">
<path d="M7885 8262 c-33 -15 -80 -42 -105 -60 -60 -45 -108 -69 -155 -78 -22
-4 -53 -15 -70 -26 -22 -13 -50 -18 -109 -18 -70 0 -84 -3 -129 -31 -46 -28
-55 -30 -116 -26 -36 3 -101 17 -144 32 -88 31 -111 29 -161 -15 -32 -29 -38
-30 -124 -30 -89 0 -90 0 -118 -33 -16 -18 -40 -49 -54 -70 l-25 -37 -86 0
-87 0 -33 -37 c-17 -21 -73 -65 -123 -98 l-91 -60 -9 -57 c-8 -55 -7 -59 28
-115 34 -54 35 -58 17 -61 -11 -2 -50 15 -87 37 -70 43 -104 51 -104 27 0 -8
-5 -16 -12 -18 -13 -5 -99 8 -185 28 -87 20 -121 17 -172 -12 -108 -61 -446
-152 -521 -140 -21 3 -57 15 -81 25 -54 25 -62 19 -108 -76 -25 -51 -31 -71
-23 -87 7 -17 3 -29 -20 -59 -32 -40 -75 -67 -96 -60 -24 9 -61 -7 -67 -30
-13 -42 -46 -67 -87 -67 -57 0 -88 -20 -151 -98 -71 -89 -123 -116 -205 -110
-78 7 -167 43 -217 89 -52 48 -82 50 -130 8 -58 -51 -38 -109 38 -109 34 0 37
-2 37 -28 0 -15 -7 -38 -16 -50 -12 -18 -25 -22 -70 -22 -35 0 -69 -7 -93 -19
-33 -18 -39 -25 -43 -63 -10 -76 0 -187 19 -218 21 -37 27 -37 66 -4 16 14 57
39 90 55 59 30 60 31 103 14 62 -24 69 -36 69 -129 1 -91 13 -121 85 -216 23
-30 52 -78 65 -107 13 -28 41 -78 64 -111 37 -54 44 -60 90 -69 44 -9 55 -7
103 16 l53 26 0 75 c1 81 24 140 55 140 9 0 40 27 69 59 43 50 59 61 98 69 43
10 50 8 88 -18 23 -16 70 -36 105 -45 35 -9 79 -27 99 -41 49 -33 124 -33 191
1 43 22 50 29 50 55 0 25 -4 30 -25 30 -35 0 -75 21 -74 39 0 9 8 41 17 71
l17 54 77 26 c81 28 108 44 108 66 0 18 165 178 228 221 41 28 55 32 115 33
69 0 111 -14 137 -45 8 -9 35 -28 62 -41 43 -22 48 -28 48 -58 0 -30 -9 -43
-66 -94 -109 -98 -68 -131 92 -73 125 45 201 42 258 -10 28 -27 64 -24 138 11
74 35 120 38 168 10 80 -46 72 -47 157 6 43 27 114 74 157 105 47 34 103 64
138 75 59 17 60 17 111 -5 29 -13 79 -32 112 -44 33 -11 82 -38 109 -60 l50
-39 18 24 c9 13 18 29 18 36 0 17 14 15 70 -9 43 -18 52 -19 76 -7 15 7 29 18
31 24 2 6 -19 33 -47 60 -28 27 -73 77 -101 112 -47 57 -54 62 -90 62 -21 0
-39 3 -39 6 0 12 151 234 160 234 4 0 16 22 24 48 9 27 37 80 62 118 39 60 44
74 39 104 -14 75 -59 81 -126 19 -24 -23 -69 -52 -99 -64 -30 -12 -88 -43
-128 -68 -84 -55 -257 -228 -282 -284 -20 -44 -67 -88 -130 -122 -25 -13 -59
-41 -75 -63 -17 -22 -50 -51 -75 -66 -25 -14 -55 -34 -68 -46 -18 -16 -40 -21
-115 -24 -50 -2 -99 -8 -109 -13 -14 -8 -17 1 -23 67 -7 75 -7 75 29 127 45
65 84 107 118 129 36 23 73 89 92 162 17 69 52 110 116 138 25 11 54 28 66 39
11 10 49 30 83 44 138 54 165 78 244 225 25 47 70 116 101 154 30 38 73 106
95 151 52 107 127 177 308 285 211 127 308 208 287 241 -9 16 -57 8 -119 -19z"/>
<path d="M5338 8058 c-16 -17 -28 -37 -28 -45 0 -61 71 -73 120 -22 34 36 34
38 18 74 -17 38 -74 35 -110 -7z"/>
<path d="M8085 7415 c-55 -16 -194 -102 -227 -139 -31 -35 -35 -64 -13 -105
18 -36 25 -38 108 -35 93 4 107 17 107 100 0 62 1 64 40 95 29 24 40 40 40 60
0 36 -7 39 -55 24z"/>
<path d="M4088 7071 c-25 -10 -57 -17 -70 -14 -16 3 -31 -4 -48 -22 l-25 -27
24 -19 c32 -26 86 -18 153 23 36 22 48 36 48 54 0 29 -17 30 -82 5z"/>
<path d="M7657 6882 c-20 -21 -37 -43 -37 -50 0 -6 -14 -15 -32 -20 -39 -10
-53 -31 -44 -65 6 -24 11 -27 48 -27 27 0 55 9 84 28 l44 27 0 73 c0 85 -9 90
-63 34z"/>
<path d="M1235 6627 c-65 -67 -122 -115 -162 -137 l-62 -35 -1 -57 0 -58 45 0
c41 0 47 3 70 39 15 22 47 50 76 65 64 35 123 114 138 184 13 61 14 102 4 102
-5 -1 -53 -47 -108 -103z"/>
<path d="M8140 6693 c-8 -2 -26 -19 -40 -38 -14 -19 -45 -49 -70 -66 -58 -41
-157 -154 -192 -219 -15 -28 -36 -63 -46 -78 -10 -15 -36 -67 -58 -116 -21
-48 -48 -94 -59 -100 -11 -7 -46 -28 -77 -46 -58 -34 -58 -34 -58 -82 0 -42 3
-48 25 -54 23 -6 25 -11 25 -64 0 -32 3 -65 6 -74 8 -22 31 -20 43 2 5 10 38
34 73 52 35 19 89 60 122 92 32 33 80 70 105 83 45 23 101 76 136 129 9 14 37
33 61 42 31 12 44 22 44 36 0 24 34 90 55 108 9 7 23 26 31 41 8 16 29 33 49
40 19 7 35 17 35 22 0 6 -20 32 -45 58 -39 42 -45 54 -45 91 0 27 -10 62 -27
95 -28 54 -43 61 -93 46z"/>
<path d="M8720 6535 c0 -46 4 -60 25 -80 13 -14 29 -25 35 -25 20 0 49 44 50
75 0 25 -8 35 -44 58 -24 15 -48 27 -55 27 -7 0 -11 -20 -11 -55z"/>
<path d="M8438 6533 c-25 -6 -24 -67 1 -102 11 -15 23 -40 27 -55 3 -15 12
-30 19 -33 20 -7 73 24 80 47 5 16 15 20 51 20 l44 0 0 38 c-1 23 -9 47 -23
64 -20 25 -26 26 -61 18 -23 -5 -49 -5 -63 1 -25 9 -45 10 -75 2z"/>
<path d="M3218 6489 c-24 -13 -23 -56 2 -96 18 -30 24 -33 70 -33 49 0 50 1
50 30 0 17 -9 49 -20 70 -18 34 -25 40 -53 40 -17 0 -40 -5 -49 -11z"/>
<path d="M864 6253 c-59 -64 -58 -61 -44 -97 9 -24 14 -26 70 -26 l61 0 20 47
c12 28 19 63 17 87 -3 38 -5 41 -36 44 -30 3 -40 -3 -88 -55z"/>
<path d="M689 6059 c-26 -10 -39 -33 -39 -74 0 -11 -16 -50 -35 -87 -39 -77
-35 -80 46 -44 59 26 87 52 114 105 16 32 16 36 -1 72 -18 41 -34 47 -85 28z"/>
<path d="M377 5678 c-19 -35 -38 -74 -42 -88 -4 -14 -23 -52 -41 -86 -40 -71
-40 -74 -14 -74 24 0 242 159 264 192 17 28 32 98 20 98 -5 0 -31 -11 -58 -25
-27 -14 -51 -25 -52 -25 -1 0 -8 16 -14 35 -6 19 -15 35 -20 35 -5 0 -25 -28
-43 -62z"/>
<path d="M9600 5612 c0 -33 7 -45 44 -80 54 -51 67 -94 38 -125 -29 -32 -82
-122 -82 -139 0 -20 77 -71 96 -64 18 7 34 48 34 85 0 21 15 43 55 83 62 62
67 85 36 154 -16 35 -29 46 -103 82 -107 53 -118 54 -118 4z"/>
<path d="M6206 5190 c-21 -17 -50 -30 -62 -30 -22 0 -24 -4 -24 -56 0 -30 -8
-78 -17 -106 -16 -50 -16 -54 6 -113 12 -34 19 -69 15 -78 -9 -23 6 -21 58 8
25 14 50 37 57 52 7 15 26 44 42 64 l30 38 -3 123 -3 123 -30 2 c-20 1 -43 -8
-69 -27z"/>
<path d="M33 5129 c-29 -18 -33 -26 -33 -64 0 -39 3 -44 30 -54 22 -7 30 -16
30 -34 0 -35 9 -38 51 -16 l39 19 0 85 0 85 -42 0 c-26 0 -56 -9 -75 -21z"/>
<path d="M2936 4978 c-7 -18 -16 -41 -19 -50 -14 -39 -65 -52 -223 -58 -171
-6 -179 -9 -213 -84 -29 -67 -37 -70 -159 -61 -182 14 -195 13 -256 -20 -75
-40 -82 -32 -79 90 1 52 -2 97 -7 100 -5 3 -21 -10 -35 -30 -15 -19 -51 -46
-79 -60 -58 -28 -86 -70 -86 -128 0 -26 -6 -36 -32 -52 -18 -10 -53 -36 -77
-57 l-45 -39 -90 7 c-106 7 -200 -7 -236 -36 -55 -44 -72 -53 -114 -57 -49 -6
-51 -8 -66 -115 -10 -70 -37 -98 -125 -128 -63 -21 -91 -37 -144 -82 l-32 -28
10 -69 c8 -62 34 -120 53 -121 3 0 16 -16 28 -35 21 -34 21 -36 4 -63 -33 -51
-159 -184 -239 -253 -68 -58 -87 -70 -128 -75 -68 -9 -92 -44 -83 -122 6 -52
4 -60 -19 -84 -45 -49 -49 -74 -20 -134 14 -29 45 -74 69 -101 57 -64 76 -102
77 -160 2 -79 10 -96 64 -125 36 -20 65 -28 101 -28 67 0 136 -22 209 -66 56
-34 69 -38 190 -50 149 -15 299 -50 540 -127 196 -63 255 -85 345 -132 l65
-33 180 8 c121 5 193 12 221 23 48 18 152 13 196 -9 56 -29 154 -10 206 39 13
12 35 41 49 64 21 36 32 44 78 58 36 10 62 26 80 47 14 17 45 44 68 60 23 16
59 48 79 71 l37 41 36 -17 c49 -23 56 -22 95 18 42 43 66 41 147 -13 l53 -35
36 19 c19 10 49 34 66 52 26 26 40 32 75 32 46 0 49 -5 55 -80 3 -31 6 -35 34
-38 68 -7 144 46 193 133 27 48 34 54 51 45 10 -5 32 -10 49 -10 27 0 31 5 50
55 25 66 26 85 6 111 -15 19 -16 18 -36 -8 -28 -37 -53 -35 -78 6 -16 25 -21
50 -21 97 0 60 -3 68 -41 119 -33 44 -40 60 -35 83 3 16 6 37 6 47 0 9 16 38
36 64 32 42 35 52 31 94 -2 26 -16 74 -30 107 -28 66 -66 95 -124 95 -21 0
-33 5 -33 14 0 32 27 85 67 133 43 50 44 52 45 128 1 94 -6 102 -131 165 -80
40 -91 49 -100 80 -6 19 -22 52 -36 73 -26 37 -26 37 -97 37 -55 0 -79 5 -107
22 -62 38 -95 69 -116 112 -36 74 -118 174 -156 192 -34 15 -39 15 -72 -1 -34
-16 -77 -80 -77 -113 0 -7 -9 -12 -20 -12 -18 0 -20 7 -20 87 0 87 0 87 37
125 35 36 36 40 25 71 -7 18 -12 43 -12 55 0 30 -127 151 -158 152 -17 0 -27
-9 -36 -32z"/>
<path d="M9116 4899 c-30 -24 -32 -45 -9 -94 16 -34 19 -35 70 -35 l53 0 0 43
c0 55 -31 107 -64 107 -13 0 -35 -9 -50 -21z"/>
<path d="M4997 4694 c-33 -18 -47 -50 -47 -109 0 -49 17 -62 70 -50 51 11 73
75 49 144 -12 35 -29 38 -72 15z"/>
<path d="M10062 4295 c-59 -27 -72 -47 -48 -74 9 -10 16 -23 16 -29 0 -24 40
-52 73 -52 48 0 77 34 77 91 0 35 -6 51 -23 67 -29 27 -30 27 -95 -3z"/>
<path d="M4468 4087 c-42 -33 -44 -38 -36 -92 1 -5 -2 -38 -6 -72 -7 -59 -6
-63 25 -97 35 -41 44 -42 120 -20 40 12 65 28 97 61 39 43 42 49 42 103 0 115
-32 150 -139 150 -52 0 -65 -4 -103 -33z"/>
<path d="M8681 4047 c-31 -12 -34 -17 -34 -53 0 -98 0 -100 44 -119 34 -16 45
-17 73 -7 18 7 47 12 64 12 l32 0 0 63 c0 59 -2 65 -31 87 -38 27 -101 35
-148 17z"/>
<path d="M168 3868 c-21 -12 -38 -25 -38 -29 0 -9 100 -99 109 -99 3 1 19 12
35 25 27 21 29 26 18 50 -7 14 -12 37 -12 50 0 22 -4 25 -37 25 -21 0 -55 -10
-75 -22z"/>
<path d="M4324 3773 c-9 -36 4 -54 67 -85 77 -39 109 -45 109 -22 0 37 -113
134 -155 134 -8 0 -18 -12 -21 -27z"/>
<path d="M5492 3747 c-16 -18 -25 -64 -18 -90 3 -13 20 -30 41 -40 34 -16 37
-16 60 0 30 22 33 71 8 114 -13 22 -25 29 -49 29 -17 0 -36 -6 -42 -13z"/>
<path d="M6134 3698 c3 -13 6 -28 6 -35 0 -18 84 -112 124 -139 34 -23 66 -31
79 -18 3 3 -3 28 -14 55 -10 28 -19 74 -19 104 l0 55 -91 0 c-90 0 -91 0 -85
-22z"/>
<path d="M9387 3402 c-30 -33 -38 -70 -22 -102 19 -37 42 -49 104 -57 44 -5
50 -3 70 23 17 21 21 39 19 73 -3 44 -4 45 -53 62 -65 23 -98 23 -118 1z"/>
<path d="M5806 3250 c-56 -32 -66 -44 -66 -86 0 -17 -5 -45 -11 -62 -9 -27 -8
-37 11 -67 12 -19 26 -35 31 -35 16 0 64 27 78 44 35 42 56 15 102 -128 13
-43 34 -83 55 -105 l33 -36 38 20 38 20 3 77 c4 99 -18 184 -68 268 -65 107
-80 120 -142 119 -38 -1 -67 -9 -102 -29z"/>
<path d="M10018 2783 c-14 -4 -18 -15 -18 -58 0 -50 3 -56 50 -104 42 -42 56
-51 86 -51 36 0 73 15 86 34 10 15 -2 105 -18 138 -8 15 -23 32 -33 38 -19 10
-119 12 -153 3z"/>
<path d="M2759 2055 c-62 -17 -63 -17 -98 -79 -36 -62 -39 -86 -12 -86 11 0
28 -11 38 -25 16 -22 22 -24 51 -15 19 5 56 23 83 41 49 31 49 32 49 84 0 48
-3 56 -29 74 -16 12 -31 21 -33 20 -1 0 -24 -7 -49 -14z"/>
<path d="M6827 1814 c-51 -27 -67 -53 -67 -110 0 -43 46 -136 94 -189 l36 -40
30 35 c17 19 44 57 60 85 28 47 28 51 13 75 -8 14 -22 30 -30 37 -9 7 -17 37
-20 72 -6 61 -6 61 -37 61 -17 -1 -53 -12 -79 -26z"/>
<path d="M1384 1729 c-28 -10 -54 -52 -54 -87 0 -22 9 -36 33 -55 26 -20 39
-42 57 -99 12 -40 27 -84 32 -97 l8 -23 27 26 c26 26 26 26 20 152 -4 104 -8
131 -24 153 -21 28 -68 42 -99 30z"/>
<path d="M9409 1008 c-21 -17 -39 -71 -39 -118 0 -35 2 -37 53 -53 67 -21 87
-21 87 -1 0 9 9 27 20 41 26 34 27 94 0 118 -25 23 -100 31 -121 13z"/>
<path d="M3526 909 c-38 -30 -37 -95 2 -132 35 -33 40 -33 97 0 39 24 45 32
45 61 0 19 -8 47 -17 63 -15 25 -24 29 -59 29 -27 0 -51 -7 -68 -21z"/>
<path d="M7547 805 c-58 -20 -85 -51 -97 -109 -6 -28 -16 -63 -23 -76 -11 -21
-11 -31 -1 -56 27 -65 69 -52 113 36 16 33 33 59 38 58 4 -2 17 -21 28 -43 13
-26 27 -40 40 -40 12 0 28 15 42 40 33 59 24 108 -32 163 -48 46 -53 47 -108
27z"/>
<path d="M3099 721 c-47 -10 -99 -26 -116 -34 -16 -9 -79 -30 -138 -46 -59
-16 -110 -33 -113 -36 -6 -6 -12 -74 -12 -140 0 -31 -6 -45 -31 -67 -36 -34
-46 -36 -175 -41 -74 -3 -110 -9 -137 -23 -37 -20 -195 -153 -196 -166 -1 -5
18 -21 41 -38 37 -27 48 -30 117 -30 50 0 107 9 166 25 49 14 93 25 97 25 4 0
10 -10 13 -22 4 -13 14 -33 22 -46 14 -23 15 -23 41 -6 29 19 48 39 88 97 23
32 28 51 31 120 4 69 8 84 26 96 12 9 57 48 100 88 96 90 106 96 138 77 13 -7
36 -19 51 -26 15 -7 28 -22 31 -38 4 -16 23 -38 52 -59 45 -32 50 -33 118 -29
51 4 91 14 137 35 65 30 130 89 130 119 0 9 -17 32 -37 50 -34 31 -42 34 -99
34 -53 0 -66 4 -99 30 -21 17 -43 30 -49 30 -6 0 -22 9 -36 20 -30 24 -50 24
-161 1z"/>
<path d="M6415 251 c-14 -16 -16 -30 -10 -68 3 -26 6 -71 5 -100 0 -67 15 -83
84 -83 53 0 53 0 64 39 7 21 12 75 12 120 l0 82 -35 15 c-49 20 -98 18 -120
-5z"/>
</g>
</svg>
