<?xml version="1.0" standalone="no"?>
<!DOCTYPE svg PUBLIC "-//W3C//DTD SVG 20010904//EN"
 "http://www.w3.org/TR/2001/REC-SVG-20010904/DTD/svg10.dtd">
<svg version="1.0" xmlns="http://www.w3.org/2000/svg"
 width="560.000000pt" height="1024.000000pt" viewBox="0 0 560.000000 1024.000000"
 preserveAspectRatio="xMidYMid meet">
<metadata>
Created by potrace 1.16, written by Peter Selinger 2001-2019
</metadata>
<g transform="translate(0.000000,1024.000000) scale(0.100000,-0.100000)"
fill="#000000" stroke="none">
<path d="M3195 10219 c-54 -9 -64 -18 -108 -98 -44 -83 -106 -108 -184 -76
-19 8 -46 15 -58 15 -50 0 -106 -75 -135 -179 -5 -20 -25 -58 -44 -85 -41 -57
-57 -123 -80 -338 -15 -136 -15 -156 0 -250 21 -132 14 -152 -86 -234 -105
-85 -113 -98 -119 -198 -6 -84 -25 -126 -57 -126 -7 0 -36 21 -66 46 -56 48
-196 129 -249 144 -44 13 -88 -8 -134 -63 -51 -62 -101 -82 -196 -82 -65 1
-86 6 -142 33 -92 45 -119 80 -146 186 -21 83 -132 316 -179 372 -58 72 -188
70 -264 -3 -32 -30 -37 -77 -13 -109 22 -30 18 -48 -25 -105 -22 -30 -40 -64
-40 -77 0 -54 54 -121 180 -224 25 -20 68 -65 95 -99 130 -162 162 -187 316
-243 68 -25 129 -68 171 -123 112 -145 168 -228 173 -257 4 -18 2 -68 -4 -111
-8 -58 -8 -99 1 -162 10 -68 10 -90 -1 -116 -20 -48 -24 -92 -12 -116 7 -12
34 -32 61 -46 41 -21 50 -30 56 -60 9 -49 -1 -92 -31 -127 -14 -16 -28 -42
-32 -56 -10 -42 23 -149 75 -237 l47 -80 0 -126 0 -125 -40 -85 c-36 -75 -40
-92 -40 -159 0 -86 11 -118 75 -216 25 -38 63 -111 84 -161 48 -116 78 -151
168 -198 40 -21 96 -55 123 -76 28 -21 86 -57 130 -82 49 -27 89 -57 104 -78
22 -33 23 -39 17 -167 -6 -146 0 -177 48 -221 31 -29 33 -61 5 -87 -36 -33
-40 -48 -19 -90 33 -64 31 -66 -68 -58 -156 12 -174 -8 -381 -411 -101 -197
-175 -307 -251 -374 l-70 -63 0 -59 0 -59 -42 -21 c-23 -12 -78 -56 -123 -99
-44 -42 -94 -84 -110 -93 -47 -24 -77 -64 -141 -182 -57 -106 -59 -113 -59
-185 l0 -75 -45 -23 c-52 -26 -71 -24 -137 18 -52 33 -88 38 -120 15 -23 -16
-56 -112 -88 -250 -15 -67 -19 -73 -91 -140 l-75 -71 6 -149 c7 -144 8 -153
41 -221 43 -89 55 -158 48 -282 -6 -101 3 -158 57 -382 19 -80 23 -122 23
-270 0 -174 0 -176 -37 -295 -20 -66 -44 -153 -53 -194 -15 -69 -15 -79 1
-140 9 -36 20 -110 25 -164 12 -149 31 -168 200 -198 169 -30 192 -48 203
-162 4 -41 15 -72 36 -105 16 -26 35 -69 41 -97 18 -79 30 -91 112 -110 90
-20 125 -41 167 -100 45 -62 68 -70 156 -50 64 14 122 36 365 139 90 38 119
42 188 26 58 -14 93 3 168 79 51 54 67 64 110 72 27 5 60 18 74 29 50 40 80
50 219 70 78 11 165 29 194 40 74 28 118 76 125 135 4 42 7 46 26 40 12 -4 57
-9 102 -12 100 -7 162 10 259 69 l70 43 115 0 c91 0 122 4 148 18 54 30 112
87 161 162 25 38 94 128 154 200 59 71 136 173 172 226 35 53 106 142 158 198
68 72 106 123 137 183 24 46 63 112 88 148 25 36 75 121 112 190 37 69 93 165
125 215 32 49 80 136 107 193 43 93 57 113 136 191 49 48 102 109 118 136 28
48 29 55 29 177 l0 126 42 84 c68 132 69 122 -37 232 -51 52 -106 118 -124
146 -42 66 -147 173 -216 220 -30 20 -90 54 -134 76 -50 25 -105 64 -152 107
-71 66 -85 91 -65 112 19 20 90 172 106 228 25 87 22 186 -7 239 -19 34 -39
50 -108 87 -101 55 -130 91 -130 161 0 26 7 67 15 90 24 69 20 112 -17 161
-40 51 -90 79 -140 79 -41 0 -64 18 -84 67 -26 61 -19 90 36 143 42 40 50 54
50 84 0 36 -19 56 -96 102 -16 10 -17 15 -5 68 7 32 14 116 16 187 2 78 7 135
14 143 7 8 25 19 41 26 27 11 30 17 30 61 0 75 -41 188 -150 408 -55 111 -114
235 -130 275 -20 48 -54 100 -103 158 -88 105 -147 202 -147 243 0 52 93 315
216 610 20 50 38 108 38 131 1 35 -5 48 -49 96 -27 30 -79 105 -114 167 -73
127 -104 158 -196 190 -127 45 -166 91 -219 259 -33 107 -33 152 4 252 44 119
39 160 -29 224 -17 17 -31 37 -31 46 0 9 20 36 45 60 50 49 53 66 31 141 -22
70 2 170 56 234 42 50 52 77 51 140 -1 76 -34 163 -76 205 -19 19 -53 36 -87
46 -30 8 -72 19 -94 25 -21 6 -48 22 -60 35 -11 14 -48 53 -81 87 -42 44 -66
80 -79 118 -11 30 -24 57 -30 61 -13 9 -45 8 -111 -3z"/>
<path d="M2400 5230 c-42 -12 -87 -38 -94 -55 -12 -32 -6 -75 14 -95 21 -21
110 -29 110 -10 0 6 16 33 35 61 19 28 35 54 35 58 -1 29 -58 52 -100 41z"/>
<path d="M1554 4013 c-41 -20 -74 -54 -74 -73 0 -29 37 -53 80 -53 91 0 131
103 52 131 -23 8 -37 7 -58 -5z"/>
<path d="M830 3441 c-17 -33 -12 -96 11 -125 40 -51 139 -25 139 37 0 18 -11
28 -50 46 -28 13 -55 31 -60 42 -14 24 -27 24 -40 0z"/>
<path d="M868 749 c-13 -7 -18 -22 -18 -50 0 -32 4 -41 24 -51 14 -6 32 -8 40
-5 21 8 21 80 0 101 -18 19 -23 19 -46 5z"/>
<path d="M1117 588 c-56 -51 -37 -120 37 -133 129 -25 143 119 15 150 -19 5
-33 0 -52 -17z"/>
<path d="M134 563 c-3 -16 -9 -41 -13 -58 -5 -23 -19 -36 -57 -55 -42 -21 -49
-29 -49 -54 0 -22 7 -33 34 -47 21 -11 35 -27 36 -39 3 -36 32 -54 93 -60 48
-4 58 -9 69 -30 17 -34 51 -60 79 -60 31 0 55 46 62 122 4 51 8 61 34 76 16 9
32 28 35 41 6 26 5 28 -114 127 -45 38 -114 64 -169 64 -28 0 -35 -4 -40 -27z"/>
<path d="M600 538 c-23 -25 -28 -103 -7 -132 14 -19 127 -36 127 -19 0 5 -13
27 -29 48 -16 22 -27 45 -24 52 7 19 -17 73 -33 73 -7 0 -22 -10 -34 -22z"/>
<path d="M1095 368 c-100 -34 -126 -58 -99 -96 37 -54 214 -6 214 58 0 44 -49
60 -115 38z"/>
<path d="M494 311 c-33 -20 -74 -78 -74 -105 0 -27 45 -42 88 -29 112 34 141
57 125 101 -19 54 -80 69 -139 33z"/>
<path d="M650 171 c-17 -33 -11 -61 19 -92 35 -35 74 -38 95 -7 38 54 1 118
-67 118 -26 0 -39 -6 -47 -19z"/>
</g>
</svg>
