<?xml version="1.0" standalone="no"?>
<!DOCTYPE svg PUBLIC "-//W3C//DTD SVG 20010904//EN"
 "http://www.w3.org/TR/2001/REC-SVG-20010904/DTD/svg10.dtd">
<svg version="1.0" xmlns="http://www.w3.org/2000/svg"
 width="656.000000pt" height="576.000000pt" viewBox="0 0 656.000000 576.000000"
 preserveAspectRatio="xMidYMid meet">
<metadata>
Created by potrace 1.16, written by Peter Selinger 2001-2019
</metadata>
<g transform="translate(0.000000,576.000000) scale(0.100000,-0.100000)"
fill="#000000" stroke="none">
<path d="M2995 5639 c-22 -10 -71 -29 -110 -41 -149 -46 -169 -76 -166 -240 3
-122 -12 -183 -61 -262 -49 -79 -121 -129 -217 -152 -32 -7 -96 -36 -143 -63
-68 -40 -88 -58 -97 -83 -6 -18 -20 -42 -31 -54 -25 -25 -17 -52 16 -60 23 -6
34 -24 15 -24 -5 0 -28 -16 -52 -36 -37 -31 -48 -35 -83 -31 -23 3 -66 14 -96
25 -31 12 -95 27 -144 34 -73 10 -89 10 -96 -1 -11 -19 -40 -6 -40 17 0 10 -9
27 -20 37 -21 19 -27 69 -10 80 6 3 10 17 10 30 0 19 -7 24 -41 30 -26 4 -45
3 -52 -4 -16 -16 -73 -13 -87 5 -9 10 -25 14 -49 11 -29 -3 -35 -7 -33 -23 22
-155 25 -166 81 -249 l41 -60 0 -110 c0 -92 3 -115 20 -140 18 -27 18 -31 3
-47 -24 -26 -96 -25 -114 3 -13 19 -18 19 -64 9 -27 -6 -57 -17 -65 -25 -13
-12 -22 -11 -64 2 -52 17 -54 17 -84 -33 -4 -6 -21 -15 -37 -18 -29 -6 -34 -3
-78 61 -86 123 -81 120 -180 128 l-87 7 -6 -30 c-6 -28 -9 -30 -62 -34 -31 -3
-58 -10 -60 -16 -2 -7 -14 -7 -40 0 -30 8 -61 4 -180 -23 -142 -33 -144 -34
-157 -67 -13 -29 -12 -37 2 -67 15 -32 21 -35 57 -35 23 0 47 4 55 9 18 12 71
-7 71 -25 0 -10 -15 -14 -61 -14 -57 0 -60 -1 -57 -22 3 -20 9 -23 52 -23 38
0 51 -4 63 -22 13 -19 12 -22 -6 -28 -11 -3 -29 -1 -40 4 -34 19 -99 13 -122
-10 -28 -28 -21 -40 37 -59 46 -16 49 -19 55 -56 9 -65 24 -84 69 -84 29 0 42
5 50 20 14 25 52 26 74 1 10 -11 37 -21 65 -25 34 -4 55 -14 75 -35 l28 -29
-31 -7 c-51 -11 -37 -56 17 -55 9 0 28 9 42 20 48 37 90 21 90 -35 0 -19 8
-39 20 -50 19 -17 21 -17 38 -2 22 20 59 22 65 5 2 -9 26 -13 68 -13 l64 0 3
-45 c1 -25 5 -60 7 -77 6 -32 8 -33 54 -33 47 0 48 -1 60 -40 9 -32 17 -40 35
-40 14 0 28 -9 36 -24 11 -22 10 -29 -9 -61 -34 -58 -28 -92 24 -141 40 -36
45 -45 45 -85 0 -41 3 -46 48 -76 26 -18 81 -47 123 -66 42 -19 79 -42 83 -52
6 -18 -11 -18 -108 -3 -13 2 -25 -7 -35 -24 -14 -24 -14 -28 3 -47 23 -25 39
-27 56 -6 7 9 29 15 54 15 56 0 96 -39 96 -93 0 -48 -31 -68 -50 -33 -7 13
-25 33 -40 45 l-29 21 -6 -31 c-6 -26 -2 -36 24 -63 26 -27 31 -40 31 -82 l0
-51 52 -24 c29 -13 78 -48 109 -77 56 -52 57 -54 63 -123 4 -39 5 -73 2 -77
-3 -3 -13 12 -22 34 -16 39 -109 158 -131 168 -6 2 -19 -1 -29 -8 -15 -12 -20
-44 -33 -220 l-15 -206 27 -28 c34 -36 34 -40 -5 -38 l-32 1 -22 -185 c-13
-108 -32 -220 -47 -270 -14 -47 -31 -112 -37 -144 -10 -47 -21 -69 -52 -102
-22 -24 -56 -48 -74 -54 -39 -13 -39 -13 -19 -44 12 -18 29 -25 68 -30 95 -13
97 -14 97 -56 0 -21 -7 -43 -15 -50 -22 -19 -19 -50 5 -50 11 0 23 7 26 15 8
19 30 19 37 0 14 -34 80 -63 154 -67 66 -4 75 -7 95 -34 62 -79 58 -76 116
-63 45 11 60 10 107 -5 42 -13 55 -22 55 -37 0 -10 4 -19 9 -19 5 0 45 -5 88
-11 45 -6 114 -8 161 -4 l84 7 -7 44 c-6 43 -5 45 17 40 13 -3 57 -10 98 -16
56 -8 79 -16 89 -30 10 -15 25 -20 60 -20 44 0 48 -2 65 -36 16 -35 18 -36 35
-20 18 16 22 16 70 0 41 -13 51 -21 51 -39 0 -16 14 -31 50 -53 34 -21 50 -38
50 -52 0 -28 64 -29 82 0 17 27 82 27 123 0 17 -11 47 -20 69 -20 32 0 49 8
91 45 32 27 69 48 92 53 37 8 38 9 36 48 -17 254 -16 258 10 310 33 63 102
133 137 140 14 3 73 41 131 85 57 43 109 79 115 79 6 0 19 -9 29 -20 15 -16
31 -20 87 -20 38 0 78 5 88 10 16 9 22 5 35 -20 8 -16 26 -32 39 -36 20 -5
154 -1 271 8 38 3 40 2 37 -24 -2 -14 1 -29 5 -31 5 -3 73 -20 150 -38 174
-39 229 -36 290 16 30 25 52 35 95 40 l56 7 6 60 c7 54 10 61 42 80 19 11 43
37 54 57 10 20 29 43 43 50 14 7 33 30 42 51 14 30 29 43 86 70 38 19 69 38
69 43 0 4 -5 17 -11 28 -9 17 -5 28 17 62 30 45 38 115 17 152 -11 19 -12 18
-24 -9 l-13 -28 -76 7 c-41 4 -82 13 -91 21 -8 8 -31 14 -49 14 -23 0 -46 11
-76 36 -46 37 -56 67 -28 78 15 6 14 10 -7 32 l-24 26 23 18 c21 17 23 26 20
90 l-3 72 -50 17 c-42 14 -51 22 -53 44 -2 18 -13 32 -30 41 -20 10 -28 23
-30 45 -2 31 -2 31 45 31 36 0 57 7 95 32 47 33 47 33 48 90 0 54 -2 58 -40
88 -33 26 -40 38 -40 66 0 28 -4 34 -20 34 -12 0 -32 7 -45 16 -36 24 -34 67
5 94 54 39 56 53 10 120 -26 38 -48 60 -60 60 -18 0 -18 2 -4 35 19 45 19 44
-22 89 l-36 38 -37 -20 c-20 -11 -55 -23 -78 -27 -55 -9 -66 -23 -51 -63 11
-28 10 -34 -11 -56 -30 -32 -82 -42 -98 -19 -18 24 -16 32 11 44 22 10 46 46
46 69 0 5 -9 11 -19 15 -28 9 -32 29 -12 68 11 22 15 41 9 50 -6 12 6 28 47
64 l55 48 0 68 c0 45 4 69 13 71 6 3 23 7 37 10 18 4 43 32 87 98 34 51 65
105 68 120 7 27 6 28 -24 22 -27 -6 -31 -4 -31 14 0 21 65 82 88 82 7 0 15 -7
18 -15 10 -25 86 -20 111 8 30 33 34 63 14 126 -14 47 -15 62 -5 98 8 27 10
61 5 97 -5 40 -1 102 16 217 l23 161 49 54 c45 52 61 88 61 146 0 11 -18 22
-57 35 -52 17 -64 18 -118 7 l-60 -13 -26 29 c-28 33 -73 41 -83 15 -8 -22
-75 -19 -100 4 -24 22 -76 18 -76 -5 0 -9 -11 -14 -29 -14 -24 0 -38 12 -85
75 -68 90 -111 117 -149 92 -13 -8 -48 -18 -79 -22 -51 -6 -56 -5 -75 19 -25
31 -26 31 -62 5 -39 -29 -75 -19 -121 34 -29 33 -53 48 -95 61 -30 10 -64 25
-74 34 -26 23 -41 75 -41 138 0 30 -3 54 -7 54 -5 0 -27 -27 -50 -60 l-43 -60
-64 0 c-69 0 -89 12 -79 48 3 12 -1 29 -8 38 -7 9 -12 33 -10 53 4 58 -22 75
-103 66 l-65 -6 -14 33 c-20 48 -42 62 -90 59 -37 -2 -44 1 -59 27 -10 17 -18
41 -18 54 0 14 -13 37 -30 53 l-30 29 -28 -27 c-15 -15 -32 -27 -37 -27 -5 0
-35 17 -67 38 -55 35 -58 39 -58 78 0 39 -24 105 -38 103 -4 0 -25 -9 -47 -20z"/>
<path d="M1290 4855 c0 -24 5 -35 15 -35 10 0 15 11 15 35 0 24 -5 35 -15 35
-10 0 -15 -11 -15 -35z"/>
<path d="M1097 4763 c-15 -14 -7 -63 12 -73 31 -16 69 -12 81 9 17 32 12 38
-37 55 -54 19 -48 18 -56 9z"/>
<path d="M1273 4621 c-31 -26 -29 -53 8 -80 24 -18 38 -21 65 -16 20 3 34 12
34 20 0 15 -67 95 -79 95 -3 -1 -16 -9 -28 -19z"/>
<path d="M1080 4615 c0 -8 9 -15 20 -15 11 0 20 7 20 15 0 8 -9 15 -20 15 -11
0 -20 -7 -20 -15z"/>
<path d="M133 4219 c-16 -16 -5 -39 18 -39 24 0 37 29 18 41 -18 11 -23 11
-36 -2z"/>
<path d="M785 3570 c-9 -15 21 -41 40 -34 9 4 14 13 11 21 -3 8 -6 17 -6 19 0
9 -39 4 -45 -6z"/>
<path d="M920 3522 c0 -14 51 -62 61 -57 13 8 -28 65 -47 65 -8 0 -14 -3 -14
-8z"/>
<path d="M824 3495 c-12 -30 4 -45 46 -45 45 0 48 5 21 38 -22 25 -59 29 -67
7z"/>
<path d="M1197 3293 c-4 -3 -7 -16 -7 -29 0 -15 9 -25 29 -32 27 -9 30 -8 36
15 3 14 1 31 -6 39 -12 15 -41 19 -52 7z"/>
<path d="M1153 3123 c-7 -2 -13 -13 -13 -24 0 -14 7 -19 30 -19 33 0 35 3 20
31 -11 19 -16 21 -37 12z"/>
<path d="M1292 2993 c5 -26 38 -29 38 -4 0 15 -6 21 -21 21 -14 0 -19 -5 -17
-17z"/>
<path d="M6261 1169 c0 -24 4 -53 8 -64 13 -32 -14 -73 -53 -80 -27 -5 -35
-13 -42 -38 -8 -25 -18 -33 -56 -46 -98 -33 -162 -133 -127 -198 10 -19 10
-28 1 -43 -7 -11 -12 -33 -12 -50 0 -26 3 -30 29 -30 42 0 58 -23 37 -55 -9
-13 -16 -38 -16 -55 0 -28 3 -30 35 -30 32 0 35 -2 35 -30 0 -17 -6 -40 -12
-51 -10 -17 -10 -23 -1 -26 34 -12 60 -43 56 -67 -6 -31 24 -52 90 -61 26 -4
59 -16 72 -27 40 -31 68 -18 83 39 34 133 37 163 19 193 -26 43 -22 112 8 148
20 24 25 41 25 88 0 33 -6 71 -14 86 -8 14 -19 50 -25 79 -7 30 -23 73 -36 97
-20 36 -25 59 -25 115 0 75 -16 137 -36 137 -7 0 -19 3 -28 6 -13 5 -16 -2
-15 -37z"/>
</g>
</svg>
