<?xml version="1.0" standalone="no"?>
<!DOCTYPE svg PUBLIC "-//W3C//DTD SVG 20010904//EN"
 "http://www.w3.org/TR/2001/REC-SVG-20010904/DTD/svg10.dtd">
<svg version="1.0" xmlns="http://www.w3.org/2000/svg"
 width="944.000000pt" height="1024.000000pt" viewBox="0 0 944.000000 1024.000000"
 preserveAspectRatio="xMidYMid meet">
<metadata>
Created by potrace 1.16, written by Peter Selinger 2001-2019
</metadata>
<g transform="translate(0.000000,1024.000000) scale(0.100000,-0.100000)"
fill="#000000" stroke="none">
<path d="M4640 10220 c-163 -9 -192 -20 -272 -103 l-68 -69 -1 -66 c-1 -37 -3
-461 -4 -942 -1 -481 -3 -880 -4 -886 -2 -21 -762 -43 -1491 -44 -350 0 -548
-4 -574 -11 -21 -6 -60 -30 -86 -55 l-47 -44 -29 31 c-16 17 -44 39 -61 50
-28 18 -38 19 -68 9 -47 -15 -73 -5 -89 35 -28 66 -129 68 -223 5 -41 -27 -54
-31 -91 -26 -56 8 -109 -14 -118 -48 -4 -17 2 -38 21 -69 18 -32 37 -98 62
-219 33 -156 36 -191 39 -350 2 -190 -3 -213 -44 -202 -29 8 -37 43 -23 99 14
55 14 125 0 145 -6 8 -12 11 -15 5 -17 -39 -47 -75 -63 -75 -31 0 -40 22 -43
105 -3 73 -5 80 -24 83 -27 4 -187 -60 -239 -96 -87 -60 -95 -131 -22 -182 83
-57 96 -72 126 -134 19 -40 44 -75 66 -92 20 -15 43 -40 51 -56 27 -53 86 -54
135 -2 35 37 46 30 51 -33 6 -69 30 -93 92 -93 31 0 57 9 96 35 85 53 125 47
85 -14 -14 -20 -27 -50 -31 -67 -5 -26 -1 -35 21 -53 36 -28 72 -27 172 6 92
30 77 31 277 -20 l90 -23 -60 -17 c-80 -22 -169 -37 -218 -37 -40 0 -175 -25
-183 -34 -3 -2 14 -32 37 -66 23 -33 48 -76 56 -95 14 -35 19 -85 8 -85 -14 0
-93 79 -161 160 -39 47 -83 91 -98 98 -57 26 -146 5 -160 -38 -10 -31 -18 -24
-40 33 -23 61 -61 87 -101 69 -20 -10 -23 -19 -26 -74 l-3 -63 -34 69 c-25 50
-46 77 -77 99 -38 27 -45 37 -54 86 -6 31 -18 83 -26 116 -24 100 -69 116
-114 42 -33 -54 -35 -110 -9 -252 19 -103 24 -163 24 -290 -1 -147 -4 -171
-33 -290 -18 -71 -37 -179 -43 -238 -11 -124 -35 -195 -100 -290 -151 -221
-146 -210 -153 -296 -11 -123 -30 -126 -105 -14 -59 88 -118 98 -161 27 -22
-34 -22 -37 -7 -87 22 -73 29 -124 22 -149 -6 -16 -13 -7 -41 51 -19 39 -44
75 -54 81 -25 13 -73 -9 -96 -45 -18 -27 -34 -25 -34 5 0 51 -24 124 -52 156
-32 36 -104 64 -166 64 -29 0 -33 -3 -27 -17 4 -10 32 -83 62 -163 63 -168
125 -299 183 -388 52 -80 125 -235 151 -326 35 -116 69 -134 109 -56 37 72 45
54 46 -103 2 -167 1 -164 137 -373 46 -71 96 -149 110 -174 37 -64 97 -250 97
-301 1 -67 16 -120 43 -147 l25 -25 62 47 c70 52 103 57 140 23 14 -12 51 -44
83 -71 69 -58 94 -103 103 -183 l7 -58 -24 16 c-13 9 -28 32 -34 51 -20 70
-50 89 -193 118 -130 26 -132 26 -132 -7 0 -39 19 -63 151 -193 179 -179 218
-235 274 -395 39 -111 56 -142 112 -203 54 -57 81 -65 112 -31 22 24 68 23 85
-3 13 -22 -2 -67 -29 -82 -11 -6 -22 -12 -25 -14 -3 -2 45 -52 105 -110 61
-59 148 -149 194 -200 95 -106 148 -149 386 -319 250 -178 311 -235 455 -423
77 -101 100 -123 202 -191 66 -45 102 -78 153 -143 36 -47 89 -105 117 -129
60 -51 59 -70 -1 -87 -22 -6 -43 -15 -46 -20 -6 -9 83 -64 203 -124 61 -31 79
-46 117 -99 53 -75 91 -124 187 -243 40 -49 94 -117 119 -150 25 -33 71 -81
102 -108 66 -56 55 -62 132 65 39 65 48 91 61 169 24 146 43 170 199 248 171
85 212 127 230 234 7 43 45 78 84 78 78 -1 172 -83 227 -199 60 -127 65 -131
142 -131 78 0 138 25 175 73 26 35 47 88 47 120 0 19 -48 70 -109 115 -17 13
-31 32 -31 43 0 26 61 55 135 64 65 8 88 17 123 48 27 25 28 58 3 112 -25 55
-38 64 -138 89 -47 11 -88 26 -90 32 -2 6 23 21 56 33 67 24 120 76 153 148
23 52 14 98 -32 161 -32 45 -119 94 -258 147 -88 33 -116 56 -177 140 -25 36
-52 65 -58 65 -7 0 -41 -38 -75 -85 -66 -92 -92 -106 -92 -52 0 39 22 87 89
196 28 47 56 102 62 124 14 54 -3 125 -46 196 l-35 57 2 125 c2 68 -1 133 -6
143 -8 17 -6 18 27 12 62 -12 103 -34 145 -77 48 -51 55 -50 176 26 49 30 96
55 106 55 21 0 50 -25 50 -44 0 -24 56 -65 120 -87 62 -21 83 -22 428 -26 333
-3 362 -2 362 13 0 10 -7 53 -16 96 -11 55 -14 104 -10 161 3 45 9 145 12 222
6 139 6 141 -18 170 -38 45 -48 70 -48 115 0 49 -20 91 -54 114 -15 9 -26 20
-26 24 0 9 251 47 316 47 44 0 57 -5 95 -36 62 -51 80 -58 159 -68 39 -5 78
-15 86 -22 25 -21 60 -97 94 -209 49 -161 66 -187 157 -246 32 -20 55 -43 59
-58 7 -28 -9 -86 -37 -132 -11 -17 -19 -36 -19 -42 0 -6 26 -13 58 -17 31 -3
90 -13 130 -21 60 -13 83 -13 122 -4 59 14 84 9 203 -40 119 -49 168 -55 291
-35 135 21 191 47 227 103 16 25 46 57 68 71 48 32 67 57 111 139 31 58 73
102 98 102 26 0 212 -299 212 -341 0 -9 -20 -47 -45 -85 -25 -37 -45 -79 -45
-91 0 -24 40 -73 60 -73 6 0 47 14 91 32 78 30 83 31 159 21 99 -13 127 -8
145 27 33 63 64 88 123 100 111 22 141 45 122 94 -10 26 -32 44 -101 79 -79
41 -78 65 6 127 45 34 63 55 87 107 27 58 30 70 23 126 -19 176 -10 191 86
140 41 -23 61 -29 63 -20 2 6 9 41 15 77 19 99 67 237 110 312 21 37 36 69 33
72 -3 3 -18 6 -34 6 -73 0 -133 50 -132 109 2 53 32 105 118 201 128 145 154
219 107 305 -18 33 -20 50 -15 98 6 52 4 61 -22 100 -24 35 -30 56 -35 127 -4
65 -14 107 -43 179 -42 105 -41 122 3 186 35 51 47 84 61 168 34 210 29 347
-14 422 -13 22 -52 70 -85 107 -125 136 -178 142 -306 33 l-53 -46 -10 53 c-5
29 -14 98 -20 154 -10 104 -36 176 -67 188 -9 3 -31 6 -48 6 -18 0 -64 18
-105 40 -40 22 -78 40 -85 40 -6 0 -25 -14 -43 -31 l-32 -31 -12 22 c-15 29
-16 110 -1 138 6 12 33 50 60 86 47 62 54 80 67 181 7 56 -10 133 -30 141 -7
3 -34 -4 -61 -16 -26 -11 -51 -18 -54 -14 -3 3 -6 63 -6 132 0 208 46 339 137
397 26 17 69 44 95 60 60 37 75 67 63 120 -6 26 -5 44 1 50 6 5 61 10 122 10
112 0 113 0 198 42 47 23 97 45 111 48 51 13 63 38 68 145 l5 98 58 60 c31 33
57 62 57 65 0 2 14 41 30 87 41 113 40 142 -6 177 -45 34 -56 46 -97 102 -21
29 -53 55 -95 77 -35 18 -69 38 -78 44 -14 13 -37 83 -49 152 -8 50 -52 92
-123 118 -31 11 -76 27 -99 36 -32 12 -53 30 -87 78 -73 102 -122 126 -299
145 -134 15 -164 1 -219 -98 -16 -29 -21 -31 -70 -31 -35 0 -71 -9 -106 -25
-30 -14 -68 -25 -86 -25 -23 0 -41 -9 -62 -31 -16 -17 -44 -38 -62 -46 -30
-12 -41 -12 -108 7 -96 27 -120 22 -196 -46 -79 -70 -107 -76 -193 -36 -36 17
-65 35 -65 39 0 5 13 24 29 44 39 47 71 109 77 151 9 53 -12 111 -70 195 -29
43 -60 92 -68 108 -39 78 -30 166 34 335 41 108 44 136 22 233 -7 28 2 39 108
133 42 38 48 63 48 199 0 128 -17 160 -97 187 -88 29 -150 27 -218 -9 -88 -45
-108 -47 -183 -22 -57 19 -70 20 -100 9 -24 -8 -60 -10 -117 -5 -78 6 -83 5
-112 -19 l-31 -26 -143 11 c-79 7 -182 12 -229 13 -99 2 -157 15 -252 57 -66
29 -72 30 -227 30 -149 0 -163 2 -208 24 -26 14 -83 30 -125 36 -73 11 -117 9
-258 -7 -38 -4 -85 1 -154 15 -102 22 -162 23 -376 11z"/>
</g>
</svg>
