<?xml version="1.0" standalone="no"?>
<!DOCTYPE svg PUBLIC "-//W3C//DTD SVG 20010904//EN"
 "http://www.w3.org/TR/2001/REC-SVG-20010904/DTD/svg10.dtd">
<svg version="1.0" xmlns="http://www.w3.org/2000/svg"
 width="1024.000000pt" height="382.000000pt" viewBox="0 0 1024.000000 382.000000"
 preserveAspectRatio="xMidYMid meet">
<metadata>
Created by potrace 1.16, written by Peter Selinger 2001-2019
</metadata>
<g transform="translate(0.000000,382.000000) scale(0.100000,-0.100000)"
fill="#000000" stroke="none">
<path d="M5721 2930 c-146 -61 -275 -110 -288 -110 -12 0 -100 19 -195 41
-146 35 -173 39 -182 27 -6 -8 -75 -96 -154 -196 -130 -165 -146 -190 -171
-265 l-28 -82 -1531 3 -1532 4 1 -94 c0 -51 3 -122 7 -158 7 -62 12 -72 80
-160 40 -52 72 -100 72 -107 0 -7 -11 -47 -25 -90 -13 -42 -23 -78 -22 -79 1
-1 90 -16 197 -34 l195 -32 363 176 363 175 547 16 547 16 312 94 313 95 295
-105 c163 -58 300 -105 305 -105 4 0 33 20 63 45 31 25 58 45 62 45 10 0 -78
-122 -92 -127 -6 -3 -143 41 -303 96 l-292 101 -110 -80 c-63 -45 -124 -82
-142 -84 -27 -4 -1504 -77 -1547 -76 -9 0 -57 -61 -113 -144 l-99 -145 36 -98
c49 -134 49 -128 4 -128 l-39 0 -41 98 c-27 63 -47 97 -57 97 -15 0 -511 -130
-519 -136 -2 -2 2 -10 9 -19 19 -23 8 -26 -41 -11 -24 8 -96 29 -159 46 -63
17 -122 33 -131 36 -10 3 -43 61 -78 137 l-61 132 7 115 6 116 -84 33 c-46 19
-105 42 -130 52 l-46 18 -93 -102 c-51 -56 -151 -162 -223 -236 l-129 -134 22
-86 c12 -47 28 -106 35 -131 14 -48 47 -168 115 -420 23 -85 45 -161 49 -168
5 -8 47 37 122 132 l114 145 176 0 c97 1 652 -4 1233 -10 582 -6 1060 -9 1062
-6 2 2 11 71 19 153 8 82 25 203 38 269 l23 120 79 7 c44 4 377 30 740 58 363
27 678 52 700 55 l40 6 139 265 c126 241 144 269 185 300 87 63 60 70 331 -87
135 -78 317 -183 405 -234 88 -51 246 -142 350 -202 l190 -110 260 -53 260
-52 276 -133 275 -132 246 -7 245 -8 244 71 c134 38 331 95 438 126 107 30
202 61 210 68 16 12 199 164 213 176 4 3 -4 56 -16 116 -13 61 -27 126 -30
147 -6 32 -25 51 -187 182 -100 80 -188 146 -197 146 -10 0 -145 -43 -302 -95
-157 -52 -403 -134 -546 -181 l-261 -86 -169 97 -169 98 -113 177 c-62 98
-118 182 -125 187 -7 5 -65 24 -129 41 l-117 32 -167 -72 -167 -72 -36 44
c-20 24 -101 123 -181 220 -80 96 -154 187 -166 202 -19 24 -42 30 -300 82
-153 31 -288 56 -299 56 -11 -1 -139 -50 -284 -110z m-2957 -1545 c-10 -8 -26
-14 -34 -14 -9 0 -4 6 10 14 33 19 49 19 24 0z m-659 -75 c37 -38 56 -63 50
-69 -6 -5 -30 -11 -54 -13 l-45 -3 -12 65 c-7 36 -13 68 -13 73 -2 17 18 3 74
-53z"/>
</g>
</svg>
