<?xml version="1.0" standalone="no"?>
<!DOCTYPE svg PUBLIC "-//W3C//DTD SVG 20010904//EN"
 "http://www.w3.org/TR/2001/REC-SVG-20010904/DTD/svg10.dtd">
<svg version="1.0" xmlns="http://www.w3.org/2000/svg"
 width="776.000000pt" height="388.000000pt" viewBox="0 0 776.000000 388.000000"
 preserveAspectRatio="xMidYMid meet">
<metadata>
Created by potrace 1.16, written by Peter Selinger 2001-2019
</metadata>
<g transform="translate(0.000000,388.000000) scale(0.100000,-0.100000)"
fill="#000000" stroke="none">
<path d="M314 3609 c-57 -16 -77 -50 -136 -226 -6 -17 -8 -38 -5 -46 3 -8 43
-27 89 -42 174 -58 182 -65 208 -172 20 -89 64 -123 119 -93 22 11 111 -14
188 -53 49 -25 61 -27 183 -27 147 0 162 -5 224 -69 34 -37 44 -41 86 -41 57
0 72 -14 99 -92 24 -70 44 -108 77 -147 24 -29 30 -31 68 -26 49 6 226 -42
258 -72 31 -28 41 -54 103 -258 43 -145 66 -204 95 -247 44 -66 65 -124 80
-222 11 -72 34 -125 73 -172 54 -65 101 -195 114 -314 12 -122 -38 -272 -114
-335 -48 -40 -82 -102 -83 -147 0 -44 56 -80 138 -88 38 -3 85 -16 109 -28 23
-12 49 -22 58 -22 8 0 42 27 74 61 51 52 63 60 83 53 13 -4 48 -6 78 -4 123 9
197 3 327 -30 113 -28 135 -31 149 -19 9 7 34 49 55 94 55 113 71 130 134 136
26 2 155 -10 155 -15 0 0 -5 -17 -10 -36 -7 -25 -7 -43 1 -63 11 -26 15 -28
52 -22 38 7 41 6 111 -63 64 -63 200 -162 223 -162 5 0 17 -6 27 -13 18 -13
18 -15 0 -42 -16 -24 -16 -29 -4 -33 8 -3 35 -27 60 -54 l45 -48 58 20 c72 26
119 16 159 -32 26 -32 27 -32 71 -21 31 9 55 9 78 3 19 -6 67 -10 108 -10 67
0 76 2 107 30 19 16 44 32 57 34 12 2 54 9 92 15 39 6 108 23 155 38 69 23 87
33 98 56 15 30 30 33 98 16 34 -9 48 -9 57 0 16 16 39 14 88 -9 24 -11 59 -20
76 -20 38 0 106 25 145 53 25 18 38 20 143 14 63 -3 115 -3 115 2 0 4 -11 18
-25 31 -44 41 -24 72 35 52 18 -7 41 -7 60 -2 34 10 153 93 184 130 58 69 171
180 188 186 10 3 38 -5 63 -17 41 -21 49 -22 82 -10 34 13 39 11 126 -34 61
-32 106 -48 143 -52 30 -3 54 -9 54 -14 0 -4 -8 -21 -17 -38 -17 -29 -17 -30
6 -54 85 -91 343 -157 433 -111 25 13 40 14 91 5 33 -6 69 -17 81 -26 122 -88
118 -86 172 -79 45 5 54 3 83 -22 l34 -28 18 25 c38 51 49 59 83 59 39 0 46
14 46 93 0 27 9 70 21 97 27 63 21 85 -41 153 -39 43 -66 61 -118 82 -98 38
-223 115 -249 154 -16 24 -23 49 -23 81 0 54 -7 60 -74 60 -58 0 -73 15 -91
88 -23 89 -19 103 38 130 55 25 127 95 150 145 23 48 13 103 -22 115 -14 5
-41 7 -59 4 -28 -4 -37 1 -76 44 l-45 48 -58 -12 c-52 -11 -65 -10 -116 8 -31
11 -77 20 -102 20 -40 0 -47 3 -57 28 -23 53 -37 62 -97 62 -51 0 -62 4 -116
44 -33 25 -71 48 -85 51 -37 10 -50 24 -50 55 0 37 33 76 75 90 19 6 38 19 43
28 4 9 7 71 7 137 l0 120 -25 3 c-63 6 -137 27 -156 43 -17 16 -34 18 -110 16
-49 -2 -106 -10 -127 -17 l-39 -15 -71 80 c-39 44 -89 97 -109 119 l-38 39
-61 -7 c-54 -6 -65 -4 -104 18 -45 27 -89 33 -115 16 -8 -5 -26 -46 -40 -92
-32 -105 -48 -110 -86 -31 -47 100 -52 103 -166 103 l-98 0 -17 -34 -16 -34
-83 -4 c-96 -4 -125 -19 -163 -87 -29 -53 -65 -75 -143 -91 -49 -9 -67 -19
-99 -51 -21 -21 -41 -39 -44 -39 -3 0 -32 11 -65 25 -33 14 -77 25 -98 25 -26
0 -45 7 -57 20 -17 19 -17 22 9 79 14 32 26 66 26 74 0 32 -47 67 -135 102
-49 20 -104 49 -120 65 -23 22 -52 34 -118 50 -50 12 -101 18 -117 15 -49 -11
-185 39 -287 104 -84 55 -92 63 -98 98 -4 21 -8 43 -10 48 -1 6 -42 30 -90 54
-71 35 -101 45 -156 49 -66 4 -69 4 -99 -27 -17 -17 -39 -31 -48 -31 -9 0 -59
14 -110 32 -70 24 -98 39 -113 60 -26 36 -39 35 -107 -4 -47 -26 -66 -31 -131
-33 -55 -1 -90 -8 -125 -25 -53 -24 -51 -24 -205 11 -41 9 -46 8 -72 -17 -22
-21 -34 -25 -56 -20 -15 4 -74 10 -131 15 -59 5 -109 14 -118 22 -9 8 -49 29
-88 49 -48 24 -75 44 -84 63 -18 38 -37 43 -76 22 -32 -17 -34 -17 -116 10
-68 22 -93 26 -140 22 -54 -6 -61 -4 -96 24 -21 16 -45 29 -53 28 -36 -3 -52
3 -86 32 -34 30 -247 119 -284 119 -10 0 -31 -11 -47 -25 -16 -14 -37 -25 -48
-25 -17 0 -130 18 -257 40 -66 12 -132 12 -175 -1z"/>
</g>
</svg>
