<?xml version="1.0" standalone="no"?>
<!DOCTYPE svg PUBLIC "-//W3C//DTD SVG 20010904//EN"
 "http://www.w3.org/TR/2001/REC-SVG-20010904/DTD/svg10.dtd">
<svg version="1.0" xmlns="http://www.w3.org/2000/svg"
 width="616.000000pt" height="808.000000pt" viewBox="0 0 616.000000 808.000000"
 preserveAspectRatio="xMidYMid meet">
<metadata>
Created by potrace 1.16, written by Peter Selinger 2001-2019
</metadata>
<g transform="translate(0.000000,808.000000) scale(0.100000,-0.100000)"
fill="#000000" stroke="none">
<path d="M1806 7918 c-7 -13 -26 -58 -40 -100 -20 -59 -26 -93 -24 -150 l2
-73 3 62 c4 72 17 86 61 74 22 -7 36 -5 49 5 17 12 15 13 -13 14 -37 0 -51 14
-54 55 -3 47 -1 53 21 74 12 11 18 24 15 29 -3 6 -1 12 6 14 9 3 9 6 0 11 -6
5 -17 -2 -26 -15z"/>
<path d="M2055 7760 c-11 -5 -35 -9 -52 -9 -31 -1 -33 -3 -33 -40 0 -21 7 -54
15 -74 8 -19 12 -37 9 -40 -3 -3 11 -17 31 -33 42 -32 69 -78 62 -105 -3 -12
-1 -18 7 -17 7 2 31 -19 54 -45 56 -64 56 -94 1 -130 -22 -15 -53 -27 -69 -27
-96 0 -155 -27 -97 -46 20 -7 20 -8 -10 -16 -39 -10 -45 -44 -13 -73 17 -15
24 -16 43 -7 12 7 45 14 73 16 29 2 57 7 64 11 19 11 21 0 4 -23 -8 -12 -24
-22 -35 -22 -13 0 -19 -7 -19 -21 0 -11 -5 -29 -11 -41 -15 -28 7 -82 30 -72
35 15 61 16 61 3 0 -7 7 -20 16 -30 23 -25 11 -89 -16 -89 -10 0 -22 5 -25 10
-8 12 -42 13 -49 1 -8 -12 21 -79 51 -119 18 -23 31 -32 44 -29 11 3 51 1 90
-4 52 -6 78 -15 101 -34 16 -14 34 -25 39 -25 5 0 14 -21 20 -46 9 -36 20 -51
45 -66 23 -14 34 -27 34 -43 0 -41 18 -74 52 -95 31 -19 43 -23 106 -36 12 -2
22 -9 22 -15 0 -16 -55 -4 -110 24 -49 24 -61 35 -87 87 -10 19 -28 47 -41 61
-13 15 -40 55 -60 90 l-37 64 -58 3 c-35 2 -69 -3 -89 -12 -82 -37 -153 -29
-220 25 -42 34 -67 11 -100 -94 -34 -105 -34 -122 -3 -199 24 -59 24 -62 8
-87 -10 -14 -21 -33 -25 -41 -5 -11 -7 -10 -7 6 -1 11 8 29 19 39 25 23 20 30
-35 44 -28 7 -51 20 -61 36 -30 46 -67 29 -79 -37 -7 -36 -6 -38 19 -38 22 0
26 -4 26 -30 0 -40 -26 -90 -47 -90 -8 0 -27 12 -40 26 -13 14 -30 24 -37 21
-8 -3 -18 5 -25 19 -14 33 -15 30 19 43 36 12 50 40 27 53 -10 5 -17 16 -17
23 0 8 -3 15 -7 15 -15 0 -53 67 -53 92 0 19 -6 27 -25 30 -26 5 -177 -13
-259 -32 -33 -7 -52 -7 -61 0 -14 12 -99 3 -131 -14 -12 -6 -41 -29 -64 -50
-36 -32 -41 -42 -32 -55 30 -41 28 -53 -10 -55 -27 -1 -40 -45 -36 -124 l3
-57 92 -10 c89 -10 138 -25 71 -22 -28 2 -34 -2 -36 -23 -2 -14 -9 -31 -14
-37 -13 -16 -17 -64 -21 -208 -2 -105 -3 -113 -34 -161 -34 -53 -53 -124 -53
-203 0 -70 -6 -74 -92 -66 -50 5 -83 3 -97 -4 -23 -13 -28 -50 -10 -68 8 -8 6
-13 -8 -17 -17 -5 -19 -12 -14 -44 8 -46 39 -63 124 -67 58 -4 62 -6 81 -38
18 -31 19 -39 7 -89 -8 -31 -11 -61 -7 -67 9 -14 -119 -141 -142 -141 -17 0
-72 -54 -72 -70 0 -4 14 -13 30 -20 17 -7 37 -22 45 -33 12 -18 11 -23 -11
-52 -19 -26 -34 -34 -72 -39 -26 -3 -62 -15 -80 -26 -18 -11 -46 -20 -62 -20
-20 0 -30 -5 -30 -15 0 -8 -7 -15 -15 -15 -8 0 -15 3 -15 8 0 4 -15 13 -33 20
-17 7 -47 20 -65 29 -34 17 -54 11 -34 -9 19 -19 14 -29 -13 -22 -16 4 -34 0
-50 -10 -13 -9 -31 -16 -40 -16 -18 0 -18 -2 -4 -34 9 -19 9 -29 0 -40 -9 -11
-7 -15 14 -20 20 -5 25 -13 25 -36 0 -23 5 -31 26 -36 21 -5 24 -11 19 -31 -4
-18 2 -34 24 -62 17 -21 35 -49 40 -63 16 -42 7 -141 -15 -174 -11 -16 -30
-43 -41 -60 -35 -51 -35 -99 0 -90 18 4 23 1 24 -14 1 -13 -13 -27 -42 -44
-24 -15 -53 -39 -65 -56 -18 -25 -24 -28 -40 -18 -25 16 -31 9 -24 -34 6 -33
8 -35 43 -34 30 1 37 -3 39 -22 2 -12 12 -27 23 -32 25 -14 25 -56 0 -69 -23
-13 -32 -53 -20 -97 7 -25 16 -33 36 -36 19 -2 31 -14 47 -46 14 -29 30 -44
49 -50 l28 -7 -30 -29 c-26 -25 -28 -31 -19 -57 9 -25 15 -29 49 -29 32 0 39
-4 39 -19 0 -11 4 -23 10 -26 5 -3 9 -23 9 -43 -1 -20 2 -49 6 -64 7 -26 5
-28 -24 -28 -24 0 -31 -4 -31 -20 0 -13 -12 -25 -35 -34 -29 -13 -35 -20 -35
-45 0 -17 -3 -31 -8 -31 -14 0 -31 -97 -22 -131 16 -63 22 -79 31 -79 5 0 17
-16 26 -35 9 -19 24 -37 34 -40 9 -3 20 -12 23 -20 3 -8 12 -15 19 -15 8 0 20
-7 27 -15 7 -8 28 -15 47 -15 l34 0 -2 -47 c-2 -36 -9 -52 -31 -71 -15 -14
-25 -29 -22 -34 3 -4 -3 -23 -14 -41 -11 -17 -22 -56 -26 -84 -7 -53 -7 -53
21 -53 40 -1 67 -19 98 -64 18 -26 23 -41 15 -46 -7 -4 3 -24 30 -56 22 -27
40 -54 40 -61 0 -7 5 -13 10 -13 6 0 10 -11 10 -24 0 -19 6 -25 33 -29 40 -6
47 -2 47 29 0 19 5 24 25 24 44 0 85 -27 85 -56 0 -27 28 -44 40 -24 5 8 13 9
21 4 8 -5 34 -11 59 -14 40 -4 48 -2 73 23 23 24 32 27 62 21 23 -4 35 -12 35
-23 1 -25 24 -50 59 -62 17 -6 31 -15 31 -20 0 -5 28 -9 63 -9 99 1 129 -5
182 -32 28 -14 65 -29 83 -33 32 -7 33 -7 18 -31 -9 -13 -25 -48 -37 -79 -12
-32 -26 -55 -35 -55 -8 0 -17 -6 -20 -14 -3 -8 -14 -16 -25 -19 -11 -3 -19
-14 -19 -26 0 -11 -17 -33 -39 -52 -45 -36 -66 -77 -58 -116 3 -16 0 -35 -7
-43 -21 -25 -36 -95 -30 -130 5 -24 3 -35 -9 -41 -8 -5 -19 -24 -22 -42 -4
-17 -15 -43 -25 -57 -25 -35 -50 -98 -50 -126 0 -13 8 -39 17 -59 15 -31 15
-39 3 -58 -18 -29 -42 -122 -44 -172 -1 -22 -5 -47 -9 -56 -5 -11 1 -30 17
-54 14 -21 26 -42 26 -46 0 -5 9 -9 21 -9 16 0 19 -4 14 -20 -6 -17 -2 -20 28
-20 19 0 46 9 60 20 31 24 63 26 75 4 7 -13 20 -16 62 -12 29 3 55 10 59 15 8
13 66 43 84 43 8 0 24 -9 37 -20 27 -23 88 -27 96 -6 9 23 35 28 54 11 13 -12
20 -13 25 -5 4 6 4 14 1 17 -3 3 -1 12 5 20 9 10 6 13 -17 13 -16 0 -35 -4
-43 -9 -22 -14 -61 8 -61 35 0 12 7 24 15 28 8 3 15 12 15 21 0 9 14 21 30 26
17 6 30 15 30 20 0 5 9 9 20 9 11 0 20 -7 20 -15 0 -18 17 -20 22 -3 3 7 12 4
26 -10 13 -13 20 -27 17 -33 -4 -5 -1 -17 6 -25 12 -14 14 -14 25 1 15 20 41
14 51 -12 4 -10 11 -21 17 -25 17 -12 74 -9 78 4 3 8 24 8 84 -1 65 -9 92 -19
154 -58 41 -25 86 -52 100 -60 29 -15 110 -18 110 -3 0 16 40 51 50 45 6 -4
10 -15 10 -26 0 -16 7 -19 43 -19 37 0 46 -4 55 -25 6 -14 18 -25 26 -25 23 0
44 -42 38 -79 l-5 -34 48 7 47 8 -7 -34 c-4 -18 -12 -39 -17 -45 -17 -21 32
-16 69 7 17 10 37 28 43 39 6 11 22 32 36 46 21 21 25 32 20 58 -12 61 -15
117 -5 117 5 0 9 -8 9 -19 0 -25 39 -35 60 -16 22 20 39 19 94 -4 30 -13 57
-18 81 -14 34 5 48 -8 25 -22 -6 -4 4 -16 22 -29 18 -12 35 -31 37 -41 2 -11
8 -23 14 -27 17 -11 77 -1 96 16 22 20 41 21 41 1 0 -21 24 -19 45 5 10 11 28
20 41 20 17 0 23 6 26 28 3 24 8 28 48 32 55 7 70 15 70 40 0 28 18 35 88 31
41 -1 69 2 79 11 11 9 47 13 107 13 50 0 97 4 105 9 9 6 11 20 7 46 -4 28 -2
41 10 51 14 11 16 10 12 -11 -3 -24 -1 -25 59 -24 51 1 63 -2 68 -16 11 -35
46 -40 93 -13 30 18 50 23 68 19 38 -10 63 -45 57 -81 -4 -26 2 -35 43 -68 36
-29 55 -37 78 -35 29 3 31 5 32 49 1 25 6 55 13 67 28 53 4 101 -52 99 -20 0
-40 2 -43 6 -4 4 6 33 22 65 29 56 29 58 13 92 -9 19 -29 46 -43 59 -14 14
-26 30 -26 37 0 7 -16 31 -35 54 -19 23 -35 45 -35 49 0 13 96 101 111 101 8
0 30 13 49 28 40 33 78 48 137 57 59 9 119 59 134 110 6 22 12 64 12 93 1 40
5 53 19 58 27 8 86 -6 114 -29 25 -19 28 -19 39 -4 7 9 17 17 23 17 18 0 31
62 28 137 -4 85 -32 143 -78 161 -16 6 -32 20 -35 31 -3 11 -16 27 -30 37 -22
14 -29 14 -50 3 -23 -12 -27 -11 -49 14 -13 16 -24 35 -24 43 0 29 -53 84 -82
84 -18 0 -33 9 -45 26 -10 14 -37 50 -60 80 -24 29 -43 58 -43 63 0 5 -13 19
-28 30 -21 15 -38 18 -69 14 -37 -5 -43 -3 -59 23 -9 16 -32 43 -51 61 -23 22
-33 41 -33 61 0 17 -6 32 -14 35 -8 3 -20 24 -26 46 -6 23 -15 41 -20 41 -6 0
-10 11 -10 24 0 16 -11 32 -30 46 -48 34 -55 56 -25 82 14 12 25 26 25 32 0 6
10 31 22 54 l23 44 -22 15 c-13 9 -23 25 -23 37 -1 16 -16 28 -65 51 -39 18
-68 38 -72 50 -3 11 -13 25 -21 31 -8 6 -16 30 -17 54 -2 32 -9 48 -26 61 -31
23 -35 99 -6 99 10 0 22 -11 27 -25 5 -14 15 -25 22 -25 7 0 20 -21 28 -46 16
-51 35 -60 35 -16 0 32 53 119 78 127 9 4 17 13 17 20 0 25 43 45 96 45 40 0
55 4 65 19 19 26 56 28 103 5 l38 -19 19 24 c10 13 19 33 19 46 0 20 5 23 45
23 56 1 63 6 82 49 10 25 18 33 30 28 11 -4 24 4 39 22 21 26 23 27 49 13 26
-14 28 -13 51 15 13 17 24 38 24 47 0 25 25 35 110 42 96 9 110 13 110 36 0
20 50 50 84 50 28 0 117 42 135 63 8 11 28 17 52 17 31 0 39 4 39 18 0 11 -11
24 -25 30 -14 6 -25 18 -25 27 0 8 -7 15 -15 15 -18 0 -18 1 -5 34 10 27 52
37 65 15 4 -6 21 -9 39 -8 39 4 100 -35 93 -60 -13 -44 -12 -46 11 -43 21 3
23 1 17 -30 -5 -29 -2 -35 25 -50 55 -31 90 -20 90 27 0 8 11 30 23 49 35 50
68 148 98 290 12 53 11 62 -6 90 -10 17 -21 60 -24 95 -4 42 -11 67 -21 72 -8
5 -41 20 -73 35 -57 25 -59 27 -52 58 18 90 18 92 -13 127 -16 19 -33 45 -37
59 -4 14 -14 34 -21 45 -20 29 -18 39 21 85 27 32 35 51 35 80 0 21 9 59 20
84 l19 46 -20 11 c-19 10 -20 17 -15 84 l5 74 -37 18 c-36 18 -40 25 -61 115
-8 32 -5 41 15 65 28 33 26 26 29 88 1 39 -3 57 -22 83 -13 17 -30 32 -37 32
-14 0 -76 64 -76 79 0 11 -117 100 -147 112 -19 7 -23 13 -17 27 5 9 8 38 7
65 -2 47 -1 47 53 82 64 41 86 81 89 163 2 35 9 59 21 73 15 16 16 24 7 39 -7
10 -19 58 -29 107 -9 48 -23 102 -32 118 -9 17 -19 57 -23 90 -10 91 -21 139
-33 148 -8 6 -7 10 2 14 6 2 12 13 12 24 0 20 -15 26 -25 9 -10 -16 -76 -11
-115 8 -44 21 -110 71 -110 83 0 5 17 9 38 9 21 0 47 7 60 15 12 9 27 15 34
14 7 -1 27 -1 44 0 28 1 30 4 31 39 1 32 -6 45 -55 97 -32 33 -77 71 -102 85
-29 16 -51 38 -63 63 -10 20 -23 37 -28 37 -18 0 -21 -31 -5 -49 28 -31 17
-34 -16 -5 -18 15 -32 31 -30 36 3 12 -11 10 -35 -7 -12 -8 -39 -19 -60 -23
-27 -6 -38 -13 -37 -25 3 -28 -23 -19 -36 13 -7 17 -16 30 -21 30 -5 0 -9 6
-9 14 0 9 -7 12 -20 9 -12 -3 -20 -2 -19 3 7 26 -27 63 -76 85 -44 20 -57 31
-69 62 -8 21 -13 44 -10 52 3 7 -4 18 -15 25 -12 6 -21 20 -21 30 0 11 -6 20
-14 20 -20 0 -64 -37 -71 -60 -7 -24 -43 -27 -51 -5 -4 9 -13 13 -24 10 -9 -3
-25 -3 -34 1 -13 5 -14 9 -5 20 20 24 -5 15 -29 -11 -18 -19 -30 -23 -49 -18
-18 4 -24 2 -19 -5 4 -7 -3 -17 -18 -24 -14 -6 -26 -16 -26 -21 0 -6 -10 -21
-21 -34 -19 -19 -20 -25 -8 -39 12 -15 12 -17 -1 -12 -21 6 -44 56 -33 71 12
16 34 67 29 67 -3 0 -18 -22 -35 -50 -19 -30 -45 -57 -68 -69 -45 -23 -99 -87
-80 -94 9 -4 8 -8 -3 -16 -12 -8 -16 -6 -18 10 -3 15 -8 19 -20 14 -49 -19
-152 -36 -185 -31 -31 5 -42 2 -62 -18 -14 -14 -25 -34 -25 -44 0 -23 -72
-100 -78 -84 -9 29 -72 -3 -72 -36 0 -19 28 -14 33 6 3 12 5 11 6 -6 0 -13 6
-20 11 -17 13 8 13 -7 0 -40 l-10 -27 -19 24 c-16 19 -28 23 -65 21 -37 -1
-46 2 -46 15 -1 9 -9 27 -20 40 -16 20 -25 22 -57 16 -47 -9 -99 -30 -108 -44
-10 -17 -32 -11 -38 10 -3 13 -14 20 -31 20 -35 0 -52 32 -36 71 9 20 20 29
35 29 21 0 87 45 143 98 23 23 24 28 18 100 -5 62 -3 79 11 94 19 21 4 24 -30
7 -13 -7 -22 -8 -24 -2 -7 19 -69 0 -112 -33 -53 -41 -79 -43 -112 -8 -13 14
-51 39 -84 55 -33 16 -72 37 -87 46 -25 16 -28 16 -63 -2 -21 -11 -39 -27 -42
-35 -15 -47 -26 -70 -34 -70 -14 0 -11 48 3 52 7 3 13 25 14 51 2 71 -16 80
-112 56 -90 -24 -133 -13 -61 15 33 12 49 26 61 50 16 34 23 147 9 145 -5 -1
-19 -1 -32 0 -20 1 -21 3 -11 16 7 8 17 12 22 9 10 -6 6 12 -13 64 -11 30 -39
40 -51 19 -13 -25 -32 -21 -68 13 -18 17 -42 30 -54 30 -40 0 -65 12 -68 32
-3 19 -3 19 -24 0 -32 -31 -63 -44 -86 -37 -11 4 -31 2 -43 -5 -32 -17 -73 -5
-77 22 -2 18 -15 25 -71 39 -38 9 -80 22 -95 27 -44 17 -76 21 -97 12z m2062
-832 c-3 -8 -6 -5 -6 6 -1 11 2 17 5 13 3 -3 4 -12 1 -19z m1048 -75 c-9 -15
-13 -19 -10 -8 4 11 10 29 13 40 3 11 7 14 9 8 3 -7 -3 -24 -12 -40z m138 -14
c27 -31 39 -99 17 -99 -5 0 -10 5 -10 11 0 6 -8 9 -19 6 -14 -3 -17 0 -14 14
4 14 0 19 -16 19 -22 0 -30 -33 -11 -45 6 -3 10 -17 10 -31 0 -19 -8 -28 -35
-40 -20 -8 -33 -19 -30 -24 3 -6 1 -10 -4 -10 -21 0 -11 27 19 53 35 32 38 47
10 54 -11 3 -20 13 -20 22 0 9 -9 22 -21 29 l-21 13 23 20 c28 25 43 24 36 -1
-3 -11 -2 -20 2 -20 13 0 31 24 31 42 0 27 22 22 53 -13z m-3426 -681 c-2 -13
-4 -5 -4 17 -1 22 1 32 4 23 2 -10 2 -28 0 -40z"/>
<path d="M1923 7743 c9 -2 23 -2 30 0 6 3 -1 5 -18 5 -16 0 -22 -2 -12 -5z"/>
<path d="M1852 7602 c-12 -2 -27 -12 -32 -22 -12 -23 4 -34 62 -44 34 -6 38
-5 44 18 3 14 3 29 0 34 -7 12 -43 19 -74 14z"/>
<path d="M1760 7540 c-12 -23 -6 -52 15 -70 26 -22 35 -1 14 35 -11 19 -18 39
-14 45 3 5 4 10 1 10 -3 0 -10 -9 -16 -20z"/>
<path d="M4861 7516 c-38 -14 -59 -43 -22 -31 24 7 26 0 6 -35 -30 -53 -6 -69
35 -25 l24 26 24 -32 c16 -20 31 -29 43 -26 19 5 34 -30 23 -57 -10 -27 -53
-20 -60 10 -4 15 -12 23 -19 20 -16 -6 -27 18 -18 42 6 15 5 15 -10 3 -9 -7
-17 -23 -17 -34 0 -19 -1 -19 -19 -3 -26 23 -66 18 -66 -9 0 -13 6 -20 18 -19
9 1 17 -4 17 -12 0 -8 5 -14 10 -14 22 0 8 -22 -20 -31 -32 -12 -41 -29 -15
-29 9 0 20 -12 25 -26 13 -34 14 -32 -21 -36 -42 -4 -61 -32 -35 -51 12 -9 16
-19 11 -27 -6 -10 -4 -12 8 -7 11 4 17 1 17 -8 0 -17 42 -30 66 -21 11 4 15 2
11 -8 -3 -8 5 -18 20 -25 28 -13 43 -7 43 16 0 10 -6 14 -20 10 -13 -3 -20 0
-20 9 0 8 5 14 10 14 6 0 25 16 42 36 28 31 36 35 74 33 24 -2 46 0 50 4 13
13 26 7 20 -8 -3 -10 1 -15 12 -15 16 -1 16 -1 0 -14 -20 -14 -25 -31 -7 -20
6 3 15 0 20 -7 6 -10 9 -6 9 13 0 15 5 30 11 34 6 3 7 9 2 13 -5 3 -16 18 -25
33 -10 14 -27 28 -40 30 -13 2 -26 15 -35 35 -12 31 -11 35 17 67 56 63 30
103 -56 87 -42 -8 -49 -7 -70 15 -29 28 -30 38 -4 64 11 11 20 22 20 25 0 9
-54 4 -89 -9z"/>
<path d="M4737 7413 c-3 -16 -9 -37 -13 -47 -5 -13 -4 -17 4 -13 6 4 14 22 17
40 4 17 13 35 19 39 7 5 5 8 -5 8 -10 0 -19 -11 -22 -27z"/>
<path d="M1963 7378 c-23 -11 -31 -42 -13 -53 12 -7 50 30 50 50 0 17 -6 18
-37 3z"/>
<path d="M3460 7343 c-26 -33 -22 -57 9 -61 13 -2 25 -12 28 -21 4 -15 15 -18
64 -17 32 1 59 2 59 4 0 19 -48 87 -73 102 -43 27 -62 25 -87 -7z"/>
<path d="M2088 7350 c-24 -14 -12 -50 18 -50 20 0 54 32 54 52 0 11 -52 9 -72
-2z"/>
<path d="M4346 7259 c-25 -47 -26 -50 -7 -44 10 3 22 1 26 -5 9 -15 19 -13 44
11 32 30 74 39 133 30 56 -9 81 -5 75 13 -4 12 -5 12 -124 14 -57 1 -86 6 -97
17 -8 8 -17 15 -19 15 -3 0 -17 -23 -31 -51z"/>
<path d="M3765 6889 c-11 -17 1 -21 15 -4 8 9 8 15 2 15 -6 0 -14 -5 -17 -11z"/>
<path d="M1366 6562 c-7 -12 43 -13 62 -2 13 7 9 9 -20 10 -20 0 -39 -4 -42
-8z"/>
<path d="M1240 6535 c0 -17 11 -20 26 -6 5 5 23 11 39 14 21 3 16 4 -17 6 -37
1 -48 -3 -48 -14z"/>
<path d="M1188 6513 c7 -3 16 -2 19 1 4 3 -2 6 -13 5 -11 0 -14 -3 -6 -6z"/>
<path d="M1640 6510 c0 -13 11 -13 30 0 12 8 11 10 -7 10 -13 0 -23 -4 -23
-10z"/>
<path d="M1035 6500 c-7 -12 58 -12 95 0 19 6 12 8 -32 9 -31 1 -60 -3 -63 -9z"/>
<path d="M958 6473 c7 -3 16 -2 19 1 4 3 -2 6 -13 5 -11 0 -14 -3 -6 -6z"/>
<path d="M893 6463 c9 -2 23 -2 30 0 6 3 -1 5 -18 5 -16 0 -22 -2 -12 -5z"/>
<path d="M753 6390 c-27 -11 -30 -28 -7 -37 10 -4 20 0 26 10 5 10 16 17 23
17 8 0 15 5 15 10 0 12 -27 12 -57 0z"/>
</g>
</svg>
