<?xml version="1.0" standalone="no"?>
<!DOCTYPE svg PUBLIC "-//W3C//DTD SVG 20010904//EN"
 "http://www.w3.org/TR/2001/REC-SVG-20010904/DTD/svg10.dtd">
<svg version="1.0" xmlns="http://www.w3.org/2000/svg"
 width="718.000000pt" height="1024.000000pt" viewBox="0 0 718.000000 1024.000000"
 preserveAspectRatio="xMidYMid meet">
<metadata>
Created by potrace 1.16, written by Peter Selinger 2001-2019
</metadata>
<g transform="translate(0.000000,1024.000000) scale(0.100000,-0.100000)"
fill="#000000" stroke="none">
<path d="M4886 10180 c-35 -33 -66 -60 -70 -60 -5 0 -21 11 -38 25 -35 30 -78
32 -102 7 -9 -11 -27 -47 -41 -82 -31 -79 -37 -86 -106 -120 -34 -18 -74 -49
-101 -81 l-44 -51 -34 42 c-19 23 -52 55 -73 71 -38 27 -45 29 -143 29 -95 0
-154 -12 -154 -31 0 -4 -9 -11 -20 -14 -14 -4 -30 2 -52 20 l-32 27 -365 -3
-366 -3 -55 26 c-52 25 -103 33 -197 29 -18 0 -45 -12 -64 -28 l-33 -28 -703
3 -703 3 -37 25 c-36 24 -37 24 -257 22 l-221 -3 -3 -48 c-2 -35 2 -57 17 -81
12 -18 21 -37 21 -42 0 -5 -16 -26 -35 -46 -51 -53 -94 -164 -111 -283 -3 -27
-15 -72 -25 -98 -25 -64 -24 -121 5 -212 29 -91 61 -136 124 -172 26 -14 49
-28 51 -30 3 -2 -9 -16 -27 -32 -57 -53 -52 -109 19 -203 21 -29 39 -61 39
-71 0 -10 -12 -39 -26 -63 -34 -58 -30 -113 16 -212 28 -61 31 -77 26 -117 -6
-39 -3 -54 18 -96 l26 -49 -35 -21 c-46 -28 -55 -46 -62 -127 -4 -48 0 -84 12
-127 10 -34 17 -89 17 -127 -2 -66 -1 -67 27 -73 21 -4 31 -14 36 -33 3 -15
17 -38 30 -52 22 -23 23 -30 18 -110 -6 -82 -8 -86 -42 -118 -43 -40 -37 -55
35 -92 27 -14 50 -33 52 -43 4 -18 -38 -63 -117 -126 -56 -44 -75 -88 -66
-153 8 -58 22 -74 78 -89 54 -14 80 -39 108 -102 18 -40 23 -68 22 -124 -2
-58 2 -76 18 -97 11 -14 26 -26 33 -26 7 0 22 -9 34 -20 18 -17 22 -32 22 -76
0 -71 56 -698 70 -782 16 -95 4 -119 -86 -177 -45 -29 -55 -42 -73 -92 -28
-77 -34 -86 -64 -100 -15 -7 -39 -19 -54 -26 -16 -7 -44 -35 -63 -61 -33 -46
-62 -84 -212 -281 -83 -108 -102 -157 -143 -358 -20 -95 -42 -201 -50 -237 -8
-36 -15 -110 -15 -165 0 -120 -20 -207 -59 -255 -15 -19 -59 -54 -97 -77 -38
-23 -84 -52 -102 -65 -48 -34 -119 -132 -166 -228 l-41 -85 0 -125 c0 -94 -5
-140 -19 -185 -27 -86 -17 -177 39 -361 44 -144 61 -184 155 -363 l43 -84 7
-231 c7 -228 8 -233 48 -390 23 -87 48 -169 57 -182 25 -38 60 -56 153 -75
118 -24 152 -37 184 -70 34 -35 44 -77 53 -206 l7 -102 -35 -15 c-62 -25 -72
-77 -36 -177 l21 -58 -26 -52 c-14 -29 -26 -67 -26 -85 l0 -31 -82 1 -82 1
-29 -43 c-27 -40 -30 -42 -80 -42 -29 0 -88 12 -132 26 -87 28 -155 28 -182 1
-38 -38 20 -73 145 -88 48 -6 155 -26 238 -44 83 -19 197 -39 255 -44 297 -29
596 -94 722 -158 27 -13 68 -41 90 -62 61 -54 97 -78 137 -86 22 -5 49 -23 72
-48 l37 -41 89 -4 c99 -5 137 6 127 38 -5 15 11 29 82 71 101 61 143 78 196
79 52 0 73 14 97 60 11 22 29 44 39 50 11 5 26 16 33 24 8 7 29 21 46 30 18 9
45 31 60 47 37 43 69 57 175 80 355 77 530 132 655 208 86 51 116 58 302 70
85 6 172 16 194 22 24 7 64 34 107 75 98 92 208 144 333 157 51 5 101 16 111
23 10 7 23 35 30 61 12 47 13 48 58 55 25 3 65 19 89 35 58 40 89 51 188 68
63 11 118 30 210 74 69 33 181 76 250 97 83 24 164 57 240 97 136 73 135 72
443 42 l197 -19 94 23 93 22 81 -20 c93 -24 198 -27 245 -7 72 30 177 182 250
363 37 90 61 119 141 170 39 25 81 55 94 66 45 42 20 77 -77 107 -86 26 -190
119 -237 213 -40 79 -62 91 -144 82 l-55 -6 -17 38 c-13 28 -39 52 -99 93
-114 77 -133 101 -126 165 2 27 2 56 0 63 -3 7 -27 24 -54 37 -57 29 -79 65
-79 130 0 69 -21 107 -88 159 -73 57 -83 85 -53 145 28 53 27 67 -9 103 -16
16 -30 33 -30 37 0 4 21 19 47 32 59 30 73 56 73 140 0 49 9 94 36 175 76 226
50 331 -87 358 -42 9 -73 90 -73 191 0 80 13 124 51 167 8 9 20 41 27 70 11
50 13 53 44 56 25 3 32 7 28 20 -23 75 -24 104 -5 157 28 80 25 151 -8 211
-25 45 -28 58 -26 144 0 61 7 111 18 140 9 25 19 52 22 62 3 9 -5 30 -18 47
l-23 31 22 23 c13 13 58 44 102 68 44 24 83 52 86 62 16 49 -23 142 -72 175
-18 12 -36 33 -39 47 -3 14 -7 36 -10 50 -9 41 -40 65 -85 65 -33 0 -43 5 -62
31 -14 19 -48 43 -83 59 -72 34 -82 43 -135 143 -34 62 -41 85 -37 112 4 25 1
38 -14 51 -28 25 -24 34 16 34 19 0 50 7 68 16 31 15 36 15 65 0 56 -29 65
-23 58 38 -6 43 -4 60 10 81 21 32 16 69 -25 175 -17 44 -31 94 -31 112 0 18
20 76 45 128 25 52 45 101 45 109 0 7 -10 29 -21 48 l-22 35 36 36 c34 36 57
92 57 141 0 16 -23 47 -72 96 -76 76 -103 89 -201 102 -44 5 -51 3 -80 -25
-40 -39 -75 -52 -138 -52 -46 0 -49 2 -49 25 0 21 6 26 38 31 21 3 49 14 62
24 35 27 20 48 -40 56 -28 4 -53 11 -57 17 -11 18 37 47 76 47 44 0 152 20
164 30 4 3 -2 29 -14 55 -19 43 -21 55 -11 92 11 39 10 44 -13 69 -30 33 -31
57 -5 131 11 32 20 77 20 101 0 32 6 49 25 68 32 32 32 45 -5 77 -24 22 -30
35 -30 67 0 22 2 40 4 40 2 0 23 -7 46 -15 23 -8 46 -12 51 -9 5 3 9 23 9 45
0 40 -5 47 -70 102 -13 11 -19 38 -25 113 -7 93 -6 99 14 115 18 15 51 75 51
94 0 3 -19 5 -42 5 -24 0 -48 4 -54 8 -6 4 -26 35 -43 69 -37 75 -58 90 -136
99 -78 8 -102 24 -115 76 -21 84 -40 116 -79 131 -20 8 -58 33 -84 54 -26 21
-69 47 -97 57 -121 44 -148 164 -63 287 48 70 62 108 73 192 8 63 13 76 40
100 37 33 36 58 -3 137 l-22 45 -75 5 c-70 5 -80 9 -155 57 -44 29 -88 53 -98
53 -10 0 -47 -27 -81 -60z"/>
</g>
</svg>
