<?xml version="1.0" standalone="no"?>
<!DOCTYPE svg PUBLIC "-//W3C//DTD SVG 20010904//EN"
 "http://www.w3.org/TR/2001/REC-SVG-20010904/DTD/svg10.dtd">
<svg version="1.0" xmlns="http://www.w3.org/2000/svg"
 width="1024.000000pt" height="1022.000000pt" viewBox="0 0 1024.000000 1022.000000"
 preserveAspectRatio="xMidYMid meet">
<metadata>
Created by potrace 1.16, written by Peter Selinger 2001-2019
</metadata>
<g transform="translate(0.000000,1022.000000) scale(0.100000,-0.100000)"
fill="#000000" stroke="none">
<path d="M7319 10201 c-34 -13 -139 -87 -139 -97 0 -6 9 -19 21 -30 31 -27 55
-81 78 -167 11 -42 31 -93 45 -114 37 -53 34 -90 -11 -144 -46 -54 -47 -55
-103 -73 -117 -38 -128 -39 -166 -16 -20 13 -42 19 -52 15 -39 -15 -207 -45
-252 -45 -43 0 -60 -8 -154 -70 -85 -56 -114 -70 -143 -70 -67 1 -110 17 -170
63 -32 25 -99 66 -150 91 -112 56 -156 59 -239 19 l-56 -28 -17 24 c-44 67
-41 66 -105 42 -77 -28 -86 -27 -86 10 0 16 -7 61 -16 100 l-16 69 -41 -5
c-23 -3 -76 -13 -119 -22 -76 -16 -77 -16 -154 10 -71 24 -79 25 -106 11 -50
-26 -68 -51 -68 -93 0 -32 -4 -40 -22 -45 -52 -13 -80 -6 -128 34 -26 22 -51
40 -54 40 -4 0 -26 -20 -49 -44 -24 -24 -67 -58 -96 -76 l-53 -33 -81 12 c-74
10 -89 9 -157 -9 -233 -65 -214 -62 -267 -41 -26 10 -56 22 -65 26 -13 5 -33
-8 -75 -48 -49 -46 -68 -56 -125 -71 -84 -20 -184 -21 -231 -1 -20 8 -41 15
-47 15 -23 0 -34 -59 -34 -182 -1 -69 -4 -129 -7 -132 -3 -3 -38 1 -78 8 -70
14 -73 13 -99 -9 -77 -64 -165 -75 -340 -41 -182 36 -218 35 -301 -10 -70 -38
-130 -102 -207 -220 -46 -70 -52 -75 -81 -67 -13 3 -52 -5 -88 -18 l-64 -22
-40 26 c-22 15 -48 27 -57 27 -39 0 -142 -34 -172 -57 -18 -13 -65 -35 -104
-49 -59 -20 -91 -24 -183 -24 l-111 0 -35 -37 c-45 -49 -89 -115 -89 -135 0
-8 8 -26 19 -39 27 -35 51 -85 67 -141 l15 -49 -36 -49 c-20 -27 -43 -69 -51
-95 -21 -59 -41 -69 -124 -61 -65 7 -69 6 -89 -20 -15 -20 -21 -41 -21 -80 0
-40 -7 -65 -29 -102 -15 -26 -31 -70 -35 -98 -8 -54 -47 -179 -74 -234 -17
-35 -17 -35 -87 -35 -97 -1 -138 -17 -176 -71 -28 -37 -42 -47 -101 -65 -37
-12 -68 -23 -68 -25 0 -2 34 -47 75 -99 41 -53 75 -100 75 -104 0 -5 -41 -16
-91 -26 l-91 -18 7 -55 c5 -42 3 -64 -11 -93 l-17 -39 -78 0 c-92 0 -101 -10
-74 -91 14 -40 27 -58 61 -82 40 -28 44 -35 44 -72 0 -27 -8 -53 -26 -78 l-25
-38 57 -65 c31 -35 63 -68 70 -72 7 -4 35 -28 63 -55 37 -35 67 -53 113 -67
80 -25 119 -49 138 -86 8 -16 40 -60 70 -99 31 -38 67 -86 82 -105 14 -19 35
-46 47 -59 14 -16 19 -31 15 -47 -4 -15 2 -36 15 -57 26 -43 27 -77 1 -127
-26 -51 -25 -72 3 -98 18 -17 36 -22 78 -22 l54 0 37 -78 c21 -43 49 -105 62
-137 13 -33 43 -100 66 -150 37 -79 42 -98 41 -153 -1 -52 4 -74 26 -118 56
-110 91 -110 179 -3 46 56 112 109 137 109 7 0 65 -95 80 -133 26 -60 30 -60
197 27 25 13 81 34 125 46 44 12 109 35 145 50 36 16 93 32 126 35 57 7 67 5
120 -24 41 -21 94 -37 174 -52 63 -11 127 -23 143 -26 24 -5 29 -1 42 31 8 19
15 44 15 55 0 10 11 26 23 34 47 31 58 26 101 -46 47 -76 104 -122 141 -113
13 3 40 26 61 51 20 25 40 45 44 45 4 0 38 -50 76 -111 l69 -112 135 7 c81 4
147 3 165 -3 17 -6 49 -15 73 -21 44 -11 122 -72 122 -95 0 -7 -23 -33 -51
-57 l-50 -43 -127 -5 c-110 -4 -132 -8 -164 -28 -21 -13 -38 -27 -38 -32 0 -4
20 -13 45 -20 42 -12 45 -15 45 -46 0 -41 -21 -49 -111 -42 -49 4 -62 8 -76
29 -42 62 -125 128 -230 180 -59 30 -128 67 -152 83 -41 27 -47 28 -115 22
-59 -5 -81 -3 -126 15 -92 35 -132 56 -194 99 -88 62 -158 90 -226 90 l-57 0
-80 -83 c-44 -46 -101 -96 -127 -110 -45 -25 -48 -25 -94 -12 -27 8 -92 35
-145 60 -53 25 -99 45 -102 45 -3 0 -5 -23 -5 -52 0 -28 -7 -77 -16 -107 -13
-46 -24 -62 -59 -88 -39 -29 -45 -39 -54 -90 -20 -106 -21 -106 -86 -127 -33
-10 -62 -20 -64 -22 -2 -2 12 -28 32 -57 29 -45 43 -56 80 -66 29 -9 59 -28
87 -56 l41 -42 -23 -67 c-33 -94 -27 -100 94 -104 l95 -3 33 -60 c25 -44 51
-72 101 -108 65 -48 68 -51 78 -108 7 -32 23 -95 37 -139 35 -111 31 -131 -31
-172 -86 -56 -95 -68 -95 -124 0 -41 11 -72 70 -187 58 -115 70 -147 70 -187
0 -52 19 -127 35 -143 6 -5 41 -14 80 -20 38 -6 71 -14 73 -18 1 -4 13 -26 25
-48 44 -78 98 -49 127 67 11 42 10 50 -8 75 -42 60 -62 112 -62 162 0 49 1 51
42 72 33 17 55 20 109 17 61 -3 71 -7 103 -38 20 -19 36 -39 36 -45 0 -5 -19
-23 -41 -39 -22 -16 -37 -32 -32 -36 4 -4 28 -15 53 -24 73 -28 127 -79 135
-126 8 -47 34 -83 85 -115 48 -30 70 -73 77 -153 5 -48 2 -66 -10 -80 -8 -9
-25 -40 -36 -69 l-20 -52 22 -16 c12 -8 27 -15 33 -15 11 0 25 -14 92 -94 33
-40 52 -30 73 39 16 52 17 68 7 118 -10 46 -10 64 1 90 7 18 15 46 18 62 2 17
13 47 24 67 12 22 23 67 26 107 l6 69 74 22 c105 31 138 24 164 -38 33 -79 60
-126 78 -142 10 -8 37 -43 60 -78 45 -66 113 -126 214 -186 54 -32 69 -36 129
-36 49 0 68 4 68 13 0 7 -22 40 -50 72 -87 105 -134 169 -152 210 -10 22 -23
48 -29 58 -11 20 0 26 89 47 47 11 52 14 46 34 -3 11 -10 26 -14 31 -11 14
-114 278 -133 340 -27 91 -41 119 -88 185 -26 36 -59 90 -74 120 -26 52 -74
118 -144 200 -26 30 -31 43 -31 91 0 34 -8 74 -19 100 -18 39 -19 72 -5 117 2
9 16 5 46 -14 48 -30 163 -85 249 -118 30 -11 83 -39 117 -61 48 -31 61 -44
58 -60 -3 -11 -10 -40 -16 -64 -6 -24 -8 -53 -4 -64 7 -24 55 -87 65 -87 4 0
25 25 49 54 27 36 54 59 76 66 40 13 104 70 104 93 0 31 45 47 133 47 46 0 86
2 89 5 3 3 2 26 -3 51 -10 52 -47 105 -96 135 -31 19 -33 24 -27 53 4 17 8 42
8 56 1 22 -3 25 -31 24 -48 -3 -121 -49 -140 -90 -9 -19 -21 -34 -27 -34 -41
2 -126 97 -126 141 0 16 -12 54 -27 85 l-28 56 33 26 c18 15 32 31 32 35 0 5
-11 23 -25 41 -17 22 -43 39 -81 52 -47 16 -59 25 -71 53 -17 40 -12 57 19 64
13 3 61 14 108 25 47 11 139 32 205 47 79 18 130 36 151 51 21 16 44 24 72 24
l42 0 0 -46 c0 -58 13 -81 50 -89 45 -10 138 -90 148 -127 7 -28 14 -33 72
-50 36 -10 75 -18 88 -18 13 0 25 -8 29 -17 3 -10 18 -45 34 -78 15 -33 30
-72 34 -86 6 -23 14 -28 51 -34 54 -8 81 0 117 33 25 24 27 32 27 98 0 76 -8
104 -49 167 -21 33 -25 51 -26 125 0 73 -5 96 -28 143 -33 68 -33 72 -2 125
22 38 24 47 15 93 -12 62 -19 78 -58 114 -32 31 -219 100 -303 112 -37 6 -55
16 -90 51 -23 24 -40 47 -36 50 4 4 26 2 48 -5 42 -13 298 -16 367 -5 30 5 38
1 72 -36 21 -23 57 -80 79 -127 37 -76 41 -93 41 -159 0 -51 4 -76 13 -78 6
-2 30 -8 51 -12 36 -8 41 -14 57 -58 20 -59 45 -75 119 -76 53 0 57 -2 104
-50 49 -50 61 -56 83 -42 16 10 73 122 73 143 0 9 13 36 30 60 22 33 30 55 30
92 0 54 1 54 -100 32 -142 -31 -213 -13 -259 69 -16 28 -39 83 -51 121 -13 39
-33 84 -45 100 -32 42 -49 128 -38 190 9 49 9 50 -32 95 -30 33 -44 60 -55
103 l-13 58 -137 -7 c-75 -4 -167 -3 -204 0 -58 7 -73 13 -119 51 -36 29 -67
45 -97 50 -25 4 -73 26 -109 50 -36 23 -78 49 -92 58 -18 10 -35 38 -51 80
-33 83 -91 160 -152 199 -46 30 -50 31 -94 19 -26 -7 -69 -24 -96 -39 -44 -24
-52 -33 -68 -81 -24 -73 -39 -87 -120 -113 -37 -12 -67 -26 -65 -32 6 -19 74
-34 158 -35 109 -1 155 -17 238 -84 36 -30 82 -64 102 -77 19 -13 47 -39 61
-59 15 -21 74 -68 142 -111 110 -71 126 -89 108 -118 -7 -10 -16 -9 -47 3 -37
16 -38 16 -69 -14 -36 -35 -48 -38 -66 -16 -8 10 -31 15 -71 15 l-59 0 -24 48
c-13 26 -28 65 -31 85 -8 42 -18 49 -92 67 -44 10 -60 9 -98 -3 -44 -16 -44
-16 -76 14 -27 26 -30 33 -25 65 12 60 0 65 -129 58 l-112 -7 -64 36 c-35 19
-75 38 -89 42 -25 7 -110 82 -110 97 0 19 77 38 152 38 80 0 80 0 161 53 89
58 197 152 197 171 0 7 -23 23 -52 37 -37 17 -54 31 -59 49 -10 41 -66 122
-98 141 -57 35 -49 99 17 134 34 18 37 24 40 68 2 26 7 47 13 47 30 0 140 -69
181 -114 42 -46 47 -56 48 -99 0 -45 -3 -52 -45 -90 -36 -34 -44 -47 -39 -64
6 -21 12 -23 73 -23 80 0 162 35 229 99 52 48 52 51 -22 159 -30 42 -63 97
-76 121 -34 68 -77 122 -118 149 -91 61 -221 180 -242 222 -10 20 -23 62 -29
94 -18 99 -172 363 -241 413 -136 101 -170 149 -170 244 0 59 20 172 40 224 6
17 12 64 13 106 1 68 -1 81 -26 118 -28 42 -28 43 -12 91 17 52 30 61 118 80
91 20 114 34 143 92 14 29 28 55 30 56 1 2 19 -1 39 -8 45 -15 67 -61 57 -122
-7 -38 -11 -42 -54 -57 -62 -21 -65 -27 -28 -46 31 -16 32 -19 27 -63 -3 -26
-9 -62 -13 -79 -6 -33 -6 -33 32 -32 46 2 118 -33 140 -67 10 -15 50 -36 116
-61 l100 -38 27 -55 c15 -30 38 -83 51 -118 12 -34 27 -65 31 -68 5 -3 9 -33
9 -68 l0 -62 108 -52 c59 -28 133 -58 165 -67 53 -14 63 -15 111 -1 51 15 86
41 86 64 0 23 -89 80 -137 87 -26 4 -71 16 -100 26 -50 19 -53 22 -67 74 -9
29 -16 57 -16 62 0 6 -20 30 -45 56 l-45 45 16 35 c25 52 60 55 184 17 55 -17
102 -36 106 -41 3 -5 23 -21 45 -35 22 -14 44 -35 49 -49 19 -49 169 -243 202
-261 39 -20 45 -18 97 25 35 29 49 50 58 85 7 25 10 51 7 58 -7 17 -238 189
-289 216 -22 12 -53 32 -70 45 -28 23 -29 27 -16 50 18 34 29 37 146 44 84 5
113 2 179 -16 98 -27 134 -55 232 -177 41 -52 81 -94 90 -94 22 0 86 35 107
58 25 27 16 53 -37 111 -23 25 -59 72 -80 104 -35 53 -46 62 -146 112 -60 30
-111 59 -115 65 -12 19 -71 11 -110 -15 -33 -23 -41 -25 -71 -15 -26 9 -40 23
-59 59 -13 26 -25 61 -27 76 -3 25 1 29 30 37 17 5 32 14 32 21 0 7 -38 57
-85 111 -79 91 -85 101 -85 142 0 38 4 45 30 59 40 21 93 19 140 -5 30 -15 59
-20 124 -20 l84 0 69 48 c109 75 162 123 203 182 39 57 104 100 151 100 39 0
123 -45 138 -73 16 -30 62 -47 126 -47 41 0 110 28 182 73 22 14 59 31 82 37
35 9 44 17 57 50 9 22 37 58 62 80 l47 40 32 -38 c42 -51 133 -81 190 -64 33
10 40 9 67 -12 22 -16 50 -25 96 -29 36 -3 101 -16 145 -28 83 -22 155 -32
358 -48 65 -5 120 -11 122 -13 2 -1 9 -34 17 -73 12 -64 16 -70 40 -73 22 -3
32 6 63 53 21 31 50 68 64 83 43 44 75 90 140 203 72 126 74 143 35 304 -14
58 -24 116 -22 128 2 14 22 33 58 54 30 17 74 46 98 63 23 17 60 37 82 45 21
7 50 21 65 31 l26 17 -4 116 c-3 106 -8 127 -48 241 -24 69 -45 127 -46 129
-2 3 -54 8 -116 12 -126 9 -222 31 -252 58 -28 26 -38 29 -56 22z"/>
<path d="M5630 8654 c-19 -19 -42 -36 -50 -39 -8 -3 -27 -24 -42 -48 -27 -42
-27 -43 -12 -94 13 -46 18 -52 49 -57 24 -5 45 -19 67 -46 17 -22 36 -40 42
-40 6 0 26 14 45 30 21 18 45 30 62 30 l29 0 2 75 c4 151 7 136 -37 152 -22 7
-53 27 -70 43 -17 17 -35 30 -40 29 -6 -1 -26 -16 -45 -35z"/>
<path d="M6610 8269 c-19 -10 -35 -23 -35 -28 0 -17 134 -110 162 -112 57 -4
82 2 112 27 40 34 39 59 -5 100 -35 33 -37 34 -117 33 -59 -1 -92 -7 -117 -20z"/>
<path d="M6554 7569 c-26 -30 -94 -79 -109 -79 -7 0 -23 16 -36 35 -23 33 -27
35 -82 35 -44 0 -65 -5 -84 -20 -17 -13 -41 -20 -69 -20 l-44 0 0 -40 c0 -30
9 -54 35 -92 l35 -51 -20 -34 c-11 -19 -20 -38 -20 -44 0 -5 21 -9 48 -9 30 0
58 -7 77 -20 19 -12 33 -16 40 -10 7 6 30 16 53 24 l42 15 26 -34 c22 -29 33
-35 64 -35 63 0 95 65 50 105 -26 24 -25 31 9 96 24 45 81 181 81 195 0 2 -17
4 -38 4 -27 0 -45 -7 -58 -21z"/>
<path d="M97 7130 c-55 -10 -97 -54 -97 -101 0 -45 58 -128 149 -212 55 -51
61 -59 71 -117 8 -46 22 -77 50 -115 43 -59 87 -81 166 -86 52 -4 59 3 78 66
9 31 -44 82 -93 90 -28 5 -49 17 -71 41 -16 19 -30 40 -30 46 0 6 -22 55 -50
109 -27 54 -50 106 -50 116 0 11 15 27 36 38 34 18 94 80 94 97 0 5 -26 8 -59
8 -32 0 -75 7 -94 15 -39 16 -43 16 -100 5z"/>
<path d="M6118 6893 c-41 -16 -38 -7 -42 -135 -1 -36 22 -32 65 11 23 22 50
43 60 46 27 9 25 60 -3 79 -27 19 -33 19 -80 -1z"/>
<path d="M7575 6718 c-36 -18 -87 -58 -127 -99 l-67 -69 -75 0 -74 0 -45 -47
c-25 -26 -56 -69 -69 -96 l-22 -49 23 -19 c13 -10 30 -19 38 -19 8 0 26 -9 40
-20 21 -17 41 -20 113 -20 l86 0 28 58 c42 87 68 116 100 108 22 -5 26 -12 26
-45 0 -56 -8 -69 -50 -91 -31 -16 -39 -27 -49 -64 -16 -63 -15 -66 22 -66 35
0 125 -30 162 -54 12 -8 50 -26 84 -40 59 -24 63 -24 112 -10 43 13 55 22 82
65 l31 50 46 -6 c42 -6 48 -4 62 17 20 30 8 63 -56 152 -53 73 -71 89 -141
123 -44 22 -57 35 -70 66 -14 35 -14 41 1 67 16 27 16 29 -6 60 -20 28 -113
81 -138 80 -4 -1 -34 -15 -67 -32z"/>
<path d="M4910 6330 c-30 -59 -42 -150 -20 -150 29 0 171 164 154 179 -11 10
-72 31 -90 31 -8 0 -27 -27 -44 -60z"/>
<path d="M4424 6272 c-33 -39 -64 -94 -64 -112 0 -6 23 -10 55 -10 l55 0 0 80
c0 44 -3 80 -7 80 -5 0 -22 -17 -39 -38z"/>
<path d="M4584 6275 c-3 -19 -3 -48 0 -63 4 -15 11 -47 16 -71 13 -56 37 -84
67 -76 35 8 154 86 147 96 -3 5 -27 9 -54 9 -48 0 -48 0 -101 70 -30 39 -57
70 -61 70 -4 0 -10 -16 -14 -35z"/>
<path d="M5580 5938 c0 -47 -4 -58 -30 -83 -16 -16 -30 -34 -30 -40 0 -14 65
-35 108 -35 27 0 35 -6 51 -39 20 -38 21 -38 90 -45 39 -4 75 -4 81 -1 5 3 10
25 10 49 0 31 -6 48 -22 63 -32 29 -62 43 -92 43 -21 0 -26 5 -26 24 0 17 -16
35 -57 66 -82 61 -83 61 -83 -2z"/>
<path d="M1052 5608 c-22 -65 -32 -111 -32 -153 0 -38 -8 -76 -20 -104 -27
-59 -26 -71 9 -71 20 0 37 9 53 28 13 16 44 36 69 45 108 40 131 120 93 325
-4 20 -10 22 -72 22 l-68 0 -32 -92z"/>
<path d="M6863 5538 c-20 -10 -23 -19 -23 -73 0 -101 53 -147 99 -88 35 43 36
67 4 122 -29 52 -41 58 -80 39z"/>
<path d="M7232 5534 c-50 -22 -66 -67 -46 -133 12 -43 24 -57 77 -98 97 -75
108 -90 103 -143 -3 -33 -10 -49 -27 -60 -50 -32 -99 -83 -99 -103 0 -28 39
-83 68 -97 26 -11 139 -30 187 -30 26 0 35 9 67 58 37 57 38 60 36 147 -1 84
-3 92 -30 121 -27 29 -28 34 -32 159 l-4 129 -36 33 c-35 33 -36 33 -133 32
-62 0 -110 -6 -131 -15z"/>
<path d="M1100 5192 c0 -4 7 -18 16 -31 9 -12 24 -49 34 -81 10 -32 32 -79 50
-104 29 -44 34 -47 63 -40 46 9 47 10 47 68 0 36 -8 68 -26 104 -36 72 -64 92
-130 92 -30 0 -54 -3 -54 -8z"/>
<path d="M989 5063 c-12 -38 -27 -76 -34 -86 -11 -15 -14 -16 -25 -2 -7 8 -20
15 -29 15 -9 0 -22 5 -28 11 -29 29 -63 -31 -63 -109 0 -19 -10 -48 -22 -64
-20 -28 -20 -33 -7 -57 20 -35 63 -39 101 -11 35 26 41 21 58 -42 12 -44 15
-48 44 -49 17 0 76 -16 131 -35 55 -20 121 -38 146 -41 l46 -5 -1 64 c-2 85
-5 89 -183 250 -24 22 -40 53 -65 128 -18 55 -35 100 -39 100 -4 0 -17 -30
-30 -67z"/>
<path d="M5917 4520 c-50 -32 -55 -45 -33 -88 18 -35 252 -263 290 -282 27
-14 29 -13 52 13 28 33 30 58 9 117 -8 23 -15 69 -15 101 l0 59 -34 0 c-47 0
-103 25 -158 71 -26 21 -51 39 -55 39 -5 0 -30 -13 -56 -30z"/>
<path d="M8344 4431 c-11 -5 -47 -12 -80 -16 -32 -4 -71 -14 -86 -22 -27 -13
-28 -16 -28 -93 l0 -80 39 0 c21 0 57 7 80 15 38 13 45 13 65 0 13 -9 31 -33
41 -55 16 -36 21 -40 56 -40 35 0 40 3 66 52 27 50 30 53 108 77 l80 26 3 41
c2 31 -2 46 -22 67 -24 25 -30 27 -113 27 -48 0 -110 2 -138 5 -27 3 -59 1
-71 -4z"/>
<path d="M1107 4350 c-41 -26 -47 -34 -47 -62 1 -56 43 -141 79 -160 45 -23
121 -94 121 -113 0 -15 54 -55 75 -55 15 0 45 53 45 78 0 22 10 27 83 37 26 3
47 11 47 16 0 23 -109 123 -182 166 -69 40 -78 49 -78 75 0 21 -6 31 -26 38
-41 16 -67 12 -117 -20z"/>
<path d="M7775 4216 c-28 -13 -69 -44 -93 -71 -46 -50 -52 -51 -120 -24 -30
12 -34 12 -57 -11 -48 -50 -95 -141 -95 -187 0 -30 4 -43 14 -43 27 0 121 21
149 33 24 10 27 17 25 47 l-3 35 76 26 c79 27 119 50 155 91 22 24 74 110 74
121 0 15 -78 4 -125 -17z"/>
<path d="M5468 4054 c-62 -19 -98 -69 -98 -135 0 -36 5 -51 25 -69 23 -22 27
-22 52 -9 15 8 54 40 86 72 56 56 58 60 55 105 -3 46 -4 47 -38 49 -19 1 -56
-5 -82 -13z"/>
<path d="M6237 4063 c-2 -5 2 -29 10 -54 13 -45 16 -47 102 -88 78 -36 98 -41
159 -41 47 0 71 4 75 13 2 6 2 41 -2 77 l-6 65 -50 17 c-52 17 -280 26 -288
11z"/>
<path d="M6141 3871 c-33 -27 -34 -30 -25 -72 6 -31 5 -64 -5 -115 -19 -91
-14 -104 42 -104 52 0 92 35 100 90 4 19 9 50 13 68 5 27 0 41 -32 87 -52 77
-54 78 -93 46z"/>
<path d="M5649 3833 c-50 -33 -79 -67 -79 -92 0 -14 -9 -46 -20 -70 -23 -50
-27 -121 -7 -121 7 0 34 7 60 16 33 11 47 21 47 34 0 10 9 21 20 25 31 10 70
63 70 96 0 35 -36 115 -55 122 -7 3 -23 -2 -36 -10z"/>
<path d="M6633 3832 c-12 -4 -31 -20 -44 -35 -20 -26 -21 -32 -10 -68 7 -22
19 -43 27 -46 20 -7 111 12 185 38 51 19 89 55 89 86 0 24 -187 42 -247 25z"/>
<path d="M8093 3830 c-31 -13 -30 -52 3 -95 14 -19 23 -39 19 -46 -4 -6 3 -33
16 -61 22 -46 25 -49 53 -44 17 4 34 12 38 19 4 6 8 49 8 94 l0 82 -37 30
c-39 32 -61 36 -100 21z"/>
<path d="M8390 3528 c-11 -18 -20 -37 -20 -43 0 -5 18 -29 40 -52 38 -42 41
-43 105 -43 36 0 65 4 65 9 0 25 -27 81 -57 119 -30 37 -39 42 -74 42 -34 0
-42 -5 -59 -32z"/>
<path d="M5628 3442 l-57 -37 -1 -70 0 -70 43 -24 c29 -16 54 -22 82 -19 34 3
42 8 62 43 35 62 31 126 -9 175 -18 22 -40 39 -48 39 -8 0 -41 -17 -72 -37z"/>
<path d="M6891 3411 c-34 -41 -49 -50 -87 -57 -33 -7 -53 -17 -67 -37 l-21
-27 28 -58 c21 -41 30 -77 34 -129 l5 -73 53 0 c52 0 55 2 124 66 l70 66 0 76
c0 71 -3 80 -41 144 -23 38 -45 71 -49 73 -5 3 -27 -17 -49 -44z"/>
<path d="M6518 3353 c-18 -3 -35 -18 -54 -46 -14 -23 -44 -53 -66 -67 -42 -27
-88 -93 -88 -128 0 -38 40 -112 61 -112 4 0 15 25 24 55 l18 54 85 3 85 3 23
45 c18 33 24 62 24 112 0 86 -13 96 -112 81z"/>
<path d="M8613 3337 c-17 -7 -35 -15 -39 -19 -5 -6 32 -193 41 -206 2 -2 15 0
29 4 38 9 96 97 96 145 0 29 -7 43 -31 63 -33 28 -48 30 -96 13z"/>
<path d="M5913 3144 c-38 -16 -37 -13 -18 -51 8 -16 18 -52 21 -79 8 -57 20
-84 37 -84 7 0 31 18 55 40 57 54 58 91 2 149 -44 45 -49 46 -97 25z"/>
<path d="M8820 3059 c-52 -38 -117 -83 -145 -99 -27 -16 -56 -34 -63 -38 -11
-7 -9 -24 9 -86 14 -47 27 -76 36 -76 7 0 27 21 43 48 45 72 45 72 115 72 59
0 65 2 89 33 15 17 31 38 36 44 6 7 36 20 68 29 138 38 137 37 137 74 0 33 -3
35 -55 52 -30 9 -82 17 -115 17 -59 0 -62 -2 -155 -70z"/>
<path d="M7458 3062 c-36 -12 -51 -23 -63 -49 -10 -20 -23 -33 -35 -33 -10 0
-32 -17 -48 -38 -17 -21 -47 -47 -66 -57 -20 -11 -36 -23 -36 -28 0 -4 25 -19
55 -32 49 -22 60 -24 105 -14 41 9 58 20 92 59 24 26 70 62 103 80 58 31 94
64 95 86 0 12 -103 45 -136 43 -10 0 -40 -8 -66 -17z"/>
<path d="M9668 2863 c-22 -5 -48 -73 -48 -124 0 -35 6 -48 39 -81 35 -34 45
-39 78 -36 l38 3 3 54 c4 75 -30 166 -66 178 -15 5 -34 8 -44 6z"/>
<path d="M6610 2780 c0 -53 47 -150 73 -150 11 0 39 -10 63 -22 l44 -22 30 29
c56 53 37 96 -77 176 -31 22 -53 29 -87 29 l-46 0 0 -40z"/>
<path d="M5700 2734 c-21 -25 -50 -37 -129 -54 l-74 -16 -21 -57 c-16 -45 -17
-60 -8 -69 16 -16 197 -12 266 5 45 12 51 17 78 69 34 65 30 83 -26 117 -40
25 -69 27 -86 5z"/>
<path d="M8016 2698 c-3 -7 -10 -30 -16 -50 l-12 -38 -69 0 c-85 0 -91 -9 -54
-84 24 -48 31 -55 70 -65 67 -17 85 -15 85 12 1 31 17 49 73 82 27 15 51 34
54 41 2 6 -11 34 -30 61 -26 38 -40 49 -65 51 -20 2 -34 -2 -36 -10z"/>
<path d="M10205 2554 c-38 -29 -130 -72 -229 -105 l-98 -33 -69 -90 c-48 -62
-71 -101 -75 -128 -7 -42 -31 -67 -95 -95 -21 -9 -39 -22 -39 -28 0 -6 20 -30
44 -54 24 -24 52 -60 61 -82 l18 -38 -32 -36 c-36 -41 -39 -67 -11 -112 13
-23 18 -42 14 -63 -6 -29 7 -42 21 -20 3 5 50 48 103 94 53 46 131 116 172
155 47 44 83 71 98 71 27 0 29 21 2 45 -19 17 -18 19 44 144 75 149 106 245
106 330 0 65 -3 69 -35 45z"/>
<path d="M9169 2529 c-44 -15 -60 -27 -74 -54 -16 -29 -17 -39 -6 -74 l12 -41
93 0 c90 0 93 1 122 31 l29 31 -26 22 c-15 13 -30 32 -33 43 -7 22 -43 63 -54
62 -4 0 -32 -9 -63 -20z"/>
<path d="M6794 2363 c31 -109 31 -100 2 -137 -30 -39 -33 -72 -10 -104 12 -18
25 -22 64 -22 56 0 67 11 95 90 16 44 16 46 -11 100 -15 30 -30 62 -34 70 -5
10 -25 16 -59 18 -47 3 -52 1 -47 -15z"/>
<path d="M7208 2276 c-4 -88 -9 -80 62 -87 59 -6 71 -4 127 24 35 17 63 36 63
42 0 24 -75 48 -162 53 l-88 4 -2 -36z"/>
<path d="M3866 2099 c-26 -20 -26 -22 -26 -154 l0 -133 33 -21 c17 -11 38 -29
45 -40 8 -14 23 -21 45 -21 40 0 50 7 71 47 9 18 27 40 41 49 22 14 45 66 45
102 0 7 -13 12 -33 12 -41 0 -110 62 -147 133 -14 26 -30 47 -36 47 -6 0 -23
-9 -38 -21z"/>
<path d="M9043 1568 c-42 -28 -43 -31 -43 -84 0 -61 -29 -131 -100 -244 l-41
-65 36 -31 35 -31 -2 -98 c-2 -85 1 -99 17 -111 39 -29 70 -18 119 44 25 31
46 67 46 80 0 12 9 40 20 62 l20 39 -50 36 c-60 44 -62 58 -25 171 19 58 25
98 25 165 0 48 -3 90 -7 92 -5 3 -27 -8 -50 -25z"/>
<path d="M4861 1078 c-6 -29 -11 -90 -10 -135 2 -87 -8 -113 -42 -113 -22 0
-69 59 -69 87 0 29 -24 56 -46 51 -15 -3 -20 -15 -26 -63 -4 -33 -14 -78 -23
-100 -22 -60 -23 -297 -1 -350 9 -21 22 -43 29 -47 20 -13 141 -9 228 8 57 11
116 15 182 12 90 -5 101 -7 141 -36 l44 -32 158 9 c147 9 160 9 195 -10 21
-10 74 -28 116 -38 43 -11 104 -34 136 -51 54 -30 63 -32 139 -29 l82 4 29
-41 29 -42 -21 -56 c-11 -31 -21 -59 -21 -61 0 -2 17 -7 38 -10 20 -4 58 -14
84 -22 43 -15 57 -15 180 1 73 10 162 24 198 32 84 19 331 102 350 118 24 21
43 24 94 16 41 -6 58 -3 102 17 41 19 57 21 78 13 14 -5 53 -14 86 -19 57 -9
62 -8 123 23 81 43 147 52 207 31 24 -8 77 -18 117 -22 67 -5 76 -4 112 20 43
29 83 89 100 151 6 22 22 51 35 65 l26 27 -24 57 c-20 49 -22 65 -14 103 6 25
7 48 3 52 -10 10 -74 -67 -92 -111 -9 -21 -27 -44 -41 -51 -22 -12 -32 -11
-81 11 -49 22 -59 23 -98 13 -23 -7 -86 -41 -140 -76 -93 -60 -101 -64 -158
-64 -33 0 -67 5 -75 10 -22 14 -19 130 4 208 13 41 16 66 10 72 -14 14 -197
-6 -296 -31 -90 -23 -131 -24 -161 -5 -17 11 -38 12 -101 4 -52 -6 -111 -6
-175 1 -98 10 -106 14 -136 65 -7 13 -22 17 -55 15 -89 -4 -206 1 -286 11 -87
12 -134 2 -179 -40 -40 -37 -237 -74 -340 -62 l-70 7 3 63 c5 85 -2 92 -89 85
-38 -3 -69 -3 -69 1 0 4 11 29 25 56 29 58 26 92 -11 109 -41 18 -73 13 -100
-16 -105 -116 -127 -127 -213 -116 -35 5 -50 15 -87 57 -44 50 -45 52 -42 113
3 69 -16 103 -58 103 -19 0 -24 -8 -33 -52z"/>
</g>
</svg>
