<?xml version="1.0" standalone="no"?>
<!DOCTYPE svg PUBLIC "-//W3C//DTD SVG 20010904//EN"
 "http://www.w3.org/TR/2001/REC-SVG-20010904/DTD/svg10.dtd">
<svg version="1.0" xmlns="http://www.w3.org/2000/svg"
 width="1024.000000pt" height="1024.000000pt" viewBox="0 0 1024.000000 1024.000000"
 preserveAspectRatio="xMidYMid meet">
<metadata>
Created by potrace 1.16, written by Peter Selinger 2001-2019
</metadata>
<g transform="translate(0.000000,1024.000000) scale(0.100000,-0.100000)"
fill="#000000" stroke="none">
<path d="M7063 8689 c-6 -8 -14 -26 -18 -41 -5 -21 -16 -30 -44 -38 -53 -14
-73 -40 -76 -97 -1 -27 -5 -58 -9 -69 -4 -13 -1 -26 8 -33 13 -11 12 -18 -1
-59 -8 -26 -26 -56 -39 -67 -17 -15 -23 -32 -25 -65 -1 -25 2 -52 5 -61 7 -16
-16 -49 -34 -49 -5 0 -17 -14 -25 -31 -26 -49 -92 -73 -182 -65 l-73 6 0 -29
c0 -50 -37 -70 -121 -65 -87 4 -122 23 -113 59 4 15 2 25 -5 25 -6 0 -11 -9
-11 -19 0 -11 -5 -23 -10 -26 -6 -4 -7 -11 -3 -18 3 -6 6 -29 5 -51 -2 -36 2
-44 35 -68 24 -19 48 -28 72 -28 49 0 81 -24 81 -60 0 -43 -10 -60 -35 -60
-52 0 -87 -13 -96 -37 -5 -13 -21 -28 -35 -33 -25 -10 -26 -14 -21 -54 4 -23
2 -47 -2 -52 -5 -5 -11 -22 -15 -38 -6 -24 -4 -27 9 -22 9 3 21 6 26 6 5 0 9
17 9 38 0 42 9 53 73 91 47 29 110 32 162 9 67 -30 85 -25 143 42 36 40 61 60
76 60 12 0 33 11 46 25 29 30 34 31 72 4 29 -21 32 -21 58 -5 35 20 59 20 87
1 13 -9 24 -11 28 -5 3 5 28 12 55 16 59 8 66 21 44 86 -11 36 -15 76 -12 148
3 88 6 101 27 124 15 16 35 26 53 26 31 0 33 4 17 49 -14 41 2 105 31 124 33
20 23 44 -29 73 -31 16 -54 37 -61 55 -16 37 -19 136 -6 171 12 33 -8 62 -37
54 -33 -8 -65 10 -69 40 -2 23 -5 25 -15 13z"/>
<path d="M7728 8625 c-21 -14 -38 -30 -38 -36 0 -5 -11 -15 -25 -21 -14 -6
-25 -15 -25 -20 0 -13 26 -38 40 -38 6 0 16 -11 22 -25 7 -15 19 -25 33 -25
11 0 25 -4 31 -10 6 -6 23 -4 47 8 l38 17 -4 55 c-7 112 -48 144 -119 95z"/>
<path d="M7532 8408 c6 -18 28 -21 28 -4 0 9 -7 16 -16 16 -9 0 -14 -5 -12
-12z"/>
<path d="M6347 8133 c-13 -12 -7 -33 8 -33 8 0 15 9 15 20 0 20 -11 26 -23 13z"/>
<path d="M6476 8101 c-3 -4 6 -6 19 -3 14 2 25 6 25 8 0 8 -39 4 -44 -5z"/>
<path d="M6500 7425 c0 -14 5 -25 10 -25 6 0 10 11 10 25 0 14 -4 25 -10 25
-5 0 -10 -11 -10 -25z"/>
<path d="M6624 7399 c-3 -5 -14 -7 -25 -4 -14 5 -19 1 -19 -14 0 -14 9 -23 25
-27 34 -8 55 1 55 25 0 21 -26 36 -36 20z"/>
<path d="M6530 7220 c-1 -3 -3 -14 -4 -25 -2 -11 -6 -35 -10 -52 l-8 -33 44 3
c43 2 43 2 40 37 -4 40 -10 49 -20 33 -10 -15 -28 -3 -35 22 -2 11 -6 18 -7
15z"/>
<path d="M6380 7094 c0 -9 -9 -18 -20 -21 -11 -3 -20 -9 -20 -13 0 -11 43 -57
66 -68 41 -22 66 29 34 71 -11 14 -20 30 -20 36 0 6 -9 11 -20 11 -12 0 -20
-7 -20 -16z"/>
<path d="M5196 6051 c-6 -9 2 -41 11 -41 17 0 41 23 37 35 -7 16 -39 20 -48 6z"/>
<path d="M5684 5899 c-3 -6 -2 -15 4 -21 13 -13 32 -2 32 18 0 16 -26 19 -36
3z"/>
<path d="M5155 5890 c-3 -5 -1 -18 5 -29 21 -41 12 -67 -45 -118 -63 -58 -71
-87 -26 -96 16 -4 45 -20 65 -38 32 -28 36 -29 42 -12 14 44 38 94 51 104 17
15 17 37 -2 55 -21 21 -19 41 5 54 11 6 24 20 30 31 11 19 9 20 -24 14 -29 -6
-38 -3 -57 19 -24 28 -34 32 -44 16z"/>
<path d="M5572 5878 c2 -17 11 -24 30 -26 35 -4 29 20 -8 37 -23 10 -25 9 -22
-11z"/>
<path d="M5235 5530 c-22 -10 -48 -21 -57 -24 -23 -7 -12 -45 18 -58 28 -13
54 3 54 33 0 14 7 19 26 19 20 0 25 4 22 22 -4 29 -15 30 -63 8z"/>
<path d="M4152 4790 c-18 -16 -38 -30 -45 -30 -8 0 -23 -11 -36 -24 -12 -12
-39 -28 -60 -35 -28 -8 -41 -18 -45 -36 -5 -20 -18 -28 -68 -43 -34 -11 -66
-26 -70 -33 -4 -8 -13 -27 -20 -43 -8 -19 -24 -33 -41 -37 -41 -11 -54 -25
-62 -65 -10 -56 -69 -112 -162 -155 -61 -28 -86 -46 -97 -68 -9 -16 -29 -39
-46 -51 -26 -18 -30 -28 -30 -66 0 -59 -23 -113 -62 -145 -27 -23 -32 -33 -30
-65 2 -21 -9 -70 -24 -113 -23 -64 -36 -85 -86 -132 -51 -48 -58 -59 -53 -82
5 -19 2 -28 -14 -37 -12 -6 -21 -21 -21 -34 0 -13 -7 -26 -15 -30 -8 -3 -15
-14 -15 -24 0 -10 -11 -40 -24 -68 l-24 -49 29 -27 c17 -15 29 -37 29 -51 0
-14 7 -30 15 -37 22 -18 18 -40 -7 -40 -15 0 -31 -12 -45 -35 -26 -39 -28 -57
-12 -86 12 -24 -3 -49 -32 -49 -21 0 -38 -22 -21 -28 22 -7 12 -22 -25 -40
-36 -16 -38 -20 -38 -65 -1 -36 3 -48 16 -52 10 -3 24 -17 33 -30 9 -14 23
-25 31 -25 32 0 46 -75 22 -116 -6 -12 -20 -33 -31 -48 -16 -23 -17 -29 -4
-44 12 -15 18 -89 9 -117 -8 -23 0 -65 12 -65 6 0 25 14 40 32 l28 33 -7 -37
c-5 -34 -3 -39 20 -49 28 -13 30 -17 17 -38 -11 -18 -41 -7 -41 15 0 34 -23 6
-45 -55 -15 -41 -21 -75 -18 -100 5 -34 1 -42 -33 -78 -43 -45 -106 -69 -159
-60 -30 5 -31 4 -27 -25 4 -29 3 -30 -21 -24 -21 5 -29 0 -48 -30 -32 -52 -94
-94 -138 -94 -36 0 -82 -19 -131 -53 -32 -23 -18 -32 61 -41 33 -3 71 -13 85
-23 22 -14 27 -14 35 -2 5 8 9 20 9 27 0 7 14 12 35 12 19 0 35 -5 35 -11 0
-6 9 -8 20 -4 15 5 20 2 20 -13 0 -10 9 -27 19 -36 18 -16 19 -16 32 13 8 17
17 31 21 31 4 0 14 -21 22 -47 l14 -48 11 28 c6 15 8 46 5 70 -5 32 -2 46 9
55 13 11 16 10 22 -6 3 -11 4 -26 3 -33 -2 -7 4 -14 12 -15 8 0 20 -2 27 -2
16 -3 27 -40 15 -55 -9 -12 -15 -31 -32 -94 -10 -43 13 -46 31 -4 12 27 14 28
36 14 37 -24 44 -9 39 84 -5 97 -1 119 20 102 7 -6 22 -8 34 -4 16 5 20 2 20
-15 0 -12 -4 -30 -10 -40 -5 -10 -7 -26 -4 -35 6 -14 9 -14 25 4 11 11 24 32
29 46 5 14 16 25 25 25 8 0 15 7 15 15 0 8 9 19 20 25 24 13 25 27 6 49 -20
22 -31 71 -17 71 6 0 11 -6 11 -14 0 -8 18 -25 40 -37 22 -13 40 -29 40 -36 0
-9 10 -13 28 -11 22 3 28 -1 30 -22 2 -14 11 -33 19 -42 12 -14 19 -15 34 -5
17 10 23 8 43 -18 l24 -30 10 38 c6 20 7 49 3 64 -6 24 -13 28 -41 28 -28 0
-35 5 -47 32 -17 43 0 52 33 16 21 -22 27 -25 34 -13 15 24 43 0 60 -51 8 -24
20 -48 27 -54 18 -15 44 -100 37 -119 -4 -11 -1 -16 10 -16 11 0 16 9 16 30 0
18 6 33 15 36 23 9 13 54 -23 103 -18 25 -35 55 -38 67 -3 12 -15 25 -27 29
-21 7 -21 7 -2 12 11 3 25 10 32 15 19 15 33 0 33 -37 0 -39 27 -60 65 -51 17
4 24 1 28 -14 6 -24 35 -27 44 -5 10 27 -26 56 -62 49 -36 -6 -60 14 -51 43 5
14 16 18 52 17 25 -1 50 -6 57 -13 16 -16 58 -14 71 4 16 22 75 3 103 -32 19
-23 23 -25 23 -10 0 10 -4 27 -10 37 -13 25 -3 48 23 52 14 2 23 11 25 26 7
47 42 8 42 -47 0 -39 14 -47 28 -16 7 14 18 25 27 25 18 0 19 12 4 27 -16 16
-3 43 21 43 15 0 20 -7 20 -24 0 -32 19 -44 35 -23 7 10 24 17 39 17 19 0 26
5 26 19 0 11 -4 23 -10 26 -15 9 -12 35 4 35 7 0 19 -6 25 -14 6 -7 23 -11 39
-9 50 8 54 11 41 31 -14 23 -4 61 12 45 13 -13 86 6 93 24 10 24 -6 42 -40 49
-19 3 -34 11 -34 16 0 6 7 8 15 4 10 -4 15 1 15 14 0 26 15 25 48 -1 l27 -21
3 21 c2 15 11 21 27 21 15 0 26 7 30 20 4 13 15 20 32 20 25 0 25 1 10 18 -10
10 -17 27 -17 37 0 14 6 16 30 12 38 -8 38 2 0 28 -49 33 -35 50 38 48 6 -1
12 5 12 13 0 8 -4 14 -9 14 -15 0 -24 41 -12 53 7 7 16 6 29 -6 25 -22 32 -21
32 4 0 14 5 19 14 16 8 -3 17 1 20 9 3 8 0 17 -7 20 -19 7 -15 143 4 155 9 6
18 3 25 -6 15 -20 39 -19 64 2 25 22 25 30 0 38 -11 3 -20 15 -20 25 0 10 -4
21 -9 24 -5 4 -12 25 -16 49 -8 48 -22 79 -41 90 -16 9 -19 47 -4 47 6 0 10
13 10 29 0 16 6 32 13 34 8 4 3 14 -15 31 -25 22 -27 29 -21 75 3 28 12 56 19
62 8 6 14 22 14 36 0 39 28 82 58 89 15 3 33 7 40 10 7 2 24 -1 38 -6 17 -7
32 -6 46 1 16 9 23 7 35 -10 21 -30 53 -28 53 4 0 19 -8 28 -35 39 -21 9 -39
26 -45 42 -15 37 -3 223 20 314 10 41 22 99 25 129 6 41 12 55 26 58 22 6 22
4 8 113 -15 117 -15 145 1 174 12 23 11 27 -10 44 -17 14 -24 32 -27 73 -4 41
-12 61 -33 84 -25 26 -28 36 -25 80 4 52 29 114 52 128 21 13 15 32 -19 57
-79 59 -186 70 -273 28 -24 -11 -70 -20 -113 -23 l-72 -4 -61 54 c-86 74 -154
86 -207 35z"/>
<path d="M4885 4770 c-7 -12 2 -30 16 -30 5 0 9 9 9 20 0 21 -15 27 -25 10z"/>
<path d="M5030 4765 c0 -14 21 -45 31 -45 18 0 5 45 -13 48 -10 2 -18 1 -18
-3z"/>
<path d="M5140 4677 c0 -8 7 -20 15 -27 12 -10 15 -10 15 3 0 8 -7 20 -15 27
-12 10 -15 10 -15 -3z"/>
<path d="M4750 3040 c20 -13 33 -13 25 0 -3 6 -14 10 -23 10 -15 0 -15 -2 -2
-10z"/>
<path d="M3180 1775 c0 -14 -7 -28 -15 -31 -23 -9 -18 -22 15 -39 32 -17 55
-12 46 10 -2 7 1 18 7 24 8 8 7 11 -6 11 -11 0 -16 7 -14 22 1 14 -4 23 -15
26 -14 3 -18 -3 -18 -23z"/>
<path d="M3336 1714 c-14 -35 -5 -63 27 -88 28 -22 32 -23 36 -9 2 9 -6 25
-18 34 -17 14 -19 22 -12 42 5 14 7 28 4 31 -12 11 -31 6 -37 -10z"/>
<path d="M2570 1560 c0 -24 15 -27 24 -4 9 22 8 24 -9 24 -8 0 -15 -9 -15 -20z"/>
</g>
</svg>
