<?xml version="1.0" standalone="no"?>
<!DOCTYPE svg PUBLIC "-//W3C//DTD SVG 20010904//EN"
 "http://www.w3.org/TR/2001/REC-SVG-20010904/DTD/svg10.dtd">
<svg version="1.0" xmlns="http://www.w3.org/2000/svg"
 width="1024.000000pt" height="1024.000000pt" viewBox="0 0 1024.000000 1024.000000"
 preserveAspectRatio="xMidYMid meet">
<metadata>
Created by potrace 1.16, written by Peter Selinger 2001-2019
</metadata>
<g transform="translate(0.000000,1024.000000) scale(0.100000,-0.100000)"
fill="#000000" stroke="none">
<path d="M3992 8733 l-173 -3 7 -506 7 -506 -376 3 c-206 2 -378 1 -382 -3
-13 -12 6 -48 34 -62 14 -8 44 -17 65 -21 21 -4 40 -13 42 -19 2 -6 32 -12 70
-13 37 0 70 -5 75 -10 4 -4 4 -26 -1 -48 -12 -52 -6 -68 30 -82 20 -7 35 -24
45 -47 20 -47 49 -73 113 -101 37 -17 52 -29 52 -44 0 -10 15 -31 33 -45 60
-47 67 -56 67 -81 0 -21 9 -29 48 -46 26 -11 57 -30 70 -41 l22 -21 0 31 c0
34 10 45 34 36 18 -7 21 -35 5 -51 -7 -7 -2 -12 19 -16 22 -4 31 -14 38 -39 9
-29 14 -33 47 -34 21 -1 46 -9 58 -20 14 -12 36 -19 62 -19 35 0 42 -3 47 -24
4 -19 21 -31 70 -50 59 -24 69 -33 113 -96 54 -80 70 -127 61 -184 -5 -34 -4
-41 10 -41 9 0 19 7 22 15 8 19 24 20 24 1 0 -8 -7 -16 -15 -20 -10 -4 -15
-20 -15 -52 0 -40 2 -46 19 -41 41 10 69 -32 34 -52 -15 -9 -14 -10 10 -11 15
0 27 -5 27 -11 0 -7 14 -8 40 -4 26 4 40 3 40 -4 0 -6 17 -11 39 -11 42 0 66
-20 66 -54 0 -18 8 -22 50 -27 71 -8 95 -18 95 -40 0 -11 8 -23 18 -26 9 -4
20 -11 24 -17 12 -17 -2 -26 -22 -14 -27 17 -37 2 -15 -22 18 -20 17 -21 -25
-60 -42 -39 -43 -41 -33 -75 10 -31 9 -35 -7 -35 -24 0 -37 -20 -20 -30 11 -7
10 -12 -3 -25 -30 -30 -17 -81 25 -98 9 -4 8 -10 -6 -21 -19 -16 -19 -16 -1
-30 24 -17 14 -46 -14 -39 -17 4 -21 1 -21 -21 0 -25 8 -31 38 -27 6 1 12 -2
12 -7 0 -34 -14 -34 -1122 -27 l-1093 7 -122 -213 c-67 -118 -205 -360 -308
-539 -103 -179 -198 -345 -212 -370 -14 -25 -61 -107 -105 -183 l-80 -138 38
-54 c22 -30 79 -108 127 -174 l88 -119 -31 -51 c-25 -39 -37 -51 -57 -51 -14
0 -33 -10 -44 -22 -17 -20 -18 -34 -13 -115 6 -89 6 -94 -19 -127 -15 -19 -34
-41 -43 -50 -14 -15 -13 -25 15 -115 40 -129 42 -207 6 -241 -17 -16 -25 -34
-25 -57 0 -25 -10 -44 -42 -78 l-41 -46 24 -25 c13 -14 41 -34 61 -45 20 -10
51 -37 69 -59 19 -24 41 -40 54 -40 12 0 28 -12 38 -30 13 -21 30 -33 60 -40
33 -9 63 -32 137 -106 141 -140 153 -151 178 -159 12 -3 33 -22 46 -42 25 -36
192 -141 413 -258 59 -32 148 -82 197 -112 159 -98 290 -139 546 -172 238 -31
347 -34 627 -21 l258 12 150 -30 c196 -40 309 -78 480 -162 77 -37 178 -81
224 -96 l84 -28 19 24 c18 22 18 23 -2 57 -11 19 -20 44 -20 56 0 25 35 87 49
87 19 0 72 53 91 90 14 27 42 52 102 90 91 58 138 97 138 116 0 6 9 23 21 38
26 33 84 36 121 6 36 -28 78 -42 105 -35 21 5 23 11 23 76 0 84 21 131 81 182
43 37 138 67 213 67 19 0 41 3 50 6 20 8 21 33 2 40 -17 6 -34 47 -38 89 -2
24 -8 31 -30 33 -45 5 -46 72 -2 72 18 0 18 8 -1 26 -18 18 -20 65 -3 82 19
19 59 15 65 -8 5 -19 6 -19 35 5 26 22 39 25 104 25 68 0 75 2 90 25 l17 26
11 -23 c6 -13 20 -23 31 -23 17 0 20 7 20 39 0 24 5 41 15 46 67 31 73 37 91
84 34 91 77 119 156 103 48 -10 54 -9 68 9 9 12 14 43 15 88 0 52 5 78 23 109
18 33 19 41 8 45 -29 10 -62 52 -56 71 9 28 -12 63 -56 93 -63 44 -66 111 -6
140 28 14 37 26 55 82 28 84 27 90 -3 104 -32 15 -32 46 0 94 25 37 54 51 249
119 58 20 87 41 190 130 66 58 183 147 258 197 86 58 213 158 345 274 358 313
350 305 356 344 8 45 23 64 53 64 13 0 28 9 35 21 8 17 17 20 40 15 28 -5 28
-4 26 34 l-2 40 -148 93 c-94 58 -182 122 -238 173 -61 57 -103 87 -135 98
-53 18 -94 21 -94 7 0 -14 74 -72 160 -125 l75 -46 -63 1 c-34 1 -66 -1 -69
-5 -4 -3 -6 -29 -4 -56 2 -45 -3 -58 -50 -130 -29 -44 -58 -80 -66 -80 -16 0
-17 34 -1 60 18 29 -12 55 -162 141 -117 67 -130 72 -210 81 -64 7 -103 18
-158 45 l-73 36 -132 -7 c-91 -5 -147 -4 -179 4 -34 9 -56 9 -78 2 -29 -11
-30 -10 -30 18 0 15 21 426 47 912 50 953 54 1144 37 2076 l-6 372 -1382 -2
c-759 -1 -1459 -4 -1554 -5z"/>
</g>
</svg>
