<?xml version="1.0" standalone="no"?>
<!DOCTYPE svg PUBLIC "-//W3C//DTD SVG 20010904//EN"
 "http://www.w3.org/TR/2001/REC-SVG-20010904/DTD/svg10.dtd">
<svg version="1.0" xmlns="http://www.w3.org/2000/svg"
 width="1024.000000pt" height="768.000000pt" viewBox="0 0 1024.000000 768.000000"
 preserveAspectRatio="xMidYMid meet">
<metadata>
Created by potrace 1.16, written by Peter Selinger 2001-2019
</metadata>
<g transform="translate(0.000000,768.000000) scale(0.100000,-0.100000)"
fill="#000000" stroke="none">
<path d="M5054 6410 c-49 -11 -113 -46 -189 -103 -38 -28 -111 -70 -161 -93
-51 -23 -127 -68 -170 -99 -67 -50 -189 -114 -384 -203 -47 -21 -139 -64 -321
-150 -147 -69 -177 -74 -361 -60 -84 6 -268 12 -408 13 -251 2 -256 2 -330 29
-114 42 -176 47 -305 24 -60 -10 -124 -24 -142 -30 -26 -10 -42 -8 -87 7 l-55
19 -78 -40 c-43 -21 -150 -78 -238 -126 -189 -102 -233 -118 -323 -118 -37 0
-84 -5 -106 -11 -86 -24 -144 -26 -340 -13 -224 16 -269 11 -343 -35 -45 -27
-48 -37 -20 -55 12 -8 28 -5 62 12 25 12 56 22 69 22 32 0 158 -99 185 -146
22 -36 22 -36 72 -30 46 6 53 4 92 -26 23 -18 43 -36 45 -39 2 -4 25 -35 52
-69 28 -34 50 -67 50 -74 0 -21 43 -53 80 -60 19 -3 43 -16 53 -29 l17 -22 23
28 c18 21 31 27 64 27 32 0 46 5 58 23 15 21 17 21 26 4 8 -14 14 -16 25 -6
11 9 21 9 42 0 34 -14 76 -2 92 28 6 12 15 46 21 77 6 31 20 70 31 87 11 18
17 23 13 12 -3 -11 -11 -42 -17 -69 -11 -52 -7 -60 39 -72 18 -5 34 7 85 62
86 92 150 131 256 156 120 28 140 36 181 77 34 34 35 34 17 6 -11 -16 -29 -38
-40 -47 -22 -19 -203 -125 -296 -174 -33 -18 -62 -42 -74 -62 -18 -32 -18 -35
-2 -69 15 -32 15 -38 3 -51 -20 -19 -37 -7 -37 24 0 22 -3 24 -22 19 -35 -10
-97 -55 -118 -85 -24 -34 -90 -178 -90 -197 0 -8 9 -45 19 -81 11 -37 22 -88
26 -114 11 -87 50 -122 158 -143 23 -5 34 -18 62 -76 21 -44 46 -80 67 -95 45
-34 129 -56 192 -52 50 3 56 0 96 -36 36 -32 47 -37 74 -32 17 3 39 15 48 26
9 11 42 32 73 45 48 22 70 25 168 25 105 0 116 2 154 26 48 32 73 70 73 114 0
21 4 30 12 28 18 -6 39 18 32 36 -6 15 -2 17 74 31 44 9 90 37 102 63 l11 25
21 -23 c20 -21 27 -22 112 -17 l90 5 31 -34 c42 -45 86 -46 137 -4 20 17 39
26 42 22 3 -5 -3 -32 -12 -60 -14 -42 -20 -50 -37 -46 -20 5 -69 12 -92 13 -7
1 -22 19 -33 41 -19 36 -24 40 -60 40 -48 0 -144 -34 -187 -67 -35 -25 -107
-140 -119 -186 -4 -19 -17 -32 -39 -42 -45 -18 -61 -45 -85 -150 -12 -49 -35
-115 -51 -146 -33 -66 -43 -121 -31 -163 13 -48 34 -54 79 -24 21 14 55 32 75
39 40 14 58 45 58 103 0 45 10 74 26 80 12 5 14 -4 9 -52 -3 -31 -2 -63 3 -70
10 -15 72 -26 88 -15 22 15 111 208 117 252 10 77 75 104 130 56 15 -13 27
-25 27 -27 0 -2 -24 -2 -53 0 l-53 4 -27 -59 c-15 -32 -41 -110 -56 -173 -27
-112 -28 -115 -9 -118 23 -4 116 40 195 91 40 26 73 37 151 51 85 15 113 25
194 71 51 29 106 57 121 60 19 5 45 31 83 82 31 41 67 78 82 84 14 6 52 35 83
65 56 52 59 54 114 54 49 0 62 5 101 35 85 64 192 61 286 -9 46 -34 74 -47
126 -56 37 -7 85 -19 107 -27 140 -49 184 -42 267 44 48 49 85 74 156 109 l94
46 43 -16 c31 -12 57 -15 93 -10 43 5 53 3 76 -17 33 -29 33 -39 -1 -39 -16 0
-33 -4 -39 -8 -6 -4 -25 -47 -43 -96 -21 -60 -44 -103 -71 -134 -22 -25 -40
-48 -40 -52 0 -14 63 -101 86 -119 13 -10 47 -22 76 -25 59 -8 83 -24 116 -78
34 -54 70 -77 106 -67 27 7 28 7 14 -7 -21 -21 -100 -22 -131 -1 -13 8 -30 29
-36 46 -13 31 -32 40 -154 72 -64 16 -96 62 -104 148 -5 52 -2 68 24 123 41
85 45 101 34 132 -9 21 -17 26 -46 26 -29 0 -46 -10 -102 -64 -45 -42 -80 -66
-103 -71 -19 -4 -54 -23 -77 -41 l-41 -34 -184 0 c-148 0 -199 4 -266 20 -101
24 -184 26 -206 5 -13 -14 -17 -13 -34 5 l-19 21 -32 -27 c-20 -17 -35 -42
-42 -70 -8 -32 -19 -49 -39 -59 -43 -22 -147 -140 -160 -182 -7 -21 -26 -57
-41 -80 -32 -47 -35 -76 -14 -146 26 -87 27 -87 83 -29 28 29 58 52 67 52 16
0 17 -8 13 -63 -5 -57 -3 -64 19 -80 31 -24 55 -16 115 41 45 42 49 44 46 21
-2 -13 -18 -50 -36 -81 -17 -32 -32 -61 -32 -65 0 -4 -12 -20 -27 -35 l-27
-28 27 -54 c15 -29 27 -58 27 -63 0 -6 11 -18 25 -27 24 -16 25 -16 25 9 0 21
4 25 18 21 15 -5 18 0 18 26 0 18 4 47 8 63 l8 30 11 -35 c14 -39 44 -52 63
-25 11 15 18 16 44 6 30 -10 31 -9 24 12 -3 12 -20 48 -36 79 -41 79 -33 109
11 40 31 -49 77 -92 98 -92 6 0 15 11 21 24 9 20 7 27 -9 42 -17 16 -39 71
-39 102 0 6 9 12 20 12 18 0 19 3 10 20 -8 16 -8 20 4 20 15 0 30 -37 42 -102
8 -49 18 -48 33 2 12 39 24 50 36 30 3 -5 17 -10 31 -10 17 0 27 8 34 26 13
33 0 56 -45 84 -39 24 -46 49 -15 51 11 1 26 2 32 3 7 0 15 18 19 39 3 21 12
43 18 50 10 9 11 2 6 -34 -5 -35 -3 -49 9 -62 14 -14 14 -19 1 -50 -8 -19 -11
-37 -8 -41 13 -13 42 -5 60 17 10 13 26 26 36 30 13 5 16 13 11 31 -3 15 2 43
15 71 12 26 21 54 21 61 0 22 30 16 67 -12 43 -32 42 -44 -4 -41 -32 2 -38 -2
-47 -26 -7 -20 -7 -33 2 -47 17 -28 15 -37 -12 -44 -15 -4 -28 -18 -35 -38
-10 -28 -9 -35 6 -46 15 -10 20 -8 39 15 19 24 23 26 29 11 14 -36 65 -31 65
6 0 12 9 25 23 31 12 6 23 20 25 32 3 20 6 21 24 12 11 -6 34 -8 50 -5 36 7
29 -8 -15 -30 -34 -17 -66 -51 -67 -70 0 -7 12 -14 28 -17 15 -3 39 -9 55 -13
34 -8 52 6 68 54 16 51 24 57 37 26 11 -23 9 -29 -23 -61 -38 -38 -40 -63 -3
-63 12 0 37 -14 55 -32 l33 -32 0 25 c0 30 26 69 46 69 9 0 14 -11 14 -33 0
-27 -6 -36 -26 -45 -20 -10 -25 -18 -22 -40 3 -27 4 -27 69 -26 40 1 79 9 98
19 40 20 49 14 27 -21 -26 -39 -75 -54 -175 -55 l-88 0 -12 -40 c-15 -51 -46
-56 -37 -5 6 29 3 34 -16 40 l-23 7 22 9 c13 5 45 12 73 16 55 7 60 16 27 55
-43 51 -111 68 -105 27 2 -15 -3 -24 -14 -26 -13 -2 -17 5 -20 34 -2 20 -10
40 -18 44 -97 47 -110 50 -138 36 -15 -8 -34 -26 -41 -40 -13 -23 -12 -29 14
-65 20 -30 26 -47 21 -66 -8 -31 -23 -32 -60 -2 -28 23 -29 26 -19 66 l11 42
-28 -6 c-15 -3 -54 1 -86 9 -32 8 -60 14 -61 12 -2 -2 0 -14 5 -26 5 -14 23
-29 43 -35 31 -11 34 -15 34 -53 0 -29 -4 -42 -14 -42 -14 0 -72 54 -88 83 -9
18 -12 17 -47 -6 -20 -14 -50 -28 -66 -32 -21 -5 -30 -13 -30 -26 0 -20 7 -20
56 -2 18 7 74 -56 74 -83 0 -13 -4 -24 -10 -24 -5 0 -13 0 -17 0 -5 0 -9 5 -9
10 -1 6 -2 15 -3 20 0 6 -19 10 -41 10 -27 0 -43 5 -46 15 -4 8 -14 15 -23 15
-21 0 -43 -67 -30 -93 9 -17 6 -17 -43 -11 -29 4 -63 11 -76 15 -16 6 -28 5
-37 -4 -11 -12 -10 -19 6 -43 10 -16 19 -38 19 -49 -1 -18 -1 -19 -11 -2 -15
26 -46 21 -63 -10 -15 -28 -16 -28 -22 -6 l-6 23 -25 -20 c-29 -23 -54 -25
-71 -8 -16 16 -24 -9 -20 -57 3 -34 12 -46 46 -61 2 -1 -17 -33 -41 -70 -61
-96 -101 -202 -93 -248 8 -42 33 -53 73 -33 15 8 43 17 62 21 44 8 57 20 81
73 17 38 27 47 85 73 67 30 73 37 94 116 11 43 42 77 79 89 28 8 28 -6 1 -31
-34 -30 -50 -71 -52 -131 -2 -49 1 -57 24 -75 25 -19 28 -19 60 -3 19 10 57
36 84 59 66 56 80 64 66 40 -21 -37 -47 -62 -81 -79 -19 -10 -45 -27 -58 -38
-21 -19 -26 -20 -65 -8 -93 28 -90 29 -142 -39 -50 -65 -70 -109 -81 -179 -6
-36 -4 -42 16 -49 22 -8 23 -13 24 -134 1 -141 10 -162 72 -174 37 -7 57 -26
71 -69 9 -28 13 -30 64 -31 30 0 68 -8 86 -17 20 -11 55 -17 93 -17 33 0 77
-7 97 -15 48 -20 48 -20 61 24 16 50 15 102 -3 176 -18 73 -11 105 20 105 22
0 22 -2 12 -29 -8 -22 -7 -59 5 -153 14 -104 14 -133 3 -188 -7 -36 -16 -72
-19 -81 -4 -9 -40 -34 -79 -55 -50 -27 -73 -45 -75 -61 -6 -39 86 -123 135
-123 32 0 118 102 166 196 14 28 43 65 64 83 65 54 73 64 73 88 0 19 4 23 18
19 12 -4 20 1 27 17 8 17 17 21 42 19 35 -4 48 10 45 50 -2 24 3 28 37 38 54
14 94 50 124 109 24 50 39 54 51 15 8 -26 -9 -69 -41 -105 l-23 -25 30 -22
c16 -13 30 -26 30 -31 0 -5 -27 -12 -61 -15 -59 -7 -61 -8 -56 -32 5 -26 2
-28 -44 -38 -21 -5 -30 -17 -48 -66 -12 -33 -26 -60 -31 -60 -19 0 -43 -53
-66 -147 -13 -54 -24 -107 -24 -119 0 -44 57 -68 125 -51 l30 7 -30 -25 c-56
-47 -65 -58 -65 -82 0 -84 222 68 375 257 20 25 98 165 174 311 123 238 141
279 166 380 35 146 64 214 129 308 29 42 92 135 141 206 48 72 100 143 114
158 61 67 145 85 311 67 139 -16 134 -16 200 -6 39 6 92 28 185 79 72 38 184
99 250 135 173 92 192 107 226 174 16 31 37 61 46 66 11 6 53 6 103 1 47 -4
131 -8 187 -8 94 -1 104 -3 132 -27 47 -39 90 -47 177 -33 57 9 91 9 147 0 86
-14 98 -11 203 55 71 44 73 45 103 30 42 -22 82 -20 121 7 47 32 70 81 70 149
0 50 3 58 19 58 23 0 38 -17 43 -50 2 -17 14 -30 36 -39 23 -10 32 -21 32 -37
0 -14 9 -28 22 -35 51 -27 218 21 251 73 9 12 20 62 26 110 9 75 7 113 -14
270 -24 189 -23 284 5 386 13 49 0 112 -29 141 -11 11 -38 22 -62 26 -86 13
-121 29 -166 73 -24 24 -52 61 -63 82 -15 30 -29 41 -66 54 -26 9 -68 35 -93
59 -46 43 -138 87 -184 87 -42 0 -50 13 -42 71 11 82 40 113 160 170 56 27
111 59 121 70 39 44 155 88 182 70 12 -7 11 -14 -2 -40 l-17 -31 102 0 c133 0
186 18 223 75 14 23 26 51 26 62 0 11 7 40 15 63 10 28 15 74 14 129 -2 77 2
94 30 160 37 83 42 141 15 192 -9 19 -50 75 -91 126 -92 115 -108 157 -99 267
3 44 9 100 12 122 l6 42 -883 6 c-1600 10 -3403 14 -3435 6z m-2507 -976 c-3
-3 -12 -4 -19 -1 -8 3 -5 6 6 6 11 1 17 -2 13 -5z m990 -1430 c-3 -3 -12 -4
-19 -1 -8 3 -5 6 6 6 11 1 17 -2 13 -5z"/>
<path d="M2673 4111 c-5 -20 -106 -65 -147 -65 -17 0 -61 4 -98 9 -89 10 -131
-5 -117 -42 5 -13 9 -48 9 -76 0 -81 7 -96 49 -103 62 -10 65 -12 104 -74 21
-32 46 -61 55 -64 39 -10 153 0 169 16 8 9 26 56 39 103 14 54 36 107 58 139
45 67 55 123 26 154 -19 20 -30 23 -82 21 -46 -2 -62 -6 -65 -18z"/>
<path d="M4250 3323 c-19 -8 -48 -13 -66 -10 -27 5 -38 -1 -83 -47 -28 -28
-51 -59 -51 -68 0 -12 -10 -18 -37 -20 -31 -2 -43 -11 -68 -45 -17 -23 -46
-48 -67 -57 -28 -12 -35 -20 -31 -35 7 -26 25 -33 103 -38 40 -3 69 -10 76
-19 15 -19 26 -18 52 6 31 29 29 64 -5 77 l-28 11 36 1 c25 1 43 9 65 32 25
27 33 29 64 23 36 -8 111 -7 119 1 2 3 -9 23 -24 45 -25 36 -26 43 -15 70 7
16 16 30 21 30 5 0 9 14 9 30 0 35 -14 37 -70 13z"/>
<path d="M2894 3237 c-16 -19 -48 -44 -70 -57 -44 -23 -71 -66 -95 -148 -14
-47 -77 -113 -147 -152 -27 -15 -41 -29 -37 -38 3 -7 5 -17 5 -22 0 -4 22 -22
50 -40 27 -18 58 -43 68 -57 18 -25 19 -25 51 -9 18 10 41 26 52 37 19 19 22
19 38 5 17 -15 19 -15 34 6 l15 23 12 -32 c14 -40 27 -38 142 16 58 27 76 40
72 51 -41 98 -44 154 -12 212 22 38 22 40 4 53 -14 11 -17 21 -11 52 5 33 2
42 -19 63 -15 13 -26 19 -26 14 0 -5 -5 -16 -10 -24 -8 -13 -11 -12 -24 5 -9
11 -16 30 -16 43 0 12 -4 22 -9 22 -5 0 -16 3 -24 6 -9 3 -26 -8 -43 -29z"/>
<path d="M1925 3154 c-36 -40 -47 -46 -100 -54 -33 -6 -84 -10 -113 -10 -37 0
-70 -8 -108 -27 -52 -25 -69 -43 -40 -43 8 0 14 -10 15 -22 0 -13 1 -30 1 -38
1 -8 -2 -25 -5 -37 -6 -19 -3 -23 12 -23 11 0 32 9 46 20 20 16 40 20 103 20
74 0 80 -2 110 -31 l31 -30 34 20 c19 12 46 21 60 21 20 0 28 6 33 26 4 14 22
48 41 76 44 63 61 122 46 156 -8 17 -16 22 -29 17 -32 -14 -70 -17 -76 -6 -11
17 -18 13 -61 -35z"/>
<path d="M2215 3003 c-86 -10 -136 -36 -161 -85 -8 -16 -43 -44 -79 -65 -36
-20 -65 -41 -65 -45 0 -10 69 -28 111 -28 20 0 62 -5 94 -12 56 -11 59 -11 74
11 9 13 44 54 79 92 59 65 71 90 54 115 -8 13 -65 22 -107 17z"/>
<path d="M3735 2963 c-11 -8 -30 -12 -42 -10 -17 3 -24 -3 -33 -26 -16 -47
-39 -67 -76 -67 -23 0 -37 -6 -44 -20 -26 -48 86 -96 126 -55 21 20 31 19 39
-6 7 -20 8 -19 43 7 47 35 53 45 48 68 -3 10 -1 29 4 42 8 20 6 24 -10 24 -16
0 -19 5 -14 24 7 29 -14 39 -41 19z"/>
<path d="M2180 2385 c-7 -9 -21 -13 -31 -10 -24 8 -95 -29 -115 -60 -9 -14
-13 -32 -9 -45 4 -14 2 -20 -9 -20 -18 0 -41 -33 -50 -71 -5 -23 0 -28 47 -50
53 -24 133 -29 242 -14 40 5 41 7 37 40 -4 31 -1 36 33 52 37 18 37 18 33 70
-6 70 -19 83 -84 83 -42 0 -56 4 -67 20 -13 18 -16 19 -27 5z"/>
<path d="M3610 2369 c-14 -5 -32 -22 -42 -38 -11 -20 -26 -31 -45 -33 -24 -3
-28 -7 -28 -35 0 -22 -10 -42 -32 -65 -31 -32 -42 -58 -25 -58 4 0 13 -4 21
-9 11 -7 7 -15 -18 -37 -29 -27 -31 -31 -21 -66 6 -21 21 -44 33 -53 20 -14
23 -14 38 4 20 24 67 17 79 -13 8 -20 9 -19 20 9 7 17 13 58 13 93 0 63 7 76
27 45 9 -16 13 -15 41 17 21 25 29 43 26 62 -3 23 -1 26 15 17 11 -6 24 -21
30 -35 7 -14 18 -23 27 -22 14 3 16 19 13 103 -1 55 -5 106 -7 113 -5 14 -126
16 -165 1z"/>
<path d="M3158 2333 c-20 -21 -45 -57 -57 -80 -21 -41 -28 -118 -13 -138 19
-29 73 -55 110 -55 55 0 72 25 72 105 0 33 7 85 15 115 21 77 14 90 -44 90
-41 0 -51 -5 -83 -37z"/>
<path d="M2477 2082 c-15 -9 -27 -24 -27 -33 0 -10 -3 -25 -6 -34 -6 -14 -8
-14 -32 1 -23 15 -26 15 -34 0 -5 -10 -21 -21 -34 -26 -26 -10 -27 -12 -44
-78 -8 -32 -20 -48 -48 -66 -20 -13 -41 -21 -46 -18 -5 3 6 13 24 22 33 17 33
18 11 25 -39 12 -87 -4 -132 -43 -50 -45 -49 -60 6 -135 46 -61 109 -107 149
-107 18 0 49 -9 71 -20 44 -22 51 -21 35 9 -8 16 -8 27 2 44 12 21 13 20 18
-18 4 -36 8 -40 30 -37 14 1 57 6 95 10 96 10 109 20 113 79 6 79 5 117 -3
141 -6 18 -4 22 14 22 20 0 19 2 -9 47 -33 51 -39 103 -15 123 24 20 18 46
-17 72 -45 34 -87 41 -121 20z"/>
<path d="M2748 2064 c-90 -29 -128 -64 -128 -121 0 -41 21 -62 62 -63 25 0 26
-1 15 -29 -9 -25 -7 -43 13 -105 13 -42 27 -76 32 -76 16 0 98 94 117 134 17
35 19 55 14 141 -6 108 -15 145 -35 145 -7 -1 -48 -12 -90 -26z"/>
<path d="M2915 2036 c-16 -29 -16 -40 -7 -79 17 -66 15 -101 -10 -152 l-22
-45 24 -25 c27 -29 27 -30 -20 -42 -31 -8 -35 -13 -35 -44 0 -25 4 -33 15 -30
8 3 65 6 127 7 123 3 147 11 157 49 6 24 -19 85 -35 85 -3 0 -12 35 -19 78 -7
42 -21 94 -32 115 -22 44 -92 117 -111 117 -8 0 -22 -15 -32 -34z m59 -262
c31 -12 5 -54 -33 -54 -15 0 -14 33 1 48 14 14 12 14 32 6z"/>
</g>
</svg>
