<?xml version="1.0" standalone="no"?>
<!DOCTYPE svg PUBLIC "-//W3C//DTD SVG 20010904//EN"
 "http://www.w3.org/TR/2001/REC-SVG-20010904/DTD/svg10.dtd">
<svg version="1.0" xmlns="http://www.w3.org/2000/svg"
 width="1024.000000pt" height="839.000000pt" viewBox="0 0 1024.000000 839.000000"
 preserveAspectRatio="xMidYMid meet">
<metadata>
Created by potrace 1.16, written by Peter Selinger 2001-2019
</metadata>
<g transform="translate(0.000000,839.000000) scale(0.100000,-0.100000)"
fill="#000000" stroke="none">
<path d="M2063 8346 c4 -26 23 -93 43 -149 41 -113 52 -167 35 -167 -19 0 -45
-51 -52 -107 -9 -64 -28 -97 -70 -119 -29 -14 -35 -14 -73 0 -56 22 -73 20
-135 -10 -51 -26 -141 -108 -141 -129 0 -18 112 -85 142 -85 21 0 42 -13 77
-47 26 -27 67 -61 91 -76 l43 -29 -7 -86 c-3 -48 -9 -139 -12 -202 -4 -63 -11
-123 -15 -132 -10 -19 -85 -34 -121 -25 -13 4 -30 18 -39 33 l-16 27 -32 -46
c-17 -25 -37 -50 -44 -54 -6 -4 -52 -11 -102 -14 -49 -3 -111 -12 -138 -19
l-47 -14 -31 37 -30 37 -82 0 c-93 0 -100 -3 -187 -90 -43 -44 -75 -64 -148
-94 -83 -35 -106 -40 -205 -46 -62 -4 -123 -12 -137 -17 -52 -22 -123 -117
-215 -288 -69 -129 -152 -271 -197 -338 -46 -68 -139 -162 -182 -184 -17 -9
-32 -17 -34 -18 -11 -9 57 -121 83 -137 65 -41 149 4 184 98 12 30 28 68 35
82 14 26 81 72 106 72 17 0 4 -46 -21 -78 -33 -42 -23 -80 29 -114 l22 -15
-30 -38 c-47 -59 -40 -116 17 -140 23 -10 39 -26 48 -50 9 -19 19 -35 23 -35
4 0 39 39 77 86 76 94 88 93 60 -3 -24 -82 -57 -141 -114 -209 -39 -45 -51
-67 -51 -92 0 -28 5 -35 35 -47 28 -12 44 -13 86 -4 47 10 54 9 66 -7 7 -10
13 -39 13 -65 0 -32 9 -64 32 -108 31 -60 31 -62 18 -117 -19 -79 -12 -88 86
-95 44 -3 94 -13 112 -23 17 -9 70 -52 116 -95 46 -44 97 -86 114 -95 38 -20
88 -20 124 -2 31 16 33 15 37 -34 2 -38 1 -37 133 -141 67 -54 92 -82 130
-147 54 -90 111 -147 157 -157 18 -4 54 -1 82 5 64 16 79 5 79 -59 0 -46 -40
-142 -90 -218 l-21 -32 23 -5 c13 -3 42 -7 66 -9 55 -6 70 -20 99 -86 13 -30
42 -79 64 -109 33 -47 39 -63 39 -106 0 -80 16 -96 100 -96 67 0 70 -1 76 -27
4 -14 4 -98 0 -185 l-7 -160 34 26 c44 34 77 33 156 -6 141 -69 186 -36 299
223 l20 46 61 6 c88 10 129 30 196 100 33 34 73 70 88 80 36 24 84 109 97 174
11 50 22 68 110 178 22 28 63 95 91 150 28 55 56 106 64 114 7 7 82 29 167 48
84 19 163 37 175 40 16 4 33 -6 66 -41 25 -25 54 -46 65 -46 33 0 333 79 348
91 8 6 19 29 24 50 9 33 15 39 45 45 19 3 108 1 198 -5 89 -6 281 -13 427 -17
145 -4 276 -10 290 -14 35 -9 66 -59 74 -118 7 -57 15 -66 72 -81 48 -13 70
-38 157 -180 32 -52 80 -126 108 -165 27 -39 69 -101 93 -138 40 -62 42 -68
28 -90 -13 -22 -12 -30 9 -83 23 -57 27 -62 86 -90 85 -41 158 -123 157 -175
-2 -56 -24 -93 -62 -104 -47 -13 -65 -46 -66 -119 l-1 -62 65 -16 c88 -22 119
-38 136 -70 21 -41 35 -158 28 -241 -6 -71 -5 -74 31 -133 56 -90 65 -108 65
-133 0 -42 -32 -80 -137 -163 -84 -67 -107 -90 -128 -134 -14 -30 -25 -58 -25
-64 0 -5 -15 -29 -34 -54 -44 -57 -52 -74 -59 -120 -7 -43 5 -48 40 -15 24 23
42 25 153 18 63 -4 99 17 210 125 61 59 106 95 125 99 17 3 61 0 98 -8 63 -13
73 -13 139 5 114 32 134 29 175 -20 l35 -42 72 6 c120 10 135 15 189 58 68 56
72 58 91 51 22 -8 40 -46 56 -112 7 -30 19 -56 27 -59 8 -3 34 -1 58 4 43 10
43 10 49 -20 8 -39 22 -55 62 -72 49 -20 64 -52 72 -152 7 -86 11 -97 57 -159
6 -8 4 -31 -4 -65 l-14 -53 39 -32 38 -32 -27 -39 c-20 -28 -27 -51 -27 -84 0
-68 26 -162 65 -237 35 -67 35 -67 37 -212 2 -162 -3 -178 -72 -285 -21 -33
-46 -78 -55 -99 l-16 -39 38 7 c122 21 128 21 200 -19 88 -49 100 -60 130
-120 14 -27 55 -82 92 -123 63 -70 68 -73 102 -69 21 3 64 23 97 46 55 37 67
41 121 41 73 0 91 14 116 91 28 85 41 105 102 154 70 57 84 83 76 151 -7 62 8
113 43 145 22 20 36 24 91 24 58 0 67 -3 82 -24 30 -46 89 -98 117 -105 24 -6
33 -2 66 33 l37 41 77 0 c95 0 125 -16 174 -93 l37 -59 20 34 c111 185 173
337 173 422 0 54 9 83 80 261 41 103 52 115 107 115 l45 0 -7 33 c-18 85 -58
119 -180 152 -49 14 -96 31 -104 39 -19 20 -30 92 -30 213 -1 100 0 103 29
137 59 66 192 107 259 80 19 -8 60 -39 92 -69 69 -66 97 -75 139 -45 17 12 33
21 34 19 2 -2 13 -24 26 -48 36 -71 61 -91 118 -91 28 0 54 6 60 13 5 6 18 52
28 100 l19 89 -28 77 c-31 89 -32 102 -12 141 14 27 13 29 -20 55 -20 14 -53
51 -75 80 -41 56 -57 64 -172 89 -45 10 -58 32 -58 94 0 53 2 59 35 85 31 24
35 33 35 73 l0 45 63 28 c44 20 74 42 97 71 l33 42 -24 19 c-13 10 -63 45
-111 76 -49 32 -88 61 -88 66 0 5 8 21 19 35 45 64 111 221 111 264 0 16 -9
18 -81 18 -87 0 -210 15 -247 30 -14 6 -33 33 -50 68 -40 88 -41 188 -3 385
37 188 37 196 10 249 -18 36 -20 47 -10 78 6 21 11 60 11 87 0 56 9 68 80 101
25 12 55 37 67 55 32 47 115 262 111 288 -2 15 -25 35 -71 63 -57 34 -72 49
-94 93 -14 29 -27 53 -30 53 -2 0 -24 -12 -48 -26 -25 -14 -55 -24 -67 -22
-30 4 -77 90 -120 218 -31 93 -31 99 -32 285 l-1 190 33 59 c37 67 41 117 12
146 -45 45 -189 96 -239 85 -16 -3 -61 -36 -101 -72 l-73 -65 -69 4 c-38 3
-71 7 -73 10 -3 2 -5 28 -6 58 -2 42 1 56 16 64 66 40 80 53 78 78 -1 21 4 26
35 34 34 8 37 13 40 46 3 30 8 39 25 42 12 3 45 10 73 15 40 8 228 82 242 96
1 1 -6 27 -18 57 -22 59 -55 96 -110 123 -50 24 -88 63 -95 96 -8 36 -18 43
-85 62 -30 9 -66 24 -79 33 -29 20 -51 72 -51 118 0 19 -4 46 -10 60 -9 24
-12 25 -84 23 -66 -2 -77 1 -100 22 -34 32 -34 75 0 246 34 174 29 212 -33
263 -25 20 -57 46 -70 57 -16 14 -29 41 -39 85 -28 125 -28 157 4 249 37 104
34 115 -59 215 -82 88 -97 94 -314 131 -82 14 -158 28 -167 31 -16 5 -18 -3
-18 -66 0 -76 6 -86 75 -136 53 -37 32 -119 -40 -158 -43 -23 -63 -23 -114 2
l-44 22 -55 -43 c-87 -67 -116 -87 -127 -87 -6 0 -35 -7 -63 -15 -63 -19 -89
-53 -124 -162 -12 -40 -27 -73 -32 -73 -4 0 -34 24 -66 54 -84 78 -181 116
-292 116 -105 0 -157 15 -308 90 -127 62 -211 87 -246 73 -12 -4 -78 -63 -148
-130 -121 -116 -126 -123 -115 -147 15 -33 5 -46 -90 -108 -144 -94 -190 -56
-221 182 -7 47 -18 99 -26 116 -20 42 -218 174 -260 174 -49 0 -110 -47 -144
-111 -16 -31 -37 -63 -47 -70 -41 -35 -73 -92 -73 -134 0 -52 -23 -75 -78 -78
-52 -2 -79 14 -122 71 -60 79 -150 171 -201 204 -55 35 -62 48 -50 98 4 19 6
52 3 72 -2 21 3 56 13 82 11 29 15 57 11 79 -7 39 2 50 60 71 l39 14 -40 18
c-58 27 -174 22 -310 -11 -95 -24 -124 -26 -224 -23 -88 4 -125 9 -151 23 -75
40 -231 24 -335 -34 -27 -15 -72 -36 -100 -46 -27 -9 -81 -29 -119 -43 l-69
-26 -53 59 -53 60 -105 5 -106 5 -38 41 c-37 42 -50 46 -147 59 -65 9 -75 15
-156 91 -38 35 -75 64 -83 64 -33 0 -67 -44 -74 -95 l-7 -50 -69 0 c-62 0 -70
2 -92 28 -32 38 -31 82 6 152 17 31 30 59 30 61 0 11 -53 28 -129 41 -148 26
-184 27 -220 8 -29 -14 -35 -15 -49 -2 -37 32 -70 39 -225 48 -89 5 -186 12
-216 15 l-54 7 6 -47z"/>
</g>
</svg>
