<?xml version="1.0" standalone="no"?>
<!DOCTYPE svg PUBLIC "-//W3C//DTD SVG 20010904//EN"
 "http://www.w3.org/TR/2001/REC-SVG-20010904/DTD/svg10.dtd">
<svg version="1.0" xmlns="http://www.w3.org/2000/svg"
 width="480.000000pt" height="632.000000pt" viewBox="0 0 480.000000 632.000000"
 preserveAspectRatio="xMidYMid meet">
<metadata>
Created by potrace 1.16, written by Peter Selinger 2001-2019
</metadata>
<g transform="translate(0.000000,632.000000) scale(0.100000,-0.100000)"
fill="#000000" stroke="none">
<path d="M1017 6066 c4 -8 39 -42 76 -76 73 -68 103 -112 90 -135 -5 -8 -33
-27 -63 -42 -57 -29 -64 -40 -84 -134 -5 -21 -13 -28 -41 -32 -42 -7 -139 -88
-190 -158 -31 -44 -39 -49 -85 -55 -70 -9 -105 -44 -113 -114 -5 -44 -14 -60
-52 -101 -25 -26 -45 -54 -45 -61 0 -8 23 -36 51 -63 68 -66 72 -75 57 -130
l-13 -47 38 -34 c20 -19 42 -34 49 -34 7 0 21 14 31 31 17 31 18 31 75 25 97
-12 134 -57 93 -115 -12 -16 -24 -38 -28 -49 -8 -19 -99 -86 -179 -131 -22
-13 -49 -36 -58 -53 -17 -28 -20 -29 -74 -23 -32 3 -71 8 -88 11 -29 4 -31 2
-27 -20 7 -33 -23 -50 -111 -66 l-68 -13 -24 -51 c-31 -67 -30 -84 8 -124 30
-31 33 -38 31 -92 -2 -51 1 -63 22 -86 14 -15 25 -36 25 -47 0 -11 -27 -48
-61 -82 -34 -35 -74 -85 -90 -113 -16 -28 -33 -53 -39 -57 -5 -3 -10 -12 -10
-19 0 -7 138 -131 306 -275 274 -234 309 -262 333 -256 14 4 68 6 119 6 67 -1
98 3 115 14 13 8 26 12 30 9 12 -12 54 6 85 36 32 30 65 39 78 19 3 -6 17 -8
30 -5 19 5 28 0 48 -32 16 -26 39 -45 64 -55 22 -9 43 -20 46 -25 9 -14 -12
-335 -23 -366 -6 -15 -25 -41 -41 -56 -19 -18 -28 -34 -24 -44 5 -14 20 -16
88 -12 103 5 185 -9 259 -42 55 -26 58 -28 52 -57 -4 -16 -9 -53 -12 -82 l-5
-52 39 -18 c28 -14 38 -24 39 -43 1 -29 73 -110 97 -110 23 0 21 -16 -3 -40
-13 -13 -20 -33 -20 -57 0 -24 -8 -45 -22 -60 -12 -13 -27 -38 -33 -56 -7 -22
-29 -45 -72 -75 -35 -24 -63 -50 -63 -59 0 -8 8 -26 19 -39 10 -13 22 -49 26
-79 5 -46 2 -65 -19 -119 -14 -35 -26 -77 -26 -93 0 -15 -7 -50 -15 -76 -19
-62 -24 -278 -8 -332 7 -22 33 -74 58 -115 28 -47 45 -87 45 -107 0 -41 18
-57 82 -78 29 -10 58 -22 63 -27 10 -9 26 -147 28 -255 1 -33 5 -65 9 -69 4
-4 25 -10 45 -13 37 -7 38 -7 35 -49 -2 -40 -1 -42 27 -42 64 0 94 -14 162
-76 38 -35 78 -64 89 -64 10 0 32 -16 47 -36 15 -20 35 -45 44 -57 14 -17 35
-22 143 -33 131 -13 148 -19 171 -65 27 -52 114 -45 142 11 19 39 42 50 105
50 45 0 63 5 78 20 24 24 25 32 4 75 -23 48 -15 66 31 79 30 9 41 18 45 37 3
14 14 38 26 53 18 26 23 27 44 16 12 -7 37 -10 55 -7 22 4 47 -1 74 -15 73
-36 121 -6 121 77 0 26 4 35 17 35 9 0 48 17 87 37 60 31 82 37 142 39 39 1
80 7 92 13 12 7 42 51 66 99 24 48 60 102 79 121 33 31 38 33 67 22 36 -12 53
-6 89 33 33 35 58 33 95 -8 29 -31 36 -33 121 -40 88 -7 93 -6 155 24 51 24
73 29 102 25 31 -6 98 15 98 29 0 3 -15 14 -34 25 -27 17 -48 21 -95 19 -72
-3 -85 7 -142 103 -22 36 -60 88 -85 115 -24 27 -56 73 -71 102 -14 28 -31 52
-38 52 -6 0 -20 18 -30 40 -10 22 -31 54 -47 71 -16 17 -34 44 -40 60 -6 19
-17 29 -30 29 -15 0 -19 5 -15 19 4 16 -1 20 -26 23 -39 4 -59 46 -39 79 12
18 11 21 -7 26 -17 4 -21 13 -21 48 0 26 -6 47 -15 55 -8 7 -15 19 -15 26 0 8
-7 14 -15 14 -16 0 -19 11 -34 114 -12 83 -20 94 -54 72 -13 -9 -32 -14 -41
-10 -9 4 -24 0 -34 -9 -22 -19 -104 -28 -148 -15 -41 11 -58 39 -50 84 6 29 3
35 -21 51 -15 10 -35 27 -44 37 -8 10 -35 26 -59 35 -40 15 -46 22 -67 75 -25
65 -58 105 -116 142 -43 28 -72 71 -88 128 -14 53 -5 94 31 135 36 41 44 68
31 102 -7 20 -2 48 25 130 19 57 34 112 34 122 0 9 -18 37 -40 61 -22 24 -40
50 -40 58 0 9 12 36 26 62 21 38 31 46 55 46 22 0 32 7 41 26 16 34 57 54 111
54 53 0 145 16 214 37 50 16 52 18 37 34 -12 13 -15 28 -10 51 10 54 20 64 51
50 22 -10 27 -9 32 4 7 20 -20 68 -40 72 -9 2 -17 -5 -20 -15 -4 -17 -4 -17
-10 0 -4 9 -9 24 -12 32 -2 8 -14 15 -25 15 -26 0 -25 9 5 50 14 19 25 43 25
55 0 11 10 48 21 80 18 50 22 87 24 215 2 118 -1 160 -11 175 -8 11 -14 30
-14 44 0 67 -85 149 -196 191 -94 35 -101 35 -111 4 l-9 -27 -36 51 c-37 50
-76 82 -214 175 -38 27 -98 72 -132 102 -67 58 -113 73 -189 61 -28 -5 -48 -1
-78 14 -92 47 -157 13 -216 -112 -31 -68 -34 -82 -37 -191 -4 -101 -6 -117
-20 -112 -8 3 -23 -2 -33 -11 -26 -24 -25 1 1 41 18 27 19 41 13 181 -7 169 2
229 43 277 28 33 30 64 11 209 l-13 96 -99 104 c-65 68 -105 103 -120 103 -13
1 -54 29 -96 68 -41 36 -108 89 -149 118 -41 28 -91 66 -110 84 -33 32 -79 56
-240 125 -36 16 -132 58 -214 93 -134 58 -186 71 -186 46 0 -5 7 -9 16 -9 20
0 12 -24 -10 -28 -10 -2 -45 25 -90 67 -70 68 -96 87 -79 57z"/>
<path d="M2414 4919 c-14 -28 -23 -53 -21 -55 6 -6 77 82 77 95 0 29 -32 5
-56 -40z"/>
<path d="M2473 4916 c-34 -29 -25 -43 17 -26 18 8 30 20 30 31 0 25 -13 24
-47 -5z"/>
<path d="M2386 4818 c-17 -24 -22 -83 -7 -92 8 -5 35 103 27 111 -2 3 -11 -6
-20 -19z"/>
</g>
</svg>
