<?xml version="1.0" standalone="no"?>
<!DOCTYPE svg PUBLIC "-//W3C//DTD SVG 20010904//EN"
 "http://www.w3.org/TR/2001/REC-SVG-20010904/DTD/svg10.dtd">
<svg version="1.0" xmlns="http://www.w3.org/2000/svg"
 width="1024.000000pt" height="768.000000pt" viewBox="0 0 1024.000000 768.000000"
 preserveAspectRatio="xMidYMid meet">
<metadata>
Created by potrace 1.16, written by Peter Selinger 2001-2019
</metadata>
<g transform="translate(0.000000,768.000000) scale(0.100000,-0.100000)"
fill="#000000" stroke="none">
<path d="M5600 7461 c-169 -35 -240 -69 -240 -112 0 -49 63 -91 157 -104 26
-4 81 -22 121 -41 60 -29 92 -37 180 -45 71 -7 186 -30 342 -71 129 -33 252
-60 272 -60 56 0 136 30 155 58 21 33 6 85 -43 142 -43 51 -60 61 -138 79 -34
7 -87 29 -118 49 -35 21 -80 39 -112 44 -31 5 -99 23 -153 41 -126 40 -289 48
-423 20z"/>
<path d="M5750 6959 c-32 -15 -76 -23 -157 -29 -81 -5 -123 -13 -153 -28 -38
-18 -49 -19 -108 -10 -49 8 -89 7 -147 -1 -74 -11 -83 -11 -125 8 -26 12 -66
21 -95 21 -91 0 -229 -20 -256 -38 -165 -104 -263 -157 -359 -195 -157 -61
-150 -59 -269 -61 -120 -1 -192 -25 -212 -70 -16 -34 -4 -73 28 -89 l27 -14
-38 -18 c-43 -21 -108 -102 -126 -158 -8 -25 -10 -73 -5 -150 13 -228 34 -262
207 -327 139 -52 193 -58 284 -35 46 12 108 19 187 19 l119 1 33 37 c28 30 36
34 46 22 6 -8 40 -23 75 -34 35 -10 77 -26 93 -35 43 -22 105 -19 151 7 36 21
42 22 102 9 80 -16 217 -87 286 -147 55 -48 174 -106 370 -179 101 -37 104
-39 161 -109 32 -39 92 -103 134 -143 82 -78 113 -90 192 -80 39 6 55 -2 55
-27 0 -2 -18 -8 -40 -15 -46 -13 -52 -22 -60 -76 -4 -35 -9 -40 -37 -46 -46
-9 -61 -24 -77 -78 -18 -63 -11 -95 30 -129 19 -15 50 -40 69 -56 19 -15 33
-32 30 -36 -3 -5 -31 -14 -63 -21 -72 -17 -97 -41 -111 -111 -7 -30 -21 -71
-31 -91 -28 -52 -25 -85 9 -122 16 -16 47 -61 69 -100 61 -105 76 -121 126
-134 52 -13 73 -40 56 -71 -16 -29 -52 -44 -178 -74 -63 -15 -124 -32 -136
-38 -33 -14 -56 -60 -56 -111 0 -35 7 -53 35 -89 32 -43 118 -98 153 -98 8 0
37 -12 65 -27 46 -26 53 -35 92 -118 48 -103 93 -149 172 -177 39 -14 58 -29
89 -71 21 -29 79 -87 128 -128 57 -48 96 -90 111 -119 26 -49 91 -131 127
-160 39 -30 101 -57 148 -65 59 -9 86 -27 110 -74 32 -63 58 -76 232 -117 153
-36 208 -59 208 -88 0 -6 -23 -48 -51 -91 -48 -76 -50 -82 -44 -130 4 -27 9
-68 11 -90 6 -46 -9 -95 -30 -95 -7 0 -33 9 -57 20 -56 25 -95 25 -143 0 -37
-20 -40 -21 -113 -4 -52 11 -99 15 -148 11 -70 -5 -73 -4 -98 24 -14 16 -35
29 -48 29 -29 0 -243 -67 -290 -91 -67 -34 -116 -109 -146 -225 -27 -99 -37
-105 -203 -104 -74 0 -164 4 -200 10 -104 15 -150 12 -208 -15 -30 -14 -58
-25 -63 -25 -5 0 -29 21 -53 46 l-43 47 -104 10 c-159 17 -253 13 -349 -12
-131 -35 -160 -32 -291 30 -112 54 -113 54 -208 54 -53 -1 -136 -3 -186 -5
-87 -4 -94 -3 -197 37 -58 23 -139 59 -180 80 l-73 38 -244 3 c-223 3 -249 2
-300 -16 -31 -11 -83 -22 -117 -25 -33 -3 -86 -13 -118 -23 l-58 -18 -19 23
c-36 44 -27 51 69 51 110 0 154 12 196 55 65 64 52 160 -26 198 -37 18 -40 18
-139 -2 -56 -12 -128 -21 -160 -21 l-59 0 0 40 c0 34 -7 48 -42 86 -59 64 -83
74 -178 74 -97 0 -129 -12 -193 -75 -46 -43 -48 -49 -42 -83 12 -69 71 -124
144 -136 46 -7 51 -18 19 -40 -35 -25 -92 -19 -158 14 -33 16 -119 46 -192 66
-73 20 -167 48 -208 64 -56 21 -101 30 -175 34 -107 6 -234 35 -296 67 -21 10
-61 39 -89 64 -28 25 -59 45 -70 45 -10 0 -48 16 -85 36 -87 45 -136 54 -256
43 -95 -8 -143 -23 -182 -57 -15 -14 -25 -14 -63 -4 -61 16 -87 15 -136 -7
-24 -11 -74 -29 -113 -41 -82 -26 -174 -73 -211 -107 -24 -22 -26 -29 -21 -79
5 -49 0 -66 -54 -199 -50 -124 -59 -155 -59 -208 0 -45 -6 -71 -20 -95 -11
-18 -23 -53 -27 -78 -5 -41 -3 -46 29 -77 30 -28 36 -41 42 -97 13 -112 48
-161 138 -194 27 -10 62 -34 83 -57 43 -48 130 -94 220 -116 63 -15 64 -15
166 16 56 17 110 31 120 31 38 0 176 -51 224 -83 28 -18 79 -44 115 -56 95
-34 175 -78 233 -128 29 -24 75 -58 104 -74 65 -38 100 -78 114 -135 14 -54
46 -87 101 -103 98 -30 127 -67 167 -211 27 -98 49 -131 101 -157 40 -21 58
-23 203 -23 173 0 210 9 227 55 14 36 2 59 -88 178 -44 57 -83 114 -87 126
-12 38 23 77 97 110 37 17 72 31 77 31 4 0 39 23 76 50 37 28 74 50 82 50 27
0 72 30 90 61 16 27 69 69 87 69 3 0 6 -6 6 -13 0 -8 12 -24 26 -38 33 -31 88
-32 131 -1 27 19 32 20 43 7 17 -21 97 -19 140 3 26 13 37 26 43 54 l9 37 40
-21 c66 -35 128 -34 295 2 81 18 169 41 195 52 53 23 84 18 73 -10 -4 -9 -9
-33 -12 -53 -5 -32 -2 -39 21 -55 44 -28 118 -30 200 -4 80 25 83 24 186 -37
42 -25 55 -28 205 -34 170 -6 195 -13 268 -71 26 -21 42 -23 216 -29 201 -8
294 -25 528 -99 162 -52 252 -50 402 9 70 27 90 40 119 75 11 14 16 14 47 -1
34 -16 40 -16 137 6 l102 23 157 -18 c130 -14 162 -15 187 -5 39 17 54 59 42
121 -12 67 -1 77 44 40 22 -16 50 -30 63 -30 13 0 77 14 141 31 107 28 125 30
212 24 52 -4 142 -6 200 -4 58 2 200 3 317 1 164 -3 225 0 270 11 33 9 116 17
190 18 l131 4 103 -53 c64 -32 127 -56 164 -63 168 -28 165 -27 185 -74 17
-41 26 -48 138 -104 156 -80 192 -116 192 -192 0 -47 29 -79 97 -110 35 -16
84 -44 110 -64 26 -20 57 -35 72 -35 25 0 29 6 50 72 12 40 29 91 37 113 13
33 13 54 4 125 -17 120 -39 162 -106 199 -32 19 -54 38 -54 48 0 9 41 77 91
151 93 136 199 341 199 384 0 13 -6 32 -12 41 -18 24 -172 96 -232 109 -40 8
-60 20 -93 54 -23 23 -56 50 -75 60 -18 9 -51 36 -73 61 -25 27 -60 52 -95 66
-80 33 -120 56 -120 69 0 6 16 26 35 44 30 27 35 38 35 75 0 41 -4 47 -98 138
-94 92 -247 295 -236 313 7 11 48 10 60 -1 5 -4 24 -13 43 -20 27 -9 40 -8 64
4 40 20 66 19 102 -5 26 -17 47 -20 158 -20 71 0 137 4 147 10 25 13 43 71 35
113 -11 58 14 97 106 167 95 71 108 88 109 145 0 22 7 61 14 87 9 29 16 105
18 205 3 150 2 160 -21 202 -13 25 -51 72 -85 105 -34 34 -78 86 -99 117 -20
31 -53 67 -73 81 -35 26 -36 26 -12 33 12 4 52 38 88 76 46 49 88 81 145 111
l80 43 45 89 c40 79 49 89 84 101 45 16 90 56 105 94 13 34 46 178 62 268 11
64 10 75 -5 97 -19 29 -86 51 -187 61 -77 8 -76 7 -112 63 -17 27 -44 50 -71
64 -31 15 -52 36 -75 72 -48 80 -45 86 62 135 50 24 103 48 116 54 26 13 39
39 70 140 23 75 26 122 10 164 -6 15 -14 78 -18 139 -6 97 -11 120 -39 175
-17 35 -56 95 -86 133 l-56 69 4 66 c2 36 8 79 15 94 22 56 14 99 -29 151 -22
26 -44 65 -50 87 -16 57 -40 69 -141 69 -118 0 -315 17 -429 37 -52 9 -122 17
-155 17 -54 1 -66 -3 -114 -37 -29 -20 -59 -37 -66 -37 -7 0 -22 16 -34 35
-27 47 -59 58 -129 45 -79 -14 -82 -14 -142 25 -61 39 -85 42 -154 19 -26 -9
-49 -14 -52 -12 -2 3 0 17 6 32 26 69 -50 138 -128 116 -20 -5 -62 -10 -93
-10 -50 0 -58 -3 -89 -35 -32 -33 -38 -35 -78 -29 -36 5 -49 3 -73 -15 -16
-12 -29 -17 -29 -12 0 16 -93 112 -148 153 -58 43 -61 44 -277 67 -44 4 -97
15 -117 24 -67 28 -152 93 -215 164 -78 89 -105 101 -185 84 l-60 -12 -51 35
c-29 19 -72 40 -97 45 -25 6 -99 28 -165 50 l-120 41 -165 0 c-146 0 -170 -3
-210 -21z"/>
<path d="M4480 3549 c-63 -12 -98 -27 -152 -66 -118 -85 -118 -195 0 -273 26
-17 74 -61 107 -98 97 -109 108 -116 195 -123 41 -4 102 -13 135 -21 60 -14
73 -20 170 -85 27 -18 61 -33 75 -33 15 0 49 -17 81 -41 63 -48 139 -87 227
-119 53 -19 75 -22 140 -17 62 5 85 2 117 -12 22 -10 72 -27 111 -39 50 -15
84 -34 118 -63 41 -36 54 -42 91 -41 24 0 56 6 72 14 24 11 29 21 33 63 3 28
12 61 19 74 17 31 9 126 -14 172 -10 19 -72 89 -139 157 l-121 123 -125 25
c-154 30 -191 45 -256 107 -36 34 -74 58 -135 82 -46 19 -91 35 -99 35 -54 0
-230 58 -335 109 -79 39 -142 63 -186 70 -73 12 -67 12 -129 0z"/>
<path d="M2944 572 c-54 -43 -63 -129 -20 -190 73 -105 129 -134 225 -114 31
7 82 12 112 12 116 1 184 64 156 147 -15 46 -60 78 -133 93 -41 9 -63 9 -90 0
-33 -11 -38 -9 -98 29 -69 45 -116 53 -152 23z"/>
</g>
</svg>
