<?xml version="1.0" standalone="no"?>
<!DOCTYPE svg PUBLIC "-//W3C//DTD SVG 20010904//EN"
 "http://www.w3.org/TR/2001/REC-SVG-20010904/DTD/svg10.dtd">
<svg version="1.0" xmlns="http://www.w3.org/2000/svg"
 width="864.000000pt" height="852.000000pt" viewBox="0 0 864.000000 852.000000"
 preserveAspectRatio="xMidYMid meet">
<metadata>
Created by potrace 1.16, written by Peter Selinger 2001-2019
</metadata>
<g transform="translate(0.000000,852.000000) scale(0.100000,-0.100000)"
fill="#000000" stroke="none">
<path d="M5700 6710 c-30 -10 -209 -68 -398 -130 l-343 -112 6 -63 7 -64 -38
-10 c-204 -53 -249 -62 -268 -52 -15 8 -55 7 -141 -2 -140 -16 -445 -106 -445
-132 0 -8 -16 -19 -37 -24 -96 -25 -185 -42 -197 -38 -8 3 -20 29 -27 57 -7
29 -18 54 -25 57 -20 7 -409 -48 -420 -60 -10 -11 -94 -308 -94 -332 0 -5 21
-31 48 -58 l47 -48 -30 -26 c-16 -14 -122 -116 -235 -227 -113 -111 -211 -206
-218 -210 -9 -6 -29 6 -58 35 l-45 44 -42 -24 c-23 -13 -65 -39 -93 -57 -58
-36 -59 -39 -70 -185 l-6 -86 47 -13 c42 -12 46 -16 42 -39 -12 -74 -183 -611
-195 -611 -6 0 -29 9 -49 20 -21 11 -45 20 -53 20 -18 0 -256 -189 -286 -228
-12 -15 -38 -57 -58 -94 l-37 -66 46 -38 c25 -22 44 -44 43 -50 -5 -20 -450
-474 -465 -474 -7 0 -33 18 -58 41 -24 22 -50 39 -58 37 -25 -6 -416 -253
-416 -263 0 -9 336 -203 381 -220 13 -5 28 5 54 34 39 43 54 49 76 28 26 -25
433 -373 485 -415 29 -24 53 -48 53 -54 0 -6 -18 -31 -39 -57 l-40 -47 45 -57
c31 -38 53 -57 67 -57 12 0 105 16 207 35 102 19 188 35 193 35 4 0 7 27 7 59
0 33 4 62 9 66 6 3 126 -8 268 -25 576 -68 688 -82 690 -84 1 -1 -3 -32 -9
-69 -6 -37 -9 -69 -7 -71 9 -7 364 -127 422 -142 61 -16 538 -66 546 -58 3 2
10 30 16 62 11 51 14 57 36 56 13 0 121 -24 240 -52 356 -85 549 -123 549
-107 0 2 7 30 15 62 16 61 12 93 -11 93 -8 0 -14 10 -14 24 0 46 -13 88 -29
94 -21 8 -31 22 -31 50 0 12 -6 22 -14 22 -18 0 -26 85 -26 280 l0 157 25 11
c14 7 70 12 125 12 95 0 99 1 102 22 4 27 -3 26 358 62 140 15 274 29 297 32
41 6 41 6 76 -48 98 -153 269 -258 423 -258 174 0 326 87 442 255 99 143 117
219 110 480 -4 157 -7 177 -35 256 -30 87 -54 123 -165 244 -26 28 -76 68
-112 89 -35 21 -67 44 -70 52 -6 16 5 346 30 924 8 190 14 431 14 537 l0 192
-342 111 c-189 61 -401 130 -472 153 -94 31 -131 47 -137 62 -5 11 -34 168
-64 350 -30 181 -59 332 -63 336 -4 4 -32 -1 -62 -11z"/>
</g>
</svg>
