<?xml version="1.0" standalone="no"?>
<!DOCTYPE svg PUBLIC "-//W3C//DTD SVG 20010904//EN"
 "http://www.w3.org/TR/2001/REC-SVG-20010904/DTD/svg10.dtd">
<svg version="1.0" xmlns="http://www.w3.org/2000/svg"
 width="1024.000000pt" height="768.000000pt" viewBox="0 0 1024.000000 768.000000"
 preserveAspectRatio="xMidYMid meet">
<metadata>
Created by potrace 1.16, written by Peter Selinger 2001-2019
</metadata>
<g transform="translate(0.000000,768.000000) scale(0.100000,-0.100000)"
fill="#000000" stroke="none">
<path d="M5669 6730 c-38 -20 -85 -73 -113 -127 -35 -69 -11 -147 58 -183 28
-16 51 -21 68 -17 63 16 188 166 188 226 0 36 -36 87 -74 105 -44 21 -82 20
-127 -4z"/>
<path d="M5230 6636 c-17 -10 -31 -11 -50 -4 -33 13 -230 2 -295 -17 -92 -26
-250 -86 -290 -110 -55 -32 -121 -102 -140 -148 -20 -49 -7 -95 36 -132 26
-21 41 -25 95 -25 95 0 165 28 234 94 32 30 70 58 86 62 16 4 47 15 69 25 25
12 64 19 102 19 38 0 84 8 117 21 42 15 60 18 75 10 70 -38 161 27 161 114 0
35 -27 81 -57 94 -33 15 -113 13 -143 -3z"/>
<path d="M3964 6095 c-71 -35 -95 -100 -58 -153 22 -31 49 -44 139 -63 89 -19
121 -13 162 32 54 59 49 124 -13 179 -32 28 -41 30 -107 30 -58 0 -84 -5 -123
-25z"/>
<path d="M5533 5935 c-65 -28 -79 -91 -30 -143 18 -20 19 -24 7 -32 -22 -14
-74 -28 -170 -46 -100 -18 -179 -54 -219 -99 -45 -52 -70 -63 -167 -76 -85
-10 -92 -10 -125 10 -41 25 -91 27 -165 5 -59 -17 -135 -19 -284 -9 -90 6
-100 5 -179 -24 -47 -17 -96 -31 -110 -31 -45 0 -143 22 -516 114 -77 19 -167
38 -201 42 l-61 6 -52 -46 c-28 -25 -54 -46 -58 -46 -12 0 -93 51 -93 58 0 13
-74 88 -100 102 -32 17 -428 5 -475 -14 -36 -16 -75 -60 -75 -87 0 -21 -29
-42 -84 -59 -25 -8 -64 -38 -113 -86 l-73 -74 -51 26 c-59 32 -108 28 -148
-10 -14 -13 -39 -28 -54 -32 -16 -3 -48 -26 -70 -49 -54 -55 -322 -284 -384
-329 -27 -19 -64 -41 -84 -49 -20 -8 -76 -56 -125 -107 -76 -78 -103 -99 -181
-137 -50 -25 -102 -55 -115 -67 -12 -12 -45 -37 -73 -56 -27 -18 -69 -50 -92
-70 -31 -28 -65 -43 -140 -65 -172 -50 -189 -67 -179 -177 6 -67 5 -70 -34
-136 -44 -72 -64 -132 -55 -161 3 -10 23 -42 45 -71 53 -71 74 -128 67 -185
-5 -52 -30 -85 -63 -85 -40 0 -73 -22 -114 -76 -22 -30 -54 -64 -71 -76 -42
-31 -69 -79 -69 -122 0 -30 8 -45 45 -81 24 -25 52 -45 62 -45 28 0 134 -59
173 -96 51 -48 82 -57 147 -44 66 14 63 16 154 -107 50 -67 76 -94 96 -99 53
-12 58 -15 86 -53 30 -44 114 -91 159 -91 43 0 76 -21 148 -95 51 -52 84 -76
152 -109 l88 -41 20 -67 c29 -94 36 -98 198 -98 149 0 166 5 264 72 l63 43 92
0 92 0 38 -36 c66 -63 110 -73 194 -44 33 12 54 13 97 5 66 -12 148 -56 176
-93 l21 -28 -24 -42 c-79 -136 -88 -161 -95 -260 -8 -104 -3 -121 42 -170 l26
-27 -47 -48 c-53 -54 -60 -86 -27 -140 40 -65 113 -88 185 -58 36 15 45 9 45
-34 0 -28 47 -60 88 -60 22 0 47 9 67 24 51 39 68 37 76 -9 11 -57 93 -235
123 -266 14 -15 45 -35 70 -45 37 -15 48 -26 60 -59 9 -22 35 -61 58 -86 l43
-45 235 1 c206 2 239 4 270 20 61 32 91 58 131 119 43 64 48 96 24 153 -8 19
-15 41 -15 47 0 6 23 35 51 64 57 57 78 62 166 42 53 -13 111 8 149 53 31 37
29 73 -9 146 -24 46 -24 46 -6 96 20 57 17 85 -17 135 -13 20 -29 63 -35 95
-6 33 -19 76 -30 97 l-19 37 33 68 32 68 85 5 c47 3 97 12 113 20 24 12 32 11
63 -3 19 -9 52 -17 73 -17 21 0 60 -10 86 -21 89 -40 186 -9 240 75 18 29 71
86 118 129 62 56 90 90 102 121 10 26 33 57 58 78 62 51 63 51 85 14 16 -27
34 -39 82 -57 41 -15 74 -36 97 -60 20 -21 48 -41 64 -44 19 -4 34 -18 46 -43
25 -51 71 -72 159 -72 89 0 97 8 96 94 -1 40 3 68 11 74 7 5 44 19 82 30 39
12 84 32 101 44 118 87 138 105 151 135 13 33 25 41 88 59 37 11 75 67 75 109
0 64 87 140 184 160 72 15 114 34 169 77 44 35 48 69 16 126 l-22 37 27 39
c26 39 46 95 46 131 0 17 7 21 40 21 50 2 86 25 107 69 14 29 14 41 5 73 -7
22 -12 48 -12 60 0 25 250 227 282 227 14 0 33 -16 55 -45 74 -102 113 -139
156 -151 51 -14 195 -73 259 -106 47 -24 48 -25 105 -8 70 20 139 58 153 85
10 18 13 19 38 6 91 -46 183 -4 186 84 1 35 5 36 48 10 21 -13 51 -20 81 -20
42 0 54 5 82 33 l32 32 111 1 c94 1 115 5 139 22 23 16 39 19 71 15 35 -5 47
-1 79 23 106 81 197 133 242 139 25 3 60 8 77 11 20 3 53 26 100 72 38 37 74
75 79 85 9 15 14 16 42 5 29 -11 36 -10 60 10 68 54 67 54 107 37 56 -24 303
-42 354 -27 75 23 68 81 -12 117 -29 13 -65 34 -82 47 -16 12 -45 31 -65 41
-25 13 -43 32 -55 60 -28 62 -106 177 -146 215 -23 22 -63 42 -124 62 -127 43
-154 56 -296 141 -70 42 -155 87 -189 100 -42 16 -82 42 -123 80 -34 30 -88
73 -120 94 -105 69 -379 340 -418 414 -39 75 -63 86 -186 86 l-107 0 -70 -42
c-38 -24 -77 -43 -86 -43 -9 0 -38 9 -63 21 -39 17 -53 19 -78 10 -17 -6 -32
-11 -34 -11 -1 0 -5 13 -9 29 -9 42 -41 66 -123 96 -40 15 -135 57 -210 94
-165 82 -199 94 -271 94 -48 0 -71 -8 -193 -72 -149 -77 -124 -71 -383 -102
-105 -13 -178 -6 -232 22 -21 11 -80 31 -131 44 -57 15 -119 40 -161 65 -60
36 -89 45 -242 75 -196 39 -202 40 -246 20z"/>
</g>
</svg>
