<?xml version="1.0" standalone="no"?>
<!DOCTYPE svg PUBLIC "-//W3C//DTD SVG 20010904//EN"
 "http://www.w3.org/TR/2001/REC-SVG-20010904/DTD/svg10.dtd">
<svg version="1.0" xmlns="http://www.w3.org/2000/svg"
 width="700.000000pt" height="400.000000pt" viewBox="0 0 700.000000 400.000000"
 preserveAspectRatio="xMidYMid meet">
<metadata>
Created by potrace 1.16, written by Peter Selinger 2001-2019
</metadata>
<g transform="translate(0.000000,400.000000) scale(0.100000,-0.100000)"
fill="#000000" stroke="none">
<path d="M4658 3855 c-36 -7 -77 -19 -90 -26 -13 -7 -48 -13 -78 -13 -47 -1
-55 -4 -58 -21 -8 -53 -15 -68 -57 -115 -35 -39 -45 -59 -45 -85 0 -22 -7 -39
-19 -47 -10 -7 -26 -28 -35 -45 -14 -29 -22 -33 -55 -33 -21 0 -51 -7 -67 -15
-20 -10 -32 -11 -41 -4 -15 13 -33 3 -33 -19 0 -26 -80 -99 -131 -118 -46 -18
-97 -21 -161 -9 -28 5 -42 16 -57 41 -17 29 -26 34 -58 34 -21 0 -47 7 -57 15
-23 17 -62 20 -71 5 -3 -5 -27 -16 -53 -23 -43 -13 -48 -17 -60 -58 -30 -104
-19 -93 -107 -99 -57 -4 -88 -11 -110 -25 -27 -18 -42 -20 -197 -17 -122 3
-173 0 -183 -8 -9 -7 -29 -15 -46 -19 -26 -5 -34 -15 -60 -76 -38 -90 -38
-125 2 -169 34 -39 31 -56 -10 -56 -16 0 -41 -12 -61 -30 -41 -36 -90 -52
-130 -40 -19 5 -45 3 -76 -6 -46 -14 -251 -19 -444 -12 -41 1 -118 -1 -170 -6
-130 -11 -196 3 -256 55 -25 21 -56 39 -69 39 -41 0 -53 10 -125 101 -38 49
-75 89 -80 89 -6 0 -45 16 -86 36 -91 43 -126 41 -179 -12 -26 -26 -35 -43
-35 -69 0 -36 -17 -60 -50 -70 -24 -8 -25 -13 -4 -54 9 -18 17 -58 18 -88 1
-46 -3 -58 -23 -74 -20 -17 -40 -19 -161 -19 l-138 0 -42 35 c-33 28 -51 35
-84 35 -36 0 -48 -6 -81 -40 -21 -21 -51 -42 -67 -45 -38 -9 -37 -40 3 -61 17
-8 61 -21 98 -28 49 -9 69 -17 76 -33 6 -11 16 -27 21 -34 22 -28 23 -48 3
-72 -13 -17 -17 -34 -13 -54 4 -20 0 -33 -13 -45 -20 -18 -132 -58 -163 -58
-34 0 -45 -40 -26 -96 22 -64 21 -70 -14 -114 -33 -42 -37 -62 -16 -80 8 -6
16 -21 18 -33 2 -16 11 -23 30 -25 33 -4 37 -27 8 -42 -24 -13 -26 -37 -4 -61
14 -16 14 -18 -7 -30 -22 -11 -22 -12 -3 -26 19 -14 19 -14 -1 -29 -14 -11
-32 -14 -60 -9 -126 19 -123 19 -136 -9 -7 -14 -34 -40 -60 -57 -52 -33 -79
-67 -79 -99 0 -16 5 -20 18 -16 56 16 102 17 130 2 37 -19 44 -37 36 -96 -6
-47 -5 -50 40 -98 38 -40 46 -55 41 -74 -5 -20 5 -37 54 -91 34 -37 67 -82 74
-100 8 -18 27 -38 43 -46 16 -7 43 -20 60 -28 17 -8 47 -35 66 -61 27 -37 44
-50 79 -59 52 -14 99 -53 99 -83 0 -58 77 -126 200 -176 71 -28 100 -49 100
-72 0 -8 14 -31 30 -51 49 -58 50 -59 50 -73 0 -26 60 -88 83 -85 14 1 22 -4
25 -18 2 -11 9 -26 14 -32 13 -16 54 -17 64 -2 9 15 93 5 134 -16 17 -9 46
-37 65 -63 33 -46 79 -73 165 -97 14 -4 33 -14 42 -22 12 -11 26 -13 45 -8 66
16 102 16 136 0 38 -18 51 -19 117 -10 33 5 58 2 96 -13 35 -14 64 -19 92 -15
22 3 55 0 73 -6 34 -12 33 -12 132 46 42 24 64 47 92 92 42 70 66 81 125 57
50 -20 84 -20 100 -1 7 8 20 15 29 15 9 0 25 7 35 15 11 8 33 15 49 15 34 0
114 43 144 78 21 24 23 25 79 14 81 -17 108 -15 129 8 9 10 41 26 69 34 55 17
128 82 160 143 18 36 62 53 138 53 46 0 98 -16 98 -30 0 -4 14 -13 30 -20 28
-11 39 -10 101 15 l70 29 53 -18 c40 -14 58 -16 73 -7 21 11 60 3 116 -25 39
-19 64 -18 104 7 29 18 42 20 105 14 67 -7 72 -6 89 16 l17 23 63 -32 c34 -18
68 -32 75 -32 25 0 83 61 108 113 32 69 57 91 93 84 115 -24 161 -35 180 -45
28 -16 71 2 75 31 2 15 13 23 36 28 43 9 42 8 61 81 16 62 28 76 84 92 20 6
24 65 5 96 -10 15 -9 26 5 55 9 20 17 49 17 65 0 49 9 60 49 60 36 1 81 28 81
49 0 7 15 21 34 32 42 25 50 43 35 83 -14 40 5 81 62 139 25 24 39 47 39 63 0
15 13 38 31 57 23 23 35 48 45 93 15 76 32 103 78 128 20 10 40 32 47 50 7 17
21 41 33 54 12 13 21 39 22 61 3 62 69 178 114 201 57 29 63 41 55 110 -10 90
2 111 91 154 47 23 74 43 74 53 0 9 19 47 42 84 49 80 80 99 161 99 53 0 56 1
59 28 3 31 22 33 93 11 58 -17 110 -5 151 37 19 19 44 34 54 34 15 0 20 7 20
25 0 15 10 31 27 42 34 23 93 84 93 97 0 5 -8 18 -17 28 -16 18 -16 21 1 53
l19 34 -32 49 c-17 28 -41 52 -51 55 -11 3 -48 0 -83 -6 -95 -16 -113 -8 -146
66 -28 62 -77 116 -109 119 -9 0 -35 2 -56 2 -35 1 -43 6 -69 44 -17 24 -36
42 -47 42 -26 0 -40 30 -40 83 0 62 -17 74 -62 43 -29 -19 -53 -24 -149 -31
-63 -4 -139 -14 -169 -22 -30 -9 -76 -18 -102 -20 -42 -4 -50 -2 -74 24 -31
34 -74 115 -74 141 0 24 -14 35 -60 51 -19 6 -51 31 -71 54 -37 42 -37 42 -70
28 -19 -8 -53 -16 -77 -18 -28 -4 -46 -11 -53 -24 -7 -14 -21 -19 -54 -19 -25
0 -64 -9 -89 -21 -24 -12 -50 -19 -57 -15 -8 4 -25 13 -39 21 -14 8 -41 15
-60 15 -20 0 -45 6 -56 14 -11 8 -38 17 -60 21 -21 4 -49 13 -61 21 -26 16
-27 16 -115 -1z"/>
</g>
</svg>
