<?xml version="1.0" standalone="no"?>
<!DOCTYPE svg PUBLIC "-//W3C//DTD SVG 20010904//EN"
 "http://www.w3.org/TR/2001/REC-SVG-20010904/DTD/svg10.dtd">
<svg version="1.0" xmlns="http://www.w3.org/2000/svg"
 width="1024.000000pt" height="711.000000pt" viewBox="0 0 1024.000000 711.000000"
 preserveAspectRatio="xMidYMid meet">
<metadata>
Created by potrace 1.16, written by Peter Selinger 2001-2019
</metadata>
<g transform="translate(0.000000,711.000000) scale(0.100000,-0.100000)"
fill="#000000" stroke="none">
<path d="M7564 7095 c-23 -7 -108 -23 -189 -34 -82 -12 -152 -24 -157 -27 -15
-9 -8 -74 12 -114 13 -26 20 -59 20 -98 0 -63 21 -135 64 -220 15 -29 31 -73
35 -98 8 -41 6 -49 -29 -107 -43 -72 -93 -106 -233 -162 -107 -43 -158 -41
-178 6 -6 16 -29 43 -51 61 l-40 31 -81 -19 c-58 -13 -89 -26 -104 -43 -27
-28 -28 -39 -7 -69 19 -27 8 -69 -31 -122 -13 -18 -29 -58 -36 -89 -24 -118
-66 -161 -157 -161 -41 0 -53 5 -80 33 -17 18 -39 54 -48 80 -22 64 -118 146
-244 209 -149 75 -264 85 -316 29 -20 -21 -24 -36 -24 -84 0 -48 9 -81 51
-181 28 -66 72 -157 99 -201 103 -172 103 -173 108 -335 4 -141 -6 -209 -27
-196 -12 8 -65 177 -87 276 -11 50 -32 103 -65 161 -45 77 -55 88 -101 110
-28 13 -64 38 -80 54 -25 27 -28 37 -28 97 0 65 -1 67 -48 120 -26 29 -61 74
-78 101 -55 89 -200 152 -291 128 -44 -12 -67 -36 -138 -144 -45 -68 -99 -101
-185 -112 -44 -6 -62 -14 -92 -43 -35 -33 -38 -41 -38 -91 0 -48 -5 -63 -36
-109 l-37 -52 36 -54 c38 -57 80 -179 92 -263 7 -51 6 -52 -35 -90 -51 -45
-56 -49 -96 -57 -29 -6 -33 -3 -77 61 -25 37 -63 104 -83 148 -20 43 -56 100
-79 125 -105 113 -139 169 -221 372 -33 84 -44 100 -75 117 -35 20 -40 20
-110 7 -41 -8 -100 -26 -131 -41 -57 -26 -58 -27 -58 -67 0 -22 -7 -52 -16
-68 -16 -27 -16 -29 13 -81 18 -32 39 -95 52 -154 12 -55 29 -129 38 -165 19
-81 22 -245 5 -370 -19 -148 -19 -147 -68 -176 -39 -23 -53 -26 -114 -22 -38
2 -75 9 -82 16 -7 7 -15 48 -18 90 l-5 77 -36 3 c-24 2 -43 -4 -61 -17 -38
-30 -178 -219 -200 -271 -23 -53 -48 -167 -48 -218 l0 -36 -34 33 c-19 18 -39
30 -45 27 -7 -5 -11 -48 -12 -109 -1 -56 -4 -149 -8 -207 -6 -98 -8 -103 -20
-75 -16 37 -31 133 -31 203 0 36 -10 78 -31 130 -43 104 -46 108 -104 93 -26
-7 -49 -10 -51 -8 -2 2 12 25 31 50 53 69 85 139 87 192 4 64 -14 76 -73 47
-23 -12 -44 -20 -45 -19 -2 1 1 20 6 42 14 61 12 102 -6 109 -9 3 -50 6 -92 7
-42 1 -88 4 -102 8 -36 10 -38 50 -5 81 l26 25 39 -23 c75 -43 167 -22 195 44
18 44 19 74 3 109 -10 22 -8 29 15 53 14 15 36 49 48 76 18 42 21 61 15 123
-3 40 -12 89 -20 108 -13 29 -20 35 -45 35 -44 0 -44 36 0 45 32 7 37 14 41
54 3 20 -4 26 -47 42 -27 9 -66 18 -86 18 -44 1 -50 13 -42 80 5 46 4 49 -18
53 -13 2 -49 -6 -79 -19 -65 -26 -70 -23 -90 62 -12 49 -11 60 3 91 9 19 17
47 17 63 0 33 -24 46 -102 57 -43 6 -49 10 -67 48 -11 22 -22 65 -26 94 -8 62
-15 67 -108 76 -37 4 -80 9 -96 12 -32 7 -51 38 -51 83 0 31 -49 132 -80 166
-10 11 -27 39 -39 61 -30 60 -44 71 -103 79 -29 3 -74 13 -100 21 -55 18 -64
15 -73 -25 -9 -43 -54 -51 -103 -18 -31 20 -54 25 -150 31 -62 4 -119 9 -125
12 -7 2 -27 -8 -46 -24 -33 -28 -33 -28 -18 -59 9 -17 33 -44 54 -61 51 -41
36 -59 -58 -68 -89 -9 -93 -28 -15 -78 30 -19 57 -39 60 -45 4 -6 32 -11 62
-11 52 0 97 14 137 42 15 11 20 10 31 -4 7 -10 22 -18 33 -18 10 0 32 -13 47
-29 22 -22 40 -30 84 -36 82 -10 96 -39 35 -76 l-36 -23 -39 23 c-78 45 -219
36 -253 -15 -32 -49 -12 -97 79 -192 66 -69 108 -96 201 -127 71 -24 105 -65
105 -126 0 -31 6 -43 30 -61 36 -26 75 -89 85 -136 5 -25 3 -38 -10 -53 -17
-18 -19 -16 -62 57 -24 41 -50 73 -56 71 -7 -2 -17 -14 -24 -27 l-12 -24 -9
24 c-5 14 -19 33 -29 43 -11 9 -26 36 -33 60 -16 50 -34 67 -71 67 -19 0 -33
-10 -54 -40 -27 -39 -45 -44 -45 -13 0 25 -31 83 -45 83 -7 0 -20 -18 -28 -39
-28 -69 -41 -63 -33 16 6 62 5 71 -14 88 -20 18 -22 18 -49 2 -43 -25 -51 -21
-51 22 0 21 -6 50 -13 64 -16 30 -162 141 -221 168 -54 24 -81 24 -141 -5 -38
-18 -56 -34 -74 -67 -13 -24 -37 -53 -55 -64 -17 -11 -32 -30 -34 -41 -4 -31
69 -117 133 -156 30 -18 55 -35 55 -39 0 -18 -81 7 -169 51 -76 38 -108 49
-127 44 -52 -13 -57 -105 -9 -174 14 -21 67 -68 116 -105 96 -72 121 -101 94
-111 -23 -9 -77 4 -160 37 -120 48 -137 40 -152 -67 -5 -38 -1 -49 35 -99 27
-39 64 -73 118 -109 111 -74 147 -86 254 -86 49 0 92 -4 95 -10 3 -5 -9 -19
-27 -30 -27 -18 -45 -21 -101 -17 -37 2 -70 0 -73 -5 -9 -15 45 -88 73 -99 48
-18 83 -49 83 -75 0 -22 -4 -24 -47 -24 -27 0 -68 -9 -92 -20 -24 -11 -44 -20
-46 -20 -1 0 -8 35 -15 78 l-12 77 -93 77 c-52 43 -110 84 -129 92 -19 8 -71
38 -115 66 -66 43 -86 51 -118 48 l-38 -3 2 -55 c4 -102 20 -143 76 -201 29
-30 67 -62 86 -72 25 -13 31 -21 23 -29 -8 -8 -34 -4 -99 15 -48 15 -91 27
-95 27 -19 0 -5 -34 30 -73 21 -23 51 -59 66 -79 l28 -38 -23 0 c-37 0 -121
53 -154 97 -34 46 -89 86 -113 81 -23 -4 -92 -137 -86 -164 5 -20 -48 -79
-121 -131 -29 -21 -30 -22 -10 -37 22 -17 39 -19 175 -20 86 -1 102 -4 163
-33 48 -23 90 -54 140 -104 l71 -71 76 4 c76 5 124 22 160 58 10 10 36 21 57
25 21 3 75 14 119 25 45 11 111 20 146 20 73 0 103 16 113 60 3 16 15 40 26
54 l20 26 37 -25 c20 -14 43 -25 50 -25 8 0 35 23 62 50 27 28 52 50 57 50 4
0 24 -31 44 -68 27 -52 46 -73 83 -96 41 -26 50 -28 68 -17 94 59 171 69 233
31 30 -19 35 -27 35 -60 0 -31 6 -44 35 -68 46 -41 98 -55 139 -38 31 13 86
68 86 87 0 5 13 9 30 9 24 0 33 -7 49 -37 16 -31 30 -42 80 -61 34 -13 61 -28
61 -34 0 -6 -14 -22 -31 -37 -16 -14 -61 -56 -99 -92 -69 -66 -166 -125 -259
-157 -33 -11 -75 -41 -128 -89 -44 -39 -103 -90 -132 -113 -28 -23 -59 -57
-68 -76 -16 -33 -16 -35 5 -57 19 -19 37 -22 135 -28 114 -7 188 -23 274 -60
49 -21 117 -20 192 3 40 12 126 88 147 130 18 35 47 36 62 3 18 -40 15 -60
-24 -138 -19 -40 -42 -93 -50 -119 -8 -26 -23 -52 -34 -58 -37 -20 -191 -12
-296 16 -217 57 -195 55 -320 32 -128 -23 -138 -20 -164 43 -11 27 -16 29 -44
24 -19 -5 -55 -31 -96 -71 -60 -59 -69 -64 -105 -61 -33 2 -42 -2 -50 -21 -6
-13 -24 -26 -45 -32 -60 -17 -70 -13 -87 29 -18 46 -43 55 -87 32 -28 -16 -28
-17 -22 -81 8 -92 -1 -101 -59 -56 -53 40 -48 38 -125 36 -64 -2 -93 -18 -122
-66 -19 -32 -23 -34 -75 -34 -31 0 -91 11 -138 26 -75 23 -85 24 -107 11 -12
-8 -39 -18 -58 -22 -19 -4 -49 -19 -67 -33 -29 -21 -33 -30 -33 -71 0 -30 10
-67 29 -107 57 -120 123 -168 246 -180 l71 -6 38 55 c38 55 40 56 95 62 31 3
97 13 148 22 89 16 93 16 175 -5 45 -12 126 -29 178 -38 52 -9 174 -33 270
-54 96 -21 196 -42 222 -45 l47 -7 21 -62 c16 -49 20 -82 18 -171 -3 -127 9
-166 80 -248 30 -34 42 -57 42 -79 0 -17 9 -46 21 -64 17 -28 27 -34 56 -34
29 0 52 13 123 70 76 60 215 138 227 127 8 -9 -21 -57 -38 -62 -31 -10 -126
-121 -168 -198 -44 -80 -50 -111 -26 -125 22 -12 5 -53 -29 -71 -22 -12 -26
-21 -26 -57 0 -39 3 -44 26 -50 79 -20 209 22 269 86 35 37 104 84 113 76 3
-3 -1 -24 -8 -47 -11 -32 -35 -58 -116 -127 -77 -65 -105 -96 -113 -122 -16
-53 -14 -57 32 -68 54 -14 84 -44 71 -71 -12 -26 -147 -148 -173 -156 -11 -3
-34 -32 -52 -66 -28 -52 -37 -60 -73 -69 -22 -6 -70 -18 -106 -27 -36 -9 -90
-30 -120 -47 -71 -40 -145 -62 -194 -58 -35 3 -38 5 -33 29 12 62 -42 180
-102 222 l-29 21 -21 -29 c-14 -19 -21 -45 -21 -73 0 -24 -9 -75 -19 -113 -21
-74 -19 -86 24 -129 22 -22 12 -50 -31 -82 -33 -26 -44 -57 -24 -69 6 -3 10
-32 10 -64 0 -47 4 -61 23 -79 38 -36 144 -24 288 33 l87 34 92 -31 93 -31 96
24 c63 15 125 24 181 24 75 0 90 -3 131 -28 52 -31 104 -34 236 -16 66 9 83
15 110 41 l33 32 82 -13 c46 -7 110 -26 148 -43 36 -16 88 -38 117 -48 46 -16
204 -118 218 -140 3 -5 41 -29 84 -55 56 -33 110 -79 187 -158 178 -181 328
-314 366 -321 18 -4 107 -11 198 -15 163 -8 167 -9 335 -63 94 -31 215 -77
270 -103 208 -99 225 -105 280 -105 29 0 69 7 89 15 31 13 47 14 97 4 89 -17
256 -6 354 24 197 60 471 196 557 275 59 55 90 109 129 227 43 127 114 198
249 248 36 13 97 41 137 60 74 38 156 58 458 111 77 14 178 32 224 40 46 9 90
21 98 27 36 31 164 221 184 274 16 45 40 79 94 136 40 42 76 85 79 96 3 10 39
47 80 81 41 35 85 82 98 105 17 30 40 51 86 77 34 19 91 61 127 93 139 125
291 187 456 187 147 0 263 22 348 64 l72 37 -6 54 c-6 48 -4 62 24 121 40 86
82 137 145 180 41 27 60 34 101 34 l50 0 33 78 c22 54 32 93 32 130 0 35 8 68
24 100 12 26 36 80 51 121 21 55 35 78 56 90 37 21 36 27 -5 52 -19 11 -42 31
-50 45 l-16 24 80 0 c63 0 93 5 145 27 62 25 65 29 81 76 9 29 14 63 11 84 -6
32 -2 38 66 103 40 37 83 89 97 114 l25 47 -33 25 c-17 14 -32 32 -32 39 0 7
23 21 51 30 45 15 50 20 47 43 -2 18 -13 31 -33 41 -16 7 -50 25 -75 40 -25
14 -63 33 -84 42 -39 16 -39 16 -17 28 25 14 53 15 156 6 94 -8 113 8 160 133
43 114 48 191 13 215 -13 8 -33 25 -46 37 -22 21 -28 22 -80 12 -31 -6 -79 -7
-106 -4 l-49 7 70 39 c60 34 75 48 101 95 28 52 29 58 16 84 -16 30 -22 31
-93 16 -27 -6 -67 -9 -88 -7 l-38 3 38 41 c28 31 37 50 37 76 0 25 8 42 31 64
31 29 31 30 26 114 -2 56 1 98 10 124 7 21 13 44 13 51 0 22 -64 55 -106 55
-22 0 -55 5 -75 10 -32 9 -38 16 -48 54 -7 27 -21 53 -38 66 -25 19 -34 20
-133 14 -95 -6 -110 -4 -145 14 -65 33 -194 140 -201 166 -3 13 2 47 10 77 9
29 16 66 16 82 0 28 -1 29 -37 23 -21 -4 -64 -23 -95 -42 -32 -19 -81 -42
-110 -50 -29 -9 -74 -27 -99 -41 -26 -14 -62 -25 -80 -26 l-34 -2 1 65 c1 52
7 77 32 126 17 34 43 75 57 93 40 47 65 122 65 194 0 79 -21 140 -65 191 -33
39 -34 40 -73 28 -22 -7 -91 -12 -154 -12 l-115 0 -41 38 c-59 55 -57 77 16
141 31 28 68 71 81 96 23 44 24 47 8 81 -10 19 -21 53 -26 74 -8 37 -7 42 23
66 17 14 50 44 74 66 23 21 76 55 117 73 73 34 75 35 75 71 0 25 -4 35 -12 31
-7 -2 -38 -10 -69 -17 -48 -11 -60 -10 -88 4 -30 16 -35 16 -87 -1 l-56 -17
-48 -96 c-67 -133 -90 -157 -170 -178 l-65 -17 0 -92 c0 -50 -3 -94 -7 -98
-15 -15 -105 26 -143 65 -27 28 -58 46 -104 61 -36 12 -78 28 -93 35 -25 13
-26 16 -16 51 15 54 6 272 -12 283 -7 4 -52 16 -99 26 -47 9 -87 18 -89 20 -2
1 9 25 23 54 25 50 26 53 9 71 -10 11 -38 33 -62 49 -39 26 -55 30 -106 29
-34 -1 -79 -7 -102 -14z"/>
</g>
</svg>
