<?xml version="1.0" standalone="no"?>
<!DOCTYPE svg PUBLIC "-//W3C//DTD SVG 20010904//EN"
 "http://www.w3.org/TR/2001/REC-SVG-20010904/DTD/svg10.dtd">
<svg version="1.0" xmlns="http://www.w3.org/2000/svg"
 width="1024.000000pt" height="1024.000000pt" viewBox="0 0 1024.000000 1024.000000"
 preserveAspectRatio="xMidYMid meet">
<metadata>
Created by potrace 1.16, written by Peter Selinger 2001-2019
</metadata>
<g transform="translate(0.000000,1024.000000) scale(0.100000,-0.100000)"
fill="#000000" stroke="none">
<path d="M3270 9781 c0 -4 18 -49 40 -100 51 -118 46 -166 -18 -166 -19 0 -28
-6 -30 -20 -8 -39 -34 -57 -72 -51 -25 4 -43 0 -59 -10 -12 -9 -39 -16 -59
-17 -26 0 -49 -10 -79 -34 -23 -18 -52 -33 -65 -33 -37 0 -124 28 -138 45 -8
9 -21 13 -35 9 -27 -7 -121 10 -182 33 -23 8 -55 13 -70 10 -56 -11 -123 -40
-123 -53 0 -7 -9 -30 -21 -50 -23 -41 -19 -64 10 -64 29 0 40 -46 16 -64 -33
-24 -11 -46 44 -46 27 0 53 -4 56 -10 11 -18 -16 -51 -46 -57 -21 -4 -34 -14
-41 -32 -8 -23 -6 -29 23 -53 28 -24 31 -31 26 -65 -4 -22 -15 -44 -27 -52
-11 -7 -20 -19 -20 -25 0 -18 63 -76 83 -76 17 0 31 -34 25 -66 -2 -14 6 -20
36 -27 33 -8 41 -7 53 8 18 26 22 16 13 -33 -8 -43 -4 -81 9 -83 3 0 30 -2 58
-5 95 -9 150 -43 140 -86 -6 -20 -52 -50 -82 -53 -19 -2 -70 -26 -80 -38 -6
-7 -24 -19 -40 -29 -49 -27 -59 -58 -36 -112 17 -39 18 -49 6 -73 -7 -15 -16
-43 -20 -61 -6 -29 -4 -34 14 -39 12 -3 21 -8 21 -11 0 -11 -73 -72 -86 -72
-7 0 -15 -8 -19 -19 -3 -10 -21 -35 -40 -54 -19 -20 -35 -41 -35 -47 0 -6 -14
-24 -31 -40 -30 -26 -31 -30 -15 -45 9 -9 16 -23 16 -31 0 -21 -50 -62 -85
-70 -76 -17 -93 -33 -115 -108 -20 -64 -48 -124 -100 -215 -14 -25 -44 -47
-110 -83 -97 -53 -115 -71 -126 -133 -5 -27 -21 -55 -55 -90 -29 -31 -48 -61
-51 -79 -2 -24 -10 -32 -43 -43 -22 -8 -67 -17 -100 -19 -33 -3 -84 -16 -114
-30 -84 -38 -111 -32 -127 31 -9 36 -30 54 -64 55 -34 0 -107 -74 -120 -122
-7 -23 -37 -63 -85 -112 -78 -79 -84 -92 -88 -165 -2 -34 2 -46 18 -54 11 -7
31 -18 45 -27 14 -8 50 -17 80 -20 l55 -5 -2 -70 c0 -38 -4 -87 -8 -107 -6
-31 -2 -45 21 -82 32 -49 55 -59 114 -50 l40 7 0 -50 c0 -50 18 -101 45 -123
7 -6 17 -26 21 -43 3 -18 18 -54 32 -80 23 -45 23 -49 8 -66 -13 -14 -14 -24
-7 -45 6 -14 16 -26 22 -26 8 0 8 -4 -1 -15 -7 -8 -20 -15 -29 -15 -9 0 -24
-9 -34 -21 -13 -14 -27 -19 -50 -17 -28 3 -32 7 -35 36 -2 17 -4 32 -5 32 -1
0 -33 -11 -72 -25 -45 -15 -73 -31 -79 -45 -12 -28 -91 -28 -144 0 -32 17 -51
19 -117 15 -48 -3 -83 -1 -91 5 -9 8 -15 6 -23 -7 -10 -17 -10 -17 -11 0 0 9
-7 17 -15 17 -12 0 -15 -13 -15 -60 l0 -60 -57 0 c-46 0 -64 -5 -88 -24 -28
-22 -29 -26 -18 -55 9 -26 9 -31 -3 -31 -9 0 -12 -4 -9 -10 9 -15 52 -12 58 5
6 14 74 61 105 72 17 6 -8 -19 -60 -60 -34 -27 -35 -51 -5 -80 13 -12 27 -34
30 -49 13 -51 151 -133 275 -163 72 -18 73 -18 95 2 12 12 38 24 57 28 19 4
41 12 48 17 7 6 30 8 51 4 37 -6 40 -4 43 21 4 31 25 42 34 18 5 -11 -2 -24
-19 -38 -15 -12 -40 -47 -56 -77 -25 -48 -33 -55 -62 -58 -18 -2 -45 -12 -60
-23 -15 -11 -31 -18 -36 -17 -4 1 -19 -4 -32 -11 -18 -10 -25 -10 -31 -1 -6
10 -10 9 -16 -1 -11 -18 -80 -42 -94 -34 -6 4 -9 14 -8 23 2 12 -3 16 -16 14
-10 -2 -22 2 -26 9 -11 18 -33 -28 -26 -54 6 -23 48 -68 189 -206 48 -46 87
-87 87 -91 0 -20 143 -147 205 -181 84 -46 124 -49 210 -14 33 14 66 25 73 25
6 0 12 5 12 10 0 6 12 15 28 21 15 6 60 26 100 45 56 27 72 39 72 56 0 12 8
31 19 42 10 12 23 35 28 51 13 39 -8 69 -55 80 -18 3 -30 11 -26 16 3 5 8 8
12 5 4 -2 16 0 27 5 20 8 19 8 -2 14 -16 5 -19 10 -11 19 6 7 20 13 31 14 38
2 50 52 20 84 -9 11 -11 18 -5 18 7 0 12 -6 12 -12 0 -7 10 -2 21 12 17 22 19
23 17 5 -3 -19 2 -20 80 -18 51 1 82 -2 82 -9 0 -5 -7 -8 -15 -5 -8 4 -17 1
-21 -4 -3 -6 -19 -9 -34 -5 -32 6 -45 -5 -54 -51 -8 -34 8 -53 27 -34 6 6 15
11 21 11 5 0 0 -9 -12 -20 -12 -12 -22 -27 -22 -35 0 -7 -3 -20 -6 -29 -5 -14
4 -16 62 -17 38 -1 60 -4 49 -6 -11 -2 -38 -20 -60 -39 -26 -23 -33 -33 -20
-30 19 6 19 5 3 -8 -19 -14 -25 -56 -8 -56 6 0 15 -11 21 -24 6 -13 21 -27 33
-30 18 -5 19 -8 6 -16 -9 -6 -11 -13 -5 -17 6 -5 16 -25 24 -46 15 -43 9 -89
-19 -151 -10 -23 -26 -72 -35 -109 -14 -55 -15 -73 -6 -91 7 -12 11 -26 10
-32 -5 -27 3 -46 24 -54 18 -7 19 -9 4 -9 -17 -1 -18 -7 -11 -59 4 -31 7 -74
7 -95 -1 -39 -1 -39 18 -18 10 11 19 25 19 31 0 5 5 10 10 10 14 0 12 -43 -3
-59 -9 -11 -9 -14 1 -18 21 -8 14 -32 -8 -26 -16 4 -20 0 -20 -19 0 -13 7 -33
15 -45 10 -14 12 -24 5 -28 -19 -11 -10 -37 23 -67 28 -27 29 -30 9 -23 -27 8
-28 17 8 -105 11 -36 27 -94 35 -130 9 -36 18 -74 21 -85 6 -22 22 -144 29
-215 5 -56 51 -188 74 -215 9 -11 28 -45 41 -75 14 -30 33 -62 43 -72 13 -12
15 -17 5 -21 -10 -3 -9 -8 4 -18 10 -8 19 -30 20 -49 2 -19 5 -37 8 -40 17
-15 50 -70 50 -82 0 -8 11 -20 24 -26 15 -6 27 -23 31 -41 3 -17 11 -29 17
-28 5 1 11 -10 13 -25 5 -42 38 -142 52 -159 7 -8 16 -30 19 -47 4 -18 10 -32
14 -32 4 0 8 -19 8 -42 1 -91 45 -240 107 -369 23 -48 45 -97 48 -109 4 -15
11 -21 21 -17 10 4 17 -2 22 -16 4 -12 18 -33 32 -47 13 -14 33 -44 43 -67 10
-24 22 -43 28 -43 10 0 55 -107 66 -160 4 -19 25 -75 46 -123 22 -48 39 -95
39 -104 0 -10 6 -13 16 -9 14 5 15 4 5 -8 -13 -15 -4 -49 10 -40 5 3 9 0 9 -6
0 -7 9 -23 20 -37 11 -14 20 -37 19 -52 l-1 -26 -10 28 c-9 24 -28 38 -28 20
1 -44 22 -141 38 -175 11 -24 25 -56 31 -71 6 -15 16 -25 21 -22 5 3 7 0 5 -8
-3 -7 4 -24 16 -38 12 -13 41 -49 64 -80 82 -105 191 -175 226 -143 8 8 23 14
31 14 24 0 120 66 134 92 7 13 16 49 19 80 10 81 39 107 165 148 60 19 107 30
122 26 21 -6 22 -6 4 6 -36 24 -56 48 -56 67 0 10 23 51 50 92 30 44 50 85 50
101 0 15 10 36 23 48 18 17 30 20 62 15 22 -3 54 -7 70 -8 l30 -2 3 155 c2
122 -1 165 -14 207 -16 50 -16 57 1 121 19 68 40 112 82 168 39 53 54 109 80
297 6 41 -9 67 -38 67 -10 0 -25 10 -34 22 -14 21 -14 24 2 36 15 11 20 10 30
-5 11 -15 13 -12 13 19 0 19 -7 51 -15 71 -16 38 -18 81 -9 170 3 33 2 63 -4
70 -5 7 -15 37 -21 68 -13 60 -3 130 23 172 8 12 19 38 25 58 11 36 62 74 120
91 29 9 61 -7 62 -30 0 -11 2 -12 6 -4 4 10 8 10 19 2 15 -14 34 -5 34 15 0 8
8 19 18 24 11 6 26 36 37 71 10 33 24 65 31 70 8 7 33 7 78 0 41 -6 72 -7 83
-1 10 5 48 23 85 41 62 28 68 34 79 72 9 35 8 43 -5 50 -52 29 17 106 160 178
99 51 184 117 184 145 0 21 79 83 142 113 45 21 73 43 97 76 19 25 38 46 42
46 3 0 26 26 50 57 24 32 52 67 62 77 9 11 15 28 11 38 -3 10 0 18 6 18 10 0
55 37 184 152 19 18 19 18 -6 18 -19 0 -27 -6 -32 -25 -4 -14 -13 -25 -22 -25
-8 0 -14 3 -12 8 38 76 93 130 124 118 19 -7 18 -56 -1 -56 -8 0 -15 -4 -15
-9 0 -4 37 4 83 19 45 15 100 33 122 39 22 6 47 16 55 21 13 9 12 12 -4 25
-22 17 -14 20 13 5 15 -8 22 -3 37 25 10 19 24 35 31 35 17 0 82 59 66 60 -26
0 -12 31 26 58 41 28 60 62 35 62 -8 0 -11 6 -8 15 4 8 -1 33 -10 55 -24 61
-20 91 19 137 36 43 52 51 155 78 88 23 131 47 157 87 12 18 31 43 43 55 15
15 20 28 16 40 -6 15 -5 16 6 5 9 -9 10 -19 1 -43 -8 -21 -9 -39 -1 -60 5 -16
8 -38 5 -48 -2 -9 2 -26 10 -37 14 -19 18 -17 38 21 3 6 7 5 11 -2 10 -22 24
-14 24 15 0 15 5 34 11 42 8 11 9 -1 5 -44 -4 -49 -3 -57 8 -45 18 19 29 69
16 69 -5 0 -10 4 -10 10 0 5 7 7 15 4 10 -4 15 0 15 16 0 11 -4 18 -10 15 -12
-8 -12 23 1 50 8 17 9 16 6 -7 -5 -32 7 -37 23 -10 10 15 10 15 6 -3 -16 -64
-18 -78 -12 -110 7 -35 26 -49 26 -19 0 8 5 12 10 9 6 -3 11 4 11 17 1 17 3
18 6 6 4 -18 49 -36 60 -25 3 3 -2 26 -10 51 -11 31 -12 46 -4 49 13 4 18 95
6 103 -5 3 -9 17 -9 32 0 15 -7 50 -15 77 -9 28 -13 60 -10 73 3 14 0 29 -10
38 -19 20 -19 68 0 84 20 17 10 30 -25 30 -37 0 -42 10 -29 49 10 28 8 33 -20
57 -41 34 -43 85 -5 111 23 15 25 21 20 56 -4 24 -2 45 5 53 18 22 3 47 -24
40 -15 -4 -46 7 -94 31 -87 45 -107 77 -80 125 9 16 17 36 17 44 0 8 7 14 15
14 8 0 15 -4 15 -10 0 -5 7 -10 15 -10 17 0 36 32 45 75 l6 30 70 -1 c58 -2
73 1 82 16 9 14 6 19 -14 29 -16 7 -24 19 -24 35 0 23 -4 25 -39 23 -40 -1
-81 23 -81 48 0 17 -62 60 -82 57 -43 -7 -21 113 25 136 15 7 27 20 27 28 0 8
11 20 25 26 29 13 28 29 -3 43 -24 11 -27 22 -12 45 8 13 10 13 10 -1 0 -9 16
-24 35 -33 36 -18 68 -53 59 -68 -3 -5 -2 -8 3 -7 4 1 10 0 13 -1 3 -1 25 -4
50 -6 l45 -3 -22 18 c-26 22 -30 41 -9 41 19 0 32 -19 40 -57 9 -39 56 -79
103 -88 38 -7 58 7 48 34 -3 7 0 20 6 27 9 11 13 11 23 1 24 -23 48 -86 41
-106 -3 -11 -2 -35 2 -53 5 -18 6 -51 3 -73 -7 -50 -2 -75 16 -75 8 0 43 -10
77 -21 50 -17 83 -21 172 -19 61 1 130 1 155 0 25 0 98 -1 162 0 104 0 122 -3
165 -25 55 -27 88 -59 78 -74 -8 -14 -42 -14 -50 -1 -12 20 -22 9 -28 -29 -3
-22 -12 -54 -21 -72 -9 -18 -16 -40 -16 -51 0 -11 -7 -18 -19 -18 -23 0 -36
-16 -45 -54 -6 -26 -8 -27 -25 -12 -22 20 -31 20 -31 1 0 -18 -20 -20 -21 -2
0 6 -4 2 -9 -10 -7 -17 -18 -23 -39 -23 -38 0 -81 -39 -81 -72 0 -14 -7 -31
-15 -38 -19 -16 -19 -49 -1 -75 7 -11 19 -47 26 -80 15 -70 30 -93 30 -47 0
46 14 39 38 -18 22 -54 34 -59 71 -34 20 15 22 22 16 61 -6 40 -4 46 25 73 28
26 31 34 26 65 -7 36 1 44 22 23 9 -9 15 -8 28 8 10 13 17 15 20 7 3 -7 11
-10 17 -7 15 5 36 -90 42 -190 2 -38 8 -72 12 -75 21 -14 57 -187 55 -258 -2
-50 18 -59 34 -16 l9 27 29 -31 c34 -37 48 -34 66 12 7 19 18 31 23 28 5 -3
13 1 18 8 11 18 12 66 0 73 -4 3 -11 29 -15 57 -6 40 -4 55 9 69 12 13 15 28
10 49 -6 30 -6 31 24 25 32 -7 34 -4 45 67 14 89 17 157 7 163 -6 4 -11 18
-11 32 0 14 -5 34 -11 45 -6 12 -8 28 -5 36 6 14 10 13 30 -6 19 -18 30 -21
63 -15 26 4 43 2 47 -5 4 -6 19 -11 34 -11 15 0 38 -7 50 -16 13 -9 24 -14 25
-13 1 2 7 13 13 24 6 12 15 36 19 55 10 47 60 156 88 194 13 17 34 57 47 90
23 57 23 59 5 72 -10 8 -22 14 -27 14 -15 0 -8 45 12 78 11 17 26 32 34 32 8
0 28 17 43 38 15 20 31 39 36 40 4 2 7 18 7 35 0 18 9 40 22 54 19 21 21 27 9
45 -7 12 -15 46 -16 76 -5 69 18 107 70 116 21 4 41 17 51 31 9 14 22 25 29
25 7 0 27 13 44 29 18 17 41 33 52 36 10 4 26 20 35 36 18 36 63 57 125 60 24
1 49 5 54 9 39 27 95 10 95 -30 0 -19 69 -55 82 -42 5 5 -9 33 -32 64 -58 81
-55 110 16 168 31 25 62 44 70 44 19 -2 27 31 14 56 -6 11 -9 28 -6 38 9 28
-55 73 -93 66 -26 -5 -32 -3 -40 17 -25 67 -101 91 -111 36 -4 -25 -6 -26 -16
-10 -13 22 -2 61 21 69 22 9 19 39 -9 82 -31 49 -50 64 -78 60 -31 -4 -30 19
1 35 35 17 40 40 7 31 -21 -5 -27 -2 -36 20 -8 23 -14 25 -37 19 -16 -4 -42
-7 -60 -7 -25 0 -33 -5 -35 -20 -2 -17 -9 -20 -31 -18 -21 2 -30 -2 -34 -16
-3 -13 -14 -19 -36 -19 -17 0 -35 -6 -40 -15 -9 -13 -14 -13 -48 4 -21 10 -53
18 -72 18 -25 0 -37 6 -47 24 -18 34 -37 39 -57 16 -10 -11 -23 -20 -31 -20
-7 0 -24 -7 -37 -16 -21 -13 -23 -19 -14 -36 13 -25 2 -37 -61 -63 -25 -11
-62 -30 -84 -43 -21 -13 -60 -27 -86 -31 -49 -8 -130 -61 -130 -85 0 -14 -84
-86 -101 -86 -26 0 -48 -32 -42 -60 5 -26 1 -30 -49 -54 -59 -28 -78 -32 -78
-16 0 6 -7 7 -17 1 -59 -30 -73 -33 -121 -26 -44 6 -52 4 -61 -14 -18 -33 -13
-59 18 -80 20 -15 37 -19 63 -15 31 6 36 3 47 -24 10 -25 10 -35 -3 -59 -13
-27 -13 -32 0 -52 21 -29 15 -66 -11 -67 -11 -1 -22 -3 -25 -4 -3 -1 -14 -3
-25 -6 -11 -2 -35 -6 -53 -10 -24 -5 -38 -2 -53 12 -20 18 -21 18 -33 1 -11
-14 -34 -18 -122 -22 -96 -5 -114 -3 -149 15 -44 22 -89 19 -103 -7 -16 -28
-165 -45 -175 -19 -7 17 -57 28 -119 26 -27 0 -48 4 -48 9 0 6 -16 18 -35 27
-20 9 -35 24 -35 34 0 10 -7 23 -15 30 -21 18 -19 35 8 53 l22 15 -22 24 c-27
29 -28 47 -7 107 23 66 12 113 -31 133 -31 14 -35 13 -72 -9 -21 -12 -48 -23
-60 -23 -12 0 -28 -3 -37 -6 -18 -7 -22 -34 -5 -34 13 0 5 -39 -18 -88 -9 -18
-17 -49 -19 -70 -1 -20 -6 -53 -9 -73 -5 -25 -3 -40 8 -50 21 -21 47 -75 47
-96 -1 -24 -35 -122 -47 -134 -7 -7 -16 -4 -28 7 -15 15 -23 16 -61 6 -24 -6
-57 -9 -74 -6 -17 4 -36 2 -44 -5 -23 -19 -76 -2 -89 30 -11 27 -13 28 -37 14
-66 -38 -69 -38 -139 -2 -36 19 -74 32 -85 29 -10 -2 -29 2 -43 9 -20 11 -28
10 -52 -4 -26 -15 -29 -15 -49 3 -12 12 -18 27 -15 39 9 35 -28 44 -83 21 -49
-21 -84 -19 -84 6 0 8 -10 14 -23 14 -13 0 -34 11 -46 24 -13 13 -39 26 -62
30 -39 6 -40 7 -34 40 10 52 -7 73 -65 81 -27 4 -50 10 -50 14 0 13 -58 42
-65 31 -3 -5 -20 -10 -37 -10 -23 0 -29 -4 -24 -15 7 -19 -7 -19 -42 -1 -15 7
-44 16 -65 20 -34 6 -38 4 -47 -19 -11 -29 -28 -32 -45 -9 -7 10 -39 21 -81
28 -62 10 -69 13 -72 36 -5 36 -17 45 -62 41 -32 -2 -48 4 -93 38 -58 44 -68
47 -95 30 -15 -10 -29 -5 -78 27 -32 22 -65 47 -72 57 -7 9 -18 15 -23 11 -11
-7 -34 19 -49 53 -6 14 -25 27 -51 34 -22 7 -43 19 -46 26 -3 7 -9 13 -15 13
-5 0 -29 14 -53 30 -51 35 -55 36 -55 11 0 -17 -3 -18 -22 -8 -58 31 -117 83
-118 104 0 12 5 25 10 28 6 3 10 15 10 27 0 11 8 22 19 25 23 6 34 42 25 79
-5 18 0 34 15 54 12 17 21 44 21 64 0 24 5 36 18 40 10 3 26 19 35 36 10 16
24 30 31 30 7 0 25 18 42 40 16 22 37 40 47 40 26 0 20 19 -10 32 -16 7 -35
20 -43 30 -14 17 -97 54 -147 65 -22 5 -25 11 -27 58 -1 11 -9 21 -21 23 -11
3 -24 10 -28 18 -4 8 -14 14 -22 14 -8 0 -19 10 -26 21 -10 19 -17 21 -58 16
-43 -5 -50 -3 -87 31 -22 20 -48 53 -57 73 -9 19 -25 43 -36 53 -18 17 -20 16
-33 -3 -8 -12 -29 -24 -46 -27 -30 -6 -32 -5 -32 24 0 17 -5 34 -11 38 -8 4
-4 13 12 26 l24 18 -22 19 c-25 21 -29 45 -14 85 8 18 6 28 -5 37 -33 27 -72
96 -83 147 -6 29 -11 55 -11 57 0 3 12 5 28 5 15 0 37 7 48 15 25 17 34 11 34
-21 0 -13 12 -34 26 -47 32 -30 71 -25 84 9 7 17 17 24 35 24 30 0 85 46 85
72 0 19 -15 51 -38 80 -10 12 -12 29 -7 57 6 38 5 41 -17 41 -31 0 -89 37
-124 79 -24 29 -30 48 -36 110 -4 42 -10 92 -13 111 -6 33 -4 36 32 55 31 16
38 26 38 49 0 18 -7 33 -20 40 -11 6 -35 23 -53 39 -18 15 -40 27 -50 28 -9 0
-32 5 -50 12 -28 10 -37 21 -53 67 -11 30 -24 69 -28 85 -4 17 -16 45 -25 64
-13 25 -16 45 -11 82 7 52 5 55 -26 38 -12 -6 -28 -7 -37 -4 -9 4 -47 6 -84 5
-38 -1 -69 3 -73 9 -3 6 -19 11 -35 11 -16 0 -32 5 -35 10 -3 6 -19 10 -36 10
-16 0 -29 4 -29 9 0 5 -7 11 -15 15 -8 3 -15 2 -15 -3z m3502 -4771 c6 0 9 -3
6 -6 -9 -8 -48 14 -48 27 0 6 7 3 16 -5 8 -9 20 -16 26 -16z m-3592 -4105 c0
-3 -9 -5 -20 -5 -15 0 -20 7 -20 27 l0 27 20 -22 c11 -12 20 -24 20 -27z"/>
<path d="M6772 4883 c0 -16 -2 -37 -4 -47 -5 -29 19 -30 26 -1 7 27 -2 75 -13
75 -4 0 -8 -12 -9 -27z"/>
<path d="M7010 4790 c0 -5 5 -10 10 -10 6 0 10 5 10 10 0 6 -4 10 -10 10 -5 0
-10 -4 -10 -10z"/>
<path d="M4035 830 c-3 -5 1 -10 9 -10 9 0 16 5 16 10 0 6 -4 10 -9 10 -6 0
-13 -4 -16 -10z"/>
</g>
</svg>
