<?xml version="1.0" standalone="no"?>
<!DOCTYPE svg PUBLIC "-//W3C//DTD SVG 20010904//EN"
 "http://www.w3.org/TR/2001/REC-SVG-20010904/DTD/svg10.dtd">
<svg version="1.0" xmlns="http://www.w3.org/2000/svg"
 width="964.000000pt" height="385.000000pt" viewBox="0 0 964.000000 385.000000"
 preserveAspectRatio="xMidYMid meet">
<metadata>
Created by potrace 1.16, written by Peter Selinger 2001-2019
</metadata>
<g transform="translate(0.000000,385.000000) scale(0.100000,-0.100000)"
fill="#000000" stroke="none">
<path d="M210 3822 c0 -18 35 -41 50 -32 11 7 11 11 1 24 -14 17 -51 22 -51 8z"/>
<path d="M175 3789 c-4 -6 5 -23 20 -39 15 -15 25 -36 24 -46 -10 -59 61 -169
184 -289 23 -23 50 -51 59 -63 11 -14 29 -22 47 -22 20 0 35 -9 50 -27 38 -50
70 -97 87 -130 9 -18 23 -33 30 -33 18 0 34 -41 34 -85 0 -36 28 -65 61 -65
10 0 31 -11 47 -25 17 -14 35 -25 40 -25 18 0 82 -74 72 -84 -5 -5 -3 -20 5
-36 7 -14 26 -69 41 -121 25 -86 31 -112 33 -146 1 -7 8 -13 18 -13 9 0 33 -8
54 -17 30 -13 41 -26 52 -58 8 -22 27 -55 43 -72 61 -66 78 -95 79 -137 1 -32
6 -43 23 -51 12 -5 22 -17 22 -25 0 -8 14 -39 30 -68 17 -32 29 -67 28 -87 -1
-37 46 -122 73 -130 9 -3 25 -24 35 -48 23 -51 74 -109 130 -147 29 -21 43
-39 48 -62 7 -34 107 -138 174 -179 18 -12 37 -29 42 -40 6 -10 17 -19 24 -19
11 0 35 -16 71 -49 6 -5 19 -21 30 -36 11 -16 41 -51 67 -79 26 -28 48 -57 48
-63 0 -8 13 -13 31 -13 23 0 30 4 26 14 -4 10 -1 13 9 9 8 -3 14 1 14 11 0 20
9 20 49 0 26 -13 35 -14 44 -4 9 10 9 14 0 17 -7 3 -13 14 -13 26 0 20 0 20
24 -2 20 -19 23 -28 16 -47 -10 -26 4 -43 17 -20 9 17 49 11 55 -7 8 -23 -17
-102 -32 -102 -8 0 -17 -11 -20 -25 -3 -14 -11 -25 -18 -24 -28 2 -32 5 -32
19 0 16 -9 19 -34 9 -17 -6 -22 -34 -7 -34 5 0 12 -11 15 -25 4 -14 12 -25 19
-24 36 4 97 -2 92 -10 -3 -5 0 -13 6 -16 6 -4 13 2 16 14 7 26 20 26 58 1 17
-11 41 -20 54 -20 23 0 23 -1 8 -18 -22 -24 -22 -59 1 -66 10 -3 53 -10 97
-16 86 -11 145 -27 145 -39 0 -10 112 -41 149 -41 16 0 31 5 33 12 3 8 17 9
56 1 29 -6 52 -6 52 -2 0 25 158 -14 242 -59 32 -16 92 -38 135 -47 43 -9 96
-21 118 -25 25 -6 44 -5 52 2 9 7 31 7 75 -2 113 -22 126 -22 159 -6 35 18 79
21 79 7 0 -5 -6 -11 -12 -14 -10 -4 -10 -7 0 -18 10 -11 17 -11 32 -2 15 10
29 8 76 -13 32 -14 68 -24 81 -21 14 3 23 -1 23 -8 0 -12 30 -25 58 -25 18 0
15 40 -4 47 -15 5 -39 52 -31 60 2 2 17 -3 33 -12 16 -8 34 -15 40 -15 22 0
58 -41 59 -68 0 -36 26 -35 43 1 14 28 14 29 29 8 18 -27 43 -27 43 -1 0 14
-7 20 -22 20 -20 0 -19 2 10 20 17 11 32 27 32 36 0 23 -42 60 -85 74 -31 10
-39 9 -54 -4 -21 -19 -24 -19 -73 -5 -34 9 -38 13 -38 43 0 25 -6 35 -25 44
-14 7 -32 12 -40 12 -7 0 -15 6 -18 13 -3 9 -9 9 -28 0 -13 -6 -52 -14 -87
-18 -50 -5 -72 -2 -102 12 -37 17 -39 20 -33 53 3 19 6 35 7 36 0 0 32 -2 69
-5 55 -5 70 -4 78 9 8 11 11 12 15 3 7 -16 64 -17 64 -2 0 13 25 39 38 39 5 0
12 -9 15 -20 4 -16 14 -20 44 -20 22 0 48 6 59 14 18 14 17 15 -11 14 -38 -1
-95 11 -95 20 0 4 -10 14 -22 21 -32 20 -269 16 -281 -5 -11 -20 -27 -17 -27
4 0 16 -7 18 -54 14 -33 -3 -56 0 -60 7 -4 6 -17 11 -30 11 -13 0 -33 9 -46
20 -25 22 -45 26 -55 10 -13 -22 -47 -10 -58 20 -7 18 -21 33 -34 36 -30 8
-73 -20 -73 -47 0 -23 -18 -61 -34 -71 -6 -4 -21 0 -34 8 -15 10 -28 12 -39 6
-10 -6 -36 -5 -69 3 -29 7 -58 9 -64 5 -9 -6 -38 -2 -138 16 -15 3 -24 14 -28
32 -3 15 -17 40 -30 55 -20 23 -30 28 -50 23 -17 -5 -35 -1 -51 9 -13 9 -32
13 -44 10 -14 -5 -27 2 -47 23 -35 38 -102 51 -109 22 -5 -20 -43 -29 -43 -10
0 6 -16 10 -35 10 -20 0 -52 7 -73 15 -33 14 -38 14 -48 0 -9 -12 -14 -13 -22
-3 -7 9 -7 40 0 98 8 77 11 181 6 282 -1 20 4 49 12 63 13 24 13 28 -3 40 -21
15 -14 66 14 91 21 19 25 74 7 92 -9 9 -9 12 1 12 16 0 73 -31 83 -45 9 -13
58 -17 58 -4 0 5 9 9 20 9 12 0 20 7 20 18 0 27 -16 46 -34 39 -21 -8 -20 11
1 35 21 23 9 34 -50 43 -31 6 -40 13 -52 42 -8 20 -15 50 -15 67 0 17 -11 49
-23 71 -23 39 -24 40 -72 37 -61 -4 -98 -26 -90 -51 4 -12 -2 -23 -18 -34 -23
-15 -26 -14 -85 46 -49 50 -62 70 -68 105 -4 23 -9 43 -13 43 -3 1 -21 3 -40
5 -25 2 -47 15 -83 51 l-49 48 26 23 c28 24 28 52 0 52 -26 0 -17 20 14 31 28
10 28 11 18 50 -5 22 -18 44 -29 50 -17 9 -18 13 -5 27 8 9 17 25 20 35 4 9
16 17 27 17 11 0 20 7 20 15 0 21 17 19 30 -4 14 -27 13 -30 -11 -24 -15 4
-20 2 -18 -6 3 -7 7 -11 10 -9 3 2 13 -3 23 -11 9 -8 18 -12 19 -10 32 45 37
60 22 65 -8 3 -15 12 -15 20 0 22 15 16 30 -11 23 -43 84 -47 73 -5 -3 12 0
20 7 20 6 0 10 8 8 18 -2 9 -10 17 -18 17 -8 0 -19 10 -25 22 -6 15 -16 21
-26 18 -9 -3 -44 -7 -77 -9 -66 -4 -82 -10 -82 -30 0 -6 -5 -23 -12 -38 l-12
-25 -18 33 c-10 19 -18 41 -18 49 0 17 -9 19 -29 6 -9 -6 -10 -14 -3 -27 12
-24 4 -76 -12 -71 -6 2 -10 11 -8 20 7 41 -64 95 -99 77 -22 -12 -29 -3 -29
34 0 17 -4 36 -8 43 -11 17 -106 37 -110 24 -2 -6 -12 -5 -27 5 -21 13 -22 18
-12 50 9 28 8 38 -5 51 -13 13 -22 14 -48 4 -26 -9 -36 -8 -56 7 -13 9 -24 22
-24 28 -1 31 -70 17 -70 -13 0 -11 -3 -14 -8 -7 -4 7 -16 13 -27 15 -12 3 -29
23 -43 52 -14 29 -32 51 -47 57 -14 5 -25 17 -25 27 0 10 -15 33 -33 51 -48
50 -170 142 -187 142 -9 0 -33 20 -53 45 -21 25 -47 45 -57 45 -17 0 -20 7
-20 39 0 33 -5 43 -30 61 -16 12 -30 30 -30 41 0 10 -23 43 -52 73 -50 52 -53
54 -78 41 -21 -11 -28 -11 -45 1 -21 16 -68 18 -93 5 -11 -6 -38 -5 -70 1 -40
8 -59 18 -75 39 -25 35 -76 53 -123 45 -20 -4 -34 -3 -34 3 0 16 -38 33 -45
20z m1720 -1167 c-3 -3 -11 0 -18 7 -9 10 -8 11 6 5 10 -3 15 -9 12 -12z m385
-646 c0 -2 -12 -1 -27 1 -68 10 -70 12 -66 38 l5 24 44 -30 c24 -16 44 -31 44
-33z m66 34 c9 0 14 -11 14 -30 0 -16 5 -30 10 -30 6 0 10 -14 10 -30 0 -28
-2 -29 -20 -18 -12 8 -20 24 -20 40 0 17 -5 28 -13 28 -8 0 -22 9 -31 19 -13
15 -14 20 -4 24 7 3 19 4 26 1 8 -2 20 -4 28 -4z m48 -146 c9 -24 7 -28 -9
-14 -17 14 -20 30 -6 30 5 0 12 -7 15 -16z m-239 -628 c12 -11 12 -15 2 -19
-8 -3 -19 4 -25 14 -15 23 2 26 23 5z"/>
<path d="M6660 3565 c0 -8 5 -15 10 -15 6 0 10 -7 10 -15 0 -16 16 -21 23 -7
3 4 1 17 -4 30 -9 25 -39 30 -39 7z"/>
<path d="M2797 3563 c-12 -11 -8 -23 8 -23 8 0 15 7 15 15 0 16 -12 20 -23 8z"/>
<path d="M6341 3556 c-8 -9 -11 -19 -7 -23 9 -9 29 13 24 27 -2 8 -8 7 -17 -4z"/>
<path d="M6370 3536 c0 -9 5 -16 10 -16 6 0 10 4 10 9 0 6 -4 13 -10 16 -5 3
-10 -1 -10 -9z"/>
<path d="M6594 3506 c-3 -9 -3 -32 0 -50 5 -27 3 -37 -10 -44 -16 -9 -16 -12
-1 -45 9 -19 24 -38 33 -41 8 -3 12 -10 9 -16 -3 -5 -2 -10 3 -10 14 0 11 48
-4 61 -8 7 -10 17 -5 27 27 53 31 69 23 97 -9 33 -39 46 -48 21z"/>
<path d="M4383 3460 c-32 -39 -43 -74 -43 -130 0 -27 -5 -72 -11 -100 -9 -40
-14 -50 -27 -45 -8 3 -24 -3 -36 -14 -16 -15 -146 -46 -570 -135 -302 -64
-550 -116 -551 -116 -1 0 0 11 3 25 2 15 0 25 -7 25 -6 0 -11 -4 -11 -9 0 -5
-13 -12 -29 -16 -22 -5 -30 -13 -35 -37 -3 -17 -15 -37 -26 -45 -11 -8 -20
-24 -20 -36 0 -13 -7 -33 -16 -45 -10 -15 -13 -32 -9 -52 6 -26 3 -30 -19 -36
-31 -7 -34 -34 -6 -41 20 -5 29 -33 11 -33 -16 0 13 -60 31 -66 24 -7 33 -49
19 -80 -14 -31 -4 -104 15 -111 8 -3 14 -18 14 -34 0 -17 8 -33 20 -42 16 -11
19 -21 14 -45 -9 -42 14 -51 60 -23 l34 22 7 -21 c3 -11 11 -20 16 -20 15 0
10 -67 -6 -84 -20 -19 -19 -32 3 -48 17 -12 27 -51 36 -149 1 -14 6 -31 10
-37 4 -7 1 -15 -8 -18 -23 -9 -20 -28 7 -40 16 -7 28 -6 44 4 25 15 43 9 43
-15 0 -10 6 -14 19 -10 10 2 26 0 35 -5 12 -7 27 -4 52 11 39 23 70 27 76 10
3 -9 9 -9 25 -1 29 16 33 7 33 -65 0 -54 3 -63 18 -63 10 0 31 13 46 29 26 27
66 33 66 10 0 -5 9 -9 20 -9 27 0 106 58 102 76 -4 21 4 17 37 -18 28 -31 31
-31 49 -15 24 22 33 13 25 -25 -7 -33 -8 -33 95 -12 26 5 39 1 67 -20 33 -25
35 -30 35 -86 0 -32 4 -62 10 -65 5 -3 68 23 140 58 119 58 132 62 141 46 5
-10 9 -31 9 -48 0 -17 4 -31 8 -31 23 0 55 44 68 92 18 71 18 81 -4 74 -16 -5
-19 0 -20 30 -1 20 5 46 13 57 8 12 15 34 15 50 0 15 7 30 15 33 19 8 32 93
15 104 -19 12 -31 100 -13 100 7 0 13 10 13 23 0 16 12 29 45 47 25 14 57 42
70 62 14 21 29 37 33 36 4 -1 21 4 38 11 28 13 31 18 30 62 -1 30 -8 54 -19
66 -9 11 -14 22 -11 26 3 3 8 27 10 54 3 26 11 62 19 78 7 17 18 43 24 58 11
27 34 36 46 17 9 -14 27 -1 21 15 -4 10 2 11 27 4 45 -13 118 -8 145 9 20 13
31 52 15 52 -5 0 -34 25 -66 55 -31 30 -61 55 -65 55 -5 0 -28 18 -51 39 -46
43 -48 62 -11 96 26 24 26 26 -15 75 -19 23 -35 46 -35 50 0 5 -5 21 -12 37
-13 31 -18 143 -5 143 4 0 7 -4 7 -10 0 -5 7 -10 15 -10 16 0 21 25 7 34 -5 3
-7 19 -4 36 2 18 0 30 -7 30 -6 0 -11 6 -11 14 0 9 7 12 20 9 16 -4 20 0 20
21 0 24 -3 26 -47 26 -32 0 -53 6 -67 19 -17 16 -41 21 -138 25 -70 4 -119 2
-123 -4 -3 -5 -15 -6 -28 -1 -17 6 -27 3 -44 -19z m377 -244 c0 -11 -19 -15
-25 -6 -3 5 1 10 9 10 9 0 16 -2 16 -4z"/>
<path d="M2827 3432 c-15 -15 -27 -33 -27 -40 0 -7 -5 -12 -12 -12 -6 0 -2
-10 10 -23 14 -15 19 -30 15 -45 -6 -26 4 -28 42 -8 51 27 58 63 24 120 -12
20 -22 36 -23 36 -1 0 -14 -13 -29 -28z"/>
<path d="M2776 3431 c-4 -5 -2 -12 3 -15 5 -4 12 -2 15 3 4 5 2 12 -3 15 -5 4
-12 2 -15 -3z"/>
<path d="M6320 3370 c0 -5 5 -10 10 -10 6 0 10 5 10 10 0 6 -4 10 -10 10 -5 0
-10 -4 -10 -10z"/>
<path d="M6378 3363 c-10 -2 -18 -9 -18 -14 0 -5 -9 -9 -20 -9 -24 0 -24 2 0
-54 21 -50 38 -57 59 -24 11 18 11 22 -3 30 -17 10 -22 43 -7 52 5 4 11 0 14
-6 2 -7 8 -10 12 -6 9 8 -1 39 -12 37 -4 -1 -16 -3 -25 -6z"/>
<path d="M2447 3263 c-4 -3 -7 -16 -7 -27 0 -12 -9 -26 -22 -31 -23 -11 -37
-35 -19 -35 6 0 11 7 11 15 0 14 4 14 36 0 48 -20 51 -19 57 12 9 48 -29 94
-56 66z"/>
<path d="M6338 3233 c-2 -4 -3 -14 -2 -20 1 -7 2 -17 3 -23 2 -16 18 -12 25 7
7 17 -18 52 -26 36z"/>
<path d="M2320 3195 c-10 -12 -10 -15 4 -15 11 0 16 -9 16 -26 0 -19 5 -25 17
-22 25 5 28 32 6 57 -21 25 -27 26 -43 6z"/>
<path d="M2967 3169 c-20 -23 -15 -39 14 -39 14 0 19 7 19 30 0 34 -8 36 -33
9z"/>
<path d="M250 3170 c0 -5 5 -10 10 -10 6 0 10 5 10 10 0 6 -4 10 -10 10 -5 0
-10 -4 -10 -10z"/>
<path d="M2425 3170 c-8 -13 4 -32 16 -25 12 8 12 35 0 35 -6 0 -13 -4 -16
-10z"/>
<path d="M2750 3170 c0 -5 7 -10 15 -10 8 0 15 5 15 10 0 6 -7 10 -15 10 -8 0
-15 -4 -15 -10z"/>
<path d="M327 3150 c-9 -11 -17 -24 -17 -29 0 -13 52 -61 64 -60 19 3 46 -12
46 -26 0 -13 48 -27 62 -18 14 8 9 43 -6 49 -9 3 -12 12 -9 21 5 13 2 15 -14
11 -15 -4 -33 5 -63 33 -23 22 -43 39 -44 39 -1 0 -9 -9 -19 -20z"/>
<path d="M6327 3134 c-4 -4 -7 -18 -7 -31 0 -17 6 -23 21 -23 16 0 19 4 14 23
-9 28 -19 39 -28 31z"/>
<path d="M2442 3121 c4 -13 18 -16 19 -4 0 4 -5 9 -11 12 -7 2 -11 -2 -8 -8z"/>
<path d="M2985 3110 c-3 -5 1 -10 9 -10 9 0 16 5 16 10 0 6 -4 10 -9 10 -6 0
-13 -4 -16 -10z"/>
<path d="M2920 3100 c0 -5 5 -10 10 -10 6 0 10 5 10 10 0 6 -4 10 -10 10 -5 0
-10 -4 -10 -10z"/>
<path d="M6939 3070 c-17 -16 -35 -29 -42 -27 -6 1 -13 -8 -15 -20 -2 -13 1
-23 7 -23 6 0 11 -8 11 -17 0 -33 15 -44 48 -37 26 5 34 14 48 50 14 37 15 49
4 74 -16 37 -24 38 -61 0z"/>
<path d="M3007 3073 c-13 -12 -7 -23 12 -23 26 0 35 16 15 24 -19 7 -19 7 -27
-1z"/>
<path d="M656 3033 c-3 -3 -1 -12 5 -19 7 -8 7 -14 -1 -19 -5 -3 -10 -3 -10 2
0 4 -11 8 -25 8 -17 0 -26 -6 -26 -17 -1 -10 -2 -23 -3 -30 -1 -6 5 -13 12
-15 6 -3 12 4 12 14 1 17 2 17 14 1 12 -16 14 -16 29 3 9 10 17 30 17 44 0 24
-12 39 -24 28z"/>
<path d="M4870 3030 c0 -5 7 -10 16 -10 8 0 12 5 9 10 -3 6 -10 10 -16 10 -5
0 -9 -4 -9 -10z"/>
<path d="M6322 3024 c4 -21 22 -23 26 -1 2 10 -3 17 -13 17 -10 0 -15 -6 -13
-16z"/>
<path d="M4937 2998 c-8 -28 -4 -32 23 -23 24 8 23 38 -1 43 -10 2 -19 -6 -22
-20z"/>
<path d="M6803 2984 c4 -21 -2 -40 -23 -71 -17 -25 -26 -50 -23 -61 2 -11 -2
-33 -11 -50 -18 -35 -21 -82 -6 -82 6 0 10 -6 10 -14 0 -8 6 -16 13 -19 7 -2
8 -8 3 -13 -5 -5 -15 1 -23 14 -19 28 -33 28 -33 1 0 -28 18 -59 35 -59 7 0
16 -13 20 -30 4 -16 11 -30 16 -30 6 0 9 -27 8 -65 -1 -36 1 -68 4 -72 4 -3 7
-10 7 -15 0 -5 -7 -3 -15 6 -9 8 -22 13 -29 10 -8 -3 -28 2 -44 10 -38 20 -66
12 -52 -14 6 -10 10 -28 10 -39 0 -12 5 -21 11 -21 7 0 8 -11 4 -31 -7 -31 -6
-31 24 -27 18 3 34 1 37 -4 3 -5 10 -5 16 -2 5 4 21 0 34 -7 21 -11 27 -10 40
2 19 19 8 49 -17 49 -22 0 -24 12 -8 43 11 20 13 18 35 -24 13 -24 23 -52 24
-61 0 -10 5 -18 11 -18 6 0 8 7 5 17 -6 15 -5 15 13 -1 10 -10 22 -28 25 -41
3 -12 12 -25 21 -28 22 -9 16 59 -8 80 -42 39 -84 146 -85 222 l-2 53 38 -7
c45 -8 152 -45 170 -58 8 -6 12 -5 12 4 0 8 -14 23 -30 34 -18 12 -30 29 -30
43 0 13 -6 22 -15 22 -8 0 -15 5 -15 10 0 6 -11 10 -24 10 -34 0 -23 34 19 58
33 20 46 59 42 122 -2 22 -7 25 -36 23 -20 -1 -48 -13 -71 -32 l-38 -30 3 55
c3 49 1 57 -16 61 -18 5 -18 6 1 33 25 35 26 60 3 60 -10 0 -29 3 -42 7 -22 6
-23 4 -18 -23z m65 -228 c-10 -7 -22 -25 -27 -39 -11 -28 -25 -34 -37 -16 -8
13 45 68 66 68 12 0 12 -2 -2 -13z"/>
<path d="M498 2994 c-8 -8 3 -44 13 -44 5 0 9 11 9 25 0 24 -10 32 -22 19z"/>
<path d="M6320 2970 c0 -5 5 -10 10 -10 6 0 10 5 10 10 0 6 -4 10 -10 10 -5 0
-10 -4 -10 -10z"/>
<path d="M6250 2898 c-13 -18 -25 -27 -28 -20 -5 17 -29 15 -36 -3 -3 -8 2
-19 12 -24 20 -11 8 -27 -23 -33 -12 -2 -21 -13 -23 -26 -2 -12 -10 -22 -19
-22 -8 0 -17 -8 -20 -17 -2 -10 -23 -28 -47 -40 -36 -18 -48 -20 -87 -11 -24
6 -80 11 -124 12 -44 2 -91 6 -103 10 -32 11 -66 16 -133 20 -60 3 -83 12 -74
27 10 16 -5 30 -22 20 -11 -5 -29 -3 -50 6 -45 18 -69 10 -77 -28 -4 -23 -10
-30 -22 -25 -10 4 -14 2 -11 -6 6 -19 -11 -48 -29 -48 -12 0 -14 7 -9 30 4 17
4 30 1 30 -14 0 -46 -36 -46 -52 0 -9 -9 -20 -20 -23 -11 -3 -20 -15 -20 -25
0 -11 -11 -36 -25 -56 -27 -39 -31 -59 -15 -69 6 -3 10 -14 10 -23 0 -12 -3
-13 -12 -4 -16 16 -38 15 -38 -2 0 -8 6 -21 13 -28 16 -16 16 -99 0 -113 -6
-5 -26 -37 -44 -70 -28 -52 -32 -70 -34 -137 0 -46 -6 -82 -14 -92 -7 -8 -15
-34 -19 -58 -5 -43 -23 -70 -53 -81 -18 -6 -35 -57 -22 -66 4 -3 9 -30 10 -59
0 -29 6 -66 13 -82 11 -28 12 -28 46 -14 50 21 78 19 71 -7 -3 -11 1 -36 10
-56 21 -52 24 -110 8 -157 -8 -23 -15 -52 -15 -66 0 -14 -7 -45 -16 -69 -8
-24 -13 -50 -10 -58 3 -7 1 -13 -4 -13 -6 0 -10 -5 -10 -11 0 -6 7 -9 15 -5 9
3 15 0 15 -9 0 -8 18 -20 41 -27 37 -11 43 -10 55 6 7 11 20 16 29 13 8 -4 26
-2 40 3 16 6 25 6 25 0 0 -6 7 -10 15 -10 8 0 15 9 15 20 0 11 -7 37 -15 57
-19 44 -19 73 -1 107 9 18 12 47 9 90 -5 60 -4 65 37 129 l42 67 49 -50 c27
-28 49 -59 49 -69 0 -10 7 -25 16 -32 12 -10 15 -24 10 -57 -7 -55 14 -78 79
-88 54 -8 66 -1 59 35 -7 34 10 47 66 52 25 3 35 0 35 -10 0 -20 -36 -40 -42
-23 -3 6 -8 12 -13 12 -14 0 -19 -27 -10 -66 5 -21 5 -43 0 -49 -8 -10 -13
-39 -11 -62 0 -7 10 -13 22 -13 17 0 20 -5 17 -32 -3 -32 -2 -33 40 -36 40 -3
44 -1 54 26 7 17 23 33 40 40 35 13 36 36 2 66 -23 19 -25 25 -15 44 7 13 17
19 26 16 12 -5 15 2 15 33 0 42 -23 83 -46 83 -8 0 -14 6 -14 13 0 7 11 13 26
12 30 0 50 24 41 49 -7 17 -62 23 -71 7 -9 -13 -46 -1 -46 15 0 8 -6 14 -14
14 -8 0 -17 9 -21 19 -3 10 -15 21 -27 25 l-22 5 22 19 c22 20 21 52 -1 52 -6
0 -4 6 5 13 18 14 34 57 20 57 -14 0 -92 76 -92 90 0 6 -13 31 -29 55 l-29 42
34 54 c18 30 46 63 63 74 35 25 111 114 111 132 0 24 50 27 72 5 l20 -20 -41
-7 c-58 -10 -80 -57 -46 -101 15 -19 15 -19 34 4 23 26 33 29 24 6 -4 -11 1
-22 12 -30 18 -13 18 -14 -2 -14 -24 0 -39 -28 -23 -44 8 -8 14 -6 21 6 8 14
14 15 34 6 14 -6 25 -15 25 -19 0 -4 8 -5 18 -2 10 2 28 -5 41 -16 40 -35 52
-25 29 24 -8 19 -16 24 -31 19 -53 -17 -79 -7 -70 26 3 11 0 20 -6 20 -6 0
-11 5 -11 10 0 6 8 10 18 10 45 0 60 65 17 76 -30 7 -29 3 -10 47 20 48 19 63
-6 88 -17 17 -29 20 -63 16 -23 -3 -50 -9 -59 -13 -11 -4 -19 0 -23 10 -3 8
-20 30 -37 49 -18 18 -56 61 -85 94 l-53 61 53 11 c29 5 86 10 127 10 61 0 76
-3 90 -20 20 -24 75 -31 156 -18 105 17 121 26 144 74 11 25 32 52 45 60 14 9
33 36 43 60 10 24 26 46 35 49 19 4 26 46 8 46 -5 0 -10 13 -10 29 0 47 -23
56 -50 19z m-858 -300 c15 -12 15 -27 1 -190 -16 -172 -17 -175 -32 -145 -9
18 -26 34 -41 37 -34 8 -61 59 -63 122 -2 41 5 66 27 111 34 70 72 92 108 65z
m-52 -778 c0 -45 -15 -52 -32 -15 -10 21 -8 28 8 40 10 8 20 15 22 15 1 0 2
-18 2 -40z m217 -252 c-3 -8 -6 -5 -6 6 -1 11 2 17 5 13 3 -3 4 -12 1 -19z"/>
<path d="M870 2875 c0 -8 9 -19 19 -25 27 -14 40 9 16 27 -24 17 -35 17 -35
-2z"/>
<path d="M645 2840 c-3 -5 -15 -10 -25 -10 -30 0 -33 -18 -6 -45 30 -30 42
-65 27 -75 -13 -7 -4 -40 10 -40 5 0 12 7 16 15 5 14 8 14 24 -1 11 -9 19 -26
19 -36 0 -18 37 -40 52 -32 4 3 10 28 13 57 6 51 5 55 -27 89 -18 19 -43 47
-55 61 -23 28 -38 34 -48 17z"/>
<path d="M1845 2830 c-3 -5 -1 -10 4 -10 6 0 11 5 11 10 0 6 -2 10 -4 10 -3 0
-8 -4 -11 -10z"/>
<path d="M1880 2789 c0 -5 5 -7 10 -4 6 3 10 8 10 11 0 2 -4 4 -10 4 -5 0 -10
-5 -10 -11z"/>
<path d="M2680 2744 c0 -8 5 -14 11 -14 5 0 7 -5 4 -10 -3 -6 1 -17 9 -25 13
-14 16 -13 26 5 8 16 8 25 0 35 -16 19 -50 26 -50 9z"/>
<path d="M7517 2744 c-4 -4 -7 -14 -7 -23 0 -11 3 -12 11 -4 6 6 10 16 7 23
-2 6 -7 8 -11 4z"/>
<path d="M6472 2721 c4 -13 18 -16 19 -4 0 4 -5 9 -11 12 -7 2 -11 -2 -8 -8z"/>
<path d="M2600 2640 c0 -5 5 -10 10 -10 6 0 10 5 10 10 0 6 -4 10 -10 10 -5 0
-10 -4 -10 -10z"/>
<path d="M7022 2614 c1 -9 9 -19 16 -22 9 -3 13 2 10 14 -1 9 -9 19 -16 22 -9
3 -13 -2 -10 -14z"/>
<path d="M2064 2585 c-3 -19 -10 -35 -15 -35 -17 0 -9 -29 10 -35 33 -10 42
-29 28 -58 -8 -17 -20 -27 -34 -27 -29 0 -29 -12 -1 -53 13 -18 24 -33 25 -35
1 -2 10 1 21 7 26 14 37 48 23 65 -15 18 13 30 39 16 27 -15 50 -12 50 5 0 8
-4 15 -10 15 -5 0 -10 9 -10 21 0 22 -22 49 -39 49 -13 0 -31 33 -31 55 0 18
-23 45 -39 45 -5 0 -13 -16 -17 -35z"/>
<path d="M6726 2594 c-10 -27 -7 -44 9 -44 10 0 15 10 15 30 0 32 -14 40 -24
14z"/>
<path d="M7470 2580 c0 -5 5 -10 10 -10 6 0 10 5 10 10 0 6 -4 10 -10 10 -5 0
-10 -4 -10 -10z"/>
<path d="M7243 2556 c9 -7 17 -18 17 -25 0 -6 9 -11 19 -11 11 0 26 -3 35 -6
9 -3 16 -2 16 3 0 5 -16 15 -35 22 -19 7 -35 17 -35 22 0 5 -8 9 -17 9 -17 -1
-17 -1 0 -14z"/>
<path d="M2810 2550 c0 -5 5 -10 10 -10 6 0 10 5 10 10 0 6 -4 10 -10 10 -5 0
-10 -4 -10 -10z"/>
<path d="M882 2528 c3 -7 23 -14 46 -16 34 -3 41 0 36 12 -8 20 -88 23 -82 4z"/>
<path d="M2645 2530 c-3 -5 1 -10 9 -10 9 0 16 5 16 10 0 6 -4 10 -9 10 -6 0
-13 -4 -16 -10z"/>
<path d="M2926 2531 c-4 -5 -2 -12 3 -15 5 -4 12 -2 15 3 4 5 2 12 -3 15 -5 4
-12 2 -15 -3z"/>
<path d="M6670 2530 c0 -5 5 -10 10 -10 6 0 10 5 10 10 0 6 -4 10 -10 10 -5 0
-10 -4 -10 -10z"/>
<path d="M6730 2499 c0 -36 2 -40 15 -29 8 7 15 25 15 41 0 19 -5 29 -15 29
-11 0 -15 -11 -15 -41z"/>
<path d="M7116 2512 c-6 -9 48 -72 61 -72 13 0 31 47 23 60 -5 8 -12 7 -24 -5
-9 -9 -16 -13 -16 -8 0 12 -38 34 -44 25z"/>
<path d="M836 2495 c-22 -22 -20 -35 5 -35 18 0 21 -4 16 -27 -3 -16 -9 -36
-12 -45 -5 -13 0 -21 19 -29 14 -7 28 -10 31 -8 4 5 6 65 4 122 -1 15 -5 27
-9 27 -5 0 -15 3 -23 6 -8 3 -22 -2 -31 -11z"/>
<path d="M7284 2496 c-4 -11 -2 -21 6 -26 7 -4 10 -17 7 -29 -6 -24 11 -40 23
-21 13 21 42 4 35 -20 -4 -12 0 -26 9 -35 19 -20 33 -19 45 3 11 21 85 47 103
36 15 -10 37 23 31 46 -3 11 -24 28 -47 39 -35 16 -50 18 -104 10 -35 -5 -68
-11 -72 -14 -5 -3 -13 3 -19 12 -9 17 -10 17 -17 -1z"/>
<path d="M750 2475 c0 -8 5 -15 10 -15 6 0 10 7 10 15 0 8 -4 15 -10 15 -5 0
-10 -7 -10 -15z"/>
<path d="M6697 2483 c-12 -11 -8 -23 8 -23 8 0 15 7 15 15 0 16 -12 20 -23 8z"/>
<path d="M7715 2413 c-16 -9 -43 -29 -60 -44 -20 -19 -41 -29 -62 -29 -43 0
-83 -19 -83 -41 0 -15 -3 -16 -25 -6 -14 7 -25 17 -25 22 0 6 -12 15 -28 21
-21 8 -34 7 -57 -6 -39 -22 -46 -50 -12 -50 20 0 28 -7 37 -36 7 -19 20 -40
31 -47 10 -6 19 -17 19 -24 0 -7 10 -14 23 -14 88 -5 112 -9 138 -19 19 -8 31
-22 35 -39 10 -48 33 -89 53 -96 12 -3 21 -11 21 -17 0 -6 13 -8 34 -4 19 4
37 2 41 -3 3 -6 25 -8 53 -4 63 9 180 9 189 -1 15 -15 -23 -24 -83 -19 -66 5
-78 0 -115 -57 -16 -23 -18 -24 -35 -9 -12 11 -33 16 -59 14 -68 -4 -85 -13
-85 -46 0 -25 4 -29 29 -29 39 0 61 -9 61 -25 0 -7 11 -20 25 -29 17 -11 24
-23 21 -34 -8 -24 9 -46 28 -39 9 4 16 2 16 -3 0 -6 -7 -10 -15 -10 -13 0 -15
-8 -9 -37 11 -64 30 -85 72 -81 28 2 41 -2 53 -17 9 -11 30 -21 45 -22 l29 -2
-30 24 c-16 14 -24 25 -17 25 6 0 12 5 12 11 0 6 -7 9 -14 6 -10 -4 -13 -1 -9
9 3 7 9 14 13 14 5 0 6 9 3 20 -5 20 12 50 28 50 5 0 9 -6 9 -14 0 -8 9 -18
20 -21 11 -3 20 -13 20 -21 0 -8 6 -14 14 -14 7 0 19 -7 26 -15 8 -10 30 -15
61 -15 28 0 49 -5 49 -11 0 -14 16 -28 65 -60 30 -20 59 -28 119 -33 54 -5 88
-13 107 -27 15 -10 34 -19 42 -19 8 0 35 -11 60 -25 24 -14 69 -32 98 -41 92
-27 199 -102 199 -139 0 -13 7 -28 16 -36 21 -17 54 -83 54 -108 0 -11 11 -32
24 -48 23 -28 26 -51 11 -87 -6 -13 -3 -23 7 -30 8 -6 15 -26 15 -43 0 -28 -4
-33 -24 -33 -38 0 -99 -37 -120 -72 -20 -36 -73 -155 -73 -166 0 -4 63 -7 140
-7 108 -1 140 2 140 12 0 7 9 22 21 34 16 16 23 18 35 9 7 -7 26 -10 41 -7 91
20 83 22 153 -47 36 -35 79 -82 95 -104 17 -22 40 -45 53 -51 l22 -11 0 255
c0 176 -4 261 -12 274 -8 14 -8 29 0 64 8 31 12 182 12 466 l0 421 -25 0 c-15
0 -25 6 -25 14 0 14 -77 39 -93 29 -4 -3 -14 2 -20 12 -10 13 -18 14 -41 6
-24 -10 -37 -6 -109 33 -45 24 -93 47 -105 51 -13 4 -33 16 -43 26 -10 10 -26
19 -34 19 -17 0 -123 49 -130 61 -8 12 -58 -6 -125 -45 -41 -24 -66 -33 -74
-27 -15 12 -129 32 -264 46 -47 5 -53 3 -50 -12 2 -9 17 -20 36 -25 17 -5 32
-13 32 -19 0 -6 7 -9 15 -5 8 3 31 -2 52 -11 45 -20 49 -18 -141 -38 -187 -19
-183 -19 -189 6 -7 25 -27 16 -27 -12 0 -10 -5 -19 -11 -19 -12 0 -8 46 6 83
5 12 2 17 -9 17 -17 0 -22 15 -7 24 21 13 21 69 0 103 -17 27 -19 36 -8 49 10
12 8 18 -9 34 -16 15 -35 20 -81 20 -46 0 -65 5 -83 21 -32 29 -127 68 -163
68 -16 0 -43 -7 -60 -16z m945 -343 c-34 -11 -60 -11 -35 0 11 5 29 8 40 8 16
0 15 -2 -5 -8z"/>
<path d="M7234 2406 c-8 -22 3 -33 18 -18 9 9 9 15 0 24 -9 9 -13 7 -18 -6z"/>
<path d="M6925 2380 c-3 -5 1 -10 10 -10 9 0 13 5 10 10 -3 6 -8 10 -10 10 -2
0 -7 -4 -10 -10z"/>
<path d="M7310 2365 c0 -9 -7 -18 -15 -21 -20 -8 -19 -24 1 -24 23 0 45 26 38
44 -8 20 -24 21 -24 1z"/>
<path d="M8346 2344 c12 -32 36 -54 60 -54 18 0 25 -8 32 -32 6 -24 15 -34 33
-36 13 -2 29 -8 36 -14 7 -5 17 -7 23 -3 6 4 17 2 25 -5 9 -8 15 -8 20 0 5 8
11 8 21 -1 11 -9 14 -7 14 15 0 23 -3 26 -20 21 -14 -4 -20 -2 -20 8 0 8 -13
20 -30 26 -16 5 -30 15 -30 22 0 14 -49 53 -70 55 -8 1 -34 5 -58 9 -39 7 -42
6 -36 -11z"/>
<path d="M929 2293 c-10 -2 -20 -19 -23 -38 -6 -28 -1 -45 21 -82 34 -60 83
-108 93 -93 5 8 9 7 13 -4 4 -9 11 -16 17 -16 21 0 9 65 -24 134 -19 39 -37
79 -40 89 -5 16 -23 20 -57 10z"/>
<path d="M8241 2287 c-15 -15 -14 -32 5 -47 12 -11 18 -11 30 2 16 16 10 43
-11 51 -7 3 -18 0 -24 -6z"/>
<path d="M6733 2231 c3 -14 -1 -24 -11 -30 -14 -8 -15 -13 -4 -30 6 -12 12
-26 12 -33 0 -7 12 -26 26 -42 24 -27 39 -28 39 -3 0 8 19 12 50 12 44 0 50 3
53 22 2 16 -7 28 -42 48 -25 15 -46 33 -46 40 0 8 -10 17 -22 20 -63 18 -61
18 -55 -4z m37 -31 c0 -5 -5 -10 -11 -10 -5 0 -7 5 -4 10 3 6 8 10 11 10 2 0
4 -4 4 -10z"/>
<path d="M7120 2236 c0 -10 9 -16 25 -16 14 0 25 5 25 10 0 6 -4 10 -9 10 -5
0 -16 3 -25 6 -11 4 -16 1 -16 -10z"/>
<path d="M7197 2243 c-11 -10 -8 -43 3 -43 6 0 10 4 10 10 0 5 7 7 15 4 18 -7
47 14 39 27 -6 10 -58 12 -67 2z"/>
<path d="M3043 2225 c-15 -16 -17 -35 -5 -35 10 0 42 33 42 43 0 12 -25 7 -37
-8z"/>
<path d="M8290 2160 c0 -5 9 -10 20 -10 11 0 23 0 27 -1 4 0 9 4 11 10 2 6
-10 11 -27 11 -17 0 -31 -4 -31 -10z"/>
<path d="M2970 2146 c0 -8 -8 -19 -17 -25 -33 -18 -3 -25 33 -8 38 19 41 40 6
45 -14 2 -22 -2 -22 -12z"/>
<path d="M6915 2140 c-4 -6 -3 -16 3 -22 6 -6 12 -6 17 2 4 6 3 16 -3 22 -6 6
-12 6 -17 -2z"/>
<path d="M9020 2141 c0 -11 29 -35 35 -29 10 9 -7 38 -21 38 -8 0 -14 -4 -14
-9z"/>
<path d="M6125 2127 c-10 -8 -25 -13 -31 -10 -7 2 -15 -1 -19 -7 -4 -7 2 -14
14 -17 15 -4 21 -13 21 -34 0 -33 9 -35 72 -15 24 7 52 14 63 14 11 1 35 3 53
6 17 2 32 0 32 -6 0 -5 18 -7 43 -3 l42 7 12 -52 c7 -29 18 -59 24 -66 19 -24
32 -16 25 16 -3 17 -9 44 -12 61 -8 37 1 45 64 54 68 10 37 25 -54 26 -43 1
-101 6 -129 11 -27 6 -61 11 -75 13 -14 1 -47 6 -75 10 -37 5 -55 3 -70 -8z"/>
<path d="M7273 2111 c-36 -12 -56 -14 -63 -7 -7 7 -14 6 -21 -1 -25 -25 52
-68 131 -74 45 -4 45 -4 43 26 -4 49 -13 75 -26 75 -6 -1 -35 -9 -64 -19z"/>
<path d="M6040 2086 c0 -9 7 -16 16 -16 17 0 14 22 -4 28 -7 2 -12 -3 -12 -12z"/>
<path d="M1097 2063 c-26 -25 10 -100 52 -108 29 -5 27 14 -6 70 -28 45 -34
51 -46 38z"/>
<path d="M5930 2020 c0 -5 5 -10 10 -10 6 0 10 5 10 10 0 6 -4 10 -10 10 -5 0
-10 -4 -10 -10z"/>
<path d="M5870 2010 c0 -5 5 -10 10 -10 6 0 10 5 10 10 0 6 -4 10 -10 10 -5 0
-10 -4 -10 -10z"/>
<path d="M7305 2010 c-7 -12 -7 -12 21 -15 12 -1 33 -5 48 -9 15 -4 26 -2 26
4 0 5 -12 12 -27 16 -16 3 -35 8 -45 10 -9 3 -19 0 -23 -6z"/>
<path d="M1180 1904 c0 -38 4 -47 21 -51 12 -4 18 -11 15 -20 -3 -7 3 -21 14
-30 11 -10 20 -25 20 -34 0 -22 32 -30 54 -14 16 12 16 15 -2 52 -11 21 -29
47 -41 57 -12 11 -21 24 -21 31 0 12 -41 55 -53 55 -4 0 -7 -21 -7 -46z"/>
<path d="M2755 1931 c-11 -4 -22 -19 -25 -32 -4 -15 -13 -24 -25 -24 -27 0
-30 -26 -6 -52 13 -13 18 -29 14 -42 -5 -20 -3 -21 23 -15 16 4 37 11 47 16
12 6 17 5 17 -7 0 -44 71 12 76 61 5 42 -13 71 -58 88 -21 9 -39 16 -41 15 -1
0 -11 -4 -22 -8z"/>
<path d="M7580 1904 c0 -9 5 -14 12 -12 18 6 21 28 4 28 -9 0 -16 -7 -16 -16z"/>
<path d="M7057 1874 c-3 -3 -40 -6 -82 -7 -46 0 -81 -5 -88 -12 -6 -6 -21 -10
-33 -7 -25 4 -42 -27 -22 -40 10 -5 8 -8 -5 -8 -27 0 -77 -29 -77 -44 0 -20
38 -27 49 -9 12 22 36 11 37 -18 3 -86 3 -89 27 -89 12 1 40 9 62 20 46 22 81
25 88 8 2 -7 8 -10 12 -6 5 5 3 20 -4 34 -12 27 -7 64 10 64 5 0 9 -4 9 -10 0
-5 8 -10 18 -10 9 0 37 -7 61 -16 47 -16 71 -13 71 9 0 21 47 9 77 -19 14 -13
31 -24 37 -24 6 0 36 -16 66 -35 53 -35 113 -49 93 -22 -6 6 -13 30 -16 52
-11 73 -14 80 -31 77 -9 -2 -16 4 -16 13 0 9 -12 27 -27 41 -22 18 -35 23 -59
19 -23 -4 -46 2 -79 20 -55 29 -87 32 -105 10 -7 -8 -18 -15 -25 -15 -7 0 -15
7 -19 15 -6 16 -18 19 -29 9z m-134 -127 c15 -23 14 -24 -20 -36 -43 -16 -49
-10 -32 28 17 37 31 39 52 8z"/>
<path d="M2610 1855 c0 -8 7 -15 15 -15 8 0 15 7 15 15 0 8 -7 15 -15 15 -8 0
-15 -7 -15 -15z"/>
<path d="M2650 1830 c0 -5 5 -10 10 -10 6 0 10 5 10 10 0 6 -4 10 -10 10 -5 0
-10 -4 -10 -10z"/>
<path d="M6517 1809 c-9 -5 -21 -8 -26 -5 -5 4 -16 3 -25 0 -21 -8 -21 -67 -1
-88 8 -8 15 -19 15 -25 0 -6 5 -11 11 -11 6 0 23 -9 38 -19 47 -34 74 -35 135
-6 52 25 56 29 56 61 0 24 -5 34 -15 34 -8 0 -15 8 -15 18 0 38 -127 68 -173
41z"/>
<path d="M2880 1765 c0 -8 5 -15 10 -15 6 0 10 7 10 15 0 8 -4 15 -10 15 -5 0
-10 -7 -10 -15z"/>
<path d="M5852 1704 c2 -11 11 -20 22 -22 13 -3 17 1 14 14 -2 11 -11 20 -22
22 -13 3 -17 -1 -14 -14z"/>
<path d="M6680 1636 c0 -15 24 -28 34 -19 13 14 5 33 -14 33 -11 0 -20 -6 -20
-14z"/>
<path d="M7539 1603 c0 -11 -3 -13 -6 -5 -5 13 -33 17 -33 4 0 -5 11 -19 24
-31 l24 -23 12 22 c12 23 7 50 -10 50 -5 0 -10 -8 -11 -17z"/>
<path d="M1390 1600 c0 -5 5 -10 10 -10 6 0 10 5 10 10 0 6 -4 10 -10 10 -5 0
-10 -4 -10 -10z"/>
<path d="M7580 1512 c0 -19 12 -42 22 -42 14 0 5 43 -9 48 -7 2 -13 -1 -13 -6z"/>
<path d="M7235 1490 c-7 -12 2 -30 16 -30 5 0 9 9 9 20 0 21 -15 27 -25 10z"/>
<path d="M4375 1430 c5 -14 2 -20 -9 -20 -9 0 -16 -7 -16 -15 0 -20 10 -18 38
4 26 23 28 37 6 45 -24 9 -26 8 -19 -14z"/>
<path d="M7610 1435 c0 -8 5 -15 10 -15 6 0 10 7 10 15 0 8 -4 15 -10 15 -5 0
-10 -7 -10 -15z"/>
<path d="M4140 1355 c0 -8 5 -15 10 -15 6 0 10 7 10 15 0 8 -4 15 -10 15 -5 0
-10 -7 -10 -15z"/>
<path d="M4640 1360 c0 -5 5 -10 11 -10 5 0 7 5 4 10 -3 6 -8 10 -11 10 -2 0
-4 -4 -4 -10z"/>
<path d="M5605 1341 c-10 -46 26 -98 58 -85 30 11 -1 114 -34 114 -11 0 -20
-11 -24 -29z"/>
<path d="M4805 1338 c-7 -18 10 -58 25 -58 13 0 13 1 -4 41 -11 27 -16 30 -21
17z"/>
<path d="M4760 1330 c0 -5 5 -10 10 -10 6 0 10 5 10 10 0 6 -4 10 -10 10 -5 0
-10 -4 -10 -10z"/>
<path d="M5947 1323 c-15 -14 -5 -31 33 -62 43 -34 68 -34 50 0 -6 10 -17 19
-24 19 -8 0 -17 11 -20 25 -6 24 -25 33 -39 18z"/>
<path d="M1615 1309 c-8 -13 28 -49 49 -49 26 0 30 23 6 42 -25 20 -46 23 -55
7z"/>
<path d="M7880 1284 c-7 -20 -18 -48 -26 -62 l-14 -27 0 37 c0 20 -4 39 -9 42
-15 10 -43 -31 -36 -53 5 -15 2 -21 -9 -21 -9 0 -16 -8 -16 -19 0 -11 -6 -21
-12 -24 -7 -2 -10 -8 -5 -13 4 -4 15 3 24 15 8 13 18 19 22 15 3 -5 16 -15 29
-22 21 -11 23 -10 39 25 10 21 23 45 29 53 7 8 15 32 19 53 10 51 -19 52 -35
1z"/>
<path d="M6110 1300 c0 -5 5 -10 10 -10 6 0 10 5 10 10 0 6 -4 10 -10 10 -5 0
-10 -4 -10 -10z"/>
<path d="M7660 1294 c0 -8 5 -12 10 -9 6 3 10 10 10 16 0 5 -4 9 -10 9 -5 0
-10 -7 -10 -16z"/>
<path d="M8166 1280 c-8 -20 -16 -28 -20 -21 -14 21 -24 11 -31 -31 -5 -28 -4
-43 4 -46 17 -6 13 -19 -7 -24 -16 -5 -20 -19 -25 -99 -6 -94 0 -119 29 -119
8 0 23 9 33 19 21 21 38 16 20 -6 -9 -10 -7 -13 7 -13 29 0 38 10 66 76 24 57
29 122 7 108 -5 -3 -8 19 -7 48 2 55 -25 128 -50 136 -7 2 -18 -11 -26 -28z"/>
<path d="M4110 1281 c0 -5 -3 -16 -6 -25 -4 -11 -1 -16 10 -16 18 0 22 35 6
45 -5 3 -10 2 -10 -4z"/>
<path d="M7727 1263 c-4 -3 -7 -14 -7 -24 0 -9 -6 -19 -12 -22 -7 -2 -10 -8
-6 -12 9 -10 61 43 53 55 -7 12 -19 13 -28 3z"/>
<path d="M7665 1240 c3 -5 8 -10 11 -10 2 0 4 5 4 10 0 6 -5 10 -11 10 -5 0
-7 -4 -4 -10z"/>
<path d="M3260 1204 c0 -8 5 -12 10 -9 6 3 10 10 10 16 0 5 -4 9 -10 9 -5 0
-10 -7 -10 -16z"/>
<path d="M3737 1213 c-16 -15 -6 -33 18 -33 18 0 25 5 25 20 0 20 -28 28 -43
13z"/>
<path d="M5326 1193 c-10 -45 -2 -153 10 -153 15 0 24 34 24 90 0 81 -22 120
-34 63z"/>
<path d="M6020 1212 c0 -21 33 -72 46 -72 18 0 18 11 0 35 -8 11 -12 25 -9 32
3 8 -3 13 -16 13 -12 0 -21 -4 -21 -8z"/>
<path d="M2450 1200 c0 -5 7 -10 16 -10 8 0 12 5 9 10 -3 6 -10 10 -16 10 -5
0 -9 -4 -9 -10z"/>
<path d="M3300 1190 c0 -11 5 -20 10 -20 6 0 10 9 10 20 0 11 -4 20 -10 20 -5
0 -10 -9 -10 -20z"/>
<path d="M2275 1140 c-8 -13 3 -30 21 -30 18 0 18 14 0 29 -10 8 -16 9 -21 1z"/>
<path d="M6165 1131 c-3 -5 -1 -12 5 -16 5 -3 10 1 10 9 0 18 -6 21 -15 7z"/>
<path d="M5780 1111 c0 -6 5 -13 10 -16 6 -3 10 1 10 9 0 9 -4 16 -10 16 -5 0
-10 -4 -10 -9z"/>
<path d="M7260 1080 c0 -5 5 -10 10 -10 6 0 10 5 10 10 0 6 -4 10 -10 10 -5 0
-10 -4 -10 -10z"/>
<path d="M5000 1020 c0 -5 5 -10 10 -10 6 0 10 5 10 10 0 6 -4 10 -10 10 -5 0
-10 -4 -10 -10z"/>
<path d="M5320 1010 c0 -11 5 -20 10 -20 6 0 10 9 10 20 0 11 -4 20 -10 20 -5
0 -10 -9 -10 -20z"/>
<path d="M7570 984 c-12 -31 -13 -44 -2 -44 11 0 43 56 35 64 -12 12 -24 6
-33 -20z"/>
<path d="M7156 985 c-3 -9 0 -15 9 -15 8 0 15 7 15 15 0 8 -4 15 -9 15 -5 0
-11 -7 -15 -15z"/>
<path d="M5390 965 c0 -8 7 -15 15 -15 8 0 15 7 15 15 0 8 -7 15 -15 15 -8 0
-15 -7 -15 -15z"/>
<path d="M4267 956 c-7 -18 12 -36 40 -36 27 0 73 -20 73 -32 0 -4 9 -8 20 -8
11 0 20 2 20 5 0 2 -19 22 -42 44 -45 42 -100 56 -111 27z"/>
<path d="M5050 960 c0 -5 5 -10 10 -10 6 0 10 5 10 10 0 6 -4 10 -10 10 -5 0
-10 -4 -10 -10z"/>
<path d="M4380 940 c0 -5 12 -10 26 -10 14 0 23 4 19 10 -3 6 -15 10 -26 10
-10 0 -19 -4 -19 -10z"/>
<path d="M4470 940 c0 -5 5 -10 10 -10 6 0 10 5 10 10 0 6 -4 10 -10 10 -5 0
-10 -4 -10 -10z"/>
<path d="M2310 931 c0 -6 5 -13 10 -16 6 -3 10 1 10 9 0 9 -4 16 -10 16 -5 0
-10 -4 -10 -9z"/>
<path d="M4110 930 c0 -5 7 -10 15 -10 8 0 15 5 15 10 0 6 -7 10 -15 10 -8 0
-15 -4 -15 -10z"/>
<path d="M7652 924 c-7 -13 -19 -16 -55 -12 -44 5 -46 4 -52 -23 -4 -17 -11
-26 -19 -23 -8 3 -16 -2 -19 -10 -4 -9 -14 -16 -24 -16 -24 -1 -57 -26 -49
-38 3 -6 16 -8 29 -5 19 4 20 3 5 -7 -22 -13 -24 -40 -3 -40 22 0 20 -57 -3
-64 -10 -3 -26 -19 -35 -36 -17 -27 -17 -30 -2 -30 17 0 77 38 83 52 2 4 10 8
17 8 8 0 17 9 20 21 4 11 20 36 37 54 20 24 30 46 31 72 2 44 13 56 39 42 10
-5 18 -8 19 -7 1 2 3 20 4 41 4 39 -7 49 -23 21z"/>
<path d="M5355 920 c-10 -16 4 -30 31 -30 27 0 33 24 8 34 -22 8 -32 8 -39 -4z"/>
<path d="M6969 918 c-7 -17 -6 -79 2 -83 5 -4 9 -1 9 6 0 7 7 20 16 30 19 21
12 49 -11 49 -8 0 -15 -1 -16 -2z"/>
<path d="M8160 910 c0 -5 7 -10 15 -10 8 0 15 5 15 10 0 6 -7 10 -15 10 -8 0
-15 -4 -15 -10z"/>
<path d="M5395 870 c-3 -5 2 -13 12 -16 10 -3 29 -10 42 -15 27 -11 53 4 36
20 -16 14 -83 23 -90 11z"/>
<path d="M5588 845 c-3 -23 0 -35 8 -35 16 0 26 32 18 54 -10 26 -22 18 -26
-19z"/>
<path d="M4670 818 c0 -4 3 -9 8 -9 31 -6 53 -5 57 1 3 4 -11 10 -30 12 -19 2
-35 0 -35 -4z"/>
<path d="M6710 812 c0 -5 6 -17 14 -28 11 -14 17 -16 27 -7 6 6 18 9 25 6 8
-3 14 1 14 10 0 14 -28 27 -62 27 -10 0 -18 -4 -18 -8z"/>
<path d="M7190 805 c0 -8 7 -15 15 -15 8 0 15 4 15 9 0 5 -7 11 -15 15 -9 3
-15 0 -15 -9z"/>
<path d="M6542 794 c-14 -9 -38 -14 -63 -12 -35 3 -42 0 -57 -27 -9 -16 -21
-33 -26 -36 -5 -4 -6 -14 -3 -22 3 -9 -1 -17 -14 -20 -24 -7 -36 -36 -18 -47
17 -11 29 -3 29 19 0 10 15 30 34 45 31 23 39 25 82 17 44 -8 49 -7 67 15 10
13 27 24 38 24 29 0 23 33 -8 48 -34 15 -34 15 -61 -4z"/>
<path d="M7256 771 c-4 -6 3 -15 14 -21 23 -12 27 2 6 19 -9 8 -16 8 -20 2z"/>
<path d="M5960 750 c0 -5 5 -10 10 -10 6 0 10 5 10 10 0 6 -4 10 -10 10 -5 0
-10 -4 -10 -10z"/>
<path d="M7173 753 c-20 -7 -15 -33 10 -54 28 -23 36 -23 53 -1 17 22 17 27
-2 46 -15 16 -37 19 -61 9z"/>
<path d="M6687 704 c-14 -14 -7 -35 11 -32 9 2 17 10 17 17 0 16 -18 25 -28
15z"/>
<path d="M5807 685 c-10 -9 -15 -25 -12 -34 4 -13 -3 -20 -30 -28 -20 -7 -37
-7 -41 -2 -3 5 -12 9 -20 9 -13 0 -13 -3 0 -22 32 -45 7 -54 -29 -12 -16 18
-27 24 -36 18 -8 -5 -26 -9 -41 -10 -14 0 -33 -6 -41 -12 -11 -9 -23 -7 -58
11 -24 12 -45 25 -47 30 -2 4 -17 7 -32 7 -16 0 -31 4 -34 9 -10 16 -146 -4
-146 -21 0 -5 -9 -6 -21 -3 -18 6 -20 4 -14 -14 6 -20 5 -20 -36 -6 -53 19
-79 19 -79 0 0 -8 5 -15 10 -15 6 0 10 -13 10 -29 0 -16 6 -31 15 -35 8 -3 15
0 15 6 0 7 7 5 18 -4 25 -22 69 -30 94 -17 17 9 23 8 30 -4 7 -14 11 -14 37
-1 20 10 36 12 48 6 43 -22 84 -29 122 -22 22 4 53 6 68 4 14 -1 49 6 77 17
28 10 64 19 80 19 33 0 128 31 138 44 4 6 20 6 41 -1 42 -13 87 -6 87 13 0 19
40 18 68 -2 14 -9 30 -13 40 -8 9 4 58 14 107 24 89 16 90 16 90 46 l0 29 -93
-1 c-64 0 -96 -5 -102 -13 -5 -9 -10 -10 -14 -3 -4 6 -29 9 -64 6 -134 -12
-146 -11 -167 14 -20 23 -22 24 -38 7z"/>
<path d="M4743 683 c-47 -5 -50 -7 -28 -29 23 -23 9 -45 -22 -33 -16 6 -38 6
-60 0 -30 -9 -36 -7 -40 8 -3 11 -17 21 -31 24 -15 3 -34 8 -43 12 -11 4 -30
-5 -53 -25 -30 -26 -34 -36 -29 -61 5 -25 2 -29 -15 -29 -54 0 -28 -50 30 -57
90 -11 112 -8 106 15 -3 11 1 30 8 43 13 22 14 21 12 -28 -1 -29 2 -56 6 -60
12 -13 142 -6 168 9 12 7 32 13 43 14 30 1 78 15 93 27 9 7 16 7 20 0 11 -15
117 -10 137 7 10 8 20 14 22 12 2 -1 10 1 19 6 17 10 9 42 -11 42 -22 0 -28
50 -9 65 9 6 14 17 10 23 -10 17 -27 15 -41 -4 -11 -15 -31 -18 -90 -13 -11 1
-28 -1 -37 -6 -13 -5 -20 -1 -28 19 -10 28 -21 29 -137 19z m105 -99 c31 -14
14 -18 -20 -5 -31 12 -69 46 -61 55 4 3 17 -4 30 -16 13 -12 36 -28 51 -34z"/>
<path d="M5660 680 c0 -5 5 -10 10 -10 6 0 10 5 10 10 0 6 -4 10 -10 10 -5 0
-10 -4 -10 -10z"/>
<path d="M6798 680 c-30 -18 -22 -39 15 -39 17 0 49 -3 70 -6 30 -6 37 -4 37
9 0 29 -90 55 -122 36z"/>
<path d="M7230 675 c-7 -9 -10 -18 -7 -22 8 -7 37 15 37 28 0 14 -16 11 -30
-6z"/>
<path d="M6994 668 c-6 -9 38 -28 67 -28 12 0 19 5 17 12 -5 15 -76 29 -84 16z"/>
<path d="M5575 639 c-10 -15 1 -23 20 -15 9 3 13 10 10 16 -8 13 -22 13 -30
-1z"/>
<path d="M6625 627 c-11 -6 -38 -12 -60 -14 -80 -7 -191 -22 -242 -33 -39 -9
-53 -16 -53 -29 0 -24 -92 -101 -122 -101 -26 -1 -104 -42 -135 -72 -38 -37
-65 -124 -42 -139 10 -6 5 -9 -17 -9 -23 0 -34 -7 -45 -27 -12 -22 -12 -27 0
-31 24 -8 -59 -72 -101 -78 -36 -6 -56 -34 -24 -34 7 0 20 -10 28 -22 l14 -22
22 22 c12 12 28 22 35 22 20 0 58 47 61 77 3 25 7 28 38 25 23 -2 45 5 71 22
21 15 50 26 65 26 19 0 42 16 84 61 32 33 58 66 58 72 1 19 75 65 142 88 35
11 68 25 75 31 7 5 27 12 45 15 18 3 41 13 51 24 10 10 25 19 35 19 23 1 51
18 97 59 36 31 37 34 19 44 -27 16 -75 18 -99 4z"/>
<path d="M5217 413 c-4 -4 -30 -6 -57 -4 -102 4 -159 -30 -129 -78 13 -20 82
-43 104 -34 27 10 138 -88 128 -114 -3 -7 2 -13 11 -13 9 0 16 5 16 11 0 7 10
9 24 5 42 -10 106 24 106 56 0 8 -18 35 -41 60 -29 33 -45 44 -60 41 -14 -4
-19 0 -19 16 0 11 -6 21 -13 21 -8 0 -22 9 -32 20 -19 21 -28 24 -38 13z"/>
<path d="M5606 155 c-3 -9 -19 -18 -36 -21 -49 -10 -38 -33 13 -27 45 6 84 34
73 52 -10 16 -43 13 -50 -4z"/>
</g>
</svg>
