<?xml version="1.0" standalone="no"?>
<!DOCTYPE svg PUBLIC "-//W3C//DTD SVG 20010904//EN"
 "http://www.w3.org/TR/2001/REC-SVG-20010904/DTD/svg10.dtd">
<svg version="1.0" xmlns="http://www.w3.org/2000/svg"
 width="676.000000pt" height="536.000000pt" viewBox="0 0 676.000000 536.000000"
 preserveAspectRatio="xMidYMid meet">
<metadata>
Created by potrace 1.16, written by Peter Selinger 2001-2019
</metadata>
<g transform="translate(0.000000,536.000000) scale(0.100000,-0.100000)"
fill="#000000" stroke="none">
<path d="M1279 5183 c-126 -97 -158 -125 -170 -155 -7 -16 -19 -28 -30 -28
-11 0 -36 -24 -61 -57 -53 -71 -54 -72 -92 -66 -17 2 -46 -2 -64 -10 -28 -12
-47 -12 -125 -1 -51 7 -98 13 -104 14 -7 0 -24 18 -38 40 -14 22 -36 42 -49
46 -23 5 -93 80 -129 136 -18 28 -83 68 -112 68 -19 0 -35 -39 -35 -88 0 -51
-8 -58 -63 -64 -26 -3 -50 -8 -53 -10 -7 -8 27 -82 42 -91 9 -5 14 -21 13 -40
-2 -18 7 -50 18 -72 11 -22 23 -65 26 -95 7 -76 22 -110 47 -110 26 0 26 -4
-10 -100 -16 -45 -30 -86 -30 -91 0 -5 11 -9 24 -9 14 0 31 -6 38 -14 8 -7 23
-16 35 -20 17 -5 22 -18 27 -66 7 -56 10 -62 47 -87 35 -23 39 -29 33 -57 -4
-23 0 -39 15 -58 14 -17 21 -41 21 -67 0 -34 4 -43 23 -50 35 -13 49 -36 41
-65 -7 -31 18 -66 47 -66 25 0 45 -34 60 -102 l14 -58 39 0 c31 0 47 -7 72
-31 30 -29 35 -30 66 -21 38 13 139 11 135 -2 -2 -5 -21 -18 -42 -30 -22 -11
-43 -25 -47 -31 -16 -21 -7 -63 23 -103 16 -22 33 -57 36 -75 5 -33 4 -35 -33
-44 -30 -7 -40 -14 -42 -33 -2 -13 -17 -37 -34 -53 -31 -31 -33 -57 -12 -111
6 -16 4 -18 -20 -14 -22 4 -29 0 -41 -23 -20 -38 -19 -56 5 -64 25 -8 26 -49
3 -107 -12 -31 -14 -43 -5 -46 7 -2 32 -30 57 -62 37 -48 50 -58 73 -57 23 2
27 -2 25 -20 -2 -17 2 -23 17 -23 11 0 26 -12 34 -28 8 -16 22 -34 30 -41 21
-18 20 -47 -1 -61 -13 -8 -14 -13 -5 -16 6 -3 12 -14 12 -24 0 -14 11 -19 55
-25 46 -5 74 -19 170 -82 90 -59 120 -74 139 -69 39 10 56 -3 81 -59 12 -29
48 -79 80 -111 62 -65 61 -58 35 -179 -6 -28 -8 -80 -4 -118 l6 -68 53 6 52 7
6 -54 c4 -29 7 -70 7 -90 0 -31 5 -40 30 -53 17 -9 30 -20 30 -25 0 -5 12 -15
28 -22 16 -8 37 -33 52 -63 27 -54 65 -72 82 -41 6 10 22 16 45 16 l35 0 -4
43 c-3 23 -8 49 -11 57 -4 8 -3 21 2 29 8 12 16 9 46 -17 19 -18 42 -32 50
-32 8 0 15 -5 15 -11 0 -7 11 -9 27 -6 33 6 63 -8 63 -28 0 -25 27 -17 82 25
30 23 62 39 73 38 13 -2 29 -21 45 -55 15 -30 59 -87 108 -136 79 -81 82 -86
82 -131 0 -43 2 -46 27 -46 14 0 35 -7 45 -17 16 -15 17 -18 3 -33 -21 -24 -9
-47 30 -60 35 -11 39 -18 49 -81 4 -20 22 -54 41 -76 19 -23 35 -49 35 -58 0
-29 58 -93 97 -106 21 -6 57 -9 87 -5 41 4 60 1 90 -15 20 -11 61 -29 90 -40
60 -22 108 -65 88 -78 -10 -6 -10 -10 0 -17 33 -24 168 -85 218 -99 43 -11 59
-21 72 -45 25 -43 56 -52 168 -44 91 6 99 5 119 -15 11 -11 29 -21 38 -21 9 0
31 -5 49 -12 40 -14 58 -6 141 63 42 36 62 47 79 43 32 -8 64 12 64 40 0 29
14 41 66 55 23 6 58 25 79 41 48 38 68 43 161 38 53 -2 78 -8 84 -18 5 -8 22
-30 39 -49 33 -37 61 -108 61 -155 0 -17 9 -48 20 -69 11 -20 20 -46 20 -58 0
-12 12 -43 27 -69 24 -43 32 -49 69 -55 23 -3 53 -3 66 0 15 4 29 1 36 -8 7
-8 22 -12 37 -9 16 3 33 -2 45 -13 15 -14 28 -16 62 -10 24 4 80 8 125 8 72 1
86 -2 106 -21 25 -24 54 -27 107 -12 23 7 72 6 152 -2 94 -9 123 -9 142 1 17
10 29 10 44 2 27 -15 35 -14 29 3 -3 7 0 19 6 25 18 18 43 12 55 -14 12 -25
24 -30 107 -39 28 -4 71 -13 96 -23 54 -19 76 -14 89 22 5 14 14 25 20 25 6 0
10 36 10 93 1 61 6 100 15 117 8 14 14 46 15 71 0 44 28 99 50 99 17 0 90 54
95 70 10 30 144 80 216 80 55 0 59 6 65 104 2 34 4 69 6 80 5 31 -24 42 -79
28 -75 -20 -83 -13 -83 72 0 39 -5 89 -11 110 -6 22 -14 69 -18 105 -6 65 -6
66 -35 63 -20 -2 -37 5 -55 22 -31 30 -71 46 -114 46 -83 1 -183 89 -250 221
-27 54 -61 97 -122 159 l-85 85 41 60 c23 33 82 118 131 189 105 150 112 175
78 265 -12 33 -30 62 -39 65 -9 2 -71 8 -138 11 -72 4 -126 12 -131 19 -14 18
-35 182 -27 215 7 34 -6 80 -66 234 -50 126 -50 156 1 231 53 78 52 86 -9 86
-57 0 -83 19 -80 59 1 14 -1 56 -6 93 -9 83 5 111 65 129 l40 12 -26 34 -26
35 30 31 c46 48 65 101 67 188 1 41 5 81 9 87 20 33 36 113 26 131 -5 11 -10
38 -10 60 0 27 -7 48 -19 60 -16 16 -18 26 -11 51 7 23 5 44 -5 74 -8 22 -15
64 -15 92 0 63 -6 67 -103 54 -39 -5 -95 -10 -124 -10 l-52 0 -51 69 c-45 59
-59 71 -102 85 -28 9 -62 16 -76 16 -33 0 -102 71 -102 106 0 15 -7 27 -17 30
-10 3 -43 16 -73 30 -60 26 -155 29 -197 6 -33 -18 -52 -15 -81 16 -31 32 -82
50 -196 66 -75 11 -80 13 -89 41 -14 41 -46 85 -62 85 -8 0 -18 -8 -24 -17 -8
-16 -14 -16 -61 -4 -52 13 -127 8 -162 -10 -11 -6 -18 -21 -18 -39 0 -34 0
-33 -160 -35 -94 0 -144 -23 -236 -108 -60 -56 -66 -66 -68 -105 -1 -23 -9
-50 -18 -58 -30 -30 -161 -84 -205 -84 -51 0 -52 -4 -18 -90 27 -68 31 -105
15 -115 -15 -9 -86 -9 -101 1 -10 6 -7 10 11 16 15 4 5 5 -25 2 -48 -5 -90
-19 -370 -118 -71 -25 -146 -46 -165 -46 -19 0 -87 7 -150 16 -101 14 -127 22
-215 66 -126 63 -159 88 -181 138 -23 51 -78 72 -164 63 -110 -11 -212 33
-250 107 -11 22 -31 85 -44 141 -13 55 -27 103 -30 107 -4 3 -21 1 -38 -6 -30
-11 -33 -10 -68 28 -20 22 -45 40 -54 40 -10 0 -30 12 -45 28 -16 15 -40 35
-54 45 -15 10 -27 22 -27 27 0 5 20 21 45 36 25 14 45 31 45 38 0 7 -16 26
-36 44 -30 27 -34 34 -24 52 6 12 22 26 36 32 13 6 24 15 24 19 0 16 -115 109
-136 109 -12 0 -55 -26 -95 -57z m820 -3476 c6 -8 8 -17 4 -20 -7 -8 -73 -10
-73 -3 0 2 -3 11 -6 20 -5 13 1 16 29 16 19 0 40 -6 46 -13z"/>
<path d="M4360 640 c-19 -11 -45 -19 -58 -20 -13 0 -22 -6 -21 -12 3 -29 -4
-37 -71 -69 -38 -18 -70 -39 -70 -46 0 -21 27 -15 97 22 36 19 77 35 91 35 25
0 101 72 102 98 0 17 -29 14 -70 -8z"/>
</g>
</svg>
