<?xml version="1.0" standalone="no"?>
<!DOCTYPE svg PUBLIC "-//W3C//DTD SVG 20010904//EN"
 "http://www.w3.org/TR/2001/REC-SVG-20010904/DTD/svg10.dtd">
<svg version="1.0" xmlns="http://www.w3.org/2000/svg"
 width="1024.000000pt" height="1024.000000pt" viewBox="0 0 1024.000000 1024.000000"
 preserveAspectRatio="xMidYMid meet">
<metadata>
Created by potrace 1.16, written by Peter Selinger 2001-2019
</metadata>
<g transform="translate(0.000000,1024.000000) scale(0.100000,-0.100000)"
fill="#000000" stroke="none">
<path d="M4599 7683 c-19 -21 -46 -55 -60 -76 -20 -31 -34 -41 -81 -54 -40
-11 -58 -21 -58 -32 0 -9 -64 -80 -143 -157 l-142 -141 -99 -12 c-113 -13
-123 -17 -161 -67 -24 -31 -29 -51 -36 -127 -5 -49 -11 -98 -14 -108 -3 -10 8
-44 25 -78 26 -53 30 -71 30 -141 0 -75 -2 -85 -32 -128 l-32 -47 -1 -211 c0
-184 -3 -215 -17 -231 -9 -10 -37 -59 -62 -109 -25 -51 -57 -101 -71 -112 -25
-20 -103 -42 -150 -42 -22 0 -86 -36 -495 -279 -80 -48 -229 -136 -332 -196
-117 -69 -187 -116 -188 -126 0 -9 34 -128 75 -265 41 -137 75 -255 75 -261 0
-7 -11 -13 -25 -13 -36 0 -40 -21 -16 -75 22 -49 27 -50 99 -24 36 14 40 12
52 -27 11 -33 10 -38 -15 -64 -24 -26 -25 -29 -8 -33 10 -3 157 -33 327 -67
l310 -62 155 -102 c356 -234 433 -276 706 -392 17 -7 77 -52 135 -101 58 -49
272 -228 475 -398 204 -170 379 -317 390 -327 253 -216 463 -388 476 -388 8 0
217 -20 463 -45 l447 -45 44 19 c30 13 52 33 70 63 15 23 49 66 76 93 26 28
58 73 70 100 12 28 31 63 43 80 11 16 19 39 18 50 -2 11 13 52 33 90 19 39 35
76 35 82 0 7 22 24 49 38 27 13 52 29 56 35 3 6 47 10 99 10 87 0 96 -2 176
-41 51 -24 86 -36 88 -30 2 6 11 18 19 27 20 20 49 13 136 -32 53 -27 78 -34
110 -32 l42 3 -36 23 c-29 18 -35 27 -32 46 4 17 -1 27 -15 35 -18 10 -19 14
-9 42 12 30 10 33 -37 76 -34 31 -52 41 -60 33 -18 -18 -26 -11 -26 25 0 31
-3 35 -41 47 l-42 12 6 158 5 158 -92 0 -93 0 -6 68 c-15 157 -12 181 48 307
58 125 64 145 40 145 -9 0 -18 12 -21 30 -4 16 -17 36 -30 45 -13 8 -24 24
-24 35 0 11 -6 20 -13 20 -7 0 -17 15 -22 33 -8 25 -16 33 -37 35 -31 4 -35
14 -13 32 16 13 12 25 -8 25 -7 0 -11 12 -9 28 2 23 -1 27 -23 27 -24 0 -25 3
-20 33 5 24 2 37 -12 48 -21 19 -83 33 -83 19 0 -6 -13 -10 -28 -10 -35 0 -96
43 -187 131 -55 53 -96 82 -189 130 -114 59 -122 61 -173 55 -41 -5 -53 -3
-53 8 0 7 7 19 15 26 20 17 14 33 -15 40 -13 3 -25 11 -28 18 -2 7 2 10 12 6
9 -3 27 1 41 10 19 13 25 25 25 52 0 32 -3 36 -21 31 -13 -4 -22 0 -25 11 -3
9 -14 33 -25 53 -10 20 -19 45 -19 56 0 29 -11 35 -31 17 -11 -10 -25 -14 -36
-9 -16 6 -15 9 9 28 l27 22 -26 23 c-20 17 -33 21 -55 17 -34 -8 -45 3 -115
118 -36 58 -53 77 -70 77 -12 0 -24 4 -28 10 -7 12 39 86 63 99 14 7 18 23 19
65 1 52 -1 57 -27 71 -26 14 -55 67 -43 79 4 3 15 6 25 6 16 0 18 5 12 35 -7
40 3 44 56 21 47 -19 71 -11 64 23 -3 14 -14 38 -25 53 -18 26 -18 28 -2 57
10 16 26 32 35 35 10 2 18 13 18 25 0 16 6 21 24 21 28 0 41 27 31 60 -13 41
38 67 65 35 16 -19 40 -19 40 -1 0 10 9 14 28 13 26 -2 27 0 27 46 1 31 -3 47
-11 47 -8 0 -12 13 -12 30 1 23 -8 39 -35 63 -39 37 -67 111 -48 130 6 6 11
24 11 40 0 28 1 28 44 22 34 -6 44 -4 49 9 4 9 15 16 26 16 11 0 33 11 48 24
26 23 27 26 12 41 -14 15 -18 15 -47 -2 -30 -17 -31 -17 -56 6 -24 23 -27 23
-73 10 -26 -7 -52 -12 -57 -11 -4 2 -13 -1 -20 -6 -20 -17 -77 -2 -86 23 -10
25 -95 95 -116 95 -7 0 -25 -5 -39 -12 -35 -16 -56 3 -37 33 10 16 10 24 -3
42 -8 12 -15 32 -15 44 0 13 -5 23 -11 23 -6 0 -8 8 -4 19 3 10 -1 24 -10 31
-8 7 -15 28 -15 47 l0 34 -47 -3 c-41 -3 -48 0 -51 17 -2 11 -11 26 -20 33
-12 9 -13 15 -6 20 18 11 26 77 13 106 -7 14 -20 26 -31 26 -10 0 -18 5 -18
10 0 6 -13 10 -29 10 -40 0 -47 15 -17 35 20 13 24 23 23 66 -1 49 -2 51 -39
66 -32 13 -38 20 -38 44 0 22 -6 30 -25 35 -35 9 -95 -4 -95 -20 0 -17 -63
-56 -89 -56 -12 0 -21 -10 -25 -25 -4 -14 -11 -25 -17 -25 -22 0 -48 21 -43
34 3 8 1 17 -5 21 -19 11 -12 35 15 47 21 10 24 16 19 37 -9 36 -23 50 -64 67
-49 20 -96 11 -122 -26 -23 -30 -56 -45 -61 -28 -2 6 -31 10 -65 9 -34 0 -65
4 -68 9 -4 6 -16 8 -26 5 -13 -5 -32 2 -55 20 -22 17 -41 24 -54 20 -10 -3
-36 3 -59 15 -47 24 -78 25 -105 5 -28 -21 -69 -19 -99 5 -14 11 -27 20 -29
20 -2 0 -20 -17 -39 -37z"/>
</g>
</svg>
