<?xml version="1.0" standalone="no"?>
<!DOCTYPE svg PUBLIC "-//W3C//DTD SVG 20010904//EN"
 "http://www.w3.org/TR/2001/REC-SVG-20010904/DTD/svg10.dtd">
<svg version="1.0" xmlns="http://www.w3.org/2000/svg"
 width="524.000000pt" height="560.000000pt" viewBox="0 0 524.000000 560.000000"
 preserveAspectRatio="xMidYMid meet">
<metadata>
Created by potrace 1.16, written by Peter Selinger 2001-2019
</metadata>
<g transform="translate(0.000000,560.000000) scale(0.100000,-0.100000)"
fill="#000000" stroke="none">
<path d="M3660 5504 c0 -11 11 -54 24 -96 24 -78 22 -98 -6 -56 -14 21 -18 22
-40 9 -15 -7 -46 -11 -73 -9 -45 3 -49 1 -56 -24 -7 -29 -1 -65 26 -138 21
-57 13 -104 -22 -127 -15 -10 -47 -39 -72 -64 -56 -56 -87 -71 -77 -37 3 13
11 44 17 70 8 37 17 51 44 67 44 26 54 62 26 97 -15 18 -21 41 -21 73 0 54
-13 71 -52 71 -38 0 -44 -21 -24 -85 13 -43 14 -85 1 -85 -2 0 -18 15 -37 33
-18 19 -39 36 -47 38 -8 3 -16 20 -17 38 -3 43 -16 56 -43 42 -25 -14 -26 -21
-6 -68 18 -44 20 -86 3 -81 -25 8 -78 89 -78 118 0 27 -22 60 -39 60 -5 0 -12
-14 -17 -31 -5 -18 -21 -41 -35 -51 -25 -19 -29 -19 -85 -5 -33 9 -65 17 -73
19 -9 2 -21 -13 -31 -42 -35 -94 -35 -98 12 -140 23 -22 40 -41 37 -44 -3 -3
-29 7 -58 21 l-53 26 -51 -18 c-72 -25 -75 -29 -44 -72 25 -34 26 -39 11 -50
-27 -20 -9 -47 25 -40 19 4 33 1 41 -8 11 -13 7 -17 -20 -27 l-33 -11 27 -22
c36 -29 19 -41 -30 -20 -20 8 -52 15 -71 15 -32 0 -35 -2 -29 -22 20 -69 19
-78 -3 -78 -11 0 -41 5 -65 12 -39 10 -52 9 -117 -13 -97 -32 -103 -44 -53
-109 51 -67 85 -87 164 -96 80 -8 84 -10 65 -37 -8 -12 -15 -25 -15 -30 0 -14
49 2 89 29 32 22 81 33 81 18 0 -3 -5 -14 -11 -26 -16 -30 -6 -32 49 -8 40 17
54 19 71 10 12 -6 21 -15 21 -19 0 -5 -35 -34 -77 -65 -43 -31 -86 -70 -95
-87 -17 -29 -20 -30 -62 -24 -62 10 -122 -3 -157 -32 -16 -14 -48 -31 -71 -38
-48 -14 -71 -40 -49 -54 8 -5 31 -12 51 -15 21 -3 43 -12 49 -20 9 -11 5 -15
-19 -19 -22 -5 -30 -12 -30 -27 0 -11 7 -23 15 -26 17 -7 20 -30 5 -39 -6 -3
-26 0 -46 7 -30 10 -37 10 -45 -2 -6 -9 -12 -11 -15 -5 -26 59 -28 60 -89 60
-67 1 -97 14 -133 56 -34 42 -58 37 -116 -25 -73 -78 -124 -97 -146 -57 -14
27 -13 41 5 41 16 0 18 12 8 48 -4 17 -11 22 -24 19 -14 -4 -19 0 -19 17 0 46
-59 64 -82 26 -15 -23 -38 -27 -38 -6 0 20 -45 53 -83 62 -18 3 -70 22 -116
41 -69 28 -90 33 -115 26 -44 -13 -43 -53 2 -72 56 -25 27 -45 -39 -27 -20 6
-31 3 -46 -13 l-20 -21 -31 50 c-41 65 -63 66 -97 3 -14 -27 -36 -62 -49 -80
-27 -36 -41 -125 -25 -155 10 -19 12 -19 30 -2 11 10 19 30 19 50 0 35 37 74
70 74 28 0 30 -11 10 -49 -22 -43 -35 -105 -25 -120 4 -7 27 0 65 21 32 18 61
30 64 27 4 -3 -5 -26 -19 -50 -29 -51 -31 -73 -11 -121 8 -19 12 -45 9 -57 -5
-20 -10 -22 -44 -17 -32 5 -40 2 -58 -20 -29 -37 -27 -79 5 -100 24 -17 28
-16 77 6 29 12 72 27 97 33 47 10 140 2 140 -13 0 -4 -16 -17 -35 -29 -33 -19
-35 -24 -35 -70 0 -85 3 -83 -125 -75 -110 6 -112 6 -129 -17 -9 -13 -16 -33
-16 -44 0 -12 -7 -30 -15 -41 -20 -27 -18 -61 4 -74 11 -5 51 -10 90 -10 39 0
71 -4 71 -9 0 -5 -20 -17 -45 -26 -54 -21 -93 -15 -142 22 -28 21 -49 28 -99
31 -36 3 -64 0 -64 -5 0 -5 11 -20 25 -33 28 -27 33 -60 9 -60 -9 0 -29 11
-46 25 -37 32 -73 41 -104 26 -50 -22 -23 -62 69 -104 27 -12 37 -23 35 -35
-2 -10 -11 -16 -23 -14 -11 1 -37 5 -57 9 -44 7 -68 -8 -68 -43 0 -29 35 -54
77 -54 25 0 32 -5 35 -21 2 -12 15 -31 29 -41 25 -19 28 -19 57 -4 17 9 33 25
37 36 9 29 35 25 35 -6 0 -18 5 -25 18 -23 35 3 35 -2 -2 -36 -33 -30 -37 -37
-25 -51 11 -13 120 -74 133 -74 2 0 7 20 10 45 8 53 22 66 36 31 11 -30 26
-33 51 -10 22 20 52 11 47 -13 -2 -10 -19 -28 -38 -40 -19 -13 -43 -30 -52
-38 -21 -17 -24 -65 -6 -83 19 -19 56 -14 63 8 10 31 32 24 61 -19 32 -49 64
-61 175 -68 78 -5 91 -3 147 22 67 30 132 38 139 17 3 -7 -8 -17 -26 -23 -40
-14 -49 -44 -21 -67 19 -15 20 -21 9 -44 l-12 -27 -29 20 c-33 24 -58 19 -58
-11 0 -21 -7 -22 -57 -3 -9 3 -13 -4 -13 -21 0 -32 -5 -32 -42 -1 -38 32 -67
32 -99 -2 -14 -16 -44 -45 -66 -66 -67 -62 -125 -143 -121 -169 3 -20 9 -23
43 -23 45 0 63 -28 24 -40 -43 -14 -97 -74 -104 -116 -8 -47 -27 -59 -95 -59
-64 0 -80 -8 -155 -79 -33 -32 -76 -63 -95 -70 -91 -33 -110 -45 -110 -63 0
-10 11 -24 25 -30 20 -9 34 -7 83 16 33 14 68 26 78 26 11 0 39 12 64 26 81
47 88 48 120 12 l29 -31 54 13 c63 15 76 10 69 -25 -5 -29 8 -32 43 -9 19 13
39 15 92 10 85 -8 108 4 178 97 28 37 58 67 68 67 20 0 21 -7 2 -40 -35 -62
-8 -89 79 -77 32 5 50 1 76 -14 l33 -21 -24 -23 c-20 -20 -40 -25 -133 -34
-60 -6 -138 -11 -174 -11 -35 0 -92 -7 -126 -16 -70 -18 -145 -15 -252 11
-103 25 -136 17 -205 -55 -57 -58 -66 -62 -160 -75 -26 -3 -55 -12 -65 -20
-17 -12 -16 -14 18 -20 56 -11 60 -22 38 -103 -11 -40 -20 -78 -20 -85 0 -7
20 -23 45 -37 61 -33 44 -47 -37 -32 -35 6 -81 9 -102 5 -50 -8 -66 12 -66 81
0 75 -11 82 -43 31 -41 -65 -91 -71 -92 -12 0 37 -31 31 -119 -23 -64 -38 -91
-49 -110 -44 -33 8 -46 -18 -46 -91 0 -65 12 -74 69 -55 32 10 43 10 71 -5 47
-24 188 -45 308 -45 56 0 102 -4 102 -9 0 -13 -27 -21 -71 -21 -40 0 -69 -20
-94 -64 -9 -15 -36 -21 -145 -34 -74 -8 -137 -17 -140 -19 -3 -3 -7 -30 -10
-61 l-5 -57 -43 -3 -43 -3 7 -52 c7 -62 23 -127 30 -127 13 0 52 26 86 56 23
20 44 31 53 28 25 -10 17 -32 -20 -56 -40 -26 -44 -47 -15 -73 28 -26 91 -22
175 10 117 45 394 81 411 53 12 -20 -24 -35 -124 -53 -55 -9 -109 -25 -124
-36 -15 -10 -43 -19 -61 -19 -19 0 -40 -7 -47 -15 -7 -8 -23 -15 -35 -15 -33
0 -133 -62 -137 -85 -2 -14 -18 -24 -58 -35 -53 -15 -55 -17 -55 -50 0 -32 3
-35 31 -38 21 -2 66 13 135 44 102 46 133 52 195 39 22 -5 46 -1 79 14 27 12
57 19 67 15 11 -3 37 5 63 20 55 33 82 33 96 2 25 -54 -30 -88 -212 -130 -125
-29 -162 -46 -142 -67 9 -9 33 -9 108 1 68 9 99 10 107 2 11 -11 -40 -29 -197
-69 -56 -15 -71 -22 -73 -39 -5 -38 22 -49 86 -35 31 7 91 19 132 28 41 8 92
24 112 34 54 28 68 18 61 -42 -6 -48 -5 -49 20 -49 14 0 38 5 52 12 23 10 33
8 71 -12 l44 -24 37 36 c66 64 113 72 187 33 61 -33 70 -32 95 10 11 19 25 35
30 35 6 0 26 -13 44 -30 19 -16 37 -30 40 -30 14 0 37 34 37 54 0 38 22 49 65
31 75 -32 125 -1 92 56 -9 17 -17 39 -17 49 0 18 2 18 35 4 45 -18 155 -19
181 0 19 14 19 15 0 49 -16 31 -16 39 -5 71 10 29 11 43 1 68 -14 39 -2 58 38
58 36 0 44 -22 18 -55 -30 -38 -17 -59 30 -50 20 4 49 9 65 12 34 6 35 -8 3
-39 -35 -35 -39 -56 -13 -73 20 -13 30 -12 92 4 73 18 110 35 133 57 9 10 30
12 74 7 58 -6 61 -5 54 13 -4 10 -12 38 -19 62 -10 37 -9 44 7 60 12 11 20 13
23 6 2 -6 10 -19 17 -29 12 -17 16 -17 61 -1 27 9 62 16 78 16 34 0 117 39
125 58 2 7 -4 28 -14 47 -15 28 -15 36 -5 49 11 13 27 14 85 10 52 -5 88 -2
136 11 104 29 121 26 142 -17 23 -47 44 -49 116 -7 51 29 77 65 66 92 -2 7 7
24 22 37 l26 25 19 -24 c26 -31 24 -59 -7 -104 -14 -21 -24 -41 -21 -44 9 -8
61 24 91 56 36 37 60 39 81 7 19 -28 56 -35 213 -40 92 -3 104 -2 113 15 7 13
6 25 -1 39 -6 11 -10 41 -8 67 l3 46 -38 1 c-35 1 -41 6 -64 44 l-25 43 79 -3
c93 -3 94 -3 169 99 34 45 57 88 64 118 6 26 24 73 40 104 17 31 30 62 30 69
0 17 28 72 110 217 37 66 71 138 75 159 3 21 13 49 21 61 13 20 12 29 -2 81
-11 40 -17 105 -19 206 l-2 147 -32 26 c-47 40 -40 73 19 90 26 8 70 43 70 57
0 4 -22 24 -50 45 -57 42 -66 73 -22 73 71 0 98 79 48 144 -36 47 -54 87 -71
158 l-17 66 26 48 c42 80 32 144 -35 222 -35 39 -36 64 -6 122 27 54 46 60 90
26 24 -18 46 -26 75 -26 35 0 44 5 63 33 12 17 24 34 27 37 2 3 29 7 60 10 52
5 58 8 89 48 18 23 35 59 38 80 12 73 16 84 42 108 29 27 69 33 59 9 -3 -10 1
-15 13 -15 10 0 30 -9 45 -21 60 -47 152 35 132 116 -7 28 -30 40 -88 50 -21
3 -38 9 -38 13 0 4 16 32 35 62 30 47 35 63 35 115 0 38 6 69 14 81 14 17 16
18 31 3 25 -25 57 -156 51 -209 -4 -31 -1 -51 10 -65 13 -17 16 -18 24 -5 37
58 51 250 26 351 -29 115 -74 131 -217 79 -146 -54 -178 -27 -73 63 55 48 72
57 104 57 49 0 55 16 35 95 -18 69 -58 142 -127 231 -51 68 -56 86 -34 129 16
31 11 53 -18 76 -19 16 -20 20 -8 78 14 65 10 82 -28 116 -19 17 -36 20 -109
20 -81 0 -90 2 -139 34 -44 28 -58 32 -85 26 -17 -4 -69 -8 -114 -9 -70 -1
-85 -4 -105 -23 -27 -26 -56 -29 -104 -11 -32 11 -34 11 -108 -60 -83 -79
-120 -95 -206 -90 l-55 3 55 55 c30 30 95 82 144 115 48 32 94 68 102 80 13
18 12 22 -11 43 -18 15 -39 22 -69 22 -49 0 -71 18 -61 50 13 41 -4 78 -50
104 -24 14 -53 38 -64 52 -18 23 -21 24 -21 8z"/>
<path d="M955 3920 c-3 -10 -3 -35 1 -55 6 -34 9 -36 43 -35 63 3 68 1 98 -45
l29 -44 47 46 c49 48 55 65 35 108 -12 26 -13 27 -89 20 -63 -6 -82 -4 -101 9
-30 22 -55 20 -63 -4z"/>
<path d="M1083 3608 c-28 -14 -29 -24 -4 -38 43 -22 87 -6 76 29 -7 23 -35 27
-72 9z"/>
<path d="M973 3497 c-13 -5 -23 -18 -23 -29 0 -23 9 -23 40 2 30 23 17 43 -17
27z"/>
<path d="M1091 2621 c-12 -7 -5 -14 27 -26 23 -10 42 -21 42 -26 0 -5 9 -9 19
-9 36 0 34 54 -2 64 -32 8 -70 7 -86 -3z"/>
<path d="M1226 2511 c-9 -14 4 -41 19 -41 17 0 38 27 30 40 -8 12 -42 13 -49
1z"/>
<path d="M1301 2471 c-14 -9 -9 -41 7 -41 15 0 34 28 27 40 -8 12 -16 13 -34
1z"/>
</g>
</svg>
