<?xml version="1.0" standalone="no"?>
<!DOCTYPE svg PUBLIC "-//W3C//DTD SVG 20010904//EN"
 "http://www.w3.org/TR/2001/REC-SVG-20010904/DTD/svg10.dtd">
<svg version="1.0" xmlns="http://www.w3.org/2000/svg"
 width="768.000000pt" height="1024.000000pt" viewBox="0 0 768.000000 1024.000000"
 preserveAspectRatio="xMidYMid meet">
<metadata>
Created by potrace 1.16, written by Peter Selinger 2001-2019
</metadata>
<g transform="translate(0.000000,1024.000000) scale(0.100000,-0.100000)"
fill="#000000" stroke="none">
<path d="M5170 9963 c-56 -20 -85 -89 -99 -233 -6 -52 -17 -116 -26 -142 -30
-86 -158 -178 -248 -178 -32 0 -77 21 -127 60 -49 38 -71 41 -148 19 -77 -22
-153 -24 -253 -7 -49 8 -73 8 -80 1 -6 -6 -17 -47 -25 -90 -7 -44 -29 -129
-48 -189 -43 -139 -51 -189 -36 -244 10 -36 9 -50 -5 -85 -8 -24 -25 -51 -35
-60 -18 -16 -26 -17 -73 -6 -102 23 -129 -5 -156 -165 -11 -60 -31 -170 -45
-244 -13 -74 -46 -256 -71 -405 -86 -505 -142 -749 -218 -951 -136 -361 -233
-612 -279 -714 -238 -539 -389 -764 -765 -1137 -179 -178 -203 -208 -203 -260
0 -35 338 -1091 412 -1288 113 -299 176 -490 203 -615 15 -69 36 -147 46 -173
22 -55 24 -90 8 -136 -19 -54 3 -102 86 -192 l74 -79 205 -623 c344 -1046 344
-1047 355 -1240 7 -131 10 -141 43 -205 32 -61 82 -112 111 -112 16 0 105 98
134 147 38 65 88 215 127 379 19 82 51 200 70 263 36 112 55 203 75 353 12 90
52 194 128 338 76 142 77 147 51 249 -15 58 -22 117 -22 181 0 89 2 100 39
180 l38 84 -16 62 c-23 84 -22 203 3 298 25 97 49 165 143 396 41 102 85 217
97 255 12 39 38 102 58 140 26 52 37 89 42 143 l7 73 65 67 c69 71 70 74 88
167 6 33 29 128 50 210 21 83 44 177 49 210 10 57 61 562 116 1153 14 150 35
339 46 420 18 122 20 169 14 277 -5 72 -8 146 -8 165 0 56 1 156 0 275 0 97 5
129 42 270 48 184 53 266 26 410 -14 72 -16 119 -11 230 14 319 34 573 47 596
16 31 32 43 102 80 72 37 87 65 64 115 -21 42 -21 94 -3 155 12 38 12 50 0 78
-7 17 -17 55 -20 84 -4 29 -20 87 -36 130 -30 83 -38 195 -18 267 5 19 16 104
25 189 9 85 18 158 22 164 3 5 9 60 14 121 4 61 13 132 20 159 12 44 12 49 -7
68 -13 13 -42 23 -83 29 -40 6 -74 17 -94 33 -37 28 -65 38 -87 30z"/>
</g>
</svg>
