<?xml version="1.0" standalone="no"?>
<!DOCTYPE svg PUBLIC "-//W3C//DTD SVG 20010904//EN"
 "http://www.w3.org/TR/2001/REC-SVG-20010904/DTD/svg10.dtd">
<svg version="1.0" xmlns="http://www.w3.org/2000/svg"
 width="628.000000pt" height="743.000000pt" viewBox="0 0 628.000000 743.000000"
 preserveAspectRatio="xMidYMid meet">
<metadata>
Created by potrace 1.16, written by Peter Selinger 2001-2019
</metadata>
<g transform="translate(0.000000,743.000000) scale(0.100000,-0.100000)"
fill="#000000" stroke="none">
<path d="M2875 7394 c-16 -21 -34 -27 -95 -35 -41 -6 -89 -15 -106 -20 -18 -5
-76 -9 -131 -8 -129 2 -148 -6 -193 -93 -20 -38 -41 -73 -47 -79 -7 -7 -35 -8
-89 -2 -79 8 -79 8 -76 36 4 35 -21 46 -58 23 -16 -9 -37 -16 -48 -16 -11 0
-27 -11 -36 -25 -15 -22 -15 -31 -4 -63 6 -20 21 -47 31 -59 10 -11 17 -32 15
-45 -2 -19 -10 -24 -43 -26 -21 -2 -54 -1 -72 3 -27 5 -33 11 -33 30 0 21 -5
25 -28 25 -31 0 -55 -21 -66 -57 -5 -16 3 -42 30 -89 33 -59 36 -70 28 -103
-8 -31 -13 -36 -41 -39 -28 -3 -33 0 -33 18 0 28 -28 80 -43 80 -32 0 -90 -24
-114 -46 -23 -21 -35 -25 -66 -21 -48 7 -48 7 -59 64 -21 114 -14 105 -86 107
-29 1 -33 -2 -38 -32 -4 -19 -1 -45 5 -58 6 -14 11 -42 11 -63 0 -30 -6 -42
-30 -59 -16 -12 -33 -22 -39 -22 -5 0 -20 -33 -33 -72 -27 -79 -46 -98 -105
-98 -39 0 -60 29 -43 60 15 28 5 40 -36 40 -23 0 -38 6 -46 20 -7 11 -32 32
-54 46 -46 29 -64 70 -64 143 0 52 -24 56 -60 9 -14 -18 -44 -50 -67 -72 -47
-44 -49 -49 -29 -88 12 -23 12 -28 -2 -41 -10 -8 -25 -17 -34 -20 -11 -4 -18
-17 -18 -33 0 -35 -86 -117 -115 -109 -11 2 -32 5 -47 5 -14 0 -40 11 -56 25
l-30 25 -27 -22 c-16 -12 -44 -23 -64 -24 -20 -1 -52 -8 -71 -16 -19 -9 -50
-18 -67 -21 -30 -6 -33 -4 -33 18 0 36 -35 33 -54 -3 -8 -16 -22 -34 -31 -42
-9 -7 -25 -25 -35 -40 -20 -27 -20 -28 1 -54 11 -14 39 -34 63 -45 43 -18 43
-19 36 -57 -6 -36 -3 -43 38 -93 43 -50 45 -55 34 -85 -7 -18 -12 -42 -12 -53
0 -20 -36 -43 -69 -43 -19 0 -61 -35 -61 -50 0 -6 -22 -10 -49 -10 -56 0 -64
-8 -67 -63 -2 -35 4 -44 63 -103 57 -57 69 -64 104 -64 36 0 39 -2 39 -27 0
-16 -11 -48 -24 -73 -13 -25 -34 -64 -46 -88 -20 -38 -21 -48 -11 -81 6 -21
11 -50 11 -65 0 -61 101 -156 152 -143 12 3 39 -3 61 -15 32 -16 54 -19 108
-16 l67 4 6 -29 c14 -67 7 -90 -39 -137 -65 -65 -59 -90 23 -90 28 0 44 8 73
36 l37 36 30 -17 c27 -17 33 -17 68 -3 38 15 39 17 42 74 3 62 18 90 81 157
27 28 43 37 68 37 30 0 36 5 53 45 15 35 24 45 43 45 13 0 42 16 64 35 36 30
48 35 93 35 48 0 56 -4 107 -49 30 -27 76 -57 101 -67 68 -25 152 -73 187
-105 39 -36 136 -79 180 -79 24 0 45 -9 72 -32 48 -42 51 -45 63 -90 6 -21 15
-38 20 -38 6 0 10 -51 10 -123 l0 -123 35 -34 c19 -19 35 -44 35 -56 0 -12 7
-24 15 -28 9 -3 15 -18 15 -37 0 -17 9 -42 20 -56 16 -21 20 -41 20 -104 l0
-79 29 0 c39 0 61 -9 61 -26 0 -7 9 -18 20 -24 13 -7 20 -21 20 -39 0 -23 7
-32 33 -44 18 -9 43 -27 56 -41 14 -14 31 -26 38 -26 7 0 17 -10 22 -22 5 -13
21 -36 35 -51 14 -16 33 -43 40 -62 8 -18 25 -39 38 -46 12 -7 28 -19 35 -28
9 -12 14 -13 24 -4 9 9 18 7 41 -10 67 -51 108 -90 108 -104 0 -30 133 -163
163 -163 13 0 34 -11 47 -25 13 -14 32 -25 42 -25 10 0 18 -7 18 -15 0 -43
142 -215 178 -215 6 0 15 -22 22 -50 11 -45 16 -51 63 -75 28 -14 63 -25 77
-25 14 0 57 -20 95 -45 l70 -45 87 3 c75 3 90 1 104 -15 23 -25 54 -24 54 2 0
12 7 20 16 20 30 0 85 -33 98 -59 8 -14 26 -37 41 -51 42 -39 55 -73 55 -145
l0 -65 63 0 c44 0 71 -6 95 -20 18 -11 43 -20 57 -20 21 0 24 -4 20 -30 -5
-42 -12 -50 -46 -50 -19 0 -29 -5 -29 -15 0 -12 14 -15 64 -15 56 0 67 3 83
24 10 15 33 27 54 31 32 6 40 2 87 -40 l52 -47 0 -72 c0 -40 4 -76 8 -81 5 -6
14 -29 21 -52 9 -32 17 -43 31 -43 11 0 20 -6 20 -14 0 -7 11 -21 25 -30 14
-9 25 -23 25 -31 0 -20 40 -35 91 -35 28 0 39 4 39 15 0 8 6 15 14 15 7 0 19
-7 26 -15 7 -8 27 -15 45 -15 39 0 65 -26 75 -77 26 -122 37 -161 53 -183 9
-13 17 -36 17 -50 0 -14 11 -41 25 -60 16 -22 25 -47 25 -72 0 -26 5 -41 16
-45 13 -5 15 -15 10 -49 -3 -24 -1 -46 4 -49 6 -3 5 -16 -1 -32 -8 -21 -6 -29
15 -48 13 -12 27 -32 31 -45 4 -13 18 -35 32 -49 31 -34 27 -71 -9 -89 -16 -7
-28 -18 -28 -23 0 -6 -12 -8 -28 -4 -20 4 -33 1 -42 -10 -8 -9 -31 -24 -52
-32 -54 -21 -65 -46 -38 -83 12 -17 30 -30 41 -30 30 0 22 -28 -16 -52 -19
-13 -40 -38 -47 -55 -7 -18 -16 -33 -20 -33 -5 0 -26 -11 -48 -25 -46 -29 -60
-31 -60 -10 0 22 -28 18 -42 -5 -9 -14 -24 -20 -47 -20 -19 0 -42 -6 -50 -14
-40 -34 -120 -45 -178 -24 -27 10 -38 10 -53 0 -11 -7 -33 -12 -50 -12 -20 0
-30 -5 -30 -15 0 -8 -9 -15 -19 -15 -11 0 -22 -4 -25 -9 -8 -12 -110 -29 -301
-49 -39 -4 -83 -15 -98 -25 -32 -21 -76 -22 -83 -2 -3 8 -27 26 -52 41 -26 15
-51 33 -55 41 -4 7 -17 13 -28 13 -12 0 -33 9 -48 19 -44 32 -74 35 -113 11
-20 -11 -39 -27 -42 -35 -3 -8 -16 -21 -29 -30 -28 -18 -63 -8 -105 29 -19 17
-26 18 -40 8 -9 -7 -30 -19 -47 -28 -22 -11 -38 -33 -57 -79 -33 -76 -34 -86
-9 -102 12 -7 21 -26 23 -45 2 -26 9 -34 33 -42 17 -4 42 -15 57 -22 31 -16
58 -18 58 -4 0 25 47 6 96 -40 32 -28 61 -47 69 -44 8 3 29 -10 50 -30 19 -20
48 -44 63 -53 15 -10 47 -33 72 -52 25 -18 71 -46 103 -62 33 -16 65 -34 73
-40 8 -6 26 -9 42 -6 15 3 38 -1 52 -8 14 -8 42 -14 63 -15 32 0 46 -8 96 -57
38 -38 64 -73 73 -100 16 -49 78 -107 122 -115 38 -8 142 35 177 72 15 16 36
31 47 35 12 3 31 23 43 43 12 20 29 43 38 50 11 9 12 15 5 20 -6 4 -14 38 -17
76 -4 55 -9 73 -26 85 -15 11 -25 36 -33 78 -10 56 -10 65 6 82 10 11 25 50
33 88 20 87 43 133 109 213 44 52 54 71 54 101 0 32 3 37 28 41 15 3 35 9 45
13 14 6 17 1 17 -31 0 -22 12 -62 27 -91 l26 -53 61 0 c45 0 72 6 101 23 35
20 40 28 43 62 2 22 10 44 18 48 8 4 14 17 14 27 0 31 55 85 115 114 l55 26 1
52 c1 29 2 91 3 137 1 53 6 86 13 88 6 2 32 18 58 35 34 22 43 33 33 39 -16
11 -10 11 85 9 98 -2 108 7 106 100 -1 36 3 75 9 87 14 25 16 183 4 183 -5 0
-29 15 -53 34 -24 19 -71 45 -104 57 -33 12 -69 28 -80 35 -11 8 -31 14 -46
14 -15 0 -32 6 -38 14 -17 20 -3 91 27 134 16 23 27 55 29 87 6 67 83 227 134
278 21 22 39 43 39 48 0 5 36 9 80 9 79 0 80 0 80 -25 0 -14 -5 -25 -11 -25
-20 0 2 -20 39 -36 47 -20 154 -40 260 -49 94 -8 112 -19 112 -73 1 -89 9
-165 18 -174 6 -6 32 -14 59 -19 33 -6 57 -19 76 -39 40 -42 49 -38 46 21 -2
41 1 54 16 65 21 16 55 97 55 133 0 38 -75 126 -135 160 -30 17 -62 42 -72 56
-48 69 -109 135 -123 135 -9 0 -43 14 -76 31 -32 17 -72 38 -89 47 -56 29
-155 104 -188 142 -29 35 -45 42 -172 80 -77 23 -166 55 -197 71 -32 16 -67
29 -79 29 -13 0 -34 13 -48 30 -14 17 -57 52 -95 78 -73 50 -101 81 -111 123
-8 35 27 75 80 93 43 15 51 32 54 107 1 31 -3 38 -27 48 -36 15 -113 7 -146
-14 -20 -13 -40 -16 -83 -13 -33 3 -67 0 -82 -7 -54 -26 -77 -26 -115 0 -19
13 -57 31 -84 39 -95 28 -144 62 -307 211 -22 20 -59 51 -82 68 -24 17 -43 38
-43 48 0 9 -6 19 -14 22 -8 3 -19 21 -25 40 -10 28 -18 36 -44 41 -29 5 -37
15 -70 84 -20 43 -37 88 -37 100 0 25 -34 97 -50 107 -5 3 -10 21 -10 39 0 18
-9 61 -20 97 -12 35 -26 80 -32 99 -9 32 -67 131 -126 219 -12 19 -53 55 -91
80 -37 26 -88 63 -113 84 -25 20 -48 37 -52 37 -4 0 -42 26 -84 57 -42 32
-103 74 -134 95 -35 22 -70 57 -92 90 -20 29 -49 70 -65 91 -16 20 -35 60 -41
89 -11 45 -11 52 4 60 9 5 16 22 16 38 0 23 -5 30 -20 30 -11 0 -20 5 -20 11
0 6 -13 24 -30 39 l-30 28 25 36 c14 20 28 48 31 61 3 14 11 26 18 26 6 1 16
2 22 3 6 0 23 16 39 34 20 24 25 39 21 58 -4 13 -10 22 -15 20 -12 -8 -34 78
-26 103 4 14 -1 36 -13 59 -31 60 -36 99 -17 129 16 24 21 25 70 19 53 -6 53
-6 60 24 6 29 14 34 43 31 8 -1 19 2 26 8 21 18 139 51 182 51 32 0 46 6 73
34 36 37 34 51 -7 67 -23 9 -24 11 -10 26 24 23 97 34 128 18 50 -25 85 -27
105 -5 10 11 22 20 27 20 15 0 83 -82 94 -114 9 -24 16 -30 34 -28 52 6 67 49
25 72 -14 7 -32 24 -40 37 -9 12 -21 23 -28 23 -30 0 -57 45 -57 94 0 39 -5
52 -24 67 -41 32 -41 52 0 93 32 32 34 37 21 51 -9 8 -24 15 -35 15 -19 0 -56
34 -64 59 -6 20 88 102 134 117 9 3 21 19 27 35 8 25 7 29 -7 29 -9 0 -26 7
-37 16 -16 12 -47 15 -150 13 -119 -1 -133 0 -168 21 -22 13 -46 20 -59 17
-13 -4 -38 4 -64 19 -28 16 -50 23 -66 19 -13 -3 -40 1 -60 10 -21 8 -52 15
-70 15 -29 0 -36 6 -60 49 -16 27 -28 60 -28 72 0 32 -10 46 -43 58 -22 9 -27
17 -27 45 0 24 7 39 21 50 15 10 19 20 14 35 -9 28 -35 26 -60 -5z"/>
<path d="M1368 3075 c-12 -25 -28 -45 -35 -45 -23 0 -63 -32 -63 -50 0 -23
-82 -99 -151 -138 -65 -37 -107 -40 -170 -13 -48 21 -109 18 -109 -5 0 -13 12
-68 31 -145 6 -24 16 -39 29 -42 11 -3 20 -13 20 -24 0 -10 7 -27 15 -37 8
-11 15 -32 15 -47 0 -15 12 -42 27 -60 22 -25 27 -43 29 -88 2 -77 -5 -101
-26 -101 -23 0 -34 -32 -25 -76 7 -39 29 -53 56 -36 10 7 21 12 24 12 12 0 3
-78 -11 -99 -10 -13 -18 -45 -20 -71 -2 -26 -12 -65 -21 -86 -12 -28 -17 -74
-20 -159 -1 -66 -3 -123 -3 -127 0 -4 -7 -14 -16 -23 -15 -15 -15 -17 1 -35
22 -24 38 -25 55 -5 20 25 37 17 43 -19 3 -19 13 -46 22 -60 19 -28 45 -35 45
-11 0 19 29 19 36 0 4 -9 19 -15 35 -15 22 0 29 5 29 20 0 14 7 20 23 20 40 0
77 59 77 123 0 40 2 44 36 56 31 11 41 11 75 -4 21 -10 39 -24 39 -32 0 -9 14
-13 44 -13 66 0 76 7 76 50 0 21 7 43 15 50 12 10 15 37 15 123 0 106 19 213
42 244 6 7 7 17 4 22 -13 21 -23 105 -16 131 5 17 2 39 -7 61 -36 83 -36 89 6
126 55 48 72 88 64 154 -5 43 -13 61 -40 87 -29 30 -33 40 -33 86 0 44 -3 53
-22 61 -20 9 -24 20 -29 80 -6 78 -28 122 -65 130 -13 3 -34 7 -46 10 -13 2
-31 18 -40 35 -9 16 -22 30 -28 30 -5 0 -20 -20 -32 -45z"/>
</g>
</svg>
