<?xml version="1.0" standalone="no"?>
<!DOCTYPE svg PUBLIC "-//W3C//DTD SVG 20010904//EN"
 "http://www.w3.org/TR/2001/REC-SVG-20010904/DTD/svg10.dtd">
<svg version="1.0" xmlns="http://www.w3.org/2000/svg"
 width="1024.000000pt" height="768.000000pt" viewBox="0 0 1024.000000 768.000000"
 preserveAspectRatio="xMidYMid meet">
<metadata>
Created by potrace 1.16, written by Peter Selinger 2001-2019
</metadata>
<g transform="translate(0.000000,768.000000) scale(0.100000,-0.100000)"
fill="#000000" stroke="none">
<path d="M2521 5754 c-133 -14 -182 -27 -202 -50 -7 -9 -36 -27 -63 -41 -28
-14 -53 -27 -56 -30 -2 -2 -8 -32 -11 -66 -4 -34 -13 -79 -21 -100 -12 -36
-15 -38 -43 -31 -16 3 -57 7 -90 8 -39 1 -69 7 -85 19 -32 22 -50 22 -140 -4
-61 -18 -101 -21 -217 -21 -132 1 -144 2 -173 24 -43 31 -130 32 -181 1 l-35
-22 -83 19 c-45 11 -95 20 -111 20 -37 0 -117 -63 -177 -140 -25 -32 -63 -71
-84 -86 -22 -15 -42 -37 -45 -50 -5 -20 -12 -23 -51 -22 -51 1 -65 -9 -102
-79 -24 -44 -29 -48 -68 -51 -34 -2 -48 -10 -74 -39 -28 -33 -31 -40 -25 -82
16 -113 18 -143 11 -196 -6 -53 -10 -59 -53 -88 -70 -49 -82 -63 -82 -102 0
-75 43 -121 174 -186 74 -36 93 -42 172 -46 113 -6 133 -14 166 -67 15 -23 36
-50 47 -60 34 -31 103 -23 212 25 65 28 72 29 272 32 113 2 210 0 214 -4 5 -5
37 -12 72 -15 44 -5 71 -14 87 -28 33 -30 71 -139 78 -224 4 -41 11 -82 17
-93 5 -10 33 -31 62 -45 102 -52 154 -93 175 -137 11 -24 36 -62 56 -86 20
-24 36 -53 36 -66 0 -55 18 -75 102 -116 85 -41 94 -42 186 -23 34 7 106 -9
155 -33 39 -20 49 -52 57 -184 8 -137 18 -159 100 -216 44 -31 57 -46 67 -83
14 -49 52 -88 181 -186 40 -31 77 -64 82 -74 14 -27 54 -32 118 -16 44 10 129
13 362 12 343 -2 423 -11 508 -56 68 -36 88 -37 150 -8 27 13 106 31 186 44
159 25 187 21 246 -32 20 -19 84 -56 141 -83 77 -36 121 -65 172 -111 37 -34
79 -71 95 -83 15 -11 75 -66 133 -121 149 -142 191 -175 288 -224 l86 -44 94
5 c83 5 99 9 134 34 53 38 83 90 73 128 -4 18 -39 61 -81 104 l-74 74 -45 -6
c-34 -5 -47 -3 -58 10 -7 9 -25 21 -40 28 l-27 11 85 84 86 85 -6 43 c-5 36 0
54 30 115 56 113 84 135 218 176 113 35 169 28 229 -27 34 -32 34 -51 1 -99
-29 -43 -26 -77 8 -106 17 -15 31 -17 73 -12 37 5 68 2 108 -11 53 -16 59 -16
98 -1 42 16 43 16 67 -5 58 -55 192 0 260 107 14 22 42 60 62 85 49 60 92 140
120 224 13 39 31 84 42 102 14 24 17 42 13 67 -9 46 0 71 31 92 24 16 26 15
76 -30 29 -26 65 -53 81 -62 33 -17 141 -22 202 -10 37 7 44 4 92 -32 59 -44
148 -76 238 -86 64 -7 102 -27 150 -76 17 -17 49 -44 73 -61 33 -23 42 -35 42
-59 0 -32 30 -98 53 -117 24 -20 159 -43 242 -41 44 1 106 -2 137 -6 40 -5 83
-2 144 10 69 14 113 16 203 11 114 -7 117 -7 176 23 l59 29 51 -19 c27 -11 72
-31 98 -44 61 -31 101 -32 131 -2 19 19 34 23 77 23 37 -1 75 8 119 25 36 15
99 33 140 40 80 13 118 28 140 54 7 9 27 23 43 32 25 13 36 13 67 3 31 -10 42
-10 68 4 37 19 62 52 62 82 0 32 -56 76 -165 129 l-97 47 6 57 7 58 -55 68
c-73 91 -108 159 -117 220 -8 58 -85 207 -153 295 -24 30 -48 70 -55 89 -6 19
-18 42 -27 52 -8 9 -23 39 -33 65 -14 41 -22 50 -52 59 -20 5 -47 23 -60 38
-26 30 -76 48 -204 72 -38 7 -87 21 -108 31 -32 15 -43 16 -70 6 -19 -7 -48
-12 -65 -12 -28 0 -32 4 -42 38 -14 55 -40 75 -106 80 -47 4 -58 1 -79 -18
-19 -18 -30 -21 -52 -15 -15 4 -58 8 -94 9 -74 1 -116 23 -183 97 -40 43 -56
46 -166 30 -30 -5 -64 -5 -75 -1 -11 4 -63 42 -115 84 -103 82 -157 106 -243
106 -33 0 -61 7 -84 21 -28 18 -43 20 -81 14 -102 -15 -105 -14 -129 34 -12
24 -29 51 -36 60 -8 9 -17 39 -19 68 -3 29 -11 60 -19 69 -8 10 -47 32 -87 51
-40 18 -93 52 -117 74 -59 56 -74 65 -114 74 l-33 7 7 55 c5 41 3 60 -9 77
-35 54 -216 77 -270 35 -20 -16 -35 -20 -59 -15 -18 4 -76 11 -131 17 -73 7
-112 17 -149 37 -65 33 -147 35 -228 5 -31 -12 -86 -24 -122 -28 -58 -6 -69
-5 -93 14 -15 11 -35 21 -46 21 -27 0 -69 24 -98 55 -32 35 -83 57 -114 49
-34 -8 -137 14 -161 36 -30 26 -134 70 -190 81 -27 5 -90 13 -138 19 -75 8
-94 8 -122 -6 -25 -12 -76 -16 -212 -19 l-178 -3 -60 33 c-59 32 -63 33 -150
28 -141 -7 -155 -7 -245 16 -136 33 -263 44 -345 31 -38 -7 -102 -14 -142 -17
-69 -5 -74 -4 -132 32 -63 39 -74 40 -139 14 -31 -13 -37 -12 -100 22 -79 43
-208 81 -348 103 -119 19 -194 19 -363 0z"/>
</g>
</svg>
