<?xml version="1.0" standalone="no"?>
<!DOCTYPE svg PUBLIC "-//W3C//DTD SVG 20010904//EN"
 "http://www.w3.org/TR/2001/REC-SVG-20010904/DTD/svg10.dtd">
<svg version="1.0" xmlns="http://www.w3.org/2000/svg"
 width="588.000000pt" height="596.000000pt" viewBox="0 0 588.000000 596.000000"
 preserveAspectRatio="xMidYMid meet">
<metadata>
Created by potrace 1.16, written by Peter Selinger 2001-2019
</metadata>
<g transform="translate(0.000000,596.000000) scale(0.100000,-0.100000)"
fill="#000000" stroke="none">
<path d="M5200 5690 c0 -5 -13 -10 -28 -10 -22 0 -30 -7 -39 -31 -11 -27 -9
-37 19 -89 25 -49 29 -65 23 -99 -4 -23 -14 -48 -22 -57 -11 -11 -14 -26 -9
-53 7 -43 -14 -81 -44 -81 -32 0 -42 -33 -25 -82 15 -43 15 -43 -14 -69 -21
-19 -36 -25 -55 -22 -14 3 -26 9 -26 13 0 4 -11 5 -25 2 -14 -2 -42 5 -65 17
-48 25 -51 25 -76 7 -18 -14 -18 -15 10 -45 l29 -30 -33 -31 c-17 -16 -37 -27
-42 -24 -6 4 -14 1 -18 -6 -4 -6 -23 -15 -41 -19 -28 -6 -34 -12 -37 -36 -1
-17 -8 -41 -14 -53 -11 -21 -9 -26 12 -43 14 -10 30 -19 36 -19 7 0 19 -11 28
-25 16 -25 16 -28 -4 -60 -25 -40 -24 -88 2 -93 27 -5 97 29 91 44 -2 7 6 18
19 25 13 6 27 17 31 23 6 8 10 8 13 0 3 -7 13 -10 24 -7 10 3 26 0 36 -5 13
-7 27 -6 49 6 l30 15 -33 14 c-19 8 -46 25 -60 38 -15 14 -39 25 -54 25 -15 0
-43 9 -62 21 -38 22 -39 37 -3 77 31 34 71 29 113 -15 30 -30 39 -35 52 -25
36 25 138 72 156 72 19 0 77 -25 198 -85 37 -19 84 -37 103 -41 20 -3 51 -17
70 -29 40 -28 55 -18 59 39 4 45 40 93 113 148 l58 44 0 152 0 151 -35 3 c-20
2 -34 8 -33 14 1 7 -13 15 -31 18 -19 4 -45 15 -57 24 -13 10 -46 31 -74 47
-27 16 -88 67 -134 113 -46 46 -96 91 -110 100 -14 9 -30 22 -34 29 -9 15 -37
17 -37 3z"/>
<path d="M4970 5681 c0 -20 13 -41 21 -35 14 8 11 31 -6 38 -8 3 -15 1 -15 -3z"/>
<path d="M5010 5616 c0 -18 30 -30 43 -17 5 5 6 14 3 20 -10 16 -46 13 -46 -3z"/>
<path d="M4574 4845 c-7 -17 4 -38 15 -30 5 2 11 14 14 25 6 23 -20 29 -29 5z"/>
<path d="M4936 4647 c-27 -59 -23 -70 27 -62 23 4 47 11 54 17 17 14 26 -8 19
-47 -8 -43 -20 -50 -48 -31 -28 20 -48 20 -48 2 0 -22 -20 -30 -36 -14 -8 7
-15 29 -17 48 -2 28 -7 35 -24 35 -12 0 -25 4 -29 8 -4 4 -14 7 -22 7 -9 0
-12 -3 -9 -7 4 -3 2 -12 -4 -19 -6 -8 -7 -14 0 -18 6 -4 6 -18 -1 -39 -13 -36
-24 -47 -51 -47 -25 0 -71 -36 -57 -45 5 -3 10 -13 10 -22 0 -9 7 -24 16 -34
14 -15 13 -20 -3 -55 -16 -32 -23 -39 -46 -37 -15 1 -27 -2 -27 -6 0 -16 27
-31 51 -29 49 6 62 -93 18 -143 -10 -12 -19 -31 -19 -41 0 -24 -39 -101 -56
-111 -18 -10 -54 -81 -54 -105 0 -30 -37 -69 -78 -82 -55 -18 -80 -37 -96 -73
-33 -72 -97 -116 -237 -161 -70 -22 -105 -39 -107 -50 -4 -19 -43 -30 -77 -22
-23 6 -25 10 -20 44 12 76 15 82 35 82 13 0 20 7 20 20 0 11 7 20 15 20 8 0
15 5 15 10 0 20 -27 20 -71 1 -24 -12 -53 -21 -65 -21 -30 0 -45 -39 -32 -83
6 -19 8 -46 5 -59 -7 -27 -122 -148 -140 -148 -7 0 -23 -16 -36 -35 -22 -33
-23 -36 -7 -60 20 -30 21 -46 1 -39 -9 4 -15 0 -15 -10 0 -9 -8 -16 -20 -16
-11 0 -20 -4 -20 -9 0 -13 -62 -20 -83 -9 -12 6 -23 6 -32 -2 -17 -14 -29 3
-20 29 8 26 -20 34 -55 16 -16 -8 -53 -15 -82 -15 -30 0 -78 -8 -108 -19 -75
-26 -270 -36 -270 -14 0 17 -17 15 -105 -9 -39 -10 -51 -18 -53 -35 -2 -13 -8
-23 -14 -23 -11 0 -89 -56 -162 -117 -22 -18 -49 -33 -61 -33 -12 0 -30 -9
-40 -20 -10 -11 -24 -20 -32 -20 -7 0 -13 -6 -13 -14 0 -8 -7 -16 -15 -20 -8
-3 -15 -1 -15 5 0 6 -8 8 -17 6 -10 -3 -35 -8 -55 -12 -36 -5 -37 -7 -27 -33
7 -18 7 -28 0 -30 -6 -2 -8 -17 -4 -34 6 -29 5 -31 -21 -26 -32 6 -86 -17 -86
-37 0 -8 -10 -17 -21 -20 -17 -6 -19 -9 -8 -17 10 -6 4 -7 -17 -3 -26 5 -34 2
-48 -20 -17 -25 -18 -26 -31 -8 -13 17 -14 17 -34 -1 -17 -15 -19 -22 -9 -28
8 -5 -10 -7 -45 -5 -37 2 -56 0 -54 -7 3 -6 0 -19 -5 -28 -6 -14 -5 -18 7 -18
9 0 18 6 21 14 5 12 9 11 25 -5 21 -21 25 -39 9 -39 -15 0 7 -50 32 -70 19
-15 20 -20 9 -34 -20 -23 5 -20 29 4 11 11 31 22 45 26 24 6 25 4 19 -20 -7
-31 5 -33 37 -7 20 16 22 23 13 38 -7 11 -20 17 -35 15 -20 -4 -21 -2 -10 12
11 13 11 19 1 31 -10 12 -10 19 -2 27 16 16 62 -6 62 -29 0 -9 12 -30 28 -46
20 -22 23 -31 13 -35 -7 -2 -22 -13 -31 -22 -28 -28 -58 -42 -65 -30 -9 14
-51 12 -53 -2 0 -7 -3 -25 -5 -41 -5 -35 9 -44 33 -22 10 9 23 14 29 10 6 -3
9 0 5 8 -3 8 2 17 10 20 11 4 16 1 16 -11 1 -23 29 26 30 51 0 10 8 17 19 17
27 0 17 -34 -27 -87 -35 -43 -62 -56 -62 -28 0 8 -4 15 -10 15 -13 0 -13 -17
0 -25 6 -3 10 -27 10 -51 0 -35 5 -50 22 -64 20 -16 21 -21 10 -45 -8 -17 -18
-25 -27 -21 -18 7 -19 -3 -2 -25 14 -17 104 -45 114 -35 4 4 -1 20 -10 35 -36
61 -4 85 33 25 19 -30 19 -31 1 -67 -21 -41 -15 -45 31 -21 44 23 76 55 61 61
-23 8 -14 33 12 33 14 0 25 -4 25 -10 0 -5 6 -10 13 -10 18 0 47 69 47 113 0
20 4 46 9 59 29 75 45 108 52 108 5 0 6 6 3 14 -3 9 3 20 15 28 12 7 21 18 21
25 0 7 6 13 13 13 7 0 18 9 25 20 10 17 10 20 -3 20 -18 0 -20 30 -2 30 6 1
-1 7 -18 14 -23 10 -26 14 -15 22 11 6 1 10 -34 14 -30 3 -51 11 -54 19 -3 8
0 11 5 8 14 -9 53 21 53 42 0 38 -48 55 -76 26 -32 -31 -135 22 -120 62 3 8 6
21 6 29 0 19 15 18 35 -2 13 -14 21 -15 42 -5 40 18 103 23 103 9 0 -10 2 -10
9 0 7 11 9 10 15 -3 3 -9 10 -14 15 -11 15 10 63 -13 55 -25 -4 -7 -1 -10 7
-7 8 3 13 14 11 24 -2 11 0 15 5 8 13 -18 48 -22 62 -7 11 12 10 14 -5 13 -11
-1 -25 -2 -31 -1 -19 2 -16 47 5 67 9 10 17 22 17 27 0 16 22 20 31 6 4 -8 3
-9 -4 -5 -7 4 -13 2 -13 -3 -1 -6 -2 -17 -3 -23 -2 -15 18 -38 33 -38 6 0 11
9 11 19 0 17 4 18 36 10 25 -7 39 -7 49 1 10 8 17 7 27 -3 11 -13 16 -11 35
10 13 13 23 29 23 34 0 6 5 7 11 4 5 -4 19 1 30 11 26 24 60 29 117 18 18 -4
32 -2 32 3 0 17 125 73 161 73 19 -1 49 -9 67 -18 l33 -18 -52 -52 c-56 -56
-81 -63 -120 -34 -33 25 -90 27 -131 6 -18 -10 -38 -17 -45 -16 -7 2 -9 -5 -6
-18 8 -30 -15 -50 -56 -50 -20 0 -43 -6 -49 -12 -10 -10 -18 -6 -38 20 l-26
33 -29 -31 c-16 -16 -33 -30 -38 -30 -4 0 -6 -10 -4 -23 4 -18 -5 -29 -45 -54
-26 -18 -61 -37 -77 -43 -15 -6 -25 -13 -22 -16 3 -3 14 -1 25 5 30 16 42 14
42 -8 0 -11 10 -22 23 -25 17 -6 19 -9 7 -14 -16 -7 -23 -52 -8 -52 4 0 8 -7
8 -15 0 -9 9 -15 25 -15 17 0 23 -4 19 -14 -7 -17 28 -30 56 -21 11 4 20 2 20
-4 0 -6 4 -11 9 -11 5 0 7 15 6 33 -2 25 5 39 31 65 19 18 34 41 34 50 0 11
19 25 53 40 64 27 104 22 143 -19 32 -34 44 -36 44 -10 0 28 42 74 93 101 46
24 51 41 20 66 -21 18 -6 66 18 59 29 -10 60 12 54 38 -6 28 21 61 68 80 29
13 39 13 53 2 17 -12 17 -14 1 -38 -9 -14 -32 -31 -52 -38 -35 -13 -41 -20
-28 -33 11 -11 12 -66 2 -66 -27 0 20 -59 47 -60 7 0 15 -11 18 -25 5 -19 18
-28 61 -40 51 -15 56 -15 73 2 10 10 26 34 35 53 9 19 25 41 37 48 12 7 26 26
32 42 8 24 20 33 60 45 28 8 61 12 74 9 22 -6 24 -3 24 31 0 21 -4 34 -10 30
-10 -6 -71 22 -82 38 -3 6 2 22 13 35 10 14 19 30 19 37 0 6 11 17 24 23 24
11 24 10 22 -33 -3 -31 1 -45 11 -49 23 -9 26 -7 14 8 -8 10 -9 16 -1 21 5 3
10 1 10 -4 0 -6 18 -11 40 -11 49 0 53 -17 5 -26 -19 -3 -35 -11 -35 -16 0 -7
13 -7 38 -2 20 5 87 9 148 9 l111 0 29 37 c15 21 35 40 45 43 9 3 19 15 22 25
6 22 41 27 67 10 12 -8 13 -11 1 -19 -7 -5 -14 -28 -15 -52 -1 -57 24 -64 66
-18 24 26 29 38 24 63 -8 40 14 72 53 81 34 7 71 -9 71 -30 0 -21 13 -19 27 4
10 15 9 20 -2 25 -21 8 -19 23 5 43 11 10 20 23 20 29 0 12 38 23 58 16 21 -7
13 -29 -23 -57 -19 -16 -31 -33 -27 -39 8 -14 3 -58 -9 -73 -7 -8 -4 -13 9
-17 13 -5 30 3 52 24 18 16 42 30 54 30 31 0 46 19 46 57 0 42 36 78 87 88 20
4 32 10 27 13 -6 4 -25 28 -43 54 -29 41 -32 51 -26 90 10 68 51 158 72 158
34 0 54 153 29 214 -22 54 -20 87 9 126 14 19 25 30 25 25 0 -5 5 -4 12 3 18
18 46 15 65 -7 9 -11 22 -17 29 -14 11 4 10 8 -2 20 -9 9 -11 19 -7 22 5 3 9
23 9 43 0 20 7 45 16 55 8 10 13 24 11 31 -3 8 1 10 11 6 9 -3 16 -1 16 5 0 6
6 11 14 11 7 0 21 21 31 48 10 26 22 53 28 59 6 9 6 22 -1 40 -6 16 -13 43
-16 62 -4 19 -14 43 -24 54 -9 10 -16 21 -14 23 13 22 -34 89 -74 104 -17 7
-24 20 -30 55 -7 48 -2 117 12 149 6 16 4 18 -12 11 -28 -11 -52 -8 -70 9 -8
9 -19 16 -24 16 -5 0 -15 2 -23 6 -9 3 -20 -7 -31 -29z m-979 -1083 c-3 -3
-12 -4 -19 -1 -8 3 -5 6 6 6 11 1 17 -2 13 -5z m-4 -21 c-7 -2 -19 -2 -25 0
-7 3 -2 5 12 5 14 0 19 -2 13 -5z m-1058 -729 c-9 -9 -19 -13 -23 -10 -3 4 0
11 8 16 24 15 33 11 15 -6z m-761 -310 c20 -8 21 -44 1 -44 -8 0 -15 9 -15 19
0 11 -6 22 -12 24 -9 4 -9 6 -1 6 6 1 18 -2 27 -5z m231 -344 c10 -17 -5 -33
-19 -21 -7 6 -16 8 -19 4 -4 -3 -7 -2 -7 4 0 22 33 32 45 13z"/>
<path d="M4298 3830 c-29 -32 -36 -56 -17 -62 8 -3 6 -9 -4 -20 -9 -8 -14 -18
-11 -21 11 -11 63 15 78 38 20 30 20 35 1 35 -11 0 -13 8 -8 30 7 38 -5 38
-39 0z"/>
<path d="M2987 3344 c-16 -16 -6 -35 16 -32 12 2 22 10 22 18 0 16 -26 25 -38
14z"/>
<path d="M2924 3289 c-7 -12 15 -31 28 -23 4 3 8 12 8 20 0 17 -26 19 -36 3z"/>
<path d="M4560 2946 c0 -8 5 -18 10 -21 6 -3 10 3 10 14 0 12 -4 21 -10 21 -5
0 -10 -6 -10 -14z"/>
<path d="M2003 2922 c-6 -4 -15 -21 -19 -37 -4 -17 -10 -35 -15 -40 -12 -16
-15 -60 -4 -64 6 -2 14 6 20 18 5 11 13 21 17 21 5 0 8 10 8 23 0 13 4 27 9
33 5 5 12 19 16 32 7 23 -8 29 -32 14z"/>
<path d="M3248 2893 c-21 -5 -24 -19 -5 -26 18 -6 37 3 37 19 0 14 -3 15 -32
7z"/>
<path d="M4590 2770 c0 -5 5 -10 10 -10 6 0 10 5 10 10 0 6 -4 10 -10 10 -5 0
-10 -4 -10 -10z"/>
<path d="M4615 2720 c-3 -5 -1 -10 4 -10 6 0 11 5 11 10 0 6 -2 10 -4 10 -3 0
-8 -4 -11 -10z"/>
<path d="M2080 2700 c0 -11 7 -20 15 -20 8 0 15 9 15 20 0 11 -7 20 -15 20 -8
0 -15 -9 -15 -20z"/>
<path d="M2716 2691 c-4 -5 3 -7 14 -4 23 6 26 13 6 13 -8 0 -17 -4 -20 -9z"/>
<path d="M1928 2543 c7 -3 16 -2 19 1 4 3 -2 6 -13 5 -11 0 -14 -3 -6 -6z"/>
<path d="M4656 2533 c-3 -3 -3 -10 0 -14 7 -12 34 -11 34 0 0 11 -26 22 -34
14z"/>
<path d="M1931 2523 c-1 -11 -71 -89 -71 -79 0 3 -13 0 -29 -5 -22 -8 -28 -15
-24 -30 8 -30 66 -19 69 13 3 33 5 36 27 34 14 -2 29 6 40 21 10 12 14 23 8
23 -5 0 -12 8 -14 18 -3 9 -5 12 -6 5z"/>
<path d="M2125 2200 c3 -5 10 -10 16 -10 5 0 9 5 9 10 0 6 -7 10 -16 10 -8 0
-12 -4 -9 -10z"/>
<path d="M2092 2178 c-14 -14 -16 -28 -3 -28 9 0 24 30 18 36 -2 2 -9 -2 -15
-8z"/>
<path d="M2420 1930 c-8 -14 -15 -29 -15 -35 -1 -5 -7 -21 -14 -34 -9 -15 -10
-26 -3 -33 14 -14 54 66 50 100 l-3 27 -15 -25z"/>
<path d="M2270 1840 c-19 -12 -2 -44 27 -48 23 -3 51 25 37 37 -16 15 -49 21
-64 11z"/>
<path d="M2058 1336 c-14 -8 -42 -19 -62 -26 -42 -13 -50 -23 -41 -50 8 -26
37 -26 60 0 10 11 14 20 9 20 -5 0 8 12 29 27 20 14 37 30 37 35 0 10 0 10
-32 -6z"/>
<path d="M2145 1300 c-3 -5 1 -10 9 -10 9 0 16 5 16 10 0 6 -4 10 -9 10 -6 0
-13 -4 -16 -10z"/>
<path d="M1880 1172 c0 -35 9 -45 26 -31 10 8 10 16 2 35 -15 32 -28 30 -28
-4z"/>
<path d="M1800 1071 c-18 -5 -21 -9 -11 -15 8 -5 19 -2 29 8 9 9 14 16 12 15
-3 -1 -16 -4 -30 -8z"/>
<path d="M5280 989 c0 -11 4 -18 10 -14 5 3 7 12 3 20 -7 21 -13 19 -13 -6z"/>
<path d="M1688 897 c-23 -27 -29 -29 -37 -17 -8 12 -13 12 -23 2 -10 -10 -10
-14 1 -21 10 -6 6 -13 -18 -27 -17 -10 -31 -26 -31 -36 0 -9 -4 -20 -10 -23
-5 -3 -10 -15 -10 -26 0 -29 34 -20 38 9 2 13 10 26 17 28 8 3 11 12 9 19 -4
8 8 18 30 26 20 7 36 19 36 27 0 7 4 11 9 8 13 -9 44 31 38 49 -9 22 -19 18
-49 -18z"/>
<path d="M5266 877 c3 -10 9 -15 12 -12 3 3 0 11 -7 18 -10 9 -11 8 -5 -6z"/>
<path d="M1320 800 c0 -5 7 -10 16 -10 8 0 12 5 9 10 -3 6 -10 10 -16 10 -5 0
-9 -4 -9 -10z"/>
<path d="M2475 670 c-3 -5 -1 -10 4 -10 6 0 11 5 11 10 0 6 -2 10 -4 10 -3 0
-8 -4 -11 -10z"/>
<path d="M950 402 c0 -17 6 -22 27 -22 14 0 24 1 22 3 -2 1 -14 11 -26 21 -23
19 -23 19 -23 -2z"/>
<path d="M5050 389 c0 -5 5 -7 10 -4 6 3 10 8 10 11 0 2 -4 4 -10 4 -5 0 -10
-5 -10 -11z"/>
<path d="M690 325 c-7 -8 -19 -15 -26 -15 -8 0 -11 -6 -8 -15 9 -23 30 -18 43
11 14 31 9 41 -9 19z"/>
<path d="M553 286 c-15 -17 -7 -26 22 -26 30 0 52 25 29 34 -24 9 -38 7 -51
-8z"/>
</g>
</svg>
