<?xml version="1.0" standalone="no"?>
<!DOCTYPE svg PUBLIC "-//W3C//DTD SVG 20010904//EN"
 "http://www.w3.org/TR/2001/REC-SVG-20010904/DTD/svg10.dtd">
<svg version="1.0" xmlns="http://www.w3.org/2000/svg"
 width="831.000000pt" height="1024.000000pt" viewBox="0 0 831.000000 1024.000000"
 preserveAspectRatio="xMidYMid meet">
<metadata>
Created by potrace 1.16, written by Peter Selinger 2001-2019
</metadata>
<g transform="translate(0.000000,1024.000000) scale(0.100000,-0.100000)"
fill="#000000" stroke="none">
<path d="M6825 8904 c-253 -163 -489 -315 -525 -338 -141 -92 -1092 -703
-1130 -726 -43 -26 -759 -487 -1161 -746 -130 -84 -252 -159 -271 -167 -19 -8
-45 -29 -57 -46 -25 -34 -33 -34 -153 1 -52 15 -71 17 -88 8 -17 -9 -24 -8
-39 11 -15 18 -35 24 -137 35 -169 19 -225 29 -259 48 -19 10 -54 16 -92 16
-52 0 -64 3 -77 22 -34 49 -164 173 -216 206 -30 19 -72 50 -94 69 -29 27 -43
33 -60 28 -11 -4 -33 -7 -48 -6 -67 4 -105 2 -136 -4 -32 -7 -32 -7 -32 31 0
29 -12 56 -51 115 -46 70 -50 82 -44 117 5 34 3 40 -18 49 -14 7 -34 9 -45 6
-33 -8 -63 14 -56 41 4 19 1 25 -20 30 -17 4 -26 13 -26 26 0 25 -29 40 -79
40 -22 0 -43 4 -46 10 -3 5 -19 7 -34 4 -16 -4 -32 -1 -35 5 -4 6 -18 11 -31
11 -12 0 -25 7 -29 15 -10 28 -63 18 -105 -20 -21 -20 -59 -42 -84 -51 -28 -9
-48 -24 -55 -39 -10 -21 -16 -24 -42 -19 -43 9 -86 -12 -104 -51 -10 -21 -25
-35 -39 -37 -19 -3 -22 -8 -19 -38 2 -19 7 -39 12 -44 12 -12 -1 -120 -15
-128 -15 -9 -13 -66 3 -96 9 -15 10 -32 4 -55 -5 -17 -7 -37 -5 -43 2 -7 -5
-28 -17 -49 -16 -29 -18 -40 -9 -51 8 -10 9 -18 0 -27 -6 -8 -8 -17 -4 -21 6
-5 12 -148 14 -326 1 -14 5 -30 10 -36 8 -10 -1 -51 -24 -101 -5 -12 -7 -33
-3 -47 3 -13 2 -28 -4 -31 -5 -3 -10 -17 -10 -30 0 -13 -4 -27 -10 -30 -5 -3
-10 -20 -10 -36 0 -16 -9 -48 -21 -71 -17 -33 -19 -50 -14 -91 4 -29 13 -61
20 -72 7 -11 16 -40 19 -65 6 -38 3 -51 -18 -78 -20 -27 -23 -39 -16 -64 5
-16 14 -36 20 -43 7 -8 9 -24 5 -35 -4 -14 -1 -28 10 -40 14 -15 14 -21 4 -39
-11 -16 -11 -32 -2 -76 13 -62 13 -65 -27 -150 -15 -33 -37 -82 -48 -110 -29
-69 -72 -333 -72 -444 0 -138 -20 -208 -95 -336 -79 -134 -82 -155 -24 -227
55 -70 68 -97 75 -161 5 -46 2 -64 -19 -111 -14 -30 -39 -75 -56 -100 -28 -40
-31 -52 -31 -121 0 -69 -2 -78 -26 -100 -15 -14 -30 -25 -35 -25 -4 0 -23 -22
-43 -49 -31 -41 -37 -59 -42 -122 -6 -65 -11 -79 -40 -111 -23 -26 -34 -50
-39 -85 -12 -83 -24 -116 -73 -196 -94 -157 -120 -207 -127 -248 -7 -39 -38
-140 -69 -224 -18 -47 -11 -108 15 -145 27 -36 27 -90 1 -132 -13 -21 -26 -65
-31 -104 -5 -38 -14 -81 -20 -96 -8 -22 -6 -39 10 -85 15 -42 19 -76 17 -125
-4 -71 -4 -70 -81 -162 -32 -38 -41 -58 -54 -128 -9 -46 -22 -90 -28 -98 -7
-9 -15 -63 -18 -133 -5 -110 -8 -122 -41 -187 -20 -38 -36 -80 -36 -93 0 -14
-8 -42 -17 -63 -9 -22 -20 -61 -24 -89 -18 -119 -24 -141 -56 -202 -36 -70
-44 -141 -19 -162 27 -23 27 -70 -1 -129 -15 -31 -30 -84 -34 -117 -4 -33 -11
-80 -14 -105 l-7 -45 268 -52 c271 -52 841 -162 1513 -292 203 -39 369 -67
375 -62 176 135 836 683 850 705 11 17 116 191 234 386 117 195 217 359 222
363 7 8 169 44 990 217 239 50 443 94 453 98 12 5 62 109 148 307 71 165 143
329 159 365 l29 65 298 178 c164 97 304 181 312 186 15 9 -60 96 -540 631 -42
47 -204 229 -360 405 -156 176 -286 322 -289 325 -3 3 -39 43 -80 90 -41 47
-77 87 -80 90 -59 56 -560 634 -554 639 5 5 149 50 319 101 171 51 351 105
400 120 50 16 362 110 695 210 333 100 625 188 650 196 102 31 431 130 860
259 250 75 549 166 665 201 l210 64 80 79 c44 43 92 89 106 102 167 151 369
347 369 360 0 19 -69 220 -80 232 -4 5 -92 -16 -196 -47 -104 -30 -192 -52
-196 -48 -5 6 -43 119 -112 338 -6 19 1 24 56 44 35 13 66 26 70 29 4 3 -5 44
-18 91 -53 180 -458 1591 -488 1697 -17 62 -35 113 -41 113 -5 0 -217 -133
-470 -296z"/>
</g>
</svg>
