<?xml version="1.0" standalone="no"?>
<!DOCTYPE svg PUBLIC "-//W3C//DTD SVG 20010904//EN"
 "http://www.w3.org/TR/2001/REC-SVG-20010904/DTD/svg10.dtd">
<svg version="1.0" xmlns="http://www.w3.org/2000/svg"
 width="760.000000pt" height="432.000000pt" viewBox="0 0 760.000000 432.000000"
 preserveAspectRatio="xMidYMid meet">
<metadata>
Created by potrace 1.16, written by Peter Selinger 2001-2019
</metadata>
<g transform="translate(0.000000,432.000000) scale(0.100000,-0.100000)"
fill="#000000" stroke="none">
<path d="M4348 4178 c-3 -7 -11 -13 -19 -13 -34 -2 -110 -46 -119 -69 -5 -14
-19 -30 -30 -36 -31 -16 -294 -60 -364 -60 -33 0 -84 -8 -113 -17 -46 -14 -55
-21 -60 -46 -4 -22 -9 -26 -22 -20 -24 11 -96 9 -186 -5 -44 -7 -125 -20 -180
-28 -55 -9 -128 -21 -162 -27 -54 -10 -70 -9 -115 8 -51 18 -51 18 -67 -2 -9
-11 -22 -18 -29 -15 -10 3 -10 -2 0 -23 11 -24 9 -28 -17 -49 -32 -26 -28 -31
32 -41 52 -8 63 -22 26 -31 -74 -18 -64 -42 38 -90 79 -38 91 -51 65 -73 -10
-9 -24 -9 -57 0 -74 20 -102 16 -148 -21 -46 -37 -46 -39 -18 -115 19 -50 9
-69 -40 -86 -60 -19 -134 -59 -128 -69 3 -4 19 -12 36 -15 28 -6 30 -10 26
-35 -5 -25 -2 -28 33 -39 21 -6 47 -22 57 -35 10 -13 35 -28 55 -35 57 -19 62
-31 44 -95 -9 -30 -27 -68 -40 -83 -21 -25 -32 -28 -99 -31 -71 -4 -77 -3
-100 22 -31 34 -43 33 -56 -4 -6 -18 -21 -34 -37 -40 -23 -9 -33 -7 -63 14
-20 14 -48 28 -63 31 -38 10 -77 49 -84 84 -4 19 -15 33 -33 40 -53 22 -108
18 -116 -9 -10 -31 -68 -27 -89 5 -15 22 -23 25 -80 25 l-63 0 -74 -64 -74
-64 -29 16 c-16 9 -53 41 -82 70 -64 63 -88 68 -78 17 4 -25 1 -43 -10 -60
-21 -32 -34 -25 -28 14 5 38 -43 109 -102 150 -29 20 -45 40 -49 59 -7 34 -20
39 -120 48 l-67 7 -12 39 c-10 35 -14 39 -37 33 -53 -13 -91 -35 -91 -51 0
-12 -6 -15 -22 -10 -13 3 -31 6 -41 6 -13 0 -17 6 -15 22 2 18 -5 24 -44 37
-47 14 -48 14 -69 -14 -20 -24 -89 -75 -153 -112 -11 -7 -30 -13 -41 -13 -31
0 -65 -28 -65 -53 0 -18 -14 -30 -65 -55 -72 -35 -72 -35 -56 -150 l8 -53 -45
-26 -45 -27 -23 30 c-13 16 -24 34 -24 40 0 15 -78 134 -88 134 -4 0 -26 -30
-47 -67 -22 -38 -50 -76 -62 -86 -12 -10 -30 -42 -39 -72 -15 -47 -16 -60 -4
-94 15 -48 9 -66 -54 -161 l-44 -65 56 -30 56 -30 -3 -58 c-2 -45 2 -63 15
-78 13 -14 20 -16 30 -8 15 12 69 5 110 -13 42 -20 130 -170 149 -255 6 -32 6
-33 -29 -33 -19 0 -38 -5 -41 -10 -12 -20 17 -40 84 -60 76 -22 92 -20 186 27
72 36 199 83 225 83 11 0 29 -11 42 -25 13 -13 50 -33 83 -44 l60 -20 25 30
c24 28 28 29 52 18 17 -7 37 -32 54 -68 23 -50 26 -64 21 -131 -3 -41 -14 -99
-26 -129 -11 -30 -18 -57 -16 -61 2 -4 39 -20 82 -36 l78 -29 -72 -3 c-50 -2
-83 2 -110 14 -37 16 -201 54 -235 54 -10 0 -32 -13 -49 -28 -27 -24 -32 -36
-36 -95 -5 -59 -3 -70 13 -82 18 -13 17 -14 -13 -15 -17 0 -56 10 -87 21 -46
18 -61 20 -81 11 -38 -17 -32 -48 15 -77 53 -33 130 -181 130 -249 0 -38 3
-45 24 -50 13 -3 33 -21 44 -40 17 -29 31 -38 92 -56 39 -12 74 -28 77 -36 3
-9 -6 -41 -21 -72 -25 -55 -31 -78 -28 -114 2 -14 16 -10 90 25 148 70 235 62
325 -28 19 -19 44 -57 53 -83 25 -65 60 -119 82 -126 21 -7 66 7 77 23 3 6 17
145 30 309 13 163 29 357 35 429 6 73 13 139 16 147 7 17 34 27 159 56 50 11
127 32 171 45 104 32 160 32 200 3 117 -87 436 -404 484 -480 48 -77 59 -81
193 -67 85 8 133 8 202 -1 86 -12 166 -10 210 4 17 6 29 -9 83 -109 46 -83 68
-115 80 -113 19 3 19 2 -4 -136 -8 -49 -13 -90 -11 -92 1 -2 21 -9 42 -16 l40
-13 3 -77 c3 -87 -8 -79 132 -99 47 -6 90 -16 96 -21 7 -5 15 -25 19 -46 8
-42 27 -67 67 -88 40 -21 48 -17 48 22 0 29 8 44 45 80 25 24 45 48 45 54 0 6
30 25 68 43 37 19 99 51 137 73 39 22 78 38 87 36 11 -2 30 17 57 56 45 66 91
109 126 118 29 7 66 -4 217 -67 65 -27 120 -49 122 -49 3 0 10 25 16 55 14 68
34 88 103 105 60 14 69 11 165 -54 75 -50 124 -64 155 -43 21 13 41 14 143 7
65 -5 144 -16 174 -24 30 -9 84 -18 120 -21 108 -10 147 -24 193 -70 27 -28
57 -47 85 -54 25 -7 48 -22 58 -36 23 -36 34 -22 34 44 0 59 11 81 42 81 13 0
18 8 18 25 0 17 8 29 25 37 32 14 32 47 4 178 -13 61 -19 121 -17 169 l3 74
-42 14 c-24 8 -43 21 -43 28 0 14 27 21 209 56 l113 22 42 -21 c48 -25 110
-34 125 -19 17 17 13 51 -9 70 -11 9 -20 25 -20 35 0 22 144 378 161 398 17
20 24 18 91 -23 52 -32 71 -38 137 -43 69 -5 76 -7 79 -27 l3 -22 52 28 c29
16 64 31 78 35 38 8 48 41 42 137 -4 70 -1 93 16 141 23 60 27 63 104 74 59 8
103 42 112 87 12 59 15 64 55 82 22 10 40 20 40 23 0 2 -17 25 -38 51 -52 63
-55 68 -42 92 17 31 9 31 -40 -1 -54 -36 -97 -38 -173 -9 -54 21 -55 22 -71
80 -12 42 -25 64 -45 79 -16 11 -32 20 -36 20 -4 0 -20 9 -36 21 -21 15 -29
29 -29 51 0 37 -53 136 -87 162 -43 32 -92 32 -159 -2 -54 -27 -67 -30 -129
-25 -101 6 -112 10 -119 38 -5 18 -15 27 -36 32 -28 5 -30 8 -24 38 5 29 3 33
-29 49 -47 22 -87 6 -87 -35 0 -21 -10 -34 -44 -58 l-45 -30 -17 52 c-32 98
-186 471 -231 561 -67 133 -128 221 -216 312 -109 112 -117 127 -73 144 25 9
46 38 46 61 0 19 -96 1 -166 -32 -35 -16 -68 -29 -73 -29 -6 0 -20 -13 -32
-30 -16 -20 -42 -36 -84 -50 -66 -22 -99 -46 -110 -80 -6 -20 -7 -20 -37 5
-34 28 -84 33 -114 10 -29 -22 -42 -18 -49 14 -8 40 8 68 50 86 24 9 35 21 35
34 0 20 -1 20 -40 5 -40 -16 -41 -16 -78 9 -20 14 -58 35 -83 46 -35 14 -49
27 -57 50 -13 35 -27 40 -35 11 -3 -13 -14 -20 -30 -20 -14 0 -29 -4 -32 -10
-8 -13 -81 -13 -106 0 -25 14 -23 45 5 99 l23 44 -23 35 c-18 26 -23 46 -22
88 1 44 -3 59 -20 76 -20 21 -22 21 -64 5 -58 -22 -61 -22 -100 13 -18 17 -58
38 -88 47 -30 9 -60 18 -66 20 -7 2 -14 -2 -16 -9z"/>
</g>
</svg>
