<?xml version="1.0" standalone="no"?>
<!DOCTYPE svg PUBLIC "-//W3C//DTD SVG 20010904//EN"
 "http://www.w3.org/TR/2001/REC-SVG-20010904/DTD/svg10.dtd">
<svg version="1.0" xmlns="http://www.w3.org/2000/svg"
 width="1024.000000pt" height="768.000000pt" viewBox="0 0 1024.000000 768.000000"
 preserveAspectRatio="xMidYMid meet">
<metadata>
Created by potrace 1.16, written by Peter Selinger 2001-2019
</metadata>
<g transform="translate(0.000000,768.000000) scale(0.100000,-0.100000)"
fill="#000000" stroke="none">
<path d="M3275 7334 c-24 -14 -49 -22 -62 -19 -29 7 -432 -144 -553 -207 -85
-44 -111 -65 -243 -196 -137 -137 -146 -148 -130 -162 24 -20 45 -76 47 -123
1 -21 7 -42 14 -46 7 -4 11 -22 10 -42 -3 -34 -3 -34 37 -31 l40 2 -24 -18
c-15 -12 -20 -22 -13 -26 6 -4 8 -14 5 -23 -5 -14 -1 -15 25 -10 27 6 34 3 49
-21 9 -15 18 -28 19 -30 1 -2 10 2 21 8 15 10 25 8 56 -11 37 -23 38 -26 34
-73 -3 -34 -11 -54 -25 -65 -17 -14 -19 -23 -13 -61 4 -25 11 -52 16 -59 4 -8
11 -39 14 -70 6 -51 9 -57 40 -73 41 -20 46 -29 55 -88 9 -62 52 -123 81 -116
33 8 51 -13 65 -74 17 -76 47 -133 66 -126 9 3 17 -1 20 -12 3 -9 10 -25 15
-34 14 -27 11 -42 -11 -61 -27 -23 -26 -34 20 -145 31 -76 38 -105 34 -133 -4
-22 -1 -46 7 -60 29 -52 0 -279 -36 -279 -18 0 -42 -31 -51 -64 -4 -16 -18
-39 -32 -51 -23 -20 -23 -23 -12 -62 17 -56 10 -69 -44 -77 -25 -4 -48 -12
-52 -17 -3 -6 -17 -15 -31 -20 -14 -5 -27 -19 -30 -30 -4 -14 -12 -19 -24 -16
-25 7 -49 -23 -56 -69 -10 -64 -58 -149 -91 -163 -20 -9 -32 -22 -35 -41 -7
-33 -18 -44 -67 -68 -25 -12 -38 -28 -48 -57 -7 -22 -20 -54 -29 -71 -9 -20
-12 -41 -8 -55 5 -16 2 -27 -12 -38 -17 -13 -57 -64 -118 -147 -6 -9 -2 -44
14 -107 l24 -93 -17 -134 c-22 -173 -31 -338 -22 -423 7 -66 8 -67 37 -67 17
0 35 -4 42 -10 7 -5 46 -27 87 -48 78 -41 307 -166 670 -369 118 -66 240 -134
270 -150 30 -16 321 -177 645 -358 325 -180 676 -375 780 -433 105 -57 193
-109 196 -115 4 -5 12 -43 19 -85 13 -84 6 -112 -36 -131 -25 -11 -45 -62 -27
-68 6 -2 9 -13 6 -23 -4 -16 0 -20 23 -21 49 -1 66 -13 83 -59 11 -29 29 -53
53 -70 46 -32 687 -491 871 -623 l138 -100 29 28 c27 26 32 28 66 17 43 -13
67 -6 61 19 -3 10 1 20 8 23 8 3 15 -3 17 -12 2 -9 14 11 26 46 13 34 29 62
36 62 8 0 24 34 40 86 15 47 36 100 46 117 26 41 25 66 -1 75 -18 7 -19 10 -6
20 12 10 16 9 21 -3 10 -26 32 -16 52 22 10 21 24 43 31 48 17 15 75 187 69
207 -2 10 -1 20 4 23 4 3 11 17 15 32 18 76 59 141 103 170 66 41 74 52 68 87
-3 19 0 38 9 50 8 11 15 29 15 41 0 12 11 32 25 45 28 26 34 56 10 46 -9 -3
-15 0 -15 8 0 8 -5 16 -11 18 -9 3 -9 13 0 41 7 20 10 45 6 56 -11 35 72 141
110 141 7 0 18 6 24 13 18 22 114 41 139 28 33 -18 52 -13 83 20 17 18 44 40
61 49 18 9 38 26 45 37 12 18 12 23 -2 36 -20 21 -19 34 5 60 16 17 24 19 38
11 9 -6 18 -21 20 -33 4 -28 16 -27 41 5 16 20 18 31 10 45 -5 10 -16 19 -23
19 -17 0 -26 22 -26 61 0 22 5 29 19 29 10 0 21 6 24 14 4 9 14 12 28 9 l22
-6 -25 -13 c-13 -7 -30 -25 -37 -40 -11 -25 -10 -30 5 -41 10 -7 24 -13 31
-13 17 0 17 20 1 20 -7 1 0 8 15 16 15 8 36 13 45 10 24 -7 65 26 57 46 -4 9
-20 22 -36 28 -38 16 -28 30 22 30 27 0 39 4 39 14 0 12 7 13 33 5 31 -9 34
-7 87 49 110 118 130 147 130 191 0 43 19 16 -279 396 l-126 160 -3 1335 -3
1334 144 146 c130 130 164 172 331 412 102 146 186 269 186 273 0 3 -15 3 -34
0 -23 -5 -44 -1 -66 10 -26 14 -38 15 -58 6 -13 -7 -32 -9 -42 -6 -10 3 -48
-1 -84 -9 -90 -21 -234 -23 -273 -3 -16 9 -41 34 -56 56 -15 22 -42 48 -59 57
-18 9 -47 30 -64 48 -17 17 -44 41 -59 54 -26 22 -27 22 -53 4 -15 -10 -73
-36 -130 -57 -57 -21 -113 -46 -125 -55 -24 -19 -111 -50 -138 -50 -10 0 -19
-4 -21 -9 -1 -5 -55 -34 -119 -65 l-116 -55 -28 -68 c-23 -53 -44 -82 -97
-131 -40 -38 -72 -78 -78 -98 -13 -38 -31 -43 -51 -14 -10 15 -26 20 -61 22
-30 1 -49 6 -52 15 -4 10 -10 11 -25 3 -29 -15 -67 -12 -111 9 -31 15 -53 18
-99 14 -82 -8 -198 21 -228 56 -13 15 -23 20 -23 12 0 -17 -68 -6 -92 16 -15
13 -19 12 -38 -7 -21 -21 -27 -22 -114 -14 -50 4 -107 8 -126 9 -52 3 -76 14
-91 42 -8 14 -32 37 -54 51 -250 156 -618 398 -622 409 -3 7 -11 13 -19 13 -7
0 -17 6 -21 13 -4 7 -33 22 -63 34 -61 24 -209 34 -505 34 -148 0 -163 2 -192
22 -19 12 -33 31 -33 42 -1 56 -9 65 -66 65 -48 0 -54 2 -54 21 0 32 -52 22
-60 -11 -5 -18 -12 -24 -26 -22 -29 6 -43 21 -70 75 -25 48 -25 49 -8 93 9 24
14 47 10 51 -3 3 -31 8 -61 11 -50 4 -54 6 -44 24 10 19 4 59 -9 57 -4 0 -25
-12 -47 -25z"/>
</g>
</svg>
