<?xml version="1.0" standalone="no"?>
<!DOCTYPE svg PUBLIC "-//W3C//DTD SVG 20010904//EN"
 "http://www.w3.org/TR/2001/REC-SVG-20010904/DTD/svg10.dtd">
<svg version="1.0" xmlns="http://www.w3.org/2000/svg"
 width="1024.000000pt" height="1024.000000pt" viewBox="0 0 1024.000000 1024.000000"
 preserveAspectRatio="xMidYMid meet">
<metadata>
Created by potrace 1.16, written by Peter Selinger 2001-2019
</metadata>
<g transform="translate(0.000000,1024.000000) scale(0.100000,-0.100000)"
fill="#000000" stroke="none">
<path d="M3032 8041 c-57 -20 -105 -58 -129 -105 -12 -23 -14 -50 -10 -111 5
-91 23 -138 86 -225 51 -70 79 -128 134 -281 45 -124 77 -259 77 -327 0 -28 3
-33 12 -24 15 15 53 16 78 2 16 -9 21 -6 26 15 3 14 3 32 0 41 -3 8 1 28 9 44
14 27 14 30 -8 45 -20 14 -22 14 -25 0 -2 -8 -9 -15 -16 -15 -7 0 -19 -11 -26
-25 -18 -33 -30 -32 -30 4 0 16 -7 45 -15 64 -8 20 -15 56 -15 79 0 24 -7 56
-15 72 -8 15 -15 45 -15 65 0 20 -11 57 -25 83 -14 26 -25 60 -25 77 0 68 41
125 101 141 21 6 52 22 68 36 17 14 47 28 67 31 29 5 39 12 50 39 17 40 40 48
96 34 54 -15 70 -28 63 -51 -5 -13 0 -20 17 -24 13 -3 32 -22 43 -43 12 -23
35 -44 58 -55 40 -19 50 -53 22 -77 -20 -17 -19 -27 4 -33 25 -6 55 -53 47
-73 -6 -17 -7 -17 -92 3 -27 6 -33 -11 -27 -70 l6 -47 45 0 c33 0 54 -7 78
-25 36 -28 38 -27 48 28 12 63 62 95 106 67 12 -7 12 -12 0 -35 -12 -22 -12
-28 1 -40 13 -14 19 -14 48 1 42 21 77 7 120 -46 19 -24 43 -41 63 -45 52 -12
77 -33 84 -73 4 -21 10 -44 15 -53 4 -9 58 -38 118 -65 145 -64 202 -106 220
-163 21 -65 6 -88 -54 -86 -44 2 -49 0 -59 -26 -11 -32 -26 -38 -26 -12 0 9
-18 33 -40 54 -21 21 -34 39 -28 41 7 3 17 26 24 54 7 27 15 59 19 71 9 27
-24 40 -57 22 -33 -17 -39 -30 -32 -70 4 -27 1 -38 -10 -42 -23 -9 -46 31 -46
79 0 34 -4 43 -25 52 -41 19 -45 15 -45 -43 l0 -55 -31 2 c-37 3 -47 -13 -23
-36 11 -12 25 -15 44 -11 38 8 60 -18 36 -44 -26 -29 -11 -53 29 -45 36 6 40
4 50 -43 6 -30 4 -33 -17 -33 l-23 -1 24 -19 c13 -11 34 -20 47 -20 33 0 37
-13 24 -75 -12 -56 -6 -81 28 -114 21 -22 11 -110 -18 -151 -33 -47 -38 -117
-10 -152 27 -35 47 -35 62 -3 15 34 34 31 75 -10 33 -33 35 -38 29 -83 -19
-134 -6 -174 34 -110 19 29 21 43 16 130 -4 78 -2 99 10 109 21 17 61 2 87
-33 19 -26 20 -29 4 -46 -21 -23 -22 -46 -2 -62 20 -17 19 -33 -5 -55 -22 -20
-28 -79 -9 -91 7 -4 9 -21 5 -47 -6 -33 -3 -44 15 -63 18 -20 20 -27 11 -54
-8 -21 -8 -39 -1 -57 9 -25 0 -42 -23 -43 -5 0 -8 -23 -8 -51 0 -49 -1 -51
-25 -47 -34 7 -33 -19 1 -34 19 -9 24 -17 19 -32 -12 -35 -11 -69 2 -73 6 -2
14 5 18 16 8 27 33 34 45 11 14 -25 5 -44 -36 -75 -39 -30 -57 -25 -48 11 3
13 2 24 -4 24 -14 0 -53 -96 -46 -114 7 -18 30 -21 39 -6 9 15 45 12 45 -4 0
-8 3 -22 7 -32 5 -14 3 -16 -12 -11 -16 7 -17 3 -12 -46 6 -62 -10 -108 -47
-132 -21 -14 -33 -15 -73 -7 -26 6 -69 8 -95 5 -47 -5 -48 -5 -48 22 0 19 15
41 50 77 53 54 67 98 31 98 -13 0 -21 -9 -26 -30 -7 -31 -19 -38 -30 -19 -14
22 6 59 40 73 28 12 35 20 35 43 0 16 -5 34 -12 41 -9 9 -9 18 0 37 7 14 12
40 12 58 0 18 5 39 10 47 6 10 4 20 -7 32 -13 15 -14 23 -5 43 10 21 9 27 -3
31 -24 10 -32 -3 -39 -60 -5 -36 -3 -61 5 -74 10 -16 9 -24 -4 -43 -10 -13
-17 -42 -17 -65 0 -33 -4 -43 -19 -47 -11 -2 -29 -24 -41 -47 -16 -31 -25 -40
-38 -35 -9 3 -30 9 -47 11 -67 11 -74 15 -82 41 -7 21 -4 44 13 93 20 56 27
66 51 71 38 7 93 32 93 41 0 16 -41 18 -69 4 -37 -20 -62 -20 -87 -2 -15 12
-17 17 -6 27 20 22 14 55 -13 67 -17 8 -25 20 -25 37 0 19 -8 28 -34 39 -23 9
-42 28 -55 53 -25 50 -84 113 -105 113 -9 0 -16 -6 -15 -12 4 -37 -1 -41 -43
-34 l-42 7 24 -26 c23 -24 23 -27 7 -36 -18 -11 -24 -64 -7 -74 22 -14 7 -33
-34 -44 -24 -6 -49 -17 -56 -26 -8 -9 -30 -15 -59 -15 -26 0 -56 -7 -67 -15
-10 -8 -33 -15 -51 -15 -25 0 -35 -6 -45 -27 -14 -30 -48 -44 -48 -20 0 25 39
64 70 71 28 5 30 8 20 26 -16 29 -3 76 25 94 39 26 89 20 128 -14 41 -35 47
-37 47 -10 0 11 -4 20 -10 20 -15 0 -12 32 5 54 9 12 15 42 15 79 0 58 0 58
28 56 29 -3 52 6 52 21 0 5 -10 18 -22 29 -18 18 -20 24 -10 46 16 35 16 37
-15 33 -17 -2 -32 -13 -43 -33 -10 -17 -25 -30 -36 -30 -16 0 -19 -7 -19 -43
0 -31 -5 -46 -17 -53 -13 -7 -18 -22 -18 -49 0 -37 -2 -40 -28 -40 -16 0 -37
9 -47 20 -32 36 -57 22 -35 -20 8 -15 5 -19 -14 -24 -25 -6 -40 -36 -50 -97
-5 -28 -16 -43 -51 -68 -49 -35 -58 -54 -59 -125 -1 -46 -4 -52 -40 -77 -22
-14 -43 -36 -47 -48 -6 -14 -17 -21 -34 -21 -14 0 -28 -7 -31 -15 -4 -8 -10
-15 -15 -15 -15 0 -10 30 7 47 20 21 14 67 -9 71 -25 5 -57 -26 -57 -54 0 -49
-74 -51 -108 -2 -12 16 -22 19 -51 14 -25 -4 -44 -1 -58 9 -18 13 -22 12 -38
-5 -10 -11 -26 -20 -37 -20 -10 0 -28 -11 -40 -25 -16 -19 -31 -25 -61 -25
-22 0 -57 -5 -79 -12 -34 -10 -44 -9 -69 6 -29 17 -31 17 -71 -4 -30 -16 -50
-19 -82 -15 -30 5 -51 1 -81 -14 -21 -12 -55 -21 -75 -21 -36 0 -80 -23 -80
-41 0 -5 11 -14 25 -19 14 -5 28 -18 31 -27 3 -10 10 -26 16 -37 13 -25 -4
-36 -57 -36 -23 0 -53 -9 -70 -20 -41 -27 -81 -25 -117 5 -16 14 -55 32 -86
40 -81 22 -87 27 -90 72 -4 47 27 93 62 93 33 0 46 -19 46 -67 l0 -43 79 0
c53 0 83 4 88 13 14 22 3 170 -15 190 -14 16 -14 18 1 30 11 7 22 38 28 77 6
36 13 75 15 88 3 13 16 27 32 33 15 6 41 26 58 45 20 22 41 34 57 34 41 0 75
17 125 64 53 49 91 70 143 80 47 8 60 24 104 126 46 105 49 108 94 115 53 9
110 36 127 59 14 21 20 97 7 109 -3 4 -14 -4 -22 -17 -26 -39 -140 -117 -195
-133 -40 -11 -63 -28 -106 -73 -62 -65 -122 -106 -256 -173 -95 -48 -104 -58
-119 -134 -4 -22 -21 -45 -51 -69 -28 -23 -55 -59 -74 -98 -25 -52 -37 -65
-82 -90 -160 -88 -278 -192 -278 -245 0 -58 256 -387 332 -427 15 -8 51 -14
81 -14 42 0 63 6 101 30 26 17 82 48 124 70 70 37 83 40 154 40 68 0 80 3 104
25 25 23 28 24 57 9 27 -15 31 -15 39 0 8 14 13 13 37 -12 16 -15 75 -47 132
-71 104 -44 154 -78 165 -113 3 -10 12 -18 19 -18 11 0 14 14 13 56 -1 47 -6
59 -27 76 -22 17 -35 19 -80 15 -51 -6 -57 -4 -91 26 -20 18 -49 41 -64 52
-32 24 -28 52 11 61 19 5 30 -1 56 -30 27 -30 43 -39 98 -50 57 -12 72 -20
119 -65 48 -46 53 -54 42 -72 -10 -16 -10 -24 3 -42 24 -35 19 -76 -11 -87
-26 -10 -25 -19 7 -55 31 -36 58 -98 73 -171 25 -119 53 -180 113 -244 101
-110 352 -322 495 -419 73 -49 122 -63 253 -71 77 -5 163 -19 240 -38 303 -76
336 -80 545 -56 40 4 67 1 100 -11 125 -47 155 -55 239 -65 97 -11 124 -20
186 -61 60 -40 132 -74 210 -99 128 -42 288 -113 360 -162 40 -26 102 -81 139
-122 61 -69 73 -77 153 -108 86 -33 100 -44 195 -146 32 -36 43 -41 95 -47 87
-10 93 -13 157 -78 39 -39 82 -70 125 -90 96 -44 123 -68 166 -147 47 -86 95
-125 174 -140 77 -16 211 -56 299 -91 92 -37 129 -37 311 1 126 25 338 50 433
50 43 0 112 69 138 136 22 61 25 112 9 164 -6 19 -12 105 -14 190 -6 272 -52
435 -151 533 -66 67 -111 85 -224 91 -128 7 -220 34 -375 111 -111 56 -142 67
-212 75 -104 13 -128 24 -343 151 -96 57 -225 128 -286 159 -61 30 -132 74
-157 97 -50 46 -96 63 -176 63 -74 0 -171 25 -257 66 -71 33 -247 165 -334
250 -47 46 -90 64 -149 64 -27 0 -42 9 -71 39 -56 59 -143 187 -183 271 -47
97 -56 168 -67 550 -5 166 -14 312 -20 335 -24 82 -23 99 4 132 32 38 43 63
105 246 60 177 90 236 145 291 35 36 55 46 114 61 42 10 89 30 114 47 23 17
64 37 92 44 62 16 90 46 111 118 54 186 31 297 -87 414 -98 98 -212 136 -438
147 -309 15 -463 38 -628 97 -93 33 -145 62 -210 118 -23 21 -75 54 -115 75
-138 72 -211 127 -324 242 -95 96 -116 124 -134 174 -38 104 -116 162 -237
179 -37 5 -98 22 -137 39 l-70 30 -315 0 c-279 0 -321 -2 -368 -18z"/>
<path d="M3379 7704 c-7 -9 -12 -31 -12 -50 2 -67 55 -112 115 -99 35 8 48 31
48 87 0 49 -13 80 -23 54 -9 -24 -64 -21 -77 4 -13 24 -33 26 -51 4z"/>
<path d="M3561 7537 c-12 -15 -5 -27 16 -27 7 0 13 9 13 20 0 23 -13 26 -29 7z"/>
<path d="M3830 7290 c-19 -10 -44 -27 -54 -39 -20 -22 -46 -28 -46 -11 0 6 -8
10 -18 10 -10 0 -22 4 -27 9 -6 5 -27 12 -47 15 -31 6 -38 4 -38 -9 0 -31 20
-53 64 -70 44 -17 46 -17 86 4 22 11 51 21 63 21 12 1 37 14 56 30 29 25 32
32 21 45 -15 18 -15 18 -60 -5z"/>
<path d="M3117 6541 c-28 -42 -22 -60 13 -41 23 12 37 57 23 71 -6 6 -19 -4
-36 -30z"/>
<path d="M4552 5924 c1 -9 9 -19 16 -22 9 -3 13 2 10 14 -1 9 -9 19 -16 22 -9
3 -13 -2 -10 -14z"/>
<path d="M4467 5862 c-10 -10 -17 -31 -17 -45 0 -29 14 -36 24 -12 9 26 27 17
20 -10 -5 -21 -3 -25 15 -25 27 0 41 48 19 64 -8 6 -17 19 -21 29 -8 22 -20
22 -40 -1z"/>
<path d="M4463 5733 c-7 -3 -13 -15 -13 -27 0 -24 25 -51 63 -70 12 -7 22 -21
22 -31 0 -13 8 -21 23 -23 24 -4 30 16 10 36 -10 10 -10 15 1 21 7 5 11 17 9
27 -3 15 -12 19 -43 19 -32 0 -40 4 -43 20 -5 25 -14 34 -29 28z"/>
<path d="M4290 5416 c0 -14 29 -31 38 -22 2 3 2 12 -1 21 -8 19 -37 20 -37 1z"/>
<path d="M2080 5116 c0 -33 79 -62 95 -35 4 5 -1 19 -11 30 -21 23 -84 27 -84
5z"/>
</g>
</svg>
