<?xml version="1.0" standalone="no"?>
<!DOCTYPE svg PUBLIC "-//W3C//DTD SVG 20010904//EN"
 "http://www.w3.org/TR/2001/REC-SVG-20010904/DTD/svg10.dtd">
<svg version="1.0" xmlns="http://www.w3.org/2000/svg"
 width="876.000000pt" height="956.000000pt" viewBox="0 0 876.000000 956.000000"
 preserveAspectRatio="xMidYMid meet">
<metadata>
Created by potrace 1.16, written by Peter Selinger 2001-2019
</metadata>
<g transform="translate(0.000000,956.000000) scale(0.100000,-0.100000)"
fill="#000000" stroke="none">
<path d="M3882 9314 c-26 -18 -28 -31 -6 -55 12 -13 14 -28 9 -58 -8 -46 -11
-47 -62 -26 -25 11 -51 13 -84 9 -41 -5 -57 -2 -100 20 -47 25 -52 26 -74 12
-14 -9 -27 -30 -30 -49 -5 -25 -22 -45 -66 -81 -32 -26 -59 -54 -59 -61 0 -8
-11 -27 -24 -42 -23 -27 -27 -28 -105 -25 -46 2 -81 -1 -81 -7 0 -17 -33 -21
-55 -7 -21 14 -28 13 -64 -1 -39 -15 -44 -15 -79 1 -36 17 -37 17 -54 -4 -27
-34 -22 -48 26 -71 32 -14 48 -29 55 -51 15 -42 15 -42 -13 -75 -15 -17 -21
-34 -17 -41 4 -7 41 -21 83 -31 94 -22 159 -64 171 -110 5 -22 5 -37 -2 -44
-23 -23 -11 -47 32 -67 58 -28 131 -139 122 -187 -3 -18 -8 -50 -11 -70 -10
-62 -50 -93 -137 -108 -36 -6 -38 -8 -35 -38 2 -27 8 -33 33 -37 26 -5 30 -9
28 -35 -1 -17 -5 -44 -8 -60 -5 -23 -1 -36 15 -55 28 -33 22 -54 -18 -58 -21
-2 -38 -12 -48 -27 -8 -13 -26 -26 -39 -29 -19 -5 -25 -15 -32 -58 -8 -49 -11
-53 -34 -50 -15 1 -32 -4 -39 -13 -20 -24 -59 -18 -92 16 -25 24 -36 29 -59
24 -32 -7 -44 -20 -53 -58 -4 -16 -16 -31 -30 -37 -23 -8 -83 -115 -104 -185
-13 -45 -46 -45 -73 -1 -12 20 -28 36 -36 36 -8 0 -46 -30 -84 -67 -68 -67
-69 -68 -69 -120 0 -48 -3 -55 -25 -63 -32 -12 -36 -60 -5 -60 13 0 24 -10 30
-25 5 -14 19 -35 30 -47 12 -13 20 -36 20 -55 0 -28 4 -33 33 -41 21 -5 33
-15 35 -28 2 -14 16 -24 48 -32 35 -10 45 -16 40 -28 -3 -9 -6 -20 -6 -24 0
-5 -19 -10 -42 -12 -34 -2 -44 -7 -46 -23 -7 -35 -23 -45 -76 -45 -56 0 -110
-26 -120 -57 -3 -10 -26 -30 -50 -45 -36 -21 -47 -35 -56 -67 -7 -27 -16 -41
-27 -41 -9 0 -24 -7 -34 -16 -25 -22 -56 -13 -110 34 -24 21 -52 41 -61 45
-23 8 -143 -37 -186 -69 -31 -24 -34 -25 -64 -10 -17 9 -37 16 -44 16 -17 0
-74 -49 -74 -64 0 -7 -16 -21 -35 -32 l-34 -18 -30 28 -30 29 -78 -37 c-92
-44 -153 -98 -153 -136 0 -37 -64 -100 -102 -100 l-28 0 15 -36 c23 -55 20
-67 -14 -59 -28 6 -30 4 -42 -37 -6 -24 -13 -49 -15 -55 -2 -8 -22 -12 -56
-11 -29 1 -82 -2 -118 -6 -63 -8 -68 -7 -115 23 -41 26 -57 31 -87 27 -30 -5
-40 -2 -55 18 -11 13 -42 30 -73 39 -30 9 -70 27 -88 41 -40 29 -47 27 -127
-29 -36 -25 -77 -45 -103 -50 -30 -5 -48 -15 -59 -32 -9 -13 -40 -40 -69 -58
-69 -44 -83 -69 -56 -98 17 -18 19 -31 15 -70 -5 -43 -9 -48 -37 -55 -17 -5
-30 -11 -28 -15 1 -4 5 -20 8 -37 4 -16 14 -32 24 -35 11 -3 21 -22 26 -48 7
-33 14 -43 32 -45 13 -2 27 -14 32 -26 10 -28 44 -36 144 -36 72 0 73 -1 137
-50 35 -27 80 -55 99 -61 19 -6 44 -20 55 -29 11 -10 31 -20 44 -22 37 -5 36
-24 -3 -63 -20 -19 -43 -50 -52 -68 -9 -17 -32 -50 -50 -71 -44 -51 -44 -92
-4 -209 31 -89 32 -112 4 -166 -19 -35 -18 -80 1 -87 9 -4 27 -31 42 -61 15
-29 36 -63 47 -74 18 -18 197 -126 279 -168 17 -9 27 -22 27 -37 0 -12 16 -43
35 -68 23 -30 35 -57 35 -77 0 -22 10 -41 35 -66 34 -34 45 -66 25 -78 -19
-11 -10 -34 18 -47 15 -7 34 -28 42 -45 8 -18 23 -35 33 -39 22 -7 56 -78 57
-117 0 -21 -8 -32 -30 -45 -17 -10 -35 -31 -41 -50 -10 -31 -9 -34 37 -75 128
-112 117 -95 122 -183 4 -78 4 -81 -22 -98 l-27 -17 25 -30 c16 -19 28 -48 32
-79 5 -36 11 -50 22 -50 8 0 24 -7 33 -16 16 -14 24 -15 61 -4 79 22 92 22
114 2 38 -36 56 -35 113 8 29 22 60 40 70 40 31 0 73 -44 80 -84 6 -35 9 -38
71 -60 121 -43 129 -48 141 -86 16 -50 26 -59 70 -66 21 -4 44 -13 50 -20 6
-8 20 -14 30 -14 64 0 180 -74 212 -135 8 -16 36 -50 61 -75 29 -27 46 -53 46
-68 0 -23 40 -72 59 -72 21 0 72 -112 92 -202 11 -51 29 -113 41 -138 11 -25
21 -57 22 -72 1 -16 14 -41 29 -56 19 -20 27 -39 27 -65 0 -23 10 -53 25 -77
30 -48 31 -71 4 -120 -20 -35 -20 -39 -5 -68 17 -33 14 -52 -17 -93 l-19 -27
45 -93 c37 -77 53 -98 85 -118 43 -27 57 -55 68 -144 3 -31 15 -74 25 -94 11
-21 19 -53 19 -73 0 -57 18 -106 57 -152 l36 -43 -6 -80 c-3 -44 -11 -96 -18
-115 -16 -44 -64 -90 -95 -90 -17 0 -31 -12 -50 -41 -14 -23 -34 -44 -45 -46
-25 -7 -25 -9 15 -100 19 -43 38 -96 41 -118 9 -49 19 -68 70 -132 64 -82 66
-82 133 -14 106 107 157 113 200 26 12 -25 27 -45 34 -45 7 0 38 14 68 32 30
17 82 45 115 63 57 31 60 34 65 76 4 36 10 46 33 57 16 8 41 32 55 54 47 69
83 108 108 114 32 8 30 30 -3 48 -31 16 -71 57 -97 98 -17 25 -16 27 14 62 39
43 36 67 -18 153 l-36 58 -4 142 -4 142 36 47 c37 48 44 68 26 79 -12 7 -14
55 -2 55 18 0 112 104 112 125 0 46 21 57 106 59 93 1 126 17 148 71 14 32 18
35 58 35 24 0 60 -5 82 -11 21 -6 49 -8 63 -4 39 9 139 112 158 161 11 29 23
44 34 44 10 0 32 13 49 30 28 27 39 30 94 30 83 0 181 30 237 72 13 10 37 18
54 18 23 0 38 10 64 40 19 22 46 45 60 52 15 7 41 38 59 69 27 45 40 58 72 67
27 8 57 31 95 72 47 52 60 60 91 60 22 0 38 -6 44 -16 6 -11 33 -19 91 -25
101 -11 121 -21 121 -57 0 -15 6 -37 14 -48 8 -11 23 -41 32 -65 9 -24 29 -57
44 -74 15 -16 35 -50 44 -75 10 -24 33 -62 53 -83 l35 -40 -7 -71 c-6 -62 -4
-76 17 -118 17 -35 29 -48 45 -48 12 0 38 -8 57 -17 31 -14 42 -15 93 -3 32 7
69 23 83 35 30 27 102 40 128 24 14 -9 25 -8 50 5 39 20 40 38 7 100 -14 26
-25 52 -25 58 0 5 -11 23 -25 40 -24 29 -33 63 -17 70 4 2 24 29 45 61 31 48
36 61 26 78 -9 17 -6 28 18 61 62 89 62 89 56 139 l-6 48 34 3 c29 3 37 10 57
49 16 30 35 52 58 62 20 10 42 33 56 58 54 98 54 99 118 99 43 0 48 -3 83 -50
48 -65 77 -79 112 -56 32 21 32 41 -5 109 -36 69 -37 77 -5 107 27 26 32 49
13 68 -9 9 -9 15 0 24 9 9 19 7 42 -11 39 -29 74 -25 79 9 6 49 48 54 75 9 16
-28 22 -30 53 -24 48 9 68 -12 94 -98 35 -117 59 -139 106 -95 21 19 28 21 53
11 28 -11 33 -8 94 45 36 32 65 64 65 72 1 24 -35 97 -69 139 -22 27 -34 54
-39 93 -12 87 -33 101 -71 47 -33 -46 -62 -37 -77 24 -6 26 -23 62 -38 79 -22
26 -25 37 -20 67 4 20 16 46 27 58 16 18 19 30 14 65 -13 88 -12 93 10 96 13
2 33 -8 49 -22 24 -22 33 -25 74 -19 60 8 73 19 66 54 -6 24 -2 31 27 49 42
25 78 26 85 1 6 -23 46 -43 70 -34 31 11 73 56 73 79 0 12 7 27 15 34 8 7 15
25 15 41 0 21 7 32 24 41 32 14 55 66 35 79 -8 5 -20 9 -26 9 -8 0 -13 14 -13
38 0 28 -7 45 -24 62 -14 12 -28 35 -31 51 -4 16 -11 31 -16 34 -16 10 -10 50
11 72 10 12 35 26 55 33 27 9 35 17 35 36 0 16 9 28 30 39 17 9 30 22 30 30 0
8 9 19 19 25 11 5 22 23 26 39 7 33 38 65 77 80 20 8 28 19 33 50 7 44 31 55
55 26 41 -49 41 29 0 80 -47 59 -52 105 -11 105 10 0 24 11 31 25 14 26 19 28
91 25 39 -1 47 2 52 19 4 15 13 21 35 21 32 0 51 25 32 44 -15 15 -12 44 6 75
16 27 15 30 -10 73 -14 24 -37 55 -51 68 -39 37 -28 80 22 80 33 0 68 71 55
110 -8 22 -6 34 9 60 18 28 24 31 52 26 36 -6 49 0 66 32 6 12 21 22 31 22 38
0 15 86 -26 96 -32 8 -43 25 -52 75 -5 31 -14 47 -31 55 -37 19 -43 28 -32 57
8 20 6 31 -8 48 l-18 22 -45 -21 c-33 -16 -68 -23 -139 -26 -76 -3 -103 -8
-139 -28 -40 -22 -45 -29 -48 -64 -4 -42 -26 -74 -51 -74 -28 1 -64 39 -71 78
-20 94 -36 142 -48 142 -7 0 -24 -7 -37 -16 -18 -12 -36 -14 -62 -10 -47 8
-93 26 -93 36 0 4 -11 12 -25 18 -32 15 -32 29 1 63 l26 27 -26 35 c-19 24
-40 38 -70 46 -24 6 -46 18 -50 26 -9 24 -48 17 -72 -12 -20 -26 -24 -27 -48
-14 -23 13 -28 12 -44 -2 -28 -25 -66 -21 -82 8 -10 19 -21 25 -46 25 -24 0
-34 5 -39 20 -4 12 -15 20 -28 20 -11 0 -31 10 -44 21 -18 18 -25 20 -37 10
-9 -7 -18 -21 -21 -32 -7 -19 -35 -27 -35 -9 0 6 -6 10 -13 10 -19 0 -47 33
-47 53 0 19 -44 24 -55 7 -3 -5 -37 -10 -74 -10 -49 0 -72 -4 -81 -15 -17 -21
-33 -19 -58 8 -30 32 -28 65 3 77 14 5 25 17 25 25 0 9 16 25 35 36 40 24 43
37 15 62 -20 17 -20 18 -3 47 16 28 16 31 1 46 -15 15 -15 19 0 50 13 29 21
34 49 34 l33 0 0 54 c0 36 -5 58 -15 66 -14 12 -14 15 0 30 8 9 15 22 15 30 0
38 24 89 44 92 17 2 22 13 28 58 11 77 3 99 -37 115 -42 18 -114 7 -157 -25
-26 -19 -33 -20 -59 -10 -16 7 -29 17 -29 22 0 5 -13 7 -29 3 -23 -5 -29 -2
-34 14 -2 11 -15 21 -28 23 -21 3 -24 8 -21 41 3 35 -19 92 -43 109 -5 4 -38
8 -73 8 -35 0 -72 4 -82 10 -23 12 -83 -11 -104 -41 -11 -16 -21 -20 -40 -15
-22 5 -26 12 -26 41 0 48 -18 82 -54 103 -21 13 -37 35 -49 68 -26 68 -34 84
-62 123 -28 39 -32 73 -10 91 9 7 15 29 15 52 0 22 5 49 11 60 9 17 8 24 -6
34 -19 14 -34 75 -35 141 0 31 -5 45 -19 52 -10 6 -22 22 -25 36 -4 17 -13 25
-27 25 -12 0 -32 9 -46 19 -13 11 -30 18 -37 15 -21 -8 -47 -78 -40 -111 5
-24 1 -33 -20 -46 -36 -24 -47 -22 -89 21 -26 26 -36 44 -31 55 3 9 10 17 15
17 5 0 9 20 9 44 0 43 -1 45 -32 48 -32 3 -32 4 -36 58 -4 69 -29 158 -53 189
-27 34 -24 82 6 111 30 28 32 61 5 85 -14 13 -20 31 -20 62 0 39 -2 43 -24 43
-14 0 -28 -4 -31 -10 -3 -5 -26 -10 -50 -10 -43 0 -44 1 -71 55 -14 31 -38 65
-52 76 l-26 20 -22 -28 c-20 -26 -21 -31 -9 -60 13 -30 12 -33 -3 -33 -9 0
-41 -12 -70 -27 l-54 -27 -19 23 c-11 13 -19 28 -19 35 0 6 -13 16 -29 22 -17
7 -34 24 -42 44 -10 24 -28 38 -68 56 -66 29 -83 30 -107 3 -15 -16 -26 -20
-53 -15 -38 6 -61 -7 -61 -34 0 -21 -19 -30 -65 -30 -27 0 -35 5 -43 29 -7 20
-21 32 -46 41 -20 6 -36 18 -36 27 0 8 -8 28 -17 45 -16 27 -22 29 -56 25 -36
-5 -42 -2 -85 43 -26 27 -54 58 -63 71 -13 18 -18 20 -36 10 -38 -20 -70 -13
-93 19 -21 30 -22 30 -50 13 -28 -16 -30 -16 -50 2 -36 33 -15 93 28 78 7 -3
24 2 37 11 34 22 33 63 0 78 -42 19 -31 42 28 60 50 16 54 16 90 -3 62 -31 72
-26 42 24 -14 24 -25 55 -25 68 0 30 -26 69 -46 69 -8 0 -17 13 -21 30 -4 21
-13 32 -29 36 -17 4 -24 13 -24 30 0 14 -10 30 -25 40 -14 9 -32 32 -40 51 -8
19 -25 37 -40 43 -40 15 -127 12 -153 -6z"/>
</g>
</svg>
