<?xml version="1.0" standalone="no"?>
<!DOCTYPE svg PUBLIC "-//W3C//DTD SVG 20010904//EN"
 "http://www.w3.org/TR/2001/REC-SVG-20010904/DTD/svg10.dtd">
<svg version="1.0" xmlns="http://www.w3.org/2000/svg"
 width="1024.000000pt" height="1024.000000pt" viewBox="0 0 1024.000000 1024.000000"
 preserveAspectRatio="xMidYMid meet">
<metadata>
Created by potrace 1.16, written by Peter Selinger 2001-2019
</metadata>
<g transform="translate(0.000000,1024.000000) scale(0.100000,-0.100000)"
fill="#000000" stroke="none">
<path d="M5219 9821 l-735 -6 -44 -30 c-84 -59 -96 -65 -158 -86 -34 -11 -96
-45 -138 -75 -101 -73 -88 -67 -354 -156 -129 -43 -249 -89 -266 -101 -40 -28
-217 -222 -270 -295 -22 -32 -53 -86 -68 -122 -15 -36 -46 -96 -68 -133 -31
-51 -45 -88 -55 -146 -26 -154 -97 -366 -156 -464 -29 -51 -66 -128 -81 -172
-64 -185 -130 -326 -181 -388 -65 -79 -82 -128 -88 -248 -5 -91 -8 -102 -56
-200 -28 -57 -69 -138 -91 -179 -22 -41 -92 -183 -157 -315 -64 -132 -130
-259 -145 -282 -55 -82 -158 -308 -178 -390 -38 -156 -74 -209 -205 -308 -38
-29 -81 -72 -95 -95 -32 -53 -60 -95 -193 -282 -60 -84 -123 -180 -139 -213
-59 -116 -131 -215 -246 -336 -75 -79 -96 -110 -159 -231 -68 -132 -112 -177
-238 -248 -89 -50 -105 -64 -174 -149 -42 -51 -98 -128 -124 -170 -27 -42 -64
-92 -83 -111 -48 -50 -48 -95 0 -115 18 -8 107 -21 197 -30 90 -8 229 -24 309
-35 331 -44 1210 -164 1550 -211 201 -27 500 -68 665 -90 165 -22 410 -55 545
-74 135 -19 367 -50 515 -70 665 -88 850 -116 867 -132 13 -12 18 -31 18 -68
0 -56 10 -74 103 -192 21 -26 57 -77 80 -113 23 -36 52 -78 64 -95 13 -16 34
-74 47 -127 16 -64 49 -148 96 -245 47 -95 80 -181 95 -240 13 -51 37 -123 53
-160 44 -98 49 -152 40 -383 -3 -79 -1 -90 26 -140 16 -30 37 -71 47 -90 10
-19 20 -61 22 -93 8 -119 95 -272 207 -365 70 -57 210 -178 266 -228 25 -24
34 -40 34 -63 0 -49 26 -100 56 -111 18 -7 81 -7 193 -1 91 6 371 13 621 16
250 3 694 10 985 15 292 5 859 15 1260 21 402 6 738 15 748 20 34 19 21 73
-51 212 l-67 132 2 128 c3 124 2 129 -22 153 -30 30 -48 30 -100 -1 -53 -30
-62 -24 -22 16 28 28 29 33 23 84 -6 52 -5 54 21 67 27 13 28 16 34 118 4 73
12 124 28 168 42 114 21 146 -115 178 -37 8 -79 21 -93 29 -14 7 -76 65 -138
127 -159 161 -166 182 -197 515 -7 78 -18 149 -25 157 -6 8 -58 33 -113 57
-115 48 -152 80 -212 179 -22 36 -69 101 -106 145 -63 76 -130 168 -130 179 0
3 -16 33 -36 67 -20 33 -57 116 -81 183 -40 106 -46 134 -51 221 -5 107 -9
120 -54 176 -22 27 -32 54 -38 100 -5 35 -18 91 -29 124 -10 34 -24 106 -29
162 -6 61 -19 120 -31 149 -12 26 -24 66 -28 88 -3 23 -14 63 -25 91 -14 36
-18 61 -13 97 12 89 9 692 -4 716 -11 21 -19 22 -121 22 l-110 0 -97 82 c-54
45 -107 93 -117 106 -52 65 -89 79 -164 61 -40 -10 -61 -26 -143 -111 l-96
-100 -41 13 c-38 11 -44 10 -74 -11 -18 -13 -59 -53 -90 -90 -56 -66 -60 -68
-129 -84 -93 -21 -115 -20 -139 4 -16 16 -19 29 -15 58 13 82 13 82 49 82 42
0 98 37 111 74 14 40 -18 93 -75 124 -55 29 -95 26 -237 -19 -84 -27 -118 -32
-238 -36 -121 -5 -146 -9 -187 -29 -26 -13 -52 -24 -58 -24 -17 0 -11 25 13
61 20 30 29 35 80 40 67 7 89 24 123 90 13 27 38 56 57 68 45 28 107 92 157
164 22 32 44 63 50 70 6 7 24 31 40 54 16 23 58 65 93 92 34 27 91 81 125 119
35 39 85 83 115 100 30 17 83 55 118 85 74 62 225 166 298 203 41 22 68 27
153 31 112 6 257 -9 322 -34 23 -8 74 -24 115 -35 41 -11 86 -27 100 -37 14
-10 45 -23 67 -29 57 -16 90 -45 125 -107 16 -29 49 -74 73 -99 68 -73 124
-59 168 43 31 72 40 141 29 212 -11 68 -23 93 -98 215 -27 45 -63 116 -79 160
-16 43 -71 163 -122 267 -86 174 -94 196 -102 271 -15 142 -31 166 -179 266
-68 47 -131 130 -131 175 0 29 -56 132 -102 186 -50 62 -62 93 -83 224 -16 97
-16 124 -5 235 10 109 10 134 -4 193 -9 38 -16 94 -16 126 0 32 -7 78 -15 102
-15 42 -13 93 5 104 4 3 6 -4 3 -14 -8 -30 16 -88 44 -111 18 -14 41 -20 77
-20 58 0 114 29 215 109 79 62 230 129 320 143 85 13 111 31 111 81 0 59 -58
92 -186 106 -304 34 -307 34 -349 17 -21 -9 -54 -28 -72 -42 -33 -25 -93 -117
-93 -143 0 -7 -10 -29 -21 -48 l-21 -34 -27 30 c-18 21 -53 40 -111 61 -47 17
-121 49 -165 72 -43 22 -154 73 -245 113 -91 39 -361 159 -600 266 l-435 194
-145 1 c-80 0 -476 -2 -881 -5z"/>
<path d="M8430 9111 c-39 -8 -71 -24 -115 -56 -16 -13 -53 -33 -81 -44 -30
-13 -73 -45 -105 -77 -35 -35 -62 -54 -77 -54 -59 0 -122 -74 -122 -143 0 -49
38 -82 141 -123 45 -18 94 -42 108 -53 61 -49 76 -56 123 -56 41 0 52 5 85 38
42 40 68 45 114 22 34 -18 31 -30 -8 -40 -48 -11 -74 -35 -99 -90 -33 -76 -53
-84 -112 -46 -50 32 -74 40 -137 46 -22 2 -65 12 -96 24 -92 34 -130 36 -162
11 -22 -17 -27 -30 -27 -64 0 -55 16 -141 46 -244 27 -95 37 -115 75 -159 15
-18 42 -63 60 -100 41 -88 51 -98 125 -133 55 -27 65 -36 89 -85 14 -30 31
-55 35 -55 17 0 40 -58 40 -98 0 -30 10 -54 43 -101 74 -109 86 -134 108 -231
29 -131 36 -154 76 -240 20 -41 43 -91 52 -110 40 -86 170 -189 267 -211 90
-21 122 -4 259 133 69 69 155 143 201 174 98 64 118 89 189 236 30 62 84 169
119 238 35 69 79 169 97 223 31 93 32 100 19 145 -7 26 -16 76 -19 112 -8 85
-28 114 -93 137 -43 15 -58 28 -97 81 -59 81 -169 276 -181 323 -12 44 -96
173 -137 211 -16 16 -65 52 -108 80 -55 37 -98 76 -139 127 -146 181 -380 287
-556 252z"/>
<path d="M9250 6080 c-52 -33 -79 -59 -116 -118 -67 -103 -68 -190 -4 -254 34
-34 55 -35 122 -6 47 20 52 20 82 5 17 -8 47 -18 67 -21 20 -4 56 -19 80 -34
86 -55 229 -134 261 -143 75 -21 168 37 168 106 0 60 -25 101 -127 211 -120
129 -202 194 -246 194 -18 0 -50 11 -72 25 -95 58 -160 69 -215 35z"/>
</g>
</svg>
