<?xml version="1.0" standalone="no"?>
<!DOCTYPE svg PUBLIC "-//W3C//DTD SVG 20010904//EN"
 "http://www.w3.org/TR/2001/REC-SVG-20010904/DTD/svg10.dtd">
<svg version="1.0" xmlns="http://www.w3.org/2000/svg"
 width="820.000000pt" height="432.000000pt" viewBox="0 0 820.000000 432.000000"
 preserveAspectRatio="xMidYMid meet">
<metadata>
Created by potrace 1.16, written by Peter Selinger 2001-2019
</metadata>
<g transform="translate(0.000000,432.000000) scale(0.100000,-0.100000)"
fill="#000000" stroke="none">
<path d="M3610 4077 c0 -14 -4 -28 -9 -32 -9 -5 -77 -7 -135 -2 -24 2 -31 -3
-37 -26 -11 -40 -28 -57 -56 -57 -47 0 -208 -94 -222 -129 -6 -14 -13 -69 -16
-121 -4 -52 -15 -130 -26 -172 -24 -99 -24 -154 1 -213 25 -59 25 -75 -1 -75
-30 0 -72 28 -91 60 -13 23 -25 29 -67 35 -29 4 -88 4 -131 0 -70 -6 -85 -4
-124 14 -24 12 -52 33 -61 47 -20 32 -59 48 -172 74 -49 11 -114 29 -145 40
-44 15 -72 18 -116 14 -52 -6 -69 -2 -152 31 l-94 37 -97 -31 c-59 -19 -118
-31 -151 -31 -30 0 -77 -7 -106 -15 -55 -17 -75 -38 -123 -130 -23 -45 -30
-50 -67 -57 -23 -4 -47 -10 -52 -13 -18 -11 -11 -43 16 -74 l26 -31 -31 0
c-35 0 -37 -4 -69 -90 -37 -101 -38 -116 -8 -135 23 -15 30 -15 83 -2 50 13
63 13 93 0 19 -7 46 -25 59 -38 l24 -24 -33 -31 c-51 -48 -162 -110 -197 -110
-38 0 -51 -15 -55 -65 -3 -39 -5 -40 -51 -52 -39 -10 -60 -24 -103 -70 -30
-32 -64 -77 -75 -100 -23 -49 -98 -118 -154 -143 -54 -23 -67 -41 -63 -87 l3
-38 50 -1 c56 0 82 -11 139 -61 22 -18 45 -33 52 -33 7 0 31 16 54 35 50 41
69 43 99 11 19 -20 25 -43 33 -118 5 -51 11 -94 13 -97 3 -2 14 4 24 13 19 17
21 17 64 -9 25 -14 73 -30 108 -36 59 -9 63 -9 89 16 33 31 43 31 73 -1 21
-23 27 -24 45 -13 18 11 24 10 42 -6 18 -16 23 -17 31 -5 5 8 7 35 4 60 -6 55
14 90 52 90 25 0 69 38 106 93 26 39 62 45 93 16 50 -47 68 -89 66 -150 -2
-50 0 -60 18 -69 25 -13 136 -17 166 -6 18 7 22 3 31 -31 5 -21 6 -53 2 -70
-8 -38 2 -41 66 -18 94 34 180 8 212 -62 31 -69 38 -73 122 -73 48 0 85 -6
101 -15 14 -8 31 -17 38 -21 8 -4 33 3 56 15 53 26 89 28 84 5 -3 -19 -10 -23
-95 -60 -58 -25 -143 -98 -143 -123 0 -5 -16 -18 -35 -30 -24 -14 -37 -30 -41
-51 -4 -16 -8 -30 -10 -30 -1 0 -36 18 -76 40 -73 40 -128 51 -128 27 0 -7 4
-17 9 -23 19 -21 41 -154 25 -154 -4 0 -32 16 -64 35 -32 19 -66 35 -77 35
-12 0 -39 -22 -64 -52 -78 -92 -90 -111 -87 -143 3 -28 1 -30 -36 -33 -30 -3
-47 -13 -78 -45 -38 -39 -41 -41 -52 -23 -6 10 -21 31 -34 45 l-22 26 -23 -27
c-12 -16 -26 -28 -29 -28 -3 0 -29 16 -58 35 -105 71 -210 83 -300 35 -30 -17
-60 -30 -66 -30 -16 0 -25 -27 -18 -55 13 -51 -40 -84 -86 -55 -11 7 -25 -1
-55 -33 -22 -23 -51 -50 -64 -60 -18 -15 -22 -25 -17 -47 3 -19 0 -34 -10 -45
-23 -23 -34 -18 -34 14 0 33 1 33 -174 85 -65 19 -135 46 -155 60 -57 40 -106
35 -204 -18 -45 -24 -107 -49 -137 -56 -101 -22 -105 -25 -108 -108 l-3 -73
-30 25 c-46 39 -60 34 -99 -39 l-35 -65 23 -87 c12 -49 32 -119 43 -157 l21
-69 59 6 c36 3 79 16 109 31 56 30 116 34 160 11 25 -13 40 -13 130 2 83 14
110 14 146 5 55 -15 91 -15 100 -1 13 21 96 49 147 49 76 0 112 -26 148 -105
33 -74 36 -75 155 -54 66 11 85 26 101 74 9 27 15 31 68 37 41 6 74 18 109 41
28 18 64 38 81 46 26 11 31 10 42 -5 7 -10 13 -27 13 -38 0 -45 13 -65 46 -76
18 -6 38 -8 44 -5 6 4 29 4 51 0 l41 -7 -7 -48 c-14 -99 29 -114 139 -50 38
22 70 39 71 38 1 -2 6 -18 11 -37 7 -27 16 -37 39 -42 17 -5 42 -22 57 -40
l27 -32 20 34 c12 19 21 41 21 51 0 25 56 66 98 73 20 4 57 11 82 17 51 12
110 13 192 3 60 -8 274 10 317 26 13 6 44 27 67 49 46 42 61 46 200 54 76 4
164 25 164 39 0 2 11 35 25 74 28 82 23 122 -26 177 -32 37 -36 58 -15 75 8 6
26 51 42 99 18 57 37 96 54 112 37 35 126 61 181 54 56 -7 91 14 150 90 26 32
62 64 87 77 24 12 48 32 54 45 12 26 12 26 82 28 27 1 51 6 53 12 2 6 -8 25
-22 42 -29 34 -40 80 -26 102 9 12 14 12 38 -6 15 -11 43 -26 62 -32 44 -15
146 -15 174 0 12 6 60 47 106 90 134 127 153 133 165 54 5 -32 17 -55 38 -76
27 -28 29 -33 19 -62 -14 -39 -14 -84 -1 -109 9 -16 21 -19 68 -18 88 2 115
11 130 42 11 22 20 27 51 27 51 0 122 22 162 51 19 13 34 18 36 12 2 -5 10
-18 17 -28 12 -17 15 -16 57 8 59 35 85 64 94 106 4 18 22 59 41 90 27 44 34
67 34 108 0 39 6 58 24 80 14 17 25 46 28 76 7 59 38 105 97 145 73 49 88 52
156 31 53 -17 68 -18 127 -7 54 9 76 9 108 -2 26 -9 62 -11 110 -6 78 7 115
20 173 59 50 34 90 42 142 27 39 -11 47 -10 91 12 39 19 53 34 74 77 15 29 45
75 68 101 36 42 42 55 42 94 0 39 4 48 33 69 17 14 51 34 75 46 24 12 60 37
80 55 20 18 60 45 87 61 53 31 261 166 359 234 41 28 69 41 93 41 40 0 93 20
112 43 7 10 25 17 40 17 40 0 69 26 97 85 27 56 44 65 119 65 17 0 57 5 88 11
l57 12 -25 45 c-18 33 -25 59 -25 101 0 64 -22 110 -67 137 -15 10 -47 33 -70
51 -52 41 -167 66 -268 56 l-64 -6 -58 55 c-32 30 -83 71 -113 90 -69 44 -81
58 -87 108 -3 22 -9 43 -14 46 -5 3 -27 -1 -49 -7 -32 -10 -58 -10 -123 0
-122 19 -206 41 -259 67 l-47 24 -118 -19 c-65 -11 -139 -23 -164 -26 -27 -4
-105 1 -195 14 -249 34 -265 35 -308 17 -54 -22 -102 -20 -164 9 -96 45 -256
32 -317 -25 -14 -13 -42 -21 -90 -26 -39 -4 -83 -14 -100 -22 -59 -30 -78 -30
-130 -4 -43 22 -57 24 -118 18 -42 -4 -93 -1 -129 6 -73 15 -85 9 -119 -60
-40 -82 -48 -87 -111 -74 -29 6 -89 14 -133 17 -136 11 -224 33 -324 79 -53
25 -115 47 -138 49 -45 4 -47 6 -133 78 -36 31 -92 63 -163 93 -147 63 -157
65 -157 33z"/>
</g>
</svg>
