<?xml version="1.0" standalone="no"?>
<!DOCTYPE svg PUBLIC "-//W3C//DTD SVG 20010904//EN"
 "http://www.w3.org/TR/2001/REC-SVG-20010904/DTD/svg10.dtd">
<svg version="1.0" xmlns="http://www.w3.org/2000/svg"
 width="616.000000pt" height="676.000000pt" viewBox="0 0 616.000000 676.000000"
 preserveAspectRatio="xMidYMid meet">
<metadata>
Created by potrace 1.16, written by Peter Selinger 2001-2019
</metadata>
<g transform="translate(0.000000,676.000000) scale(0.100000,-0.100000)"
fill="#000000" stroke="none">
<path d="M1403 6637 c-22 -11 -46 -54 -42 -73 1 -5 -3 -22 -9 -37 -7 -16 -12
-33 -12 -38 0 -5 -10 -9 -22 -9 -12 0 -30 -7 -39 -16 -18 -16 -18 -18 6 -46
28 -33 31 -48 13 -66 -9 -9 -8 -16 6 -31 9 -10 19 -35 23 -54 4 -28 13 -39 39
-52 19 -9 34 -21 34 -28 0 -7 10 -24 23 -37 21 -22 22 -29 14 -64 -8 -29 -7
-41 1 -44 7 -2 12 -14 12 -27 0 -15 7 -26 20 -30 27 -8 25 -23 -3 -34 -21 -8
-25 -19 -36 -110 -14 -107 -9 -131 28 -131 20 0 41 -19 41 -37 0 -7 -11 -13
-25 -13 -22 0 -25 -3 -19 -25 5 -22 3 -25 -21 -25 -16 0 -34 9 -45 22 -16 20
-21 21 -44 10 -25 -11 -27 -11 -24 10 7 47 -107 46 -201 -3 -53 -28 -83 1 -76
76 1 17 5 37 9 46 5 10 -2 20 -19 29 -25 13 -26 17 -20 63 5 37 4 52 -6 58
-24 15 -34 10 -46 -20 -10 -28 -122 -111 -150 -111 -7 0 -28 -14 -48 -31 -31
-28 -41 -31 -80 -27 -48 6 -47 7 -60 -62 -4 -19 -21 -59 -37 -88 -23 -41 -37
-54 -60 -59 -22 -4 -28 -10 -25 -24 3 -10 -1 -23 -9 -30 -8 -6 -14 -27 -14
-46 0 -38 2 -39 79 -17 38 11 21 -18 -24 -40 -33 -17 -46 -18 -99 -9 -52 9
-64 8 -81 -6 -11 -9 -31 -23 -45 -29 -46 -23 -97 -105 -109 -178 -7 -36 -18
-85 -26 -108 -7 -22 -13 -59 -12 -81 2 -36 5 -40 29 -43 24 -3 28 0 28 22 0
19 5 26 19 26 13 0 21 8 23 22 2 12 15 29 30 38 37 20 56 8 91 -61 15 -30 41
-69 59 -87 26 -27 37 -32 60 -27 36 8 36 -1 2 -108 -14 -45 -28 -88 -30 -95
-2 -8 -12 -16 -22 -19 -9 -2 -26 -23 -36 -45 -18 -39 -18 -43 -2 -93 9 -29 23
-58 31 -65 8 -7 15 -21 15 -31 0 -12 13 -24 36 -34 47 -19 51 -19 59 5 8 26
31 25 87 -3 l46 -23 46 48 c44 47 47 48 104 48 43 0 63 -5 73 -16 11 -13 26
-15 75 -11 48 5 65 3 74 -8 19 -22 4 -64 -25 -71 -22 -6 -25 -11 -25 -55 0
-27 4 -49 9 -49 10 0 24 -66 26 -122 1 -26 10 -43 31 -62 16 -14 32 -26 37
-26 14 0 7 -27 -13 -45 -11 -10 -20 -23 -20 -29 0 -6 -8 -23 -17 -36 -10 -14
-18 -41 -19 -60 -1 -19 -4 -47 -9 -63 -4 -17 -3 -33 5 -42 16 -20 4 -50 -26
-64 -14 -6 -23 -15 -19 -20 6 -11 -33 -51 -49 -51 -13 0 -46 -55 -46 -77 0
-19 18 -36 58 -57 28 -15 30 -19 20 -36 -10 -15 -10 -27 -1 -50 6 -16 9 -47 6
-68 -3 -22 0 -48 6 -59 9 -17 7 -22 -9 -26 -10 -3 -25 -21 -34 -40 -8 -21 -27
-42 -45 -52 -24 -12 -31 -22 -31 -44 0 -16 -6 -31 -13 -34 -7 -2 -14 -20 -15
-38 -3 -39 -25 -91 -47 -109 -8 -7 -15 -21 -15 -31 0 -15 7 -19 33 -19 23 0
48 -11 78 -34 46 -36 99 -56 99 -37 0 5 16 26 35 45 19 20 35 39 35 43 0 4 24
24 53 43 28 19 63 45 75 58 18 17 27 20 37 12 10 -8 15 -6 20 9 3 11 19 22 36
26 25 6 28 9 17 22 -10 13 -8 19 17 37 15 11 44 26 64 32 32 10 38 17 52 65 9
30 20 54 25 54 5 -1 28 -4 50 -9 41 -7 43 -6 90 42 27 27 56 58 65 68 22 28
87 21 99 -10 10 -27 99 -106 120 -106 9 0 26 -9 39 -21 14 -14 41 -22 79 -26
92 -9 104 -22 78 -84 -5 -12 1 -21 25 -33 43 -22 48 -20 46 11 -2 20 3 28 18
31 11 3 32 15 47 27 15 13 53 35 84 50 52 25 57 25 80 10 23 -15 26 -14 49 9
20 20 23 31 18 60 -5 31 -3 37 20 45 28 11 36 21 42 53 5 26 18 35 68 48 42
12 45 20 17 45 -20 18 -20 19 7 48 27 28 30 29 108 23 92 -6 149 -20 187 -47
16 -12 43 -19 72 -19 34 0 51 -5 63 -20 20 -23 48 -26 60 -7 4 8 16 16 25 20
21 8 69 -50 99 -120 12 -26 40 -67 62 -90 23 -24 50 -66 62 -95 16 -40 29 -57
55 -70 20 -10 46 -36 60 -61 45 -76 55 -86 148 -132 58 -29 99 -56 109 -73 9
-15 27 -37 40 -50 20 -20 23 -32 23 -109 0 -71 -5 -96 -26 -143 -22 -48 -25
-68 -20 -112 3 -29 6 -62 6 -73 0 -11 1 -33 2 -50 1 -66 0 -92 -7 -147 l-8
-57 46 -28 c27 -17 50 -39 56 -56 6 -15 35 -53 66 -83 39 -39 55 -63 55 -82 1
-66 53 -97 205 -123 71 -11 118 -28 83 -29 -10 0 -24 -13 -32 -28 -14 -26 -13
-33 9 -78 29 -60 58 -89 81 -80 27 10 82 -13 104 -44 16 -23 19 -38 14 -65 -3
-19 -10 -38 -15 -41 -5 -3 -9 -25 -9 -49 0 -46 -24 -75 -61 -75 -9 0 -22 -7
-29 -15 -19 -22 5 -45 46 -45 27 0 34 -4 34 -20 0 -11 -7 -20 -15 -20 -27 0
-74 -62 -75 -97 0 -25 6 -34 30 -45 17 -7 30 -17 30 -22 0 -5 11 -19 24 -31
l24 -23 -24 -11 c-25 -11 -31 -26 -14 -36 15 -9 12 -25 -5 -25 -8 0 -15 -8
-15 -18 0 -10 -3 -22 -7 -25 -8 -9 -7 -132 2 -173 6 -27 2 -37 -29 -72 -20
-21 -36 -45 -36 -51 0 -6 -8 -11 -19 -11 -10 0 -24 -7 -31 -15 -7 -9 -20 -13
-28 -10 -8 3 -22 -1 -31 -8 -9 -8 -28 -17 -43 -21 -21 -5 -28 -12 -28 -31 0
-28 50 -114 67 -115 6 0 20 -11 31 -25 25 -32 83 -34 130 -5 35 22 63 20 93
-7 9 -7 20 -13 25 -12 5 1 17 -1 27 -6 10 -4 21 -5 24 -2 9 10 43 -13 43 -29
0 -20 67 -82 108 -100 23 -10 38 -12 51 -5 10 6 35 8 55 4 36 -6 41 -1 37 34
-1 6 10 20 24 31 27 22 33 57 11 65 -8 3 -19 21 -25 40 -7 20 -22 39 -36 45
-24 11 -29 20 -26 53 1 9 -5 22 -14 29 -26 22 -19 40 14 34 16 -3 31 -1 35 4
4 7 25 9 50 5 42 -5 46 -3 60 26 9 16 16 37 16 46 0 20 14 19 31 -1 10 -12 23
-14 53 -10 47 8 69 24 61 44 -4 11 0 13 15 9 17 -4 20 -2 15 14 -5 14 1 22 20
31 29 13 45 1 45 -34 0 -10 7 -18 15 -18 9 0 18 -7 21 -15 6 -16 58 -45 80
-45 7 0 24 -16 38 -36 13 -20 33 -42 45 -50 19 -13 24 -13 42 0 14 9 33 13 50
9 16 -3 29 -2 29 3 0 5 14 25 31 44 27 30 32 33 40 18 9 -16 12 -16 49 3 21
11 42 29 45 40 4 10 15 19 26 19 11 0 19 7 19 18 1 17 33 62 45 62 3 0 19 -9
34 -21 37 -27 73 -22 82 12 4 15 21 41 38 59 33 35 37 45 21 55 -6 4 -8 11 -4
16 3 5 1 16 -5 23 -8 9 -3 20 19 41 36 35 37 43 5 55 -14 5 -25 14 -25 19 0 5
-9 13 -20 16 -30 9 -26 49 6 64 14 6 30 9 35 5 5 -3 18 -2 30 1 14 5 18 12 14
26 -4 12 -1 21 9 25 9 3 16 17 16 30 0 12 6 27 14 31 8 4 17 19 21 33 5 20 -1
32 -30 60 -20 19 -35 44 -35 57 0 20 -5 23 -35 23 -32 0 -35 3 -35 29 0 23 -6
30 -26 35 -14 4 -34 4 -44 1 -14 -5 -25 5 -45 40 -15 25 -33 45 -39 45 -20 0
-49 38 -43 55 6 15 3 19 -42 53 -23 18 -23 19 -7 51 12 23 22 30 35 26 10 -3
29 3 44 15 14 11 36 20 49 20 34 0 88 77 81 115 -5 22 -10 25 -27 20 -48 -14
-76 -14 -89 1 -28 34 -52 54 -64 54 -30 0 -63 32 -63 61 0 28 -26 52 -60 55
-8 1 -27 2 -42 3 -17 0 -28 7 -28 15 0 7 -11 21 -25 30 -14 9 -25 23 -25 31 0
8 -4 15 -9 15 -5 0 -8 12 -6 27 5 41 -4 63 -25 63 -13 0 -22 -9 -26 -25 -3
-14 -12 -25 -19 -25 -7 0 -15 -8 -18 -19 -3 -14 -11 -17 -31 -14 -35 7 -56 39
-56 84 0 31 -4 38 -30 49 -47 19 -54 42 -55 177 0 68 -3 123 -7 123 -5 0 -8
-4 -8 -10 0 -13 -23 -13 -54 2 -18 7 -28 22 -32 45 -4 19 -12 37 -20 40 -19 7
-56 73 -50 89 3 7 1 16 -4 19 -6 4 -10 15 -10 26 0 25 -27 25 -35 -1 -3 -11
-11 -20 -17 -20 -29 0 -127 88 -234 212 -60 68 -94 99 -114 103 -17 4 -30 10
-30 14 0 5 -13 28 -29 52 -16 24 -28 46 -25 50 2 4 -8 17 -22 28 -24 19 -26
26 -21 66 6 38 4 46 -13 55 -11 6 -20 17 -20 24 0 7 -13 29 -30 47 -16 19 -30
40 -30 46 0 18 -47 46 -65 39 -8 -3 -15 -12 -15 -21 0 -18 -2 -18 -35 -3 -18
8 -25 19 -25 40 0 25 -3 28 -24 22 -16 -4 -27 -1 -33 9 -4 8 -18 19 -29 25
-16 8 -20 18 -17 36 4 20 0 28 -19 35 -36 14 -50 35 -42 68 11 45 33 83 49 83
8 0 15 8 15 18 -1 23 -48 75 -63 69 -7 -3 -29 2 -48 11 -18 8 -44 14 -56 13
-13 -1 -26 6 -33 19 -8 15 -20 21 -38 19 -41 -3 -121 12 -130 25 -4 6 -18 17
-32 24 -67 34 -81 45 -95 72 -16 30 -42 44 -67 35 -9 -4 -25 7 -42 30 -15 19
-35 35 -45 35 -10 0 -24 7 -31 15 -7 8 -23 15 -36 15 -13 0 -24 6 -24 13 0 15
-35 47 -53 47 -6 0 -27 9 -46 21 -21 12 -44 19 -59 16 -25 -5 -38 2 -70 36 -9
9 -23 17 -32 18 -8 0 -4 5 9 10 13 5 35 21 47 34 13 14 37 28 53 31 20 4 31
14 35 30 4 14 11 22 16 19 31 -19 13 56 -20 84 -11 9 -23 31 -26 50 -7 31 -6
33 14 22 28 -15 53 -14 91 5 35 17 97 12 103 -8 3 -9 12 -9 36 1 30 12 34 12
51 -8 10 -11 24 -21 31 -21 8 0 21 -7 31 -16 15 -13 27 -15 65 -8 41 8 49 13
57 39 12 39 36 65 57 65 10 0 23 7 30 15 7 8 20 15 30 15 11 0 20 10 23 27 6
34 1 43 -24 43 -10 0 -19 2 -19 5 0 11 55 54 68 55 7 0 15 7 18 15 4 9 13 13
24 10 21 -7 44 19 36 41 -4 9 -2 22 4 29 8 9 3 17 -16 30 -17 11 -24 23 -21
35 4 14 -6 23 -45 40 -42 18 -54 19 -82 9 -19 -7 -41 -9 -50 -6 -18 7 -22 42
-6 52 6 3 10 17 10 30 0 18 -7 26 -25 31 -14 3 -30 15 -36 26 -8 15 -19 19
-52 17 -69 -4 -102 0 -122 15 -19 14 -19 15 7 27 15 6 30 20 33 30 5 14 10 15
35 6 24 -9 32 -8 49 8 12 10 21 23 21 30 0 7 9 20 20 30 24 22 26 45 5 45 -28
0 -93 39 -100 60 -4 13 -15 20 -31 20 -25 0 -84 48 -84 69 0 13 -55 43 -63 34
-3 -3 -13 2 -22 11 -9 9 -28 18 -43 22 -15 3 -35 9 -44 15 -20 10 -58 -7 -58
-26 0 -6 -27 -17 -60 -24 -33 -8 -63 -18 -66 -22 -3 -5 -16 -9 -28 -9 -29 0
-60 -43 -51 -70 5 -15 0 -21 -19 -26 -21 -5 -25 -10 -20 -30 9 -35 -25 -32
-61 6 -19 20 -39 30 -58 30 -19 0 -38 10 -57 30 -29 31 -50 39 -50 19 0 -13
-69 -5 -98 11 -9 5 -38 12 -63 15 -55 7 -70 21 -114 107 -20 41 -38 64 -51 66
-13 2 -25 16 -33 38 -7 19 -19 38 -27 41 -9 3 -12 13 -8 27 4 17 -1 25 -21 34
-15 7 -32 9 -38 5 -7 -4 -6 1 2 10 7 9 20 17 27 17 9 0 14 11 14 28 0 15 9 42
20 60 26 42 25 45 -7 37 -26 -6 -25 -5 12 37 21 24 42 44 46 46 9 4 -1 124
-12 136 -5 5 -13 5 -21 -1 -7 -6 -24 -13 -38 -15 -23 -3 -25 0 -30 47 -4 36
-9 50 -20 50 -11 0 -16 -13 -18 -45 -4 -53 -30 -86 -73 -92 -33 -5 -34 -3 -43
89 -7 74 -40 123 -82 123 -32 0 -51 27 -36 51 10 15 9 19 -1 19 -16 0 -57 42
-57 58 0 7 -6 12 -12 12 -7 0 -24 12 -37 26 -13 14 -42 34 -63 45 -21 11 -38
26 -38 33 0 8 -9 16 -20 19 -11 3 -20 13 -20 23 0 10 -12 35 -26 55 -29 42
-62 53 -136 43 -38 -5 -48 -10 -48 -25 0 -32 -27 -21 -57 24 -30 44 -53 53
-90 34z"/>
</g>
</svg>
