<?xml version="1.0" standalone="no"?>
<!DOCTYPE svg PUBLIC "-//W3C//DTD SVG 20010904//EN"
 "http://www.w3.org/TR/2001/REC-SVG-20010904/DTD/svg10.dtd">
<svg version="1.0" xmlns="http://www.w3.org/2000/svg"
 width="1024.000000pt" height="624.000000pt" viewBox="0 0 1024.000000 624.000000"
 preserveAspectRatio="xMidYMid meet">
<metadata>
Created by potrace 1.16, written by Peter Selinger 2001-2019
</metadata>
<g transform="translate(0.000000,624.000000) scale(0.100000,-0.100000)"
fill="#000000" stroke="none">
<path d="M5872 6055 c-21 -17 -42 -25 -69 -25 -36 0 -47 -7 -121 -81 -81 -82
-81 -82 -123 -75 -48 8 -84 -10 -99 -50 -12 -31 -50 -32 -97 -3 -31 19 -36 20
-50 7 -8 -9 -17 -34 -20 -57 -6 -45 -23 -53 -54 -25 -17 15 -21 15 -54 -6 -32
-20 -42 -21 -72 -12 -39 12 -73 2 -73 -22 0 -18 -41 -52 -72 -60 -19 -4 -34
-19 -47 -44 -28 -55 -43 -64 -117 -70 -64 -5 -67 -6 -80 -38 -34 -81 0 -319
56 -389 23 -29 27 -42 23 -75 -4 -26 0 -52 11 -74 15 -32 15 -38 1 -65 -18
-35 -20 -122 -4 -138 7 -7 15 -77 20 -170 5 -87 15 -201 24 -253 9 -52 19
-143 22 -201 l5 -106 -97 -114 c-172 -200 -246 -269 -350 -322 -55 -27 -79
-50 -90 -85 -13 -43 -185 -138 -312 -173 -158 -43 -296 -3 -363 106 -12 19
-30 35 -40 35 -37 0 -177 53 -227 85 -71 47 -95 95 -92 183 1 53 -5 86 -31
157 -18 49 -36 119 -41 154 -5 36 -21 90 -34 119 -14 30 -25 63 -25 74 0 36
-22 60 -78 85 -65 28 -174 133 -234 224 -42 64 -126 145 -224 216 -108 78
-136 105 -158 153 -26 59 -25 189 2 276 11 34 16 67 12 74 -11 17 -80 7 -129
-18 -21 -11 -74 -35 -117 -52 -44 -18 -101 -41 -129 -52 -79 -32 -336 -163
-397 -202 -79 -50 -136 -63 -189 -42 -37 15 -44 15 -71 1 -17 -8 -50 -15 -74
-15 -38 0 -46 -5 -86 -50 -24 -27 -95 -133 -158 -235 -63 -102 -147 -234 -186
-294 -38 -59 -75 -121 -81 -137 -7 -16 -14 -76 -16 -134 -3 -72 -10 -115 -22
-138 -15 -30 -16 -40 -3 -110 9 -51 11 -95 6 -130 -14 -93 -91 -220 -163 -269
-19 -13 -35 -30 -35 -39 0 -36 -193 -204 -273 -238 -20 -8 -37 -21 -38 -28 0
-7 -2 -78 -3 -158 -3 -158 -24 -265 -82 -406 -26 -62 -29 -79 -27 -164 2 -52
3 -123 4 -157 1 -49 -4 -74 -28 -125 -41 -88 -57 -157 -44 -192 15 -39 14 -94
-5 -167 -18 -72 -12 -154 16 -209 17 -33 66 -216 72 -270 3 -24 4 -24 93 -21
49 1 98 7 108 13 28 15 57 87 57 142 0 48 2 50 88 138 l87 89 43 -6 c34 -5 52
-2 85 15 45 24 125 86 170 133 28 29 29 30 111 23 80 -7 85 -6 114 19 17 14
42 25 60 25 17 0 44 12 67 30 21 17 56 35 79 41 72 20 118 39 187 80 87 50
158 54 235 12 46 -25 60 -27 234 -34 252 -10 384 -40 397 -90 8 -30 51 -35 94
-11 20 12 65 26 99 31 59 10 121 41 151 77 35 43 119 -15 133 -92 15 -82 94
-174 149 -174 30 0 60 32 85 90 24 56 35 66 94 81 56 15 105 3 264 -68 119
-52 179 -56 200 -14 17 34 32 41 89 41 67 0 117 -15 149 -45 24 -22 33 -25 75
-19 85 11 260 -46 325 -106 57 -52 113 -80 162 -80 33 0 60 12 137 61 59 36
102 57 110 53 6 -5 40 -30 73 -56 73 -57 113 -63 150 -23 14 16 34 25 52 25
33 0 54 21 71 70 11 33 86 120 103 120 5 0 26 18 47 40 28 29 46 40 68 40 17
0 42 9 56 20 14 11 34 20 45 20 27 0 52 26 59 62 7 37 29 46 53 22 10 -10 39
-86 65 -169 70 -221 74 -231 100 -243 24 -11 55 -89 55 -138 0 -33 46 -82 88
-94 20 -5 59 -10 86 -10 27 0 87 -9 135 -19 110 -25 281 -35 316 -19 21 10 33
8 71 -12 38 -18 56 -21 99 -16 62 7 70 0 77 -66 7 -57 19 -73 72 -99 29 -13
54 -38 86 -85 63 -94 152 -171 254 -222 58 -29 91 -52 100 -70 20 -38 53 -66
113 -96 63 -31 93 -75 137 -195 22 -63 42 -97 78 -137 64 -69 103 -93 186
-110 37 -8 80 -23 96 -35 40 -30 153 -24 189 9 35 33 82 37 147 13 l54 -21 36
25 c42 30 80 75 110 135 12 25 42 66 65 91 24 25 53 65 64 88 l21 41 68 0 c38
0 89 7 115 16 l47 16 84 -61 c46 -34 88 -61 93 -61 5 0 24 20 42 45 24 34 36
42 49 37 9 -5 42 -20 72 -35 57 -27 193 -49 243 -40 14 3 36 16 49 30 21 23
23 35 28 170 l5 145 31 26 c17 15 59 49 93 75 60 47 61 48 61 98 0 66 12 87
66 110 32 15 50 31 64 59 11 22 20 46 20 53 0 40 64 82 154 102 16 3 50 27 74
52 45 45 64 50 114 29 29 -13 52 37 53 114 1 53 5 72 23 95 32 40 28 87 -18
209 -34 91 -40 117 -40 185 0 97 -6 115 -64 180 -50 56 -57 87 -32 137 21 39
6 60 -57 78 -83 24 -110 65 -128 194 -14 98 -35 137 -103 196 -70 60 -76 81
-41 147 31 59 28 89 -11 109 -14 8 -39 34 -55 57 -17 24 -39 48 -50 54 -32 17
-97 1 -133 -33 -35 -33 -93 -61 -113 -54 -29 11 2 111 46 150 11 11 21 31 21
45 0 15 9 43 20 64 14 26 20 56 20 103 0 36 5 85 11 109 15 59 5 104 -31 143
-49 54 -39 81 35 101 24 6 56 26 78 49 l38 39 -3 171 c-3 192 -5 196 -85 232
-54 24 -115 65 -178 122 -29 26 -71 52 -101 62 -88 29 -87 27 -89 165 -1 72
-6 126 -13 133 -8 8 -21 6 -48 -7 -29 -14 -52 -16 -102 -12 -49 5 -67 3 -79
-8 -24 -24 -53 -17 -109 26 l-52 40 -102 -3 c-96 -3 -103 -2 -121 20 -10 13
-23 41 -29 61 -14 51 -42 75 -77 67 -76 -19 -84 -19 -108 4 -33 31 -58 23 -66
-22 -14 -86 -61 -117 -150 -98 -31 7 -66 9 -77 6 -28 -9 -102 -94 -102 -117 0
-26 -19 -33 -39 -15 -22 20 -47 21 -55 1 -3 -8 -16 -15 -30 -15 -19 0 -26 7
-31 30 -9 42 -63 84 -139 110 -105 35 -149 77 -207 199 -44 92 -125 186 -196
228 -24 14 -53 38 -64 55 -19 26 -21 38 -15 92 6 60 5 63 -19 74 -14 7 -64 12
-111 12 -150 0 -215 32 -240 117 -13 46 -34 51 -103 28 -26 -8 -56 -13 -67 -9
-36 13 -64 48 -71 87 -7 43 -28 61 -87 72 -48 8 -83 42 -91 88 -11 56 -65 89
-102 61 -31 -23 -43 -17 -43 25 0 45 -40 94 -74 89 -28 -4 -26 -52 3 -108 12
-22 21 -50 21 -61 0 -31 -46 -71 -78 -67 -26 3 -28 7 -36 73 -5 39 -9 94 -9
123 0 28 -4 52 -8 52 -4 0 -21 -11 -37 -25z"/>
</g>
</svg>
