<?xml version="1.0" standalone="no"?>
<!DOCTYPE svg PUBLIC "-//W3C//DTD SVG 20010904//EN"
 "http://www.w3.org/TR/2001/REC-SVG-20010904/DTD/svg10.dtd">
<svg version="1.0" xmlns="http://www.w3.org/2000/svg"
 width="596.000000pt" height="612.000000pt" viewBox="0 0 596.000000 612.000000"
 preserveAspectRatio="xMidYMid meet">
<metadata>
Created by potrace 1.16, written by Peter Selinger 2001-2019
</metadata>
<g transform="translate(0.000000,612.000000) scale(0.100000,-0.100000)"
fill="#000000" stroke="none">
<path d="M4097 5878 c5 -40 8 -122 8 -183 0 -94 -3 -117 -23 -160 -32 -70 -58
-95 -99 -95 -45 0 -84 -21 -117 -65 -51 -66 -162 -107 -301 -109 -49 -1 -95
-5 -102 -9 -7 -4 -15 -34 -19 -67 -6 -51 -11 -63 -38 -83 -50 -38 -94 -58
-151 -67 -89 -15 -97 -23 -163 -172 -35 -77 -57 -90 -101 -59 -16 12 -35 21
-43 21 -16 0 -100 -84 -117 -117 -6 -12 -11 -35 -11 -51 0 -59 -31 -136 -75
-182 -71 -77 -105 -215 -75 -306 17 -49 7 -161 -18 -217 -11 -25 -36 -63 -57
-86 -39 -43 -41 -59 -20 -143 6 -23 2 -30 -36 -54 -24 -15 -59 -37 -77 -48
-23 -15 -45 -46 -73 -103 -66 -132 -93 -151 -192 -139 -139 17 -202 19 -215 4
-8 -10 -13 -61 -15 -139 -4 -144 -24 -210 -89 -297 -41 -55 -88 -146 -88 -172
0 -33 -39 -78 -77 -90 -54 -18 -61 -26 -69 -76 -3 -24 -20 -65 -38 -90 -66
-100 -90 -141 -113 -199 -14 -34 -43 -80 -68 -105 -24 -25 -61 -82 -83 -126
-50 -99 -102 -154 -191 -199 -79 -39 -109 -71 -157 -167 -19 -38 -55 -102 -79
-141 -25 -39 -45 -80 -45 -90 0 -31 -28 -87 -76 -150 -25 -34 -55 -78 -65 -99
-16 -32 -25 -38 -50 -38 -28 0 -31 -2 -24 -23 17 -54 16 -83 -6 -167 -17 -66
-32 -102 -58 -135 -20 -24 -43 -54 -52 -67 -16 -21 -17 -22 -42 -5 -41 26 -54
21 -77 -30 -27 -61 -63 -99 -121 -128 -26 -13 -58 -38 -73 -56 -31 -37 -60
-89 -52 -96 14 -14 277 -43 341 -38 45 4 81 2 100 -6 17 -6 79 -13 138 -15 60
-2 115 -8 122 -14 7 -6 13 -27 13 -46 0 -42 57 -133 97 -154 15 -8 62 -13 126
-13 97 -1 103 0 124 25 35 41 60 50 101 39 44 -12 60 -7 100 33 17 17 46 40
65 51 32 19 38 31 110 244 70 209 78 226 106 239 19 9 38 31 52 59 12 25 27
43 34 40 6 -2 17 -26 23 -53 l10 -49 83 0 c90 0 90 0 108 60 7 26 14 31 58 38
45 7 82 14 178 34 18 3 37 19 52 43 32 50 38 53 83 39 32 -9 44 -8 70 5 17 9
54 16 82 16 87 0 147 48 188 151 26 63 52 82 139 105 108 28 299 141 333 196
22 37 26 85 8 123 -19 43 7 59 100 62 149 4 193 13 244 50 57 41 88 79 88 105
0 12 -39 58 -96 114 -95 92 -135 116 -213 126 -13 2 -33 16 -45 31 -25 34 -18
48 45 95 107 80 101 72 108 142 l6 65 39 6 c42 7 74 37 99 92 11 25 15 27 53
21 39 -6 42 -4 93 51 28 32 58 70 67 86 l14 29 33 -20 c42 -26 48 -25 101 8
24 16 72 37 106 47 57 17 63 17 71 2 5 -9 21 -29 35 -46 23 -27 30 -30 82 -28
31 1 75 -2 98 -7 40 -8 41 -7 62 28 12 20 26 36 33 36 6 0 36 -23 67 -50 72
-64 119 -87 225 -107 67 -13 89 -14 100 -5 16 14 31 98 19 117 -7 12 -118 103
-229 188 l-63 48 76 90 c76 89 118 120 206 148 20 7 48 27 62 46 28 37 149
125 171 125 8 0 21 10 29 21 l15 21 83 -35 c104 -45 138 -50 138 -24 0 8 14
33 30 55 17 24 30 54 30 71 0 51 10 61 109 111 53 27 103 55 111 62 29 24 68
83 72 108 2 19 16 32 57 52 29 15 59 32 66 38 19 16 8 44 -30 79 l-34 30 4 98
c1 54 3 101 4 105 0 3 17 12 36 18 44 15 44 27 1 45 -45 19 -66 50 -66 100 0
22 -11 64 -25 94 -14 29 -28 70 -31 91 -6 36 -4 40 34 64 50 31 72 62 72 99 0
44 -16 65 -78 97 -39 20 -64 41 -81 68 -13 22 -41 50 -62 63 -45 28 -55 51
-64 141 -7 74 -17 88 -44 64 -22 -20 -77 -20 -111 -1 -14 8 -51 14 -82 15 -52
0 -58 2 -64 24 -11 46 -1 58 71 88 39 16 85 35 102 40 44 15 73 44 73 73 0 20
-5 25 -25 25 -16 0 -25 6 -25 16 0 16 49 134 56 134 22 0 55 -30 67 -61 13
-33 20 -39 46 -39 41 0 51 22 51 115 0 75 -1 77 -22 72 -13 -4 -42 -9 -65 -13
-39 -6 -43 -5 -53 20 -8 21 -16 26 -46 26 -28 0 -44 8 -70 34 -30 30 -34 40
-34 88 0 44 -4 59 -23 76 -13 12 -34 22 -46 22 -35 0 -97 -55 -134 -118 -27
-46 -38 -57 -58 -56 -24 2 -310 73 -401 100 -26 8 -67 14 -92 14 -27 0 -46 5
-46 11 0 7 -12 9 -35 5 -25 -5 -45 -1 -74 14 -22 11 -54 20 -71 20 -43 0 -93
23 -162 75 -84 63 -90 61 -81 -27z"/>
</g>
</svg>
