<?xml version="1.0" standalone="no"?>
<!DOCTYPE svg PUBLIC "-//W3C//DTD SVG 20010904//EN"
 "http://www.w3.org/TR/2001/REC-SVG-20010904/DTD/svg10.dtd">
<svg version="1.0" xmlns="http://www.w3.org/2000/svg"
 width="1024.000000pt" height="768.000000pt" viewBox="0 0 1024.000000 768.000000"
 preserveAspectRatio="xMidYMid meet">
<metadata>
Created by potrace 1.16, written by Peter Selinger 2001-2019
</metadata>
<g transform="translate(0.000000,768.000000) scale(0.100000,-0.100000)"
fill="#000000" stroke="none">
<path d="M6292 7282 c-13 -2 -64 -30 -113 -62 -101 -66 -93 -65 -349 -80 -96
-6 -188 -16 -205 -22 -45 -17 -92 -65 -131 -134 -41 -74 -77 -112 -124 -132
-42 -18 -146 -20 -178 -3 -16 8 -58 10 -143 7 l-121 -6 -55 -72 c-30 -40 -64
-89 -76 -108 -11 -19 -55 -73 -97 -120 -107 -119 -169 -204 -176 -240 -12 -58
-92 -53 -153 10 -30 31 -45 40 -72 40 -50 0 -72 -20 -104 -95 -23 -55 -34 -69
-67 -86 -36 -19 -47 -19 -176 -9 -204 15 -192 17 -189 -26 2 -34 -1 -38 -33
-49 -37 -12 -40 -18 -61 -117 -9 -43 -17 -58 -33 -63 -12 -3 -40 -32 -64 -65
-37 -51 -51 -62 -87 -71 -50 -13 -51 -24 -2 -76 17 -18 29 -34 26 -37 -13 -11
-48 -15 -54 -6 -5 8 -11 8 -21 -1 -10 -9 -13 -24 -8 -58 5 -40 1 -54 -28 -106
-57 -99 -185 -251 -231 -271 -55 -25 -68 -58 -52 -135 15 -73 11 -79 -72 -105
-115 -35 -143 -57 -143 -115 0 -66 -23 -105 -74 -130 -38 -18 -46 -26 -46 -49
0 -15 7 -33 15 -40 8 -7 15 -26 15 -43 0 -24 -16 -47 -80 -113 -74 -77 -88
-98 -119 -176 -9 -24 -14 -27 -41 -22 -36 8 -60 -9 -60 -41 0 -60 -116 -151
-224 -175 -28 -6 -68 -20 -88 -31 -21 -11 -61 -23 -90 -26 -82 -10 -137 -38
-196 -101 l-52 -57 -18 23 c-28 36 -63 26 -86 -23 -16 -35 -19 -37 -31 -22
-14 20 -46 22 -63 5 -7 -7 -12 -26 -12 -42 0 -17 -9 -51 -21 -75 -15 -35 -17
-46 -7 -52 82 -48 151 -115 197 -193 19 -32 103 -223 187 -424 85 -202 161
-383 171 -402 10 -19 58 -70 108 -113 49 -44 98 -93 108 -110 11 -17 29 -70
42 -118 12 -48 33 -107 46 -131 l24 -43 85 -5 c47 -3 91 -9 98 -13 19 -12 14
-38 -12 -66 -12 -15 -36 -57 -51 -96 -36 -90 -35 -155 6 -265 16 -44 29 -96
29 -114 0 -33 1 -34 61 -46 48 -10 70 -11 113 0 77 18 89 13 103 -44 17 -67
58 -115 131 -151 51 -25 64 -36 73 -65 7 -19 33 -58 59 -85 61 -65 97 -122
105 -165 3 -19 9 -43 11 -52 3 -9 45 -47 94 -83 76 -57 139 -119 226 -223 49
-59 144 -101 278 -122 63 -10 74 -9 118 10 43 18 51 19 76 6 15 -8 36 -24 47
-36 48 -53 126 -75 325 -90 105 -8 169 -18 197 -30 23 -10 44 -15 48 -12 3 3
3 49 -1 101 -7 111 6 158 53 187 50 32 73 67 100 154 32 101 32 138 3 185 -13
21 -19 42 -15 54 3 11 65 67 138 125 73 58 137 111 143 118 18 23 34 79 34
123 0 44 -29 95 -54 95 -23 0 -56 45 -56 76 0 58 99 127 206 144 46 7 64 16
82 37 13 16 45 51 72 78 26 28 63 79 80 115 18 36 47 77 64 93 l31 28 108 -6
c121 -8 133 -5 235 57 75 46 114 48 208 13 104 -39 166 -35 311 21 65 25 159
55 208 65 158 34 265 82 440 197 160 105 324 209 465 294 42 26 100 54 130 63
30 10 65 27 78 39 l22 22 -25 72 c-14 39 -25 84 -25 98 0 17 -15 42 -41 72
-41 44 -42 45 -36 106 18 190 16 183 126 404 36 74 92 112 221 152 58 18 112
38 121 46 10 9 19 39 23 76 3 34 12 66 19 70 41 25 41 25 14 57 -30 37 -42 98
-34 183 4 51 11 66 38 94 28 29 139 84 170 84 6 0 40 14 74 30 78 37 105 75
105 147 0 38 7 60 29 94 44 69 46 92 11 132 -23 26 -30 44 -30 75 0 56 -22
113 -73 185 -27 38 -51 87 -62 127 -23 88 -34 106 -99 168 -55 52 -56 54 -56
110 0 109 -8 129 -54 147 -22 10 -77 21 -121 25 -44 4 -92 13 -108 19 -15 6
-82 67 -149 136 -121 125 -170 160 -253 179 -51 12 -66 30 -74 89 -4 30 -15
62 -24 72 -21 21 -117 55 -155 55 -44 0 -164 132 -242 266 -95 164 -134 199
-262 229 -69 16 -75 22 -120 110 -17 33 -42 72 -56 88 -23 24 -33 27 -92 27
-63 0 -68 2 -79 27 -7 14 -19 64 -27 110 -8 47 -22 99 -30 116 -41 81 -101
136 -142 129z"/>
</g>
</svg>
