<?xml version="1.0" standalone="no"?>
<!DOCTYPE svg PUBLIC "-//W3C//DTD SVG 20010904//EN"
 "http://www.w3.org/TR/2001/REC-SVG-20010904/DTD/svg10.dtd">
<svg version="1.0" xmlns="http://www.w3.org/2000/svg"
 width="955.000000pt" height="1024.000000pt" viewBox="0 0 955.000000 1024.000000"
 preserveAspectRatio="xMidYMid meet">
<metadata>
Created by potrace 1.16, written by Peter Selinger 2001-2019
</metadata>
<g transform="translate(0.000000,1024.000000) scale(0.100000,-0.100000)"
fill="#000000" stroke="none">
<path d="M4261 10151 c-10 -10 -37 -44 -60 -74 -22 -31 -51 -63 -63 -71 -27
-19 -83 -20 -177 -4 -65 11 -74 10 -123 -10 -88 -36 -110 -29 -158 50 -18 29
-38 56 -44 60 -20 14 -61 8 -134 -16 -39 -13 -104 -32 -144 -41 -40 -9 -79
-20 -87 -24 -7 -5 -19 -36 -27 -70 -8 -34 -46 -123 -84 -197 -76 -148 -82
-175 -51 -245 11 -24 23 -61 26 -82 7 -35 5 -40 -30 -70 -20 -18 -55 -51 -78
-74 -48 -51 -85 -57 -114 -18 -18 25 -19 25 -51 9 -22 -10 -66 -18 -125 -20
-51 -2 -111 -9 -135 -15 -38 -10 -48 -19 -74 -66 -30 -54 -57 -76 -148 -124
-69 -36 -80 -69 -90 -257 -9 -160 -26 -345 -36 -394 -4 -22 -16 -31 -62 -48
-31 -11 -75 -27 -98 -35 -48 -18 -89 -58 -123 -123 -21 -38 -37 -53 -86 -77
-53 -27 -63 -37 -90 -90 -33 -66 -68 -97 -211 -182 -82 -50 -92 -53 -154 -53
l-66 0 -59 -61 c-65 -66 -183 -155 -282 -213 -34 -20 -78 -55 -98 -79 -20 -23
-55 -51 -78 -62 -31 -15 -49 -33 -69 -70 -38 -70 -60 -85 -123 -85 -72 0 -98
-12 -123 -54 -18 -31 -27 -36 -57 -36 -25 0 -35 -4 -35 -16 0 -9 -16 -32 -36
-52 -68 -68 -70 -74 -44 -143 28 -78 23 -89 -38 -89 -65 0 -77 -15 -77 -98 0
-64 -1 -67 -35 -89 -55 -36 -60 -42 -60 -77 0 -47 -26 -66 -88 -66 -29 0 -52
-4 -52 -10 0 -5 4 -10 9 -10 5 0 56 -46 112 -103 75 -74 118 -126 153 -187 89
-153 118 -172 253 -163 68 4 84 2 123 -19 53 -27 90 -78 90 -124 0 -83 -125
-71 -300 30 -44 25 -84 46 -90 46 -5 0 -10 -15 -10 -34 0 -52 38 -90 123 -122
221 -84 431 -187 638 -315 194 -120 354 -261 442 -389 20 -31 62 -111 93 -180
31 -69 71 -144 91 -168 51 -63 152 -109 328 -152 44 -11 170 -51 280 -89 110
-38 226 -74 258 -81 31 -6 57 -15 57 -19 0 -4 -11 -18 -25 -31 -29 -27 -32
-60 -7 -83 9 -8 58 -25 107 -37 114 -26 159 -54 210 -126 29 -41 60 -70 105
-97 36 -22 67 -43 70 -47 3 -4 23 -19 44 -34 48 -32 82 -34 91 -5 9 29 17 17
54 -80 49 -130 94 -194 251 -356 80 -83 188 -197 240 -254 118 -129 321 -309
420 -372 142 -90 154 -101 161 -144 5 -30 17 -48 58 -83 29 -25 75 -79 104
-121 74 -111 248 -293 354 -372 55 -41 113 -95 144 -134 37 -48 68 -75 117
-102 37 -20 103 -62 147 -93 44 -32 121 -80 170 -108 50 -28 124 -79 165 -112
42 -34 127 -86 195 -121 73 -36 146 -82 185 -115 130 -111 208 -156 405 -234
240 -96 364 -161 445 -234 59 -53 103 -82 205 -131 96 -47 152 -82 215 -136
107 -90 162 -115 302 -140 171 -31 428 -87 526 -115 176 -51 239 -91 304 -194
29 -47 175 -121 304 -155 67 -18 315 -39 345 -30 11 4 27 17 35 30 14 22 14
29 -1 74 -9 27 -15 70 -14 95 2 38 -2 52 -29 85 -43 53 -52 81 -52 152 0 62 3
68 64 117 19 15 15 53 -16 143 -22 66 -23 84 -13 204 7 85 6 94 -20 155 -31
71 -36 150 -13 198 8 15 36 39 66 55 36 19 52 34 52 48 0 11 -12 72 -26 136
-22 93 -25 125 -18 162 8 42 12 47 54 62 57 20 110 88 135 170 15 49 16 67 6
115 -17 88 -14 141 9 164 37 37 80 16 80 -37 0 -11 5 -24 11 -30 18 -18 50 8
100 80 38 53 44 69 44 112 0 63 -25 105 -61 105 -40 0 -64 18 -84 63 -20 45
-13 67 21 67 29 0 44 33 94 209 54 190 54 212 -4 253 -38 27 -38 28 -59 150
-17 98 -20 146 -15 233 5 98 4 112 -13 133 -24 29 -70 32 -123 7 -64 -28 -103
-15 -152 52 -37 49 -53 61 -137 100 -96 45 -124 49 -189 28 -18 -6 -34 4 -84
51 -34 33 -68 74 -76 92 -13 31 -12 37 6 73 36 68 31 81 -55 130 -108 62 -123
96 -79 184 32 66 31 93 -6 143 -39 53 -106 102 -200 145 -170 78 -196 80 -384
31 -69 -17 -112 -24 -140 -19 -22 3 -112 44 -201 90 -97 50 -186 90 -224 98
-78 18 -101 42 -130 131 -12 37 -35 82 -49 99 -25 28 -34 30 -119 37 -87 8
-96 10 -145 48 -32 24 -72 44 -104 52 -29 6 -53 16 -53 20 0 5 31 25 69 45 60
32 70 41 80 76 7 23 23 46 39 56 130 81 173 116 290 241 135 144 138 149 182
300 15 50 20 84 15 111 -4 23 -2 42 4 45 5 4 13 30 16 60 8 60 25 91 73 131
41 34 41 66 2 125 -16 25 -30 51 -30 57 0 7 14 55 30 106 17 52 30 104 30 116
0 23 -25 51 -97 108 -42 33 -54 64 -83 211 -8 37 -28 87 -48 120 -69 113 -67
99 -52 268 19 222 6 253 -157 376 -75 57 -90 78 -103 148 -12 64 -22 77 -69
90 -47 13 -186 13 -233 0 -33 -10 -41 -19 -75 -87 l-38 -77 2 -125 c2 -146 -2
-157 -97 -221 -69 -47 -90 -73 -90 -115 0 -47 -13 -59 -55 -52 -66 11 -97 -53
-76 -153 15 -72 14 -122 -5 -149 -15 -21 -22 -23 -63 -17 -129 19 -157 19
-207 -4 -27 -12 -81 -25 -121 -30 -59 -6 -79 -13 -110 -39 -64 -53 -102 -39
-143 52 -32 70 -44 83 -118 123 -67 35 -75 51 -67 125 l7 59 -39 16 c-21 9
-66 20 -100 24 -68 9 -83 15 -83 35 0 7 -13 26 -28 43 -27 29 -28 29 -137 29
-66 0 -126 -5 -149 -13 -55 -20 -100 -19 -92 2 3 9 6 19 6 23 0 5 22 22 49 38
44 28 54 41 106 149 96 200 110 244 107 357 -1 53 7 163 17 243 23 179 20 196
-53 259 -105 89 -129 218 -82 429 15 65 24 126 21 136 -3 11 -20 21 -41 25
-19 3 -38 13 -41 22 -4 9 -1 54 5 100 13 100 8 119 -53 178 -55 54 -62 87 -45
214 15 116 11 191 -10 201 -8 4 -31 15 -50 24 -19 9 -53 29 -75 45 -34 25 -42
38 -55 92 -9 34 -21 64 -28 67 -6 2 -33 -17 -58 -42 -25 -25 -49 -46 -54 -46
-19 0 -50 55 -60 108 -28 151 -33 166 -60 194 -34 34 -90 38 -119 9z"/>
</g>
</svg>
