<?xml version="1.0" standalone="no"?>
<!DOCTYPE svg PUBLIC "-//W3C//DTD SVG 20010904//EN"
 "http://www.w3.org/TR/2001/REC-SVG-20010904/DTD/svg10.dtd">
<svg version="1.0" xmlns="http://www.w3.org/2000/svg"
 width="1024.000000pt" height="768.000000pt" viewBox="0 0 1024.000000 768.000000"
 preserveAspectRatio="xMidYMid meet">
<metadata>
Created by potrace 1.16, written by Peter Selinger 2001-2019
</metadata>
<g transform="translate(0.000000,768.000000) scale(0.100000,-0.100000)"
fill="#000000" stroke="none">
<path d="M2537 7283 c-10 -16 -27 -152 -28 -225 -1 -70 1 -80 25 -108 14 -18
26 -36 26 -41 0 -22 -56 -58 -183 -118 -113 -53 -138 -68 -148 -92 -14 -35
-45 -59 -75 -59 -21 0 -34 -17 -34 -46 0 -9 -12 -31 -26 -50 -22 -28 -33 -34
-64 -34 -36 0 -41 -4 -84 -69 -25 -38 -46 -75 -46 -82 0 -7 13 -56 29 -108 50
-163 51 -174 26 -229 -12 -26 -29 -53 -38 -60 -9 -8 -28 -35 -43 -60 -41 -70
-77 -112 -97 -112 -17 0 -223 -103 -240 -120 -5 -4 16 -41 47 -81 81 -106 114
-176 157 -328 45 -157 50 -245 24 -443 l-15 -116 36 -98 c35 -93 36 -99 24
-151 -6 -30 -21 -64 -32 -75 -11 -11 -17 -26 -14 -35 4 -9 -1 -28 -11 -42 -10
-15 -17 -46 -17 -76 -1 -60 38 -206 59 -221 11 -8 14 -23 9 -60 -13 -121 -7
-112 -97 -154 -45 -21 -86 -47 -92 -58 -5 -11 -18 -34 -28 -51 -22 -39 -26
-31 128 -246 67 -93 128 -181 135 -194 7 -14 14 -70 16 -130 1 -58 3 -111 3
-118 1 -6 19 -22 40 -34 31 -17 40 -29 45 -58 3 -20 16 -44 28 -55 13 -10 31
-25 40 -33 14 -13 25 -12 85 8 l70 22 187 -63 187 -62 96 -192 96 -193 171
-41 c94 -23 250 -60 346 -83 103 -25 187 -51 205 -63 16 -11 90 -74 163 -138
l133 -118 62 31 c34 18 113 60 176 95 62 35 115 64 117 64 2 0 102 49 222 109
l219 109 214 -115 c118 -63 338 -180 489 -260 151 -80 298 -158 325 -173 28
-15 95 -51 150 -80 97 -51 196 -103 340 -180 39 -21 162 -86 275 -145 113 -59
279 -147 370 -195 91 -48 217 -114 280 -147 267 -140 364 -191 520 -273 91
-48 260 -136 375 -195 116 -60 224 -117 240 -127 17 -10 33 -18 38 -18 4 0 7
54 7 120 l0 120 225 0 225 0 0 2290 0 2290 -25 62 c-15 38 -25 81 -25 112 0
30 -6 61 -15 73 -8 12 -14 39 -13 60 1 23 -10 63 -27 100 -30 69 -29 90 9 144
43 58 65 104 85 179 l20 72 -28 71 c-17 44 -31 102 -35 150 l-7 79 46 40 c25
22 45 46 45 54 0 8 11 25 25 38 22 21 24 27 15 52 -6 16 -20 38 -30 49 -10 11
-20 36 -22 55 -3 34 -5 36 -63 51 -47 13 -91 15 -206 11 -147 -5 -189 2 -189
32 0 23 -148 69 -193 60 -27 -5 -157 25 -157 37 0 5 -16 17 -35 26 -38 18 -43
28 -20 37 17 6 21 66 4 66 -7 0 -9 13 -4 38 l6 37 -48 14 c-26 7 -75 23 -108
36 -33 13 -75 26 -94 30 -18 4 -49 18 -68 31 -20 13 -50 24 -69 24 -19 0 -37
6 -42 16 -7 13 -17 14 -75 3 -51 -10 -75 -10 -105 -1 -60 18 -72 15 -126 -30
-48 -41 -52 -42 -136 -48 -77 -4 -93 -9 -146 -41 -32 -20 -81 -46 -107 -57
-96 -42 -251 -190 -299 -286 -24 -48 -30 -73 -32 -130 -2 -115 12 -167 75
-279 45 -79 23 -168 -71 -297 -72 -98 -118 -138 -213 -185 -78 -38 -100 -45
-151 -45 -45 0 -70 6 -96 22 -19 12 -56 32 -82 45 -27 13 -48 27 -48 32 0 5
-29 30 -64 55 -36 25 -75 59 -88 75 -23 30 -103 71 -137 71 -10 0 -26 9 -36
20 -10 11 -22 20 -27 20 -12 0 -129 44 -183 69 -22 10 -69 26 -105 35 -36 9
-96 25 -135 36 -46 13 -102 20 -162 20 -156 0 -313 48 -385 117 -73 70 -138
218 -138 314 0 40 -7 72 -22 101 -35 68 -59 88 -125 98 -223 37 -249 45 -326
107 -42 34 -78 54 -103 58 -22 4 -56 13 -77 21 -20 8 -62 14 -91 14 -42 0 -72
8 -127 35 -79 38 -113 43 -144 21 -11 -7 -53 -23 -92 -35 -70 -21 -77 -21
-182 -7 -109 14 -110 14 -202 76 -95 63 -161 93 -186 83 -8 -3 -23 4 -34 16
-21 22 -35 26 -42 14z"/>
</g>
</svg>
