<?xml version="1.0" standalone="no"?>
<!DOCTYPE svg PUBLIC "-//W3C//DTD SVG 20010904//EN"
 "http://www.w3.org/TR/2001/REC-SVG-20010904/DTD/svg10.dtd">
<svg version="1.0" xmlns="http://www.w3.org/2000/svg"
 width="549.000000pt" height="1024.000000pt" viewBox="0 0 549.000000 1024.000000"
 preserveAspectRatio="xMidYMid meet">
<metadata>
Created by potrace 1.16, written by Peter Selinger 2001-2019
</metadata>
<g transform="translate(0.000000,1024.000000) scale(0.100000,-0.100000)"
fill="#000000" stroke="none">
<path d="M2183 10228 c-18 -6 -33 -16 -33 -22 0 -7 -9 -30 -21 -51 -12 -23
-24 -73 -29 -116 -5 -42 -16 -98 -24 -123 -11 -33 -16 -85 -16 -176 0 -120 -1
-130 -18 -130 -14 0 -24 -15 -37 -55 -11 -30 -25 -56 -33 -57 -12 -3 -44 -76
-59 -135 -3 -12 -15 -29 -28 -37 -14 -9 -25 -29 -28 -53 -11 -64 -55 -142 -98
-169 -42 -26 -52 -50 -47 -110 3 -37 5 -39 43 -44 40 -5 40 -5 43 -51 2 -30
-6 -71 -21 -115 l-24 -69 -125 -1 c-140 0 -164 -9 -232 -84 -83 -92 -106 -201
-67 -328 11 -39 21 -81 21 -95 0 -13 12 -46 27 -73 25 -45 28 -58 27 -149 0
-89 -4 -109 -32 -178 -18 -43 -32 -92 -32 -110 -1 -17 -7 -43 -15 -57 -8 -14
-14 -36 -15 -50 0 -33 -44 -60 -97 -60 -51 0 -64 -10 -74 -59 -5 -22 -14 -60
-20 -83 -5 -24 -14 -65 -18 -92 -7 -41 -16 -57 -60 -98 -28 -27 -63 -65 -77
-84 -19 -25 -37 -36 -65 -40 -36 -6 -38 -9 -49 -58 -7 -28 -13 -71 -15 -96 -2
-25 -8 -58 -14 -73 -17 -44 -13 -108 10 -178 26 -77 36 -212 21 -283 -55 -269
-58 -660 -5 -718 11 -12 14 -28 10 -51 -3 -23 2 -48 19 -83 13 -27 24 -64 24
-81 0 -18 4 -52 9 -75 6 -24 14 -83 20 -133 14 -132 61 -256 123 -321 26 -28
55 -68 64 -90 9 -21 39 -64 68 -95 91 -101 134 -189 190 -389 9 -32 26 -66 41
-80 14 -13 25 -31 25 -39 0 -9 16 -54 35 -101 19 -46 35 -93 35 -105 0 -11 11
-44 25 -73 14 -30 25 -69 25 -87 0 -22 7 -39 20 -48 13 -9 26 -41 39 -99 11
-47 31 -115 45 -150 76 -196 104 -277 110 -309 4 -23 13 -39 24 -41 11 -3 24
-26 35 -61 15 -47 17 -76 11 -184 -7 -126 -6 -130 20 -186 19 -39 26 -66 22
-85 -4 -18 2 -43 19 -76 32 -63 32 -119 0 -188 -14 -29 -25 -66 -25 -83 0 -16
-12 -57 -26 -90 -14 -33 -29 -85 -34 -116 -6 -31 -21 -82 -35 -113 -16 -36
-29 -92 -36 -152 -16 -149 -43 -207 -100 -219 -20 -5 -29 -13 -29 -26 0 -10
-7 -19 -15 -19 -9 0 -45 -20 -82 -45 -36 -25 -73 -45 -83 -45 -48 0 -81 -23
-107 -74 -14 -28 -38 -67 -53 -86 -15 -19 -42 -64 -59 -100 -50 -103 -77 -144
-160 -237 -88 -101 -131 -132 -288 -209 -62 -31 -128 -68 -148 -84 -20 -16
-49 -32 -66 -35 -19 -4 -29 -13 -29 -25 0 -13 -11 -20 -37 -25 -20 -3 -72 -18
-114 -32 -65 -20 -88 -34 -135 -79 -69 -66 -75 -70 -143 -79 -37 -5 -62 -15
-78 -31 -21 -21 -23 -31 -23 -128 0 -77 4 -108 14 -119 20 -19 178 -21 250 -2
31 8 81 15 111 15 44 0 56 -4 65 -20 6 -12 8 -29 5 -39 -8 -25 13 -31 63 -18
l42 11 0 58 c0 59 3 64 56 109 10 9 24 24 29 34 10 16 15 16 46 6 45 -15 109
-68 109 -91 0 -20 40 -50 67 -50 10 1 50 30 88 65 l70 65 78 0 c64 0 86 5 126
26 27 14 52 32 55 40 3 8 17 14 32 14 35 0 123 51 202 116 52 43 78 56 145 74
45 12 106 34 137 48 50 24 66 26 185 26 140 0 334 -16 375 -32 14 -6 39 -22
55 -37 17 -14 40 -30 53 -35 15 -7 22 -18 22 -37 0 -15 8 -36 18 -47 18 -21
41 -71 82 -178 12 -31 33 -71 46 -89 13 -18 24 -41 24 -51 0 -11 9 -32 21 -47
12 -16 24 -50 27 -76 l5 -47 34 5 c44 8 63 23 63 53 0 53 16 72 67 77 26 3 80
13 118 22 55 14 107 17 236 15 136 -2 171 1 197 14 22 12 59 16 130 16 65 0
115 5 143 16 24 8 66 19 93 25 29 5 73 25 104 47 49 34 61 37 126 38 50 1 85
8 112 22 21 10 61 23 89 27 27 4 67 16 88 27 22 11 67 25 101 33 33 7 69 16
79 20 9 4 36 46 59 94 l42 86 -3 212 -2 213 25 24 c26 23 121 56 167 56 13 0
35 9 49 20 16 13 41 20 70 20 25 0 54 7 64 15 11 8 32 15 47 15 43 0 77 20 84
49 3 14 25 57 48 95 l42 68 80 3 c151 5 161 15 171 179 4 58 10 106 14 106 5
0 17 16 29 36 17 29 21 52 21 127 0 90 -13 167 -29 167 -12 0 -71 87 -71 105
0 9 -11 30 -25 47 -14 16 -25 38 -25 49 0 22 -71 99 -92 99 -18 1 -61 39 -83
73 -9 15 -24 27 -31 27 -8 0 -14 4 -14 9 0 12 -63 41 -90 41 -11 0 -38 13 -58
29 -20 16 -47 32 -58 35 -39 12 -65 115 -55 221 1 6 37 47 80 92 77 80 138
124 211 153 55 21 90 49 90 72 0 11 8 22 20 25 10 3 22 15 25 27 16 53 37 85
74 109 29 20 43 38 53 68 7 25 19 44 30 47 24 6 23 23 -2 45 -11 9 -20 23 -20
30 0 7 -20 26 -46 42 -39 25 -61 46 -116 114 -8 10 -8 35 1 95 20 136 -16 316
-64 316 -35 0 -59 36 -66 98 -4 31 -12 97 -18 146 -10 79 -10 92 5 115 10 14
24 31 32 37 14 11 34 99 24 109 -3 3 -19 5 -36 5 -22 0 -39 -9 -61 -33 -16
-18 -48 -40 -70 -48 -34 -13 -41 -20 -45 -49 l-5 -35 -125 -3 c-107 -2 -131 0
-171 18 -31 13 -70 20 -108 20 -65 0 -70 3 -110 82 -16 32 -22 36 -75 57 -32
13 -31 1 -10 198 6 51 3 69 -15 105 -11 25 -21 63 -21 85 0 47 -20 102 -47
124 -10 9 -49 24 -87 33 -39 10 -95 33 -126 52 -30 19 -60 34 -65 34 -13 0
-49 39 -65 70 -7 14 -30 46 -51 71 -22 26 -39 56 -39 67 0 11 -7 22 -15 26 -8
3 -15 14 -15 24 0 26 -52 72 -93 81 -53 13 -256 -4 -294 -23 -21 -11 -50 -16
-85 -14 l-53 3 -3 54 c-3 57 28 146 69 200 11 13 19 34 19 47 0 13 9 28 20 34
11 6 20 21 20 33 0 12 9 36 20 52 14 21 20 47 20 88 0 40 8 77 26 120 24 55
27 76 28 192 1 110 4 136 21 166 39 70 74 117 93 123 35 11 62 62 69 128 4 40
16 81 33 113 15 28 31 64 34 82 4 18 17 47 30 65 41 62 49 94 43 177 -2 42
-13 103 -22 133 l-18 56 -47 4 c-40 4 -53 11 -91 52 -53 57 -56 64 -64 139 -5
43 -13 63 -30 80 -13 12 -45 67 -70 121 -26 54 -53 105 -61 113 -8 8 -14 18
-14 23 0 4 -29 25 -65 44 -35 20 -67 41 -70 46 -3 6 -45 33 -92 61 -47 27 -92
56 -99 64 -8 7 -23 17 -34 20 -11 3 -20 10 -20 16 0 5 -18 12 -40 15 -22 4
-40 10 -40 15 0 5 -6 9 -13 9 -8 0 -21 8 -30 18 -26 28 -24 190 2 223 10 13
21 34 25 47 8 23 65 72 84 72 7 0 12 4 12 9 0 5 13 14 30 21 16 7 41 27 54 45
24 31 26 41 28 172 2 122 0 142 -17 174 -11 20 -31 59 -45 85 -14 27 -27 51
-30 54 -3 3 -18 23 -33 45 -15 22 -43 60 -61 85 -19 25 -35 51 -35 58 -1 6 -4
12 -8 12 -5 0 -20 21 -36 48 -33 57 -39 66 -99 160 -27 40 -48 79 -48 86 0 17
-58 106 -69 106 -6 0 -30 28 -55 63 -41 57 -54 67 -148 115 -57 29 -109 52
-115 52 -7 0 -13 7 -13 15 0 8 -10 20 -22 26 -13 6 -35 23 -50 37 -28 25 -28
28 -28 144 0 65 -3 118 -7 117 -5 -1 -23 -6 -40 -11z"/>
</g>
</svg>
