<?xml version="1.0" standalone="no"?>
<!DOCTYPE svg PUBLIC "-//W3C//DTD SVG 20010904//EN"
 "http://www.w3.org/TR/2001/REC-SVG-20010904/DTD/svg10.dtd">
<svg version="1.0" xmlns="http://www.w3.org/2000/svg"
 width="932.000000pt" height="720.000000pt" viewBox="0 0 932.000000 720.000000"
 preserveAspectRatio="xMidYMid meet">
<metadata>
Created by potrace 1.16, written by Peter Selinger 2001-2019
</metadata>
<g transform="translate(0.000000,720.000000) scale(0.100000,-0.100000)"
fill="#000000" stroke="none">
<path d="M6215 6972 c-34 -7 -55 -33 -55 -69 0 -36 -10 -40 -57 -22 -25 9 -30
7 -48 -15 -16 -21 -30 -26 -63 -26 -37 0 -45 -4 -60 -30 -14 -24 -24 -30 -53
-30 -48 0 -64 -16 -83 -81 -9 -31 -23 -62 -31 -69 -9 -7 -15 -29 -15 -54 l0
-42 -57 -18 c-32 -10 -75 -29 -95 -42 -21 -13 -40 -24 -42 -24 -3 0 -25 14
-49 31 -43 30 -45 31 -76 15 l-31 -17 0 31 c0 24 -6 33 -27 41 -27 10 -103 3
-102 -9 4 -23 -4 -32 -26 -32 -33 0 -73 -21 -104 -54 -17 -18 -35 -26 -58 -26
-28 0 -35 5 -47 34 -12 28 -21 35 -48 38 -24 2 -34 9 -36 23 -2 11 -14 31 -27
45 -12 14 -26 35 -29 47 -9 29 -16 30 -192 38 -130 6 -152 5 -163 -9 -16 -19
-41 -21 -42 -3 -2 17 -2 18 6 66 l7 44 -73 -6 c-52 -3 -103 -16 -169 -42 -101
-40 -119 -43 -191 -27 -68 16 -114 41 -133 73 -9 16 -25 29 -34 30 -62 3 -131
-5 -156 -18 -20 -10 -44 -14 -77 -10 -61 8 -92 -1 -83 -22 16 -39 16 -63 -2
-83 -18 -19 -111 -78 -125 -78 -4 0 -10 11 -13 24 -4 17 -14 26 -33 28 -33 4
-47 30 -63 113 -18 97 -23 109 -53 119 -37 13 -77 -8 -96 -51 -21 -46 -58 -56
-186 -47 -99 6 -108 5 -135 -15 -41 -30 -64 -26 -94 13 -27 36 -59 50 -141 61
-27 4 -78 18 -114 31 -55 21 -80 24 -198 24 -76 0 -143 5 -154 11 -11 5 -53
19 -93 29 -69 18 -77 19 -120 4 -25 -9 -49 -20 -52 -25 -3 -5 -23 -6 -45 -3
-46 8 -70 -8 -100 -68 -13 -26 -28 -39 -47 -43 -15 -3 -43 -10 -63 -15 -20 -6
-57 -10 -81 -10 -42 0 -49 -4 -83 -46 -71 -86 -205 -129 -262 -84 -40 31 -65
25 -110 -25 -27 -30 -48 -45 -64 -45 -27 0 -69 -25 -69 -41 0 -5 -11 -27 -25
-48 -17 -28 -47 -51 -101 -82 -52 -28 -105 -70 -162 -127 l-85 -84 6 -52 c6
-44 3 -57 -23 -101 l-29 -49 -78 -2 c-43 0 -91 -7 -107 -15 l-28 -13 6 -106
c5 -78 3 -124 -8 -178 -18 -83 -20 -244 -5 -347 5 -38 14 -120 18 -182 6 -75
14 -119 25 -134 19 -27 20 -149 6 -439 -9 -198 -32 -316 -84 -444 -18 -44 -45
-113 -60 -152 -15 -39 -40 -93 -57 -119 -34 -53 -30 -63 23 -71 34 -6 36 -5
42 31 4 20 22 53 40 73 44 49 56 74 56 114 0 18 13 58 30 88 23 44 29 68 30
120 0 36 7 97 15 135 19 85 45 368 45 485 1 77 2 83 15 66 9 -12 15 -42 15
-77 0 -34 11 -94 29 -150 16 -52 32 -110 36 -129 4 -19 18 -56 31 -82 49 -97
49 -232 -1 -364 -39 -102 -42 -117 -19 -111 67 21 69 20 80 -20 6 -21 19 -54
27 -75 16 -34 15 -37 -4 -61 -26 -34 -31 -103 -7 -101 9 1 50 27 93 59 42 32
77 56 79 54 2 -2 43 -64 91 -137 76 -117 90 -133 109 -128 11 4 44 9 71 13 46
5 56 2 120 -37 50 -30 79 -56 100 -89 27 -41 37 -48 98 -68 38 -12 91 -39 120
-60 50 -37 54 -38 147 -41 139 -4 140 -4 140 -56 0 -39 4 -46 38 -70 42 -29
77 -34 86 -11 9 25 67 54 120 60 28 3 119 1 201 -6 201 -17 240 -16 310 10 90
32 97 30 94 -26 -3 -40 3 -63 36 -130 28 -58 45 -83 58 -83 11 0 17 6 15 16
-2 10 3 19 10 21 6 3 12 -2 12 -9 0 -8 19 -23 42 -34 26 -11 44 -27 46 -39 2
-11 11 -28 20 -38 12 -13 13 -20 4 -29 -20 -20 -13 -31 17 -25 24 5 30 2 34
-15 5 -17 11 -20 35 -15 39 8 52 -8 52 -64 0 -31 6 -55 20 -72 11 -14 20 -33
20 -44 1 -10 7 -29 15 -43 22 -38 18 -67 -10 -86 -14 -9 -28 -27 -31 -40 -3
-13 -12 -24 -20 -24 -7 0 -23 -13 -36 -30 -15 -21 -30 -30 -50 -30 -30 0 -48
-27 -48 -71 0 -11 -9 -33 -21 -48 l-21 -28 21 -42 c12 -23 18 -47 14 -54 -4
-7 -6 -24 -5 -38 3 -25 -30 -76 -68 -106 -13 -10 -13 -15 3 -41 22 -38 21 -48
-4 -83 -17 -25 -19 -34 -10 -66 6 -21 11 -71 11 -110 0 -67 2 -74 26 -89 31
-21 56 -69 79 -152 10 -34 21 -65 25 -67 8 -5 61 50 91 93 l16 22 65 -24 c36
-14 89 -28 117 -32 40 -5 51 -10 51 -25 0 -10 -5 -21 -10 -24 -16 -10 -1 -26
46 -47 49 -21 51 -26 29 -69 l-16 -29 46 -22 c45 -22 47 -22 77 -5 32 18 47
12 48 -20 0 -8 14 -13 38 -13 48 0 59 -8 64 -45 2 -25 8 -30 33 -32 17 -2 64
-10 106 -19 l75 -16 47 -74 c26 -40 47 -78 47 -84 0 -17 51 -60 71 -60 12 0
21 -10 24 -27 3 -16 23 -71 43 -123 44 -114 48 -174 14 -217 -64 -80 -64 -92
-9 -165 26 -34 40 -44 67 -46 24 -2 43 -12 60 -32 l25 -30 55 26 c41 19 66 25
97 21 53 -6 103 -41 103 -72 0 -19 4 -23 18 -18 36 13 42 23 26 48 -18 28 -10
52 27 70 34 18 61 19 76 4 16 -16 42 -4 53 26 5 14 14 25 18 25 21 0 62 -44
70 -73 8 -29 12 -32 48 -31 75 1 166 26 172 46 2 10 13 18 26 18 12 0 39 9 61
20 50 26 63 25 67 -2 2 -17 11 -24 36 -28 23 -4 38 -14 52 -37 11 -19 28 -33
39 -33 11 0 22 -9 26 -19 8 -26 26 -32 116 -38 l77 -6 73 79 c164 176 199 206
228 201 15 -3 33 1 43 10 13 12 21 12 38 3 19 -10 21 -18 17 -48 -3 -21 -9
-47 -13 -59 -6 -21 -3 -23 26 -23 25 0 41 9 70 41 23 26 50 44 71 48 27 5 36
14 45 40 6 18 16 36 23 40 9 6 7 16 -7 42 -11 19 -23 45 -27 59 -4 14 -24 49
-44 79 l-36 54 29 21 c17 11 39 30 50 42 12 11 37 24 56 27 19 4 62 21 95 37
64 33 95 32 95 -2 0 -28 43 -66 85 -74 37 -7 38 -5 140 96 95 95 105 108 117
159 9 39 17 55 28 54 8 -1 24 -3 35 -5 16 -2 21 3 23 30 4 36 11 38 51 17 26
-13 34 -12 107 17 43 17 97 32 118 33 29 2 46 10 62 29 29 33 42 33 49 -1 9
-43 20 -58 44 -61 16 -3 21 -10 21 -32 0 -16 11 -42 25 -58 25 -30 24 -42 -6
-42 -15 0 -17 -6 -12 -34 5 -34 4 -36 -46 -75 l-24 -18 21 -36 c25 -39 39 -47
87 -47 25 0 39 -7 57 -30 29 -37 46 -33 83 20 27 39 28 39 99 42 69 3 71 4 74
31 3 26 -8 56 -38 104 -12 19 -12 24 3 41 23 25 22 32 -12 83 -20 30 -39 46
-58 49 -25 5 -28 9 -25 41 2 23 -3 43 -15 58 -17 21 -20 21 -47 7 -26 -13 -33
-13 -68 1 -23 9 -53 13 -73 10 -29 -5 -38 -1 -56 21 -20 26 -20 27 -2 31 22 4
33 19 33 48 0 16 7 22 28 25 25 3 27 6 24 40 -2 31 2 40 28 58 25 17 30 28 30
60 0 22 -5 51 -12 65 -10 21 -8 29 9 48 12 12 35 57 53 100 29 70 40 84 96
129 35 27 64 53 64 57 0 3 -9 24 -21 46 -17 32 -22 62 -26 174 -3 75 -2 198 2
274 l7 137 29 0 c29 0 29 0 29 60 0 33 4 60 9 60 4 0 29 18 55 41 42 38 46 44
46 88 0 59 12 71 70 71 37 0 52 5 70 25 29 30 37 31 112 3 63 -23 77 -18 78
24 0 10 10 22 23 29 12 6 29 20 38 31 9 12 33 22 60 25 24 3 54 12 66 20 28
18 53 72 53 114 0 25 9 41 41 70 l41 38 -26 26 c-14 14 -26 30 -26 35 0 5 28
25 63 46 34 21 73 46 86 56 29 22 57 23 65 2 4 -12 14 -14 36 -9 20 4 37 1 52
-9 31 -22 33 -21 57 19 23 40 42 44 70 13 18 -18 23 -19 37 -7 9 7 37 14 63
15 40 1 143 32 160 49 3 4 -2 20 -12 38 -18 30 -18 32 -1 44 10 7 33 19 51 25
31 11 33 15 33 58 0 57 15 78 71 100 57 23 66 38 50 88 -13 38 -15 40 -67 45
-30 3 -80 17 -111 32 l-56 25 -29 -27 c-24 -23 -28 -24 -28 -8 0 17 -1 17 -20
0 -15 -13 -31 -16 -67 -13 -95 9 -220 71 -175 86 7 2 12 12 12 23 0 14 7 19
25 19 46 0 91 26 105 59 11 27 11 41 -3 90 -9 31 -14 67 -11 78 3 11 -1 41
-10 67 -9 26 -16 61 -16 79 0 30 5 35 58 59 103 48 102 46 95 244 l-6 170 -58
-4 c-49 -4 -67 0 -109 22 -32 17 -66 26 -94 26 -41 0 -47 4 -95 59 -40 46 -60
61 -94 69 -54 14 -81 43 -111 120 -13 34 -33 74 -45 90 -11 15 -23 40 -26 55
-7 25 -96 97 -122 97 -6 0 -35 32 -65 71 -63 85 -63 86 -75 124 -6 23 -15 31
-38 33 -18 2 -41 17 -60 37 -23 26 -47 38 -99 52 -66 18 -69 20 -71 51 -4 53
-49 100 -131 137 -98 45 -127 74 -118 120 5 26 1 41 -15 64 -12 16 -21 34 -21
40 0 14 -17 14 -22 0 -5 -14 -83 -31 -113 -23 -13 3 -36 21 -50 40 -31 40 -51
43 -66 10 -11 -23 -12 -23 -56 -10 -27 8 -51 10 -60 5 -9 -5 -28 -4 -44 2 -21
8 -41 8 -79 -2 -67 -17 -89 -10 -128 44 -37 51 -63 56 -137 30 -105 -38 -155
1 -170 135 -9 75 -26 116 -55 125 -12 4 -32 24 -45 45 -13 21 -29 41 -35 45
-5 3 -10 34 -10 68 0 88 -14 127 -60 172 -40 39 -41 41 -34 91 6 54 -1 65 -41
56z"/>
</g>
</svg>
