<?xml version="1.0" standalone="no"?>
<!DOCTYPE svg PUBLIC "-//W3C//DTD SVG 20010904//EN"
 "http://www.w3.org/TR/2001/REC-SVG-20010904/DTD/svg10.dtd">
<svg version="1.0" xmlns="http://www.w3.org/2000/svg"
 width="452.000000pt" height="640.000000pt" viewBox="0 0 452.000000 640.000000"
 preserveAspectRatio="xMidYMid meet">
<metadata>
Created by potrace 1.16, written by Peter Selinger 2001-2019
</metadata>
<g transform="translate(0.000000,640.000000) scale(0.100000,-0.100000)"
fill="#000000" stroke="none">
<path d="M1506 6151 c-9 -13 -121 -49 -181 -57 -92 -12 -109 -38 -84 -127 8
-31 7 -47 -5 -78 -9 -22 -16 -68 -16 -103 0 -63 -1 -64 -31 -75 -18 -6 -39
-11 -48 -11 -26 0 -176 -96 -207 -132 -52 -62 -79 -167 -62 -240 10 -48 5 -57
-66 -97 -82 -46 -96 -104 -41 -169 30 -36 30 -39 6 -116 -11 -34 -22 -74 -26
-89 -8 -39 -47 -73 -100 -86 -63 -16 -79 -43 -64 -109 8 -40 20 -60 55 -94 62
-60 59 -87 -20 -147 -33 -25 -62 -56 -68 -72 -10 -29 -17 -33 -50 -30 -22 3
-110 -36 -120 -52 -4 -7 -8 -42 -8 -79 0 -43 -7 -87 -20 -120 -11 -29 -20 -66
-20 -83 -1 -46 -33 -105 -84 -155 -71 -69 -70 -71 83 -134 95 -40 121 -60 121
-91 0 -34 -24 -47 -86 -46 l-56 0 7 -60 c6 -49 4 -64 -10 -79 -15 -16 -15 -19
-1 -27 13 -7 14 -15 5 -48 -6 -22 -20 -48 -32 -57 -20 -15 -21 -19 -8 -50 14
-35 26 -92 40 -193 11 -74 26 -114 47 -122 9 -3 50 1 92 9 43 8 82 13 87 11 6
-2 32 -46 59 -98 28 -52 81 -138 119 -191 58 -80 68 -100 62 -122 -4 -15 -9
-46 -12 -69 -5 -39 -3 -43 29 -63 43 -26 66 -25 121 6 64 35 74 29 156 -101
13 -20 12 -25 -7 -53 -37 -52 -94 -179 -90 -203 4 -28 28 -41 138 -70 47 -12
91 -27 98 -32 9 -7 12 -39 10 -115 -3 -112 -4 -115 -61 -127 -33 -7 -42 -27
-61 -139 -12 -65 -19 -84 -38 -96 -48 -31 -108 -93 -108 -112 0 -11 5 -28 11
-39 9 -18 17 -20 60 -14 l49 7 0 -54 c0 -52 -2 -56 -55 -108 -30 -30 -60 -68
-65 -86 -12 -36 -40 -50 -114 -57 -26 -3 -55 -11 -62 -19 -13 -13 -12 -18 7
-42 21 -27 26 -28 80 -23 81 9 93 -11 74 -118 l-7 -41 75 -67 c42 -37 88 -74
104 -82 38 -20 117 -18 182 4 35 12 62 16 76 11 11 -4 65 -11 120 -15 114 -8
155 -24 155 -59 0 -13 7 -29 15 -36 12 -10 14 -24 9 -62 -7 -53 8 -82 54 -99
23 -9 30 -33 12 -44 -5 -3 -10 -15 -10 -26 0 -23 35 -26 64 -4 23 18 132 10
157 -11 8 -8 32 -14 53 -14 35 0 38 3 58 48 46 106 101 128 178 69 24 -17 51
-38 61 -46 35 -25 49 -7 49 63 0 69 12 86 59 86 25 0 37 21 55 100 8 34 16 64
18 65 2 2 22 -5 45 -15 42 -18 42 -18 70 3 38 29 43 38 32 58 -30 57 -8 69
166 93 61 9 140 23 177 33 59 15 76 15 135 4 38 -8 79 -19 93 -26 28 -14 115
-115 142 -164 16 -28 21 -31 68 -31 43 0 55 -5 89 -35 29 -27 57 -40 119 -55
45 -11 89 -23 98 -27 16 -6 17 2 11 98 -9 134 -33 274 -63 370 -14 43 -21 85
-17 95 4 10 28 47 55 83 77 103 75 126 -20 189 -42 28 -56 43 -54 58 6 32 23
44 62 44 20 0 39 3 42 6 4 3 -2 25 -13 49 -25 55 -14 87 39 114 24 12 61 50
99 98 77 100 80 107 104 211 10 48 23 105 28 126 9 37 8 41 -25 71 -19 17 -34
36 -34 42 0 6 36 60 79 119 55 76 93 118 125 137 68 43 166 153 166 188 0 18
7 32 20 39 27 14 25 26 -10 67 -28 31 -30 40 -30 108 0 62 4 78 24 102 43 52
47 67 31 114 -9 25 -13 56 -9 72 5 23 0 35 -21 57 l-27 28 47 60 c32 41 46 68
43 83 -4 35 -41 37 -56 4 -14 -31 -25 -31 -66 0 -18 14 -48 30 -67 37 -19 6
-47 22 -62 35 -39 31 -50 29 -101 -17 -24 -22 -57 -43 -73 -46 -33 -7 -165 27
-224 56 -35 18 -143 126 -176 176 -18 28 -62 54 -92 54 -27 0 -67 -37 -89 -80
-32 -64 -75 -46 -86 38 -9 72 -54 136 -113 162 -26 11 -58 31 -71 42 -14 14
-35 22 -59 22 -30 0 -48 10 -109 66 -41 36 -88 77 -105 91 -28 22 -33 33 -37
85 -4 45 -10 64 -28 81 -18 16 -24 33 -24 64 0 22 -7 72 -16 109 -16 66 -18
68 -53 74 -20 3 -48 6 -62 6 -23 0 -29 7 -45 52 -19 52 -46 73 -57 44 -3 -8
-1 -28 6 -45 7 -20 8 -34 2 -40 -15 -15 -28 -2 -64 62 -29 51 -33 65 -29 119
l3 62 -77 38 c-43 21 -78 42 -78 47 0 5 7 14 15 21 25 21 18 57 -15 82 -34 25
-37 38 -13 75 17 25 17 26 -20 55 -33 27 -37 35 -37 75 0 50 -7 67 -62 139
-21 28 -38 57 -38 65 0 8 11 31 25 51 29 43 30 48 10 48 -9 0 -18 6 -21 13 -7
18 14 107 29 125 14 18 19 154 7 199 -6 24 -4 40 11 68 l19 35 -46 33 c-93 64
-91 62 -71 97 19 35 22 75 7 85 -5 3 -10 22 -10 40 0 44 -23 60 -111 76 -87
16 -103 9 -96 -37 5 -29 1 -40 -23 -67 -24 -27 -35 -32 -72 -31 -44 1 -114 31
-137 57 -7 9 -20 44 -29 79 -14 50 -22 64 -39 66 -11 2 -24 -1 -27 -7z"/>
</g>
</svg>
