<?xml version="1.0" standalone="no"?>
<!DOCTYPE svg PUBLIC "-//W3C//DTD SVG 20010904//EN"
 "http://www.w3.org/TR/2001/REC-SVG-20010904/DTD/svg10.dtd">
<svg version="1.0" xmlns="http://www.w3.org/2000/svg"
 width="522.000000pt" height="1024.000000pt" viewBox="0 0 522.000000 1024.000000"
 preserveAspectRatio="xMidYMid meet">
<metadata>
Created by potrace 1.16, written by Peter Selinger 2001-2019
</metadata>
<g transform="translate(0.000000,1024.000000) scale(0.100000,-0.100000)"
fill="#000000" stroke="none">
<path d="M4325 10211 c-11 -5 -40 -32 -64 -60 l-43 -52 21 -23 c40 -43 22 -82
-61 -131 -38 -23 -54 -39 -60 -61 -4 -17 -17 -39 -28 -49 -19 -17 -21 -16 -70
15 -28 18 -53 30 -57 27 -9 -10 5 -52 33 -93 15 -21 42 -75 61 -119 47 -107
47 -148 -1 -250 -22 -47 -41 -107 -46 -148 -17 -118 -50 -157 -133 -157 -26 0
-61 7 -77 15 l-30 16 0 -50 c0 -54 -9 -65 -60 -76 -19 -4 -38 -13 -42 -19 -4
-6 -8 -46 -8 -88 0 -74 -1 -78 -22 -80 -65 -4 -70 0 -94 81 -18 63 -69 121
-106 121 -57 0 -98 -62 -98 -150 0 -62 18 -100 65 -136 41 -31 45 -51 10 -60
-23 -6 -24 -8 -10 -27 23 -32 18 -47 -13 -47 -41 0 -44 -7 -22 -51 18 -34 18
-39 4 -53 -9 -10 -33 -16 -59 -16 -49 0 -67 -19 -86 -93 -10 -41 -8 -51 16
-105 15 -34 24 -68 21 -79 -3 -10 -29 -46 -56 -78 -31 -37 -63 -90 -83 -138
-17 -44 -46 -96 -63 -116 l-32 -36 -12 40 c-11 36 -9 49 19 129 32 93 37 131
21 156 -8 12 -20 5 -65 -40 -56 -55 -56 -55 -50 -102 5 -33 3 -48 -5 -48 -6 0
-40 -28 -75 -62 -35 -35 -74 -71 -86 -82 -28 -24 -20 -63 25 -125 51 -71 58
-88 46 -111 -8 -15 -21 -20 -54 -20 -30 0 -55 -8 -81 -25 -20 -15 -40 -24 -43
-21 -3 3 9 28 25 55 47 76 48 83 8 124 -19 20 -35 43 -35 53 0 15 -2 15 -27
-2 -15 -9 -71 -51 -124 -93 -54 -42 -124 -95 -158 -118 -33 -23 -66 -55 -74
-70 -8 -15 -17 -67 -21 -114 -5 -70 -3 -89 9 -99 31 -26 11 -70 -32 -70 -33 0
-54 39 -66 125 -11 73 -12 75 -39 75 -46 0 -86 -26 -96 -62 -4 -17 -16 -36
-26 -42 -14 -9 -23 -5 -47 24 -29 34 -29 34 -74 22 -25 -7 -67 -12 -93 -12
-66 0 -76 -9 -68 -59 4 -29 2 -51 -10 -72 -15 -31 -16 -31 -30 -10 -13 17 -25
21 -75 21 l-59 0 0 -34 c0 -47 -9 -66 -31 -66 -24 0 -45 34 -54 88 -4 23 -9
42 -11 42 -30 0 -81 -41 -138 -110 -91 -110 -110 -118 -236 -96 -122 21 -162
20 -191 -2 -20 -17 -22 -27 -21 -88 3 -108 2 -143 -1 -227 -3 -73 -6 -81 -45
-135 -22 -31 -88 -133 -145 -227 -57 -93 -118 -193 -136 -221 -48 -76 -49
-105 -8 -194 32 -71 35 -83 41 -215 15 -320 19 -347 64 -422 69 -113 92 -189
92 -296 0 -116 11 -155 68 -242 95 -147 108 -203 72 -295 -25 -64 -25 -106 0
-161 11 -24 20 -55 20 -69 0 -53 -122 -266 -219 -383 -32 -39 -54 -77 -67
-119 -10 -34 -33 -81 -51 -105 -47 -61 -67 -107 -92 -207 -36 -145 -61 -176
-164 -195 -73 -13 -93 -24 -113 -63 -13 -24 -15 -46 -10 -99 8 -76 -4 -116
-53 -178 -50 -63 -100 -174 -110 -244 -5 -39 -5 -97 0 -147 12 -110 73 -390
93 -429 9 -17 43 -59 75 -93 71 -76 97 -126 110 -208 7 -44 21 -78 46 -114 41
-61 46 -103 13 -133 -13 -11 -31 -23 -40 -26 -23 -8 -24 -72 -2 -147 10 -36
17 -115 21 -225 4 -123 9 -178 20 -200 9 -16 54 -69 101 -118 l85 -87 -7 -47
c-5 -39 -1 -58 26 -117 45 -102 66 -125 149 -171 57 -31 78 -49 91 -77 20 -43
17 -42 178 -68 69 -11 141 -26 160 -32 32 -10 113 -70 215 -160 49 -44 69 -46
212 -23 115 19 131 25 221 86 98 67 210 122 340 167 103 35 112 37 247 37
l140 0 58 38 c33 21 82 47 110 57 112 43 137 74 172 220 37 153 95 306 211
551 69 146 78 172 143 435 38 153 78 299 89 324 25 59 39 127 47 225 11 151
79 372 180 590 61 131 76 172 125 342 22 78 53 177 69 221 16 43 46 154 66
248 44 202 67 276 150 494 46 118 68 194 79 265 13 79 26 119 61 190 31 62 53
125 69 202 15 66 39 140 59 180 19 37 56 124 82 193 26 68 59 149 75 180 26
54 83 276 94 374 4 28 18 84 32 125 33 95 30 158 -15 287 -17 50 -31 99 -31
107 0 9 11 40 24 69 13 29 34 86 47 127 31 101 72 144 154 162 33 7 62 14 64
16 2 1 -8 15 -22 29 -38 38 -35 78 8 132 40 51 60 132 49 195 -7 38 -9 57 -13
110 0 10 -21 37 -46 61 l-45 44 0 101 c0 87 -3 109 -24 149 -13 26 -26 65 -29
88 -8 51 16 140 43 154 28 15 87 12 105 -6 25 -26 52 -85 64 -144 6 -30 20
-69 31 -85 11 -17 20 -43 20 -60 0 -31 19 -67 63 -120 22 -27 26 -28 43 -15
55 46 204 360 225 476 15 81 -3 154 -58 238 -24 37 -51 85 -58 105 -7 20 -27
58 -44 86 l-31 49 0 160 c0 89 -5 179 -11 201 -5 22 -14 92 -19 155 -9 135
-33 236 -94 405 -25 68 -52 160 -61 206 -30 155 -38 184 -68 244 -19 39 -55
84 -106 132 l-76 72 -6 82 c-5 80 -7 83 -45 117 -53 49 -74 81 -74 117 0 17
-9 48 -20 70 -11 21 -25 54 -31 74 -10 33 -34 62 -48 60 -3 0 -15 -4 -26 -8z"/>
</g>
</svg>
