<?xml version="1.0" standalone="no"?>
<!DOCTYPE svg PUBLIC "-//W3C//DTD SVG 20010904//EN"
 "http://www.w3.org/TR/2001/REC-SVG-20010904/DTD/svg10.dtd">
<svg version="1.0" xmlns="http://www.w3.org/2000/svg"
 width="396.000000pt" height="1024.000000pt" viewBox="0 0 396.000000 1024.000000"
 preserveAspectRatio="xMidYMid meet">
<metadata>
Created by potrace 1.16, written by Peter Selinger 2001-2019
</metadata>
<g transform="translate(0.000000,1024.000000) scale(0.100000,-0.100000)"
fill="#000000" stroke="none">
<path d="M585 10231 c-6 -5 -23 -11 -40 -13 -40 -4 -43 -31 -11 -88 14 -25 44
-81 67 -125 68 -131 95 -165 131 -165 23 0 40 10 69 42 21 23 41 39 44 36 4
-3 11 -37 17 -75 5 -37 13 -75 17 -83 5 -8 43 -46 87 -83 l78 -69 -3 -152 c-4
-189 4 -220 67 -276 134 -120 134 -120 155 -243 13 -71 26 -108 76 -202 85
-161 82 -205 -24 -276 -20 -13 -45 -41 -56 -61 -30 -59 -61 -69 -197 -67 -64
2 -127 -1 -140 -5 -12 -4 -32 -26 -43 -48 -24 -46 -19 -85 26 -204 65 -172 76
-211 77 -269 1 -39 -5 -72 -16 -93 -18 -34 -92 -88 -136 -99 -43 -10 -80 -33
-80 -49 0 -8 11 -25 25 -38 24 -22 24 -23 12 -102 l-12 -79 37 -65 c55 -93 71
-150 65 -223 -7 -93 -36 -274 -54 -344 -32 -124 8 -256 96 -318 39 -27 49 -30
149 -33 59 -2 111 -8 116 -12 13 -12 -14 -45 -85 -102 -107 -86 -176 -126
-237 -138 -31 -6 -67 -13 -80 -16 -13 -2 -32 -20 -44 -39 -25 -44 -53 -51
-138 -35 -117 22 -129 12 -182 -158 -32 -103 -31 -119 8 -177 l26 -39 -27
-190 c-45 -311 -89 -434 -200 -554 -72 -78 -115 -108 -178 -127 -22 -6 -43
-17 -45 -23 -6 -18 56 -50 127 -66 66 -15 83 -28 74 -55 -10 -28 -23 -39 -69
-60 -24 -12 -44 -27 -44 -35 0 -16 53 -65 108 -100 26 -17 59 -60 112 -145
l75 -122 47 6 c26 3 66 12 89 20 64 23 80 19 136 -33 40 -36 59 -64 83 -125
21 -50 49 -96 80 -130 28 -31 66 -92 93 -148 36 -75 61 -111 110 -160 35 -35
85 -97 111 -137 73 -111 109 -120 120 -30 4 29 13 67 20 83 l13 30 22 -52 c13
-28 32 -60 43 -70 19 -17 21 -16 79 49 69 77 102 90 164 64 51 -22 73 -20 130
9 36 18 85 29 187 41 l139 17 45 -44 c128 -124 185 -237 163 -326 -9 -33 -7
-66 10 -160 23 -132 26 -184 16 -293 -5 -57 -2 -102 14 -190 25 -136 26 -178
5 -208 -13 -19 -24 -22 -78 -22 -52 0 -66 -4 -84 -23 -30 -32 -46 -116 -38
-204 9 -92 2 -105 -104 -208 -100 -97 -140 -156 -140 -205 0 -30 8 -44 51 -85
99 -96 130 -171 93 -224 -15 -21 -16 -34 -5 -118 6 -52 16 -103 21 -114 6 -10
29 -23 53 -29 124 -32 144 -46 152 -107 4 -27 9 -56 12 -66 8 -32 55 -78 129
-127 116 -79 256 -246 324 -386 21 -45 46 -84 55 -88 9 -3 43 -6 74 -6 93 0
178 -55 139 -90 -7 -7 -49 -31 -93 -53 l-80 -42 -3 -47 c-4 -61 8 -81 64 -114
l46 -27 67 16 c36 9 81 19 99 22 63 13 65 63 5 162 l-35 58 15 147 c20 195 16
208 -96 320 -21 21 -35 42 -32 48 4 6 37 26 75 45 38 19 75 45 82 57 6 13 15
76 19 141 7 116 7 120 45 174 40 59 136 143 161 143 9 0 34 -19 55 -41 39 -41
40 -42 79 -30 38 12 305 149 341 175 16 12 17 21 6 93 -10 68 -9 95 7 189 42
259 43 264 34 575 -6 257 -5 308 8 352 21 72 49 124 94 179 21 26 39 57 39 70
0 38 -38 206 -66 291 -31 93 -110 206 -223 317 -81 80 -145 182 -217 350 -30
68 -64 117 -183 264 -520 640 -569 707 -606 822 -33 103 -37 196 -12 307 l15
67 -35 81 c-45 103 -49 136 -30 250 38 227 34 274 -33 378 -49 75 -50 108 -10
176 27 46 30 58 30 142 0 51 5 103 11 115 13 29 88 82 182 128 69 34 73 37 95
94 30 76 66 234 93 408 19 130 20 143 5 240 -8 57 -18 130 -21 162 -8 72 -41
111 -101 121 -61 10 -62 11 -74 57 -17 63 -86 191 -131 241 -59 68 -61 77 -32
218 16 82 22 140 19 170 -7 53 -58 254 -80 320 -22 62 -20 98 14 234 16 66 30
136 30 156 0 46 -33 155 -66 216 -13 25 -24 59 -24 75 0 53 -34 103 -168 248
-13 14 -38 50 -55 80 -37 67 -271 301 -359 359 -64 43 -92 50 -122 28 -15 -11
-20 -35 -27 -116 -18 -206 -68 -232 -86 -43 l-8 77 -40 7 c-22 4 -68 7 -101 7
-34 1 -85 5 -114 11 -37 7 -71 7 -116 -2 -88 -16 -134 -2 -173 55 -53 77 -63
82 -155 79 -88 -3 -219 19 -269 45 -16 8 -36 28 -45 45 -32 60 -64 81 -87 59z"/>
</g>
</svg>
