<?xml version="1.0" standalone="no"?>
<!DOCTYPE svg PUBLIC "-//W3C//DTD SVG 20010904//EN"
 "http://www.w3.org/TR/2001/REC-SVG-20010904/DTD/svg10.dtd">
<svg version="1.0" xmlns="http://www.w3.org/2000/svg"
 width="736.000000pt" height="360.000000pt" viewBox="0 0 736.000000 360.000000"
 preserveAspectRatio="xMidYMid meet">
<metadata>
Created by potrace 1.16, written by Peter Selinger 2001-2019
</metadata>
<g transform="translate(0.000000,360.000000) scale(0.100000,-0.100000)"
fill="#000000" stroke="none">
<path d="M6343 3580 c-26 -15 -33 -27 -33 -50 l0 -30 40 20 c33 17 40 26 40
50 0 35 -5 36 -47 10z"/>
<path d="M6316 3428 c-9 -12 -16 -29 -16 -38 0 -29 -75 -128 -87 -116 -3 3 2
26 10 51 18 51 13 103 -10 112 -18 7 -27 -5 -53 -75 -11 -29 -45 -83 -75 -120
-96 -117 -102 -126 -115 -167 -7 -22 -30 -73 -51 -114 -22 -41 -39 -80 -39
-86 0 -8 -15 -11 -47 -8 -46 4 -50 2 -95 -42 -62 -60 -63 -81 -3 -89 25 -4 45
-12 45 -17 0 -5 -16 -25 -35 -45 -19 -19 -35 -43 -35 -54 0 -17 -5 -19 -45
-13 -25 3 -45 3 -45 -1 0 -3 14 -32 30 -63 17 -31 30 -68 30 -82 0 -15 7 -36
15 -47 15 -20 20 -54 8 -54 -5 0 -25 5 -45 11 -47 12 -62 39 -78 141 l-13 77
-43 -22 c-50 -24 -53 -37 -28 -111 23 -66 15 -153 -16 -178 -40 -33 -59 -23
-155 76 -89 94 -138 124 -155 96 -4 -7 -8 -32 -8 -56 -1 -24 -7 -55 -14 -68
-22 -42 -120 -155 -155 -179 -20 -13 -45 -47 -65 -85 -17 -35 -41 -70 -54 -78
-12 -8 -34 -32 -49 -54 -24 -34 -39 -43 -153 -84 -70 -25 -174 -57 -232 -71
-58 -14 -134 -37 -170 -50 -36 -13 -78 -25 -95 -27 l-30 -3 1 -66 c2 -61 0
-68 -22 -78 -31 -14 -30 -28 2 -62 l27 -28 -37 -34 c-35 -33 -41 -52 -37 -109
1 -19 -4 -28 -18 -33 -15 -4 -21 -15 -21 -34 l0 -27 -75 10 -75 9 6 34 6 33
-46 0 c-32 0 -48 -5 -52 -15 -5 -12 -25 -15 -88 -15 -80 0 -84 1 -141 41 -31
22 -60 38 -63 35 -3 -3 7 -37 22 -76 26 -66 63 -110 92 -110 7 0 28 -19 48
-41 19 -23 52 -53 72 -66 20 -14 45 -34 56 -45 24 -24 79 -48 111 -48 13 0 41
13 63 29 56 40 171 76 191 59 9 -7 28 -11 44 -10 19 3 32 -3 41 -17 11 -19 13
-19 31 -4 10 9 36 17 57 18 28 1 48 9 67 26 16 14 42 31 60 38 18 7 36 24 43
41 16 38 68 86 110 99 19 6 74 11 122 12 79 2 89 0 105 -20 13 -15 44 -28 103
-42 152 -36 154 -36 205 9 54 47 93 57 157 38 39 -12 49 -12 65 -1 10 8 35 15
55 15 43 0 49 8 73 99 9 35 23 70 30 78 11 10 13 29 9 72 l-6 58 45 43 c26 23
55 49 67 57 20 14 20 14 0 51 -27 49 -25 90 5 135 26 37 51 47 72 26 9 -9 20
-9 43 1 41 17 42 21 29 74 -9 38 -8 57 6 110 11 41 16 84 13 116 -4 38 -2 53
8 57 8 3 18 22 24 44 6 21 25 57 43 81 32 42 35 43 107 52 50 6 89 5 115 -2
26 -7 56 -8 80 -2 90 19 208 22 265 5 104 -30 99 -31 106 4 5 26 11 31 34 31
16 0 52 -11 82 -25 66 -31 67 -31 114 1 29 20 51 27 84 26 53 -1 80 5 80 20 0
6 -34 45 -75 87 -41 43 -75 81 -75 85 0 4 10 16 23 27 17 14 39 18 100 19 63
0 87 5 127 25 27 14 62 25 78 25 54 0 111 64 90 103 -7 14 -22 17 -85 17 l-76
0 -42 45 c-37 40 -43 44 -55 30 -17 -20 -37 -19 -44 3 -3 9 -31 32 -62 51 -60
36 -74 33 -74 -18 0 -17 -4 -22 -16 -17 -9 3 -31 6 -50 6 -24 0 -34 5 -34 15
0 8 8 15 18 15 11 0 27 8 36 19 16 17 16 21 1 59 l-16 40 -57 -29 c-31 -15
-75 -31 -96 -35 -34 -6 -38 -5 -33 10 4 10 7 36 7 59 0 32 7 50 30 76 17 18
30 39 30 45 0 17 -94 66 -127 66 -16 0 -36 6 -45 13 -26 21 -58 74 -58 96 0
11 -9 25 -19 31 -26 14 -28 13 -45 -12z"/>
<path d="M492 3373 c-9 -17 -25 -85 -36 -148 -5 -35 14 -84 67 -166 61 -96 87
-201 77 -314 -2 -18 19 -120 49 -238 6 -24 6 -51 0 -70 -17 -60 -12 -84 20
-95 23 -8 28 -15 24 -31 -4 -15 1 -22 20 -27 30 -7 71 -77 64 -106 -3 -11 3
-27 15 -37 17 -16 18 -23 8 -41 -7 -12 -9 -36 -6 -54 3 -17 -1 -53 -9 -79 -10
-35 -12 -54 -4 -68 10 -20 39 -26 39 -9 0 6 5 10 10 10 6 0 1 -18 -10 -40 -11
-21 -20 -42 -20 -44 0 -3 17 -13 37 -21 21 -9 48 -25 60 -37 12 -12 40 -24 60
-27 30 -5 39 -11 41 -30 3 -20 1 -23 -15 -16 -67 28 -71 29 -87 16 -9 -8 -16
-29 -16 -49 l0 -35 58 6 c54 6 56 6 35 -9 l-23 -16 52 -47 c28 -25 64 -51 79
-58 20 -8 36 -30 57 -75 21 -47 40 -71 71 -92 53 -37 71 -62 71 -100 0 -16 5
-44 12 -63 11 -29 10 -35 -12 -58 l-23 -25 21 0 c12 0 31 -9 41 -19 19 -19 19
-20 -5 -36 -33 -21 -30 -33 10 -40 24 -5 37 -15 47 -38 11 -24 29 -37 93 -63
55 -23 84 -31 95 -24 24 12 35 2 61 -53 16 -34 29 -49 49 -53 14 -3 35 -8 46
-11 11 -3 56 -34 100 -69 64 -51 91 -66 135 -74 78 -16 109 -29 123 -55 7 -13
32 -45 57 -71 41 -45 50 -50 110 -59 51 -9 67 -15 75 -32 10 -24 38 -38 159
-82 107 -38 140 -67 181 -157 19 -41 39 -74 45 -74 6 0 13 14 17 30 6 35 4 34
38 18 30 -13 45 -1 45 39 0 12 9 27 21 34 25 13 112 15 151 4 40 -11 46 15 18
76 -29 62 -20 74 14 20 15 -23 33 -41 41 -41 10 0 15 -10 15 -30 0 -20 5 -30
15 -30 10 0 15 -10 15 -31 0 -27 3 -30 23 -24 37 12 68 46 61 69 -25 85 -81
226 -99 251 -13 16 -28 49 -34 72 -6 23 -29 65 -51 94 -22 30 -40 64 -40 77 0
14 -18 44 -44 73 -29 33 -45 61 -50 88 -7 45 -56 95 -105 106 -22 5 -46 26
-83 73 l-53 66 -1 101 c0 55 -4 130 -8 166 -6 46 -5 68 3 73 18 12 13 31 -22
82 -63 92 -71 173 -20 220 23 22 24 24 9 53 -21 41 -20 67 5 108 19 30 21 43
14 96 -4 34 -9 87 -10 117 -4 88 -37 171 -112 283 -39 56 -91 139 -117 185
-52 89 -70 106 -191 173 -99 55 -228 180 -274 264 -49 92 -53 95 -126 108 -75
13 -78 12 -97 -61 -6 -26 -24 -57 -44 -76 -19 -18 -34 -42 -34 -54 0 -22 -37
-92 -55 -104 -22 -16 -40 -6 -98 52 -33 33 -61 60 -62 60 -1 0 -45 -20 -98
-45 -95 -45 -107 -56 -107 -100 0 -21 -40 -65 -59 -65 -4 0 -15 14 -25 30 -11
20 -29 33 -47 37 -27 5 -29 8 -24 37 4 17 17 39 30 49 16 12 28 37 36 74 12
53 12 57 -9 74 -14 10 -21 26 -20 41 3 22 0 23 -68 26 l-71 3 -32 69 -33 70
-65 0 c-115 0 -213 41 -213 88 0 23 -30 52 -53 52 -9 0 -20 -8 -25 -17z"/>
<path d="M238 3228 c-3 -7 -24 -12 -53 -13 -26 0 -50 -5 -52 -11 -2 -6 8 -23
22 -38 14 -15 25 -34 25 -42 0 -7 7 -14 16 -14 31 0 96 24 101 37 5 12 -40 93
-51 93 -3 0 -6 -5 -8 -12z"/>
<path d="M500 2611 c-28 -53 -1 -121 48 -121 22 0 24 5 36 76 9 54 -59 90 -84
45z"/>
<path d="M6620 2377 c0 -23 24 -45 58 -52 30 -6 32 -5 32 19 0 19 -7 29 -26
36 -35 14 -64 12 -64 -3z"/>
</g>
</svg>
