<?xml version="1.0" standalone="no"?>
<!DOCTYPE svg PUBLIC "-//W3C//DTD SVG 20010904//EN"
 "http://www.w3.org/TR/2001/REC-SVG-20010904/DTD/svg10.dtd">
<svg version="1.0" xmlns="http://www.w3.org/2000/svg"
 width="188.000000pt" height="1024.000000pt" viewBox="0 0 188.000000 1024.000000"
 preserveAspectRatio="xMidYMid meet">
<metadata>
Created by potrace 1.16, written by Peter Selinger 2001-2019
</metadata>
<g transform="translate(0.000000,1024.000000) scale(0.100000,-0.100000)"
fill="#000000" stroke="none">
<path d="M515 10202 c-22 -16 -52 -32 -66 -35 -15 -4 -36 -15 -47 -24 -19 -16
-20 -23 -11 -65 9 -41 15 -48 45 -58 18 -6 68 -34 109 -61 67 -43 82 -49 130
-49 59 0 67 7 78 67 11 55 -8 84 -94 146 -44 31 -84 57 -89 57 -5 0 -10 11
-12 25 l-3 26 -40 -29z"/>
<path d="M1028 10000 c-9 -6 -67 -28 -129 -49 -61 -22 -116 -46 -120 -53 -5
-7 -9 -27 -9 -44 0 -31 -1 -31 -67 -40 l-68 -9 -11 -65 c-16 -100 -30 -129
-84 -177 -70 -64 -74 -83 -55 -260 9 -81 23 -161 31 -178 8 -17 48 -63 89
-104 l75 -73 0 -78 c0 -86 10 -123 53 -192 15 -26 40 -85 54 -130 16 -54 35
-94 53 -113 16 -16 41 -57 55 -90 15 -33 45 -88 67 -123 26 -40 42 -78 46
-107 2 -25 10 -50 18 -56 7 -6 56 -21 110 -34 l97 -25 46 21 c91 40 111 76
121 219 4 58 10 112 14 120 6 18 -60 63 -126 86 -27 9 -69 39 -114 83 l-72 68
9 109 c4 60 8 136 8 170 l1 60 -72 42 c-40 22 -85 44 -101 48 -22 5 -37 26
-83 111 -74 137 -101 215 -86 247 6 15 40 39 82 62 83 44 157 119 195 201 24
50 26 64 21 122 -3 36 -9 105 -12 154 -4 48 -9 87 -13 87 -3 0 -14 -5 -23 -10z"/>
<path d="M173 9208 c-39 -10 -42 -13 -48 -52 -11 -68 -40 -123 -74 -140 -41
-22 -55 -50 -47 -100 9 -52 31 -76 71 -76 38 0 50 20 60 104 9 68 30 96 100
134 55 30 64 50 45 107 -13 39 -27 42 -107 23z"/>
<path d="M572 8523 c-6 -16 -14 -50 -18 -78 -7 -50 -28 -115 -42 -125 -24 -17
-82 -100 -82 -117 0 -11 -7 -35 -16 -53 -16 -31 -16 -37 9 -119 14 -47 25 -86
24 -86 -1 0 -28 -13 -59 -28 l-58 -27 0 -55 c0 -39 4 -57 14 -61 16 -6 31 -41
42 -94 3 -19 15 -52 25 -72 17 -34 23 -38 58 -38 21 0 53 7 71 16 18 9 83 38
144 65 l111 48 2 68 c1 52 -10 116 -47 268 -27 110 -53 240 -60 289 -12 98
-28 143 -66 193 -30 40 -38 41 -52 6z"/>
<path d="M1309 7903 c-55 -14 -56 -15 -72 -66 -26 -79 -58 -129 -109 -167 -26
-18 -44 -38 -42 -42 3 -5 33 -23 67 -40 48 -24 75 -31 119 -31 l56 0 13 -46
c20 -78 54 -127 99 -145 58 -23 76 -21 164 24 43 22 87 40 97 40 10 0 20 4 23
8 8 14 -62 227 -85 256 -12 16 -38 31 -65 37 -24 6 -44 15 -44 20 0 4 -11 20
-25 35 -20 22 -25 37 -25 80 l0 54 -57 -1 c-32 -1 -83 -8 -114 -16z"/>
<path d="M575 7506 c-16 -11 -37 -13 -97 -9 l-78 6 0 -79 c0 -80 -8 -104 -54
-168 -19 -26 -18 -27 9 -91 29 -70 85 -130 132 -141 15 -4 58 -2 95 4 38 7 86
12 107 12 36 0 40 3 51 34 8 27 26 43 78 75 37 22 82 54 100 69 31 28 33 32
31 93 0 38 5 78 14 98 14 34 14 35 -17 58 -58 42 -78 47 -216 51 -108 3 -139
0 -155 -12z"/>
<path d="M438 6953 c-24 -6 -24 -86 0 -133 21 -42 103 -100 143 -100 30 0 88
49 124 104 15 22 15 27 1 55 -25 47 -61 62 -109 45 -49 -17 -45 -18 -49 9 -3
19 -10 22 -48 24 -25 0 -53 -1 -62 -4z"/>
<path d="M1243 6754 c-4 -11 -21 -55 -39 -99 -18 -44 -31 -82 -28 -84 7 -7
234 94 234 105 0 22 -49 63 -90 74 -22 6 -48 14 -56 17 -8 3 -17 -3 -21 -13z"/>
<path d="M1398 6569 c-15 -6 -30 -19 -33 -30 -5 -16 -16 -19 -74 -19 l-68 0
-6 -87 c-3 -49 -17 -135 -31 -193 -14 -58 -26 -130 -26 -161 0 -75 37 -148 99
-195 43 -33 180 -105 226 -118 22 -6 25 -3 107 152 27 52 64 113 83 137 45 60
50 102 25 200 -28 103 -62 165 -130 235 -86 88 -113 100 -172 79z"/>
<path d="M565 6247 c-22 -6 -42 -12 -44 -13 -9 -7 41 -62 61 -67 13 -2 31 -8
41 -12 17 -7 18 -4 12 31 -10 56 -15 74 -23 73 -4 -1 -25 -6 -47 -12z"/>
<path d="M586 6061 c-16 -11 -33 -27 -38 -35 -7 -13 -25 -14 -106 -9 -78 5
-109 2 -149 -11 -61 -20 -69 -40 -52 -125 13 -67 -3 -147 -48 -243 l-26 -58
26 -49 c20 -36 25 -57 21 -80 l-6 -31 -68 0 -67 0 -11 -82 c-16 -113 -15 -219
2 -243 7 -11 15 -38 18 -61 7 -50 32 -104 64 -139 13 -14 24 -31 24 -37 0 -24
37 -37 101 -38 58 0 71 -4 104 -30 21 -16 41 -30 46 -30 4 0 14 -3 23 -6 10
-4 16 -1 16 9 0 9 12 18 29 22 16 3 32 13 35 21 4 11 -6 14 -52 15 -51 1 -54
2 -26 10 26 7 36 20 57 69 l26 60 96 0 95 0 0 46 c0 97 -52 144 -159 144 l-48
0 -7 83 c-4 45 -9 106 -12 135 l-6 52 66 0 c36 0 66 2 66 5 0 3 -7 68 -16 143
-16 139 -14 257 7 335 9 33 18 42 58 60 l48 22 -13 32 c-14 34 -49 63 -74 63
-8 0 -28 -9 -44 -19z"/>
<path d="M1218 5732 c-15 -26 -42 -66 -59 -89 -30 -40 -31 -44 -20 -87 6 -25
11 -65 11 -90 l0 -46 -64 0 c-62 0 -64 0 -69 -30 -6 -26 0 -35 41 -75 72 -68
94 -64 173 30 l63 75 68 0 c64 0 68 1 91 33 39 51 48 75 58 144 13 93 7 109
-54 131 -29 11 -79 25 -112 31 -33 7 -69 14 -80 16 -15 3 -26 -7 -47 -43z"/>
<path d="M1200 5143 c-72 -12 -101 -25 -112 -49 -6 -13 -33 -38 -60 -54 -26
-16 -48 -34 -48 -39 0 -5 -12 -24 -27 -41 l-26 -32 17 -54 17 -54 68 0 c59 0
69 -3 74 -19 3 -12 19 -22 43 -28 34 -7 39 -13 42 -40 2 -25 15 -40 57 -72 30
-23 61 -41 68 -41 19 0 34 -20 39 -50 3 -23 8 -25 55 -28 28 -2 78 4 111 13
33 8 81 15 106 15 42 0 46 2 46 24 0 19 7 26 30 30 17 3 44 9 60 12 17 3 30
12 30 20 0 8 10 14 25 14 23 0 25 3 25 49 0 27 6 66 13 87 8 22 17 50 20 64
l6 25 -62 -5 c-61 -5 -62 -5 -65 -37 -2 -18 -7 -33 -13 -33 -11 0 -11 -2 1 39
l9 34 -112 -9 c-124 -9 -144 -9 -267 -6 l-86 2 -12 56 c-9 46 -9 62 3 91 19
45 20 42 -11 53 -23 9 -26 15 -20 40 6 31 5 31 -44 23z"/>
<path d="M450 4605 c-5 -14 -16 -25 -23 -25 -23 0 -54 -42 -72 -99 l-18 -54
56 -53 c54 -51 55 -53 62 -123 l7 -71 37 0 c66 1 173 20 218 40 65 28 79 69
59 164 -8 39 -17 87 -20 107 -6 35 -9 37 -51 42 -34 3 -51 12 -67 32 -27 35
-92 64 -141 65 -31 0 -39 -4 -47 -25z"/>
<path d="M1211 4527 c-21 -10 -23 -16 -17 -56 8 -58 23 -72 82 -79 41 -4 46
-3 41 11 -4 10 0 20 10 25 10 6 17 28 21 61 l5 51 -59 -1 c-33 0 -70 -5 -83
-12z"/>
<path d="M1304 4345 c-10 -8 -29 -15 -41 -15 -56 0 -80 -110 -89 -397 l-7
-212 29 -11 c19 -8 61 -9 122 -5 76 6 92 10 92 24 0 27 39 83 99 141 76 74 96
117 95 205 -1 110 -60 196 -154 226 -19 6 -54 22 -77 35 -49 28 -44 28 -69 9z"/>
<path d="M585 4113 c-87 -10 -94 -14 -140 -67 l-46 -54 16 -124 c25 -201 41
-255 93 -310 22 -24 34 -28 80 -28 103 0 201 92 202 190 0 19 -11 106 -25 192
-13 87 -22 165 -18 174 3 9 0 20 -8 25 -14 8 -93 10 -154 2z"/>
<path d="M765 3426 c-22 -7 -65 -25 -95 -40 -30 -14 -62 -26 -70 -26 -16 -1
-100 -118 -100 -139 0 -18 30 -73 53 -99 l21 -22 -33 -69 c-32 -66 -33 -69
-17 -94 10 -14 28 -33 41 -41 14 -9 32 -30 40 -46 l16 -30 102 0 c125 0 180
15 302 81 65 35 111 69 164 123 l75 75 -23 56 c-14 33 -21 68 -19 86 4 28 0
32 -91 86 -53 30 -113 67 -134 81 -31 21 -52 26 -115 29 -47 2 -92 -2 -117
-11z"/>
<path d="M1464 2769 c-67 -11 -138 -42 -170 -75 -16 -15 -79 -46 -158 -76 -72
-27 -133 -52 -135 -54 -10 -9 22 -86 44 -106 14 -13 29 -45 36 -73 30 -133 86
-167 238 -145 76 11 121 29 159 64 54 48 62 96 48 271 l-8 100 46 28 c56 35
62 43 39 55 -30 16 -85 20 -139 11z"/>
<path d="M976 1100 c-15 -17 -42 -38 -58 -46 -27 -14 -29 -18 -27 -69 2 -47 7
-59 36 -87 18 -17 33 -40 33 -50 0 -20 -64 -65 -165 -116 -84 -42 -140 -85
-175 -134 -40 -55 -40 -116 0 -218 17 -41 30 -92 30 -112 0 -33 12 -51 102
-153 l103 -115 65 0 c90 0 125 12 179 63 38 35 56 45 96 50 74 10 168 44 213
76 75 55 91 140 46 246 -14 33 -32 80 -40 105 -10 31 -35 66 -83 115 -103 106
-101 101 -101 241 l0 122 -42 37 c-49 42 -85 60 -143 69 -36 6 -43 3 -69 -24z"/>
</g>
</svg>
