<?xml version="1.0" standalone="no"?>
<!DOCTYPE svg PUBLIC "-//W3C//DTD SVG 20010904//EN"
 "http://www.w3.org/TR/2001/REC-SVG-20010904/DTD/svg10.dtd">
<svg version="1.0" xmlns="http://www.w3.org/2000/svg"
 width="1024.000000pt" height="961.000000pt" viewBox="0 0 1024.000000 961.000000"
 preserveAspectRatio="xMidYMid meet">
<metadata>
Created by potrace 1.16, written by Peter Selinger 2001-2019
</metadata>
<g transform="translate(0.000000,961.000000) scale(0.100000,-0.100000)"
fill="#000000" stroke="none">
<path d="M4174 9268 c3 -189 8 -593 11 -898 17 -1769 35 -3457 40 -3809 7
-434 5 -423 61 -497 13 -17 24 -39 23 -50 0 -10 -37 -120 -83 -244 l-83 -225
-119 -3 c-65 -2 -506 4 -979 13 -473 9 -939 18 -1035 19 -173 3 -175 4 -178
26 -2 12 1 43 8 67 14 57 6 83 -26 83 -62 0 -134 -57 -134 -106 0 -13 9 -45
19 -72 l20 -49 -93 -7 c-111 -7 -185 5 -229 39 -41 31 -106 38 -247 28 l-105
-8 -3 -37 c-3 -37 -4 -38 -42 -38 -45 0 -63 -20 -74 -83 -4 -21 -12 -40 -19
-42 -68 -21 -64 -24 -118 92 -76 164 -82 175 -112 197 -39 28 -94 25 -164 -10
-62 -31 -64 -34 -78 -138 -5 -39 -14 -57 -41 -81 -29 -27 -33 -37 -32 -78 1
-46 -21 -94 -45 -101 -72 -21 -166 -55 -226 -82 l-73 -34 6 -42 c4 -27 0 -62
-9 -92 -19 -64 -12 -88 41 -131 24 -20 51 -50 59 -65 14 -26 13 -34 -1 -70
-14 -34 -15 -48 -5 -80 12 -42 8 -61 -25 -105 -45 -61 -41 -95 18 -164 28 -31
29 -37 23 -90 -5 -46 -3 -60 10 -71 13 -11 21 -11 51 3 72 35 98 19 138 -79
13 -32 36 -88 51 -123 21 -51 25 -72 19 -100 -4 -20 -7 -51 -5 -68 1 -18 -2
-33 -8 -33 -6 0 -18 -14 -27 -31 -15 -29 -15 -36 1 -91 l17 -60 -26 -27 c-30
-32 -46 -71 -46 -116 0 -26 11 -46 52 -92 67 -74 78 -82 105 -83 33 0 133 101
133 135 0 34 21 32 76 -5 49 -34 58 -49 68 -100 13 -76 62 -110 121 -86 40 17
64 50 77 108 20 89 62 99 172 39 39 -21 103 -46 141 -55 44 -11 84 -28 107
-47 20 -16 39 -29 42 -29 3 0 10 18 16 40 18 67 45 90 129 105 120 23 148 54
113 126 -11 21 -16 42 -11 45 10 6 85 -3 141 -17 52 -13 68 -41 68 -115 0 -51
5 -68 32 -108 l31 -48 -11 -101 c-14 -117 -4 -147 48 -147 27 0 60 -22 60 -40
0 -16 52 -70 67 -70 8 0 35 -21 61 -46 56 -57 54 -62 -54 -127 -114 -68 -135
-102 -98 -155 18 -26 74 -30 114 -7 40 23 77 19 97 -12 13 -20 19 -56 23 -147
6 -131 18 -169 65 -200 89 -58 88 -100 -4 -214 -18 -23 -31 -46 -27 -49 9 -9
221 96 345 171 51 31 99 56 106 56 18 0 41 -30 54 -71 13 -41 34 -63 71 -74
14 -4 44 -25 68 -47 46 -42 62 -43 110 -9 19 14 22 22 18 57 -8 67 7 79 103
76 97 -3 110 9 86 78 -18 52 -19 61 -1 85 13 19 15 18 53 -8 65 -45 123 -29
123 34 0 29 2 30 38 27 35 -3 37 -5 38 -38 1 -43 12 -80 24 -80 5 0 14 -9 20
-19 7 -15 4 -32 -15 -73 -29 -61 -30 -77 -11 -103 18 -26 74 -22 144 10 67 31
92 52 92 76 0 24 2 25 95 44 44 9 83 21 87 28 4 7 8 26 8 43 0 16 9 66 21 109
11 43 22 111 23 152 3 64 8 79 39 125 24 35 38 70 42 103 5 40 13 56 42 81 24
21 34 38 33 55 -1 13 -1 61 -1 105 l0 81 -52 29 -52 29 50 6 c28 3 76 20 107
38 40 22 85 37 145 48 131 22 166 43 205 122 27 53 39 68 66 77 17 5 37 15 43
21 13 13 16 161 4 212 l-8 34 45 -7 c61 -9 85 11 98 83 8 41 7 60 -4 85 -40
90 -28 149 44 200 27 19 57 48 67 63 31 49 73 70 73 37 0 -28 54 -70 135 -103
44 -19 98 -49 120 -68 49 -42 80 -41 80 2 1 25 6 32 35 42 19 7 50 12 69 12
32 1 33 2 27 33 -13 69 -18 158 -12 192 9 47 41 49 77 4 l27 -32 56 13 c30 7
59 18 63 24 4 7 8 58 8 114 1 117 10 136 79 154 94 24 104 30 131 74 14 24 29
46 34 49 5 3 53 -14 107 -39 172 -78 216 -63 244 81 17 88 18 89 96 86 85 -3
121 8 219 73 44 29 107 62 140 74 33 12 89 44 125 71 139 106 165 121 235 133
61 10 69 10 108 -11 51 -27 65 -27 97 -2 14 11 31 20 38 20 6 0 69 -23 139
-51 115 -47 131 -51 177 -44 81 11 116 9 199 -10 138 -33 272 2 400 103 34 27
78 57 97 67 51 27 158 29 440 11 472 -30 501 -30 580 -11 81 20 178 16 282
-10 97 -26 147 -4 117 52 -13 24 -12 27 26 59 46 39 63 48 125 66 49 14 67 39
92 128 13 44 16 46 112 95 54 28 103 58 108 68 5 9 11 131 13 270 2 138 8 385
14 547 31 855 41 1203 37 1207 -5 5 -325 -71 -451 -107 -104 -30 -113 -28
-168 35 l-49 55 21 115 c17 96 18 123 9 168 -11 49 -10 57 10 85 12 16 22 37
22 45 0 23 -47 56 -89 63 -70 11 -105 27 -146 65 -61 57 -102 71 -166 59 -77
-15 -79 -14 -79 23 0 66 -41 90 -175 101 -64 5 -134 27 -173 52 -12 8 -38 48
-58 88 -31 67 -40 78 -105 120 -63 41 -78 46 -126 46 l-56 0 9 53 c17 108 5
159 -50 212 -98 94 -218 193 -631 520 -110 87 -438 353 -730 590 -291 237
-615 500 -720 585 -562 455 -788 641 -860 705 -116 104 -200 163 -258 180 -33
10 -94 15 -176 15 -69 0 -286 9 -481 20 -195 11 -363 20 -373 20 -18 0 -19
-14 -13 -342z"/>
</g>
</svg>
