<?xml version="1.0" standalone="no"?>
<!DOCTYPE svg PUBLIC "-//W3C//DTD SVG 20010904//EN"
 "http://www.w3.org/TR/2001/REC-SVG-20010904/DTD/svg10.dtd">
<svg version="1.0" xmlns="http://www.w3.org/2000/svg"
 width="736.000000pt" height="600.000000pt" viewBox="0 0 736.000000 600.000000"
 preserveAspectRatio="xMidYMid meet">
<metadata>
Created by potrace 1.16, written by Peter Selinger 2001-2019
</metadata>
<g transform="translate(0.000000,600.000000) scale(0.100000,-0.100000)"
fill="#000000" stroke="none">
<path d="M888 5742 c-9 -10 -26 -13 -62 -9 -28 2 -106 -4 -174 -14 -138 -20
-190 -43 -236 -104 -38 -49 -74 -65 -149 -65 -102 0 -147 -24 -147 -78 0 -11
13 -47 29 -79 24 -47 38 -63 69 -77 72 -33 85 -113 27 -170 -19 -20 -35 -38
-35 -41 0 -11 32 -70 49 -89 9 -10 27 -23 41 -28 l25 -9 -38 -32 c-35 -30 -37
-35 -36 -87 0 -30 -4 -67 -10 -82 -11 -30 -7 -53 17 -80 18 -21 80 -24 182 -7
63 11 76 10 138 -10 99 -32 136 -56 127 -84 -18 -60 -18 -62 24 -85 23 -13 45
-32 51 -42 20 -38 89 -45 135 -13 28 19 48 17 134 -14 67 -23 89 -26 191 -24
l115 2 42 -41 c27 -25 52 -40 68 -40 14 0 30 -9 37 -20 7 -11 19 -20 26 -20
17 0 132 78 132 89 0 17 57 31 120 29 48 -1 75 4 105 19 22 11 60 23 84 27 61
9 89 27 146 95 70 83 120 104 245 103 87 0 101 2 175 34 141 62 235 118 235
142 0 37 -54 124 -96 152 -23 17 -52 45 -63 64 -12 18 -46 55 -77 80 -45 37
-64 46 -95 46 -56 0 -87 31 -108 109 -21 76 -35 84 -106 64 -111 -32 -111 -32
-203 52 -88 80 -95 82 -135 37 -10 -11 -31 -25 -46 -32 -25 -10 -38 -7 -113
29 -68 33 -87 47 -101 75 -20 42 -115 116 -149 116 -14 0 -33 -9 -43 -20 -24
-26 -44 -25 -49 3 -17 80 -13 76 -63 79 -44 3 -47 5 -55 36 l-9 33 -180 -2
c-141 -2 -182 -6 -191 -17z"/>
<path d="M2815 4569 c-6 -18 -12 -20 -43 -15 -25 4 -41 1 -53 -10 -15 -13 -23
-14 -52 -3 -28 10 -41 10 -66 -1 -26 -10 -31 -18 -31 -46 0 -29 -3 -34 -24
-34 -24 0 -76 -34 -76 -51 0 -5 19 -9 43 -9 36 0 47 -5 65 -29 13 -18 35 -32
59 -38 49 -11 52 -32 13 -77 -42 -48 -26 -54 85 -32 46 9 123 23 171 31 106
17 139 42 138 103 -2 68 -58 151 -114 167 -14 4 -42 20 -62 36 -44 35 -45 35
-53 8z"/>
<path d="M3303 4106 c-57 -10 -66 -25 -38 -62 24 -31 18 -44 -32 -65 -42 -18
-53 -19 -82 -9 -30 11 -36 10 -47 -5 -7 -9 -15 -34 -19 -55 -7 -43 7 -38 -190
-61 -83 -9 -110 -9 -158 3 -48 13 -60 13 -64 2 -7 -18 5 -34 25 -34 25 0 82
-37 82 -54 0 -8 -10 -16 -23 -20 -28 -7 -99 -66 -128 -107 -31 -43 -50 -124
-38 -158 9 -27 44 -51 73 -51 7 0 29 11 49 24 39 27 86 40 103 28 6 -4 18 -20
26 -37 24 -48 71 -224 65 -246 -4 -13 4 -28 21 -44 l26 -24 -24 -26 c-16 -17
-26 -43 -31 -82 -8 -61 -26 -83 -65 -83 -23 0 -74 -52 -74 -75 0 -25 42 -54
88 -61 43 -6 66 -22 87 -58 6 -10 27 -20 53 -23 37 -5 42 -9 42 -32 0 -14 3
-36 6 -48 5 -18 2 -23 -13 -23 -21 0 -53 -29 -53 -48 0 -18 18 -24 40 -12 15
8 20 8 21 -2 1 -14 5 -44 13 -90 7 -38 -12 -45 -40 -15 -28 30 -75 43 -103 27
-19 -10 -20 -17 -15 -103 7 -96 20 -127 55 -127 24 0 39 -30 39 -79 0 -46 -17
-56 -74 -46 -19 4 -43 4 -54 0 -20 -6 -20 -8 -5 -57 13 -47 13 -55 -1 -85 -9
-19 -16 -46 -16 -62 0 -23 7 -31 40 -44 36 -14 45 -24 71 -84 17 -37 38 -101
46 -143 8 -41 26 -94 39 -116 46 -81 139 -142 231 -151 63 -7 72 -15 38 -37
-36 -23 -31 -32 24 -51 26 -8 59 -27 72 -41 33 -36 208 -177 272 -220 28 -19
67 -46 86 -59 21 -16 48 -25 70 -25 22 0 66 -16 116 -41 111 -58 131 -74 138
-108 4 -20 19 -39 44 -56 21 -13 48 -32 59 -40 13 -10 59 -19 122 -24 55 -5
106 -12 111 -16 6 -3 11 -19 11 -36 0 -26 28 -68 48 -70 4 0 55 -4 113 -8 88
-6 115 -12 160 -35 87 -46 270 -106 325 -106 19 0 39 9 53 24 l23 24 68 -19
c38 -10 99 -36 137 -56 l68 -38 215 -6 215 -5 104 -48 c57 -26 125 -50 150
-53 53 -6 302 21 379 41 66 18 102 41 141 90 38 47 38 56 6 56 -33 0 -32 5 10
47 36 36 45 61 23 65 -7 1 -56 2 -108 2 -116 1 -155 15 -170 62 -14 41 -9 50
30 57 41 9 41 43 -2 78 -44 36 -33 54 38 63 49 6 60 4 78 -13 20 -19 67 -41
86 -41 5 0 14 17 21 39 11 38 10 46 -27 174 -12 39 94 1 117 -43 36 -67 81
-179 90 -222 8 -39 21 -63 49 -92 21 -21 43 -35 49 -32 6 4 13 23 16 44 4 20
11 58 16 84 9 37 7 52 -5 77 -15 28 -15 34 0 63 16 30 15 32 -7 49 -13 10 -27
19 -30 19 -16 0 -18 35 -3 51 10 11 14 27 11 41 -6 23 16 58 37 58 5 0 27 -12
49 -27 29 -20 43 -24 55 -17 28 18 24 33 -16 53 -22 11 -42 27 -45 35 -3 8 10
36 29 63 19 26 34 51 34 55 0 5 -27 8 -60 8 -48 0 -61 4 -70 19 -15 29 -3 47
51 81 36 22 51 38 55 59 4 16 17 40 30 52 31 29 30 42 -7 73 -32 27 -58 32
-87 17 -28 -14 -72 -22 -72 -13 0 14 113 62 144 62 15 0 29 7 32 15 7 16 4 20
-63 106 -86 110 -105 128 -186 170 -45 23 -107 66 -137 95 -30 29 -67 55 -83
59 -15 4 -46 29 -69 57 -47 57 -88 78 -148 78 -22 0 -67 11 -100 25 -70 29
-105 32 -114 8 -5 -12 1 -23 18 -36 33 -24 33 -33 -1 -49 -38 -18 -38 -31 -2
-72 l31 -36 -27 0 c-19 0 -38 12 -64 41 -31 33 -40 38 -49 26 -10 -11 -8 -20
8 -40 11 -14 20 -35 20 -48 0 -21 -3 -20 -35 15 -60 66 -106 22 -47 -46 59
-67 47 -104 -18 -56 -16 12 -43 21 -60 20 -36 -1 -99 -45 -101 -70 -1 -9 -2
-30 -3 -47 -1 -26 -5 -30 -33 -33 -31 -3 -33 -2 -24 22 8 19 6 30 -10 49 -23
31 -19 36 72 87 34 19 65 44 69 55 36 96 67 140 133 192 48 37 62 94 28 113
-11 5 -37 10 -58 10 -33 0 -54 -11 -131 -71 -51 -38 -92 -74 -92 -79 0 -23
-116 -65 -145 -54 -13 5 -3 14 37 33 29 14 54 33 56 43 2 9 -10 31 -26 50 -17
18 -31 40 -32 48 -6 42 2 82 21 101 19 19 28 20 84 14 35 -3 84 -13 110 -21
45 -13 85 -7 85 14 0 4 -22 30 -49 56 -28 27 -55 61 -61 76 -12 29 -112 100
-141 100 -9 0 -32 -12 -49 -26 -42 -35 -58 -21 -42 34 16 53 15 58 -9 81 -19
17 -20 24 -10 52 l11 32 -57 -6 -57 -6 29 23 c39 31 29 48 -47 76 -46 16 -76
36 -110 72 -71 72 -117 84 -188 48 -57 -29 -101 -25 -190 16 l-79 37 -6 46
c-12 89 -13 93 -43 89 -22 -2 -28 -9 -33 -41 -3 -20 -9 -40 -12 -44 -12 -11
-34 17 -61 76 l-26 58 -98 36 c-55 21 -106 37 -116 37 -9 0 -35 -27 -59 -60
-62 -87 -97 -93 -97 -16 0 24 7 62 15 85 21 59 6 96 -35 88 -16 -4 -51 -22
-79 -42 -41 -29 -51 -43 -56 -75 -7 -42 -7 -42 -88 -55 -29 -5 -43 -14 -55
-36 -17 -29 -18 -30 -77 -23 -56 5 -62 4 -99 -25 -21 -17 -43 -31 -47 -31 -5
0 -26 -16 -48 -35 -45 -41 -91 -54 -109 -32 -10 12 -6 23 24 63 42 55 84 139
84 170 0 12 -7 27 -15 34 -28 23 -16 32 35 25 61 -8 72 -2 60 31 -8 19 -6 32
6 52 13 23 13 33 2 67 -13 39 -14 40 -63 42 -28 0 -63 6 -78 12 -35 14 -84 14
-92 1 -11 -18 -41 -11 -65 15 -29 31 -37 31 -92 0 -61 -34 -254 -95 -301 -95
-21 0 -48 5 -60 11 -36 18 -77 61 -77 80 0 10 39 53 86 96 47 43 102 102 122
132 42 63 50 68 114 76 64 8 113 53 103 93 -8 30 -111 179 -129 184 -6 2 -35
-1 -63 -6z"/>
<path d="M5722 2308 c-31 -31 12 -78 72 -78 23 0 76 43 76 62 0 26 -125 39
-148 16z"/>
</g>
</svg>
