<?xml version="1.0" standalone="no"?>
<!DOCTYPE svg PUBLIC "-//W3C//DTD SVG 20010904//EN"
 "http://www.w3.org/TR/2001/REC-SVG-20010904/DTD/svg10.dtd">
<svg version="1.0" xmlns="http://www.w3.org/2000/svg"
 width="1024.000000pt" height="1024.000000pt" viewBox="0 0 1024.000000 1024.000000"
 preserveAspectRatio="xMidYMid meet">
<metadata>
Created by potrace 1.16, written by Peter Selinger 2001-2019
</metadata>
<g transform="translate(0.000000,1024.000000) scale(0.100000,-0.100000)"
fill="#000000" stroke="none">
<path d="M7584 7724 c-10 -38 7 -78 34 -82 31 -5 52 15 52 48 0 55 -74 84 -86
34z"/>
<path d="M4274 7331 c-17 -10 -33 -28 -36 -39 -8 -30 17 -79 51 -96 40 -21 63
-20 121 5 39 17 52 18 70 9 43 -23 70 39 32 73 -24 22 -146 67 -180 67 -15 0
-41 -9 -58 -19z"/>
<path d="M2131 7328 c-61 -33 -54 -96 16 -148 27 -20 57 -53 68 -74 25 -48 57
-61 107 -46 71 21 80 93 21 163 -21 25 -49 59 -63 77 -21 27 -33 33 -75 37
-30 2 -60 -1 -74 -9z"/>
<path d="M5263 7185 c-17 -7 -39 -25 -48 -39 -27 -40 -6 -77 74 -132 36 -25
78 -54 92 -66 22 -16 33 -18 55 -11 45 15 52 36 21 73 -31 37 -33 47 -11 78
11 17 25 22 57 22 53 0 91 19 95 48 6 37 -35 48 -122 33 -52 -8 -81 -9 -100
-1 -37 14 -74 12 -113 -5z"/>
<path d="M5725 7149 c-5 -7 -4 -14 2 -16 27 -9 45 -32 52 -63 9 -46 34 -46 41
0 4 20 9 40 12 46 12 19 -10 36 -54 41 -31 4 -48 1 -53 -8z"/>
<path d="M7382 7083 c-21 -37 19 -93 67 -93 42 0 21 69 -29 95 -26 14 -30 13
-38 -2z"/>
<path d="M7240 7013 c1 -32 16 -55 45 -70 48 -24 63 30 20 72 -34 35 -65 33
-65 -2z"/>
<path d="M5023 6980 c-57 -24 -3 -88 63 -75 42 7 104 35 104 46 0 7 -65 26
-120 34 -14 3 -35 0 -47 -5z"/>
<path d="M7481 6442 c-36 -35 -49 -93 -30 -129 19 -35 50 -48 79 -33 20 10 22
17 17 55 -5 32 -2 46 9 56 9 7 14 25 12 43 -4 45 -47 48 -87 8z"/>
<path d="M8097 6404 c-13 -13 -7 -55 8 -60 21 -9 47 15 43 40 -3 21 -37 34
-51 20z"/>
<path d="M4768 6343 c-29 -7 -29 -33 1 -76 15 -23 36 -57 45 -75 13 -25 23
-32 39 -30 12 2 23 11 25 21 4 20 -54 147 -72 159 -12 8 -12 8 -38 1z"/>
<path d="M7189 6254 c-17 -21 0 -49 32 -49 29 0 36 26 14 49 -20 20 -29 20
-46 0z"/>
<path d="M6862 6208 c-17 -17 -15 -53 4 -89 19 -37 99 -77 172 -86 60 -7 72 7
35 39 -16 13 -46 44 -67 68 -60 69 -116 96 -144 68z"/>
<path d="M1256 6124 c-17 -16 -14 -26 12 -56 18 -21 97 -25 108 -6 9 14 -62
78 -87 78 -10 0 -25 -7 -33 -16z"/>
<path d="M7520 5923 c-97 -5 -120 -12 -120 -34 0 -33 28 -78 60 -94 40 -21 76
-19 116 6 19 11 59 23 89 26 31 3 58 10 61 14 17 29 -70 91 -123 87 -15 -1
-53 -3 -83 -5z"/>
<path d="M5770 5753 c-8 -3 -34 -19 -57 -34 -50 -34 -48 -34 -98 -9 -32 16
-56 20 -132 18 -88 -2 -93 -3 -87 -23 11 -35 46 -64 83 -70 72 -12 81 -16 127
-56 45 -39 51 -41 96 -36 57 7 137 -14 163 -43 12 -14 18 -37 19 -77 1 -44 8
-66 25 -90 52 -69 126 -68 149 2 11 34 11 54 -2 132 -9 51 -21 102 -28 112
-13 21 -49 41 -73 41 -21 0 -63 50 -71 85 -3 16 -11 36 -16 43 -11 12 -70 15
-98 5z"/>
<path d="M4488 5659 c-26 -15 -22 -49 11 -100 57 -88 156 -162 175 -130 10 16
-30 87 -63 110 -16 12 -39 42 -52 69 -30 62 -40 69 -71 51z"/>
<path d="M7477 5653 c-13 -13 -7 -35 22 -71 16 -20 35 -54 42 -74 8 -24 19
-38 30 -38 19 0 59 45 59 65 0 7 -21 38 -46 69 -36 43 -53 56 -74 56 -14 0
-30 -3 -33 -7z"/>
<path d="M4940 5470 c0 -26 25 -36 46 -19 14 12 14 14 -2 26 -26 19 -44 16
-44 -7z"/>
<path d="M8094 5463 c-18 -13 -34 -50 -34 -77 0 -32 50 -90 92 -106 18 -8 58
-37 89 -66 54 -50 102 -75 117 -59 4 4 8 34 9 68 0 34 3 75 5 91 3 28 0 31
-60 52 -44 15 -72 32 -95 58 -24 29 -42 39 -72 42 -22 3 -45 1 -51 -3z"/>
<path d="M8267 5042 c-44 -49 7 -151 75 -152 45 0 53 31 18 74 -16 21 -32 50
-35 67 -8 34 -33 39 -58 11z"/>
<path d="M5690 5025 c0 -8 9 -15 20 -15 11 0 20 7 20 15 0 8 -9 15 -20 15 -11
0 -20 -7 -20 -15z"/>
<path d="M6157 4983 c-17 -16 -3 -57 39 -120 26 -37 58 -93 71 -123 14 -30 36
-65 51 -78 34 -30 82 -27 99 7 15 31 6 49 -58 118 -50 53 -57 70 -39 102 16
30 -14 61 -60 61 -29 0 -42 5 -50 20 -10 19 -40 27 -53 13z"/>
<path d="M6840 4655 c0 -28 24 -34 34 -9 8 20 -1 34 -20 34 -8 0 -14 -10 -14
-25z"/>
<path d="M6891 4596 c-14 -17 -7 -36 14 -36 22 0 29 20 13 36 -13 13 -16 13
-27 0z"/>
<path d="M6739 4553 c-23 -20 -48 -29 -93 -34 -69 -8 -96 -31 -96 -83 0 -53
68 -106 137 -106 35 0 44 7 120 90 76 82 82 92 72 114 -23 50 -91 60 -140 19z"/>
<path d="M8640 4320 c0 -20 -11 -43 -35 -69 -20 -22 -35 -49 -35 -63 0 -38 42
-70 99 -76 42 -4 58 0 103 26 56 33 95 68 86 78 -4 3 -37 9 -75 12 l-68 7 -3
35 c-4 36 -36 80 -59 80 -8 0 -13 -12 -13 -30z"/>
<path d="M8257 4323 c-4 -3 -7 -23 -7 -44 0 -31 6 -43 38 -68 33 -28 87 -51
119 -51 20 0 45 47 38 69 -4 15 -18 23 -48 28 -30 4 -51 16 -73 40 -29 31 -53
41 -67 26z"/>
<path d="M7133 3693 c-21 -8 -15 -35 15 -66 26 -27 27 -32 28 -145 1 -145 9
-164 66 -160 24 2 44 9 48 18 4 8 15 31 23 52 9 20 25 39 36 43 30 9 26 31
-14 78 -19 22 -35 45 -35 51 0 5 -9 28 -20 51 -28 59 -101 97 -147 78z"/>
<path d="M8731 3604 c-19 -15 -31 -35 -31 -49 0 -39 35 -55 118 -55 73 0 75
-1 108 -36 45 -50 64 -41 64 29 0 63 -19 87 -68 87 -17 0 -48 11 -68 25 -47
32 -85 32 -123 -1z"/>
<path d="M6210 3237 c0 -29 34 -62 55 -54 34 14 5 77 -36 77 -13 0 -19 -7 -19
-23z"/>
<path d="M6893 3224 c-3 -8 -1 -20 4 -25 14 -14 43 0 43 22 0 24 -38 26 -47 3z"/>
<path d="M6607 2603 c-4 -3 -7 -21 -7 -39 0 -36 31 -74 61 -74 23 0 49 27 49
51 0 40 -78 87 -103 62z"/>
</g>
</svg>
