<?xml version="1.0" standalone="no"?>
<!DOCTYPE svg PUBLIC "-//W3C//DTD SVG 20010904//EN"
 "http://www.w3.org/TR/2001/REC-SVG-20010904/DTD/svg10.dtd">
<svg version="1.0" xmlns="http://www.w3.org/2000/svg"
 width="896.000000pt" height="1024.000000pt" viewBox="0 0 896.000000 1024.000000"
 preserveAspectRatio="xMidYMid meet">
<metadata>
Created by potrace 1.16, written by Peter Selinger 2001-2019
</metadata>
<g transform="translate(0.000000,1024.000000) scale(0.100000,-0.100000)"
fill="#000000" stroke="none">
<path d="M5315 9818 c-11 -6 -33 -22 -49 -35 -22 -18 -35 -22 -60 -17 -23 4
-51 -2 -94 -20 -34 -14 -68 -26 -76 -26 -23 0 -46 -40 -40 -67 8 -32 -12 -53
-51 -53 -39 0 -49 -10 -79 -89 -14 -33 -34 -74 -45 -90 -29 -40 -27 -83 5
-120 l26 -31 -34 1 c-18 0 -50 3 -71 7 l-38 7 30 45 c34 51 39 94 15 129 -16
22 -21 23 -97 18 -70 -5 -90 -2 -145 19 -64 24 -117 30 -139 16 -37 -24 -20
-154 28 -201 66 -67 58 -109 -43 -217 -96 -103 -108 -122 -108 -166 0 -80 -44
-126 -184 -192 -113 -54 -144 -83 -194 -182 -35 -69 -39 -85 -35 -129 5 -44
-2 -66 -56 -193 -34 -78 -61 -150 -61 -160 0 -10 16 -33 35 -52 19 -19 35 -37
35 -41 0 -4 -23 -15 -51 -24 -75 -25 -82 -48 -39 -133 19 -37 42 -84 52 -105
l18 -38 -88 -40 c-117 -54 -146 -84 -177 -182 -30 -94 -32 -164 -6 -269 17
-71 17 -78 2 -78 -35 0 -92 -22 -111 -42 -44 -47 -19 -143 53 -203 40 -34 74
-81 64 -91 -2 -3 -27 19 -55 47 -50 50 -53 51 -97 47 -78 -9 -203 -133 -208
-206 -1 -18 -3 -32 -5 -32 -1 0 -25 16 -53 35 -62 43 -84 43 -152 6 -28 -16
-126 -55 -217 -85 -126 -43 -179 -56 -224 -56 l-59 0 -96 -92 c-52 -51 -98
-95 -101 -99 -3 -3 -30 -21 -61 -40 -70 -42 -249 -230 -249 -260 0 -11 11 -34
25 -51 30 -36 31 -55 4 -118 -21 -50 -31 -57 -110 -74 -15 -3 -56 -34 -91 -68
-50 -50 -66 -73 -76 -111 -7 -27 -35 -99 -62 -160 -28 -62 -50 -122 -50 -134
0 -12 10 -48 21 -79 l21 -56 -20 -37 c-11 -20 -28 -59 -37 -86 -9 -28 -38 -84
-64 -125 -27 -41 -75 -127 -109 -190 -86 -164 -93 -212 -63 -425 7 -44 16
-111 21 -149 11 -87 58 -160 141 -219 49 -34 56 -43 48 -59 -11 -20 -106 -98
-120 -98 -15 0 -87 -70 -111 -108 -20 -32 -23 -53 -26 -185 l-5 -149 67 -61
c55 -52 66 -67 66 -94 0 -37 -14 -47 -76 -57 -23 -4 -57 -20 -75 -36 -31 -25
-34 -33 -33 -79 0 -35 7 -60 20 -79 29 -39 173 -131 217 -138 35 -6 38 -9 35
-37 -3 -25 -10 -32 -54 -48 -62 -23 -74 -45 -61 -106 8 -31 7 -57 -2 -90 -7
-27 -19 -77 -27 -112 -29 -127 -94 -234 -227 -376 -11 -11 -44 -51 -75 -88
l-55 -68 -51 6 c-28 4 -81 21 -118 38 -65 31 -67 33 -68 69 0 43 -16 62 -65
78 -30 10 -40 9 -61 -4 -42 -28 -83 -96 -109 -180 -14 -45 -34 -96 -45 -114
-11 -17 -24 -56 -28 -85 -5 -28 -18 -83 -28 -120 -14 -50 -16 -72 -8 -85 31
-49 152 -78 198 -48 14 9 37 36 51 61 31 52 42 54 153 29 63 -14 76 -21 117
-65 26 -27 57 -74 70 -103 20 -45 73 -101 123 -132 2 -2 8 -22 13 -46 14 -61
34 -87 87 -110 39 -18 57 -19 127 -14 79 7 83 6 98 -18 9 -13 42 -39 74 -57
32 -18 75 -45 95 -61 49 -38 148 -78 193 -78 28 0 37 -5 44 -22 16 -41 56 -67
132 -87 40 -10 101 -31 134 -46 59 -26 63 -26 216 -21 85 3 171 11 190 18 40
13 128 68 147 91 23 28 95 11 207 -50 93 -50 117 -70 170 -138 15 -19 34 -28
79 -35 32 -5 65 -15 73 -22 17 -13 70 -14 264 -3 l136 8 42 -41 c52 -50 103
-61 171 -38 43 15 45 15 70 -8 36 -34 64 -46 105 -46 44 0 183 34 245 59 25
11 65 22 90 26 25 4 67 16 95 27 43 17 55 18 92 7 57 -16 105 -7 199 38 70 33
86 37 152 36 97 -2 139 14 225 88 70 61 154 109 190 109 10 0 51 13 90 29 129
51 256 84 302 78 29 -4 51 -1 72 11 17 9 51 28 74 41 26 14 73 27 118 33 83
10 150 37 250 100 35 22 120 67 188 99 128 61 143 75 143 135 0 13 4 24 9 24
20 0 115 97 142 145 24 43 35 53 71 63 53 14 49 12 126 100 35 40 68 88 73
107 8 29 15 35 37 35 15 0 41 -9 57 -20 45 -30 79 -25 124 15 61 55 121 212
121 317 0 42 -5 53 -49 105 -92 110 -116 128 -166 125 -49 -2 -48 -3 -46 68 1
34 -9 64 -37 120 l-37 75 -54 3 c-40 2 -58 8 -71 25 -17 20 -16 22 15 51 27
26 34 42 45 106 6 41 16 93 22 115 6 22 10 66 11 97 0 32 3 58 7 58 16 0 41
-40 55 -88 24 -81 61 -90 163 -42 35 17 81 33 102 36 82 13 265 200 324 332
17 38 22 42 55 42 20 0 83 11 141 25 125 29 140 42 167 145 l18 72 39 -5 c73
-10 146 43 146 105 0 38 -48 85 -95 94 l-34 6 0 77 c1 101 4 108 45 121 51 17
102 66 114 108 14 53 12 149 -4 181 -8 15 -33 40 -56 55 l-42 28 33 34 c38 40
43 40 100 14 68 -31 92 -27 132 23 67 82 74 127 30 189 l-26 39 21 38 c12 21
22 53 22 71 0 21 12 49 34 79 19 26 37 58 41 73 7 29 -11 72 -44 102 l-21 20
31 32 c49 51 43 74 -42 160 -80 81 -80 79 -12 110 18 8 44 14 58 14 14 0 39 7
55 15 35 18 100 96 100 119 0 10 -14 37 -31 62 -16 24 -36 59 -42 77 -15 41
-80 141 -122 188 -19 21 -34 51 -38 75 -6 33 -24 56 -122 154 -115 114 -152
161 -140 181 4 5 7 30 7 55 0 37 -7 54 -32 85 -29 37 -31 42 -20 75 7 19 9 47
5 62 -23 98 -26 103 -61 118 -19 8 -44 31 -58 53 -24 38 -38 46 -133 75 -70
22 -77 21 -107 -15 -23 -27 -31 -30 -60 -25 -44 8 -62 29 -40 46 50 43 56 112
14 165 -16 21 -30 47 -30 58 0 17 5 19 40 13 48 -8 86 9 125 55 20 25 25 39
21 61 -3 15 -9 40 -12 56 -4 21 1 33 25 56 25 24 31 38 31 71 0 67 -27 139
-76 201 -25 33 -59 85 -76 116 -33 62 -48 70 -143 83 -27 3 -86 16 -130 27
-44 11 -111 21 -150 23 -54 2 -83 10 -129 33 -55 28 -61 34 -74 79 -15 53 -16
73 -7 119 6 27 3 34 -21 50 -71 49 -255 256 -277 313 -10 25 -25 53 -33 62 -8
8 -14 32 -14 52 0 23 -8 46 -24 64 -41 50 -76 112 -76 136 0 13 16 45 36 70
35 45 36 49 29 104 -3 32 -15 74 -25 95 -15 30 -17 42 -8 71 8 26 7 46 -5 86
-13 46 -14 59 -1 100 22 73 18 106 -17 146 -43 48 -78 65 -137 65 -84 0 -172
41 -172 80 0 28 -32 49 -110 72 l-73 22 -38 -22 c-21 -12 -48 -22 -60 -22 -34
0 -108 51 -118 83 -6 15 -22 32 -38 38 -32 12 -43 26 -43 55 0 12 -9 33 -20
46 -15 20 -31 26 -77 31 -32 3 -101 19 -154 36 -99 32 -169 39 -204 19z"/>
</g>
</svg>
