<?xml version="1.0" standalone="no"?>
<!DOCTYPE svg PUBLIC "-//W3C//DTD SVG 20010904//EN"
 "http://www.w3.org/TR/2001/REC-SVG-20010904/DTD/svg10.dtd">
<svg version="1.0" xmlns="http://www.w3.org/2000/svg"
 width="896.000000pt" height="1024.000000pt" viewBox="0 0 896.000000 1024.000000"
 preserveAspectRatio="xMidYMid meet">
<metadata>
Created by potrace 1.16, written by Peter Selinger 2001-2019
</metadata>
<g transform="translate(0.000000,1024.000000) scale(0.100000,-0.100000)"
fill="#000000" stroke="none">
<path d="M5968 9789 c-17 -9 -18 -43 -18 -473 l0 -463 -67 -6 c-38 -4 -507 -7
-1043 -7 -536 0 -998 -3 -1027 -6 l-51 -7 -6 -81 c-3 -44 -11 -475 -16 -956
-8 -661 -14 -876 -23 -882 -7 -4 -31 -8 -54 -8 -28 0 -63 -11 -107 -35 -41
-22 -80 -35 -104 -35 -86 0 -327 -156 -416 -268 -75 -96 -85 -184 -36 -307
l30 -76 -1 -367 c0 -202 -4 -376 -8 -386 -9 -22 84 -22 -1086 -5 -396 5 -909
11 -1140 12 l-419 2 -14 -38 c-22 -55 -1 -143 53 -221 23 -34 68 -112 100
-174 55 -106 108 -172 138 -172 7 0 22 7 35 15 21 15 23 14 41 -15 10 -17 21
-52 25 -76 3 -28 19 -65 38 -92 31 -44 33 -53 36 -149 4 -99 3 -104 -22 -134
-20 -24 -26 -41 -26 -79 0 -38 -7 -58 -35 -99 -49 -71 -45 -119 14 -168 38
-32 20 -56 -50 -64 -66 -8 -86 -16 -93 -36 -9 -22 10 -48 102 -139 112 -113
113 -116 118 -236 6 -117 17 -173 50 -238 21 -42 22 -53 14 -145 -5 -55 -14
-133 -21 -172 -11 -64 -11 -80 5 -141 22 -84 14 -227 -15 -282 -10 -19 -32
-81 -48 -138 -18 -64 -43 -124 -64 -156 -48 -72 -93 -164 -102 -206 -4 -19
-18 -51 -31 -71 -14 -20 -29 -61 -34 -92 -5 -31 -16 -66 -24 -79 -8 -13 -20
-48 -27 -78 -6 -30 -20 -69 -31 -87 -22 -37 -15 -78 25 -148 37 -65 54 -59
132 47 69 94 97 147 94 176 -5 58 12 62 226 46 157 -11 189 -11 250 2 39 9 80
20 93 25 13 5 60 9 106 9 68 0 91 4 127 24 60 31 118 38 219 25 47 -6 137 -14
201 -18 114 -6 117 -7 150 -38 18 -18 37 -33 42 -33 15 0 138 -123 155 -155 8
-16 38 -56 65 -88 47 -54 52 -57 96 -57 26 0 52 -5 58 -11 5 -5 41 -14 79 -20
100 -14 115 -27 164 -149 57 -140 71 -167 104 -203 20 -20 36 -44 36 -52 0
-30 38 -55 83 -55 43 0 43 0 60 -52 10 -29 22 -67 26 -85 5 -18 36 -58 75 -97
54 -54 72 -66 98 -66 36 0 118 -34 130 -53 4 -7 8 -23 8 -36 0 -31 91 -121
121 -121 11 0 54 -11 94 -25 82 -29 98 -27 185 16 101 50 122 89 113 217 -4
58 -1 100 12 153 31 130 39 143 103 172 31 14 69 34 84 44 l28 18 76 -75 c41
-41 91 -96 110 -121 47 -65 160 -159 189 -159 16 0 34 13 52 36 15 20 46 58
68 84 22 26 47 61 56 77 17 31 49 43 110 43 42 0 276 -48 301 -61 30 -16 166
-3 228 21 26 10 90 26 142 35 51 9 98 21 105 27 7 5 15 26 19 46 l7 35 14 -36
c12 -30 22 -39 56 -48 22 -6 61 -8 86 -5 161 20 827 37 2068 53 293 3 537 9
542 12 6 4 38 156 72 339 48 260 59 335 49 347 -6 7 -54 40 -105 72 -60 37
-98 67 -104 83 -5 14 -51 333 -101 710 -50 377 -106 800 -125 940 -39 283
-112 831 -300 2235 -69 517 -137 1021 -150 1120 -63 461 -145 1089 -145 1110
0 21 5 23 83 29 45 3 291 11 547 17 256 6 474 12 485 13 16 2 20 11 20 42 l0
39 -350 222 c-192 121 -395 249 -450 284 -55 34 -143 90 -195 124 -52 34 -272
173 -488 311 -216 137 -479 304 -585 372 -285 182 -525 332 -539 337 -7 2 -21
0 -30 -6z"/>
</g>
</svg>
