<?xml version="1.0" standalone="no"?>
<!DOCTYPE svg PUBLIC "-//W3C//DTD SVG 20010904//EN"
 "http://www.w3.org/TR/2001/REC-SVG-20010904/DTD/svg10.dtd">
<svg version="1.0" xmlns="http://www.w3.org/2000/svg"
 width="1024.000000pt" height="1024.000000pt" viewBox="0 0 1024.000000 1024.000000"
 preserveAspectRatio="xMidYMid meet">
<metadata>
Created by potrace 1.16, written by Peter Selinger 2001-2019
</metadata>
<g transform="translate(0.000000,1024.000000) scale(0.100000,-0.100000)"
fill="#000000" stroke="none">
<path d="M1113 7992 c-259 -22 -303 -28 -303 -41 0 -33 51 -123 96 -172 36
-37 45 -52 35 -58 -21 -13 3 -70 54 -130 26 -30 45 -63 45 -76 0 -15 18 -45
45 -75 39 -44 45 -57 45 -95 0 -37 5 -49 32 -74 26 -24 33 -40 39 -91 10 -86
41 -122 160 -184 70 -37 109 -66 154 -114 33 -35 88 -93 122 -128 83 -86 91
-127 42 -228 -12 -24 -15 -42 -9 -44 5 -2 10 -13 10 -23 0 -11 5 -29 10 -40
18 -33 -19 -23 -38 11 -12 21 -21 28 -32 23 -8 -5 -54 -8 -102 -7 -49 1 -88
-3 -88 -8 0 -11 42 -52 94 -92 21 -16 44 -43 51 -61 17 -39 31 -51 70 -61 34
-8 82 -40 137 -92 51 -48 113 -55 162 -18 37 28 40 27 50 -20 8 -36 58 -86
136 -137 73 -47 94 -68 126 -123 23 -39 28 -61 32 -146 3 -63 1 -103 -5 -107
-6 -3 -18 -34 -27 -68 l-16 -63 27 -37 c14 -21 23 -29 18 -18 -19 51 -23 78
-18 110 8 50 19 51 27 3 10 -62 33 -87 178 -192 73 -53 167 -127 208 -166 41
-39 89 -80 106 -92 42 -29 71 -74 90 -139 20 -66 29 -79 61 -79 111 0 199 186
104 223 -17 6 -35 28 -50 60 -29 60 -142 184 -159 173 -7 -4 -12 -20 -12 -36
0 -41 -10 -42 -52 -6 -47 41 -70 94 -68 160 3 79 2 82 -26 116 -15 17 -35 59
-46 93 -12 39 -31 75 -53 97 -39 40 -49 65 -59 135 -14 97 -51 188 -99 243
-11 12 -24 22 -29 22 -11 0 -10 -38 2 -61 8 -13 7 -19 0 -19 -10 0 -80 137
-80 157 0 5 -13 19 -29 30 -19 14 -32 37 -40 68 -6 25 -21 53 -33 63 -69 55
-99 88 -104 111 -31 138 -47 181 -72 194 -15 6 -36 28 -47 47 -11 19 -43 57
-72 85 -28 27 -63 74 -77 103 -19 38 -46 68 -98 110 -112 90 -159 135 -170
162 -6 14 -16 61 -23 106 -7 45 -26 118 -44 162 -33 85 -38 136 -20 210 7 34
6 50 -5 73 -13 26 -13 29 1 29 8 0 17 -9 20 -20 3 -11 10 -20 15 -20 5 0 6 5
3 11 -4 5 30 -8 74 -31 78 -38 85 -40 145 -34 63 6 64 6 87 -26 16 -22 51 -45
108 -71 62 -29 81 -42 73 -52 -21 -26 5 -129 62 -252 31 -66 64 -131 72 -145
8 -14 27 -50 41 -80 14 -30 38 -68 53 -85 15 -16 35 -53 44 -82 10 -30 27 -58
41 -67 13 -9 35 -35 49 -59 14 -23 43 -56 65 -72 22 -17 46 -41 54 -55 9 -14
34 -47 57 -72 43 -49 66 -59 162 -73 l47 -6 -6 -48 c-10 -91 28 -154 119 -193
52 -22 88 -59 88 -89 0 -33 36 -59 83 -59 52 -1 68 -12 100 -75 l25 -50 -29
-32 c-40 -45 -54 -102 -35 -147 22 -54 58 -66 121 -41 19 8 19 8 3 -12 -26
-28 -23 -45 6 -37 28 7 57 -7 104 -48 18 -15 59 -42 92 -58 70 -35 88 -56 41
-47 l-31 7 14 -28 c26 -51 94 -118 138 -136 65 -27 73 -32 68 -42 -3 -5 -13
-9 -22 -8 -10 0 -18 -1 -18 -2 0 -1 38 -32 84 -68 46 -36 110 -96 142 -133 33
-37 71 -81 85 -98 147 -168 239 -281 253 -309 9 -19 23 -71 32 -117 18 -97 33
-129 85 -186 22 -24 39 -53 39 -65 0 -45 -22 -99 -53 -135 -20 -23 -27 -38
-20 -40 23 -8 63 -45 63 -58 0 -18 -31 -35 -63 -35 -40 0 -53 -24 -39 -76 21
-79 51 -128 132 -221 78 -89 84 -94 220 -163 118 -59 153 -83 228 -153 84 -78
94 -84 196 -120 99 -35 137 -44 276 -62 39 -5 56 -15 114 -70 62 -59 93 -77
333 -195 230 -113 280 -133 372 -154 91 -20 131 -37 268 -109 176 -92 196
-101 293 -117 36 -6 104 -25 151 -41 48 -16 104 -29 126 -29 48 0 141 32 283
95 58 26 128 54 155 63 44 13 47 16 26 21 -32 9 -37 27 -11 41 16 9 22 8 27
-6 4 -12 14 -14 34 -10 30 6 37 -2 18 -21 -8 -8 10 -18 71 -37 46 -15 85 -25
87 -22 3 2 -14 15 -36 28 -47 27 -53 41 -13 32 47 -12 90 -48 346 -287 137
-127 253 -233 257 -235 9 -4 26 48 35 105 5 30 2 53 -10 77 -19 41 -18 44 57
171 67 113 69 114 285 114 l162 1 0 55 c0 50 -2 56 -30 70 -18 9 -30 23 -30
35 0 13 -17 32 -47 53 -27 17 -75 58 -108 89 l-60 58 57 0 57 0 3 88 3 87 267
0 c260 0 267 1 270 20 2 15 11 20 38 21 68 1 73 5 140 121 12 20 31 35 50 40
23 6 38 21 58 57 15 28 32 51 38 53 7 2 13 -23 17 -68 9 -109 54 -136 77 -47
6 24 22 81 36 128 37 125 39 140 20 140 -23 0 -20 8 15 41 36 33 32 47 -10 41
-42 -6 -54 24 -20 50 13 10 30 23 36 28 8 6 13 34 13 64 0 59 7 72 108 199 33
42 65 92 72 112 15 46 5 115 -20 148 -21 27 -83 42 -109 27 -14 -8 -14 -9 2
-10 9 0 17 -4 17 -10 0 -18 -73 -10 -155 16 -94 30 -108 29 -305 -21 -74 -18
-178 -41 -230 -50 -218 -40 -280 -118 -280 -351 0 -79 -2 -85 -31 -119 -24
-27 -33 -48 -38 -94 -4 -33 -13 -66 -19 -74 -15 -17 -68 -53 -135 -91 -34 -19
-45 -31 -39 -39 5 -7 12 -24 16 -39 5 -21 0 -31 -29 -57 -28 -24 -45 -31 -79
-31 -44 0 -74 19 -61 40 3 5 -6 15 -22 21 -46 18 -179 -3 -255 -40 -43 -21
-80 -31 -109 -31 -70 0 -151 -18 -230 -50 -42 -18 -90 -30 -116 -30 -39 0 -48
5 -96 54 -81 82 -123 106 -208 115 -41 4 -76 5 -79 0 -3 -4 -21 -1 -40 7 -24
10 -31 17 -22 23 10 6 9 11 -4 22 -10 8 -32 37 -50 64 -17 28 -39 57 -47 64
-9 7 -30 47 -47 89 -42 100 -58 126 -157 252 -46 57 -104 145 -129 194 -51 98
-118 282 -110 303 3 7 -2 32 -10 55 -19 52 -20 123 -6 373 16 292 41 434 106
612 62 169 81 253 59 253 -7 0 -22 -6 -33 -12 -16 -10 -28 -8 -72 14 -29 15
-96 38 -148 52 -160 43 -275 93 -309 132 -17 19 -31 42 -31 50 0 20 -28 74
-53 101 -16 18 -22 43 -27 110 l-7 87 -50 45 c-28 25 -61 62 -74 81 -12 19
-44 59 -70 87 -26 29 -50 67 -54 85 -4 18 -27 72 -52 119 -34 66 -68 109 -141
185 -54 55 -113 107 -132 116 -45 20 -257 33 -297 17 -44 -16 -73 -49 -103
-115 -18 -39 -42 -71 -68 -92 -36 -29 -44 -31 -88 -26 -75 10 -185 69 -320
171 -39 29 -74 96 -109 205 -33 106 -43 117 -236 261 -159 119 -193 147 -229
194 l-25 32 -265 2 -265 2 -3 -71 -3 -72 -417 0 -417 0 -555 187 c-305 102
-557 188 -560 190 -2 2 1 13 8 23 30 48 38 48 -385 12z"/>
<path d="M1856 6983 c11 -49 99 -141 118 -123 12 13 -9 62 -29 70 -12 5 -32
25 -43 44 -26 44 -56 50 -46 9z"/>
<path d="M2185 6876 c-23 -54 -20 -95 8 -105 31 -12 55 4 62 42 14 83 -41 133
-70 63z"/>
<path d="M430 6881 c0 -19 23 -71 31 -71 13 0 11 54 -3 68 -14 14 -28 16 -28
3z"/>
<path d="M1354 6594 c-4 -16 -11 -34 -16 -41 -6 -8 -2 -15 13 -23 28 -15 42 3
34 45 -8 44 -23 53 -31 19z"/>
<path d="M2560 5834 c-15 -38 -12 -42 10 -14 22 28 25 40 10 40 -6 0 -15 -12
-20 -26z"/>
<path d="M2710 5527 c0 -8 9 -22 20 -32 17 -16 20 -16 20 -2 0 14 -25 47 -36
47 -2 0 -4 -6 -4 -13z"/>
<path d="M2330 5356 c0 -10 61 -48 67 -42 10 10 -28 46 -49 46 -10 0 -18 -2
-18 -4z"/>
<path d="M2950 5266 c0 -8 5 -18 10 -21 6 -3 10 1 10 9 0 8 -4 18 -10 21 -5 3
-10 -1 -10 -9z"/>
<path d="M6560 4525 c0 -3 16 -29 35 -58 23 -34 35 -63 35 -87 0 -54 16 -69
23 -23 6 34 2 45 -39 106 -43 62 -54 75 -54 62z"/>
<path d="M3910 4430 c0 -20 25 -38 36 -27 8 7 -15 47 -26 47 -6 0 -10 -9 -10
-20z"/>
<path d="M9742 4070 c-24 -22 -31 -75 -9 -68 13 5 57 65 57 79 0 16 -26 9 -48
-11z"/>
<path d="M2602 3528 c3 -7 13 -15 22 -16 12 -3 17 1 14 10 -3 7 -13 15 -22 16
-12 3 -17 -1 -14 -10z"/>
<path d="M8324 3505 c-17 -13 -16 -14 14 -4 33 11 41 19 19 19 -7 0 -22 -7
-33 -15z"/>
</g>
</svg>
