<?xml version="1.0" standalone="no"?>
<!DOCTYPE svg PUBLIC "-//W3C//DTD SVG 20010904//EN"
 "http://www.w3.org/TR/2001/REC-SVG-20010904/DTD/svg10.dtd">
<svg version="1.0" xmlns="http://www.w3.org/2000/svg"
 width="1024.000000pt" height="1024.000000pt" viewBox="0 0 1024.000000 1024.000000"
 preserveAspectRatio="xMidYMid meet">
<metadata>
Created by potrace 1.16, written by Peter Selinger 2001-2019
</metadata>
<g transform="translate(0.000000,1024.000000) scale(0.100000,-0.100000)"
fill="#000000" stroke="none">
<path d="M6695 9214 c-22 -20 -91 -60 -153 -90 -135 -64 -145 -78 -118 -158
16 -47 17 -56 3 -82 -20 -41 -45 -156 -53 -244 -7 -88 11 -145 58 -185 72 -61
128 -12 128 110 0 37 5 75 10 85 11 21 123 110 139 110 5 0 13 -9 16 -20 17
-55 85 -41 126 27 19 30 24 55 27 130 4 80 1 103 -23 175 -42 127 -72 178
-104 178 -9 -1 -34 -17 -56 -36z"/>
<path d="M5831 8799 c-67 -63 -51 -200 32 -260 53 -39 99 -39 126 -1 36 51 36
74 -2 120 -31 37 -34 46 -30 85 5 38 2 47 -18 61 -32 22 -81 20 -108 -5z"/>
<path d="M8163 8525 c-29 -8 -80 -27 -115 -43 -129 -59 -181 -174 -96 -218 43
-22 154 -16 191 11 15 11 80 47 144 80 64 33 121 67 126 76 6 9 7 28 3 43 -14
58 -137 82 -253 51z"/>
<path d="M5050 8459 c-137 -37 -173 -52 -211 -86 -54 -49 -57 -57 -65 -156 -8
-110 -2 -135 39 -152 18 -8 46 -23 62 -35 43 -29 76 -25 128 15 55 42 116 57
186 46 89 -14 154 7 184 59 19 32 37 135 30 172 -6 29 -47 72 -79 82 -20 6
-27 2 -112 -60 -28 -21 -47 -7 -63 47 -12 37 -42 80 -57 78 -4 0 -23 -5 -42
-10z"/>
<path d="M7694 8320 c-76 -33 -104 -95 -84 -179 17 -72 44 -92 125 -96 36 -2
73 -9 81 -16 8 -6 32 -12 55 -13 31 0 43 4 52 19 18 31 25 56 26 101 1 45 -23
85 -98 162 -35 35 -48 42 -79 41 -20 0 -55 -9 -78 -19z"/>
<path d="M3972 8307 c-34 -36 -50 -87 -61 -196 -11 -105 -22 -137 -65 -188
-17 -20 -26 -44 -28 -77 -3 -51 1 -57 56 -76 28 -10 28 -12 22 -60 -12 -89 32
-147 175 -231 96 -56 103 -87 34 -160 -51 -55 -57 -85 -25 -137 25 -41 25 -49
-2 -58 -51 -15 -108 -47 -108 -60 0 -7 7 -29 17 -48 15 -32 15 -37 0 -60 -20
-30 -21 -64 -6 -117 17 -55 -2 -91 -74 -146 -51 -40 -68 -47 -106 -47 -40 -1
-47 2 -66 31 -11 18 -29 35 -40 37 -11 2 -46 10 -78 16 -70 14 -168 77 -213
137 -17 23 -41 74 -53 113 -17 54 -33 84 -66 119 -29 31 -45 59 -50 86 -17 92
-36 94 -162 16 -81 -50 -154 -78 -174 -65 -6 3 -9 20 -7 36 4 21 -1 33 -16 44
-28 20 -113 17 -161 -5 -65 -29 -117 -104 -102 -145 7 -18 161 -118 212 -137
36 -14 40 -19 39 -47 -2 -40 -38 -90 -71 -98 -22 -6 -33 2 -80 54 -93 105
-156 104 -269 -4 -59 -57 -167 -124 -199 -124 -7 0 -24 -12 -38 -26 -20 -20
-27 -38 -29 -77 -3 -49 -5 -52 -28 -50 -14 1 -37 5 -52 8 -21 6 -35 0 -65 -24
-21 -16 -60 -40 -86 -51 -26 -12 -70 -41 -98 -66 -53 -47 -53 -47 -143 -48
l-59 -1 -38 -110 c-46 -130 -47 -159 -14 -225 31 -61 31 -83 3 -137 l-22 -42
24 -26 c22 -24 25 -35 25 -108 0 -81 0 -83 53 -167 28 -47 52 -93 52 -103 0
-11 -16 -25 -45 -37 -75 -32 -52 -80 39 -80 24 0 45 11 77 38 24 22 55 45 69
52 30 16 122 41 129 35 9 -10 -180 -182 -229 -208 l-52 -28 21 -23 c25 -27 27
-56 4 -99 -11 -21 -17 -57 -17 -108 -1 -121 38 -147 138 -90 28 16 86 43 129
61 90 37 112 63 112 129 0 40 4 47 32 64 32 18 33 18 105 -7 40 -14 74 -31 76
-39 2 -8 -26 -46 -62 -83 -105 -113 -126 -138 -132 -162 -9 -32 18 -57 72 -71
25 -6 48 -19 51 -28 3 -8 1 -44 -6 -78 -16 -81 1 -128 53 -150 63 -27 83 -21
106 33 21 46 21 58 4 135 -6 25 -2 29 42 49 27 11 89 46 137 75 96 60 178 93
230 93 40 0 147 -64 147 -88 0 -9 -7 -39 -15 -66 -23 -76 -19 -118 16 -175 26
-41 30 -57 25 -85 -4 -18 -13 -39 -21 -46 -11 -9 -13 -25 -9 -64 4 -32 0 -81
-10 -129 -8 -42 -13 -85 -10 -94 22 -68 47 -83 137 -83 154 0 189 -111 71
-220 -51 -47 -106 -74 -134 -65 -11 3 -29 18 -40 32 -14 18 -45 34 -93 50 -67
21 -75 21 -127 8 -69 -18 -83 -36 -76 -95 7 -49 27 -82 70 -114 22 -17 41 -21
99 -19 40 0 83 3 96 5 20 2 25 -3 36 -37 7 -22 22 -59 34 -81 11 -23 25 -61
30 -85 12 -52 45 -84 101 -99 23 -6 47 -21 56 -35 15 -23 15 -27 -4 -57 -11
-18 -28 -64 -38 -101 -11 -47 -31 -87 -63 -132 -70 -97 -151 -242 -151 -270 0
-16 18 -45 49 -79 50 -55 71 -103 71 -162 0 -46 46 -129 97 -174 25 -21 70
-49 101 -60 73 -27 82 -36 82 -74 0 -50 33 -92 98 -125 66 -33 72 -43 72 -106
0 -59 -10 -81 -69 -155 -28 -35 -51 -73 -51 -85 0 -53 82 -74 124 -32 13 13
26 42 30 66 9 61 43 91 101 91 l46 0 -7 -57 c-22 -159 8 -184 292 -242 162
-34 190 -32 216 9 19 30 42 24 69 -17 13 -21 46 -52 73 -70 28 -18 60 -44 73
-58 13 -14 28 -25 33 -25 25 0 61 26 75 56 21 45 30 48 49 19 10 -15 29 -26
53 -31 21 -3 53 -13 71 -21 29 -14 35 -14 57 1 28 19 43 62 28 85 -5 9 -26 27
-47 40 l-36 25 32 33 c18 19 68 54 110 79 86 49 99 70 80 132 -15 46 -9 50 24
17 23 -23 26 -32 20 -71 -21 -148 -24 -129 30 -178 48 -44 48 -46 52 -115 4
-61 1 -77 -22 -121 -22 -41 -26 -63 -26 -127 l0 -78 42 -24 c24 -13 66 -47 95
-74 l53 -50 113 5 c68 3 130 1 157 -6 63 -16 91 -7 115 37 11 20 27 37 36 37
9 0 60 -18 114 -40 54 -22 109 -40 122 -40 49 0 73 134 33 180 -26 30 -25 70
0 103 28 36 50 91 50 127 0 38 13 38 41 1 11 -16 53 -55 92 -87 40 -33 96 -85
126 -117 31 -32 78 -69 108 -83 45 -23 62 -26 115 -21 93 8 196 34 253 63 28
14 83 32 123 40 132 25 157 50 150 147 -4 54 -8 63 -41 93 -20 19 -46 34 -56
34 -36 0 -70 22 -81 53 -14 41 -13 140 2 155 16 16 204 15 240 -1 15 -7 61
-52 102 -101 86 -103 104 -148 86 -216 -14 -51 -5 -127 17 -152 36 -40 82 -13
99 57 19 81 107 205 146 205 12 0 24 -12 34 -35 8 -19 42 -65 76 -102 33 -38
74 -89 91 -116 35 -57 58 -70 162 -92 90 -18 132 -41 158 -83 27 -47 74 -82
110 -82 39 1 135 39 185 74 21 14 73 57 117 97 44 39 106 89 138 112 78 56 76
77 -13 131 -98 59 -118 90 -107 162 8 48 -6 81 -56 132 -46 47 -72 52 -110 22
-48 -38 -87 -20 -73 34 7 29 106 99 128 91 8 -3 25 -19 37 -35 12 -17 28 -30
36 -30 7 0 60 35 117 78 57 42 141 97 186 121 46 23 86 50 89 58 4 10 -3 24
-18 36 l-24 20 48 -6 c70 -10 113 11 126 60 6 21 11 45 11 54 0 36 53 218 92
317 44 114 44 111 22 338 -8 76 13 125 67 161 21 14 41 34 44 44 7 22 23 20
115 -14 36 -13 70 -35 98 -64 73 -75 94 -74 219 13 200 138 232 188 156 238
-77 51 -95 78 -114 168 -22 101 -55 138 -124 138 -22 0 -60 -9 -84 -20 -55
-26 -107 -25 -150 1 -32 19 -33 22 -27 64 8 48 -1 60 -38 51 -16 -4 -38 -30
-65 -75 -24 -41 -65 -91 -101 -122 -81 -71 -97 -113 -82 -217 15 -95 15 -162
2 -198 -14 -37 -25 -22 -40 56 -21 108 -42 126 -119 99 -62 -22 -121 29 -121
104 0 14 -9 36 -21 51 -19 24 -27 26 -90 26 -49 0 -81 6 -107 19 -59 31 -119
91 -155 156 -18 33 -48 70 -67 83 -21 14 -34 31 -32 40 15 90 3 144 -56 246
l-34 58 19 27 c34 44 63 39 131 -23 33 -31 69 -56 80 -56 26 0 54 46 76 122
19 66 44 90 113 107 82 21 143 107 143 200 0 18 -5 41 -10 52 -16 28 5 24 37
-7 24 -24 25 -30 19 -90 -10 -97 29 -168 91 -166 26 1 122 39 204 83 68 35 75
29 103 -88 9 -39 35 -117 57 -172 21 -55 39 -106 39 -114 0 -7 6 -21 13 -31
17 -23 34 -15 122 54 33 26 107 78 165 115 142 92 255 187 269 227 14 41 14
55 -4 116 -18 60 -61 107 -106 116 -53 10 -115 52 -133 90 -24 51 -20 124 9
188 37 79 33 111 -28 230 -29 57 -62 127 -74 156 -20 49 -23 52 -57 52 -51 0
-50 32 2 57 34 17 37 22 40 66 4 66 -20 140 -68 212 l-41 60 7 105 c4 73 12
118 26 147 17 36 18 48 8 77 -14 43 -63 87 -139 125 -74 38 -114 72 -135 115
-14 29 -14 43 -5 88 10 44 20 61 62 100 44 40 51 52 51 84 0 40 -30 74 -66 74
-11 0 -56 -16 -100 -36 -50 -22 -102 -38 -138 -41 -81 -8 -147 -46 -177 -102
-19 -36 -23 -60 -23 -130 0 -69 -5 -96 -24 -137 -24 -53 -66 -94 -95 -94 -10
0 -30 -14 -47 -31 -49 -53 -127 -74 -175 -49 -22 12 -24 38 -7 109 23 102 -17
159 -142 200 -110 35 -163 37 -259 6 -48 -15 -93 -24 -107 -21 -37 10 -56 50
-64 133 -7 74 -9 77 -54 118 -44 41 -51 56 -46 99 2 22 25 60 53 91 41 43 40
61 -4 154 -23 47 -54 102 -69 121 -77 99 -82 163 -25 348 22 72 35 132 31 146
-9 37 -43 73 -91 96 -43 21 -49 21 -148 9 -122 -15 -200 -4 -284 38 -65 33
-92 65 -73 88 7 8 21 15 33 15 11 0 39 20 63 44 37 36 44 50 44 82 0 70 -26
84 -152 84 -172 0 -387 -65 -453 -136 -21 -23 -25 -37 -25 -88 0 -34 -9 -94
-20 -135 -11 -41 -20 -91 -20 -112 0 -52 -19 -64 -74 -50 -94 23 -157 9 -213
-49 -31 -32 -33 -32 -33 -11 0 12 5 42 11 65 10 40 8 49 -25 121 -69 148 -159
248 -279 306 -28 14 -50 33 -60 53 -13 27 -43 64 -166 204 -24 27 -62 29 -84
4 -21 -24 -22 -100 -2 -149 8 -19 15 -51 15 -70 0 -37 -24 -66 -103 -126 -31
-23 -37 -34 -37 -65 0 -21 10 -58 23 -82 18 -38 32 -50 88 -76 61 -30 70 -38
118 -114 52 -81 59 -120 25 -120 -16 0 -150 116 -244 212 -33 33 -70 84 -88
123 -20 41 -42 70 -57 77 -25 11 -28 18 -40 76 -8 38 -41 63 -120 88 -27 9
-64 29 -81 45 l-30 29 -54 -40 c-29 -22 -62 -40 -72 -40 -10 0 -27 -9 -38 -20
-18 -18 -20 -33 -20 -142 0 -67 5 -136 11 -153 18 -48 5 -82 -41 -105 -52 -27
-180 -54 -193 -41 -7 7 -1 53 17 132 51 229 44 357 -28 504 -19 38 -37 84 -41
101 -7 37 -65 109 -104 128 -46 24 -102 28 -164 11 -32 -8 -62 -15 -67 -15 -5
0 -21 17 -35 38 -14 21 -43 49 -66 62 -22 14 -61 40 -85 58 -52 38 -64 39 -92
9z"/>
<path d="M1910 8075 c-63 -18 -104 -43 -210 -130 -85 -69 -192 -148 -400 -295
-195 -138 -390 -291 -457 -357 -75 -75 -109 -132 -142 -239 -33 -106 -49 -138
-107 -220 -137 -193 -146 -366 -38 -724 35 -114 252 -699 271 -729 14 -22 20
-23 87 -19 74 5 164 37 199 72 27 27 6 45 -43 39 -68 -9 -106 4 -158 56 -26
26 -58 68 -71 93 -22 41 -23 48 -11 77 33 81 77 103 155 77 58 -20 129 -21
144 -2 7 8 11 30 9 48 -3 28 -7 33 -28 32 -14 0 -37 -4 -51 -8 -20 -6 -33 -1
-56 18 -17 14 -38 26 -46 26 -8 0 -44 -20 -80 -44 -105 -70 -110 -64 -148 158
-12 71 -32 168 -45 215 -60 216 -60 218 -40 269 31 82 31 82 3 82 -34 0 -52
23 -37 49 12 24 39 26 87 9 28 -10 36 -10 50 5 15 15 16 23 5 62 -7 25 -12 66
-12 91 l0 46 35 -22 c20 -12 42 -19 50 -16 24 9 17 36 -15 54 -42 24 -44 39
-18 106 17 44 32 64 60 82 39 25 58 51 58 81 0 30 86 130 137 159 64 37 77 48
139 125 30 38 64 69 78 73 14 3 52 -3 88 -14 97 -30 101 -29 93 29 -5 38 -3
52 10 65 20 20 58 30 87 23 12 -3 35 0 53 7 30 13 32 18 38 77 4 34 14 73 23
87 23 36 78 55 134 47 47 -6 47 -6 43 19 -5 25 -4 26 40 20 l45 -6 22 43 c12
24 29 52 38 62 30 34 91 16 151 -47 46 -47 62 -47 61 2 -1 20 5 57 12 81 12
42 12 44 -15 67 -53 46 -185 64 -277 39z"/>
<path d="M8455 7462 c-49 -8 -74 -29 -127 -105 -32 -45 -86 -118 -121 -162
-92 -115 -91 -113 -95 -255 -2 -69 -4 -151 -4 -182 -2 -55 -2 -57 -34 -63 -18
-3 -49 -17 -70 -32 -22 -14 -57 -34 -79 -43 -62 -27 -79 -52 -79 -115 0 -44 5
-62 31 -97 72 -101 169 -128 300 -84 159 53 194 144 109 285 -20 32 -36 61
-36 64 0 3 31 3 69 0 66 -5 71 -4 96 22 l28 27 -7 107 c-6 99 -5 109 14 134
11 14 31 29 43 33 31 9 67 44 67 66 0 10 -12 36 -26 58 -33 49 -41 112 -21
165 9 22 23 61 33 87 18 45 18 47 1 66 -19 20 -56 30 -92 24z"/>
<path d="M1230 5160 c-14 -4 -51 -22 -84 -39 -32 -17 -70 -31 -85 -31 -40 -1
-64 -24 -63 -62 3 -79 89 -297 186 -471 133 -241 180 -365 193 -512 7 -79 33
-118 72 -108 46 12 44 33 -15 220 -73 233 -78 244 -251 572 -28 54 -28 66 -3
116 24 48 21 61 -19 70 -63 14 -61 82 2 127 42 30 116 30 157 0 36 -27 50 -28
50 -4 0 28 -30 50 -78 58 -49 8 -52 15 -17 38 43 28 14 45 -45 26z"/>
</g>
</svg>
