<?xml version="1.0" standalone="no"?>
<!DOCTYPE svg PUBLIC "-//W3C//DTD SVG 20010904//EN"
 "http://www.w3.org/TR/2001/REC-SVG-20010904/DTD/svg10.dtd">
<svg version="1.0" xmlns="http://www.w3.org/2000/svg"
 width="895.000000pt" height="1024.000000pt" viewBox="0 0 895.000000 1024.000000"
 preserveAspectRatio="xMidYMid meet">
<metadata>
Created by potrace 1.16, written by Peter Selinger 2001-2019
</metadata>
<g transform="translate(0.000000,1024.000000) scale(0.100000,-0.100000)"
fill="#000000" stroke="none">
<path d="M2160 9956 c-36 -18 -82 -36 -103 -40 -38 -7 -101 -60 -141 -120
l-18 -27 -99 7 -98 7 -30 -30 c-18 -19 -36 -53 -46 -89 -19 -64 -36 -89 -75
-109 -54 -27 -95 -26 -231 6 -74 17 -164 33 -201 36 l-67 5 -3 -53 c-3 -50 -5
-55 -38 -71 -25 -13 -59 -18 -118 -18 -81 0 -83 0 -162 50 -44 28 -86 50 -94
50 -8 0 -19 -13 -25 -30 -8 -26 -15 -30 -45 -30 -48 0 -53 -24 -21 -99 26 -63
32 -129 15 -161 -5 -10 -23 -28 -39 -39 -25 -18 -33 -20 -56 -9 -15 6 -33 24
-40 39 -23 44 -66 89 -85 89 -21 0 -73 -56 -98 -108 -11 -20 -27 -68 -36 -106
-20 -81 -17 -86 61 -86 41 0 52 4 55 17 3 15 16 18 88 19 47 1 92 3 100 4 8 0
50 -2 93 -6 l77 -7 20 -44 c11 -25 32 -59 46 -76 25 -29 32 -32 88 -33 62 -1
146 -29 161 -54 5 -8 1 -18 -11 -26 -44 -31 -47 -35 -30 -52 9 -9 42 -18 83
-21 53 -5 67 -9 64 -21 -22 -82 51 -220 135 -255 30 -12 40 -28 35 -57 -4 -27
21 -58 53 -63 20 -4 51 -23 74 -44 33 -31 38 -41 29 -56 -7 -14 -5 -29 11 -59
11 -23 25 -57 31 -76 16 -51 66 -107 102 -115 42 -9 49 -33 16 -57 -15 -11
-27 -27 -27 -37 0 -21 68 -88 95 -93 25 -4 31 -40 10 -58 -39 -32 -2 -99 76
-138 42 -21 68 -66 76 -131 5 -48 4 -51 -21 -61 -25 -9 -27 -14 -21 -43 11
-52 54 -131 101 -185 52 -59 197 -172 222 -172 41 -1 72 -49 72 -109 0 -37 3
-41 24 -41 25 0 86 -44 86 -62 0 -5 8 -26 17 -45 19 -41 77 -72 136 -73 57 0
107 -24 108 -52 2 -39 -3 -72 -13 -91 -16 -30 10 -120 52 -186 85 -131 209
-241 300 -267 l60 -17 45 -85 c33 -62 63 -101 106 -140 72 -66 88 -91 65 -104
-40 -22 -9 -77 64 -113 19 -9 94 -75 165 -145 119 -117 134 -128 184 -140 30
-7 75 -10 105 -6 l53 6 65 -88 c36 -48 83 -114 104 -147 35 -55 38 -65 35
-121 -4 -107 52 -235 172 -391 50 -64 57 -79 68 -149 12 -70 18 -83 67 -142
37 -45 50 -68 43 -75 -6 -6 -11 -26 -11 -44 0 -27 9 -43 45 -77 54 -53 58 -86
20 -176 -20 -47 -25 -77 -25 -139 0 -97 5 -111 65 -181 l48 -55 -7 -125 c-5
-84 -14 -146 -28 -190 -12 -36 -24 -104 -28 -152 -7 -102 -25 -129 -94 -147
-24 -6 -48 -16 -53 -23 -13 -17 -26 -89 -27 -154 -1 -46 3 -56 37 -93 44 -49
46 -74 13 -140 -82 -161 -74 -370 19 -526 l36 -59 -1 -116 c-2 -86 3 -136 19
-200 11 -47 29 -135 40 -197 14 -84 25 -119 44 -145 42 -54 95 -176 113 -256
39 -173 -6 -297 -130 -359 l-39 -20 35 -7 c84 -16 155 -99 183 -216 41 -171
58 -203 108 -198 29 3 36 11 79 98 26 53 59 109 73 124 l27 29 161 -9 c277
-15 337 -13 374 14 43 31 53 81 24 118 -33 42 -27 72 24 118 50 46 57 77 27
117 -10 13 -24 39 -31 56 -13 31 -68 89 -105 110 -27 15 -11 109 22 140 23 21
34 24 105 21 85 -2 97 4 96 52 0 14 -6 43 -14 65 -8 22 -15 45 -15 52 0 23 32
43 69 43 90 0 123 31 131 125 5 56 7 61 36 70 92 30 118 129 73 277 -27 88
-23 159 12 194 14 14 54 33 93 44 89 25 217 88 289 141 55 41 68 61 47 74 -20
13 -61 107 -67 154 -7 65 18 138 67 193 60 69 83 121 77 175 -6 55 -28 87 -92
133 -27 19 -67 52 -88 73 -38 36 -39 39 -32 80 23 117 6 207 -66 350 -25 50
-39 91 -39 116 0 96 119 233 264 305 50 25 119 66 153 91 108 81 173 68 237
-45 29 -51 31 -62 31 -155 0 -91 -3 -105 -28 -152 -33 -60 -35 -128 -4 -147
15 -9 24 -5 53 26 18 21 34 46 34 57 0 31 39 70 81 81 46 13 51 35 18 80 -40
54 -12 180 41 180 25 0 66 -49 94 -112 14 -31 30 -59 36 -63 21 -13 58 25 80
82 12 32 32 72 45 89 30 39 104 77 142 72 26 -3 28 -6 26 -48 -1 -25 -4 -60
-8 -78 -5 -23 -2 -40 10 -58 16 -25 21 -26 70 -21 66 7 104 -14 143 -78 26
-42 29 -44 73 -45 77 0 108 44 109 158 0 36 3 42 21 42 31 0 76 54 84 99 l6
39 37 -34 c20 -19 60 -45 87 -58 81 -39 117 -91 136 -194 12 -66 32 -92 69
-92 32 0 49 18 83 86 15 29 36 55 52 62 15 7 73 12 138 12 118 0 234 19 273
45 35 23 57 61 49 86 -9 28 -72 55 -160 69 -39 6 -83 19 -100 29 -27 16 -30
22 -27 59 3 52 -18 68 -109 83 -155 25 -228 90 -166 146 12 11 42 31 67 43 52
26 60 35 60 73 0 18 -13 42 -40 71 -45 48 -49 72 -25 150 35 115 9 314 -57
437 -60 113 -190 204 -317 220 -86 11 -126 25 -178 65 -43 33 -128 63 -235 84
-31 6 -68 20 -83 32 -15 11 -43 21 -68 22 -37 2 -42 5 -43 27 0 13 -6 61 -14
106 -11 66 -11 87 -1 105 7 13 21 39 32 58 27 49 25 107 -6 152 -46 68 -59 68
-122 -1 -30 -34 -58 -61 -62 -61 -12 0 -83 154 -72 158 23 8 75 49 95 75 30
41 34 138 7 226 -11 38 -21 76 -21 85 0 8 16 27 36 42 35 27 36 30 32 84 -5
68 -57 185 -86 195 -33 10 -98 -30 -183 -111 -65 -62 -83 -74 -112 -74 -22 0
-41 8 -55 23 -22 23 -62 122 -62 151 0 26 -49 73 -81 80 -43 8 -114 64 -169
132 -50 61 -118 108 -144 98 -9 -4 -23 -22 -31 -40 -8 -21 -19 -32 -27 -28 -7
3 -39 45 -71 94 -59 90 -97 185 -97 243 0 18 21 100 45 182 46 149 46 150 43
285 l-2 135 37 74 c45 91 39 107 -45 134 -62 20 -108 56 -108 85 0 10 13 33
30 50 28 30 62 89 93 163 l15 37 -40 -5 c-35 -5 -43 -2 -79 33 -41 40 -106
142 -139 218 -13 32 -26 47 -45 52 -56 14 -138 -52 -148 -120 -9 -60 -31 -86
-73 -86 -45 0 -147 34 -193 65 -111 76 -239 241 -332 432 l-50 103 -182 0
c-108 0 -221 6 -277 15 -122 18 -153 11 -212 -53 -59 -63 -71 -86 -63 -123 7
-33 -3 -109 -14 -109 -5 0 -22 23 -40 51 -23 38 -34 71 -41 122 -5 38 -14 74
-22 78 -40 26 -123 -6 -133 -52 -10 -44 -39 -64 -77 -52 -50 14 -45 60 15 142
45 60 47 66 47 130 0 42 -5 74 -14 86 -14 19 -15 19 -66 -5 -28 -13 -65 -23
-81 -22 -31 2 -48 -11 -111 -86 -18 -22 -35 -32 -55 -32 -39 0 -53 11 -88 72
-39 66 -59 70 -114 23 -44 -36 -78 -44 -99 -23 -7 7 -12 44 -12 94 0 45 -3 90
-6 99 -13 34 -65 49 -174 50 -111 1 -160 13 -222 52 -44 27 -63 54 -86 119
-17 47 -18 47 -117 89 -55 23 -120 51 -145 63 -69 31 -108 35 -193 17 -60 -12
-86 -14 -111 -5 -38 12 -82 56 -88 85 -5 32 -54 29 -128 -9z"/>
</g>
</svg>
