<?xml version="1.0" standalone="no"?>
<!DOCTYPE svg PUBLIC "-//W3C//DTD SVG 20010904//EN"
 "http://www.w3.org/TR/2001/REC-SVG-20010904/DTD/svg10.dtd">
<svg version="1.0" xmlns="http://www.w3.org/2000/svg"
 width="851.000000pt" height="1024.000000pt" viewBox="0 0 851.000000 1024.000000"
 preserveAspectRatio="xMidYMid meet">
<metadata>
Created by potrace 1.16, written by Peter Selinger 2001-2019
</metadata>
<g transform="translate(0.000000,1024.000000) scale(0.100000,-0.100000)"
fill="#000000" stroke="none">
<path d="M7690 10233 c-34 -13 -60 -47 -60 -80 0 -52 24 -87 99 -148 39 -30
72 -59 75 -64 3 -5 -13 -33 -36 -63 -56 -71 -304 -315 -338 -333 -15 -8 -69
-21 -121 -30 -117 -20 -177 -35 -312 -80 -84 -27 -116 -33 -151 -29 -54 8 -75
-3 -276 -146 -211 -151 -271 -175 -384 -156 -90 14 -186 13 -221 -4 -27 -14
-30 -22 -47 -115 -10 -55 -20 -105 -22 -111 -3 -7 -39 -28 -80 -48 -109 -53
-128 -85 -161 -279 -23 -132 -54 -192 -126 -239 -30 -20 -70 -52 -87 -72 -31
-36 -32 -39 -32 -130 0 -147 -25 -249 -129 -528 -12 -34 -25 -102 -31 -167
-12 -142 -23 -180 -66 -237 -45 -58 -70 -82 -161 -151 -93 -70 -146 -138 -225
-287 -34 -67 -80 -146 -101 -178 -47 -71 -137 -154 -219 -204 -99 -59 -125
-82 -157 -137 -49 -85 -42 -80 -99 -58 -73 29 -204 112 -271 172 -31 28 -65
55 -77 61 -26 12 -71 -7 -132 -57 -31 -25 -53 -35 -78 -35 -44 0 -38 6 -440
-430 -328 -355 -369 -400 -493 -533 -40 -42 -78 -92 -86 -110 -30 -69 -114
-154 -240 -242 -85 -59 -155 -116 -260 -215 -44 -41 -102 -86 -127 -100 -26
-13 -49 -30 -50 -37 -5 -18 -196 -172 -348 -278 -176 -123 -279 -213 -404
-354 -54 -61 -128 -140 -164 -174 -92 -87 -149 -148 -163 -175 -12 -20 -7 -27
64 -95 43 -39 77 -79 77 -87 0 -8 -7 -24 -15 -34 -27 -36 -18 -109 29 -229 62
-161 71 -204 71 -352 0 -190 -16 -207 -213 -225 -59 -6 -140 -18 -180 -26 -64
-14 -79 -22 -130 -68 -31 -28 -100 -88 -152 -131 -214 -179 -267 -240 -329
-384 -22 -51 -56 -113 -76 -136 l-34 -43 47 -44 c66 -61 159 -125 282 -193
369 -204 417 -237 625 -419 172 -151 137 -127 1525 -1097 l125 -88 35 26 c19
14 62 54 96 89 l60 64 62 0 62 0 0 48 c1 62 29 122 83 175 48 46 146 103 211
122 39 12 41 14 52 69 14 67 18 72 103 135 68 50 105 73 366 226 266 156 378
240 391 292 9 34 -10 45 -71 40 -44 -3 -67 -14 -173 -85 -68 -45 -131 -82
-139 -82 -25 0 -138 77 -179 122 -56 62 -76 119 -82 226 l-5 94 -221 -9 c-122
-4 -254 -8 -295 -8 l-74 0 -15 60 c-8 33 -20 63 -26 67 -6 4 -41 12 -78 18
l-67 12 -7 44 c-3 24 -7 85 -8 136 l-1 91 84 30 c75 28 81 32 65 44 -50 37
-127 39 -330 9 l-84 -13 0 29 c0 46 23 78 120 167 104 95 94 93 245 44 99 -33
154 -81 255 -228 40 -57 77 -109 84 -114 30 -25 147 28 254 115 l32 27 34 -36
c19 -20 60 -88 92 -152 l57 -115 52 0 52 0 7 -166 c7 -170 13 -199 43 -208 10
-2 28 -7 40 -11 34 -9 53 73 50 218 -1 63 0 117 3 120 3 3 82 8 177 12 l172 8
53 70 c46 61 59 72 102 84 42 12 71 36 203 165 l154 150 52 -6 c165 -19 164
-19 209 2 88 44 114 81 241 350 l118 250 -9 70 c-18 130 8 184 178 357 97 99
137 149 170 208 53 98 120 192 241 338 118 143 438 543 467 586 12 17 22 37
22 45 0 15 -96 72 -109 64 -5 -3 -76 -88 -157 -188 -410 -507 -519 -633 -588
-686 -23 -18 -42 -22 -101 -22 -139 0 -212 41 -235 133 -33 129 -55 151 -146
145 l-49 -3 0 -52 c1 -39 6 -58 22 -75 45 -50 64 -114 78 -274 l7 -70 -81 -38
c-44 -20 -126 -51 -183 -67 -109 -32 -506 -114 -514 -107 -2 3 -12 58 -21 124
-9 65 -17 120 -18 122 -4 4 -142 -20 -154 -27 -7 -5 2 -45 29 -126 45 -134 45
-132 -37 -156 -117 -32 -238 51 -314 217 -49 107 -82 282 -61 320 8 14 12 2
22 -58 15 -91 19 -99 49 -91 22 6 22 9 19 97 l-3 91 31 3 c43 4 54 -14 65
-105 6 -43 15 -96 20 -118 11 -43 68 -145 81 -145 13 0 9 209 -7 313 -17 111
-27 155 -92 395 -46 167 -48 172 -74 172 -24 0 -27 -4 -33 -48 -3 -26 -2 -81
4 -122 5 -41 13 -103 16 -138 l7 -62 -32 0 -31 0 0 58 c0 70 -25 230 -46 297
-9 28 -28 72 -43 99 l-26 49 -6 -29 c-4 -16 -7 -80 -8 -143 l-1 -114 -32 25
c-18 14 -36 32 -42 41 -24 38 40 303 82 340 10 8 155 40 338 74 310 58 324 60
375 47 32 -8 73 -11 104 -8 l52 6 17 -90 c9 -49 16 -97 16 -106 0 -24 13 -20
45 14 28 29 28 30 22 122 -3 51 -3 99 2 106 6 9 212 47 216 39 13 -23 50 -251
55 -337 7 -124 19 -158 67 -194 29 -22 45 -16 77 28 18 24 21 41 20 139 -1 89
-7 138 -33 239 -41 169 -41 171 12 192 161 66 400 146 435 146 21 0 73 -125
106 -255 40 -156 66 -203 133 -242 l42 -24 18 27 c13 20 18 46 17 91 0 57 -7
76 -72 209 -40 80 -72 158 -72 174 0 28 13 47 84 124 59 65 63 94 40 267 -6
41 -3 49 25 82 18 20 55 91 83 159 l51 123 0 125 c0 69 -1 175 -3 235 -3 102
-1 117 29 205 35 103 206 424 276 519 23 31 79 99 125 151 159 183 182 237
182 412 l-1 117 56 32 c117 67 164 145 126 210 -28 49 -40 46 -59 -15 -14 -43
-22 -56 -43 -61 -45 -11 -68 49 -58 154 13 150 128 257 290 269 l67 5 0 74 c0
48 6 87 16 109 36 76 172 144 287 144 80 0 152 -33 197 -89 18 -23 36 -41 40
-41 4 0 28 32 53 72 45 68 47 75 47 142 l-1 71 -24 -30 c-14 -16 -27 -37 -30
-47 -3 -9 -19 -21 -35 -26 -28 -10 -29 -10 -38 32 -23 110 37 196 137 196 47
0 63 -31 126 -234 24 -78 34 -96 79 -141 40 -40 70 -59 134 -83 115 -45 173
-55 277 -49 118 6 190 33 243 91 81 88 82 181 7 451 -18 66 -51 203 -74 305
-50 227 -77 314 -144 455 l-52 110 1 100 c1 55 6 139 11 187 18 148 -12 245
-96 320 -98 86 -337 168 -411 141z"/>
</g>
</svg>
