<?xml version="1.0" standalone="no"?>
<!DOCTYPE svg PUBLIC "-//W3C//DTD SVG 20010904//EN"
 "http://www.w3.org/TR/2001/REC-SVG-20010904/DTD/svg10.dtd">
<svg version="1.0" xmlns="http://www.w3.org/2000/svg"
 width="684.000000pt" height="360.000000pt" viewBox="0 0 684.000000 360.000000"
 preserveAspectRatio="xMidYMid meet">
<metadata>
Created by potrace 1.16, written by Peter Selinger 2001-2019
</metadata>
<g transform="translate(0.000000,360.000000) scale(0.100000,-0.100000)"
fill="#000000" stroke="none">
<path d="M2453 3452 c-18 -39 -31 -51 -71 -69 -36 -17 -54 -33 -66 -58 -9 -19
-25 -39 -35 -45 -10 -5 -28 -34 -41 -65 -17 -43 -20 -63 -14 -92 4 -21 7 -50
5 -65 -1 -17 8 -38 28 -61 37 -42 38 -54 6 -117 -29 -56 -58 -80 -98 -80 -18
0 -42 -11 -64 -30 -18 -16 -40 -30 -47 -30 -8 0 -33 16 -56 35 -33 28 -51 35
-84 35 -23 0 -51 7 -62 15 -12 8 -40 20 -62 28 -36 13 -45 13 -69 0 -23 -12
-35 -12 -68 -2 -22 7 -51 19 -65 27 -13 9 -38 18 -54 21 -42 9 -68 50 -74 115
-2 31 -11 61 -18 67 -8 7 -67 19 -132 29 l-117 16 -3 31 c-3 30 -4 31 -39 21
-32 -9 -38 -7 -65 19 -21 19 -32 24 -35 15 -12 -31 -32 -41 -68 -31 -32 9 -41
6 -93 -25 -31 -19 -77 -38 -102 -41 -28 -5 -57 -18 -78 -36 -18 -16 -43 -29
-57 -29 -13 0 -55 -15 -94 -34 -38 -18 -79 -36 -90 -39 -17 -4 -20 -11 -15
-34 5 -25 1 -31 -31 -46 -19 -9 -44 -17 -54 -17 -10 0 -25 -7 -32 -16 -10 -13
-25 -15 -74 -10 -128 12 -119 14 -134 -20 -7 -18 -28 -38 -46 -47 -25 -12 -34
-23 -37 -49 -3 -18 -8 -41 -12 -50 -6 -12 0 -25 19 -42 22 -21 25 -28 16 -45
-10 -17 -7 -23 16 -35 45 -25 71 -51 86 -88 9 -20 35 -49 66 -71 44 -32 56
-36 89 -31 35 5 39 3 62 -33 17 -25 33 -38 47 -38 29 0 93 -63 93 -91 0 -39
41 -157 66 -190 36 -46 44 -150 16 -196 -15 -24 -18 -39 -11 -56 10 -27 3 -44
-47 -109 -19 -25 -34 -56 -34 -70 0 -34 40 -113 57 -113 7 0 40 -13 71 -29 59
-30 155 -53 267 -66 73 -8 170 -32 207 -51 15 -8 73 -59 130 -115 106 -104
129 -119 179 -119 29 0 30 -1 23 -35 -5 -27 -3 -36 10 -41 22 -8 42 -58 61
-149 8 -41 15 -76 15 -78 0 -2 18 -28 40 -57 22 -29 40 -64 40 -76 0 -26 12
-29 135 -39 44 -4 161 -28 260 -53 173 -44 186 -46 338 -48 141 -2 166 -5 238
-29 130 -43 167 -61 182 -92 23 -43 47 -60 112 -78 33 -10 94 -39 135 -65 97
-61 138 -74 211 -66 57 5 59 5 59 -18 0 -33 17 -42 77 -45 35 -2 63 4 90 17
61 32 236 90 305 102 35 6 84 18 110 26 43 14 60 14 175 -1 224 -29 268 -30
368 -5 121 31 149 46 231 128 58 59 78 73 127 87 70 20 147 69 147 94 0 10 -9
26 -21 37 -26 24 -69 106 -69 134 0 37 69 160 100 179 47 28 122 13 164 -33
33 -37 132 -76 192 -76 49 0 143 55 201 118 l52 56 51 -18 c66 -24 124 -15
209 30 82 44 91 51 91 81 0 34 58 102 104 123 35 17 42 17 84 2 42 -14 46 -14
59 3 7 11 13 27 13 37 0 21 6 22 47 7 25 -8 37 -6 70 10 32 17 54 20 130 18
68 -2 96 -7 110 -19 20 -18 125 -40 149 -31 39 15 33 104 -11 170 -90 136
-105 154 -169 211 -10 9 -22 27 -27 40 -10 26 -44 41 -111 49 -46 6 -48 4 -99
-46 -28 -28 -55 -51 -61 -51 -5 0 -21 14 -35 30 -36 43 -69 56 -140 55 -51 0
-66 -5 -88 -25 -30 -28 -47 -23 -82 30 -33 47 -29 80 12 120 19 19 35 43 35
54 0 32 39 108 129 254 119 195 116 187 89 212 -49 46 -73 53 -133 34 -78 -25
-124 -10 -171 56 -35 49 -93 80 -151 80 -40 0 -234 -109 -279 -156 -41 -44
-51 -48 -124 -44 -19 0 -55 -6 -79 -14 -24 -9 -73 -16 -110 -16 -38 -1 -76 -7
-91 -15 -64 -37 -322 -7 -393 46 -19 14 -51 22 -105 27 -76 7 -77 7 -97 44
-11 20 -29 41 -41 47 -16 7 -24 25 -33 69 l-11 59 -78 19 c-72 18 -78 21 -94
55 -24 51 -63 79 -108 79 -23 0 -62 13 -103 35 -73 39 -93 41 -231 24 -65 -8
-101 -18 -126 -35 -32 -21 -41 -22 -101 -15 -74 10 -104 22 -119 51 -8 14 -21
20 -45 20 -43 0 -72 30 -121 126 -35 70 -36 75 -32 157 l4 86 -60 25 c-34 14
-69 26 -78 26 -10 0 -52 25 -95 55 -42 31 -86 57 -97 59 -12 3 -43 8 -71 13
-37 6 -52 14 -61 31 -6 13 -35 35 -64 48 -29 13 -69 37 -89 53 l-37 29 -21
-46z"/>
</g>
</svg>
