<?xml version="1.0" standalone="no"?>
<!DOCTYPE svg PUBLIC "-//W3C//DTD SVG 20010904//EN"
 "http://www.w3.org/TR/2001/REC-SVG-20010904/DTD/svg10.dtd">
<svg version="1.0" xmlns="http://www.w3.org/2000/svg"
 width="516.000000pt" height="624.000000pt" viewBox="0 0 516.000000 624.000000"
 preserveAspectRatio="xMidYMid meet">
<metadata>
Created by potrace 1.16, written by Peter Selinger 2001-2019
</metadata>
<g transform="translate(0.000000,624.000000) scale(0.100000,-0.100000)"
fill="#000000" stroke="none">
<path d="M1472 6027 c-6 -7 -17 -31 -24 -52 -11 -35 -21 -43 -81 -72 -37 -18
-70 -40 -73 -48 -8 -19 2 -54 21 -79 14 -18 15 -18 34 5 27 33 43 15 49 -58 5
-62 13 -73 53 -73 16 0 44 -15 72 -40 48 -42 63 -76 88 -194 9 -39 22 -69 40
-87 31 -32 64 -111 56 -134 -4 -9 -19 -15 -39 -15 -18 0 -38 -4 -44 -8 -7 -4
-26 -45 -44 -92 -18 -47 -36 -89 -40 -94 -5 -5 -20 14 -34 42 -16 31 -39 59
-62 72 -33 21 -35 26 -29 54 15 62 9 77 -52 133 -64 59 -57 58 -175 26 -61
-16 -73 -30 -58 -67 11 -30 15 -27 -133 -107 -132 -71 -222 -137 -239 -175
-10 -21 -8 -28 18 -55 l29 -30 -47 -42 c-57 -52 -70 -79 -92 -187 -15 -81 -15
-93 4 -245 11 -88 20 -168 20 -177 0 -35 -57 -52 -177 -52 -129 -1 -153 -12
-190 -87 -71 -142 -81 -247 -34 -342 l29 -59 -23 -50 c-13 -27 -32 -60 -44
-72 -14 -14 -21 -35 -21 -60 0 -20 -5 -46 -10 -56 -7 -14 -5 -51 6 -126 17
-105 18 -109 58 -146 23 -21 50 -38 60 -38 11 0 29 -9 40 -19 18 -17 43 -25
89 -30 12 -2 8 -33 -9 -82 l-17 -46 32 -46 c17 -25 31 -50 31 -56 0 -6 -15
-18 -32 -27 -84 -42 -98 -86 -48 -149 39 -49 40 -70 2 -60 -79 19 -88 18 -128
-17 -22 -18 -56 -46 -77 -62 l-39 -28 4 -123 3 -122 104 -99 c57 -54 110 -100
117 -102 20 -5 17 19 -6 48 -35 45 -28 52 52 44 50 -5 82 -14 106 -30 19 -13
42 -24 50 -24 8 0 53 21 100 46 84 45 101 47 102 7 0 -6 16 -32 35 -57 42 -56
44 -68 8 -61 l-28 6 28 -16 c30 -17 39 -42 9 -26 -32 17 -301 91 -330 91 -60
0 -66 -52 -11 -91 16 -11 26 -25 23 -31 -8 -12 41 -65 77 -84 15 -7 47 -12 73
-11 38 2 46 5 46 22 0 36 17 49 61 46 8 0 25 -18 37 -40 26 -46 27 -51 6 -51
-14 0 -13 -5 5 -32 12 -18 32 -55 45 -83 27 -59 144 -175 176 -175 11 0 34 7
50 15 16 8 44 15 62 15 18 -1 50 2 71 6 55 9 82 -12 97 -78 7 -29 21 -70 31
-90 18 -36 75 -88 97 -88 17 0 72 -51 72 -67 0 -8 31 -46 68 -84 57 -57 75
-69 101 -69 41 0 63 -12 106 -58 37 -40 42 -61 23 -92 -11 -17 -8 -25 27 -60
22 -22 58 -50 82 -61 48 -23 48 -24 63 -141 8 -61 9 -92 1 -106 -8 -16 -6 -25
10 -46 12 -15 18 -33 15 -44 -4 -11 1 -25 11 -34 36 -31 182 -109 234 -124 94
-28 153 -60 218 -118 48 -43 69 -56 89 -54 55 6 47 103 -13 160 -19 18 -35 35
-35 39 0 3 11 11 25 17 38 18 41 39 10 72 -34 35 -28 56 21 76 30 13 35 19 29
37 -4 12 -6 38 -5 57 0 19 -7 63 -16 98 -19 68 -13 116 29 230 10 30 16 63 13
75 -4 12 -67 71 -141 132 -74 60 -135 117 -135 126 0 9 14 36 32 60 64 88 146
216 188 294 24 44 52 93 63 108 12 18 23 57 28 104 11 103 15 110 57 124 50
16 62 27 82 74 10 22 53 94 97 161 44 67 89 148 101 182 17 45 31 66 55 81 18
11 43 31 56 45 20 22 22 30 16 75 -6 45 -3 57 21 99 48 84 95 142 114 142 11
0 27 12 37 26 35 49 58 72 80 79 19 5 27 -2 52 -42 17 -26 31 -59 31 -73 0
-14 12 -43 27 -64 l26 -39 -27 -22 c-22 -18 -27 -31 -32 -86 -7 -75 10 -126
72 -210 52 -72 149 -122 169 -89 4 6 29 24 58 40 36 20 59 27 78 23 24 -4 29
-1 35 21 3 14 20 38 37 52 29 24 35 25 108 19 89 -8 114 1 124 44 6 30 74 100
98 102 6 1 22 3 35 4 13 1 28 7 34 13 10 10 7 77 -7 169 -6 37 -3 47 34 102
23 33 41 64 41 69 0 5 -11 14 -25 20 -14 7 -30 23 -36 36 -7 15 -29 31 -55 41
-48 18 -90 62 -101 103 -3 15 -12 33 -20 40 -15 16 -17 58 -3 67 6 3 10 15 10
26 0 11 12 31 26 44 38 35 115 35 180 0 51 -27 93 -32 112 -13 9 9 19 7 44
-12 41 -30 114 -38 155 -17 16 9 45 33 63 53 29 33 32 42 26 78 -3 23 -8 50
-11 61 -5 15 5 29 43 58 45 34 54 37 115 37 36 0 69 4 72 10 3 5 -1 30 -10 55
-9 29 -14 74 -13 123 2 42 -1 83 -5 90 -5 6 -22 12 -38 12 -16 0 -46 9 -67 19
-20 10 -74 33 -119 50 -45 18 -93 41 -106 51 -14 11 -29 20 -33 20 -13 0 -134
82 -134 91 0 21 -30 6 -54 -26 -15 -19 -33 -35 -41 -35 -8 0 -35 18 -60 40
-25 22 -52 40 -59 40 -8 0 -19 15 -25 33 -25 66 -38 83 -86 109 -65 35 -102
80 -121 148 -34 115 -37 117 -102 70 -41 -30 -76 -38 -86 -21 -3 5 -29 16 -57
25 -42 14 -57 15 -80 5 -16 -6 -29 -16 -29 -21 0 -5 -4 -6 -10 -3 -5 3 -10 19
-10 36 0 27 -2 29 -40 29 -47 0 -86 31 -95 77 -15 74 -18 78 -60 78 -22 0 -51
6 -65 14 -13 8 -43 13 -66 13 -29 -2 -52 5 -77 22 -19 13 -44 27 -55 30 -28 9
-49 36 -59 76 -13 48 -90 106 -161 121 -48 10 -57 15 -83 57 -21 32 -29 55
-25 72 20 93 20 88 -15 110 -19 11 -50 25 -71 30 -48 14 -93 66 -112 134 -18
60 -47 90 -105 106 -20 6 -45 17 -55 25 -11 8 -33 15 -49 15 -23 0 -41 12 -81
55 -44 47 -56 55 -87 55 -27 0 -54 13 -110 51 -94 65 -109 83 -109 128 0 70
-18 111 -55 127 -54 22 -122 18 -170 -11 -23 -13 -64 -29 -91 -35 -27 -6 -66
-22 -87 -36 -40 -26 -39 -26 -52 31 -8 36 -95 125 -122 125 -11 0 -25 -6 -31
-13z m-621 -3728 c8 -6 45 -7 85 -4 l71 6 7 -32 c3 -17 6 -47 6 -65 l0 -34
-47 49 c-37 37 -58 51 -88 56 -68 11 -79 14 -105 35 l-25 20 35 29 35 30 6
-40 c3 -23 12 -45 20 -50z"/>
</g>
</svg>
