<?xml version="1.0" standalone="no"?>
<!DOCTYPE svg PUBLIC "-//W3C//DTD SVG 20010904//EN"
 "http://www.w3.org/TR/2001/REC-SVG-20010904/DTD/svg10.dtd">
<svg version="1.0" xmlns="http://www.w3.org/2000/svg"
 width="1024.000000pt" height="1024.000000pt" viewBox="0 0 1024.000000 1024.000000"
 preserveAspectRatio="xMidYMid meet">
<metadata>
Created by potrace 1.16, written by Peter Selinger 2001-2019
</metadata>
<g transform="translate(0.000000,1024.000000) scale(0.100000,-0.100000)"
fill="#000000" stroke="none">
<path d="M6803 8748 c-14 -13 -33 -21 -53 -20 -19 0 -33 -5 -37 -14 -4 -11
-14 -13 -34 -9 -27 6 -30 3 -64 -67 -20 -40 -50 -112 -66 -160 -15 -48 -71
-172 -123 -275 -79 -158 -104 -198 -154 -248 -39 -40 -65 -77 -77 -110 -25
-68 -38 -81 -106 -104 -32 -11 -85 -40 -117 -64 -67 -52 -101 -70 -162 -87
-39 -11 -150 -63 -220 -104 -14 -8 -45 -21 -70 -28 -40 -12 -46 -17 -59 -56
-10 -32 -30 -58 -87 -107 -41 -36 -94 -87 -117 -114 -23 -28 -59 -58 -79 -67
-35 -16 -50 -34 -29 -34 4 0 8 -39 8 -87 0 -83 -2 -90 -28 -121 -16 -18 -29
-42 -29 -54 0 -13 -28 -50 -70 -94 -57 -59 -70 -78 -70 -104 0 -23 -9 -40 -32
-62 -32 -30 -32 -30 -15 -60 21 -37 21 -51 1 -90 -13 -25 -13 -35 -3 -59 10
-25 9 -32 -6 -49 -14 -16 -16 -23 -7 -32 17 -17 15 -53 -4 -68 -26 -22 -14
-64 23 -75 100 -33 106 -126 21 -300 -17 -33 -49 -85 -72 -115 -24 -30 -60
-86 -80 -123 -21 -37 -57 -83 -80 -102 -22 -18 -66 -54 -96 -79 -55 -46 -85
-63 -150 -87 -19 -7 -72 -47 -116 -89 -131 -121 -191 -168 -226 -175 -18 -4
-65 -19 -103 -35 -86 -35 -187 -57 -320 -70 -55 -6 -114 -15 -131 -20 -41 -14
-130 -127 -144 -184 -22 -86 -54 -163 -91 -217 -21 -31 -43 -79 -50 -105 -18
-74 -49 -124 -91 -145 -21 -11 -53 -32 -71 -49 -20 -17 -66 -40 -112 -54 -42
-14 -94 -38 -114 -54 -20 -16 -52 -37 -71 -47 -59 -30 -70 -44 -70 -92 0 -48
-11 -75 -43 -111 -15 -16 -23 -43 -28 -88 -4 -44 -13 -72 -27 -87 -54 -59 -73
-149 -52 -247 l13 -61 -30 -32 c-16 -18 -40 -46 -52 -64 -12 -17 -37 -37 -55
-43 -19 -6 -46 -27 -61 -46 -14 -18 -32 -34 -40 -34 -8 0 -29 -16 -48 -35 -19
-19 -48 -40 -66 -46 -25 -9 -31 -16 -31 -40 0 -28 -2 -29 -45 -29 -43 0 -45
-1 -69 -47 -13 -27 -36 -59 -50 -72 -14 -14 -26 -32 -26 -42 0 -37 21 -28 56
25 23 35 41 53 50 49 26 -10 14 -40 -36 -86 -39 -36 -50 -53 -50 -77 0 -24 -7
-35 -30 -48 -21 -12 -35 -31 -46 -64 -13 -39 -21 -49 -50 -58 -19 -6 -34 -13
-34 -15 0 -2 11 -15 25 -29 14 -14 25 -37 25 -51 0 -22 -4 -25 -39 -25 -34 0
-39 -3 -39 -22 -1 -43 -27 -124 -49 -152 -13 -16 -23 -38 -23 -50 -1 -39 -34
-70 -80 -72 -43 -2 -60 -15 -60 -46 0 -13 -8 -18 -25 -18 -28 0 -45 -30 -45
-81 0 -16 -10 -43 -22 -59 -17 -24 -19 -32 -9 -44 10 -12 9 -20 -2 -43 -8 -15
-17 -47 -20 -69 -2 -23 -15 -56 -28 -73 -20 -28 -23 -44 -24 -129 0 -53 -4
-102 -8 -109 -12 -19 4 -43 30 -43 22 0 23 2 10 20 -17 24 -12 100 9 142 8 15
14 38 14 51 0 14 8 34 18 45 17 20 20 20 187 6 309 -26 1559 -124 1577 -124
17 0 18 19 18 309 0 282 -2 313 -19 351 -15 35 -17 48 -8 74 23 67 164 174
255 194 23 6 54 18 69 27 14 10 69 28 121 41 52 13 96 25 97 26 2 2 15 179 30
393 52 764 62 906 66 910 2 2 207 -12 454 -30 248 -19 547 -41 665 -50 118 -8
234 -18 258 -21 30 -4 43 -1 46 8 3 7 17 312 31 678 15 366 29 675 31 687 3
15 22 31 61 50 41 20 66 41 88 73 22 31 50 55 91 76 37 19 69 45 85 69 17 25
44 46 77 61 28 12 55 31 61 42 8 15 24 21 68 24 55 4 88 15 140 48 18 12 36
12 108 2 89 -13 126 -7 203 32 17 8 84 16 180 20 148 6 152 6 152 -14 0 -21
33 -35 67 -28 10 2 38 38 65 83 26 44 69 100 95 124 55 50 167 127 233 161 25
12 68 44 96 70 62 58 91 74 191 101 80 22 147 51 158 69 3 5 1 18 -5 29 -8 16
-6 27 10 53 38 62 19 129 -36 125 -27 -2 -29 1 -32 37 -3 30 1 41 17 53 18 12
21 25 21 78 l0 64 38 10 c20 5 75 19 122 31 76 19 181 49 188 55 1 1 -7 30
-18 65 -31 98 -45 87 140 107 79 8 438 7 503 -1 35 -5 37 -4 31 18 -3 13 2 48
11 78 13 45 21 58 45 68 16 7 34 18 41 26 12 14 15 12 -109 82 -44 25 -66 46
-90 87 -27 45 -31 58 -22 75 10 18 6 27 -28 64 -46 50 -58 89 -43 143 19 67
14 93 -18 106 -26 11 -28 15 -16 30 18 25 11 180 -10 238 -28 75 -28 79 -10
99 14 16 15 23 5 34 -6 9 -20 18 -31 21 -16 5 -18 13 -13 46 8 49 -12 76 -65
85 -43 8 -61 21 -61 44 0 29 -49 43 -158 45 -130 3 -146 14 -147 102 0 77 -20
81 -68 14 -68 -95 -120 -103 -204 -35 l-46 38 -21 -26 c-21 -25 -56 -48 -75
-48 -5 0 -13 9 -16 21 -9 26 -33 23 -124 -16 -51 -21 -76 -26 -117 -23 -110 9
-251 107 -334 230 -46 69 -49 92 -18 125 l21 23 -44 0 c-32 0 -50 -6 -66 -22z"/>
</g>
</svg>
