<?xml version="1.0" standalone="no"?>
<!DOCTYPE svg PUBLIC "-//W3C//DTD SVG 20010904//EN"
 "http://www.w3.org/TR/2001/REC-SVG-20010904/DTD/svg10.dtd">
<svg version="1.0" xmlns="http://www.w3.org/2000/svg"
 width="768.000000pt" height="1024.000000pt" viewBox="0 0 768.000000 1024.000000"
 preserveAspectRatio="xMidYMid meet">
<metadata>
Created by potrace 1.16, written by Peter Selinger 2001-2019
</metadata>
<g transform="translate(0.000000,1024.000000) scale(0.100000,-0.100000)"
fill="#000000" stroke="none">
<path d="M6660 10041 c-94 -36 -165 -76 -241 -135 -128 -99 -195 -138 -266
-153 -50 -10 -75 -22 -109 -52 l-45 -39 -102 -4 -102 -3 -141 -70 c-137 -69
-142 -70 -174 -57 -19 8 -45 22 -58 33 -36 28 -96 42 -136 31 -22 -6 -67 -44
-137 -114 -123 -123 -192 -172 -229 -163 -14 4 -41 9 -61 12 -24 3 -48 17 -70
39 -29 30 -39 34 -85 34 -61 0 -125 -21 -170 -55 l-33 -25 -35 21 c-31 18 -45
20 -111 14 l-76 -7 -56 61 c-96 106 -134 113 -247 41 l-67 -42 -237 -2 c-223
-1 -239 -2 -278 -23 -66 -35 -154 -154 -154 -208 0 -17 -16 -63 -35 -104 -19
-40 -35 -85 -35 -101 0 -15 14 -54 31 -86 30 -57 30 -62 24 -144 -6 -77 -5
-90 14 -122 19 -31 23 -58 28 -185 6 -160 8 -165 67 -211 19 -15 42 -22 70
-22 37 0 47 -6 87 -47 178 -186 473 -566 525 -678 30 -64 30 -92 -1 -152 -33
-65 -43 -175 -20 -228 25 -61 29 -140 11 -245 -10 -52 -19 -102 -22 -112 -8
-28 -72 -51 -125 -45 -60 7 -109 -6 -140 -39 -21 -22 -24 -36 -26 -100 -1 -64
-5 -80 -27 -109 -43 -55 -43 -83 -2 -144 41 -60 49 -92 11 -45 -16 20 -37 34
-59 38 -26 5 -46 20 -73 54 -55 68 -79 96 -165 193 -80 90 -98 121 -98 166 0
15 -14 51 -30 80 l-31 54 26 30 c14 17 27 40 30 52 3 12 9 44 15 70 6 26 26
71 44 100 19 29 38 70 41 92 4 22 16 70 27 107 l21 67 -21 55 c-11 30 -26 83
-32 118 -14 78 -31 110 -72 141 -69 51 -104 54 -221 15 -32 -10 -106 -26 -165
-34 l-107 -15 -33 38 c-19 21 -58 87 -88 146 -69 137 -72 138 -208 98 -56 -16
-143 -41 -194 -55 -131 -36 -376 -127 -459 -170 -41 -21 -84 -36 -104 -36 -19
0 -73 -13 -119 -30 -47 -16 -99 -30 -116 -30 -36 0 -196 -58 -388 -141 -76
-33 -162 -64 -189 -70 -58 -11 -83 -29 -90 -67 -8 -41 12 -132 38 -177 17 -30
45 -129 45 -160 0 -1 14 -19 30 -40 34 -43 36 -65 15 -140 -14 -48 -14 -57 -1
-90 l16 -37 77 9 c105 11 165 8 202 -11 37 -20 88 -20 121 -1 37 21 45 19 100
-30 30 -26 67 -49 92 -55 106 -27 151 -52 229 -127 31 -30 50 -38 125 -53 49
-10 127 -21 174 -25 84 -7 86 -8 130 -52 51 -52 70 -63 103 -63 37 0 39 -10 7
-43 -39 -40 -38 -72 5 -144 42 -72 62 -176 44 -228 -10 -26 -10 -43 -1 -72 10
-33 8 -49 -13 -115 -27 -86 -26 -98 11 -223 14 -44 27 -88 30 -97 3 -11 -10
-34 -36 -62 -43 -47 -43 -48 -37 -141 2 -27 -2 -31 -51 -49 -68 -24 -87 -51
-77 -112 5 -36 16 -55 51 -90 52 -53 55 -78 22 -171 l-23 -63 22 -42 c11 -24
25 -56 29 -73 6 -20 21 -36 46 -48 28 -14 40 -27 48 -55 15 -55 13 -60 -29
-111 -52 -63 -61 -82 -61 -134 0 -40 -5 -50 -47 -93 -27 -27 -63 -57 -81 -66
-46 -24 -72 -85 -72 -169 0 -54 -5 -76 -30 -122 -32 -61 -36 -87 -19 -136 l11
-32 -169 -172 c-401 -409 -458 -469 -461 -488 -2 -11 12 -68 32 -127 62 -188
97 -325 103 -407 6 -81 41 -174 77 -204 8 -7 18 -38 22 -69 7 -66 37 -143 65
-168 10 -9 19 -29 19 -43 0 -14 6 -36 13 -47 60 -104 57 -87 58 -316 1 -250
-14 -501 -36 -612 -19 -98 -10 -137 45 -191 44 -43 48 -60 29 -160 -9 -47 -8
-66 5 -99 8 -23 18 -77 22 -121 3 -44 13 -92 22 -107 18 -30 57 -43 101 -33
18 4 52 -2 92 -15 53 -18 75 -20 148 -15 161 14 176 33 185 243 9 176 4 190
-67 221 -57 25 -91 63 -90 104 0 17 15 67 34 109 28 63 47 88 104 141 79 72
226 152 385 210 52 19 145 55 205 79 61 25 139 54 175 63 36 10 79 25 95 33
17 8 108 41 204 73 182 61 209 77 242 141 10 20 41 63 68 96 58 70 91 121 91
142 0 8 -10 35 -23 60 -13 25 -29 78 -37 118 l-13 73 53 132 c51 127 54 137
63 262 4 72 6 177 3 234 -3 65 -1 121 7 148 10 39 9 52 -13 116 -30 89 -58
121 -94 107 l-26 -10 0 67 c0 53 -5 75 -26 110 -18 31 -27 64 -31 111 -4 57
-11 75 -44 122 -21 31 -39 67 -39 81 0 29 -59 208 -84 258 -10 18 -53 70 -97
116 -77 80 -79 84 -85 142 -8 75 7 123 55 176 33 37 36 44 34 96 l-3 57 43 21
c62 30 113 71 349 284 229 207 247 220 323 245 130 43 181 83 292 232 206 277
340 432 412 479 30 19 73 53 97 75 60 56 76 66 139 88 62 21 102 46 156 97 29
27 48 36 96 43 69 9 96 21 136 59 27 24 34 26 130 26 112 1 142 11 222 75 57
46 248 170 327 214 77 42 103 70 113 123 10 54 21 71 63 92 63 32 252 242 354
393 61 90 68 124 37 190 -23 50 -23 50 -4 81 45 76 65 123 65 154 0 19 7 44
15 57 25 38 22 90 -8 130 -22 28 -27 45 -27 90 0 31 -5 76 -12 100 -10 38 -9
50 7 86 24 53 23 89 -2 126 -16 22 -22 49 -26 115 -2 47 -10 95 -16 107 -9 18
-8 30 10 64 17 33 22 62 23 124 1 72 -2 85 -27 123 l-28 42 20 43 c12 23 21
48 21 55 0 7 -16 45 -36 86 l-36 74 6 178 c4 98 8 232 9 298 2 66 6 126 11
133 10 17 -11 79 -30 86 -13 5 -12 11 9 36 34 40 51 94 44 145 -4 29 -2 48 8
61 19 25 19 64 0 92 -11 15 -13 27 -6 39 13 25 -3 163 -20 174 -19 12 -27 11
-79 -10z"/>
</g>
</svg>
