<?xml version="1.0" standalone="no"?>
<!DOCTYPE svg PUBLIC "-//W3C//DTD SVG 20010904//EN"
 "http://www.w3.org/TR/2001/REC-SVG-20010904/DTD/svg10.dtd">
<svg version="1.0" xmlns="http://www.w3.org/2000/svg"
 width="356.000000pt" height="816.000000pt" viewBox="0 0 356.000000 816.000000"
 preserveAspectRatio="xMidYMid meet">
<metadata>
Created by potrace 1.16, written by Peter Selinger 2001-2019
</metadata>
<g transform="translate(0.000000,816.000000) scale(0.100000,-0.100000)"
fill="#000000" stroke="none">
<path d="M2097 8015 c-9 -20 -17 -41 -17 -48 0 -7 -9 -19 -20 -27 -24 -17 -37
-75 -21 -94 16 -19 3 -69 -16 -62 -14 6 -39 -13 -119 -90 -29 -28 -31 -35 -24
-71 4 -23 26 -69 48 -104 24 -36 37 -66 31 -68 -19 -6 -89 31 -89 48 0 34 -30
61 -63 59 -18 -1 -36 -5 -42 -8 -5 -4 -37 -10 -69 -14 -77 -9 -120 -30 -145
-72 -11 -19 -32 -39 -45 -44 -14 -5 -30 -18 -36 -30 -6 -11 -15 -18 -19 -15
-5 2 -14 -2 -21 -10 -7 -8 -17 -15 -23 -15 -6 0 -22 -14 -36 -31 -17 -20 -37
-32 -57 -33 -40 -4 -57 -15 -73 -51 -23 -50 -16 -179 10 -196 9 -5 3 -17 -20
-39 -25 -25 -31 -40 -29 -64 2 -18 -3 -38 -12 -46 -8 -9 -28 -32 -44 -53 -16
-20 -35 -37 -42 -37 -20 0 -50 -36 -62 -76 -13 -44 -8 -60 24 -68 25 -7 31
-32 15 -64 -5 -9 -17 -37 -27 -62 -10 -25 -24 -50 -31 -56 -7 -6 -13 -16 -13
-21 0 -6 -6 -16 -14 -22 -18 -15 -73 -130 -92 -192 -8 -26 -21 -63 -29 -83
l-15 -35 -36 24 c-24 16 -44 23 -59 19 -15 -4 -24 0 -28 10 -7 18 -43 21 -81
6 -22 -8 -27 -6 -43 20 -9 17 -24 30 -31 30 -15 0 -15 -7 7 -134 7 -41 7 -73
0 -105 -6 -25 -12 -70 -14 -100 -4 -63 -22 -111 -41 -111 -8 0 -14 5 -14 10 0
6 -9 10 -20 10 -16 0 -20 -7 -20 -34 0 -18 -5 -47 -11 -64 -10 -29 -6 -71 18
-184 3 -15 2 -39 -1 -53 -5 -20 -11 -25 -26 -20 -16 5 -20 2 -20 -14 0 -12 -4
-21 -10 -21 -5 0 -10 -12 -10 -26 0 -16 -4 -23 -11 -18 -6 3 -15 0 -20 -7 -7
-11 -9 -11 -9 3 0 9 -14 28 -32 43 -31 27 -47 22 -48 -14 0 -8 -7 -19 -17 -26
-14 -10 -16 -30 -14 -131 1 -65 3 -130 4 -144 3 -32 -16 -39 -24 -8 -4 17 -11
22 -27 20 -16 -2 -22 2 -22 17 0 32 -19 34 -55 6 -42 -32 -45 -64 -14 -170 11
-38 24 -85 29 -103 4 -18 20 -42 34 -53 14 -11 26 -29 26 -40 0 -10 4 -19 9
-19 5 0 21 -25 36 -55 28 -60 39 -70 29 -27 l-6 27 15 -25 c7 -14 10 -29 6
-35 -4 -5 2 -21 13 -35 18 -23 21 -23 33 -7 17 23 25 21 25 -6 0 -22 45 -127
55 -127 2 0 2 14 -2 32 -8 41 13 30 22 -12 4 -17 11 -30 16 -30 5 0 2 16 -6
36 -21 51 -19 65 8 60 12 -2 28 1 35 6 8 8 12 6 12 -6 0 -9 4 -16 9 -16 5 0 9
-15 9 -34 0 -18 5 -43 11 -54 14 -26 14 -35 0 -26 -7 4 -10 1 -7 -7 4 -10 19
-13 57 -11 31 2 51 -1 51 -7 0 -23 2 -27 22 -48 17 -18 18 -23 6 -23 -8 0 -18
3 -22 7 -10 10 -37 13 -31 3 3 -5 1 -11 -5 -15 -16 -10 -12 -23 9 -30 10 -3
22 -16 25 -30 3 -13 13 -31 22 -39 13 -13 13 -16 1 -16 -20 0 -48 35 -42 51 3
9 -1 15 -12 16 -10 1 -28 4 -40 8 -33 11 -30 -26 7 -87 16 -26 30 -55 30 -62
0 -8 15 -25 33 -37 17 -13 38 -29 45 -36 7 -7 17 -13 22 -13 14 0 22 37 15 73
-4 22 -3 37 5 42 19 12 23 -2 21 -64 -1 -56 0 -61 25 -73 15 -7 30 -19 32 -27
3 -8 0 -11 -7 -7 -19 12 -12 -9 9 -27 11 -9 20 -29 20 -45 0 -15 11 -44 25
-64 29 -43 30 -48 10 -48 -21 0 -19 -17 3 -22 21 -6 49 -87 34 -97 -11 -6 5
-83 22 -110 15 -23 13 -173 -3 -188 -7 -8 -11 -23 -8 -33 3 -12 0 -20 -6 -20
-7 0 -13 -20 -15 -48 -1 -26 -9 -52 -16 -57 -8 -6 -14 -22 -14 -35 -1 -45 -24
-130 -37 -130 -6 0 -12 -6 -13 -12 0 -7 -7 -53 -15 -103 -15 -96 -9 -129 20
-118 25 10 94 84 106 114 3 9 6 6 6 -7 1 -12 -16 -39 -39 -63 -34 -35 -39 -45
-33 -71 l6 -31 15 30 c18 39 32 39 57 1 22 -33 34 -37 54 -17 11 10 11 8 2
-10 -10 -20 -9 -23 9 -23 11 0 20 5 20 10 0 6 4 10 10 10 5 0 7 -6 4 -14 -3
-9 3 -17 16 -21 29 -9 56 17 64 61 9 48 23 43 22 -8 -1 -33 3 -43 17 -46 12
-2 17 3 17 18 0 12 4 19 10 15 5 -3 16 7 24 22 8 15 15 23 16 17 0 -5 -7 -19
-15 -30 -8 -10 -15 -31 -15 -46 0 -24 4 -28 30 -28 22 0 41 12 80 53 27 28 50
57 50 64 0 40 47 83 90 83 9 0 25 9 35 20 10 11 42 31 72 44 l53 25 -21 35
c-11 20 -18 41 -16 48 4 9 6 7 6 -3 2 -28 49 -52 87 -45 41 8 106 69 123 116
8 19 20 50 28 68 12 27 12 39 2 67 -11 28 -10 39 2 61 11 21 11 28 2 31 -7 3
-13 11 -13 18 0 24 77 -60 84 -92 4 -17 14 -34 22 -37 9 -4 14 -20 14 -51 0
-25 5 -45 10 -45 6 0 10 -7 10 -15 0 -8 9 -32 20 -52 11 -21 20 -46 20 -55 0
-11 8 -18 20 -18 15 0 20 -7 21 -27 1 -16 2 -36 3 -47 1 -10 9 -24 19 -30 15
-9 21 -7 34 9 14 19 14 17 8 -25 -4 -24 -12 -52 -18 -62 -9 -14 -6 -23 18 -48
25 -26 30 -42 40 -127 7 -57 8 -105 4 -115 -13 -25 -11 -54 6 -68 10 -9 14
-28 11 -73 -3 -62 10 -137 24 -137 4 0 10 -10 13 -22 19 -86 42 -157 60 -182
17 -24 19 -33 9 -58 -7 -19 -8 -38 -2 -53 5 -13 8 -43 7 -66 -1 -25 3 -44 10
-46 8 -3 10 -15 6 -34 -3 -17 -1 -29 5 -29 13 0 25 46 17 69 -3 9 2 26 11 37
15 18 15 18 9 -8 -3 -16 -2 -28 3 -28 21 0 90 -156 91 -207 1 -13 6 -22 13
-20 7 1 15 -17 19 -46 4 -27 12 -62 18 -79 6 -17 8 -35 5 -40 -4 -6 -1 -13 5
-17 8 -6 8 -16 -1 -41 -9 -27 -9 -35 1 -38 8 -3 5 -9 -9 -19 -17 -12 -19 -18
-9 -29 10 -12 9 -13 -5 -8 -10 4 -16 1 -16 -9 0 -8 6 -17 13 -20 8 -3 6 -9 -7
-19 -22 -17 -14 -38 15 -38 16 0 18 -5 13 -25 -4 -18 -1 -27 10 -31 9 -3 16
-15 16 -25 0 -16 -3 -18 -19 -9 -11 5 -29 10 -40 10 -11 0 -22 9 -26 20 -8 26
-25 26 -19 0 2 -11 6 -30 9 -41 6 -30 12 -34 30 -19 13 11 14 10 9 -4 -4 -12
-2 -15 9 -10 17 6 32 -12 17 -21 -17 -11 -11 -44 10 -55 16 -8 20 -8 20 4 0
20 19 31 33 17 8 -8 7 -14 -5 -23 -19 -15 -26 -56 -15 -76 5 -7 2 -18 -7 -27
-13 -13 -13 -19 0 -44 16 -31 7 -74 -18 -85 -10 -5 -10 -7 0 -12 6 -3 12 -12
12 -20 0 -12 -4 -12 -20 -4 -26 14 -26 2 2 -21 11 -11 19 -20 17 -22 -2 -1
-13 -7 -23 -13 -11 -5 -20 -20 -21 -33 -2 -23 -20 -41 -42 -41 -16 0 -16 0 2
-85 9 -43 11 -83 6 -105 -7 -35 4 -120 17 -120 8 0 62 100 62 114 0 4 11 30
25 57 20 41 22 54 13 79 -13 38 6 71 51 90 22 9 31 19 31 36 0 13 4 24 10 24
15 0 78 67 85 92 4 13 11 28 15 33 20 27 70 126 70 138 0 8 8 17 18 19 10 3
26 22 36 42 16 34 16 39 2 55 -8 9 -15 25 -16 36 -3 78 -5 85 -23 85 -10 0
-16 3 -13 8 2 4 -2 32 -10 62 -8 30 -14 67 -14 83 0 20 -10 39 -33 61 -33 31
-72 108 -60 120 3 3 -1 14 -10 24 -20 22 -16 76 5 80 12 2 15 15 13 55 -4 87
-17 177 -26 183 -5 3 -9 16 -9 30 0 14 -6 27 -14 30 -8 3 -22 23 -30 45 -9 21
-21 39 -27 39 -7 0 -27 16 -46 35 -19 19 -37 35 -42 35 -13 0 -47 43 -62 78
-8 17 -17 32 -21 32 -5 0 -8 7 -8 15 0 7 -6 18 -13 22 -45 28 -75 103 -82 208
-2 37 34 70 66 60 14 -5 19 -3 15 3 -3 6 1 17 10 26 11 12 20 13 35 6 18 -10
19 -6 17 82 -1 51 1 113 4 138 3 25 1 51 -5 58 -7 9 -4 12 11 12 11 0 23 7 26
16 4 11 13 14 31 10 20 -5 26 -1 39 26 27 60 29 92 6 106 -16 10 -20 10 -20
-1 0 -8 -11 -24 -24 -37 l-25 -23 -6 29 c-4 16 -13 43 -21 61 -8 17 -14 36
-14 42 0 6 -4 11 -8 11 -14 0 -35 54 -23 58 31 10 -12 122 -48 122 -9 0 -25
16 -35 34 -10 19 -29 45 -42 57 -13 12 -24 28 -24 36 0 7 -4 13 -10 13 -5 0
-10 7 -10 16 0 8 -20 34 -45 56 -35 32 -95 116 -95 134 0 1 7 9 15 17 13 14
13 20 0 54 -9 21 -20 46 -25 55 -5 10 -7 24 -4 33 8 20 -25 33 -37 14 -7 -11
-11 -10 -23 6 -9 11 -16 27 -16 35 0 9 -7 26 -16 38 -19 28 -8 45 11 19 10
-15 21 -17 44 -12 17 4 31 11 31 16 0 5 14 9 31 9 l32 0 -7 62 c-4 35 -12 68
-17 75 -10 11 0 38 29 74 9 12 12 36 8 82 -5 50 -3 67 9 77 8 7 15 21 15 31 0
10 14 26 30 36 23 13 30 24 30 49 l0 32 31 -15 c17 -8 33 -21 35 -28 6 -14
132 -9 148 6 6 5 20 9 32 9 12 0 27 7 34 15 12 14 15 14 31 -1 16 -14 19 -14
37 4 12 12 20 33 20 55 0 19 3 44 6 55 9 27 51 37 77 18 24 -16 69 -7 95 19
13 13 14 21 6 38 -24 51 -23 57 6 46 35 -14 93 -2 110 22 17 25 37 24 65 -2
l22 -20 12 28 c7 15 12 39 13 52 1 60 66 127 116 120 25 -4 64 10 64 22 0 5
-11 9 -24 9 -19 0 -22 4 -18 25 2 14 12 30 22 35 18 9 33 43 45 93 4 19 11 27
19 24 15 -6 113 54 134 81 15 20 15 56 0 85 -7 12 -13 23 -13 24 -3 11 -99
-51 -124 -79 -38 -44 -97 -62 -113 -34 -9 16 -48 23 -48 8 0 -5 -11 -14 -24
-20 -21 -9 -27 -8 -41 14 -12 18 -13 29 -5 44 14 26 5 40 -26 40 -32 0 -50 42
-34 81 16 38 -1 68 -38 68 -28 -1 -48 3 -117 20 -24 6 -44 6 -50 1 -13 -11
-85 6 -85 19 0 5 7 22 15 37 8 16 15 36 15 44 0 8 8 20 19 27 23 14 32 67 18
104 -9 22 -8 32 5 46 9 10 18 27 20 38 2 14 10 19 26 17 23 -3 32 21 12 33 -5
3 -10 14 -10 24 0 23 -27 31 -102 31 -32 0 -58 4 -58 9 0 5 -16 12 -35 15 -30
6 -34 10 -26 25 6 10 8 31 6 47 -2 16 -4 35 -4 42 -1 6 -8 12 -16 12 -17 0
-21 36 -4 42 17 6 -11 77 -33 84 -10 3 -18 11 -18 19 0 7 -3 20 -6 28 -5 15
49 77 67 77 5 0 9 7 9 15 0 11 -7 14 -25 10 -14 -3 -37 -7 -51 -10 -14 -3 -41
-1 -60 5 -18 6 -39 8 -46 4 -6 -4 -35 -8 -64 -8 -42 -1 -61 -7 -98 -33 -26
-18 -50 -33 -55 -33 -5 0 -14 -7 -21 -15 -15 -18 -29 -19 -53 -1 -17 13 -16
16 17 52 20 22 36 47 36 56 0 9 3 23 6 32 4 11 1 16 -11 16 -11 0 -15 6 -10
19 9 29 -5 52 -29 49 -20 -3 -21 1 -17 61 3 68 24 100 65 101 13 0 16 5 11 18
-17 40 -16 64 5 107 22 46 34 55 43 33 3 -8 21 4 47 32 30 32 40 51 37 67 -2
13 0 23 4 23 5 0 9 9 9 20 0 17 3 18 27 9 34 -13 53 -5 53 21 0 11 5 20 10 20
6 0 10 6 10 13 0 7 7 23 16 35 13 18 19 21 30 11 11 -9 19 -8 34 6 17 16 18
20 6 34 -7 9 -21 30 -30 48 -16 32 -10 48 17 37 19 -7 30 22 16 48 -8 15 -7
28 6 54 22 48 25 304 3 304 -5 0 -8 25 -7 58 2 31 2 81 1 110 -2 48 -4 53 -22
47 -14 -5 -20 -2 -20 9 0 9 -6 16 -14 16 -8 0 -21 3 -29 6 -11 4 -16 -2 -19
-23 -3 -32 -38 -47 -38 -16 0 10 -9 42 -20 71 -11 29 -18 57 -15 62 3 5 1 11
-5 15 -5 3 -10 24 -10 46 0 37 -17 69 -37 69 -4 0 -15 15 -24 33 -13 25 -22
32 -42 30 -21 -1 -28 5 -37 33 -8 23 -17 34 -26 30 -7 -3 -16 -1 -19 4 -11 18
-21 11 -38 -25z m-1795 -3280 c3 -13 1 -22 -3 -19 -9 5 -13 44 -5 44 2 0 6
-11 8 -25z m91 -110 c-3 -9 -8 -14 -10 -11 -3 3 -2 9 2 15 9 16 15 13 8 -4z
m196 -202 c0 -25 -1 -26 -9 -8 -12 27 -12 35 0 35 6 0 10 -12 9 -27z m22 4
c-10 -9 -11 -8 -5 6 3 10 9 15 12 12 3 -3 0 -11 -7 -18z m376 -1434 c-3 -10
-5 -4 -5 12 0 17 2 24 5 18 2 -7 2 -21 0 -30z m1080 31 c-3 -3 -12 -4 -19 -1
-8 3 -5 6 6 6 11 1 17 -2 13 -5z m38 -4 c-3 -5 -11 -10 -16 -10 -6 0 -7 5 -4
10 3 6 11 10 16 10 6 0 7 -4 4 -10z m-18 -62 c-3 -8 -6 -5 -6 6 -1 11 2 17 5
13 3 -3 4 -12 1 -19z m-947 -108 c-6 -11 -13 -20 -16 -20 -2 0 0 9 6 20 6 11
13 20 16 20 2 0 0 -9 -6 -20z m-81 -23 c-2 -1 -15 -11 -29 -22 l-25 -20 19 23
c11 12 24 22 29 22 6 0 8 -1 6 -3z m1161 -547 c0 -5 -4 -10 -10 -10 -5 0 -10
5 -10 10 0 6 5 10 10 10 6 0 10 -4 10 -10z m105 -360 c3 -5 1 -10 -4 -10 -6 0
-11 5 -11 10 0 6 2 10 4 10 3 0 8 -4 11 -10z"/>
<path d="M361 4549 c-1 -9 8 -36 20 -60 15 -33 19 -36 14 -15 -9 41 -33 94
-34 75z"/>
<path d="M578 4043 c-25 -6 -22 -23 12 -62 37 -43 60 -37 60 18 0 32 -4 40
-22 45 -13 3 -25 5 -28 5 -3 -1 -13 -3 -22 -6z"/>
<path d="M725 4010 c-3 -5 -1 -10 4 -10 6 0 11 5 11 10 0 6 -2 10 -4 10 -3 0
-8 -4 -11 -10z"/>
<path d="M2102 2620 c0 -14 2 -19 5 -12 2 6 2 18 0 25 -3 6 -5 1 -5 -13z"/>
<path d="M461 2044 c0 -11 3 -14 6 -6 3 7 2 16 -1 19 -3 4 -6 -2 -5 -13z"/>
<path d="M2150 2039 c0 -5 5 -7 10 -4 6 3 10 8 10 11 0 2 -4 4 -10 4 -5 0 -10
-5 -10 -11z"/>
<path d="M2201 1904 c0 -11 3 -14 6 -6 3 7 2 16 -1 19 -3 4 -6 -2 -5 -13z"/>
<path d="M2320 1628 c0 -13 6 -43 14 -68 l13 -45 5 38 c2 20 0 37 -4 37 -4 0
-8 11 -8 24 0 14 -4 28 -10 31 -6 3 -10 -4 -10 -17z"/>
<path d="M2348 1415 c-11 -11 5 -140 19 -154 12 -12 14 -12 12 0 -1 8 3 27 10
44 10 23 14 26 21 15 6 -9 6 -16 0 -18 -6 -2 -10 -11 -10 -19 0 -13 3 -13 15
-3 17 14 21 70 5 70 -5 0 -10 10 -10 21 0 17 -3 19 -14 10 -12 -10 -15 -8 -18
10 -3 22 -19 35 -30 24z"/>
<path d="M2160 1380 c0 -5 5 -10 10 -10 6 0 10 5 10 10 0 6 -4 10 -10 10 -5 0
-10 -4 -10 -10z"/>
<path d="M2315 1361 c-6 -11 9 -23 19 -14 9 9 7 23 -3 23 -6 0 -12 -4 -16 -9z"/>
<path d="M2210 1295 c-5 -6 -3 -17 5 -28 11 -15 14 -16 25 -2 7 9 21 13 31 10
22 -7 25 1 7 19 -16 15 -56 16 -68 1z"/>
<path d="M2247 1253 c-13 -12 -7 -32 11 -42 16 -9 19 -6 19 20 0 27 -15 38
-30 22z"/>
<path d="M2376 1213 c-6 -14 -5 -15 5 -6 7 7 10 15 7 18 -3 3 -9 -2 -12 -12z"/>
<path d="M2318 1124 c-4 -3 -2 -18 3 -33 11 -29 3 -107 -12 -116 -5 -4 -9 -17
-9 -30 0 -13 -6 -26 -12 -28 -7 -2 0 -3 16 -1 16 2 31 6 34 8 2 2 4 40 4 83 1
75 -11 131 -24 117z"/>
<path d="M2092 1080 c0 -14 2 -19 5 -12 2 6 2 18 0 25 -3 6 -5 1 -5 -13z"/>
<path d="M2233 1047 c0 -20 6 -42 13 -48 11 -9 13 -3 11 29 -1 22 -5 38 -9 36
-3 -2 -9 2 -11 8 -3 7 -5 -4 -4 -25z"/>
<path d="M2018 1053 c6 -2 18 -2 25 0 6 3 1 5 -13 5 -14 0 -19 -2 -12 -5z"/>
<path d="M2388 1053 c-21 -5 -23 -29 -6 -65 12 -26 41 -42 52 -30 3 3 6 27 6
54 0 50 -5 54 -52 41z"/>
<path d="M2222 900 c0 -14 2 -19 5 -12 2 6 2 18 0 25 -3 6 -5 1 -5 -13z"/>
<path d="M2421 904 c0 -11 3 -14 6 -6 3 7 2 16 -1 19 -3 4 -6 -2 -5 -13z"/>
<path d="M2270 890 c0 -5 5 -10 10 -10 6 0 10 5 10 10 0 6 -4 10 -10 10 -5 0
-10 -4 -10 -10z"/>
<path d="M2323 878 c3 -9 2 -18 -3 -20 -12 -4 -1 -48 11 -48 11 0 5 67 -6 78
-5 4 -5 -1 -2 -10z"/>
<path d="M2407 731 c-16 -17 -16 -19 -2 -25 28 -10 35 -7 35 19 0 29 -8 31
-33 6z"/>
<path d="M2272 700 c-16 -25 -15 -31 2 -24 22 8 49 -26 43 -56 -8 -36 8 -61
17 -27 7 28 -22 118 -39 124 -6 2 -16 -6 -23 -17z"/>
<path d="M2185 679 c-4 -6 -5 -13 -2 -16 7 -7 27 6 27 18 0 12 -17 12 -25 -2z"/>
<path d="M2220 666 c0 -2 9 -6 20 -9 11 -3 18 -1 14 4 -5 9 -34 13 -34 5z"/>
<path d="M2417 650 c3 -11 9 -20 14 -20 5 0 9 9 9 20 0 11 -6 20 -14 20 -9 0
-12 -7 -9 -20z"/>
<path d="M2210 540 c-13 -9 -13 -10 0 -10 8 0 22 5 30 10 13 9 13 10 0 10 -8
0 -22 -5 -30 -10z"/>
<path d="M2300 515 c0 -8 2 -15 4 -15 2 0 6 7 10 15 3 8 1 15 -4 15 -6 0 -10
-7 -10 -15z"/>
<path d="M2180 491 c0 -11 4 -21 9 -21 18 0 21 18 6 30 -13 10 -15 9 -15 -9z"/>
<path d="M2291 345 c2 -19 -2 -40 -9 -47 -6 -6 -12 -23 -12 -35 0 -23 1 -23
36 11 34 33 39 64 8 52 -17 -6 -17 -5 -4 28 8 21 7 26 -6 26 -12 0 -15 -9 -13
-35z"/>
<path d="M2330 350 c0 -5 5 -10 10 -10 6 0 10 5 10 10 0 6 -4 10 -10 10 -5 0
-10 -4 -10 -10z"/>
<path d="M2230 224 c0 -8 5 -12 10 -9 6 4 8 11 5 16 -9 14 -15 11 -15 -7z"/>
</g>
</svg>
