<?xml version="1.0" standalone="no"?>
<!DOCTYPE svg PUBLIC "-//W3C//DTD SVG 20010904//EN"
 "http://www.w3.org/TR/2001/REC-SVG-20010904/DTD/svg10.dtd">
<svg version="1.0" xmlns="http://www.w3.org/2000/svg"
 width="1024.000000pt" height="1024.000000pt" viewBox="0 0 1024.000000 1024.000000"
 preserveAspectRatio="xMidYMid meet">
<metadata>
Created by potrace 1.16, written by Peter Selinger 2001-2019
</metadata>
<g transform="translate(0.000000,1024.000000) scale(0.100000,-0.100000)"
fill="#000000" stroke="none">
<path d="M1294 9531 c-23 -10 -84 -56 -135 -101 -52 -46 -108 -89 -126 -97
-19 -8 -70 -13 -128 -13 -76 0 -110 5 -171 26 -108 37 -174 32 -251 -22 -31
-21 -77 -63 -101 -93 l-45 -55 9 -90 c4 -50 8 -152 8 -226 1 -131 2 -137 30
-185 16 -27 59 -79 95 -115 36 -36 85 -97 108 -135 23 -39 70 -99 105 -135 35
-36 80 -93 100 -126 21 -34 72 -101 114 -150 96 -111 148 -190 170 -257 22
-71 43 -106 229 -387 89 -135 169 -259 178 -276 9 -17 20 -67 26 -110 8 -62
19 -97 54 -164 24 -47 47 -106 51 -131 8 -53 54 -130 98 -162 55 -41 140 -206
180 -352 25 -91 96 -184 222 -294 81 -69 97 -88 106 -124 22 -85 42 -124 126
-242 48 -66 93 -134 100 -152 23 -53 17 -124 -17 -210 l-31 -78 2 -220 c2
-121 -1 -274 -5 -340 -9 -142 8 -253 55 -345 16 -31 38 -95 50 -141 20 -79 56
-159 70 -159 16 0 93 -76 109 -109 31 -61 32 -92 5 -177 -30 -95 -47 -256 -42
-380 3 -77 9 -101 35 -155 17 -35 39 -95 49 -134 10 -38 39 -113 66 -167 41
-82 47 -100 38 -123 -18 -46 -11 -86 25 -151 25 -45 35 -75 35 -106 0 -46 17
-85 82 -190 29 -47 36 -69 41 -131 6 -83 33 -146 92 -217 47 -56 57 -77 89
-181 31 -104 59 -143 167 -240 154 -137 291 -274 329 -330 46 -67 87 -89 165
-89 107 0 225 82 241 167 4 21 11 47 17 58 15 29 99 125 110 125 14 0 167
-122 178 -142 7 -13 4 -28 -11 -57 -24 -47 -25 -82 -6 -119 13 -25 160 -166
195 -186 8 -5 45 -12 81 -16 36 -4 91 -17 122 -29 42 -15 80 -21 142 -21 106
0 306 26 353 45 20 8 41 15 48 15 7 0 55 -28 106 -61 52 -34 109 -66 126 -71
66 -18 124 36 149 135 4 18 21 37 48 54 22 14 73 58 111 98 75 78 110 95 195
95 54 0 111 15 122 32 4 7 8 1074 8 2371 l0 2357 354 0 c313 0 355 2 360 16 3
9 6 603 6 1321 l0 1305 53 -9 c28 -4 95 -7 147 -7 80 1 112 7 205 37 77 25
150 41 244 52 73 8 203 33 288 55 86 22 165 40 175 40 11 0 54 14 96 31 l77
31 145 -6 c97 -5 152 -11 166 -21 12 -8 33 -45 48 -86 65 -175 183 -269 266
-212 23 15 175 142 225 186 11 10 46 31 79 47 56 28 66 30 181 30 126 0 192
13 268 51 20 11 65 27 100 35 124 32 227 101 227 155 0 14 -12 44 -26 65 -70
104 -163 144 -384 165 -63 6 -151 20 -195 31 -61 16 -123 21 -265 25 -176 4
-190 3 -280 -22 -52 -14 -153 -35 -224 -46 -76 -12 -153 -30 -190 -46 -86 -36
-152 -53 -216 -53 -30 0 -104 -9 -165 -19 -60 -10 -139 -22 -175 -26 -36 -4
-126 -20 -200 -37 -79 -17 -188 -33 -265 -38 -71 -5 -144 -13 -160 -18 -21 -6
-47 -5 -85 5 -44 12 -99 14 -267 9 -211 -5 -212 -5 -240 18 -72 60 -69 60
-428 61 -293 0 -345 3 -465 23 -74 12 -166 27 -205 33 -107 15 -147 38 -200
111 -56 79 -153 148 -222 158 -50 8 -1270 -3 -2233 -19 -311 -5 -642 -6 -735
-3 l-170 7 -84 63 c-45 34 -97 69 -114 76 -18 8 -58 34 -89 59 -52 40 -65 46
-140 56 -46 7 -96 14 -113 16 -17 3 -48 -4 -71 -14z"/>
</g>
</svg>
