<?xml version="1.0" standalone="no"?>
<!DOCTYPE svg PUBLIC "-//W3C//DTD SVG 20010904//EN"
 "http://www.w3.org/TR/2001/REC-SVG-20010904/DTD/svg10.dtd">
<svg version="1.0" xmlns="http://www.w3.org/2000/svg"
 width="1024.000000pt" height="1024.000000pt" viewBox="0 0 1024.000000 1024.000000"
 preserveAspectRatio="xMidYMid meet">
<metadata>
Created by potrace 1.16, written by Peter Selinger 2001-2019
</metadata>
<g transform="translate(0.000000,1024.000000) scale(0.100000,-0.100000)"
fill="#000000" stroke="none">
<path d="M5395 9494 c-75 -8 -235 -45 -300 -70 -226 -84 -370 -191 -523 -384
-63 -80 -426 -452 -543 -556 -19 -17 -55 -56 -81 -86 -44 -52 -95 -100 -373
-352 -55 -50 -138 -127 -185 -171 -47 -45 -103 -96 -125 -115 -22 -18 -87 -77
-145 -131 -58 -54 -168 -148 -245 -210 -77 -62 -178 -147 -225 -189 -123 -111
-275 -231 -520 -408 -452 -327 -804 -611 -926 -747 -135 -150 -345 -473 -403
-617 -66 -166 -171 -505 -201 -650 -48 -229 -48 -312 -4 -728 29 -275 41 -351
95 -600 46 -216 49 -226 100 -346 22 -50 39 -107 39 -125 0 -96 148 -366 315
-574 77 -97 218 -239 290 -293 33 -24 103 -88 155 -142 94 -96 147 -132 235
-160 22 -7 69 -33 105 -57 140 -96 228 -152 304 -192 43 -23 93 -53 110 -66
17 -13 92 -52 166 -88 103 -49 218 -120 490 -303 488 -327 596 -394 634 -394
34 0 125 60 180 119 38 40 68 40 318 6 291 -40 584 -74 698 -81 96 -6 123 -3
320 36 364 70 501 109 684 194 154 72 543 293 706 401 85 57 178 115 205 131
28 15 103 63 169 107 151 101 207 127 272 127 62 0 107 15 159 53 22 16 90 52
150 81 274 130 564 362 651 518 42 76 39 166 -11 408 -44 210 -45 240 -33 745
8 341 7 340 156 790 220 663 252 743 347 870 29 39 67 97 86 130 35 64 225
267 315 336 28 22 99 95 157 162 58 67 150 165 204 217 113 109 165 174 221
280 129 240 121 445 -33 930 -25 80 -66 215 -91 300 -57 195 -90 252 -242 416
-64 69 -154 171 -200 227 -46 56 -111 129 -145 163 -34 33 -93 95 -130 137
-52 58 -91 91 -160 132 -51 29 -144 100 -207 156 -131 116 -176 148 -350 249
-342 199 -600 298 -855 329 -49 6 -234 11 -410 11 -339 0 -548 14 -785 50
-130 21 -481 35 -585 24z"/>
</g>
</svg>
