<?xml version="1.0" standalone="no"?>
<!DOCTYPE svg PUBLIC "-//W3C//DTD SVG 20010904//EN"
 "http://www.w3.org/TR/2001/REC-SVG-20010904/DTD/svg10.dtd">
<svg version="1.0" xmlns="http://www.w3.org/2000/svg"
 width="805.000000pt" height="439.000000pt" viewBox="0 0 805.000000 439.000000"
 preserveAspectRatio="xMidYMid meet">
<metadata>
Created by potrace 1.16, written by Peter Selinger 2001-2019
</metadata>
<g transform="translate(0.000000,439.000000) scale(0.100000,-0.100000)"
fill="#000000" stroke="none">
<path d="M1584 4106 c-3 -9 -11 -16 -18 -16 -19 0 -37 -16 -40 -36 -4 -25 -47
-22 -83 5 -14 12 -31 21 -38 21 -15 0 -28 -48 -29 -107 -1 -23 -4 -45 -8 -49
-5 -4 -8 -17 -8 -29 0 -27 -15 -41 -53 -50 -22 -6 -27 -13 -27 -36 0 -22 -6
-30 -25 -35 -19 -5 -24 -11 -20 -24 7 -23 -20 -34 -47 -19 -11 6 -34 8 -50 5
-22 -4 -30 -2 -34 12 -3 9 -22 50 -42 90 -27 53 -41 71 -52 66 -41 -16 -80
-16 -86 0 -3 9 -12 16 -18 16 -15 0 -42 -47 -33 -57 9 -8 -22 -43 -37 -43 -6
0 -42 -32 -79 -70 -46 -48 -76 -70 -92 -70 -40 0 -55 -11 -80 -59 -29 -58 -71
-97 -112 -104 -70 -13 -95 -76 -53 -130 25 -31 14 -71 -25 -89 -14 -6 -25 -18
-25 -25 0 -12 -32 -46 -98 -104 -11 -9 -11 -14 1 -27 8 -10 18 -32 22 -49 4
-19 13 -33 21 -33 17 0 18 -21 3 -73 -9 -32 -13 -37 -31 -31 -19 6 -21 3 -15
-30 6 -40 -3 -51 -47 -51 -16 0 -32 -7 -36 -15 -4 -8 -14 -29 -23 -46 -9 -17
-14 -39 -11 -51 4 -14 -4 -27 -31 -47 -34 -26 -36 -30 -33 -79 3 -51 4 -52 35
-55 19 -2 40 -13 50 -26 22 -28 55 -46 82 -46 11 0 22 -9 26 -20 3 -11 15 -20
26 -20 11 0 29 -16 45 -41 24 -39 28 -41 63 -35 33 5 41 2 65 -24 39 -45 58
-40 50 12 -6 33 -4 44 11 55 26 18 42 16 48 -6 3 -12 18 -22 38 -26 41 -9 69
-26 69 -41 0 -13 22 -24 48 -24 10 0 23 -9 29 -20 19 -29 69 -51 98 -44 22 5
25 3 25 -19 0 -29 23 -41 88 -45 12 -1 22 -8 22 -15 0 -8 33 -20 86 -31 89
-20 103 -30 119 -86 4 -14 26 -45 47 -68 28 -31 37 -47 30 -54 -8 -8 -7 -15 3
-24 20 -20 53 -17 60 6 3 11 12 20 20 20 21 0 75 -52 75 -73 0 -12 19 -27 58
-46 33 -15 72 -37 87 -49 15 -12 38 -22 51 -22 13 0 38 -13 56 -28 18 -16 61
-44 95 -63 l63 -33 35 34 c31 30 41 34 83 32 37 -1 51 -7 67 -27 12 -14 31
-25 45 -25 14 0 57 -24 99 -55 41 -30 80 -55 87 -55 8 0 31 -16 51 -36 l38
-36 79 7 c43 4 90 11 103 16 13 5 40 9 58 9 37 0 41 -8 60 -110 3 -19 11 -47
17 -62 11 -29 10 -29 128 -33 14 0 37 -9 52 -19 20 -13 54 -19 129 -23 88 -5
105 -9 127 -30 14 -12 29 -23 33 -23 5 0 11 -11 15 -24 8 -33 56 -40 91 -13
29 23 44 58 32 73 -5 6 -7 18 -4 25 4 12 28 14 115 12 109 -3 109 -3 226 -58
79 -37 121 -52 128 -45 6 6 3 17 -12 33 -12 13 -22 28 -22 33 0 5 44 11 97 12
97 4 98 4 128 38 35 39 47 42 75 14 11 -11 27 -20 35 -20 8 0 15 -7 15 -16 0
-12 6 -15 25 -10 20 5 27 1 40 -24 19 -36 46 -48 123 -54 92 -7 196 -28 214
-44 55 -47 71 -148 35 -219 -24 -45 -22 -48 26 -63 73 -22 107 -28 107 -19 0
16 31 10 57 -11 14 -11 43 -25 64 -30 32 -9 39 -15 39 -35 0 -20 7 -26 40 -35
22 -6 38 -15 35 -20 -14 -23 7 -29 45 -14 21 9 51 14 67 12 23 -2 28 -7 26
-28 -5 -57 4 -67 70 -85 59 -16 66 -16 95 -1 17 9 34 20 37 26 3 5 17 10 31
10 13 0 50 13 82 29 88 44 104 45 156 14 l46 -28 0 -65 c0 -36 4 -69 8 -75 16
-22 74 -56 88 -51 9 3 14 -1 14 -14 0 -11 4 -20 9 -20 14 0 101 51 101 59 0 4
18 13 41 20 35 11 44 10 67 -6 48 -32 75 -44 89 -39 8 3 22 0 33 -6 14 -9 25
-9 45 0 36 17 85 15 85 -2 0 -9 7 -12 20 -9 11 3 30 -2 43 -10 13 -8 47 -22
76 -31 28 -8 63 -24 78 -36 14 -11 31 -20 36 -20 6 0 39 -14 73 -32 55 -28 64
-31 79 -18 10 8 31 13 47 11 36 -3 88 17 88 34 0 18 45 45 74 45 15 0 37 13
55 32 33 36 32 37 50 -53 17 -80 44 -103 111 -95 40 5 52 3 56 -9 6 -15 58
-45 78 -45 6 0 18 13 28 29 11 20 29 33 55 40 54 15 64 14 117 -14 42 -22 52
-24 86 -15 22 6 42 15 45 20 4 6 23 7 45 4 33 -5 39 -3 45 15 6 18 12 21 35
16 16 -4 38 -1 49 5 23 12 61 -5 61 -27 0 -6 20 -22 43 -36 l44 -24 37 34 c39
36 59 74 50 97 -7 19 23 106 46 131 31 34 43 98 29 163 -13 63 -34 118 -49
127 -6 3 -10 14 -10 23 0 17 -63 82 -79 82 -5 0 -11 8 -15 18 -3 9 -11 24 -17
33 -7 9 -9 24 -5 35 5 11 9 35 10 54 1 20 12 56 24 81 19 39 20 49 10 77 -10
25 -10 37 -1 51 7 11 10 34 7 53 -6 35 25 111 51 126 7 4 23 36 35 72 12 35
25 71 29 80 5 8 11 32 14 52 5 35 4 37 -31 49 -20 6 -42 16 -49 21 -6 5 -54
11 -107 12 -54 2 -102 9 -110 15 -15 13 -12 15 -61 -45 -35 -44 -75 -59 -118
-45 -26 9 -41 9 -62 -1 -24 -11 -29 -10 -44 10 -16 22 -20 22 -66 12 -28 -7
-63 -16 -79 -21 -35 -10 -44 -5 -26 16 22 27 0 31 -42 6 -29 -16 -47 -21 -66
-15 -15 4 -50 8 -78 8 -43 1 -55 6 -82 33 -18 17 -32 35 -32 40 0 5 -14 19
-30 32 -27 19 -35 21 -64 11 -41 -13 -81 0 -91 29 -8 25 -38 43 -68 41 -58 -5
-67 -1 -67 29 0 23 -6 31 -31 41 -24 10 -36 11 -50 2 -23 -15 -59 -16 -59 -2
0 6 -9 10 -19 10 -20 0 -31 -18 -31 -51 0 -10 -4 -19 -10 -19 -5 0 -10 -18
-10 -40 0 -36 -3 -41 -40 -60 -43 -22 -84 -19 -94 7 -4 9 -13 13 -22 9 -9 -4
-28 4 -46 19 -16 14 -38 25 -48 25 -27 0 -50 11 -50 23 0 6 -7 19 -16 29 -13
13 -14 21 -5 31 13 17 4 77 -13 77 -6 0 -18 -8 -27 -18 -8 -9 -28 -27 -43 -38
-23 -16 -27 -26 -21 -40 4 -10 7 -29 6 -41 -1 -13 2 -23 7 -23 5 0 12 -14 16
-30 8 -42 -20 -68 -77 -71 -60 -3 -70 5 -62 51 6 35 4 40 -30 66 -24 18 -35
33 -32 45 3 10 -4 36 -15 59 -16 31 -31 45 -69 62 -63 26 -99 68 -99 114 0 19
-3 34 -7 34 -5 0 -25 -18 -46 -40 -42 -45 -44 -46 -66 -26 -9 7 -50 16 -92 19
-61 5 -79 4 -89 -8 -14 -16 -60 -21 -60 -6 0 5 -23 7 -52 4 -44 -4 -57 -2 -77
16 -17 15 -28 18 -35 11 -14 -14 -53 -13 -62 2 -13 21 -4 132 12 141 8 4 14
16 14 27 0 10 9 21 19 25 12 3 21 19 26 41 3 20 5 37 3 39 -10 9 -103 45 -115
45 -8 0 -24 -11 -35 -25 -11 -14 -26 -25 -33 -25 -8 0 -21 -10 -29 -22 -13
-18 -24 -21 -78 -19 -51 2 -68 7 -89 27 -16 15 -37 24 -58 24 -31 0 -32 2 -26
29 6 26 3 30 -24 36 -16 3 -32 13 -35 21 -3 8 -16 14 -28 14 -13 0 -36 7 -52
15 -15 8 -42 15 -58 15 -23 0 -32 6 -43 33 -19 45 -70 97 -96 97 -11 0 -43 10
-71 23 -48 21 -49 23 -45 57 3 19 9 47 12 63 6 23 4 27 -14 27 -15 0 -25 9
-32 29 -6 16 -17 32 -25 35 -18 7 -18 35 1 60 17 23 11 36 -16 36 -11 0 -23 8
-26 18 -9 24 -24 32 -51 25 -12 -3 -29 0 -37 7 -8 6 -18 9 -23 6 -6 -3 -15 1
-22 9 -16 19 -62 12 -132 -22 -27 -13 -58 -21 -68 -18 -30 10 -88 -20 -96 -49
-5 -22 -12 -26 -38 -25 -38 2 -96 26 -101 42 -2 7 -6 25 -10 41 -4 19 -15 32
-35 39 -16 6 -33 21 -39 34 -6 13 -17 26 -25 29 -8 3 -12 13 -9 24 3 12 -2 20
-16 25 -13 4 -21 15 -21 28 0 12 -7 30 -15 41 -12 15 -19 17 -44 8 -34 -12
-34 -12 -35 38 -1 25 -7 37 -23 45 -12 6 -30 22 -41 35 -16 19 -24 22 -55 16
-21 -4 -41 -15 -47 -27 -10 -19 -14 -17 -55 26 -30 30 -53 45 -70 45 -14 0
-34 5 -45 12 -16 10 -23 9 -40 -7 -21 -19 -22 -19 -38 1 -9 11 -29 26 -44 34
-16 7 -28 19 -28 26 0 7 -12 19 -27 26 -19 9 -29 22 -31 41 -3 22 -8 27 -31
27 -21 0 -40 12 -71 46 -29 32 -56 50 -89 60 -26 7 -56 23 -66 34 -10 11 -30
20 -45 20 -15 0 -33 7 -40 15 -7 8 -24 15 -39 15 -14 0 -39 9 -55 19 -22 15
-35 17 -53 10 -21 -8 -26 -5 -38 24 -11 27 -11 34 1 48 22 25 16 44 -18 60
-31 13 -33 17 -33 69 l0 55 -56 0 c-31 1 -63 6 -72 13 -8 7 -53 14 -100 16
-48 3 -91 7 -97 11 -5 3 -31 12 -57 20 -27 7 -58 16 -70 20 -16 5 -25 3 -29
-9z"/>
</g>
</svg>
