<?xml version="1.0" standalone="no"?>
<!DOCTYPE svg PUBLIC "-//W3C//DTD SVG 20010904//EN"
 "http://www.w3.org/TR/2001/REC-SVG-20010904/DTD/svg10.dtd">
<svg version="1.0" xmlns="http://www.w3.org/2000/svg"
 width="544.000000pt" height="508.000000pt" viewBox="0 0 544.000000 508.000000"
 preserveAspectRatio="xMidYMid meet">
<metadata>
Created by potrace 1.16, written by Peter Selinger 2001-2019
</metadata>
<g transform="translate(0.000000,508.000000) scale(0.100000,-0.100000)"
fill="#000000" stroke="none">
<path d="M4215 4861 c-8 -14 36 -41 67 -41 18 0 28 5 28 15 0 26 -81 48 -95
26z"/>
<path d="M3882 4775 c-54 -17 -72 -32 -72 -59 0 -41 18 -46 75 -20 29 14 86
31 127 40 101 20 103 21 88 39 -16 19 -157 19 -218 0z"/>
<path d="M3218 4724 c-40 -8 -54 -29 -38 -59 17 -32 67 -42 112 -22 18 9 77
17 133 20 131 7 200 31 148 52 -21 8 -317 15 -355 9z"/>
<path d="M4615 4703 c-175 -12 -464 -58 -523 -83 -16 -7 -30 -6 -45 2 -26 14
-123 13 -297 -3 -105 -10 -148 -19 -265 -59 -77 -27 -158 -56 -180 -66 -22 -9
-71 -25 -110 -36 -45 -12 -80 -28 -100 -47 -16 -16 -53 -40 -82 -55 -63 -31
-85 -61 -112 -151 -23 -79 -61 -125 -102 -125 -16 0 -50 -20 -90 -52 -119 -95
-231 -163 -294 -177 -33 -8 -75 -24 -95 -37 -25 -18 -48 -24 -85 -24 -67 0
-78 9 -73 56 l3 39 -52 3 c-45 3 -56 -1 -78 -22 -21 -21 -25 -35 -25 -79 0
-37 -8 -73 -25 -112 -35 -77 -70 -229 -95 -400 -24 -164 -48 -254 -96 -350
-19 -38 -34 -76 -34 -82 0 -15 -65 -110 -127 -186 -24 -29 -57 -72 -75 -96
-28 -38 -259 -280 -269 -282 -2 0 -40 -6 -84 -12 -93 -14 -100 -25 -61 -84 23
-35 25 -42 14 -71 -11 -29 -10 -34 17 -62 16 -16 26 -32 23 -36 -3 -3 -24 -1
-46 5 -46 13 -87 6 -159 -26 -43 -18 -53 -27 -53 -47 0 -14 4 -28 10 -31 5 -3
47 -1 92 5 75 11 83 10 107 -8 14 -10 30 -32 35 -48 20 -67 25 -73 68 -84 73
-19 75 -20 58 -30 -21 -13 -87 -12 -113 1 -12 7 -41 29 -64 50 -45 41 -59 45
-199 54 -90 5 -186 -7 -211 -27 -14 -11 -17 -65 -7 -92 8 -22 101 -22 132 0
30 21 70 6 128 -46 69 -63 147 -74 243 -34 38 16 61 12 61 -9 0 -10 -18 -16
-57 -20 -65 -5 -113 -24 -113 -42 0 -7 28 -31 63 -54 46 -29 74 -41 103 -42
21 0 82 -15 134 -32 l95 -32 0 -35 0 -35 -110 0 -110 0 -17 36 c-35 74 -133
129 -230 129 -36 0 -52 14 -26 22 20 7 0 52 -31 71 -35 21 -92 21 -287 3 -108
-10 -150 -18 -176 -33 -19 -11 -51 -26 -72 -33 -21 -7 -42 -22 -48 -35 -9 -20
-4 -29 43 -77 30 -30 61 -65 70 -79 16 -23 21 -24 130 -25 122 0 157 -11 237
-71 28 -21 41 -24 75 -20 34 5 50 15 82 51 58 65 80 67 167 15 73 -44 73 -44
164 -43 l92 1 9 -31 c7 -25 15 -32 38 -34 17 -2 44 -10 62 -18 17 -7 51 -14
75 -14 70 0 86 29 45 84 -50 67 -41 88 48 111 94 24 110 19 83 -25 -21 -33 7
-49 90 -55 l72 -5 74 65 c99 86 156 89 156 8 0 -31 -2 -33 -35 -33 -22 0 -35
-5 -35 -13 0 -25 25 -37 79 -37 31 -1 67 -7 81 -15 14 -8 35 -14 46 -15 26 0
102 73 110 107 8 30 33 43 62 32 32 -12 43 -47 26 -81 -20 -39 -18 -48 26
-102 22 -26 40 -54 40 -61 0 -19 14 -26 67 -33 42 -6 48 -10 55 -39 5 -18 17
-37 27 -42 31 -17 239 -2 290 20 70 31 86 26 111 -29 20 -44 29 -52 99 -85 55
-27 90 -37 125 -37 33 0 56 -6 73 -20 16 -12 41 -20 65 -20 38 0 40 -1 34 -26
-4 -15 -2 -32 5 -40 9 -11 7 -14 -10 -14 -18 0 -21 -5 -19 -27 2 -22 -2 -29
-19 -31 -22 -3 -37 -39 -27 -66 3 -8 -6 -32 -20 -53 -30 -44 -31 -52 -10 -67
14 -10 13 -15 -6 -39 -12 -15 -46 -43 -76 -62 -82 -52 -87 -122 -11 -158 30
-15 37 -24 37 -47 0 -40 34 -59 61 -34 17 15 25 16 52 6 18 -6 96 -15 175 -18
124 -6 142 -5 142 8 0 9 -7 21 -15 28 -20 17 -19 26 5 50 11 11 20 31 20 45 0
20 5 25 24 25 32 0 36 8 40 74 l3 54 -37 6 c-48 8 -64 25 -51 59 6 15 7 28 3
31 -20 12 -121 17 -141 7 -18 -10 -22 -9 -27 6 -3 10 -12 31 -21 46 -8 15 -12
35 -9 43 6 16 46 20 46 4 0 -6 11 -15 24 -21 32 -15 57 0 71 41 9 26 28 40
115 87 123 65 138 76 122 96 -8 10 -8 17 -1 24 14 14 3 33 -18 33 -8 0 -27 -7
-43 -16 -61 -37 -79 17 -35 100 38 72 72 112 110 130 19 9 36 24 38 34 3 9 5
67 5 129 0 106 -2 115 -29 157 -15 25 -50 61 -78 81 -27 19 -52 42 -55 51 -9
25 -7 62 5 69 23 15 1 40 -51 60 -52 20 -55 23 -55 55 0 37 -28 60 -72 60 -24
0 -31 14 -13 25 15 9 12 57 -5 79 -22 29 -19 33 26 40 23 4 55 14 72 23 22 11
47 14 89 10 68 -6 81 5 44 39 -28 26 -34 44 -14 44 6 0 36 -14 66 -31 37 -21
64 -29 83 -27 19 3 35 -2 46 -14 9 -10 29 -18 44 -18 18 0 32 -7 39 -20 19
-36 80 -20 80 21 0 14 8 16 43 12 35 -4 60 2 128 32 65 29 103 39 169 44 99 9
116 16 164 73 60 69 48 97 -59 138 -33 13 -66 29 -74 36 -12 11 -10 15 12 23
15 6 27 14 27 19 0 24 51 62 82 62 54 0 71 9 100 51 19 27 35 39 52 39 28 0
72 33 81 60 4 11 25 30 47 41 33 17 39 24 33 42 -17 53 -16 75 4 113 12 21 21
50 21 64 -1 35 -32 100 -70 143 -33 38 -57 46 -78 25 -17 -17 -102 -14 -139 5
-19 10 -55 17 -91 17 -70 0 -91 17 -99 79 -5 38 -4 41 31 57 43 21 44 26 12
44 -32 16 -38 34 -24 64 17 39 58 50 146 41 42 -4 104 -9 137 -11 33 -1 74 -6
91 -9 30 -7 33 -5 44 29 6 21 13 93 15 162 4 115 6 129 30 167 14 23 51 83 81
132 l55 90 -3 110 c-3 84 -8 116 -21 136 -17 25 -17 28 3 74 16 37 19 57 12
93 l-7 47 -73 14 -72 14 0 37 0 37 -53 6 c-127 15 -182 53 -222 153 -13 33
-34 66 -47 76 -24 17 -87 26 -153 21z"/>
<path d="M3010 4683 c-14 -2 -56 -15 -95 -28 -38 -14 -108 -29 -155 -33 -48
-5 -108 -19 -138 -32 -47 -20 -53 -26 -50 -49 3 -25 6 -26 58 -24 31 1 76 9
100 18 80 30 174 54 208 55 22 0 39 8 54 25 16 19 31 25 63 25 42 0 65 13 65
37 0 13 -52 16 -110 6z"/>
<path d="M2410 4457 c-107 -58 -210 -135 -210 -159 0 -4 9 -12 21 -18 16 -9
28 -7 62 13 23 14 52 37 64 51 28 31 114 76 148 76 30 0 34 25 6 40 -27 14
-61 13 -91 -3z"/>
<path d="M2142 4200 c-17 -28 -47 -60 -67 -71 -44 -26 -90 -109 -80 -146 9
-38 50 -73 84 -73 20 0 37 10 58 33 16 18 46 46 66 61 21 16 47 47 58 68 l19
38 -23 68 c-21 61 -25 67 -53 70 -27 3 -34 -3 -62 -48z"/>
<path d="M490 1294 c-19 -8 -75 -26 -125 -39 l-90 -23 4 -78 c4 -88 10 -109
40 -141 15 -16 33 -23 60 -23 21 0 53 -3 70 -6 28 -6 32 -4 46 29 20 49 40 57
137 56 90 0 186 -24 198 -49 39 -85 44 -88 150 -88 71 -1 77 1 241 73 141 63
208 118 216 182 7 51 -12 64 -61 44 -55 -23 -76 -24 -117 -6 -21 10 -39 21
-39 24 0 13 -58 41 -84 41 -19 0 -27 -6 -32 -24 -4 -16 -22 -31 -57 -47 -42
-20 -66 -24 -136 -23 -75 1 -94 5 -151 32 -36 18 -75 32 -87 32 -11 0 -45 11
-75 25 -62 29 -62 29 -108 9z"/>
</g>
</svg>
