<?xml version="1.0" standalone="no"?>
<!DOCTYPE svg PUBLIC "-//W3C//DTD SVG 20010904//EN"
 "http://www.w3.org/TR/2001/REC-SVG-20010904/DTD/svg10.dtd">
<svg version="1.0" xmlns="http://www.w3.org/2000/svg"
 width="568.000000pt" height="715.000000pt" viewBox="0 0 568.000000 715.000000"
 preserveAspectRatio="xMidYMid meet">
<metadata>
Created by potrace 1.16, written by Peter Selinger 2001-2019
</metadata>
<g transform="translate(0.000000,715.000000) scale(0.100000,-0.100000)"
fill="#000000" stroke="none">
<path d="M3153 6889 c-5 -5 -49 -11 -97 -12 -106 -2 -118 -17 -58 -72 57 -51
192 -254 192 -287 0 -23 -4 -28 -25 -28 -14 0 -25 -5 -25 -11 0 -12 52 -92
157 -241 185 -266 226 -329 242 -379 14 -41 23 -55 39 -57 14 -2 22 -11 22
-23 0 -11 13 -39 29 -62 43 -64 67 -117 75 -167 4 -25 18 -63 30 -85 38 -64
70 -152 101 -271 26 -102 27 -113 13 -128 -13 -12 -15 -29 -11 -76 6 -58 5
-60 -21 -70 -25 -9 -27 -13 -21 -53 5 -34 3 -47 -15 -69 -15 -20 -24 -52 -31
-120 -12 -106 -33 -151 -84 -187 -26 -18 -43 -22 -66 -17 -23 4 -46 -1 -83
-18 -28 -14 -65 -30 -82 -36 -47 -17 -85 -62 -91 -106 -9 -72 66 -143 184
-174 31 -8 52 -23 79 -56 43 -52 131 -101 183 -102 71 -2 161 -129 161 -228 0
-61 -32 -171 -60 -207 -11 -14 -20 -32 -20 -39 0 -8 -11 -25 -24 -37 -13 -13
-27 -34 -30 -47 -4 -13 -15 -28 -26 -34 -11 -6 -20 -17 -20 -25 0 -7 -9 -17
-20 -20 -11 -3 -20 -11 -20 -16 0 -6 -14 -23 -31 -39 -26 -23 -30 -33 -25 -55
7 -26 45 -49 69 -39 7 2 22 -4 32 -16 21 -23 37 -25 65 -8 15 10 24 9 44 -1
20 -11 26 -23 28 -59 4 -61 22 -71 80 -44 24 12 48 22 52 22 15 0 151 89 173
112 12 13 33 31 47 41 15 10 38 41 51 68 14 27 34 58 44 68 10 10 31 41 46 70
31 57 107 139 141 151 16 6 25 23 34 60 10 43 19 55 51 76 37 23 69 68 69 97
0 13 69 156 92 191 11 15 10 19 -1 24 -36 13 -61 51 -61 94 0 36 7 50 40 85
51 54 81 69 164 84 51 8 81 8 131 -1 60 -11 64 -14 59 -35 -7 -30 4 -65 20
-65 8 0 26 16 41 36 26 34 26 36 10 54 -16 18 -17 27 -6 82 25 133 21 124 51
108 13 -7 21 -6 30 5 7 8 18 15 25 15 17 0 85 76 85 95 0 8 5 15 10 15 6 0 10
15 10 33 0 17 7 61 15 96 9 36 13 71 11 78 -5 11 18 53 83 157 19 31 8 55 -29
63 -17 3 -40 17 -51 31 -17 22 -30 27 -85 30 -55 4 -69 1 -87 -16 -12 -11 -40
-25 -63 -31 -22 -6 -48 -19 -57 -28 -9 -10 -35 -39 -57 -65 -23 -26 -56 -51
-73 -57 -45 -13 -133 -7 -154 11 -26 22 -58 38 -113 54 -27 8 -70 30 -95 49
-25 19 -56 35 -70 35 -13 0 -36 11 -51 25 -15 14 -33 25 -40 25 -8 0 -14 5
-14 11 0 6 -18 31 -39 57 -47 56 -75 152 -65 219 7 51 -12 143 -34 161 -15 11
-14 13 6 19 16 4 21 10 16 22 -3 9 -7 25 -9 36 -1 11 -3 23 -4 28 -1 10 -51 9
-51 -1 0 -4 6 -14 12 -20 10 -10 10 -15 -2 -22 -25 -17 -44 -6 -56 30 -13 40
-70 100 -95 100 -28 0 -34 -38 -11 -63 27 -31 34 -69 21 -121 -9 -36 -8 -49 5
-74 9 -17 16 -52 16 -77 0 -46 0 -46 -32 -43 -30 3 -33 6 -36 38 -4 55 -11 77
-29 95 -12 13 -16 31 -14 66 2 38 -1 49 -13 49 -8 0 -18 -4 -21 -10 -3 -5 -21
-9 -40 -8 -27 1 -35 6 -35 20 0 21 -4 22 -31 8 -11 -6 -19 -21 -19 -35 0 -40
-18 -29 -25 15 -8 47 -4 54 43 80 l37 20 -47 -6 c-53 -7 -53 -6 -35 48 12 35
14 36 26 16 9 -14 16 -17 23 -10 12 12 1 72 -14 72 -6 0 -8 7 -4 15 3 9 -7 24
-29 40 -18 15 -38 40 -45 58 -6 17 -24 46 -41 63 -35 36 -36 71 -2 66 31 -4
35 10 16 57 -13 33 -14 46 -5 66 10 21 9 28 -8 45 -11 11 -20 26 -20 34 0 8
-8 22 -17 32 -10 10 -24 36 -30 58 -11 37 -11 44 7 69 12 15 18 27 15 27 -4 0
-33 -15 -65 -32 -49 -27 -61 -31 -72 -20 -11 11 -10 16 6 28 19 13 19 14 1 34
-10 11 -29 20 -42 20 -12 0 -23 5 -23 10 0 23 -50 60 -80 60 -16 0 -30 4 -30
8 0 11 -46 32 -69 32 -11 0 -22 -7 -25 -15 -5 -13 -10 -14 -27 -5 l-21 12 21
19 c12 11 19 24 16 30 -8 12 -52 11 -76 -2 -26 -14 -45 2 -93 81 -41 66 -42
74 -20 130 17 42 16 58 -3 39z m117 -309 c0 -5 -4 -10 -10 -10 -5 0 -10 5 -10
10 0 6 5 10 10 10 6 0 10 -4 10 -10z m378 -738 c3 -25 9 -32 32 -37 31 -7 44
-43 30 -79 -8 -18 -9 -19 -9 -3 -1 21 -51 87 -67 87 -5 0 -10 16 -11 36 -1 44
21 41 25 -4z m354 -279 c15 -3 28 -13 31 -24 7 -26 -14 -24 -63 4 -43 24 -54
44 -17 32 12 -4 34 -9 49 -12z m-128 -101 c8 -5 -30 -31 -46 -32 -9 0 -11 34
-2 43 6 5 27 0 48 -11z m526 -308 c0 -8 -4 -12 -10 -9 -5 3 -10 13 -10 21 0 8
5 12 10 9 6 -3 10 -13 10 -21z"/>
<path d="M4135 5918 c-10 -32 -13 -54 -7 -56 5 -1 26 -19 45 -37 20 -19 41
-35 47 -35 17 0 24 31 12 51 -7 10 -12 28 -12 38 0 11 -4 22 -9 26 -5 3 -12
19 -16 35 -11 50 -40 39 -60 -22z"/>
<path d="M4027 5913 c-15 -14 -7 -43 12 -43 23 0 34 23 18 39 -13 13 -21 14
-30 4z"/>
<path d="M2850 3702 c-9 -4 -31 -19 -50 -33 -19 -14 -70 -51 -112 -83 -43 -31
-78 -58 -79 -59 -1 -1 -4 -57 -8 -124 -5 -79 -12 -128 -22 -141 -8 -11 -33
-47 -57 -81 -53 -76 -91 -101 -153 -101 l-46 0 -7 -46 c-3 -25 -17 -67 -30
-93 -13 -25 -29 -68 -36 -96 -6 -27 -20 -63 -30 -80 -9 -16 -23 -46 -29 -66
-15 -46 -180 -219 -236 -246 -22 -11 -57 -26 -78 -33 -21 -6 -50 -27 -65 -46
-15 -19 -32 -34 -39 -34 -6 0 -25 -17 -42 -38 -16 -21 -48 -47 -71 -57 -25
-11 -54 -36 -75 -66 -29 -41 -40 -48 -87 -58 -62 -14 -117 -44 -195 -109 -84
-70 -102 -80 -124 -75 -11 3 -46 0 -78 -7 -52 -11 -63 -18 -119 -80 -34 -38
-62 -71 -62 -73 0 -10 -56 -64 -78 -76 -12 -7 -25 -24 -28 -39 -3 -15 -18 -36
-33 -47 -16 -11 -53 -41 -82 -68 -30 -26 -71 -61 -93 -77 -21 -16 -59 -56 -83
-87 -25 -32 -51 -62 -59 -66 -8 -4 -14 -15 -14 -23 0 -9 -13 -40 -29 -69 -16
-28 -32 -70 -35 -92 -6 -32 -13 -43 -39 -54 -19 -8 -36 -25 -41 -41 -12 -35
-2 -46 23 -24 17 16 19 16 24 -4 4 -15 0 -20 -13 -20 -27 0 -43 -27 -44 -73
-1 -39 1 -42 27 -45 19 -2 27 -9 27 -23 0 -12 7 -19 20 -19 16 0 19 -5 14 -29
-8 -38 15 -51 88 -51 29 0 69 -4 87 -10 52 -15 111 -2 122 26 5 15 17 24 30
24 29 0 79 -37 79 -59 0 -39 26 -56 87 -56 36 0 62 5 68 13 9 11 16 9 37 -8
20 -15 28 -31 30 -62 2 -27 9 -45 22 -52 14 -8 20 -8 23 1 3 10 9 9 20 -3 11
-11 25 -14 47 -9 83 17 106 17 106 1 0 -24 38 -39 84 -32 22 3 48 6 56 6 8 0
26 0 39 0 14 0 43 9 66 20 23 11 50 20 60 20 10 0 32 10 49 23 17 13 39 27 49
30 15 6 17 13 12 37 -5 22 -3 30 7 30 8 0 25 12 39 26 13 14 40 34 60 44 27
14 38 29 48 60 15 51 58 80 121 80 59 1 93 26 88 65 -2 19 -12 34 -26 41 l-22
11 25 38 c15 21 33 44 41 52 23 23 31 44 38 100 7 53 49 141 72 150 33 12 52
67 57 163 3 59 10 106 20 125 9 17 19 42 21 56 11 53 239 191 401 242 134 42
148 43 201 12 36 -21 53 -26 81 -20 41 7 83 45 83 74 0 24 -54 71 -83 71 -72
1 -102 108 -57 203 19 41 27 47 74 62 105 33 193 124 238 247 19 53 27 63 60
77 21 9 38 23 38 32 0 9 23 36 50 61 35 32 50 53 50 71 0 19 18 44 63 89 34
35 73 78 86 96 l22 32 -24 0 c-21 0 -26 6 -32 39 -3 22 -15 47 -26 57 -32 29
-24 61 19 81 20 10 41 28 47 41 5 12 17 22 26 22 18 0 29 20 29 53 0 16 -3 18
-12 9 -14 -14 -48 -16 -48 -4 0 5 7 17 15 28 25 33 18 42 -39 49 -44 6 -56 12
-65 31 -6 13 -18 24 -27 24 -12 0 -14 5 -9 18 4 9 10 29 12 44 5 24 2 27 -20
24 -33 -3 -57 -23 -57 -47 0 -10 -4 -21 -10 -24 -5 -3 -10 -17 -10 -30 0 -14
-9 -29 -20 -35 -11 -6 -20 -17 -20 -24 0 -9 -7 -12 -20 -9 -11 3 -30 -4 -46
-16 -15 -12 -33 -21 -41 -21 -7 0 -33 -18 -56 -39 -24 -22 -47 -37 -53 -33 -5
4 -17 31 -28 59 -14 43 -16 59 -7 84 13 38 15 89 3 89 -5 0 -14 12 -21 26 -11
25 -13 25 -30 10 -26 -23 -58 -20 -77 9 -16 24 -16 50 1 118 6 22 4 27 -11 26
-11 0 -26 -3 -34 -7z m-2400 -2692 c-8 -5 -24 -9 -35 -9 -16 1 -16 2 5 9 35
11 48 11 30 0z"/>
<path d="M812 518 c-15 -15 -15 -50 0 -83 10 -23 10 -28 -5 -36 -9 -6 -17 -16
-17 -23 0 -8 -11 -21 -25 -30 -17 -11 -25 -26 -25 -45 0 -17 -6 -31 -16 -35
-10 -4 -14 -15 -12 -33 5 -41 40 -43 68 -3 19 27 26 30 55 24 26 -5 41 -1 61
15 15 12 38 21 53 21 61 1 87 71 34 91 -25 9 -26 12 -10 20 9 6 17 14 17 18 0
4 -22 31 -49 59 -41 42 -56 52 -83 52 -19 0 -39 -5 -46 -12z"/>
<path d="M1113 503 c-16 -6 -17 -39 -3 -48 13 -8 40 13 40 30 0 15 -19 24 -37
18z"/>
</g>
</svg>
