<?xml version="1.0" standalone="no"?>
<!DOCTYPE svg PUBLIC "-//W3C//DTD SVG 20010904//EN"
 "http://www.w3.org/TR/2001/REC-SVG-20010904/DTD/svg10.dtd">
<svg version="1.0" xmlns="http://www.w3.org/2000/svg"
 width="1024.000000pt" height="1024.000000pt" viewBox="0 0 1024.000000 1024.000000"
 preserveAspectRatio="xMidYMid meet">
<metadata>
Created by potrace 1.16, written by Peter Selinger 2001-2019
</metadata>
<g transform="translate(0.000000,1024.000000) scale(0.100000,-0.100000)"
fill="#000000" stroke="none">
<path d="M8983 9342 c-25 -34 -84 -65 -107 -56 -8 3 -27 21 -41 40 -36 47 -55
45 -55 -8 0 -37 -6 -47 -63 -105 -41 -40 -75 -65 -95 -69 -24 -5 -32 -12 -34
-33 -2 -17 -8 -25 -18 -22 -73 20 -150 5 -177 -35 -8 -13 -21 -24 -29 -24 -7
0 -25 -12 -39 -27 -21 -23 -33 -28 -75 -28 -44 0 -51 -3 -60 -25 -14 -33 -40
-49 -94 -56 -30 -5 -54 -2 -75 9 -31 15 -31 15 -39 -16 -5 -18 -19 -37 -33
-44 -34 -18 -150 -17 -175 1 -11 8 -37 17 -57 21 -20 4 -37 13 -37 20 0 25
-25 35 -48 19 -31 -21 -28 -35 16 -75 l37 -34 -50 -3 c-32 -2 -57 -10 -71 -23
-37 -35 -124 -16 -144 32 -19 46 -33 52 -65 27 -26 -20 -27 -24 -22 -84 5 -49
3 -67 -9 -79 -19 -19 -53 -19 -78 0 -11 8 -30 15 -43 15 -18 0 -23 6 -23 24 0
16 -7 27 -20 31 -27 8 -40 -1 -40 -29 0 -32 -65 -94 -128 -122 -61 -28 -85
-30 -102 -9 -7 8 -23 15 -36 15 -16 0 -28 8 -36 25 -10 22 -16 24 -48 19 -26
-4 -47 0 -76 15 -21 12 -53 21 -71 21 -17 0 -35 5 -39 11 -4 7 -23 9 -49 6
-39 -6 -44 -4 -49 17 -3 12 -17 28 -31 34 -14 6 -25 20 -25 30 0 10 -7 27 -15
38 -8 10 -15 27 -15 36 0 9 -18 31 -40 49 -22 18 -42 40 -45 49 -3 10 -19 23
-34 30 -23 9 -34 9 -57 -3 -16 -8 -48 -18 -70 -22 -50 -8 -78 -32 -94 -80 -8
-25 -19 -37 -38 -41 -48 -10 -70 -22 -77 -42 -3 -11 -17 -27 -30 -36 -15 -10
-25 -26 -25 -41 0 -16 -11 -32 -30 -47 -16 -12 -30 -27 -30 -34 0 -7 14 -17
30 -23 33 -11 39 -31 14 -52 -14 -11 -14 -13 0 -21 26 -15 18 -45 -21 -78 -57
-47 -82 -49 -113 -12 -19 24 -35 32 -58 32 l-32 0 7 -75 c6 -73 5 -77 -24
-118 -17 -23 -33 -54 -37 -70 -3 -15 -15 -36 -26 -47 -20 -20 -20 -20 5 -36
30 -20 65 -74 65 -101 0 -21 -66 -82 -103 -96 -12 -4 -37 -5 -57 -2 -71 12
-180 -31 -180 -70 0 -6 -17 -16 -37 -21 -34 -8 -40 -16 -75 -89 -65 -138 -72
-149 -113 -176 -22 -15 -59 -32 -82 -38 -37 -10 -43 -15 -49 -46 -7 -39 -28
-55 -69 -55 -16 0 -39 -12 -58 -32 -18 -17 -52 -40 -77 -51 -25 -11 -57 -32
-72 -48 -22 -24 -35 -29 -72 -29 -44 0 -45 -1 -52 -37 -4 -21 -13 -47 -20 -58
-20 -28 -17 -63 5 -75 26 -13 34 -41 22 -74 -12 -31 -27 -34 -36 -7 -10 32
-46 37 -67 11 l-18 -22 -44 37 c-45 37 -49 43 -61 103 -6 30 -9 32 -47 32 -27
0 -45 -6 -53 -17 -12 -16 -19 -12 -77 44 -34 34 -87 83 -115 109 -58 51 -63
64 -33 94 41 41 15 90 -35 64 -15 -8 -36 -12 -47 -8 -12 3 -29 -4 -48 -20 -16
-13 -38 -27 -49 -31 -10 -3 -26 -25 -35 -49 -20 -52 -37 -68 -71 -68 -20 0
-27 -7 -35 -39 -11 -38 -48 -91 -84 -119 -68 -52 -105 -98 -121 -152 -9 -32
-29 -71 -45 -88 -25 -27 -36 -31 -72 -29 -24 1 -53 -3 -65 -9 -26 -14 -66 -2
-99 29 -21 19 -24 20 -52 5 -46 -24 -69 -20 -87 14 -13 25 -22 30 -52 30 -19
0 -51 -9 -70 -21 -21 -13 -44 -19 -60 -16 -14 3 -40 0 -56 -5 -23 -9 -35 -7
-57 6 -36 21 -75 20 -125 -3 -55 -25 -70 -46 -72 -105 0 -28 -4 -63 -8 -78
-10 -39 2 -64 35 -78 34 -14 38 -35 13 -62 -22 -24 -22 -80 -1 -102 17 -16 28
-75 26 -131 0 -16 7 -49 16 -73 15 -41 15 -46 -2 -86 -22 -49 -15 -80 23 -98
23 -10 25 -17 25 -70 0 -52 -4 -63 -29 -89 -36 -36 -70 -37 -109 -4 -66 55
-133 53 -189 -7 -16 -18 -42 -41 -57 -51 -16 -11 -26 -27 -26 -42 0 -13 -8
-37 -17 -54 -15 -25 -16 -34 -5 -48 23 -33 24 -44 8 -62 -20 -22 -20 -45 -1
-61 24 -20 17 -37 -22 -57 -31 -14 -39 -24 -41 -50 -3 -35 -33 -63 -67 -63
-12 0 -29 -14 -42 -35 -30 -45 -69 -56 -92 -26 -16 21 -20 22 -100 12 -45 -6
-151 -14 -234 -17 -138 -7 -156 -9 -192 -32 -21 -14 -51 -28 -65 -32 -15 -4
-26 -15 -28 -28 -3 -16 4 -23 32 -30 20 -6 46 -8 58 -5 18 4 20 3 8 -6 -22
-16 -121 -13 -169 4 -70 24 -98 50 -105 95 -5 31 -18 52 -54 87 -57 55 -100
83 -128 83 -14 0 -24 8 -28 23 -6 19 -9 16 -21 -22 -16 -52 -57 -98 -96 -106
-33 -8 -68 -47 -76 -87 -3 -16 -10 -31 -14 -34 -5 -3 -9 -18 -9 -35 0 -24 11
-38 61 -77 33 -26 103 -72 154 -102 51 -30 109 -68 129 -84 20 -16 40 -26 44
-22 4 4 -8 20 -27 35 -19 15 -32 33 -30 40 5 15 94 -40 109 -69 12 -22 5 -44
-11 -35 -18 12 -9 -15 11 -32 33 -29 54 -52 139 -155 62 -74 101 -110 168
-155 108 -71 149 -107 169 -145 22 -42 51 -68 75 -68 26 0 119 -67 119 -85 0
-20 -51 0 -81 31 -22 24 -49 32 -49 16 0 -14 32 -39 70 -55 42 -17 126 -77
189 -133 25 -23 65 -51 89 -63 65 -33 384 -246 408 -273 12 -12 25 -40 28 -60
4 -20 21 -59 39 -85 18 -27 40 -69 50 -94 25 -65 66 -126 129 -189 46 -46 57
-64 67 -110 10 -47 20 -63 69 -111 63 -61 122 -141 122 -164 0 -26 79 -102
166 -161 66 -44 89 -67 113 -109 39 -68 64 -91 109 -100 50 -9 90 -31 140 -77
23 -21 54 -44 70 -50 41 -18 72 -49 72 -73 0 -32 27 -63 63 -70 42 -10 84 -40
102 -75 8 -15 27 -34 43 -41 16 -7 36 -25 44 -40 23 -39 115 -109 145 -109 30
0 80 -49 130 -127 18 -28 55 -71 83 -94 59 -50 110 -122 110 -156 0 -41 16
-59 77 -85 117 -52 110 -55 185 74 37 62 73 121 82 130 40 44 113 29 151 -32
13 -20 36 -41 52 -47 65 -23 101 -36 148 -53 28 -10 81 -20 118 -23 51 -4 86
-14 145 -42 121 -60 196 -92 357 -157 167 -67 408 -158 418 -158 3 0 103 61
222 136 l215 135 55 -31 c30 -17 57 -35 60 -41 10 -14 45 -11 63 7 15 15 18
14 38 -11 23 -29 75 -53 132 -62 23 -4 37 -14 47 -33 17 -33 56 -60 88 -60 30
0 96 26 120 48 18 16 20 15 33 -3 8 -10 14 -28 14 -40 0 -43 95 -125 146 -125
35 0 87 -34 100 -66 18 -43 18 -46 -8 -74 l-22 -23 32 -28 c21 -19 45 -30 67
-31 19 -1 49 -2 66 -3 17 -1 36 -9 41 -19 6 -10 22 -16 48 -16 21 0 42 -5 46
-11 4 -7 16 -2 33 14 14 14 43 29 63 32 35 7 39 5 59 -29 11 -20 25 -36 30
-36 6 0 21 -11 35 -25 14 -14 36 -33 50 -42 23 -15 28 -14 64 2 21 10 49 15
61 12 16 -4 32 3 56 23 19 17 43 30 54 30 12 0 32 9 45 19 14 11 42 22 64 26
22 4 42 11 46 16 3 5 28 9 55 9 40 0 55 5 75 26 28 27 28 14 3 191 -11 75 -17
94 -32 99 -11 3 -26 -1 -38 -12 -17 -16 -19 -16 -19 0 0 9 -17 35 -38 59 -80
88 -192 282 -192 333 0 11 -9 31 -20 44 -22 25 -24 35 -45 200 -25 196 -19
250 39 313 23 25 42 37 60 37 17 0 29 7 32 18 3 9 14 34 24 54 11 20 20 55 20
77 0 62 16 88 59 95 23 3 48 17 66 36 18 18 39 30 55 30 14 0 31 5 36 10 19
19 -22 279 -57 359 -10 24 -19 59 -19 77 0 35 -28 74 -53 74 -31 0 -52 -28
-52 -72 0 -59 -23 -61 -72 -7 -21 23 -50 54 -65 69 -36 36 -35 47 7 64 22 9
37 24 40 39 4 14 15 27 26 30 21 6 32 29 49 107 10 47 9 59 -4 85 -15 28 -15
31 4 44 11 7 20 25 20 38 0 14 12 39 26 56 23 27 25 37 20 77 -6 48 -30 75
-56 64 -38 -16 -50 -16 -56 1 -17 43 77 42 110 0 19 -24 55 -141 56 -180 0
-11 -7 -33 -15 -48 -13 -25 -12 -33 3 -74 9 -26 22 -46 27 -45 6 1 10 89 10
240 1 233 1 238 28 312 15 41 41 94 58 118 25 35 28 46 19 57 -28 34 -65 -1
-94 -90 l-16 -50 6 63 c5 65 3 69 -40 52 -52 -19 -59 -6 -52 88 6 79 -1 126
-24 172 -5 10 -21 14 -50 13 -42 -2 -42 -2 -36 29 3 17 6 39 6 50 0 11 13 33
29 48 26 27 33 29 77 24 45 -6 52 -3 81 25 18 17 37 31 41 31 5 0 26 16 48 35
21 19 44 35 50 35 31 0 34 125 4 163 -11 14 -20 34 -20 45 0 24 -25 52 -47 52
-11 0 -14 6 -9 25 4 14 1 35 -5 46 -14 28 -2 39 51 49 47 9 106 -4 133 -28 21
-19 22 -55 1 -73 -12 -10 -15 -24 -10 -60 5 -37 2 -54 -13 -81 -18 -30 -19
-39 -9 -98 13 -78 6 -114 -27 -136 -21 -14 -30 -14 -54 -4 -17 6 -35 9 -40 5
-7 -3 -11 -44 -11 -96 0 -91 15 -144 46 -162 22 -13 16 -43 -11 -61 -16 -10
-25 -26 -25 -41 0 -22 5 -25 33 -25 21 0 39 8 51 21 17 20 25 21 102 15 100
-7 104 -3 104 98 0 53 -4 67 -19 78 -53 38 -105 201 -98 311 10 173 29 326 47
382 17 52 18 72 10 148 -5 49 -20 123 -34 165 -13 43 -27 109 -30 147 -3 39
-16 106 -28 150 -47 170 -20 691 38 723 13 7 17 33 21 118 3 60 9 123 14 139
5 17 16 69 24 117 24 137 112 486 135 532 26 52 36 64 87 104 23 18 52 49 65
70 12 20 57 87 99 147 96 140 185 307 194 365 7 49 -38 267 -71 345 -9 22 -27
76 -39 120 -12 44 -32 101 -43 126 -25 58 -41 133 -50 234 l-7 80 -32 3 c-54
5 -102 -33 -51 -40 30 -4 35 -34 9 -48 -46 -24 -111 40 -111 110 0 27 -5 43
-15 46 -21 8 -19 50 3 66 9 7 25 24 34 38 35 55 76 91 104 93 28 2 29 0 34
-49 3 -28 11 -58 19 -67 18 -22 6 -37 -30 -37 -29 0 -42 -24 -16 -33 9 -3 9
-7 -1 -20 -29 -35 23 -52 57 -18 10 10 36 63 57 117 24 64 50 111 73 136 20
21 41 52 47 70 10 29 15 33 42 31 17 -2 34 2 38 8 5 8 -12 10 -62 5 -102 -10
-160 -7 -191 9 -16 8 -48 15 -73 15 -28 0 -56 8 -75 20 -38 25 -37 25 -62 -8z"/>
</g>
</svg>
