<?xml version="1.0" standalone="no"?>
<!DOCTYPE svg PUBLIC "-//W3C//DTD SVG 20010904//EN"
 "http://www.w3.org/TR/2001/REC-SVG-20010904/DTD/svg10.dtd">
<svg version="1.0" xmlns="http://www.w3.org/2000/svg"
 width="1024.000000pt" height="810.000000pt" viewBox="0 0 1024.000000 810.000000"
 preserveAspectRatio="xMidYMid meet">
<metadata>
Created by potrace 1.16, written by Peter Selinger 2001-2019
</metadata>
<g transform="translate(0.000000,810.000000) scale(0.100000,-0.100000)"
fill="#000000" stroke="none">
<path d="M7603 8090 c-17 -6 -87 -47 -155 -92 -68 -44 -244 -158 -393 -253
-148 -94 -315 -201 -370 -237 -55 -36 -201 -129 -325 -208 -124 -79 -263 -168
-310 -198 -190 -123 -219 -140 -305 -186 -49 -27 -137 -80 -195 -119 -404
-271 -537 -359 -625 -411 -316 -187 -354 -219 -775 -641 -184 -185 -362 -357
-396 -381 -149 -107 -258 -141 -674 -209 -406 -66 -431 -72 -448 -109 -6 -15
-13 -197 -17 -482 -3 -253 -8 -486 -10 -519 -2 -33 -10 -240 -16 -460 l-13
-399 -52 -82 c-70 -112 -144 -305 -144 -375 0 -11 -16 -23 -48 -35 -100 -38
-152 -84 -174 -155 -10 -35 -14 -39 -45 -39 -19 0 -81 9 -138 21 -100 20 -104
20 -131 3 -22 -15 -58 -19 -203 -25 -97 -3 -338 -17 -535 -30 l-359 -23 -91
-79 c-50 -44 -116 -92 -146 -106 -54 -25 -59 -26 -230 -23 -103 1 -194 -2
-221 -8 l-46 -11 -7 -187 -7 -187 63 -60 63 -59 -3 -57 c-4 -54 0 -63 46 -141
28 -46 65 -112 84 -148 37 -72 56 -84 162 -95 63 -7 82 -21 145 -105 l24 -31
-37 6 -36 7 0 -130 0 -131 108 -65 c145 -87 195 -127 232 -185 l32 -49 109 -7
108 -7 58 36 c66 41 83 44 106 18 18 -20 47 -84 47 -105 0 -7 -21 -20 -48 -28
-41 -13 -47 -18 -43 -40 4 -33 35 -90 93 -176 62 -93 104 -140 138 -158 26
-13 28 -13 34 8 9 34 7 138 -3 175 -9 31 -9 32 23 32 50 0 118 24 169 59 25
17 52 31 59 31 31 0 109 -73 258 -242 134 -153 193 -198 261 -198 l31 0 -7
214 c-10 291 -12 284 125 433 158 171 158 170 196 470 5 39 8 43 43 53 22 6
46 22 59 40 12 16 52 52 89 80 l66 50 202 0 c199 0 202 0 236 25 79 58 95 65
140 65 63 0 134 -23 274 -88 114 -52 125 -55 216 -60 l97 -5 65 -61 c48 -44
81 -89 122 -161 76 -135 100 -164 153 -187 39 -18 50 -19 86 -8 22 7 59 25 81
40 30 21 57 30 108 34 93 9 167 39 225 92 55 49 76 52 200 34 54 -7 75 -17
135 -61 188 -139 304 -203 444 -246 81 -25 102 -27 258 -27 166 -1 171 0 226
27 55 26 83 53 178 166 52 63 89 81 243 115 62 14 131 32 153 38 27 9 111 13
265 13 330 -1 491 -26 642 -99 135 -65 159 -74 248 -87 l81 -13 39 39 c28 28
40 48 42 74 3 32 11 41 88 94 129 89 170 107 238 107 54 0 63 3 103 38 62 54
78 61 171 73 45 6 84 12 87 14 3 4 -70 426 -85 490 -4 16 4 24 43 39 62 25 70
32 78 66 4 16 21 48 40 72 27 36 37 64 54 152 25 126 43 164 119 261 51 64
226 264 328 375 23 25 66 73 95 108 30 35 90 90 134 123 44 33 95 71 112 85
18 13 57 55 86 92 77 95 104 120 168 152 l56 29 6 374 c12 618 31 959 77 1322
16 127 34 280 40 340 21 201 45 271 134 393 25 34 46 66 46 71 0 5 -45 37
-100 70 -108 67 -212 156 -237 204 -15 31 -15 55 3 189 5 39 2 57 -24 112 -17
35 -48 91 -70 123 -75 111 -76 113 -83 293 -7 168 -35 360 -99 677 -33 168
-44 203 -61 203 -11 0 -123 -50 -418 -186 -78 -37 -96 -42 -115 -32 -64 34
-149 101 -250 198 -171 164 -224 193 -428 234 -288 58 -413 87 -491 111 -90
29 -204 40 -254 25z"/>
</g>
</svg>
