<?xml version="1.0" standalone="no"?>
<!DOCTYPE svg PUBLIC "-//W3C//DTD SVG 20010904//EN"
 "http://www.w3.org/TR/2001/REC-SVG-20010904/DTD/svg10.dtd">
<svg version="1.0" xmlns="http://www.w3.org/2000/svg"
 width="1024.000000pt" height="768.000000pt" viewBox="0 0 1024.000000 768.000000"
 preserveAspectRatio="xMidYMid meet">
<metadata>
Created by potrace 1.16, written by Peter Selinger 2001-2019
</metadata>
<g transform="translate(0.000000,768.000000) scale(0.100000,-0.100000)"
fill="#000000" stroke="none">
<path d="M2845 7236 c-37 -8 -63 -20 -70 -31 -27 -48 -38 -52 -166 -58 -106
-5 -126 -4 -141 10 -17 15 -26 15 -120 -6 -178 -40 -190 -46 -272 -121 -62
-55 -84 -69 -114 -72 l-37 -3 -2 -70 c-1 -38 -7 -115 -14 -170 -11 -96 -14
-104 -66 -187 -57 -90 -93 -128 -202 -211 l-63 -49 4 -86 c3 -48 1 -113 -5
-145 -8 -43 -8 -70 1 -104 11 -40 10 -48 -7 -77 -22 -35 -19 -66 10 -104 22
-28 17 -42 -19 -63 -32 -19 -92 -130 -98 -186 -5 -34 1 -46 50 -113 30 -41 69
-90 86 -109 16 -19 30 -43 30 -53 0 -11 7 -41 16 -68 13 -38 14 -56 5 -80 -8
-26 -7 -38 10 -70 12 -22 27 -40 35 -40 23 0 28 -49 11 -99 -9 -25 -17 -57
-19 -71 -2 -20 -8 -24 -28 -22 -72 8 -72 9 -96 -36 -39 -73 -39 -79 0 -122 20
-22 36 -44 36 -49 0 -4 -11 -20 -25 -35 -15 -16 -25 -39 -25 -56 0 -15 -12
-47 -27 -69 -22 -34 -32 -41 -59 -41 -17 0 -48 -7 -68 -15 -39 -17 -53 -46
-38 -85 13 -36 5 -50 -29 -50 -24 0 -29 -4 -29 -23 0 -13 -17 -42 -40 -66 -43
-45 -46 -60 -29 -110 9 -26 7 -43 -16 -106 -30 -82 -41 -95 -76 -95 -63 1 -87
0 -126 -6 -40 -6 -41 -7 -47 -52 -3 -26 -8 -63 -12 -82 -3 -19 -7 -91 -7 -160
-1 -83 -6 -133 -15 -148 -10 -17 -12 -42 -8 -80 10 -88 9 -110 -8 -221 -15
-100 -15 -105 4 -131 16 -22 18 -38 13 -101 -4 -68 -3 -77 21 -108 30 -40 34
-71 10 -71 -15 0 -16 -11 -10 -99 5 -63 4 -107 -3 -119 -7 -14 -6 -24 4 -39
12 -17 11 -22 -6 -36 -17 -15 -18 -26 -13 -94 4 -48 12 -82 20 -89 18 -14 18
-29 -1 -58 -9 -13 -15 -36 -14 -52 1 -16 -3 -49 -9 -74 -7 -25 -12 -58 -12
-74 0 -25 3 -28 25 -22 14 4 123 9 242 12 119 2 220 7 225 10 12 7 183 16 328
16 134 0 350 -32 419 -63 25 -11 57 -30 71 -43 14 -13 52 -41 85 -63 33 -22
66 -52 74 -66 7 -13 24 -30 36 -35 28 -13 123 -135 131 -169 4 -14 14 -23 26
-23 10 0 16 -5 13 -10 -8 -13 43 -107 61 -114 8 -3 14 -16 14 -30 0 -45 87
-102 165 -107 11 -1 2 -5 -20 -8 -32 -5 -40 -10 -38 -26 10 -82 16 -113 23
-130 5 -11 23 -65 41 -120 18 -55 45 -118 59 -141 15 -22 30 -52 33 -66 9 -36
226 -235 270 -246 16 -5 78 -31 97 -41 8 -4 35 -5 60 -2 37 5 45 10 43 26 -1
19 -1 19 12 1 12 -15 22 -17 64 -11 28 4 53 10 56 14 2 5 27 6 55 3 40 -4 51
-1 56 12 5 12 10 14 19 6 7 -6 50 -9 98 -7 72 2 89 6 101 22 12 17 17 18 41 7
30 -14 65 -8 65 11 -1 7 -7 23 -15 37 -14 25 -21 90 -8 77 3 -4 9 -24 12 -44
7 -41 19 -45 86 -29 24 6 27 5 13 -4 -27 -16 -23 -50 5 -50 37 0 98 20 103 35
4 9 17 11 42 8 60 -7 146 9 150 29 3 15 -5 17 -55 17 -113 -2 -123 -1 -117 15
3 9 -3 17 -15 21 -12 3 -21 12 -21 20 0 10 11 9 50 -6 48 -18 110 -17 110 2 0
5 4 9 8 9 5 0 8 -10 8 -22 -1 -18 5 -24 29 -26 17 -1 40 -8 52 -14 22 -11 45
-8 118 11 22 6 109 14 193 17 102 5 152 11 152 18 0 7 9 19 20 29 19 16 18 47
-2 47 -5 0 -7 8 -4 18 4 11 -3 33 -17 53 -12 19 -21 42 -19 53 3 15 7 13 23
-13 10 -17 27 -31 38 -31 10 0 21 -9 24 -20 3 -11 12 -20 21 -20 9 0 16 -4 16
-10 0 -11 60 -14 61 -2 0 4 2 17 3 29 2 13 5 24 7 25 2 2 13 8 24 14 11 7 19
19 17 27 -1 8 11 35 27 59 16 23 39 64 51 89 11 26 29 49 39 52 18 4 27 39 37
132 11 104 18 136 35 151 26 23 24 47 -7 83 -21 26 -24 34 -14 46 7 8 10 29 8
47 -6 38 22 67 65 68 19 0 27 5 27 18 0 15 104 123 185 192 17 14 38 40 47 58
10 19 25 32 36 32 11 0 32 16 46 35 15 19 34 35 43 35 8 0 29 15 47 34 19 21
43 36 61 38 28 3 31 8 58 96 29 93 29 93 58 87 25 -6 40 3 126 75 95 80 97 82
106 59 29 -76 16 -69 136 -69 108 0 109 0 115 25 4 14 11 25 16 25 6 0 10 11
10 24 0 34 11 86 19 86 3 0 11 -9 16 -21 6 -12 37 -33 71 -48 78 -34 88 -43
102 -89 14 -48 36 -68 83 -76 44 -8 56 -29 63 -117 3 -36 10 -78 17 -92 12
-26 15 -27 98 -27 89 0 131 15 131 45 0 31 23 62 53 71 50 14 89 118 56 151
-16 16 3 46 49 80 20 15 39 31 40 36 2 4 10 7 19 7 8 0 28 14 45 30 16 17 40
30 54 30 37 0 31 34 -16 89 -22 26 -40 51 -40 55 0 13 53 78 119 145 60 62 63
66 58 105 -7 47 14 92 79 178 41 52 44 61 44 116 0 43 5 63 16 73 13 11 15 25
10 81 -8 81 2 108 42 108 42 0 86 49 78 88 -6 26 -3 31 23 41 22 10 34 10 50
1 30 -15 115 31 131 71 8 17 20 29 31 29 10 0 25 10 33 23 17 25 40 182 30
198 -3 6 8 42 26 80 25 54 31 78 26 104 -4 18 -12 36 -19 38 -7 3 -4 8 8 13
11 4 36 22 56 39 21 19 53 35 75 39 67 12 90 25 102 60 7 18 12 42 12 54 0 12
5 42 12 66 11 40 10 47 -7 66 -16 18 -17 24 -5 59 7 21 9 48 5 60 -9 30 11 51
47 51 59 0 107 47 105 105 0 36 44 229 62 270 10 23 48 85 85 139 44 65 66
108 66 127 0 21 7 32 23 40 13 6 32 28 41 49 22 50 84 113 105 107 108 -32
107 -31 139 -9 16 12 33 22 37 22 4 0 29 18 55 40 26 22 55 40 63 40 9 0 29
11 45 25 17 14 35 25 41 25 7 0 23 11 36 25 37 36 35 95 -4 128 -26 21 -28 26
-15 39 21 20 43 122 41 188 0 34 6 69 17 92 18 38 14 63 -8 55 -13 -5 -86 65
-86 83 0 22 -89 38 -217 40 -9 0 -13 17 -13 53 0 28 -19 142 -42 252 l-41 200
-131 183 c-72 101 -144 203 -161 227 -30 44 -30 45 -90 45 -33 0 -76 3 -95 6
-30 5 -40 1 -68 -26 -19 -18 -40 -47 -48 -65 -13 -33 -14 -33 -71 -30 -42 2
-71 -2 -103 -16 -24 -11 -59 -20 -77 -21 -28 -1 -32 -4 -27 -20 9 -30 -112
-138 -132 -118 -13 13 -72 -45 -81 -78 -3 -15 -12 -31 -19 -37 -7 -5 -14 -19
-16 -30 -3 -17 -10 -19 -43 -17 -22 2 -58 8 -80 14 -22 6 -69 11 -105 12 -59
1 -71 5 -127 44 -83 56 -132 76 -272 111 -113 29 -124 30 -391 32 l-275 2
-177 -40 c-137 -31 -191 -49 -245 -78 -77 -42 -103 -62 -103 -81 0 -7 -8 -15
-19 -19 -10 -3 -49 -42 -87 -87 -98 -115 -91 -110 -132 -101 -21 3 -75 6 -122
5 -124 -1 -273 16 -375 44 -126 35 -141 42 -156 71 -25 47 -67 73 -115 73 -40
0 -51 5 -98 50 -29 28 -58 50 -64 50 -6 0 -30 15 -54 33 -36 28 -58 35 -128
45 -47 7 -97 12 -112 12 -17 0 -83 -33 -169 -86 l-141 -86 -62 6 -61 7 -44
-46 c-39 -40 -48 -45 -88 -45 -80 0 -122 37 -199 175 -54 99 -242 288 -302
306 -34 10 -50 10 -76 1 -30 -11 -42 -9 -107 17 -179 71 -359 141 -361 140 -2
0 -30 -6 -63 -13z m-1183 -5181 c-20 -16 -47 -27 -79 -30 l-48 -5 40 14 c22 7
54 21 70 30 44 23 51 20 17 -9z m-162 -35 c23 0 30 -5 30 -20 0 -11 -6 -20
-12 -21 -7 0 -24 -2 -38 -4 -43 -6 -62 4 -54 28 3 12 11 28 17 35 9 11 12 10
19 -2 5 -9 22 -16 38 -16z m1256 -657 c-10 -10 -19 5 -10 18 6 11 8 11 12 0 2
-7 1 -15 -2 -18z m141 -140 c-27 -15 -37 -16 -37 -3 0 6 7 10 15 10 9 0 18 7
22 16 5 12 7 13 14 2 5 -8 1 -17 -14 -25z m878 -413 c3 -5 1 -10 -4 -10 -6 0
-11 5 -11 10 0 6 2 10 4 10 3 0 8 -4 11 -10z m180 -101 c6 -19 0 -38 -9 -28
-10 12 -16 49 -7 49 5 0 13 -9 16 -21z m143 -61 c8 -8 8 -16 0 -32 -11 -20
-11 -20 -19 -1 -16 41 -6 58 19 33z m-798 -128 c0 -5 -4 -10 -10 -10 -5 0 -10
5 -10 10 0 6 5 10 10 10 6 0 10 -4 10 -10z m117 -22 c-3 -7 -5 -2 -5 12 0 14
2 19 5 13 2 -7 2 -19 0 -25z"/>
</g>
</svg>
