<?xml version="1.0" standalone="no"?>
<!DOCTYPE svg PUBLIC "-//W3C//DTD SVG 20010904//EN"
 "http://www.w3.org/TR/2001/REC-SVG-20010904/DTD/svg10.dtd">
<svg version="1.0" xmlns="http://www.w3.org/2000/svg"
 width="643.000000pt" height="535.000000pt" viewBox="0 0 643.000000 535.000000"
 preserveAspectRatio="xMidYMid meet">
<metadata>
Created by potrace 1.16, written by Peter Selinger 2001-2019
</metadata>
<g transform="translate(0.000000,535.000000) scale(0.100000,-0.100000)"
fill="#000000" stroke="none">
<path d="M5478 5197 c-28 -31 -106 -216 -125 -296 -8 -36 -15 -96 -14 -132 1
-83 -7 -91 -120 -119 l-86 -22 -38 26 c-109 75 -251 -15 -254 -160 -1 -24 -11
-40 -38 -64 -42 -37 -148 -90 -180 -90 -14 0 -24 -9 -32 -30 l-10 -30 -113 0
c-62 0 -148 -7 -191 -15 -106 -20 -139 -19 -168 6 -22 20 -32 21 -139 16 -63
-3 -143 -10 -177 -17 -59 -11 -63 -14 -63 -40 0 -46 39 -159 73 -211 18 -26
50 -58 71 -71 22 -13 52 -36 68 -52 36 -37 33 -57 -25 -140 -78 -111 -113
-121 -227 -62 l-73 38 -48 -22 c-43 -21 -58 -22 -156 -17 -59 3 -179 17 -266
31 -190 32 -264 62 -285 118 -8 23 -25 42 -47 54 -27 14 -35 25 -35 45 0 21
-13 38 -57 73 -32 25 -66 46 -76 46 -10 0 -30 -13 -45 -29 -33 -35 -74 -56
-127 -65 -31 -6 -154 -63 -173 -81 -1 -1 2 -13 8 -26 9 -20 5 -39 -25 -112
-31 -73 -42 -90 -71 -103 -38 -18 -169 -151 -178 -182 -4 -11 -40 -46 -82 -77
-41 -32 -95 -84 -120 -116 -25 -33 -55 -64 -66 -70 -12 -6 -84 -17 -160 -24
-122 -11 -142 -15 -163 -35 -14 -13 -25 -29 -25 -35 0 -21 -33 -42 -95 -61
-36 -11 -75 -32 -99 -54 -36 -32 -44 -35 -93 -33 -46 2 -70 -5 -166 -47 -113
-51 -157 -84 -137 -104 23 -23 8 -29 -61 -22 l-70 6 -87 -80 c-62 -58 -98 -83
-127 -91 -56 -14 -90 -34 -190 -112 l-87 -69 6 -39 c5 -34 2 -47 -24 -84 -16
-24 -30 -51 -30 -60 0 -27 71 -85 105 -85 53 0 109 -21 133 -48 72 -83 75 -89
58 -114 -9 -12 -16 -31 -16 -41 0 -17 5 -18 38 -12 20 3 48 12 62 19 24 11 25
16 22 79 l-3 68 33 -17 c18 -9 87 -49 153 -89 160 -96 169 -100 260 -124 l79
-20 69 30 c38 16 71 29 74 29 2 0 -18 -26 -46 -58 -28 -32 -51 -66 -51 -75 0
-9 13 -31 28 -49 63 -73 60 -102 -23 -172 -37 -32 -55 -55 -59 -78 -10 -51
-78 -190 -109 -220 -20 -20 -27 -37 -27 -66 0 -36 4 -42 61 -82 66 -46 67 -46
231 -24 42 6 56 2 114 -27 75 -39 98 -59 66 -59 -11 0 -33 11 -49 23 -29 25
-101 47 -150 47 -16 0 -46 -9 -67 -21 -25 -13 -66 -23 -115 -26 -62 -5 -84
-11 -119 -35 -32 -22 -52 -29 -80 -26 l-37 3 -16 -61 c-10 -37 -36 -89 -64
-130 -40 -59 -46 -73 -40 -102 4 -23 1 -41 -10 -58 -21 -32 -114 -85 -140 -79
-22 6 -54 -10 -43 -20 13 -14 85 -25 148 -24 36 1 95 -7 132 -16 56 -14 76
-15 112 -6 49 12 128 14 164 5 26 -7 28 -22 7 -50 -14 -18 -16 -18 -26 -1 -7
12 -23 17 -57 17 -41 0 -57 -7 -110 -45 -34 -25 -62 -52 -62 -60 0 -23 39 -43
115 -59 61 -13 73 -13 93 0 12 8 22 18 22 22 0 4 4 13 9 21 7 10 20 6 62 -23
l53 -36 22 21 c28 26 83 35 108 16 29 -21 14 -44 -48 -71 -64 -28 -113 -90
-101 -126 l7 -22 26 25 c37 34 149 89 175 86 32 -4 76 23 125 75 l44 47 -24
19 c-13 11 -44 32 -70 45 -27 14 -48 30 -48 37 0 12 71 7 157 -12 45 -10 55
-17 77 -53 41 -67 81 -105 120 -113 29 -5 36 -3 36 9 0 9 -10 25 -22 37 -19
17 -19 20 -4 20 39 0 76 -31 97 -81 23 -52 51 -79 82 -79 15 0 18 7 15 48 l-3
47 112 28 112 27 24 -24 c26 -26 138 -86 160 -86 7 0 33 13 58 28 38 24 47 37
62 86 14 42 25 59 42 66 38 15 180 155 206 205 13 25 26 45 30 45 3 0 30 15
61 34 101 61 119 62 638 54 372 -6 377 -5 474 61 68 47 88 83 83 149 -3 49 -2
54 25 70 22 12 28 24 28 49 0 27 -6 36 -44 58 -31 18 -52 24 -70 19 -20 -5
-34 3 -76 42 -29 28 -70 54 -98 63 -64 22 -182 114 -224 176 -41 60 -57 69
-168 89 -177 34 -196 39 -227 63 -32 24 -33 26 -33 102 0 78 0 79 30 91 17 7
30 16 30 20 0 17 45 19 63 2 15 -13 17 -25 12 -59 -5 -34 -3 -44 10 -49 9 -4
19 -4 22 0 3 3 -4 56 -16 117 -12 61 -25 151 -28 200 -5 78 -4 92 13 110 37
42 97 70 214 102 111 31 121 36 144 69 13 20 41 52 62 72 l39 36 83 -7 c117
-8 202 10 357 78 l130 58 20 50 c11 27 26 52 35 55 109 35 229 91 260 121 37
36 83 55 134 55 33 0 93 59 102 100 3 14 13 44 22 68 l17 42 170 67 c142 56
182 68 242 71 l71 4 21 50 21 50 -21 29 c-18 26 -20 41 -17 127 3 82 8 106 33
157 61 125 61 108 -2 141 -30 16 -61 38 -69 49 -32 45 -9 148 51 226 35 46 47
54 78 57 31 3 43 12 85 65 27 34 56 82 64 107 12 38 31 59 114 128 54 46 151
119 214 163 107 74 117 79 165 78 72 -1 99 -11 103 -37 4 -26 20 -28 70 -6 36
16 37 16 14 27 -17 8 -22 18 -21 36 4 45 -10 71 -43 78 -26 5 -35 16 -62 74
-28 62 -35 70 -76 85 -93 35 -146 63 -184 99 -38 36 -39 37 -31 93 14 112 21
101 -85 132 -52 15 -125 39 -161 54 -80 32 -85 32 -111 3z"/>
</g>
</svg>
