<?xml version="1.0" standalone="no"?>
<!DOCTYPE svg PUBLIC "-//W3C//DTD SVG 20010904//EN"
 "http://www.w3.org/TR/2001/REC-SVG-20010904/DTD/svg10.dtd">
<svg version="1.0" xmlns="http://www.w3.org/2000/svg"
 width="924.000000pt" height="748.000000pt" viewBox="0 0 924.000000 748.000000"
 preserveAspectRatio="xMidYMid meet">
<metadata>
Created by potrace 1.16, written by Peter Selinger 2001-2019
</metadata>
<g transform="translate(0.000000,748.000000) scale(0.100000,-0.100000)"
fill="#000000" stroke="none">
<path d="M6520 7185 c-9 -11 -23 -13 -51 -9 -29 5 -39 3 -40 -7 -1 -8 -2 -18
-4 -24 -1 -5 -3 -16 -3 -22 -1 -7 -12 -13 -24 -13 -17 0 -19 -3 -10 -9 11 -6
8 -14 -13 -35 -20 -20 -36 -26 -70 -26 -24 0 -47 4 -50 10 -9 14 -65 -17 -65
-35 0 -8 -13 -29 -28 -46 l-29 -32 -32 19 -32 19 -31 -34 c-30 -34 -31 -34
-59 -17 -27 16 -30 16 -56 -3 -16 -10 -52 -27 -81 -36 -52 -17 -54 -17 -76 4
-27 25 -39 26 -76 4 -27 -15 -30 -15 -52 0 -57 42 -121 85 -175 120 -32 20
-67 44 -79 52 -33 24 -53 1 -64 -75 -12 -73 -30 -95 -87 -106 -31 -6 -39 -3
-55 16 -11 13 -30 23 -46 24 -20 1 -30 9 -41 34 -15 34 -32 39 -75 22 -18 -6
-26 -17 -26 -33 0 -12 -9 -30 -20 -40 -11 -9 -20 -23 -20 -31 0 -21 -56 -41
-75 -26 -12 10 -16 8 -25 -15 -13 -34 -68 -114 -95 -137 -19 -16 -49 -17 -121
-2 -17 3 -24 -3 -33 -26 -6 -17 -16 -44 -22 -60 -17 -46 -43 -56 -78 -30 -16
11 -35 20 -43 20 -7 0 -35 12 -63 25 -33 16 -67 25 -101 25 -27 0 -54 4 -60 9
-5 5 -34 11 -65 15 -48 5 -59 3 -74 -14 -15 -17 -26 -19 -67 -14 -28 4 -48 3
-48 -3 0 -16 -41 -54 -51 -48 -5 4 -9 26 -9 49 0 36 -5 47 -32 70 -18 15 -44
29 -58 32 -14 3 -37 11 -52 19 -16 8 -43 12 -65 9 -78 -11 -83 -13 -83 -40 0
-14 -5 -34 -10 -44 -7 -14 -5 -32 9 -68 11 -28 17 -53 14 -56 -13 -13 -43 -5
-53 15 -16 30 -74 51 -116 43 -24 -4 -34 -11 -30 -20 3 -8 -4 -18 -14 -24 -11
-6 -20 -19 -20 -30 0 -11 -11 -27 -24 -36 -14 -8 -34 -31 -45 -50 -13 -21 -28
-34 -41 -34 -16 0 -20 -6 -20 -35 0 -39 -17 -83 -40 -105 -9 -8 -27 -52 -39
-98 -23 -81 -23 -84 -6 -125 29 -71 36 -89 33 -92 -2 -2 -17 -6 -34 -9 -24 -5
-33 -3 -37 8 -8 21 -27 21 -27 0 0 -9 -23 -25 -55 -40 -48 -22 -63 -24 -123
-18 l-69 6 -11 52 c-6 28 -10 69 -10 91 1 34 -11 57 -76 154 -42 63 -76 122
-76 131 0 28 -38 54 -93 61 -29 4 -70 10 -92 14 -37 6 -44 4 -85 -32 -25 -22
-55 -45 -68 -52 -12 -6 -34 -30 -47 -51 -14 -22 -32 -40 -40 -40 -8 0 -26 -16
-41 -35 -18 -24 -34 -35 -53 -35 -14 0 -57 -16 -96 -36 -60 -30 -76 -35 -117
-29 -40 5 -50 2 -74 -20 -15 -14 -33 -25 -39 -25 -7 0 -18 -15 -24 -32 -7 -18
-28 -50 -48 -70 l-37 -38 -88 0 c-84 0 -89 -1 -99 -24 -10 -20 -23 -26 -90
-37 -65 -10 -80 -16 -85 -33 -3 -12 -27 -40 -52 -63 -43 -38 -46 -44 -34 -63
14 -22 10 -32 -21 -68 -18 -20 -20 -34 -18 -130 2 -85 6 -113 21 -137 44 -68
45 -73 22 -105 -29 -38 -28 -49 8 -98 37 -51 37 -67 5 -88 -14 -9 -32 -32 -40
-50 -8 -19 -21 -34 -30 -34 -17 0 -35 -38 -35 -73 0 -12 -10 -34 -23 -49 -19
-22 -33 -27 -94 -33 -66 -6 -72 -5 -78 15 -9 30 -48 52 -78 45 -13 -4 -40 -22
-58 -41 -45 -46 -68 -44 -108 11 -27 38 -37 45 -66 45 -21 0 -44 -9 -63 -25
-30 -25 -30 -27 -30 -123 1 -76 5 -104 19 -128 35 -58 20 -139 -28 -150 -39
-9 -93 -52 -87 -68 3 -7 -6 -27 -20 -44 -20 -22 -26 -40 -24 -71 1 -23 -4 -47
-10 -53 -19 -19 -14 -52 13 -99 31 -54 32 -101 3 -169 -21 -50 -21 -54 -5 -82
9 -16 17 -47 17 -68 0 -32 6 -43 30 -60 16 -12 30 -29 30 -38 0 -9 9 -41 20
-70 28 -72 27 -118 -2 -126 -13 -3 -38 -19 -57 -36 -18 -16 -43 -30 -55 -30
-11 0 -34 -7 -50 -15 -15 -8 -46 -15 -68 -15 -43 0 -78 -14 -78 -31 0 -6 11
-24 25 -41 33 -39 32 -54 -5 -67 -26 -9 -30 -15 -30 -46 0 -31 4 -38 29 -46
22 -8 28 -15 24 -30 -4 -12 0 -19 10 -19 8 0 28 -7 43 -15 35 -18 76 -123 78
-198 1 -54 13 -67 63 -67 26 0 34 -5 39 -24 3 -13 19 -36 35 -50 33 -30 37
-61 12 -89 -12 -13 -18 -36 -18 -71 0 -48 -19 -93 -55 -134 -7 -7 -15 -25 -19
-39 -4 -15 -15 -31 -24 -37 -13 -9 -20 -6 -32 12 -21 29 -28 28 -42 -9 -10
-26 -9 -35 9 -65 21 -36 40 -137 39 -209 -1 -22 6 -60 14 -85 8 -25 14 -68 13
-96 -3 -68 52 -185 100 -211 17 -10 35 -27 38 -38 4 -11 24 -45 45 -75 22 -31
39 -65 39 -75 0 -11 11 -38 25 -60 30 -50 31 -58 3 -70 -30 -13 -33 -36 -12
-91 20 -52 30 -59 100 -69 l51 -6 5 63 c3 35 15 86 27 114 12 27 26 72 32 99
6 34 17 58 36 74 25 22 33 23 118 19 135 -7 205 -44 205 -108 0 -36 27 -74 68
-98 23 -12 44 -31 47 -42 4 -11 15 -20 26 -20 27 0 32 -20 15 -61 -11 -28 -12
-58 -5 -164 5 -71 12 -148 15 -171 4 -26 0 -54 -10 -78 -9 -21 -16 -54 -16
-73 0 -22 -13 -57 -37 -96 -23 -39 -36 -73 -35 -92 1 -16 3 -46 5 -65 2 -32 0
-35 -34 -40 -39 -7 -98 -47 -98 -67 -1 -21 42 -37 119 -45 41 -3 90 -10 108
-13 42 -9 66 11 87 74 8 25 25 59 38 75 l23 29 50 -22 c98 -44 172 -69 180
-61 5 5 32 12 59 15 50 6 50 6 103 -44 29 -28 52 -59 52 -71 0 -11 5 -20 10
-20 6 0 10 13 10 30 0 19 7 34 20 42 28 18 25 25 -13 32 -19 3 -57 26 -86 51
-42 36 -60 45 -90 45 -36 0 -74 19 -98 50 -17 21 -16 70 1 70 8 0 19 14 25 30
15 44 92 140 118 146 23 6 38 5 183 -15 119 -17 137 -26 165 -80 13 -25 32
-52 44 -58 23 -14 51 -98 51 -153 0 -28 8 -44 35 -70 33 -32 35 -37 29 -80 -6
-42 -3 -50 35 -100 24 -32 41 -65 41 -81 0 -29 19 -39 76 -39 24 0 42 11 83
55 39 41 60 55 81 55 15 0 33 7 40 15 14 16 34 15 112 -7 26 -8 40 -19 49 -40
12 -30 51 -47 72 -30 6 6 41 12 77 14 149 9 239 49 354 156 101 94 120 100
202 56 44 -24 53 -25 92 -15 23 6 66 11 96 11 65 0 96 -21 130 -89 14 -26 36
-52 50 -59 14 -6 28 -22 31 -34 5 -21 11 -23 48 -20 34 3 50 12 85 48 23 24
51 44 62 44 13 0 24 10 30 24 10 26 51 40 100 34 23 -3 25 0 25 42 0 33 8 59
32 98 30 48 36 52 70 52 22 0 53 -10 73 -22 19 -12 55 -25 80 -29 25 -4 61
-10 81 -14 33 -7 39 -4 79 36 42 43 43 44 41 109 -1 60 1 68 26 91 15 15 52
39 80 55 29 16 53 36 53 44 0 28 39 79 65 86 14 3 25 10 25 15 0 5 7 9 15 9
10 0 15 10 15 30 0 26 4 30 28 30 31 0 72 36 72 63 0 10 -6 32 -14 50 -17 43
-1 127 25 127 10 0 32 18 49 40 17 22 38 40 47 40 8 0 21 6 28 13 8 6 21 18
29 24 8 7 19 21 25 30 7 13 24 18 63 20 105 4 174 28 201 71 4 6 14 12 21 12
8 0 19 13 26 29 l12 30 31 -18 c23 -13 31 -24 29 -39 -3 -23 23 -42 60 -42 13
0 43 -16 67 -34 44 -33 44 -33 82 -17 22 9 39 21 39 26 0 6 16 32 36 58 37 51
82 77 133 77 18 0 34 7 40 17 8 15 12 16 34 4 17 -9 38 -11 62 -7 40 8 94 -8
108 -31 4 -7 16 -13 26 -13 10 0 29 -9 42 -21 19 -16 32 -19 65 -14 l41 6 7
-63 c7 -71 21 -93 35 -57 13 36 37 52 66 45 18 -5 27 -2 31 9 8 20 24 19 40
-2 13 -19 13 -18 88 12 16 7 18 5 13 -17 -12 -47 16 -58 151 -64 115 -5 124
-4 210 25 119 41 155 40 211 -4 24 -19 46 -35 48 -35 25 0 136 95 170 146 15
21 23 48 23 74 0 31 6 47 26 65 15 14 32 25 39 25 15 0 44 -33 90 -103 40 -62
73 -90 96 -83 8 2 26 7 41 10 28 6 83 89 74 113 -3 7 -21 19 -40 27 -42 17
-47 27 -76 142 l-23 92 19 33 c25 42 56 59 112 59 47 0 44 -7 48 105 2 33 4
71 4 85 1 14 -1 37 -5 51 -4 14 -2 44 5 67 10 38 14 42 41 42 21 0 41 11 65
34 20 20 42 32 50 29 8 -3 14 1 14 7 0 9 6 8 18 -3 22 -21 45 -21 142 -4 41 8
118 13 171 11 l97 -2 33 34 c18 19 39 34 46 34 9 0 13 19 14 68 1 37 4 78 8
92 6 18 1 39 -17 74 -19 40 -22 53 -13 73 6 13 18 26 26 30 9 3 25 23 36 44
l20 39 -26 34 c-14 19 -25 46 -25 64 0 17 -4 34 -10 37 -18 11 -11 88 10 115
25 32 25 71 0 103 -25 32 -25 55 0 82 38 41 20 163 -29 197 -17 12 -19 26 -19
136 0 113 2 124 21 137 12 8 36 15 54 15 21 0 33 5 33 14 0 19 48 105 75 136
13 14 26 35 29 47 4 12 20 32 37 43 24 18 29 28 29 64 0 57 -24 134 -49 158
-13 12 -21 31 -21 52 0 35 -17 50 -45 40 -8 -3 -20 -2 -26 2 -7 4 -29 8 -48 8
-35 1 -36 2 -39 44 -2 31 -13 56 -38 88 -34 46 -38 56 -49 127 -12 82 -18 107
-26 113 -5 3 -9 15 -9 26 0 29 -47 88 -70 88 -13 0 -21 12 -30 51 -7 27 -10
53 -7 56 10 9 -34 82 -54 88 -10 4 -20 9 -20 13 -1 4 -3 82 -4 174 -1 157 -3
169 -23 191 -16 17 -21 34 -19 63 l2 39 -48 -3 c-57 -4 -115 25 -141 69 -17
29 -40 38 -51 19 -13 -20 -125 -2 -125 21 0 5 -15 9 -33 9 -37 0 -55 15 -82
68 -13 28 -21 33 -38 27 -12 -3 -43 -9 -68 -12 -40 -5 -51 -1 -93 28 -27 19
-63 48 -82 66 -23 21 -52 36 -90 44 -42 9 -59 18 -67 36 -5 12 -30 32 -54 44
-27 13 -60 41 -81 70 -21 27 -48 51 -62 55 -26 7 -94 73 -85 82 3 3 -4 16 -16
28 -15 17 -23 40 -26 87 -6 71 -13 79 -86 92 -38 7 -46 20 -68 105 -17 67 -70
150 -91 144 -14 -4 -18 1 -18 20 0 15 -6 26 -13 26 -18 0 -77 83 -77 108 0 12
-8 23 -18 26 -10 4 -24 22 -31 41 -11 31 -16 35 -47 35 -22 0 -40 7 -51 20
-10 11 -30 20 -46 20 -21 0 -33 8 -48 35 -15 24 -28 35 -44 35 -13 0 -38 12
-55 27 -31 25 -31 28 -25 85 6 53 5 58 -13 58 -11 0 -25 -7 -32 -15z"/>
</g>
</svg>
