<?xml version="1.0" standalone="no"?>
<!DOCTYPE svg PUBLIC "-//W3C//DTD SVG 20010904//EN"
 "http://www.w3.org/TR/2001/REC-SVG-20010904/DTD/svg10.dtd">
<svg version="1.0" xmlns="http://www.w3.org/2000/svg"
 width="812.000000pt" height="1024.000000pt" viewBox="0 0 812.000000 1024.000000"
 preserveAspectRatio="xMidYMid meet">
<metadata>
Created by potrace 1.16, written by Peter Selinger 2001-2019
</metadata>
<g transform="translate(0.000000,1024.000000) scale(0.100000,-0.100000)"
fill="#000000" stroke="none">
<path d="M6987 10230 c-59 -11 -89 -31 -84 -55 37 -153 37 -155 17 -219 -11
-34 -29 -94 -41 -133 -23 -76 -43 -113 -54 -101 -4 4 -11 78 -15 165 -9 160
-21 223 -45 223 -20 0 -80 -105 -104 -180 -70 -223 -101 -332 -106 -385 -9
-93 -25 -141 -54 -169 l-26 -25 -30 19 c-38 25 -47 64 -34 155 22 162 30 182
195 533 24 52 44 96 44 98 0 12 -71 37 -102 36 -81 -4 -93 -18 -118 -144 -9
-46 -15 -58 -30 -58 -37 0 -49 12 -55 54 -11 70 -19 76 -59 37 -21 -21 -37
-47 -41 -70 -11 -63 -15 -71 -39 -71 -20 0 -24 -6 -30 -49 -4 -27 -15 -60 -25
-73 -18 -21 -22 -22 -52 -11 -18 7 -34 11 -36 10 -1 -2 -9 -36 -18 -77 -18
-85 -20 -88 -91 -136 -58 -38 -161 -154 -171 -191 -3 -13 -6 -23 -8 -23 -1 0
-28 10 -61 22 -36 13 -82 22 -119 22 -54 0 -66 -3 -103 -34 -38 -30 -42 -37
-42 -79 0 -35 6 -51 27 -73 23 -24 25 -31 15 -53 -11 -24 -52 -42 -71 -31 -5
3 -12 25 -16 48 -10 57 -65 108 -117 108 l-38 0 0 -72 c0 -70 0 -71 41 -109
23 -21 39 -44 37 -51 -7 -19 -45 -21 -70 -4 -31 22 -34 21 -51 -21 -18 -46
-51 -78 -72 -70 -12 5 -13 11 -3 34 6 15 11 69 12 119 1 84 -1 93 -26 126 -50
66 -150 69 -226 9 -32 -26 -44 -46 -61 -100 -11 -36 -21 -75 -21 -85 0 -27
-107 -256 -133 -285 -26 -28 -92 -60 -125 -61 -15 0 -48 -25 -95 -73 -87 -87
-100 -124 -82 -225 7 -34 17 -68 23 -74 7 -7 33 -12 59 -13 40 0 49 -4 62 -26
23 -41 0 -86 -48 -95 -26 -5 -51 -23 -92 -66 -31 -32 -62 -58 -68 -58 -27 0
-29 44 -5 89 24 43 24 43 4 70 -37 52 -48 57 -76 30 -14 -13 -39 -50 -56 -81
-17 -32 -35 -58 -39 -58 -5 0 -18 19 -30 41 -26 53 -19 96 23 145 37 42 56
125 36 162 -15 30 -23 28 -60 -13 -87 -100 -118 -160 -118 -233 0 -44 -12 -72
-32 -72 -4 0 -22 25 -39 55 -17 30 -32 55 -34 55 -2 0 -20 -23 -41 -51 -22
-28 -65 -69 -96 -90 -51 -35 -57 -43 -64 -84 -7 -52 6 -92 42 -126 20 -18 34
-22 77 -20 42 2 60 9 96 37 24 19 49 34 54 34 15 0 2 -83 -17 -112 -15 -23
-24 -26 -107 -31 -87 -7 -93 -8 -135 -46 -39 -34 -51 -39 -109 -43 -52 -5 -72
-12 -101 -34 -73 -58 -170 -126 -205 -144 -31 -16 -40 -30 -67 -102 -30 -80
-38 -108 -27 -108 2 0 51 37 108 83 160 126 241 174 312 182 33 5 75 15 95 23
19 8 95 32 167 52 73 21 152 49 175 63 60 34 140 52 168 37 l21 -11 -20 -35
c-12 -19 -21 -41 -21 -49 0 -23 -26 -42 -67 -48 -24 -4 -57 -22 -88 -48 -27
-23 -74 -58 -104 -78 -74 -49 -151 -166 -151 -228 0 -49 -1 -49 89 -28 35 9
66 13 68 11 11 -11 -35 -61 -86 -94 -49 -33 -61 -48 -97 -121 -32 -65 -51 -91
-86 -116 -58 -42 -105 -103 -125 -160 -11 -35 -28 -57 -67 -87 -119 -94 -231
-259 -257 -380 -18 -80 -43 -131 -108 -216 -71 -93 -88 -141 -95 -283 -4 -83
-12 -124 -35 -185 -16 -44 -39 -115 -51 -159 -29 -104 -68 -180 -122 -239 -38
-42 -49 -48 -96 -53 -39 -4 -63 -1 -91 12 -34 15 -44 15 -87 3 -43 -12 -49
-17 -52 -43 -2 -28 3 -33 85 -75 83 -43 88 -47 91 -81 3 -31 -1 -37 -31 -51
-115 -55 -266 -185 -345 -298 -25 -36 -62 -85 -83 -110 -20 -25 -66 -91 -103
-147 -65 -101 -66 -104 -60 -155 l6 -53 -49 -31 c-61 -38 -173 -78 -283 -100
-73 -14 -91 -22 -127 -55 -50 -46 -211 -125 -366 -180 -96 -34 -119 -47 -162
-89 -36 -35 -82 -64 -165 -103 -107 -50 -123 -62 -243 -175 -135 -128 -155
-139 -280 -157 -51 -7 -52 -8 -26 -89 21 -68 0 -92 -50 -57 -42 30 -54 26 -80
-26 -21 -44 -23 -58 -20 -203 4 -214 -6 -266 -67 -346 -13 -17 -27 -45 -30
-62 -6 -31 -5 -32 27 -33 45 -1 82 -12 86 -26 2 -6 -14 -18 -36 -26 -37 -15
-44 -25 -103 -144 l-63 -128 -3 -101 c-3 -89 0 -116 34 -245 20 -79 44 -158
52 -176 19 -40 3 -85 -39 -110 -27 -16 -29 -21 -29 -86 0 -38 7 -93 15 -122
15 -50 15 -58 -4 -132 -11 -43 -21 -98 -23 -123 -3 -40 -1 -45 24 -54 22 -8
38 -5 75 12 27 11 71 23 99 27 65 7 81 -8 65 -58 -10 -29 -22 -39 -70 -61
l-57 -26 -13 -67 c-7 -37 -26 -100 -42 -140 -31 -74 -33 -123 -8 -191 17 -44
82 -113 163 -171 101 -74 184 -161 214 -226 21 -46 32 -55 108 -98 76 -43 90
-47 149 -47 36 0 112 7 168 16 173 28 297 96 497 274 41 37 110 93 153 124 67
49 89 74 145 161 37 56 72 111 78 121 11 18 12 18 60 -3 114 -51 113 -51 186
2 l67 48 16 74 c15 68 15 81 1 141 l-15 67 32 27 c18 15 35 28 40 28 15 0 27
-52 27 -116 0 -58 5 -73 39 -132 21 -37 50 -88 64 -113 l26 -47 63 14 c35 7
66 13 71 14 4 0 7 -43 7 -95 0 -52 1 -95 3 -95 2 0 27 7 56 16 52 15 53 16 89
92 53 110 60 204 25 324 l-26 88 39 57 c33 49 40 69 44 122 l5 65 55 14 c45
11 66 24 117 74 55 55 62 66 68 112 4 28 20 81 37 118 28 62 30 73 24 140 -5
50 -24 119 -61 218 -29 80 -56 155 -59 166 -6 20 -2 22 58 29 60 6 68 10 103
48 21 23 49 66 62 95 l25 52 -18 58 c-15 46 -31 69 -80 117 -34 33 -78 83 -97
110 -31 45 -34 58 -37 133 -3 48 3 118 12 170 19 101 10 231 -22 342 -16 58
-17 72 -6 125 7 33 13 87 14 121 0 33 9 86 20 118 l19 56 -29 93 c-17 50 -30
98 -30 105 0 7 16 37 37 67 l36 55 -13 55 -13 54 32 36 c17 20 47 66 65 103
36 71 116 155 198 211 l47 32 63 -15 c35 -8 99 -26 143 -40 44 -15 81 -26 82
-26 0 0 15 19 32 42 29 39 31 48 31 129 0 47 -3 113 -6 145 l-7 59 -74 48
c-72 46 -74 49 -61 70 48 74 183 307 219 378 l42 84 18 260 c13 187 16 278 9
325 -5 36 -10 77 -10 93 l0 27 93 0 c89 0 93 2 140 35 l47 35 0 95 0 95 45 41
c46 42 63 74 116 208 15 41 49 100 74 132 l45 57 0 89 c0 81 -2 92 -30 133
-19 29 -30 58 -30 80 0 30 6 39 40 60 33 20 44 36 64 90 14 36 30 93 37 127
15 79 41 121 108 174 l55 42 55 -12 c132 -29 124 -31 154 39 31 71 36 168 12
235 -13 37 -13 42 4 65 20 28 70 37 222 39 82 1 89 -1 176 -43 l91 -44 19 21
c52 57 54 67 27 106 -30 45 -30 49 6 90 17 18 30 36 30 40 0 3 5 34 10 69 8
56 6 71 -16 129 -14 36 -23 67 -22 68 9 8 89 45 97 45 5 0 29 -20 52 -45 24
-25 47 -44 51 -43 5 2 19 26 32 54 l24 51 -19 43 c-25 57 -24 63 15 98 30 27
39 29 70 22 73 -16 138 -91 287 -332 l46 -74 72 -13 c145 -26 272 13 306 95
l15 36 43 -25 c24 -14 72 -32 106 -40 51 -12 72 -23 107 -58 37 -36 46 -41 55
-29 39 61 48 82 53 137 5 52 14 74 56 140 45 69 50 84 50 133 0 31 -9 88 -20
128 -11 39 -20 101 -20 136 0 135 57 344 119 432 35 51 36 52 108 64 72 13 73
13 115 69 49 66 51 68 96 76 31 6 38 1 112 -68 98 -94 110 -102 190 -116 36
-7 72 -14 82 -17 9 -3 35 -41 58 -86 48 -91 49 -76 -13 -229 l-35 -86 30 -47
c16 -26 34 -46 40 -44 17 6 77 156 90 226 11 59 15 65 49 82 71 37 90 96 54
170 -7 14 -16 35 -19 48 -12 38 26 27 71 -21 22 -23 59 -51 82 -61 l42 -19 39
38 c48 47 52 83 15 131 -14 18 -29 44 -35 58 -5 15 -26 34 -45 43 -31 15 -44
15 -103 5 -79 -13 -124 -5 -215 38 -36 17 -94 34 -137 40 -166 23 -168 36 -10
45 219 12 201 6 261 91 40 55 71 86 117 115 66 42 65 39 46 109 -2 8 -26 27
-53 43 -41 22 -61 27 -120 27 -39 0 -71 2 -71 5 0 3 7 17 16 30 15 23 14 25
-27 54 -36 26 -51 31 -102 31 -49 0 -66 -5 -93 -25 -35 -27 -44 -23 -61 29 -7
24 -20 33 -60 47 -49 16 -52 16 -81 -1 -21 -13 -33 -29 -36 -52 -24 -148 -40
-218 -58 -245 -11 -18 -24 -33 -28 -33 -18 0 -16 192 3 253 28 94 24 109 -28
135 -47 23 -112 27 -188 12z"/>
<path d="M6093 10105 c-11 -8 -28 -35 -38 -61 l-17 -46 30 -31 31 -31 36 17
c40 19 44 32 15 47 -16 8 -20 21 -20 60 0 55 -8 65 -37 45z"/>
<path d="M5882 9828 c-40 -41 -65 -57 -109 -70 -32 -10 -82 -31 -110 -48 -45
-26 -53 -35 -53 -60 0 -27 3 -30 30 -30 28 0 30 -2 30 -41 l0 -41 43 7 c66 11
146 44 181 76 25 21 35 40 39 73 4 24 20 67 36 94 l29 50 -22 21 c-12 12 -27
21 -32 21 -5 0 -33 -24 -62 -52z"/>
<path d="M2811 5750 c-21 -61 -16 -72 30 -68 36 3 44 8 62 40 12 20 19 40 15
43 -4 4 -27 10 -51 12 -43 5 -45 4 -56 -27z"/>
<path d="M1678 4369 c-43 -21 -78 -41 -78 -44 0 -3 38 -5 85 -5 l85 0 0 45 c0
25 -3 45 -7 45 -5 -1 -43 -19 -85 -41z"/>
<path d="M1603 4247 c-39 -19 -43 -25 -43 -57 0 -19 7 -45 15 -57 15 -21 15
-21 74 -3 32 10 91 21 132 23 66 4 75 7 96 33 l23 29 -30 28 c-29 26 -35 27
-128 26 -78 0 -105 -4 -139 -22z"/>
<path d="M1413 4159 c-24 -7 -33 -16 -38 -40 -8 -35 -1 -43 57 -60 29 -9 44
-9 67 1 38 15 39 38 5 79 -27 32 -39 35 -91 20z"/>
</g>
</svg>
