<?xml version="1.0" standalone="no"?>
<!DOCTYPE svg PUBLIC "-//W3C//DTD SVG 20010904//EN"
 "http://www.w3.org/TR/2001/REC-SVG-20010904/DTD/svg10.dtd">
<svg version="1.0" xmlns="http://www.w3.org/2000/svg"
 width="768.000000pt" height="1024.000000pt" viewBox="0 0 768.000000 1024.000000"
 preserveAspectRatio="xMidYMid meet">
<metadata>
Created by potrace 1.16, written by Peter Selinger 2001-2019
</metadata>
<g transform="translate(0.000000,1024.000000) scale(0.100000,-0.100000)"
fill="#000000" stroke="none">
<path d="M4222 9776 c-16 -19 -38 -48 -48 -65 -10 -17 -25 -31 -34 -31 -47 0
-160 -121 -160 -172 0 -15 11 -36 25 -49 29 -28 31 -56 10 -184 -27 -162 -17
-214 48 -254 64 -39 141 -21 173 41 9 16 35 49 60 72 24 23 44 51 44 62 0 11
11 36 25 56 39 58 46 85 39 155 -6 53 -13 72 -37 100 -16 18 -28 35 -26 36 2
2 16 8 31 15 20 8 31 24 42 63 31 103 21 130 -64 168 -65 30 -93 27 -128 -13z"/>
<path d="M4212 8476 c-16 -19 -33 -45 -37 -58 -9 -29 -120 -138 -140 -138 -18
0 -20 37 -4 90 17 55 5 88 -36 106 -43 18 -86 18 -128 0 -47 -19 -134 -106
-143 -141 -4 -16 -2 -78 4 -136 12 -103 11 -107 -13 -167 -29 -71 -32 -120 -9
-164 9 -18 15 -51 14 -82 -2 -28 -2 -59 -1 -69 2 -25 55 -54 112 -62 45 -6 49
-9 49 -34 0 -40 -35 -52 -165 -57 -148 -7 -187 -18 -230 -65 -43 -48 -46 -91
-11 -132 46 -54 44 -78 -17 -180 -75 -126 -84 -145 -92 -197 -3 -25 -33 -97
-64 -160 -75 -149 -125 -345 -120 -467 5 -89 -20 -40 253 -502 89 -151 156
-274 156 -289 0 -13 -18 -81 -40 -151 -80 -257 -232 -749 -370 -1196 -77 -253
-146 -472 -151 -487 -8 -18 -24 -32 -53 -42 -231 -85 -917 -334 -1681 -611
-511 -185 -935 -342 -941 -348 -15 -16 -88 -403 -80 -423 3 -9 109 -174 234
-368 328 -505 483 -759 501 -824 6 -18 3 -71 -5 -138 -21 -155 -19 -162 90
-274 51 -52 121 -130 156 -173 97 -119 135 -131 244 -73 35 19 99 42 141 51
65 15 85 16 134 5 62 -13 108 -2 149 37 10 10 40 38 65 62 40 39 54 45 108 53
59 8 139 42 139 60 0 5 10 12 23 17 21 8 348 35 414 34 35 -1 134 -35 173 -60
50 -33 171 -15 209 31 8 9 22 16 33 16 12 0 63 42 124 102 100 99 104 105 104
146 0 23 9 68 20 99 26 74 25 89 -6 135 -25 36 -26 39 -10 62 9 14 33 41 54
61 21 19 56 67 78 106 44 81 78 114 134 129 23 6 128 10 253 9 118 -1 220 2
227 6 7 5 53 7 101 6 112 -2 154 13 175 66 9 21 39 61 68 88 73 72 99 148 145
435 l10 65 119 116 c139 137 186 163 314 179 48 6 122 17 165 25 43 9 157 20
253 25 210 12 218 14 232 45 14 32 1 77 -58 200 -39 82 -43 96 -37 143 5 43 2
59 -21 102 -24 47 -26 57 -20 130 6 69 4 83 -15 115 -11 20 -21 38 -21 39 0 2
13 20 29 40 18 22 35 61 42 94 7 31 28 89 46 127 30 62 33 76 27 123 -6 54 -6
54 39 100 25 26 54 66 64 89 21 48 161 199 173 186 4 -4 3 -31 -3 -60 -19 -89
20 -131 109 -117 25 3 56 1 77 -6 49 -18 77 -7 117 48 35 48 133 239 200 392
20 47 54 112 75 145 56 89 294 326 391 390 79 52 83 56 109 124 29 77 74 150
170 281 60 81 124 196 140 250 4 14 24 54 46 90 91 153 113 281 63 365 -23 40
-32 46 -102 69 -42 14 -95 26 -117 26 -58 0 -94 24 -175 115 -71 80 -90 111
-130 217 -24 63 -34 74 -94 103 -35 17 -44 29 -64 80 -25 61 -53 100 -177 240
-39 44 -84 96 -101 117 -16 20 -60 61 -98 92 l-68 57 -114 -2 -115 -1 -55 38
c-56 39 -57 39 -183 45 -118 6 -136 10 -271 57 -80 27 -161 53 -180 57 -71 15
-335 107 -365 127 -60 42 -138 125 -208 223 -39 55 -121 161 -182 236 -185
228 -202 254 -214 341 -5 35 -24 95 -42 133 -42 87 -68 96 -117 41z"/>
<path d="M6482 4378 c-13 -7 -40 -44 -62 -87 -22 -42 -67 -110 -101 -151 -78
-96 -99 -140 -99 -211 0 -74 16 -116 51 -134 65 -34 102 -7 193 143 38 63 82
121 106 141 l41 33 -6 122 c-6 104 -10 123 -27 139 -23 19 -62 21 -96 5z"/>
</g>
</svg>
