<?xml version="1.0" standalone="no"?>
<!DOCTYPE svg PUBLIC "-//W3C//DTD SVG 20010904//EN"
 "http://www.w3.org/TR/2001/REC-SVG-20010904/DTD/svg10.dtd">
<svg version="1.0" xmlns="http://www.w3.org/2000/svg"
 width="584.000000pt" height="588.000000pt" viewBox="0 0 584.000000 588.000000"
 preserveAspectRatio="xMidYMid meet">
<metadata>
Created by potrace 1.16, written by Peter Selinger 2001-2019
</metadata>
<g transform="translate(0.000000,588.000000) scale(0.100000,-0.100000)"
fill="#000000" stroke="none">
<path d="M4668 5700 c-32 -10 -85 -32 -118 -49 -53 -28 -66 -31 -114 -25 -54
7 -54 7 -113 -44 -32 -28 -68 -59 -81 -69 l-24 -19 52 -129 c51 -128 52 -131
47 -213 -3 -47 -11 -89 -18 -98 -8 -9 -60 -57 -116 -106 -57 -49 -103 -93
-103 -98 0 -5 14 -29 30 -53 52 -77 36 -140 -55 -226 -48 -45 -59 -51 -97 -51
-45 0 -141 40 -197 81 -31 22 -31 23 -86 5 -45 -14 -55 -21 -55 -39 0 -42 21
-96 43 -114 36 -28 55 -64 62 -118 5 -42 3 -55 -14 -76 -24 -31 -80 -49 -153
-49 -34 0 -60 -5 -67 -13 -6 -8 -35 -75 -64 -150 -30 -74 -64 -148 -76 -163
-17 -21 -21 -40 -21 -96 0 -39 -6 -81 -14 -96 -13 -25 -94 -98 -100 -91 -2 2
-13 23 -25 46 -24 48 -52 68 -69 51 -7 -7 -12 -18 -12 -26 0 -10 -8 -12 -32
-7 -38 8 -84 30 -93 44 -3 6 -25 13 -50 16 -39 6 -48 4 -82 -23 -21 -17 -66
-43 -100 -58 -35 -15 -63 -30 -63 -35 0 -5 9 -13 21 -19 40 -22 -15 -58 -119
-80 -56 -12 -64 -11 -81 4 -25 22 -92 32 -120 17 -11 -7 -30 -29 -41 -51 -23
-46 -27 -48 -87 -63 -83 -21 -88 -39 -111 -386 -6 -95 -9 -105 -32 -122 -14
-10 -57 -24 -97 -30 -60 -10 -83 -9 -145 4 -111 25 -333 52 -423 52 -44 0 -99
-6 -123 -14 -35 -12 -52 -12 -88 -3 -24 7 -83 12 -131 12 -59 0 -154 13 -302
41 -241 46 -177 20 -564 224 -71 37 -131 65 -133 62 -6 -6 39 -113 91 -217 18
-36 38 -88 44 -116 16 -66 67 -150 144 -235 52 -58 71 -72 122 -89 80 -27 123
-54 130 -83 4 -16 20 -28 56 -41 40 -14 49 -21 44 -34 -4 -9 -11 -95 -16 -190
-11 -186 -8 -202 36 -202 25 0 88 -39 117 -73 15 -19 17 -32 12 -87 -10 -113
-46 -140 -130 -95 -46 25 -55 26 -134 19 -48 -3 -100 -14 -120 -24 -19 -10
-59 -23 -88 -29 -30 -6 -62 -16 -73 -21 -25 -14 -49 -62 -49 -100 0 -23 -10
-40 -36 -65 -35 -33 -35 -35 -29 -88 6 -43 2 -70 -19 -137 -28 -87 -28 -110
-1 -110 13 0 15 -6 10 -29 -10 -45 17 -54 85 -30 80 28 150 24 150 -8 0 -17
22 -15 77 8 29 12 39 11 80 -5 27 -10 69 -20 94 -22 26 -1 63 -7 83 -12 34
-10 37 -9 65 25 l30 36 35 -31 c41 -36 74 -48 89 -33 19 19 43 12 55 -14 7
-14 24 -31 39 -37 16 -7 43 -25 61 -40 41 -35 75 -35 126 -1 47 34 103 37 163
9 36 -16 52 -17 124 -9 76 9 86 8 123 -13 34 -18 61 -23 163 -26 135 -4 140
-6 185 -77 32 -52 35 -83 11 -157 -9 -30 -13 -57 -9 -61 9 -10 72 -9 124 1
l42 8 0 -47 c0 -31 8 -60 24 -88 21 -36 25 -57 28 -145 3 -93 1 -105 -16 -118
-11 -7 -18 -15 -15 -16 2 -2 13 -8 24 -14 13 -7 21 -24 23 -45 2 -19 6 -37 10
-41 4 -4 41 -12 82 -19 83 -12 95 -17 163 -68 32 -24 47 -42 47 -58 0 -53 59
-11 79 56 9 32 19 42 51 55 22 9 51 16 63 16 24 0 56 28 76 68 10 18 17 21 34
15 12 -4 48 -6 79 -5 36 2 86 -5 130 -17 125 -35 170 -41 243 -30 38 5 82 16
99 24 35 18 106 31 106 20 0 -5 -7 -17 -17 -27 -13 -15 -14 -23 -4 -44 6 -14
17 -24 24 -22 6 3 44 13 84 23 69 18 72 19 66 46 -3 14 0 35 6 46 14 28 -20
263 -49 328 -16 37 -20 61 -15 90 4 33 1 45 -15 63 -11 12 -30 22 -41 22 -32
0 -61 18 -107 68 l-43 47 8 75 c4 41 8 119 8 172 0 116 -6 126 -88 133 -73 6
-187 56 -186 82 1 29 21 74 63 141 30 48 46 64 72 71 47 13 106 62 159 131 37
48 55 62 100 79 72 27 87 26 124 -4 21 -18 31 -36 33 -62 4 -51 24 -60 95 -44
90 21 152 24 224 11 63 -12 69 -12 120 12 81 38 130 86 179 178 52 97 90 131
185 167 88 33 148 89 165 153 17 65 43 102 103 149 35 27 71 44 107 52 60 13
102 49 126 106 19 44 17 66 -6 96 l-21 26 38 24 c21 14 68 43 105 67 l67 42
41 124 c43 129 51 187 37 284 l-7 55 62 39 c68 42 218 87 261 79 40 -8 113 47
121 92 4 19 4 40 1 45 -16 26 -74 43 -145 45 -104 2 -155 28 -164 84 -9 60
-46 94 -168 158 -106 55 -113 61 -162 131 l-51 73 -6 212 c-5 189 -8 218 -28
268 -21 52 -22 60 -9 109 12 48 16 55 46 62 26 7 37 18 52 53 13 29 26 45 37
45 10 0 36 10 58 23 30 17 41 30 46 56 9 45 4 57 -32 71 -38 16 -69 56 -69 87
0 17 -22 49 -66 96 -36 40 -89 109 -117 155 l-51 83 -71 -6 c-70 -7 -73 -6
-93 20 -19 25 -21 36 -16 99 4 39 11 76 16 83 5 6 46 26 91 44 121 48 116 44
108 81 -7 32 -8 33 -69 39 -53 5 -68 11 -95 38 -38 35 -33 35 -109 11z"/>
</g>
</svg>
