<?xml version="1.0" standalone="no"?>
<!DOCTYPE svg PUBLIC "-//W3C//DTD SVG 20010904//EN"
 "http://www.w3.org/TR/2001/REC-SVG-20010904/DTD/svg10.dtd">
<svg version="1.0" xmlns="http://www.w3.org/2000/svg"
 width="640.000000pt" height="1024.000000pt" viewBox="0 0 640.000000 1024.000000"
 preserveAspectRatio="xMidYMid meet">
<metadata>
Created by potrace 1.16, written by Peter Selinger 2001-2019
</metadata>
<g transform="translate(0.000000,1024.000000) scale(0.100000,-0.100000)"
fill="#000000" stroke="none">
<path d="M5964 10211 c-58 -43 -80 -92 -65 -142 7 -21 23 -47 38 -56 70 -48
83 -68 83 -129 l0 -58 75 -72 c46 -44 75 -80 75 -92 0 -12 -11 -42 -25 -68
-36 -67 -32 -92 25 -176 67 -98 66 -116 -9 -187 -49 -46 -62 -67 -80 -121 -12
-36 -28 -76 -37 -88 -16 -23 -185 -161 -221 -181 -38 -20 -93 -12 -173 24 -43
19 -87 35 -99 35 -39 0 -80 -29 -121 -85 -45 -61 -135 -133 -178 -141 -15 -3
-56 2 -91 11 -63 16 -64 16 -87 -6 -52 -49 -54 -134 -8 -279 34 -108 32 -130
-17 -174 -44 -41 -77 -56 -117 -56 -15 0 -41 -8 -57 -18 -32 -20 -48 -48 -99
-177 l-31 -79 -58 3 c-65 3 -107 -16 -107 -48 0 -10 7 -35 16 -56 12 -29 14
-56 8 -125 -10 -135 9 -153 180 -166 68 -5 99 -11 103 -20 11 -29 -10 -70 -62
-120 -30 -28 -57 -64 -61 -80 -12 -51 -32 -74 -65 -74 -35 0 -35 -4 -9 117 12
55 12 64 -4 88 -17 26 -21 27 -79 22 -39 -3 -70 -13 -89 -27 -29 -21 -59 -23
-99 -6 -12 5 -20 -4 -33 -38 -17 -43 -17 -49 -1 -96 24 -71 10 -106 -71 -178
-42 -37 -68 -69 -75 -92 -33 -107 -47 -115 -219 -112 -138 1 -180 -9 -180 -44
0 -36 15 -59 55 -84 33 -20 42 -21 159 -14 111 6 131 4 195 -15 39 -12 71 -25
71 -30 0 -4 -5 -23 -11 -40 -10 -28 -9 -36 7 -52 18 -18 231 -156 294 -192
l32 -17 -6 -98 c-7 -94 -6 -99 23 -159 47 -99 48 -118 5 -188 -51 -83 -79
-150 -94 -218 -12 -62 -30 -77 -88 -77 -15 0 -61 -16 -102 -36 -114 -54 -215
-77 -249 -55 -12 7 -10 14 8 36 27 36 27 70 -1 90 -52 36 -268 83 -268 58 0
-6 9 -30 20 -54 30 -66 27 -105 -10 -124 -16 -8 -38 -15 -50 -15 -53 0 4 -76
91 -119 94 -47 155 -57 250 -41 44 7 82 11 84 9 2 -2 -2 -23 -8 -47 -9 -32 -8
-52 2 -84 14 -48 35 -132 48 -193 6 -32 15 -44 43 -58 69 -36 207 -3 266 64
16 18 48 52 70 75 31 31 44 53 49 85 4 24 20 77 36 117 37 92 36 128 -1 202
-36 71 -37 80 -7 108 51 48 99 17 157 -101 22 -45 52 -125 66 -177 15 -52 28
-97 30 -99 2 -3 16 6 30 20 17 16 41 25 76 29 86 9 89 53 8 114 -66 49 -74
123 -17 161 13 8 55 18 93 21 131 11 158 28 174 114 25 131 109 119 149 -22
28 -97 36 -109 69 -102 54 13 81 35 118 96 47 76 48 117 9 238 -25 77 -27 94
-22 180 3 52 13 120 22 150 9 30 20 102 25 160 14 163 59 256 147 302 17 9 39
28 48 42 15 23 16 33 5 92 -7 36 -10 83 -7 104 6 49 78 144 139 185 156 105
198 155 198 235 0 58 -18 87 -105 164 -86 78 -105 108 -105 166 0 59 22 99 92
166 33 33 77 80 98 106 l37 46 -4 144 c-3 94 -10 159 -20 189 l-16 47 37 50
c37 51 36 47 62 243 4 26 1 77 -5 113 -12 66 -11 68 24 145 33 73 35 85 35
179 0 78 -5 118 -24 179 -46 149 -53 385 -15 501 17 51 4 78 -79 166 -42 45
-94 103 -115 129 -41 51 -74 72 -127 82 -29 5 -42 1 -76 -24z"/>
<path d="M3676 5323 c26 -118 44 -143 113 -164 61 -18 66 -36 31 -103 -17 -30
-30 -64 -30 -75 0 -30 28 -51 67 -51 28 0 43 8 70 36 19 21 48 40 66 43 45 9
63 48 43 94 -22 53 -62 85 -175 138 -57 27 -120 63 -141 79 -47 37 -52 37 -44
3z"/>
<path d="M3460 5011 c-16 -30 -12 -53 16 -117 15 -33 29 -61 30 -63 10 -11 83
34 88 53 12 49 -21 112 -71 132 -43 18 -50 18 -63 -5z"/>
<path d="M1945 4916 c-26 -40 -16 -124 20 -171 68 -90 242 -111 320 -39 30 28
31 38 5 64 -14 14 -33 20 -68 20 -100 0 -203 48 -234 108 -23 46 -24 47 -43
18z"/>
<path d="M3761 4809 c-13 -5 -49 -25 -80 -43 -31 -18 -80 -42 -109 -52 -56
-19 -124 -70 -144 -107 -6 -12 -14 -51 -17 -87 l-6 -65 -70 -35 c-39 -19 -90
-50 -114 -67 -73 -55 -131 -43 -256 51 -76 57 -133 89 -177 100 -48 11 -93 61
-128 141 -18 41 -37 75 -42 75 -15 0 -38 -66 -38 -109 0 -48 27 -114 66 -160
25 -30 174 -144 305 -234 42 -29 42 -27 23 -94 -9 -34 53 -93 98 -93 58 0 132
43 210 123 40 42 101 92 136 112 75 44 95 73 117 174 15 66 23 81 59 116 39
38 99 65 142 65 27 -1 52 -22 88 -77 32 -49 82 -89 125 -100 34 -8 66 31 81
101 15 71 5 87 -64 116 -37 14 -57 29 -62 44 -3 11 -18 39 -32 61 -15 22 -27
41 -27 42 -4 9 -64 11 -84 2z"/>
<path d="M3199 4744 c-31 -32 -38 -35 -74 -30 -33 4 -51 -1 -102 -30 -35 -19
-63 -41 -63 -48 0 -8 20 -30 45 -50 41 -34 45 -42 45 -80 0 -91 75 -127 141
-68 31 28 37 53 28 107 -3 16 5 23 45 35 80 26 102 71 72 145 -27 65 -85 73
-137 19z"/>
<path d="M3069 3614 c-49 -76 -78 -152 -79 -207 0 -41 -24 -107 -43 -119 -7
-4 -29 -8 -49 -8 -45 0 -78 28 -78 66 0 14 9 37 20 51 23 30 30 129 8 121 -7
-3 -38 -13 -68 -23 -111 -36 -125 -60 -95 -162 9 -31 14 -80 13 -123 -3 -68
-1 -73 25 -96 36 -31 119 -33 202 -4 78 27 93 25 144 -15 42 -34 101 -48 101
-25 0 6 -9 38 -21 72 -25 76 -22 142 12 216 l23 53 -18 82 c-10 45 -23 106
-29 135 -6 28 -14 52 -17 52 -4 0 -27 -30 -51 -66z"/>
<path d="M1668 3583 c-30 -35 -28 -74 7 -180 8 -24 34 -1 51 45 24 64 31 72
68 69 28 -2 31 1 31 28 0 21 -7 33 -25 42 -38 19 -114 17 -132 -4z"/>
<path d="M1345 2943 c8 -121 27 -180 77 -242 57 -70 88 -87 126 -67 36 18 58
44 76 88 l15 36 -61 6 c-79 9 -104 34 -165 165 -59 130 -76 133 -68 14z"/>
<path d="M2882 2844 c-51 -40 -56 -57 -31 -108 29 -64 41 -71 87 -57 43 13
132 67 132 80 0 5 -19 14 -42 20 -66 17 -110 47 -103 71 8 27 -3 25 -43 -6z"/>
<path d="M1885 2566 c-47 -21 -88 -70 -80 -95 11 -34 34 -51 72 -51 73 0 133
82 99 135 -18 28 -46 31 -91 11z"/>
<path d="M1604 2128 c25 -183 19 -213 -60 -288 -63 -61 -79 -88 -89 -152 -10
-68 -35 -101 -112 -144 -97 -56 -108 -81 -117 -267 -5 -104 -3 -152 5 -171 24
-52 93 -20 124 56 26 65 41 78 95 78 48 0 104 28 141 71 8 10 55 45 104 78 48
33 94 70 102 81 15 21 14 58 -2 106 -6 19 -2 22 34 27 80 10 119 61 109 143
-4 37 -37 54 -110 54 -68 0 -69 3 -35 88 42 101 80 230 74 246 -8 20 -56 21
-104 1 -50 -21 -75 -19 -117 10 -20 14 -39 25 -43 25 -3 0 -3 -19 1 -42z"/>
<path d="M203 440 c-5 -18 -14 -20 -94 -20 -63 0 -89 -4 -89 -12 0 -7 12 -58
26 -115 30 -115 27 -156 -11 -202 -32 -37 -32 -65 0 -79 64 -29 129 0 231 102
74 74 114 137 114 180 0 14 -17 45 -40 73 -23 26 -49 58 -60 71 -24 28 -70 30
-77 2z"/>
</g>
</svg>
