<?xml version="1.0" standalone="no"?>
<!DOCTYPE svg PUBLIC "-//W3C//DTD SVG 20010904//EN"
 "http://www.w3.org/TR/2001/REC-SVG-20010904/DTD/svg10.dtd">
<svg version="1.0" xmlns="http://www.w3.org/2000/svg"
 width="1024.000000pt" height="1024.000000pt" viewBox="0 0 1024.000000 1024.000000"
 preserveAspectRatio="xMidYMid meet">
<metadata>
Created by potrace 1.16, written by Peter Selinger 2001-2019
</metadata>
<g transform="translate(0.000000,1024.000000) scale(0.100000,-0.100000)"
fill="#000000" stroke="none">
<path d="M6300 9051 c0 -5 -12 -23 -26 -40 -21 -26 -25 -38 -20 -66 5 -24 1
-44 -14 -72 -11 -21 -20 -50 -20 -65 0 -40 -59 -97 -107 -105 -21 -3 -54 -19
-74 -34 -24 -19 -49 -29 -71 -29 -19 0 -39 -5 -45 -11 -18 -18 -71 8 -90 45
-9 17 -20 34 -25 37 -18 12 -202 -3 -219 -17 -9 -8 -19 -11 -23 -7 -4 5 -51 9
-104 9 l-97 1 -18 -76 c-10 -42 -24 -94 -31 -116 -8 -22 -19 -62 -25 -90 -11
-43 -10 -51 5 -62 14 -10 15 -18 4 -62 -14 -60 -44 -107 -83 -130 -26 -15 -29
-15 -40 0 -14 19 -70 31 -102 23 -20 -5 -22 -10 -18 -42 2 -20 0 -56 -6 -79
-6 -24 -16 -61 -21 -83 -6 -23 -14 -48 -19 -58 -5 -9 -15 -57 -21 -107 -14
-109 -54 -285 -76 -331 -9 -18 -13 -38 -9 -44 4 -6 -4 -48 -18 -93 -39 -130
-75 -258 -88 -312 -7 -27 -22 -71 -35 -96 -12 -25 -34 -85 -48 -135 -14 -49
-39 -114 -55 -144 -16 -30 -32 -74 -36 -97 -3 -23 -13 -47 -21 -54 -8 -6 -14
-21 -14 -33 0 -11 -30 -70 -65 -131 -36 -60 -65 -117 -65 -127 0 -9 -9 -22
-21 -28 -12 -7 -18 -18 -15 -26 3 -8 -2 -27 -12 -43 -80 -133 -129 -207 -149
-225 -23 -20 -113 -141 -158 -213 -28 -44 -247 -269 -311 -319 -29 -23 -82
-70 -118 -105 l-65 -64 59 -159 c33 -88 60 -166 60 -173 0 -7 4 -21 9 -31 6
-9 24 -62 42 -117 69 -217 166 -444 273 -642 88 -162 146 -330 146 -424 0 -56
3 -62 42 -105 l41 -45 -21 -45 c-12 -24 -22 -60 -22 -78 0 -32 5 -37 76 -77
l75 -44 44 -130 c24 -71 59 -164 78 -205 58 -125 130 -312 137 -360 4 -25 27
-88 50 -140 23 -52 62 -148 86 -213 24 -64 50 -131 59 -147 8 -16 15 -52 15
-81 0 -35 7 -63 21 -86 16 -25 19 -42 14 -66 -4 -18 -9 -61 -11 -97 -4 -54 -1
-71 18 -104 13 -22 36 -49 52 -60 28 -21 29 -21 40 -2 21 36 68 86 81 86 7 0
20 19 29 43 10 26 33 57 60 80 l44 37 0 89 c0 67 5 103 21 145 12 31 21 74 21
94 0 22 12 61 30 95 27 52 30 68 30 149 0 113 23 202 62 240 15 15 28 30 28
33 0 3 23 33 50 66 28 33 50 62 50 65 0 11 -31 119 -40 139 -31 70 -31 91 -5
136 13 24 25 54 25 67 0 28 18 64 36 75 25 15 15 63 -26 126 l-41 63 26 33
c13 19 29 55 34 82 5 26 15 77 22 113 14 75 30 110 63 142 14 13 50 72 80 132
45 88 56 118 56 157 0 41 4 53 27 72 70 58 74 64 67 107 -11 66 25 129 94 165
l54 29 -6 83 -7 83 34 43 c19 23 42 66 53 95 24 70 10 125 -50 196 -48 57 -66
87 -66 111 0 15 96 183 111 195 4 3 17 25 30 50 21 41 24 60 27 195 3 148 16
259 33 281 5 6 20 52 33 102 13 50 38 114 55 142 33 54 37 79 20 128 -8 22 -7
36 1 53 10 18 9 24 -4 31 -13 7 -14 13 -6 29 8 15 7 23 -5 35 -8 8 -15 22 -15
30 0 8 -5 23 -12 34 -10 16 -9 23 9 42 23 25 33 75 19 97 -5 8 -8 32 -8 54 1
22 -2 45 -7 51 -15 18 -24 93 -12 101 6 3 11 16 11 29 0 12 11 32 23 44 16 15
24 35 25 60 1 20 9 54 19 75 15 34 15 50 5 135 -6 53 -10 126 -8 162 1 36 -2
70 -6 77 -10 12 6 90 29 142 10 23 12 36 5 43 -7 7 -6 19 6 36 15 24 15 25
-11 48 -25 21 -26 26 -15 46 7 13 20 28 29 35 15 11 18 67 6 103 -16 45 -15
61 5 71 32 17 59 49 56 66 -2 11 8 20 30 26 42 13 39 25 -17 54 -1 1 10 18 25
39 18 23 31 55 35 88 4 28 11 71 14 96 9 58 -26 138 -68 158 -20 10 -25 17
-18 26 5 6 13 46 17 88 5 59 3 83 -9 107 -15 30 -15 31 27 69 35 32 43 48 54
101 7 34 20 78 29 97 13 27 14 38 5 59 -14 31 -16 92 -3 97 5 2 11 14 13 28 2
20 -2 26 -20 28 -13 2 -29 -2 -37 -8 -10 -9 -19 -9 -35 0 -12 6 -24 9 -26 7
-3 -3 -16 6 -29 19 -24 24 -65 33 -65 15z"/>
</g>
</svg>
