<?xml version="1.0" standalone="no"?>
<!DOCTYPE svg PUBLIC "-//W3C//DTD SVG 20010904//EN"
 "http://www.w3.org/TR/2001/REC-SVG-20010904/DTD/svg10.dtd">
<svg version="1.0" xmlns="http://www.w3.org/2000/svg"
 width="985.000000pt" height="428.000000pt" viewBox="0 0 985.000000 428.000000"
 preserveAspectRatio="xMidYMid meet">
<metadata>
Created by potrace 1.16, written by Peter Selinger 2001-2019
</metadata>
<g transform="translate(0.000000,428.000000) scale(0.100000,-0.100000)"
fill="#000000" stroke="none">
<path d="M5807 4079 c-15 -11 -32 -19 -39 -18 -24 4 -73 -14 -105 -38 -36 -27
-44 -48 -14 -38 35 11 32 -13 -4 -34 -19 -11 -35 -27 -35 -36 0 -18 -99 -125
-116 -125 -27 0 -85 -42 -80 -59 3 -9 8 -29 12 -46 7 -29 6 -29 -12 -14 -10 9
-30 19 -44 21 -14 3 -33 9 -43 13 -14 6 -20 1 -29 -23 -7 -17 -20 -33 -29 -35
-14 -4 -18 -19 -21 -73 -2 -38 0 -73 4 -78 14 -18 56 11 63 44 4 20 18 38 38
51 50 30 61 26 53 -20 -3 -22 -2 -51 3 -64 8 -20 15 -24 37 -19 41 8 21 -15
-24 -28 -20 -5 -52 -10 -70 -10 -29 0 -33 -3 -30 -22 4 -26 28 -37 28 -13 0 9
5 15 12 13 21 -7 20 -26 -1 -33 -33 -10 -25 -24 16 -27 35 -3 40 -7 66 -61
l29 -58 41 6 c41 5 79 -7 64 -21 -3 -4 -35 -6 -69 -6 -66 1 -88 -9 -88 -39 0
-11 -4 -19 -10 -19 -5 0 -10 -9 -10 -20 0 -24 -11 -25 -53 -3 l-32 17 38 9
c22 5 45 19 54 33 14 23 14 26 -3 45 -14 16 -27 20 -51 16 -30 -5 -61 12 -47
26 4 3 4 14 0 23 -5 13 -9 14 -22 4 -11 -10 -18 -10 -26 -2 -7 7 -15 12 -19
12 -12 0 -19 -31 -10 -48 4 -9 11 -34 14 -54 l6 -38 -25 16 c-22 15 -24 15
-24 0 0 -10 -5 -13 -16 -9 -13 5 -15 1 -10 -15 3 -12 9 -31 12 -42 3 -11 1
-27 -5 -37 -8 -16 -10 -14 -16 10 -8 32 -25 36 -25 5 0 -20 -1 -20 -19 -4 -11
10 -21 28 -23 40 -4 28 -48 36 -48 8 0 -11 7 -25 15 -32 8 -7 15 -17 15 -22 0
-6 -7 -4 -16 3 -14 11 -18 11 -29 -4 -10 -14 -14 -15 -18 -5 -4 11 -8 11 -27
0 -32 -19 -35 -8 -6 23 15 16 26 33 26 39 0 12 57 66 70 66 4 0 19 9 33 20 14
11 32 17 40 14 12 -4 17 4 21 38 14 112 23 153 48 205 21 46 18 63 -13 63 -18
0 -20 4 -14 38 4 28 2 42 -9 51 -13 11 -33 -6 -131 -107 -66 -69 -129 -125
-148 -132 -18 -7 -41 -16 -52 -20 -11 -4 -47 -17 -80 -28 -79 -25 -126 -43
-147 -53 -9 -5 -30 -6 -46 -3 -17 4 -32 1 -36 -5 -4 -6 -27 -11 -52 -11 -25 0
-55 -5 -67 -12 -34 -19 -90 -38 -113 -38 -19 0 -72 -23 -197 -86 -16 -8 -33
-14 -38 -14 -5 0 -36 -18 -68 -40 -32 -22 -74 -47 -94 -55 -20 -8 -47 -31 -60
-50 -31 -46 -92 -111 -121 -130 -19 -13 -28 -13 -50 -4 -21 10 -29 9 -43 -3
-10 -8 -31 -18 -47 -22 -16 -4 -41 -16 -54 -27 -14 -10 -39 -19 -56 -19 -36 0
-101 -21 -118 -38 -7 -7 -26 -12 -43 -12 -16 0 -46 -5 -65 -11 -71 -23 -475
-27 -497 -5 -4 3 -34 6 -68 6 -52 0 -68 4 -101 29 -51 37 -162 154 -201 211
-17 25 -43 55 -57 67 -14 13 -26 29 -26 37 0 31 -149 112 -158 86 -7 -19 -22
-10 -22 13 0 12 -4 28 -9 36 -7 10 -5 18 5 26 13 9 6 20 -40 68 -58 59 -75 67
-96 42 -10 -12 -9 -16 6 -21 44 -14 64 -24 64 -34 0 -14 -63 -13 -77 1 -13 13
-43 5 -43 -10 0 -5 8 -12 18 -15 30 -11 89 -70 110 -113 21 -41 65 -74 115
-87 24 -6 27 -11 27 -49 0 -69 -29 -85 -77 -41 -24 22 -33 25 -70 19 -34 -5
-43 -3 -43 9 0 8 -4 17 -9 20 -16 10 -41 -5 -41 -24 0 -10 -8 -20 -17 -24 -10
-3 -26 -11 -35 -18 -15 -11 -22 -8 -48 17 l-30 29 -29 -22 c-18 -13 -53 -24
-85 -28 -53 -6 -56 -6 -56 15 0 12 -7 24 -15 27 -8 4 -15 12 -15 19 0 8 -14
23 -30 35 -26 18 -35 20 -63 11 -24 -8 -42 -7 -72 3 -43 16 -43 17 -32 98 6
46 5 48 -23 63 -30 15 -40 35 -19 35 7 0 9 9 6 23 -14 55 77 92 116 47 9 -11
22 -20 28 -20 16 0 1 73 -17 83 -8 4 -14 15 -14 22 0 25 -26 17 -39 -12 -12
-26 -14 -27 -26 -10 -13 18 -14 17 -20 -2 -9 -29 -33 -26 -41 4 -7 26 -24 35
-24 11 0 -7 -14 -16 -32 -20 -26 -5 -37 -1 -60 21 -18 17 -28 37 -28 55 0 21
-5 28 -19 28 -16 0 -31 18 -31 36 0 2 12 4 28 4 17 0 32 8 40 20 11 18 9 24
-18 46 -37 31 -38 56 -5 82 14 11 25 27 25 35 0 9 5 19 10 22 5 3 10 13 10 22
0 14 -2 14 -20 -2 -24 -21 -37 -14 -115 60 -80 77 -206 185 -215 185 -4 0 -6
-9 -3 -20 5 -17 0 -20 -30 -20 -34 0 -37 -3 -47 -40 -8 -29 -17 -41 -35 -46
-45 -11 -115 25 -115 60 0 14 -11 28 -34 40 -18 10 -39 29 -45 42 -7 17 -19
24 -38 24 -16 0 -47 9 -69 19 l-42 19 -32 -33 c-27 -28 -31 -38 -25 -64 4 -17
18 -45 31 -61 l25 -29 -38 -10 c-21 -6 -56 -15 -79 -21 l-41 -10 -6 -167 c-9
-208 -9 -488 -1 -496 3 -3 17 -1 30 5 22 10 28 8 52 -16 35 -36 148 -106 189
-118 22 -6 35 -17 39 -33 3 -13 14 -31 25 -41 10 -9 19 -22 19 -29 0 -19 -75
-85 -96 -85 -11 0 -42 -11 -69 -25 -27 -13 -52 -22 -57 -19 -4 3 -17 0 -28 -6
-22 -12 -26 -40 -8 -58 9 -9 6 -17 -12 -37 -13 -13 -31 -27 -42 -31 -28 -9
-22 -49 14 -91 18 -21 36 -40 40 -43 4 -3 21 -32 38 -64 30 -55 31 -63 29
-157 -3 -107 -11 -137 -53 -186 -19 -23 -36 -33 -56 -33 -41 0 -79 -16 -109
-48 -45 -48 -108 -92 -130 -92 -33 0 -24 -27 13 -40 19 -6 42 -22 50 -36 12
-17 25 -24 50 -24 44 0 63 -24 69 -85 2 -27 14 -75 27 -105 15 -35 25 -82 28
-130 3 -68 12 -89 35 -90 4 0 7 8 7 18 0 10 7 28 16 40 14 21 14 29 -1 99 -24
107 -18 203 15 239 46 49 124 76 235 81 90 5 110 2 204 -26 61 -18 126 -31
158 -31 l55 0 -7 30 c-5 23 -3 30 9 30 9 0 16 5 16 10 0 6 7 10 15 10 18 0 19
-12 4 -27 -18 -18 -1 -33 38 -33 53 0 103 20 103 42 0 14 8 18 34 18 19 0 41
3 50 6 11 4 16 0 16 -15 0 -11 12 -28 27 -38 25 -17 27 -17 37 2 15 27 53 65
64 65 6 0 6 -14 0 -37 -15 -60 -9 -165 9 -186 15 -16 26 -16 68 0 6 2 10 -13
10 -37 0 -26 4 -40 12 -40 7 0 13 9 13 20 0 11 8 35 18 54 18 33 19 34 51 20
17 -7 58 -15 89 -17 31 -2 67 -9 80 -16 22 -11 26 -9 57 26 35 39 47 31 19
-12 -21 -32 -13 -41 38 -49 62 -10 207 -57 222 -71 9 -10 17 -9 35 6 19 15 20
21 11 40 -9 16 -9 24 0 33 9 7 14 8 16 1 3 -6 22 -35 44 -64 22 -29 40 -61 40
-71 0 -10 3 -25 6 -34 5 -12 0 -16 -18 -16 -32 0 -41 -10 -26 -28 7 -8 13 -22
13 -30 0 -21 23 -27 27 -7 2 10 20 -17 43 -62 32 -62 45 -79 65 -81 31 -5 49
-20 34 -30 -6 -4 -14 -20 -18 -35 -5 -23 -3 -30 12 -34 14 -3 18 -11 15 -24
-4 -15 0 -19 17 -19 24 0 24 -6 5 -82 -4 -16 -1 -31 9 -41 9 -8 16 -22 16 -31
0 -15 29 -36 49 -36 6 0 11 7 11 15 0 21 33 19 53 -3 23 -25 22 -29 -14 -37
-21 -5 -29 -12 -27 -23 3 -13 20 -19 73 -25 53 -5 74 -12 87 -28 13 -15 25
-19 42 -15 15 4 46 -2 76 -14 28 -11 62 -20 75 -20 14 0 34 -8 44 -17 11 -9
41 -25 68 -35 48 -18 48 -18 66 3 10 13 17 36 16 58 -1 20 1 44 5 53 7 16 2
18 -34 18 -33 0 -40 3 -32 13 7 8 7 18 2 27 -13 20 -13 50 0 50 6 0 10 -7 10
-15 0 -36 59 -25 80 14 6 13 6 38 -1 76 -8 44 -17 63 -40 82 -23 20 -27 28
-18 39 6 7 8 18 4 24 -3 5 1 10 10 10 9 0 16 -7 14 -17 -1 -10 -1 -23 0 -29 1
-15 62 -39 120 -49 35 -6 43 -5 38 6 -3 8 -8 23 -12 34 l-7 20 17 -20 c16 -20
16 -20 36 4 10 13 19 29 19 37 0 8 5 14 11 14 8 0 10 -18 5 -60 l-7 -60 31 6
c47 10 35 -10 -14 -24 -35 -9 -46 -17 -55 -42 -10 -29 -8 -32 22 -50 18 -11
38 -20 45 -20 6 0 12 -6 12 -13 0 -7 -6 -19 -12 -26 -11 -10 -9 -15 6 -27 11
-8 26 -14 33 -14 7 0 13 -4 13 -10 0 -5 -8 -10 -18 -10 -18 0 -42 -18 -42 -31
0 -4 20 -20 45 -36 25 -15 53 -44 63 -63 10 -19 26 -48 37 -63 16 -25 17 -35
7 -70 -10 -41 -10 -43 25 -79 33 -34 35 -39 29 -81 -4 -28 -3 -48 4 -52 18
-11 51 -85 43 -98 -4 -7 -14 -18 -24 -24 -9 -7 -19 -27 -22 -45 -3 -18 -8 -43
-12 -54 -6 -18 -1 -24 28 -33 20 -7 39 -22 46 -37 9 -21 16 -25 39 -20 15 3
82 8 148 11 67 3 137 10 155 16 43 14 173 31 221 30 20 0 40 4 43 9 8 13 76
13 110 0 24 -9 28 -7 38 20 6 16 17 30 24 30 6 0 14 9 18 19 8 26 31 44 58 45
27 1 35 37 12 56 -28 24 -18 48 33 73 26 13 60 27 75 31 17 4 25 11 21 18 -5
8 3 9 27 3 53 -12 181 -16 193 -6 6 4 29 12 51 16 21 3 52 13 67 21 15 8 38
14 51 14 14 0 34 8 45 18 22 19 38 97 22 107 -15 9 -50 81 -50 103 0 11 -30
55 -66 98 -36 43 -77 98 -91 122 -14 23 -30 42 -35 42 -6 0 -35 24 -63 52 -29
29 -91 84 -139 121 -69 55 -86 74 -86 95 0 15 -11 50 -24 78 -22 47 -28 52
-71 63 -77 19 -100 36 -128 93 -28 57 -43 157 -32 208 4 18 38 68 77 113 71
83 88 98 88 78 0 -7 38 -11 110 -11 106 0 114 2 184 35 41 19 78 35 83 35 6 0
18 9 29 21 10 12 47 34 82 50 89 40 200 116 216 148 8 15 37 39 65 55 28 15
55 35 60 44 5 9 29 23 53 30 75 22 133 57 136 80 3 19 -1 22 -28 22 -34 0 -90
25 -90 40 0 5 24 21 53 37 37 20 57 39 71 66 17 36 17 39 1 57 -26 29 -25 121
1 157 12 15 32 30 45 31 13 2 28 10 32 18 4 8 21 14 37 14 15 0 30 5 32 12 3
7 22 13 44 15 21 1 58 7 82 14 37 10 42 15 42 41 0 23 4 29 18 26 11 -2 20 6
27 23 6 15 31 45 56 66 l46 39 161 14 c158 13 161 13 212 -9 48 -21 53 -21 76
-6 23 15 26 15 51 -5 33 -26 53 -25 88 2 l27 21 -6 -21 c-6 -17 -1 -26 26 -42
19 -12 43 -19 58 -16 16 3 52 -10 101 -35 41 -21 80 -39 85 -39 6 0 29 -16 51
-35 30 -25 42 -44 47 -73 7 -44 37 -77 64 -70 14 4 18 1 16 -11 -2 -9 3 -24
10 -35 12 -14 20 -16 42 -9 37 12 39 24 12 58 -22 29 -32 55 -20 55 16 -1 72
-81 72 -104 0 -28 8 -35 69 -56 43 -15 53 -24 66 -65 7 -20 7 -19 22 3 9 12
22 22 29 22 9 0 14 12 14 36 0 21 4 33 10 29 6 -3 10 -19 10 -35 0 -16 -4 -32
-10 -35 -12 -8 -13 -55 -1 -74 5 -8 16 -11 28 -7 27 9 50 -1 56 -24 3 -12 19
-21 48 -27 42 -9 44 -10 41 -41 -3 -24 3 -38 20 -53 l23 -20 -32 5 c-41 7 -42
-5 -5 -53 23 -30 27 -46 27 -99 0 -45 5 -66 15 -72 22 -14 30 -12 30 8 1 31
30 -18 30 -51 0 -32 12 -57 43 -93 26 -31 67 -33 67 -3 0 12 8 37 17 56 17 36
16 36 -9 57 -21 17 -25 27 -21 49 4 20 -1 37 -15 57 -12 15 -24 40 -28 55 -6
23 -4 26 12 23 14 -2 24 -22 39 -83 24 -95 38 -103 85 -48 20 23 34 33 37 26
2 -7 13 -23 23 -35 l18 -23 13 30 c8 17 17 32 20 35 4 3 8 13 10 23 6 26 23
26 27 -1 2 -13 -3 -25 -12 -28 -21 -8 -20 -24 2 -40 26 -20 28 -18 42 42 12
51 12 57 -3 66 -18 10 -24 48 -7 48 24 0 39 -57 32 -120 -7 -60 -9 -64 -39
-74 -42 -15 -48 -22 -33 -41 17 -21 49 -19 88 5 26 16 32 26 32 53 0 38 28 71
53 61 9 -3 28 -21 42 -40 14 -19 33 -34 41 -34 20 0 18 10 -11 52 -29 43 -30
51 -10 68 21 18 19 28 -7 32 -18 2 -24 11 -26 36 l-3 33 42 -41 c39 -38 41
-41 25 -58 -23 -26 -20 -37 20 -82 29 -32 34 -43 25 -54 -10 -12 -6 -29 19
-85 47 -109 69 -141 94 -141 32 0 61 -24 53 -44 -7 -18 -31 -20 -74 -6 -24 9
-32 19 -42 59 -14 56 -28 71 -92 99 -39 16 -47 25 -53 53 -15 77 -44 74 -66
-6 -7 -25 -17 -48 -21 -51 -5 -3 -9 -17 -9 -32 -1 -36 -50 -95 -72 -87 -10 4
-20 16 -23 26 -8 26 -40 20 -41 -6 -1 -11 -2 -26 -3 -33 -1 -10 -10 -12 -31
-7 -55 12 -32 -30 59 -107 40 -34 21 -98 -53 -171 -34 -35 -36 -35 -113 -34
-77 2 -78 2 -81 30 -4 31 -27 36 -42 8 -13 -24 -13 -88 -1 -96 5 -3 15 -31 22
-63 18 -85 53 -154 93 -180 22 -15 36 -34 40 -55 3 -17 24 -59 46 -92 44 -68
57 -113 41 -142 -9 -18 0 -30 70 -97 76 -72 80 -78 74 -109 -6 -26 -5 -30 6
-20 31 30 56 2 38 -44 -12 -33 -4 -60 14 -45 9 7 20 -1 42 -30 53 -71 108
-118 137 -118 21 0 29 -6 34 -25 3 -14 12 -25 20 -25 10 0 14 -12 14 -40 0
-36 7 -46 90 -129 50 -50 98 -92 107 -93 12 -2 19 11 30 57 28 122 95 330 111
342 9 7 26 13 39 13 94 0 130 102 67 187 -26 35 -41 119 -30 177 9 46 40 49
81 6 16 -16 39 -30 52 -30 19 0 23 -5 23 -31 0 -23 11 -44 40 -75 21 -23 42
-55 45 -71 21 -96 40 -100 114 -24 40 42 78 70 122 89 40 18 78 44 100 70 20
22 47 44 61 47 26 7 68 39 68 53 0 4 -18 29 -40 56 -22 27 -37 53 -33 60 4 6
22 30 40 54 18 24 36 61 39 83 7 39 41 79 69 79 7 0 32 9 56 19 24 11 68 21
97 22 28 1 52 6 52 10 0 8 -54 55 -69 61 -6 1 -20 45 -31 96 -22 103 -63 190
-122 256 -21 24 -38 51 -38 59 0 32 -13 47 -40 47 -41 0 -52 22 -66 123 -9 72
-19 105 -46 152 -33 57 -36 60 -74 60 -51 0 -64 10 -64 46 0 41 15 68 56 104
34 30 37 38 32 100 -3 29 -1 30 42 35 37 4 46 9 48 28 3 18 -1 22 -25 21 -15
-1 -41 -4 -58 -8 -46 -11 -123 13 -161 50 -25 24 -31 36 -23 45 6 7 9 23 7 36
-2 19 -8 22 -30 20 -24 -2 -28 1 -28 21 0 15 -8 28 -24 35 -14 6 -35 25 -47
41 -28 37 -42 40 -29 6 12 -31 0 -32 -26 -2 -11 12 -44 42 -72 67 -29 25 -52
51 -52 59 0 8 -11 29 -26 48 -14 18 -22 38 -19 44 4 5 -15 34 -43 63 -27 28
-52 61 -56 72 -3 10 -19 27 -36 36 -16 9 -35 29 -42 43 -6 14 -15 25 -20 25
-10 0 -10 -8 1 -48 12 -39 0 -41 -29 -4 -12 15 -39 46 -61 69 -21 23 -39 46
-39 52 0 6 -13 17 -29 26 -16 8 -31 18 -33 22 -9 23 -107 93 -129 93 -13 0
-37 7 -52 15 -39 20 -155 48 -172 41 -8 -3 -34 6 -57 19 -24 14 -53 25 -65 25
-12 0 -38 11 -58 24 -20 14 -59 32 -88 42 -29 9 -70 27 -93 40 -22 13 -55 24
-72 24 -27 0 -32 4 -32 25 0 20 -5 25 -25 25 -14 0 -48 9 -77 20 -45 17 -54
18 -68 5 -22 -20 -153 -9 -199 16 -26 15 -36 17 -47 8 -8 -7 -27 -9 -45 -5
-19 3 -42 0 -60 -9 -21 -11 -34 -13 -48 -6 -14 8 -23 6 -37 -10 -15 -16 -26
-19 -54 -14 -19 3 -39 12 -45 18 -23 28 -125 42 -125 17 0 -15 -31 -20 -50 -7
-15 9 -24 9 -38 0 -23 -14 -38 -5 -39 22 -1 11 -5 32 -8 47 -10 38 31 78 80
78 46 0 104 28 84 41 -8 5 -32 9 -54 9 -66 0 -259 -21 -277 -31 -25 -13 -95
-11 -121 2 -31 17 -116 40 -162 44 -76 6 -135 18 -135 26 0 5 -13 9 -30 9 -16
0 -30 -5 -30 -11 0 -6 -21 -9 -52 -7 -49 3 -53 5 -50 26 3 22 -13 52 -28 52
-4 0 -19 -9 -33 -21z"/>
<path d="M6874 2191 c-2 -2 -21 -7 -41 -10 l-38 -6 1 -78 c1 -64 5 -81 20 -92
18 -14 18 -16 2 -29 -27 -20 -22 -49 12 -74 18 -14 33 -37 40 -62 7 -25 17
-40 26 -40 12 0 14 5 8 18 -4 9 -8 37 -8 62 l-1 45 47 -3 c45 -3 48 -2 54 25
4 15 11 34 17 40 6 9 4 21 -7 37 -10 15 -12 27 -6 31 15 9 12 42 -5 49 -8 3
-15 14 -15 25 0 33 -35 66 -70 66 -17 0 -33 -2 -36 -4z"/>
<path d="M2190 795 c-25 -25 -53 -45 -63 -45 -10 0 -20 -8 -23 -17 -12 -39
-46 -103 -54 -103 -5 0 -12 5 -15 10 -9 15 -25 12 -25 -5 0 -8 5 -15 10 -15 6
0 10 -8 10 -19 0 -10 6 -24 14 -30 8 -7 17 -22 20 -35 3 -13 43 -57 88 -98 69
-63 91 -77 128 -83 25 -4 65 -16 90 -26 54 -24 120 -18 120 10 0 55 -36 98
-76 90 -41 -7 -66 3 -77 31 -6 17 -17 30 -25 30 -10 0 -12 15 -10 57 3 51 6
58 27 63 50 11 50 70 0 70 -24 0 -35 23 -44 90 -11 85 -30 89 -95 25z"/>
<path d="M3295 730 c-3 -5 -16 -10 -27 -10 -12 0 -36 -16 -54 -35 -23 -26 -40
-35 -63 -35 -34 0 -102 -52 -87 -67 5 -4 11 -2 13 5 3 8 15 11 37 6 26 -4 42
1 78 25 25 17 48 38 52 46 6 17 51 20 61 5 12 -19 61 -10 85 15 19 20 21 27
10 40 -14 17 -95 21 -105 5z"/>
</g>
</svg>
