<?xml version="1.0" standalone="no"?>
<!DOCTYPE svg PUBLIC "-//W3C//DTD SVG 20010904//EN"
 "http://www.w3.org/TR/2001/REC-SVG-20010904/DTD/svg10.dtd">
<svg version="1.0" xmlns="http://www.w3.org/2000/svg"
 width="1024.000000pt" height="1024.000000pt" viewBox="0 0 1024.000000 1024.000000"
 preserveAspectRatio="xMidYMid meet">
<metadata>
Created by potrace 1.16, written by Peter Selinger 2001-2019
</metadata>
<g transform="translate(0.000000,1024.000000) scale(0.100000,-0.100000)"
fill="#000000" stroke="none">
<path d="M4140 7943 c-24 -3 -50 -9 -56 -14 -6 -5 -19 -7 -28 -3 -13 5 -15 1
-10 -25 5 -24 3 -31 -10 -31 -17 0 -32 -42 -21 -59 8 -13 35 -14 35 -2 0 5 10
11 23 13 12 2 26 12 31 24 l9 20 59 -23 c50 -20 71 -23 145 -20 86 4 87 4 116
41 16 20 27 39 25 41 -3 3 -40 14 -83 25 -74 19 -130 22 -235 13z"/>
<path d="M6137 7694 c-3 -4 -21 -9 -39 -13 -38 -8 -48 -44 -12 -49 11 -2 28
-17 38 -33 10 -17 33 -37 52 -45 39 -16 107 -18 134 -4 38 20 32 100 -8 100
-9 0 -38 11 -64 25 -45 24 -88 32 -101 19z"/>
<path d="M768 7574 c-2 -10 0 -182 3 -383 9 -505 -17 -1818 -38 -1886 -3 -11
-16 -36 -29 -55 -17 -24 -24 -49 -24 -81 0 -43 4 -50 50 -93 l50 -47 0 -634
c0 -691 -4 -650 54 -624 32 15 187 -5 263 -33 48 -18 54 -18 83 -3 17 9 34 23
37 31 9 24 58 17 71 -11 10 -21 19 -25 51 -25 36 0 40 3 43 28 4 32 21 33 28
0 4 -17 14 -24 38 -26 33 -3 38 4 44 72 5 50 27 42 30 -11 l3 -48 61 -21 c34
-11 72 -28 85 -37 15 -11 43 -17 77 -17 44 0 62 6 105 35 28 19 56 35 60 35 5
0 32 16 61 35 44 29 62 35 107 35 30 0 60 -4 68 -9 32 -21 41 -1 41 91 l0 90
-52 59 c-44 51 -71 70 -173 122 -66 34 -131 64 -145 67 -14 3 -50 1 -80 -5
-74 -15 -96 -8 -124 40 -21 38 -25 40 -64 37 -59 -3 -52 27 9 41 31 8 63 -13
85 -55 l16 -30 79 7 c68 6 86 4 132 -15 l53 -22 70 21 c38 12 122 26 187 33
118 11 136 20 102 48 -9 7 -15 29 -15 52 l0 39 114 -7 c78 -4 115 -3 120 4 7
12 -7 42 -41 85 -13 16 -23 41 -23 57 0 15 -7 33 -16 41 -16 13 -54 81 -54 98
0 23 43 -6 82 -54 29 -36 55 -56 79 -64 20 -6 42 -18 49 -26 7 -8 21 -15 32
-15 17 0 19 4 13 28 -3 15 -13 40 -21 56 -24 50 -10 81 18 37 10 -16 15 -17
26 -8 11 8 16 8 23 -4 5 -11 21 -15 46 -14 34 2 38 6 41 32 2 18 -3 35 -12 43
-23 18 -20 32 7 28 15 -2 30 -18 47 -52 14 -27 31 -52 38 -54 11 -3 12 0 3 16
-15 29 -14 85 2 80 10 -4 20 -25 33 -75 4 -17 44 -17 44 0 0 7 -4 17 -9 23 -5
5 -12 24 -16 42 -5 25 -3 32 9 32 9 0 23 -11 31 -24 9 -13 25 -26 36 -29 17
-5 19 -11 14 -40 -4 -20 -3 -37 4 -41 16 -11 31 28 24 68 -4 27 -2 36 9 36 19
0 45 -87 29 -103 -20 -20 -12 -44 18 -57 17 -6 34 -9 39 -6 6 3 48 -1 93 -10
46 -9 112 -19 147 -24 34 -4 70 -14 80 -23 9 -8 40 -17 69 -19 36 -4 61 -13
83 -31 24 -21 42 -27 77 -27 42 0 50 -4 115 -67 73 -70 98 -111 98 -161 0 -21
13 -40 48 -74 26 -25 56 -62 67 -82 11 -20 26 -35 35 -33 20 3 26 -39 9 -69
-20 -39 4 -70 87 -110 39 -19 78 -34 86 -34 17 0 28 20 28 51 0 10 6 19 14 19
38 0 23 -89 -19 -108 -46 -21 -29 -72 23 -72 10 0 30 -22 47 -53 25 -43 30
-48 33 -29 5 32 23 27 51 -14 15 -21 35 -37 52 -41 21 -4 36 -19 58 -57 16
-28 36 -58 45 -65 9 -7 20 -30 26 -51 9 -32 20 -44 65 -69 44 -25 55 -36 55
-56 0 -22 4 -25 39 -25 31 0 41 4 46 20 10 30 25 24 25 -10 0 -24 7 -32 37
-47 27 -12 38 -14 41 -5 2 7 20 15 41 18 31 5 39 11 47 37 7 25 15 33 37 35
32 4 37 -17 7 -36 -24 -15 -26 -32 -4 -32 9 0 38 -11 64 -24 43 -22 54 -23
111 -15 168 24 159 24 159 -4 0 -21 7 -26 44 -36 58 -14 66 -14 66 3 0 8 9 18
21 21 24 8 117 -3 124 -15 3 -4 40 -29 83 -54 l79 -46 96 0 c100 0 143 -11
152 -40 4 -14 18 -18 67 -19 34 -1 64 -3 66 -6 11 -10 -22 -35 -54 -41 -44 -8
-52 -22 -19 -34 15 -6 33 -16 40 -24 8 -8 37 -19 66 -26 41 -10 56 -10 75 0
20 11 27 11 43 -4 18 -16 20 -16 39 8 17 22 28 26 76 26 l56 0 0 34 c0 44 -46
86 -94 86 -44 0 -96 19 -96 35 0 29 28 36 117 31 89 -5 133 0 133 14 0 4 -17
11 -37 15 -21 4 -44 11 -50 17 -7 6 -43 12 -80 15 -98 6 -110 10 -141 44 -24
28 -31 30 -68 25 -56 -7 -105 8 -140 45 -16 17 -44 44 -62 62 -47 45 -40 68
26 82 29 7 60 19 70 27 9 8 25 18 35 21 10 4 17 13 15 20 -6 15 -105 27 -252
29 -104 2 -109 3 -136 30 -17 16 -39 28 -55 28 -21 0 -29 8 -42 38 -35 83 -23
154 30 178 48 21 26 90 -32 100 -20 4 -42 11 -49 17 -9 7 -18 5 -32 -8 -14
-12 -28 -16 -50 -12 -18 4 -30 2 -30 -4 0 -6 -6 -9 -12 -6 -7 2 -21 -3 -31
-11 -11 -10 -42 -17 -80 -20 -76 -4 -130 19 -135 58 -2 13 -10 33 -18 44 -8
12 -14 46 -14 83 0 70 -12 85 -80 97 -45 8 -70 47 -70 108 0 23 -3 80 -7 125
-5 70 -9 84 -25 89 -11 3 -25 1 -31 -5 -20 -20 -35 -11 -56 34 -18 38 -25 45
-50 45 -17 0 -33 5 -36 10 -3 6 -19 10 -34 10 -33 0 -51 16 -51 47 0 12 -9 27
-20 33 -11 6 -20 17 -20 24 0 15 -21 26 -51 26 -15 0 -18 5 -14 23 4 17 -1 26
-25 39 -17 10 -33 25 -37 35 -4 10 -11 21 -17 25 -16 11 -64 10 -71 -2 -4 -6
-10 -8 -15 -5 -12 7 -47 86 -60 135 -6 21 -17 43 -25 50 -8 7 -15 25 -15 39 0
19 -10 34 -30 49 -28 21 -30 27 -30 90 0 46 5 75 16 91 17 23 19 23 128 16
160 -10 213 -10 286 3 82 14 91 25 83 111 -5 57 -10 71 -39 101 -19 20 -34 43
-34 53 0 9 -18 28 -39 41 -21 14 -52 43 -67 65 -38 53 -101 80 -148 63 -59
-22 -102 -14 -199 34 -50 26 -94 50 -97 54 -3 4 -18 14 -35 23 -16 8 -42 29
-57 46 -15 17 -40 33 -55 36 -100 22 -130 30 -148 42 -11 7 -32 13 -46 13 -37
0 -59 9 -59 25 0 18 -49 28 -66 14 -22 -18 -91 -16 -111 3 -15 16 -16 28 -5
131 21 203 16 230 -49 261 -23 10 -51 35 -67 58 -43 65 -194 153 -314 183 -16
4 -31 18 -38 35 -6 16 -25 34 -41 40 -19 8 -29 20 -29 34 0 16 -16 31 -62 57
-35 19 -76 40 -91 47 -35 15 -45 39 -22 56 25 18 10 36 -30 36 -19 0 -37 5
-40 10 -3 6 -15 10 -26 10 -11 0 -18 -4 -15 -8 2 -4 -4 -18 -14 -31 l-18 -24
-36 21 c-25 15 -54 22 -86 22 -65 0 -78 6 -100 49 -20 40 -36 50 -124 81 -33
11 -76 31 -95 44 -47 32 -157 61 -311 81 -69 9 -153 28 -188 41 -34 13 -68 24
-74 24 -6 0 -52 19 -102 42 -63 29 -106 42 -143 44 -64 3 -79 10 -61 31 18 22
-15 43 -69 43 -47 0 -95 21 -242 104 -46 27 -109 57 -139 67 -31 11 -71 28
-89 39 -42 25 -90 26 -95 4z"/>
<path d="M6572 7548 c3 -20 -3 -24 -39 -32 -61 -14 -53 -26 16 -26 56 0 66 -4
192 -80 74 -44 145 -93 159 -108 46 -51 224 -161 304 -188 42 -14 76 -30 76
-34 0 -5 18 -11 40 -15 44 -8 93 -55 203 -199 99 -129 108 -155 118 -336 4
-85 8 -161 9 -167 0 -7 5 -13 12 -13 24 0 78 -46 88 -74 l10 -29 30 39 c16 21
30 44 30 50 0 6 11 17 25 24 30 16 43 55 26 81 -17 28 -13 46 13 67 54 42 43
97 -34 175 -28 28 -51 60 -52 71 0 12 -1 28 -2 36 -1 8 -9 16 -18 18 -9 2 -20
12 -23 23 -4 10 -18 22 -33 25 -15 3 -47 14 -72 24 -35 14 -46 24 -48 44 -4
29 -20 40 -73 50 -27 5 -47 19 -77 55 -23 27 -72 70 -109 94 -38 25 -79 57
-93 72 -30 32 -78 55 -118 55 -19 0 -45 15 -81 45 -30 25 -66 52 -82 61 -16 8
-45 25 -65 39 -20 14 -50 25 -66 25 -37 0 -111 49 -161 106 -32 36 -45 44 -73
44 -31 0 -35 -3 -32 -22z"/>
<path d="M7550 7332 c0 -35 36 -74 46 -49 12 32 0 72 -23 75 -19 3 -23 -1 -23
-26z"/>
<path d="M7250 6666 c0 -8 5 -18 10 -21 15 -9 12 -30 -9 -53 -26 -31 -55 -27
-85 10 -25 32 -26 32 -125 36 -85 4 -101 2 -101 -11 0 -8 6 -20 14 -26 8 -7
17 -24 21 -39 3 -15 14 -36 24 -47 23 -26 74 -253 65 -289 -5 -20 -12 -26 -34
-26 -16 0 -32 5 -36 11 -4 6 -20 8 -40 4 -19 -3 -43 -1 -55 5 -25 14 -62 -9
-126 -80 -83 -93 -103 -128 -103 -186 0 -49 -2 -55 -30 -69 -16 -8 -40 -15
-53 -15 -14 0 -41 -7 -60 -15 -20 -8 -55 -15 -77 -15 -35 0 -40 3 -40 22 0 23
-44 68 -66 68 -7 0 -15 -9 -19 -20 -9 -28 -67 -60 -108 -60 -41 0 -88 41 -113
98 -14 30 -13 37 2 59 13 21 14 29 4 48 -15 29 -8 41 36 60 19 8 34 19 34 26
0 21 -34 38 -74 39 l-39 0 6 -66 c5 -62 3 -68 -25 -100 -29 -32 -29 -36 -14
-53 21 -23 20 -27 -7 -57 -16 -17 -40 -27 -82 -34 -78 -13 -75 -13 -75 10 0
25 -7 25 -28 0 -14 -17 -38 -22 -146 -31 -125 -11 -129 -11 -170 11 -22 12
-49 31 -59 42 -14 16 -23 19 -50 13 -17 -5 -77 -7 -132 -7 -82 2 -105 6 -127
22 -15 11 -31 20 -36 20 -9 0 -65 -76 -74 -101 -21 -56 78 -122 184 -123 43
-1 62 -6 80 -22 13 -12 42 -32 66 -43 24 -12 51 -35 60 -52 9 -16 25 -29 35
-29 19 0 41 -45 33 -66 -10 -25 24 -24 36 1 14 30 27 35 113 37 73 3 68 5 135
-79 l25 -32 122 -3 c90 -2 123 -6 123 -15 0 -7 5 -13 10 -13 6 0 10 5 10 11 0
9 27 10 98 5 123 -8 195 10 220 55 14 24 21 28 45 23 15 -3 27 -1 27 5 0 5 10
11 23 13 13 2 23 11 25 24 4 27 41 44 96 44 30 0 55 8 81 25 29 20 40 23 51
14 10 -8 14 -8 14 -1 0 20 43 52 70 52 22 0 30 8 46 43 13 28 26 43 41 45 14
2 25 12 29 26 4 15 24 30 67 49 74 32 78 33 107 7 13 -11 30 -20 39 -20 25 0
161 100 173 126 10 21 5 31 -46 89 -44 53 -56 74 -56 101 l0 34 65 0 c61 0 66
2 103 38 30 28 45 55 62 110 22 70 22 75 7 108 -19 39 -22 90 -7 99 6 3 10 17
10 30 0 23 -2 24 -48 18 -67 -8 -110 15 -114 59 -2 28 -8 34 -30 36 -20 2 -28
-1 -28 -12z"/>
<path d="M8735 6134 c-11 -11 -13 -19 -6 -24 6 -3 18 -38 25 -76 21 -99 29
-119 49 -120 16 -2 18 6 13 87 -7 127 -37 176 -81 133z"/>
<path d="M4308 6068 c-29 -23 -26 -63 7 -91 44 -36 85 -28 85 18 0 37 -33 85
-59 85 -9 0 -24 -6 -33 -12z"/>
<path d="M4750 5910 c-39 -39 -23 -88 41 -126 27 -16 51 -37 55 -46 9 -30 49
-21 83 17 48 55 35 115 -26 115 -14 0 -50 14 -79 30 l-53 31 -21 -21z"/>
<path d="M8865 5898 c-10 -30 -27 -126 -27 -153 -1 -91 11 -114 91 -177 42
-33 81 -69 87 -81 7 -12 36 -29 70 -41 59 -21 59 -21 62 -64 3 -37 0 -44 -17
-49 -33 -9 -25 -29 44 -112 72 -85 117 -116 186 -126 44 -7 49 -5 88 30 23 21
44 35 48 31 3 -3 12 -1 20 5 9 9 17 8 27 0 12 -10 17 -8 25 8 15 27 14 46 -4
61 -8 7 -31 45 -50 86 -27 56 -45 80 -74 98 -21 13 -58 41 -83 63 -26 21 -65
53 -87 71 -24 19 -41 42 -41 54 0 24 -63 86 -102 100 -16 6 -29 20 -33 36 -7
29 -46 96 -83 143 -22 26 -29 29 -83 29 -39 0 -61 -4 -64 -12z"/>
<path d="M2647 4610 c9 -36 33 -70 50 -70 16 0 8 19 -31 65 -24 29 -25 29 -19
5z"/>
<path d="M2770 4611 c-15 -29 -12 -38 13 -44 12 -2 30 -8 40 -12 24 -10 22 16
-4 49 -24 31 -35 33 -49 7z"/>
<path d="M6659 4193 c-19 -23 -42 -90 -35 -102 3 -5 15 -7 26 -4 19 5 25 -7
32 -66 2 -14 8 -26 13 -28 6 -2 11 40 13 107 4 103 3 110 -16 110 -10 0 -25
-8 -33 -17z"/>
<path d="M7540 3830 c0 -5 7 -10 15 -10 35 0 65 -23 65 -51 0 -32 18 -48 31
-28 7 11 13 8 31 -13 20 -24 28 -27 66 -21 33 4 40 8 32 19 -9 9 -6 13 12 16
18 2 22 9 20 27 -3 29 -31 53 -52 44 -26 -12 -91 -5 -109 11 -19 18 -111 23
-111 6z"/>
<path d="M6157 3692 c-28 -31 -21 -66 24 -116 40 -44 69 -59 69 -35 0 6 14 27
30 46 l30 34 -22 30 c-41 56 -101 74 -131 41z"/>
<path d="M6381 3611 c-36 -10 -48 -34 -31 -65 12 -23 11 -28 -3 -44 -24 -26
-21 -32 13 -32 17 0 39 -5 50 -12 16 -10 30 -9 75 6 53 19 56 19 68 2 14 -19
48 -19 54 0 2 6 -10 26 -27 44 -17 18 -34 46 -37 61 -8 42 -86 61 -162 40z"/>
<path d="M6500 3396 c0 -15 12 -33 34 -50 22 -16 36 -36 38 -54 2 -15 8 -26
16 -24 6 1 18 3 25 5 8 1 11 -11 10 -39 -1 -35 2 -43 23 -53 14 -6 34 -11 46
-11 12 0 29 -7 38 -15 15 -14 19 -14 38 2 24 20 40 117 24 142 -12 16 -52 6
-52 -14 0 -24 -23 -65 -36 -65 -12 0 -74 83 -74 99 0 12 -106 101 -119 101 -6
0 -11 -11 -11 -24z"/>
<path d="M8460 2473 c-8 -3 -17 -9 -20 -13 -16 -22 -93 -59 -138 -65 -29 -4
-54 -11 -58 -16 -10 -16 -44 -10 -161 31 -109 38 -153 47 -153 34 0 -17 24
-44 56 -63 20 -12 38 -31 41 -42 4 -13 13 -20 27 -18 38 3 47 -1 72 -28 23
-25 26 -26 67 -14 23 7 49 21 57 32 11 14 33 21 83 26 37 3 70 10 73 14 7 12
61 11 101 0 48 -14 68 5 60 58 -3 23 -11 48 -17 56 -12 15 -61 19 -90 8z"/>
</g>
</svg>
