<?xml version="1.0" standalone="no"?>
<!DOCTYPE svg PUBLIC "-//W3C//DTD SVG 20010904//EN"
 "http://www.w3.org/TR/2001/REC-SVG-20010904/DTD/svg10.dtd">
<svg version="1.0" xmlns="http://www.w3.org/2000/svg"
 width="620.000000pt" height="616.000000pt" viewBox="0 0 620.000000 616.000000"
 preserveAspectRatio="xMidYMid meet">
<metadata>
Created by potrace 1.16, written by Peter Selinger 2001-2019
</metadata>
<g transform="translate(0.000000,616.000000) scale(0.100000,-0.100000)"
fill="#000000" stroke="none">
<path d="M2145 6024 c-367 -46 -450 -65 -625 -144 -115 -51 -241 -93 -780
-261 -74 -23 -145 -50 -157 -61 -12 -11 -24 -38 -28 -62 -24 -148 -84 -332
-144 -436 -77 -132 -95 -180 -99 -265 -2 -44 1 -98 7 -120 6 -22 14 -83 18
-135 5 -87 -1 -132 -67 -532 -70 -418 -72 -438 -56 -462 10 -16 58 -47 119
-77 121 -61 157 -85 157 -106 0 -8 42 -67 93 -132 50 -64 100 -133 111 -153
12 -24 35 -45 69 -64 28 -15 79 -54 113 -85 45 -41 73 -60 101 -65 24 -4 49
-18 68 -39 21 -22 52 -38 100 -53 116 -36 185 -80 220 -142 17 -29 41 -61 55
-72 31 -22 123 -47 204 -54 34 -3 88 -14 121 -25 85 -26 194 -49 236 -49 20 0
56 7 79 15 23 8 48 15 54 15 21 0 380 -195 475 -258 52 -34 131 -75 175 -92
45 -17 117 -48 161 -69 89 -43 102 -47 226 -66 82 -12 169 -50 169 -74 0 -22
42 -23 64 -2 l23 21 64 -29 c35 -17 94 -37 132 -45 62 -13 147 -56 147 -74 0
-5 8 -17 18 -28 58 -62 130 -153 136 -172 9 -26 -17 -79 -51 -106 -43 -33 -63
-59 -63 -81 0 -11 -4 -25 -9 -30 -16 -19 -41 -114 -41 -158 0 -43 -2 -47 -69
-101 -78 -63 -81 -69 -103 -248 -10 -86 -10 -99 5 -122 21 -31 21 -50 3 -65
-7 -6 -16 -30 -19 -52 -3 -25 -16 -52 -32 -68 -15 -16 -23 -34 -20 -43 4 -10
-8 -26 -34 -47 -22 -18 -51 -55 -65 -84 -14 -29 -40 -69 -57 -89 -35 -41 -34
-51 11 -106 22 -26 29 -26 275 18 165 29 285 30 350 2 28 -11 91 -26 140 -32
50 -6 124 -18 165 -25 90 -16 123 -11 174 26 47 34 65 36 108 9 43 -26 58 -25
118 6 49 26 50 26 79 7 16 -10 45 -31 65 -46 56 -45 79 -26 116 95 7 24 27 51
55 74 44 35 46 36 119 32 69 -4 77 -7 104 -36 40 -43 66 -41 114 11 66 71 71
81 58 121 -15 46 -6 73 33 96 19 12 38 36 48 62 22 56 54 79 110 79 69 0 78 6
86 51 7 44 22 63 71 90 20 10 33 27 37 45 10 44 19 56 56 68 32 11 34 15 39
66 3 30 13 66 23 80 25 38 38 159 26 253 -6 44 -12 83 -15 87 -3 5 3 31 12 59
17 52 14 80 -17 157 -11 26 -11 36 1 58 11 21 12 36 2 84 -17 83 -16 90 29
176 41 77 41 79 35 154 -4 51 -1 114 10 191 10 63 18 155 20 204 1 54 9 110
20 142 17 51 17 53 -2 79 -46 66 -54 82 -54 112 0 17 4 35 10 38 5 3 15 15 20
26 9 16 6 21 -17 31 -15 7 -47 28 -69 48 -49 41 -152 84 -180 73 -10 -4 -51
-31 -90 -60 -104 -78 -192 -115 -286 -121 -49 -3 -89 0 -107 8 -27 11 -32 20
-51 107 -16 68 -30 103 -49 126 -36 42 -51 87 -51 157 0 33 -6 64 -14 76 -8
10 -12 30 -9 45 3 18 -12 61 -49 140 -53 114 -53 114 -53 213 l0 100 -39 26
c-41 29 -65 63 -66 95 0 32 -36 83 -72 101 -27 14 -49 16 -130 10 -79 -5 -106
-3 -140 11 -55 21 -101 56 -118 88 -27 51 -95 15 -136 -71 -13 -27 -22 -34
-46 -34 -16 0 -49 -11 -72 -25 -39 -23 -47 -24 -97 -15 -30 6 -147 9 -261 8
l-206 -3 -26 25 c-26 23 -28 23 -74 10 -86 -24 -127 -25 -152 0 -19 19 -21 28
-15 59 20 95 9 306 -17 336 -14 16 -9 65 13 116 20 47 21 51 5 68 -16 18 -16
21 -1 51 13 25 15 44 9 84 -4 28 -6 67 -5 87 2 30 -3 41 -29 61 -29 23 -31 27
-18 47 12 20 11 24 -8 37 -19 13 -21 19 -11 44 9 25 8 33 -6 47 -14 14 -21 15
-36 6 -17 -11 -20 -7 -30 30 -6 23 -15 64 -20 92 -7 37 -17 57 -39 75 -17 14
-34 38 -37 53 -4 15 -15 33 -24 40 -13 9 -21 38 -29 107 -16 135 -29 200 -44
217 -13 16 -225 124 -484 247 -181 85 -175 84 -369 60z"/>
</g>
</svg>
