<?xml version="1.0" standalone="no"?>
<!DOCTYPE svg PUBLIC "-//W3C//DTD SVG 20010904//EN"
 "http://www.w3.org/TR/2001/REC-SVG-20010904/DTD/svg10.dtd">
<svg version="1.0" xmlns="http://www.w3.org/2000/svg"
 width="768.000000pt" height="1024.000000pt" viewBox="0 0 768.000000 1024.000000"
 preserveAspectRatio="xMidYMid meet">
<metadata>
Created by potrace 1.16, written by Peter Selinger 2001-2019
</metadata>
<g transform="translate(0.000000,1024.000000) scale(0.100000,-0.100000)"
fill="#000000" stroke="none">
<path d="M3735 9930 c-16 -4 -66 -8 -111 -9 -92 -1 -114 -15 -114 -69 0 -23 8
-36 31 -54 51 -37 91 -81 131 -139 32 -45 38 -64 40 -114 3 -59 3 -60 -25 -63
-33 -4 -76 -63 -87 -120 -4 -20 -17 -71 -28 -112 -12 -41 -24 -87 -27 -103 -3
-15 -36 -59 -74 -100 -37 -39 -93 -106 -123 -147 -66 -89 -130 -150 -190 -181
-23 -12 -67 -37 -95 -55 -33 -21 -122 -56 -240 -93 -241 -77 -356 -117 -416
-147 -66 -33 -184 -140 -197 -180 -8 -24 -18 -33 -41 -38 -17 -3 -39 -16 -51
-29 -22 -25 -84 -173 -94 -225 -4 -18 -18 -49 -32 -70 -23 -34 -33 -73 -61
-231 -7 -36 -18 -52 -65 -93 -44 -40 -57 -58 -62 -88 -4 -23 -17 -49 -34 -65
l-28 -27 -50 16 c-60 20 -94 64 -119 150 -22 79 -65 108 -161 111 -58 1 -75 7
-127 38 -71 44 -98 46 -147 12 -46 -31 -48 -31 -48 4 0 15 -11 44 -24 64 -28
40 -25 47 18 47 41 0 94 33 107 68 15 38 -13 182 -47 239 -35 61 -60 70 -113
44 -22 -12 -41 -26 -41 -31 0 -18 -132 -119 -197 -151 -69 -34 -109 -75 -207
-212 -60 -85 -86 -153 -86 -227 0 -66 17 -107 67 -166 48 -57 51 -69 26 -112
-25 -44 -5 -93 73 -176 54 -58 64 -74 66 -107 1 -21 2 -47 2 -56 1 -14 -9 -19
-43 -23 -61 -7 -86 -41 -86 -120 0 -72 14 -90 112 -136 40 -19 121 -63 180
-98 59 -35 125 -69 145 -75 20 -7 42 -19 49 -27 7 -9 31 -25 53 -36 57 -29
128 -91 196 -171 75 -89 107 -148 119 -226 18 -114 58 -180 186 -311 63 -65
115 -122 115 -126 0 -5 24 -46 54 -92 32 -49 66 -117 82 -165 30 -93 52 -139
99 -211 20 -31 36 -71 40 -101 8 -60 16 -76 67 -136 30 -36 43 -62 53 -112 7
-35 26 -89 41 -118 14 -29 35 -77 45 -107 21 -60 33 -78 123 -187 86 -104 119
-184 110 -266 -8 -74 1 -89 98 -162 85 -65 102 -89 119 -177 24 -128 30 -144
67 -175 61 -50 116 -111 134 -146 9 -19 28 -59 43 -89 14 -30 45 -75 69 -100
23 -25 57 -73 75 -107 18 -34 60 -87 92 -118 59 -57 59 -57 59 -115 0 -73 -12
-107 -45 -122 -21 -9 -25 -18 -25 -54 0 -24 11 -87 24 -139 23 -90 28 -100 83
-159 33 -34 67 -79 77 -99 21 -46 56 -79 121 -116 62 -35 203 -182 262 -273
60 -93 107 -130 232 -179 138 -54 274 -121 320 -158 55 -44 259 -175 319 -205
29 -15 79 -35 111 -45 32 -10 74 -30 92 -43 48 -36 114 -68 141 -68 13 0 43
-11 68 -24 25 -13 74 -33 110 -45 59 -19 76 -32 181 -134 63 -63 126 -121 139
-130 14 -9 57 -23 95 -32 98 -23 115 -36 115 -87 0 -57 19 -114 48 -143 13
-13 58 -43 100 -66 42 -23 108 -65 147 -94 138 -102 207 -150 238 -167 77 -42
179 -6 289 102 75 73 95 120 78 180 -14 49 -15 47 31 55 23 4 55 19 73 35 28
25 31 34 31 83 0 46 -5 62 -32 99 l-32 45 27 26 c16 15 48 34 73 42 31 11 65
36 106 78 95 97 113 129 113 202 0 62 0 63 32 69 41 8 58 23 58 53 0 30 -28
56 -111 103 -90 50 -110 89 -116 224 l-6 103 52 57 c31 34 51 65 51 80 0 23
-42 89 -73 115 -26 21 -21 66 13 104 16 19 43 63 59 99 16 35 40 73 55 84 46
34 106 125 106 160 0 18 -17 70 -37 116 -45 101 -48 149 -13 196 24 32 25 41
27 180 l2 147 47 44 c44 43 94 133 94 171 0 17 -34 98 -85 205 -37 76 -119
219 -184 320 -32 50 -63 105 -69 123 -6 18 -24 50 -40 70 -16 20 -41 60 -55
88 -29 57 -32 59 -130 80 -86 18 -133 10 -203 -32 -66 -40 -76 -41 -116 -13
-16 12 -50 24 -75 27 l-45 5 7 51 c3 28 10 103 14 166 5 63 14 134 22 157 10
34 10 51 -1 98 -11 44 -11 61 -2 76 7 10 12 34 12 53 0 18 7 57 16 84 16 48
16 53 0 77 -12 19 -25 25 -51 25 -28 0 -47 -11 -97 -55 -116 -101 -162 -133
-254 -174 -129 -56 -273 -75 -383 -49 -46 10 -52 15 -60 45 -16 57 -56 115
-123 179 -71 69 -95 77 -256 90 l-83 7 29 31 c47 49 48 69 12 141 -17 34 -44
75 -58 92 -15 16 -52 62 -82 103 -30 41 -80 107 -111 145 -59 72 -79 109 -79
149 0 13 -13 48 -30 79 -16 31 -30 68 -30 81 0 27 -46 78 -92 102 -21 11 -28
21 -26 37 3 19 11 23 61 28 103 11 126 66 61 146 -27 33 -34 50 -30 68 10 41
54 82 124 116 95 47 179 107 202 144 28 45 25 93 -10 160 -16 31 -27 62 -23
68 3 7 25 37 48 67 44 58 86 136 125 233 19 48 22 68 16 121 l-6 63 62 23 c95
33 105 40 184 110 107 96 230 149 384 165 70 8 134 21 162 33 26 12 80 28 120
36 39 8 83 24 97 35 74 59 110 73 200 79 l87 5 33 -42 33 -41 82 0 c50 0 87 5
94 12 24 24 14 85 -21 131 -18 24 -39 59 -46 78 -36 99 -53 109 -192 116 -54
3 -99 8 -99 11 0 20 115 196 184 281 124 152 174 257 138 293 -5 5 -30 13 -55
15 -36 4 -53 13 -82 44 -26 28 -45 39 -65 39 -45 0 -82 18 -125 60 -46 45 -99
70 -147 70 -44 0 -142 -32 -166 -53 -10 -9 -24 -17 -30 -17 -7 0 -57 23 -112
50 -55 28 -113 50 -129 50 -19 0 -44 -13 -72 -36 -56 -47 -153 -95 -193 -97
-17 0 -62 6 -101 13 -65 12 -75 12 -142 -9 -69 -21 -74 -22 -107 -6 -54 26
-61 40 -58 110 3 51 -1 71 -21 111 -35 70 -58 87 -122 92 -53 4 -55 6 -65 41
-5 20 -10 48 -10 63 0 15 -4 37 -9 50 -16 41 -87 113 -137 137 -27 14 -64 36
-82 50 -19 14 -66 42 -105 61 -46 23 -76 44 -83 60 -7 14 -26 54 -42 90 -17
36 -34 77 -37 91 -10 43 -62 96 -123 126 -31 15 -85 49 -119 75 -102 79 -122
88 -183 87 -30 -1 -68 -5 -85 -9z"/>
</g>
</svg>
