<?xml version="1.0" standalone="no"?>
<!DOCTYPE svg PUBLIC "-//W3C//DTD SVG 20010904//EN"
 "http://www.w3.org/TR/2001/REC-SVG-20010904/DTD/svg10.dtd">
<svg version="1.0" xmlns="http://www.w3.org/2000/svg"
 width="572.000000pt" height="956.000000pt" viewBox="0 0 572.000000 956.000000"
 preserveAspectRatio="xMidYMid meet">
<metadata>
Created by potrace 1.16, written by Peter Selinger 2001-2019
</metadata>
<g transform="translate(0.000000,956.000000) scale(0.100000,-0.100000)"
fill="#000000" stroke="none">
<path d="M2896 9418 c-18 -36 -20 -48 -7 -48 18 0 41 32 41 56 0 33 -16 30
-34 -8z"/>
<path d="M2976 9225 c-9 -13 -16 -34 -16 -46 0 -18 2 -19 15 -9 8 7 15 18 15
25 0 7 7 18 15 25 14 12 12 30 -4 30 -5 0 -16 -11 -25 -25z"/>
<path d="M2912 9146 c1 -10 8 -17 13 -17 15 1 12 24 -3 29 -9 3 -13 -2 -10
-12z"/>
<path d="M2962 8696 c-22 -12 -22 -13 -4 -29 14 -13 21 -14 30 -5 28 28 9 53
-26 34z"/>
<path d="M2651 8586 c-9 -11 -10 -16 -2 -16 6 0 11 -7 11 -15 0 -9 12 -20 26
-25 44 -17 54 -13 52 25 -1 25 -6 35 -17 35 -9 0 -25 3 -37 6 -12 3 -26 -1
-33 -10z"/>
<path d="M2555 8441 c-3 -11 0 -31 7 -43 13 -23 13 -22 16 11 4 40 -13 64 -23
32z"/>
<path d="M2931 8352 c-13 -24 -25 -92 -16 -92 4 0 25 19 46 42 29 32 35 45 27
55 -15 19 -46 16 -57 -5z"/>
<path d="M2623 8303 c-37 -7 -26 -23 16 -23 46 0 73 9 65 21 -5 9 -40 10 -81
2z"/>
<path d="M2333 8153 c-7 -2 -13 -16 -13 -29 0 -25 -7 -28 -66 -24 -45 2 -58
-19 -43 -69 11 -37 10 -45 -16 -98 -45 -94 -46 -97 -44 -128 2 -16 -3 -40 -9
-52 -7 -12 -12 -33 -12 -47 0 -14 -4 -27 -9 -31 -5 -3 -8 -16 -5 -29 2 -13 -2
-29 -11 -36 -8 -7 -17 -28 -21 -47 -6 -30 -3 -39 20 -59 28 -27 42 -66 30 -85
-16 -27 -22 -96 -11 -151 12 -65 -3 -132 -34 -148 -12 -7 -19 -27 -23 -67 -15
-143 -3 -243 36 -292 23 -30 22 -40 -6 -73 -54 -61 -156 -60 -156 2 0 24 -5
31 -27 36 -37 10 -72 36 -72 54 0 11 5 9 18 -7 25 -30 31 -29 31 6 0 30 -21
54 -28 33 -2 -7 -8 -12 -13 -12 -14 0 -11 38 4 43 9 4 9 7 0 17 -10 11 -14 10
-19 -3 -3 -9 -10 -14 -15 -11 -5 3 -9 0 -9 -5 0 -6 -9 -11 -19 -11 -25 0 -29
-15 -37 -120 -3 -46 -7 -87 -10 -91 -2 -4 0 -17 4 -29 8 -21 10 -21 24 -6 22
21 25 21 42 -11 14 -29 16 -79 3 -100 -4 -7 0 -16 9 -21 12 -6 15 -17 11 -32
-3 -13 1 -37 10 -53 14 -28 14 -32 -1 -42 -16 -12 -23 -55 -8 -55 28 0 88
-190 77 -247 -4 -20 0 -43 9 -61 8 -16 13 -32 11 -34 -3 -3 6 -11 20 -18 29
-16 35 -12 44 30 l6 32 23 -20 c13 -11 18 -22 12 -24 -6 -2 -13 -17 -16 -34
-5 -33 15 -59 51 -66 15 -3 20 -12 21 -38 1 -19 2 -40 3 -46 1 -15 27 -25 69
-29 43 -4 66 27 53 71 -5 16 -14 45 -20 65 -22 70 -12 98 26 74 13 -9 46 -17
73 -18 29 -1 52 -7 55 -14 2 -7 11 -13 19 -13 16 0 49 -47 41 -60 -3 -5 -1
-11 5 -15 16 -10 12 -65 -5 -66 -26 -2 -29 -4 -78 -52 -26 -26 -61 -50 -78
-54 -16 -3 -29 -12 -29 -19 0 -8 -4 -14 -10 -14 -5 0 -10 -13 -10 -30 0 -16 5
-30 10 -30 6 0 10 -35 10 -84 0 -46 3 -91 6 -100 10 -26 25 -18 18 9 -5 20 -3
24 10 19 12 -5 16 0 16 20 0 22 4 26 28 26 46 0 76 -22 83 -60 5 -25 3 -40 -7
-52 -9 -9 -11 -18 -6 -22 6 -3 17 6 27 20 26 40 59 29 65 -21 5 -40 5 -40 44
-37 21 2 49 -2 62 -9 19 -10 27 -9 51 7 15 10 33 20 38 20 6 1 15 2 22 3 7 1
9 14 6 39 -5 34 -1 42 23 61 16 12 48 27 71 34 24 6 43 17 43 24 0 7 8 13 19
13 14 0 17 -6 13 -25 -3 -19 0 -25 13 -25 12 0 15 5 10 20 -4 11 -2 20 4 20 6
0 11 -6 11 -12 0 -7 19 -22 43 -33 23 -11 48 -26 55 -32 7 -7 19 -14 25 -14 7
-1 19 -2 27 -3 8 0 28 -25 45 -53 24 -42 37 -54 63 -59 17 -3 32 -10 32 -14 0
-5 9 -12 20 -15 11 -3 20 -11 20 -17 0 -6 14 -26 30 -45 24 -26 30 -43 30 -78
0 -34 5 -47 22 -59 19 -14 24 -14 49 1 26 15 27 20 22 67 -3 28 -14 66 -24 84
-10 17 -14 32 -8 32 6 0 7 5 4 10 -4 6 -10 8 -14 6 -9 -6 -48 44 -61 79 -6 15
-6 26 0 30 16 10 11 45 -11 77 -24 33 -23 35 11 39 30 4 76 -25 83 -51 3 -14
14 -20 31 -20 14 0 26 -4 26 -9 0 -5 9 -13 20 -16 27 -9 45 -42 31 -59 -16
-19 21 -49 104 -86 83 -37 105 -55 105 -86 0 -12 13 -37 29 -55 23 -25 28 -36
20 -50 -12 -23 -12 -55 1 -79 9 -16 14 -17 41 -7 28 11 33 10 57 -18 14 -16
28 -30 31 -30 3 0 17 -8 31 -17 14 -9 37 -16 53 -14 18 2 27 -1 27 -11 0 -9 5
-11 13 -6 12 8 17 9 37 12 6 0 18 14 28 30 13 22 22 27 32 21 8 -5 25 -7 37
-3 19 4 23 1 23 -16 0 -12 -8 -24 -17 -27 -10 -3 -25 -9 -34 -14 -9 -4 -22 -4
-29 0 -9 6 -18 3 -25 -7 -29 -40 45 -164 107 -178 23 -6 27 -3 33 27 4 18 10
38 14 43 4 6 9 24 11 40 3 27 3 47 -1 113 -1 13 6 31 15 41 9 10 16 23 16 29
0 18 -41 14 -54 -4 -11 -14 -15 -13 -42 9 -32 26 -68 47 -82 47 -5 0 -14 -11
-20 -25 -13 -29 -47 -35 -38 -7 3 9 2 23 -3 31 -5 7 -6 22 -4 32 4 15 15 19
45 19 33 0 39 3 34 16 -4 9 -1 23 5 30 8 10 5 15 -15 20 -14 3 -30 12 -37 20
-6 8 -16 14 -23 14 -6 0 2 -11 17 -25 28 -27 33 -40 18 -49 -12 -8 -71 48 -71
68 0 15 -75 96 -89 96 -9 0 -8 38 2 67 7 18 16 22 45 22 20 -1 52 -5 70 -11
25 -7 37 -6 49 3 9 8 26 12 39 11 13 -2 24 0 24 5 0 17 -16 30 -62 51 -25 12
-53 31 -61 42 -11 16 -16 18 -20 7 -6 -17 -51 -15 -73 4 -8 6 -17 9 -21 5 -3
-3 -15 2 -26 11 -15 13 -21 15 -24 6 -7 -20 -23 -15 -23 7 0 11 -7 23 -15 26
-8 4 -15 17 -15 31 0 22 -1 23 -16 9 -8 -9 -20 -13 -26 -10 -7 4 -8 2 -4 -4 4
-7 3 -12 -2 -12 -21 0 -22 -33 -2 -50 11 -9 17 -19 14 -22 -2 -3 1 -17 7 -32
11 -23 10 -30 -7 -47 -30 -30 -84 -35 -114 -11 -23 19 -24 23 -12 54 16 46 15
73 -3 88 -9 7 -14 21 -13 30 2 10 -13 33 -32 52 -19 19 -40 43 -46 54 -6 10
-20 20 -32 22 -11 2 -26 9 -32 17 -6 8 -18 11 -26 8 -8 -3 -14 0 -14 6 0 6 -4
11 -10 11 -5 0 -10 -7 -10 -16 0 -8 -4 -12 -10 -9 -5 3 -10 1 -10 -6 0 -8 -5
-7 -17 3 -28 23 -51 28 -80 17 -43 -16 -82 -73 -71 -105 3 -10 -4 -14 -28 -14
-13 0 -15 8 -12 35 2 19 0 35 -4 35 -4 0 -8 -6 -8 -13 0 -7 -12 -20 -27 -29
l-26 -16 24 -23 c14 -13 35 -30 46 -38 31 -21 18 -43 -21 -36 -27 5 -29 4 -14
-8 32 -25 7 -35 -52 -20 -64 16 -117 46 -180 101 -40 35 -43 41 -31 56 11 13
11 20 3 28 -7 7 -12 18 -12 25 0 8 -9 26 -20 41 -20 28 -54 157 -45 172 3 5
19 12 36 15 l31 7 -35 37 c-19 20 -40 54 -47 76 -7 22 -21 54 -31 71 -11 17
-19 41 -19 52 0 31 -11 52 -26 52 -8 0 -20 16 -28 35 -15 36 -12 65 6 65 16 0
34 24 42 54 4 16 23 48 42 72 20 24 33 48 29 54 -3 5 -1 10 4 10 21 0 11 29
-11 32 -18 2 -24 11 -26 37 -3 29 4 40 50 87 29 30 60 54 69 54 8 0 24 7 35
15 10 8 26 14 34 15 27 0 99 44 103 62 3 10 10 18 16 18 20 0 13 -15 -43 -94
-21 -29 -16 -47 5 -21 8 9 32 38 55 63 39 45 65 90 44 77 -6 -3 -10 1 -10 9 0
9 5 16 11 16 7 0 9 11 6 27 -5 29 5 57 31 83 21 21 98 187 107 230 4 19 14 47
21 62 18 35 10 56 -20 51 -28 -6 -41 19 -25 49 17 33 -6 78 -41 78 -40 0 -60
10 -60 29 0 9 -6 25 -13 36 -13 20 -30 83 -42 157 -3 22 0 50 8 70 8 19 12 59
10 95 -3 60 -2 63 31 88 19 14 39 39 46 55 15 36 5 87 -20 100 -10 6 -20 20
-22 32 -2 15 -11 24 -25 26 -13 2 -23 10 -23 18 0 8 -4 14 -9 14 -5 0 -8 -23
-8 -50 1 -44 -3 -54 -33 -85 -47 -48 -76 -52 -163 -20 -83 32 -243 114 -304
157 -36 27 -46 29 -85 23 -23 -4 -51 -14 -61 -23 -16 -14 -20 -13 -45 11 -29
28 -30 28 -49 20z"/>
<path d="M2952 6069 c-13 -5 -27 -7 -31 -4 -5 2 -13 -7 -20 -21 -13 -30 -14
-47 -2 -40 15 9 56 -85 56 -128 0 -46 13 -54 43 -26 26 24 29 71 7 94 -17 17
-20 46 -5 46 6 0 10 12 10 26 0 14 4 23 10 19 14 -9 12 4 -2 19 -20 19 -41 24
-66 15z"/>
<path d="M3015 5960 c4 -6 11 -8 16 -5 14 9 11 15 -7 15 -8 0 -12 -5 -9 -10z"/>
<path d="M3060 5940 c0 -5 17 -17 38 -27 20 -9 40 -19 45 -21 4 -2 7 3 7 11 0
9 -9 19 -20 22 -11 3 -20 11 -20 16 0 5 -11 9 -25 9 -14 0 -25 -4 -25 -10z"/>
<path d="M3195 5875 c-19 -14 -18 -14 13 -15 22 0 32 4 30 12 -6 18 -22 20
-43 3z"/>
<path d="M2890 5630 c0 -5 4 -10 9 -10 6 0 13 5 16 10 3 6 -1 10 -9 10 -9 0
-16 -4 -16 -10z"/>
<path d="M2957 5593 c-13 -12 14 -42 73 -82 33 -23 64 -41 70 -41 19 0 -14 41
-65 79 -64 48 -71 52 -78 44z"/>
<path d="M4212 5506 c-18 -9 -22 -18 -20 -51 5 -87 -2 -123 -27 -153 -25 -30
-25 -62 0 -62 6 0 20 -9 30 -20 19 -21 45 -27 45 -10 0 5 9 14 19 20 15 7 23
6 35 -6 15 -14 16 -14 17 3 1 10 1 22 0 26 -1 5 7 11 17 14 18 4 19 7 21 103
1 14 -5 30 -12 35 -7 6 -18 21 -25 35 -7 14 -10 17 -8 8 11 -39 -11 -23 -32
23 -24 52 -25 53 -60 35z"/>
<path d="M4017 5445 c-4 -8 -2 -17 3 -20 6 -4 10 3 10 14 0 25 -6 27 -13 6z"/>
<path d="M3905 5439 c-4 -6 -5 -12 -2 -15 7 -7 37 7 37 17 0 13 -27 11 -35 -2z"/>
<path d="M1934 5374 c3 -9 6 -20 6 -24 0 -11 101 -62 108 -55 3 3 0 5 -7 5 -7
0 -11 6 -8 13 3 7 -4 24 -14 38 -10 13 -19 20 -19 16 0 -5 -10 -1 -22 7 -29
21 -52 21 -44 0z"/>
<path d="M2042 5359 c2 -7 10 -15 17 -17 8 -3 12 1 9 9 -2 7 -10 15 -17 17 -8
3 -12 -1 -9 -9z"/>
<path d="M2080 5270 c8 -5 22 -9 30 -9 10 0 8 3 -5 9 -27 12 -43 12 -25 0z"/>
<path d="M2355 5270 c3 -5 17 -10 31 -10 14 0 22 4 19 10 -3 6 -17 10 -31 10
-14 0 -22 -4 -19 -10z"/>
<path d="M2475 5210 c3 -5 10 -10 16 -10 5 0 9 5 9 10 0 6 -7 10 -16 10 -8 0
-12 -4 -9 -10z"/>
<path d="M2912 5187 c-25 -68 -6 -125 47 -142 10 -3 22 -12 25 -20 8 -23 34
-18 41 8 4 12 19 34 33 50 19 20 23 30 15 38 -6 6 -9 18 -6 26 4 9 -2 16 -15
20 -12 3 -24 13 -27 23 -4 14 -14 18 -41 16 -19 -2 -37 1 -40 5 -10 17 -20 9
-32 -24z"/>
<path d="M2084 5190 c-32 -13 -38 -40 -14 -64 20 -20 22 -20 31 -3 16 27 37
20 44 -15 10 -50 26 -78 47 -78 32 0 96 -74 113 -133 8 -29 15 -62 14 -73 -5
-48 2 -76 19 -81 30 -8 66 -63 64 -96 -3 -35 52 -114 83 -119 15 -2 19 -9 17
-30 -2 -23 1 -28 18 -28 12 0 30 -5 41 -11 17 -9 21 -7 25 8 5 19 51 46 65 37
5 -3 9 2 9 10 0 9 7 16 15 16 13 0 14 4 5 20 -12 22 -1 46 37 86 33 34 38 68
15 101 -16 24 -19 40 -15 108 3 58 8 83 20 92 22 17 9 43 -22 43 -20 0 -25 5
-25 25 0 15 -7 28 -17 32 -10 4 -41 30 -69 59 -29 29 -55 50 -58 47 -18 -19
-73 -9 -109 19 -35 27 -40 29 -74 17 -35 -11 -76 -8 -233 16 -14 2 -34 0 -46
-5z"/>
<path d="M4075 5050 c13 -20 55 -31 77 -19 27 14 18 20 -37 25 -32 3 -45 1
-40 -6z"/>
<path d="M4166 5021 c-3 -5 1 -12 10 -15 24 -9 64 -7 64 3 0 19 -64 29 -74 12z"/>
<path d="M3539 4973 c-29 -7 -3 -73 28 -73 8 0 35 -20 59 -44 24 -25 53 -47
63 -51 10 -3 31 -24 46 -46 14 -23 29 -38 32 -35 3 3 -6 21 -21 40 -14 19 -26
41 -26 48 0 19 -21 38 -42 38 -11 0 -31 23 -55 65 -36 63 -45 69 -84 58z"/>
<path d="M3035 4869 c-10 -15 3 -25 16 -12 7 7 7 13 1 17 -6 3 -14 1 -17 -5z"/>
<path d="M2830 4856 c0 -9 5 -16 10 -16 6 0 10 4 10 9 0 6 -4 13 -10 16 -5 3
-10 -1 -10 -9z"/>
<path d="M3025 4789 c-11 -17 1 -21 15 -4 8 9 8 15 2 15 -6 0 -14 -5 -17 -11z"/>
<path d="M3900 4705 c0 -8 -6 -15 -12 -15 -9 -1 -8 -4 2 -13 8 -7 24 -30 35
-52 22 -44 63 -95 75 -95 8 0 3 24 -22 111 -6 23 -20 41 -34 48 -13 6 -24 15
-24 21 0 5 -4 10 -10 10 -5 0 -10 -7 -10 -15z"/>
<path d="M4320 4710 c0 -5 5 -10 10 -10 6 0 10 5 10 10 0 6 -4 10 -10 10 -5 0
-10 -4 -10 -10z"/>
<path d="M4700 4708 c0 -17 18 -44 24 -37 8 7 -5 49 -15 49 -5 0 -9 -6 -9 -12z"/>
<path d="M3060 4696 c-6 -8 -21 -16 -33 -18 -18 -2 -22 -10 -23 -43 -1 -65 -3
-75 -18 -75 -15 0 -26 -21 -26 -49 0 -10 11 -24 25 -31 25 -13 29 -38 6 -32
-15 3 -13 -19 3 -41 14 -18 14 -17 21 2 3 12 10 21 15 21 5 0 7 7 3 16 -3 8
-1 25 6 37 13 26 33 128 34 175 0 17 4 32 9 32 4 0 8 5 8 10 0 15 -16 12 -30
-4z"/>
<path d="M3152 4668 c-16 -16 -15 -43 2 -57 22 -18 36 8 22 41 -9 22 -15 25
-24 16z"/>
<path d="M4320 4664 c0 -8 5 -12 10 -9 6 3 10 10 10 16 0 5 -4 9 -10 9 -5 0
-10 -7 -10 -16z"/>
<path d="M4680 4667 c0 -11 -9 -15 -35 -13 -19 2 -36 -2 -38 -8 -7 -21 -224
-29 -232 -8 -3 9 -14 12 -34 7 -17 -3 -39 -1 -50 5 -26 13 -27 2 -5 -55 8 -22
21 -64 29 -93 19 -67 79 -133 127 -138 35 -4 104 -67 93 -85 -4 -5 1 -9 9 -9
9 0 15 -3 14 -7 -1 -5 15 -25 35 -46 31 -32 40 -36 56 -27 42 22 71 -1 37 -29
-7 -6 -16 -25 -20 -41 -4 -24 -11 -30 -31 -30 -15 0 -24 -4 -20 -10 3 -5 -1
-10 -9 -10 -9 0 -16 9 -16 20 0 11 -6 20 -14 20 -24 0 -27 -16 -6 -35 10 -9
16 -24 13 -32 -4 -11 0 -14 18 -11 13 2 34 -5 47 -16 23 -20 32 -46 10 -29 -7
6 -28 13 -46 16 -28 6 -34 3 -41 -16 -5 -13 -24 -31 -43 -41 -46 -25 -88 -12
-101 30 -10 28 -24 44 -41 44 -4 0 -5 -8 -2 -17 4 -10 -15 4 -43 31 -42 41
-51 47 -57 32 -6 -16 10 -72 43 -144 8 -19 14 -55 12 -80 -1 -26 1 -55 5 -64
4 -9 3 -26 -3 -37 -7 -13 -8 -22 -1 -26 5 -3 10 -3 10 0 0 4 7 -1 16 -9 8 -9
22 -16 29 -16 16 0 39 36 31 49 -3 5 0 14 8 20 11 9 20 6 41 -13 60 -55 113
-174 85 -191 -5 -3 -10 -17 -10 -29 0 -13 -7 -29 -15 -36 -19 -16 -10 -79 13
-96 13 -9 13 -18 3 -58 -13 -55 -9 -66 26 -66 14 0 43 -14 64 -31 21 -17 43
-29 48 -27 5 1 2 26 -5 53 -17 63 -18 148 -3 143 7 -2 19 -23 28 -46 9 -23 22
-47 29 -54 6 -6 12 -24 12 -40 0 -15 10 -38 23 -51 12 -13 29 -33 37 -45 15
-23 30 -29 30 -12 0 25 -45 109 -60 113 -11 3 -19 17 -22 41 -4 36 -4 36 29
30 25 -5 34 -2 39 10 9 25 -4 63 -24 68 -14 4 -18 17 -20 58 -2 54 -33 107
-72 122 -22 8 -30 61 -17 103 13 42 0 181 -19 199 -15 15 -20 66 -6 66 4 0 8
-12 7 -27 0 -26 2 -27 42 -24 38 2 43 -1 57 -28 9 -16 16 -38 16 -49 0 -28 11
-34 31 -16 15 14 20 14 55 -1 24 -10 41 -12 47 -6 6 6 17 7 27 1 14 -8 19 -5
24 13 5 17 8 19 15 8 6 -9 18 -11 35 -7 20 5 28 2 33 -11 7 -21 73 -86 73 -73
0 5 -5 12 -10 15 -6 4 -22 28 -35 55 -14 27 -34 54 -44 60 -25 13 -34 13 -26
0 3 -5 -3 -10 -14 -10 -29 0 -27 28 4 52 32 25 31 31 -5 70 -16 17 -30 36 -30
41 0 6 -7 18 -16 28 -18 20 -26 71 -12 80 6 4 7 16 3 28 -3 12 -11 19 -16 16
-5 -4 -9 -2 -9 4 0 5 5 11 11 13 7 2 6 18 -2 49 -11 42 -11 49 9 77 26 36 26
36 5 58 -16 16 -16 18 4 34 l22 17 -29 28 c-15 15 -33 24 -39 21 -6 -4 -11 -2
-11 3 0 6 -9 11 -19 11 -23 0 -31 18 -20 47 13 34 -54 104 -106 110 -21 2 -45
9 -52 15 -10 8 -13 7 -13 -5z"/>
<path d="M3696 4634 c3 -22 11 -44 15 -50 10 -13 1 -72 -12 -80 -14 -9 -10
-44 5 -44 17 0 9 -41 -11 -53 -7 -4 -13 -16 -13 -25 0 -10 -9 -34 -20 -55 -23
-42 -24 -47 -10 -47 13 0 74 61 124 123 46 56 75 61 105 18 12 -16 21 -32 21
-36 0 -10 22 -30 48 -44 16 -9 21 -18 17 -31 -5 -15 0 -21 22 -25 46 -10 95
-38 133 -76 l36 -35 -1 47 c-1 25 -9 58 -18 72 -22 33 -22 43 0 26 9 -8 -5 17
-31 55 -48 70 -93 107 -106 86 -4 -6 -18 6 -34 30 -19 29 -33 40 -51 40 -14 0
-25 3 -24 8 4 23 -18 50 -57 70 -24 12 -46 22 -49 22 -2 0 -11 -12 -19 -27
l-15 -28 6 36 c4 29 2 37 -13 41 -11 3 -27 9 -37 13 -17 7 -18 4 -11 -31z"/>
<path d="M4390 4650 c0 -5 5 -10 11 -10 5 0 7 5 4 10 -3 6 -8 10 -11 10 -2 0
-4 -4 -4 -10z"/>
<path d="M3283 4613 c-51 -10 -52 -54 -2 -72 16 -5 29 -15 29 -20 0 -6 10 -15
21 -22 18 -9 25 -7 42 9 27 27 17 88 -16 97 -36 11 -51 12 -74 8z"/>
<path d="M4200 4583 c0 -12 5 -25 11 -28 19 -12 22 3 5 27 l-16 22 0 -21z"/>
<path d="M4260 4566 c0 -8 5 -18 10 -21 6 -3 10 1 10 9 0 8 -4 18 -10 21 -5 3
-10 -1 -10 -9z"/>
<path d="M1809 4498 c-5 -57 -6 -81 -2 -70 8 22 20 12 32 -28 6 -22 16 -40 21
-40 6 0 10 -6 10 -14 0 -16 27 -29 42 -20 6 4 14 0 19 -7 8 -12 12 -11 23 4
12 15 18 17 36 7 16 -9 19 -14 10 -25 -13 -16 6 -55 27 -55 16 0 26 17 13 25
-6 4 -8 11 -4 16 3 5 0 16 -6 25 -11 12 -9 14 11 12 18 -2 25 2 27 20 4 25
-25 65 -39 56 -5 -3 -9 4 -9 15 0 28 -18 36 -22 9 -4 -29 -20 -32 -46 -8 -11
11 -26 20 -32 20 -5 0 -10 5 -10 11 0 5 -16 17 -35 25 -19 8 -35 19 -35 24 0
15 -30 12 -31 -2z"/>
<path d="M2464 4486 c-7 -17 25 -65 43 -66 7 0 4 14 -8 40 -21 44 -27 48 -35
26z"/>
<path d="M2440 4450 c0 -5 5 -10 10 -10 6 0 10 5 10 10 0 6 -4 10 -10 10 -5 0
-10 -4 -10 -10z"/>
<path d="M2644 4364 c6 -32 11 -38 25 -30 7 5 7 15 -1 31 -15 33 -30 32 -24
-1z"/>
<path d="M2956 4372 c-3 -6 -1 -14 5 -17 15 -10 25 3 12 16 -7 7 -13 7 -17 1z"/>
<path d="M4214 4365 c-10 -8 -14 -15 -7 -15 19 0 43 11 43 21 0 13 -14 11 -36
-6z"/>
<path d="M2950 4321 c0 -6 4 -13 10 -16 6 -3 7 1 4 9 -7 18 -14 21 -14 7z"/>
<path d="M1811 4307 c-7 -9 -6 -21 4 -41 8 -16 15 -37 15 -47 0 -21 22 -38 28
-21 2 7 8 12 14 12 6 0 4 -8 -5 -18 -33 -37 -14 -68 24 -39 19 15 34 67 19 67
-7 0 -8 6 -1 19 8 15 7 20 -5 25 -8 3 -12 11 -8 18 5 8 0 9 -14 6 -12 -4 -22
-3 -22 1 0 3 -9 12 -19 18 -15 10 -22 9 -30 0z"/>
<path d="M2740 4286 c0 -9 7 -16 16 -16 9 0 14 5 12 12 -6 18 -28 21 -28 4z"/>
<path d="M4287 4293 c-10 -9 -9 -23 2 -23 5 0 11 7 15 15 5 15 -5 20 -17 8z"/>
<path d="M2959 4283 c-9 -2 -19 -16 -22 -31 -3 -15 -8 -34 -12 -43 -5 -13 4
-17 50 -22 78 -8 86 -17 79 -86 -4 -31 -11 -62 -17 -68 -5 -7 -10 -68 -11
-135 -1 -88 -6 -130 -16 -148 -8 -14 -22 -47 -32 -74 -15 -44 -15 -52 -1 -73
17 -25 13 -58 -15 -110 -15 -31 -15 -34 1 -50 16 -16 19 -15 52 17 19 19 35
39 35 44 0 31 132 77 223 78 41 0 50 3 57 24 7 17 20 25 49 30 44 7 63 35 58
89 -1 22 3 30 18 33 11 2 22 8 25 13 3 5 17 10 30 11 31 4 60 28 60 50 0 22
15 31 40 23 13 -4 17 -12 13 -23 -4 -13 -3 -14 6 -6 9 8 9 17 0 40 -14 34 -13
53 7 112 18 55 18 62 -3 62 -17 1 -17 1 0 11 9 5 17 19 17 30 0 20 -1 20 -30
-4 -16 -14 -46 -31 -67 -38 -21 -6 -41 -17 -45 -23 -4 -6 -10 -7 -14 -3 -4 4
1 15 10 26 17 18 17 19 -2 25 -11 4 -23 13 -25 20 -3 8 -20 17 -37 21 -26 6
-35 3 -47 -14 -8 -12 -19 -19 -24 -16 -5 4 -9 1 -9 -4 0 -18 -21 -12 -59 17
-44 35 -75 51 -44 24 21 -19 21 -32 0 -32 -6 0 -8 3 -4 6 3 4 0 13 -8 21 -8 8
-15 23 -15 34 0 13 -12 25 -34 34 -19 8 -37 19 -41 25 -3 5 -29 16 -57 25 -28
8 -66 26 -84 40 -18 14 -34 24 -36 24 -2 -1 -10 -3 -19 -6z"/>
<path d="M4356 4282 c-3 -6 -1 -14 5 -17 15 -10 25 3 12 16 -7 7 -13 7 -17 1z"/>
<path d="M2690 4240 c20 -13 40 -13 40 0 0 6 -12 10 -27 10 -22 0 -25 -2 -13
-10z"/>
<path d="M4290 4211 c0 -17 18 -21 24 -6 3 9 0 15 -9 15 -8 0 -15 -4 -15 -9z"/>
<path d="M4540 4169 c0 -5 -4 -7 -10 -4 -5 3 -10 0 -10 -8 0 -19 36 -51 44
-39 3 5 -1 15 -9 22 -7 6 -11 18 -8 26 3 8 2 14 -1 14 -3 0 -6 -5 -6 -11z"/>
<path d="M4324 4149 c-3 -6 -1 -23 6 -37 34 -73 37 -77 79 -80 30 -2 43 1 47
12 8 20 -32 102 -52 110 -25 10 -72 7 -80 -5z"/>
<path d="M4580 4152 c1 -17 19 -34 29 -28 17 11 13 23 -9 29 -11 3 -20 2 -20
-1z"/>
<path d="M3656 4063 c-10 -10 -7 -25 4 -18 6 3 10 -1 10 -9 0 -9 5 -16 10 -16
6 0 10 5 10 11 0 15 -26 39 -34 32z"/>
<path d="M1786 4035 c-3 -8 -11 -13 -18 -10 -7 3 -20 0 -28 -5 -13 -9 -13 -11
-1 -19 8 -5 20 -7 28 -4 7 3 13 -1 13 -8 1 -21 30 21 30 43 0 22 -16 24 -24 3z"/>
<path d="M1590 3985 c0 -8 -10 -23 -21 -34 -15 -14 -20 -28 -17 -45 3 -13 1
-30 -3 -37 -4 -7 -5 -18 -1 -24 12 -17 9 -55 -4 -55 -7 0 -16 5 -19 10 -12 20
-26 10 -15 -11 7 -11 9 -23 6 -27 -3 -3 -6 -1 -6 5 0 6 -9 9 -21 6 -14 -4 -19
-12 -16 -24 3 -12 0 -19 -10 -19 -10 0 -12 -6 -8 -21 5 -14 2 -25 -6 -30 -11
-7 -10 -9 4 -9 9 0 17 -7 17 -15 0 -8 10 -19 21 -26 18 -9 21 -17 16 -56 -3
-30 -12 -49 -25 -59 -12 -8 -19 -21 -16 -29 4 -8 1 -15 -6 -15 -7 0 -21 -11
-32 -25 -11 -14 -24 -25 -29 -25 -5 0 -9 11 -9 25 0 31 -17 33 -22 3 -2 -17
-9 -22 -25 -20 -25 3 -41 -17 -23 -28 10 -6 7 -12 -9 -26 -11 -10 -21 -29 -21
-41 0 -20 -5 -23 -35 -23 -38 0 -55 -20 -37 -43 6 -8 6 -20 -1 -37 -9 -23 -10
-23 -14 -5 -7 31 -20 39 -27 17 -4 -11 -13 -23 -22 -26 -8 -3 -19 -16 -25 -28
-27 -60 -84 -135 -109 -143 -11 -3 -22 -15 -25 -26 -4 -10 -15 -19 -26 -19
-12 0 -19 -7 -19 -18 0 -10 -18 -34 -40 -53 -22 -19 -40 -42 -40 -51 0 -11 -8
-18 -20 -18 -11 0 -20 -7 -20 -16 0 -23 -60 -69 -85 -66 -30 4 -101 -45 -115
-79 -10 -22 -18 -28 -38 -26 -14 1 -27 -4 -30 -12 -2 -7 -26 -35 -53 -63 -27
-28 -49 -54 -49 -59 0 -14 -33 -49 -47 -49 -6 0 -18 -11 -25 -24 -49 -88 -68
-126 -63 -126 3 0 -2 -16 -10 -37 -8 -20 -13 -38 -10 -41 2 -3 20 8 38 24 71
61 81 66 113 67 34 1 47 17 57 72 2 11 10 19 18 17 28 -7 95 22 129 56 19 19
52 43 73 53 31 16 44 33 70 89 29 64 34 69 74 79 23 6 50 11 59 11 9 0 29 13
43 28 14 15 38 35 52 44 15 10 36 36 48 60 11 24 33 57 48 75 70 79 67 73 44
90 -12 8 -21 21 -21 29 0 19 16 18 24 -3 5 -12 10 -13 18 -5 9 9 9 18 0 37
-17 37 -15 65 6 71 9 3 29 12 43 20 14 7 29 11 32 8 5 -5 153 33 165 42 2 1 8
21 13 44 5 23 19 54 31 70 22 30 81 64 108 62 32 -2 60 9 60 23 0 8 6 15 13
15 19 0 62 50 50 58 -17 12 -35 53 -29 68 4 11 1 14 -12 10 -16 -5 -18 0 -18
41 1 44 -1 48 -21 45 -17 -2 -24 3 -28 21 -11 42 -2 82 18 81 9 -1 17 3 17 8
0 5 10 6 22 3 17 -6 20 -4 15 10 -4 9 -7 19 -7 21 0 10 -29 3 -33 -8 -2 -8
-10 -2 -17 14 -10 20 -10 31 -2 41 6 7 14 32 18 55 5 35 4 42 -10 42 -10 0
-16 9 -16 25 0 14 -4 25 -10 25 -5 0 -10 -7 -10 -15z m-74 -272 c-9 -10 15
-33 34 -33 13 0 19 -10 22 -35 2 -19 0 -35 -4 -35 -4 0 -8 4 -8 10 0 5 -16 20
-35 32 -38 25 -50 47 -40 78 6 18 8 19 22 5 8 -9 13 -19 9 -22z"/>
<path d="M1690 3930 c0 -5 5 -10 10 -10 6 0 10 5 10 10 0 6 -4 10 -10 10 -5 0
-10 -4 -10 -10z"/>
<path d="M3646 3925 c-3 -8 -1 -15 4 -15 13 0 22 18 11 24 -5 3 -11 -1 -15 -9z"/>
<path d="M3954 3906 c-7 -28 11 -66 31 -66 23 0 25 15 7 53 -19 43 -29 46 -38
13z"/>
<path d="M4115 3900 c-3 -11 -11 -20 -17 -20 -6 0 -8 -13 -6 -30 2 -16 0 -31
-5 -33 -5 -1 -10 -20 -12 -42 -4 -51 -43 -152 -70 -181 -12 -13 -27 -42 -34
-66 -18 -57 -42 -106 -63 -125 -10 -9 -18 -22 -18 -30 0 -19 -43 -91 -75 -125
-14 -15 -25 -34 -25 -43 0 -8 -5 -15 -11 -15 -7 0 -8 -11 -4 -30 4 -18 1 -42
-9 -62 -32 -70 -48 -228 -22 -228 25 0 83 88 102 155 10 36 22 65 26 65 5 0 8
6 8 14 0 8 5 16 10 18 6 2 13 27 17 56 3 31 12 56 19 59 8 3 14 11 14 17 0 17
63 76 81 76 8 0 23 10 33 22 18 21 19 21 33 3 13 -19 14 -19 35 3 19 19 20 22
5 22 -17 0 -22 11 -10 24 4 3 8 14 9 24 1 9 5 33 9 52 4 19 3 58 -3 87 -5 31
-5 57 0 68 5 9 11 45 13 81 2 49 -1 66 -12 73 -14 7 -13 15 5 64 11 31 17 58
14 61 -12 12 -31 5 -37 -14z"/>
<path d="M1645 3859 c-4 -6 -5 -13 -2 -16 7 -7 27 6 27 18 0 12 -17 12 -25 -2z"/>
<path d="M2410 3850 c0 -5 5 -10 10 -10 6 0 10 5 10 10 0 6 -4 10 -10 10 -5 0
-10 -4 -10 -10z"/>
<path d="M3650 3753 c-8 -3 -23 -13 -33 -21 -9 -8 -29 -17 -43 -18 -36 -4 -38
-8 -40 -72 -1 -70 -20 -112 -57 -130 -30 -15 -32 -23 -15 -55 6 -12 12 -66 13
-120 2 -97 2 -97 -24 -103 -14 -4 -36 -16 -48 -27 -18 -16 -35 -20 -82 -18
l-59 2 -21 -44 c-23 -48 -28 -122 -8 -134 6 -4 18 -20 26 -35 8 -16 35 -51 60
-78 38 -42 54 -52 93 -59 57 -10 78 -25 78 -56 0 -31 38 -115 53 -117 74 -9
101 -3 134 30 19 19 38 45 44 59 12 33 12 83 -2 83 -5 0 -15 14 -20 30 -6 17
-17 30 -24 30 -8 0 -17 9 -20 20 -3 11 -11 20 -17 20 -7 0 -7 5 1 14 9 10 8
15 -4 20 -8 3 -15 10 -15 17 0 6 7 9 15 6 12 -5 14 6 12 67 -2 61 2 79 18 103
33 46 74 156 85 227 4 28 13 52 20 54 30 10 58 51 65 93 4 24 17 60 28 80 20
34 20 37 4 53 -9 10 -17 23 -17 31 0 12 -71 32 -94 26 -4 -1 -19 5 -32 14 -24
15 -47 18 -74 8z"/>
<path d="M2456 3690 c-19 -20 -15 -40 10 -40 9 0 14 11 14 30 0 35 1 34 -24
10z"/>
<path d="M5053 3644 c-8 -22 29 -54 63 -54 34 0 30 16 -6 24 -22 4 -30 11 -28
22 4 23 -20 30 -29 8z"/>
<path d="M4406 3634 c-9 -22 -8 -24 9 -18 8 4 15 12 15 20 0 19 -16 18 -24 -2z"/>
<path d="M3352 3608 c-7 -7 -12 -16 -12 -21 0 -5 -11 -18 -25 -29 -14 -11 -25
-30 -25 -43 0 -13 -4 -27 -10 -30 -13 -8 -12 -16 4 -38 10 -13 21 -15 44 -11
26 5 36 16 57 60 29 61 31 86 9 108 -19 19 -26 20 -42 4z"/>
<path d="M4345 3583 c-5 -12 -9 -14 -12 -5 -9 23 -40 13 -46 -15 -3 -16 -4
-30 -2 -31 4 -4 58 12 105 30 24 9 24 10 5 24 -25 19 -41 18 -50 -3z"/>
<path d="M1780 3535 c-7 -14 -19 -25 -27 -25 -16 0 -16 -1 -3 -34 7 -19 17
-26 35 -26 14 0 25 5 25 10 0 6 7 10 15 10 8 0 15 5 15 10 0 6 6 10 14 10 16
0 29 27 20 42 -3 5 -13 7 -21 4 -8 -3 -24 1 -37 9 -21 14 -23 13 -36 -10z"/>
<path d="M1395 3520 c-3 -5 -1 -10 4 -10 6 0 11 5 11 10 0 6 -2 10 -4 10 -3 0
-8 -4 -11 -10z"/>
<path d="M3388 3453 c7 -3 16 -2 19 1 4 3 -2 6 -13 5 -11 0 -14 -3 -6 -6z"/>
<path d="M4940 3450 c0 -5 5 -10 11 -10 5 0 7 5 4 10 -3 6 -8 10 -11 10 -2 0
-4 -4 -4 -10z"/>
<path d="M5020 3433 c-7 -18 -16 -30 -21 -27 -5 3 -9 -2 -9 -10 0 -9 -5 -16
-11 -16 -7 0 -10 -14 -7 -37 3 -26 0 -41 -10 -49 -10 -7 -13 -19 -9 -36 6 -21
11 -24 32 -20 24 4 25 2 19 -22 -5 -20 -1 -31 14 -44 20 -17 20 -18 1 -41 -27
-33 -10 -50 25 -27 26 17 34 40 17 50 -5 4 -5 22 -1 43 5 22 5 44 -1 55 -12
22 -16 125 -5 153 4 12 1 28 -8 40 -14 19 -15 19 -26 -12z"/>
<path d="M4140 3339 c0 -5 5 -7 10 -4 6 3 10 8 10 11 0 2 -4 4 -10 4 -5 0 -10
-5 -10 -11z"/>
<path d="M4181 3252 c-17 -19 -33 -42 -36 -51 -5 -17 -78 -51 -109 -51 -13 0
-16 -5 -12 -16 5 -13 2 -15 -15 -11 -16 4 -19 3 -11 -5 6 -6 8 -24 5 -39 -5
-25 -2 -29 16 -29 13 0 21 -6 21 -17 0 -25 -10 -36 -42 -50 -19 -8 -26 -17
-22 -28 9 -22 27 -19 58 10 23 21 30 23 54 14 66 -26 262 1 262 36 0 20 45 46
58 33 15 -15 42 -2 42 21 0 11 -7 24 -16 29 -11 6 -14 14 -8 23 5 8 7 40 5 72
-2 47 0 57 13 57 9 0 16 7 16 15 0 21 -10 19 -41 -11 -26 -25 -28 -25 -53 -9
-14 10 -26 22 -26 27 0 6 -6 8 -14 5 -8 -3 -17 -3 -21 1 -4 4 -26 7 -50 7 -37
1 -48 -5 -74 -33z"/>
<path d="M5256 3198 c-10 -21 -24 -38 -31 -38 -7 0 -19 -8 -26 -17 -12 -15
-12 -16 5 -10 15 6 17 3 13 -12 -9 -36 66 -81 98 -58 16 13 12 47 -6 47 -5 0
-9 10 -10 23 0 12 -6 40 -13 62 l-12 40 -18 -37z"/>
<path d="M4913 3074 c-19 -20 -15 -69 13 -169 33 -115 53 -221 47 -245 -12
-46 -138 -48 -158 -2 -19 42 -35 26 -35 -36 0 -32 -5 -63 -12 -70 -19 -19 -48
-14 -59 11 -13 28 -108 81 -130 72 -12 -4 -18 -25 -22 -81 -3 -41 -11 -82 -17
-90 -9 -10 -10 -17 -1 -28 7 -9 8 -27 3 -52 -6 -30 -13 -40 -30 -42 -12 -2
-22 1 -22 7 0 6 -11 11 -24 11 -13 0 -38 14 -56 30 -37 35 -54 33 -99 -10 -22
-19 -31 -37 -31 -58 0 -17 -4 -34 -10 -37 -5 -3 -10 -21 -10 -40 0 -49 -21
-65 -87 -65 -44 0 -63 -5 -89 -25 -18 -14 -37 -25 -43 -25 -5 0 -22 -13 -38
-28 -32 -32 -72 -56 -80 -48 -11 11 7 36 32 42 14 3 40 20 57 37 30 30 30 33
25 102 -5 75 -30 136 -70 172 -26 24 -77 39 -77 23 0 -6 -12 -10 -27 -8 -18 2
-27 8 -26 18 2 9 -10 21 -28 29 -32 14 -50 8 -31 -11 16 -16 15 -28 -3 -28 -8
0 -21 -16 -30 -35 -14 -35 -15 -36 -62 -30 -57 8 -103 -7 -110 -35 -3 -11 -9
-20 -14 -20 -5 0 -9 -13 -9 -29 0 -16 -6 -31 -12 -34 -9 -3 -7 -11 7 -26 l20
-23 -23 -19 c-43 -35 -155 -53 -165 -26 -3 8 -10 4 -23 -11 -14 -17 -35 -25
-80 -32 -70 -9 -144 -47 -144 -72 0 -9 -8 -23 -18 -30 -10 -7 -27 -29 -38 -48
-17 -30 -18 -39 -8 -59 8 -16 10 -31 3 -42 -5 -11 -5 -19 1 -21 6 -2 0 -19
-13 -38 -29 -42 -43 -106 -26 -112 7 -2 -4 -14 -23 -26 -51 -32 -72 -80 -57
-130 9 -32 20 -43 55 -61 25 -11 50 -21 58 -21 21 0 46 35 53 74 3 20 9 36 13
36 4 0 10 15 13 33 16 87 19 97 38 97 10 0 23 9 29 20 7 14 7 20 0 20 -25 0
-7 40 32 66 29 21 37 30 25 32 -18 4 -24 22 -7 22 6 0 10 6 10 13 1 17 31 52
59 67 33 17 81 24 81 10 0 -6 8 -10 18 -8 14 3 17 -4 14 -40 -2 -26 2 -50 10
-59 10 -13 10 -17 1 -20 -16 -6 -17 -30 -1 -35 8 -3 9 -12 0 -35 -9 -27 -7
-73 4 -73 2 0 19 7 38 17 43 20 51 37 28 59 -15 16 -17 16 -22 -7 l-6 -24 -12
23 c-8 14 -9 22 -2 22 5 0 10 9 10 19 0 30 17 34 41 10 l22 -22 13 33 c8 18
14 38 14 44 0 16 49 83 52 70 0 -5 2 -14 2 -21 1 -7 10 -19 21 -27 16 -11 17
-17 8 -27 -9 -9 -16 -9 -25 -1 -11 8 -14 6 -16 -13 -1 -15 7 -29 22 -39 22
-14 24 -14 29 4 3 14 14 20 32 20 21 0 25 -4 21 -18 -7 -21 43 -72 69 -72 20
0 19 39 -1 47 -8 3 -20 17 -25 30 -10 26 9 54 44 66 21 8 23 50 2 67 -28 23
-17 38 34 45 51 7 121 -13 121 -35 0 -22 29 -40 66 -40 20 0 52 -9 70 -21 35
-21 94 -94 94 -116 0 -8 14 -16 30 -19 29 -6 40 -27 20 -39 -5 -3 -10 -16 -10
-29 0 -24 -54 -86 -75 -86 -22 0 -65 -99 -65 -151 0 -37 4 -48 19 -52 12 -3
19 -14 19 -28 1 -13 3 -43 5 -66 2 -24 1 -43 -4 -43 -14 0 4 -73 23 -94 10
-12 26 -29 35 -38 9 -10 21 -27 27 -39 10 -21 60 -52 123 -78 15 -6 39 -18 53
-25 14 -8 66 -33 115 -57 71 -33 102 -42 149 -43 l58 -1 25 68 c27 71 45 83
78 50 21 -20 14 -82 -10 -95 -8 -5 -15 -16 -15 -23 0 -8 -4 -15 -10 -15 -21 0
-9 -31 25 -64 21 -21 35 -45 35 -60 0 -55 61 -34 97 34 13 24 42 66 64 92 41
49 69 112 69 156 0 24 -43 145 -60 167 -4 6 -10 22 -14 38 -3 15 -11 27 -17
27 -5 0 -21 11 -35 25 -26 26 -40 33 -28 14 4 -7 -1 -9 -12 -7 -29 6 -25 104
7 147 13 17 28 46 34 63 7 23 18 34 40 40 16 4 36 15 42 25 7 9 13 11 13 5 0
-7 7 -12 15 -12 9 0 15 -10 15 -26 0 -29 16 -64 30 -64 5 0 9 29 9 65 0 55 -4
67 -22 80 -20 14 -22 13 -33 -6 -11 -21 -11 -21 -17 6 -6 34 5 54 47 83 47 32
67 29 60 -8 -4 -19 -1 -38 10 -55 9 -13 16 -29 16 -35 0 -6 11 -26 25 -44 14
-18 25 -45 25 -59 0 -15 10 -33 25 -45 23 -19 26 -29 31 -116 4 -80 10 -106
33 -151 l28 -54 11 81 c7 44 10 83 7 87 -2 4 1 24 7 44 10 32 8 42 -13 81 -18
34 -21 48 -12 57 16 16 32 3 49 -37 8 -19 19 -34 24 -34 16 0 11 38 -6 48 -13
7 -13 13 -3 35 9 21 19 27 44 27 26 0 33 5 44 35 7 19 17 35 22 35 5 0 9 5 9
11 0 6 9 24 21 40 12 17 17 34 12 41 -12 20 -14 88 -2 88 7 0 9 14 5 38 -3 20
-9 55 -12 77 -3 22 -10 42 -16 44 -5 1 -20 13 -33 25 -13 11 -33 29 -44 38
-26 22 -27 43 -3 60 9 7 18 24 19 38 1 14 4 50 8 80 6 53 6 54 -13 37 -10 -9
-26 -17 -35 -17 -21 0 -22 29 -2 36 8 4 15 12 15 20 0 8 -7 14 -15 14 -19 0
-19 14 0 30 9 7 13 20 10 28 -3 8 0 21 6 28 20 24 -11 39 -76 38 -56 -1 -62 1
-73 25 -11 23 -10 28 9 44 12 9 27 17 34 17 6 0 17 11 23 25 6 14 18 25 26 25
35 0 29 86 -8 123 -14 15 -26 31 -26 37 0 5 -7 10 -16 10 -12 0 -14 7 -10 28
21 108 18 123 -19 82 -10 -11 -28 -20 -41 -20 -18 0 -26 8 -35 40 -7 21 -15
39 -18 38 -12 -2 -41 14 -41 23 0 5 8 9 17 9 34 0 -41 57 -102 77 -58 20 -70
32 -97 95 -2 4 -19 14 -38 22 -29 12 -37 12 -47 0z"/>
<path d="M5070 3070 c0 -5 5 -10 10 -10 6 0 10 5 10 10 0 6 -4 10 -10 10 -5 0
-10 -4 -10 -10z"/>
<path d="M5188 3018 c-7 -67 25 -96 36 -33 5 26 13 36 31 41 32 8 24 23 -9 17
-13 -3 -27 0 -30 6 -14 22 -24 10 -28 -31z"/>
<path d="M5036 3025 c4 -8 8 -15 10 -15 2 0 4 7 4 15 0 8 -4 15 -10 15 -5 0
-7 -7 -4 -15z"/>
<path d="M3890 2780 c-7 -13 -21 -20 -40 -20 -39 0 -39 -22 0 -50 23 -16 38
-19 65 -14 35 6 44 17 25 29 -6 4 -10 12 -8 18 3 18 -12 57 -22 57 -5 0 -14
-9 -20 -20z"/>
<path d="M4498 2772 c-18 -4 -24 -38 -10 -57 12 -18 64 -37 74 -27 26 26 -26
93 -64 84z"/>
<path d="M309 2234 c-13 -16 -12 -17 14 -12 23 4 27 2 27 -17 0 -13 6 -25 14
-28 20 -8 38 17 34 45 -2 18 -10 24 -39 26 -24 2 -40 -2 -50 -14z"/>
<path d="M250 2200 c0 -5 5 -10 10 -10 6 0 10 5 10 10 0 6 -4 10 -10 10 -5 0
-10 -4 -10 -10z"/>
<path d="M288 2163 c6 -2 18 -2 25 0 6 3 1 5 -13 5 -14 0 -19 -2 -12 -5z"/>
<path d="M210 2120 c0 -10 -6 -23 -14 -27 -19 -11 -22 -61 -5 -100 16 -39 23
-40 43 -11 28 39 17 158 -14 158 -6 0 -10 -9 -10 -20z"/>
<path d="M4137 1703 c-4 -3 -7 -11 -7 -17 0 -6 5 -5 12 2 6 6 9 14 7 17 -3 3
-9 2 -12 -2z"/>
<path d="M1023 1532 c-31 -5 -29 -20 3 -32 33 -13 31 -13 29 10 -2 25 -5 27
-32 22z"/>
<path d="M3133 1503 c-21 -8 -15 -22 7 -16 11 3 20 9 20 14 0 10 -8 10 -27 2z"/>
<path d="M5060 1476 c0 -8 5 -18 10 -21 6 -3 10 3 10 14 0 12 -4 21 -10 21 -5
0 -10 -6 -10 -14z"/>
<path d="M2970 1350 c0 -20 -5 -23 -50 -24 -33 -1 -41 -41 -11 -49 12 -3 21
-13 21 -25 0 -24 47 -72 71 -72 10 0 39 5 64 12 36 10 45 16 45 34 0 40 11 54
41 54 49 0 35 27 -21 40 -27 7 -50 15 -50 18 0 12 -53 32 -82 32 -21 0 -28 -5
-28 -20z"/>
<path d="M2770 1323 c0 -5 5 -15 10 -23 8 -12 10 -11 10 8 0 12 -4 22 -10 22
-5 0 -10 -3 -10 -7z"/>
<path d="M2265 1180 c3 -5 8 -10 11 -10 2 0 4 5 4 10 0 6 -5 10 -11 10 -5 0
-7 -4 -4 -10z"/>
<path d="M2185 1136 c-8 -19 -20 -36 -27 -39 -7 -3 1 -6 18 -6 30 -1 32 1 36
39 4 49 -8 52 -27 6z"/>
<path d="M2980 1120 c0 -5 5 -10 11 -10 5 0 7 5 4 10 -3 6 -8 10 -11 10 -2 0
-4 -4 -4 -10z"/>
<path d="M2235 1109 c-11 -17 1 -21 15 -4 8 9 8 15 2 15 -6 0 -14 -5 -17 -11z"/>
<path d="M2125 1040 c-3 -5 -1 -10 4 -10 6 0 11 5 11 10 0 6 -2 10 -4 10 -3 0
-8 -4 -11 -10z"/>
<path d="M2890 1035 c0 -8 7 -15 16 -15 14 0 14 3 4 15 -7 8 -14 15 -16 15 -2
0 -4 -7 -4 -15z"/>
<path d="M2425 979 c-30 -19 -55 -46 -55 -61 0 -17 40 -29 61 -18 15 9 24 8
35 -1 11 -9 23 -8 55 6 l40 19 23 -28 c20 -25 23 -26 35 -12 7 9 19 16 26 16
14 0 27 24 31 58 3 22 -11 31 -18 11 -2 -7 -27 -12 -55 -13 -45 -2 -53 1 -62
21 -8 18 -18 23 -48 22 -21 0 -51 -9 -68 -20z"/>
<path d="M2870 992 c0 -17 47 -41 69 -35 11 3 21 9 21 15 0 5 -8 4 -19 -1 -14
-8 -25 -6 -45 10 -14 11 -26 16 -26 11z"/>
<path d="M2816 965 c-3 -8 -1 -15 4 -15 13 0 22 18 11 24 -5 3 -11 -1 -15 -9z"/>
<path d="M2520 850 c0 -11 6 -20 14 -20 24 0 28 18 6 30 -17 9 -20 8 -20 -10z"/>
<path d="M2380 794 c0 -8 5 -12 10 -9 6 3 10 10 10 16 0 5 -4 9 -10 9 -5 0
-10 -7 -10 -16z"/>
<path d="M2335 779 c-4 -6 -4 -13 -1 -16 8 -8 36 5 36 17 0 13 -27 13 -35 -1z"/>
<path d="M2460 769 c0 -5 5 -7 10 -4 6 3 10 8 10 11 0 2 -4 4 -10 4 -5 0 -10
-5 -10 -11z"/>
<path d="M2323 710 c-27 -11 -28 -18 -7 -41 14 -15 18 -15 45 -2 32 16 35 23
17 41 -14 14 -24 14 -55 2z"/>
<path d="M4937 646 c-6 -16 2 -28 14 -20 12 7 11 34 0 34 -5 0 -11 -6 -14 -14z"/>
<path d="M4887 629 c-25 -14 -21 -29 8 -29 15 0 25 6 25 14 0 21 -12 26 -33
15z"/>
<path d="M1935 555 c-25 -20 -50 -33 -54 -30 -5 2 -15 -2 -22 -11 -7 -9 -33
-25 -57 -36 -43 -21 -73 -61 -57 -76 4 -4 10 -1 12 6 3 6 18 12 33 12 16 0 32
5 35 10 3 6 14 10 24 10 10 0 23 12 30 26 8 19 17 25 32 21 11 -3 33 -2 49 3
23 7 28 5 23 -6 -3 -8 1 -14 11 -14 17 0 18 1 18 45 1 36 -11 75 -22 75 -5 0
-29 -16 -55 -35z"/>
<path d="M2027 515 c-4 -8 -3 -16 1 -19 13 -8 35 11 28 23 -10 15 -23 14 -29
-4z"/>
<path d="M2071 514 c0 -11 3 -14 6 -6 3 7 2 16 -1 19 -3 4 -6 -2 -5 -13z"/>
<path d="M2051 458 c-14 -23 -14 -23 8 -4 22 20 25 26 13 26 -4 0 -13 -10 -21
-22z"/>
<path d="M1881 384 c0 -11 3 -14 6 -6 3 7 2 16 -1 19 -3 4 -6 -2 -5 -13z"/>
<path d="M1772 336 c1 -10 8 -17 13 -17 15 1 12 24 -3 29 -9 3 -13 -2 -10 -12z"/>
<path d="M1573 326 c4 -10 7 -43 8 -74 l1 -57 14 34 c12 26 13 40 4 67 -6 18
-16 37 -22 41 -8 4 -9 0 -5 -11z"/>
<path d="M1546 261 c-4 -7 -5 -15 -2 -18 9 -9 19 4 14 18 -4 11 -6 11 -12 0z"/>
</g>
</svg>
