<?xml version="1.0" standalone="no"?>
<!DOCTYPE svg PUBLIC "-//W3C//DTD SVG 20010904//EN"
 "http://www.w3.org/TR/2001/REC-SVG-20010904/DTD/svg10.dtd">
<svg version="1.0" xmlns="http://www.w3.org/2000/svg"
 width="568.000000pt" height="516.000000pt" viewBox="0 0 568.000000 516.000000"
 preserveAspectRatio="xMidYMid meet">
<metadata>
Created by potrace 1.16, written by Peter Selinger 2001-2019
</metadata>
<g transform="translate(0.000000,516.000000) scale(0.100000,-0.100000)"
fill="#000000" stroke="none">
<path d="M2085 5049 c-38 -11 -110 -30 -160 -43 -140 -36 -222 -79 -348 -183
-29 -25 -72 -47 -109 -59 -34 -10 -98 -42 -142 -71 -124 -81 -263 -149 -344
-167 -87 -20 -349 -120 -375 -144 -11 -9 -34 -46 -51 -82 -24 -48 -41 -69 -68
-84 -50 -26 -64 -61 -48 -126 22 -94 -1 -104 -60 -27 -38 51 -74 77 -105 77
-22 0 -19 -67 10 -224 30 -161 30 -177 5 -281 -14 -60 -24 -84 -42 -95 -13 -8
-37 -28 -55 -45 -29 -29 -31 -36 -28 -86 4 -51 7 -57 56 -102 28 -26 77 -65
109 -87 36 -24 64 -52 74 -75 17 -36 17 -39 -9 -120 -31 -96 -27 -131 26 -181
26 -25 29 -33 24 -67 -5 -24 -2 -43 5 -52 10 -12 9 -24 -5 -57 -40 -99 -71
-204 -65 -223 3 -11 18 -45 33 -76 23 -48 25 -59 15 -86 -11 -30 -10 -32 55
-95 l67 -63 0 -128 c0 -116 -2 -132 -25 -177 -13 -27 -36 -74 -49 -104 l-25
-56 43 0 c42 0 43 0 57 47 14 47 15 48 63 56 27 4 51 6 53 3 3 -2 11 -34 20
-71 9 -42 26 -81 47 -108 35 -46 28 -43 288 -112 161 -43 168 -44 209 -30 48
17 60 12 80 -36 12 -30 11 -32 -36 -72 -39 -33 -75 -87 -75 -111 0 -2 17 -10
38 -16 50 -17 64 -30 117 -116 43 -68 94 -114 126 -114 8 0 24 16 36 35 13 19
41 44 63 55 53 27 53 53 0 80 -22 11 -40 27 -40 34 0 20 28 46 49 46 42 0 143
-44 184 -81 40 -35 123 -79 148 -79 6 0 29 9 51 20 23 11 45 20 49 20 5 0 11
-17 15 -37 6 -32 3 -40 -20 -59 -14 -13 -26 -28 -26 -34 0 -20 80 -97 120
-115 38 -17 43 -17 76 -2 46 22 46 22 93 -17 34 -28 51 -35 108 -40 99 -10
100 -11 112 -66 17 -81 49 -138 97 -172 27 -19 49 -45 59 -71 9 -22 27 -54 41
-70 15 -18 24 -41 24 -62 l0 -34 46 14 c57 17 64 24 84 77 11 31 29 51 73 81
68 46 71 45 119 -45 28 -52 39 -63 84 -83 28 -12 55 -28 58 -34 4 -6 10 -42
13 -80 6 -77 11 -81 85 -81 34 0 42 6 97 74 72 88 104 105 168 88 39 -11 50
-10 90 8 61 27 80 25 133 -10 54 -36 63 -37 87 -7 28 36 57 48 157 63 119 18
184 18 259 -2 110 -28 141 -52 152 -116 4 -20 12 -41 18 -46 19 -15 377 -124
425 -130 40 -4 42 -3 42 22 0 17 -10 33 -30 48 -33 24 -50 69 -50 132 0 21 -7
78 -16 127 -11 58 -14 107 -10 143 8 58 12 66 261 416 49 69 128 181 176 249
l87 123 77 26 c94 31 110 51 110 138 0 50 -4 67 -21 86 -37 40 -45 66 -53 172
-10 120 -25 156 -101 236 -83 89 -112 162 -125 315 -5 50 -16 91 -41 143 l-35
72 26 81 c43 136 28 254 -39 306 -15 12 -49 24 -81 28 -80 10 -86 19 -67 101
l16 67 107 78 c115 85 165 135 175 174 8 31 3 71 -24 205 -12 58 -24 136 -27
173 -6 57 -12 74 -40 110 -44 54 -126 209 -166 312 -40 103 -58 205 -59 332
l0 102 -32 25 c-18 13 -80 48 -138 77 -135 69 -181 72 -256 18 -27 -20 -66
-41 -85 -47 -42 -14 -251 -40 -418 -52 -171 -12 -665 11 -858 41 -52 8 -74 6
-139 -12 -69 -19 -97 -21 -248 -17 -226 6 -268 24 -337 144 -32 57 -37 95 -13
118 29 30 68 19 139 -39 68 -56 105 -69 105 -37 0 16 -91 93 -189 159 -108 73
-261 93 -406 52z"/>
</g>
</svg>
