<?xml version="1.0" standalone="no"?>
<!DOCTYPE svg PUBLIC "-//W3C//DTD SVG 20010904//EN"
 "http://www.w3.org/TR/2001/REC-SVG-20010904/DTD/svg10.dtd">
<svg version="1.0" xmlns="http://www.w3.org/2000/svg"
 width="1024.000000pt" height="1024.000000pt" viewBox="0 0 1024.000000 1024.000000"
 preserveAspectRatio="xMidYMid meet">
<metadata>
Created by potrace 1.16, written by Peter Selinger 2001-2019
</metadata>
<g transform="translate(0.000000,1024.000000) scale(0.100000,-0.100000)"
fill="#000000" stroke="none">
<path d="M4555 9381 c-27 -10 -108 -39 -178 -65 -70 -26 -160 -53 -200 -62
-90 -19 -108 -30 -153 -102 -20 -31 -62 -84 -93 -117 -102 -110 -151 -200
-151 -277 0 -64 27 -100 85 -113 19 -4 25 -9 15 -12 -25 -9 -50 -35 -50 -52 0
-9 19 -53 42 -99 39 -76 41 -87 38 -150 -7 -140 -2 -186 23 -253 14 -37 37
-121 51 -188 17 -81 37 -145 59 -189 48 -94 51 -115 27 -213 -15 -64 -19 -114
-18 -209 2 -116 0 -130 -25 -188 -15 -35 -41 -118 -57 -185 -16 -67 -43 -162
-60 -212 -62 -181 -72 -226 -79 -361 -6 -122 -8 -134 -39 -194 -41 -77 -37
-102 18 -130 51 -26 51 -48 0 -104 -24 -26 -58 -85 -88 -152 -27 -60 -59 -130
-70 -155 -24 -53 -41 -120 -42 -164 0 -55 -20 -103 -59 -142 -54 -54 -71 -92
-71 -160 0 -114 -36 -180 -110 -202 l-42 -12 7 -54 6 -55 -35 15 c-39 17 -33
20 -92 -48 -13 -15 -24 -18 -60 -12 -30 4 -44 3 -44 -5 0 -6 13 -43 30 -81 64
-151 62 -248 -7 -329 -46 -54 -56 -93 -43 -173 11 -69 3 -134 -24 -198 -23
-55 -49 -209 -43 -263 3 -38 11 -55 31 -73 24 -21 33 -22 104 -17 187 14 332
67 358 130 8 18 14 42 14 52 0 31 88 259 121 312 38 61 67 82 144 105 33 9 77
26 98 37 60 30 70 9 20 -42 -37 -36 -46 -40 -90 -40 -27 0 -56 -6 -64 -12 -25
-21 -129 -205 -129 -228 0 -11 11 -31 23 -43 71 -66 61 -157 -23 -230 -67 -57
-132 -77 -250 -77 -55 0 -100 -3 -100 -6 0 -3 11 -20 24 -37 64 -85 71 -112
70 -255 0 -77 3 -132 9 -132 5 0 39 16 76 36 36 20 113 57 171 82 94 41 113
46 180 47 l75 0 22 45 22 45 1 -38 c0 -47 17 -80 75 -148 56 -65 58 -84 10
-76 -32 5 -144 57 -222 103 -17 10 -35 15 -39 12 -4 -4 9 -43 29 -85 56 -123
58 -138 53 -390 -5 -233 -11 -275 -53 -357 -21 -40 -9 -70 39 -103 69 -46 76
-74 52 -210 -5 -26 0 -37 25 -64 17 -17 31 -38 31 -46 0 -7 -18 -36 -40 -64
-22 -28 -45 -69 -51 -92 -12 -46 -6 -167 11 -211 19 -50 12 -93 -18 -116 -45
-36 -52 -57 -45 -145 5 -78 5 -81 -26 -119 -17 -21 -31 -39 -32 -40 0 0 -4
-36 -8 -79 -7 -61 -15 -88 -41 -130 -40 -64 -41 -94 -6 -124 43 -36 78 -30
133 23 26 26 72 57 101 71 45 21 62 24 110 18 51 -6 64 -3 125 25 74 35 80 35
187 -6 31 -11 96 -19 205 -25 220 -11 241 -17 325 -95 39 -35 74 -64 78 -64 5
0 25 18 45 40 19 22 40 40 46 40 5 0 26 -16 47 -35 20 -19 41 -35 46 -35 10 0
38 29 85 87 25 31 62 55 170 108 158 78 259 139 273 165 15 28 12 64 -9 118
-31 79 -35 132 -16 215 26 109 21 119 -109 230 -48 41 -44 56 18 87 55 26 82
61 96 124 18 81 46 124 105 162 65 41 82 70 94 161 11 74 6 68 130 164 67 52
84 56 138 37 21 -8 36 -9 42 -3 5 6 17 53 26 105 9 52 23 117 32 144 14 44 14
49 -1 64 -14 14 -23 14 -74 4 -122 -25 -159 -7 -187 94 -27 101 -63 186 -115
274 -58 100 -62 131 -25 223 23 54 33 101 51 234 6 43 45 87 94 107 62 25 123
88 179 185 98 170 108 210 70 288 -31 63 -99 90 -164 64 -31 -13 -43 4 -37 54
6 57 -6 71 -72 85 -30 6 -62 17 -72 25 -17 12 -18 16 -5 47 7 18 16 50 18 71
4 32 0 45 -26 78 -45 56 -61 99 -61 169 0 71 -13 88 -86 116 -70 26 -117 57
-151 101 -79 101 -95 208 -34 228 11 3 82 -1 159 -9 147 -17 384 -22 445 -11
62 12 84 44 89 129 4 60 11 84 37 127 74 126 106 202 106 259 0 52 -4 61 -82
177 -95 142 -103 161 -77 180 10 7 24 13 31 13 25 0 77 32 105 64 48 54 120
183 124 223 4 24 -2 60 -16 98 -31 90 -37 221 -15 341 22 114 25 280 7 341
-12 39 -33 72 -109 173 -45 58 -43 90 6 143 29 31 57 49 104 66 77 27 111 59
133 126 43 128 125 196 275 229 50 11 83 24 97 39 17 19 204 277 279 386 13
19 23 43 23 54 0 30 -79 100 -154 137 -76 38 -152 44 -248 20 -80 -19 -83 -14
-62 96 22 116 22 262 0 336 -20 71 -42 80 -119 50 -90 -36 -118 -33 -164 18
-20 22 -42 40 -48 40 -6 0 -26 -16 -44 -35 -17 -19 -35 -35 -40 -35 -4 0 -24
11 -44 24 -56 38 -71 39 -126 11 -59 -29 -108 -32 -175 -8 -48 18 -48 18 -67
-6 -10 -13 -19 -38 -19 -56 0 -102 -74 -166 -195 -169 -46 -1 -68 4 -95 21
-86 55 -94 57 -145 41 -45 -15 -46 -15 -28 4 17 19 17 21 -4 38 -44 36 -156
34 -270 -5 -42 -14 -47 -14 -64 1 -10 9 -21 26 -25 38 -14 45 -24 47 -59 11
-25 -27 -40 -35 -67 -35 -61 0 -95 -19 -138 -76 -24 -32 -48 -54 -60 -54 -29
0 -79 48 -91 88 -10 36 -7 44 56 172 36 74 65 143 63 155 -3 17 -10 20 -54 20
-67 0 -84 15 -84 76 0 38 -4 51 -19 59 -24 12 -16 13 -76 -9z"/>
</g>
</svg>
