<?xml version="1.0" standalone="no"?>
<!DOCTYPE svg PUBLIC "-//W3C//DTD SVG 20010904//EN"
 "http://www.w3.org/TR/2001/REC-SVG-20010904/DTD/svg10.dtd">
<svg version="1.0" xmlns="http://www.w3.org/2000/svg"
 width="1024.000000pt" height="1024.000000pt" viewBox="0 0 1024.000000 1024.000000"
 preserveAspectRatio="xMidYMid meet">
<metadata>
Created by potrace 1.16, written by Peter Selinger 2001-2019
</metadata>
<g transform="translate(0.000000,1024.000000) scale(0.100000,-0.100000)"
fill="#000000" stroke="none">
<path d="M5201 8808 c0 -30 1 -31 9 -10 8 19 17 22 60 22 27 0 50 5 50 10 0 6
-27 10 -60 10 l-60 0 1 -32z"/>
<path d="M5290 8737 c0 -7 -9 -23 -21 -36 -16 -17 -27 -21 -50 -16 -16 4 -45
1 -64 -6 -31 -11 -37 -11 -45 1 -10 17 -10 17 -33 -33 -11 -25 -34 -48 -67
-69 -51 -32 -55 -38 -41 -73 26 -63 -119 -161 -167 -113 -9 9 -18 6 -39 -14
-22 -21 -32 -25 -46 -16 -15 8 -24 4 -48 -20 -25 -25 -78 -52 -153 -76 -13 -4
-16 -11 -11 -24 16 -36 15 -80 -3 -162 -15 -68 -22 -84 -35 -82 -12 2 -17 -4
-17 -23 0 -15 -14 -40 -35 -62 -30 -31 -37 -35 -45 -23 -5 8 -10 29 -10 47 0
17 -5 35 -11 39 -20 12 -30 -19 -24 -76 16 -177 16 -220 -5 -258 -11 -20 -30
-49 -42 -64 l-21 -27 24 -20 c24 -19 24 -19 4 -41 -13 -14 -26 -19 -41 -16
-30 8 -35 -2 -39 -76 -5 -70 5 -88 46 -88 41 0 62 -26 56 -70 -2 -20 0 -45 5
-54 8 -14 5 -21 -11 -32 -14 -10 -21 -26 -21 -47 0 -29 -5 -34 -47 -52 -26
-11 -51 -21 -55 -23 -4 -2 -1 12 7 32 23 54 19 108 -9 135 -31 29 -79 33 -84
6 -2 -11 -26 -41 -53 -67 -45 -42 -49 -50 -49 -92 0 -38 5 -52 27 -72 l27 -25
-19 -32 c-10 -18 -24 -36 -32 -40 -7 -4 -22 -26 -32 -48 -17 -35 -18 -50 -11
-132 14 -152 23 -185 59 -218 18 -16 35 -29 38 -29 2 0 13 -10 23 -22 16 -21
20 -21 44 -9 20 11 28 12 41 1 11 -9 15 -9 15 0 0 8 10 9 30 5 19 -4 37 -2 46
6 24 20 27 3 4 -28 -18 -25 -20 -33 -9 -56 9 -21 9 -30 -1 -42 -19 -23 -46
-18 -80 15 -40 39 -71 39 -88 0 -8 -16 -10 -35 -7 -41 4 -6 -2 -24 -14 -40
-12 -17 -21 -40 -19 -53 1 -13 -3 -31 -11 -40 -8 -9 -17 -34 -21 -56 -6 -33
-4 -40 11 -45 25 -8 24 -42 -1 -55 -22 -12 -26 -35 -9 -45 6 -4 13 2 16 14 8
32 33 26 33 -8 0 -20 -9 -36 -27 -51 -23 -18 -25 -24 -15 -40 16 -26 15 -31
-3 -24 -11 5 -13 2 -9 -9 5 -13 0 -15 -29 -10 -29 4 -37 2 -47 -16 -19 -36
-34 -19 -36 42 -2 50 1 57 17 57 10 0 19 4 19 9 0 4 12 6 27 3 25 -5 26 -3 20
28 -4 18 -7 41 -7 51 0 11 -7 19 -15 19 -9 0 -15 -9 -15 -25 0 -28 -27 -35
-36 -10 -4 8 -12 15 -20 15 -8 0 -14 10 -14 24 0 14 -5 28 -11 32 -8 4 -10 27
-6 66 5 54 3 60 -19 75 -30 19 -32 58 -4 73 11 6 20 17 20 25 0 7 7 20 15 28
8 9 17 42 20 76 4 55 3 61 -14 61 -10 0 -21 7 -25 15 -3 8 -14 15 -25 15 -13
0 -27 12 -36 30 -21 40 -35 38 -37 -5 -1 -19 -2 -43 -2 -52 -1 -11 15 -26 39
-39 31 -16 40 -26 40 -47 1 -15 -1 -27 -3 -27 -3 0 -20 17 -37 38 -18 20 -36
34 -39 31 -4 -4 5 -21 20 -38 14 -18 24 -34 21 -37 -3 -3 -20 13 -38 35 -31
39 -70 54 -83 32 -4 -5 -24 -12 -45 -16 -33 -5 -41 -12 -50 -38 -9 -25 -8 -34
3 -46 13 -13 20 -12 55 3 21 10 44 16 49 12 5 -3 14 -34 20 -68 23 -136 23
-136 -9 -180 -31 -44 -39 -88 -14 -88 8 0 15 -6 15 -14 0 -7 7 -19 15 -26 8
-7 15 -22 15 -34 1 -11 2 -42 3 -68 2 -37 7 -51 25 -63 52 -37 0 -86 -53 -51
-21 14 -25 24 -25 67 0 40 -6 58 -25 81 -14 16 -25 36 -25 43 0 8 -8 30 -17
50 -14 30 -22 35 -50 35 -27 0 -45 -10 -89 -51 -30 -29 -54 -57 -54 -62 0 -6
9 -20 20 -32 19 -20 20 -28 11 -76 -5 -30 -17 -79 -26 -109 -30 -99 -33 -128
-18 -150 9 -13 12 -31 8 -47 -4 -17 0 -32 12 -45 14 -15 15 -24 7 -47 -16 -41
-5 -142 17 -166 18 -20 18 -26 5 -100 -10 -58 -11 -85 -3 -103 8 -17 8 -29 -1
-43 -15 -24 -15 -123 0 -166 9 -26 9 -43 -1 -83 -10 -38 -10 -57 -1 -85 9 -27
9 -43 -1 -70 -11 -31 -10 -41 10 -91 21 -50 23 -67 18 -148 -3 -50 -8 -98 -12
-107 -4 -11 9 -34 39 -68 25 -29 46 -57 46 -63 0 -5 13 -25 28 -43 37 -41 63
-176 40 -203 -36 -43 -58 -95 -58 -140 0 -50 12 -75 63 -129 18 -20 32 -49 38
-79 9 -49 20 -62 82 -94 31 -17 37 -25 37 -54 0 -18 8 -44 19 -57 22 -29 33
-71 33 -119 -1 -19 -1 -61 -1 -94 0 -35 -6 -68 -16 -82 -21 -33 -19 -55 11
-95 25 -33 26 -38 19 -124 -3 -49 -11 -94 -16 -100 -5 -5 -30 -17 -54 -25
l-45 -15 188 -449 188 -450 140 -103 141 -103 192 -65 c105 -36 200 -65 210
-65 11 0 187 36 393 80 205 44 377 80 381 80 5 0 6 8 3 18 -4 11 0 35 9 55 10
24 15 70 15 136 0 56 4 103 10 106 6 3 10 15 10 25 0 10 8 23 18 29 13 8 15
14 6 27 -16 28 -31 27 -38 -1 -8 -30 -26 -33 -33 -6 -3 11 -16 22 -30 26 -21
5 -24 10 -18 35 6 29 -7 42 -20 20 -4 -6 -13 -7 -24 -1 -12 7 -26 5 -44 -4
-23 -12 -37 -12 -93 0 -36 7 -67 15 -68 17 -26 45 -29 58 -15 75 9 10 21 31
27 46 14 33 35 26 26 -9 -5 -18 -2 -24 11 -24 9 0 19 9 22 21 5 18 11 20 43
15 32 -5 38 -3 43 14 7 27 47 27 54 0 3 -11 8 -20 12 -20 15 0 31 25 31 47 0
13 4 23 9 23 5 0 7 9 4 20 -8 29 6 25 17 -6 7 -18 6 -33 -5 -54 -8 -16 -12
-36 -9 -44 5 -13 9 -12 25 7 l18 22 1 -22 c0 -25 19 -41 29 -24 4 6 30 12 59
13 45 3 52 6 52 24 0 26 25 50 35 34 3 -5 4 -14 0 -20 -3 -5 0 -17 6 -28 9
-14 7 -26 -7 -58 -12 -23 -18 -54 -16 -77 4 -42 22 -41 22 1 0 35 25 105 38
110 6 2 1 -34 -11 -80 -21 -79 -23 -83 -52 -86 -37 -4 -52 -17 -38 -34 11 -14
23 -65 26 -110 3 -37 16 -35 57 7 18 19 49 40 68 46 25 8 33 16 29 29 -2 9 2
28 9 41 8 14 11 38 8 55 -3 18 -1 35 5 38 6 4 11 25 11 47 l0 41 39 -7 c47 -8
74 4 97 44 10 17 29 31 44 35 30 6 44 31 58 111 20 106 38 152 83 215 69 96
73 107 80 200 7 86 39 194 72 240 9 13 17 38 17 55 0 44 32 89 82 116 28 16
44 32 46 47 2 13 26 46 53 73 27 27 49 56 49 64 0 8 11 25 25 37 14 12 30 40
36 62 6 22 23 55 37 74 l27 35 -23 15 c-41 27 -18 72 37 72 22 0 57 42 90 107
26 52 27 81 2 107 -11 12 -26 54 -35 95 -14 71 -14 77 5 122 19 44 20 49 4 79
-14 26 -14 37 -4 68 7 20 13 66 14 102 2 52 -2 69 -17 83 -23 23 -23 52 1 74
17 16 19 27 13 99 -7 74 -11 84 -44 123 -45 53 -55 89 -34 130 9 16 16 38 16
49 0 10 4 22 10 28 6 6 5 18 -3 34 -10 19 -21 25 -47 26 -55 2 -56 3 -68 28
-9 20 -20 24 -66 28 -41 3 -63 11 -82 29 -22 21 -25 29 -19 70 6 41 4 47 -14
52 -11 3 -26 17 -33 32 -11 24 -10 29 10 44 23 17 21 34 -3 25 -8 -3 -15 7
-19 27 -8 43 -8 51 4 44 6 -4 7 26 4 82 -3 48 -7 122 -9 163 -2 41 -7 86 -11
99 l-7 25 35 -22 c38 -24 58 -28 58 -12 0 6 -6 10 -13 10 -21 0 -104 69 -110
91 -3 12 -22 27 -47 36 -37 15 -40 19 -35 44 4 18 1 30 -8 36 -8 4 -22 20 -31
35 -16 24 -16 33 -5 83 9 39 16 54 26 51 8 -3 13 2 13 12 1 9 2 71 3 137 4
141 12 165 62 165 36 0 56 17 35 30 -16 10 2 45 31 61 24 12 38 4 21 -13 -20
-20 -14 -28 24 -28 31 0 37 4 50 37 15 34 35 134 29 141 -1 2 -15 4 -31 5 -23
2 -28 -2 -26 -15 2 -10 -3 -18 -11 -18 -24 0 -27 50 -6 87 11 19 17 38 14 43
-9 15 -35 -1 -35 -21 0 -32 -70 -16 -90 21 -15 29 4 63 31 55 12 -4 31 1 47
11 33 21 123 29 116 9 -3 -7 2 -15 10 -18 23 -9 20 -34 -4 -40 -30 -8 -24 -25
6 -19 20 4 31 -1 45 -19 16 -20 20 -22 29 -9 5 8 10 33 10 55 0 29 6 45 24 60
35 29 40 85 13 126 -21 31 -42 37 -42 12 0 -6 -4 -15 -8 -19 -4 -4 0 -17 8
-30 13 -20 12 -23 -1 -28 -26 -10 -31 -7 -44 25 -8 18 -28 38 -50 49 -20 10
-55 40 -76 65 -44 53 -51 65 -35 65 7 0 14 -7 18 -16 3 -8 12 -13 21 -9 8 3
24 -5 37 -19 12 -13 32 -27 43 -31 20 -6 22 -3 22 35 0 33 -3 41 -15 37 -25
-10 -25 8 2 42 21 27 30 31 54 26 26 -6 31 -3 44 29 9 20 20 36 25 36 19 0 10
40 -25 106 -34 64 -41 96 -29 128 3 9 13 16 21 16 16 0 14 9 -18 94 -19 51
-17 127 5 155 13 16 -6 32 -81 68 -29 14 -58 31 -64 39 -9 10 -14 12 -19 4 -5
-8 -19 -4 -44 11 -38 22 -44 39 -6 19 34 -18 34 -5 0 23 -55 47 -148 60 -225
32 -22 -8 -58 -15 -80 -15 -49 0 -137 43 -171 83 -22 26 -25 38 -23 103 l2 74
-60 63 c-106 112 -108 116 -109 246 -1 130 10 112 -119 198 -38 26 -97 57
-130 69 -33 12 -83 34 -111 48 -56 28 -114 35 -114 13z"/>
<path d="M6590 7060 c0 -5 4 -10 9 -10 6 0 13 5 16 10 3 6 -1 10 -9 10 -9 0
-16 -4 -16 -10z"/>
<path d="M6697 7063 c-5 -7 -5 -13 -1 -13 4 0 -1 -9 -11 -20 -22 -24 -11 -41
11 -18 9 8 14 26 12 39 -2 17 -6 20 -11 12z"/>
<path d="M6630 7014 c0 -8 5 -12 10 -9 6 3 10 10 10 16 0 5 -4 9 -10 9 -5 0
-10 -7 -10 -16z"/>
<path d="M6584 5465 c1 -41 6 -43 32 -14 18 20 18 21 -1 35 -28 20 -32 18 -31
-21z"/>
<path d="M6617 5223 c-10 -9 -9 -23 1 -23 5 0 17 7 28 15 19 14 19 14 -2 15
-11 0 -24 -3 -27 -7z"/>
<path d="M5490 2115 c0 -8 5 -15 10 -15 6 0 10 7 10 15 0 8 -4 15 -10 15 -5 0
-10 -7 -10 -15z"/>
<path d="M5670 2121 c0 -13 29 -35 37 -28 7 8 -15 37 -28 37 -5 0 -9 -4 -9 -9z"/>
</g>
</svg>
