<?xml version="1.0" standalone="no"?>
<!DOCTYPE svg PUBLIC "-//W3C//DTD SVG 20010904//EN"
 "http://www.w3.org/TR/2001/REC-SVG-20010904/DTD/svg10.dtd">
<svg version="1.0" xmlns="http://www.w3.org/2000/svg"
 width="696.000000pt" height="492.000000pt" viewBox="0 0 696.000000 492.000000"
 preserveAspectRatio="xMidYMid meet">
<metadata>
Created by potrace 1.16, written by Peter Selinger 2001-2019
</metadata>
<g transform="translate(0.000000,492.000000) scale(0.100000,-0.100000)"
fill="#000000" stroke="none">
<path d="M4660 4786 c-14 -8 -51 -21 -84 -29 -32 -9 -66 -23 -76 -32 -11 -10
-42 -57 -71 -105 -56 -96 -54 -95 -164 -105 -38 -4 -97 -13 -130 -20 -33 -7
-98 -16 -145 -20 -219 -15 -272 -37 -321 -131 -33 -66 -71 -89 -143 -89 -58 0
-59 0 -90 44 -18 25 -50 54 -71 67 -22 12 -49 37 -60 56 -37 65 -43 68 -111
68 -34 0 -66 -5 -69 -10 -10 -17 -75 -40 -111 -40 -18 0 -64 12 -101 26 -56
21 -78 24 -121 19 -47 -6 -57 -4 -78 16 -19 18 -35 23 -67 21 -23 -1 -63 6
-89 15 -44 16 -49 16 -66 0 -35 -32 -68 -21 -138 44 -58 54 -69 60 -102 57
-30 -2 -40 -9 -51 -33 -25 -55 -42 -67 -83 -61 -34 6 -39 3 -52 -22 -8 -15
-38 -50 -68 -79 -29 -28 -69 -69 -88 -91 -42 -48 -77 -59 -132 -41 -39 13 -41
12 -60 -14 -15 -20 -28 -27 -54 -27 -38 0 -69 -27 -121 -105 -15 -22 -51 -66
-81 -98 l-53 -57 6 -53 c6 -52 6 -52 -42 -102 -39 -41 -52 -64 -70 -126 -18
-63 -32 -86 -82 -143 -52 -59 -61 -75 -61 -107 0 -21 -5 -41 -11 -45 -6 -3
-19 -25 -30 -48 -11 -22 -30 -56 -44 -75 -18 -24 -25 -47 -25 -80 0 -40 -6
-52 -40 -88 -21 -24 -48 -43 -59 -43 -22 0 -30 -9 -49 -60 -23 -60 -25 -78 -9
-100 20 -29 13 -44 -29 -69 -21 -13 -34 -28 -34 -41 0 -11 -22 -44 -50 -72
l-49 -52 -71 23 c-92 29 -119 21 -148 -49 -11 -27 -32 -56 -47 -66 -25 -16
-28 -16 -61 -1 -40 20 -70 22 -80 6 -4 -7 -23 -9 -50 -5 -50 6 -91 -8 -100
-36 -3 -12 6 -36 24 -66 16 -26 33 -57 37 -69 3 -13 13 -23 20 -23 26 0 65
-23 70 -41 3 -10 28 -34 56 -54 34 -24 56 -50 69 -79 18 -43 35 -56 70 -56 27
0 33 -32 19 -96 -11 -49 -10 -59 5 -85 16 -28 17 -32 2 -48 -23 -25 -20 -38
13 -49 17 -6 46 -34 70 -65 54 -74 85 -97 132 -97 32 0 42 -6 64 -34 21 -28
38 -37 79 -46 59 -12 133 -55 142 -82 8 -25 -33 -97 -61 -108 -42 -16 -26 -59
34 -90 65 -33 60 -70 -10 -70 -46 0 -68 -20 -62 -55 7 -34 39 -55 83 -55 49 0
82 -20 94 -57 17 -49 28 -55 118 -60 118 -7 146 -22 185 -105 25 -51 39 -69
58 -74 35 -9 50 7 95 95 33 67 44 79 89 104 28 15 55 27 61 27 5 0 32 -20 60
-45 28 -25 57 -45 66 -45 33 0 74 -30 74 -54 0 -32 -22 -38 -65 -20 -32 13
-36 13 -55 -6 -11 -11 -20 -24 -20 -28 0 -5 -11 -14 -25 -20 -30 -14 -33 -50
-9 -108 22 -54 41 -72 84 -84 30 -8 39 -16 46 -42 7 -25 28 -46 84 -85 41 -28
94 -56 116 -62 64 -16 67 -72 5 -86 -16 -3 -36 -14 -45 -24 -22 -24 -47 -101
-41 -122 11 -34 61 -59 127 -66 53 -5 72 -2 118 18 74 32 168 33 228 1 30 -15
60 -22 102 -22 37 0 76 -7 102 -19 66 -29 300 -101 328 -101 14 0 59 17 100
37 91 45 130 47 185 10 41 -28 83 -35 102 -16 5 5 35 13 65 16 43 4 63 1 94
-15 24 -12 58 -20 86 -20 32 1 60 -7 94 -26 72 -40 116 -43 204 -11 41 14 93
32 114 38 27 8 54 29 85 66 25 29 80 89 122 132 74 75 80 79 170 108 52 16
135 34 186 40 61 6 132 23 210 50 77 27 134 41 168 41 65 0 170 -35 192 -64
40 -50 68 -59 159 -53 l84 6 22 -29 c25 -34 66 -39 123 -16 40 17 45 13 73
-59 35 -93 171 -164 329 -173 106 -5 123 2 123 54 0 18 11 63 24 98 22 57 24
77 21 183 -2 65 -9 137 -16 161 -16 53 -15 55 94 177 72 82 98 127 83 142 -3
4 -19 -3 -35 -15 -16 -11 -31 -18 -35 -15 -14 14 -4 51 19 73 29 27 31 36 10
56 -23 24 -18 37 30 77 53 45 57 72 20 132 -32 52 -31 68 6 99 42 35 74 42
104 22 l25 -17 -21 -37 c-28 -48 -20 -86 22 -107 41 -22 34 -45 -20 -63 -28
-9 -49 -24 -60 -43 -9 -16 -24 -29 -34 -29 -26 0 -16 -24 11 -28 15 -2 39 13
77 49 48 46 63 53 132 69 43 10 113 23 156 29 43 6 86 15 96 21 19 10 31 57
31 128 0 24 8 72 17 107 14 54 15 69 4 103 -10 29 -10 44 -2 60 17 31 13 83
-8 119 -28 45 -135 96 -204 97 -44 0 -70 -8 -148 -46 -52 -25 -110 -59 -128
-74 -33 -27 -33 -27 -65 -10 -42 22 -58 15 -84 -39 -12 -25 -29 -45 -37 -45
-19 0 -172 53 -212 73 -35 18 -83 72 -83 92 0 29 -24 66 -57 85 -26 15 -33 26
-33 49 0 18 -9 38 -22 51 l-22 20 22 23 c29 31 29 98 1 151 -16 30 -19 48 -14
90 4 32 1 75 -9 115 -14 59 -13 67 6 129 13 42 18 79 14 102 -4 29 -1 43 19
70 13 18 27 47 30 64 3 17 13 48 22 69 14 32 14 44 3 92 -10 43 -10 63 -1 97
11 39 10 52 -9 109 -12 35 -37 92 -56 127 -25 45 -34 75 -34 108 0 63 -22 103
-81 144 -54 38 -114 110 -147 176 -20 38 -83 104 -101 104 -11 0 -39 66 -49
115 -6 30 -17 46 -42 63 -19 13 -41 35 -49 50 -8 15 -36 52 -63 81 -45 52 -48
58 -48 110 0 41 -7 68 -25 99 -13 24 -34 73 -45 110 -11 37 -36 90 -56 117
-19 28 -42 65 -49 82 -15 34 -57 76 -134 130 -41 29 -53 33 -111 33 -36 -1
-76 -7 -90 -14z"/>
</g>
</svg>
