<?xml version="1.0" standalone="no"?>
<!DOCTYPE svg PUBLIC "-//W3C//DTD SVG 20010904//EN"
 "http://www.w3.org/TR/2001/REC-SVG-20010904/DTD/svg10.dtd">
<svg version="1.0" xmlns="http://www.w3.org/2000/svg"
 width="880.000000pt" height="551.000000pt" viewBox="0 0 880.000000 551.000000"
 preserveAspectRatio="xMidYMid meet">
<metadata>
Created by potrace 1.16, written by Peter Selinger 2001-2019
</metadata>
<g transform="translate(0.000000,551.000000) scale(0.100000,-0.100000)"
fill="#000000" stroke="none">
<path d="M2232 5318 c-12 -12 -16 -60 -6 -71 3 -3 16 -1 28 5 11 6 28 14 36
18 20 10 25 41 8 51 -19 12 -52 11 -66 -3z"/>
<path d="M2430 5260 c-14 -26 -14 -25 31 -44 37 -16 51 -12 62 17 5 13 0 20
-16 26 -59 22 -66 22 -77 1z"/>
<path d="M2158 5215 c-20 -11 -25 -20 -21 -36 6 -20 3 -22 -26 -16 -32 7 -33
6 -27 -21 4 -15 16 -35 27 -44 26 -22 6 -33 -24 -13 -22 14 -26 14 -37 0 -7
-8 -10 -24 -7 -35 3 -13 -1 -24 -14 -30 -32 -18 -24 -47 15 -54 22 -4 36 -13
39 -26 4 -16 14 -20 44 -20 22 0 48 7 59 15 10 8 30 15 45 15 14 0 31 6 38 13
10 10 11 6 5 -18 -4 -16 -7 -35 -7 -42 0 -8 -13 -10 -41 -7 -33 5 -45 2 -60
-15 -11 -12 -30 -21 -43 -21 -23 0 -23 0 -27 -77 -1 -15 8 -18 58 -18 57 -1
60 1 79 33 14 24 25 32 38 29 12 -3 19 0 19 9 0 10 10 12 43 8 l43 -6 24 51
c25 54 34 61 48 35 7 -13 15 -14 49 -5 22 6 52 20 67 32 22 17 26 29 26 68 0
36 -5 53 -21 67 -21 19 -21 18 -57 -22 -61 -66 -77 -77 -100 -65 -18 9 -19 16
-11 43 5 18 9 36 9 40 0 4 -27 -2 -60 -13 -58 -20 -59 -21 -45 -43 13 -19 12
-23 -4 -33 -16 -10 -22 -8 -35 11 -8 13 -35 36 -60 52 -44 28 -57 44 -36 44
18 0 91 50 97 67 7 19 -39 63 -65 63 -9 -1 -29 -7 -44 -15z"/>
<path d="M1805 5040 c-29 -23 -41 -27 -55 -20 -10 6 -29 10 -41 10 -23 0 -148
-69 -149 -82 0 -8 64 -48 78 -48 6 0 25 15 41 32 23 24 33 30 42 21 8 -8 6
-13 -10 -18 -20 -6 -25 -16 -22 -42 1 -7 -7 -9 -19 -6 -18 5 -20 1 -20 -36 0
-35 3 -41 21 -41 16 0 19 -4 14 -20 -8 -25 -6 -25 50 2 38 19 45 26 41 44 -5
17 0 24 22 33 15 7 47 29 72 50 43 38 44 40 30 67 -7 16 -13 34 -12 40 1 6 -9
19 -22 27 -23 15 -26 15 -61 -13z"/>
<path d="M3805 5034 l-30 -25 24 -19 c27 -23 49 -25 74 -6 23 18 22 28 -6 54
-28 27 -25 27 -62 -4z"/>
<path d="M3988 4987 c-74 -69 -95 -101 -79 -121 8 -9 1 -27 -27 -66 -25 -36
-33 -55 -24 -58 7 -2 16 -11 21 -21 8 -14 5 -16 -23 -13 l-32 4 1 -58 c2 -70
20 -88 79 -79 40 6 40 6 22 -14 -16 -17 -17 -23 -6 -36 7 -9 19 -14 26 -11 7
3 16 -13 24 -42 17 -62 26 -72 65 -72 20 0 39 -8 51 -21 39 -45 122 -62 160
-35 15 12 19 28 21 83 0 37 4 100 8 138 6 63 5 72 -15 93 -18 19 -38 27 -62
23 -22 -3 -43 38 -45 85 -2 40 2 55 17 69 26 23 25 47 -1 71 -12 10 -34 47
-50 82 -19 43 -34 62 -46 62 -10 0 -48 -29 -85 -63z"/>
<path d="M3232 4978 c-31 -34 -16 -52 37 -43 35 6 41 10 41 31 0 14 -6 24 -14
24 -8 0 -21 2 -28 5 -8 3 -24 -5 -36 -17z"/>
<path d="M1934 4859 l-29 -31 24 -19 c28 -23 50 -24 77 -5 19 14 19 15 0 50
-11 20 -24 36 -31 36 -6 0 -24 -14 -41 -31z"/>
<path d="M4299 4401 c-97 -251 -100 -260 -82 -270 12 -6 32 -1 70 19 30 16 85
34 128 41 84 13 104 28 112 86 4 30 0 44 -18 68 -13 16 -31 43 -40 60 -9 16
-24 29 -33 29 -10 -1 -16 6 -16 21 0 27 -20 46 -54 49 -24 3 -29 -4 -67 -103z"/>
<path d="M4367 4029 c-78 -70 -89 -88 -97 -149 l-5 -45 -52 0 c-53 1 -61 -6
-44 -34 7 -11 -4 -21 -47 -42 l-56 -27 -21 23 c-19 19 -29 22 -76 18 -70 -6
-109 -21 -109 -43 0 -13 -21 -24 -87 -45 -58 -18 -98 -37 -118 -56 -17 -16
-40 -29 -52 -29 -12 0 -29 -3 -38 -6 -14 -6 -14 -8 -1 -23 21 -24 5 -47 -22
-32 -19 10 -22 7 -37 -38 l-16 -48 31 -33 c48 -51 50 -49 -115 -70 -49 -7
-108 -15 -130 -19 l-40 -7 3 -94 c3 -74 7 -98 20 -107 32 -23 72 -68 72 -80 0
-28 -38 -11 -74 33 -22 26 -57 54 -81 64 -24 10 -46 23 -49 29 -11 16 -18 14
-66 -21 l-44 -33 29 -5 c17 -3 29 -10 27 -15 -2 -6 -11 -9 -22 -7 -10 2 -21
-2 -25 -8 -14 -23 -20 -7 -17 47 3 48 0 62 -18 81 -28 30 -40 20 -40 -34 0
-58 -11 -80 -68 -131 -43 -39 -45 -43 -31 -60 9 -10 24 -39 34 -65 13 -36 15
-53 7 -80 -18 -56 -24 -114 -16 -153 l7 -37 51 5 51 6 -35 -15 c-46 -21 -50
-28 -48 -100 2 -53 -2 -67 -29 -110 -18 -27 -46 -62 -62 -78 -27 -26 -34 -28
-78 -22 -63 8 -80 26 -26 26 59 0 69 6 109 65 56 85 68 150 38 207 -14 27 -15
45 -3 165 12 125 12 137 -5 168 -18 32 -18 35 3 94 38 109 25 159 -45 181 -28
8 -28 9 -6 15 25 8 27 22 10 60 -9 19 -19 25 -44 25 -36 0 -54 -21 -54 -63 0
-15 -7 -26 -17 -29 -13 -4 -27 -33 -46 -98 -22 -71 -37 -104 -68 -138 -29 -33
-39 -54 -39 -78 0 -19 5 -34 10 -34 18 0 11 -84 -10 -118 -11 -18 -20 -34 -20
-36 0 -2 13 -6 29 -9 22 -5 34 -18 55 -61 20 -40 25 -60 18 -72 -9 -16 -11
-15 -23 5 -16 27 -156 134 -213 163 -21 11 -63 22 -92 25 -37 4 -55 11 -59 22
-3 9 -19 32 -35 51 l-30 35 -20 -24 c-29 -34 -25 -56 16 -93 20 -18 45 -50 56
-72 l19 -38 -22 -24 c-30 -31 -39 -30 -39 5 0 39 -23 45 -68 17 -20 -12 -58
-25 -84 -28 -26 -3 -59 -15 -74 -27 -35 -28 -45 -17 -33 38 5 24 8 46 5 48 -7
8 -96 -35 -96 -46 0 -6 -10 -11 -22 -11 -13 0 -60 -25 -106 -54 -45 -30 -87
-56 -93 -58 -5 -2 -16 -21 -23 -43 -17 -48 -41 -55 -79 -25 -37 29 -34 42 13
69 45 25 47 34 22 76 -15 24 -35 35 -98 56 -43 15 -81 25 -82 23 -2 -1 8 -20
22 -41 29 -42 31 -59 14 -115 -10 -33 -9 -44 6 -68 10 -18 14 -38 10 -55 -7
-28 -14 -30 -59 -14 -30 11 -36 9 -93 -30 -74 -50 -88 -71 -73 -113 18 -52 15
-58 -21 -46 -18 6 -52 24 -75 40 l-42 28 -20 -29 c-28 -38 -27 -41 14 -74 62
-50 32 -68 -34 -20 -31 22 -40 36 -49 80 -6 31 -8 64 -3 76 11 30 5 46 -37 90
-20 20 -33 37 -30 37 11 0 172 -71 185 -81 18 -16 97 -13 129 4 58 30 79 64
79 124 l0 54 -90 88 c-122 118 -151 138 -226 157 -80 20 -84 23 -63 38 15 11
13 15 -19 35 l-36 22 -63 -32 c-116 -59 -163 -124 -135 -191 8 -18 21 -39 30
-47 22 -18 21 -42 -3 -89 l-21 -39 21 -52 c17 -45 19 -61 11 -111 -10 -59 -5
-96 19 -139 9 -18 8 -27 -5 -48 -17 -25 -16 -26 19 -62 20 -20 36 -42 36 -48
0 -14 -62 -92 -134 -167 l-57 -60 23 -18 c13 -10 26 -18 31 -18 15 0 6 -19
-13 -25 -55 -18 -84 -180 -52 -295 l17 -65 60 -21 60 -21 6 -51 c5 -36 16 -62
38 -89 l31 -38 -30 -8 c-34 -9 -34 -8 -19 -62 18 -70 16 -67 48 -50 47 24 60
19 81 -30 11 -25 26 -48 35 -51 8 -4 15 -14 15 -25 0 -21 20 -33 70 -43 19 -3
61 -18 93 -33 52 -25 57 -30 57 -60 0 -35 -29 -73 -55 -73 -18 0 -38 -37 -31
-56 4 -9 -4 -19 -20 -26 -24 -11 -25 -13 -7 -25 17 -13 15 -16 -22 -48 -25
-22 -36 -37 -29 -42 5 -5 41 -33 80 -63 46 -38 85 -60 119 -69 27 -6 77 -23
110 -37 34 -13 72 -24 85 -24 16 0 44 -19 81 -56 32 -32 62 -53 68 -50 6 4 18
21 27 37 14 28 13 35 -17 121 l-32 91 35 31 c20 17 47 38 60 48 19 14 21 19
11 36 -6 11 -17 38 -23 61 -6 22 -17 41 -24 41 -17 0 -56 43 -56 61 0 9 7 36
16 62 l16 47 26 -21 27 -21 17 40 c10 22 34 51 57 67 34 23 47 26 78 21 75
-14 103 -27 119 -58 11 -21 19 -27 26 -20 6 6 25 8 43 5 19 -3 35 0 39 6 11
16 93 13 120 -5 16 -10 42 -14 77 -12 45 3 55 7 66 28 11 22 9 28 -15 53 -18
19 -23 30 -15 35 6 4 13 18 14 32 2 14 11 26 19 27 8 1 33 5 55 9 l40 6 -48
15 c-78 23 -61 42 63 68 58 12 145 34 193 50 69 22 95 26 120 19 28 -8 32 -15
35 -47 2 -21 9 -40 15 -42 7 -2 30 -9 53 -15 37 -9 41 -13 36 -35 -2 -14 -3
-25 -1 -25 14 1 103 31 129 45 18 9 36 13 39 8 31 -35 104 -150 131 -203 40
-80 37 -77 57 -58 14 15 18 15 40 1 16 -11 36 -14 65 -10 44 6 64 -8 113 -76
19 -26 46 -38 125 -54 18 -3 55 10 120 44 79 40 103 48 145 46 40 -1 53 -6 70
-27 14 -18 36 -29 74 -36 78 -15 98 -13 121 12 20 22 21 32 6 69 -5 10 2 27
17 45 l24 28 63 -24 c55 -22 65 -30 80 -66 23 -53 60 -68 130 -53 54 11 65 7
154 -56 44 -32 54 -35 121 -35 60 0 82 5 131 30 62 31 89 37 99 20 3 -5 19
-10 34 -10 15 0 36 -7 47 -15 24 -18 56 -19 98 -1 48 20 120 154 112 207 -5
33 -3 38 22 47 126 49 211 2 252 -141 40 -137 42 -140 87 -157 47 -17 103 -66
103 -89 1 -48 56 -64 123 -36 70 29 72 20 18 -92 -43 -88 -55 -102 -69 -77 -9
15 -12 15 -41 -2 -30 -18 -32 -22 -26 -60 4 -28 0 -55 -11 -83 -20 -50 -14
-60 22 -36 23 15 32 16 65 5 34 -11 44 -11 78 5 48 21 82 57 206 215 115 147
145 204 145 278 0 54 22 112 42 112 11 0 7 -158 -8 -342 -7 -75 -6 -78 15 -78
12 0 21 6 21 15 0 21 16 19 56 -6 19 -11 34 -18 34 -15 0 4 -16 39 -36 78
l-36 71 18 38 c14 32 22 39 46 39 15 0 28 5 28 11 0 6 -9 61 -20 123 -11 61
-23 151 -27 200 -7 81 -10 90 -32 98 -23 8 -23 7 -18 -29 6 -33 3 -39 -17 -49
-22 -10 -27 -8 -53 27 -36 50 -65 58 -103 30 -36 -26 -40 -26 -40 -2 0 21 -34
47 -75 57 -26 6 -21 13 146 180 95 95 186 179 202 185 23 10 57 10 155 1 120
-12 126 -11 147 8 18 17 25 18 58 8 25 -8 34 -15 28 -22 -6 -7 -4 -18 5 -30
13 -18 19 -19 114 -7 55 8 103 18 107 24 3 6 -6 20 -20 31 l-26 21 66 75 c76
87 114 112 163 108 32 -3 35 -5 33 -33 -4 -40 16 -85 36 -85 9 0 37 20 61 45
24 25 52 45 60 45 11 0 21 14 29 40 6 21 16 42 22 46 7 4 9 0 6 -12 -3 -11
-13 -45 -21 -76 -9 -32 -21 -58 -26 -58 -6 0 -59 -48 -119 -108 -59 -59 -130
-122 -157 -141 -31 -21 -61 -54 -82 -89 -30 -51 -33 -66 -39 -162 -6 -115 11
-292 34 -347 l14 -34 27 33 c15 18 33 39 41 47 7 8 22 34 32 58 14 34 25 45
48 49 27 6 30 11 33 47 3 41 9 48 63 64 27 8 30 13 31 48 0 67 21 105 39 74
16 -26 32 28 30 101 -2 64 -5 77 -23 85 l-20 11 20 39 c11 22 29 57 40 78 16
32 24 38 46 36 15 -2 37 3 50 9 18 11 22 10 22 -3 0 -20 6 -19 70 15 30 17 63
30 72 30 15 0 51 -36 61 -63 3 -7 18 2 39 25 32 34 135 117 188 149 14 9 55
28 92 42 53 22 72 25 93 17 78 -30 96 4 65 119 -18 65 -27 84 -48 95 l-25 13
37 6 c42 7 91 39 108 70 6 12 10 38 10 59 -1 21 3 38 8 38 6 0 10 -18 10 -40
l0 -40 60 0 c58 0 60 -1 74 -33 15 -38 88 -102 126 -112 37 -9 60 14 73 75 9
41 17 56 32 59 11 2 38 20 61 41 l41 38 -62 65 c-57 58 -68 65 -113 72 -28 4
-55 4 -59 2 -5 -3 -19 16 -31 42 -15 33 -39 61 -74 88 -29 22 -93 75 -142 117
-108 93 -182 130 -301 150 -49 9 -106 20 -125 26 -51 15 -59 13 -71 -17 -8
-21 -8 -41 1 -77 12 -45 11 -51 -6 -63 -16 -11 -19 -11 -27 4 -6 10 -22 28
-36 40 -14 11 -23 25 -19 29 4 4 14 1 23 -6 12 -10 16 -8 25 15 5 14 10 31 10
37 0 20 -35 37 -78 38 -24 0 -53 5 -65 11 -19 10 -18 7 6 -18 24 -26 26 -31
13 -43 -17 -13 -66 -10 -133 11 -34 10 -55 11 -99 1 -51 -10 -59 -10 -84 8
-25 18 -27 24 -22 65 6 59 -10 90 -63 121 -57 33 -116 39 -205 20 -100 -21
-108 -21 -116 10 -4 14 -26 40 -52 59 -38 27 -46 38 -46 66 -1 29 -7 37 -44
57 -24 13 -64 30 -90 37 -26 7 -112 33 -192 58 -80 25 -146 44 -148 43 -1 -2
2 -15 7 -29 12 -30 6 -37 -29 -37 -14 0 -31 -5 -38 -12 -17 -17 -15 -55 3 -62
10 -4 14 -16 11 -38 -3 -26 -8 -32 -22 -30 -23 4 -186 4 -234 0 -31 -3 -36 1
-58 40 -14 24 -28 40 -32 35 -5 -4 -23 -45 -40 -91 -37 -92 -41 -93 -91 -13
-23 35 -26 47 -17 61 9 14 9 22 0 32 -9 11 -9 17 1 27 6 6 12 44 13 87 2 74 2
75 -35 114 -31 32 -45 40 -75 40 -21 0 -58 12 -89 29 -28 16 -59 26 -67 24
-35 -12 -50 -36 -50 -80 0 -41 -1 -43 -31 -43 -39 0 -171 29 -183 41 -6 5 -2
17 9 29 18 19 17 20 -21 37 -29 14 -64 18 -141 18 -95 -1 -103 0 -103 18 0 17
-5 19 -35 14 -29 -5 -38 -1 -54 19 -13 16 -29 24 -50 24 -17 0 -31 3 -31 6 0
20 30 50 94 93 82 56 101 86 117 181 8 53 7 67 -12 109 -14 34 -25 48 -35 44
-8 -3 -14 1 -14 11 0 9 -12 29 -27 46 -23 24 -39 31 -85 36 -69 8 -128 -2
-128 -21 0 -15 -18 -30 -26 -22 -3 2 3 21 12 40 22 45 9 64 -47 73 -47 8 -48
16 -9 44 24 17 28 25 20 35 -15 18 -104 75 -116 75 -5 0 -40 -27 -77 -61z
m288 -749 c-4 -13 -2 -20 7 -20 7 0 -5 -11 -27 -25 -46 -28 -98 -34 -89 -10 4
8 25 24 49 34 23 10 46 24 49 30 11 18 18 13 11 -9z m-1614 -292 l29 -37 -29
10 c-42 15 -52 31 -44 70 5 25 8 28 11 14 2 -11 17 -37 33 -57z m312 -165 c-9
-7 -20 -10 -25 -7 -11 7 1 102 16 129 9 17 12 10 17 -45 6 -53 4 -67 -8 -77z"/>
<path d="M2614 4006 c-17 -7 -45 -32 -63 -54 -41 -52 -123 -86 -186 -77 -31 5
-44 3 -55 -10 -7 -9 -28 -22 -46 -30 -18 -7 -59 -39 -90 -69 -32 -31 -64 -56
-70 -56 -7 0 -15 -9 -19 -19 -3 -11 -11 -18 -18 -16 -7 3 -18 1 -26 -4 -10 -7
-11 -13 -2 -30 9 -17 8 -26 -6 -48 -10 -14 -16 -37 -15 -50 3 -17 -12 -39 -52
-81 -59 -62 -65 -72 -42 -72 30 0 24 -18 -24 -76 -42 -49 -49 -63 -45 -89 6
-34 0 -47 -32 -64 -31 -16 -33 -94 -4 -113 10 -6 17 -16 15 -22 -8 -21 79
-103 121 -115 46 -13 155 -15 155 -3 0 4 -16 32 -35 62 -47 72 -59 113 -52
176 5 51 22 87 123 259 13 22 31 54 39 70 20 41 40 65 53 65 7 0 20 17 31 38
34 64 66 89 218 165 190 95 190 95 213 143 27 56 26 88 -6 113 -31 24 -38 25
-80 7z"/>
<path d="M6102 3670 c-52 -32 -72 -75 -72 -152 0 -57 4 -71 26 -98 25 -29 72
-60 92 -60 5 0 12 8 14 18 7 26 108 39 121 17 4 -8 16 -15 25 -15 32 1 105 60
133 108 l27 48 -39 32 c-22 19 -55 36 -74 39 -19 3 -35 8 -35 12 0 3 -14 22
-30 41 l-29 35 -21 -48 -21 -48 -42 46 -42 46 -33 -21z"/>
<path d="M6497 3533 c-27 -51 -22 -77 23 -117 62 -56 102 -72 140 -56 32 13
70 54 70 76 0 7 -24 20 -52 30 -29 9 -64 25 -77 35 -14 12 -32 17 -46 13 -18
-5 -25 0 -32 23 l-10 28 -16 -32z"/>
<path d="M4786 3409 c-34 -40 -33 -47 10 -65 44 -19 58 -14 79 25 l15 30 -39
21 -40 20 -25 -31z"/>
<path d="M6186 3311 c-2 -3 -7 -23 -11 -44 -6 -30 -4 -37 9 -37 21 0 20 -9 -4
-40 -11 -14 -20 -29 -20 -35 0 -9 149 -55 178 -55 8 0 12 16 12 46 0 37 -5 51
-29 75 -20 19 -40 29 -60 29 -28 0 -30 2 -25 29 5 25 3 29 -20 33 -15 3 -28 3
-30 -1z"/>
<path d="M8103 2776 c-40 -18 -65 -57 -61 -93 l3 -28 70 4 c125 6 163 38 113
96 -28 31 -81 41 -125 21z"/>
<path d="M1632 2767 c-22 -26 -25 -67 -7 -87 24 -27 35 -25 85 11 l42 31 -28
29 c-29 31 -73 39 -92 16z"/>
<path d="M197 1323 c-37 -4 -38 -5 -35 -41 l3 -37 76 -3 77 -3 5 28 c5 21 1
33 -15 46 -20 17 -33 18 -111 10z"/>
</g>
</svg>
