<?xml version="1.0" standalone="no"?>
<!DOCTYPE svg PUBLIC "-//W3C//DTD SVG 20010904//EN"
 "http://www.w3.org/TR/2001/REC-SVG-20010904/DTD/svg10.dtd">
<svg version="1.0" xmlns="http://www.w3.org/2000/svg"
 width="856.000000pt" height="764.000000pt" viewBox="0 0 856.000000 764.000000"
 preserveAspectRatio="xMidYMid meet">
<metadata>
Created by potrace 1.16, written by Peter Selinger 2001-2019
</metadata>
<g transform="translate(0.000000,764.000000) scale(0.100000,-0.100000)"
fill="#000000" stroke="none">
<path d="M6575 7475 c-23 -19 -42 -25 -78 -25 -26 0 -56 -5 -67 -12 -15 -10
-24 -9 -44 2 -21 11 -30 11 -50 1 -17 -10 -29 -10 -44 -2 -26 14 -28 14 -46
-5 -9 -8 -16 -30 -16 -48 0 -21 -8 -40 -21 -52 -18 -16 -20 -26 -15 -74 3 -30
8 -64 12 -76 5 -18 0 -22 -26 -28 -18 -3 -52 -15 -76 -25 -37 -17 -49 -29 -69
-73 -13 -29 -27 -71 -31 -93 -4 -31 -13 -45 -35 -57 -16 -10 -33 -28 -38 -42
-6 -13 -27 -34 -48 -46 -21 -12 -58 -49 -83 -83 -83 -116 -121 -156 -154 -163
-17 -3 -36 -11 -43 -16 -16 -13 -33 -1 -33 23 0 22 -9 24 -45 7 -23 -10 -25
-15 -19 -59 5 -39 3 -52 -16 -77 -22 -29 -24 -62 -9 -147 3 -16 -2 -21 -28
-23 -22 -2 -39 -12 -53 -33 -14 -18 -30 -29 -45 -29 -26 0 -45 -25 -45 -59 0
-25 -26 -28 -55 -7 -11 7 -42 16 -68 20 -55 8 -71 0 -91 -49 -9 -20 -26 -37
-46 -45 l-32 -13 6 -59 c3 -32 3 -58 1 -58 -3 0 -29 14 -58 30 -61 34 -95 38
-104 13 -4 -10 -18 -32 -32 -49 -14 -17 -33 -44 -42 -61 -12 -22 -34 -36 -95
-61 -43 -17 -101 -36 -127 -43 -27 -7 -52 -20 -58 -30 -16 -30 -55 -23 -83 14
-64 83 -97 221 -101 412 l-1 70 -41 0 c-52 0 -75 20 -113 101 -29 63 -59 90
-86 80 -8 -3 -14 -18 -14 -34 0 -24 -5 -31 -27 -35 -38 -8 -73 -65 -73 -117 0
-50 -12 -51 -76 -5 -95 69 -108 75 -154 75 -59 0 -117 -17 -138 -40 -75 -81
-98 -108 -107 -122 -8 -15 -36 -18 -175 -24 -91 -4 -172 -10 -181 -15 -9 -5
-29 -4 -46 3 -48 18 -96 2 -163 -54 -34 -28 -66 -62 -71 -75 -5 -15 -20 -26
-39 -29 -16 -4 -30 -12 -30 -20 0 -7 -14 -21 -31 -31 -36 -21 -110 -117 -146
-188 -44 -87 -40 -85 -178 -85 -67 0 -150 -3 -184 -6 -56 -6 -61 -9 -61 -31 0
-45 -27 -92 -65 -110 -30 -14 -38 -26 -51 -68 -28 -100 -70 -152 -169 -214
-96 -60 -129 -98 -138 -159 -4 -22 -17 -48 -32 -62 -40 -38 -34 -79 21 -141
33 -37 42 -55 35 -62 -22 -22 -12 -58 19 -70 35 -13 45 -40 37 -97 -4 -30 -1
-43 15 -57 20 -18 20 -18 -18 -23 -45 -6 -55 -26 -20 -40 23 -8 26 -15 26 -54
0 -26 5 -48 13 -53 17 -10 47 -91 47 -125 0 -14 -7 -31 -15 -38 -12 -10 -14
-24 -9 -56 8 -57 -3 -104 -25 -104 -10 0 -20 -3 -24 -6 -7 -8 43 -104 79 -151
47 -62 104 -74 104 -21 0 10 5 18 10 18 6 0 10 -19 10 -43 0 -24 5 -48 11 -54
7 -7 7 -13 1 -17 -6 -3 -4 -24 6 -53 8 -27 17 -54 18 -60 2 -7 17 -13 34 -13
31 0 39 -17 19 -37 -15 -15 -3 -32 29 -44 24 -9 25 -11 10 -20 -10 -6 -18 -19
-18 -30 0 -16 3 -18 19 -9 29 15 34 13 58 -23 29 -42 29 -43 -6 -50 -32 -7
-32 -6 -16 -109 3 -16 1 -28 -4 -28 -15 0 -41 37 -47 68 -8 37 -21 42 -26 10
-2 -15 -11 -24 -26 -26 -14 -2 -22 -10 -22 -23 0 -10 -6 -20 -12 -20 -33 -3
-38 -5 -38 -11 0 -5 0 -15 0 -23 0 -8 9 -23 20 -32 29 -25 26 -53 -5 -53 -13
0 -30 7 -37 16 -51 62 -75 68 -120 31 -24 -20 -26 -29 -30 -109 -5 -138 -31
-134 -43 8 -7 85 -21 108 -31 54 -4 -16 -13 -35 -20 -41 -27 -22 -15 -71 40
-164 62 -103 74 -135 53 -135 -8 0 -30 22 -48 50 -36 52 -52 59 -83 35 -11 -8
-34 -15 -50 -15 -17 0 -42 -7 -56 -15 -14 -8 -32 -18 -40 -22 -30 -14 -42 -34
-36 -58 4 -14 13 -25 20 -25 11 0 26 -20 26 -35 0 -2 -17 -5 -37 -7 -32 -3
-38 -7 -41 -28 -1 -14 -12 -47 -24 -73 -27 -59 -17 -83 32 -79 29 2 31 0 28
-25 -3 -26 -5 -26 -73 -28 -43 -2 -71 -7 -73 -14 -2 -7 -16 -23 -30 -37 -24
-21 -25 -26 -14 -45 15 -23 1 -49 -25 -49 -38 0 -74 -35 -89 -87 -17 -59 -40
-85 -50 -58 -4 10 -2 26 4 36 7 10 12 32 12 47 0 26 -3 29 -25 24 -18 -3 -25
-11 -25 -28 0 -12 -5 -26 -11 -30 -6 -4 -8 -20 -5 -40 l7 -33 -67 0 c-36 0
-68 -1 -70 -3 -2 -2 6 -22 17 -45 24 -48 18 -90 -15 -99 -20 -5 -56 -54 -56
-76 0 -6 -12 -27 -27 -46 l-26 -35 -18 22 c-21 26 -17 43 28 95 18 22 33 44
33 49 0 5 -16 27 -35 48 -40 44 -43 71 -15 114 30 46 26 84 -16 128 -19 20
-39 37 -43 37 -17 0 -41 -38 -41 -66 0 -16 -13 -56 -29 -89 -52 -106 -62 -135
-52 -153 13 -26 3 -41 -35 -48 -23 -4 -44 -18 -62 -40 -26 -33 -52 -45 -52
-24 0 6 -11 10 -25 10 -14 0 -25 5 -25 10 0 18 -22 10 -42 -16 -18 -22 -26
-24 -57 -19 -31 5 -40 2 -63 -22 -35 -37 -48 -73 -48 -138 0 -30 -4 -65 -10
-80 -7 -18 -6 -31 2 -45 10 -15 9 -22 -4 -37 -9 -10 -19 -35 -23 -56 -5 -25
-17 -45 -37 -60 -63 -47 -78 -66 -78 -96 0 -23 9 -37 35 -58 52 -41 72 -79 84
-163 7 -41 21 -104 31 -139 25 -80 25 -102 -1 -135 -23 -29 -16 -49 20 -61 10
-3 23 -17 29 -30 10 -21 19 -25 52 -25 30 0 43 -5 52 -21 18 -29 116 -75 131
-60 34 34 133 -14 214 -104 32 -36 61 -65 66 -65 4 0 7 12 7 26 0 16 12 37 30
54 30 28 38 54 20 65 -14 9 -12 69 2 83 10 10 10 17 0 32 -18 30 -15 77 8 98
18 16 18 20 5 38 -19 25 -19 48 0 112 11 35 21 52 32 52 9 0 37 12 61 26 37
22 49 25 64 15 10 -6 31 -11 46 -11 16 0 42 -11 58 -25 38 -33 60 -32 79 5 9
17 21 30 27 30 31 0 75 -26 93 -54 18 -28 28 -32 85 -39 44 -5 72 -15 87 -29
19 -18 29 -20 70 -13 26 4 62 9 79 10 17 1 36 5 43 9 14 9 99 -21 127 -46 11
-10 42 -22 69 -27 67 -13 120 -67 111 -114 -17 -82 -18 -97 -6 -97 7 0 26 -12
44 -26 29 -25 31 -30 28 -88 -3 -50 -7 -65 -28 -81 -17 -15 -24 -31 -24 -55 0
-42 8 -55 36 -64 22 -7 28 -26 39 -116 11 -98 27 -148 50 -158 20 -9 25 -6 46
26 20 31 31 38 69 43 29 3 64 19 99 42 66 46 117 50 155 12 28 -28 77 -33 96
-10 19 23 29 19 85 -34 35 -33 65 -52 89 -56 47 -9 82 0 89 24 3 14 19 22 58
30 30 6 67 20 83 30 26 18 31 18 52 4 18 -11 36 -13 76 -8 44 6 59 14 88 46
32 35 40 39 84 39 38 0 66 -9 127 -42 43 -23 81 -50 84 -59 9 -28 36 -31 79
-7 23 12 61 24 85 27 l45 6 36 100 36 100 57 0 c50 0 60 -4 90 -33 44 -43 99
-53 130 -25 31 29 62 43 92 43 42 0 104 57 116 106 7 26 29 63 60 97 52 58 69
92 69 135 0 15 10 55 22 89 22 61 22 63 5 93 -17 27 -17 37 -6 105 12 70 11
80 -9 144 l-22 68 29 56 c16 31 35 82 41 113 12 58 35 90 90 125 22 15 25 23
25 80 -1 103 -32 246 -70 324 -19 39 -35 74 -35 79 0 5 16 26 35 47 24 26 35
49 35 69 0 35 12 37 86 15 27 -8 65 -15 85 -15 19 0 59 -7 87 -15 28 -9 62
-13 76 -9 20 5 24 3 20 -13 -6 -25 31 -81 61 -93 20 -8 25 -16 25 -43 0 -43 5
-48 42 -35 39 14 59 -3 39 -33 -11 -19 -9 -25 14 -49 30 -31 60 -45 118 -55
20 -3 37 -10 37 -14 0 -21 36 -21 64 0 20 15 31 18 34 11 2 -7 27 -12 63 -12
50 0 64 4 84 24 21 22 45 81 45 115 0 8 16 29 35 47 20 18 35 41 35 54 0 65
61 82 108 31 26 -28 32 -30 114 -32 48 -2 90 0 93 3 3 3 13 34 22 68 12 50 13
70 4 95 -6 17 -11 37 -11 43 0 21 47 33 78 20 15 -6 47 -14 72 -17 44 -6 45
-7 50 -46 7 -50 14 -61 51 -81 27 -13 33 -14 53 -1 12 8 28 33 34 55 19 63 47
92 91 92 30 0 42 -6 59 -30 31 -41 62 -47 118 -20 53 26 64 20 64 -41 0 -23 7
-42 20 -54 11 -10 20 -26 20 -35 0 -21 20 -40 42 -40 10 0 21 -7 24 -15 3 -8
28 -30 54 -49 29 -21 50 -44 52 -58 2 -19 11 -24 48 -29 25 -3 82 -18 127 -34
l81 -28 49 32 c47 32 50 33 138 28 54 -2 102 -10 120 -20 l31 -15 66 61 c37
34 76 80 87 103 39 79 98 80 188 2 25 -21 55 -38 69 -38 13 0 29 -9 36 -20 18
-28 56 -26 68 4 10 28 60 60 117 75 48 13 79 49 98 114 9 32 20 46 47 60 l35
17 -4 73 c-2 39 -16 116 -30 171 -22 83 -24 104 -15 130 7 18 12 50 12 71 0
25 10 54 30 84 20 32 31 66 36 106 4 33 15 77 25 97 11 21 19 43 19 50 0 7 6
25 14 40 8 14 19 41 25 60 6 19 25 44 41 57 52 38 43 72 -48 176 -84 96 -282
413 -282 451 0 12 9 73 20 135 11 63 20 120 20 127 0 26 -30 10 -57 -30 -41
-60 -59 -69 -82 -39 -22 29 -41 20 -41 -18 0 -36 -35 -81 -63 -81 -36 0 -44
-12 -62 -80 -11 -44 -27 -76 -51 -102 -19 -21 -34 -43 -34 -48 0 -6 -4 -10
-10 -10 -19 0 -11 109 11 161 22 50 18 79 -5 46 -20 -26 -24 -21 -16 22 8 44
36 88 83 126 47 40 77 94 77 140 0 51 39 135 62 135 10 0 24 14 33 30 13 25
22 30 51 30 19 0 51 -7 70 -15 28 -12 35 -19 29 -32 -16 -40 -16 -90 0 -127 9
-21 18 -36 20 -34 3 2 11 48 18 102 11 80 11 131 1 289 -7 106 -15 212 -19
236 -4 34 2 63 26 128 16 45 27 88 23 95 -4 6 -88 122 -187 257 -99 135 -182
253 -184 261 -2 8 -9 77 -17 153 l-13 139 -113 113 -113 114 -76 6 c-138 11
-131 7 -181 93 l-46 77 -73 25 c-72 25 -75 27 -101 80 -14 30 -33 65 -40 77
-12 19 -12 24 5 43 19 21 19 22 -2 58 -11 20 -24 57 -28 82 -4 25 -36 99 -70
165 -35 66 -68 137 -74 157 -18 56 -77 104 -139 112 l-52 7 0 74 c0 63 -3 76
-19 84 -22 12 -41 60 -41 103 0 33 23 82 54 116 21 23 21 24 2 38 -32 23 -106
17 -141 -11z"/>
</g>
</svg>
