<?xml version="1.0" standalone="no"?>
<!DOCTYPE svg PUBLIC "-//W3C//DTD SVG 20010904//EN"
 "http://www.w3.org/TR/2001/REC-SVG-20010904/DTD/svg10.dtd">
<svg version="1.0" xmlns="http://www.w3.org/2000/svg"
 width="1024.000000pt" height="1024.000000pt" viewBox="0 0 1024.000000 1024.000000"
 preserveAspectRatio="xMidYMid meet">
<metadata>
Created by potrace 1.16, written by Peter Selinger 2001-2019
</metadata>
<g transform="translate(0.000000,1024.000000) scale(0.100000,-0.100000)"
fill="#000000" stroke="none">
<path d="M5620 8525 c-8 -9 -10 -28 -6 -50 4 -19 3 -35 -2 -35 -13 0 -62 -79
-62 -100 0 -13 -5 -17 -20 -13 -17 5 -20 0 -20 -31 0 -47 -15 -53 -89 -32 -84
23 -109 22 -107 -8 1 -21 4 -23 26 -14 55 21 96 -17 156 -147 31 -68 37 -74
67 -77 31 -3 32 -4 34 -55 3 -50 1 -53 -22 -53 -18 0 -25 -5 -25 -20 0 -11 -7
-20 -15 -20 -8 0 -15 7 -15 15 0 8 -4 15 -10 15 -19 0 -10 21 15 32 27 12 34
45 13 66 -20 20 -38 14 -44 -15 -12 -58 -50 -84 -112 -76 -53 7 -72 -8 -72
-58 0 -47 -15 -58 -42 -29 l-20 21 -23 -21 c-20 -19 -26 -20 -44 -8 -30 19
-52 -4 -28 -30 18 -20 23 -52 8 -52 -19 0 -20 -44 -1 -63 24 -21 23 -16 9 -56
-10 -28 -9 -35 11 -56 20 -21 22 -30 16 -79 -5 -37 -3 -68 5 -91 23 -61 -19
-142 -88 -171 -25 -11 -33 -21 -33 -39 0 -28 -50 -69 -142 -116 -73 -37 -96
-36 -139 2 -31 28 -38 30 -79 24 -25 -4 -48 -9 -52 -12 -14 -8 -8 -28 11 -40
11 -7 21 -22 23 -35 2 -18 12 -24 48 -31 30 -6 45 -6 48 2 6 19 22 12 22 -9 0
-11 -4 -20 -10 -20 -16 0 -12 -20 5 -27 9 -3 25 3 36 13 20 18 21 18 35 -1 21
-29 17 -45 -12 -45 -18 0 -28 -6 -31 -21 -4 -14 -10 -18 -22 -13 -9 4 -36 12
-61 19 -36 10 -44 16 -42 32 4 31 -21 46 -60 35 -30 -8 -33 -11 -30 -43 4 -45
-25 -74 -63 -65 -19 5 -27 2 -32 -11 -3 -10 -15 -28 -26 -40 -18 -20 -19 -27
-9 -62 17 -54 15 -116 -3 -131 -8 -7 -15 -26 -15 -42 0 -22 8 -33 35 -49 65
-39 67 -82 4 -113 -35 -17 -53 -11 -136 45 -23 16 -51 29 -63 29 -18 0 -21 -4
-15 -28 3 -15 -1 -47 -10 -71 -8 -24 -15 -64 -15 -88 0 -26 -6 -51 -15 -59
-34 -35 -6 -66 88 -97 9 -4 17 -10 17 -14 0 -10 -79 -9 -102 1 -25 11 -41 -3
-34 -30 4 -15 2 -24 -5 -24 -7 0 -9 -9 -5 -25 8 -30 -23 -65 -57 -65 -33 0
-67 -28 -67 -55 0 -13 -4 -27 -10 -30 -5 -3 -10 -19 -10 -35 0 -22 -7 -33 -29
-45 -50 -25 -84 -95 -46 -95 28 0 18 -48 -14 -65 -16 -8 -39 -28 -51 -45 -22
-31 -48 -37 -82 -19 -31 17 -68 3 -68 -26 0 -13 -4 -27 -10 -30 -15 -9 -12
-42 5 -49 21 -8 19 -24 -10 -58 -14 -16 -25 -41 -25 -54 0 -46 -27 -93 -57
-99 -49 -11 -51 -13 -58 -44 -4 -21 -1 -38 9 -53 16 -22 15 -24 -21 -54 -36
-30 -37 -33 -35 -90 2 -56 -1 -65 -54 -154 -100 -168 -136 -317 -95 -395 22
-42 27 -90 11 -100 -5 -3 -10 -13 -10 -22 0 -12 7 -14 34 -9 49 9 82 -7 106
-55 19 -36 25 -40 48 -35 86 18 87 18 105 -1 9 -11 19 -33 23 -50 5 -25 0 -37
-26 -67 -29 -33 -32 -40 -26 -81 8 -51 0 -71 -54 -133 -66 -74 -57 -134 20
-147 22 -4 42 -11 46 -16 3 -5 -4 -25 -16 -43 -13 -23 -19 -43 -15 -59 5 -19
1 -28 -23 -43 -17 -10 -69 -56 -117 -102 -65 -63 -86 -88 -83 -105 3 -21 48
-56 127 -99 31 -17 31 -17 31 -101 0 -98 18 -132 75 -143 40 -7 72 -35 91 -79
8 -21 24 -37 42 -43 41 -14 72 -51 72 -85 0 -36 24 -78 59 -101 15 -10 36 -33
48 -50 12 -20 34 -36 54 -42 25 -7 37 -18 44 -39 15 -43 24 -55 45 -55 10 0
32 -13 50 -30 26 -25 41 -30 80 -30 31 0 52 -5 60 -16 11 -12 25 -14 67 -8 49
6 55 4 60 -14 4 -18 11 -19 64 -15 47 5 63 2 78 -11 17 -15 19 -15 35 3 27 30
79 35 131 12 49 -22 50 -23 34 -52 -14 -27 -4 -54 26 -67 21 -10 24 -17 19
-37 -7 -30 10 -55 37 -55 11 0 24 -11 30 -24 7 -14 17 -22 25 -19 8 3 17 -2
20 -11 7 -19 37 -21 63 -4 26 16 51 3 51 -25 0 -13 12 -36 26 -51 30 -30 82
-34 160 -15 41 11 48 10 74 -10 20 -14 37 -19 57 -15 25 5 33 0 71 -51 81
-110 81 -198 1 -214 -44 -9 -47 -31 -7 -54 28 -16 33 -16 40 -3 13 24 45 19
85 -11 29 -22 38 -25 54 -15 10 7 33 12 50 12 16 0 38 4 48 10 16 8 17 14 7
51 -9 33 -18 45 -44 56 -18 7 -35 21 -38 31 -3 9 -12 31 -21 49 -28 58 6 126
83 163 34 17 44 26 38 39 -14 32 -16 62 -9 108 6 40 15 56 54 93 37 35 52 58
65 103 9 31 21 57 26 57 5 0 22 20 38 44 l30 44 -35 5 c-42 7 -63 23 -63 48 0
14 7 19 26 19 17 0 28 6 31 19 3 11 19 24 35 30 26 9 29 13 18 26 -18 22 -7
28 40 20 34 -6 41 -11 39 -28 -2 -36 0 -39 23 -23 27 19 62 21 76 4 5 -7 13
-28 17 -45 3 -18 11 -36 17 -39 13 -8 28 14 28 42 0 11 6 29 14 39 12 17 14
17 37 2 36 -26 46 -21 52 25 4 32 1 47 -13 65 -23 29 -16 53 15 53 14 0 25 7
28 20 3 11 13 20 24 20 14 0 12 5 -12 24 -25 21 -28 28 -19 43 15 24 45 29 56
9 11 -20 48 -21 48 -1 0 8 -9 20 -20 27 -35 22 -19 48 31 48 10 0 19 4 19 8 0
17 -25 32 -52 32 -36 0 -53 36 -36 78 6 15 11 43 12 62 1 30 5 35 28 38 24 3
27 6 18 23 -8 14 -6 22 8 34 16 14 18 30 16 120 -3 90 -1 106 14 114 10 6 12
11 5 11 -7 0 -13 5 -13 11 0 8 12 10 35 6 19 -3 37 -1 41 4 4 7 10 6 18 0 7
-6 16 -7 22 -2 5 5 20 11 34 13 l25 3 -30 15 c-31 16 -77 18 -107 5 -24 -10
-38 2 -38 31 0 15 -6 24 -15 24 -8 0 -15 5 -15 10 0 10 14 14 39 10 28 -4 -8
28 -45 40 -19 6 -34 17 -34 25 0 21 65 23 102 3 37 -19 75 -23 98 -8 23 15 -6
60 -40 60 -32 0 -50 17 -50 46 0 26 20 36 60 27 23 -4 30 -2 30 11 0 12 9 16
35 16 41 0 44 9 10 38 -28 25 -32 50 -10 58 21 8 19 24 -7 51 l-22 23 22 20
c23 22 28 45 12 55 -20 12 -9 34 17 37 39 4 45 38 7 38 -25 0 -74 39 -74 60 0
17 21 21 55 10 50 -17 95 -5 95 25 0 13 5 27 10 30 15 9 12 35 -4 35 -7 0 -30
-12 -51 -26 -43 -29 -70 -26 -60 7 5 15 2 22 -14 26 -28 7 -26 19 4 39 14 9
25 25 25 35 0 15 7 19 40 19 40 0 53 13 24 24 -37 14 -82 6 -97 -18 -14 -21
-23 -23 -82 -23 -58 1 -69 4 -82 23 -8 13 -13 33 -11 46 2 18 10 24 36 26 32
3 48 32 18 32 -41 0 -28 54 16 69 43 15 73 14 88 -4 19 -23 43 -19 35 5 -5 16
-2 20 19 20 34 0 43 18 18 36 -25 17 -19 42 11 46 28 4 33 24 7 31 -30 8 -26
45 8 60 25 11 27 15 22 57 -5 44 -6 45 -37 43 -32 -3 -32 -2 -30 35 2 35 0 37
-25 35 -23 -1 -28 2 -28 22 0 17 -6 25 -22 27 -57 8 -5 118 62 132 44 8 36 37
-14 51 -57 16 -79 49 -73 108 5 57 35 102 68 103 48 2 79 16 79 35 0 12 7 19
19 19 10 0 24 7 31 15 7 9 8 15 2 15 -5 0 -12 17 -15 38 -3 29 0 40 17 54 19
16 20 17 3 36 -23 25 -22 58 3 75 17 12 19 22 15 72 -3 32 -12 71 -20 88 -14
28 -14 32 0 39 22 13 18 42 -10 76 -31 37 -32 60 -1 72 23 9 33 37 39 113 1
15 8 31 14 35 9 6 7 12 -7 25 -11 9 -20 28 -20 41 0 13 -7 27 -16 30 -15 6
-15 8 -1 24 19 22 34 122 17 122 -6 0 -29 15 -50 33 -31 25 -40 39 -40 64 0
17 -5 33 -11 35 -5 2 -14 19 -19 38 -46 176 -45 168 -28 187 23 27 30 69 18
114 -10 37 -13 40 -43 37 -39 -4 -48 20 -20 55 13 16 18 40 18 78 l0 54 -46 0
c-79 0 -106 45 -44 71 l34 14 -20 35 c-12 20 -31 42 -42 50 -33 23 -12 29 47
15 29 -7 59 -10 65 -6 6 4 11 24 11 44 0 78 6 111 24 131 17 19 18 22 2 46 -9
13 -29 33 -44 42 -38 25 -51 44 -52 74 0 19 -10 31 -40 48 -22 12 -40 28 -40
35 0 8 -23 21 -52 31 -47 15 -53 15 -64 1 -6 -9 -21 -16 -33 -16 -31 0 -68
-27 -75 -56 -4 -16 -13 -24 -27 -24 -19 0 -20 4 -14 43 3 23 11 52 17 65 9 17
9 31 0 56 -17 47 -15 64 10 68 33 5 32 25 -2 31 -21 5 -30 12 -30 27 0 11 5
20 10 20 6 0 10 5 10 10 0 20 -38 9 -54 -15 -14 -21 -19 -23 -45 -14 -28 10
-50 43 -80 122 -9 22 -17 27 -46 27 -24 0 -38 5 -42 16 -7 19 9 49 26 49 6 0
15 6 20 13 5 9 29 14 64 14 38 0 58 5 61 14 7 17 -3 44 -16 44 -5 0 -9 24 -8
53 2 82 -6 97 -50 97 -22 0 -43 7 -51 16 -10 12 -24 15 -60 10 -44 -6 -47 -5
-42 14 4 15 0 20 -13 21 -11 0 -55 2 -99 3 -44 1 -90 7 -102 14 -28 16 -38 15
-53 -3z"/>
<path d="M6640 5132 c0 -5 9 -17 19 -26 21 -19 35 -8 25 18 -6 16 -44 23 -44
8z"/>
<path d="M5857 1980 c-3 -10 1 -24 9 -31 11 -9 14 -6 14 20 0 34 -15 42 -23
11z"/>
</g>
</svg>
