<?xml version="1.0" standalone="no"?>
<!DOCTYPE svg PUBLIC "-//W3C//DTD SVG 20010904//EN"
 "http://www.w3.org/TR/2001/REC-SVG-20010904/DTD/svg10.dtd">
<svg version="1.0" xmlns="http://www.w3.org/2000/svg"
 width="430.000000pt" height="1024.000000pt" viewBox="0 0 430.000000 1024.000000"
 preserveAspectRatio="xMidYMid meet">
<metadata>
Created by potrace 1.16, written by Peter Selinger 2001-2019
</metadata>
<g transform="translate(0.000000,1024.000000) scale(0.100000,-0.100000)"
fill="#000000" stroke="none">
<path d="M3423 10221 c-28 -10 -56 -22 -61 -25 -6 -3 -52 -10 -104 -16 l-93
-9 -55 -60 c-40 -44 -68 -65 -105 -78 -44 -16 -53 -24 -78 -73 -15 -30 -41
-68 -56 -85 -18 -19 -35 -52 -45 -89 -8 -33 -26 -70 -40 -85 -22 -23 -26 -36
-26 -89 0 -60 -2 -64 -40 -100 -34 -31 -44 -50 -59 -108 -31 -119 -63 -180
-109 -203 -71 -36 -89 -88 -57 -164 37 -88 2 -158 -86 -171 -62 -10 -97 -25
-104 -45 -7 -22 -100 -52 -137 -44 -70 14 -97 -19 -72 -89 18 -53 18 -92 -2
-108 -30 -26 -35 -48 -19 -79 31 -62 20 -85 -78 -150 -60 -41 -72 -69 -50
-115 21 -44 13 -62 -38 -82 l-41 -17 6 -46 c19 -167 19 -166 -3 -209 -25 -50
-26 -73 -5 -129 16 -41 16 -47 -6 -119 -15 -50 -20 -87 -16 -110 6 -30 11 -34
36 -34 28 0 30 -2 30 -40 0 -36 4 -42 40 -65 51 -32 58 -51 46 -126 -7 -41 -7
-66 0 -77 11 -17 72 -51 132 -73 19 -7 32 -18 32 -29 0 -12 22 -29 66 -50 77
-39 85 -53 82 -151 -1 -42 3 -74 10 -81 15 -15 67 -14 131 3 43 11 55 10 98
-6 64 -23 113 -61 113 -86 0 -26 -16 -56 -52 -97 -39 -45 -34 -74 14 -86 28
-7 47 -5 80 7 79 31 148 19 148 -24 0 -13 12 -19 43 -24 121 -19 288 -143 236
-176 -33 -20 8 -21 69 -1 84 27 94 27 167 2 32 -11 65 -20 74 -20 23 0 78 86
107 165 32 87 68 149 96 163 13 6 43 16 68 24 38 11 52 23 97 87 l53 74 0 164
c0 158 1 168 32 260 18 56 51 125 78 167 51 78 70 124 70 168 0 17 16 55 35
86 25 42 36 73 40 117 12 122 14 125 79 194 35 36 66 74 69 84 4 9 -3 56 -14
104 -23 97 -21 153 6 224 18 45 18 47 -5 143 -23 91 -23 102 -11 179 32 198
23 419 -22 536 -17 43 -21 75 -19 138 2 103 -8 131 -96 267 -97 148 -113 199
-96 309 9 63 -11 87 -72 87 -46 0 -49 3 -56 69 -4 36 -31 48 -70 32 -57 -25
-92 -19 -143 25 -25 21 -57 48 -70 58 -34 27 -109 30 -172 7z"/>
<path d="M3023 5838 c-11 -13 -30 -42 -42 -65 -17 -34 -29 -44 -61 -53 -70
-19 -179 -88 -194 -124 -12 -28 -63 -73 -144 -128 -14 -9 -43 -20 -63 -23 -74
-13 -109 -64 -75 -111 12 -15 27 -19 77 -19 47 0 64 -4 73 -17 8 -14 5 -23
-17 -46 -16 -16 -27 -39 -27 -55 0 -17 -5 -27 -15 -27 -8 0 -32 -15 -52 -33
-47 -42 -66 -47 -134 -36 -75 12 -193 -5 -319 -47 -125 -42 -150 -60 -70 -50
161 20 147 21 295 -28 221 -74 278 -74 317 -5 35 61 88 66 88 8 0 -16 3 -29 8
-29 4 0 24 25 45 55 23 33 60 69 92 90 61 39 75 59 75 110 0 25 7 43 24 58 17
16 24 33 24 64 0 23 6 51 11 62 16 29 14 31 -22 31 -18 0 -42 6 -52 14 -18 13
-18 15 15 42 18 16 49 34 67 40 40 14 73 41 73 61 0 8 13 13 38 13 21 0 41 3
44 6 4 3 -2 25 -13 49 -19 44 -19 44 2 104 27 80 23 105 -16 109 -22 2 -37 -4
-52 -20z"/>
<path d="M3966 4724 c-23 -23 -21 -100 4 -131 16 -20 20 -41 20 -94 0 -64 11
-96 23 -64 4 8 32 19 66 27 34 6 61 16 61 20 0 12 -26 61 -55 104 -16 24 -25
51 -25 76 0 22 -5 48 -10 59 -13 23 -62 26 -84 3z"/>
<path d="M2366 4601 c-32 -62 -74 -97 -128 -106 -96 -14 -120 -37 -91 -86 21
-35 52 -38 94 -7 27 20 33 21 87 10 69 -14 99 -15 106 -3 3 5 -3 30 -15 55
-11 25 -17 51 -14 56 4 6 22 17 42 25 32 13 35 18 30 44 -4 20 -2 31 8 35 33
12 12 26 -40 26 l-55 0 -24 -49z"/>
<path d="M3200 4149 c-33 -36 -42 -41 -66 -35 -66 17 -77 13 -85 -24 -4 -18
-14 -39 -22 -45 -10 -7 -16 -35 -18 -92 -4 -80 -5 -83 -43 -122 -39 -40 -39
-41 -21 -61 11 -12 22 -42 25 -68 l5 -47 42 -3 c34 -2 47 -9 63 -33 27 -37 37
-37 45 4 4 17 19 51 33 75 22 38 24 48 14 79 -8 25 -8 42 -1 55 6 11 17 42 25
69 14 47 16 49 70 65 63 18 74 34 50 74 -9 16 -13 35 -10 44 3 8 -1 25 -10 38
-9 12 -16 33 -16 45 0 37 -37 28 -80 -18z"/>
<path d="M1484 2414 c-11 -16 -19 -54 -22 -103 -4 -73 -3 -79 20 -97 34 -27
48 -56 48 -103 0 -28 7 -48 25 -69 33 -39 32 -67 -5 -104 -31 -31 -64 -35
-112 -14 -13 6 -20 2 -28 -18 -14 -37 -46 -40 -135 -12 -92 30 -115 32 -115
12 0 -18 11 -26 65 -47 31 -12 46 -27 65 -64 38 -74 53 -78 101 -27 22 23 48
42 57 42 10 0 34 -11 54 -25 48 -33 62 -32 92 8 35 46 72 229 57 283 -6 21 -9
38 -8 39 1 1 14 9 29 18 36 22 55 21 70 -3 17 -27 50 -25 76 3 29 31 30 95 1
131 -21 27 -21 28 -4 60 16 29 16 36 4 62 -27 55 -129 36 -129 -25 0 -26 -25
-44 -50 -36 -12 4 -28 22 -37 41 -14 27 -21 32 -40 28 -18 -5 -25 -1 -33 20
-12 33 -25 33 -46 0z"/>
<path d="M1056 1379 c-14 -21 -16 -21 -41 -5 -39 25 -57 14 -49 -29 9 -50 -2
-84 -33 -96 l-26 -10 23 -24 c23 -24 23 -28 11 -76 -7 -27 -11 -53 -7 -56 13
-13 64 21 87 58 33 55 46 68 77 76 40 9 72 33 72 52 0 17 -79 130 -92 131 -4
0 -14 -10 -22 -21z"/>
<path d="M305 880 c-16 -32 -20 -33 -102 -30 -49 1 -54 -1 -63 -25 -17 -44
-12 -62 25 -83 73 -44 53 -111 -43 -138 -78 -22 -109 -40 -117 -65 -8 -24 19
-59 45 -59 9 0 50 -12 90 -26 42 -14 83 -23 96 -20 13 4 54 33 91 66 73 65
105 74 111 32 3 -22 7 -23 40 -16 20 4 69 10 107 13 68 6 70 7 80 38 5 18 16
35 25 38 9 3 29 18 44 34 21 22 27 36 22 54 -10 40 -56 52 -184 49 -140 -4
-154 3 -178 86 -9 31 -21 63 -26 70 -18 21 -47 13 -63 -18z"/>
</g>
</svg>
