<?xml version="1.0" standalone="no"?>
<!DOCTYPE svg PUBLIC "-//W3C//DTD SVG 20010904//EN"
 "http://www.w3.org/TR/2001/REC-SVG-20010904/DTD/svg10.dtd">
<svg version="1.0" xmlns="http://www.w3.org/2000/svg"
 width="1024.000000pt" height="1024.000000pt" viewBox="0 0 1024.000000 1024.000000"
 preserveAspectRatio="xMidYMid meet">
<metadata>
Created by potrace 1.16, written by Peter Selinger 2001-2019
</metadata>
<g transform="translate(0.000000,1024.000000) scale(0.100000,-0.100000)"
fill="#000000" stroke="none">
<path d="M2397 8959 c-4 -16 -11 -19 -26 -14 -15 4 -21 2 -21 -9 0 -24 -29
-46 -62 -46 -17 0 -47 -10 -68 -21 -37 -21 -40 -21 -79 -5 -23 9 -57 16 -76
16 -28 0 -37 -5 -45 -24 -13 -35 -42 -47 -90 -40 -33 5 -40 4 -40 -10 0 -38
-30 -74 -72 -88 -37 -12 -48 -23 -73 -70 -17 -31 -42 -70 -57 -87 -26 -28 -41
-35 -93 -43 -16 -3 -21 -13 -25 -53 -4 -40 -9 -51 -25 -53 -30 -6 -37 -17 -41
-64 -2 -24 -9 -56 -16 -72 -9 -22 -8 -39 1 -76 12 -45 11 -51 -14 -98 -23 -44
-26 -59 -20 -104 5 -39 2 -64 -10 -92 -9 -21 -14 -44 -11 -51 2 -7 26 -20 53
-29 64 -21 149 -79 167 -114 8 -15 37 -48 65 -74 34 -32 51 -55 51 -71 0 -13
13 -44 30 -68 26 -38 30 -53 30 -111 0 -65 1 -68 24 -68 14 0 32 -10 40 -22 8
-12 34 -31 57 -43 36 -17 45 -29 58 -70 14 -43 23 -52 79 -86 34 -21 117 -82
183 -135 111 -89 131 -101 253 -149 186 -74 401 -181 448 -223 56 -51 72 -85
64 -143 l-6 -47 71 -81 c40 -44 86 -87 103 -95 17 -8 69 -22 116 -31 95 -19
109 -28 119 -76 7 -33 8 -34 68 -40 46 -4 71 -13 97 -32 39 -30 52 -33 59 -13
8 19 51 28 82 16 15 -6 32 -24 41 -45 17 -40 23 -43 47 -15 21 24 62 26 170 5
43 -8 99 -15 124 -15 43 0 45 -1 39 -24 -10 -40 36 -63 80 -39 65 35 84 35
115 2 l29 -31 38 39 c20 22 45 52 55 67 l19 27 206 -2 c113 0 217 -5 230 -10
23 -9 24 -13 19 -65 -5 -49 -3 -57 16 -72 12 -9 45 -40 74 -69 60 -61 80 -68
171 -59 53 5 87 1 162 -19 58 -14 99 -31 105 -41 50 -83 63 -91 237 -138 68
-19 176 -97 233 -169 22 -27 62 -74 89 -103 47 -52 48 -55 51 -124 2 -56 8
-79 29 -110 35 -53 41 -83 21 -104 -9 -9 -27 -16 -41 -16 -17 0 -25 -7 -30
-24 -7 -29 8 -60 49 -103 l30 -32 -41 -88 c-38 -84 -43 -90 -97 -118 -53 -28
-56 -31 -53 -64 3 -36 16 -49 98 -94 25 -14 30 -21 22 -29 -18 -18 -14 -36 9
-43 20 -7 21 -11 14 -79 -4 -39 -7 -80 -7 -90 3 -53 90 -81 152 -49 30 16 34
22 31 48 -3 17 -5 75 -5 130 l-1 99 34 23 c21 14 49 23 72 23 35 0 39 -2 39
-26 0 -32 59 -94 89 -94 18 0 21 6 21 43 0 45 21 77 50 77 8 0 28 16 46 35 50
54 96 47 108 -17 4 -25 13 -39 27 -43 52 -17 114 48 90 94 -7 11 -25 28 -41
36 -59 30 -29 105 42 105 40 0 69 26 93 82 20 49 19 70 -5 101 -11 14 -20 34
-20 44 0 11 -11 30 -25 43 -14 13 -25 34 -25 47 0 19 -5 23 -30 23 -43 0 -98
31 -150 84 -24 25 -47 46 -51 46 -19 0 -39 -35 -39 -69 0 -44 -24 -71 -63 -71
-31 0 -67 31 -67 58 0 55 -22 94 -71 124 -29 19 -59 48 -74 75 l-26 44 -50 -7
c-62 -8 -82 5 -73 51 5 29 3 33 -20 39 -22 5 -25 10 -20 32 9 34 -16 58 -72
74 -37 11 -46 18 -51 41 -7 36 -17 43 -77 58 -27 7 -65 20 -85 31 -51 27 -130
106 -136 138 -14 64 -45 87 -72 53 -18 -22 -21 -23 -49 -8 -17 9 -35 27 -42
42 -15 33 -16 197 -1 212 18 18 6 47 -21 53 -31 7 -37 43 -16 95 19 45 14 55
-28 55 -68 0 -119 90 -115 204 1 39 -1 80 -5 91 -3 11 -30 36 -59 55 -35 24
-64 55 -88 96 -81 133 -133 240 -144 293 -9 49 -16 60 -55 89 -25 19 -49 46
-54 60 -25 76 -30 83 -86 117 -83 50 -159 113 -175 146 -8 15 -15 46 -15 67 0
43 -12 58 -50 64 -21 2 -25 8 -25 37 0 26 -5 36 -22 42 -20 7 -22 12 -12 35 5
15 8 33 5 40 -3 8 -41 31 -84 53 -66 33 -82 46 -91 73 -16 45 -50 78 -81 78
-42 0 -64 31 -56 79 7 47 4 50 -74 61 -37 5 -72 18 -92 33 -18 13 -65 41 -104
62 -39 20 -98 57 -130 82 -32 24 -82 55 -111 68 -30 14 -57 34 -65 49 -8 14
-57 70 -110 124 -52 54 -105 117 -117 141 -15 29 -33 47 -57 57 -19 8 -38 22
-41 30 -5 13 -15 15 -48 11 -32 -5 -51 -1 -81 15 -21 12 -64 31 -95 43 -30 12
-67 34 -82 48 -30 31 -49 34 -67 12 -7 -8 -23 -15 -35 -15 -12 0 -29 -10 -37
-22 -13 -19 -19 -21 -49 -12 -24 7 -35 16 -37 33 -4 24 -9 31 -67 95 -19 22
-35 47 -35 57 0 27 -31 39 -104 39 -36 0 -77 5 -91 12 -20 9 -31 8 -50 -2 -19
-10 -30 -11 -50 -2 -36 16 -42 15 -48 -9z"/>
<path d="M7585 3950 c-38 -10 -97 -28 -129 -39 -70 -25 -119 -27 -136 -6 -16
19 -54 19 -70 0 -7 -8 -30 -20 -51 -27 -45 -13 -48 -20 -17 -40 31 -21 17 -63
-38 -113 -25 -23 -44 -50 -44 -61 0 -25 -24 -48 -65 -61 -33 -11 -35 -21 -14
-89 10 -33 10 -48 0 -73 -11 -26 -19 -31 -47 -31 -33 0 -34 -1 -34 -41 0 -47
-11 -71 -52 -114 -72 -73 -102 -210 -102 -450 0 -93 2 -192 4 -220 4 -38 0
-61 -18 -96 -22 -44 -22 -51 -11 -143 13 -108 11 -113 -42 -130 -18 -6 -35
-20 -39 -31 -11 -31 12 -89 55 -136 20 -23 49 -69 65 -102 15 -34 42 -80 60
-102 59 -73 73 -112 67 -181 -7 -70 2 -85 79 -134 59 -37 169 -141 187 -177
12 -23 33 -36 97 -61 100 -39 135 -41 171 -6 25 23 35 26 115 27 l89 2 20 39
c23 45 39 54 62 35 13 -12 19 -9 43 19 28 34 48 39 82 21 18 -10 25 -6 54 27
l32 39 79 0 c65 0 88 5 138 29 88 42 138 48 208 25 32 -11 62 -17 67 -14 5 3
13 20 18 37 8 34 21 43 66 53 15 3 49 25 74 49 41 39 46 48 48 92 1 42 16 158
30 231 2 13 18 30 37 39 43 22 42 20 22 50 -17 27 -17 28 8 46 37 27 43 67 18
124 -12 25 -21 48 -21 50 0 2 12 4 26 4 23 0 25 3 19 23 -16 51 -16 76 -1 99
23 32 21 44 -24 137 l-40 82 12 94 c11 85 10 98 -6 132 -24 51 -30 124 -18
206 13 79 10 90 -24 106 -24 10 -24 12 -9 47 8 20 12 47 9 60 -8 30 -72 89
-129 116 -48 23 -57 47 -34 89 14 27 -5 49 -42 49 -33 0 -45 15 -29 35 18 21
3 51 -36 76 -32 20 -45 21 -121 16 -128 -9 -162 12 -226 138 -51 101 -119 140
-226 129 -48 -4 -81 -2 -121 10 -65 19 -58 19 -145 -4z"/>
</g>
</svg>
