<?xml version="1.0" standalone="no"?>
<!DOCTYPE svg PUBLIC "-//W3C//DTD SVG 20010904//EN"
 "http://www.w3.org/TR/2001/REC-SVG-20010904/DTD/svg10.dtd">
<svg version="1.0" xmlns="http://www.w3.org/2000/svg"
 width="1024.000000pt" height="768.000000pt" viewBox="0 0 1024.000000 768.000000"
 preserveAspectRatio="xMidYMid meet">
<metadata>
Created by potrace 1.16, written by Peter Selinger 2001-2019
</metadata>
<g transform="translate(0.000000,768.000000) scale(0.100000,-0.100000)"
fill="#000000" stroke="none">
<path d="M3369 6020 c-52 -15 -137 -33 -188 -39 -51 -7 -106 -18 -121 -26 -38
-20 -68 -60 -76 -101 -4 -22 -12 -34 -23 -34 -9 0 -98 12 -199 26 l-183 26
-97 -25 c-53 -14 -128 -29 -167 -32 -167 -15 -272 -45 -366 -102 -53 -32 -66
-35 -196 -48 -76 -7 -154 -20 -173 -28 -40 -16 -85 -59 -106 -99 -20 -38 -53
-44 -100 -19 -50 27 -104 27 -190 -1 -122 -38 -200 -24 -387 69 -161 80 -265
91 -373 38 -69 -34 -141 -120 -121 -144 183 -219 236 -272 356 -356 105 -73
134 -104 149 -152 6 -21 26 -53 44 -70 49 -45 161 -121 224 -150 30 -13 54
-30 54 -36 1 -20 339 -400 448 -502 108 -102 108 -103 214 -335 45 -97 124
-193 187 -225 63 -32 91 -67 91 -116 0 -46 29 -72 103 -94 93 -28 206 -15 361
40 76 27 132 31 182 13 26 -9 69 -6 245 20 192 29 221 35 283 67 58 30 78 35
136 35 37 0 89 -7 116 -15 60 -18 96 -19 112 -3 7 7 12 37 12 68 0 70 18 90
80 90 66 0 220 -32 220 -46 0 -6 -6 -30 -14 -52 -16 -45 -14 -50 41 -71 18 -7
49 -33 68 -57 46 -56 70 -68 177 -89 108 -22 146 -15 197 33 60 57 65 125 17
247 -18 47 -21 134 -5 169 7 14 38 44 70 66 33 23 59 46 59 52 0 6 -5 28 -11
49 -18 59 7 112 91 192 99 94 101 102 46 196 -27 48 -65 140 -101 250 -89 272
-140 378 -228 478 -18 21 -46 65 -62 98 -21 44 -63 96 -154 191 -86 89 -143
159 -180 220 -111 181 -143 225 -197 266 -51 38 -58 40 -128 42 -67 1 -78 4
-103 29 -16 15 -31 27 -34 26 -2 0 -47 -13 -100 -29z"/>
<path d="M6990 3466 c-3 -3 -82 -10 -175 -15 -125 -7 -194 -17 -260 -35 -146
-40 -315 -96 -390 -129 l-70 -32 -168 3 c-209 3 -206 4 -381 -169 l-129 -129
6 -65 c11 -115 70 -206 153 -235 16 -6 93 -21 172 -34 79 -13 145 -26 147 -28
3 -2 0 -18 -7 -34 -16 -43 -4 -75 37 -103 19 -13 45 -34 59 -48 13 -13 37 -25
53 -26 27 -2 28 0 27 41 -1 40 1 43 25 40 37 -4 92 -84 120 -171 44 -136 90
-198 169 -225 18 -6 51 -25 72 -42 105 -83 240 -81 388 9 87 52 111 57 158 35
21 -10 50 -17 65 -16 24 2 28 -1 26 -25 -2 -24 2 -28 33 -33 19 -3 47 -18 61
-32 26 -26 41 -30 140 -43 73 -9 108 -35 184 -136 38 -52 83 -100 99 -108 34
-16 137 -17 196 -1 24 6 73 25 109 42 39 19 89 33 122 36 48 4 67 -1 140 -33
103 -45 159 -52 268 -31 111 21 181 20 277 -5 69 -18 101 -20 249 -17 350 7
543 0 696 -23 140 -21 146 -21 183 -4 41 19 76 77 96 158 10 36 9 56 -4 105
-18 73 -70 198 -95 230 -17 23 -20 23 -76 13 -33 -6 -74 -8 -91 -5 -28 5 -32
11 -38 47 -16 100 -71 135 -228 146 -53 3 -99 9 -103 13 -4 3 -1 15 6 26 39
62 -81 98 -157 47 -40 -27 -89 -32 -145 -14 -19 6 -41 13 -49 15 -10 4 8 25
54 67 l69 62 -21 40 c-11 22 -37 53 -57 69 -21 16 -46 49 -57 73 -23 53 -38
60 -72 38 l-26 -17 0 44 c0 35 -6 49 -27 70 -70 65 -110 64 -188 -2 l-59 -50
-52 56 c-53 58 -60 60 -116 39 -8 -3 -25 4 -39 16 -55 49 -104 62 -252 64
l-139 2 -36 40 c-21 22 -62 60 -92 84 -30 24 -79 65 -108 91 -66 59 -120 78
-155 55 -17 -11 -36 -14 -61 -10 -36 6 -37 5 -31 -20 4 -14 2 -28 -5 -32 -16
-10 -105 51 -194 134 -46 43 -102 83 -132 97 -50 22 -163 42 -174 30z"/>
<path d="M5063 3131 c-10 -16 -3 -26 52 -81 72 -71 89 -73 100 -9 8 48 7 48
-84 86 -30 13 -55 23 -55 23 -1 0 -6 -8 -13 -19z"/>
</g>
</svg>
