<?xml version="1.0" standalone="no"?>
<!DOCTYPE svg PUBLIC "-//W3C//DTD SVG 20010904//EN"
 "http://www.w3.org/TR/2001/REC-SVG-20010904/DTD/svg10.dtd">
<svg version="1.0" xmlns="http://www.w3.org/2000/svg"
 width="1024.000000pt" height="1024.000000pt" viewBox="0 0 1024.000000 1024.000000"
 preserveAspectRatio="xMidYMid meet">
<metadata>
Created by potrace 1.16, written by Peter Selinger 2001-2019
</metadata>
<g transform="translate(0.000000,1024.000000) scale(0.100000,-0.100000)"
fill="#000000" stroke="none">
<path d="M8486 9908 c-10 -6 -41 -16 -68 -24 -28 -7 -67 -24 -88 -39 -20 -14
-53 -30 -73 -36 -48 -13 -151 -124 -188 -203 -16 -34 -29 -67 -29 -75 0 -28
-41 -78 -77 -94 -21 -9 -78 -24 -128 -33 -134 -24 -278 -104 -344 -191 -50
-64 -73 -77 -164 -84 -66 -6 -88 -13 -138 -44 -32 -20 -91 -47 -131 -61 -40
-13 -90 -36 -111 -50 -29 -19 -60 -27 -125 -34 -129 -15 -227 -38 -313 -76
-45 -20 -109 -38 -153 -44 -105 -15 -177 -42 -249 -93 -62 -44 -162 -92 -293
-141 -96 -36 -155 -75 -244 -160 -41 -40 -127 -107 -190 -148 -63 -41 -152
-104 -197 -139 -45 -35 -121 -91 -169 -124 -49 -33 -125 -96 -169 -140 -124
-121 -126 -123 -214 -160 -103 -42 -136 -68 -207 -156 -49 -61 -66 -75 -137
-108 -102 -47 -155 -99 -320 -315 -67 -88 -156 -199 -199 -247 -42 -48 -93
-113 -113 -145 -49 -78 -87 -116 -160 -164 l-61 -40 -245 10 c-229 9 -469 35
-549 59 -67 21 -165 32 -219 26 -63 -8 -81 -24 -170 -146 -141 -193 -183 -239
-247 -269 -34 -17 -69 -41 -78 -55 -16 -24 -20 -25 -84 -19 -43 4 -94 18 -142
39 -90 40 -300 105 -338 105 -39 -1 -66 -19 -105 -70 -44 -58 -49 -69 -81
-164 -34 -102 -34 -166 1 -424 27 -201 27 -204 11 -314 -9 -61 -21 -114 -27
-117 -13 -8 -31 -57 -31 -84 0 -33 53 -138 90 -181 18 -20 61 -58 94 -84 34
-25 88 -71 121 -101 34 -31 98 -76 144 -100 133 -72 223 -193 242 -327 10 -75
35 -129 84 -183 42 -46 42 -52 15 -236 -28 -188 -39 -208 -181 -316 -97 -73
-146 -144 -176 -250 -49 -177 -87 -319 -101 -381 l-15 -68 53 -162 c29 -90 81
-248 116 -353 46 -136 68 -221 79 -300 9 -60 22 -132 30 -159 8 -27 15 -71 15
-97 0 -40 -6 -54 -41 -95 -81 -97 -210 -354 -217 -432 l-5 -53 59 -55 c67 -62
200 -154 258 -178 97 -40 189 -54 401 -61 171 -5 219 -4 258 9 66 20 170 83
257 156 133 111 179 120 275 53 42 -29 81 -47 130 -58 95 -22 157 -10 243 48
41 27 44 28 67 13 33 -21 68 -20 115 4 22 11 52 20 68 20 47 0 66 22 67 76 1
53 -4 47 116 123 36 22 74 41 84 41 9 0 63 -44 119 -97 56 -54 130 -120 163
-148 85 -70 93 -86 86 -172 -8 -94 1 -132 41 -179 24 -28 35 -53 39 -89 11
-77 62 -172 131 -241 74 -74 173 -125 306 -156 83 -19 101 -20 162 -10 97 17
256 15 308 -3 87 -31 134 -15 171 56 11 23 38 52 62 67 23 15 58 39 78 54 19
15 76 41 127 57 162 53 553 69 871 36 79 -8 230 -15 336 -15 255 0 240 -12
290 225 18 84 34 132 53 159 20 29 28 56 33 107 5 60 12 78 57 146 28 43 60
101 70 128 11 28 38 86 60 130 21 44 47 101 57 127 10 26 33 65 52 87 57 67
103 151 103 189 0 49 -24 92 -70 126 -61 45 -77 133 -44 231 15 43 16 64 4
194 -12 147 -18 180 -41 238 -12 30 -11 33 50 105 34 40 79 99 99 132 44 70
97 133 125 148 12 6 66 14 122 18 121 9 192 38 253 104 63 69 132 219 132 290
0 17 13 88 30 159 23 99 36 137 62 173 60 83 70 103 89 181 28 110 73 186 228
377 127 158 140 171 197 196 72 33 97 68 161 225 58 146 66 186 54 286 -15
135 -42 288 -63 369 -10 41 -37 144 -59 229 -41 162 -56 195 -148 324 -87 122
-95 136 -130 232 -35 95 -65 155 -131 270 -80 139 -80 112 -10 265 103 225
100 207 52 346 -33 97 -42 137 -45 214 -4 66 -18 143 -45 250 -52 203 -55 230
-22 230 28 0 97 37 210 112 152 101 166 156 105 408 -21 85 -46 178 -55 205
-14 40 -17 77 -14 173 l3 123 86 114 c83 112 87 115 142 131 104 30 129 86 93
209 -23 81 -24 115 -8 245 10 88 10 103 -11 195 -32 142 -40 164 -64 180 -55
35 -127 31 -172 -11 -26 -24 -31 -25 -98 -18 -49 5 -81 14 -105 30 -37 26 -94
31 -126 12z"/>
</g>
</svg>
