<?xml version="1.0" standalone="no"?>
<!DOCTYPE svg PUBLIC "-//W3C//DTD SVG 20010904//EN"
 "http://www.w3.org/TR/2001/REC-SVG-20010904/DTD/svg10.dtd">
<svg version="1.0" xmlns="http://www.w3.org/2000/svg"
 width="1024.000000pt" height="989.000000pt" viewBox="0 0 1024.000000 989.000000"
 preserveAspectRatio="xMidYMid meet">
<metadata>
Created by potrace 1.16, written by Peter Selinger 2001-2019
</metadata>
<g transform="translate(0.000000,989.000000) scale(0.100000,-0.100000)"
fill="#000000" stroke="none">
<path d="M9222 9854 c-17 -28 -21 -44 -16 -75 9 -55 -7 -72 -63 -63 -42 6 -43
5 -43 -20 0 -15 8 -38 17 -52 20 -32 7 -44 -48 -44 -38 0 -49 -12 -49 -51 0
-13 -7 -19 -22 -19 -28 0 -88 -22 -88 -32 0 -14 -32 -9 -44 8 -6 8 -34 18 -61
22 -41 6 -51 11 -53 29 -4 29 -31 37 -54 16 -16 -14 -19 -28 -16 -82 3 -63 2
-66 -24 -79 -35 -16 -35 -25 -1 -47 39 -26 73 -65 73 -86 0 -13 -11 -19 -49
-24 l-48 -6 -6 -66 c-7 -66 1 -93 28 -93 6 0 17 -11 23 -25 6 -14 18 -25 27
-25 8 0 15 -7 15 -15 0 -8 7 -15 15 -15 20 0 20 -49 0 -56 -8 -3 -29 -1 -47 5
-41 14 -57 0 -82 -73 -19 -54 -19 -57 -1 -96 10 -22 21 -40 24 -40 14 0 32
-89 38 -191 l6 -109 -29 0 c-37 0 -47 -8 -59 -45 -8 -24 -17 -31 -45 -35 -52
-8 -103 -44 -125 -91 -11 -23 -28 -44 -37 -47 -10 -2 -18 -10 -18 -18 0 -24
-23 -27 -41 -5 -17 21 -22 22 -55 11 -25 -9 -39 -9 -47 -1 -13 13 -37 79 -37
103 0 9 -13 26 -30 38 -28 20 -31 20 -55 4 -17 -11 -25 -25 -25 -45 0 -22 -5
-29 -19 -29 -37 0 -51 -12 -51 -41 0 -27 3 -29 40 -29 50 0 87 -34 95 -89 4
-20 8 -46 10 -57 4 -15 -1 -23 -15 -27 -29 -8 -25 -77 5 -77 8 0 17 -9 20 -20
3 -11 11 -20 16 -20 5 0 9 -16 9 -35 0 -24 6 -37 20 -45 11 -6 20 -16 20 -23
0 -7 -9 -20 -20 -30 -27 -23 -25 -59 5 -87 29 -27 26 -35 -14 -43 -57 -12 -88
-77 -36 -77 21 0 30 -9 50 -52 14 -29 25 -57 25 -63 1 -17 60 -76 70 -70 15 9
11 57 -5 79 -8 11 -15 33 -15 48 l0 29 116 -4 c127 -4 134 -7 134 -64 0 -30 3
-33 31 -33 23 0 40 -10 65 -37 19 -20 34 -41 34 -45 0 -18 43 -6 65 18 15 16
32 24 47 22 19 -2 24 -11 29 -44 4 -31 14 -49 37 -69 18 -15 32 -32 32 -39 0
-7 11 -25 25 -40 14 -15 25 -36 25 -47 0 -27 11 -24 50 16 33 34 36 35 110 35
l77 0 16 -40 c12 -32 13 -46 4 -70 -16 -43 0 -63 57 -74 59 -12 67 -2 54 62
-9 48 -21 78 -65 167 -15 31 -23 63 -21 82 l3 32 42 -19 c23 -10 44 -16 47
-12 3 3 6 20 6 38 0 27 6 37 30 49 17 9 36 27 42 41 8 16 24 27 52 34 23 5 61
16 85 24 25 8 48 13 53 10 11 -7 10 -34 -2 -34 -5 0 -10 -9 -10 -19 0 -11 -12
-28 -27 -39 -32 -24 -23 -47 16 -37 14 4 30 13 34 21 4 8 14 14 20 14 15 0 47
51 47 74 0 8 -14 31 -31 51 -27 30 -30 40 -25 70 4 19 11 35 15 35 5 0 18 21
29 48 12 26 33 68 48 95 19 34 26 62 26 100 0 50 -2 53 -51 97 l-52 46 3 114
3 115 36 -3 c32 -3 37 0 43 23 12 49 37 73 102 104 47 22 73 29 95 24 23 -4
38 0 62 18 21 16 47 24 78 25 37 1 53 7 78 32 18 17 49 34 69 39 39 9 56 33
68 92 6 28 4 31 -18 31 -40 0 -57 20 -60 75 -3 58 -17 64 -37 18 -16 -35 -35
-43 -45 -18 -8 22 -26 18 -57 -11 -28 -27 -49 -25 -48 4 0 10 21 27 52 42 67
33 74 62 23 87 -35 16 -37 16 -67 -6 -16 -12 -45 -25 -63 -28 -27 -4 -37 0
-55 23 -28 36 -37 72 -22 95 30 50 2 62 -60 27 -36 -20 -42 -20 -93 -8 -30 7
-68 10 -85 7 -41 -9 -61 1 -61 28 0 22 3 23 68 22 l67 -2 3 34 c2 22 14 44 33
62 17 16 29 37 29 52 0 24 1 25 88 24 53 -1 96 4 110 12 22 12 23 14 7 31 -9
10 -30 22 -45 25 -66 14 -62 59 4 53 60 -7 86 5 86 41 0 40 34 48 64 16 26
-28 66 -45 107 -45 40 0 36 18 -6 26 -19 3 -35 11 -35 16 0 19 24 54 67 98 64
66 59 73 -41 65 -77 -7 -86 -5 -105 14 -12 12 -21 28 -21 36 0 8 -5 26 -12 40
-9 21 -18 25 -53 25 -38 0 -44 4 -73 45 -31 44 -52 51 -52 19 0 -8 5 -23 12
-33 22 -36 -48 -151 -93 -151 -11 0 -20 10 -24 31 -7 29 -9 31 -43 24 -21 -4
-38 -11 -40 -16 -2 -5 -14 -9 -27 -9 -17 0 -24 7 -28 30 -7 33 -29 39 -53 15
-23 -23 -43 -18 -50 13 -12 56 -16 62 -35 62 -11 0 -30 -11 -43 -25 -30 -32
-35 -31 -47 5 -14 38 -49 42 -49 5 0 -21 -5 -25 -28 -25 -21 0 -32 7 -40 25
-17 37 -15 55 7 55 18 0 19 6 16 68 -3 37 -5 70 -5 75 0 16 -16 4 -38 -29z"/>
<path d="M3230 6999 c-14 -6 -40 -24 -58 -42 -30 -29 -36 -31 -97 -29 -55 2
-66 0 -72 -15 -8 -21 -33 -42 -50 -43 -6 0 -31 15 -55 33 -24 19 -57 36 -74
40 -36 7 -129 -16 -150 -38 -21 -20 -40 -19 -80 6 -42 26 -54 19 -54 -34 -1
-55 -23 -115 -49 -133 -11 -8 -34 -35 -51 -59 -21 -31 -46 -51 -87 -70 -87
-41 -95 -44 -138 -58 -30 -10 -45 -23 -59 -51 -10 -20 -30 -45 -44 -54 -40
-26 -71 -64 -72 -89 -1 -61 -47 -124 -118 -158 -34 -16 -68 -39 -75 -49 -12
-16 -32 -21 -108 -26 -52 -4 -107 -12 -122 -19 -16 -6 -50 -11 -76 -11 -62 0
-109 -23 -117 -58 -8 -33 -42 -72 -63 -72 -22 0 -98 -53 -132 -91 -27 -30 -49
-71 -90 -167 -10 -23 -25 -45 -34 -48 -8 -4 -45 2 -82 12 -53 14 -68 15 -71 5
-2 -7 -17 -24 -33 -38 -15 -14 -35 -40 -44 -59 -13 -28 -23 -35 -56 -40 -23
-4 -54 -18 -69 -31 -16 -13 -45 -30 -67 -39 -57 -24 -83 -52 -83 -91 0 -21 6
-36 15 -39 11 -5 15 -21 15 -60 0 -48 -3 -56 -25 -66 -31 -14 -65 -66 -65 -99
0 -13 -15 -46 -33 -73 -67 -102 -77 -127 -77 -199 0 -87 -21 -134 -68 -154
-19 -8 -39 -18 -46 -24 -6 -5 -30 -22 -52 -38 -58 -41 -94 -116 -94 -197 0
-46 -5 -68 -20 -87 -11 -14 -29 -46 -39 -71 -20 -45 -26 -49 -91 -59 -22 -4
-21 -4 5 -6 19 -1 40 -12 59 -31 l28 -30 -10 -133 -10 -132 38 -35 37 -35 7
-153 c6 -125 4 -156 -7 -165 -21 -18 -48 -65 -39 -70 4 -3 21 -8 39 -11 28 -6
32 -12 38 -49 3 -23 9 -56 12 -73 6 -36 107 -164 129 -164 16 0 54 -57 54 -81
0 -9 -7 -22 -15 -29 -24 -20 -18 -77 11 -115 23 -31 25 -40 18 -87 -4 -29 -6
-68 -5 -87 2 -27 -3 -38 -25 -56 -34 -27 -25 -45 25 -45 44 0 61 -14 61 -52 0
-24 4 -28 30 -28 20 0 30 -5 30 -15 0 -8 16 -19 40 -25 73 -20 61 -50 -21 -50
-28 0 -51 -6 -59 -15 -13 -16 -6 -35 14 -35 7 0 25 -9 39 -20 14 -11 32 -20
40 -20 9 0 18 -13 22 -30 4 -17 15 -36 26 -43 24 -15 27 -107 5 -130 -26 -26
-56 -182 -34 -175 7 3 14 14 16 26 2 12 8 22 13 22 5 0 9 9 9 20 0 11 4 20 9
20 5 0 17 7 26 16 23 24 43 2 47 -53 4 -54 26 -75 58 -55 24 15 56 9 127 -24
40 -19 54 -31 59 -52 4 -15 15 -38 26 -51 22 -29 24 -74 3 -91 -23 -19 -18
-58 14 -105 15 -23 31 -63 35 -90 7 -43 5 -50 -19 -76 -24 -24 -28 -36 -27
-91 0 -35 3 -81 7 -103 5 -34 3 -44 -14 -59 -24 -22 -26 -37 -7 -89 16 -46 40
-77 61 -77 22 0 19 -18 -4 -25 -46 -14 -101 -9 -129 12 -30 22 -43 26 -74 24
-24 -1 -22 -15 6 -46 14 -14 28 -45 31 -68 4 -23 15 -51 25 -62 10 -11 23 -33
29 -48 14 -36 14 -147 1 -147 -5 0 -10 -9 -10 -20 0 -11 -11 -30 -24 -41 -25
-22 -25 -49 0 -49 8 0 20 -11 26 -25 6 -14 17 -25 23 -25 7 0 15 -9 18 -20 3
-11 10 -20 16 -20 6 0 11 9 11 20 0 12 7 20 16 20 9 0 18 9 21 20 6 22 12 23
125 20 l76 -2 21 47 c11 26 44 68 72 95 60 56 63 86 12 110 -20 9 -33 24 -36
40 -2 14 -8 33 -12 43 -6 14 -2 17 28 17 28 0 36 4 41 23 6 24 50 52 67 42 5
-4 9 -17 9 -31 0 -13 13 -43 30 -65 20 -29 28 -49 24 -64 -8 -30 22 -75 50
-75 11 0 34 -7 50 -15 37 -20 36 -20 36 21 0 27 7 43 30 64 24 22 30 36 30 69
0 23 4 41 8 41 4 0 16 23 27 50 17 43 23 50 46 50 28 0 89 45 89 66 0 7 -7 14
-15 18 -8 3 -15 12 -15 20 0 8 -7 19 -16 24 -15 8 -15 12 1 46 14 29 16 51 11
107 -6 65 -5 70 19 91 30 26 32 52 5 96 -11 18 -20 36 -20 40 0 16 60 42 98
42 29 0 49 7 71 26 45 37 66 29 63 -24 l-4 -42 36 0 c19 0 38 5 41 10 3 6 17
10 31 10 27 0 34 -33 9 -47 -21 -12 -8 -52 19 -57 11 -3 46 -7 77 -10 65 -7
88 5 104 55 24 70 86 75 154 14 61 -55 95 -42 68 26 -8 18 -12 40 -9 48 6 19
64 70 79 71 7 0 17 10 24 22 16 31 60 69 91 80 14 5 31 22 38 38 11 26 15 28
70 28 67 0 97 13 102 44 2 16 18 28 63 45 32 13 74 23 91 23 18 0 39 7 47 15
8 8 36 20 61 27 52 14 56 26 35 115 -19 79 -26 91 -59 98 -19 4 -34 15 -40 30
-5 12 -25 31 -46 42 -46 24 -50 33 -25 64 l19 23 56 -17 c31 -10 56 -22 56
-28 0 -5 13 -9 29 -9 25 0 30 4 36 37 6 32 3 40 -14 52 -41 27 -14 61 48 61
16 0 33 5 36 10 3 6 17 10 30 10 17 0 28 10 42 38 10 20 30 43 44 49 47 23 55
40 30 67 -25 27 -22 61 10 95 25 26 33 26 68 0 41 -30 53 -18 35 33 -8 23 -19
45 -25 48 -15 10 1 40 22 40 10 0 22 8 28 18 15 26 29 5 38 -58 6 -42 13 -56
27 -58 16 -4 18 0 12 31 -5 26 -3 36 9 41 26 10 17 54 -21 96 l-36 40 90 0
c69 0 94 4 106 16 22 22 20 37 -14 91 -16 26 -30 58 -30 71 0 23 3 24 40 18
37 -6 42 -3 79 36 35 37 41 49 41 88 0 66 20 90 77 90 l46 0 -6 44 c-8 58 7
71 86 71 51 1 62 4 75 23 21 32 74 30 106 -4 24 -26 24 -26 35 -6 6 11 11 50
11 86 0 53 3 66 18 71 9 3 26 25 38 48 14 29 29 45 50 51 73 21 74 23 74 70 0
38 6 51 39 86 29 31 48 43 78 47 35 5 41 2 46 -16 7 -29 37 -27 37 2 0 33 -38
107 -54 107 -13 0 -26 20 -26 42 0 11 141 6 178 -7 39 -13 25 17 -37 83 l-60
62 6 68 c5 66 5 69 -27 105 -27 31 -30 40 -20 52 7 8 20 15 29 15 26 0 41 21
41 57 0 31 2 33 36 33 31 0 35 3 32 22 -2 16 -15 27 -45 38 -64 24 -68 30 -54
97 6 31 23 80 38 108 14 27 29 64 32 80 7 29 8 30 74 33 l66 3 7 34 c12 64 -2
103 -46 125 -22 11 -45 20 -53 20 -24 0 -47 35 -47 71 1 48 17 113 29 117 19
6 12 31 -14 48 -14 9 -25 25 -25 35 0 11 -4 19 -9 19 -5 0 -16 3 -25 6 -11 4
-16 1 -16 -11 0 -9 -9 -28 -20 -42 -11 -14 -20 -32 -20 -39 0 -22 -18 -16 -36
11 -10 16 -14 36 -11 57 30 185 31 198 8 240 -17 32 -21 57 -21 123 0 46 -4
87 -10 90 -5 3 -10 19 -10 35 0 19 -9 35 -26 49 -45 35 -54 28 -37 -30 l15
-51 -33 -34 c-19 -19 -47 -42 -63 -50 -26 -13 -31 -12 -47 2 -10 9 -21 29 -24
46 -4 16 -17 34 -28 39 -26 12 -47 52 -47 90 0 17 -16 43 -48 78 -26 28 -51
51 -55 51 -16 0 -56 56 -57 77 0 12 -6 28 -14 35 -39 40 -20 83 39 91 23 3 31
9 33 29 2 20 8 25 22 21 34 -9 110 7 110 23 0 8 -6 14 -13 14 -7 0 -21 28 -32
63 l-20 62 -110 6 c-102 5 -163 19 -234 53 -31 14 -55 62 -80 160 -23 87 -59
137 -124 176 -40 23 -61 23 -192 4 -32 -4 -52 0 -95 22 -34 17 -77 29 -112 32
-47 4 -60 9 -73 28 -12 19 -24 24 -58 23 -23 0 -53 -5 -67 -10z"/>
<path d="M4288 6996 c-10 -7 -18 -17 -18 -21 0 -4 -17 -25 -37 -46 -35 -36
-68 -113 -57 -131 11 -18 33 -5 103 62 67 65 72 72 69 107 -3 42 -28 54 -60
29z"/>
<path d="M9614 6865 c-13 -32 6 -66 44 -82 20 -8 46 -26 58 -38 26 -28 94 -45
94 -23 0 7 -9 21 -20 31 -11 9 -20 23 -20 32 0 8 -11 22 -25 31 -14 9 -25 24
-25 34 0 21 -19 30 -66 30 -22 0 -37 -6 -40 -15z"/>
<path d="M6946 5035 c-3 -11 -6 -37 -6 -57 0 -29 6 -41 25 -54 20 -13 25 -24
25 -60 0 -41 2 -45 42 -65 40 -20 42 -20 55 -3 7 10 13 30 13 44 0 14 5 31 12
38 17 17 10 97 -13 136 -19 33 -23 34 -84 38 -57 3 -65 1 -69 -17z"/>
<path d="M7066 4472 c-2 -4 -5 -41 -5 -82 1 -41 -3 -92 -7 -112 -7 -41 6 -68
35 -68 9 0 24 -9 34 -20 20 -24 69 -26 91 -4 25 24 22 135 -4 159 -11 10 -20
31 -20 47 0 21 -5 28 -20 28 -10 0 -33 14 -50 30 -31 31 -45 36 -54 22z"/>
<path d="M1185 300 c-3 -5 -21 -10 -39 -10 -20 0 -40 -8 -51 -20 -10 -11 -24
-20 -32 -20 -7 0 -13 -4 -13 -10 0 -5 -6 -10 -12 -10 -7 0 -38 -13 -68 -28
l-55 -28 -6 -69 c-3 -39 -10 -78 -14 -87 -6 -15 -2 -18 19 -18 20 0 27 6 32
28 4 15 16 35 26 46 17 15 22 16 29 5 5 -8 9 -20 9 -26 0 -12 32 -18 75 -14
10 1 32 -3 47 -8 26 -9 28 -8 28 17 0 18 11 37 31 55 39 34 37 70 -3 75 -33 4
-38 31 -8 39 26 7 52 49 45 73 -7 21 -30 27 -40 10z"/>
</g>
</svg>
