<?xml version="1.0" standalone="no"?>
<!DOCTYPE svg PUBLIC "-//W3C//DTD SVG 20010904//EN"
 "http://www.w3.org/TR/2001/REC-SVG-20010904/DTD/svg10.dtd">
<svg version="1.0" xmlns="http://www.w3.org/2000/svg"
 width="1022.000000pt" height="1024.000000pt" viewBox="0 0 1022.000000 1024.000000"
 preserveAspectRatio="xMidYMid meet">
<metadata>
Created by potrace 1.16, written by Peter Selinger 2001-2019
</metadata>
<g transform="translate(0.000000,1024.000000) scale(0.100000,-0.100000)"
fill="#000000" stroke="none">
<path d="M3635 6889 c-98 -22 -181 -42 -184 -45 -3 -3 20 -56 51 -118 l57
-114 -47 -68 -47 -69 -74 -3 -75 -3 -75 -64 c-81 -69 -90 -72 -171 -54 -49 10
-53 9 -108 -23 l-57 -34 -14 -79 c-8 -44 -10 -81 -5 -82 5 -2 35 -18 68 -36
l58 -32 173 -334 174 -334 7 -88 c3 -47 9 -91 13 -96 3 -5 43 -38 89 -72 l82
-63 90 -185 90 -185 -9 -127 -9 -126 60 -126 61 -127 81 -44 81 -44 55 -161
55 -161 128 -122 c117 -112 127 -125 127 -158 0 -38 57 -137 105 -182 l25 -23
35 19 c32 17 35 22 36 69 1 27 1 61 1 74 -2 35 25 61 62 61 17 0 119 -14 226
-30 l195 -30 203 33 204 32 49 -27 50 -26 49 20 c47 20 49 22 61 76 6 33 20
63 33 74 11 11 85 55 164 99 l144 80 286 18 287 18 150 67 c83 37 222 99 310
138 88 38 165 75 171 82 6 6 25 67 43 136 17 69 42 164 55 212 22 80 23 88 8
110 -9 13 -19 25 -22 28 -3 3 -27 32 -53 66 l-48 61 -122 6 c-67 4 -182 10
-255 13 l-134 7 -136 181 -137 180 -94 20 -94 19 -98 151 c-95 144 -99 153
-99 206 0 53 -2 57 -157 288 -87 128 -161 236 -165 238 -4 3 -34 9 -65 14 -48
8 -64 16 -94 48 l-36 38 -289 38 c-159 21 -296 42 -305 47 -8 4 -124 95 -257
201 l-242 194 -269 137 c-173 88 -279 137 -297 136 -16 -1 -110 -19 -209 -40z"/>
</g>
</svg>
