<?xml version="1.0" standalone="no"?>
<!DOCTYPE svg PUBLIC "-//W3C//DTD SVG 20010904//EN"
 "http://www.w3.org/TR/2001/REC-SVG-20010904/DTD/svg10.dtd">
<svg version="1.0" xmlns="http://www.w3.org/2000/svg"
 width="1024.000000pt" height="756.000000pt" viewBox="0 0 1024.000000 756.000000"
 preserveAspectRatio="xMidYMid meet">
<metadata>
Created by potrace 1.16, written by Peter Selinger 2001-2019
</metadata>
<g transform="translate(0.000000,756.000000) scale(0.100000,-0.100000)"
fill="#000000" stroke="none">
<path d="M4165 7524 c-8 -20 -15 -43 -15 -51 0 -27 -30 -25 -65 6 -20 17 -40
31 -45 31 -4 0 -16 3 -24 6 -20 8 -58 -72 -54 -113 3 -28 2 -28 -92 -45 -52
-10 -158 -30 -234 -44 l-139 -26 -22 28 c-13 16 -31 39 -42 52 l-18 24 -46
-41 c-26 -22 -52 -54 -59 -72 -13 -31 -14 -31 -64 -25 -28 4 -65 9 -83 12 -29
6 -33 3 -46 -29 -32 -76 -95 -84 -276 -37 -113 30 -185 38 -195 22 -5 -9 -81
-27 -158 -37 l-47 -6 -42 63 c-23 35 -43 64 -44 66 -5 6 -301 -81 -312 -92 -6
-6 -33 -96 -58 -201 -26 -104 -59 -215 -74 -245 -25 -53 -29 -56 -88 -75 l-63
-19 0 -79 c0 -65 -4 -85 -24 -120 -17 -29 -36 -99 -61 -219 -19 -98 -49 -220
-66 -270 -91 -276 -379 -747 -694 -1136 -150 -185 -210 -261 -265 -337 -63
-87 -133 -123 -459 -240 -95 -34 -177 -69 -182 -76 -14 -23 -10 -62 11 -96 16
-27 113 -103 131 -103 3 0 14 18 24 41 33 72 98 86 221 48 60 -19 77 -30 139
-93 48 -49 85 -100 120 -164 74 -137 96 -164 177 -221 72 -50 108 -96 108
-140 0 -39 31 -118 61 -151 128 -145 199 -291 214 -442 7 -63 9 -67 27 -57 27
14 28 10 15 -39 -13 -49 -2 -115 35 -208 l23 -59 69 -3 c65 -3 68 -4 61 -25
-4 -12 -9 -56 -12 -97 l-5 -75 38 -20 c21 -11 60 -37 87 -58 104 -83 27 -77
979 -77 l847 0 12 21 c6 12 24 60 40 107 36 107 49 126 102 154 37 19 58 22
184 22 l141 1 60 42 c33 23 79 50 101 59 40 16 43 15 111 -10 38 -14 105 -30
150 -35 44 -6 88 -15 98 -20 28 -15 67 -61 115 -136 24 -38 63 -87 85 -109 38
-36 43 -38 83 -31 24 4 67 16 98 26 30 11 82 19 117 19 l63 0 48 -87 c39 -70
59 -95 108 -131 91 -68 156 -95 229 -94 78 0 129 18 213 76 93 63 168 88 279
94 114 5 163 -13 220 -83 21 -27 53 -65 71 -85 30 -34 32 -40 22 -73 -22 -82
-82 -120 -209 -132 -147 -13 -231 -43 -304 -109 l-40 -36 -126 0 c-149 0 -218
15 -303 67 -127 77 -257 123 -349 123 -39 0 -69 11 -156 56 -170 90 -196 102
-269 125 -136 44 -257 116 -302 181 -13 18 -37 43 -52 56 l-29 23 -44 -31
c-62 -45 -99 -94 -176 -233 -37 -67 -79 -130 -94 -141 -45 -34 -131 -28 -242
17 -50 20 -95 37 -100 37 -5 0 -21 -10 -34 -22 -72 -64 -61 -61 -147 -48 -62
10 -106 10 -210 -1 l-133 -13 0 -148 0 -148 -719 0 -719 0 -39 -52 c-52 -70
-63 -91 -63 -125 0 -16 -14 -110 -30 -209 -60 -355 -62 -508 -7 -627 l25 -55
-28 -24 c-33 -29 -53 -94 -44 -142 5 -31 35 -96 90 -196 10 -19 20 -37 21 -38
1 -2 26 1 55 8 29 6 154 16 278 20 273 10 304 19 462 120 72 47 98 55 243 70
129 15 201 9 353 -25 209 -47 333 -43 514 16 125 41 302 129 371 186 144 118
192 152 240 169 50 18 109 19 1337 22 1334 3 1426 1 1615 -39 78 -16 151 -22
325 -26 177 -4 230 -8 249 -20 25 -16 25 -11 4 -170 -4 -35 -2 -43 19 -57 30
-20 132 -46 179 -46 34 0 37 3 54 48 21 54 33 72 49 72 7 0 39 -21 72 -46 79
-62 191 -117 291 -144 46 -12 109 -38 140 -57 66 -40 94 -39 155 4 49 34 62
28 168 -73 l80 -76 107 37 c124 42 276 105 326 135 33 19 37 20 93 5 73 -19
105 -19 151 0 53 23 107 19 166 -12 72 -38 151 -36 327 10 188 49 199 50 335
28 66 -11 123 -17 126 -13 4 4 16 51 27 104 l19 97 -64 22 c-69 23 -68 21 -42
85 11 27 10 41 -9 101 -12 38 -22 72 -22 76 0 4 23 21 50 38 28 17 50 34 50
37 0 4 -9 34 -19 67 -11 34 -21 99 -23 145 l-3 84 45 11 c40 10 45 14 48 41 6
62 -51 150 -73 114 -14 -23 -35 -9 -35 23 -1 54 -33 109 -98 165 -66 57 -83
89 -107 206 -11 57 -21 76 -53 110 -22 23 -54 65 -72 94 -18 29 -45 59 -61 67
-28 15 -141 45 -169 45 -9 0 -31 -25 -49 -55 -18 -30 -44 -66 -57 -80 l-24
-26 -28 21 c-43 34 -52 59 -46 120 8 75 -10 115 -81 176 -137 117 -155 137
-195 217 -22 43 -40 87 -40 96 0 20 36 55 103 100 26 18 55 44 64 58 21 32 43
132 43 200 0 51 -1 53 -45 79 -71 41 -78 71 -49 186 20 75 22 207 6 265 -16
56 -69 124 -112 145 -28 14 -40 30 -61 80 l-26 63 -69 15 -69 15 -7 50 c-3 28
-7 80 -7 116 -1 58 2 68 25 90 25 23 64 92 78 136 6 18 -5 35 -56 88 -35 36
-89 92 -120 125 -60 63 -195 157 -265 185 -41 16 -41 17 -48 78 -4 34 -15 81
-26 103 -20 43 -23 45 -171 113 -36 17 -80 47 -96 66 -25 28 -41 36 -94 45
-136 24 -163 44 -179 138 l-11 61 -66 3 c-72 3 -89 17 -42 35 34 13 37 31 18
95 -14 47 -54 84 -107 98 -38 10 -38 11 -44 68 -2 31 -17 88 -32 126 l-28 68
-46 -6 c-25 -4 -67 -9 -93 -13 l-46 -5 -6 43 c-3 24 -7 64 -9 88 l-2 44 -117
32 c-65 17 -121 35 -125 39 -4 3 6 31 22 60 l29 54 -71 75 c-60 63 -73 83 -82
126 -6 29 -11 60 -11 69 0 21 -53 134 -82 175 -18 25 -22 43 -21 94 l2 63 -71
45 c-47 31 -79 45 -97 43 -16 -2 -25 2 -24 9 2 7 7 31 12 54 11 48 28 48 -152
0 -65 -17 -140 -31 -167 -31 l-48 0 -7 58 c-4 31 -9 60 -12 64 -5 9 -71 -23
-159 -76 -32 -20 -62 -36 -66 -36 -3 0 -14 23 -23 51 -21 63 -90 139 -126 139
-21 0 -27 8 -38 45 -11 39 -11 50 3 86 9 22 14 44 11 49 -3 5 -31 14 -63 21
-31 7 -63 17 -70 22 -8 6 -56 62 -108 124 -116 138 -196 206 -235 201 -25 -4
-28 -1 -34 34 -7 38 -8 39 -38 33 -18 -4 -40 -9 -49 -11 -15 -4 -18 1 -18 30
0 23 -7 42 -22 56 -21 19 -31 20 -177 15 -86 -3 -186 -8 -222 -10 -48 -4 -79
0 -120 14 -45 16 -63 18 -99 10 -30 -7 -73 -6 -138 2 -74 9 -109 9 -163 -1
l-69 -12 -40 32 c-22 17 -40 35 -40 38 0 4 -12 15 -25 25 -24 18 -25 18 -40
-19z m-2641 -6946 c-3 -7 -22 -26 -42 -42 l-37 -30 40 42 c42 45 48 49 39 30z
m207 -40 c43 -23 77 -43 75 -46 -4 -4 -87 37 -139 68 -57 35 -17 21 64 -22z"/>
</g>
</svg>
