<?xml version="1.0" standalone="no"?>
<!DOCTYPE svg PUBLIC "-//W3C//DTD SVG 20010904//EN"
 "http://www.w3.org/TR/2001/REC-SVG-20010904/DTD/svg10.dtd">
<svg version="1.0" xmlns="http://www.w3.org/2000/svg"
 width="484.000000pt" height="620.000000pt" viewBox="0 0 484.000000 620.000000"
 preserveAspectRatio="xMidYMid meet">
<metadata>
Created by potrace 1.16, written by Peter Selinger 2001-2019
</metadata>
<g transform="translate(0.000000,620.000000) scale(0.100000,-0.100000)"
fill="#000000" stroke="none">
<path d="M1267 6034 c-63 -39 -78 -39 -127 3 -28 23 -35 25 -95 18 -73 -7
-130 -39 -130 -71 -1 -32 -103 -144 -132 -144 -35 0 -62 -17 -73 -46 -9 -22
-15 -24 -75 -24 -60 0 -66 2 -77 25 -17 38 -41 27 -59 -30 -13 -37 -23 -51
-43 -58 -24 -8 -31 -18 -27 -39 0 -5 -16 -8 -37 -8 -20 0 -61 -11 -90 -25
l-53 -24 21 -40 c11 -22 20 -54 20 -71 0 -16 9 -39 19 -49 11 -11 25 -39 31
-62 7 -24 25 -55 43 -71 l31 -29 -27 -55 c-34 -69 -34 -99 -1 -121 24 -16 28
-16 60 2 32 17 34 17 61 0 64 -42 60 -75 -8 -75 -35 0 -39 -2 -39 -26 0 -14 8
-39 17 -55 17 -28 16 -29 -5 -49 -20 -19 -21 -50 -2 -50 5 0 50 -28 100 -61
116 -77 171 -99 255 -99 62 0 65 -1 65 -24 0 -53 -32 -75 -60 -41 -17 21 -35
19 -52 -6 -13 -20 -15 -21 -52 -5 -52 22 -56 21 -56 -13 0 -33 -20 -58 -58
-72 -17 -7 -22 -14 -17 -27 4 -9 9 -43 12 -74 4 -43 2 -64 -11 -82 -23 -36
-21 -39 25 -32 38 6 40 5 37 -16 -2 -15 -23 -36 -61 -61 -56 -37 -67 -56 -48
-86 7 -11 23 -3 77 38 67 50 88 59 98 42 3 -4 27 -6 54 -3 61 5 112 -18 112
-51 0 -13 -11 -38 -24 -55 -19 -26 -24 -45 -23 -95 0 -53 -6 -75 -41 -149 -23
-48 -47 -90 -52 -93 -6 -3 -10 -18 -10 -33 0 -18 -10 -35 -32 -53 l-31 -26 16
-42 c22 -54 21 -76 -4 -110 -19 -26 -20 -30 -5 -65 36 -87 68 -108 165 -106
42 0 56 -11 87 -71 26 -52 83 -103 105 -94 9 3 19 -6 27 -25 18 -39 94 -94
110 -78 8 8 14 4 22 -16 12 -32 5 -48 -43 -94 -33 -32 -39 -33 -110 -34 -64
-1 -84 4 -141 30 -36 17 -68 28 -70 24 -10 -16 26 -72 93 -146 39 -43 74 -90
78 -104 3 -15 30 -49 60 -76 64 -58 69 -66 78 -128 6 -38 4 -48 -6 -48 -9 0
-14 -11 -14 -31 0 -28 -5 -34 -35 -44 -31 -11 -37 -10 -57 8 -20 18 -29 19
-80 11 -57 -9 -58 -10 -61 -44 -1 -19 -8 -45 -14 -57 -20 -40 39 -100 154
-156 38 -19 88 -61 169 -145 63 -66 125 -124 136 -131 12 -6 40 -11 61 -11 35
0 43 -4 60 -35 24 -40 52 -49 123 -43 49 5 49 5 107 -54 59 -61 138 -108 181
-108 15 -1 62 -20 106 -43 79 -41 80 -43 83 -83 3 -38 0 -43 -31 -62 -23 -13
-37 -30 -42 -50 -3 -16 -15 -38 -26 -48 -17 -16 -28 -16 -102 -7 -86 12 -107
7 -107 -27 0 -9 20 -36 45 -59 l45 -42 -20 -37 c-21 -39 -26 -102 -10 -131 5
-10 23 -24 39 -30 34 -15 105 -117 96 -139 -3 -8 2 -23 11 -33 9 -10 19 -33
23 -51 7 -31 9 -33 49 -30 32 2 57 -7 114 -37 60 -32 81 -50 117 -101 35 -49
45 -73 48 -114 3 -32 18 -76 39 -117 37 -73 42 -110 18 -130 -10 -8 -14 -22
-11 -38 3 -14 -1 -38 -9 -53 -11 -22 -12 -33 -1 -65 15 -46 42 -49 72 -6 11
15 41 48 66 73 68 67 74 83 54 137 -20 51 -16 115 9 142 9 10 36 27 59 37 56
24 152 88 204 136 61 55 68 53 126 -34 32 -49 42 -58 67 -58 33 0 38 8 59 87
8 30 26 54 62 87 l51 46 130 0 c141 0 162 6 212 59 25 26 37 31 78 31 42 0 48
3 54 24 l6 24 71 -24 c62 -21 78 -23 125 -14 29 5 59 9 65 7 6 -1 13 8 15 20
2 12 15 26 31 33 24 9 33 8 62 -9 31 -19 40 -19 84 -8 40 9 53 18 64 42 8 17
24 43 37 58 24 29 44 85 44 125 0 15 -18 36 -61 69 l-60 47 6 61 c4 33 14 83
22 112 l16 51 -31 47 -31 47 45 44 c24 24 52 44 61 44 9 0 21 8 28 17 11 15
17 16 53 4 72 -24 132 17 132 90 0 31 7 43 41 72 22 20 68 71 100 114 55 72
60 82 57 123 -3 42 -5 45 -37 51 -39 8 -76 44 -122 119 -37 60 -120 130 -154
130 -13 0 -30 8 -37 18 -7 11 -30 24 -50 31 -81 27 -120 83 -139 203 -11 65
-16 76 -50 106 -25 22 -43 49 -55 85 -9 28 -23 60 -30 71 -7 10 -11 23 -9 30
2 6 8 58 15 116 14 125 25 159 54 164 69 14 77 18 86 40 5 15 20 27 39 31 l31
7 0 72 c0 59 5 82 25 120 44 82 29 126 -42 126 -23 0 -46 10 -81 36 -2 1 -17
35 -33 75 -17 41 -37 82 -47 92 -14 16 -14 19 -2 27 8 6 27 10 43 10 28 0 39
15 51 72 8 35 37 43 77 23 37 -20 94 -13 103 12 8 19 -16 57 -47 77 -12 8 -43
17 -69 20 -39 6 -58 17 -113 67 -36 32 -72 59 -81 59 -8 0 -26 -11 -40 -25
-14 -14 -31 -25 -39 -25 -35 0 -77 -57 -120 -165 -54 -135 -65 -148 -102 -134
-43 16 -61 37 -104 120 -32 61 -47 80 -72 89 -18 7 -102 15 -187 19 l-154 6
-16 52 c-8 29 -21 58 -28 65 -8 8 -49 15 -100 18 -85 5 -87 6 -109 39 -13 19
-23 44 -23 57 0 20 7 24 48 29 98 14 155 49 133 82 -9 15 -61 39 -97 47 -27 6
-102 72 -92 81 1 1 19 9 38 17 31 13 37 22 49 69 7 30 23 64 34 77 l21 22 -39
40 c-21 21 -50 43 -64 48 -51 19 -127 33 -143 27 -28 -11 -77 23 -94 65 -18
45 -24 47 -59 24 -22 -14 -28 -15 -47 -2 -13 8 -40 20 -60 27 -20 7 -54 31
-74 54 -21 23 -51 50 -66 59 -15 10 -28 24 -28 32 0 22 -29 46 -55 46 -32 0
-39 15 -21 42 25 35 21 82 -9 98 -27 14 -30 30 -16 76 5 16 12 68 15 117 5 80
3 87 -13 87 -10 0 -21 -9 -24 -20 -8 -33 -60 -27 -91 11 -24 28 -30 42 -27 61
0 3 -25 29 -55 57 -42 39 -61 50 -78 45 -18 -4 -25 2 -42 38 -17 38 -24 44
-64 53 -60 13 -69 20 -91 71 -41 98 -141 183 -196 169 -17 -4 -32 0 -44 11
-18 16 -20 16 -38 0 -18 -17 -22 -17 -43 -2 -39 27 -97 20 -161 -20z"/>
</g>
</svg>
