<?xml version="1.0" standalone="no"?>
<!DOCTYPE svg PUBLIC "-//W3C//DTD SVG 20010904//EN"
 "http://www.w3.org/TR/2001/REC-SVG-20010904/DTD/svg10.dtd">
<svg version="1.0" xmlns="http://www.w3.org/2000/svg"
 width="1024.000000pt" height="768.000000pt" viewBox="0 0 1024.000000 768.000000"
 preserveAspectRatio="xMidYMid meet">
<metadata>
Created by potrace 1.16, written by Peter Selinger 2001-2019
</metadata>
<g transform="translate(0.000000,768.000000) scale(0.100000,-0.100000)"
fill="#000000" stroke="none">
<path d="M5102 6735 c-46 -39 -42 -65 21 -129 61 -63 103 -78 205 -74 64 3 67
4 70 30 4 34 19 46 90 72 31 11 67 28 78 36 26 19 47 57 39 70 -9 14 -81 12
-141 -4 -44 -12 -65 -11 -140 0 -184 29 -186 29 -222 -1z"/>
<path d="M4870 6522 c-9 -4 -33 -20 -53 -36 -51 -39 -112 -45 -169 -17 -57 27
-69 26 -98 -4 -16 -17 -34 -25 -56 -25 -78 0 -77 -106 3 -221 29 -42 37 -66
43 -117 6 -58 10 -68 41 -93 31 -26 33 -30 21 -50 -12 -18 -12 -23 0 -31 62
-42 130 -57 273 -61 99 -3 115 -6 163 -32 29 -16 71 -48 92 -72 37 -39 40 -47
40 -100 0 -46 6 -69 29 -109 57 -99 124 -135 279 -149 94 -9 125 -31 173 -119
21 -38 44 -73 52 -78 21 -11 63 6 105 44 45 39 86 56 180 74 84 16 102 26 102
59 0 28 -32 55 -157 135 -106 68 -128 95 -120 146 13 82 60 138 128 153 57 13
93 -4 157 -75 75 -81 108 -90 176 -50 72 42 74 90 6 131 -18 11 -50 36 -70 55
-31 29 -39 45 -45 90 -6 42 -14 61 -37 82 -44 41 -84 37 -185 -17 -64 -35 -93
-45 -129 -45 -55 0 -75 10 -136 66 -25 24 -59 46 -75 50 -37 9 -56 26 -95 86
-30 49 -32 50 -70 44 -21 -3 -67 -20 -102 -38 -61 -30 -92 -33 -121 -11 -6 5
-54 63 -108 131 -161 202 -188 225 -237 204z"/>
<path d="M7915 5890 c-79 -52 -84 -101 -20 -182 55 -70 97 -104 166 -134 103
-44 123 -29 95 73 -32 120 -58 177 -101 221 -49 48 -90 55 -140 22z"/>
<path d="M4141 5890 c-45 -11 -62 -30 -68 -77 -7 -51 14 -73 68 -73 36 0 41 3
55 35 19 47 19 111 -2 119 -9 3 -16 6 -17 5 -1 -1 -17 -5 -36 -9z"/>
<path d="M8761 5619 c-30 -33 -46 -103 -33 -147 16 -53 57 -94 90 -90 35 4 50
36 58 125 l7 70 -46 32 c-25 17 -48 31 -51 31 -3 0 -14 -9 -25 -21z"/>
<path d="M3816 5457 c-16 -13 -26 -29 -23 -35 10 -15 135 -55 152 -48 21 8 18
49 -6 80 -27 34 -82 36 -123 3z"/>
<path d="M7458 5353 c-43 -5 -88 -45 -88 -79 0 -33 -42 -123 -76 -163 -25 -30
-29 -43 -28 -90 1 -46 10 -76 56 -171 30 -63 68 -151 83 -195 35 -98 40 -105
76 -105 34 0 107 62 147 125 14 21 58 71 98 109 69 65 74 73 74 111 0 31 -7
50 -26 71 -42 48 -66 104 -71 168 -7 77 -18 98 -85 162 -56 54 -85 65 -160 57z"/>
<path d="M1470 5258 c-69 -19 -85 -54 -69 -148 21 -120 58 -160 146 -160 47 0
59 4 83 29 16 16 32 41 36 56 13 53 -42 187 -90 216 -34 21 -54 22 -106 7z"/>
<path d="M3132 4997 c-26 -31 -43 -146 -63 -425 -15 -208 -26 -307 -36 -330
-22 -46 -59 -62 -143 -62 -72 0 -105 -11 -162 -53 -23 -17 -49 -22 -150 -27
-131 -6 -129 -5 -199 -59 -25 -20 -67 -48 -92 -63 -52 -31 -75 -67 -84 -135
-9 -70 -24 -83 -129 -112 -23 -6 -45 -18 -48 -27 -10 -25 29 -79 87 -121 72
-53 123 -53 201 1 64 44 95 44 153 0 43 -33 42 -61 -2 -104 -26 -25 -33 -40
-29 -54 9 -31 53 -94 71 -100 21 -8 93 26 122 58 31 34 38 33 62 -8 10 -18 40
-46 65 -62 29 -19 62 -54 91 -97 25 -37 58 -74 76 -83 39 -21 165 -43 243 -44
125 0 184 -60 184 -186 0 -68 2 -74 37 -116 20 -23 51 -75 69 -114 43 -93 72
-104 159 -62 55 27 74 19 94 -39 13 -37 12 -46 -14 -130 l-28 -91 21 -34 c12
-19 46 -57 77 -85 63 -58 71 -93 31 -136 -32 -34 -86 -43 -166 -28 -131 26
-134 26 -173 -9 -24 -21 -40 -47 -47 -73 -6 -23 -18 -59 -26 -80 -32 -84 -4
-258 44 -265 27 -4 65 24 104 77 37 51 68 58 127 29 l46 -23 -3 -68 -3 -68 62
-60 62 -59 -7 -55 c-5 -48 -4 -55 16 -69 12 -9 30 -16 38 -16 27 0 58 -42 70
-95 23 -100 23 -100 60 -105 26 -4 38 -12 48 -33 8 -16 29 -35 48 -43 39 -17
54 -40 54 -88 0 -19 4 -38 10 -41 15 -9 60 19 112 69 26 25 55 46 65 46 10 0
36 -11 58 -25 49 -30 96 -32 120 -5 14 16 17 30 12 69 -9 80 -39 125 -122 186
-41 31 -79 64 -85 75 -16 31 -12 105 11 166 26 69 19 102 -44 209 -35 60 -40
78 -40 125 1 55 21 138 43 179 13 25 72 57 123 66 28 5 42 15 53 37 18 36 12
57 -26 91 -38 34 -45 81 -44 282 1 147 3 165 26 220 14 33 32 80 41 105 9 25
33 70 53 100 69 104 88 166 64 211 -14 25 -34 24 -69 -2 -26 -19 -31 -20 -57
-6 -16 9 -69 55 -119 103 l-90 87 -87 1 c-71 1 -92 5 -115 22 -38 27 -63 80
-63 130 0 45 -10 54 -57 54 -19 0 -42 17 -82 59 -44 47 -66 62 -103 71 -64 16
-83 40 -83 102 0 40 -5 53 -24 69 -13 10 -32 19 -42 19 -24 0 -43 44 -34 78 8
33 -17 68 -54 75 -48 10 -58 43 -37 120 9 34 30 86 47 114 37 67 38 117 4 163
-45 61 -28 126 53 204 85 81 90 121 26 197 -19 23 -47 64 -60 91 -35 69 -59
81 -168 84 -61 2 -111 10 -150 23 -70 25 -70 25 -84 8z"/>
<path d="M4193 4430 c-13 -5 -23 -15 -23 -22 0 -8 -22 -45 -50 -83 -57 -80
-62 -109 -24 -154 39 -47 75 -42 159 23 52 41 62 53 86 105 25 55 21 89 -11
112 -30 22 -106 32 -137 19z"/>
<path d="M4265 4033 c-14 -21 -25 -50 -25 -65 0 -22 7 -29 36 -38 46 -15 84
-6 84 21 0 25 -47 119 -60 119 -5 0 -21 -17 -35 -37z"/>
<path d="M4033 3904 c-22 -34 -22 -88 1 -113 21 -23 147 -91 170 -91 21 0 36
39 36 91 0 54 -14 76 -52 84 -18 4 -53 18 -77 31 -54 30 -57 30 -78 -2z"/>
<path d="M1950 3428 c-31 -50 -25 -80 21 -103 39 -21 128 -20 136 1 6 17 -102
134 -124 134 -7 0 -22 -15 -33 -32z"/>
<path d="M2478 3252 c-16 -9 -28 -24 -28 -33 0 -19 54 -69 75 -69 34 0 57 77
30 103 -21 21 -43 21 -77 -1z"/>
</g>
</svg>
