<?xml version="1.0" standalone="no"?>
<!DOCTYPE svg PUBLIC "-//W3C//DTD SVG 20010904//EN"
 "http://www.w3.org/TR/2001/REC-SVG-20010904/DTD/svg10.dtd">
<svg version="1.0" xmlns="http://www.w3.org/2000/svg"
 width="1024.000000pt" height="1024.000000pt" viewBox="0 0 1024.000000 1024.000000"
 preserveAspectRatio="xMidYMid meet">
<metadata>
Created by potrace 1.16, written by Peter Selinger 2001-2019
</metadata>
<g transform="translate(0.000000,1024.000000) scale(0.100000,-0.100000)"
fill="#000000" stroke="none">
<path d="M5520 9749 c-30 -5 -187 -11 -349 -13 -336 -4 -314 2 -354 -101 -20
-51 -28 -61 -58 -72 -59 -20 -301 -92 -369 -109 -36 -9 -100 -30 -143 -47
l-78 -30 -27 21 c-39 32 -230 121 -281 133 -51 11 -72 8 -200 -32 -51 -16
-147 -39 -212 -50 -141 -23 -158 -29 -224 -76 -27 -20 -79 -49 -115 -64 -128
-55 -168 -111 -178 -252 -6 -88 0 -78 -125 -217 -75 -83 -97 -126 -97 -191 0
-67 -15 -96 -106 -204 -93 -112 -104 -131 -149 -286 -21 -68 -44 -134 -52
-147 -7 -12 -42 -36 -75 -52 -100 -49 -138 -95 -138 -169 0 -36 -6 -44 -62
-95 -62 -55 -64 -56 -125 -56 -43 0 -76 -7 -113 -24 -36 -17 -63 -23 -86 -19
-46 8 -78 -2 -117 -37 -66 -57 -87 -100 -103 -206 -18 -118 -48 -222 -77 -266
-12 -17 -45 -43 -73 -58 -28 -14 -74 -42 -101 -62 -75 -54 -80 -54 -157 -3
-38 25 -84 49 -103 54 -55 16 -161 -14 -308 -84 -71 -34 -148 -69 -170 -77
-57 -20 -65 -49 -31 -123 14 -31 26 -71 27 -89 4 -90 20 -106 144 -146 101
-33 211 -93 278 -151 31 -28 57 -55 57 -60 0 -14 -42 -10 -70 6 -33 19 -74 19
-90 0 -7 -8 -36 -22 -66 -32 -95 -30 -98 -37 -102 -239 -4 -168 -3 -178 29
-301 37 -150 105 -291 174 -368 25 -27 57 -65 72 -82 31 -40 70 -44 100 -10
12 12 38 61 58 110 42 98 47 100 120 65 45 -22 47 -22 94 -5 57 20 210 23 244
5 21 -11 21 -11 2 -19 -11 -4 -58 -8 -106 -8 -76 -1 -90 -4 -131 -30 -25 -16
-49 -34 -52 -40 -4 -6 -40 -36 -81 -66 -41 -31 -94 -79 -118 -107 l-45 -52
-53 47 c-90 79 -120 89 -251 85 -132 -4 -166 -19 -186 -85 -15 -50 0 -228 22
-269 15 -29 115 -134 218 -230 30 -28 73 -79 97 -115 l43 -64 -6 -132 c-6
-126 -5 -134 15 -154 18 -18 29 -21 70 -16 62 8 92 24 159 86 61 57 121 96
162 106 41 10 88 -24 149 -108 29 -40 73 -94 98 -122 56 -64 99 -154 116 -247
8 -40 27 -111 43 -158 52 -151 54 -140 -29 -180 -91 -44 -129 -79 -129 -118 0
-34 24 -61 102 -115 29 -21 84 -71 121 -112 44 -48 88 -85 126 -105 32 -17 67
-44 79 -59 25 -34 187 -171 245 -208 60 -38 134 -58 277 -77 198 -25 203 -25
267 34 64 58 86 65 47 15 -22 -30 -25 -41 -20 -77 9 -59 23 -81 79 -123 59
-45 137 -148 137 -182 0 -40 16 -59 67 -78 68 -25 70 -31 27 -53 -53 -27 -77
-56 -110 -132 -27 -64 -35 -133 -20 -176 6 -16 0 -26 -33 -49 -23 -15 -44 -25
-47 -22 -3 3 1 51 9 106 13 89 19 105 47 138 l33 37 -7 92 c-12 175 -67 258
-189 288 -16 4 -50 27 -76 51 -55 52 -86 65 -149 65 -61 -1 -120 -14 -207 -48
-67 -25 -79 -27 -255 -27 -161 0 -196 -4 -271 -24 -114 -30 -145 -50 -159
-100 -13 -50 -2 -80 46 -119 60 -50 132 -79 265 -107 184 -38 230 -52 377
-105 114 -41 142 -56 186 -97 29 -26 66 -56 84 -65 29 -15 32 -22 32 -63 0
-57 12 -80 50 -100 38 -19 71 -19 114 2 32 15 37 15 60 0 14 -10 32 -17 39
-17 15 0 134 -36 332 -100 66 -21 149 -44 184 -50 65 -12 139 -44 241 -105 31
-19 91 -45 134 -59 43 -14 126 -44 185 -66 58 -21 156 -53 216 -71 116 -33
169 -56 223 -97 36 -27 215 -98 395 -156 88 -29 131 -49 168 -78 28 -22 99
-61 157 -87 172 -77 321 -174 398 -258 32 -36 50 -47 88 -54 33 -6 61 -20 87
-43 27 -25 63 -43 124 -61 48 -15 105 -35 128 -46 53 -23 105 -24 137 -1 32
22 230 220 252 252 12 17 18 44 18 87 0 60 1 63 33 79 64 33 67 39 67 137 0
76 3 94 19 111 11 12 30 41 43 66 28 53 91 100 226 166 82 40 97 52 127 97 18
29 59 79 90 112 30 33 86 97 123 143 44 54 88 96 128 121 33 22 99 81 147 133
94 103 154 143 262 173 33 10 80 29 105 43 110 63 206 132 220 156 7 15 38 47
68 71 30 25 70 66 90 92 19 27 67 82 106 123 39 41 105 120 147 176 84 110
118 134 191 134 79 0 75 -21 82 403 4 208 9 392 13 408 4 23 18 39 54 60 38
24 54 43 84 101 20 40 46 79 58 87 34 25 106 41 183 41 38 0 121 7 183 15 99
13 118 19 151 45 65 51 168 169 175 199 3 16 -1 56 -9 89 -9 33 -16 96 -16
139 0 69 3 85 25 114 47 65 49 77 26 156 -25 86 -26 104 -6 206 24 123 21 163
-15 198 -29 30 -31 30 -126 28 -165 -3 -200 -20 -280 -131 -27 -38 -79 -96
-115 -128 -40 -36 -95 -101 -137 -163 -74 -108 -130 -167 -160 -167 -10 0 -33
11 -51 24 -44 33 -183 69 -239 63 -24 -3 -57 -14 -73 -26 -52 -38 -31 -7 47
69 94 93 104 112 104 195 0 78 21 190 56 297 23 70 32 84 89 135 57 53 73 61
166 90 57 18 121 35 141 38 50 8 61 31 56 119 -3 60 -8 78 -35 117 -18 25 -35
59 -39 75 -13 53 -46 108 -118 192 -133 156 -145 173 -162 228 -17 52 -17 57
0 104 18 49 18 75 1 171 -5 23 -1 54 10 85 9 27 19 70 22 96 11 90 -62 185
-192 249 -57 28 -70 30 -141 27 l-79 -3 -3 45 c-2 25 -1 77 3 116 l6 72 40 6
c27 4 54 19 81 45 47 44 53 75 23 140 -14 33 -15 45 -6 72 17 49 13 90 -12
131 -39 64 -242 273 -290 298 -45 24 -47 24 -81 7 l-36 -17 0 26 c0 34 -14 59
-66 117 -53 60 -64 100 -35 131 38 41 24 89 -36 120 -28 14 -32 20 -27 46 10
46 -3 75 -43 102 -23 16 -54 53 -78 94 -40 68 -98 133 -148 167 -16 11 -27 27
-27 40 0 13 -12 41 -27 64 -100 148 -141 212 -153 243 -49 124 -142 200 -320
264 -41 15 -78 33 -82 39 -4 7 -8 39 -8 73 0 54 -7 75 -55 173 -30 61 -60 112
-67 113 -7 2 -227 3 -488 3 -261 0 -569 3 -685 7 -124 4 -232 3 -265 -3z"/>
</g>
</svg>
