<?xml version="1.0" standalone="no"?>
<!DOCTYPE svg PUBLIC "-//W3C//DTD SVG 20010904//EN"
 "http://www.w3.org/TR/2001/REC-SVG-20010904/DTD/svg10.dtd">
<svg version="1.0" xmlns="http://www.w3.org/2000/svg"
 width="781.000000pt" height="517.000000pt" viewBox="0 0 781.000000 517.000000"
 preserveAspectRatio="xMidYMid meet">
<metadata>
Created by potrace 1.16, written by Peter Selinger 2001-2019
</metadata>
<g transform="translate(0.000000,517.000000) scale(0.100000,-0.100000)"
fill="#000000" stroke="none">
<path d="M3185 5052 c-16 -2 -44 -15 -62 -28 -18 -13 -47 -27 -65 -31 -19 -3
-58 -28 -93 -58 -33 -28 -79 -64 -102 -80 -24 -15 -43 -31 -43 -35 0 -4 -19
-15 -42 -25 -24 -9 -52 -25 -63 -35 -28 -24 -63 -42 -93 -45 -14 -1 -35 -14
-47 -28 -21 -27 -80 -112 -94 -135 -5 -9 -35 -15 -87 -17 -43 -1 -86 -6 -95
-9 -10 -4 -35 3 -61 18 -41 23 -47 24 -67 10 -27 -19 -27 -26 6 -76 41 -66 46
-103 18 -144 -13 -19 -37 -47 -54 -63 -17 -16 -31 -38 -31 -50 0 -13 -12 -26
-32 -37 -18 -9 -54 -39 -80 -66 -52 -54 -59 -82 -31 -124 65 -100 84 -145 73
-180 -8 -29 -8 -29 -9 -3 -1 27 -54 138 -74 154 -6 6 -12 17 -12 25 0 8 -8 14
-17 14 -12 -1 -18 5 -18 21 0 44 -57 62 -132 42 -21 -6 -28 -4 -28 7 0 9 -10
24 -22 36 -28 26 -4 26 29 0 15 -12 41 -20 63 -20 22 0 48 8 63 20 14 11 35
20 47 20 26 0 128 94 136 127 4 12 10 20 16 17 5 -3 18 3 29 15 16 17 17 24 7
41 -7 11 -16 20 -19 20 -4 0 -5 9 -2 21 3 12 0 25 -7 29 -9 6 -9 12 0 30 6 12
9 33 6 46 -4 13 -2 33 4 44 14 26 -18 91 -60 122 -16 12 -32 30 -36 40 -3 10
-24 28 -47 40 -37 18 -52 20 -137 14 -116 -7 -196 -42 -276 -120 -129 -127
-163 -154 -201 -160 -37 -6 -111 -34 -165 -62 -14 -8 -33 -14 -42 -14 -25 0
-79 -67 -93 -114 -7 -23 -19 -63 -27 -91 -26 -90 -34 -105 -58 -105 -13 0 -27
-4 -33 -8 -25 -18 -55 -74 -55 -102 0 -17 -7 -42 -16 -55 -15 -23 -15 -28 -1
-56 10 -21 12 -42 7 -65 -8 -35 -53 -119 -70 -129 -6 -3 -10 -17 -10 -31 0
-13 -4 -24 -9 -24 -5 0 -11 -8 -15 -17 -3 -10 -9 -24 -12 -30 -4 -8 2 -13 15
-13 16 0 23 8 27 30 9 43 29 56 59 40 19 -10 34 -10 67 -2 39 11 86 16 114 13
22 -2 24 -55 3 -83 -24 -34 -24 -50 1 -73 21 -19 28 -79 11 -90 -12 -7 -31 26
-31 53 0 10 -8 26 -18 35 -14 13 -31 14 -107 8 -97 -9 -112 -7 -135 22 -20 24
-63 15 -84 -18 -20 -31 -11 -55 25 -62 23 -4 27 -9 19 -22 -6 -12 -4 -27 6
-46 8 -15 13 -29 12 -30 -2 -1 -32 -8 -67 -15 -55 -12 -65 -17 -74 -41 -6 -15
-19 -30 -29 -32 -10 -3 -20 -12 -24 -20 -8 -23 50 -105 113 -159 49 -41 60
-56 68 -96 9 -39 14 -47 33 -46 34 1 20 -21 -16 -24 -35 -4 -60 26 -44 55 13
22 3 53 -17 54 -38 2 -57 9 -76 31 -11 13 -37 34 -57 48 -20 14 -40 35 -43 48
-5 22 -9 23 -48 17 -55 -9 -59 -15 -45 -53 10 -25 10 -39 0 -66 -10 -27 -10
-39 -1 -54 9 -15 7 -31 -10 -80 -11 -34 -21 -68 -21 -76 0 -7 -13 -40 -30 -72
-16 -32 -30 -67 -30 -76 0 -17 -22 -79 -59 -162 -36 -83 -50 -122 -55 -156 -4
-19 -20 -51 -36 -72 -45 -55 -41 -93 15 -148 l44 -43 198 -12 c109 -6 205 -8
214 -3 37 17 30 97 -9 99 -9 0 -37 11 -62 24 -25 13 -56 29 -70 34 -61 26 -64
37 -34 119 13 34 19 40 29 32 18 -15 83 -2 87 17 2 9 40 -23 101 -86 54 -56
102 -99 106 -96 5 2 11 -4 14 -15 3 -11 12 -20 21 -20 9 0 16 -4 16 -10 0 -5
12 -10 26 -10 16 0 35 -11 51 -30 13 -16 31 -30 39 -30 7 0 29 16 48 35 25 24
44 35 65 35 21 0 32 6 36 20 7 23 -9 49 -73 114 -20 21 -21 27 -11 52 11 28
12 28 18 6 3 -12 26 -45 50 -73 39 -46 47 -50 75 -45 17 4 36 12 41 20 13 17
183 27 207 12 24 -15 68 8 81 43 10 27 11 27 29 9 21 -21 97 -25 116 -6 7 7
12 25 12 40 0 15 5 28 10 28 6 0 10 -15 10 -33 0 -37 15 -57 42 -57 11 0 33
-7 50 -16 31 -16 32 -16 50 6 11 13 16 31 13 41 -8 24 -3 24 37 -1 18 -11 41
-20 51 -20 27 0 21 47 -9 75 -24 23 -25 25 -10 47 9 12 16 32 16 43 0 22 29
69 30 48 0 -6 -5 -15 -10 -18 -15 -10 -12 -101 4 -114 8 -7 17 -27 20 -46 8
-43 23 -51 108 -59 36 -3 112 -21 167 -40 115 -38 169 -37 186 2 12 27 20 28
46 3 17 -16 18 -19 4 -31 -39 -33 -10 -84 81 -141 43 -28 64 -47 64 -60 0 -13
-4 -18 -11 -13 -7 4 -25 7 -40 6 -18 0 -29 4 -29 13 0 22 -20 28 -46 15 -20
-11 -27 -11 -42 3 -24 22 -46 22 -38 1 3 -9 6 -17 6 -20 0 -8 58 -32 108 -44
60 -14 68 -21 50 -49 -11 -18 -10 -24 9 -42 l21 -22 46 38 c26 21 50 45 55 53
7 12 12 12 39 -2 17 -9 34 -21 37 -26 4 -6 39 -27 78 -46 40 -20 79 -42 87
-49 25 -22 112 -65 120 -60 5 3 29 -13 55 -35 47 -41 95 -54 95 -25 0 10 10
15 29 15 21 0 28 -5 27 -17 -1 -13 7 -19 27 -21 22 -3 27 1 27 17 0 12 -5 21
-12 21 -6 0 -8 3 -5 6 4 4 12 2 19 -4 46 -37 92 -53 133 -46 39 5 43 4 39 -12
-2 -11 5 -34 16 -51 15 -26 27 -33 50 -33 18 0 29 -4 25 -10 -11 -17 -42 -11
-72 14 -38 31 -95 49 -168 52 -33 2 -78 4 -99 6 -22 2 -41 -2 -43 -8 -2 -6 24
-31 58 -55 34 -24 79 -59 99 -76 21 -18 42 -33 47 -33 20 0 61 -40 77 -75 10
-20 25 -39 34 -42 9 -4 23 -15 30 -25 7 -10 19 -18 26 -18 7 0 21 -9 31 -20
24 -27 39 -25 59 5 15 23 18 24 32 10 22 -22 30 -19 56 18 12 17 35 43 50 55
16 13 28 28 28 34 0 5 9 21 20 35 23 30 25 52 7 77 -11 15 -18 16 -59 6 -26
-7 -49 -18 -52 -26 -8 -20 -34 -17 -45 5 -6 10 -25 25 -43 34 -27 14 -29 17
-11 17 12 0 28 -7 37 -15 19 -20 66 -20 66 0 0 9 -9 15 -22 15 -32 0 -10 18
27 22 48 5 44 35 -16 96 -47 48 -54 52 -97 52 -30 0 -42 3 -34 9 8 4 38 7 68
6 47 -1 60 -6 92 -36 38 -36 49 -47 56 -64 3 -5 13 1 24 15 l20 24 19 -23 c14
-17 25 -22 41 -17 21 7 22 13 22 108 l0 101 23 -19 c12 -11 39 -28 59 -38 36
-18 37 -18 65 3 15 12 56 42 91 67 58 43 67 57 62 94 -3 22 -57 69 -100 86
-51 20 -67 64 -24 64 12 0 14 14 12 74 l-3 74 43 41 c23 22 46 41 51 41 7 0
20 -32 21 -51 0 -9 -48 -29 -70 -29 -32 0 -33 -35 -2 -109 30 -70 90 -154 119
-165 9 -4 32 6 56 24 23 16 45 30 49 30 5 0 36 20 70 45 34 25 67 45 73 45 6
0 22 11 34 24 12 13 36 26 52 30 16 3 49 15 73 26 25 11 53 20 63 20 10 0 27
7 37 15 11 8 33 15 48 15 16 0 46 9 66 19 49 25 158 56 252 72 41 6 94 20 117
31 23 10 51 18 61 18 11 0 39 11 63 24 41 23 87 34 169 40 20 2 48 11 63 20
15 10 44 20 64 21 21 2 74 13 117 25 62 17 85 19 104 11 16 -8 29 -8 42 -1 10
5 32 10 48 10 23 0 32 -6 41 -27 16 -38 59 -58 81 -38 22 20 37 19 108 -10 34
-14 73 -25 87 -25 30 0 75 21 124 59 28 21 43 25 90 23 90 -3 108 -10 114 -40
4 -19 17 -33 43 -46 36 -16 39 -17 50 -1 16 22 7 45 -17 45 -19 0 -31 21 -45
77 -6 24 -5 25 19 21 15 -3 28 0 30 6 2 6 8 8 12 4 4 -4 2 -15 -5 -24 -12 -13
-9 -19 19 -41 19 -15 40 -41 47 -60 8 -18 21 -33 30 -33 12 0 15 10 13 49 -2
27 2 55 8 63 19 25 22 47 7 58 -8 7 -14 25 -14 39 0 58 -10 61 -173 51 -82 -5
-154 -13 -160 -18 -11 -9 -97 -22 -182 -27 -16 -1 -38 -5 -48 -10 -25 -10 -62
22 -46 41 17 20 4 40 -36 60 -25 12 -35 22 -32 33 26 87 137 361 147 361 4 0
13 19 20 43 8 23 19 51 26 62 7 11 15 31 19 45 4 14 14 33 22 42 9 10 16 38
17 65 0 28 7 53 15 59 12 9 9 17 -20 46 -37 37 -99 182 -99 231 0 32 -24 46
-51 29 -14 -9 -31 -7 -76 9 -42 15 -89 21 -171 24 -124 3 -113 8 -176 -79 -26
-36 -56 -52 -66 -36 -18 29 -46 -4 -41 -46 2 -16 -88 -26 -129 -14 -19 5 -50
10 -68 10 -20 0 -56 14 -95 38 -147 91 -152 96 -171 171 -9 39 -16 47 -49 60
-47 18 -100 3 -164 -46 -46 -35 -50 -30 -28 32 17 47 10 61 -70 142 l-52 51 3
91 c2 77 0 91 -14 95 -22 7 -86 -8 -115 -27 -12 -8 -35 -16 -52 -19 -16 -3
-37 -8 -46 -12 -11 -5 -19 1 -26 17 -7 14 -43 42 -85 66 -40 22 -84 49 -98 59
-69 51 -112 74 -148 79 -33 4 -48 0 -86 -26 -25 -18 -46 -38 -46 -46 0 -26 -4
-30 -50 -45 -39 -13 -48 -22 -70 -66 -31 -63 -67 -113 -100 -139 -14 -11 -38
-33 -55 -49 -16 -15 -49 -41 -72 -57 -23 -16 -45 -38 -48 -49 -5 -15 -12 -19
-30 -14 -18 5 -26 0 -37 -23 -9 -20 -22 -29 -44 -31 -30 -3 -31 -1 -38 44 -4
30 -2 52 6 61 18 22 -4 35 -46 28 -20 -4 -43 -17 -51 -28 -18 -26 -19 -18 -3
20 20 45 37 54 93 47 28 -3 65 -12 84 -20 18 -8 42 -14 53 -14 36 0 96 58 129
125 17 35 40 72 51 82 11 10 31 41 44 68 14 28 40 72 59 100 24 34 33 56 29
69 -10 31 -77 116 -91 116 -8 0 -13 12 -13 30 0 17 -7 45 -16 62 -16 30 -17
30 -77 25 -34 -3 -49 -2 -32 1 38 9 62 54 46 88 -5 13 -28 32 -50 43 -48 25
-128 79 -136 91 -3 5 -24 14 -45 20 -22 6 -40 15 -40 20 0 5 -13 16 -30 25
-16 9 -30 23 -30 33 0 10 -5 23 -12 30 -23 23 -47 13 -68 -28 -21 -42 -50 -54
-50 -21 0 38 -47 56 -150 56 -52 0 -108 -1 -125 -3z"/>
<path d="M7167 4411 c-16 -20 -24 -21 -96 -15 l-79 7 -41 -43 -40 -42 -73 3
-73 4 1 -50 c1 -27 3 -63 5 -79 6 -42 -28 -45 -39 -4 -5 21 -20 37 -47 52 -22
11 -44 27 -48 34 -11 17 -37 15 -37 -3 0 -9 -9 -34 -21 -57 -24 -47 -17 -76
26 -104 35 -23 114 -29 121 -10 6 15 8 14 53 -11 2 -1 -4 -14 -13 -27 -9 -14
-16 -31 -16 -39 0 -16 41 -57 58 -57 7 0 12 -4 12 -9 0 -5 13 -14 29 -19 22
-8 33 -22 46 -59 10 -26 26 -55 35 -63 9 -8 32 -36 50 -62 18 -27 37 -48 42
-48 4 0 8 -7 8 -15 0 -8 5 -15 10 -15 6 0 10 -4 10 -10 0 -5 9 -20 20 -32 10
-13 25 -31 33 -41 12 -17 17 -18 56 -6 29 9 47 21 57 41 14 28 77 63 159 88
22 7 50 20 63 28 20 13 27 13 60 0 33 -12 41 -12 72 3 31 15 36 24 52 85 10
38 22 94 28 124 6 30 18 69 27 87 15 29 15 33 -1 58 -14 21 -15 29 -6 35 10 6
10 15 0 45 -15 46 -54 91 -138 157 -64 51 -68 53 -161 65 -197 27 -184 27
-204 4z"/>
<path d="M5248 4363 c-21 -2 -38 -8 -38 -14 0 -5 -9 -9 -20 -9 -11 0 -20 -5
-20 -11 0 -5 -13 -15 -30 -20 -16 -6 -30 -17 -30 -25 0 -23 34 -83 48 -84 6 0
12 -4 12 -10 0 -5 9 -10 20 -10 12 0 34 -9 49 -21 16 -11 39 -19 51 -17 16 2
34 -8 56 -29 20 -21 42 -33 58 -33 15 0 36 -9 48 -20 l22 -20 -27 0 c-15 0
-27 -5 -27 -11 0 -6 31 -43 70 -83 52 -53 72 -68 81 -59 8 8 -2 24 -42 64 -40
39 -50 53 -38 56 9 2 21 14 27 26 11 22 11 22 12 -3 0 -16 17 -42 45 -69 25
-25 45 -51 45 -59 0 -10 9 -13 33 -9 17 4 48 9 67 12 103 17 159 41 171 72 13
34 54 46 112 35 26 -5 50 -5 53 -1 3 5 18 9 33 9 77 0 112 25 81 56 -8 8 -8
19 0 38 15 39 13 53 -11 77 -19 19 -31 20 -122 19 -56 -2 -118 1 -137 5 -49
10 -112 9 -205 -2 -88 -11 -112 -8 -117 14 -3 16 -164 88 -221 98 -21 4 -44
16 -50 26 -7 11 -14 18 -17 17 -3 -1 -22 -3 -42 -5z"/>
<path d="M4940 4158 c0 -6 17 -28 38 -48 55 -54 86 -93 93 -115 4 -14 13 -19
29 -17 14 1 34 -8 51 -24 l27 -26 12 22 c10 19 6 27 -42 75 -29 30 -61 65 -71
79 -10 14 -26 26 -36 26 -10 0 -26 9 -36 20 -19 22 -65 27 -65 8z"/>
<path d="M6648 3332 c-15 -15 -37 -53 -49 -85 -19 -51 -39 -67 -39 -33 0 8 -7
20 -16 27 -14 11 -18 10 -30 -6 -27 -36 -27 -5 -1 44 33 60 34 71 2 71 -14 0
-25 -6 -25 -14 0 -7 -9 -25 -21 -40 -30 -38 -41 -84 -23 -94 18 -10 10 -54
-12 -73 -8 -6 -14 -20 -14 -29 0 -10 -6 -31 -14 -47 -7 -15 -22 -46 -32 -68
-10 -22 -23 -43 -27 -46 -5 -4 -4 -15 1 -26 6 -11 7 -24 3 -29 -18 -18 -22
-69 -8 -88 19 -26 47 -14 47 19 0 14 6 25 13 25 13 1 47 62 47 85 0 8 4 15 9
15 5 0 17 20 27 45 14 39 18 43 29 29 8 -12 14 -13 19 -6 4 6 13 9 21 6 8 -4
18 1 21 10 8 21 72 21 102 0 28 -19 52 -12 52 17 0 12 11 30 25 41 20 16 25
28 25 67 0 26 -4 51 -9 57 -6 5 1 9 19 10 25 1 29 -3 32 -30 2 -23 8 -31 23
-31 11 0 26 -4 32 -8 9 -5 17 1 25 17 6 14 15 26 20 26 20 0 2 44 -24 59 -15
9 -59 35 -98 59 -93 56 -117 60 -152 24z"/>
<path d="M1350 2175 c-9 -24 -14 -26 -45 -21 -32 6 -39 3 -80 -39 -44 -46 -56
-77 -34 -90 5 -4 14 -18 19 -31 14 -35 40 -42 61 -16 9 12 24 22 33 22 18 0
36 30 36 61 0 13 11 34 24 48 31 33 38 84 14 89 -12 2 -21 -6 -28 -23z"/>
<path d="M1557 2171 l-28 -29 20 -38 c12 -21 24 -60 27 -87 7 -53 24 -70 82
-82 21 -4 38 -2 48 6 13 10 23 5 61 -35 26 -25 57 -49 69 -52 12 -3 25 -12 28
-20 3 -8 18 -14 34 -14 15 0 57 -11 93 -25 l64 -26 38 40 c20 22 37 49 37 59
0 18 -75 87 -96 87 -12 0 -66 41 -95 71 -20 21 -22 21 -60 6 -39 -15 -40 -15
-67 11 -16 15 -36 27 -45 27 -10 0 -17 8 -17 18 0 25 -63 92 -88 92 -11 0 -24
5 -27 10 -12 19 -50 9 -78 -19z"/>
<path d="M1433 2047 c-10 -13 -26 -26 -37 -30 -18 -7 -18 -18 -2 -57 3 -8 2
-21 -3 -29 -8 -12 -12 -13 -26 -1 -21 17 -61 0 -76 -34 -22 -47 -66 -34 -60
17 4 26 -23 52 -69 67 -47 16 -70 3 -70 -39 0 -22 8 -31 38 -44 21 -9 46 -17
55 -17 17 0 20 -12 21 -90 1 -24 6 -35 16 -35 8 0 21 -8 28 -17 7 -9 25 -23
42 -31 25 -13 31 -13 41 -1 22 26 29 14 29 -49 0 -40 5 -70 15 -83 8 -10 15
-29 15 -41 0 -31 16 -37 84 -36 50 2 64 7 104 38 51 40 56 41 96 20 41 -22 52
-7 35 49 -12 42 -17 47 -59 59 -40 11 -47 17 -60 56 -14 40 -14 43 5 57 18 14
22 12 53 -26 19 -22 40 -40 48 -40 7 0 36 -13 62 -30 62 -38 81 -38 119 3 61
64 56 111 -12 121 -25 4 -47 11 -50 17 -4 5 -14 9 -24 9 -9 0 -34 18 -56 40
-34 35 -44 39 -94 42 -55 3 -56 3 -78 48 -28 56 -75 110 -96 110 -8 0 -24 -10
-34 -23z"/>
<path d="M2264 1340 c-6 -6 -33 -12 -62 -13 -60 -4 -71 -11 -55 -37 10 -15 8
-21 -12 -34 -32 -21 -31 -39 2 -66 33 -26 87 -22 139 11 29 18 32 23 31 72 0
66 -18 92 -43 67z"/>
<path d="M2435 1329 c-16 -17 -17 -24 -7 -51 15 -40 10 -46 -12 -13 -30 46
-76 26 -76 -34 0 -59 65 -131 136 -150 32 -9 127 12 132 29 6 17 18 11 29 -13
13 -28 98 -54 119 -36 22 18 8 47 -50 109 -29 30 -58 64 -66 76 -24 33 -133
104 -161 104 -14 0 -34 -9 -44 -21z"/>
<path d="M3985 1190 c-13 -15 -22 -17 -36 -10 -12 7 -20 7 -24 0 -3 -5 -14
-10 -25 -10 -23 0 -35 -29 -15 -36 8 -4 15 -14 15 -24 0 -29 23 -75 59 -115
26 -31 37 -36 50 -28 9 5 17 25 19 42 3 26 7 31 20 26 35 -14 47 -10 47 15 0
17 -6 26 -20 29 -11 2 -25 10 -31 19 -11 14 -14 14 -37 -1 -22 -14 -27 -14
-37 -2 -7 8 -19 15 -26 15 -16 0 -17 9 -4 30 8 13 13 13 31 2 19 -12 24 -11
41 6 14 13 18 26 13 41 -8 26 -17 26 -40 1z"/>
<path d="M2410 946 c-10 -20 -10 -29 -1 -39 8 -11 9 -22 1 -41 -15 -42 -12
-143 6 -178 9 -16 13 -40 10 -52 -8 -31 75 -114 92 -93 9 11 5 20 -18 42 -37
36 -37 49 -2 80 35 32 50 31 98 -5 21 -16 45 -30 52 -30 20 0 14 -55 -9 -75
-13 -13 -36 -19 -67 -20 -55 0 -64 -21 -20 -43 23 -11 33 -10 63 2 44 19 82
61 89 101 5 24 16 35 49 50 l42 20 3 77 c2 56 -2 86 -13 108 -15 28 -18 30
-58 24 -23 -4 -61 -15 -85 -26 -41 -18 -71 -17 -97 2 -5 4 -22 10 -36 14 -15
3 -29 14 -33 23 -8 23 -31 62 -43 74 -6 6 -14 0 -23 -15z"/>
<path d="M1800 898 c-23 -9 -40 -13 -78 -17 -7 0 -30 -18 -52 -38 -21 -21 -51
-48 -67 -60 -25 -19 -26 -23 -13 -36 21 -20 132 -38 225 -37 44 1 89 0 100 0
11 -1 41 2 68 6 35 5 47 11 47 23 0 18 -44 65 -70 74 -9 3 -10 6 -2 6 6 1 12
12 12 26 0 20 -5 25 -24 25 -14 0 -28 -4 -31 -10 -12 -20 -37 -9 -48 20 -12
32 -26 35 -67 18z"/>
<path d="M2950 841 c-18 -44 -4 -88 33 -107 18 -9 39 -22 47 -29 25 -21 81
-23 94 -2 15 23 -9 67 -46 85 -15 7 -36 28 -48 47 -28 45 -62 47 -80 6z"/>
<path d="M1840 531 c0 -44 -10 -52 -56 -45 -40 6 -44 4 -44 -14 0 -12 5 -24
10 -27 6 -3 10 -19 10 -34 0 -15 6 -36 14 -47 12 -16 18 -17 33 -7 30 21 84
43 105 43 13 0 24 11 31 30 7 18 19 30 30 30 33 0 32 31 -1 62 -26 23 -42 28
-82 28 -43 0 -50 -3 -50 -19z"/>
<path d="M1965 290 c-35 -13 -50 -37 -35 -55 7 -8 19 -15 26 -15 8 0 14 -8 14
-18 0 -36 44 -64 101 -66 51 -1 53 0 60 29 3 17 14 44 23 60 15 28 15 31 -1
43 -16 11 -32 14 -90 16 -11 1 -25 4 -29 9 -9 9 -43 8 -69 -3z"/>
</g>
</svg>
