<?xml version="1.0" standalone="no"?>
<!DOCTYPE svg PUBLIC "-//W3C//DTD SVG 20010904//EN"
 "http://www.w3.org/TR/2001/REC-SVG-20010904/DTD/svg10.dtd">
<svg version="1.0" xmlns="http://www.w3.org/2000/svg"
 width="1024.000000pt" height="768.000000pt" viewBox="0 0 1024.000000 768.000000"
 preserveAspectRatio="xMidYMid meet">
<metadata>
Created by potrace 1.16, written by Peter Selinger 2001-2019
</metadata>
<g transform="translate(0.000000,768.000000) scale(0.100000,-0.100000)"
fill="#000000" stroke="none">
<path d="M4698 6212 c-24 -21 -63 -59 -88 -84 -26 -26 -59 -49 -75 -53 -87
-18 -116 -30 -144 -57 -33 -32 -51 -81 -51 -139 0 -24 -10 -49 -32 -78 -35
-48 -28 -47 -181 -25 -40 6 -53 3 -77 -15 -42 -30 -50 -27 -50 24 0 24 -7 62
-16 84 -12 30 -13 44 -5 60 20 36 13 78 -15 100 -33 26 -99 44 -133 37 -14 -3
-61 -13 -103 -20 -42 -8 -88 -22 -101 -31 -22 -14 -27 -14 -68 5 -51 23 -86
25 -140 8 -33 -9 -44 -8 -72 7 -67 35 -141 -16 -171 -117 -19 -67 -70 -120
-137 -144 -65 -24 -89 -54 -89 -110 0 -68 -40 -96 -229 -154 -99 -30 -107 -35
-163 -93 -67 -70 -75 -93 -59 -148 11 -35 9 -42 -10 -68 -25 -34 -48 -140 -49
-224 0 -55 -2 -60 -44 -102 l-44 -45 -93 0 c-74 0 -99 -4 -116 -18 -38 -30
-72 -93 -79 -144 -9 -63 -24 -78 -82 -78 -74 0 -117 -17 -174 -69 -63 -57 -80
-67 -144 -81 -29 -7 -61 -23 -79 -39 -61 -58 -104 -64 -200 -30 -51 18 -65 19
-100 9 -40 -11 -46 -10 -122 29 -108 54 -192 81 -253 81 -45 0 -55 -4 -103
-47 -30 -27 -72 -73 -95 -103 -22 -30 -68 -84 -101 -120 -67 -72 -151 -228
-197 -364 -24 -72 -26 -89 -20 -167 l7 -88 -62 -68 c-115 -126 -111 -118 -120
-260 -8 -130 -6 -147 31 -188 10 -11 33 -47 50 -80 18 -33 38 -71 46 -85 8
-14 14 -47 14 -75 0 -28 9 -69 20 -93 11 -24 24 -60 30 -81 11 -43 56 -92 116
-127 l42 -25 7 -114 c4 -62 12 -121 19 -130 11 -16 84 -36 196 -54 40 -7 71
-18 86 -32 12 -11 40 -23 63 -26 65 -9 176 -122 378 -386 18 -23 40 -52 50
-65 14 -17 33 -24 78 -30 l59 -7 56 -73 c30 -41 69 -81 85 -90 17 -9 64 -20
105 -23 41 -4 99 -13 128 -19 45 -11 68 -10 152 4 79 14 109 16 152 7 105 -22
376 -46 513 -46 136 0 141 1 188 28 40 24 57 28 90 23 302 -40 394 -26 507 80
41 38 54 44 106 50 69 8 94 26 94 68 0 26 -13 43 -74 101 l-74 70 -6 78 c-8
88 0 107 43 107 37 0 71 39 78 89 3 22 11 45 17 50 16 12 204 34 306 35 47 0
148 -1 225 -4 131 -5 142 -4 170 16 33 23 163 44 278 44 78 0 129 18 152 53 9
14 23 62 31 107 17 99 23 112 77 148 23 17 51 39 61 51 25 28 40 27 56 -5 19
-35 60 -54 117 -54 26 0 53 -4 58 -8 6 -4 27 -33 47 -64 42 -64 61 -74 115
-59 42 12 44 11 58 -32 21 -65 103 -62 178 8 31 28 62 47 85 51 47 9 84 27
148 76 46 34 68 67 88 130 3 10 18 20 33 23 15 3 42 10 59 15 17 6 56 10 88
10 86 0 94 7 234 189 27 36 50 81 63 126 24 82 69 163 118 218 20 22 39 58 46
85 l12 47 69 16 c38 9 96 27 129 41 60 26 192 58 239 58 13 0 38 -12 56 -26
22 -19 47 -28 89 -33 46 -6 67 -14 95 -38 37 -34 90 -53 143 -53 17 0 60 -13
95 -30 34 -16 71 -30 81 -30 9 0 37 18 60 39 l43 40 75 -6 c63 -5 81 -2 115
15 22 11 46 27 53 36 15 18 152 76 181 76 28 0 81 -41 114 -89 17 -24 50 -51
85 -70 80 -42 85 -50 77 -117 -6 -51 -4 -57 22 -82 16 -15 42 -51 58 -81 29
-54 96 -121 148 -148 47 -24 153 -14 204 19 40 27 142 64 259 93 49 13 77 14
139 6 61 -7 85 -7 111 4 49 21 57 51 37 151 -16 82 -16 88 6 217 12 72 27 143
32 157 5 14 69 84 142 155 148 145 166 177 166 290 0 38 6 69 15 82 8 12 23
71 34 131 10 59 30 135 44 168 13 32 30 77 36 99 8 30 27 55 77 99 77 69 109
127 123 228 15 106 12 110 -84 124 -27 4 -69 18 -94 30 -24 13 -58 24 -76 24
-22 0 -40 9 -60 30 -30 31 -96 56 -122 46 -26 -10 -87 12 -118 42 -35 34 -67
52 -92 52 -10 0 -43 13 -73 29 -30 15 -73 34 -95 41 -60 19 -65 26 -65 92 0
72 -16 106 -72 149 -24 18 -71 57 -105 86 -34 29 -80 60 -103 68 -22 8 -51 21
-63 30 -25 18 -80 20 -110 4 -17 -10 -23 -9 -32 6 -29 51 -67 83 -112 95 -27
7 -66 24 -89 37 -58 33 -148 32 -229 -3 -91 -40 -114 -40 -187 -6 -75 36 -160
62 -200 62 -40 0 -65 -14 -120 -67 l-46 -46 -44 22 c-54 26 -81 26 -133 2 -72
-33 -84 -59 -59 -125 5 -12 -6 -21 -42 -36 -26 -11 -69 -43 -95 -70 -27 -28
-53 -50 -59 -50 -6 0 -29 17 -53 39 -48 44 -78 61 -105 61 -12 0 -61 41 -119
100 -92 93 -102 100 -139 100 -22 0 -52 -9 -69 -20 -16 -11 -43 -20 -59 -20
-17 0 -42 -12 -62 -30 -38 -33 -43 -32 -116 12 -63 39 -112 46 -139 22 -15
-14 -43 -20 -102 -25 -95 -7 -117 -24 -117 -94 l0 -42 -75 -7 c-67 -6 -81 -11
-129 -47 -29 -22 -67 -59 -83 -82 -45 -63 -93 -159 -94 -187 -1 -61 -10 -63
-68 -23 -52 36 -58 38 -135 38 -69 0 -86 -3 -114 -23 -22 -16 -48 -24 -80 -25
-47 -2 -47 -2 -50 32 -3 24 4 43 20 65 19 26 23 42 21 91 -2 33 -3 109 -3 169
l-1 109 -33 33 c-39 39 -89 46 -131 18 -23 -15 -27 -15 -49 0 -13 8 -34 33
-47 55 -13 24 -45 55 -75 76 -36 24 -56 44 -60 62 -3 16 -12 53 -19 83 -7 30
-16 74 -20 96 -7 47 -34 77 -106 118 -61 35 -80 33 -131 -12z"/>
</g>
</svg>
