<?xml version="1.0" standalone="no"?>
<!DOCTYPE svg PUBLIC "-//W3C//DTD SVG 20010904//EN"
 "http://www.w3.org/TR/2001/REC-SVG-20010904/DTD/svg10.dtd">
<svg version="1.0" xmlns="http://www.w3.org/2000/svg"
 width="644.000000pt" height="420.000000pt" viewBox="0 0 644.000000 420.000000"
 preserveAspectRatio="xMidYMid meet">
<metadata>
Created by potrace 1.16, written by Peter Selinger 2001-2019
</metadata>
<g transform="translate(0.000000,420.000000) scale(0.100000,-0.100000)"
fill="#000000" stroke="none">
<path d="M5630 4079 c-25 -5 -64 -16 -88 -25 -41 -15 -52 -15 -133 2 -19 4
-35 -3 -68 -30 -23 -20 -61 -40 -84 -46 -71 -18 -69 -14 -73 -151 -3 -135 -6
-126 61 -218 16 -22 25 -47 25 -72 0 -50 -19 -51 -71 -4 -22 19 -47 35 -57 35
-10 0 -39 15 -63 34 -46 35 -122 66 -164 66 -13 0 -58 -16 -101 -35 -85 -39
-154 -46 -204 -20 -27 14 -30 13 -69 -19 -29 -25 -53 -35 -93 -40 -70 -9 -98
-28 -98 -67 0 -41 -13 -63 -54 -88 -51 -32 -88 -28 -120 14 -43 56 -64 61
-211 54 -71 -3 -149 -12 -173 -19 -40 -12 -48 -11 -110 14 -71 28 -61 28 -246
8 -68 -8 -70 -9 -118 -62 -48 -54 -48 -54 -64 -32 -20 29 -36 28 -73 -4 -17
-14 -41 -25 -53 -24 -13 1 -31 2 -40 1 -25 -2 -94 -112 -108 -173 -25 -106
-26 -107 -153 -123 -43 -6 -51 -11 -86 -59 -57 -77 -66 -84 -129 -102 -80 -23
-92 -36 -92 -99 0 -53 -18 -84 -40 -70 -7 4 -20 26 -30 50 -10 24 -24 47 -32
51 -7 5 -41 9 -76 9 -59 0 -65 2 -90 33 -31 37 -67 42 -148 17 -59 -18 -96
-19 -111 -4 -7 7 -28 9 -55 5 -23 -3 -52 -6 -63 -6 -11 1 -50 2 -87 3 -55 2
-71 6 -92 26 -14 14 -26 33 -26 43 0 11 -17 26 -47 41 -64 32 -108 39 -153 26
-35 -11 -41 -9 -71 14 -19 14 -63 38 -98 53 -62 27 -65 27 -140 14 -101 -17
-156 -17 -214 0 -44 13 -48 13 -68 -6 -13 -13 -25 -47 -33 -95 -20 -111 -21
-112 -75 -106 -25 2 -66 0 -91 -7 -40 -10 -48 -17 -70 -61 -16 -32 -36 -56
-56 -66 -17 -8 -53 -29 -80 -46 -27 -18 -61 -35 -77 -38 -31 -8 -50 -36 -41
-59 7 -18 -54 -93 -93 -114 -30 -17 -29 -34 7 -110 17 -35 30 -79 30 -97 0
-44 18 -58 50 -40 67 38 67 38 110 21 22 -9 48 -16 56 -16 9 0 34 -16 55 -35
22 -19 49 -36 62 -37 12 -1 42 -3 66 -4 24 -1 50 -9 58 -17 13 -13 13 -20 -5
-60 -28 -62 -82 -119 -189 -199 -92 -68 -93 -68 -93 -111 0 -33 -6 -49 -25
-67 -14 -13 -25 -27 -25 -32 0 -20 76 -89 110 -99 34 -10 41 -9 76 15 43 29
71 33 99 12 16 -11 17 -22 12 -74 -5 -48 -16 -76 -53 -135 -59 -96 -65 -137
-30 -205 30 -59 49 -72 103 -72 41 0 63 -12 131 -71 24 -21 66 -45 92 -54 27
-9 60 -29 72 -44 21 -25 32 -44 88 -163 13 -28 37 -55 70 -77 53 -36 62 -56
30 -66 -11 -3 -36 -26 -56 -50 -47 -58 -87 -71 -145 -49 -103 39 -182 26 -124
-20 27 -21 28 -26 17 -50 -9 -21 -18 -26 -49 -26 -21 0 -55 -9 -74 -19 -20
-11 -52 -19 -70 -19 -32 1 -100 -20 -116 -35 -3 -4 4 -18 16 -31 15 -16 21
-31 17 -44 -9 -26 10 -71 31 -78 10 -3 46 -20 80 -36 l63 -31 61 33 c54 28 67
32 98 24 23 -6 43 -20 56 -41 21 -33 59 -56 112 -67 28 -7 36 -3 71 33 37 38
43 41 95 41 32 0 59 5 64 13 22 26 22 63 3 95 -11 18 -20 36 -20 41 0 5 21 12
46 16 39 6 50 3 80 -20 60 -46 119 -66 214 -72 l88 -6 41 44 c35 38 43 42 58
31 10 -6 25 -15 33 -18 8 -3 39 -14 68 -26 38 -14 63 -18 90 -13 55 10 198 91
275 155 4 4 12 35 18 71 14 92 17 97 56 122 25 16 42 38 57 76 23 59 44 78 71
67 14 -5 16 -14 11 -49 -4 -24 -4 -51 0 -60 3 -9 42 -40 85 -69 85 -56 100
-81 80 -125 -18 -39 -6 -63 29 -57 22 5 39 -1 72 -23 24 -17 55 -38 70 -47 15
-9 38 -38 50 -64 20 -41 27 -47 57 -50 45 -5 116 23 141 55 12 16 20 41 20 65
0 47 21 59 53 31 40 -37 104 -72 143 -78 22 -3 50 -8 63 -11 13 -3 62 -43 108
-90 l84 -85 47 6 c72 10 76 12 111 61 35 51 22 48 152 28 33 -5 39 -2 72 37
21 23 37 47 37 53 0 6 -21 25 -46 41 -25 17 -59 50 -75 75 -25 37 -29 52 -25
82 4 25 0 49 -11 74 -16 32 -16 37 -3 47 9 7 23 24 33 39 10 16 25 28 35 28
10 0 27 7 38 15 12 9 32 12 55 8 57 -8 59 20 9 98 -22 34 -40 68 -40 74 0 7
-6 18 -14 24 -11 9 -20 6 -41 -14 -36 -33 -52 -31 -99 11 l-40 34 34 35 c42
43 240 142 298 148 48 6 72 21 72 47 0 26 26 43 57 37 22 -4 36 2 65 29 46 42
69 42 133 4 59 -35 75 -37 98 -10 9 11 31 23 47 27 40 7 43 14 25 57 -22 51
-19 111 6 146 19 25 21 38 17 122 -4 76 -1 104 15 155 l21 63 -20 27 c-19 26
-91 72 -145 93 -36 15 -59 69 -59 140 0 54 3 64 34 97 19 22 36 54 40 76 12
66 90 83 182 40 55 -27 91 -1 108 77 4 19 20 32 63 52 32 15 69 36 83 48 16
12 47 23 80 26 32 4 70 16 90 29 19 13 46 26 60 30 14 4 39 20 55 35 17 16 42
32 58 35 22 6 27 13 27 37 0 16 -5 39 -11 50 -13 25 1 38 45 38 17 0 42 12 62
29 40 36 65 32 101 -16 l27 -35 67 6 c43 5 70 3 74 -3 11 -18 43 -12 59 11 24
34 19 56 -19 92 -28 26 -35 41 -35 70 0 20 -7 53 -15 73 -8 19 -15 46 -15 58
0 33 35 71 71 79 17 3 44 15 59 26 24 17 40 20 99 16 40 -2 81 -10 94 -19 13
-8 42 -21 64 -27 25 -8 61 -32 91 -61 54 -52 125 -81 146 -59 12 12 5 19 -64
63 -29 19 -36 30 -41 67 -11 86 -24 103 -191 269 -43 42 -78 82 -78 89 0 6 13
18 29 26 28 15 41 40 41 83 0 16 -11 25 -45 39 -25 9 -45 20 -45 24 0 4 -18
26 -39 48 -46 48 -65 78 -57 97 2 7 0 27 -6 43 -10 27 -9 33 15 62 27 31 37
91 19 115 -27 38 -141 100 -172 94 -3 -1 -25 -5 -50 -10z"/>
</g>
</svg>
