<?xml version="1.0" standalone="no"?>
<!DOCTYPE svg PUBLIC "-//W3C//DTD SVG 20010904//EN"
 "http://www.w3.org/TR/2001/REC-SVG-20010904/DTD/svg10.dtd">
<svg version="1.0" xmlns="http://www.w3.org/2000/svg"
 width="1024.000000pt" height="768.000000pt" viewBox="0 0 1024.000000 768.000000"
 preserveAspectRatio="xMidYMid meet">
<metadata>
Created by potrace 1.16, written by Peter Selinger 2001-2019
</metadata>
<g transform="translate(0.000000,768.000000) scale(0.100000,-0.100000)"
fill="#000000" stroke="none">
<path d="M1333 6352 c-19 -14 -21 -24 -16 -60 5 -38 14 -50 80 -108 42 -36 94
-75 118 -86 23 -11 50 -33 59 -48 14 -25 42 -61 106 -140 117 -145 136 -163
176 -181 26 -11 44 -25 44 -34 0 -12 6 -15 20 -10 24 7 48 -9 60 -40 5 -15 17
-21 46 -22 22 -1 69 -5 107 -9 56 -5 67 -9 67 -25 0 -11 9 -20 23 -23 110 -24
116 -24 133 -5 9 11 25 19 34 19 10 0 22 6 28 13 14 17 -9 63 -29 58 -8 -1
-35 -5 -61 -6 -58 -5 -131 32 -153 75 -8 16 -25 32 -37 36 -38 11 -100 66
-114 101 -8 18 -14 52 -14 76 0 38 -5 48 -48 90 -26 26 -53 47 -60 47 -7 0
-15 7 -18 15 -3 8 -23 19 -44 25 -21 6 -87 36 -145 67 -78 42 -114 67 -133 95
-27 38 -44 48 -87 53 -13 1 -35 12 -50 24 -33 25 -62 27 -92 3z"/>
<path d="M574 5978 c-21 -30 -44 -77 -44 -90 0 -34 72 -49 138 -30 37 11 42
16 42 42 0 21 -6 31 -22 36 -13 4 -40 18 -60 30 -44 28 -43 28 -54 12z"/>
<path d="M347 5706 c-21 -8 -56 -26 -77 -40 -22 -14 -44 -26 -50 -26 -7 0 -10
-24 -8 -67 l3 -68 95 -13 c107 -14 190 -5 244 26 40 23 44 54 12 103 -52 77
-143 113 -219 85z"/>
<path d="M2390 5551 c0 -6 11 -11 24 -11 14 0 31 -7 40 -15 18 -18 48 -9 44
14 -2 12 -17 17 -56 19 -32 2 -52 -1 -52 -7z"/>
<path d="M2588 5535 c-9 -21 -8 -27 6 -38 10 -7 33 -11 52 -9 27 3 34 9 34 26
0 50 -71 66 -92 21z"/>
<path d="M3365 5410 c-9 -14 2 -28 33 -44 15 -8 47 -32 70 -53 39 -35 43 -44
40 -78 -3 -41 -5 -39 94 -100 18 -11 37 -30 43 -43 5 -12 18 -22 27 -22 10 0
22 -8 27 -19 6 -10 22 -22 36 -25 14 -4 30 -17 35 -31 5 -14 27 -32 53 -44 25
-11 47 -27 51 -36 3 -8 12 -15 19 -15 8 0 22 -9 31 -19 10 -11 32 -23 49 -27
29 -6 87 -38 166 -91 19 -13 42 -23 53 -23 19 0 64 -25 83 -46 6 -6 34 -18 64
-28 30 -9 75 -29 101 -45 26 -16 64 -32 86 -35 44 -8 134 -69 134 -91 0 -8 4
-15 8 -15 5 0 32 -21 62 -46 76 -65 132 -84 96 -32 -9 12 -16 29 -16 36 0 27
-41 72 -65 72 -12 0 -26 7 -29 16 -9 23 -8 24 17 24 12 0 30 12 41 27 l19 26
-49 44 c-27 24 -69 55 -94 69 -88 49 -155 95 -190 128 -19 19 -49 41 -67 50
-17 9 -34 25 -38 36 -5 17 -15 20 -60 20 -30 0 -57 5 -60 10 -3 6 -27 20 -53
31 -26 12 -50 26 -54 32 -3 6 -30 11 -58 11 -42 1 -54 5 -69 25 -10 13 -33 29
-52 35 -20 7 -35 19 -39 33 -6 24 -39 53 -85 72 -16 8 -57 44 -90 81 -52 59
-65 68 -96 69 -20 1 -42 8 -50 17 -9 11 -22 14 -46 9 -32 -6 -109 12 -152 34
-13 7 -22 8 -26 1z"/>
<path d="M1430 5372 c-35 -11 -60 -46 -60 -82 0 -31 7 -43 40 -71 53 -45 74
-78 72 -112 -2 -21 3 -30 23 -37 16 -6 25 -17 25 -31 0 -18 8 -24 44 -32 6 -1
10 17 11 41 1 37 7 48 48 86 68 62 61 115 -15 116 -21 1 -68 30 -68 43 0 3
-14 20 -32 37 -35 35 -65 50 -88 42z"/>
<path d="M3145 5359 c-6 -17 -12 -19 -33 -14 -66 18 -74 -1 -14 -29 23 -11 44
-28 48 -38 7 -23 60 -52 81 -44 9 4 13 13 9 22 -12 31 6 35 51 8 34 -20 53
-24 78 -20 27 5 35 2 49 -19 16 -24 49 -34 60 -17 15 25 -104 102 -157 102
-14 0 -31 7 -38 16 -15 18 -92 54 -114 54 -8 0 -17 -9 -20 -21z"/>
<path d="M1911 5077 c-47 -17 -76 -59 -76 -111 0 -33 8 -53 35 -89 40 -52 64
-65 134 -69 44 -3 51 0 63 22 15 30 17 128 2 167 -5 15 -24 43 -42 61 -34 35
-59 39 -116 19z"/>
<path d="M1408 4995 c-2 -2 -3 -37 -2 -77 2 -50 9 -85 23 -113 12 -21 21 -45
21 -52 0 -22 20 -15 29 10 21 54 -43 260 -71 232z"/>
<path d="M2343 4957 c-47 -17 -123 -121 -137 -189 -6 -24 -11 -28 -41 -28 -62
0 -80 -73 -29 -121 20 -19 27 -20 52 -10 16 7 34 22 39 33 9 20 12 21 165 31
52 4 79 -14 93 -63 4 -14 17 -35 28 -48 16 -17 18 -25 9 -34 -9 -9 -18 -6 -37
12 l-25 23 0 -23 c0 -14 18 -41 49 -71 41 -42 54 -49 87 -49 26 0 46 -7 63
-24 16 -15 44 -26 74 -30 42 -5 47 -4 47 14 0 11 6 29 12 40 10 16 10 24 0 40
-6 11 -12 26 -12 34 0 8 -11 28 -25 44 -14 17 -25 39 -25 50 0 11 -11 27 -25
36 -14 9 -25 25 -25 36 0 34 -42 53 -100 45 -49 -7 -50 -6 -50 18 0 14 -5 27
-11 29 -6 2 -12 33 -14 69 -4 91 -9 102 -60 127 -51 25 -57 25 -102 9z"/>
<path d="M1625 4899 c-21 -33 20 -80 84 -99 65 -18 50 55 -18 90 -46 23 -57
24 -66 9z"/>
<path d="M2000 4761 c0 -5 4 -11 8 -13 4 -1 18 -20 31 -41 27 -43 48 -44 42
-1 -5 47 -19 64 -51 64 -17 0 -30 -4 -30 -9z"/>
<path d="M5688 4608 c16 -16 15 -38 0 -38 -7 0 -36 10 -65 22 -66 27 -81 18
-59 -36 8 -20 22 -39 30 -42 21 -8 96 -112 96 -133 0 -10 -11 -26 -25 -35 -28
-19 -32 -44 -11 -85 8 -15 13 -37 10 -48 -4 -13 11 -54 35 -105 23 -46 41 -94
41 -106 0 -27 52 -156 72 -179 9 -10 23 -32 32 -50 9 -17 32 -39 53 -50 21
-10 42 -27 47 -39 5 -11 22 -26 38 -32 15 -5 32 -22 38 -37 7 -18 15 -25 25
-21 8 3 23 -3 32 -13 10 -10 34 -26 53 -36 54 -27 66 -41 110 -129 31 -64 50
-89 81 -109 23 -15 45 -27 50 -27 23 0 -1 121 -31 155 -10 11 -30 45 -45 75
-15 30 -39 67 -53 83 -24 25 -25 28 -8 40 15 11 16 16 5 41 -11 22 -10 29 1
36 19 12 5 39 -26 50 -22 9 -24 13 -14 26 11 12 9 18 -8 34 -11 10 -23 33 -27
50 -4 16 -15 36 -25 43 -13 9 -16 17 -10 27 12 20 -36 70 -67 70 -14 0 -23 6
-23 15 0 22 -36 49 -67 50 -19 0 -32 9 -45 31 -17 28 -17 36 -5 83 10 38 20
56 38 64 39 20 34 43 -23 104 -96 103 -136 153 -142 179 -9 34 -65 83 -95 84
-20 0 -22 -3 -13 -12z"/>
<path d="M4497 4532 c-9 -10 -17 -28 -17 -40 0 -23 34 -52 62 -52 9 0 20 -9
23 -20 8 -24 52 -37 68 -21 9 9 5 17 -15 34 -21 17 -28 32 -30 67 -3 44 -4 45
-39 48 -24 2 -40 -3 -52 -16z"/>
<path d="M2209 4497 c-15 -12 -32 -32 -38 -44 -6 -13 -25 -30 -41 -38 -37 -19
-50 -55 -25 -70 39 -22 85 -68 91 -90 6 -23 68 -64 80 -52 4 3 -5 12 -19 18
-31 14 -45 51 -37 99 4 26 10 34 22 32 21 -3 48 55 48 103 0 30 -25 65 -46 65
-5 -1 -21 -11 -35 -23z"/>
<path d="M2888 4409 c-10 -6 -18 -19 -18 -30 0 -12 -10 -24 -27 -30 -54 -22
-58 -26 -60 -67 -1 -37 4 -46 43 -82 59 -54 96 -55 148 -1 32 33 37 44 32 67
-4 15 -15 33 -24 40 -15 11 -12 14 21 30 39 19 45 32 25 52 -15 15 -64 16 -73
2 -11 -18 -43 -11 -47 9 -2 16 -7 18 -20 10z"/>
<path d="M3110 4275 c-14 -14 -44 -42 -66 -64 -61 -57 -65 -90 -19 -157 23
-33 45 -54 56 -54 10 0 48 14 84 32 69 34 79 52 45 83 -11 10 -20 30 -21 44 0
14 -12 52 -27 83 l-27 57 -25 -24z"/>
<path d="M2385 4211 l-50 -6 25 -17 c14 -9 39 -20 55 -23 17 -4 47 -13 68 -21
47 -18 57 -18 57 0 0 22 -62 76 -85 74 -11 0 -42 -4 -70 -7z"/>
<path d="M4024 4002 c-7 -4 -14 -18 -15 -32 -3 -19 -13 -26 -48 -35 -43 -10
-53 -20 -65 -57 -3 -11 -15 -18 -31 -18 -58 0 -34 -59 34 -81 20 -6 44 -18 53
-27 18 -15 54 -13 129 8 32 9 40 18 68 80 41 89 39 106 -16 102 -39 -2 -42 0
-54 33 -13 34 -31 43 -55 27z"/>
<path d="M5033 3943 c-13 -13 -36 -26 -53 -29 -16 -4 -30 -8 -30 -10 0 -1 10
-19 22 -40 l21 -36 59 6 c45 5 63 3 80 -8 12 -9 30 -16 39 -16 9 0 22 -6 28
-14 15 -18 45 -26 61 -16 17 11 32 98 20 120 -15 28 -79 65 -92 52 -8 -8 -17
-7 -32 3 -34 21 -97 15 -123 -12z"/>
<path d="M4237 3860 c-58 -46 -84 -122 -51 -154 26 -27 60 -19 93 21 35 43 38
55 15 74 -11 9 -14 22 -9 46 7 39 -9 44 -48 13z"/>
<path d="M5387 3833 c-4 -3 -7 -17 -7 -31 0 -38 -39 -98 -76 -118 -44 -24 -45
-46 -3 -42 27 3 39 12 56 46 0 2 22 -8 49 -22 43 -23 49 -24 75 -10 34 17 66
61 53 74 -5 4 -20 10 -34 12 -17 2 -35 18 -55 50 -29 45 -44 56 -58 41z"/>
<path d="M4640 3648 c-13 -5 -39 -20 -57 -34 -33 -25 -33 -26 -29 -92 2 -37 7
-79 11 -93 4 -16 2 -30 -4 -34 -7 -4 1 -21 24 -48 19 -22 35 -49 35 -60 0 -18
15 -39 66 -91 59 -60 91 -81 134 -88 25 -3 86 -14 135 -23 73 -13 104 -14 163
-6 99 15 177 5 227 -28 22 -14 42 -29 43 -33 2 -5 16 -8 31 -8 15 0 65 -12
110 -26 54 -17 86 -22 94 -16 7 5 37 15 67 22 30 7 67 19 83 27 27 14 36 37
17 48 -5 3 -10 16 -10 28 -1 12 -6 32 -13 45 -14 25 -77 62 -106 62 -21 0 -31
19 -31 55 0 39 -74 103 -128 111 -35 5 -48 13 -61 35 -9 16 -22 29 -29 29 -7
0 -25 12 -40 27 -28 28 -19 27 -297 22 -16 0 -43 0 -60 1 -16 0 -52 -2 -78 -6
l-48 -6 -75 75 c-89 89 -138 118 -174 105z"/>
<path d="M6357 3523 c4 -10 15 -29 25 -43 13 -17 17 -32 12 -50 -4 -14 -6 -63
-5 -110 2 -65 7 -93 23 -117 23 -38 34 -41 41 -13 7 28 24 25 41 -7 8 -16 26
-39 40 -52 l26 -24 0 34 c0 79 -19 147 -56 205 -21 33 -47 76 -57 97 -33 64
-109 132 -90 80z"/>
<path d="M6903 3354 c-25 -25 -26 -29 -20 -112 7 -102 36 -210 77 -292 34 -67
45 -77 66 -59 19 16 15 85 -10 204 -10 44 -18 122 -18 173 -1 89 -3 94 -25
103 -35 13 -41 12 -70 -17z"/>
<path d="M6286 2649 c-3 -17 -6 -46 -6 -64 0 -28 4 -33 27 -38 15 -3 35 -1 44
4 26 14 156 -31 150 -52 -9 -30 0 -83 16 -94 12 -9 17 -25 16 -55 -2 -37 0
-41 17 -37 12 3 28 -6 46 -24 15 -16 34 -29 42 -29 8 0 30 -16 49 -35 19 -19
41 -35 49 -35 8 0 17 -6 20 -14 6 -15 43 -33 83 -41 12 -2 29 -9 36 -15 7 -6
44 -13 81 -17 41 -3 88 -15 115 -29 38 -19 60 -23 123 -21 48 1 76 6 76 13 0
6 7 17 15 24 9 7 15 29 15 55 0 35 -4 44 -25 53 -22 10 -39 34 -79 117 -24 49
-75 115 -90 115 -7 0 -19 -7 -26 -15 -16 -20 -69 -19 -91 1 -13 12 -37 17 -84
17 -49 0 -72 4 -89 18 -13 11 -37 19 -53 19 -19 0 -38 9 -53 25 -13 14 -29 25
-35 25 -7 0 -24 11 -40 24 -33 28 -176 108 -224 124 -19 7 -53 12 -76 12 -40
0 -43 -2 -49 -31z"/>
<path d="M9065 2357 c-113 -14 -115 -15 -132 -55 -19 -47 -20 -47 -37 -33 -8
7 -20 10 -26 6 -15 -9 -12 -57 5 -79 13 -18 17 -18 41 -6 23 13 27 13 40 -5 8
-10 16 -17 18 -14 2 2 18 22 36 44 26 33 37 39 71 40 21 1 39 -3 39 -7 0 -22
45 -3 80 35 48 50 50 67 11 67 -16 0 -40 4 -53 8 -13 4 -54 4 -93 -1z"/>
<path d="M9551 1807 c-31 -16 -46 -40 -37 -62 4 -13 12 -15 29 -10 55 17 67
17 73 1 12 -31 -5 -65 -41 -80 -43 -18 -53 -41 -30 -66 13 -14 31 -20 61 -20
35 0 46 5 61 26 10 15 30 40 45 56 25 27 27 33 20 86 -6 46 -11 59 -32 69 -32
16 -118 16 -149 0z"/>
<path d="M4952 1683 c-31 -11 -33 -42 -5 -84 24 -37 30 -40 60 -36 24 4 36 1
45 -12 28 -39 98 -54 138 -29 25 16 52 1 60 -32 4 -16 16 -27 38 -32 25 -7 37
-19 55 -55 17 -35 30 -49 56 -58 19 -6 37 -17 39 -23 5 -17 29 -15 36 3 3 9
18 15 35 15 49 0 45 17 -17 58 -32 22 -64 47 -72 57 -17 21 -74 50 -125 64
-22 6 -67 29 -100 50 -33 22 -66 41 -74 41 -7 0 -26 11 -43 25 -16 14 -39 25
-52 25 -12 0 -30 6 -41 14 -11 7 -26 11 -33 9z"/>
<path d="M9861 1416 c-10 -11 -7 -22 11 -50 13 -20 30 -36 39 -36 8 0 20 -5
26 -11 14 -14 96 7 90 24 -2 7 -9 13 -15 13 -7 1 -19 2 -27 3 -10 1 -15 11
-15 30 0 17 -6 31 -16 35 -28 11 -81 6 -93 -8z"/>
</g>
</svg>
