<?xml version="1.0" standalone="no"?>
<!DOCTYPE svg PUBLIC "-//W3C//DTD SVG 20010904//EN"
 "http://www.w3.org/TR/2001/REC-SVG-20010904/DTD/svg10.dtd">
<svg version="1.0" xmlns="http://www.w3.org/2000/svg"
 width="1024.000000pt" height="1024.000000pt" viewBox="0 0 1024.000000 1024.000000"
 preserveAspectRatio="xMidYMid meet">
<metadata>
Created by potrace 1.16, written by Peter Selinger 2001-2019
</metadata>
<g transform="translate(0.000000,1024.000000) scale(0.100000,-0.100000)"
fill="#000000" stroke="none">
<path d="M7341 8618 c-35 -17 -48 -32 -66 -72 -13 -28 -31 -59 -42 -69 -33
-29 -139 -67 -190 -67 -27 0 -68 -9 -92 -20 -25 -12 -65 -20 -95 -20 -45 0
-54 -3 -76 -31 -22 -26 -35 -32 -92 -39 -37 -4 -90 -14 -118 -21 -40 -10 -62
-10 -108 -1 -84 17 -103 16 -258 -23 -222 -54 -272 -61 -349 -46 -102 21 -164
9 -228 -44 -57 -46 -200 -134 -270 -166 -60 -27 -112 -25 -149 6 -26 22 -37
25 -77 20 -29 -4 -66 0 -101 10 -103 30 -108 30 -143 -3 -42 -41 -112 -72
-164 -72 -35 0 -42 -4 -45 -21 -2 -15 -17 -27 -45 -38 -22 -9 -49 -23 -60 -33
-31 -27 -93 -38 -228 -38 -147 0 -143 -1 -270 103 -77 63 -253 235 -268 261
-6 12 -14 43 -17 70 -4 43 -8 51 -32 57 -15 4 -42 19 -62 34 l-35 27 -47 -64
c-26 -35 -67 -104 -91 -155 -24 -51 -51 -95 -61 -98 -17 -5 -77 -81 -88 -109
-3 -8 6 -31 20 -53 13 -21 28 -56 32 -78 10 -59 28 -88 75 -120 26 -19 48 -45
60 -72 13 -30 29 -48 58 -62 40 -21 45 -29 56 -93 5 -28 17 -43 46 -64 26 -18
39 -34 39 -50 0 -18 10 -26 48 -40 33 -13 76 -45 142 -109 l95 -92 180 -60
c99 -34 394 -134 655 -222 261 -89 521 -177 578 -196 l104 -35 254 0 c140 0
254 -2 254 -6 0 -4 -294 -318 -784 -838 -78 -82 -146 -154 -151 -160 -22 -24
-473 -505 -521 -555 l-51 -53 -174 17 c-263 26 -376 12 -530 -66 -45 -22 -112
-47 -150 -55 -37 -8 -78 -18 -92 -23 -34 -13 -75 -65 -87 -113 -14 -51 -47
-84 -96 -97 -22 -6 -115 -18 -208 -28 l-169 -18 -194 -270 c-124 -173 -222
-299 -273 -350 l-80 -80 0 -939 0 -939 84 -111 c46 -61 112 -147 145 -190 34
-44 61 -88 61 -98 0 -33 14 -19 67 65 116 185 196 282 529 638 95 101 202 220
239 264 133 157 202 230 313 331 270 247 498 408 854 602 339 185 376 211 485
346 35 44 183 201 327 350 414 427 439 457 537 649 76 150 104 195 234 372
183 250 254 389 265 520 8 106 46 183 197 407 139 208 152 235 153 311 0 73
17 106 69 135 48 27 81 66 81 96 0 20 14 45 64 114 14 18 27 51 31 73 4 23 16
50 26 60 12 12 19 33 19 56 0 32 7 44 55 88 46 42 55 56 55 85 0 28 7 41 36
63 47 38 59 70 39 110 -20 40 -19 52 11 148 28 90 32 145 13 208 -11 38 -11
44 8 63 30 30 96 39 155 22 57 -17 68 -13 68 27 0 22 -5 29 -19 29 -10 0 -24
7 -31 15 -17 21 -30 19 -30 -5 0 -16 -7 -20 -35 -20 -31 0 -35 3 -35 25 0 18
5 25 20 25 24 0 25 11 3 53 -21 40 -20 140 1 191 16 38 9 76 -14 76 -5 0 -14
9 -20 20 -17 31 5 117 45 185 36 59 45 114 23 132 -7 6 -36 13 -65 16 -29 3
-73 17 -100 31 -58 32 -76 32 -132 4z"/>
</g>
</svg>
