<?xml version="1.0" standalone="no"?>
<!DOCTYPE svg PUBLIC "-//W3C//DTD SVG 20010904//EN"
 "http://www.w3.org/TR/2001/REC-SVG-20010904/DTD/svg10.dtd">
<svg version="1.0" xmlns="http://www.w3.org/2000/svg"
 width="1024.000000pt" height="1024.000000pt" viewBox="0 0 1024.000000 1024.000000"
 preserveAspectRatio="xMidYMid meet">
<metadata>
Created by potrace 1.16, written by Peter Selinger 2001-2019
</metadata>
<g transform="translate(0.000000,1024.000000) scale(0.100000,-0.100000)"
fill="#000000" stroke="none">
<path d="M7899 9185 c-4 -3 -50 -10 -103 -15 -52 -5 -103 -14 -113 -19 -10 -5
-29 -12 -43 -15 -43 -10 -53 -23 -61 -82 -9 -66 -25 -84 -76 -84 -20 0 -62
-15 -100 -35 -58 -31 -75 -35 -139 -35 -71 0 -76 -2 -114 -36 -21 -19 -42 -45
-46 -57 -3 -12 -24 -38 -45 -58 -21 -20 -39 -46 -39 -57 0 -11 -11 -27 -24
-36 -14 -8 -28 -26 -32 -38 -10 -34 -94 -108 -129 -115 -48 -9 -66 -22 -81
-58 -11 -26 -24 -37 -64 -52 -53 -20 -183 -110 -256 -178 l-44 -41 0 -82 c0
-58 -6 -96 -20 -132 -11 -28 -20 -68 -20 -90 0 -32 -5 -43 -27 -57 -15 -10
-71 -61 -124 -114 -108 -108 -146 -128 -292 -153 -131 -23 -124 -16 -129 -146
-3 -67 -9 -88 -60 -195 -31 -66 -64 -143 -73 -172 -21 -66 -46 -98 -98 -125
-37 -18 -52 -20 -140 -14 -72 4 -105 3 -125 -7 -15 -8 -57 -19 -93 -25 -63
-11 -70 -11 -123 13 -31 14 -68 25 -82 25 -14 0 -53 17 -87 38 -57 35 -65 37
-134 34 -65 -2 -75 0 -91 20 -50 63 -95 102 -167 145 l-80 48 -139 0 -138 -1
-34 -39 c-63 -73 -94 -131 -105 -191 -23 -131 -58 -218 -116 -288 -34 -42 -64
-68 -81 -72 -47 -10 -72 -23 -72 -39 0 -8 -24 -41 -53 -73 -29 -31 -62 -73
-74 -93 -26 -42 -51 -55 -116 -64 -46 -6 -50 -9 -68 -50 -29 -65 -63 -88 -119
-80 -65 9 -148 10 -206 1 -39 -7 -58 -5 -82 8 -38 20 -114 21 -150 2 l-27 -14
-24 99 -24 100 57 56 c32 32 65 70 73 87 17 34 20 134 4 164 -6 11 -11 48 -11
80 0 54 -4 64 -35 102 -35 42 -55 93 -55 143 0 32 -31 97 -56 118 -9 7 -25 32
-34 54 -49 114 -134 216 -215 258 -16 8 -43 29 -59 46 -29 31 -59 40 -71 22
-3 -6 -5 -522 -5 -1148 0 -626 -3 -1148 -6 -1159 -7 -25 -74 -57 -156 -74 -64
-13 -101 -43 -118 -96 -14 -40 -53 -64 -104 -64 -46 0 -71 -34 -63 -86 8 -49
-14 -55 -76 -20 -33 18 -79 32 -141 41 -83 13 -97 12 -166 -5 -41 -10 -103
-21 -138 -25 -60 -7 -65 -6 -100 22 -56 45 -70 50 -159 58 -68 6 -84 11 -102
31 -16 18 -31 24 -61 24 -30 0 -40 4 -40 16 0 9 -8 32 -17 51 -13 28 -14 39
-5 54 18 28 14 68 -10 108 -27 47 -46 61 -78 61 -22 0 -29 8 -46 48 -17 40
-29 53 -66 70 -43 21 -46 21 -91 6 -47 -16 -77 -45 -77 -74 0 -8 -16 -38 -36
-65 -30 -42 -35 -57 -32 -95 l3 -45 -49 -12 c-76 -19 -137 -88 -106 -119 5 -5
20 -37 33 -70 13 -33 44 -91 70 -130 67 -102 97 -163 97 -198 0 -34 19 -73 67
-135 36 -47 68 -146 78 -241 3 -36 18 -93 31 -127 14 -34 29 -86 34 -116 12
-73 56 -158 124 -236 34 -40 62 -83 72 -115 10 -28 41 -102 71 -165 43 -92 71
-136 146 -225 101 -120 167 -213 167 -234 0 -8 14 -55 30 -105 17 -50 32 -107
34 -127 2 -19 9 -52 15 -73 11 -32 10 -44 -3 -78 -11 -28 -15 -55 -10 -87 5
-45 4 -48 -39 -90 -44 -44 -45 -44 -75 -28 -45 23 -67 20 -102 -16 -67 -72
-76 -166 -20 -217 16 -14 34 -40 40 -56 6 -17 29 -42 50 -57 22 -15 48 -45 59
-67 11 -21 43 -74 71 -117 27 -44 50 -89 50 -101 0 -12 10 -42 21 -67 l22 -44
-36 -36 c-22 -21 -39 -50 -43 -71 -14 -78 21 -201 65 -225 28 -14 87 -12 100
4 7 8 9 35 5 74 l-7 61 42 11 c24 6 55 10 69 8 25 -3 27 -6 23 -48 -9 -112 -8
-123 21 -139 25 -14 34 -14 95 2 l68 18 23 -26 c12 -15 37 -29 57 -32 49 -8
60 -24 41 -62 -27 -51 -21 -69 27 -81 83 -22 104 -31 128 -56 23 -25 28 -26
96 -20 61 6 76 4 105 -14 46 -28 72 -25 105 11 15 17 48 41 73 54 25 13 74 49
109 82 l65 58 104 6 c94 5 107 8 124 29 16 20 24 22 71 16 166 -20 164 -20
219 4 48 21 56 21 124 10 90 -16 131 -4 191 56 24 23 58 46 75 49 17 4 44 20
60 35 21 20 44 30 81 35 28 4 71 16 97 27 61 26 108 25 226 -8 76 -21 123 -27
201 -28 100 -1 102 0 133 29 30 28 34 29 128 30 74 0 122 -7 202 -27 166 -43
349 -81 394 -82 72 -1 94 11 131 68 31 49 37 54 81 60 74 10 106 7 149 -14 49
-24 205 -29 224 -7 7 9 8 37 4 79 -5 62 -4 68 20 92 32 32 69 33 257 7 170
-24 239 -13 294 48 11 12 37 24 58 27 21 4 93 36 160 73 68 37 152 78 187 91
75 29 263 175 416 322 96 92 220 199 405 348 117 95 248 238 345 377 9 13 42
39 73 59 124 80 344 277 421 379 21 28 59 86 86 130 26 44 75 121 109 170 33
50 79 124 101 165 78 142 167 295 204 350 21 30 53 82 71 115 18 33 58 92 89
132 31 40 70 92 88 115 63 86 133 155 160 161 35 7 288 219 326 273 18 26 29
56 31 85 3 41 24 104 82 242 18 43 24 77 24 130 0 54 8 95 30 162 104 310 138
430 127 458 -4 10 -28 16 -79 20 -40 4 -95 11 -122 15 -31 6 -63 6 -85 0 -33
-10 -76 -8 -198 8 -51 6 -53 6 -64 -22 -6 -16 -15 -79 -18 -140 -4 -70 -12
-118 -20 -128 -25 -30 -158 -21 -291 18 -133 40 -151 55 -221 189 -33 64 -48
82 -76 94 l-36 14 7 67 c3 37 6 83 6 103 0 30 10 48 60 104 53 60 100 148 100
188 0 13 35 74 53 91 29 28 77 56 97 56 30 0 77 -26 135 -74 106 -89 152 -109
195 -86 21 11 22 16 16 82 -6 62 -4 74 16 107 21 32 23 50 25 181 2 80 4 163
5 185 1 22 -4 155 -11 295 -12 229 -16 261 -38 315 -13 33 -28 84 -33 114 -8
44 -18 62 -60 107 -27 29 -50 56 -50 61 0 4 -5 37 -11 73 -8 49 -19 76 -45
109 -39 50 -40 62 -18 138 l16 55 -50 101 c-27 56 -53 124 -57 151 -4 28 -25
101 -47 163 -44 123 -64 149 -127 158 -20 3 -71 13 -113 22 -53 11 -93 14
-130 8 -29 -4 -82 -8 -118 -10 -36 -1 -77 -7 -91 -13 -21 -8 -42 -6 -103 13
-41 13 -88 32 -103 43 -55 39 -107 54 -208 59 -55 3 -103 2 -106 -2z"/>
</g>
</svg>
