<?xml version="1.0" standalone="no"?>
<!DOCTYPE svg PUBLIC "-//W3C//DTD SVG 20010904//EN"
 "http://www.w3.org/TR/2001/REC-SVG-20010904/DTD/svg10.dtd">
<svg version="1.0" xmlns="http://www.w3.org/2000/svg"
 width="1024.000000pt" height="1024.000000pt" viewBox="0 0 1024.000000 1024.000000"
 preserveAspectRatio="xMidYMid meet">
<metadata>
Created by potrace 1.16, written by Peter Selinger 2001-2019
</metadata>
<g transform="translate(0.000000,1024.000000) scale(0.100000,-0.100000)"
fill="#000000" stroke="none">
<path d="M6819 7622 c-1 -4 0 -40 1 -79 l2 -73 -129 -1 c-70 0 -150 -4 -177
-7 l-49 -7 81 -63 82 -63 0 -147 c0 -129 2 -152 21 -186 11 -21 19 -44 17 -52
-6 -25 -161 -174 -209 -200 -41 -23 -54 -38 -105 -132 -50 -92 -115 -179 -239
-322 -68 -77 -72 -80 -122 -80 -111 0 -213 -13 -213 -26 0 -8 -3 -14 -6 -14
-3 0 -45 33 -92 74 -72 60 -278 197 -369 245 -37 19 -61 13 -169 -46 l-105
-58 3 -95 3 -95 -135 -3 -135 -3 -87 -86 c-57 -56 -88 -96 -90 -112 l-3 -26
-198 -3 -197 -2 -38 59 c-20 33 -41 67 -47 76 -8 13 -44 16 -230 21 l-220 6
-104 -36 c-121 -41 -130 -42 -233 -18 -93 23 -117 47 -147 144 -22 75 -94 175
-150 209 -29 17 -31 23 -31 73 l0 55 -45 20 c-43 19 -48 19 -118 4 -39 -8 -97
-17 -127 -20 -30 -2 -62 -7 -70 -10 -15 -7 -26 -8 -86 -11 -26 -2 -34 -9 -49
-43 -16 -34 -17 -46 -7 -72 8 -21 9 -33 2 -35 -5 -2 -10 -12 -10 -22 0 -9 -7
-23 -15 -30 -8 -7 -15 -20 -15 -29 0 -22 -110 -82 -130 -72 -8 5 -45 11 -82
14 -57 4 -71 2 -89 -14 -15 -13 -37 -19 -72 -19 -38 0 -62 -7 -100 -31 -50
-31 -51 -31 -151 -24 l-101 7 -23 -32 c-22 -29 -23 -38 -17 -113 l7 -82 -32
-32 c-18 -18 -40 -33 -49 -33 -11 0 -21 -14 -28 -42 -10 -38 -10 -45 6 -62 18
-18 19 -18 40 3 28 28 31 27 31 -17 0 -28 -7 -45 -25 -62 -24 -23 -35 -70 -16
-70 5 0 21 4 34 9 19 7 34 5 62 -9 30 -15 62 -19 176 -21 l138 -2 -3 -38 c-2
-23 -14 -50 -30 -69 -45 -54 -31 -100 39 -131 26 -12 54 -17 68 -14 15 4 37
-1 60 -15 24 -14 44 -19 58 -15 12 4 48 2 80 -5 56 -12 60 -15 71 -52 9 -29
26 -49 72 -83 35 -27 71 -45 86 -45 37 0 90 -57 90 -97 0 -24 -8 -37 -32 -54
-18 -12 -35 -24 -36 -25 -2 -1 -1 -16 3 -33 5 -24 14 -32 48 -44 36 -11 44
-19 55 -53 l13 -40 119 -39 c85 -28 120 -44 123 -57 3 -10 30 -29 64 -43 54
-24 60 -30 85 -85 15 -33 34 -60 42 -60 8 0 17 -9 21 -19 3 -12 29 -27 66 -41
32 -13 61 -26 64 -30 2 -3 -11 -30 -30 -58 -19 -28 -35 -62 -35 -75 0 -28 35
-63 73 -72 18 -5 27 -14 27 -26 0 -11 7 -22 15 -26 14 -5 14 -8 0 -29 -19 -29
-19 -45 -1 -38 8 3 20 -4 28 -15 9 -12 39 -26 82 -37 48 -12 72 -23 83 -40 8
-13 24 -24 34 -24 10 0 21 -4 24 -10 3 -6 14 -10 23 -10 10 0 25 -9 35 -20 9
-11 28 -20 42 -20 14 0 25 -6 25 -13 0 -7 9 -18 20 -25 11 -7 20 -20 20 -29 0
-9 7 -24 15 -33 13 -14 13 -22 0 -64 -14 -46 -14 -53 7 -109 15 -40 35 -72 60
-95 21 -19 38 -42 38 -52 0 -9 9 -25 20 -35 11 -10 20 -24 20 -30 0 -15 22
-25 53 -25 28 -1 57 -23 57 -44 0 -9 8 -16 20 -16 15 0 20 -7 21 -30 1 -16 3
-34 4 -40 1 -5 3 -16 4 -24 1 -17 47 -35 88 -34 37 1 63 -16 63 -43 0 -19 15
-32 40 -36 8 -1 22 -11 32 -22 12 -15 28 -21 58 -21 33 0 43 -4 47 -19 10 -39
65 -33 78 9 3 11 15 20 25 20 10 0 20 7 24 15 3 8 16 15 29 15 19 0 27 9 40
40 18 46 42 52 59 15 10 -23 16 -25 78 -25 58 0 71 -4 109 -31 37 -28 45 -30
67 -20 14 6 34 11 44 11 11 0 20 6 20 13 0 7 13 24 30 39 20 17 32 39 36 67 4
22 10 41 15 41 5 0 9 -4 9 -10 0 -5 20 -10 44 -10 36 0 47 -5 60 -25 13 -20
22 -24 43 -19 l26 7 -6 -56 -7 -56 40 -23 c23 -13 40 -31 40 -41 0 -9 12 -23
28 -30 15 -6 33 -20 40 -29 7 -10 26 -18 43 -18 27 0 29 -2 29 -39 0 -58 8
-72 36 -65 15 4 24 2 24 -5 0 -6 11 -11 24 -11 13 0 26 -7 30 -15 3 -8 14 -15
25 -15 11 0 22 -4 25 -9 3 -4 17 -6 30 -4 22 5 25 1 31 -40 4 -25 4 -54 1 -65
-4 -11 -2 -23 5 -27 12 -8 85 12 107 28 8 7 12 5 12 -6 0 -8 7 -17 15 -21 8
-3 15 -15 15 -26 0 -31 12 -24 49 30 19 28 42 50 51 50 10 0 35 14 56 31 34
26 44 30 78 25 21 -4 51 -15 65 -25 63 -44 89 -52 134 -41 23 7 58 27 78 47
l37 35 30 -22 c20 -15 34 -37 41 -66 11 -41 14 -44 45 -44 20 0 36 -6 39 -14
3 -7 19 -18 36 -24 30 -11 31 -10 31 17 0 22 12 38 59 75 54 42 64 46 115 46
77 0 150 17 228 52 l66 30 48 -36 c46 -35 48 -36 140 -36 51 0 94 4 96 9 2 5
109 118 238 251 129 133 238 246 241 251 3 5 56 32 117 59 62 28 163 73 225
100 74 34 120 49 135 45 15 -4 32 2 49 15 31 24 58 27 49 5 -3 -8 -9 -22 -12
-30 -5 -12 3 -15 39 -15 l46 0 -10 -32 c-12 -42 7 -103 39 -129 29 -22 52 -25
52 -5 0 20 32 45 37 29 3 -8 22 -13 45 -13 l40 0 -31 42 c-29 40 -31 47 -31
132 1 63 5 97 15 110 11 14 12 24 4 38 -6 11 -8 30 -5 43 5 19 0 26 -26 39
-17 9 -50 16 -73 16 -22 0 -46 5 -52 11 -8 8 -27 4 -71 -16 -33 -15 -66 -24
-72 -20 -8 5 -10 22 -7 45 4 35 2 38 -44 70 -28 19 -49 41 -49 51 0 10 -16 44
-35 76 -24 39 -35 70 -35 96 0 21 -8 68 -17 103 -18 66 -18 64 13 174 3 8 -9
32 -26 53 -27 31 -38 37 -70 37 -34 0 -44 6 -71 40 -26 32 -39 40 -66 40 -32
0 -33 2 -33 38 0 50 -14 62 -72 62 -40 0 -50 4 -65 26 -9 14 -27 30 -39 34
-15 6 -24 19 -26 37 -2 21 -14 34 -45 51 -39 22 -41 24 -36 62 7 53 -7 73
-111 154 -73 57 -90 66 -125 66 -23 0 -41 5 -41 11 0 7 -21 8 -65 4 -47 -5
-65 -4 -65 4 0 21 -67 42 -109 35 -33 -5 -41 -3 -50 14 -26 49 3 142 45 142 8
0 14 7 14 15 0 8 7 15 16 15 13 0 15 7 11 29 -4 18 -2 31 5 33 7 3 6 11 -3 27
-12 19 -12 23 3 32 13 7 16 17 11 39 -5 26 -2 31 22 40 22 8 33 7 51 -5 22
-14 26 -14 53 6 24 17 32 19 50 9 12 -6 32 -10 44 -8 15 2 25 -4 32 -19 16
-37 110 -27 126 13 6 19 16 24 42 24 24 0 42 9 66 34 l33 34 -17 243 c-9 134
-18 250 -20 257 -3 7 -24 12 -60 12 l-55 0 0 66 c0 55 4 71 24 94 47 56 43
200 -5 215 -10 4 -39 34 -65 67 -25 34 -59 72 -74 84 -15 13 -42 46 -61 74
-29 43 -46 56 -111 87 -72 33 -77 37 -72 62 3 14 -7 80 -21 146 -14 66 -35
164 -46 217 l-20 98 30 157 c17 87 35 159 41 161 5 2 10 10 10 17 0 10 -34 13
-150 13 -82 1 -150 -2 -151 -6z"/>
</g>
</svg>
