<?xml version="1.0" standalone="no"?>
<!DOCTYPE svg PUBLIC "-//W3C//DTD SVG 20010904//EN"
 "http://www.w3.org/TR/2001/REC-SVG-20010904/DTD/svg10.dtd">
<svg version="1.0" xmlns="http://www.w3.org/2000/svg"
 width="628.000000pt" height="436.000000pt" viewBox="0 0 628.000000 436.000000"
 preserveAspectRatio="xMidYMid meet">
<metadata>
Created by potrace 1.16, written by Peter Selinger 2001-2019
</metadata>
<g transform="translate(0.000000,436.000000) scale(0.100000,-0.100000)"
fill="#000000" stroke="none">
<path d="M3661 4264 c-19 -13 -22 -23 -19 -53 10 -76 -40 -147 -140 -197 l-57
-29 -440 0 c-242 -1 -453 -5 -470 -9 -62 -18 -166 -89 -185 -126 -23 -44 -162
-185 -199 -201 -34 -15 -59 -83 -70 -188 -5 -51 -9 -61 -15 -43 -9 27 -42 42
-92 42 -31 0 -34 -2 -35 -32 l-2 -33 -6 33 c-5 25 -16 38 -50 57 -81 46 -101
30 -101 -84 0 -99 9 -111 87 -111 64 0 84 17 77 65 l-4 30 10 -30 c6 -19 23
-37 44 -49 47 -25 64 -46 72 -84 6 -30 4 -32 -20 -32 l-26 0 19 -38 c18 -36
55 -62 87 -62 11 0 12 -4 4 -19 -16 -31 -12 -38 30 -55 29 -12 46 -13 59 -6
18 9 31 -3 31 -29 0 -16 -77 -32 -105 -21 -14 5 -40 10 -56 10 -28 0 -29 -1
-29 -53 0 -79 34 -101 80 -52 19 20 33 25 72 25 36 0 48 -4 48 -15 0 -10 -14
-17 -41 -21 -35 -6 -43 -12 -56 -41 -8 -19 -13 -39 -11 -43 2 -5 36 -36 77
-70 70 -58 75 -61 113 -55 49 9 47 4 -39 -89 -34 -38 -67 -65 -73 -61 -6 4 -9
35 -8 75 3 63 1 72 -23 95 -21 22 -38 27 -100 32 -65 5 -79 10 -113 40 -22 18
-51 33 -64 33 -23 0 -24 -2 -17 -42 10 -66 8 -113 -5 -138 -11 -21 -13 -22
-22 -6 -7 12 -6 27 1 45 9 21 8 33 -4 59 -9 17 -21 34 -26 38 -18 11 -99 -6
-99 -21 0 -20 42 -57 57 -51 14 6 18 -29 7 -58 -7 -19 -103 -81 -112 -72 -3 4
3 26 15 49 21 41 22 100 2 113 -5 2 -31 -12 -59 -33 -40 -30 -50 -43 -50 -66
0 -18 -11 -39 -30 -59 -40 -40 -42 -88 -3 -109 32 -17 61 -13 90 13 l22 20 10
-38 c6 -22 12 -52 13 -69 l3 -30 19 29 c18 26 19 31 4 55 -14 25 -14 29 3 49
14 19 28 23 78 23 34 1 68 -4 75 -10 13 -11 36 -84 36 -115 0 -10 -9 -16 -24
-16 -13 0 -26 -5 -28 -12 -4 -12 21 -165 45 -268 8 -36 18 -85 21 -110 6 -37
17 -56 71 -114 62 -65 67 -68 100 -62 19 4 55 16 80 27 25 11 51 19 57 17 16
-6 -85 -44 -152 -58 -62 -14 -80 -30 -80 -73 l0 -30 85 5 c95 5 99 1 66 -60
-13 -26 -30 -38 -67 -51 -28 -9 -89 -41 -137 -71 -74 -47 -86 -59 -84 -80 2
-25 2 -25 91 -21 90 3 105 -2 106 -38 0 -9 -8 -11 -26 -7 -45 12 -135 -13
-164 -44 -46 -50 -99 -163 -109 -231 -8 -59 -7 -67 15 -100 14 -20 36 -41 50
-47 24 -11 24 -13 9 -42 -9 -16 -19 -30 -24 -30 -5 0 -23 13 -41 30 -27 25
-31 34 -25 61 l7 31 -43 -7 c-54 -9 -59 -12 -59 -35 0 -24 56 -160 73 -177 11
-12 17 -10 39 7 15 11 34 20 43 20 19 0 16 -14 -22 -99 -28 -66 -24 -71 64
-71 l63 0 11 45 c10 39 15 45 38 45 17 0 38 -11 55 -28 34 -36 24 -46 -70 -70
-37 -10 -69 -22 -71 -27 -2 -6 26 -33 63 -60 l65 -50 -36 -7 c-28 -6 -48 -3
-80 11 -36 16 -46 17 -55 6 -6 -7 -8 -20 -4 -29 15 -38 -17 -11 -50 41 -53 88
-65 103 -80 97 -22 -8 -37 -75 -26 -115 12 -44 32 -62 85 -77 70 -21 93 -51
101 -127 7 -64 9 -68 45 -91 53 -33 80 -31 104 8 18 31 20 31 23 11 4 -30 52
-63 91 -63 38 0 39 13 2 65 -20 30 -34 40 -54 40 -15 -1 -27 0 -27 1 0 1 24
41 53 90 68 113 87 120 87 31 l0 -65 38 -15 c35 -14 38 -14 49 7 6 11 29 35
50 52 25 20 43 46 51 71 11 37 18 42 114 89 166 81 218 91 218 41 0 -27 -97
-127 -124 -127 -14 0 -16 5 -11 30 4 17 3 30 -2 30 -18 0 -73 -67 -73 -88 0
-23 2 -24 68 -27 33 -1 50 -9 76 -35 33 -31 36 -32 71 -20 20 7 64 38 98 70
61 57 61 58 47 85 -8 16 -36 41 -63 58 -63 38 -73 58 -50 98 17 30 85 69 119
69 7 0 23 -18 34 -40 17 -34 20 -51 14 -98 -6 -56 -5 -58 20 -70 44 -20 59
-14 113 41 50 51 73 97 73 144 0 22 -3 23 -37 17 -21 -3 -42 -10 -47 -15 -21
-19 -54 -8 -80 25 -29 39 -32 58 -12 75 11 9 15 7 19 -9 7 -27 37 -26 98 6 43
21 59 24 103 19 39 -5 69 -2 120 14 38 12 70 21 72 21 2 0 10 -13 19 -30 11
-22 28 -33 67 -45 71 -21 98 -20 98 4 0 20 34 31 97 31 34 0 34 -1 31 -37 -3
-32 1 -39 30 -56 48 -28 74 -13 95 55 27 84 30 111 15 131 -12 16 -17 17 -43
6 -17 -7 -38 -19 -47 -27 -16 -13 -18 -13 -18 1 0 16 185 147 207 147 7 0 16
-6 20 -14 4 -7 33 -26 63 -41 48 -24 67 -28 142 -28 68 0 92 3 106 16 23 21
32 21 32 1 0 -14 8 -16 61 -10 78 9 101 18 152 60 28 23 49 52 62 86 13 33 30
58 48 68 36 21 120 133 142 190 11 28 16 58 13 87 -3 24 -1 48 3 52 12 12 109
322 109 348 0 12 -6 30 -14 41 -14 18 -16 17 -58 -23 -45 -44 -71 -52 -99 -30
-12 9 -17 42 -22 153 l-7 141 29 37 c38 47 51 138 27 184 -23 45 -20 85 9 112
33 31 34 96 3 159 -19 38 -23 64 -24 142 -1 93 -2 98 -32 135 -22 26 -32 49
-32 72 0 18 -5 43 -12 55 -10 20 -140 193 -230 305 -20 26 -37 58 -37 72 -1
17 -27 51 -88 112 -48 49 -92 88 -98 89 -5 0 -58 58 -116 128 -72 85 -121 155
-149 211 -56 112 -221 400 -229 400 -4 0 -17 -7 -30 -16z"/>
<path d="M130 3661 c-35 -7 -41 -21 -18 -48 15 -19 69 -15 98 6 20 16 22 21
11 35 -14 17 -32 18 -91 7z"/>
<path d="M6090 3236 c-38 -9 -45 -15 -45 -36 0 -34 43 -55 79 -39 20 10 26 19
26 45 0 18 -3 35 -7 37 -5 2 -28 -1 -53 -7z"/>
<path d="M1580 2559 c0 -5 5 -7 10 -4 6 3 10 8 10 11 0 2 -4 4 -10 4 -5 0 -10
-5 -10 -11z"/>
<path d="M1744 2315 c-11 -28 6 -129 24 -146 20 -20 69 -33 76 -21 3 5 -8 47
-24 93 -22 66 -33 85 -49 87 -13 2 -24 -3 -27 -13z"/>
<path d="M1533 927 c-60 -30 -71 -77 -19 -77 29 0 52 26 59 68 4 17 5 32 4 31
-1 0 -21 -10 -44 -22z"/>
<path d="M3965 762 c-141 -61 -145 -63 -145 -92 0 -42 20 -53 63 -35 44 18 49
9 35 -64 -5 -29 -8 -55 -6 -57 11 -10 87 22 115 48 42 41 53 114 27 176 -21
46 -30 49 -89 24z"/>
<path d="M1444 706 l-39 -33 32 -7 c42 -10 70 0 78 25 6 19 -9 49 -25 49 -3 0
-24 -15 -46 -34z"/>
<path d="M3206 709 c-30 -36 -32 -52 -10 -125 14 -50 18 -54 52 -60 20 -4 64
-8 97 -8 l59 -1 9 43 c5 24 6 50 3 58 -6 16 -77 19 -92 4 -7 -7 -19 -4 -37 10
-31 25 -34 47 -10 65 15 11 15 15 4 29 -20 24 -46 19 -75 -15z"/>
<path d="M3338 695 c-31 -42 -19 -55 53 -55 46 0 50 15 14 54 -30 32 -45 32
-67 1z"/>
<path d="M1400 600 c-8 -5 -27 -10 -42 -10 -27 0 -46 -29 -33 -50 11 -17 37
-11 42 10 4 15 14 20 39 20 37 0 37 0 28 24 -7 18 -13 19 -34 6z"/>
<path d="M1363 523 c-21 -8 -15 -33 12 -45 21 -9 28 -8 45 7 33 30 -9 58 -57
38z"/>
<path d="M3100 465 c-17 -20 -7 -41 29 -59 28 -15 30 -15 36 5 12 35 -3 69
-29 69 -13 0 -29 -7 -36 -15z"/>
<path d="M1619 353 c-107 -115 -104 -109 -85 -137 25 -38 58 -42 143 -15 62
19 79 29 99 58 30 45 30 52 -3 83 -23 20 -90 58 -105 58 -2 0 -24 -21 -49 -47z"/>
<path d="M3088 363 c-10 -2 -18 -8 -18 -12 0 -10 56 -51 70 -51 16 0 12 37 -6
54 -16 17 -17 17 -46 9z"/>
<path d="M2520 301 c-18 -5 -24 -13 -22 -27 5 -25 20 -34 58 -34 68 0 91 63
24 67 -19 1 -46 -2 -60 -6z"/>
</g>
</svg>
