<?xml version="1.0" standalone="no"?>
<!DOCTYPE svg PUBLIC "-//W3C//DTD SVG 20010904//EN"
 "http://www.w3.org/TR/2001/REC-SVG-20010904/DTD/svg10.dtd">
<svg version="1.0" xmlns="http://www.w3.org/2000/svg"
 width="564.000000pt" height="456.000000pt" viewBox="0 0 564.000000 456.000000"
 preserveAspectRatio="xMidYMid meet">
<metadata>
Created by potrace 1.16, written by Peter Selinger 2001-2019
</metadata>
<g transform="translate(0.000000,456.000000) scale(0.100000,-0.100000)"
fill="#000000" stroke="none">
<path d="M655 4359 c-33 -16 -69 -39 -80 -50 l-20 -20 30 -24 29 -24 -28 -10
c-15 -6 -39 -11 -54 -11 -15 0 -44 -9 -65 -20 -20 -11 -52 -20 -71 -20 -22 0
-51 -12 -82 -33 -27 -19 -64 -41 -82 -51 -34 -18 -41 -36 -18 -55 8 -7 12 -20
9 -30 -3 -13 6 -21 36 -33 50 -20 60 -42 38 -80 -24 -41 -21 -63 9 -83 24 -16
26 -21 20 -65 -9 -67 5 -100 43 -100 33 0 61 -9 61 -19 0 -4 -23 -18 -50 -30
-63 -28 -76 -51 -61 -102 14 -47 24 -54 53 -35 15 9 64 17 139 22 113 6 115 6
144 -19 l30 -25 -18 -36 c-30 -64 -18 -87 32 -61 43 22 95 19 181 -12 76 -27
76 -27 125 -9 28 10 64 20 80 22 42 7 91 -26 100 -65 4 -17 16 -36 28 -43 48
-24 42 -43 -39 -128 -36 -38 -61 -78 -83 -130 -44 -106 -57 -123 -93 -118 -39
6 -43 -4 -19 -49 10 -21 22 -63 25 -93 3 -30 9 -69 12 -85 4 -22 -1 -38 -17
-58 -21 -28 -21 -29 -4 -61 14 -25 16 -43 11 -77 -5 -24 -11 -90 -14 -146 -9
-133 -14 -139 -125 -136 -111 3 -119 -3 -84 -66 15 -27 38 -78 51 -113 13 -35
36 -89 50 -120 17 -37 26 -74 26 -107 0 -62 -32 -150 -65 -181 -44 -41 -58
-135 -30 -193 9 -18 36 -47 61 -65 39 -29 43 -36 38 -60 -10 -41 -43 -103 -74
-138 -15 -17 -55 -84 -89 -148 -69 -129 -70 -137 -26 -207 45 -70 51 -72 264
-67 181 4 188 3 197 -16 6 -13 32 -28 69 -41 34 -11 76 -31 95 -45 37 -25 99
-90 100 -102 0 -13 35 -9 49 5 11 10 12 7 7 -16 -10 -40 1 -65 35 -82 32 -17
37 -36 14 -55 -23 -19 -18 -65 10 -98 47 -56 113 -89 192 -96 83 -8 96 -3 164
59 55 51 152 98 317 155 116 39 126 41 172 30 45 -11 51 -10 111 21 195 98
343 139 502 139 81 0 101 3 141 25 52 28 77 31 105 13 10 -6 26 -8 34 -5 38
15 97 150 97 224 0 45 49 97 155 167 46 31 89 64 94 75 20 36 66 60 126 65 59
5 98 24 119 60 9 13 7 19 -6 27 -22 12 -23 42 -3 59 8 7 17 28 21 47 4 19 13
37 22 40 11 5 13 18 8 64 -5 52 -4 58 15 64 25 8 35 32 44 113 6 51 12 66 32
80 51 34 83 71 83 94 0 21 -12 30 -75 57 -65 29 -79 40 -107 85 -28 44 -33 62
-36 131 -7 137 46 240 178 345 96 78 197 184 231 245 30 54 33 57 43 36 13
-29 43 -24 70 12 17 23 21 43 21 99 l0 71 98 55 c89 49 309 150 446 205 42 16
64 33 95 74 45 59 111 97 197 113 61 12 63 13 128 72 l51 46 -6 86 c-6 72 -4
89 9 104 16 17 15 20 -13 40 -40 30 -38 38 9 46 45 7 55 18 47 49 -3 15 -29
35 -77 60 l-72 37 -39 -26 c-31 -22 -52 -28 -116 -31 -45 -3 -97 -13 -125 -24
l-48 -20 -66 30 c-87 41 -111 40 -168 -9 -25 -22 -51 -40 -56 -40 -24 0 -49
22 -49 45 0 20 -15 31 -107 75 -155 74 -182 76 -183 13 0 -28 -33 -63 -60 -63
-10 0 -35 14 -54 30 -24 21 -52 34 -92 41 -69 13 -133 43 -206 97 -70 52 -77
54 -191 53 l-99 -1 -47 51 c-41 44 -54 52 -94 56 -43 5 -47 8 -58 42 -15 49
-34 62 -79 55 -31 -5 -38 -3 -42 13 -8 30 -159 41 -230 17 -64 -21 -202 -14
-328 17 -110 27 -123 27 -160 -5 -17 -14 -42 -26 -55 -26 -13 0 -62 18 -108
41 l-86 41 -48 -15 c-107 -35 -169 -41 -317 -29 -77 6 -219 17 -315 24 -123 9
-175 16 -178 25 -8 20 -59 15 -106 -9 -40 -22 -54 -23 -242 -23 -192 0 -203 2
-283 28 -46 16 -91 37 -100 48 -9 10 -26 19 -39 19 -12 0 -25 5 -28 10 -10 16
-26 12 -90 -21z"/>
</g>
</svg>
