<?xml version="1.0" standalone="no"?>
<!DOCTYPE svg PUBLIC "-//W3C//DTD SVG 20010904//EN"
 "http://www.w3.org/TR/2001/REC-SVG-20010904/DTD/svg10.dtd">
<svg version="1.0" xmlns="http://www.w3.org/2000/svg"
 width="416.000000pt" height="628.000000pt" viewBox="0 0 416.000000 628.000000"
 preserveAspectRatio="xMidYMid meet">
<metadata>
Created by potrace 1.16, written by Peter Selinger 2001-2019
</metadata>
<g transform="translate(0.000000,628.000000) scale(0.100000,-0.100000)"
fill="#000000" stroke="none">
<path d="M985 6135 c-48 -17 -91 -25 -139 -25 -69 0 -133 -23 -195 -69 l-22
-17 24 -43 c28 -48 92 -89 232 -148 97 -40 110 -41 65 -3 -48 41 -30 37 56
-10 40 -22 75 -40 78 -40 3 0 -6 16 -19 36 -14 20 -25 41 -25 45 0 21 53 5
155 -45 126 -63 225 -136 225 -167 0 -25 -62 -54 -136 -64 l-51 -6 -1 31 c-1
54 -41 83 -127 93 -28 3 -79 21 -118 41 -38 20 -75 36 -83 36 -30 0 -11 -20
48 -52 69 -36 138 -99 138 -125 0 -23 -69 -86 -123 -112 -56 -27 -76 -65 -55
-107 8 -18 25 -31 45 -36 20 -5 34 -16 38 -31 3 -12 11 -39 17 -59 12 -42 -1
-120 -34 -193 -10 -22 -18 -58 -18 -80 -1 -129 -161 -196 -254 -106 -50 48
-136 82 -224 88 -69 5 -79 3 -100 -16 -12 -12 -22 -25 -22 -29 0 -4 24 -7 53
-8 73 -1 170 -50 259 -133 87 -81 100 -108 92 -198 -5 -63 -4 -71 24 -114 29
-45 30 -50 25 -135 -4 -60 -11 -99 -23 -121 -10 -17 -16 -41 -13 -52 7 -26
-13 -51 -38 -51 -24 0 -37 -34 -32 -81 3 -22 -1 -49 -11 -67 -11 -21 -16 -58
-16 -117 0 -67 -6 -104 -26 -162 -24 -69 -24 -76 -10 -92 9 -10 23 -42 30 -72
13 -50 13 -56 -5 -85 -27 -44 -24 -66 16 -114 41 -49 42 -53 15 -80 -22 -22
-60 -26 -93 -9 -30 16 -37 28 -37 65 0 17 -9 57 -20 88 -18 54 -18 60 -3 97
12 31 13 46 5 64 -9 19 -7 26 9 41 10 9 19 28 19 41 l0 25 -37 -29 c-21 -17
-46 -33 -55 -36 -20 -7 -23 -33 -7 -74 6 -15 14 -64 19 -108 6 -57 26 -128 69
-248 95 -261 114 -339 117 -492 2 -119 6 -143 49 -295 25 -91 51 -198 57 -237
10 -64 10 -75 -5 -91 -9 -10 -17 -25 -17 -32 0 -7 23 -82 50 -166 52 -158 54
-192 16 -207 -17 -7 -23 -37 -7 -37 4 0 16 -30 26 -67 26 -96 91 -256 167
-408 49 -97 67 -144 71 -186 3 -33 18 -81 35 -115 16 -33 51 -120 77 -194 62
-177 132 -278 239 -344 98 -62 153 -85 244 -102 42 -8 90 -19 106 -24 23 -8
33 -7 49 7 18 17 20 17 39 -10 21 -28 21 -29 103 -22 56 5 85 4 89 -4 11 -17
52 -13 67 6 19 22 88 53 121 53 25 0 51 18 152 105 16 14 41 28 55 32 14 3 56
21 92 40 37 18 72 33 78 33 7 0 30 9 51 20 22 11 72 27 112 35 44 9 95 29 128
49 57 35 205 100 252 111 15 4 34 18 43 32 9 14 35 33 58 43 24 11 50 32 60
49 10 17 38 42 62 57 25 14 45 31 45 38 0 16 39 52 66 60 11 3 70 57 131 119
98 99 117 124 162 214 33 66 51 115 51 138 0 20 11 60 25 90 15 30 30 87 35
129 6 42 14 111 20 153 5 42 17 109 25 148 15 67 15 77 0 136 -11 40 -20 130
-25 239 l-7 175 -52 125 c-29 69 -63 163 -77 210 -34 119 -148 296 -206 320
-14 7 -45 32 -68 56 -22 24 -48 44 -56 44 -29 0 -64 50 -64 93 0 27 -8 48 -26
70 -18 21 -24 37 -19 54 5 20 2 23 -26 23 -48 0 -119 89 -119 150 0 12 -9 35
-20 51 -12 15 -29 52 -39 81 -11 29 -26 70 -35 91 -9 20 -23 69 -31 107 -23
109 -84 286 -106 306 -18 16 -22 16 -54 1 -28 -13 -35 -22 -35 -46 0 -31 -14
-41 -56 -41 -29 0 -84 26 -84 40 0 5 -9 14 -21 20 -16 9 -26 8 -44 -4 -14 -9
-27 -16 -30 -16 -11 0 -3 26 15 48 16 19 26 22 50 17 27 -6 30 -4 30 17 0 26
17 48 37 48 7 0 13 -11 13 -25 0 -14 5 -25 10 -25 15 0 11 42 -5 64 -8 11 -15
39 -15 62 0 30 -7 51 -23 71 -13 15 -37 49 -55 74 -17 25 -56 70 -86 99 -31
29 -60 68 -66 86 -9 27 -17 33 -43 36 -26 3 -44 19 -119 118 -130 168 -199
275 -237 365 -19 44 -49 100 -68 124 -49 66 -220 196 -573 437 -157 106 -278
218 -330 302 -17 29 -40 57 -50 62 -31 17 -91 11 -165 -15z"/>
<path d="M560 5970 c0 -39 1 -41 28 -38 24 3 27 7 27 38 0 31 -3 35 -27 38
-27 3 -28 1 -28 -38z"/>
<path d="M545 5909 c-8 -12 42 -92 68 -108 14 -9 22 -10 30 -2 17 17 44 13 86
-11 44 -25 74 -19 69 14 -2 18 -11 24 -43 28 -51 7 -65 16 -65 42 0 17 -4 19
-26 14 -17 -5 -30 -2 -38 7 -14 18 -73 30 -81 16z"/>
<path d="M426 5854 c-7 -19 2 -37 15 -29 12 8 12 45 0 45 -5 0 -12 -7 -15 -16z"/>
<path d="M494 5776 c-2 -6 -5 -22 -6 -36 -3 -23 0 -25 45 -28 l48 -3 -3 33
c-3 30 -7 33 -41 39 -25 4 -40 2 -43 -5z"/>
<path d="M428 5767 c-6 -16 1 -37 13 -37 12 0 12 37 0 44 -5 3 -11 0 -13 -7z"/>
<path d="M260 5639 c0 -31 17 -57 50 -74 36 -19 69 -19 76 -2 8 23 -14 67 -34
67 -10 0 -27 7 -38 15 -28 21 -54 19 -54 -6z"/>
<path d="M786 5301 c-3 -5 0 -13 7 -18 26 -21 37 -24 37 -11 0 16 -37 41 -44
29z"/>
</g>
</svg>
