<?xml version="1.0" standalone="no"?>
<!DOCTYPE svg PUBLIC "-//W3C//DTD SVG 20010904//EN"
 "http://www.w3.org/TR/2001/REC-SVG-20010904/DTD/svg10.dtd">
<svg version="1.0" xmlns="http://www.w3.org/2000/svg"
 width="1024.000000pt" height="1024.000000pt" viewBox="0 0 1024.000000 1024.000000"
 preserveAspectRatio="xMidYMid meet">
<metadata>
Created by potrace 1.16, written by Peter Selinger 2001-2019
</metadata>
<g transform="translate(0.000000,1024.000000) scale(0.100000,-0.100000)"
fill="#000000" stroke="none">
<path d="M7335 8756 c-15 -11 -20 -31 -24 -92 -7 -98 -18 -106 -136 -102 l-80
3 -79 68 c-43 38 -97 77 -120 88 -40 18 -113 19 -2433 19 l-2393 0 0 -595 0
-595 -287 -2 -288 -3 -3 -1275 -2 -1275 -148 0 c-254 0 -374 -27 -425 -97 -19
-25 -19 -31 -7 -102 7 -41 10 -86 6 -101 -4 -15 -38 -60 -77 -101 -71 -75 -99
-123 -99 -169 0 -21 -12 -33 -62 -63 -34 -20 -73 -48 -86 -60 -23 -23 -24 -28
-19 -98 4 -41 13 -90 22 -110 l14 -35 -85 -81 c-139 -133 -150 -169 -88 -285
43 -83 41 -95 -34 -185 -31 -37 -76 -91 -100 -118 -42 -50 -42 -51 -42 -131 0
-165 47 -195 217 -142 66 21 79 11 88 -65 4 -31 13 -76 21 -100 8 -23 14 -65
14 -93 0 -64 22 -116 55 -131 20 -9 25 -17 21 -32 -4 -12 -9 -54 -13 -94 l-6
-72 69 -69 c51 -51 83 -74 122 -87 60 -21 58 -9 28 -139 -17 -77 -10 -169 17
-221 31 -60 108 -154 217 -264 62 -63 119 -125 127 -137 8 -13 30 -82 48 -154
41 -160 58 -184 124 -174 24 4 79 10 123 15 65 6 84 12 106 33 26 24 34 26
157 29 l130 3 65 40 c36 22 75 47 88 56 33 24 62 87 62 135 0 71 16 80 175
105 77 12 165 24 196 26 l56 5 91 -121 c50 -66 112 -161 139 -211 72 -139 106
-168 221 -190 91 -18 174 -8 224 27 95 66 84 63 218 63 80 0 147 -6 183 -15
76 -20 151 -20 171 1 18 18 21 61 5 101 -7 18 -8 66 -3 135 l7 108 29 0 c16 0
43 -8 61 -17 26 -14 67 -18 232 -21 115 -2 205 -8 212 -14 9 -7 13 -38 13 -90
0 -93 18 -144 55 -158 68 -26 296 8 342 51 12 12 25 40 28 63 11 66 42 117
116 184 80 73 98 76 187 32 43 -22 100 -69 200 -165 77 -74 152 -139 167 -145
25 -10 204 -6 282 6 25 4 52 29 144 134 62 72 130 160 152 197 29 51 85 113
227 253 208 204 217 218 191 305 -24 81 -30 122 -31 213 0 78 -4 100 -25 142
-13 27 -29 51 -35 55 -28 18 -1 25 93 25 131 0 140 6 147 92 4 56 7 63 25 59
11 -2 62 -5 113 -8 80 -4 92 -7 88 -21 -16 -56 -46 -229 -52 -298 -6 -76 -4
-87 31 -189 34 -99 37 -114 30 -179 -6 -68 -5 -73 24 -113 17 -24 60 -65 96
-94 36 -28 65 -55 65 -61 0 -5 47 -57 104 -116 57 -59 108 -117 115 -129 17
-33 13 -107 -9 -163 -34 -86 -23 -217 20 -240 10 -6 45 -10 78 -10 70 0 107
23 117 73 3 17 17 66 30 107 13 41 27 92 30 114 5 27 18 50 47 78 39 39 40 41
35 92 -3 30 -19 80 -36 114 -17 34 -31 72 -31 86 0 25 83 146 100 146 6 0 35
-16 65 -36 47 -31 61 -36 95 -31 23 3 60 20 87 39 l47 34 13 99 c8 55 12 114
9 130 -2 17 5 50 15 75 22 54 37 167 31 232 -4 43 -1 50 35 90 59 65 91 112
113 163 29 68 80 141 153 218 l63 67 91 0 c76 0 94 3 117 21 40 32 50 57 56
154 6 75 17 119 69 265 47 132 64 196 70 261 6 55 17 102 32 130 15 31 24 70
28 134 6 78 4 98 -16 155 -12 36 -23 86 -23 112 0 25 -9 85 -20 132 -22 93
-19 111 23 139 13 8 30 30 37 49 6 18 21 54 31 80 10 26 26 75 34 110 8 36 28
95 45 132 17 37 35 92 41 122 5 29 21 78 34 107 38 83 50 156 36 226 -11 56
-10 61 14 96 22 33 25 48 25 126 l0 89 33 0 c17 0 49 -5 70 -11 59 -16 101 2
126 55 12 23 21 47 21 52 1 30 67 76 130 89 19 4 48 14 64 22 16 9 62 23 101
32 92 22 167 72 246 164 92 106 127 194 99 247 -5 10 -37 39 -71 64 -51 39
-68 46 -105 46 -43 0 -46 2 -64 43 -10 23 -29 54 -42 68 -42 47 -154 128 -219
157 -79 36 -149 107 -149 151 0 47 -28 167 -62 265 -26 77 -31 104 -29 176 1
47 -5 119 -14 160 -8 41 -19 143 -24 225 -7 111 -16 173 -35 239 -24 83 -25
91 -11 113 9 13 22 26 30 29 7 3 19 18 25 34 11 27 9 34 -32 97 -25 37 -66
111 -93 163 -26 52 -52 100 -57 107 -24 30 -27 75 -9 134 18 57 18 60 1 82
l-18 22 -819 3 c-687 2 -822 0 -838 -12z"/>
</g>
</svg>
