<?xml version="1.0" standalone="no"?>
<!DOCTYPE svg PUBLIC "-//W3C//DTD SVG 20010904//EN"
 "http://www.w3.org/TR/2001/REC-SVG-20010904/DTD/svg10.dtd">
<svg version="1.0" xmlns="http://www.w3.org/2000/svg"
 width="1024.000000pt" height="1024.000000pt" viewBox="0 0 1024.000000 1024.000000"
 preserveAspectRatio="xMidYMid meet">
<metadata>
Created by potrace 1.16, written by Peter Selinger 2001-2019
</metadata>
<g transform="translate(0.000000,1024.000000) scale(0.100000,-0.100000)"
fill="#000000" stroke="none">
<path d="M6534 8140 c-5 -5 -27 -12 -48 -16 -79 -12 -116 -38 -81 -58 10 -6
32 -23 49 -37 37 -30 137 -59 206 -59 38 0 50 -4 50 -15 0 -19 -8 -19 -110 1
l-83 15 -54 -52 c-29 -30 -53 -61 -53 -71 0 -10 30 -49 66 -88 37 -39 64 -73
61 -77 -8 -8 -167 158 -167 174 0 6 8 18 18 25 33 24 62 70 62 98 0 25 -4 28
-52 34 -29 3 -74 6 -100 6 -54 0 -94 13 -124 41 -27 25 -137 52 -186 46 -22
-3 -44 1 -56 9 -21 14 -107 17 -422 15 l-145 -1 -62 -56 c-67 -59 -75 -82 -43
-114 17 -17 33 -20 114 -20 52 0 107 5 123 11 35 13 159 14 193 1 25 -9 28 -9
-295 -30 -98 -7 -100 -8 -102 -32 0 -14 -1 -28 -2 -33 -1 -4 -14 -1 -31 8 -16
8 -53 15 -82 15 -40 0 -67 8 -111 31 -49 25 -75 32 -166 39 -67 5 -130 17
-167 31 -43 16 -92 23 -180 28 -111 5 -124 8 -161 34 -33 23 -48 27 -75 22
-28 -5 -40 -1 -72 24 -21 17 -52 33 -70 35 -76 12 -298 16 -366 7 -172 -24
-204 -48 -250 -189 -18 -53 -46 -122 -63 -152 -23 -41 -31 -70 -33 -117 -4
-78 -39 -151 -106 -216 -41 -40 -49 -53 -47 -80 6 -98 1 -114 -46 -148 -55
-39 -63 -75 -15 -65 l30 6 0 -59 c0 -39 5 -63 15 -71 20 -17 38 -2 31 25 -7
26 3 38 21 27 17 -11 83 -110 83 -125 0 -16 -42 -57 -58 -57 -7 0 -12 8 -12
18 0 11 -9 27 -20 37 -31 28 -66 7 -80 -47 -6 -24 -15 -56 -20 -72 -15 -44
-12 -56 15 -66 14 -5 25 -14 25 -19 0 -17 -19 -22 -41 -11 -17 10 -23 8 -35
-8 -7 -11 -25 -19 -39 -19 -14 0 -34 -8 -44 -17 -25 -22 -133 -22 -167 1 -22
14 -32 15 -74 4 -32 -8 -72 -10 -114 -6 -61 7 -68 5 -96 -18 -16 -14 -39 -28
-50 -32 -14 -5 -20 -15 -20 -37 l0 -31 -50 7 c-49 7 -52 5 -89 -31 -21 -21
-53 -51 -70 -66 -22 -21 -31 -38 -31 -60 0 -40 7 -50 45 -68 26 -13 30 -19 27
-51 -2 -33 1 -39 28 -53 26 -14 29 -18 19 -36 -7 -15 -7 -24 1 -34 8 -9 2 -32
-24 -91 -18 -44 -39 -97 -46 -118 -7 -22 -29 -58 -50 -80 -46 -51 -66 -102
-55 -142 13 -44 12 -48 -15 -54 -20 -5 -26 -13 -28 -43 -2 -27 -10 -42 -28
-54 -25 -16 -84 -131 -84 -163 0 -9 11 -33 24 -53 31 -46 32 -53 17 -102 -18
-58 -12 -99 17 -103 12 -2 35 -19 50 -38 19 -24 35 -34 54 -34 22 0 32 -8 47
-37 11 -21 34 -53 51 -72 39 -42 50 -70 50 -124 1 -61 16 -117 38 -140 11 -11
44 -27 73 -37 43 -15 55 -24 61 -46 9 -33 45 -73 77 -85 22 -9 23 -14 18 -59
-3 -27 -13 -63 -22 -81 -10 -18 -14 -41 -11 -55 9 -33 88 -78 125 -71 20 4 31
2 35 -8 7 -20 31 -19 67 2 27 16 29 16 52 -5 13 -12 33 -22 45 -22 23 0 56 27
64 51 4 11 8 10 22 -4 22 -21 104 -23 132 -2 27 21 30 19 43 -25 9 -32 9 -48
-1 -76 -10 -29 -10 -38 4 -62 16 -26 15 -31 -3 -71 -20 -45 -18 -61 7 -61 17
0 19 -31 2 -48 -16 -16 5 -16 32 0 15 10 22 10 32 0 9 -9 7 -17 -11 -36 l-23
-25 39 -20 c22 -11 45 -26 52 -35 18 -22 9 -50 -17 -54 -26 -4 -28 -11 -6 -27
15 -11 15 -14 1 -36 -20 -31 -9 -49 27 -46 39 3 42 -14 6 -38 -40 -27 -45 -44
-19 -71 14 -15 20 -31 16 -44 -4 -15 0 -20 14 -20 10 0 19 -7 19 -15 0 -18 23
-19 50 -3 27 17 36 3 19 -29 -7 -16 -15 -31 -17 -35 -2 -5 15 -8 39 -8 42 0
42 0 23 -21 -18 -20 -18 -21 30 -64 43 -40 47 -47 41 -76 -7 -30 -6 -31 19
-27 23 5 25 3 20 -19 -14 -55 -8 -80 24 -97 24 -13 28 -19 24 -50 -4 -31 -1
-36 22 -42 14 -3 33 -4 41 0 17 6 20 -15 5 -30 -15 -15 5 -64 26 -64 16 0 16
-1 1 -18 -24 -26 -21 -38 12 -52 49 -20 65 -44 57 -89 -6 -43 2 -54 46 -65 46
-11 60 -33 52 -82 -6 -42 -5 -44 61 -118 38 -41 80 -98 94 -127 34 -69 51 -79
91 -55 25 14 42 17 91 11 53 -6 62 -11 90 -46 20 -25 29 -47 26 -59 -7 -26 6
-33 29 -15 27 20 47 18 79 -6 25 -20 31 -21 77 -11 55 13 67 10 131 -42 32
-25 40 -28 47 -16 6 8 10 18 10 23 0 4 25 7 55 7 51 0 56 -2 86 -39 37 -47 53
-55 79 -39 15 10 33 8 89 -6 66 -17 73 -17 93 -2 13 9 38 26 55 39 40 27 41
41 6 111 l-26 54 21 30 c12 16 22 36 22 44 0 16 -57 72 -82 81 -12 4 -18 17
-18 34 0 43 -25 70 -71 78 -38 7 -40 9 -34 34 14 52 12 55 -54 73 -35 9 -66
20 -69 23 -3 3 9 20 26 38 24 25 32 42 32 70 0 42 9 46 35 17 21 -24 65 -27
65 -5 0 8 -4 15 -10 15 -23 0 -7 31 32 65 l43 36 -25 19 c-25 19 -25 19 -5 34
14 10 20 26 20 52 0 32 4 38 28 45 43 12 95 -9 148 -58 45 -42 51 -45 96 -41
45 3 48 2 51 -23 5 -41 33 -62 66 -49 15 5 52 10 82 10 30 0 99 9 152 19 118
24 195 32 208 23 5 -4 14 -16 20 -27 17 -31 37 -29 63 6 21 28 22 33 7 41 -20
11 -21 38 -2 38 7 0 16 14 20 30 4 23 11 30 29 30 13 0 28 -5 35 -12 8 -8 15
-8 26 1 13 11 17 9 27 -13 14 -30 34 -34 43 -9 5 12 9 14 18 5 19 -19 41 -15
35 7 -3 12 1 22 10 25 9 4 12 13 9 24 -5 14 1 22 21 31 19 9 29 9 31 2 3 -8 9
-8 23 -1 17 10 19 7 19 -30 0 -39 12 -52 26 -29 3 6 15 8 26 6 12 -4 26 2 36
16 47 59 81 87 108 87 15 0 38 10 51 22 l23 21 0 -25 c0 -16 -9 -32 -25 -42
-14 -9 -25 -22 -25 -30 0 -23 66 -98 99 -112 25 -10 31 -19 31 -43 0 -28 3
-30 44 -36 46 -7 97 11 113 40 11 18 92 30 113 16 12 -9 13 -14 3 -30 -8 -13
-9 -22 -3 -26 16 -10 11 -22 -10 -28 -24 -6 -27 -39 -5 -57 12 -10 13 -16 3
-27 -9 -11 -9 -16 3 -24 19 -12 236 -11 259 1 13 7 21 26 25 65 9 67 27 89 69
82 43 -6 59 4 110 76 31 44 50 83 62 132 14 58 24 78 62 117 37 38 43 51 38
72 -5 22 -1 29 32 50 40 25 69 87 56 120 -4 10 2 23 17 35 22 17 22 21 10 60
-13 46 -8 76 14 85 17 6 21 46 5 46 -7 0 -8 13 -4 35 4 25 1 43 -11 62 -16 24
-16 27 -1 38 10 8 16 26 16 49 0 30 -5 38 -25 46 -14 5 -28 16 -31 23 -8 22
24 87 45 87 22 0 48 28 81 88 22 42 29 47 63 50 l37 3 0 55 c0 52 3 58 40 96
30 29 39 45 35 59 -16 49 -8 146 14 189 l22 43 -23 24 c-18 19 -30 24 -55 20
-31 -5 -32 -4 -77 86 -25 51 -49 104 -55 120 -8 21 -17 27 -40 27 -45 0 -61
10 -61 38 0 17 -13 36 -40 59 -29 25 -40 42 -40 63 0 20 -6 31 -21 35 -16 5
-19 12 -14 35 6 26 1 32 -54 69 -33 22 -62 49 -65 59 -4 10 5 48 18 84 22 58
23 67 10 86 -8 12 -28 22 -47 24 -31 3 -32 4 -29 43 9 108 2 200 -18 227 -11
15 -20 38 -20 52 0 14 -8 30 -19 35 -27 15 -37 121 -14 139 9 6 25 33 35 59
16 42 16 49 2 64 -10 11 -13 26 -8 43 3 15 1 32 -6 41 -6 7 -10 28 -8 46 3 29
-1 33 -32 44 l-35 12 -8 89 c-11 118 -5 155 27 188 21 20 25 32 20 49 -19 60
4 133 63 199 54 60 118 147 138 188 26 53 52 76 111 100 44 18 55 28 64 56 8
24 27 44 63 68 66 42 83 61 102 116 9 26 30 56 50 73 l35 28 0 98 c0 85 3 104
25 145 14 26 25 52 25 57 0 6 -16 25 -35 43 -19 19 -35 42 -35 53 0 32 -21 43
-127 68 -54 12 -127 32 -163 44 -76 24 -222 61 -265 66 -16 2 -77 13 -134 25
-58 12 -118 20 -136 17 -17 -3 -42 1 -55 9 -14 7 -37 13 -52 14 -14 0 -53 6
-85 14 -68 17 -456 29 -469 16z"/>
</g>
</svg>
