<?xml version="1.0" standalone="no"?>
<!DOCTYPE svg PUBLIC "-//W3C//DTD SVG 20010904//EN"
 "http://www.w3.org/TR/2001/REC-SVG-20010904/DTD/svg10.dtd">
<svg version="1.0" xmlns="http://www.w3.org/2000/svg"
 width="666.000000pt" height="1024.000000pt" viewBox="0 0 666.000000 1024.000000"
 preserveAspectRatio="xMidYMid meet">
<metadata>
Created by potrace 1.16, written by Peter Selinger 2001-2019
</metadata>
<g transform="translate(0.000000,1024.000000) scale(0.100000,-0.100000)"
fill="#000000" stroke="none">
<path d="M4107 9703 c-56 -5 -70 -24 -39 -53 50 -47 46 -148 -9 -248 l-29 -52
25 -12 c30 -14 31 -30 4 -74 -19 -32 -22 -33 -47 -20 -63 32 -197 69 -248 68
-37 0 -60 5 -77 18 -38 30 -67 30 -97 -2 -23 -25 -26 -75 -9 -161 12 -59 10
-69 -38 -184 l-13 -32 -51 35 c-83 55 -85 55 -171 -29 l-75 -73 -17 -84 c-21
-102 -38 -137 -78 -158 -17 -10 -39 -25 -50 -35 -18 -17 -17 -18 6 -65 34 -65
66 -149 66 -172 0 -11 -26 -48 -57 -83 -35 -39 -80 -106 -112 -168 -30 -57
-65 -119 -79 -138 -24 -32 -25 -37 -15 -95 l10 -61 -52 -52 c-47 -48 -56 -53
-97 -53 -25 0 -60 -3 -77 -6 l-31 -6 0 -73 c0 -39 5 -86 11 -102 8 -24 7 -39
-5 -68 -11 -26 -16 -70 -16 -146 0 -102 -2 -113 -30 -166 -19 -36 -30 -70 -30
-97 0 -25 -9 -55 -22 -76 -12 -19 -57 -93 -100 -164 l-79 -130 19 -25 c10 -14
38 -35 61 -47 l44 -21 3 -98 c3 -88 1 -103 -22 -146 -13 -27 -28 -49 -32 -49
-4 0 -50 12 -101 25 -117 31 -133 31 -197 1 -52 -24 -84 -59 -149 -161 -21
-33 -48 -73 -61 -88 -20 -23 -23 -36 -18 -68 6 -33 1 -48 -35 -109 l-42 -70
27 -96 27 -95 -22 -20 c-11 -11 -21 -21 -21 -22 0 -1 7 -27 15 -57 13 -51 13
-57 -7 -96 l-20 -42 34 -117 34 -117 -32 -140 c-54 -230 -54 -215 6 -281 29
-31 61 -57 71 -57 10 0 19 -6 19 -13 0 -7 18 -36 40 -66 46 -61 51 -102 20
-153 -11 -18 -20 -47 -20 -64 0 -42 -13 -50 -94 -57 -38 -4 -70 -8 -72 -10 -2
-2 1 -19 6 -38 6 -18 10 -48 10 -66 0 -18 18 -77 40 -132 22 -54 40 -108 40
-119 0 -11 -11 -42 -25 -69 -22 -42 -24 -52 -14 -84 16 -52 5 -83 -49 -141
-57 -61 -88 -78 -143 -78 l-42 0 7 -50 c8 -59 -11 -105 -48 -114 -32 -8 -40
-44 -20 -97 20 -59 30 -164 15 -173 -6 -4 -11 -24 -11 -44 0 -48 -42 -162 -64
-174 -24 -14 -36 -1 -36 38 0 84 -68 134 -105 78 -28 -44 -35 -80 -18 -103 10
-15 14 -44 13 -99 -1 -42 1 -100 5 -129 5 -36 3 -65 -7 -95 -8 -24 -13 -49
-11 -55 6 -18 28 -16 43 2 20 24 26 17 22 -27 -4 -43 -4 -43 16 -25 11 10 23
34 26 53 7 33 19 43 31 25 3 -5 -6 -26 -19 -46 -18 -26 -24 -45 -20 -64 5 -22
1 -31 -20 -44 -14 -10 -26 -25 -26 -34 0 -13 8 -15 40 -10 30 4 40 2 40 -9 0
-12 4 -12 24 1 29 20 40 7 31 -35 -4 -16 -5 -31 -4 -32 1 -2 -4 -14 -11 -28
-8 -14 -13 -30 -12 -37 1 -6 -2 -14 -8 -18 -14 -9 -13 -62 2 -68 9 -3 7 -9 -6
-19 -22 -17 -14 -38 14 -38 10 0 22 -5 25 -10 3 -6 -1 -10 -9 -10 -23 0 -20
-28 4 -35 21 -7 24 -26 20 -122 -1 -34 2 -43 15 -43 8 0 19 10 24 22 5 15 10
18 15 9 4 -6 2 -19 -5 -27 -9 -11 -9 -18 4 -32 10 -11 13 -27 10 -45 -4 -19 0
-32 11 -40 9 -7 19 -30 23 -52 3 -22 14 -51 25 -64 10 -13 18 -34 18 -46 0
-12 18 -40 39 -63 22 -22 48 -65 59 -94 13 -36 29 -58 48 -68 32 -18 47 -61
33 -97 -8 -22 -14 -25 -42 -21 -17 3 -38 3 -44 1 -15 -5 -17 -33 -3 -33 11 0
50 -72 50 -94 0 -7 -7 -17 -16 -20 -16 -6 -28 0 -68 36 -11 10 -21 16 -22 15
-6 -6 36 -133 59 -182 14 -28 28 -65 32 -83 3 -18 15 -37 26 -42 12 -7 19 -21
19 -40 0 -18 8 -34 21 -44 28 -19 19 -58 -17 -75 -27 -12 -28 -19 -8 -90 6
-20 4 -22 -15 -16 -20 6 -23 2 -21 -32 1 -5 12 -7 25 -5 14 2 52 -6 86 -18 61
-22 62 -22 118 -4 31 11 58 22 61 25 3 3 27 9 55 12 37 4 59 0 87 -14 50 -25
64 -24 85 8 9 16 26 38 37 51 19 22 19 24 4 55 -26 49 -48 108 -48 125 0 8 24
51 52 94 54 80 75 93 104 63 18 -17 24 -18 44 -5 12 8 13 14 2 42 -19 49 -19
53 3 50 71 -9 254 -4 287 8 46 17 103 4 103 -25 0 -31 23 -28 40 4 8 17 19 31
24 31 4 0 14 26 21 58 18 84 31 123 51 162 11 19 19 42 19 51 0 9 11 24 25 33
14 9 25 25 25 36 0 10 10 28 22 40 13 12 17 20 9 20 -10 0 -11 10 -6 38 4 20
7 56 7 80 0 29 5 42 15 42 22 0 26 27 9 52 -18 25 -22 118 -6 118 6 0 10 9 10
20 0 11 9 29 20 40 35 35 23 103 -22 124 -10 5 -10 7 0 12 6 3 12 16 12 30 0
17 7 25 25 30 34 8 32 20 -15 70 -48 52 -53 78 -12 72 15 -3 34 -8 43 -12 26
-11 32 22 9 51 -24 31 -25 43 -5 43 19 0 19 17 0 54 -18 33 -18 36 -6 36 5 0
13 -10 17 -22 6 -21 7 -21 20 -3 20 27 17 62 -6 82 -13 12 -20 30 -20 54 0 29
-6 42 -27 58 l-28 21 48 -7 47 -6 0 32 c0 18 -7 45 -15 60 -15 30 -52 40 -159
42 -51 1 -51 1 -18 12 25 7 59 7 126 -2 65 -9 99 -10 112 -3 10 6 28 14 39 17
19 7 19 7 -3 18 -35 16 -20 32 26 29 33 -3 44 1 54 17 7 12 21 21 30 21 13 0
18 8 18 30 0 20 5 30 15 30 21 0 35 41 35 106 0 47 3 55 18 52 13 -2 18 -17
23 -66 6 -67 26 -99 53 -89 9 4 16 14 16 24 0 71 37 113 98 113 49 0 69 44 37
86 -15 20 -20 64 -8 64 4 0 17 -12 29 -27 22 -28 22 -28 43 -9 24 22 27 53 6
80 -22 30 -18 52 15 79 30 26 39 47 19 47 -24 0 -48 -22 -54 -50 -4 -16 -11
-30 -16 -30 -5 0 -9 -11 -9 -25 0 -20 -5 -25 -24 -25 -35 0 -56 -10 -56 -26 0
-10 -13 -14 -46 -14 -33 0 -54 -7 -77 -24 -23 -18 -37 -22 -47 -16 -8 5 -26
10 -40 10 -14 0 -33 7 -43 15 -22 16 -47 9 -47 -13 0 -12 -3 -13 -12 -4 -9 9
-9 19 0 45 18 49 16 54 -25 67 -21 7 -44 19 -50 28 -12 14 -14 14 -30 0 -12
-11 -50 -18 -118 -22 l-100 -7 33 20 c23 15 32 28 32 48 l0 27 28 -27 c34 -33
45 -34 65 -4 13 19 18 20 36 9 13 -8 35 -10 55 -7 26 5 39 1 63 -19 37 -31 49
-32 56 -6 5 20 6 20 42 -2 35 -22 61 -45 99 -90 25 -28 70 -21 74 12 5 35 19
49 58 56 40 7 124 79 160 135 18 30 31 38 63 44 23 4 44 11 47 17 8 13 -14 27
-46 29 -17 1 -19 3 -7 6 9 2 17 10 17 18 0 8 7 11 20 8 31 -8 24 9 -20 52 -26
25 -42 52 -46 74 -9 48 -16 59 -25 35 -6 -17 -8 -17 -17 7 -13 33 -33 41 -49
20 -11 -14 -12 -14 -13 1 0 9 -7 21 -15 25 -13 8 -58 83 -50 83 2 0 17 -14 34
-31 17 -17 35 -28 41 -24 17 11 11 25 -15 37 -27 12 -36 52 -10 42 20 -8 19 3
-5 33 -11 14 -20 34 -20 44 0 10 -4 21 -10 24 -15 9 -13 -68 2 -83 10 -10 5
-11 -21 -6 -40 8 -95 63 -121 122 -11 23 -25 42 -32 42 -24 0 -58 -31 -58 -51
0 -39 -25 -12 -30 32 -5 41 -7 44 -35 44 -50 1 -95 16 -95 31 0 8 5 14 11 14
15 0 2 98 -17 127 -17 28 -18 50 -1 56 10 4 10 7 0 18 -16 16 -17 152 -2 181
9 16 7 23 -10 35 -21 14 -29 53 -11 53 6 0 10 14 10 30 0 17 -4 30 -10 30 -5
0 -10 14 -10 30 0 17 5 30 10 30 6 0 10 9 10 20 0 11 5 20 10 20 7 0 7 6 0 20
-7 14 -7 20 0 20 10 0 24 -14 55 -55 13 -17 16 -18 25 -5 16 24 11 51 -10 57
-24 6 -33 33 -33 101 0 32 6 59 15 70 10 11 17 49 21 108 6 84 5 94 -15 120
-28 34 -38 124 -14 124 8 0 24 -13 36 -30 26 -37 63 -41 58 -7 -2 17 2 22 17
20 17 -2 24 11 44 73 23 72 23 77 8 109 -15 31 -15 36 -1 50 23 23 37 18 30
-10 -6 -22 -3 -25 18 -25 28 0 42 16 37 45 -2 16 0 18 10 8 26 -25 55 -14 50
20 0 4 4 7 9 7 6 0 10 5 10 10 0 6 -7 10 -15 10 -8 0 -15 5 -15 10 0 6 12 10
26 10 14 0 23 4 19 10 -3 6 -18 10 -33 10 -15 0 -34 5 -42 10 -13 8 -12 10 3
10 9 0 17 5 17 10 0 6 9 10 21 10 12 0 23 8 26 20 3 11 10 20 15 20 6 0 8 9 5
20 -4 16 0 20 18 20 18 0 24 7 29 35 8 40 34 47 54 15 17 -28 29 -25 35 9 4
16 15 38 26 48 10 10 24 37 30 61 9 32 17 42 33 42 17 0 20 4 15 29 -9 42 1
43 37 3 35 -38 56 -37 56 4 0 14 6 24 14 24 8 0 18 9 21 20 3 11 12 20 20 20
7 0 16 11 19 25 5 21 10 24 36 18 24 -4 30 -2 30 12 0 12 6 16 19 12 15 -3 21
4 30 34 10 33 16 39 40 39 35 0 52 34 81 165 25 107 57 166 111 202 22 14 39
34 39 44 0 10 9 24 20 31 11 7 20 16 20 20 0 5 -9 8 -20 8 -11 0 -20 5 -20 10
0 6 -8 10 -17 10 -17 1 -17 1 0 14 26 20 21 36 -13 43 -17 3 -34 13 -39 22 -9
17 -7 73 3 89 3 5 -14 15 -39 21 -44 11 -62 31 -27 31 27 1 53 25 46 45 -5 11
3 25 22 43 62 58 76 134 34 189 -13 18 -20 36 -16 40 4 4 9 -3 13 -15 7 -28
43 -30 43 -3 0 12 -11 26 -26 33 -37 18 -35 32 3 34 17 1 45 7 61 15 48 21 66
69 26 69 -8 0 -14 5 -14 10 0 6 9 10 21 10 11 0 29 5 40 10 13 7 19 7 19 0 0
-5 9 -10 20 -10 27 0 25 14 -2 29 -22 11 -22 11 5 8 32 -5 47 11 23 25 -9 5
-14 14 -10 19 3 6 -2 17 -12 24 -18 14 -18 14 6 15 22 1 23 2 9 13 -11 9 -14
24 -11 55 4 45 26 58 37 22 4 -13 15 -20 31 -20 21 0 24 5 24 35 0 19 5 35 10
35 6 0 10 -6 10 -13 0 -19 43 -57 64 -57 10 0 20 -9 23 -20 5 -21 6 -21 19 -1
8 11 11 27 7 37 -6 15 -1 16 35 11 23 -3 42 -2 42 3 0 13 73 18 104 7 23 -8
30 -7 38 7 5 9 18 16 28 16 11 0 20 3 20 8 0 4 -21 56 -45 117 -32 76 -55 117
-77 135 -23 19 -32 38 -39 75 -4 28 -11 64 -14 80 -5 23 0 39 19 68 21 31 26
50 26 103 0 36 5 74 10 84 8 15 -1 33 -50 99 -68 90 -90 135 -90 185 0 25 6
38 20 46 42 22 11 110 -39 110 -34 0 -45 25 -31 73 10 37 9 53 -4 97 -20 67
-20 114 -1 130 23 19 18 36 -19 77 -18 21 -38 48 -45 61 -6 12 -20 22 -30 22
-13 0 -21 10 -25 33 -14 77 -122 153 -233 164 -46 5 -56 10 -68 33 -9 17 -25
30 -43 33 -18 4 -31 14 -35 26 -3 12 -15 21 -33 23 -20 2 -34 12 -44 33 -23
46 -94 115 -118 115 -18 0 -22 6 -22 33 0 57 -10 60 -143 50z m-124 -6230 c-7
-2 -19 -2 -25 0 -7 3 -2 5 12 5 14 0 19 -2 13 -5z"/>
<path d="M3930 3734 c0 -9 5 -14 12 -12 18 6 21 28 4 28 -9 0 -16 -7 -16 -16z"/>
<path d="M3970 3144 c0 -9 5 -14 12 -12 18 6 21 28 4 28 -9 0 -16 -7 -16 -16z"/>
<path d="M3945 3099 c-4 -6 -5 -12 -2 -15 7 -7 37 7 37 17 0 13 -27 11 -35 -2z"/>
<path d="M3853 3003 c-3 -10 -8 -21 -10 -25 -2 -4 1 -9 6 -12 5 -4 16 7 24 24
13 26 14 30 1 30 -8 0 -17 -8 -21 -17z"/>
<path d="M3817 2933 c-12 -11 -7 -33 7 -33 7 0 16 9 19 20 5 19 -12 28 -26 13z"/>
<path d="M1515 2361 c-35 -7 -42 -28 -20 -56 15 -20 16 -19 40 10 24 29 33 56
18 54 -5 -1 -21 -4 -38 -8z"/>
<path d="M4118 2275 c-8 -18 -9 -31 -2 -43 17 -26 33 -25 43 1 6 14 21 27 36
31 39 10 25 31 -23 34 -37 3 -43 0 -54 -23z"/>
<path d="M4032 2223 c-20 -27 -21 -27 -22 -5 0 27 -25 29 -40 3 -5 -11 -18
-22 -29 -26 -10 -3 -31 -29 -46 -58 -16 -28 -41 -68 -56 -87 -36 -46 -44 -81
-29 -135 11 -38 10 -47 -6 -74 -14 -24 -16 -33 -6 -43 7 -7 12 -22 12 -34 0
-13 5 -26 10 -29 6 -3 10 -17 10 -30 0 -13 6 -25 13 -28 9 -3 9 -7 1 -18 -17
-21 -25 -67 -14 -74 11 -7 56 23 65 44 3 7 1 19 -5 26 -11 13 -3 45 11 45 5 0
9 6 9 13 0 13 63 67 79 67 17 0 22 19 12 38 -13 24 1 43 48 69 46 25 48 38 11
51 -27 10 -30 15 -30 54 0 24 -3 52 -6 64 -4 16 6 33 40 69 25 26 46 54 46 62
0 24 -20 54 -32 47 -5 -4 -14 -1 -18 6 -5 8 -14 3 -28 -17z"/>
<path d="M3409 1847 c-18 -10 -25 -23 -29 -57 -8 -69 -71 -227 -93 -237 -13
-6 -32 -45 -59 -118 -39 -109 -39 -111 -32 -217 3 -60 10 -108 14 -108 12 0
50 96 50 127 0 15 9 48 20 71 11 24 24 71 30 104 5 33 19 79 30 103 12 24 23
61 26 84 2 22 16 64 29 93 14 29 25 63 25 76 0 13 7 36 15 52 18 34 8 44 -26
27z"/>
</g>
</svg>
