<?xml version="1.0" standalone="no"?>
<!DOCTYPE svg PUBLIC "-//W3C//DTD SVG 20010904//EN"
 "http://www.w3.org/TR/2001/REC-SVG-20010904/DTD/svg10.dtd">
<svg version="1.0" xmlns="http://www.w3.org/2000/svg"
 width="1024.000000pt" height="768.000000pt" viewBox="0 0 1024.000000 768.000000"
 preserveAspectRatio="xMidYMid meet">
<metadata>
Created by potrace 1.16, written by Peter Selinger 2001-2019
</metadata>
<g transform="translate(0.000000,768.000000) scale(0.100000,-0.100000)"
fill="#000000" stroke="none">
<path d="M5828 6969 c-13 -7 -16 -17 -12 -39 6 -27 3 -29 -33 -39 -22 -6 -61
-14 -87 -17 -52 -8 -75 -34 -95 -111 -9 -32 -21 -49 -54 -70 -42 -29 -42 -29
-43 -92 0 -49 3 -64 15 -69 9 -3 37 -20 62 -39 57 -41 79 -41 138 -4 55 35
146 50 191 31 23 -10 30 -19 30 -41 0 -15 -4 -31 -10 -34 -5 -3 -10 1 -10 10
0 9 -6 15 -12 13 -8 -3 -14 -30 -16 -73 -5 -109 -29 -122 -80 -45 -27 42 -37
50 -63 50 -49 0 -105 -39 -120 -82 -11 -34 -16 -38 -56 -44 -61 -9 -192 0
-225 16 -16 7 -33 28 -42 50 -11 29 -22 39 -54 48 -22 7 -55 12 -75 12 -55 0
-135 -20 -140 -35 -3 -7 -31 -24 -61 -38 -39 -18 -62 -37 -77 -61 -11 -19 -28
-37 -37 -40 -52 -14 -97 -18 -220 -18 -146 1 -145 0 -156 54 -6 28 -3 27 -137
42 -46 5 -47 5 -80 -44 -39 -57 -55 -66 -167 -90 -88 -19 -116 -17 -172 16
-34 21 -39 34 -11 34 13 0 24 13 35 40 9 22 16 45 16 50 0 17 -35 11 -127 -21
-100 -35 -141 -58 -196 -108 l-39 -36 22 -17 c31 -25 23 -62 -13 -66 -22 -3
-27 -7 -21 -20 18 -44 16 -60 -10 -77 -24 -16 -28 -16 -51 -1 -25 16 -75 22
-75 9 1 -5 7 -19 15 -33 22 -39 18 -72 -14 -107 -35 -39 -48 -42 -174 -45 -91
-3 -97 -2 -98 17 0 11 -4 28 -8 38 -6 16 -13 10 -44 -37 -38 -57 -53 -67 -63
-41 -3 8 -22 19 -42 26 -86 28 -105 62 -73 134 l20 45 -37 0 c-20 0 -56 7 -78
15 -33 11 -54 12 -107 3 -55 -9 -70 -8 -98 6 -32 16 -36 16 -71 -1 -43 -21
-44 -27 -21 -95 l18 -50 -39 -33 c-21 -19 -51 -37 -67 -40 -24 -5 -29 -12 -29
-35 0 -21 -8 -33 -30 -47 -36 -21 -78 -81 -87 -125 -6 -29 -4 -31 18 -25 13 3
62 9 109 12 47 4 99 11 117 16 39 12 63 2 93 -41 26 -37 20 -64 -21 -80 -17
-7 -38 -24 -47 -37 -8 -14 -26 -29 -38 -33 -40 -16 -59 -57 -57 -126 l2 -63
-70 -51 c-68 -51 -149 -134 -149 -153 0 -20 -154 -167 -186 -177 -27 -9 -34
-17 -34 -37 0 -28 -33 -64 -80 -88 -43 -22 -65 -69 -50 -106 17 -40 -11 -81
-103 -153 -61 -48 -92 -64 -187 -95 -63 -21 -136 -51 -161 -67 -42 -26 -49
-36 -63 -87 -16 -56 -16 -60 4 -104 27 -60 25 -103 -6 -181 -35 -87 -40 -125
-20 -141 10 -8 16 -29 16 -55 0 -46 -23 -75 -87 -112 -31 -17 -33 -17 -53 1
-25 23 -29 19 -44 -47 -11 -52 -13 -54 -87 -98 -97 -58 -379 -325 -379 -359 0
-12 12 -38 26 -57 25 -32 26 -35 10 -57 -31 -42 -83 -122 -119 -183 -35 -59
-36 -64 -30 -128 4 -46 3 -66 -6 -66 -25 0 -8 -21 46 -57 64 -42 103 -93 103
-132 0 -15 -16 -65 -36 -111 -23 -56 -37 -106 -40 -150 -3 -36 -7 -75 -10 -87
-4 -23 -51 -44 -82 -36 -11 2 -48 -10 -83 -27 -128 -65 -140 -84 -94 -152 29
-42 30 -58 11 -96 -7 -15 -17 -38 -21 -52 -7 -23 -7 -24 16 -9 57 37 210 52
259 25 21 -12 29 -12 61 4 19 10 55 44 80 76 49 64 157 148 243 191 31 15 56
30 56 33 0 3 -15 21 -32 40 -23 24 -43 36 -71 40 -40 5 -41 6 -64 75 -14 42
-22 81 -19 99 7 33 95 158 140 199 41 36 90 57 135 57 60 0 97 16 187 81 149
107 260 116 525 44 192 -53 203 -61 197 -141 -3 -38 -12 -62 -35 -90 -16 -22
-32 -46 -35 -54 -7 -21 27 -84 71 -133 21 -23 48 -60 60 -82 l22 -40 -42 -90
c-62 -135 -95 -284 -71 -322 4 -7 45 -21 91 -32 76 -18 110 -38 111 -64 0 -5
-8 -21 -18 -35 -27 -38 -25 -155 1 -160 10 -2 27 4 37 13 28 25 61 10 116 -53
94 -108 112 -137 139 -222 29 -94 35 -106 96 -176 56 -65 83 -82 145 -90 74
-9 145 9 257 66 l98 49 78 -9 c91 -12 119 -4 198 58 59 47 124 82 153 82 13 0
28 13 41 35 33 56 44 57 163 26 118 -31 147 -48 190 -110 27 -41 31 -43 66
-37 25 4 51 0 76 -10 43 -18 159 -35 180 -27 8 3 14 16 14 29 0 37 55 138 86
158 14 10 63 27 107 37 45 11 89 27 98 35 29 26 57 106 64 184 8 85 25 120 58
120 48 0 130 75 163 148 20 45 23 63 17 115 -7 69 -46 158 -87 196 -36 34 -33
57 17 106 32 32 55 45 97 55 72 17 95 34 155 119 28 39 62 76 78 82 60 25 106
106 76 136 -31 31 51 114 137 139 82 23 134 21 156 -8 35 -46 36 -230 2 -368
-9 -36 -17 -103 -17 -150 -1 -114 11 -136 105 -185 86 -45 116 -76 198 -206
45 -73 69 -100 93 -110 18 -7 53 -26 78 -41 55 -33 89 -35 114 -8 24 26 33 25
61 -5 19 -21 32 -25 78 -25 56 0 71 -8 103 -56 20 -32 10 -72 -33 -129 -29
-38 -84 -143 -84 -160 0 -3 12 -5 26 -5 15 0 59 -19 99 -42 73 -41 74 -42 121
-137 40 -81 47 -105 48 -156 0 -33 -3 -75 -8 -92 -8 -33 -8 -33 30 -33 20 0
67 -10 102 -22 l65 -22 29 35 c40 46 98 162 98 194 0 35 -27 85 -46 85 -36 0
-73 31 -84 69 -5 21 -17 44 -25 51 -22 19 -19 30 22 72 l36 37 -16 52 c-10 28
-17 59 -17 69 0 21 56 66 95 76 35 9 59 63 52 118 -6 42 11 96 41 129 9 11 50
42 90 69 64 45 74 56 84 95 6 27 20 50 36 61 49 33 70 64 83 115 6 29 29 91
50 138 44 97 49 148 24 239 -10 34 -13 73 -9 102 5 42 3 52 -21 80 -24 28 -26
37 -20 77 7 49 44 130 69 150 9 7 45 14 83 14 62 2 68 0 71 -19 4 -30 65 -86
85 -79 8 4 20 19 26 35 10 29 57 68 68 57 3 -4 8 -90 11 -192 l5 -186 29 -24
c16 -14 33 -25 38 -25 4 0 20 -31 35 -69 27 -72 62 -116 105 -133 32 -13 227
-23 273 -14 47 9 79 57 71 107 -4 25 -1 41 13 58 l19 23 47 -23 48 -24 92 47
c51 26 111 50 134 54 37 6 42 4 55 -20 l13 -25 30 19 c27 18 31 18 56 3 29
-17 31 -24 44 -147 6 -54 11 -63 65 -118 65 -67 80 -94 80 -143 0 -34 1 -35
41 -35 59 0 165 52 185 92 22 42 12 69 -49 136 -29 31 -58 71 -65 88 -18 44
-2 101 42 146 34 35 52 86 44 125 -3 18 -16 23 -140 59 -74 21 -96 50 -73 94
14 27 14 32 0 53 -12 19 -14 41 -9 112 7 85 9 91 45 130 28 30 42 58 55 108
l16 67 112 35 c129 40 156 43 181 15 14 -15 16 -29 11 -72 -7 -61 -3 -69 44
-88 19 -7 50 -27 68 -44 29 -27 39 -30 100 -31 37 0 97 -9 133 -20 36 -10 73
-16 82 -12 35 13 52 68 52 169 0 88 -2 99 -24 122 -18 19 -35 26 -61 26 -48 0
-86 30 -101 80 -11 37 -10 43 15 79 19 27 29 55 31 92 3 37 11 59 24 70 27 22
44 90 31 124 -16 43 -12 68 19 105 34 42 42 73 43 170 0 40 6 96 12 124 19 82
11 103 -65 173 -19 17 -45 50 -58 72 -14 23 -33 43 -42 46 -53 17 -169 -116
-169 -193 0 -35 -17 -42 -84 -35 l-45 5 -20 -43 c-11 -24 -23 -61 -26 -81 -7
-44 -47 -79 -124 -109 -79 -29 -178 2 -261 83 -37 36 -63 50 -145 77 -185 62
-208 89 -193 225 7 70 7 91 -3 97 -10 6 -8 18 10 54 13 26 19 50 15 55 -5 4
-92 35 -193 69 l-185 61 -51 -36 c-51 -35 -53 -35 -166 -37 -122 -2 -227 15
-236 39 -8 22 42 80 97 110 28 15 50 30 50 34 0 4 -17 19 -37 32 -30 20 -44
40 -65 96 -33 85 -35 137 -8 224 22 73 97 211 157 289 23 31 45 75 52 104 7
28 29 72 50 100 56 74 61 86 61 169 0 73 -1 77 -32 106 -18 16 -47 34 -65 40
-37 13 -96 101 -107 160 -7 33 -23 45 -285 215 -154 99 -294 185 -312 192 -19
7 -58 12 -87 12 -45 1 -54 4 -63 25 -10 22 -18 24 -117 29 -59 4 -144 9 -189
13 -78 6 -82 6 -107 -19 -35 -35 -117 -60 -176 -55 -39 4 -59 14 -99 47 -49
41 -59 71 -23 71 12 0 10 6 -9 26 -37 40 -95 74 -128 74 -24 0 -31 -5 -36 -30
-4 -16 -4 -34 0 -40 4 -6 -14 -10 -49 -10 -42 0 -56 4 -56 14 0 8 -8 28 -17
44 -17 29 -17 32 5 70 28 50 21 72 -24 72 -30 0 -36 5 -58 49 -38 75 -66 75
-80 -1 -12 -65 -56 -55 -56 14 0 63 -59 99 -112 67z"/>
</g>
</svg>
