<?xml version="1.0" standalone="no"?>
<!DOCTYPE svg PUBLIC "-//W3C//DTD SVG 20010904//EN"
 "http://www.w3.org/TR/2001/REC-SVG-20010904/DTD/svg10.dtd">
<svg version="1.0" xmlns="http://www.w3.org/2000/svg"
 width="1024.000000pt" height="768.000000pt" viewBox="0 0 1024.000000 768.000000"
 preserveAspectRatio="xMidYMid meet">
<metadata>
Created by potrace 1.16, written by Peter Selinger 2001-2019
</metadata>
<g transform="translate(0.000000,768.000000) scale(0.100000,-0.100000)"
fill="#000000" stroke="none">
<path d="M8935 7285 c-91 -95 -137 -125 -193 -125 -16 0 -62 -11 -102 -25 -55
-19 -95 -25 -159 -25 -56 0 -113 -8 -161 -21 -58 -16 -119 -22 -265 -28 -104
-3 -196 -10 -203 -14 -8 -5 -23 -2 -38 8 -16 10 -61 20 -115 25 -49 5 -119 18
-155 30 -44 15 -76 20 -97 15 -40 -8 -64 -8 -104 1 -35 7 -111 -27 -201 -88
-60 -41 -117 -65 -189 -78 -75 -13 -196 -67 -269 -119 -30 -21 -100 -56 -157
-76 -56 -21 -142 -57 -190 -82 -48 -24 -127 -53 -174 -64 -120 -29 -384 -76
-468 -84 -38 -4 -99 -15 -134 -26 -77 -23 -175 -25 -227 -3 -29 12 -87 17
-253 21 -119 2 -225 6 -236 8 -12 2 -72 45 -135 95 -63 49 -135 97 -160 106
-25 9 -70 28 -100 42 -88 39 -123 43 -254 25 -90 -13 -126 -22 -150 -39 -63
-47 -88 -58 -311 -137 -38 -14 -113 -35 -165 -47 -113 -26 -166 -48 -218 -90
-49 -39 -84 -48 -147 -38 -27 4 -117 12 -200 17 -124 8 -154 7 -172 -5 -31
-20 -33 -18 -27 16 8 36 -14 73 -54 94 -16 8 -102 33 -193 56 -90 23 -179 51
-197 62 -46 28 -82 13 -82 -34 0 -19 -11 -49 -24 -68 -12 -19 -29 -53 -36 -75
-7 -22 -22 -57 -33 -78 -15 -29 -18 -50 -14 -86 6 -49 -6 -85 -38 -117 -20
-21 -19 -50 4 -82 10 -15 29 -60 41 -101 18 -60 30 -83 66 -117 67 -66 59 -76
-56 -81 -41 -2 -109 -7 -150 -11 l-75 -7 -19 -55 c-13 -37 -19 -80 -18 -135 1
-86 -7 -105 -44 -105 -21 0 -29 -6 -62 -45 -7 -8 -28 -15 -47 -15 -27 0 -40
-8 -64 -37 -17 -21 -34 -52 -37 -70 -7 -37 -10 -38 -65 -22 -24 8 -50 26 -69
50 -28 35 -35 39 -78 39 -52 0 -69 -9 -163 -89 -84 -71 -95 -96 -73 -168 l17
-55 -37 -32 c-29 -24 -41 -44 -53 -91 -29 -112 -28 -141 3 -183 35 -47 47 -56
108 -88 26 -14 59 -37 73 -52 24 -26 24 -29 18 -133 -7 -95 -5 -111 14 -154
11 -26 21 -51 21 -55 0 -3 -15 -29 -32 -56 -26 -39 -33 -60 -34 -101 0 -29 -9
-71 -19 -93 -17 -38 -17 -44 -2 -93 9 -29 16 -73 16 -99 -1 -25 6 -57 14 -70
8 -12 17 -41 21 -64 9 -62 50 -148 85 -177 37 -31 72 -38 166 -35 39 1 107 -2
152 -6 l82 -9 31 32 c17 17 33 31 36 31 2 0 13 -9 24 -20 11 -11 27 -20 35
-20 27 0 16 -16 -34 -51 -62 -41 -78 -72 -56 -105 21 -33 52 -47 89 -40 28 5
39 0 89 -45 51 -45 57 -55 57 -89 0 -25 10 -56 29 -87 20 -33 31 -67 35 -108
5 -59 4 -62 -45 -138 -27 -43 -55 -80 -62 -82 -6 -2 -31 -9 -54 -15 -36 -9
-53 -24 -113 -96 -76 -92 -89 -122 -71 -161 7 -14 10 -27 9 -29 -6 -6 -113 -5
-161 2 -42 5 -53 3 -87 -21 -88 -61 -210 -219 -210 -271 0 -31 6 -38 56 -70
30 -19 53 -41 51 -47 -2 -7 -21 -21 -43 -33 -21 -11 -48 -35 -59 -53 -11 -18
-38 -54 -60 -80 -23 -26 -51 -64 -64 -84 -18 -30 -28 -37 -55 -37 -56 0 -163
-83 -181 -141 -4 -12 -2 -47 5 -78 10 -47 9 -68 -5 -126 -9 -38 -28 -87 -42
-108 -25 -36 -25 -38 -10 -75 18 -42 28 -123 33 -267 4 -128 11 -162 35 -186
23 -23 81 -25 99 -3 8 8 33 27 57 41 37 21 51 24 91 19 96 -13 102 -16 122
-55 10 -21 30 -45 44 -55 14 -9 26 -25 26 -35 0 -11 15 -37 33 -59 17 -22 40
-54 49 -71 17 -30 19 -31 88 -31 65 0 74 -3 123 -37 28 -20 84 -67 124 -104
78 -73 78 -74 221 -84 45 -4 127 -17 181 -30 53 -13 120 -27 147 -30 l49 -7
305 185 c168 101 467 282 665 402 198 120 403 243 455 275 52 31 268 162 480
290 212 128 450 272 530 320 80 48 233 140 340 205 174 106 540 327 1580 953
179 108 348 204 375 213 28 10 101 25 163 33 62 9 125 22 140 30 40 21 65 60
151 241 48 98 106 201 146 257 l67 93 -5 80 c-3 44 -11 134 -18 201 -12 111
-11 129 6 210 11 49 20 121 22 160 1 40 11 99 22 133 14 41 21 86 21 140 l0
80 58 68 57 67 3 182 4 181 -77 146 -76 147 25 199 25 199 62 98 c34 55 65
102 68 107 4 4 113 25 242 47 129 22 241 43 250 46 9 2 170 160 359 350 l342
345 -7 47 c-4 26 -13 72 -21 102 -8 30 -14 80 -14 112 0 68 -20 88 -88 88 -35
0 -48 5 -64 25 -33 43 -56 33 -153 -70z"/>
</g>
</svg>
