<?xml version="1.0" standalone="no"?>
<!DOCTYPE svg PUBLIC "-//W3C//DTD SVG 20010904//EN"
 "http://www.w3.org/TR/2001/REC-SVG-20010904/DTD/svg10.dtd">
<svg version="1.0" xmlns="http://www.w3.org/2000/svg"
 width="1024.000000pt" height="1024.000000pt" viewBox="0 0 1024.000000 1024.000000"
 preserveAspectRatio="xMidYMid meet">
<metadata>
Created by potrace 1.16, written by Peter Selinger 2001-2019
</metadata>
<g transform="translate(0.000000,1024.000000) scale(0.100000,-0.100000)"
fill="#000000" stroke="none">
<path d="M4257 7853 l-37 -15 6 -49 c8 -63 -1 -96 -29 -105 -12 -4 -44 -24
-72 -46 -40 -32 -55 -38 -78 -34 -37 7 -61 -6 -76 -42 -8 -18 -34 -42 -77 -66
-55 -33 -71 -37 -103 -32 -57 9 -133 -25 -154 -69 -24 -50 -97 -63 -97 -17 0
20 -24 45 -53 55 -10 4 -26 26 -36 51 -17 37 -26 46 -67 60 -26 9 -60 16 -74
16 -32 0 -65 -33 -56 -55 3 -9 -1 -27 -10 -40 -12 -18 -15 -43 -12 -92 l3 -68
-40 -3 c-72 -6 -95 -49 -50 -92 20 -19 24 -30 19 -55 -4 -22 -1 -35 10 -44 9
-8 16 -27 16 -44 0 -17 7 -38 16 -48 14 -15 14 -23 4 -54 -10 -32 -15 -36 -36
-31 -19 5 -24 2 -24 -13 0 -11 8 -26 18 -33 10 -8 17 -27 18 -50 0 -21 0 -38
-1 -38 0 0 -26 9 -58 20 -60 21 -285 45 -321 34 -12 -4 -31 -16 -44 -27 -16
-15 -34 -20 -60 -19 -20 2 -66 -4 -102 -12 -36 -8 -82 -18 -103 -21 -42 -7
-58 -29 -36 -49 24 -23 112 -48 120 -35 4 7 21 9 40 7 24 -4 64 5 129 29 113
40 173 42 178 5 4 -28 -14 -52 -38 -52 -10 0 -20 -6 -23 -14 -3 -9 -15 -12
-31 -9 -17 4 -26 1 -26 -7 0 -9 -5 -8 -18 3 -11 11 -22 13 -32 7 -12 -7 -11
-15 8 -48 12 -22 22 -47 22 -57 0 -10 10 -35 22 -56 l22 -39 -21 -28 c-34 -46
-50 -40 -58 20 -11 81 -24 93 -25 22 0 -59 -1 -62 -27 -67 -16 -3 -31 0 -35 6
-5 8 -9 6 -14 -6 -3 -9 -13 -17 -22 -17 -8 0 -24 -8 -34 -17 -14 -13 -21 -14
-30 -5 -22 22 -28 12 -28 -42 0 -39 -6 -60 -21 -80 -20 -25 -20 -28 -5 -45 28
-31 19 -61 -30 -107 -36 -34 -44 -48 -42 -71 l3 -28 -75 0 c-41 0 -81 -4 -88
-8 -7 -5 -26 0 -48 13 -25 16 -45 21 -72 17 -20 -2 -48 1 -62 8 -14 7 -49 15
-78 18 -30 4 -64 15 -79 27 -16 13 -41 20 -67 20 -30 0 -57 9 -96 34 -40 25
-58 32 -67 24 -9 -7 -22 -7 -44 2 -22 10 -33 10 -42 1 -6 -6 -19 -11 -30 -11
-11 0 -22 -11 -28 -29 -11 -32 -32 -41 -95 -41 -54 0 -140 -26 -148 -45 -3 -8
3 -20 12 -27 32 -24 46 -49 54 -96 4 -26 10 -61 14 -79 8 -42 -26 -78 -84 -88
-39 -6 -42 -9 -40 -38 1 -18 -2 -40 -7 -51 -7 -15 -5 -17 12 -12 13 4 27 1 36
-9 9 -8 27 -15 41 -15 14 0 35 -11 48 -25 21 -22 27 -23 63 -15 43 10 51 6 57
-25 2 -13 12 -21 31 -23 19 -2 27 -8 23 -17 -37 -98 16 -196 89 -163 19 8 35
8 64 -1 34 -10 47 -9 89 8 45 18 52 18 78 5 15 -8 44 -14 64 -12 32 3 36 0 46
-31 10 -32 35 -60 73 -80 13 -8 13 -12 2 -25 -8 -9 -11 -26 -7 -40 7 -28 -9
-44 -68 -67 -48 -19 -55 -38 -27 -78 27 -37 26 -41 -3 -41 -35 0 -38 -11 -20
-64 15 -44 15 -48 -5 -86 -26 -50 -26 -50 2 -91 37 -54 38 -65 11 -114 -13
-25 -24 -48 -24 -50 0 -3 20 -2 44 1 48 7 51 4 76 -61 14 -36 20 -41 55 -45
38 -5 40 -7 43 -45 4 -50 19 -68 49 -60 19 4 23 1 23 -16 0 -12 7 -27 17 -34
14 -10 15 -18 5 -58 -7 -25 -12 -58 -12 -73 0 -19 -15 -41 -51 -76 -44 -43
-50 -52 -44 -78 6 -28 -8 -68 -28 -82 -6 -4 -21 4 -34 18 -25 28 -68 32 -100
9 -17 -12 -21 -27 -25 -84 -4 -84 -33 -131 -162 -266 -62 -65 -89 -101 -97
-130 -56 -210 -54 -193 -36 -231 26 -54 22 -98 -17 -154 -40 -58 -54 -126 -34
-167 12 -25 20 -28 66 -31 49 -3 52 -5 52 -30 0 -19 17 -45 59 -89 78 -84 100
-84 178 -7 40 39 62 54 75 50 62 -20 58 -21 58 21 0 58 22 83 75 83 34 0 45 4
50 19 9 30 44 47 135 65 88 18 120 36 120 67 0 34 12 49 41 49 16 0 39 11 55
25 17 16 39 25 59 25 17 0 56 5 87 11 69 14 112 -4 134 -56 8 -19 27 -41 44
-50 18 -9 32 -26 35 -43 10 -43 20 -56 54 -66 19 -5 46 -26 64 -48 16 -21 36
-38 44 -38 11 0 72 48 156 124 29 27 36 56 12 56 -10 0 -15 10 -15 33 0 19 -7
49 -16 67 -12 23 -15 48 -11 91 5 60 21 89 90 159 15 15 30 42 33 59 4 17 10
33 14 36 4 3 28 -3 54 -11 43 -15 51 -15 96 0 64 21 87 20 102 -4 18 -29 40
-24 63 13 17 27 26 32 60 32 35 0 42 -4 55 -33 9 -20 24 -34 40 -38 14 -2 50
-12 80 -20 105 -29 100 -29 100 0 0 19 5 26 19 26 14 0 21 8 23 27 2 22 8 28
28 28 20 0 25 4 22 24 -1 14 7 34 19 47 17 19 19 26 9 44 -7 13 -10 38 -6 59
10 62 -5 94 -50 109 -54 18 -67 34 -67 82 0 46 7 57 25 43 22 -17 78 12 78 41
0 16 7 27 19 31 33 10 71 46 71 66 0 14 9 21 30 26 19 3 30 12 30 23 0 11 13
21 40 29 48 14 49 17 60 94 8 54 14 66 46 93 29 25 39 41 43 75 5 39 11 46 44
63 32 15 38 23 34 42 -3 20 0 24 19 24 12 0 32 12 43 26 19 24 26 26 62 20 33
-5 44 -3 54 11 12 16 14 16 26 -10 18 -40 53 -34 57 11 7 68 92 15 92 -58 0
-25 8 -25 33 -3 19 17 22 16 86 -54 61 -66 70 -72 111 -75 41 -3 45 -6 48 -31
2 -18 12 -32 28 -39 46 -21 43 -76 -7 -140 -17 -22 -29 -49 -29 -67 0 -16 -7
-37 -16 -46 -9 -8 -13 -23 -10 -32 4 -10 -1 -21 -14 -30 -13 -9 -20 -25 -20
-48 0 -29 4 -36 25 -41 15 -4 28 -16 31 -30 5 -18 13 -24 33 -24 26 0 124 50
136 70 8 13 71 13 96 0 16 -9 19 -22 19 -94 0 -80 -1 -84 -31 -110 -26 -23
-29 -32 -23 -54 16 -52 8 -96 -24 -148 -38 -60 -40 -91 -10 -129 19 -24 20
-31 10 -59 -7 -18 -12 -42 -12 -54 0 -11 -4 -23 -9 -26 -14 -9 -6 -97 10 -106
12 -8 12 -14 0 -42 -71 -176 -85 -254 -52 -298 14 -20 21 -44 21 -75 0 -45 19
-92 65 -165 13 -19 30 -60 39 -90 35 -123 78 -154 194 -142 64 7 74 12 116 50
25 23 52 42 60 42 8 0 40 30 72 66 46 52 62 64 80 60 18 -5 23 -1 27 23 7 36
52 68 196 141 96 49 106 52 136 42 46 -17 68 -15 116 13 26 14 60 25 82 25 42
0 34 -13 102 154 32 78 53 102 99 110 18 4 47 22 66 41 21 22 52 40 86 50 54
15 91 49 126 114 12 22 24 31 43 31 32 0 73 21 99 49 22 24 38 26 66 9 16 -10
26 -8 58 10 56 31 118 29 168 -4 38 -26 39 -26 84 -10 97 35 149 8 137 -71 -8
-45 -34 -74 -97 -103 -38 -18 -50 -29 -50 -46 0 -31 15 -38 44 -19 22 15 27
15 62 -4 45 -24 68 -20 102 20 16 20 33 29 54 29 16 0 39 5 51 12 12 7 31 11
43 9 11 -1 27 5 34 13 7 9 22 16 35 16 12 0 30 9 40 20 11 13 31 20 52 20 53
0 73 15 73 56 0 34 1 35 30 29 21 -5 39 -2 55 9 30 20 51 20 59 1 8 -22 31
-18 49 7 14 22 15 23 35 5 13 -12 28 -16 41 -12 14 4 23 0 31 -15 14 -27 69
-27 103 0 31 25 39 25 62 0 10 -11 35 -25 57 -32 21 -6 49 -24 64 -39 14 -15
34 -37 45 -48 l19 -21 53 26 c28 15 75 35 102 44 49 17 50 18 47 53 -2 28 2
38 18 47 24 13 26 51 4 86 -20 30 -86 69 -134 79 -48 10 -60 22 -60 61 0 21
-8 42 -20 54 -27 27 -25 41 9 103 16 28 33 68 36 88 6 33 3 39 -26 62 -29 23
-32 28 -22 49 9 19 7 33 -9 67 -14 31 -18 53 -13 82 8 46 -3 65 -46 74 -39 9
-67 47 -75 103 -8 61 -26 89 -63 97 -16 3 -34 12 -39 18 -11 13 -22 96 -26
195 -1 34 -8 68 -14 74 -7 7 -47 15 -89 19 -89 9 -175 47 -332 148 -52 34
-101 61 -109 61 -8 0 -16 -9 -19 -20 -3 -11 -16 -23 -30 -26 -20 -5 -24 -12
-21 -36 4 -37 -13 -48 -78 -48 -97 0 -164 38 -164 95 0 23 -10 43 -36 70 -29
31 -35 44 -30 67 4 19 -5 55 -26 108 -26 68 -29 84 -20 106 13 27 66 54 107
54 21 0 25 5 25 28 -1 42 -29 71 -80 80 -45 8 -45 8 -45 48 0 33 -7 49 -36 81
-21 23 -40 54 -44 71 -7 34 -19 46 -55 57 -31 10 -40 22 -40 60 0 17 -7 43
-15 59 -20 38 -19 53 5 61 30 9 53 50 46 79 -16 66 -209 32 -269 -48 -14 -17
-49 -45 -78 -61 -60 -34 -24 -32 -564 -23 -183 3 -217 1 -262 -15 -57 -20
-101 -63 -122 -118 -27 -71 -31 -79 -41 -79 -5 0 -10 6 -10 14 0 30 -37 59
-81 65 -42 6 -45 8 -60 55 -8 28 -21 52 -28 54 -6 2 -46 -19 -87 -47 -85 -57
-129 -66 -164 -31 -23 23 -25 45 -5 80 21 37 19 96 -5 120 -17 17 -33 20 -108
20 -102 0 -132 13 -113 48 20 37 13 81 -15 107 -46 42 -79 34 -205 -50 -104
-69 -117 -75 -164 -75 -62 0 -75 -11 -75 -67 0 -47 -1 -47 -76 -44 -25 2 -62
-6 -93 -19 -58 -25 -107 -22 -135 9 -14 15 -16 29 -11 65 5 28 3 46 -3 46 -16
0 -64 53 -74 83 -9 23 -15 27 -49 27 -26 0 -46 7 -59 20 -30 30 -66 41 -113
33 -41 -6 -76 -34 -117 -91 -8 -12 -27 -24 -43 -28 -24 -5 -29 -3 -38 25 -8
23 -17 31 -34 31 -13 0 -25 -6 -28 -12 -3 -10 -12 -9 -37 5 -44 24 -73 21
-109 -8 l-30 -26 -25 26 c-31 31 -67 30 -81 -2 -12 -29 -26 -29 -62 1 -15 12
-38 28 -50 35 -27 14 -83 15 -83 1 0 -14 -36 -12 -61 3 -18 11 -24 8 -47 -19
-32 -37 -79 -63 -107 -58 -11 2 -30 15 -43 30 l-23 27 -15 -22 c-31 -44 -65
-16 -45 39 8 24 7 38 -6 65 -14 30 -15 38 -3 60 13 25 12 28 -18 51 -28 22
-32 32 -32 72 0 26 -7 56 -15 66 -23 30 -18 44 21 62 47 22 76 82 67 138 -6
37 -5 38 18 31 32 -9 59 -42 59 -70 0 -40 11 -55 39 -55 41 0 50 15 39 63 -13
56 -5 139 16 171 16 25 18 26 39 11 14 -10 33 -13 52 -9 22 4 35 1 44 -10 16
-20 31 -21 31 -3 0 23 32 44 90 60 31 9 76 30 100 46 59 38 88 45 140 31 30
-8 58 -27 91 -61 45 -46 50 -49 99 -49 41 0 58 -5 82 -25 16 -14 37 -25 46
-25 9 0 30 -9 46 -19 19 -13 39 -17 65 -14 60 8 123 -56 71 -72 -29 -9 -80
-54 -80 -71 0 -9 21 -3 73 22 39 20 79 40 87 44 9 5 16 23 17 51 1 24 2 49 2
56 1 6 25 19 54 27 70 21 75 25 79 66 3 39 38 58 38 22 0 -24 31 -32 77 -20
34 9 63 41 63 70 0 15 -10 16 -82 13 -57 -2 -97 -10 -128 -24 -57 -26 -131
-28 -153 -3 -29 31 -49 103 -42 150 l6 42 -53 0 c-58 0 -79 10 -140 69 -56 52
-51 65 35 93 64 22 74 29 90 61 13 28 23 37 42 37 28 0 65 32 65 55 0 8 3 15
8 15 4 0 21 14 39 30 18 17 41 30 52 30 14 0 21 7 21 18 0 21 29 52 48 52 7 0
12 9 12 19 0 12 -15 26 -45 40 -25 12 -49 21 -55 21 -11 0 -34 39 -27 47 3 2
14 -1 26 -8 43 -27 32 2 -18 47 -29 26 -63 69 -77 95 -13 27 -33 53 -44 59
-11 6 -27 25 -36 43 -27 52 -37 55 -97 30z"/>
<path d="M4394 7819 c-3 -6 -3 -13 0 -16 3 -4 6 -1 6 5 0 6 7 9 15 6 8 -4 15
-4 15 -1 0 11 -30 16 -36 6z"/>
<path d="M4437 7776 c10 -13 20 -22 22 -20 7 7 31 -18 25 -27 -3 -5 3 -9 12
-9 14 0 8 10 -21 40 -43 44 -66 54 -38 16z"/>
<path d="M4380 6402 c0 -13 12 -28 30 -39 18 -10 34 -30 38 -47 10 -36 31 -46
39 -17 3 12 10 21 15 21 16 0 70 59 66 71 -2 7 -32 13 -73 14 -39 1 -80 5 -92
10 -19 6 -23 4 -23 -13z"/>
</g>
</svg>
