<?xml version="1.0" standalone="no"?>
<!DOCTYPE svg PUBLIC "-//W3C//DTD SVG 20010904//EN"
 "http://www.w3.org/TR/2001/REC-SVG-20010904/DTD/svg10.dtd">
<svg version="1.0" xmlns="http://www.w3.org/2000/svg"
 width="925.000000pt" height="1024.000000pt" viewBox="0 0 925.000000 1024.000000"
 preserveAspectRatio="xMidYMid meet">
<metadata>
Created by potrace 1.16, written by Peter Selinger 2001-2019
</metadata>
<g transform="translate(0.000000,1024.000000) scale(0.100000,-0.100000)"
fill="#000000" stroke="none">
<path d="M1239 10231 c-14 -5 -37 -16 -52 -25 -17 -11 -57 -20 -114 -24 l-88
-7 3 -50 c4 -76 39 -176 80 -230 20 -27 63 -66 95 -88 92 -63 119 -139 118
-335 0 -68 -3 -127 -6 -132 -10 -16 14 -135 30 -146 21 -16 18 -91 -10 -220
-6 -27 -74 -46 -128 -37 -25 4 -44 1 -61 -10 -23 -15 -87 -119 -150 -245 l-26
-52 21 -30 22 -29 -18 -62 -19 -61 24 -43 c47 -86 50 -88 99 -70 42 14 44 14
66 -7 13 -12 44 -29 70 -38 45 -15 48 -19 64 -70 9 -30 14 -71 11 -90 -4 -30
-14 -39 -87 -83 -81 -48 -83 -51 -83 -87 0 -36 -3 -40 -69 -78 -73 -44 -73
-45 -111 -167 -28 -90 -44 -120 -94 -176 -45 -51 -86 -125 -86 -157 0 -11 -29
-58 -63 -104 -35 -46 -72 -99 -82 -118 -10 -19 -25 -40 -34 -47 -24 -18 -135
-73 -148 -73 -6 0 -20 -14 -31 -32 l-21 -32 -143 -1 -143 0 -6 -75 c-3 -41
-21 -133 -39 -205 -47 -188 -43 -223 59 -497 95 -255 131 -372 138 -454 5 -57
3 -63 -24 -95 -52 -59 -66 -97 -71 -189 -5 -98 9 -204 39 -293 29 -86 131
-293 169 -345 18 -23 85 -80 149 -126 124 -89 158 -124 238 -247 61 -94 94
-181 123 -324 22 -109 55 -208 93 -275 130 -230 145 -265 196 -437 73 -245
157 -385 259 -434 40 -20 68 -24 184 -29 164 -6 160 -4 228 -142 59 -120 73
-130 197 -137 l98 -6 3 -66 3 -67 97 -4 c84 -3 103 -8 143 -31 28 -16 76 -33
120 -40 69 -11 74 -14 104 -57 29 -41 37 -46 122 -70 57 -17 103 -37 124 -55
46 -38 107 -65 151 -65 28 0 47 -9 82 -39 55 -48 103 -65 178 -64 l57 1 33
-48 c40 -59 62 -65 187 -49 113 14 155 1 237 -74 62 -56 58 -57 100 28 13 28
24 64 24 81 0 16 6 39 14 49 13 18 17 15 80 -45 127 -121 224 -272 276 -426
29 -89 34 -115 41 -264 6 -134 12 -181 33 -249 34 -111 34 -194 1 -298 -41
-129 -37 -150 57 -318 10 -16 24 -46 32 -66 11 -29 27 -44 77 -70 61 -33 63
-36 79 -94 32 -112 31 -111 97 -118 201 -20 453 -30 490 -19 22 7 75 43 126
87 48 41 89 75 91 75 3 0 51 -29 107 -65 102 -65 103 -66 116 -118 8 -28 18
-56 24 -62 6 -6 62 -10 127 -10 90 0 126 -4 154 -18 79 -36 152 -16 229 64 57
59 57 59 115 59 80 0 96 -6 116 -41 24 -41 62 -54 215 -74 129 -17 132 -17
160 2 15 11 83 48 150 83 68 34 128 69 135 77 7 8 20 47 30 85 22 87 44 126
89 156 54 37 108 26 266 -54 96 -48 139 -65 156 -60 13 3 55 28 93 56 38 28
93 59 122 70 28 11 81 38 117 61 73 46 87 48 236 35 l95 -8 98 81 c100 83 95
81 264 127 31 8 109 44 173 79 64 34 126 66 137 69 12 4 24 16 27 26 4 11 25
33 48 49 23 16 60 48 82 71 22 23 72 64 112 91 l71 48 12 72 c23 135 1 197
-66 184 -30 -5 -34 -2 -63 45 l-32 51 -44 -7 c-40 -6 -45 -4 -45 13 0 26 -19
43 -49 43 -37 0 -95 39 -130 87 -19 26 -43 45 -65 53 -40 13 -40 12 -26 59 8
29 2 63 -37 210 -25 97 -54 193 -63 213 -13 29 -15 51 -9 105 19 165 6 210
-74 262 -49 32 -51 75 -6 132 l31 40 -24 22 c-13 12 -39 45 -58 72 -18 28 -46
62 -62 78 -22 22 -28 36 -28 71 0 24 -6 79 -14 122 -27 151 -29 137 37 284
l62 135 5 120 6 120 -64 60 c-62 58 -65 63 -70 115 -3 46 2 71 31 147 20 51
39 109 43 129 5 28 23 54 74 103 78 77 94 115 88 207 -5 81 -37 123 -134 179
-66 37 -75 47 -144 153 -81 123 -180 226 -229 237 -48 10 -56 28 -56 132 0 64
-4 96 -12 101 -7 5 -20 31 -28 59 -14 47 -14 58 5 137 11 47 78 244 148 438
71 194 134 384 141 422 7 38 24 97 38 130 17 42 27 87 31 142 l5 80 -134 111
c-74 61 -289 237 -479 392 -190 155 -354 290 -365 299 -11 9 -68 56 -126 104
l-107 87 -12 64 -12 65 -41 6 c-40 7 -67 21 -67 36 0 4 14 23 31 41 55 62 60
73 60 148 1 176 -89 267 -511 516 -91 54 -253 154 -360 223 -107 69 -283 179
-390 245 -107 66 -283 177 -390 245 -107 69 -262 167 -345 219 -82 52 -220
139 -305 193 -85 55 -173 110 -195 123 -22 13 -170 107 -330 208 l-290 184
-1360 2 c-748 1 -1372 -2 -1386 -6z"/>
<path d="M8841 6541 c-42 -28 -45 -29 -84 -15 -22 8 -55 14 -75 14 l-35 0 7
-137 c6 -113 4 -152 -11 -218 -21 -96 -22 -203 -2 -216 27 -16 99 -22 129 -9
69 28 97 123 115 390 8 113 15 208 15 213 0 13 -14 8 -59 -22z"/>
<path d="M8368 5767 c-27 -23 -42 -47 -54 -86 -10 -36 -27 -64 -52 -86 l-36
-34 0 -148 c-1 -98 3 -160 12 -185 17 -47 74 -98 110 -98 21 -1 33 -10 53 -44
31 -51 95 -86 157 -86 l41 0 7 46 c4 26 4 86 2 135 -5 74 -10 96 -31 128 -15
22 -35 42 -46 46 -24 7 -25 12 -80 259 -22 98 -41 180 -43 181 -2 2 -20 -11
-40 -28z"/>
<path d="M8779 3917 c-35 -39 -66 -74 -69 -77 -7 -7 -150 -169 -174 -198 -19
-22 -19 -22 4 -47 29 -31 83 -49 121 -41 104 21 199 185 199 346 0 43 -4 81
-9 84 -5 3 -37 -27 -72 -67z"/>
</g>
</svg>
