<?xml version="1.0" standalone="no"?>
<!DOCTYPE svg PUBLIC "-//W3C//DTD SVG 20010904//EN"
 "http://www.w3.org/TR/2001/REC-SVG-20010904/DTD/svg10.dtd">
<svg version="1.0" xmlns="http://www.w3.org/2000/svg"
 width="554.000000pt" height="1024.000000pt" viewBox="0 0 554.000000 1024.000000"
 preserveAspectRatio="xMidYMid meet">
<metadata>
Created by potrace 1.16, written by Peter Selinger 2001-2019
</metadata>
<g transform="translate(0.000000,1024.000000) scale(0.100000,-0.100000)"
fill="#000000" stroke="none">
<path d="M1722 10223 c-17 -8 -48 -29 -69 -47 -58 -50 -75 -57 -115 -45 -20 5
-52 20 -71 34 -20 13 -46 29 -58 35 -21 12 -21 11 -14 -42 4 -29 16 -73 26
-97 10 -24 19 -49 19 -56 0 -23 -57 -38 -108 -29 -85 15 -135 11 -168 -13 -28
-20 -34 -33 -50 -113 -23 -115 -24 -116 -64 -101 -40 13 -94 1 -157 -36 -30
-17 -66 -27 -126 -33 -98 -10 -118 -7 -172 30 -22 15 -55 35 -72 44 l-33 16
-25 -50 c-14 -27 -46 -73 -71 -102 -26 -28 -59 -77 -73 -107 -23 -51 -25 -66
-23 -159 l3 -103 -41 -46 c-46 -52 -47 -64 -20 -151 11 -35 20 -83 20 -107 0
-41 -2 -44 -46 -65 -58 -28 -108 -29 -161 -1 -23 11 -45 21 -49 21 -8 0 3
-100 17 -152 5 -20 21 -51 35 -67 21 -25 33 -30 76 -33 l52 -3 25 -74 c23 -68
24 -78 13 -140 -7 -36 -14 -76 -18 -87 -4 -17 2 -26 31 -44 20 -12 58 -55 87
-99 28 -42 84 -110 123 -151 40 -41 100 -114 134 -162 51 -72 70 -91 110 -110
53 -24 61 -39 61 -122 0 -45 28 -143 58 -203 10 -21 29 -80 42 -130 13 -51 29
-93 35 -93 14 0 84 50 104 73 20 25 31 21 31 -12 0 -45 -39 -92 -91 -110 -26
-9 -64 -29 -86 -44 -38 -27 -40 -30 -36 -70 3 -24 -2 -85 -11 -137 -12 -73
-14 -114 -7 -175 5 -44 8 -82 6 -86 -3 -3 -56 -27 -118 -53 l-114 -47 -6 -90
c-6 -96 5 -195 28 -238 7 -14 46 -62 86 -106 42 -47 83 -105 100 -141 34 -73
82 -122 174 -177 116 -68 142 -92 180 -170 39 -80 68 -201 85 -354 l11 -101
-26 -26 c-34 -35 -34 -104 3 -227 36 -117 44 -132 86 -158 53 -33 67 -63 76
-165 9 -102 17 -127 85 -276 59 -129 68 -188 33 -223 -13 -13 -31 -28 -39 -33
-9 -5 -40 -55 -69 -112 -29 -57 -71 -129 -95 -160 -71 -97 -236 -286 -264
-303 -49 -30 -57 -49 -68 -160 -10 -98 -16 -117 -73 -245 -48 -106 -68 -166
-86 -254 -26 -133 -39 -170 -87 -265 -35 -72 -57 -150 -57 -210 0 -18 -11 -55
-25 -82 -20 -40 -26 -72 -36 -198 -10 -134 -9 -157 7 -215 12 -45 18 -112 20
-217 3 -149 3 -154 30 -188 l27 -36 38 37 c23 23 41 52 48 80 14 55 14 127 0
141 -12 12 30 99 63 126 22 19 23 18 50 -12 15 -16 32 -50 38 -73 16 -65 28
-83 73 -112 23 -14 62 -43 87 -65 l45 -38 0 -94 c0 -89 2 -97 34 -153 39 -68
41 -67 62 47 7 37 16 67 20 67 17 0 82 -126 83 -161 1 -44 23 -70 85 -102 25
-13 72 -50 105 -81 l58 -56 -12 -67 c-12 -62 -12 -68 6 -80 82 -57 119 -91
197 -181 49 -56 95 -102 102 -102 20 0 51 48 65 100 7 25 14 48 17 53 9 15 43
-14 43 -38 0 -46 50 -71 210 -102 47 -9 90 -20 96 -25 6 -4 17 -35 24 -68 l13
-60 77 0 77 0 6 -62 c5 -57 3 -67 -34 -140 -24 -47 -38 -87 -34 -97 3 -10 32
-41 64 -70 l59 -51 112 86 c61 47 124 90 141 94 28 8 34 5 72 -35 34 -35 51
-44 91 -50 48 -8 51 -7 82 28 18 19 37 52 43 72 5 21 30 63 55 95 89 113 87
136 -17 213 -62 46 -85 72 -152 173 -139 213 -170 232 -358 218 -202 -15 -224
-8 -335 103 -127 126 -191 276 -232 543 -11 69 -25 157 -31 195 -12 79 -24
125 -47 173 -14 30 -18 33 -58 31 -37 -2 -49 2 -75 27 -57 53 -71 101 -79 274
-5 85 -13 171 -18 190 -6 19 -13 47 -16 63 l-6 27 -96 0 c-97 0 -147 -13 -173
-43 -9 -12 -29 -17 -66 -17 l-53 0 1 83 c2 77 0 86 -25 115 -34 41 -41 103
-36 327 4 162 5 173 32 228 17 35 26 68 23 83 -3 19 14 54 73 144 76 117 77
119 83 197 4 66 17 111 85 288 103 273 131 333 200 434 57 83 57 84 53 145 -9
128 -3 206 28 373 33 179 33 199 -1 267 -17 34 -18 44 -8 82 15 54 21 59 90
73 115 25 241 31 325 16 44 -8 95 -15 114 -15 27 0 32 -3 26 -17 -46 -118 -70
-393 -43 -498 l13 -50 61 0 c44 0 65 5 78 18 25 24 50 21 123 -14 60 -29 70
-31 132 -25 37 4 92 13 122 21 82 22 120 19 165 -13 46 -34 107 -99 186 -197
30 -38 66 -80 79 -92 47 -42 115 -54 193 -32 39 11 40 10 72 -28 l33 -38 0 60
c1 36 11 95 27 147 l27 87 -90 95 -91 94 -4 105 c-3 94 -6 107 -30 139 -42 55
-58 106 -65 205 l-6 94 56 -7 56 -7 33 67 c18 36 38 66 44 66 15 0 84 79 84
96 0 13 108 177 162 245 38 49 77 66 221 94 153 31 201 31 258 3 82 -40 250
-36 577 14 101 15 150 19 170 12 17 -6 44 -36 75 -83 l49 -73 51 50 c29 27 72
60 97 72 25 13 75 52 113 88 l67 65 0 87 c0 61 6 104 20 145 11 32 20 65 20
72 0 8 -16 39 -36 69 -19 29 -32 58 -29 65 4 6 28 24 52 39 l45 29 -47 33 -47
33 36 14 c41 16 43 20 49 143 l5 88 -58 21 c-32 12 -71 34 -87 51 -24 25 -28
37 -28 86 l0 57 -45 13 c-168 49 -180 55 -180 79 0 45 -28 88 -103 160 -92 87
-94 95 -81 333 5 91 9 219 9 286 -1 148 -8 163 -103 205 -37 17 -86 49 -110
72 -71 69 -180 235 -266 404 -23 46 -30 53 -63 58 -112 17 -162 29 -260 60
-106 34 -154 42 -188 28 -23 -8 -125 -164 -160 -245 l-29 -66 -60 -12 c-73
-14 -110 -32 -153 -73 l-32 -30 -11 29 c-18 47 -38 62 -135 99 -68 26 -102 46
-131 76 -46 48 -88 72 -112 65 -10 -4 -41 -28 -70 -55 -35 -33 -66 -52 -96
-60 -25 -6 -49 -17 -53 -24 -10 -15 -105 -99 -318 -281 -75 -64 -94 -76 -115
-71 -35 9 -50 32 -50 80 0 70 27 141 75 195 57 64 72 112 58 188 -11 58 -32
112 -55 144 -10 14 -5 26 30 76 46 65 72 128 102 246 28 112 26 139 -20 230
-22 44 -40 93 -40 112 0 18 13 61 30 96 16 34 30 68 30 74 0 16 -25 21 -163
35 -124 12 -177 4 -177 -27 0 -23 -50 -36 -124 -32 -58 3 -71 7 -88 28 -28 34
-20 100 26 219 20 51 36 104 36 117 0 15 -17 43 -43 72 -24 26 -60 72 -80 102
-20 31 -47 66 -60 78 l-25 23 -48 -55 c-26 -31 -50 -56 -54 -56 -3 0 -18 27
-34 60 -36 76 -61 94 -104 73z"/>
</g>
</svg>
