<?xml version="1.0" standalone="no"?>
<!DOCTYPE svg PUBLIC "-//W3C//DTD SVG 20010904//EN"
 "http://www.w3.org/TR/2001/REC-SVG-20010904/DTD/svg10.dtd">
<svg version="1.0" xmlns="http://www.w3.org/2000/svg"
 width="1024.000000pt" height="375.000000pt" viewBox="0 0 1024.000000 375.000000"
 preserveAspectRatio="xMidYMid meet">
<metadata>
Created by potrace 1.16, written by Peter Selinger 2001-2019
</metadata>
<g transform="translate(0.000000,375.000000) scale(0.100000,-0.100000)"
fill="#000000" stroke="none">
<path d="M4115 3743 c-16 -3 -49 -21 -72 -41 -131 -115 -134 -117 -230 -120
-48 -1 -134 -2 -191 -2 -67 0 -119 -5 -148 -15 -24 -8 -74 -15 -109 -15 -53 0
-65 3 -65 16 0 9 -8 29 -17 46 -17 27 -22 29 -66 26 -37 -2 -47 0 -47 13 0 25
-22 39 -61 39 -48 0 -66 -21 -45 -52 18 -25 21 -54 7 -62 -5 -3 -22 1 -37 9
-22 12 -45 14 -91 9 -60 -6 -62 -5 -68 19 -4 16 -20 31 -47 43 -39 17 -42 17
-87 0 -25 -10 -68 -21 -96 -25 -39 -5 -51 -10 -53 -26 -6 -31 -31 -45 -84 -45
-36 0 -48 4 -48 15 0 22 -48 38 -92 31 -28 -5 -48 0 -84 19 -49 26 -100 31
-150 16 -16 -5 -47 -14 -70 -20 -28 -7 -44 -19 -52 -36 -11 -25 -13 -25 -131
-25 -116 0 -120 -1 -123 -22 -3 -21 -9 -23 -70 -26 -67 -3 -68 -3 -68 23 0 21
-8 29 -37 41 -21 9 -45 24 -53 34 -8 9 -34 20 -57 23 -38 4 -42 3 -48 -22 -10
-39 -24 -51 -61 -51 -38 0 -44 -14 -14 -30 24 -13 26 -35 5 -44 -8 -3 -33 1
-56 9 -48 17 -161 20 -190 5 -10 -6 -19 -18 -19 -26 0 -9 -17 -22 -40 -31 -29
-12 -43 -25 -52 -49 -6 -18 -22 -38 -36 -45 -29 -16 -82 -81 -82 -102 0 -23
-22 -70 -39 -83 -20 -16 -9 -94 19 -132 18 -24 22 -39 17 -68 -4 -21 -10 -40
-16 -43 -13 -9 -41 -80 -41 -105 0 -27 -47 -81 -80 -94 -14 -5 -48 -7 -75 -5
-28 3 -69 0 -92 -6 -46 -13 -143 -93 -143 -120 0 -9 -11 -37 -25 -63 -21 -40
-25 -61 -25 -132 0 -74 -3 -87 -19 -96 -31 -16 -76 -12 -105 11 l-26 20 -22
-26 c-13 -14 -41 -32 -63 -40 -26 -9 -40 -20 -41 -32 -1 -10 -2 -32 -3 -50 0
-17 -12 -44 -25 -60 -35 -43 -43 -129 -16 -182 11 -23 27 -41 35 -41 8 0 15
-6 15 -13 0 -8 16 -30 35 -50 19 -20 35 -45 35 -56 0 -41 69 -53 136 -25 22
10 66 20 99 23 55 6 61 9 75 38 17 35 34 43 101 43 41 0 48 3 53 25 3 13 21
36 40 50 27 20 37 39 50 88 9 34 17 73 18 87 2 20 9 26 33 28 29 3 31 1 47
-60 9 -35 16 -74 17 -88 0 -31 26 -50 67 -50 35 0 84 -33 84 -57 0 -9 7 -25
17 -35 11 -13 17 -42 20 -96 3 -68 1 -83 -22 -127 -14 -27 -33 -70 -41 -93
-14 -40 -14 -45 2 -63 9 -10 23 -19 30 -19 28 0 44 -31 44 -88 0 -31 -4 -62
-8 -68 -4 -6 -26 -13 -49 -16 -41 -6 -52 -12 -99 -55 -19 -18 -37 -23 -77 -23
-29 0 -59 5 -67 10 -16 10 -50 -14 -50 -36 0 -16 -27 -24 -90 -27 l-45 -2 -5
52 c-3 28 -8 53 -10 55 -20 15 -85 38 -105 38 -36 0 -76 18 -101 45 -25 27
-81 34 -102 13 -6 -6 -32 -18 -57 -27 -44 -15 -47 -19 -70 -86 -14 -39 -28
-107 -32 -154 -5 -68 -11 -89 -30 -112 -14 -16 -31 -29 -39 -29 -21 0 -17 -19
11 -52 14 -16 25 -35 25 -43 0 -7 12 -15 28 -18 42 -9 92 -45 92 -65 0 -17 53
-50 106 -66 16 -5 26 -27 47 -104 15 -53 27 -116 27 -138 0 -25 6 -47 15 -54
8 -7 15 -22 15 -34 0 -12 6 -46 14 -75 16 -63 8 -102 -28 -136 -34 -31 -41
-68 -24 -113 12 -31 19 -38 47 -40 37 -4 50 9 51 48 1 33 94 158 127 171 29
11 105 -1 151 -25 37 -19 185 -30 211 -16 12 6 21 16 21 23 0 21 50 67 73 67
46 0 66 26 69 88 l3 57 36 3 c35 3 69 -7 101 -30 14 -10 21 -8 40 13 13 13 32
31 43 39 12 8 26 34 33 57 17 57 49 73 147 73 62 0 75 3 75 16 0 8 13 29 29
45 23 23 38 29 70 29 23 0 58 9 78 20 46 24 115 26 149 3 24 -15 29 -15 78 1
30 9 71 30 92 47 76 62 112 71 254 67 l127 -3 26 31 c48 56 167 71 286 34 36
-12 91 -28 121 -37 30 -10 65 -23 77 -31 39 -24 87 -7 186 69 95 73 129 84
135 42 5 -33 42 -29 77 7 17 18 39 30 54 30 58 0 71 10 71 51 0 38 1 39 36 39
24 0 46 -9 67 -26 27 -23 36 -25 81 -20 161 20 179 19 201 -7 38 -47 68 -57
171 -64 125 -7 167 4 241 65 32 26 69 54 83 61 47 24 85 46 117 69 17 12 36
22 42 22 7 0 23 7 36 16 18 12 47 16 111 15 91 -1 134 13 134 45 0 15 31 63
61 95 9 9 18 20 20 25 6 13 102 50 177 68 79 20 551 23 569 5 11 -11 92 -9
326 7 88 6 136 -1 219 -32 21 -7 44 -11 52 -8 8 3 17 1 21 -5 16 -26 200 3
218 34 4 8 13 15 19 15 7 0 30 8 52 19 23 10 49 21 59 25 15 5 17 12 11 41 -4
25 -1 42 10 60 9 13 16 32 16 42 0 24 100 170 147 214 63 61 133 109 156 109
12 0 31 -7 41 -15 11 -8 29 -15 41 -15 12 0 26 -5 32 -11 7 -7 26 -8 53 -4 47
8 88 45 97 88 8 38 33 46 173 58 63 6 139 13 168 16 36 3 70 -1 105 -12 29
-10 72 -17 97 -17 32 1 56 -7 82 -24 26 -16 52 -24 82 -24 24 0 57 -7 73 -16
21 -12 39 -15 66 -10 31 6 44 16 74 61 20 30 42 55 49 55 8 0 14 8 14 18 0 22
113 62 175 62 22 0 60 9 84 20 50 23 126 26 212 8 44 -9 64 -9 84 0 26 12 29
17 39 62 5 25 49 50 87 50 8 0 25 19 37 43 58 108 87 147 111 147 10 0 26 7
37 15 10 8 35 15 55 15 39 0 53 11 62 50 4 16 20 32 44 43 21 10 55 27 75 38
20 10 56 19 78 19 58 0 107 26 137 72 14 21 29 38 34 38 5 0 23 13 41 29 18
15 60 43 93 60 111 59 198 119 212 145 7 14 22 26 33 26 28 0 78 46 85 79 3
16 19 40 36 55 37 33 38 63 2 77 -62 22 -89 42 -105 79 -13 31 -23 40 -50 45
-18 3 -46 2 -61 -4 -34 -13 -93 12 -101 43 -10 37 -6 63 10 77 15 12 14 15 -6
31 -16 13 -40 18 -90 18 -41 0 -79 6 -98 16 -50 24 -66 16 -70 -36 -2 -24 -8
-50 -14 -57 -15 -19 -53 -16 -98 7 -47 24 -66 25 -86 5 -10 -9 -34 -15 -65
-15 -60 0 -89 24 -89 73 0 46 -57 102 -94 93 -35 -9 -73 9 -117 54 -48 49 -92
53 -154 15 -33 -20 -53 -24 -117 -25 -74 0 -77 -1 -102 -32 -59 -74 -69 -78
-192 -78 -64 0 -73 -2 -79 -20 -3 -11 -18 -23 -33 -26 -15 -4 -44 -15 -64 -25
-45 -23 -75 -24 -115 -4 -37 19 -63 10 -63 -20 0 -27 -17 -35 -75 -35 -35 0
-49 6 -70 28 -14 15 -28 35 -31 44 -8 27 -49 32 -112 13 -121 -37 -206 -69
-239 -92 -18 -13 -36 -23 -39 -23 -3 0 -20 -6 -37 -14 -90 -41 -112 -46 -207
-46 -107 0 -130 -5 -130 -26 0 -26 -66 -17 -95 13 -14 15 -25 33 -25 39 0 6
-7 17 -15 24 -8 7 -15 25 -15 40 0 23 -6 29 -39 38 -21 7 -46 12 -54 12 -9 0
-41 10 -72 23 -47 19 -55 26 -55 49 0 20 -7 28 -31 37 -18 6 -38 11 -45 11
-18 0 -64 40 -64 56 0 6 -12 14 -26 17 -40 7 -345 -13 -366 -24 -10 -6 -21
-23 -25 -39 -9 -46 -25 -54 -97 -47 -55 5 -68 3 -89 -13 -14 -11 -28 -20 -32
-20 -4 0 -16 -11 -27 -25 -11 -14 -42 -37 -69 -51 -47 -23 -51 -24 -80 -8 -25
12 -44 14 -93 8 -80 -11 -103 -8 -154 22 -61 36 -127 41 -184 15 -26 -11 -54
-21 -63 -21 -9 0 -24 -7 -32 -16 -12 -11 -26 -14 -51 -9 -27 5 -42 1 -73 -21
-32 -22 -45 -26 -79 -20 -22 3 -49 14 -59 24 -11 9 -36 33 -57 53 -25 23 -53
39 -79 44 -59 10 -105 32 -105 49 0 9 -4 16 -10 16 -5 0 -10 6 -10 13 -1 20
-81 64 -130 71 -25 4 -67 18 -95 31 -116 57 -237 81 -330 68z"/>
<path d="M10098 3093 c-25 -29 -29 -53 -13 -82 20 -41 82 -91 110 -91 58 0 61
114 5 170 -25 25 -81 27 -102 3z"/>
</g>
</svg>
