<?xml version="1.0" standalone="no"?>
<!DOCTYPE svg PUBLIC "-//W3C//DTD SVG 20010904//EN"
 "http://www.w3.org/TR/2001/REC-SVG-20010904/DTD/svg10.dtd">
<svg version="1.0" xmlns="http://www.w3.org/2000/svg"
 width="397.000000pt" height="1024.000000pt" viewBox="0 0 397.000000 1024.000000"
 preserveAspectRatio="xMidYMid meet">
<metadata>
Created by potrace 1.16, written by Peter Selinger 2001-2019
</metadata>
<g transform="translate(0.000000,1024.000000) scale(0.100000,-0.100000)"
fill="#000000" stroke="none">
<path d="M34 10206 c-15 -12 -17 -18 -8 -33 16 -26 65 -40 189 -52 81 -8 114
-16 126 -29 21 -22 49 -106 49 -148 0 -29 -7 -38 -55 -71 l-56 -38 7 -50 c15
-118 -11 -197 -97 -292 -68 -75 -78 -109 -54 -171 20 -50 110 -136 190 -182
31 -18 77 -51 103 -73 26 -22 70 -50 97 -62 63 -29 81 -48 106 -121 46 -132
63 -147 172 -154 l82 -5 27 -50 c34 -64 84 -112 150 -144 43 -21 54 -31 56
-54 4 -32 -21 -67 -48 -67 -10 0 -28 -8 -41 -19 -22 -18 -22 -21 -11 -70 7
-29 12 -84 12 -122 0 -74 11 -109 35 -109 43 0 70 -74 44 -122 -10 -18 -17
-20 -60 -14 -49 7 -49 7 -49 -22 0 -17 11 -41 26 -58 36 -40 67 -110 59 -134
-4 -12 -15 -20 -29 -20 -21 0 -22 -4 -22 -62 0 -50 -7 -76 -32 -128 -43 -87
-45 -164 -7 -182 24 -11 26 -15 20 -63 -6 -44 -3 -60 19 -103 14 -28 26 -65
26 -81 0 -24 -6 -31 -33 -40 -17 -6 -66 -10 -107 -9 -45 1 -89 -3 -108 -11
-30 -12 -33 -17 -30 -50 3 -34 6 -37 61 -55 l58 -19 -33 -34 c-31 -33 -36 -35
-85 -29 -28 3 -59 9 -69 13 -14 5 -13 0 7 -37 37 -65 55 -74 135 -61 67 10 73
13 137 64 l34 27 126 -6 c69 -4 131 -10 137 -14 6 -4 14 -26 17 -49 5 -35 13
-46 54 -76 56 -40 66 -66 50 -133 -12 -50 -59 -169 -74 -189 -5 -8 -1 -23 14
-42 28 -38 21 -81 -27 -147 -36 -51 -104 -187 -104 -210 0 -7 27 -64 60 -127
77 -146 83 -185 40 -250 -27 -40 -31 -54 -26 -86 8 -55 -8 -65 -69 -45 -44 15
-50 15 -81 0 -19 -9 -53 -16 -75 -16 l-40 0 16 -30 c12 -24 14 -38 6 -67 -10
-34 -7 -44 36 -126 64 -120 101 -161 187 -204 39 -19 96 -59 127 -88 34 -33
72 -58 98 -66 56 -17 85 -63 79 -124 -5 -39 -3 -44 19 -49 13 -4 41 -22 62
-41 46 -42 74 -129 69 -210 -3 -45 -6 -50 -28 -53 -106 -11 -108 -11 -123 -50
-18 -46 -40 -65 -95 -87 -23 -10 -42 -18 -42 -20 0 -1 8 -17 18 -36 14 -28 16
-53 13 -149 -7 -197 -6 -221 24 -320 21 -69 28 -112 27 -157 -3 -73 -4 -138
-2 -155 0 -7 -3 -46 -6 -87 -6 -65 -11 -78 -35 -98 -18 -16 -30 -37 -34 -66
-14 -83 -46 -119 -116 -132 l-36 -7 10 -41 c5 -23 10 -87 11 -142 1 -87 5
-108 30 -162 37 -81 48 -90 82 -68 31 20 97 12 125 -16 27 -27 43 -95 43 -179
-1 -65 -7 -93 -52 -212 -53 -142 -72 -220 -72 -297 0 -61 -16 -90 -68 -120
-23 -14 -50 -37 -58 -49 -16 -23 -15 -25 20 -59 45 -44 45 -68 1 -126 -40 -52
-44 -86 -15 -112 12 -10 30 -34 41 -52 12 -19 45 -49 75 -68 69 -45 81 -69 66
-136 -18 -74 -15 -123 7 -143 10 -9 51 -26 92 -37 122 -34 141 -58 99 -127
-28 -45 -25 -81 11 -135 33 -51 77 -88 154 -132 28 -15 80 -56 116 -91 77 -74
99 -84 180 -84 76 0 104 -24 114 -96 9 -70 21 -93 57 -112 18 -9 56 -40 84
-68 46 -46 57 -52 109 -59 32 -4 68 -12 81 -17 23 -11 54 -63 54 -91 0 -11 20
-5 78 23 82 40 219 80 447 130 255 56 740 172 747 178 5 6 -95 317 -126 392
-4 9 -23 25 -43 35 -26 14 -43 34 -58 70 -17 37 -43 67 -97 113 -41 35 -81 67
-88 72 -7 5 -11 26 -10 56 3 68 3 72 -20 79 -34 11 -26 65 15 111 42 46 44 71
9 131 -26 43 -27 47 -15 112 14 77 8 101 -38 154 -24 27 -33 49 -39 97 l-9 62
66 -6 c37 -3 73 -2 81 4 13 8 15 57 18 327 1 175 6 703 11 1173 4 475 4 887 0
926 -5 39 -23 112 -39 162 -41 126 -41 206 1 310 33 82 33 81 9 242 -7 47 -8
114 -3 180 4 58 8 224 8 370 1 146 5 290 9 320 7 52 5 60 -33 138 -38 77 -83
150 -121 195 -8 10 -36 30 -62 43 -33 17 -72 54 -132 125 -97 116 -101 126
-111 319 -10 183 -23 210 -101 210 -22 0 -24 4 -24 43 0 30 9 57 28 88 16 24
31 55 35 68 9 36 -21 743 -33 766 -11 20 -731 538 -962 692 -64 43 -135 95
-157 116 -38 35 -41 41 -41 92 0 85 20 204 47 280 24 69 25 72 13 193 -9 94
-9 130 0 151 6 16 47 60 90 100 62 56 82 81 94 119 18 52 36 187 36 263 l0 46
-58 6 c-31 3 -111 13 -177 21 -220 29 -277 20 -456 -70 -49 -24 -93 -44 -97
-44 -5 0 -12 27 -15 60 -7 85 -24 106 -94 120 -32 6 -139 29 -238 51 -426 92
-561 120 -742 153 -216 40 -231 42 -259 22z"/>
</g>
</svg>
