<?xml version="1.0" standalone="no"?>
<!DOCTYPE svg PUBLIC "-//W3C//DTD SVG 20010904//EN"
 "http://www.w3.org/TR/2001/REC-SVG-20010904/DTD/svg10.dtd">
<svg version="1.0" xmlns="http://www.w3.org/2000/svg"
 width="1024.000000pt" height="768.000000pt" viewBox="0 0 1024.000000 768.000000"
 preserveAspectRatio="xMidYMid meet">
<metadata>
Created by potrace 1.16, written by Peter Selinger 2001-2019
</metadata>
<g transform="translate(0.000000,768.000000) scale(0.100000,-0.100000)"
fill="#000000" stroke="none">
<path d="M1185 7179 c-72 -21 -189 -144 -376 -396 -127 -171 -131 -176 -326
-371 l-163 -164 0 -63 c0 -46 7 -78 26 -121 127 -286 200 -575 214 -844 9
-181 34 -293 110 -511 37 -105 50 -159 50 -199 0 -85 41 -161 147 -271 148
-154 181 -175 478 -309 99 -45 195 -91 213 -102 18 -11 58 -58 88 -105 66
-100 139 -163 298 -260 370 -224 545 -348 708 -502 126 -118 127 -118 367
-103 127 8 210 9 261 2 213 -28 551 -114 821 -210 277 -99 413 -164 555 -266
44 -32 147 -93 229 -137 83 -43 163 -91 178 -106 26 -24 28 -31 24 -81 -6 -71
4 -94 45 -110 61 -24 68 -36 68 -113 0 -86 18 -126 96 -217 61 -72 96 -132
114 -200 7 -28 25 -57 45 -76 22 -20 39 -49 49 -85 18 -60 56 -104 116 -134
19 -10 69 -42 110 -70 41 -29 134 -85 205 -125 72 -40 175 -102 230 -138 114
-75 259 -140 490 -218 398 -134 548 -111 830 129 75 64 139 129 214 217 25 30
54 64 65 75 30 32 113 216 141 311 64 221 51 421 -43 654 -56 141 -114 312
-119 357 -6 50 24 149 66 214 15 24 62 75 104 113 51 45 93 95 124 145 89 146
196 306 240 360 57 70 68 92 93 187 49 183 124 267 281 314 82 25 105 42 133
98 38 74 42 76 195 83 107 5 161 13 251 37 347 94 547 229 652 440 58 116 43
217 -40 280 -66 50 -144 127 -189 185 -124 160 -339 274 -694 367 -82 22 -182
53 -223 69 -53 21 -84 28 -112 25 -30 -4 -74 7 -184 46 -305 109 -282 104
-389 86 -161 -28 -345 -100 -513 -203 -41 -25 -95 -45 -184 -67 -81 -20 -131
-37 -137 -48 -8 -11 -6 -36 6 -86 21 -88 21 -125 -2 -237 -20 -97 -54 -172
-124 -270 -27 -38 -54 -93 -71 -147 -25 -80 -26 -89 -12 -115 18 -35 54 -53
105 -53 51 0 82 26 90 76 5 33 10 39 31 39 24 0 25 -3 31 -77 7 -86 14 -99 88
-175 40 -42 54 -65 70 -120 11 -37 22 -90 23 -117 l3 -50 -44 -13 c-57 -17
-91 -49 -157 -150 -62 -96 -87 -115 -160 -121 -48 -4 -55 -7 -61 -30 -5 -20 0
-30 28 -52 29 -24 32 -31 22 -51 -8 -18 -7 -29 5 -46 28 -44 -5 -116 -62 -137
-12 -4 -29 3 -52 24 -42 36 -93 40 -142 10 -63 -38 -147 -20 -195 44 -48 62
-125 85 -174 51 -29 -20 -47 -78 -40 -128 10 -70 -38 -167 -81 -167 -6 0 -20
20 -32 45 -56 115 -149 112 -179 -5 -7 -29 -22 -61 -32 -71 -19 -19 -20 -19
-75 11 -48 25 -68 30 -130 30 -94 0 -109 13 -99 84 7 57 7 54 -1 187 l-6 97
35 26 c50 39 128 63 240 75 102 12 113 10 135 -21 20 -28 67 -48 109 -48 22 0
81 19 143 45 58 25 114 45 126 45 12 0 38 -13 59 -30 44 -35 44 -35 73 -14 16
11 22 24 20 42 -3 23 -10 29 -45 36 -24 6 -43 14 -43 19 0 12 52 84 94 132 40
44 51 73 42 108 -7 27 -49 75 -95 107 -34 23 -39 24 -213 21 -151 -2 -183 0
-204 13 -13 9 -24 25 -24 36 0 40 -35 60 -102 60 -49 0 -72 5 -103 25 -27 16
-55 24 -86 25 -33 0 -56 7 -80 25 -67 49 -94 65 -110 65 -9 0 -57 -30 -108
-67 -136 -100 -186 -130 -232 -137 -56 -9 -113 11 -159 55 -30 30 -41 49 -50
96 -14 73 -28 101 -62 126 -38 28 -80 26 -122 -7 -51 -38 -69 -79 -71 -161 -2
-87 -42 -185 -75 -185 -35 0 -79 -29 -86 -55 -8 -31 29 -122 69 -171 17 -20
55 -48 86 -63 52 -25 56 -30 54 -59 -2 -44 -15 -57 -81 -83 -43 -17 -79 -22
-142 -23 -82 0 -89 2 -205 56 -121 56 -173 72 -275 83 -137 16 -290 138 -290
231 0 39 48 135 97 195 21 25 74 74 118 108 44 34 105 82 135 107 30 25 98 74
151 109 102 68 137 102 170 166 26 52 61 73 120 73 64 0 96 -19 124 -75 39
-76 66 -91 230 -132 207 -52 239 -67 266 -128 40 -87 94 -82 267 23 135 82
225 90 321 29 27 -18 67 -35 88 -38 62 -9 73 -19 73 -63 0 -33 4 -42 29 -54
16 -9 38 -31 49 -51 27 -44 44 -44 78 0 22 29 26 42 21 77 -3 22 -15 50 -26
61 -18 18 -23 19 -44 8 -28 -15 -62 -8 -71 14 -14 38 118 255 155 255 5 0 30
-29 56 -65 26 -36 53 -65 61 -65 8 0 31 9 51 20 30 18 44 38 84 124 39 86 47
113 47 162 0 110 -47 270 -90 309 -18 16 -22 16 -67 -6 -56 -28 -143 -110
-143 -136 0 -40 -16 -47 -49 -22 -29 21 -34 22 -64 10 -135 -55 -174 -64 -257
-64 -62 0 -99 5 -138 21 -39 15 -67 19 -101 15 -42 -5 -50 -2 -91 30 -25 20
-59 50 -75 66 -36 38 -44 38 -92 5 -31 -21 -44 -24 -73 -18 -19 4 -59 6 -87 5
-66 -3 -132 25 -162 68 -17 24 -30 31 -56 31 -37 0 -45 12 -45 65 0 42 -23 57
-73 48 -27 -4 -55 3 -120 31 -123 53 -269 101 -457 152 -91 25 -174 51 -185
58 -11 8 -56 46 -100 85 -44 40 -116 96 -160 125 -281 186 -311 200 -415 200
-63 0 -86 -5 -142 -31 -36 -17 -71 -40 -77 -51 -6 -11 -25 -22 -47 -25 -20 -3
-51 -18 -70 -32 -49 -38 -90 -52 -191 -68 -109 -18 -184 -49 -222 -92 -38 -44
-51 -50 -151 -70 -86 -17 -130 -35 -163 -63 -15 -13 -26 -14 -80 -4 -34 7
-112 17 -174 22 -67 5 -132 17 -160 28 -26 11 -104 30 -173 42 -69 12 -156 28
-195 36 -38 7 -97 13 -130 14 -34 0 -92 11 -134 24 -62 20 -88 23 -156 19
-133 -9 -180 30 -194 162 -5 42 -12 79 -15 83 -4 3 -30 18 -58 32 -86 42 -93
58 -93 218 0 121 -3 143 -23 187 -21 46 -22 54 -11 120 25 150 105 341 226
543 37 61 62 90 95 111 25 16 52 43 61 63 20 42 40 163 31 190 -10 34 -66 46
-129 27z"/>
</g>
</svg>
