<?xml version="1.0" standalone="no"?>
<!DOCTYPE svg PUBLIC "-//W3C//DTD SVG 20010904//EN"
 "http://www.w3.org/TR/2001/REC-SVG-20010904/DTD/svg10.dtd">
<svg version="1.0" xmlns="http://www.w3.org/2000/svg"
 width="1024.000000pt" height="1024.000000pt" viewBox="0 0 1024.000000 1024.000000"
 preserveAspectRatio="xMidYMid meet">
<metadata>
Created by potrace 1.16, written by Peter Selinger 2001-2019
</metadata>
<g transform="translate(0.000000,1024.000000) scale(0.100000,-0.100000)"
fill="#000000" stroke="none">
<path d="M9556 9479 c-15 -12 -38 -43 -51 -70 -30 -57 -56 -68 -125 -50 -72
19 -118 15 -204 -14 -90 -30 -116 -45 -167 -92 -24 -23 -56 -39 -94 -49 -32
-9 -84 -28 -114 -44 -31 -15 -90 -40 -131 -54 -90 -32 -142 -66 -280 -180 -58
-48 -130 -103 -160 -123 -93 -62 -149 -113 -197 -182 -85 -120 -196 -253 -235
-281 -21 -15 -55 -31 -75 -35 -60 -11 -90 -32 -112 -78 -29 -60 -27 -108 5
-146 19 -23 34 -31 59 -31 66 0 141 -21 197 -55 93 -58 112 -53 227 59 135
133 192 178 216 172 11 -2 39 -11 62 -20 37 -14 49 -14 85 -2 24 7 61 18 84
24 25 8 55 27 78 52 l38 41 108 -7 c105 -7 110 -6 152 19 24 14 82 60 129 102
46 42 114 94 150 115 36 21 79 54 95 73 28 34 49 46 176 101 31 13 81 43 111
65 29 23 58 41 64 41 27 0 92 63 117 111 32 64 33 110 5 156 l-21 34 31 31
c37 37 45 63 37 122 -10 66 -57 130 -127 176 -70 45 -95 49 -133 19z"/>
<path d="M6345 6095 c-16 -9 -40 -26 -52 -37 -18 -17 -30 -20 -65 -15 -31 4
-81 -4 -178 -27 -83 -21 -173 -36 -235 -40 -101 -5 -197 -21 -320 -52 -54 -14
-77 -26 -122 -68 l-56 -51 -156 -4 c-536 -12 -703 3 -826 75 -24 14 -58 24
-79 24 -33 0 -45 -8 -106 -70 -38 -38 -75 -70 -83 -70 -8 0 -33 -14 -57 -31
-40 -29 -47 -31 -75 -20 -66 24 -104 5 -150 -76 -16 -27 -29 -50 -31 -52 -2
-2 -17 8 -34 23 -35 29 -63 32 -100 12 -22 -13 -27 -12 -53 10 -16 13 -41 24
-56 24 -32 0 -71 -25 -71 -46 0 -8 -11 -26 -25 -39 -22 -23 -33 -25 -107 -25
-76 -1 -223 -22 -338 -48 -136 -32 -155 -34 -268 -27 -114 7 -118 6 -152 -19
-19 -13 -54 -37 -78 -53 -121 -79 -254 -177 -276 -204 -34 -40 -62 -134 -50
-167 16 -44 58 -66 135 -70 65 -4 71 -6 84 -33 21 -39 53 -59 98 -59 40 0 72
24 108 80 15 23 23 25 104 29 78 3 92 1 134 -23 26 -14 73 -28 103 -32 53 -6
59 -10 137 -88 44 -44 100 -106 123 -137 24 -31 63 -80 87 -110 49 -60 145
-255 167 -338 7 -30 23 -79 34 -109 24 -62 21 -106 -11 -176 -12 -27 -19 -64
-19 -110 0 -54 -11 -105 -51 -235 -28 -91 -64 -190 -80 -220 -16 -30 -29 -64
-29 -75 0 -41 41 -172 67 -210 20 -31 24 -46 19 -78 -7 -46 4 -71 51 -113 70
-61 75 -79 84 -273 8 -196 6 -206 -58 -317 l-38 -66 -145 -76 -145 -77 -108
-4 c-98 -4 -110 -2 -130 16 -33 29 -54 38 -141 57 -89 20 -214 16 -281 -8 -58
-20 -78 -54 -85 -140 l-5 -73 -53 -47 c-29 -26 -94 -75 -145 -109 -50 -34
-107 -77 -126 -95 -42 -41 -165 -100 -246 -118 -141 -33 -215 -46 -302 -54
-71 -6 -101 -14 -137 -35 -25 -14 -74 -35 -109 -46 -73 -23 -96 -44 -130 -121
-42 -96 -131 -141 -313 -158 -55 -5 -117 -16 -137 -25 -49 -20 -182 -140 -213
-192 -32 -54 -31 -92 5 -141 40 -56 99 -78 186 -70 66 6 110 25 236 98 36 21
96 45 132 55 37 9 88 30 113 48 94 64 125 76 189 76 54 0 65 -4 95 -30 46 -41
83 -46 171 -21 97 26 245 43 395 45 l122 1 120 -81 c116 -79 124 -82 205 -94
90 -14 102 -13 187 18 172 63 286 78 530 72 174 -5 293 -4 535 4 121 4 333 6
470 5 233 -1 254 0 307 20 31 12 112 28 180 36 228 27 357 16 481 -42 l57 -27
115 18 c63 10 163 20 222 21 137 3 173 15 353 115 136 75 244 120 294 120 48
1 104 39 181 126 136 151 139 154 177 154 24 0 45 -9 68 -30 42 -38 91 -40
124 -7 19 19 24 37 29 117 5 78 3 100 -12 134 -24 53 -34 108 -32 176 1 30 -4
76 -11 102 -9 39 -9 63 3 130 9 52 13 133 11 217 -2 100 1 147 13 190 23 79
37 97 94 116 63 21 85 52 85 123 0 82 -34 105 -129 88 -39 -7 -42 -5 -97 51
-65 66 -77 90 -112 230 -14 56 -35 123 -47 149 -33 78 -73 270 -93 454 -7 63
-11 120 -9 126 2 6 27 26 54 44 28 18 62 50 77 72 24 36 26 51 30 156 3 101 1
124 -17 170 -12 31 -21 75 -21 107 0 75 -34 244 -71 351 -38 114 -50 244 -25
292 22 42 50 59 116 67 79 10 102 26 169 113 94 120 101 128 192 226 81 85
109 133 109 182 0 7 15 38 33 70 23 41 40 60 62 67 47 15 81 43 99 81 18 39
22 147 5 178 -14 27 -112 69 -175 75 -39 4 -59 1 -92 -16 -58 -30 -217 -30
-300 -1 -80 29 -246 38 -287 15z"/>
</g>
</svg>
