<?xml version="1.0" standalone="no"?>
<!DOCTYPE svg PUBLIC "-//W3C//DTD SVG 20010904//EN"
 "http://www.w3.org/TR/2001/REC-SVG-20010904/DTD/svg10.dtd">
<svg version="1.0" xmlns="http://www.w3.org/2000/svg"
 width="535.000000pt" height="1024.000000pt" viewBox="0 0 535.000000 1024.000000"
 preserveAspectRatio="xMidYMid meet">
<metadata>
Created by potrace 1.16, written by Peter Selinger 2001-2019
</metadata>
<g transform="translate(0.000000,1024.000000) scale(0.100000,-0.100000)"
fill="#000000" stroke="none">
<path d="M3115 10230 c-93 -9 -193 -33 -247 -61 -20 -10 -52 -19 -70 -19 -18
-1 -60 -7 -93 -15 -33 -8 -91 -15 -128 -15 -77 0 -112 -14 -152 -62 -44 -53
-74 -68 -136 -68 l-55 0 -114 -102 c-122 -108 -181 -142 -276 -159 -114 -20
-124 -28 -124 -105 0 -31 -5 -64 -11 -75 -5 -11 -52 -47 -104 -80 -51 -33 -96
-67 -100 -77 -4 -9 -10 -41 -14 -71 l-6 -54 -95 -31 c-53 -17 -107 -40 -121
-51 -76 -60 -122 -106 -113 -115 5 -5 61 -30 124 -55 63 -26 123 -51 133 -57
16 -8 12 -20 -42 -121 -33 -62 -73 -152 -91 -202 -48 -137 -93 -371 -94 -490
-1 -95 1 -103 32 -164 51 -96 63 -137 73 -246 10 -110 2 -156 -34 -201 -29
-37 -30 -122 -2 -178 16 -32 28 -42 60 -51 27 -7 44 -20 56 -40 36 -64 36 -67
-49 -162 -127 -143 -120 -128 -212 -458 -34 -121 -65 -231 -69 -245 -5 -18
-26 -35 -76 -60 -70 -35 -70 -35 -75 -82 -3 -26 -8 -50 -11 -52 -3 -3 -49 -10
-103 -16 -53 -5 -105 -14 -115 -19 -57 -31 -150 -176 -176 -276 -8 -33 -20
-75 -26 -94 l-12 -34 -101 6 c-85 5 -107 3 -141 -12 -103 -46 -149 -159 -175
-427 -19 -197 7 -351 75 -444 18 -25 45 -74 60 -109 14 -35 48 -103 75 -150
27 -47 60 -124 75 -171 41 -127 45 -133 127 -172 42 -21 101 -62 139 -97 36
-33 86 -68 110 -77 24 -10 54 -24 67 -32 22 -14 156 -201 187 -262 9 -17 29
-122 45 -233 16 -111 34 -219 40 -239 8 -30 29 -52 103 -110 140 -110 691
-528 748 -567 36 -25 51 -43 59 -70 5 -20 64 -304 130 -631 226 -1113 402
-1963 406 -1968 1 -2 80 28 176 66 190 76 259 96 392 112 104 13 133 26 171
77 16 21 81 98 145 171 157 181 180 214 196 274 18 69 37 309 29 373 -4 28
-33 134 -66 238 -75 235 -92 313 -86 399 5 80 32 130 118 222 68 73 122 100
218 110 67 8 116 27 139 55 7 9 40 71 73 139 53 111 63 124 96 138 27 12 53
14 99 9 62 -6 62 -6 86 27 13 18 40 59 59 92 49 83 104 128 212 171 188 75
368 172 467 251 52 41 129 92 170 112 65 32 78 44 97 82 12 25 25 68 28 95 6
45 3 55 -29 105 -99 157 -91 132 -78 234 14 113 72 341 112 441 50 126 39 164
-53 181 -22 3 -62 22 -90 41 -111 75 -130 75 -77 1 17 -22 30 -45 30 -51 0 -5
-39 -8 -98 -5 -75 3 -106 8 -132 24 -33 19 -100 96 -100 114 0 17 41 21 96 10
31 -7 58 -10 60 -7 9 9 -80 87 -126 109 -40 21 -47 29 -66 84 l-21 61 20 55
c20 56 20 56 0 94 -15 30 -34 46 -84 70 -36 18 -71 39 -78 48 -18 22 -43 20
-76 -6 -23 -18 -26 -27 -22 -59 6 -46 0 -52 -79 -80 -118 -41 -152 -49 -184
-38 -46 17 -47 42 -1 118 45 74 52 118 23 144 -27 25 -40 22 -146 -29 -93 -45
-97 -46 -142 -35 -98 25 -300 149 -372 229 -56 62 -169 238 -191 297 -31 84
-54 264 -32 251 5 -3 12 2 15 12 4 9 26 50 48 90 39 67 47 75 111 107 38 19
76 35 83 35 7 0 28 13 47 29 22 20 46 31 72 33 31 2 39 7 37 20 -2 12 8 22 30
31 18 8 52 30 76 50 38 32 111 66 177 83 23 6 105 87 105 104 0 4 24 19 53 35
67 36 92 59 118 109 11 23 51 67 90 99 93 78 141 151 147 223 5 55 5 56 49 75
51 22 82 77 83 146 0 36 5 46 35 70 19 15 35 35 36 43 0 8 22 33 49 55 27 22
49 43 49 47 1 4 -34 41 -76 81 l-77 74 13 40 c7 21 14 63 16 93 2 30 6 69 10
87 5 24 1 41 -18 75 -18 31 -22 50 -17 68 5 14 8 30 9 35 1 14 -109 94 -173
125 -44 22 -52 30 -63 69 -19 65 -29 73 -92 70 -89 -3 -99 -1 -140 37 -51 46
-94 113 -126 197 -14 37 -41 91 -61 120 l-36 52 6 100 c4 78 14 127 45 222 22
68 45 131 50 142 8 14 33 23 103 35 129 23 190 42 223 68 15 12 54 62 86 112
220 347 274 423 304 432 l30 9 -4 95 c-2 63 -8 100 -17 111 -8 8 -14 36 -14
62 0 37 -6 53 -29 79 l-29 33 -21 -27 c-14 -17 -38 -30 -72 -38 -41 -10 -55
-19 -68 -44 -41 -78 -165 -153 -298 -180 -96 -20 -117 -35 -145 -108 -31 -82
-53 -96 -161 -104 l-88 -7 -47 51 c-43 45 -52 50 -100 55 -67 5 -81 18 -53 46
17 17 33 21 89 21 45 0 75 5 90 16 41 28 28 45 -83 117 -86 55 -128 173 -71
199 14 6 27 16 30 23 7 20 -22 53 -54 60 -65 14 -31 37 78 50 28 4 52 10 52
15 0 4 -32 16 -72 26 -40 9 -105 35 -145 56 -65 34 -80 38 -146 38 -114 0
-166 24 -194 88 -7 18 -25 37 -39 42 -27 11 -39 11 -159 0z"/>
<path d="M4935 6480 c-14 -23 -34 -43 -43 -46 -9 -3 -24 -9 -32 -13 -17 -9
-60 -79 -60 -98 0 -18 91 -17 137 2 66 27 117 127 88 172 -25 37 -60 30 -90
-17z"/>
<path d="M4297 5203 c-47 -12 -77 -186 -43 -251 15 -30 46 -44 46 -22 0 20 51
10 75 -15 19 -18 25 -35 25 -65 l0 -41 61 52 c52 46 63 52 79 41 26 -16 26
-16 40 18 7 16 34 46 61 65 43 31 49 39 49 71 0 27 -7 43 -31 65 -17 16 -35
29 -40 29 -4 0 -31 13 -58 29 -42 25 -51 28 -62 15 -15 -18 -49 -18 -119 1
-30 8 -57 14 -60 14 -3 -1 -13 -3 -23 -6z"/>
</g>
</svg>
