<?xml version="1.0" standalone="no"?>
<!DOCTYPE svg PUBLIC "-//W3C//DTD SVG 20010904//EN"
 "http://www.w3.org/TR/2001/REC-SVG-20010904/DTD/svg10.dtd">
<svg version="1.0" xmlns="http://www.w3.org/2000/svg"
 width="1024.000000pt" height="768.000000pt" viewBox="0 0 1024.000000 768.000000"
 preserveAspectRatio="xMidYMid meet">
<metadata>
Created by potrace 1.16, written by Peter Selinger 2001-2019
</metadata>
<g transform="translate(0.000000,768.000000) scale(0.100000,-0.100000)"
fill="#000000" stroke="none">
<path d="M1300 5745 c-9 -11 -24 -13 -50 -9 -31 5 -40 2 -56 -18 -24 -31 -62
-43 -151 -46 -38 -2 -43 -5 -49 -29 -14 -62 -14 -63 -53 -63 -42 0 -61 -14
-61 -46 0 -17 9 -26 35 -35 19 -7 35 -19 35 -27 0 -8 13 -19 28 -24 26 -10 30
-18 41 -84 13 -79 10 -97 -18 -92 -10 2 -34 -9 -54 -25 -19 -15 -43 -27 -51
-27 -13 0 -16 -12 -16 -63 0 -37 5 -69 13 -76 9 -10 9 -15 0 -18 -7 -2 -10
-10 -7 -18 3 -8 -6 -21 -20 -30 -14 -10 -40 -39 -58 -66 -17 -27 -37 -49 -45
-49 -8 0 -13 -12 -13 -32 0 -56 7 -59 121 -57 57 1 111 5 119 9 8 4 38 11 66
15 43 5 52 4 58 -11 8 -20 -10 -44 -34 -44 -10 0 -20 -7 -24 -15 -3 -8 -12
-12 -20 -9 -16 6 -96 -36 -136 -72 -14 -12 -35 -25 -47 -29 -24 -7 -31 -29
-13 -40 17 -11 11 -50 -15 -99 -20 -37 -22 -46 -9 -46 27 0 86 52 81 71 -3 12
2 20 14 24 10 4 26 16 36 28 10 12 30 30 46 40 15 10 27 24 27 33 0 8 7 17 15
20 8 4 15 12 15 20 0 7 38 32 85 54 47 22 85 45 85 50 0 6 14 10 30 10 44 0
155 116 173 179 l13 46 63 13 c54 10 68 10 94 -3 41 -20 64 -19 72 4 3 11 25
27 51 37 37 14 53 15 102 5 31 -6 70 -21 86 -33 20 -14 31 -17 34 -10 5 17 22
15 22 -2 0 -33 167 -17 192 19 5 6 8 4 8 -5 0 -17 48 -58 97 -84 21 -11 30
-21 27 -31 -4 -9 0 -15 9 -15 8 0 17 -6 20 -13 4 -11 24 -13 86 -9 44 2 88 1
98 -4 10 -5 35 -9 55 -9 21 0 37 -4 37 -10 0 -5 -13 -8 -29 -7 -16 2 -55 -2
-86 -8 -46 -10 -58 -9 -65 1 -6 11 -12 11 -31 0 -13 -7 -28 -11 -34 -10 -5 2
-19 -2 -31 -9 -11 -6 -54 -15 -95 -18 -40 -4 -80 -12 -88 -19 -8 -7 -30 -20
-47 -29 -18 -9 -33 -21 -33 -26 0 -17 79 -51 104 -44 28 7 66 -3 66 -17 0 -5
-6 -9 -14 -9 -7 0 -16 -9 -19 -20 -6 -24 -35 -26 -95 -5 -32 11 -48 12 -63 5
-14 -8 -48 -8 -114 -1 -81 10 -159 6 -230 -9 -5 -1 -21 -2 -35 -1 -25 2 -25 2
10 31 43 35 36 44 -45 58 -48 8 -63 8 -74 -3 -12 -12 -10 -18 15 -44 16 -17
35 -31 41 -31 19 0 16 -9 -8 -29 -32 -26 -169 -22 -206 6 -15 11 -27 28 -25
36 4 23 -16 31 -68 28 -28 -2 -53 -10 -66 -22 -17 -16 -29 -18 -82 -13 l-62 7
-63 -67 c-35 -36 -71 -66 -80 -66 -10 0 -17 -8 -17 -20 0 -45 -45 -100 -81
-100 -37 0 -43 -21 -42 -142 1 -54 -3 -98 -8 -98 -11 0 -32 -78 -24 -90 9 -15
24 -13 158 20 67 16 141 31 165 33 23 3 45 7 49 11 16 16 33 4 33 -24 0 -16
-4 -30 -8 -30 -12 0 -52 -36 -52 -46 0 -12 -66 -64 -80 -64 -21 0 -4 -25 18
-28 12 -2 22 -10 22 -19 0 -8 16 -29 35 -46 38 -33 44 -51 20 -61 -18 -7 -20
-59 -2 -74 6 -5 33 -9 60 -7 40 3 47 1 47 -15 0 -11 -10 -20 -25 -24 -14 -4
-25 -11 -25 -17 0 -6 -5 -7 -12 -3 -8 5 -9 0 -5 -15 6 -24 3 -26 -55 -36 -33
-5 -37 -9 -36 -35 1 -23 8 -33 29 -42 21 -9 27 -18 23 -30 -3 -11 0 -18 7 -18
7 0 10 -3 7 -6 -4 -3 3 -15 15 -27 18 -18 31 -21 72 -18 45 3 48 2 36 -13 -8
-9 -22 -14 -31 -11 -9 3 -30 -1 -46 -10 -42 -22 -87 -19 -102 5 -17 27 -32 16
-32 -23 l-1 -32 -20 40 c-12 24 -15 41 -9 43 17 6 12 30 -15 72 -31 49 -63 71
-93 63 -25 -6 -26 -13 -10 -68 6 -22 10 -46 9 -54 -2 -8 3 -12 12 -8 8 3 23
-1 34 -8 10 -9 13 -14 6 -15 -7 0 -13 -8 -13 -18 0 -11 -12 -24 -27 -31 -23
-11 -29 -10 -39 3 -13 19 -28 21 -21 4 2 -7 -2 -21 -10 -30 -13 -15 -12 -18
15 -32 16 -8 32 -12 36 -9 3 4 6 1 6 -5 0 -7 6 -12 13 -12 7 0 29 -13 47 -30
18 -16 37 -30 41 -30 4 0 10 14 14 30 5 24 12 30 32 30 32 0 73 -43 73 -77 0
-20 3 -24 18 -17 29 13 56 7 96 -20 21 -14 47 -26 58 -26 24 0 34 -25 20 -54
-5 -13 -6 -29 -1 -37 21 -39 -23 -79 -87 -79 -38 0 -28 -16 21 -34 25 -10 45
-24 45 -32 0 -9 -4 -13 -8 -10 -5 3 -6 -8 -4 -25 2 -16 9 -29 14 -29 6 0 8
-14 4 -35 -9 -46 14 -56 54 -26 35 25 59 29 40 6 -16 -19 -5 -49 16 -41 12 5
14 1 9 -15 -5 -15 -4 -19 4 -15 6 4 11 0 11 -11 1 -17 1 -17 14 0 14 18 36 23
36 8 0 -5 -7 -16 -15 -25 -8 -8 -15 -23 -15 -34 0 -29 -29 -35 -68 -15 -26 14
-36 15 -39 5 -3 -6 -9 -10 -14 -6 -5 3 -9 -2 -9 -10 0 -9 -5 -16 -11 -16 -7 0
-8 -12 -4 -32 10 -44 20 -53 36 -31 17 23 71 30 63 8 -5 -12 0 -14 22 -10 61
10 212 27 274 31 36 2 79 6 95 9 27 5 28 4 11 -7 -10 -7 -30 -23 -44 -35 -14
-13 -38 -23 -55 -23 -24 0 -28 -3 -24 -20 3 -10 0 -22 -7 -25 -8 -3 -8 -7 2
-11 29 -13 8 -24 -45 -23 -78 1 -140 -4 -149 -13 -4 -5 -18 -8 -30 -8 -25 0
-93 -31 -94 -42 0 -13 56 -26 74 -16 10 6 31 8 47 4 24 -4 30 -1 41 22 13 26
16 27 76 24 41 -2 73 2 92 12 49 24 35 -10 -15 -37 -25 -14 -23 -20 5 -19 3 0
11 -6 18 -14 12 -13 9 -17 -17 -27 -17 -6 -31 -15 -31 -19 0 -23 77 8 86 34 6
21 59 60 68 51 12 -12 6 8 -10 32 -16 24 -12 45 8 45 5 0 8 -6 5 -13 -4 -10 5
-14 29 -15 19 -1 34 3 34 8 0 6 -5 10 -12 10 -9 0 -9 3 0 12 9 9 15 8 26 -8 9
-11 26 -19 43 -19 23 0 29 -5 33 -30 4 -24 11 -31 35 -33 30 -4 65 -32 65 -52
0 -5 5 -10 10 -10 10 0 14 14 11 37 -1 7 6 21 16 32 18 18 19 18 57 -6 l38
-25 -21 -19 c-23 -22 -18 -49 9 -49 15 0 18 -7 16 -43 -2 -42 23 -87 48 -87 6
0 20 -12 30 -26 14 -17 26 -24 40 -20 12 3 30 -2 40 -10 11 -8 30 -14 42 -14
13 0 34 -11 48 -25 14 -14 28 -21 31 -15 3 6 17 7 29 4 16 -4 25 0 29 10 4 9
13 13 20 10 8 -3 17 1 20 9 3 9 26 18 56 22 35 5 55 13 62 26 11 22 25 23 79
7 26 -9 40 -19 42 -32 5 -35 41 32 43 80 0 23 9 54 19 69 13 20 18 49 19 111
2 71 5 87 23 105 18 17 25 19 42 10 11 -6 51 -11 89 -12 77 0 212 -22 222 -35
8 -12 250 -130 281 -138 40 -9 87 -59 145 -155 22 -36 53 -71 64 -71 6 0 11
-4 11 -9 0 -5 17 -16 38 -25 20 -10 49 -24 64 -32 37 -20 85 -18 115 6 20 16
34 18 65 13 28 -4 42 -2 48 8 5 7 30 14 57 16 26 1 73 4 104 6 31 1 64 9 73
16 14 12 18 11 30 -4 12 -17 13 -17 19 4 3 12 14 25 25 28 11 2 25 16 32 29
17 32 36 30 54 -3 l14 -28 7 27 c4 14 15 28 26 31 12 3 19 14 19 30 0 14 10
34 23 44 12 10 35 35 50 56 16 21 45 48 65 62 20 13 50 36 67 52 59 56 137 64
174 18 10 -14 21 -22 23 -20 7 8 65 -20 136 -65 l63 -39 39 20 c29 15 44 18
57 10 27 -14 35 -7 71 73 3 5 -1 5 -8 1 -8 -5 -11 -3 -8 6 2 8 19 15 36 17 22
2 46 17 76 48 24 24 53 44 64 44 12 0 34 -17 51 -37 26 -31 31 -46 31 -89 0
-49 -2 -54 -37 -75 -32 -20 -163 -142 -163 -152 0 -2 20 -39 45 -83 49 -86 52
-99 29 -132 -14 -21 -14 -22 5 -22 12 0 21 -7 21 -15 0 -8 7 -15 15 -15 9 0
27 -7 40 -16 24 -16 24 -16 31 25 4 23 12 41 19 41 7 0 18 7 25 15 7 9 19 14
25 11 8 -3 14 15 19 57 3 33 8 62 10 64 2 2 33 6 70 10 62 5 66 7 66 30 0 16
-7 27 -20 30 -11 3 -17 9 -14 14 2 5 -3 20 -12 34 -14 21 -15 33 -6 68 6 23
14 62 17 87 3 25 11 57 17 71 l12 27 54 -19 c31 -11 63 -19 72 -19 22 0 50
-31 50 -56 0 -18 8 -19 103 -19 91 1 107 3 147 27 25 14 67 31 95 38 27 6 85
29 128 51 42 21 90 39 105 39 59 0 126 -30 175 -78 l48 -47 67 2 c37 1 94 -2
127 -9 51 -9 78 -7 180 12 126 23 209 49 261 81 17 10 37 19 45 19 7 0 43 20
80 45 37 25 74 45 83 45 9 0 38 11 64 24 68 34 125 40 205 22 101 -24 176 -20
331 16 134 31 140 34 182 76 24 24 44 39 44 34 0 -5 14 -15 30 -22 22 -9 30
-19 30 -39 0 -44 13 -54 58 -46 36 6 45 14 87 76 40 60 75 88 75 60 0 -19 60
-23 105 -6 43 17 45 17 81 -4 20 -12 43 -20 51 -16 8 3 28 -4 44 -16 29 -20
41 -23 139 -35 79 -9 91 -7 125 26 33 32 33 32 77 18 29 -10 47 -23 56 -42 13
-25 12 -30 -7 -48 -23 -21 -22 -43 5 -85 19 -30 38 -29 52 2 6 14 18 25 27 25
8 0 33 16 55 36 36 33 44 36 84 32 36 -4 43 -3 39 9 -3 8 0 26 8 39 12 24 11
28 -28 63 -22 21 -47 41 -56 44 -12 4 -15 18 -12 54 2 26 -2 54 -7 61 -8 9 -7
20 3 38 12 24 12 28 -10 45 -13 10 -27 16 -32 13 -5 -3 -21 8 -35 25 -20 24
-34 31 -61 31 -34 0 -34 1 -28 33 7 32 32 87 44 97 14 11 31 51 31 72 0 12 10
32 22 45 30 32 14 59 -31 55 l-31 -3 0 85 c0 57 -4 86 -11 86 -8 0 -10 18 -5
60 6 50 4 61 -9 66 -20 8 -48 73 -39 93 3 9 8 32 10 52 3 30 0 38 -20 47 -19
8 -26 22 -31 57 -4 25 -11 48 -16 51 -35 21 47 44 95 26 45 -18 73 5 81 65 16
117 71 198 102 151 12 -19 74 -61 80 -54 9 9 -34 70 -66 93 -16 13 -36 35 -43
50 -7 15 -36 43 -63 61 -47 31 -54 32 -115 27 -98 -9 -115 -8 -162 13 -24 11
-53 23 -66 26 -26 9 -29 31 -5 40 12 5 14 9 5 18 -7 7 -12 19 -12 29 0 9 -9
28 -20 42 -14 18 -19 34 -15 50 4 14 2 28 -4 31 -16 10 -14 43 3 53 21 12 56
85 56 117 0 15 -12 59 -27 97 -22 56 -33 71 -60 84 -39 19 -53 41 -46 77 6 33
-25 53 -73 45 -27 -5 -36 -2 -44 14 -6 10 -18 19 -28 19 -15 1 -15 3 3 16 13
9 16 17 9 22 -6 4 -27 17 -47 30 -20 13 -39 32 -42 43 -7 22 -41 44 -70 44
-19 0 -22 10 -14 45 3 12 -8 15 -55 15 -58 0 -60 -1 -68 -31 -4 -17 -16 -38
-27 -48 -17 -15 -22 -16 -53 -3 -35 15 -113 28 -178 31 -24 2 -43 -5 -61 -22
-24 -21 -29 -22 -50 -10 -13 7 -27 17 -30 22 -4 5 -11 6 -17 2 -5 -3 -24 -1
-41 5 -26 9 -35 8 -51 -6 -10 -9 -21 -27 -24 -40 -4 -14 -16 -25 -32 -29 -15
-4 -41 -18 -59 -32 -17 -13 -39 -24 -47 -24 -9 0 -21 -7 -28 -16 -19 -22 -81
-46 -104 -40 -13 3 -30 -6 -51 -28 -36 -38 -111 -80 -126 -70 -6 3 -27 -5 -47
-18 -20 -14 -59 -33 -85 -43 -48 -18 -48 -18 -79 5 -23 17 -35 20 -52 13 -15
-8 -31 -5 -59 10 -20 10 -44 16 -53 13 -17 -7 -84 29 -84 45 0 19 -46 19 -84
0 -30 -16 -42 -17 -56 -9 -14 9 -25 9 -45 0 -14 -7 -43 -12 -65 -12 -21 0 -42
-4 -45 -10 -3 -5 -14 -10 -24 -10 -10 0 -30 -9 -44 -20 -18 -14 -34 -18 -54
-14 -20 4 -33 1 -42 -10 -15 -18 -121 -23 -121 -6 0 5 -15 9 -32 8 -18 0 -57
7 -87 15 -29 9 -57 14 -61 12 -13 -8 -70 48 -70 68 0 12 -5 17 -14 14 -7 -3
-18 -1 -24 5 -8 8 -16 2 -29 -20 -18 -32 -57 -43 -78 -23 -25 24 -89 51 -120
51 -53 0 -84 19 -91 55 -5 27 -15 37 -59 59 -72 35 -137 36 -153 2 -6 -14 -23
-32 -37 -42 -23 -15 -27 -15 -50 0 -14 9 -25 21 -25 26 0 5 -11 15 -24 22 -14
7 -38 31 -56 52 -27 35 -30 44 -24 83 6 41 4 46 -31 79 -43 40 -43 40 -150 0
-38 -14 -77 -26 -86 -26 -35 0 -169 78 -169 98 0 7 -11 25 -25 40 -14 15 -28
35 -31 45 -8 24 22 68 41 61 8 -4 15 -1 15 6 0 8 -10 9 -30 5 -22 -5 -33 -2
-47 14 -22 27 -50 27 -58 1 -4 -12 -24 -32 -45 -46 -34 -23 -46 -25 -97 -20
-32 4 -71 6 -88 5 -16 0 -46 -1 -65 -1 -49 -1 -312 20 -390 31 -69 9 -72 8
-246 -70 -22 -10 -72 -23 -110 -30 -62 -11 -97 -25 -168 -66 -11 -7 -28 -13
-37 -13 -9 0 -28 -15 -43 -34 -15 -21 -56 -50 -98 -72 -40 -20 -91 -49 -114
-65 -22 -15 -72 -42 -110 -61 -66 -31 -69 -34 -66 -65 5 -51 -39 -91 -113
-103 -94 -15 -171 -12 -218 9 -23 10 -69 24 -102 31 -33 7 -69 18 -79 26 -17
11 -23 10 -50 -13 -29 -24 -35 -25 -116 -21 -47 3 -149 18 -228 34 -116 23
-146 26 -162 16 -25 -15 -31 -15 -27 0 1 7 -16 15 -44 19 -25 4 -77 21 -115
39 -220 104 -237 113 -280 157 -24 26 -44 55 -44 64 0 10 -4 20 -9 23 -16 10
-53 95 -46 106 3 5 13 10 21 10 11 0 13 7 8 28 -4 15 -7 28 -8 29 -1 1 -24 3
-51 5 -36 2 -49 0 -47 -10 1 -9 -8 -11 -38 -6 -29 5 -47 2 -65 -10 -23 -15
-27 -15 -59 6 -18 12 -42 34 -52 49 -25 37 -59 52 -74 34z"/>
<path d="M1456 4843 c-10 -11 8 -43 25 -43 23 0 69 21 69 31 0 13 -83 23 -94
12z"/>
<path d="M1927 4783 c-4 -3 -7 -13 -7 -22 1 -13 3 -13 11 2 11 19 8 33 -4 20z"/>
<path d="M1480 4735 c0 -8 7 -15 15 -15 8 0 15 7 15 15 0 8 -7 15 -15 15 -8 0
-15 -7 -15 -15z"/>
<path d="M655 4578 c-49 -16 -74 -30 -80 -46 -12 -32 46 -42 116 -20 35 10 54
28 30 28 -5 0 -11 10 -13 22 -4 26 -14 29 -53 16z"/>
<path d="M720 4330 c0 -12 35 -31 44 -23 15 15 4 33 -19 33 -14 0 -25 -4 -25
-10z"/>
<path d="M1057 3526 c-3 -8 -2 -18 4 -22 16 -9 22 2 11 21 -8 15 -10 16 -15 1z"/>
<path d="M880 3480 c0 -5 5 -10 10 -10 6 0 10 5 10 10 0 6 -4 10 -10 10 -5 0
-10 -4 -10 -10z"/>
<path d="M2100 2420 c0 -5 5 -10 10 -10 6 0 10 5 10 10 0 6 -4 10 -10 10 -5 0
-10 -4 -10 -10z"/>
<path d="M2427 2123 c-4 -3 -7 -11 -7 -17 0 -6 5 -5 12 2 6 6 9 14 7 17 -3 3
-9 2 -12 -2z"/>
</g>
</svg>
