<?xml version="1.0" standalone="no"?>
<!DOCTYPE svg PUBLIC "-//W3C//DTD SVG 20010904//EN"
 "http://www.w3.org/TR/2001/REC-SVG-20010904/DTD/svg10.dtd">
<svg version="1.0" xmlns="http://www.w3.org/2000/svg"
 width="1024.000000pt" height="768.000000pt" viewBox="0 0 1024.000000 768.000000"
 preserveAspectRatio="xMidYMid meet">
<metadata>
Created by potrace 1.16, written by Peter Selinger 2001-2019
</metadata>
<g transform="translate(0.000000,768.000000) scale(0.100000,-0.100000)"
fill="#000000" stroke="none">
<path d="M4397 6961 c-16 -10 -56 -21 -91 -24 -91 -9 -141 -31 -161 -72 -15
-34 -12 -79 6 -91 23 -14 4 -24 -44 -24 -47 0 -59 -4 -97 -37 -50 -43 -70 -85
-70 -146 0 -67 -20 -80 -114 -71 -70 6 -80 5 -133 -21 -76 -37 -200 -161 -236
-235 -32 -67 -81 -283 -72 -325 3 -16 17 -47 30 -67 38 -58 34 -72 -17 -63
-54 11 -128 11 -518 5 -359 -6 -340 -9 -437 82 -64 62 -104 123 -138 211 -66
175 -134 261 -265 332 -49 26 -109 73 -177 138 -105 99 -164 136 -218 137 -16
0 -83 -9 -148 -20 -122 -21 -152 -33 -347 -135 -72 -38 -79 -40 -166 -40 l-92
0 -63 -59 c-189 -175 -204 -210 -159 -354 11 -35 20 -83 20 -106 0 -63 25
-137 65 -189 34 -45 35 -47 34 -139 -1 -53 6 -121 15 -158 14 -62 13 -102 -5
-125 -4 -6 -29 -76 -54 -155 l-47 -145 4 -155 c3 -151 4 -156 32 -205 38 -65
79 -105 106 -105 12 0 35 14 50 30 27 29 30 30 122 30 62 -1 99 -5 111 -14 16
-13 77 -182 77 -216 0 -8 -23 8 -50 38 -41 43 -56 52 -84 52 -18 0 -38 -6 -44
-12 -5 -7 -31 -65 -56 -130 -33 -85 -46 -130 -46 -167 0 -91 37 -147 103 -158
33 -5 40 -2 69 31 17 20 36 36 42 36 6 0 34 -10 63 -22 49 -20 54 -25 69 -72
26 -80 48 -116 109 -185 54 -60 57 -67 53 -105 -3 -23 -22 -75 -42 -116 -41
-85 -46 -141 -21 -224 21 -70 21 -308 0 -340 -17 -25 -65 -205 -65 -240 0 -11
11 -43 25 -71 19 -40 24 -66 25 -126 0 -109 13 -123 126 -139 111 -16 182 -8
242 25 26 15 83 37 127 50 114 33 137 43 168 73 37 35 38 97 1 141 l-25 31 68
43 c37 25 118 70 178 102 61 32 141 76 179 98 l69 39 116 -5 c88 -4 135 -11
194 -31 124 -41 172 -34 244 37 l43 41 157 6 c137 5 164 9 200 28 23 12 49 22
58 22 10 0 30 -31 56 -87 51 -111 106 -185 164 -218 37 -22 59 -27 132 -30
106 -4 144 -19 203 -80 25 -26 63 -56 84 -67 39 -20 45 -20 212 -8 196 15 213
13 364 -52 107 -45 125 -58 135 -96 22 -87 46 -120 133 -183 48 -34 123 -79
167 -99 93 -44 115 -65 180 -177 70 -120 115 -176 159 -197 36 -17 47 -18 126
-8 48 7 118 12 156 12 81 -1 200 -22 217 -39 8 -8 14 -90 19 -264 6 -252 6
-252 36 -317 16 -36 37 -87 47 -114 14 -38 40 -71 112 -142 115 -113 151 -129
321 -144 149 -13 191 -32 239 -107 47 -74 68 -80 151 -44 37 15 99 37 137 47
47 12 96 35 150 70 120 80 146 104 203 199 44 74 52 94 52 136 0 28 -7 64 -16
81 -20 39 -13 44 80 53 39 3 94 11 121 17 68 14 248 109 329 174 67 54 92 65
189 84 86 17 111 43 148 158 28 85 33 114 37 237 l4 140 49 53 c30 33 50 64
51 80 3 61 5 78 6 89 3 17 172 78 303 108 170 39 181 48 230 188 23 67 25 68
54 63 17 -4 50 -20 75 -36 132 -87 263 -126 332 -97 56 24 70 60 78 212 6 108
13 145 39 219 32 93 38 144 21 177 -13 23 -67 51 -140 73 -30 9 -104 41 -165
71 -96 49 -121 57 -200 66 -174 20 -223 39 -388 146 -55 35 -120 74 -145 87
-49 25 -250 164 -362 249 -36 28 -94 64 -130 80 -58 26 -72 29 -135 24 -70 -5
-70 -5 -120 36 -27 23 -86 75 -130 118 -91 87 -157 131 -276 187 -85 40 -100
51 -357 284 -110 99 -220 240 -248 318 -35 95 -63 148 -123 230 -84 115 -119
191 -136 288 -18 101 -39 144 -110 220 -82 89 -178 114 -285 76 -43 -16 -48
-15 -115 6 -97 31 -251 38 -329 16 -68 -20 -61 -23 -193 83 -95 76 -94 73 -61
216 26 116 18 159 -39 202 -19 16 -46 37 -60 48 l-24 20 27 48 c30 55 30 113
-1 160 -25 39 -145 94 -245 112 -178 33 -203 42 -276 105 -38 33 -91 71 -119
86 -27 15 -85 56 -128 91 -87 69 -119 78 -170 44z"/>
</g>
</svg>
