<?xml version="1.0" standalone="no"?>
<!DOCTYPE svg PUBLIC "-//W3C//DTD SVG 20010904//EN"
 "http://www.w3.org/TR/2001/REC-SVG-20010904/DTD/svg10.dtd">
<svg version="1.0" xmlns="http://www.w3.org/2000/svg"
 width="1024.000000pt" height="768.000000pt" viewBox="0 0 1024.000000 768.000000"
 preserveAspectRatio="xMidYMid meet">
<metadata>
Created by potrace 1.16, written by Peter Selinger 2001-2019
</metadata>
<g transform="translate(0.000000,768.000000) scale(0.100000,-0.100000)"
fill="#000000" stroke="none">
<path d="M740 7104 c-19 -3 -67 -11 -106 -20 -66 -14 -76 -19 -123 -69 -64
-67 -81 -107 -81 -185 l0 -60 126 -176 c184 -257 238 -344 369 -599 154 -300
236 -458 358 -690 334 -636 366 -701 432 -890 15 -44 75 -177 133 -295 58
-118 126 -264 151 -325 29 -69 77 -155 127 -230 248 -369 493 -805 649 -1157
110 -248 407 -754 558 -951 34 -45 94 -129 132 -187 87 -131 114 -150 207
-150 38 0 90 5 116 11 72 17 233 99 382 194 74 47 216 128 315 179 99 52 279
144 400 207 121 62 288 148 370 192 303 158 318 163 375 125 30 -20 44 -46 97
-173 77 -185 116 -304 244 -749 103 -357 115 -393 153 -434 52 -58 40 -56 571
-64 325 -4 536 -11 625 -21 157 -18 312 -13 950 27 542 35 897 49 1010 42 86
-5 108 -2 227 27 146 37 153 41 202 137 92 178 124 481 81 750 -74 452 -213
868 -450 1340 -166 333 -345 622 -446 724 -111 110 -173 143 -404 211 -172 51
-185 55 -285 98 -192 82 -309 199 -364 363 -84 253 -87 1112 -5 1974 17 179
14 252 -17 394 -48 224 -153 333 -370 384 -88 20 -211 20 -2444 2 -1984 -16
-3638 2 -4180 44 -27 2 -66 2 -85 0z"/>
</g>
</svg>
