<?xml version="1.0" standalone="no"?>
<!DOCTYPE svg PUBLIC "-//W3C//DTD SVG 20010904//EN"
 "http://www.w3.org/TR/2001/REC-SVG-20010904/DTD/svg10.dtd">
<svg version="1.0" xmlns="http://www.w3.org/2000/svg"
 width="976.000000pt" height="1024.000000pt" viewBox="0 0 976.000000 1024.000000"
 preserveAspectRatio="xMidYMid meet">
<metadata>
Created by potrace 1.16, written by Peter Selinger 2001-2019
</metadata>
<g transform="translate(0.000000,1024.000000) scale(0.100000,-0.100000)"
fill="#000000" stroke="none">
<path d="M7700 10047 c-240 -237 -493 -502 -557 -584 l-48 -62 -123 0 c-166
-1 -456 17 -512 31 -31 8 -63 29 -106 69 -34 31 -87 74 -118 95 l-56 37 -53
-28 c-28 -16 -78 -46 -110 -67 -70 -48 -156 -81 -262 -101 -106 -21 -141 -25
-396 -42 -328 -22 -324 -21 -532 -178 -71 -53 -132 -97 -137 -97 -4 0 -2 -23
5 -50 8 -29 10 -62 6 -78 -7 -23 -13 -27 -37 -24 -72 8 -105 23 -132 62 -19
27 -36 41 -57 44 -16 3 -64 11 -105 18 l-75 13 -6 60 c-11 109 -97 237 -215
319 -74 53 -80 52 -113 -18 -22 -44 -53 -77 -109 -115 -24 -17 -40 -21 -63
-16 -58 13 -116 -4 -194 -56 l-74 -50 -67 46 c-138 95 -320 165 -481 185 l-92
12 -190 -102 c-219 -117 -252 -146 -319 -282 -35 -71 -92 -217 -92 -235 0 -10
74 8 112 28 35 18 39 18 45 4 8 -23 -4 -140 -18 -167 -6 -13 -24 -36 -40 -53
-15 -16 -61 -100 -102 -185 -59 -121 -79 -177 -95 -255 -12 -55 -24 -109 -27
-121 -5 -15 10 -39 60 -100 76 -91 89 -112 121 -207 l23 -69 -21 -41 c-11 -23
-36 -59 -54 -80 -102 -120 -184 -372 -184 -564 l0 -74 48 7 c48 6 49 6 82 -36
18 -23 60 -64 92 -91 89 -74 142 -65 183 33 14 35 17 37 48 31 63 -12 104 -40
121 -83 9 -22 16 -51 16 -63 0 -13 12 -34 26 -48 22 -21 35 -24 87 -22 34 1
71 3 82 5 18 3 20 -3 23 -49 l3 -51 67 -36 c79 -41 122 -78 122 -104 0 -42
-87 -161 -362 -497 -153 -187 -191 -223 -453 -425 -342 -264 -348 -271 -480
-485 -58 -94 -135 -180 -186 -206 -20 -10 -81 -27 -135 -38 -121 -25 -212 -68
-254 -121 -34 -43 -50 -87 -75 -201 -29 -141 -79 -190 -255 -254 -106 -38
-179 -80 -182 -103 -2 -9 -3 -138 -3 -287 0 -308 7 -280 -100 -425 -102 -137
-144 -235 -160 -371 -7 -54 -9 -57 -51 -77 -56 -27 -118 -84 -134 -122 -13
-32 -11 -70 13 -173 15 -65 15 -71 -8 -155 -13 -48 -31 -106 -39 -129 -21 -59
-63 -268 -77 -383 -12 -103 -8 -237 11 -313 11 -41 10 -50 -4 -65 -12 -14 -22
-78 -41 -265 -14 -136 -25 -254 -25 -262 0 -9 -15 -22 -34 -30 -43 -18 -50
-39 -37 -109 8 -45 6 -74 -10 -158 -24 -122 -21 -224 10 -338 25 -90 27 -206
6 -257 -8 -19 -15 -40 -15 -46 0 -17 99 -1 199 33 88 29 98 30 144 19 l49 -12
35 38 c33 36 34 37 54 19 23 -20 52 -80 95 -192 15 -40 34 -72 41 -72 37 0
142 46 192 84 95 72 121 88 146 91 25 2 195 171 317 315 58 67 121 174 132
223 l7 29 280 -4 281 -3 17 45 17 45 79 7 c292 24 596 30 1228 24 538 -5 667
-4 667 6 0 7 -5 29 -10 48 -6 19 -11 78 -10 131 l0 96 -61 18 c-33 10 -61 21
-63 24 -2 3 0 35 5 70 11 79 44 137 104 187 l45 36 0 85 0 84 202 232 c110
128 210 242 221 254 l19 22 -37 51 c-22 30 -42 72 -49 103 l-11 52 -48 3 c-34
2 -47 7 -47 19 0 8 -11 28 -25 45 -14 16 -25 42 -25 57 0 16 -3 48 -6 73 -6
39 -11 47 -53 73 -76 48 -165 119 -153 123 6 2 35 -8 64 -22 94 -45 170 -134
188 -223 l12 -56 76 7 c43 4 106 9 141 13 l65 6 -48 43 -48 44 27 10 c34 13
31 14 68 -14 34 -26 184 -73 195 -61 4 3 12 30 17 58 l10 52 57 -3 56 -4 18
41 c24 51 52 53 109 10 l40 -30 3 89 3 88 30 -4 c29 -4 30 -6 24 -39 -3 -19
-9 -42 -12 -50 -5 -13 -1 -15 23 -9 16 4 52 18 80 31 58 28 100 31 128 10 17
-13 106 -22 106 -11 0 2 -6 19 -14 37 -15 37 -20 76 -17 157 1 41 6 56 23 70
12 9 37 31 54 48 l32 30 6 -28 c3 -15 2 -38 -3 -51 -4 -12 -11 -34 -15 -50 -6
-26 -5 -27 21 -21 23 5 26 4 16 -7 -18 -18 -16 -80 3 -107 21 -31 50 -28 116
14 47 29 219 93 251 94 5 0 5 -9 2 -20 -8 -26 39 -130 59 -130 8 0 51 11 95
25 94 30 180 90 242 167 23 29 47 52 54 50 14 -3 69 96 84 154 9 35 17 43 63
64 59 26 128 85 128 108 0 8 -7 23 -16 33 -14 16 -14 19 5 38 12 12 21 26 21
33 0 6 11 1 24 -11 19 -18 31 -21 55 -16 48 10 29 -20 -25 -41 -24 -9 -44 -19
-44 -23 0 -3 29 -22 64 -41 67 -36 79 -50 27 -32 -25 9 -31 8 -31 -4 0 -10
-12 -14 -39 -14 -21 0 -53 -3 -70 -6 -35 -7 -89 -57 -97 -91 -7 -26 27 -79 56
-88 32 -10 23 -27 -32 -65 -73 -50 -73 -60 4 -60 63 0 64 -1 83 -36 17 -32
107 -114 125 -114 5 0 33 73 62 162 53 158 54 165 42 211 -7 26 -18 54 -24 62
-16 19 -1 19 24 0 12 -9 27 -44 38 -86 13 -52 27 -82 53 -110 19 -22 35 -44
35 -49 0 -16 30 -12 36 5 8 21 25 19 78 -8 l45 -23 -25 -43 c-14 -23 -24 -44
-22 -45 10 -9 137 -15 142 -7 3 5 3 37 -1 70 -4 46 -9 61 -19 57 -26 -10 -14
9 16 26 30 17 30 17 30 109 l0 92 67 -7 c75 -8 80 -10 66 -28 -10 -14 -2 -183
10 -194 4 -4 39 5 79 20 40 14 79 26 85 26 7 0 44 -23 82 -51 52 -38 75 -49
91 -44 11 4 44 34 72 68 58 70 66 75 126 76 50 1 76 24 143 123 23 35 53 76
65 91 21 24 23 35 18 85 -8 80 11 207 42 269 28 59 61 83 147 108 85 24 114
55 136 141 10 40 22 77 25 83 4 6 45 36 91 66 47 31 100 75 119 98 69 84 120
215 153 397 9 45 9 45 62 55 30 6 55 15 57 20 1 6 5 22 8 37 8 36 51 85 95
108 45 22 174 50 236 50 l45 0 36 73 36 73 -34 74 c-62 133 -62 142 12 188 49
30 70 69 70 127 0 24 57 81 112 114 55 33 96 85 112 144 24 86 39 233 40 392
1 144 -1 156 -38 290 -104 384 -99 360 -100 505 -1 117 2 144 22 203 l24 68
-38 72 c-71 137 -80 147 -123 147 -35 0 -41 4 -80 60 -73 104 -94 161 -99 274
-3 59 -11 113 -19 129 -18 36 -68 57 -132 57 -46 0 -52 3 -66 31 -9 17 -31 37
-51 45 -29 12 -34 19 -34 48 0 40 -39 196 -72 285 -22 63 -24 65 -68 76 -98
25 -115 50 -126 181 -7 98 -13 115 -55 160 -29 30 -29 31 -25 137 4 102 5 108
34 142 36 41 48 77 62 200 17 149 18 143 -41 151 -36 5 -62 16 -84 35 -29 26
-40 29 -103 29 -71 0 -71 0 -128 50 -31 27 -76 57 -100 66 -50 19 -55 29 -19
38 31 8 45 41 45 102 0 41 -2 44 -22 40 -13 -3 -60 -8 -105 -11 l-82 -6 23 43
c13 24 26 57 29 74 6 30 2 34 -48 68 -30 20 -55 40 -55 46 0 5 9 25 21 44 l20
35 -25 38 c-16 24 -26 51 -26 75 0 25 -9 47 -27 70 -27 34 -139 148 -145 148
-2 0 -91 -87 -198 -193z m-728 -6824 c29 -27 37 -53 17 -53 -20 0 -89 23 -89
30 0 7 33 50 39 50 3 0 18 -12 33 -27z m-233 -50 c1 -7 -6 -13 -14 -13 -15 0
-21 40 -8 54 7 7 21 -18 22 -41z m-419 -103 c12 -23 10 -24 -25 -8 -18 8 -22
14 -13 20 20 12 26 10 38 -12z"/>
<path d="M7494 2884 c-26 -34 -26 -35 -8 -55 34 -38 69 -49 157 -49 46 0 87 3
90 6 7 7 -44 70 -74 91 -9 7 -45 19 -78 27 l-61 14 -26 -34z"/>
<path d="M6560 2765 c0 -31 7 -69 15 -86 l16 -30 27 20 c54 40 97 80 92 84
-10 10 -130 67 -140 67 -6 0 -10 -24 -10 -55z"/>
<path d="M5775 2743 c-22 -40 -45 -73 -51 -73 -18 0 -61 -54 -75 -95 -7 -19
-16 -35 -19 -35 -7 0 -35 59 -45 98 -4 12 -13 22 -21 22 -8 0 -29 7 -45 16
-17 8 -32 14 -34 12 -2 -2 2 -28 8 -58 10 -42 17 -56 32 -58 31 -5 75 -24 75
-32 0 -4 -25 -12 -55 -19 -30 -7 -55 -16 -55 -19 0 -4 24 -26 53 -49 50 -39
56 -41 93 -33 21 5 61 10 87 10 26 0 62 7 78 16 26 13 30 20 25 42 -4 15 -21
39 -38 54 -38 33 -34 68 11 85 40 14 48 49 30 127 l-15 61 -39 -72z"/>
<path d="M7330 2693 c-34 -7 -50 -21 -50 -47 0 -27 18 -46 42 -46 16 0 78 72
78 92 0 8 -26 9 -70 1z"/>
<path d="M7339 2497 c-45 -21 -46 -23 -37 -55 10 -37 38 -52 97 -52 42 0 55
11 64 51 5 20 1 33 -18 53 -29 32 -47 32 -106 3z"/>
<path d="M4793 2367 c-23 -12 -42 -25 -43 -28 0 -9 107 -55 148 -63 17 -4 32
-13 32 -20 0 -21 39 -65 72 -82 27 -14 31 -14 49 2 10 9 19 20 19 23 0 9 -58
69 -78 80 -14 9 -15 12 -3 20 11 7 10 11 -8 20 -11 7 -21 18 -21 27 0 37 -109
50 -167 21z"/>
<path d="M5333 2308 c-10 -13 -28 -118 -20 -118 3 0 25 9 49 20 36 15 48 28
61 60 l15 40 -26 0 c-15 0 -36 3 -48 6 -11 3 -25 -1 -31 -8z"/>
<path d="M4460 2247 c0 -41 5 -58 20 -72 11 -10 33 -39 50 -65 33 -51 50 -60
121 -60 76 0 106 -10 118 -37 14 -30 15 -29 -34 -45 -35 -11 -46 -24 -92 -103
-74 -125 -70 -172 13 -145 24 8 46 27 67 56 22 32 36 43 47 38 8 -4 32 -9 53
-12 34 -4 37 -7 37 -35 0 -28 36 -97 52 -97 3 0 18 20 32 45 26 43 26 46 11
76 l-16 31 48 -3 c37 -2 47 1 44 12 -2 8 -5 21 -8 29 -2 9 12 25 34 40 21 14
43 30 48 36 6 7 34 19 63 27 62 18 62 25 1 -117 -22 -49 -39 -91 -39 -93 0 -2
11 -3 25 -3 45 0 90 26 133 78 l42 50 0 85 c0 87 -12 117 -45 117 -7 0 -15 5
-17 11 -5 16 -109 -19 -131 -44 -16 -18 -19 -19 -30 -4 -13 17 -108 69 -115
63 -2 -3 2 -14 8 -26 6 -12 13 -39 15 -60 3 -33 1 -38 -13 -33 -14 5 -59 33
-81 50 -2 1 2 9 8 17 7 8 10 19 7 24 -3 5 -55 17 -116 27 -60 11 -115 22 -121
26 -11 6 -6 45 17 120 4 13 -15 18 -113 32 -65 10 -124 17 -130 17 -9 0 -13
-17 -13 -53z m635 -276 c10 -18 -17 -23 -33 -7 -15 15 -15 16 5 16 12 0 24 -4
28 -9z"/>
</g>
</svg>
