<?xml version="1.0" standalone="no"?>
<!DOCTYPE svg PUBLIC "-//W3C//DTD SVG 20010904//EN"
 "http://www.w3.org/TR/2001/REC-SVG-20010904/DTD/svg10.dtd">
<svg version="1.0" xmlns="http://www.w3.org/2000/svg"
 width="848.000000pt" height="796.000000pt" viewBox="0 0 848.000000 796.000000"
 preserveAspectRatio="xMidYMid meet">
<metadata>
Created by potrace 1.16, written by Peter Selinger 2001-2019
</metadata>
<g transform="translate(0.000000,796.000000) scale(0.100000,-0.100000)"
fill="#000000" stroke="none">
<path d="M4775 5833 c-45 -30 -104 -33 -152 -8 -42 22 -83 20 -83 -5 0 -37
-31 -97 -56 -109 -37 -16 -101 -14 -108 4 -8 22 -191 22 -203 0 -7 -12 -14
-13 -39 -3 -35 13 -86 3 -82 -16 2 -7 -19 -35 -45 -61 -26 -27 -50 -60 -54
-74 -3 -14 -15 -40 -25 -58 -19 -31 -19 -32 3 -98 l23 -65 -20 -21 c-18 -17
-24 -19 -48 -8 -14 7 -29 23 -32 36 -4 13 -20 35 -36 49 -32 26 -52 27 -125 1
-27 -9 -35 -8 -52 7 -20 18 -21 18 -53 -6 -18 -14 -45 -28 -59 -31 -23 -6 -28
-3 -39 26 -36 98 -50 113 -78 85 -7 -7 -27 -17 -44 -22 -20 -7 -38 -22 -46
-38 -17 -37 -39 -35 -47 2 -8 34 -46 50 -76 32 -15 -10 -22 -6 -44 21 l-26 32
-20 -27 c-23 -32 -45 -35 -77 -12 -27 19 -38 13 -46 -27 -7 -37 -32 -34 -28 3
4 32 -26 42 -98 32 -42 -6 -50 -4 -50 10 0 9 -4 16 -10 16 -5 0 -10 8 -10 19
0 30 -25 44 -68 36 -27 -4 -52 -1 -77 9 -21 9 -55 16 -76 16 -21 0 -41 5 -44
10 -3 6 -24 10 -45 10 -22 0 -45 7 -54 16 -12 12 -43 16 -129 19 -61 2 -133 7
-158 10 -30 4 -65 1 -100 -9 -29 -9 -86 -16 -126 -16 -78 0 -113 -18 -113 -58
0 -10 -23 -35 -51 -56 -43 -32 -55 -36 -73 -28 -87 43 -127 6 -95 -86 7 -22 7
-36 0 -51 -8 -15 -8 -22 2 -28 12 -8 30 -32 69 -92 9 -14 17 -34 17 -43 1 -9
17 -33 36 -54 19 -20 35 -38 35 -40 0 -2 -11 -4 -24 -4 -35 0 -39 -13 -15 -44
11 -14 25 -42 30 -61 8 -29 6 -40 -16 -75 -22 -34 -30 -40 -60 -40 -32 0 -47
-11 -138 -102 -89 -89 -150 -162 -245 -292 -19 -26 -22 -38 -16 -71 4 -22 8
-67 8 -100 1 -49 5 -63 24 -78 12 -10 22 -27 22 -37 0 -17 -5 -19 -32 -13 -18
3 -39 11 -46 16 -14 11 -32 -6 -32 -30 0 -7 -4 -13 -8 -13 -11 0 -38 -61 -52
-118 -6 -24 -18 -46 -26 -49 -20 -7 -44 -56 -44 -87 0 -14 8 -30 18 -35 10 -5
27 -26 38 -46 12 -24 28 -38 45 -42 17 -3 32 -17 42 -39 14 -29 22 -34 51 -34
39 0 60 -20 51 -50 -5 -14 -2 -20 9 -20 9 0 16 5 16 10 0 6 11 10 23 10 16 0
28 9 35 25 15 32 29 32 64 -2 24 -23 38 -27 95 -30 42 -1 72 -8 81 -17 10 -10
22 -12 37 -6 15 6 32 4 51 -6 28 -15 98 -11 108 5 3 4 21 5 41 3 27 -3 39 -11
51 -33 8 -16 20 -29 27 -29 6 0 23 -14 37 -30 23 -28 27 -30 57 -20 19 7 40
26 52 46 24 40 47 50 127 57 33 3 87 10 120 17 32 6 68 13 79 15 12 3 31 24
45 52 22 41 31 49 67 56 27 5 47 16 58 33 11 17 22 23 35 19 14 -4 19 0 22 17
2 15 9 21 18 19 8 -3 26 -4 40 -3 14 1 41 2 61 2 20 0 42 6 49 15 7 8 21 15
32 15 11 0 29 5 40 11 14 8 23 8 31 0 6 -6 23 -11 37 -11 17 0 37 -11 53 -30
15 -16 36 -30 46 -30 11 0 22 -9 26 -19 6 -19 48 -35 76 -29 9 2 13 -5 12 -19
-2 -16 2 -21 12 -17 9 4 15 0 15 -10 0 -20 9 -20 31 0 26 24 96 2 110 -34 20
-53 70 -83 82 -49 9 23 40 -20 43 -60 1 -21 3 -40 4 -43 1 -3 1 -9 0 -15 -1
-5 -4 -23 -6 -39 -2 -15 -8 -34 -15 -42 -14 -17 -3 -64 14 -64 15 0 50 -37 60
-63 7 -19 33 -23 39 -5 2 6 12 9 21 5 14 -5 16 -14 11 -49 -4 -24 -10 -47 -15
-52 -14 -15 -11 -26 7 -26 13 0 15 -7 10 -35 -6 -31 -4 -36 18 -44 13 -6 27
-15 31 -20 3 -6 14 -11 24 -11 33 0 51 -33 51 -91 0 -30 -5 -60 -12 -67 -11
-11 8 -32 56 -64 16 -11 -4 -25 -45 -31 -32 -5 -38 -2 -48 19 -13 29 -24 30
-50 3 l-19 -21 -23 31 c-16 22 -26 28 -34 21 -7 -6 -19 -8 -27 -5 -10 4 -17
-1 -21 -14 -8 -34 -27 -24 -27 14 0 27 -4 35 -18 35 -18 0 -61 -26 -73 -43 -9
-12 1 -89 12 -101 13 -14 11 -53 -2 -62 -6 -3 -9 -18 -6 -31 4 -22 -1 -28 -34
-41 -32 -12 -39 -20 -39 -42 0 -14 -9 -35 -20 -46 -11 -10 -29 -28 -41 -39
-14 -14 -19 -28 -15 -46 3 -14 2 -36 -1 -48 -5 -20 -10 -21 -48 -15 -53 7 -62
-9 -34 -65 14 -30 30 -45 65 -61 63 -27 104 -27 104 1 0 18 4 20 26 15 17 -5
34 0 54 14 15 11 32 20 38 20 5 0 15 7 22 15 16 19 82 19 119 0 31 -15 41 -33
41 -71 0 -13 4 -24 9 -24 12 0 21 36 21 83 0 30 -4 40 -19 44 -24 6 -36 64
-26 123 8 46 25 54 25 12 0 -32 16 -53 36 -45 9 3 12 13 8 29 -5 19 -2 24 13
24 11 0 25 11 31 24 8 18 16 23 31 19 12 -3 21 -1 21 6 0 5 6 8 14 5 8 -3 22
3 30 13 116 141 190 262 183 300 -6 31 1 37 66 62 41 15 69 19 97 15 26 -4 45
-2 55 6 12 10 18 10 30 0 8 -7 19 -8 27 -3 7 4 33 8 58 8 l45 0 0 45 c0 27 7
55 18 70 11 16 17 19 17 9 0 -8 -5 -20 -12 -27 -9 -9 -8 -21 1 -52 12 -42 52
-77 82 -72 20 3 72 -45 58 -54 -6 -3 -22 -3 -37 1 -34 9 -131 24 -197 32 l-50
5 24 -26 c17 -18 27 -23 32 -14 6 9 17 9 51 -2 24 -7 49 -18 56 -23 19 -14 -3
-35 -41 -39 -22 -2 -33 -9 -35 -22 -3 -15 0 -18 18 -13 30 8 111 -30 137 -65
24 -31 77 -41 132 -25 26 8 61 12 77 10 16 -3 49 0 74 6 42 10 48 9 87 -19
l42 -29 20 25 c25 32 39 24 39 -23 0 -23 6 -39 16 -45 12 -7 14 -14 6 -28 -6
-11 -17 -17 -24 -14 -8 3 -17 1 -21 -5 -3 -6 -14 -11 -24 -11 -9 0 -32 -11
-51 -25 -18 -13 -36 -22 -41 -20 -11 7 -129 -64 -136 -81 -3 -8 -9 -14 -14
-14 -6 0 -15 -5 -22 -11 -7 -5 -27 -19 -44 -29 -42 -25 -45 -65 -8 -82 19 -9
28 -9 37 0 7 7 29 12 49 12 30 0 47 -9 87 -45 37 -33 58 -45 81 -45 45 0 79
-26 91 -69 14 -50 12 -80 -5 -97 -9 -10 -15 -34 -15 -65 0 -44 -3 -51 -25 -59
-14 -5 -25 -12 -25 -16 0 -9 43 -43 56 -44 6 0 20 -11 32 -25 18 -21 31 -25
75 -25 47 0 59 5 108 42 30 24 63 60 74 83 15 29 34 47 70 66 53 28 131 43
141 28 9 -15 34 -10 34 6 0 17 36 51 72 69 13 6 24 21 26 32 7 50 98 55 128 8
17 -25 67 -34 79 -13 4 6 19 7 35 4 16 -3 46 -1 69 5 l40 11 -6 47 c-4 38 -1
51 15 70 10 12 26 22 34 22 23 0 28 11 17 32 -6 11 -13 17 -16 15 -3 -3 -26 1
-51 9 -67 20 -90 18 -117 -12 -28 -30 -55 -28 -71 4 -11 23 -11 23 -32 -11
-27 -47 -82 -66 -118 -42 -35 23 -129 172 -165 261 -51 128 -50 204 4 204 26
0 87 65 87 93 0 39 20 3 23 -42 2 -41 2 -41 17 -19 8 13 29 37 47 53 18 17 53
49 77 72 25 23 55 44 68 47 74 15 101 16 115 5 12 -11 18 -9 31 9 34 43 128
66 152 37 10 -13 15 -10 34 17 27 40 102 80 138 73 24 -4 32 2 58 40 29 42 34
45 78 45 109 2 135 0 147 -10 11 -9 17 -6 30 13 8 13 13 31 10 39 -3 8 1 21
10 28 19 16 19 36 0 44 -14 5 -14 9 -2 33 8 16 15 44 15 63 1 41 30 70 72 70
15 0 33 7 40 15 7 8 20 15 30 15 12 0 20 11 24 34 11 56 18 58 174 45 77 -7
147 -9 156 -6 12 5 16 20 16 57 0 27 5 50 10 50 6 0 10 9 10 21 0 25 18 61 36
72 23 14 16 37 -11 37 -26 0 -32 9 -16 26 6 5 4 28 -3 59 -11 43 -18 51 -45
59 -34 10 -34 13 -5 85 13 32 16 33 54 27 32 -5 41 -3 50 13 15 28 14 29 -32
29 -34 1 -48 7 -67 28 -22 26 -22 28 -5 41 10 7 28 13 41 13 15 0 27 8 32 23
5 12 21 33 36 47 42 39 49 66 25 105 -22 35 -26 70 -10 80 6 3 10 13 10 21 0
19 -44 18 -60 -1 -7 -8 -21 -15 -30 -15 -24 0 -80 32 -80 46 0 29 -30 49 -71
49 -43 0 -55 10 -72 60 -2 6 -19 2 -39 -9 -36 -19 -36 -19 -63 2 -15 12 -34
22 -41 22 -7 0 -18 9 -25 21 -8 16 -17 20 -37 16 -30 -6 -77 15 -85 38 -4 8
-17 15 -31 15 -21 0 -25 -5 -28 -32 -5 -49 -41 -51 -80 -4 -16 20 -35 36 -43
36 -19 0 -65 65 -65 94 0 15 -8 30 -20 36 -12 6 -25 22 -30 36 -12 30 -32 31
-70 2 -19 -13 -53 -24 -90 -29 -42 -5 -71 -15 -94 -33 -39 -29 -56 -33 -56
-11 0 17 -40 29 -69 20 -16 -5 -25 2 -43 29 -33 51 -104 63 -151 26 -34 -27
-56 -25 -67 4 -5 14 -18 30 -29 36 -23 12 -41 82 -22 88 17 6 13 34 -15 98
-15 34 -23 67 -20 80 5 20 2 23 -26 26 -28 3 -34 8 -41 40 -10 44 -30 51 -92
31 -41 -14 -47 -14 -63 0 -23 21 -91 38 -120 30 -23 -5 -24 -4 -18 25 4 18 3
33 -3 37 -6 3 -11 25 -11 48 0 26 -8 51 -20 67 -11 14 -20 28 -20 32 0 4 25
12 55 19 68 15 72 36 18 82 -78 68 -83 74 -83 118 0 35 -6 47 -40 81 -22 22
-40 44 -40 49 0 15 -54 10 -79 -7 -17 -12 -25 -14 -31 -5 -4 7 -31 14 -61 17
-46 3 -60 0 -94 -23z m-408 -2695 c-3 -8 -6 -5 -6 6 -1 11 2 17 5 13 3 -3 4
-12 1 -19z m-115 -160 c-7 -7 -12 -8 -12 -2 0 6 3 14 7 17 3 4 9 5 12 2 2 -3
-1 -11 -7 -17z m930 -269 c14 -29 17 -31 18 -11 0 23 14 30 25 12 3 -5 17 -10
31 -10 29 0 32 -16 3 -23 -16 -4 -20 -12 -17 -34 4 -38 33 -42 51 -6 7 15 12
35 10 45 -5 20 10 30 31 22 20 -8 21 -34 1 -34 -17 0 -18 -2 -9 -24 3 -9 12
-16 20 -16 8 0 15 -4 15 -10 1 -5 3 -14 4 -20 1 -5 3 -23 4 -40 0 -17 6 -30
14 -30 11 0 57 -78 57 -96 0 -4 -15 5 -34 20 -19 14 -39 26 -45 26 -6 0 -11 9
-11 20 0 11 -7 20 -15 20 -20 0 -19 17 3 29 9 6 12 11 6 11 -6 0 -23 -10 -38
-21 -35 -27 -44 -18 -17 17 15 19 18 31 11 38 -7 7 -14 4 -24 -10 -14 -19 -15
-18 -35 5 -12 13 -21 28 -21 33 0 5 -6 8 -12 7 -24 -4 -87 13 -99 27 -16 19
-40 18 -33 -1 5 -11 2 -13 -10 -9 -9 3 -19 17 -22 30 -4 17 -12 23 -28 21 -15
-1 -21 4 -21 18 0 30 67 22 100 -11 22 -21 28 -24 41 -13 10 8 13 21 9 37 -9
36 16 23 37 -19z m-22 -98 c0 -6 -4 -13 -10 -16 -5 -3 -10 1 -10 9 0 9 5 16
10 16 6 0 10 -4 10 -9z m341 -263 c23 -35 51 -71 63 -80 32 -25 14 -30 -29 -8
-22 11 -44 20 -51 20 -6 0 -19 9 -29 20 -15 16 -15 22 -5 35 7 9 10 27 6 45
-3 17 -4 30 -1 30 2 0 23 -28 46 -62z"/>
<path d="M5461 2697 c-26 -13 -40 -37 -22 -37 5 0 23 11 38 25 30 26 23 32
-16 12z"/>
<path d="M4690 2640 c0 -5 17 -10 38 -9 30 0 33 2 17 9 -28 12 -55 12 -55 0z"/>
</g>
</svg>
