<?xml version="1.0" standalone="no"?>
<!DOCTYPE svg PUBLIC "-//W3C//DTD SVG 20010904//EN"
 "http://www.w3.org/TR/2001/REC-SVG-20010904/DTD/svg10.dtd">
<svg version="1.0" xmlns="http://www.w3.org/2000/svg"
 width="622.000000pt" height="754.000000pt" viewBox="0 0 622.000000 754.000000"
 preserveAspectRatio="xMidYMid meet">
<metadata>
Created by potrace 1.16, written by Peter Selinger 2001-2019
</metadata>
<g transform="translate(0.000000,754.000000) scale(0.100000,-0.100000)"
fill="#000000" stroke="none">
<path d="M3288 7529 c-10 -5 -18 -20 -18 -32 0 -12 -12 -33 -26 -47 -33 -32
-74 -97 -74 -115 0 -11 -12 -15 -40 -15 -46 0 -47 -3 -20 -37 11 -14 20 -36
20 -48 0 -13 7 -25 15 -29 8 -3 18 -23 21 -45 3 -22 15 -49 25 -60 11 -11 19
-24 19 -29 0 -16 -36 -42 -57 -42 -11 0 -26 -7 -33 -15 -7 -8 -18 -15 -25 -15
-7 0 -12 -12 -12 -26 0 -37 -28 -62 -52 -47 -23 15 -68 -3 -77 -29 -3 -10 -9
-18 -14 -18 -5 0 -27 -17 -49 -37 -28 -25 -39 -42 -36 -54 11 -33 -51 -105
-113 -135 -55 -25 -101 -66 -102 -91 0 -24 -32 -43 -72 -43 l-41 0 5 -45 c3
-25 2 -45 -2 -45 -14 0 -50 -38 -50 -54 0 -20 -14 -21 -34 -1 -19 19 -40 19
-56 1 -6 -8 -26 -16 -43 -18 -26 -3 -33 -9 -42 -38 -5 -20 -19 -49 -31 -65
-12 -17 -24 -54 -27 -83 -5 -42 -12 -58 -37 -78 -16 -14 -30 -31 -30 -38 0 -7
-9 -21 -20 -31 -15 -14 -20 -31 -20 -73 0 -38 -7 -69 -25 -105 l-26 -50 61
-78 c33 -43 65 -89 71 -101 5 -13 16 -34 24 -48 8 -14 15 -39 15 -57 0 -18 10
-43 24 -60 13 -15 26 -38 30 -50 6 -18 15 -23 42 -23 30 0 34 3 34 28 0 15 5
34 10 42 9 13 11 13 20 0 5 -8 8 -22 5 -30 -2 -8 -7 -27 -11 -42 -3 -16 -12
-28 -19 -28 -34 0 -33 -79 1 -119 29 -35 44 -39 44 -13 0 10 12 29 26 43 23
22 51 71 68 123 6 18 7 18 26 1 11 -10 20 -24 20 -32 0 -7 11 -13 25 -13 15 0
25 6 25 14 0 8 12 24 28 35 15 12 32 25 39 31 7 5 17 10 23 10 18 0 11 -20
-16 -44 -24 -20 -25 -25 -14 -47 7 -13 20 -29 28 -35 13 -10 13 -15 -7 -43
-12 -17 -26 -31 -30 -31 -3 0 -15 -13 -24 -30 -15 -24 -16 -33 -5 -50 7 -11
16 -20 20 -20 10 0 10 -41 0 -56 -4 -6 -18 -14 -32 -17 -14 -3 -41 -10 -60
-14 l-35 -9 -3 -103 c-2 -65 1 -108 8 -117 7 -7 32 -16 56 -20 24 -3 44 -8 44
-10 0 -2 -18 -23 -41 -46 -44 -47 -109 -159 -109 -188 0 -9 7 -23 15 -30 8 -7
15 -23 15 -37 0 -13 7 -26 15 -29 16 -7 40 -82 29 -93 -4 -3 -9 -1 -11 5 -2 6
-10 19 -17 30 -13 17 -14 17 -42 -2 -16 -10 -38 -21 -49 -24 -33 -9 -29 -39
14 -100 23 -32 41 -65 41 -74 0 -8 10 -21 23 -28 102 -57 122 -89 75 -121
l-23 -15 36 -21 c31 -18 39 -31 58 -96 20 -68 28 -81 55 -76 4 1 17 -1 27 -4
25 -8 28 -85 4 -85 -8 0 -15 -4 -15 -10 0 -19 -28 -10 -44 15 -13 20 -25 25
-56 25 -21 0 -42 5 -45 10 -11 17 -42 11 -48 -10 -3 -14 -14 -20 -31 -20 -16
0 -29 -7 -33 -17 -3 -10 -12 -25 -18 -33 -7 -8 -16 -38 -20 -67 -7 -51 -7 -51
24 -58 17 -4 31 -11 31 -16 0 -5 11 -9 25 -9 15 0 25 -6 25 -15 0 -8 9 -20 20
-27 25 -16 26 -28 0 -28 -22 0 -40 -27 -40 -60 0 -12 -7 -28 -15 -36 -8 -9
-15 -24 -15 -34 0 -10 -9 -25 -20 -33 -16 -11 -19 -21 -14 -45 6 -29 34 -46
34 -21 0 11 40 48 53 49 14 0 7 -50 -10 -70 -10 -11 -28 -20 -40 -20 -33 0
-101 -39 -108 -61 -5 -15 3 -30 29 -55 19 -19 39 -34 44 -34 5 0 17 -9 27 -20
13 -14 31 -20 62 -20 49 0 52 -5 22 -36 -21 -22 -20 -64 2 -64 5 0 9 -4 9 -10
0 -5 -10 -10 -22 -10 -29 -1 -58 -22 -58 -44 0 -9 -4 -16 -10 -16 -5 0 -10
-20 -10 -45 0 -33 -4 -45 -15 -45 -8 0 -15 -4 -15 -10 0 -5 6 -10 13 -10 9 0
12 -11 9 -34 -2 -18 1 -37 7 -40 6 -4 11 -22 11 -40 0 -22 8 -40 25 -56 14
-13 25 -28 25 -33 0 -5 12 -21 27 -35 22 -20 30 -22 45 -13 10 6 26 11 36 11
20 0 61 -41 82 -82 11 -24 20 -28 53 -28 38 0 39 -1 31 -27 -8 -28 -9 -78 -6
-186 2 -53 4 -58 22 -52 26 8 26 7 -11 -62 -50 -93 -57 -101 -88 -108 -31 -7
-77 -52 -91 -91 -5 -12 -19 -24 -31 -26 -18 -2 -27 -17 -45 -73 -13 -38 -23
-86 -23 -106 -1 -41 -12 -49 -70 -49 -21 0 -60 -7 -87 -15 -67 -20 -154 -20
-154 0 0 9 -8 19 -17 22 -10 4 -21 11 -25 17 -4 6 -35 10 -70 9 -35 -1 -85 3
-111 9 -35 7 -52 7 -60 -1 -6 -6 -35 -11 -63 -11 -29 0 -55 -4 -58 -8 -3 -5
-31 -9 -62 -10 -79 -2 -123 -18 -130 -48 -3 -13 -13 -28 -21 -33 -12 -6 -13
-12 -4 -29 18 -34 13 -71 -16 -110 -16 -20 -32 -40 -38 -44 -17 -13 -57 -9
-74 6 -9 8 -33 17 -53 21 l-36 7 -8 -49 c-4 -26 -11 -59 -17 -73 -6 -14 -11
-61 -11 -105 -1 -77 -2 -80 -28 -93 -16 -7 -28 -21 -28 -31 0 -21 -60 -71 -84
-71 -12 0 -16 -10 -16 -39 0 -47 -11 -56 -72 -65 -26 -4 -49 -13 -52 -21 -3
-8 -12 -15 -21 -15 -8 0 -15 -4 -15 -10 0 -5 -7 -10 -15 -10 -9 0 -15 -9 -15
-24 0 -13 -7 -26 -15 -30 -18 -6 -20 -37 -3 -54 15 -15 -16 -52 -43 -52 -21 0
-39 -28 -39 -59 0 -12 -4 -21 -10 -21 -14 0 -50 -32 -50 -45 0 -16 -72 -71
-101 -78 -17 -4 -29 -16 -33 -32 -5 -18 -13 -25 -31 -25 -14 0 -25 5 -25 10 0
6 -16 10 -35 10 -19 0 -35 -4 -35 -9 0 -5 -18 -16 -39 -24 -48 -19 -53 -28
-62 -92 -8 -64 6 -79 61 -70 45 8 55 17 65 62 8 39 28 42 82 13 21 -11 45 -20
53 -20 25 0 82 -64 74 -83 -6 -16 29 -77 44 -77 4 0 12 10 17 23 6 12 20 23
33 25 13 2 26 11 29 20 4 9 13 22 21 28 12 9 12 14 1 33 -8 12 -24 24 -36 27
-30 8 -29 24 1 24 17 0 26 7 30 25 4 14 13 25 20 25 18 0 118 67 130 87 6 11
17 13 41 9 36 -7 34 -11 51 87 3 20 12 37 19 37 7 0 20 3 29 6 10 4 16 1 16
-8 0 -12 11 -14 53 -11 91 7 117 13 117 28 0 34 158 9 167 -26 7 -25 38 -9 47
26 10 38 46 34 46 -5 0 -20 5 -30 15 -30 9 0 18 -7 21 -15 5 -11 16 -13 49 -8
54 7 105 -19 105 -54 0 -13 6 -23 14 -23 8 0 16 -7 20 -15 7 -18 33 -20 39 -2
3 9 7 9 20 -1 10 -9 27 -11 46 -7 26 6 29 11 36 60 5 44 12 58 35 75 15 11 33
20 38 20 13 0 42 40 42 57 0 7 -9 13 -20 13 -27 0 -27 46 0 68 19 16 19 19 5
46 -20 38 -19 57 3 63 10 2 26 19 36 38 15 28 17 39 7 66 -14 39 -14 49 -1 49
5 0 14 -18 20 -40 12 -43 37 -53 60 -25 7 8 19 15 26 15 8 0 20 11 26 25 13
30 9 29 183 52 22 3 47 11 55 18 43 36 103 25 215 -39 91 -51 163 -121 171
-164 5 -26 9 -30 20 -21 19 15 18 49 -1 49 -16 0 -19 20 -8 58 5 22 10 23 52
18 180 -21 201 -25 223 -46 15 -14 30 -19 43 -15 11 4 30 9 43 12 13 3 22 13
22 23 0 10 6 20 13 23 9 3 9 7 -1 19 -19 24 1 63 39 77 17 6 49 11 70 11 21 0
41 5 44 10 15 24 105 4 138 -31 16 -17 16 -20 3 -25 -30 -12 -16 -25 19 -18
23 4 35 2 35 -5 0 -6 22 -22 50 -36 27 -14 54 -34 60 -45 22 -42 113 -13 123
39 4 20 17 35 37 46 30 15 36 30 22 51 -12 18 -49 34 -80 34 -17 0 -32 6 -36
15 -8 22 -60 19 -81 -5 -10 -11 -29 -20 -42 -20 -13 0 -34 -7 -47 -15 -29 -19
-58 -10 -54 18 2 16 15 25 48 34 25 7 50 19 55 27 6 8 22 16 35 18 41 5 36 35
-12 81 -35 33 -40 41 -25 45 11 2 35 -13 64 -42 25 -25 51 -46 58 -46 6 0 22
-11 35 -25 13 -14 32 -25 42 -25 19 0 19 8 0 58 -3 10 2 13 19 10 20 -2 25
-10 27 -40 2 -21 7 -38 11 -38 15 0 31 25 31 51 0 25 21 45 34 32 10 -11 7
-48 -6 -61 -9 -9 -7 -12 9 -12 11 0 23 8 25 18 6 22 58 29 58 7 0 -7 -4 -16
-9 -19 -13 -9 49 -76 70 -76 10 0 21 12 27 29 9 26 17 30 59 36 26 3 63 13 81
21 19 8 64 14 105 14 53 0 80 5 103 19 32 20 76 17 134 -6 14 -6 52 -18 85
-28 33 -9 74 -25 90 -35 17 -10 53 -22 81 -25 50 -7 50 -7 77 33 30 42 57 58
121 72 131 28 177 49 214 99 l21 29 58 -13 c91 -22 93 -22 93 30 0 78 45 135
108 135 15 0 43 11 62 25 19 14 44 25 57 25 23 0 64 22 92 48 24 23 26 103 3
166 -19 53 -19 58 -4 62 37 11 47 22 47 50 0 23 -5 30 -23 32 -13 2 -30 -2
-38 -9 -8 -7 -34 -11 -57 -10 -46 2 -181 -16 -212 -28 -37 -15 -91 -31 -103
-31 -21 0 -1 28 29 40 16 7 29 16 29 20 0 4 -27 20 -61 35 -43 19 -69 25 -87
20 -15 -4 -37 -7 -49 -7 -16 0 -23 -6 -23 -19 0 -20 -24 -24 -67 -13 -26 7
-31 24 -8 24 8 0 23 9 34 21 15 16 26 19 50 14 26 -6 31 -4 31 13 0 22 -25 32
-85 32 -75 0 -115 -11 -115 -31 0 -15 -7 -19 -34 -19 -40 0 -66 8 -66 21 0 5
18 6 39 3 38 -6 40 -5 43 22 2 22 9 30 28 32 14 2 31 9 38 15 9 7 16 7 24 -1
18 -18 46 -14 58 9 10 18 17 20 66 14 54 -7 54 -7 119 45 37 31 61 58 58 64
-4 6 -6 44 -4 84 3 78 -8 92 -44 52 -10 -11 -28 -20 -40 -20 -13 0 -28 -6 -34
-14 -11 -13 -15 -12 -32 2 -34 29 -24 42 35 42 46 0 56 3 70 25 10 15 26 25
39 25 13 0 32 7 43 15 27 20 44 18 44 -5 0 -50 120 -1 169 69 26 37 27 51 1
51 -25 0 -26 18 -3 36 26 19 11 26 -58 28 -66 2 -91 20 -42 30 39 8 120 1 136
-12 13 -11 58 27 128 110 17 21 37 38 44 38 22 0 45 30 45 59 0 15 4 31 9 36
15 17 32 107 26 134 -4 19 1 38 18 62 47 69 60 133 61 289 0 192 -7 216 -94
305 -96 99 -166 160 -184 160 -8 0 -25 10 -38 21 -17 16 -42 23 -93 28 -38 4
-83 15 -100 25 -47 27 -74 31 -84 13 -9 -15 -13 -15 -43 -3 -18 8 -53 15 -78
16 -25 1 -54 5 -66 8 -18 6 -149 -14 -158 -24 -14 -15 -56 -120 -56 -138 0
-13 -13 -36 -30 -52 -24 -25 -33 -28 -49 -19 -11 5 -33 10 -50 10 -24 0 -36 8
-60 43 -22 33 -40 46 -77 58 -52 16 -66 34 -35 44 11 3 23 16 27 28 9 28 168
187 188 187 13 0 16 13 16 67 0 69 -9 107 -41 181 -11 23 -19 48 -19 55 0 7
-11 33 -25 59 -14 26 -25 56 -25 67 0 24 -56 91 -76 91 -21 0 -71 33 -95 63
-11 15 -35 34 -52 41 -43 18 -124 101 -142 144 -13 31 -18 33 -42 27 -16 -4
-50 -10 -78 -15 -27 -4 -51 -13 -53 -19 -6 -17 -31 -13 -69 10 -28 18 -39 20
-58 11 -30 -14 -44 3 -15 18 27 14 88 16 102 2 12 -12 95 -5 113 9 17 13 94
27 115 22 12 -3 20 -14 20 -27 0 -13 20 -41 48 -69 l49 -48 66 7 c58 6 70 4
88 -12 14 -12 18 -25 14 -41 -3 -13 -1 -23 5 -23 16 0 12 68 -6 103 -9 18 -40
64 -68 102 -111 150 -145 212 -172 313 -27 103 -14 145 51 163 48 14 45 43 -5
47 -50 5 -119 59 -120 95 0 19 -5 27 -18 27 -26 0 -47 27 -66 85 -30 88 -57
141 -79 151 -14 6 -23 20 -25 39 -5 39 -25 61 -63 69 -17 3 -42 15 -56 26 -14
11 -30 20 -35 20 -6 0 -19 11 -29 24 -11 14 -34 27 -56 30 -57 11 -104 28
-148 55 -22 13 -53 27 -70 31 -25 5 -33 13 -45 52 -8 25 -31 64 -51 86 -28 30
-38 52 -44 90 -4 28 -13 56 -21 63 -10 8 -14 34 -14 84 0 54 -5 78 -18 96 -10
13 -26 44 -37 69 -10 25 -25 52 -32 61 -7 8 -13 23 -13 31 0 9 -7 21 -15 28
-23 19 -28 49 -11 66 14 14 14 19 -5 56 -13 25 -20 57 -19 86 2 68 2 70 -21
77 -18 6 -20 12 -14 43 11 59 5 152 -10 183 -8 15 -15 41 -15 57 0 35 -42 75
-82 76 -22 1 -28 6 -28 24 0 17 -6 22 -24 22 -22 0 -56 35 -56 58 0 5 -16 27
-36 48 -20 22 -43 54 -52 73 -19 39 -29 45 -54 30z"/>
<path d="M3475 7360 c3 -5 13 -10 21 -10 8 0 14 5 14 10 0 6 -9 10 -21 10 -11
0 -17 -4 -14 -10z"/>
<path d="M1287 1589 c-7 -24 -1 -39 14 -39 11 0 12 30 0 48 -6 10 -10 8 -14
-9z"/>
<path d="M32 123 c-16 -3 -22 -9 -18 -20 3 -8 6 -19 6 -25 0 -6 11 1 25 16 26
28 30 37 18 35 -5 -1 -18 -4 -31 -6z"/>
<path d="M40 65 c0 -19 16 -19 24 0 3 9 0 15 -9 15 -8 0 -15 -7 -15 -15z"/>
<path d="M2 28 c6 -18 28 -21 28 -4 0 9 -7 16 -16 16 -9 0 -14 -5 -12 -12z"/>
</g>
</svg>
