<?xml version="1.0" standalone="no"?>
<!DOCTYPE svg PUBLIC "-//W3C//DTD SVG 20010904//EN"
 "http://www.w3.org/TR/2001/REC-SVG-20010904/DTD/svg10.dtd">
<svg version="1.0" xmlns="http://www.w3.org/2000/svg"
 width="1024.000000pt" height="819.000000pt" viewBox="0 0 1024.000000 819.000000"
 preserveAspectRatio="xMidYMid meet">
<metadata>
Created by potrace 1.16, written by Peter Selinger 2001-2019
</metadata>
<g transform="translate(0.000000,819.000000) scale(0.100000,-0.100000)"
fill="#000000" stroke="none">
<path d="M8785 7359 c-22 -10 -50 -19 -62 -19 -18 0 -23 -7 -28 -37 -10 -68
-46 -177 -71 -215 -29 -45 -32 -63 -4 -28 24 32 32 23 20 -22 -7 -23 -28 -51
-60 -80 -27 -23 -50 -49 -50 -55 0 -7 -6 -13 -13 -13 -7 0 -32 -26 -57 -57
-65 -84 -141 -163 -157 -163 -37 0 -111 -47 -132 -83 -14 -24 -37 -45 -60 -55
-48 -21 -131 -114 -131 -146 0 -13 -6 -28 -12 -34 -16 -12 -130 -41 -141 -35
-6 4 -4 27 10 76 2 9 0 17 -4 17 -11 0 -103 -192 -103 -214 0 -8 -4 -18 -10
-21 -5 -3 -10 -19 -10 -35 0 -15 -7 -30 -15 -34 -8 -3 -15 -12 -15 -20 0 -7
-7 -17 -16 -20 -12 -4 -14 -1 -9 14 13 41 -26 7 -71 -61 -33 -50 -54 -71 -78
-79 -38 -12 -100 -81 -183 -202 -31 -45 -84 -114 -117 -153 -34 -38 -92 -109
-129 -157 -51 -66 -86 -99 -143 -137 -42 -27 -89 -53 -105 -56 -17 -4 -44 -25
-66 -51 -20 -25 -55 -55 -77 -66 -23 -11 -58 -36 -79 -54 -20 -19 -43 -34 -50
-34 -8 0 -25 -9 -38 -20 -18 -16 -23 -29 -20 -59 3 -45 -19 -71 -39 -46 -33
39 -45 37 -108 -23 -62 -58 -87 -102 -59 -102 20 0 29 -100 11 -115 -7 -6 -14
-24 -16 -40 -2 -20 -9 -31 -23 -33 -33 -6 -42 -22 -17 -28 28 -8 28 -17 -5
-84 -14 -30 -29 -62 -33 -70 -5 -10 -23 -15 -56 -15 -42 0 -49 -3 -49 -20 0
-12 17 -30 43 -48 53 -35 55 -61 7 -77 -27 -9 -44 -9 -68 0 -28 9 -34 8 -49
-11 -10 -12 -18 -37 -18 -56 0 -19 -8 -47 -19 -61 -10 -15 -26 -50 -35 -79
-34 -103 -127 -160 -199 -121 -15 7 -24 5 -41 -11 -12 -12 -28 -21 -34 -21 -6
0 -18 -11 -27 -23 -8 -13 -26 -29 -39 -35 -21 -9 -30 -7 -63 17 -69 51 -95 86
-100 135 -3 26 -10 49 -15 52 -5 3 -26 -5 -46 -19 -21 -13 -47 -27 -60 -31
-42 -14 -13 -76 36 -76 12 0 22 -4 22 -8 0 -12 83 -97 103 -105 9 -3 17 -10
17 -15 0 -15 -119 -92 -152 -98 -18 -3 -61 -19 -96 -36 -34 -16 -90 -33 -123
-38 -33 -5 -67 -14 -76 -22 -16 -13 -59 -30 -123 -50 -22 -6 -84 -8 -164 -5
-87 4 -136 2 -150 -6 -20 -10 -73 -17 -155 -19 -22 -1 -37 4 -40 13 -10 32
-61 71 -88 68 -46 -4 -91 10 -96 32 -5 20 -51 27 -61 10 -3 -5 -43 -12 -88
-16 -52 -4 -90 -13 -101 -23 -14 -13 -21 -13 -41 -2 -14 7 -36 13 -50 13 -26
0 -42 13 -61 50 -13 26 -81 67 -113 67 -30 0 -39 -26 -17 -50 26 -29 11 -36
-29 -15 -30 16 -40 17 -74 7 -59 -18 -78 -15 -117 19 l-36 32 -52 -16 c-53
-15 -122 -16 -190 -2 -21 4 -64 2 -101 -5 -56 -10 -72 -10 -117 5 -43 15 -56
16 -73 5 -17 -11 -23 -9 -44 16 -69 84 -80 94 -106 94 -24 0 -31 -8 -53 -59
-18 -43 -34 -63 -53 -71 -15 -6 -46 -29 -68 -51 -23 -21 -48 -39 -57 -39 -8 0
-27 -14 -42 -31 -16 -17 -52 -42 -80 -55 -29 -12 -68 -34 -86 -48 -20 -16 -47
-26 -66 -26 -18 0 -61 -14 -95 -30 -59 -29 -71 -31 -162 -29 -73 2 -107 -2
-129 -14 -26 -13 -35 -13 -60 -2 -17 7 -39 22 -49 34 -15 16 -27 20 -47 16
-15 -4 -38 -1 -49 5 -31 17 -69 4 -76 -25 -7 -28 -19 -32 -27 -11 -11 29 -56
48 -117 50 -89 4 -106 23 -102 120 2 55 -2 86 -17 124 -19 48 -19 55 -6 127
20 102 19 131 -5 155 -25 25 -41 25 -68 0 -16 -15 -22 -32 -22 -65 0 -38 -3
-45 -20 -45 -13 0 -20 7 -20 20 0 29 -27 90 -39 90 -6 0 -11 -15 -11 -33 0
-35 -24 -77 -43 -77 -18 0 -34 100 -24 141 11 42 -4 94 -38 132 -13 15 -26 27
-29 27 -13 0 -27 -42 -18 -53 5 -7 13 -38 17 -70 6 -52 4 -62 -15 -82 l-21
-23 21 -33 c19 -31 20 -44 15 -144 l-6 -110 198 -251 c109 -138 230 -295 268
-349 79 -110 253 -343 408 -545 215 -281 289 -377 554 -718 l273 -350 77 -11
c43 -6 269 -36 503 -66 234 -31 542 -71 685 -90 143 -19 456 -60 695 -90 239
-31 570 -74 735 -95 165 -22 530 -69 810 -105 281 -36 611 -79 734 -95 124
-16 225 -28 226 -27 1 1 24 34 52 72 27 39 54 77 59 85 4 8 9 151 11 317 2
255 5 307 18 334 9 17 21 58 26 92 7 42 21 78 43 112 18 28 61 107 96 176 51
105 65 145 82 235 35 185 44 211 98 269 58 61 80 107 80 170 0 63 31 145 89
234 l49 76 -3 122 c-2 68 -7 127 -10 133 -4 6 -33 24 -66 40 -42 22 -60 37
-65 55 -9 36 10 52 69 60 66 9 107 26 155 65 l38 30 137 -2 c75 -2 137 -6 137
-9 0 -4 11 -10 24 -13 25 -6 116 20 116 34 0 13 149 59 200 62 40 3 45 6 48
29 2 19 -8 40 -38 74 -35 41 -41 53 -36 79 4 21 0 43 -14 69 -11 20 -20 44
-20 52 0 21 -39 19 -96 -6 -38 -16 -53 -18 -72 -10 -12 6 -47 11 -77 11 -40 0
-55 4 -55 14 0 26 40 141 60 175 14 22 21 51 22 83 0 45 -4 54 -39 90 l-38 39
0 92 c-1 51 -5 109 -9 130 -8 34 -7 39 13 44 14 4 21 13 21 30 0 31 17 63 43
85 l21 16 -33 65 c-30 59 -32 69 -22 98 15 44 14 82 -5 161 l-17 68 27 53 c52
107 135 179 223 193 52 8 120 -11 135 -39 13 -24 39 -169 31 -177 -2 -2 -18 3
-34 13 -38 21 -55 22 -63 1 -4 -11 7 -28 32 -53 30 -28 42 -48 51 -92 13 -61
44 -99 95 -119 63 -24 112 10 164 116 36 71 45 80 109 103 33 11 52 26 61 44
10 20 23 29 52 33 22 4 49 17 61 30 12 13 29 24 36 24 7 0 18 11 25 25 9 19 8
29 -5 48 -8 13 -15 44 -15 69 1 32 -6 57 -23 84 -22 37 -24 48 -23 174 1 106
6 152 24 214 26 93 23 156 -9 190 -21 22 -27 47 -14 60 4 3 6 75 4 159 -2 123
-6 164 -23 215 -22 65 -20 64 -100 77 -20 3 -38 10 -40 15 -2 5 -22 3 -47 -6
-54 -19 -62 -16 -76 27 -9 27 -19 36 -50 45 -43 12 -53 29 -54 91 -1 30 6 49
24 71 31 37 31 47 0 84 -41 48 -42 72 -5 118 28 35 31 45 22 65 -8 18 -7 51 5
130 14 99 14 109 -3 165 -20 67 -26 69 -89 39z m-267 -516 c-11 -40 -24 -60
-34 -51 -5 6 32 88 40 88 3 0 0 -17 -6 -37z"/>
<path d="M8200 6660 c0 -5 7 -10 15 -10 8 0 15 5 15 10 0 6 -7 10 -15 10 -8 0
-15 -4 -15 -10z"/>
<path d="M7974 6485 c-27 -19 -56 -35 -64 -36 -8 -1 1 -5 21 -10 34 -8 40 -5
78 31 22 22 41 42 41 45 0 14 -31 2 -76 -30z"/>
<path d="M7930 6410 c0 -19 3 -21 12 -12 9 9 9 15 0 24 -9 9 -12 7 -12 -12z"/>
<path d="M7688 6185 c-19 -25 -24 -55 -10 -55 11 0 43 68 34 74 -4 2 -15 -7
-24 -19z"/>
<path d="M6416 4984 c-11 -30 -6 -37 14 -19 11 10 20 22 20 27 0 15 -28 9 -34
-8z"/>
<path d="M6463 4973 c-16 -6 -17 -33 -3 -33 11 0 26 28 19 34 -2 2 -10 1 -16
-1z"/>
<path d="M6178 4681 c-21 -21 -23 -41 -5 -41 11 0 37 39 37 55 0 10 -16 3 -32
-14z"/>
<path d="M6185 4583 c-17 -35 -17 -37 1 -50 29 -21 34 -16 34 37 0 59 -11 64
-35 13z"/>
<path d="M6088 4589 c-22 -24 -22 -26 1 -32 26 -7 56 24 39 41 -15 15 -19 14
-40 -9z"/>
<path d="M5979 4533 c-9 -2 -22 -16 -30 -31 -7 -15 -26 -42 -41 -60 -16 -18
-28 -39 -28 -47 0 -21 34 -36 69 -29 33 7 41 21 16 30 -22 9 -18 24 15 68 40
53 39 78 -1 69z"/>
<path d="M6090 4485 c0 -14 37 -35 61 -35 19 0 8 27 -16 38 -34 16 -45 15 -45
-3z"/>
<path d="M2258 4435 c-24 -31 -23 -56 2 -62 11 -3 20 -14 20 -24 0 -23 16 -25
24 -3 9 24 7 61 -6 89 -14 31 -18 31 -40 0z"/>
<path d="M5990 4426 c0 -17 22 -41 52 -57 33 -18 32 -2 -3 36 -36 38 -49 43
-49 21z"/>
<path d="M6077 4433 c-12 -11 -8 -23 8 -23 8 0 15 7 15 15 0 16 -12 20 -23 8z"/>
<path d="M4015 4380 c-4 -6 -1 -18 6 -26 11 -14 13 -14 21 0 15 26 -12 51 -27
26z"/>
<path d="M5781 4316 c-35 -36 -34 -62 2 -52 12 3 30 -3 45 -15 14 -10 34 -19
46 -19 11 0 44 -11 71 -24 l50 -25 3 24 c4 26 -48 80 -97 101 -23 10 -24 13
-9 19 29 12 10 25 -36 25 -35 0 -48 -6 -75 -34z"/>
<path d="M5955 4300 c3 -5 15 -10 25 -10 10 0 22 5 25 10 4 6 -7 10 -25 10
-18 0 -29 -4 -25 -10z"/>
<path d="M4154 4249 c3 -17 6 -35 6 -40 0 -15 28 -10 34 7 11 28 6 52 -10 58
-30 12 -37 7 -30 -25z"/>
<path d="M940 4219 c-13 -8 -12 -12 5 -25 18 -14 20 -13 23 2 5 22 -10 35 -28
23z"/>
<path d="M5770 4211 c0 -18 18 -21 30 -6 10 13 9 15 -9 15 -11 0 -21 -4 -21
-9z"/>
<path d="M5567 4170 c-9 -11 -24 -20 -33 -20 -30 0 -7 -25 27 -28 19 -2 40 -8
47 -14 7 -6 16 -8 20 -4 4 4 -4 15 -17 25 -17 13 -22 23 -16 39 8 27 -5 28
-28 2z"/>
<path d="M5684 4162 c-19 -13 -25 -42 -9 -48 8 -4 15 -16 15 -28 1 -20 37 -74
44 -65 11 14 36 75 36 90 0 9 -15 27 -34 38 -38 24 -37 23 -52 13z"/>
<path d="M2828 4114 c-3 -2 -25 -8 -48 -12 -37 -6 -45 -12 -52 -37 -12 -44 -1
-79 34 -110 l31 -28 39 41 c32 35 38 48 38 86 0 34 -5 48 -19 55 -10 6 -21 8
-23 5z"/>
<path d="M4138 4109 c-23 -13 -26 -89 -4 -89 16 0 38 24 30 32 -3 4 8 9 25 13
35 7 38 16 15 39 -18 18 -41 20 -66 5z"/>
<path d="M5880 4101 c0 -10 30 -24 37 -17 3 3 2 9 -2 15 -8 13 -35 15 -35 2z"/>
<path d="M5514 4054 c-37 -34 -38 -36 -19 -47 11 -7 34 -27 52 -46 30 -32 63
-38 63 -11 0 5 9 10 19 10 30 0 32 26 5 67 -28 41 -51 63 -69 63 -6 0 -29 -16
-51 -36z"/>
<path d="M3612 4068 c-18 -18 -14 -46 8 -58 29 -15 39 -5 31 32 -7 35 -21 44
-39 26z"/>
<path d="M4842 4039 c2 -6 8 -10 13 -10 5 0 11 4 13 10 2 6 -4 11 -13 11 -9 0
-15 -5 -13 -11z"/>
<path d="M1135 4030 c-4 -7 0 -19 9 -28 13 -14 16 -14 16 -2 0 25 -16 44 -25
30z"/>
<path d="M4010 4020 c-28 -15 -140 -31 -175 -24 -32 6 -35 4 -35 -19 0 -35 23
-51 65 -43 26 5 37 3 41 -8 10 -26 34 -27 46 -1 11 25 42 34 53 15 10 -16 32
-12 39 8 3 9 11 24 17 33 25 34 -11 62 -51 39z"/>
<path d="M4784 3986 c-19 -14 -19 -15 0 -22 20 -8 47 5 54 24 5 17 -30 15 -54
-2z"/>
<path d="M4502 3978 c-29 -29 3 -58 38 -35 28 17 26 47 -3 47 -13 0 -28 -5
-35 -12z"/>
<path d="M4082 3904 c-12 -8 -22 -23 -22 -33 0 -33 13 -31 32 5 23 42 20 49
-10 28z"/>
<path d="M4901 3900 c-13 -11 -31 -20 -41 -20 -10 0 -23 -7 -30 -15 -8 -10
-28 -14 -64 -12 -47 2 -56 -2 -104 -40 -29 -23 -66 -44 -82 -48 -16 -3 -34
-13 -40 -20 -21 -25 -1 -38 51 -33 39 4 57 0 98 -22 68 -38 128 -46 175 -24
29 14 36 23 36 46 0 15 4 28 8 28 11 0 52 -39 52 -49 0 -14 44 -21 51 -9 6 9
14 9 34 0 39 -18 63 -6 76 37 17 57 3 75 -78 96 -81 22 -103 38 -103 77 0 33
-7 34 -39 8z"/>
<path d="M1750 3878 c0 -7 -3 -23 -6 -35 -5 -17 -2 -23 9 -23 18 0 30 30 21
54 -7 19 -24 22 -24 4z"/>
<path d="M5310 3843 c1 -8 69 -43 83 -43 16 0 5 17 -22 33 -30 18 -61 23 -61
10z"/>
<path d="M4363 3829 c-27 -27 -4 -78 35 -79 18 0 15 44 -5 69 -15 18 -20 20
-30 10z"/>
<path d="M4130 3810 c-13 -9 -12 -12 4 -25 39 -29 115 -8 84 23 -15 15 -67 15
-88 2z"/>
<path d="M5310 3807 c0 -14 19 -37 32 -37 16 0 7 30 -12 40 -15 8 -20 8 -20
-3z"/>
<path d="M1720 3775 c-8 -20 -7 -31 1 -42 15 -18 26 -6 31 31 4 38 -19 46 -32
11z"/>
<path d="M5222 3765 c6 -14 18 -25 27 -25 9 0 26 -3 39 -6 17 -5 22 -2 22 13
0 29 -20 43 -62 43 -36 0 -37 -1 -26 -25z"/>
<path d="M3560 3720 c0 -5 7 -10 15 -10 8 0 15 5 15 10 0 6 -7 10 -15 10 -8 0
-15 -4 -15 -10z"/>
<path d="M5250 3711 c0 -11 26 -22 34 -14 3 3 3 10 0 14 -7 12 -34 11 -34 0z"/>
<path d="M3962 3653 c-15 -6 -6 -23 14 -23 8 0 14 7 14 15 0 15 -6 17 -28 8z"/>
<path d="M2487 3624 c-9 -10 4 -34 19 -34 8 0 14 9 14 20 0 19 -19 27 -33 14z"/>
</g>
</svg>
