<?xml version="1.0" standalone="no"?>
<!DOCTYPE svg PUBLIC "-//W3C//DTD SVG 20010904//EN"
 "http://www.w3.org/TR/2001/REC-SVG-20010904/DTD/svg10.dtd">
<svg version="1.0" xmlns="http://www.w3.org/2000/svg"
 width="1024.000000pt" height="682.000000pt" viewBox="0 0 1024.000000 682.000000"
 preserveAspectRatio="xMidYMid meet">
<metadata>
Created by potrace 1.16, written by Peter Selinger 2001-2019
</metadata>
<g transform="translate(0.000000,682.000000) scale(0.100000,-0.100000)"
fill="#000000" stroke="none">
<path d="M1887 5880 c6 -42 -9 -70 -48 -91 -27 -14 -116 18 -160 58 -63 57
-71 46 -63 -99 4 -68 10 -127 15 -132 13 -15 11 -26 -6 -26 -8 0 -15 -9 -15
-21 0 -11 -5 -30 -12 -42 -7 -12 -11 -34 -9 -48 3 -33 -106 -326 -169 -454
-64 -130 -96 -229 -109 -339 -8 -70 -20 -110 -55 -185 -57 -124 -63 -152 -36
-176 19 -17 20 -26 14 -115 -6 -92 -5 -98 25 -167 17 -39 31 -86 31 -104 0
-19 7 -37 17 -45 14 -10 18 -28 18 -86 1 -55 6 -82 22 -112 20 -36 21 -40 6
-71 -16 -33 -15 -34 52 -185 65 -146 67 -153 55 -189 -22 -69 -14 -82 72 -111
88 -30 84 -27 106 -72 15 -29 29 -39 92 -68 8 -4 16 -19 18 -33 2 -17 11 -27
27 -31 14 -4 43 -32 70 -70 41 -58 45 -68 45 -123 l0 -59 103 -12 c274 -32
277 -33 267 -53 -12 -22 -42 -1 284 -199 l249 -151 216 -29 c275 -38 261 -38
261 4 0 19 3 37 8 40 4 2 68 -7 142 -20 122 -22 137 -28 154 -52 11 -15 60
-68 109 -118 103 -105 116 -125 117 -176 0 -52 12 -78 56 -123 53 -53 153
-125 173 -125 31 0 59 30 76 80 19 58 51 85 92 77 98 -20 159 -38 182 -54 41
-31 88 -108 113 -186 14 -45 36 -87 58 -113 44 -51 75 -112 94 -187 8 -31 29
-77 47 -101 26 -37 39 -46 73 -52 22 -3 52 -15 65 -25 12 -10 39 -21 60 -25
20 -4 48 -13 63 -20 31 -16 64 -18 72 -5 4 5 -1 37 -10 72 -22 86 -15 168 20
247 31 68 89 127 133 138 49 12 95 39 220 132 167 123 265 153 374 116 65 -22
189 -26 189 -7 0 8 -12 13 -29 13 -17 0 -33 5 -36 10 -4 6 8 10 30 10 26 0 47
-9 75 -32 22 -18 40 -38 40 -45 0 -18 41 -43 71 -43 14 0 34 9 44 20 24 26 49
26 42 0 -5 -21 1 -24 27 -14 9 4 16 18 16 34 0 30 21 53 28 31 5 -16 86 -51
117 -51 13 0 26 4 30 10 8 13 -31 50 -54 50 -26 0 -51 10 -51 21 0 5 9 18 20
29 23 23 26 53 6 69 -10 9 -16 8 -26 -4 -7 -8 -19 -15 -26 -15 -23 0 5 48 41
70 26 16 50 20 117 20 87 0 108 8 108 42 0 10 4 18 9 18 12 0 21 -25 21 -57 0
-28 -8 -29 115 6 39 11 86 20 106 20 56 1 132 -26 180 -64 24 -19 53 -35 64
-35 29 0 97 34 119 59 13 14 31 21 56 21 41 0 57 -10 89 -58 13 -18 47 -46 76
-63 86 -48 90 -57 87 -164 -3 -101 6 -136 46 -178 14 -15 42 -58 62 -95 31
-59 38 -67 61 -64 30 3 43 -10 53 -51 4 -15 14 -30 24 -33 63 -21 73 -29 98
-80 23 -47 30 -54 56 -54 36 0 83 24 92 45 3 9 6 31 6 49 0 18 5 37 11 43 8 8
8 39 0 114 -11 101 -13 106 -76 215 -50 86 -65 120 -65 151 0 28 -6 46 -21 59
-36 32 -105 126 -131 179 -49 97 -61 150 -56 250 4 86 7 100 47 182 37 73 60
103 138 180 73 73 93 98 93 120 0 48 35 91 97 121 51 24 61 34 85 83 31 66 66
97 121 106 65 10 109 73 52 73 -21 0 -25 5 -25 30 0 22 7 33 29 45 31 16 64
56 75 92 5 16 -6 50 -41 119 l-47 96 -34 -6 c-29 -4 -32 -3 -21 10 10 12 8 20
-10 44 -12 17 -16 30 -10 30 7 0 8 7 4 18 -4 9 -10 32 -14 51 -5 29 -12 36
-38 43 -18 5 -35 13 -39 20 -5 7 1 9 20 4 32 -8 33 4 7 65 -22 50 -23 151 -2
172 11 10 12 6 6 -20 -4 -21 -3 -33 4 -33 14 0 14 -33 1 -46 -14 -14 6 -81 36
-119 13 -18 24 -37 24 -44 0 -7 6 -11 13 -8 6 2 11 16 9 31 -4 34 4 33 23 -3
11 -22 12 -37 5 -56 -16 -41 -12 -95 6 -102 21 -8 34 13 34 54 0 18 9 55 20
83 12 31 20 74 20 111 0 55 -3 63 -30 87 -16 15 -30 32 -30 38 0 6 -9 19 -21
30 -11 10 -25 27 -30 36 -7 14 -1 12 27 -7 21 -14 47 -28 60 -31 16 -4 20 -11
16 -26 -8 -33 21 -16 33 18 5 16 13 31 17 34 21 16 38 86 38 160 0 73 -2 80
-20 80 -24 0 -27 25 -4 34 9 3 27 6 40 6 31 0 95 32 157 78 77 59 54 89 -25
32 -24 -18 -54 -30 -71 -30 -17 0 -39 -7 -49 -17 -14 -13 -18 -13 -18 -2 1 24
88 90 138 104 71 19 188 81 211 112 l20 28 1 -26 c0 -29 27 -46 44 -29 8 8 7
13 -3 20 -19 11 -2 33 39 50 33 14 38 35 14 68 -15 22 -44 30 -44 12 0 -5 7
-10 16 -10 10 0 14 -7 12 -22 -5 -35 -41 -35 -70 0 -13 16 -35 35 -47 41 -20
11 -22 18 -16 52 4 24 3 45 -4 53 -8 10 -7 22 3 48 8 18 18 62 22 97 l7 63 46
20 c25 10 69 40 96 67 28 26 81 73 118 106 38 32 76 69 84 82 15 22 15 27 -1
59 -15 32 -19 35 -46 29 -27 -6 -30 -4 -30 18 0 42 -10 57 -39 57 -26 0 -28 5
-56 108 -23 85 -36 114 -61 140 -40 40 -74 42 -109 5 -24 -26 -27 -27 -39 -10
-23 30 -43 20 -60 -30 -41 -127 -56 -239 -35 -260 8 -8 6 -18 -7 -38 -10 -15
-20 -46 -24 -69 -4 -33 -9 -41 -27 -42 -38 -2 -53 -13 -53 -38 0 -22 -8 -27
-67 -45 -95 -28 -261 -69 -304 -76 -48 -7 -112 -55 -146 -107 -14 -24 -39 -55
-55 -70 -33 -31 -36 -54 -8 -63 15 -5 19 -12 14 -30 -3 -12 -1 -26 5 -29 18
-12 12 -36 -8 -36 -11 0 -30 -13 -43 -29 -26 -31 -60 -41 -153 -45 -78 -4
-143 -24 -157 -49 -8 -15 -5 -26 11 -48 12 -15 21 -33 21 -39 0 -24 -147 -160
-196 -180 -27 -12 -71 -43 -99 -70 -56 -54 -167 -102 -188 -81 -6 6 -23 11
-38 11 -15 0 -37 9 -50 19 -24 19 -24 20 -6 49 9 17 17 37 17 46 0 9 4 24 9
34 5 9 12 25 15 34 3 10 15 18 26 18 17 0 20 6 20 39 0 50 -47 200 -71 225
-25 27 -62 9 -89 -44 -24 -46 -36 -50 -52 -15 -10 22 -8 29 12 50 19 20 25 40
28 90 3 44 0 70 -9 81 -10 13 -10 17 0 23 18 12 -2 48 -31 56 -13 4 -41 15
-63 25 -90 39 -103 41 -133 14 -25 -23 -26 -25 -9 -38 17 -13 16 -14 -7 -20
-21 -5 -25 -13 -28 -53 -2 -28 -8 -48 -17 -51 -10 -3 -12 3 -6 27 10 45 -2 57
-31 30 -37 -35 -64 -121 -71 -224 -6 -90 -5 -94 22 -129 44 -57 45 -154 4
-258 -14 -35 -70 -70 -106 -66 -58 7 -92 125 -93 324 0 58 5 104 15 127 8 19
12 37 9 40 -3 3 6 40 21 82 38 110 29 122 -29 37 -44 -64 -66 -86 -66 -65 0 3
14 28 32 55 17 27 41 77 53 111 24 64 44 80 92 70 15 -3 23 1 28 16 4 14 18
22 43 26 20 4 44 9 52 12 8 3 59 7 113 9 54 1 102 5 105 9 4 4 -3 14 -15 22
-15 10 -23 25 -23 45 0 28 -1 29 -32 22 -65 -15 -83 -11 -86 19 -4 31 -12 33
-51 12 -16 -8 -48 -17 -72 -21 -24 -4 -55 -15 -69 -24 -15 -10 -44 -18 -70
-18 -39 0 -49 5 -72 33 -30 35 -74 53 -91 36 -15 -15 -27 -14 -27 3 0 19 48
76 65 76 7 0 15 7 19 15 4 12 -3 15 -34 15 -35 0 -47 -7 -107 -65 -75 -72
-147 -112 -219 -122 -39 -5 -46 -4 -42 8 4 8 9 22 13 31 12 30 -20 32 -67 5
-49 -29 -108 -44 -108 -28 0 5 22 29 50 52 27 23 58 57 69 74 18 30 71 62 174
103 33 14 36 35 3 26 -13 -3 -27 -1 -30 5 -4 6 -27 11 -52 11 -24 0 -53 5 -63
11 -14 10 -24 8 -48 -11 l-31 -22 -44 26 c-25 14 -50 26 -57 26 -7 0 -35 11
-63 25 -53 27 -83 31 -93 15 -7 -12 -45 -14 -45 -2 0 4 -19 8 -42 8 -50 2 -72
24 -82 83 -4 24 -14 44 -25 50 -23 13 -31 5 -31 -31 l0 -28 -272 0 c-794 0
-1650 98 -2488 285 -202 45 -475 115 -600 155 -94 29 -99 28 -93 -20z"/>
<path d="M1820 5855 c0 -14 4 -25 9 -25 5 0 16 -3 25 -6 13 -5 16 1 16 25 0
26 -4 31 -25 31 -20 0 -25 -5 -25 -25z"/>
<path d="M6157 5310 c-46 -29 -60 -50 -34 -50 21 0 87 50 87 65 0 19 2 20 -53
-15z"/>
<path d="M6856 5001 c-7 -10 3 -41 13 -41 17 1 33 20 28 34 -7 17 -32 22 -41
7z"/>
<path d="M8865 4480 c-3 -5 3 -10 14 -10 12 0 21 5 21 10 0 6 -6 10 -14 10 -8
0 -18 -4 -21 -10z"/>
<path d="M1486 3056 c7 -19 38 -22 32 -3 -3 6 -12 13 -21 15 -12 2 -15 -1 -11
-12z"/>
<path d="M1532 3058 c3 -7 18 -14 34 -16 28 -3 28 -3 9 12 -24 19 -48 21 -43
4z"/>
<path d="M1700 2902 c0 -5 9 -17 19 -26 23 -21 38 -4 15 18 -17 17 -34 21 -34
8z"/>
<path d="M1690 2790 c13 -24 35 -27 26 -4 -3 9 -6 18 -6 20 0 2 -7 4 -15 4
-13 0 -14 -4 -5 -20z"/>
<path d="M2016 2224 c-4 -10 -13 -13 -25 -9 -10 3 -31 0 -47 -6 -16 -7 -39
-11 -51 -10 -15 2 -29 -8 -45 -33 -21 -32 -27 -36 -69 -36 -66 0 -78 -18 -45
-67 14 -21 26 -47 26 -58 1 -11 7 -31 15 -45 18 -31 19 -70 3 -70 -22 0 -36
14 -39 40 -3 20 -9 24 -29 22 -14 -2 -46 -3 -73 -2 -53 1 -66 -14 -46 -52 7
-13 15 -36 18 -53 8 -37 75 -74 135 -75 31 0 37 -3 32 -16 -3 -9 -6 -27 -6
-41 0 -23 -3 -25 -30 -20 -16 4 -32 2 -35 -3 -8 -13 -45 -13 -45 0 0 20 -40 9
-73 -20 -47 -41 -71 -90 -52 -109 10 -10 11 -20 4 -35 -7 -15 -6 -32 6 -59 13
-31 20 -37 45 -37 24 0 30 -4 31 -22 1 -13 0 -27 -1 -33 -14 -56 -14 -58 14
-51 29 7 76 -17 76 -40 0 -8 5 -14 10 -14 6 0 10 5 10 10 0 14 11 12 33 -4 17
-13 17 -17 4 -43 -32 -61 -100 -97 -204 -110 -23 -3 -49 -13 -59 -24 -11 -12
-30 -19 -55 -19 -46 0 -69 -8 -69 -24 0 -16 83 -14 123 2 16 7 41 11 56 10 14
-1 32 2 39 6 7 4 19 2 27 -4 11 -9 15 -9 15 -1 0 6 13 11 29 11 20 0 32 6 36
19 4 13 27 27 67 40 101 34 199 107 168 126 -16 10 -12 21 14 34 13 7 38 33
55 57 34 49 70 71 98 59 15 -6 10 -10 -22 -20 -30 -9 -41 -18 -43 -35 -2 -13
-11 -34 -19 -46 -8 -13 -12 -28 -8 -34 10 -17 55 -11 83 10 20 17 34 19 67 14
33 -4 43 -2 48 9 3 9 -1 21 -8 27 -8 7 -12 16 -9 21 10 17 37 9 84 -26 34 -25
58 -35 83 -35 54 0 139 -36 189 -79 24 -21 52 -40 63 -43 11 -2 19 -11 17 -20
-1 -8 5 -21 13 -28 8 -7 15 -20 15 -29 0 -9 14 -31 31 -50 25 -26 33 -31 40
-20 6 10 9 8 9 -9 0 -19 4 -22 20 -17 17 5 20 2 20 -27 1 -42 28 -76 60 -73
24 2 28 11 19 44 -7 26 21 23 31 -4 13 -34 41 -30 51 8 12 45 -5 75 -54 96
-29 13 -52 32 -67 57 -13 20 -50 70 -82 111 -65 82 -88 91 -113 43 l-16 -30
-33 25 c-19 14 -37 37 -40 50 -5 21 -12 24 -44 22 l-37 -2 -3 368 -2 367 -33
21 c-17 11 -42 18 -55 16 -23 -4 -69 9 -109 31 -12 7 -36 12 -53 12 -26 0 -34
5 -43 31 -10 25 -16 30 -36 26 -18 -4 -30 2 -44 19 -21 27 -52 32 -61 8z"/>
<path d="M1393 1833 c-4 -10 -1 -19 8 -22 8 -2 26 -17 41 -33 14 -16 29 -24
32 -19 9 14 -15 61 -31 61 -7 0 -13 7 -13 15 0 21 -29 19 -37 -2z"/>
<path d="M1247 1643 c-3 -4 1 -17 9 -28 10 -13 14 -15 14 -4 0 20 -16 43 -23
32z"/>
<path d="M3204 1555 c-11 -27 4 -45 36 -45 27 0 30 3 30 30 0 27 -3 30 -30 30
-18 0 -33 -6 -36 -15z"/>
<path d="M1430 1512 c0 -15 35 -42 54 -42 22 0 33 29 15 41 -18 11 -69 12 -69
1z"/>
<path d="M3105 1511 c-10 -17 12 -21 25 -6 10 12 10 15 -3 15 -9 0 -18 -4 -22
-9z"/>
<path d="M3469 1461 l-24 -19 22 -24 c16 -16 36 -25 63 -26 39 -3 54 10 25 22
-8 3 -15 12 -15 19 0 13 -30 47 -42 47 -3 0 -16 -9 -29 -19z"/>
<path d="M3630 1371 c0 -14 67 -33 90 -26 11 3 20 13 20 21 0 10 -14 14 -55
14 -30 0 -55 -4 -55 -9z"/>
<path d="M3744 1336 c-3 -8 5 -28 17 -45 17 -23 31 -31 53 -31 66 0 76 44 16
65 -76 26 -80 27 -86 11z"/>
<path d="M3670 1322 c0 -5 6 -16 13 -25 15 -20 43 -7 34 17 -6 16 -47 23 -47
8z"/>
<path d="M1935 1199 c-84 -62 -86 -66 -59 -93 21 -22 34 -20 74 13 27 23 32
32 22 43 -9 11 -7 18 9 31 11 10 17 22 14 27 -9 14 -15 12 -60 -21z"/>
<path d="M3883 1175 c5 -28 2 -37 -14 -45 -23 -13 -25 -36 -4 -44 11 -4 15
-21 15 -63 0 -48 4 -60 21 -71 23 -15 44 -4 54 28 3 11 16 22 28 25 50 14 97
39 97 52 0 7 -4 13 -9 13 -6 0 -20 18 -33 41 -18 33 -36 47 -87 70 -35 16 -66
29 -69 29 -2 0 -2 -16 1 -35z"/>
<path d="M1260 1045 c0 -14 -7 -16 -39 -10 -23 4 -48 2 -61 -5 -24 -13 -16
-35 9 -24 9 4 41 8 71 8 48 1 55 4 55 21 0 11 -8 21 -17 23 -11 2 -18 -3 -18
-13z"/>
<path d="M1790 1040 c0 -5 5 -10 10 -10 6 0 10 5 10 10 0 6 -4 10 -10 10 -5 0
-10 -4 -10 -10z"/>
</g>
</svg>
