<?xml version="1.0" standalone="no"?>
<!DOCTYPE svg PUBLIC "-//W3C//DTD SVG 20010904//EN"
 "http://www.w3.org/TR/2001/REC-SVG-20010904/DTD/svg10.dtd">
<svg version="1.0" xmlns="http://www.w3.org/2000/svg"
 width="1024.000000pt" height="1024.000000pt" viewBox="0 0 1024.000000 1024.000000"
 preserveAspectRatio="xMidYMid meet">
<metadata>
Created by potrace 1.16, written by Peter Selinger 2001-2019
</metadata>
<g transform="translate(0.000000,1024.000000) scale(0.100000,-0.100000)"
fill="#000000" stroke="none">
<path d="M3099 9631 c-13 -10 -49 -24 -79 -30 -65 -14 -124 -50 -144 -89 -8
-15 -17 -50 -22 -77 -9 -61 -27 -105 -51 -126 -10 -9 -49 -22 -86 -29 -60 -11
-70 -11 -86 4 -28 25 -100 21 -141 -9 -47 -34 -65 -31 -96 15 -15 22 -32 40
-39 40 -7 0 -33 -11 -58 -24 l-46 -25 -25 20 c-21 17 -24 24 -16 45 26 68 -7
114 -83 114 l-46 0 1 -92 c1 -75 -3 -102 -20 -141 -31 -71 -114 -151 -217
-212 -142 -83 -185 -143 -185 -258 0 -50 18 -96 52 -131 11 -12 37 -46 57 -76
l36 -55 3 -159 c2 -105 -1 -168 -8 -187 -11 -26 -17 -28 -74 -31 -58 -3 -61
-4 -64 -29 -2 -15 6 -63 17 -107 29 -110 27 -151 -11 -235 -27 -62 -32 -87
-36 -177 -5 -108 -20 -160 -58 -191 -24 -20 -44 -72 -44 -114 0 -44 -14 -73
-49 -100 -14 -11 -41 -33 -59 -50 -30 -28 -32 -33 -23 -64 6 -18 35 -59 65
-91 61 -64 73 -98 62 -183 -13 -100 -58 -282 -82 -328 -24 -49 -48 -63 -151
-89 -31 -8 -47 -19 -58 -40 -30 -59 -22 -79 63 -153 18 -15 32 -35 32 -45 0
-33 -30 -208 -45 -262 -17 -63 -20 -143 -5 -170 5 -10 25 -27 45 -39 77 -45
71 -131 -20 -244 -64 -81 -69 -94 -68 -169 1 -42 9 -72 31 -116 17 -32 38 -81
47 -108 15 -44 15 -53 0 -114 -16 -65 -16 -68 5 -126 53 -144 63 -202 63 -359
0 -162 -16 -253 -54 -306 -32 -45 -150 -109 -220 -119 -111 -16 -127 -42 -88
-148 38 -103 42 -137 25 -189 -23 -66 -20 -79 18 -108 44 -33 66 -24 101 44
13 27 32 52 42 57 10 4 54 10 98 13 71 5 80 8 83 27 2 11 -4 27 -13 34 -8 7
-15 23 -15 35 0 28 22 35 113 35 71 0 81 8 52 46 -8 10 -14 28 -14 39 0 17 5
14 34 -17 60 -64 40 -95 -54 -85 -73 8 -80 1 -67 -62 15 -75 2 -85 -96 -76
l-78 7 -26 -60 c-27 -63 -35 -69 -126 -102 -57 -21 -78 -48 -78 -102 0 -10
-15 -34 -33 -53 l-33 -34 2 -198 c1 -109 7 -218 13 -243 5 -25 7 -73 4 -107
-6 -69 11 -202 33 -249 9 -18 37 -44 70 -64 50 -30 84 -71 84 -101 0 -6 20
-30 44 -53 36 -34 46 -51 56 -98 6 -32 9 -66 5 -77 -7 -24 7 -29 98 -37 72 -7
119 -23 133 -46 4 -7 10 -28 14 -48 5 -31 10 -37 48 -48 27 -9 50 -25 64 -45
12 -18 49 -61 83 -97 63 -66 68 -76 80 -143 3 -20 19 -52 34 -70 15 -17 34
-43 41 -56 11 -22 16 -23 69 -18 101 11 240 52 270 81 34 33 67 33 97 1 28
-30 58 -32 101 -5 27 16 37 18 58 8 21 -9 32 -8 61 5 42 21 67 21 120 3 22 -8
58 -13 80 -11 67 5 249 -19 277 -38 15 -9 45 -44 67 -77 29 -42 64 -77 120
-116 80 -56 112 -88 141 -141 10 -18 28 -33 45 -37 16 -4 51 -18 79 -32 28
-13 96 -33 151 -44 120 -25 170 -43 206 -78 l28 -26 78 13 c69 11 85 11 137
-4 101 -29 113 -56 46 -100 -37 -24 -42 -55 -8 -55 12 0 54 -26 95 -60 41 -33
82 -60 93 -60 10 0 34 14 53 31 45 39 71 36 71 -10 1 -23 8 -39 24 -52 32 -26
43 -24 78 16 24 27 39 35 65 35 56 0 98 17 156 66 94 76 256 149 311 138 21
-4 45 -1 71 11 36 16 47 17 117 5 43 -7 94 -19 113 -28 21 -8 90 -17 175 -21
166 -9 207 -25 258 -98 18 -26 41 -57 52 -70 l20 -24 80 16 c139 26 202 18
249 -34 12 -13 31 -21 51 -21 41 0 63 -18 67 -54 2 -16 8 -31 14 -33 6 -2 38
16 70 40 32 25 113 67 178 96 66 28 130 61 143 73 21 20 27 21 58 9 39 -14 63
-5 87 31 9 13 42 34 74 47 33 13 78 34 100 47 106 60 244 123 291 133 28 6 67
20 85 31 20 12 51 20 79 20 52 0 58 6 83 71 25 70 122 156 261 234 139 78 194
112 232 147 24 21 49 38 57 38 27 0 36 35 30 112 l-6 73 47 55 c27 30 74 89
105 130 58 76 138 160 202 215 27 23 38 42 46 80 6 28 18 64 26 80 9 17 16 55
16 85 0 79 25 119 148 239 97 95 105 105 82 108 -76 11 -100 28 -100 74 0 29
0 29 -59 29 -121 0 -138 31 -75 133 39 63 41 87 13 190 -10 40 -10 59 4 125
22 102 21 185 -4 318 -45 240 10 352 229 467 50 26 112 67 138 91 l48 43 -22
30 -21 30 32 30 c18 16 56 44 85 63 63 39 82 64 82 106 0 39 23 60 79 73 85
19 92 65 19 132 -46 41 -215 130 -293 154 -93 27 -121 54 -187 174 -10 17 -39
42 -69 58 -70 38 -122 85 -155 141 -15 26 -37 54 -48 63 -16 13 -21 34 -27
120 -10 146 -26 188 -123 324 -35 49 -38 58 -28 80 31 67 1 102 -126 150 -63
23 -78 34 -116 83 -66 86 -92 108 -110 93 -8 -7 -24 -10 -36 -6 -16 5 -20 15
-20 45 0 47 -10 55 -54 40 -26 -8 -39 -8 -54 1 -20 13 -33 10 -68 -16 -18 -14
-24 -12 -74 20 -30 19 -61 35 -70 35 -23 0 -65 42 -156 155 -45 56 -107 120
-138 143 -66 50 -78 72 -100 177 -15 78 -17 82 -75 135 -33 30 -67 70 -76 87
-22 46 -50 61 -128 69 -57 6 -78 14 -128 47 -53 35 -62 39 -85 28 -53 -24 -90
-14 -141 36 -30 29 -66 53 -98 63 -48 16 -51 20 -80 87 -49 116 -70 127 -132
68 -20 -19 -40 -35 -44 -35 -21 0 -80 28 -119 56 -29 20 -60 34 -85 36 -35 3
-40 7 -45 33 -4 17 -24 62 -46 101 -30 56 -46 74 -71 83 -39 14 -48 40 -32 86
12 33 11 37 -14 63 -15 15 -27 35 -27 43 0 30 -31 59 -71 65 -32 5 -39 11 -39
29 0 56 -20 82 -90 119 -75 39 -105 70 -115 117 -4 16 -15 34 -25 39 -40 21
-121 7 -143 -24 -4 -6 -5 -41 -1 -77 l6 -66 -41 -6 c-35 -4 -53 -17 -129 -94
-99 -100 -178 -147 -267 -158 -60 -8 -109 6 -120 33 -3 9 0 37 6 64 12 43 11
53 -9 101 -30 72 -28 97 13 150 44 57 58 93 50 128 -8 35 -32 56 -113 99 -57
30 -68 40 -77 72 -6 22 -34 61 -72 101 -34 35 -65 77 -69 93 -10 43 -41 73
-113 107 -55 27 -66 36 -83 76 -22 53 -26 56 -94 76 -61 18 -70 27 -79 82 -7
46 -13 53 -61 68 -40 13 -159 118 -191 168 -21 34 -27 37 -68 37 -29 0 -45 4
-45 13 0 28 -50 115 -93 163 -35 39 -56 53 -84 59 -55 10 -80 29 -108 86 -33
63 -82 90 -121 65 -33 -22 -103 -20 -139 4 -37 25 -46 25 -76 1z"/>
</g>
</svg>
