<?xml version="1.0" standalone="no"?>
<!DOCTYPE svg PUBLIC "-//W3C//DTD SVG 20010904//EN"
 "http://www.w3.org/TR/2001/REC-SVG-20010904/DTD/svg10.dtd">
<svg version="1.0" xmlns="http://www.w3.org/2000/svg"
 width="1024.000000pt" height="768.000000pt" viewBox="0 0 1024.000000 768.000000"
 preserveAspectRatio="xMidYMid meet">
<metadata>
Created by potrace 1.16, written by Peter Selinger 2001-2019
</metadata>
<g transform="translate(0.000000,768.000000) scale(0.100000,-0.100000)"
fill="#000000" stroke="none">
<path d="M1550 6818 c-140 -43 -457 -140 -705 -214 -247 -75 -456 -140 -462
-146 -10 -8 -13 -290 -13 -1349 l0 -1338 33 -5 c17 -3 133 -15 257 -26 124
-11 248 -23 275 -26 l51 -6 37 48 c44 57 47 83 9 111 -26 19 -29 30 -41 124
-8 57 -16 118 -18 134 -5 32 12 55 75 103 17 12 43 42 59 67 32 52 30 51 179
64 100 9 117 14 157 41 53 35 62 55 53 115 -5 32 -3 47 9 59 20 20 25 20 61 1
16 -8 41 -15 56 -15 18 0 33 -9 45 -26 49 -72 94 -93 123 -59 14 17 7 57 -14
77 -7 8 -21 30 -31 48 -10 19 -34 54 -53 77 -28 35 -31 44 -18 49 8 3 37 -1
63 -10 65 -22 71 -21 109 21 l34 37 68 -66 c69 -69 120 -98 170 -98 23 0 35
-9 55 -39 40 -60 96 -110 131 -116 51 -10 180 -11 197 -2 11 6 26 0 48 -18 34
-29 40 -66 20 -124 -17 -49 -5 -74 57 -116 l57 -37 -30 -13 c-42 -18 -47 -40
-22 -102 20 -51 21 -55 5 -72 -14 -15 -16 -29 -11 -65 9 -60 32 -87 113 -136
37 -23 82 -52 101 -65 40 -29 77 -31 166 -9 95 24 184 13 232 -29 29 -26 45
-32 81 -32 40 0 48 4 82 44 l38 44 84 -59 c100 -72 148 -136 148 -198 1 -59
18 -128 39 -151 11 -11 28 -39 39 -61 12 -23 43 -60 69 -83 45 -40 48 -46 55
-109 26 -233 31 -244 146 -323 42 -29 105 -79 140 -110 35 -31 79 -65 98 -74
19 -9 57 -36 83 -60 27 -23 88 -62 135 -85 74 -36 90 -49 116 -91 16 -27 34
-49 39 -49 5 0 71 -45 147 -101 129 -93 141 -100 174 -94 33 6 39 3 68 -35 18
-22 52 -50 75 -61 23 -12 62 -39 87 -60 25 -21 70 -47 101 -58 31 -12 70 -37
89 -56 129 -133 360 -253 463 -241 42 5 52 2 73 -19 31 -31 50 -41 95 -49 23
-4 47 -19 68 -41 21 -24 48 -39 88 -51 80 -23 87 -30 63 -61 -25 -32 -37 -77
-46 -170 -6 -63 -4 -76 15 -106 21 -34 21 -34 1 -52 -29 -26 -25 -59 11 -89
25 -22 41 -26 90 -26 33 0 76 7 96 15 55 23 66 19 117 -40 67 -78 89 -87 173
-75 99 14 160 12 188 -6 17 -11 29 -13 43 -5 41 22 47 40 47 150 0 113 0 112
74 232 15 25 33 61 40 81 9 28 19 37 50 46 48 15 62 32 96 112 15 36 31 77 37
91 17 40 3 71 -65 145 -74 80 -87 101 -87 143 0 16 -4 41 -10 55 -14 38 -1
114 26 146 33 38 30 78 -9 136 -30 46 -36 49 -87 57 -34 5 -64 4 -78 -3 -39
-17 -51 -12 -62 29 -11 43 -24 56 -61 66 -14 3 -38 16 -53 28 l-28 22 18 32
c19 33 19 33 -23 113 -7 13 63 53 117 67 57 14 61 14 137 -13 60 -21 103 -28
185 -32 59 -2 118 -2 133 2 37 9 85 88 85 141 0 52 16 73 60 77 l35 3 0 59 c0
63 -2 61 73 92 43 18 57 40 50 82 -4 25 1 26 66 17 62 -8 101 14 92 51 -4 14
-1 42 5 64 10 33 9 44 -11 84 l-22 46 21 26 c11 14 23 45 27 70 3 24 10 47 15
50 5 3 35 -15 67 -40 61 -48 108 -60 132 -32 11 14 45 28 102 40 15 4 42 19
60 34 18 16 58 40 90 55 31 15 72 45 92 67 20 22 38 40 41 40 14 0 56 -60 76
-109 l23 -54 -26 -21 c-14 -12 -57 -47 -96 -79 -71 -57 -92 -82 -92 -110 0
-25 47 -65 89 -77 32 -8 42 -17 47 -38 11 -43 33 -70 62 -76 36 -8 147 16 200
43 23 12 68 24 101 27 55 6 64 4 127 -30 37 -21 75 -35 85 -33 10 3 33 -6 50
-19 42 -30 59 -30 95 1 16 14 46 30 66 36 36 9 38 12 38 48 0 33 7 45 45 80
24 22 49 41 54 41 6 0 26 -9 45 -21 20 -11 47 -19 63 -17 26 3 28 7 31 52 l3
48 32 -7 c18 -4 41 -9 52 -12 25 -6 102 49 114 80 6 16 30 31 80 51 113 44
141 79 111 136 -14 27 -71 43 -104 30 -20 -7 -34 -6 -56 5 -15 8 -50 19 -76
25 -31 7 -62 23 -84 44 -57 53 -107 79 -143 73 -28 -4 -34 -1 -47 27 -12 24
-24 33 -55 39 -78 17 -100 24 -99 33 1 5 4 21 8 35 4 19 -1 36 -19 60 -14 19
-41 58 -61 88 -33 49 -38 53 -67 47 -17 -4 -42 -13 -55 -22 -19 -13 -22 -21
-16 -42 14 -52 10 -67 -16 -70 -64 -7 -70 -11 -70 -47 0 -72 -35 -111 -71 -79
-12 11 -42 17 -101 19 -46 2 -99 11 -119 19 -36 15 -36 16 -31 64 4 44 1 51
-31 85 -40 43 -75 48 -114 17 l-26 -20 -21 22 c-12 13 -35 32 -50 43 l-27 20
93 97 c63 66 103 99 123 103 17 3 40 8 52 11 15 3 25 15 31 37 7 26 17 35 55
49 93 35 167 99 167 147 0 25 -78 90 -116 97 -30 5 -42 2 -79 -25 -24 -17 -55
-31 -70 -31 -27 0 -61 -28 -101 -85 l-21 -29 -32 27 c-18 15 -43 27 -55 27
-26 0 -69 -42 -93 -92 -21 -42 -91 -119 -153 -168 -35 -28 -55 -36 -106 -41
-59 -6 -66 -10 -147 -78 -47 -39 -89 -76 -92 -81 -3 -6 -22 -10 -41 -10 -20 0
-45 -5 -57 -12 -45 -24 -130 -104 -149 -142 -21 -41 -120 -176 -174 -238 -18
-20 -38 -55 -45 -78 -11 -37 -10 -46 10 -87 12 -25 21 -47 19 -48 -2 -2 -15
-6 -29 -10 -22 -5 -40 5 -112 62 -70 55 -86 72 -81 88 24 78 7 156 -36 170
-11 3 -20 10 -20 14 0 4 -13 22 -28 40 -25 31 -34 34 -88 37 -32 2 -115 8
-184 14 -69 5 -203 13 -297 16 l-173 6 -1 26 c-1 55 -45 451 -51 457 -3 3 -66
11 -139 18 l-134 12 -3 101 c-3 100 -2 101 24 119 l27 17 -7 227 c-5 165 -10
229 -20 239 -10 11 -22 9 -65 -7 -61 -24 -71 -26 -71 -8 0 7 -16 44 -35 83
-19 38 -35 79 -35 92 0 44 -39 98 -119 165 -68 57 -86 78 -116 142 -45 94 -81
125 -141 125 -25 0 -57 -6 -73 -14 -15 -8 -81 -32 -147 -54 l-119 -40 -125 14
c-419 45 -594 44 -722 -5 -15 -6 -72 -15 -126 -20 -55 -6 -135 -22 -178 -36
-44 -13 -100 -25 -126 -25 -46 0 -47 1 -141 103 -52 56 -147 163 -213 237 -65
74 -125 142 -133 150 -8 8 -29 37 -47 65 -60 93 -121 143 -344 282 -244 152
-654 410 -867 545 -111 70 -208 127 -215 127 -7 -1 -128 -37 -268 -81z"/>
</g>
</svg>
