<?xml version="1.0" standalone="no"?>
<!DOCTYPE svg PUBLIC "-//W3C//DTD SVG 20010904//EN"
 "http://www.w3.org/TR/2001/REC-SVG-20010904/DTD/svg10.dtd">
<svg version="1.0" xmlns="http://www.w3.org/2000/svg"
 width="1024.000000pt" height="1024.000000pt" viewBox="0 0 1024.000000 1024.000000"
 preserveAspectRatio="xMidYMid meet">
<metadata>
Created by potrace 1.16, written by Peter Selinger 2001-2019
</metadata>
<g transform="translate(0.000000,1024.000000) scale(0.100000,-0.100000)"
fill="#000000" stroke="none">
<path d="M3215 8995 c-6 -45 4 -75 27 -75 13 0 5 113 -8 117 -7 2 -14 -15 -19
-42z"/>
<path d="M3264 8875 c-9 -23 3 -45 25 -45 22 0 46 34 36 50 -10 16 -55 12 -61
-5z"/>
<path d="M3290 8763 c0 -4 7 -17 15 -27 17 -23 34 -13 19 11 -12 19 -34 29
-34 16z"/>
<path d="M3356 8681 c-9 -14 5 -42 18 -38 18 6 20 47 2 47 -8 0 -17 -4 -20 -9z"/>
<path d="M4031 8556 c-28 -33 27 -74 57 -44 17 17 15 31 -4 24 -13 -5 -14 -4
-6 7 7 8 9 17 5 20 -11 12 -40 8 -52 -7z"/>
<path d="M4272 8450 c0 -14 2 -19 5 -12 2 6 2 18 0 25 -3 6 -5 1 -5 -13z"/>
<path d="M4410 8388 c-24 -26 -26 -38 -5 -38 26 0 75 30 75 45 0 23 -46 18
-70 -7z"/>
<path d="M4175 8331 c-30 -13 -50 -41 -64 -89 -12 -41 -11 -45 14 -78 15 -20
33 -38 41 -41 8 -3 14 -15 14 -27 0 -11 4 -27 9 -35 15 -24 42 5 35 36 -4 13
-2 23 2 22 15 -4 68 13 89 27 19 14 19 14 -4 14 -21 0 -23 3 -18 35 7 40 -21
106 -55 129 -25 18 -34 19 -63 7z"/>
<path d="M4440 8185 c0 -8 7 -15 15 -15 8 0 15 7 15 15 0 8 -7 15 -15 15 -8 0
-15 -7 -15 -15z"/>
<path d="M4350 8150 c0 -5 5 -10 10 -10 6 0 10 5 10 10 0 6 -4 10 -10 10 -5 0
-10 -4 -10 -10z"/>
<path d="M4211 7777 c-41 -16 -49 -34 -47 -107 l1 -55 60 -8 c66 -9 105 2 105
30 0 10 7 27 15 37 19 24 19 66 2 90 -17 23 -90 30 -136 13z m89 -83 c0 -23
-21 -27 -27 -5 -3 12 -10 21 -17 21 -6 0 -4 4 4 10 16 10 40 -5 40 -26z"/>
<path d="M4810 7494 c0 -9 7 -14 17 -12 25 5 28 28 4 28 -12 0 -21 -6 -21 -16z"/>
<path d="M3257 7312 c-10 -10 -17 -26 -17 -35 0 -9 -4 -18 -8 -21 -9 -5 -15
-79 -14 -147 1 -19 8 -49 17 -65 8 -16 15 -34 15 -41 0 -6 6 -24 14 -40 14
-29 33 -96 46 -168 4 -22 16 -61 28 -86 13 -30 17 -51 11 -60 -5 -8 -9 -32
-10 -54 0 -22 -4 -49 -8 -60 -9 -20 5 -54 42 -104 9 -13 17 -32 17 -42 0 -9
18 -37 40 -60 34 -37 39 -48 34 -75 -5 -27 -2 -32 25 -43 34 -15 51 -8 51 20
0 14 7 19 30 19 23 0 30 4 30 20 0 21 2 22 93 25 31 1 57 -2 57 -7 0 -4 14 -8
31 -8 29 0 79 37 79 59 0 15 46 32 80 29 26 -2 35 1 38 15 2 9 -2 17 -10 17
-7 0 -18 12 -24 28 -31 75 -38 98 -36 109 1 6 -2 14 -8 18 -16 10 -12 28 5 21
28 -10 16 33 -15 56 -25 18 -27 24 -15 30 16 10 12 53 -11 105 -11 24 -19 30
-34 26 -14 -4 -20 0 -20 11 0 9 -4 16 -9 16 -4 0 -12 28 -15 61 -4 34 -13 70
-19 81 -10 16 -9 22 6 32 16 12 15 14 -15 19 -20 3 -42 -1 -55 -9 -20 -12 -22
-21 -19 -79 2 -36 6 -68 9 -71 8 -8 -15 -53 -43 -81 -15 -17 -32 -23 -63 -23
-63 0 -79 16 -85 86 -2 32 -9 65 -15 72 -5 7 -12 45 -14 85 -2 39 -11 82 -19
94 -8 12 -14 31 -14 43 0 11 -4 20 -9 20 -14 0 -55 41 -69 70 -32 62 -67 110
-82 110 -4 0 -14 -8 -23 -18z"/>
<path d="M4825 7033 c5 -10 14 -58 22 -108 7 -49 21 -108 29 -130 9 -22 18
-78 20 -125 6 -125 14 -155 44 -155 l25 0 -2 114 c-1 63 -6 117 -10 120 -9 7
-33 83 -38 121 -3 30 -22 103 -38 148 -8 24 -17 32 -35 32 -19 0 -23 -4 -17
-17z"/>
<path d="M3830 6990 c0 -6 7 -13 15 -17 24 -9 27 1 5 15 -13 8 -20 8 -20 2z"/>
<path d="M4645 6607 c-85 -31 -215 -120 -215 -146 0 -27 31 -38 111 -40 l75
-2 47 50 c26 28 47 57 47 65 0 8 11 28 25 44 14 17 25 35 25 41 0 17 -49 12
-115 -12z"/>
<path d="M3960 6473 c0 -4 5 -15 10 -23 8 -13 10 -13 10 2 0 9 -4 20 -10 23
-5 3 -10 3 -10 -2z"/>
<path d="M4919 6413 c-1 -10 -1 -33 0 -50 2 -18 -2 -33 -8 -33 -6 0 -11 -17
-11 -38 0 -20 -4 -51 -9 -68 -9 -34 10 -114 35 -144 6 -8 15 -39 18 -67 3 -29
9 -77 12 -105 7 -59 18 -78 44 -78 48 0 61 118 26 230 -45 144 -55 189 -56
248 0 37 -4 54 -15 58 -9 4 -15 19 -15 35 0 31 -19 41 -21 12z"/>
<path d="M3868 6318 c-15 -16 -25 -34 -22 -39 3 -5 25 -9 50 -9 47 0 54 11 29
44 -8 10 -12 23 -9 27 14 23 -24 5 -48 -23z"/>
<path d="M3992 6320 c-7 -12 -8 -21 -2 -25 13 -8 30 3 30 20 0 23 -15 25 -28
5z"/>
<path d="M3838 6238 c-16 -5 -28 -14 -28 -19 0 -17 91 -99 117 -105 34 -9 48
9 50 66 1 44 -1 51 -20 54 -59 12 -94 13 -119 4z"/>
<path d="M3928 5959 c-14 -7 -18 -23 -18 -63 0 -30 -6 -72 -14 -94 -20 -56 3
-105 57 -121 35 -11 40 -10 68 13 39 33 44 33 59 -4 7 -17 21 -35 30 -40 15
-8 17 -22 13 -108 -3 -81 -1 -101 11 -112 9 -7 16 -23 16 -35 0 -12 7 -28 15
-35 19 -16 19 -44 0 -60 -13 -11 -11 -16 12 -44 14 -17 29 -31 32 -31 3 0 11
-4 18 -8 6 -4 15 -3 18 3 5 8 11 8 20 0 10 -8 14 -7 17 7 2 10 12 18 23 18 14
0 19 6 18 19 -1 11 4 24 11 31 18 18 107 3 141 -23 35 -28 38 -28 53 6 7 16
23 35 37 42 29 15 32 32 9 51 -14 11 -19 9 -36 -11 -16 -21 -19 -21 -13 -5 15
43 16 53 7 86 -5 19 -14 33 -21 31 -6 -1 -30 9 -52 24 -33 21 -38 28 -29 40
10 12 8 14 -15 14 -17 0 -36 11 -53 30 -15 17 -31 30 -38 30 -6 0 -16 11 -24
24 -7 14 -23 27 -36 30 -15 4 -24 14 -24 25 0 10 -6 24 -14 30 -12 10 -13 8
-8 -11 5 -22 4 -22 -30 7 -20 17 -37 36 -37 43 -1 6 -5 12 -11 12 -5 0 -7 12
-4 28 5 22 -1 33 -30 60 -20 18 -36 40 -36 50 0 11 -19 25 -50 40 -55 24 -67
26 -92 11z"/>
<path d="M4897 5723 c-4 -3 -7 -14 -7 -22 0 -22 -57 -71 -83 -71 -17 0 -124
-29 -135 -36 -8 -5 10 -44 20 -44 6 0 23 -13 38 -29 15 -16 50 -36 76 -46 27
-9 57 -21 67 -26 10 -6 32 -7 49 -4 16 4 54 8 84 9 70 3 94 23 74 62 -8 14
-31 34 -50 44 -37 19 -36 15 -76 158 -4 13 -46 17 -57 5z"/>
<path d="M4995 5333 c-12 -29 -13 -38 -3 -44 20 -12 38 11 38 47 0 45 -16 43
-35 -3z"/>
<path d="M5094 5296 c-8 -21 3 -36 27 -36 15 0 20 6 17 22 -4 27 -35 37 -44
14z"/>
<path d="M4930 5196 c0 -13 -6 -29 -14 -35 -23 -19 -27 -80 -8 -109 9 -14 16
-33 14 -42 -4 -24 27 -46 74 -54 33 -5 47 -2 67 14 34 27 54 25 121 -11 31
-17 60 -28 63 -25 14 14 9 47 -9 63 -16 15 -22 15 -40 4 -18 -11 -25 -10 -47
6 -14 11 -36 35 -49 54 -14 20 -32 34 -45 35 -40 1 -45 4 -56 34 -6 17 -16 44
-22 60 -14 38 -49 42 -49 6z"/>
<path d="M5322 4888 c-15 -15 -16 -68 -2 -68 6 0 22 12 36 27 24 26 24 28 8
40 -22 16 -27 16 -42 1z"/>
<path d="M5400 4750 c0 -5 5 -10 10 -10 6 0 10 5 10 10 0 6 -4 10 -10 10 -5 0
-10 -4 -10 -10z"/>
<path d="M5133 4691 c-13 -11 -23 -24 -23 -30 0 -14 27 -14 35 0 4 5 18 14 31
19 13 5 24 14 24 20 0 17 -43 11 -67 -9z"/>
<path d="M5085 4290 c-9 -15 22 -60 40 -60 19 0 19 4 0 40 -16 31 -29 37 -40
20z"/>
<path d="M5240 4224 c0 -17 22 -14 28 4 2 7 -3 12 -12 12 -9 0 -16 -7 -16 -16z"/>
<path d="M5160 4210 c0 -5 5 -10 10 -10 6 0 10 5 10 10 0 6 -4 10 -10 10 -5 0
-10 -4 -10 -10z"/>
<path d="M5008 4184 c-28 -15 -37 -34 -17 -34 6 0 19 5 30 10 25 14 26 -4 1
-22 -10 -7 -22 -25 -25 -39 -4 -15 -16 -29 -27 -32 -11 -3 -23 -13 -26 -24 -3
-10 -10 -26 -15 -36 -11 -20 -3 -57 11 -57 5 0 20 11 34 25 32 32 41 31 71 -1
32 -34 31 -40 -2 -52 l-28 -10 28 -1 c15 -1 27 -5 27 -10 0 -5 9 -7 20 -4 12
3 20 0 20 -7 0 -7 7 -10 15 -6 10 4 15 -1 15 -16 0 -18 4 -20 38 -14 20 4 51
9 67 10 56 5 85 23 85 53 0 16 7 37 15 47 21 28 19 46 -6 46 -23 0 -52 30 -73
75 -31 67 -101 117 -121 85 -3 -5 -17 -10 -31 -10 -13 0 -24 5 -24 10 0 6 -9
10 -20 10 -11 0 -20 5 -20 10 0 13 -10 12 -42 -6z"/>
<path d="M4950 4102 c0 -5 7 -13 16 -16 10 -4 14 -1 12 6 -5 15 -28 23 -28 10z"/>
<path d="M5785 2943 c-18 -20 -24 -35 -20 -51 3 -12 1 -31 -5 -41 -7 -15 -6
-27 7 -49 15 -27 16 -33 3 -57 -16 -30 -5 -58 26 -63 10 -2 28 -12 39 -22 11
-11 40 -24 65 -29 63 -15 119 -36 132 -49 17 -17 32 -15 63 9 22 18 26 28 21
50 -9 46 -34 76 -80 98 -65 30 -73 71 -15 71 16 0 29 4 29 9 0 17 -30 33 -52
28 -33 -9 -46 4 -51 48 -6 51 -36 75 -93 75 -34 0 -48 -6 -69 -27z"/>
<path d="M6376 2291 c-4 -7 -5 -15 -2 -18 9 -9 19 4 14 18 -4 11 -6 11 -12 0z"/>
<path d="M6075 2210 c-4 -6 -13 -9 -20 -6 -19 7 -35 -14 -35 -46 0 -16 -7 -40
-16 -54 -14 -21 -15 -31 -5 -65 7 -22 21 -48 32 -57 10 -9 19 -20 19 -25 0
-19 80 -84 118 -96 51 -17 72 -4 72 42 0 17 9 40 21 53 22 24 19 44 -8 44 -8
0 -24 11 -35 25 -11 14 -30 25 -43 25 -36 0 -50 26 -50 99 -1 59 -3 66 -22 69
-12 2 -24 -2 -28 -8z"/>
<path d="M7007 1993 c-22 -6 -17 -27 6 -31 12 -2 17 3 17 17 0 12 -1 20 -2 20
-2 -1 -11 -3 -21 -6z"/>
<path d="M6543 1315 c-27 -19 -31 -66 -7 -86 9 -8 37 -19 61 -25 36 -9 47 -9
59 3 37 38 25 96 -23 106 -15 4 -37 9 -48 12 -11 3 -30 -1 -42 -10z"/>
</g>
</svg>
