<?xml version="1.0" standalone="no"?>
<!DOCTYPE svg PUBLIC "-//W3C//DTD SVG 20010904//EN"
 "http://www.w3.org/TR/2001/REC-SVG-20010904/DTD/svg10.dtd">
<svg version="1.0" xmlns="http://www.w3.org/2000/svg"
 width="1024.000000pt" height="717.000000pt" viewBox="0 0 1024.000000 717.000000"
 preserveAspectRatio="xMidYMid meet">
<metadata>
Created by potrace 1.16, written by Peter Selinger 2001-2019
</metadata>
<g transform="translate(0.000000,717.000000) scale(0.100000,-0.100000)"
fill="#000000" stroke="none">
<path d="M3237 6725 c-15 -14 -33 -25 -40 -25 -7 0 -27 -29 -46 -64 -33 -63
-34 -65 -17 -90 9 -14 21 -26 26 -26 14 0 12 -54 -2 -68 -9 -9 -6 -14 13 -21
13 -5 27 -7 31 -4 4 2 46 12 93 23 l86 18 20 -31 c27 -44 25 -83 -5 -102 -24
-16 -28 -15 -92 24 -37 23 -71 41 -76 41 -17 0 -7 -22 12 -27 28 -7 26 -35 -2
-31 -17 2 -26 -4 -35 -23 -8 -21 -20 -28 -50 -32 -43 -5 -136 -38 -141 -49 -2
-5 -18 -8 -35 -8 -73 0 -163 -28 -237 -74 -75 -47 -164 -81 -182 -70 -17 11
-78 -6 -78 -21 0 -8 7 -15 15 -15 10 0 15 -10 15 -30 0 -26 -4 -30 -28 -30
l-28 0 4 -72 c3 -51 10 -80 23 -97 11 -13 19 -31 19 -40 0 -26 54 -131 68
-131 16 0 52 -59 52 -84 0 -11 18 -34 40 -53 28 -25 40 -42 40 -62 0 -15 4
-31 9 -36 6 -6 6 -29 0 -60 -5 -27 -8 -79 -7 -114 2 -49 -1 -66 -11 -69 -8 -3
-23 -14 -33 -26 -62 -73 -88 -96 -110 -96 -12 -1 -34 -7 -48 -15 -44 -25 -146
-14 -154 17 -2 7 -8 29 -14 48 -8 22 -8 38 -2 44 18 18 10 51 -17 70 -21 16
-29 17 -45 7 -25 -16 -34 -8 -13 12 23 24 18 30 -20 24 -35 -6 -48 6 -19 17
25 10 7 65 -37 113 -45 50 -47 62 -15 92 13 12 29 43 36 67 9 33 21 49 42 60
16 8 36 31 45 52 27 63 29 66 74 101 56 42 58 47 66 125 5 58 4 65 -15 75 -28
15 -42 42 -51 102 -7 40 -5 49 6 49 8 0 17 -9 20 -19 6 -24 34 -32 56 -16 18
13 13 25 -11 25 -8 0 -27 11 -44 25 -16 14 -36 25 -43 25 -19 0 -83 106 -101
167 -24 83 -18 104 39 125 27 10 91 25 144 33 107 18 127 27 144 68 16 37 7
43 -28 18 -16 -12 -53 -25 -83 -30 -30 -5 -77 -19 -103 -30 -27 -12 -58 -21
-70 -21 -55 0 -65 -11 -139 -146 -68 -125 -75 -134 -103 -134 -78 0 -125 -33
-125 -86 0 -9 -20 -35 -45 -59 -24 -24 -47 -56 -51 -72 -8 -35 -43 -96 -83
-147 -26 -32 -31 -48 -31 -91 0 -28 -9 -87 -20 -130 -22 -86 -25 -132 -10
-137 5 -1 -4 -23 -21 -48 -16 -25 -36 -59 -44 -77 -7 -17 -23 -36 -34 -43 -12
-6 -21 -16 -21 -22 0 -5 -13 -26 -30 -45 -16 -18 -30 -44 -30 -56 0 -27 -10
-41 -32 -50 -10 -3 -18 -13 -18 -22 0 -34 150 1 173 41 18 30 36 14 43 -37 7
-56 25 -71 53 -45 41 37 49 23 86 -144 l28 -125 79 -79 c65 -65 78 -83 74
-102 -4 -14 2 -39 14 -61 22 -44 17 -83 -11 -83 -11 0 -19 -6 -19 -14 0 -8 -8
-21 -18 -28 -15 -11 -17 -30 -17 -139 1 -158 5 -167 93 -176 65 -6 89 -24 76
-57 -3 -8 6 -40 20 -71 21 -46 33 -59 68 -75 53 -24 77 -25 122 -3 31 14 44
15 99 5 36 -7 85 -12 111 -12 44 0 83 -14 98 -35 4 -5 14 -2 25 8 14 12 29 15
55 10 30 -4 41 -1 60 19 26 28 122 52 150 37 9 -5 25 -9 36 -9 10 0 27 -9 37
-20 10 -11 24 -20 32 -20 8 0 32 -10 53 -22 38 -22 40 -22 69 -5 16 9 36 17
44 17 9 0 100 -106 204 -235 184 -229 189 -234 220 -229 23 4 36 1 52 -15 29
-29 37 -27 80 16 22 23 45 36 61 36 37 -1 145 -20 185 -33 28 -9 39 -9 51 1 9
7 49 13 102 14 49 0 97 7 111 14 16 9 41 11 78 6 53 -6 57 -5 88 25 l33 32 72
-12 c74 -13 110 -34 110 -67 0 -10 11 -36 24 -58 l24 -39 -44 -39 c-75 -66
-102 -141 -69 -191 15 -22 14 -25 -25 -60 -22 -20 -46 -36 -53 -36 -6 0 -21
-12 -31 -27 -16 -21 -17 -29 -7 -45 8 -13 10 -35 6 -58 -4 -21 -2 -40 3 -44 5
-3 6 -26 1 -53 -4 -26 -8 -74 -8 -106 -1 -32 -6 -79 -12 -104 -8 -29 -8 -47
-2 -52 23 -14 33 -54 31 -117 -3 -60 -1 -68 20 -81 12 -9 22 -24 22 -34 0 -10
5 -21 10 -24 6 -3 10 -16 10 -27 0 -11 10 -47 23 -79 19 -51 26 -58 52 -61 26
-3 34 -12 65 -75 24 -50 41 -73 53 -73 10 0 20 -7 23 -15 7 -18 -40 -90 -63
-100 -9 -3 -67 -52 -129 -108 -80 -73 -112 -109 -113 -126 -1 -20 1 -21 14
-11 10 8 28 10 52 6 64 -12 73 -16 73 -40 0 -24 17 -46 36 -46 16 0 104 -84
104 -98 0 -7 15 -18 33 -25 48 -21 63 -42 47 -71 -16 -31 -5 -82 22 -100 16
-12 19 -21 15 -46 -5 -22 0 -44 18 -79 29 -54 84 -202 92 -246 3 -16 12 -35
19 -43 11 -10 11 -17 1 -33 -9 -14 -9 -24 -1 -37 6 -9 78 -74 160 -143 148
-124 151 -126 209 -132 45 -4 64 -2 76 8 8 8 22 15 30 15 9 0 33 16 55 35 85
76 170 97 212 52 29 -30 28 -60 -3 -93 -48 -51 10 -90 60 -39 14 13 25 33 25
44 0 11 11 33 25 49 19 22 31 28 50 24 34 -6 55 14 55 53 0 53 9 65 45 65 18
0 38 7 45 15 6 8 32 26 56 40 35 21 48 24 64 15 29 -16 106 30 113 68 4 19 18
35 45 50 57 32 65 29 57 -18 -6 -33 -4 -40 9 -40 9 0 19 7 23 17 6 15 36 44
108 105 26 23 30 33 36 104 8 96 24 114 103 114 43 0 57 5 76 25 13 14 28 25
33 25 5 0 21 9 37 20 15 10 46 22 69 26 31 5 41 11 41 25 0 11 5 27 11 38 7
10 9 32 5 54 l-7 35 -73 7 c-41 4 -101 4 -134 0 -45 -5 -67 -3 -89 9 -17 8
-40 12 -51 9 -17 -4 -22 -1 -22 15 0 12 4 24 10 27 5 3 14 24 20 46 10 35 8
47 -16 99 -14 32 -35 67 -45 76 -11 9 -19 23 -19 29 0 7 -10 25 -22 41 -19 23
-22 39 -20 80 2 30 -1 55 -7 58 -17 11 -14 73 4 80 22 8 19 59 -5 89 -11 14
-47 42 -79 61 -32 20 -75 54 -95 76 -20 22 -40 40 -45 40 -9 0 -26 38 -37 82
-4 18 -16 30 -36 37 -23 8 -29 16 -26 33 2 14 11 24 24 26 27 4 84 -44 84 -70
0 -20 4 -20 58 -13 85 12 155 9 190 -9 25 -13 35 -28 47 -71 18 -62 29 -66 82
-34 29 18 39 20 59 10 17 -8 31 -8 44 -1 29 15 44 12 76 -15 36 -32 78 -30 82
3 2 13 10 26 17 29 16 5 95 -36 95 -49 0 -5 22 -29 48 -53 27 -25 54 -56 61
-69 8 -13 28 -32 46 -42 31 -17 34 -17 66 2 19 11 41 32 49 47 13 24 13 31 -2
75 -21 58 -14 118 15 133 11 6 34 9 52 6 28 -5 34 -2 39 16 6 24 56 57 86 57
10 0 34 -9 52 -19 59 -34 91 -35 127 -5 28 23 35 25 57 15 32 -14 72 -4 79 21
9 26 48 39 96 32 47 -8 69 7 69 45 0 37 17 51 61 51 37 0 66 21 54 40 -10 16
24 24 52 11 34 -16 110 -4 134 20 11 11 19 32 19 48 0 27 7 33 65 61 48 23 73
42 92 71 l27 40 -23 70 c-18 58 -26 69 -44 69 -15 0 -45 26 -94 83 -39 45
-119 136 -176 201 l-105 119 74 74 c76 76 87 101 60 136 -7 9 -11 28 -9 41 3
14 -2 39 -11 57 -20 40 -20 68 0 97 12 18 25 22 67 22 41 0 57 5 70 21 16 18
25 20 76 14 55 -6 58 -5 69 20 7 14 17 23 22 20 15 -9 103 49 140 92 37 41 36
60 -5 84 -41 24 -63 23 -84 -3 l-18 -21 -22 22 c-18 18 -21 29 -16 60 5 32 1
45 -28 88 l-34 50 34 36 c18 21 33 47 33 61 0 31 43 66 82 66 22 0 47 15 97
60 38 33 81 62 98 66 23 4 35 16 51 49 16 32 27 44 51 48 48 10 42 35 -39 144
-22 30 -114 75 -165 81 -50 5 -95 -3 -95 -19 0 -23 -26 -35 -72 -31 -27 2 -48
8 -48 13 0 11 -150 12 -166 1 -6 -4 -15 -17 -18 -30 -7 -20 -13 -23 -58 -21
-45 2 -53 0 -70 -24 -23 -32 -43 -34 -58 -8 -6 12 -33 26 -67 36 -32 8 -73 22
-91 30 -18 8 -51 15 -72 15 -23 0 -40 5 -40 11 0 9 22 10 78 5 95 -9 243 -13
260 -8 6 2 12 18 12 36 0 17 9 49 20 71 11 22 20 52 20 68 0 19 9 36 28 52 15
12 32 37 39 54 13 34 6 34 -34 -2 -13 -11 -23 -16 -23 -10 0 14 37 45 103 87
37 23 57 42 57 55 0 26 -53 81 -79 81 -12 0 -21 6 -21 14 0 20 -11 26 -76 36
-39 6 -66 18 -89 39 -19 16 -43 32 -54 36 -12 3 -21 10 -21 15 0 12 -98 80
-116 80 -13 0 -11 -5 6 -27 22 -28 22 -28 2 -31 -12 -2 -30 2 -41 7 -11 6 -35
11 -53 11 -34 0 -58 13 -121 63 -43 34 -107 48 -107 23 0 -9 -11 -21 -24 -27
-30 -14 -76 -4 -76 16 0 8 -9 23 -20 32 -11 10 -20 26 -20 36 0 20 -51 77 -70
77 -6 0 -10 -15 -8 -35 1 -19 -1 -37 -5 -41 -4 -4 -7 2 -7 14 0 12 -4 22 -10
22 -5 0 -10 14 -10 31 0 22 -10 40 -35 65 -20 19 -40 34 -45 34 -6 0 -10 15
-10 34 0 45 9 48 160 44 117 -3 123 -2 137 20 13 18 25 22 67 22 66 0 118 15
141 40 10 11 16 22 14 24 -2 2 -47 -3 -99 -11 -88 -14 -103 -14 -200 3 -161
27 -174 27 -210 9 -35 -18 -159 -24 -193 -10 -12 5 -28 1 -46 -13 -17 -12 -37
-18 -52 -15 -14 3 -43 -2 -64 -11 -47 -20 -82 -20 -140 -1 -41 14 -47 14 -61
1 -12 -12 -38 -15 -120 -14 -57 1 -106 -1 -109 -4 -11 -11 7 -59 21 -54 7 3
14 0 17 -7 2 -7 17 -3 42 13 35 22 42 23 95 12 31 -7 65 -12 76 -12 10 0 30
-9 44 -20 l25 -20 -26 0 c-15 0 -32 -7 -39 -14 -7 -10 -19 -12 -33 -8 -26 9
-168 7 -215 -3 -18 -4 -37 -16 -43 -26 -5 -11 -14 -17 -18 -14 -11 6 -34 -22
-27 -33 7 -12 -38 -32 -74 -32 -45 0 -77 -16 -84 -43 -6 -27 -30 -37 -93 -37
-23 0 -45 -4 -48 -10 -9 -15 -63 -12 -89 5 -12 8 -51 18 -87 21 -35 3 -100 17
-144 31 -44 15 -93 27 -110 29 -44 3 -85 22 -85 37 0 8 -18 27 -41 42 -50 35
-65 61 -48 81 14 18 16 16 -44 43 -37 16 -53 18 -68 10 -11 -6 -66 -9 -122 -8
-122 2 -316 -14 -345 -30 -11 -6 -51 -11 -89 -11 -37 0 -93 -7 -123 -15 -30
-8 -76 -15 -102 -15 -26 0 -49 -4 -52 -9 -3 -4 -16 -6 -30 -4 -13 3 -33 0 -45
-6 -49 -27 -139 50 -166 143 -19 63 -19 63 5 71 28 9 25 22 -7 33 -19 7 -22
11 -10 11 21 1 22 1 -18 80 -16 33 -35 60 -42 61 -7 0 -24 11 -39 25 -15 14
-32 25 -39 25 -7 0 -20 9 -30 20 -10 11 -26 20 -36 20 -10 0 -31 14 -47 30
-27 27 -37 30 -90 30 -32 0 -62 3 -66 7 -10 11 -79 33 -103 33 -12 0 -25 -5
-29 -11 -4 -7 -25 -9 -59 -4 -37 4 -60 2 -74 -7 -44 -27 -88 36 -115 165 -29
137 -34 151 -70 190 -39 43 -60 46 -99 12z"/>
</g>
</svg>
