<?xml version="1.0" standalone="no"?>
<!DOCTYPE svg PUBLIC "-//W3C//DTD SVG 20010904//EN"
 "http://www.w3.org/TR/2001/REC-SVG-20010904/DTD/svg10.dtd">
<svg version="1.0" xmlns="http://www.w3.org/2000/svg"
 width="1024.000000pt" height="1024.000000pt" viewBox="0 0 1024.000000 1024.000000"
 preserveAspectRatio="xMidYMid meet">
<metadata>
Created by potrace 1.16, written by Peter Selinger 2001-2019
</metadata>
<g transform="translate(0.000000,1024.000000) scale(0.100000,-0.100000)"
fill="#000000" stroke="none">
<path d="M4798 9070 c-14 -24 -24 -30 -51 -30 -19 0 -46 -9 -60 -20 -14 -11
-34 -20 -45 -20 -32 0 -62 -57 -55 -106 7 -57 -21 -84 -90 -84 -41 0 -55 -5
-84 -30 -18 -16 -41 -30 -49 -30 -27 0 -54 20 -54 40 0 25 -47 27 -89 5 -34
-17 -41 -33 -41 -86 0 -22 -5 -49 -10 -60 -14 -25 -40 -25 -40 0 0 20 -87 104
-127 123 -30 15 -53 -5 -53 -44 0 -39 -30 -35 -43 7 -23 73 -75 88 -96 29 -7
-19 -23 -40 -36 -46 -14 -6 -25 -21 -27 -36 -2 -14 -15 -34 -30 -45 -23 -17
-31 -18 -57 -8 -18 8 -34 24 -40 42 -5 16 -18 32 -28 36 -10 3 -29 15 -42 25
-13 10 -34 18 -46 18 -12 0 -34 11 -49 25 -32 30 -43 31 -51 6 -3 -11 -12 -22
-20 -25 -8 -3 -15 -14 -15 -24 0 -11 -7 -25 -15 -32 -8 -7 -15 -19 -15 -26 0
-8 -5 -14 -11 -14 -6 0 -20 -11 -31 -25 -11 -14 -29 -25 -40 -25 -17 0 -19 -4
-14 -26 10 -37 30 -61 103 -122 39 -33 63 -61 63 -73 0 -34 19 -59 45 -59 27
0 37 -22 35 -78 -1 -20 -2 -43 -1 -49 1 -16 73 -17 88 -2 6 6 28 9 49 7 55 -4
59 -37 11 -81 -39 -35 -50 -61 -28 -62 25 0 23 -21 -5 -55 -26 -30 -26 -33
-10 -42 10 -6 25 -26 33 -47 8 -20 28 -54 43 -76 15 -22 35 -52 44 -67 12 -20
25 -28 44 -28 16 0 37 -7 48 -15 10 -8 35 -15 55 -15 23 0 39 -6 43 -15 3 -8
17 -15 30 -15 16 0 32 -9 42 -25 21 -32 52 -32 64 -1 5 13 13 25 18 27 5 2 15
18 23 34 12 24 22 31 56 36 23 3 51 13 61 22 24 22 74 22 94 0 16 -18 58 -59
109 -108 14 -13 38 -29 53 -34 14 -6 26 -15 26 -21 0 -15 -50 -60 -66 -60 -7
0 -24 -4 -39 -10 -22 -9 -24 -13 -15 -31 10 -18 17 -20 60 -14 42 6 49 4 54
-13 4 -11 14 -23 22 -26 12 -4 14 -14 9 -36 -6 -26 -3 -30 19 -36 14 -3 33 -4
41 0 25 9 45 -4 65 -45 25 -48 25 -59 1 -59 -43 0 -91 -66 -61 -85 20 -13 9
-36 -20 -42 -34 -6 -70 -45 -70 -74 0 -24 -5 -24 -76 5 -64 26 -88 30 -176 28
-53 -2 -58 -4 -58 -25 0 -12 8 -33 17 -47 12 -17 13 -25 5 -28 -7 -2 -12 -12
-12 -22 0 -11 -14 -25 -37 -37 -65 -31 -53 -77 24 -91 46 -8 124 -54 169 -99
20 -20 43 -33 58 -33 19 0 33 -11 53 -41 31 -47 68 -69 118 -69 20 0 48 -8 62
-17 15 -10 45 -22 66 -28 55 -14 68 -37 39 -68 -27 -29 -28 -68 -2 -92 11 -10
20 -22 20 -26 0 -10 45 -59 54 -59 4 0 18 -12 31 -27 23 -28 23 -28 45 -8 24
22 24 22 66 -59 18 -34 24 -58 20 -77 -4 -21 -1 -31 13 -38 10 -6 21 -23 24
-38 6 -29 26 -52 85 -100 19 -14 52 -50 73 -80 28 -37 47 -53 62 -53 16 0 26
-9 34 -30 12 -32 39 -40 61 -18 9 9 12 6 12 -14 0 -14 9 -37 20 -51 11 -14 20
-34 20 -44 0 -28 20 -43 56 -43 l33 0 -2 -92 -2 -93 32 -14 c28 -12 32 -20 35
-55 2 -33 7 -42 25 -44 12 -2 31 6 42 17 l21 21 6 -24 c3 -13 16 -28 30 -35
13 -6 24 -16 24 -23 0 -8 14 -13 37 -13 36 0 38 -2 41 -33 2 -20 10 -35 20
-39 9 -3 34 -22 54 -41 23 -22 42 -32 52 -29 25 10 49 -3 35 -19 -6 -7 -8 -17
-5 -23 5 -8 -90 -51 -113 -51 -5 0 -15 -7 -22 -16 -11 -14 -10 -20 14 -40 15
-13 27 -32 27 -43 0 -24 78 -100 102 -101 10 0 22 -9 28 -20 6 -11 17 -20 25
-20 18 0 55 -57 55 -85 0 -21 -20 -82 -33 -102 -5 -7 -19 -13 -32 -13 -13 0
-27 -4 -30 -10 -8 -13 13 -50 28 -50 33 -1 39 -17 19 -54 -14 -26 -18 -48 -15
-80 7 -59 -12 -112 -45 -129 -23 -11 -27 -19 -27 -58 0 -25 -6 -57 -14 -72
-20 -37 2 -115 33 -119 18 -3 21 -11 24 -53 2 -28 10 -58 20 -68 9 -10 21 -32
28 -50 6 -18 15 -40 18 -49 6 -13 1 -17 -26 -20 -25 -2 -34 -8 -36 -25 -3 -19
2 -22 40 -25 51 -4 52 -10 8 -109 -41 -91 -47 -145 -20 -188 15 -24 22 -55 25
-112 3 -48 1 -79 -5 -79 -6 0 -10 -18 -10 -40 0 -31 -7 -47 -27 -67 l-26 -27
-15 22 c-23 35 -63 28 -122 -20 -139 -114 -133 -111 -146 -93 -20 27 -57 15
-74 -24 l-15 -33 -68 5 c-52 3 -72 1 -83 -10 -11 -12 -12 -18 -3 -29 8 -10 8
-26 -2 -64 -12 -47 -15 -50 -45 -50 -19 0 -34 6 -38 15 -3 10 -19 15 -44 15
-21 0 -47 7 -58 15 -28 21 -44 18 -44 -9 0 -41 -9 -53 -36 -48 -26 5 -64 -21
-64 -44 0 -7 9 -18 20 -24 24 -13 36 -70 20 -101 -11 -19 -9 -29 11 -66 14
-25 31 -43 41 -43 9 0 26 -14 38 -30 13 -19 30 -30 45 -30 27 0 42 -28 19 -37
-13 -5 -15 -15 -10 -54 8 -58 -1 -61 -45 -18 -24 23 -37 29 -55 25 -20 -5 -24
-2 -24 14 0 34 -64 56 -115 40 -22 -6 -62 -15 -90 -19 -27 -4 -62 -15 -77 -24
-17 -12 -28 -14 -33 -8 -3 6 -25 11 -49 11 -23 0 -47 5 -54 12 -10 10 -17 8
-34 -9 -21 -22 -21 -23 -3 -62 21 -48 15 -71 -19 -71 -18 0 -30 -9 -41 -29
-27 -54 -37 -58 -117 -53 -72 4 -73 4 -96 -27 -12 -17 -31 -31 -42 -31 -35 0
-25 -45 15 -69 20 -11 45 -36 56 -56 12 -19 23 -35 26 -35 3 0 12 9 21 21 22
26 45 17 73 -27 17 -27 27 -34 53 -34 21 0 40 -8 55 -24 l22 -24 -41 -33 c-60
-49 -81 -97 -92 -209 -22 -226 -25 -276 -16 -293 6 -12 6 -29 -2 -47 -6 -15
-10 -39 -8 -52 2 -19 8 -23 36 -22 17 1 32 -2 32 -7 0 -5 -4 -9 -10 -9 -10 0
-90 -75 -90 -84 0 -3 20 -8 44 -11 64 -10 153 13 196 50 19 17 47 36 62 42 17
8 28 22 33 45 9 40 21 61 62 114 35 45 58 57 143 74 30 6 82 26 115 44 33 18
77 39 98 45 37 12 46 24 27 36 -6 4 -4 15 5 29 8 12 12 26 8 31 -5 4 2 4 15 0
17 -5 27 -2 36 10 11 15 13 15 25 1 35 -42 131 15 131 78 0 7 -9 21 -20 31
-28 25 -21 39 20 39 44 1 61 27 36 55 -11 12 -14 21 -8 21 7 0 12 9 12 19 0
14 8 21 28 23 22 2 29 10 37 42 8 35 7 41 -13 54 l-23 15 23 11 c18 9 23 20
22 48 -1 35 -1 36 30 27 49 -14 56 -11 56 21 0 17 4 30 8 30 18 0 31 -25 25
-50 -4 -22 -1 -28 18 -33 12 -3 35 1 50 9 15 7 37 14 47 14 10 0 27 9 37 20
11 12 31 20 50 20 21 0 47 12 76 34 73 57 160 99 204 100 39 1 40 2 55 48 14
46 17 48 53 48 30 0 37 4 37 20 0 16 7 20 34 20 24 0 35 5 39 18 2 11 17 22
35 25 19 4 38 17 48 34 26 41 44 53 80 53 25 0 34 5 40 23 15 50 76 79 90 42
4 -8 12 -15 19 -15 26 0 44 36 47 95 3 57 4 60 31 63 19 2 31 11 38 29 5 15
17 31 25 38 12 8 13 16 6 35 -6 14 -13 33 -16 44 -5 15 -9 16 -21 6 -24 -20
-30 -4 -11 26 17 24 18 25 31 8 10 -15 16 -16 28 -6 16 14 13 43 -9 77 -7 11
-15 43 -19 71 -6 46 -5 52 14 57 26 6 19 30 -12 45 -12 6 -16 11 -9 11 7 1 21
-3 31 -9 13 -6 24 -5 36 4 16 12 16 15 2 43 -9 17 -28 45 -43 62 -29 35 -27
52 10 76 30 20 54 11 35 -11 -10 -13 -7 -21 19 -47 30 -30 33 -30 49 -14 16
16 16 18 -5 44 -12 16 -28 39 -34 52 -11 21 -10 26 10 39 35 23 28 58 -22 108
-42 41 -44 46 -35 76 14 50 11 64 -16 94 -25 27 -32 44 -17 44 4 0 13 -5 20
-12 9 -9 13 -6 20 12 7 18 3 37 -14 75 -28 58 -31 105 -9 105 21 0 19 27 -9
117 -13 43 -27 97 -31 121 -4 26 -15 48 -28 57 -21 15 -34 65 -44 178 -2 31
-8 57 -13 57 -14 0 -70 91 -80 131 -8 27 -7 52 1 85 11 41 10 48 -4 56 -10 5
-17 15 -17 23 0 8 -5 26 -12 40 -10 22 -17 26 -41 22 -23 -3 -31 1 -37 18 -5
12 -17 25 -28 27 -30 8 -99 102 -124 170 -17 48 -28 63 -50 72 -32 12 -35 31
-12 64 13 19 13 22 0 22 -8 0 -21 3 -30 6 -11 4 -16 1 -16 -11 0 -9 -5 -13
-11 -9 -6 3 -8 17 -5 29 5 18 1 25 -16 31 -13 4 -40 22 -61 40 -41 38 -61 42
-75 18 -8 -14 -12 -13 -28 11 -46 65 -87 104 -215 206 -135 107 -149 122 -149
160 0 13 -14 26 -44 39 -98 47 -249 218 -301 344 -16 37 -7 76 15 76 16 0 12
22 -6 34 -9 7 -19 27 -23 46 -6 29 -11 34 -36 35 -23 0 -30 5 -35 25 -4 18
-21 32 -61 52 -87 41 -175 150 -193 238 -3 14 -14 35 -25 47 -33 35 -61 86
-61 111 0 17 8 27 30 35 26 10 30 17 30 48 0 20 7 42 15 49 9 7 15 29 15 53 0
79 22 168 46 184 16 10 26 32 34 66 15 71 22 79 71 82 38 2 49 9 101 63 40 43
69 64 97 72 44 12 58 40 41 86 -14 36 -5 74 25 106 13 14 27 38 31 52 5 21 10
25 30 20 18 -5 24 -2 24 9 0 9 -4 19 -10 22 -5 3 -10 15 -10 26 0 14 -7 19
-26 19 -19 0 -25 5 -22 17 5 27 39 28 59 2 13 -18 20 -21 31 -12 8 7 19 8 28
3 12 -7 11 -12 -4 -29 -15 -17 -16 -23 -6 -36 16 -19 40 -19 40 0 0 9 9 15 24
15 30 0 49 22 44 52 -3 20 -9 23 -40 22 -42 -1 -50 12 -16 25 14 5 31 3 47 -5
30 -16 60 -9 79 18 7 10 18 16 23 13 20 -13 50 6 47 29 -1 12 8 35 20 51 12
15 25 38 28 51 5 19 11 22 40 17 20 -3 34 -1 34 4 0 18 139 155 150 148 6 -3
10 -19 10 -36 0 -33 14 -38 30 -10 14 26 15 23 -30 68 -49 51 -61 55 -96 36
-33 -17 -121 -18 -142 -1 -9 8 -16 8 -24 0 -9 -9 -15 -4 -25 19 -12 28 -17 31
-43 26 -22 -5 -34 -1 -48 13 -9 10 -30 23 -45 29 -22 9 -27 15 -22 31 8 26
-11 50 -39 50 -11 0 -34 7 -50 15 -15 8 -41 15 -57 15 -26 0 -29 3 -31 38 -1
20 -1 56 0 79 3 38 0 44 -29 58 -24 13 -30 21 -25 38 3 12 6 37 6 55 0 32 1
33 33 27 32 -6 33 -6 44 42 6 26 14 58 18 70 6 20 0 25 -50 48 -67 29 -82 30
-150 10 -46 -14 -51 -14 -62 2 -7 9 -13 21 -13 25 0 17 -44 24 -108 16 -80 -9
-100 -4 -113 29 -8 23 -14 25 -45 20 -39 -6 -74 18 -74 51 0 19 -63 92 -79 92
-6 0 -11 7 -11 15 0 28 -44 17 -62 -15z m-1198 -815 c0 -8 -4 -15 -10 -15 -5
0 -10 7 -10 15 0 8 5 15 10 15 6 0 10 -7 10 -15z"/>
</g>
</svg>
