<?xml version="1.0" standalone="no"?>
<!DOCTYPE svg PUBLIC "-//W3C//DTD SVG 20010904//EN"
 "http://www.w3.org/TR/2001/REC-SVG-20010904/DTD/svg10.dtd">
<svg version="1.0" xmlns="http://www.w3.org/2000/svg"
 width="1024.000000pt" height="653.000000pt" viewBox="0 0 1024.000000 653.000000"
 preserveAspectRatio="xMidYMid meet">
<metadata>
Created by potrace 1.16, written by Peter Selinger 2001-2019
</metadata>
<g transform="translate(0.000000,653.000000) scale(0.100000,-0.100000)"
fill="#000000" stroke="none">
<path d="M8870 6474 c-157 -30 -420 -81 -585 -114 -357 -70 -502 -91 -940
-130 -656 -60 -870 -86 -1009 -121 -95 -24 -223 -76 -326 -132 -41 -22 -142
-77 -225 -122 -82 -45 -184 -99 -225 -121 -94 -48 -226 -178 -355 -347 -50
-65 -136 -177 -192 -249 -119 -154 -185 -265 -215 -363 -38 -127 -55 -149
-183 -245 -138 -102 -167 -114 -257 -104 l-57 7 -82 116 c-44 64 -94 142 -110
174 -25 49 -33 57 -52 52 -12 -2 -89 -16 -172 -31 -145 -25 -155 -26 -320 -15
-204 14 -700 67 -770 82 -27 7 -85 29 -128 51 -128 64 -179 71 -417 62 -113
-4 -304 -8 -425 -9 -197 -1 -227 -3 -285 -23 -54 -18 -71 -20 -109 -11 -40 9
-47 8 -58 -8 -45 -62 -45 -62 -193 -33 l-101 19 -77 79 c-89 92 -142 119 -216
108 -64 -10 -135 -60 -158 -112 -17 -40 -18 -46 -3 -81 9 -21 25 -48 36 -60
l21 -21 -30 -16 c-35 -18 -69 -60 -101 -123 -19 -39 -20 -44 -5 -78 8 -21 24
-39 35 -42 10 -3 19 -7 19 -9 0 -2 -14 -30 -30 -61 -17 -32 -33 -81 -36 -108
-6 -50 -6 -50 29 -63 53 -19 60 -32 46 -85 -9 -38 -16 -47 -40 -52 -25 -6 -31
-14 -45 -65 l-16 -59 -72 -12 c-39 -7 -78 -16 -86 -20 -8 -4 -23 -30 -33 -58
l-17 -50 -59 -7 c-32 -3 -63 -9 -69 -13 -7 -4 0 -54 18 -146 51 -249 39 -355
-55 -480 -43 -58 -45 -61 -39 -115 4 -30 23 -108 44 -172 40 -121 58 -208 44
-208 -4 0 -21 12 -37 28 l-29 27 -16 -25 c-9 -14 -33 -41 -53 -61 -20 -20 -40
-45 -43 -57 -6 -17 -1 -22 29 -32 20 -7 51 -9 70 -6 22 4 49 0 81 -12 50 -20
56 -29 68 -103 4 -20 19 -56 35 -80 21 -32 32 -66 40 -124 6 -44 21 -116 32
-160 26 -106 35 -196 20 -223 -9 -17 -5 -41 23 -129 19 -59 44 -144 56 -188
28 -108 46 -148 101 -230 38 -57 52 -91 74 -181 l27 -111 -16 -102 c-39 -246
-15 -350 139 -594 l68 -109 -7 -59 c-3 -33 -9 -71 -12 -86 l-7 -26 63 6 c41 3
73 13 91 26 l28 21 68 -21 c72 -22 169 -68 217 -102 28 -20 34 -20 157 -8 212
19 313 52 405 132 76 66 112 72 223 40 137 -40 183 -52 186 -49 2 2 7 18 12
37 5 19 17 39 26 45 14 9 22 5 43 -22 14 -17 32 -32 39 -32 18 0 63 76 80 135
27 90 40 99 206 154 102 34 116 44 144 104 21 45 124 150 180 183 94 54 220
72 620 84 176 6 347 15 379 21 33 6 101 28 150 49 50 21 134 51 186 65 360
100 392 115 540 249 75 68 116 97 154 111 28 9 93 45 144 78 l93 60 47 -15
c26 -9 75 -26 109 -39 62 -23 63 -23 130 -6 51 13 100 17 194 15 l126 -3 69
47 c38 26 96 75 129 108 33 34 83 85 111 114 53 54 96 127 109 184 8 41 34 54
93 51 45 -3 47 -2 58 30 6 18 22 42 35 52 31 24 232 104 469 186 181 63 187
65 295 66 122 2 127 4 329 116 97 54 176 81 306 106 403 78 836 224 950 322
22 20 91 56 153 82 62 26 170 72 241 102 115 48 131 58 143 86 17 42 16 98 -3
208 -10 54 -14 123 -12 172 4 70 10 93 42 158 23 46 62 102 99 141 86 92 191
141 682 317 61 21 70 28 67 47 -4 25 -34 98 -124 300 -35 80 -77 177 -93 215
-17 41 -47 89 -72 116 -31 33 -43 55 -43 76 0 68 -84 284 -243 625 -309 660
-460 1000 -473 1067 -4 17 -12 31 -18 30 -6 0 -139 -25 -296 -55z"/>
</g>
</svg>
