<?xml version="1.0" standalone="no"?>
<!DOCTYPE svg PUBLIC "-//W3C//DTD SVG 20010904//EN"
 "http://www.w3.org/TR/2001/REC-SVG-20010904/DTD/svg10.dtd">
<svg version="1.0" xmlns="http://www.w3.org/2000/svg"
 width="1024.000000pt" height="1024.000000pt" viewBox="0 0 1024.000000 1024.000000"
 preserveAspectRatio="xMidYMid meet">
<metadata>
Created by potrace 1.16, written by Peter Selinger 2001-2019
</metadata>
<g transform="translate(0.000000,1024.000000) scale(0.100000,-0.100000)"
fill="#000000" stroke="none">
<path d="M7161 9340 c-24 -5 -70 -19 -103 -30 -47 -16 -83 -20 -187 -20 -102
0 -172 -7 -337 -36 -118 -20 -270 -39 -349 -43 -146 -8 -165 -13 -203 -54 -34
-37 -25 -64 38 -116 30 -24 63 -55 74 -68 17 -23 18 -27 4 -57 -9 -18 -21 -57
-27 -88 -13 -59 -59 -128 -181 -268 -31 -36 -70 -83 -87 -106 -18 -22 -51 -53
-75 -69 -24 -16 -53 -38 -65 -49 -31 -27 -30 -78 2 -120 15 -20 29 -57 35 -92
6 -32 20 -80 31 -105 20 -43 20 -48 5 -99 -9 -30 -16 -86 -16 -126 0 -41 -6
-87 -15 -107 -8 -20 -15 -55 -15 -77 0 -22 7 -57 15 -77 8 -19 15 -63 15 -98
0 -34 7 -84 15 -111 21 -71 19 -86 -20 -124 -34 -33 -55 -81 -55 -127 0 -12
-16 -49 -36 -82 -32 -54 -37 -71 -41 -144 -5 -104 -27 -213 -58 -286 -23 -55
-23 -60 -10 -112 8 -30 15 -69 15 -88 0 -80 67 -162 185 -224 97 -52 202 -160
334 -342 46 -65 87 -81 168 -66 61 11 63 11 125 -23 84 -46 124 -52 166 -26
18 11 40 36 49 56 17 34 17 37 -5 77 -12 23 -22 52 -22 65 0 21 4 22 83 22
l84 0 6 -167 c4 -91 7 -307 7 -478 l0 -312 -23 4 c-19 4 -22 9 -19 47 3 37 -1
47 -31 79 -30 33 -40 37 -83 37 -46 0 -59 -6 -164 -80 -114 -79 -137 -89 -156
-70 -6 6 -34 13 -63 17 -65 7 -77 19 -85 82 -5 39 -15 58 -45 90 -31 32 -39
49 -44 92 -7 59 -35 106 -106 180 -40 41 -53 49 -84 49 -19 0 -47 -4 -62 -10
-22 -8 -27 -7 -34 13 -5 12 -5 34 0 49 4 15 5 37 2 50 -14 55 -120 172 -203
224 -36 22 -58 28 -110 29 -81 2 -116 18 -141 67 -31 61 -102 75 -184 38 -54
-24 -78 -17 -124 36 -42 47 -70 109 -71 152 0 18 -6 47 -13 65 -14 33 -99 105
-152 128 -40 18 -45 26 -45 81 0 64 -14 94 -52 118 -36 22 -116 27 -149 10
-25 -14 -44 -53 -58 -121 -15 -69 -89 -189 -128 -206 -45 -19 -118 -15 -195
12 -82 29 -149 32 -203 9 -31 -13 -45 -13 -91 -3 -42 10 -66 10 -105 1 -28 -7
-55 -12 -60 -12 -5 0 -39 27 -74 60 -61 56 -67 60 -113 60 -40 0 -57 6 -87 30
-31 25 -47 30 -90 30 -48 0 -55 3 -111 54 -33 30 -71 74 -84 99 l-24 44 23 66
c12 36 24 88 28 115 5 41 2 53 -15 70 -33 33 -104 38 -176 14 -34 -12 -143
-42 -244 -66 -198 -50 -218 -57 -281 -110 -43 -36 -65 -43 -89 -27 -11 7 -9
18 12 59 33 65 33 109 0 178 -28 59 -70 94 -114 94 -38 0 -65 24 -78 68 -14
46 -37 69 -89 88 -57 20 -91 17 -118 -11 -24 -23 -25 -29 -25 -167 0 -93 6
-172 17 -227 l16 -84 -28 -117 c-28 -117 -28 -119 -11 -164 14 -37 16 -53 7
-78 -6 -17 -11 -93 -11 -170 0 -125 2 -144 25 -198 38 -90 34 -143 -14 -208
-45 -60 -65 -131 -66 -233 0 -55 4 -72 28 -107 l27 -42 -808 0 -809 0 -6 -212
c-4 -116 -7 -749 -7 -1406 l0 -1194 35 -56 c18 -32 39 -79 46 -107 14 -60 41
-107 77 -135 57 -45 401 -390 460 -462 35 -42 94 -99 132 -126 37 -28 114
-102 170 -165 56 -63 114 -120 128 -126 67 -25 167 -51 202 -51 67 0 365 60
457 91 82 29 94 30 178 24 49 -4 117 -16 150 -26 49 -15 88 -18 215 -16 145 2
158 0 202 -21 27 -13 57 -37 68 -52 19 -26 159 -111 295 -179 65 -32 148 -39
215 -17 69 22 94 13 141 -50 62 -85 75 -90 177 -75 87 12 128 28 151 55 17 20
49 20 114 0 78 -24 126 -45 170 -77 65 -47 89 -52 144 -27 26 12 73 26 103 31
30 4 71 15 90 23 19 9 55 20 79 26 59 15 161 113 161 154 0 37 89 149 167 209
32 25 72 60 88 79 17 18 49 47 72 63 48 34 51 40 63 111 6 38 23 72 67 134
l58 83 170 99 c205 120 290 158 456 207 144 42 169 56 203 109 41 65 56 127
65 270 4 76 13 147 19 159 11 19 114 94 234 170 50 32 254 104 333 119 22 4
177 8 344 8 l304 2 24 29 c22 24 24 34 17 69 -4 23 -6 73 -5 112 3 85 -7 111
-82 222 -32 45 -57 89 -57 96 0 9 26 21 68 31 37 10 130 46 207 81 77 34 185
74 240 88 55 15 136 43 180 63 55 24 115 41 190 53 130 21 142 26 225 79 35
23 89 48 120 57 30 8 84 26 120 39 36 13 105 34 154 45 50 11 104 29 120 39
17 10 58 22 90 26 56 6 193 51 346 112 35 14 100 32 143 39 92 16 115 27 127
60 19 49 11 98 -29 179 -41 83 -70 118 -108 130 -16 4 -23 14 -23 31 0 30 -25
81 -42 87 -8 2 2 20 29 49 47 52 63 81 88 158 10 30 31 79 47 107 27 49 28 55
17 88 -11 29 -11 44 0 83 26 89 25 109 -4 153 -26 37 -27 42 -16 79 19 63 48
88 126 110 101 27 209 73 246 105 119 99 116 175 -7 200 -59 11 -59 12 -89 71
-37 74 -37 124 0 313 15 74 24 149 21 165 -3 17 -20 51 -36 76 -16 25 -30 57
-30 72 0 15 27 75 60 135 33 59 60 119 60 133 0 14 -13 44 -29 66 -27 38 -51
94 -51 120 0 7 24 19 53 28 28 8 77 31 107 50 46 28 63 48 98 110 59 107 58
142 -8 221 -56 68 -67 100 -49 148 19 54 5 81 -78 152 l-77 66 0 83 c-1 82 -1
83 -44 138 -23 31 -50 80 -60 109 -22 68 -45 82 -129 76 -59 -4 -63 -3 -63 17
0 34 -37 86 -114 161 -86 84 -149 119 -236 135 -50 9 -73 19 -103 46 -48 44
-75 54 -140 54 -41 0 -62 6 -97 30 -39 26 -54 30 -111 30 l-66 0 -6 41 c-3 23
-15 51 -27 64 -30 32 -98 49 -163 41 -53 -7 -55 -6 -85 29 -18 20 -32 43 -32
52 0 24 -101 117 -153 142 -49 24 -159 29 -201 10 -13 -6 -37 -34 -52 -63 -52
-96 -72 -97 -167 -11 -94 85 -195 155 -223 155 -12 0 -36 -11 -51 -24 l-29
-25 -17 28 c-16 27 -16 29 9 52 73 68 71 138 -6 167 -39 15 -170 22 -219 12z"/>
</g>
</svg>
