<?xml version="1.0" standalone="no"?>
<!DOCTYPE svg PUBLIC "-//W3C//DTD SVG 20010904//EN"
 "http://www.w3.org/TR/2001/REC-SVG-20010904/DTD/svg10.dtd">
<svg version="1.0" xmlns="http://www.w3.org/2000/svg"
 width="1024.000000pt" height="1024.000000pt" viewBox="0 0 1024.000000 1024.000000"
 preserveAspectRatio="xMidYMid meet">
<metadata>
Created by potrace 1.16, written by Peter Selinger 2001-2019
</metadata>
<g transform="translate(0.000000,1024.000000) scale(0.100000,-0.100000)"
fill="#000000" stroke="none">
<path d="M5930 9540 c-41 -4 -99 -17 -128 -28 -62 -26 -91 -27 -118 -7 -31 23
-73 18 -109 -14 -24 -21 -51 -32 -101 -40 -107 -19 -131 -29 -249 -100 -61
-36 -128 -75 -149 -86 -21 -11 -56 -41 -77 -67 -39 -46 -66 -60 -142 -73 -48
-8 -95 -50 -131 -116 -29 -52 -29 -52 -22 -181 7 -127 6 -129 -20 -174 -26
-44 -27 -49 -15 -94 14 -56 4 -110 -35 -177 -32 -56 -48 -63 -139 -63 -81 0
-104 -8 -245 -90 -36 -21 -92 -46 -125 -55 -85 -24 -144 -57 -208 -114 -30
-28 -58 -51 -62 -51 -11 0 -183 -87 -248 -126 -162 -98 -292 -238 -327 -353
-7 -20 -32 -89 -57 -154 -50 -130 -63 -146 -245 -297 -49 -40 -88 -76 -88 -81
0 -5 -23 -26 -51 -46 -28 -21 -74 -69 -102 -108 -113 -156 -236 -301 -269
-317 -19 -8 -70 -24 -113 -33 -79 -17 -184 -60 -238 -98 -38 -26 -66 -17 -132
43 -38 34 -66 51 -92 55 -21 3 -51 8 -68 11 -16 2 -66 20 -110 39 -118 50
-186 66 -232 53 -54 -15 -86 -33 -130 -73 -74 -68 -196 -69 -232 -2 -27 51
-61 80 -154 131 -98 53 -90 53 -244 17 -112 -25 -200 -20 -242 14 -51 43 -101
56 -146 39 -28 -11 -55 -89 -55 -157 0 -60 3 -66 63 -157 35 -52 93 -135 130
-184 76 -101 120 -186 140 -273 8 -33 20 -70 27 -84 20 -38 251 -259 287 -274
l33 -14 0 -86 c0 -114 16 -143 129 -239 100 -85 110 -106 90 -185 -17 -69 -7
-104 66 -220 45 -74 67 -121 75 -160 6 -31 22 -81 35 -111 13 -30 29 -71 35
-91 15 -51 117 -139 179 -155 43 -10 46 -14 52 -50 4 -23 15 -44 29 -54 12 -8
44 -34 70 -57 26 -24 66 -50 90 -58 52 -18 72 -35 112 -92 30 -45 72 -73 108
-73 11 0 33 -12 47 -26 37 -37 136 -81 233 -105 108 -25 220 -64 273 -95 25
-14 58 -24 83 -24 l42 0 6 -54 c5 -37 17 -68 37 -96 26 -36 32 -56 41 -138 7
-72 6 -110 -3 -149 -10 -45 -10 -55 5 -78 20 -30 55 -33 130 -10 104 32 363 9
385 -34 6 -10 4 -31 -5 -56 -20 -56 -20 -112 1 -177 19 -61 17 -108 -8 -174
-13 -33 -14 -49 -5 -84 8 -32 8 -58 -1 -101 -16 -80 -2 -110 106 -218 112
-111 181 -223 200 -324 17 -92 71 -179 128 -206 23 -11 105 -29 193 -41 171
-24 304 -57 358 -89 41 -24 79 -26 114 -6 35 20 69 18 112 -5 79 -42 232 -100
304 -115 69 -14 154 -48 154 -61 0 -2 -10 -18 -21 -34 -18 -24 -21 -38 -16
-84 14 -140 97 -234 213 -242 68 -5 81 -12 119 -63 44 -59 69 -66 219 -63 104
3 144 8 204 28 93 30 110 30 188 -1 34 -14 96 -30 138 -36 64 -10 91 -20 159
-62 131 -80 146 -87 207 -87 50 0 62 -4 103 -36 46 -36 49 -37 108 -30 33 3
86 13 117 22 44 13 78 15 155 10 79 -5 118 -2 200 15 112 22 122 22 314 -23
76 -18 100 -20 138 -11 42 9 51 8 91 -13 25 -13 53 -24 62 -24 9 0 37 -14 61
-30 24 -17 52 -30 61 -30 44 0 217 148 277 237 25 37 544 572 1020 1051 130
131 170 178 165 190 -4 9 -20 40 -35 69 -15 29 -27 62 -27 73 0 12 -7 34 -15
50 -20 39 -9 62 73 152 81 89 87 113 72 252 -6 61 -16 149 -21 195 -10 98 -4
111 50 111 95 1 148 33 198 120 26 45 122 176 175 237 26 32 27 36 21 113 l-6
80 35 32 c20 18 43 47 52 65 9 18 36 46 60 62 62 43 73 73 79 230 l5 134 -40
36 c-30 27 -38 40 -34 58 8 31 -13 72 -41 79 -26 7 -86 1 -117 -12 -17 -6 -18
-4 -12 17 27 98 14 167 -44 234 -45 52 -49 71 -21 106 32 42 44 71 73 184 36
141 37 197 2 242 -35 47 -81 73 -127 73 -43 0 -43 1 -51 91 l-5 66 49 23 c36
17 57 21 83 16 31 -6 41 -2 73 26 53 46 94 106 94 137 0 14 -13 54 -30 89 -16
34 -31 74 -32 88 -3 24 2 28 42 40 60 18 90 51 96 106 3 23 15 62 27 86 l22
43 -27 50 c-23 39 -28 62 -28 114 0 49 -8 83 -31 142 -24 59 -31 92 -30 138 1
33 1 93 1 133 1 69 3 75 32 101 30 26 32 34 39 122 4 52 11 106 15 121 9 38
-1 68 -36 113 -16 21 -30 44 -30 52 0 7 18 46 41 86 52 91 59 130 30 161 -17
18 -22 39 -26 97 -6 90 -43 170 -140 302 -36 48 -65 89 -65 91 0 2 20 17 44
32 53 34 71 63 97 154 37 136 22 154 -133 164 -153 10 -155 11 -163 54 -3 20
-13 46 -20 58 -21 33 -167 98 -320 143 -43 13 -90 36 -123 60 -62 47 -117 57
-256 47 -50 -3 -133 -9 -183 -13 l-92 -6 -21 48 c-24 56 -147 187 -203 216
-21 11 -75 29 -120 40 -45 11 -122 33 -172 50 -81 26 -100 38 -183 110 -76 66
-107 85 -173 109 -97 36 -132 37 -184 5 -22 -13 -59 -34 -82 -47 l-43 -22 -25
24 c-36 33 -99 39 -356 32 -118 -3 -228 -2 -243 2 -28 7 -28 8 -21 54 13 80
12 334 -1 368 -18 47 -50 55 -187 46 -105 -7 -121 -5 -147 11 -26 16 -38 17
-142 6 -101 -10 -134 -9 -228 5 -14 2 -59 0 -100 -4z"/>
</g>
</svg>
