<?xml version="1.0" standalone="no"?>
<!DOCTYPE svg PUBLIC "-//W3C//DTD SVG 20010904//EN"
 "http://www.w3.org/TR/2001/REC-SVG-20010904/DTD/svg10.dtd">
<svg version="1.0" xmlns="http://www.w3.org/2000/svg"
 width="1024.000000pt" height="724.000000pt" viewBox="0 0 1024.000000 724.000000"
 preserveAspectRatio="xMidYMid meet">
<metadata>
Created by potrace 1.16, written by Peter Selinger 2001-2019
</metadata>
<g transform="translate(0.000000,724.000000) scale(0.100000,-0.100000)"
fill="#000000" stroke="none">
<path d="M5615 5990 c-8 -13 15 -13 35 0 12 8 11 10 -7 10 -12 0 -25 -4 -28
-10z"/>
<path d="M5435 5957 c-27 -5 -61 -10 -75 -11 -25 -2 -95 -25 -158 -53 -19 -8
-59 -19 -90 -23 -32 -5 -82 -16 -112 -26 -30 -9 -63 -17 -72 -16 -10 0 -21 -4
-24 -10 -5 -8 5 -9 32 -6 21 3 48 2 59 -3 13 -5 -6 -8 -52 -8 -58 -1 -71 2
-67 13 4 11 -23 14 -155 15 -89 1 -161 -3 -161 -8 0 -5 9 -11 20 -14 11 -3 20
-1 20 4 0 5 33 7 73 4 95 -6 148 -6 171 1 13 4 17 2 14 -7 -3 -8 -13 -14 -24
-15 -10 -1 -57 -2 -104 -4 -63 -2 -76 -4 -50 -9 l35 -7 -42 -5 c-23 -2 -39 -1
-37 3 8 13 -81 19 -201 14 -236 -10 -340 -18 -348 -26 -5 -4 2 -15 14 -24 l23
-16 -25 0 c-14 0 -29 4 -34 9 -6 6 -52 12 -103 15 -84 4 -94 3 -105 -15 -16
-26 -100 -21 -98 6 1 9 -107 11 -115 2 -8 -8 10 -46 25 -51 9 -3 -7 -3 -36 -1
-44 3 -52 0 -56 -17 -6 -20 24 -38 62 -38 23 0 71 -23 71 -34 0 -4 -12 -5 -27
-1 -77 19 -136 26 -145 17 -6 -6 2 -14 25 -21 32 -11 57 -43 57 -74 0 -21 38
-37 103 -44 65 -6 113 -22 69 -23 -14 0 -21 -4 -17 -11 4 -6 26 -9 49 -8 23 2
48 -1 55 -5 7 -5 109 -9 226 -10 117 0 216 -4 220 -8 9 -9 -60 -22 -79 -15 -8
3 -16 3 -19 0 -6 -5 -87 -10 -247 -13 -96 -2 -310 17 -347 31 -13 5 -37 9 -53
9 -16 0 -30 4 -32 9 -1 5 -21 13 -43 16 -32 6 -38 5 -28 -5 6 -7 23 -12 38
-12 18 0 29 -7 35 -23 6 -17 22 -25 66 -33 31 -7 68 -12 81 -12 13 0 23 -4 23
-10 0 -12 -17 -12 -145 0 -75 7 -107 15 -128 31 -24 17 -39 20 -100 16 -77 -5
-102 -9 -113 -20 -12 -12 -26 -8 -18 6 5 8 2 7 -9 -2 -10 -8 -20 -11 -24 -7
-3 3 0 6 7 6 10 0 11 3 4 10 -11 11 -67 -7 -60 -19 8 -14 -15 -51 -32 -51 -26
0 -34 -11 -20 -27 14 -17 6 -25 -32 -29 -17 -2 -40 -13 -52 -24 -34 -32 -78
-40 -137 -24 -88 23 -156 70 -125 87 19 11 18 31 -1 23 -8 -3 -15 -1 -15 4 0
6 6 10 14 10 7 0 16 9 19 21 4 14 10 18 19 14 10 -6 10 -5 1 5 -8 9 -9 19 -1
36 15 31 7 37 -28 23 -16 -7 -32 -12 -36 -11 -11 3 -48 -35 -48 -48 0 -5 -4
-10 -10 -10 -13 0 -13 6 6 41 19 38 14 53 -25 74 -33 16 -39 9 -21 -26 7 -13
7 -19 0 -19 -5 0 -10 6 -10 13 0 7 -5 5 -10 -5 -19 -32 -80 9 -80 54 0 9 -11
29 -24 43 l-24 25 -5 -27 c-4 -20 2 -34 24 -56 32 -32 39 -77 14 -97 -12 -10
-15 -9 -15 6 -1 17 -2 17 -13 3 -7 -9 -18 -14 -24 -12 -7 3 -13 0 -13 -7 0 -6
-5 -8 -10 -5 -9 6 -49 -24 -42 -32 1 -2 2 -6 2 -10 0 -4 -14 6 -31 23 -29 27
-31 27 -25 7 4 -13 3 -23 -3 -23 -5 0 -11 10 -13 23 -5 39 -23 24 -20 -18 l3
-40 -30 33 c-34 36 -45 41 -36 13 4 -15 0 -20 -25 -23 -34 -5 -39 7 -12 29 16
13 15 14 -6 9 -18 -3 -22 -1 -18 10 3 8 -4 24 -15 35 -17 17 -23 19 -30 8 -5
-8 -9 -22 -9 -31 0 -10 -6 -18 -12 -18 -8 0 -9 -3 -3 -8 13 -9 18 -115 6 -107
-5 3 -14 18 -19 35 -9 24 -8 31 6 40 14 8 12 9 -10 10 -16 0 -28 -6 -29 -12
-3 -43 4 -85 18 -95 8 -6 12 -17 8 -23 -5 -8 -12 -6 -25 5 -14 13 -23 14 -37
6 -11 -6 -13 -11 -5 -11 7 0 10 -5 7 -10 -4 -6 -10 -8 -15 -5 -13 8 -23 -39
-15 -66 6 -18 4 -21 -9 -16 -9 4 -16 1 -16 -6 0 -8 -4 -7 -9 3 -6 8 -8 17 -6
20 2 3 -6 17 -17 30 -13 17 -21 21 -25 12 -5 -12 -23 -7 -23 7 0 4 13 22 30
41 16 18 27 38 23 43 -3 6 -10 1 -14 -11 -9 -24 -29 -30 -29 -9 0 7 5 18 11
24 8 8 5 14 -10 22 -14 8 -21 22 -22 44 -1 30 -2 30 -8 7 -4 -14 -16 -27 -26
-29 -17 -3 -18 -1 -6 13 16 19 6 35 -11 18 -15 -15 -12 -270 4 -289 8 -10 8
-17 0 -25 -7 -7 -14 -9 -17 -7 -8 9 -21 151 -20 226 1 63 -1 69 -20 69 -16 -1
-21 6 -23 37 -4 44 14 50 23 7 4 -16 11 -30 16 -30 12 0 11 14 -1 26 -8 8 -8
18 0 35 15 32 0 72 -28 74 -26 2 -31 -10 -25 -60 3 -29 0 -43 -13 -52 -15 -11
-16 -18 -5 -53 12 -42 31 -54 31 -20 0 11 4 20 9 20 5 0 9 -28 8 -62 -1 -35 2
-76 6 -91 5 -19 4 -27 -3 -22 -6 4 -10 -5 -11 -22 -1 -38 -14 -70 -23 -55 -7
11 -36 5 -47 -10 -3 -4 -20 3 -39 17 -40 30 -41 30 -33 9 5 -13 2 -15 -18 -9
-31 9 -31 9 -52 0 -10 -4 -23 -2 -32 5 -8 6 -19 9 -25 5 -5 -3 -10 -2 -10 3 0
5 -14 7 -32 3 -23 -5 -34 -14 -38 -31 -4 -16 -14 -26 -28 -28 -12 -2 -22 -8
-22 -13 0 -6 -14 -15 -30 -20 -35 -13 -39 -38 -10 -59 24 -17 26 -30 5 -30 -8
0 -15 -4 -15 -10 0 -5 3 -9 8 -9 20 3 32 -2 32 -15 0 -9 -8 -12 -27 -8 -22 4
-25 2 -20 -12 4 -10 7 -20 7 -23 0 -3 7 1 16 8 14 12 19 10 38 -14 12 -15 27
-27 33 -27 12 0 26 -30 18 -38 -3 -3 -5 -1 -5 5 0 12 -52 33 -82 33 -11 0 -18
-5 -15 -12 2 -8 17 -12 35 -10 36 4 45 -17 12 -25 -22 -6 -27 -29 -7 -36 6 -2
17 3 24 12 11 14 12 11 13 -16 0 -17 5 -35 10 -38 6 -4 8 -11 4 -16 -3 -5 -10
-7 -15 -3 -5 3 -7 9 -4 14 6 10 -33 40 -53 40 -7 0 -10 -4 -7 -10 3 -5 2 -10
-3 -10 -17 0 -22 28 -6 34 22 8 17 25 -6 19 -23 -6 -29 -58 -7 -66 9 -4 9 -6
-1 -6 -7 -1 -15 6 -18 14 -4 8 -10 15 -16 15 -5 0 -6 -5 -2 -12 4 -6 -2 -17
-12 -25 -19 -14 -19 -15 2 -31 28 -23 29 -82 2 -82 -11 0 -16 -5 -13 -11 4 -5
-1 -20 -12 -31 -18 -20 -18 -21 5 -14 32 10 27 -1 -10 -24 -30 -18 -31 -20
-10 -20 13 0 20 -4 17 -10 -4 -6 -10 -8 -15 -5 -5 3 -11 1 -15 -5 -3 -5 1 -10
10 -10 9 0 13 -4 10 -10 -3 -5 1 -10 9 -10 8 0 18 9 21 20 3 11 11 20 16 20
12 0 11 -10 -6 -40 -19 -34 -19 -52 3 -49 9 1 21 1 25 0 13 -2 -20 -31 -35
-31 -8 0 -6 -4 5 -11 9 -5 22 -7 29 -3 7 4 8 3 4 -4 -4 -7 -15 -12 -24 -13
-12 0 -9 -3 7 -10 13 -5 26 -7 28 -5 3 2 13 -4 24 -15 26 -26 34 -24 55 17 40
76 53 99 53 89 0 -5 -4 -19 -8 -29 -5 -13 -2 -26 8 -38 9 -10 16 -24 16 -31 0
-7 16 -15 35 -18 19 -4 27 -7 18 -8 -36 -2 -13 -34 32 -44 14 -3 41 -10 60
-16 33 -10 32 -10 -15 -5 -27 2 -66 7 -85 9 -24 3 -43 -2 -59 -14 l-24 -19 21
-6 c20 -7 20 -9 7 -22 -20 -20 -19 -36 5 -61 16 -18 17 -22 4 -27 -12 -5 -12
-9 -2 -26 16 -26 25 -25 34 2 3 12 13 28 20 36 19 19 11 72 -14 93 -19 14 -19
18 -6 23 27 11 70 6 90 -9 17 -13 17 -14 2 -15 -14 0 -17 -7 -14 -41 3 -31 0
-42 -12 -46 -47 -17 -70 -63 -31 -63 23 0 79 -48 79 -68 0 -11 36 -32 50 -28
3 0 18 -9 34 -21 16 -13 40 -24 55 -25 15 0 7 -4 -19 -8 -31 -4 -52 -2 -68 8
-19 11 -26 11 -40 0 -13 -11 -14 -11 -7 1 6 11 4 13 -8 8 -10 -3 -17 -2 -17 2
0 5 6 11 13 14 8 3 6 7 -7 12 -11 5 -26 3 -37 -3 -11 -7 -20 -8 -24 -2 -3 5
-18 8 -34 7 -29 -2 -36 -22 -15 -43 17 -19 112 -64 134 -64 11 0 20 -4 20 -10
0 -5 8 -10 18 -10 15 0 15 -2 2 -11 -12 -9 -12 -10 3 -5 19 6 51 -17 40 -28
-4 -3 -2 -6 4 -6 6 0 31 -19 56 -42 24 -24 53 -48 63 -54 16 -9 16 -11 1 -17
-9 -3 -22 -1 -29 6 -7 7 -25 18 -40 26 -14 7 -29 22 -31 33 -3 11 -10 17 -16
13 -21 -13 -10 -40 25 -65 49 -33 30 -36 -31 -6 -31 16 -53 22 -60 16 -6 -5
-22 -6 -35 -3 l-23 6 19 -26 c10 -15 24 -27 29 -27 6 0 23 -11 39 -25 16 -14
36 -25 44 -25 9 0 12 -6 8 -16 -5 -12 -2 -15 9 -10 10 3 18 -1 22 -12 13 -35
78 -89 116 -96 34 -6 36 -9 26 -28 -10 -18 -7 -24 20 -45 17 -14 29 -28 26
-33 -3 -5 0 -12 7 -17 35 -21 202 -251 261 -358 48 -86 131 -294 153 -380 4
-16 8 -32 9 -35 1 -3 5 -36 9 -75 11 -94 14 -116 22 -144 5 -17 4 -22 -4 -17
-16 10 -15 -7 0 -23 7 -8 8 -11 2 -8 -8 4 -15 -19 -23 -71 -7 -42 -23 -111
-37 -152 -24 -75 -103 -242 -116 -248 -11 -5 -68 -91 -68 -103 0 -5 -16 -25
-35 -45 -19 -19 -35 -38 -35 -42 0 -5 -16 -14 -35 -21 -19 -7 -35 -16 -35 -20
0 -5 -10 -12 -22 -16 -22 -6 -22 -7 6 -15 38 -12 86 -2 79 16 -6 15 14 18 44
7 16 -6 15 -8 -7 -14 -23 -6 -22 -7 10 -9 l35 -2 -35 -9 c-19 -5 -89 -14 -156
-19 -151 -13 -220 -32 -89 -24 50 3 108 5 130 6 22 0 60 4 84 9 30 7 47 6 57
-2 8 -6 22 -8 31 -4 10 4 47 9 83 11 59 3 63 2 46 -11 -11 -8 -28 -15 -38 -15
-10 0 -18 -4 -18 -9 0 -12 100 -1 134 15 29 14 80 9 70 -7 -3 -5 11 -9 30 -9
20 0 36 5 36 10 0 6 12 15 26 20 19 8 29 6 40 -5 17 -16 39 -21 29 -6 -10 17
16 24 41 10 21 -11 29 -10 52 3 15 8 42 14 61 13 29 -3 42 5 97 58 34 34 79
77 98 95 20 18 36 37 36 42 0 5 13 19 30 31 16 12 27 26 24 31 -3 4 -1 8 4 8
6 0 22 20 36 45 15 25 33 45 41 45 8 0 21 15 30 34 9 18 27 44 41 57 13 12 24
27 24 32 0 5 16 32 35 58 19 27 35 52 35 55 0 4 35 63 77 133 43 69 79 129 79
134 1 4 2 12 3 17 2 20 19 9 23 -15 3 -14 -5 -45 -17 -72 -13 -26 -49 -110
-80 -185 -32 -76 -61 -138 -65 -138 -4 0 -10 -13 -13 -30 -4 -19 -13 -30 -23
-30 -10 0 -14 -5 -10 -15 6 -18 -13 -67 -24 -60 -4 3 -13 -2 -20 -10 -9 -11
-10 -15 -1 -15 8 0 4 -12 -9 -30 -24 -34 -20 -65 10 -73 15 -4 26 7 49 48 33
59 49 74 61 55 4 -7 -4 -24 -21 -43 -34 -37 -35 -43 -9 -57 26 -14 53 0 77 40
13 22 25 30 45 30 19 0 28 -5 28 -16 0 -9 -6 -14 -13 -11 -6 2 -20 -6 -29 -18
-17 -22 -16 -23 5 -29 12 -3 34 -6 50 -6 15 0 27 -4 27 -9 0 -5 9 -13 21 -16
21 -7 21 -7 -2 -19 -27 -13 -32 -39 -8 -44 11 -2 27 21 55 77 38 79 55 100 34
45 -21 -53 -7 -70 77 -98 l78 -25 -57 3 c-31 2 -61 -1 -66 -6 -5 -5 -16 -10
-23 -12 -37 -6 -57 -18 -67 -40 -12 -27 -7 -36 20 -36 15 0 17 -3 8 -19 -5
-11 -17 -26 -25 -34 -13 -14 -11 -17 17 -32 19 -9 34 -12 36 -6 2 7 12 7 30 0
17 -7 28 -7 30 -1 6 18 42 55 42 44 0 -6 -4 -14 -10 -17 -18 -11 -11 -35 10
-35 13 0 22 -9 26 -25 4 -15 13 -25 24 -25 10 0 24 -10 32 -23 17 -25 95 -67
126 -67 11 0 23 -4 26 -8 7 -12 -96 -2 -108 9 -6 5 -18 9 -27 9 -9 0 -19 7
-23 15 -7 18 -37 20 -54 3 -10 -10 -15 -10 -20 -1 -4 7 -16 12 -27 12 -11 -1
-30 2 -42 6 -25 8 -32 -9 -8 -19 8 -3 12 -12 9 -21 -4 -9 -1 -15 9 -15 8 0 17
-3 19 -7 5 -12 97 -53 118 -53 11 0 20 -4 20 -10 0 -5 7 -10 15 -10 8 0 15 -5
15 -11 0 -11 -13 -10 -128 9 -60 10 -122 4 -101 -9 8 -5 30 -9 50 -9 21 0 42
-7 50 -16 8 -9 21 -13 35 -10 17 5 26 1 34 -14 6 -12 21 -20 35 -20 14 0 34
-9 45 -20 11 -11 26 -17 35 -14 22 9 13 28 -13 32 -12 2 -22 7 -22 12 0 4 -12
11 -27 15 l-28 7 25 13 c21 11 26 11 33 0 4 -8 22 -21 39 -30 l33 -16 42 48
c48 54 50 60 26 66 -12 3 -9 5 8 6 22 1 79 49 79 66 0 2 16 29 35 59 19 30 35
62 35 71 0 8 5 15 12 15 18 0 -3 17 -27 23 -11 2 -6 3 12 1 29 -2 34 2 73 67
24 38 47 66 53 62 6 -3 7 -1 3 6 -4 6 2 26 13 44 11 17 20 36 20 42 0 5 3 11
8 12 15 5 15 -69 0 -86 -8 -9 -22 -42 -32 -73 -10 -32 -24 -66 -32 -75 -8 -10
-11 -12 -7 -3 7 13 5 13 -9 1 -19 -15 -24 -36 -6 -25 19 12 -9 -60 -65 -161
-9 -16 -16 -36 -16 -42 0 -7 -7 -13 -15 -13 -9 0 -12 -6 -9 -15 4 -8 1 -22 -6
-30 -7 -8 -10 -22 -6 -30 4 -12 0 -14 -22 -10 -15 3 -21 2 -14 -1 17 -8 15
-17 -8 -44 -27 -31 -25 -40 8 -40 36 0 67 31 50 48 -9 9 -7 12 8 12 11 0 26 6
32 12 10 10 15 10 22 -2 7 -11 5 -16 -5 -18 -8 -2 -15 -10 -15 -18 0 -11 10
-14 38 -12 23 2 36 8 34 16 -3 16 79 7 93 -11 6 -7 19 -17 30 -21 15 -5 16 -9
6 -15 -10 -6 -9 -10 4 -15 24 -9 55 -7 55 3 0 5 -6 12 -12 14 -8 3 -6 6 5 6
10 1 22 11 28 24 9 20 9 20 4 -5 -3 -16 0 -28 8 -31 7 -3 4 -6 -6 -6 -10 -1
-15 -5 -12 -11 10 -15 35 -12 35 5 0 8 6 15 13 15 32 0 115 31 136 52 l24 22
-5 -26 c-5 -25 -4 -26 44 -24 34 2 53 9 63 22 17 23 19 34 5 34 -5 0 -10 -5
-10 -12 0 -9 -3 -9 -12 0 -15 15 -13 16 49 41 51 20 84 13 43 -9 -11 -6 -20
-15 -20 -20 0 -21 46 -7 90 26 8 7 28 12 43 12 16 0 38 4 50 10 53 25 107 41
107 32 0 -6 -9 -10 -19 -10 -11 0 -23 -5 -26 -10 -3 -5 -17 -10 -31 -10 -13 0
-24 -4 -24 -10 0 -5 -11 -10 -25 -10 -14 0 -25 -4 -25 -9 0 -5 -12 -12 -27
-16 -16 -4 -34 -11 -41 -17 -11 -10 -38 -16 -94 -21 -9 -1 -14 -5 -12 -9 3 -4
-2 -8 -10 -8 -9 0 -16 -5 -16 -11 0 -5 -4 -7 -10 -4 -5 3 -20 -1 -32 -9 l-22
-16 29 -2 c17 -1 41 -3 55 -3 14 -1 36 -5 49 -9 39 -13 83 -13 88 0 2 7 11 15
19 18 11 4 12 2 5 -13 -9 -16 -2 -19 78 -29 110 -15 141 -15 141 -1 0 7 -12 9
-35 5 -29 -6 -35 -4 -35 10 0 12 6 15 25 11 21 -3 29 1 40 23 15 29 33 40 66
40 13 0 24 10 30 30 6 17 16 30 22 30 6 0 7 -3 4 -6 -3 -4 -2 -15 4 -26 9 -16
17 -19 47 -13 52 9 104 27 123 42 8 7 25 13 36 13 11 0 26 7 33 15 7 8 21 15
32 15 20 0 59 17 68 30 3 4 15 10 26 14 19 6 21 3 16 -19 -5 -30 13 -33 30 -5
7 11 21 20 30 20 10 0 18 5 18 10 0 6 9 10 21 10 11 0 39 10 62 22 69 36 79
40 109 49 21 6 28 4 28 -7 0 -8 -7 -14 -15 -14 -9 0 -15 -6 -14 -12 3 -27 -2
-38 -16 -38 -8 0 -15 -4 -15 -10 0 -5 5 -10 10 -10 6 0 10 -7 10 -15 0 -8 -9
-15 -20 -15 -11 0 -20 -7 -20 -16 0 -11 6 -14 23 -8 22 7 43 8 62 3 19 -6 120
12 163 28 44 16 57 43 21 43 -11 0 -18 -3 -16 -7 3 -5 -9 -9 -26 -10 -38 -3
-25 12 23 25 19 5 44 13 55 17 18 6 18 5 2 -5 -30 -19 -8 -30 32 -15 22 7 42
11 44 8 3 -3 11 -2 17 2 8 5 8 10 0 20 -8 9 -3 15 19 25 40 16 65 7 29 -10
-16 -7 -28 -17 -28 -22 0 -5 9 -4 19 1 26 14 91 21 91 10 0 -5 4 -9 10 -9 5 0
9 5 7 12 -3 15 185 64 238 61 49 -2 145 15 145 26 0 5 18 13 40 19 36 9 57 1
28 -11 -8 -4 -7 -6 3 -6 9 -1 19 6 23 14 6 17 36 21 36 5 0 -6 11 -9 25 -7 14
2 25 6 25 10 0 4 0 10 0 13 0 4 -7 1 -15 -6 -9 -7 -18 -10 -22 -7 -3 4 7 12
21 19 22 9 29 9 35 -1 4 -6 27 -13 51 -14 36 -2 45 2 48 16 3 16 -1 17 -31 12
-38 -7 -61 9 -26 18 12 3 18 10 15 15 -3 6 1 12 9 16 8 3 15 1 15 -5 0 -5 10
-1 22 11 26 24 38 26 38 4 0 -12 10 -15 50 -12 27 2 52 7 56 11 11 11 44 8 44
-3 0 -5 -6 -10 -12 -10 -9 0 -8 -4 2 -10 13 -9 13 -10 0 -10 -12 0 -12 -2 -2
-9 11 -7 10 -10 -3 -15 -23 -8 -27 -8 -20 4 4 7 -2 7 -18 1 -14 -6 -28 -7 -32
-3 -8 8 -78 3 -88 -7 -10 -10 96 -23 117 -15 11 4 16 1 16 -11 0 -9 6 -15 13
-12 6 2 11 10 9 16 -1 7 2 10 8 6 14 -9 70 4 70 16 0 5 -7 9 -16 9 -8 0 -13 4
-9 9 3 5 -3 11 -12 14 -23 5 26 27 79 34 47 7 38 26 -8 21 -19 -2 -34 0 -34 4
0 4 10 8 23 9 68 2 97 9 116 28 19 19 23 19 48 6 32 -17 47 -19 39 -6 -9 14
16 19 40 8 15 -6 29 -5 45 4 13 8 42 14 63 15 25 2 45 9 55 22 9 10 24 22 34
26 11 3 21 15 24 25 3 11 23 31 44 45 21 15 39 33 39 41 0 8 7 15 15 15 9 0
20 11 25 24 5 13 18 27 29 31 12 3 21 13 21 21 0 8 5 14 10 14 6 0 10 7 10 15
0 8 4 15 9 15 5 0 14 14 21 30 7 17 20 36 29 43 16 11 51 76 51 93 0 8 50 85
61 94 4 3 9 15 13 28 5 13 15 22 27 22 15 0 19 5 14 19 -3 12 3 30 20 49 14
16 25 33 25 38 0 4 7 14 15 23 28 30 91 116 98 134 4 10 13 17 20 14 6 -2 20
10 30 26 10 16 21 26 25 22 4 -4 1 -10 -5 -12 -17 -6 -16 -23 0 -23 17 0 47
32 47 49 0 8 -6 11 -15 7 -18 -7 -20 5 -3 22 17 17 28 15 28 -7 0 -12 8 -21
23 -24 l22 -4 -23 -8 c-12 -4 -25 -18 -28 -31 -3 -13 -13 -24 -20 -24 -8 0
-17 -7 -20 -15 -4 -8 -12 -15 -19 -15 -8 0 -10 -9 -7 -26 3 -19 1 -25 -6 -20
-7 4 -22 -2 -34 -13 -15 -15 -18 -21 -7 -21 10 -1 9 -3 -3 -11 -10 -5 -18 -14
-18 -20 0 -5 -16 -45 -36 -87 -20 -42 -40 -88 -46 -102 -19 -52 -33 -80 -40
-80 -3 0 -9 -14 -13 -30 -4 -17 -13 -30 -21 -30 -8 0 -14 -10 -14 -24 0 -32
-10 -57 -20 -51 -4 3 -13 -2 -20 -10 -9 -11 -10 -15 0 -15 7 0 3 -11 -9 -26
-25 -32 -27 -60 -5 -68 27 -11 32 -7 64 49 31 54 43 64 55 45 6 -9 -21 -58
-40 -73 -9 -7 19 -37 34 -37 13 0 30 16 33 30 2 7 15 26 29 40 28 28 47 80 29
80 -5 0 -10 4 -10 10 0 5 7 7 15 4 18 -7 37 4 29 18 -4 6 -10 5 -15 -3 -7 -11
-9 -11 -9 2 0 9 9 19 21 22 12 3 20 13 19 24 -4 33 0 41 23 48 12 4 25 7 29 6
5 -1 7 2 7 7 -1 4 -1 14 0 22 1 12 3 13 10 1 7 -11 10 -9 15 7 4 11 16 22 26
25 15 4 20 14 20 40 0 20 5 39 12 43 8 5 9 2 5 -9 -10 -27 6 -20 34 14 22 27
27 29 32 15 5 -12 -1 -19 -18 -26 -23 -9 -24 -12 -13 -32 7 -13 18 -26 23 -31
6 -5 5 -12 -5 -20 -21 -17 -53 -77 -41 -77 5 0 12 8 15 18 3 9 19 26 36 37 22
14 32 31 36 57 9 54 35 81 66 69 32 -12 58 2 32 17 -17 10 -16 12 14 24 35 14
42 28 14 28 -21 0 -27 37 -10 57 19 24 -1 27 -25 5 -13 -12 -29 -22 -36 -22
-8 0 -9 -5 -2 -17 8 -14 4 -20 -21 -30 -40 -17 -47 -9 -20 20 17 18 19 26 10
35 -9 9 -6 12 16 12 16 0 36 8 45 18 9 11 26 24 38 30 19 11 21 9 18 -14 -2
-25 -1 -25 47 -20 56 6 68 12 68 31 0 18 34 37 58 33 11 -2 16 3 14 14 -3 18
13 37 62 75 33 26 23 34 -39 30 -27 -1 -40 -7 -41 -17 -1 -8 -2 -20 -3 -27 0
-6 -15 -14 -31 -18 -17 -4 -28 -10 -25 -15 3 -5 -9 -19 -27 -31 -18 -13 -34
-27 -36 -31 -5 -10 -42 10 -42 22 0 6 7 10 15 10 8 0 15 5 15 10 0 6 6 10 14
10 8 0 18 9 21 20 3 11 12 20 19 20 7 0 22 13 34 29 l22 30 -51 -1 c-28 0 -53
3 -56 6 -4 3 6 6 21 6 14 0 52 9 83 20 31 11 59 17 64 15 4 -3 17 7 28 21 23
29 29 53 8 32 -10 -9 -37 -12 -96 -10 -117 5 -90 23 46 30 93 5 102 7 63 14
-25 4 -71 7 -102 6 -32 -1 -58 3 -58 8 0 5 51 9 113 10 73 0 126 5 147 14 l33
14 -34 12 c-44 16 -52 17 -43 3 4 -8 -4 -9 -27 -4 -19 4 -35 11 -37 16 -2 5
-14 9 -26 9 -67 0 -21 42 53 48 31 2 61 8 67 13 14 11 64 14 89 5 16 -6 15 -4
-3 6 -12 8 -19 18 -15 22 4 5 -11 6 -34 3 -24 -3 -46 -1 -49 5 -3 5 -12 7 -19
4 -15 -5 -41 19 -28 27 8 5 75 17 119 22 12 2 32 10 45 18 13 8 41 20 61 27
46 14 57 28 20 24 -15 -2 -19 -1 -9 2 16 5 25 24 10 24 -18 -1 -100 -26 -118
-36 -11 -6 -32 -14 -47 -18 -21 -5 -26 -3 -22 8 3 8 13 18 22 21 14 6 13 8 -7
16 -16 6 -28 6 -35 -1 -5 -5 -17 -10 -26 -10 -9 0 -5 5 10 13 53 28 68 42 67
59 -1 20 -36 25 -54 7 -12 -12 -103 -2 -103 12 0 5 17 9 38 9 45 0 56 8 41 27
-14 17 2 17 20 1 11 -11 12 -10 6 1 -6 11 -2 13 18 7 16 -4 27 -2 29 6 3 8 21
12 48 11 40 -2 42 -1 27 14 -15 15 -14 18 11 40 15 13 33 23 41 23 8 0 12 2 9
5 -3 3 -31 2 -62 -3 -61 -10 -61 -7 -9 43 22 21 22 21 2 34 -18 10 -19 15 -7
29 12 15 11 16 -4 4 -9 -8 -23 -10 -29 -6 -7 4 -9 3 -6 -2 7 -11 -127 -7 -182
5 l-36 8 50 7 c61 8 157 34 133 35 -10 1 -18 5 -18 10 0 5 44 10 97 10 53 0
112 6 132 12 30 10 32 13 18 24 -9 7 -14 15 -10 18 3 4 1 7 -6 7 -9 0 -11 8
-7 25 5 18 2 25 -7 25 -9 0 -18 17 -23 43 l-9 42 -52 2 c-29 1 -55 -2 -58 -6
-2 -5 0 -23 5 -41 11 -39 7 -48 -15 -30 -13 11 -15 8 -15 -21 l-1 -34 -14 25
c-9 16 -15 19 -15 10 -1 -8 -10 4 -20 27 -17 38 -22 42 -50 38 l-30 -4 20 26
c15 19 17 30 9 44 -6 13 -6 19 1 19 5 0 10 7 10 15 0 8 -4 15 -9 15 -5 0 -13
9 -16 20 -5 16 -12 19 -32 14 -23 -6 -25 -4 -19 12 6 16 5 17 -6 6 -15 -16
-13 -275 3 -280 17 -7 9 -32 -10 -32 -12 0 -20 7 -20 18 0 9 -2 73 -5 142 -4
113 -6 125 -23 125 -15 0 -18 9 -18 63 -1 34 3 62 7 62 4 0 8 7 8 16 0 8 -4
12 -10 9 -6 -4 -10 15 -10 49 0 52 -10 70 -25 46 -4 -6 -11 -8 -16 -5 -5 4 -9
-3 -9 -14 0 -12 7 -21 15 -21 8 0 15 -5 15 -11 0 -6 -7 -9 -15 -6 -19 8 -31
-11 -16 -26 9 -9 14 -8 21 3 12 18 11 19 15 -53 2 -43 -1 -60 -11 -64 -18 -7
-15 -64 3 -90 12 -15 15 -16 23 -3 11 17 12 12 10 -52 -1 -26 4 -56 10 -67 7
-14 7 -21 0 -21 -5 0 -10 -12 -10 -27 0 -37 -13 -55 -32 -48 -8 3 -23 -1 -32
-10 -16 -16 -18 -15 -41 9 -24 26 -53 37 -39 15 4 -8 -3 -9 -25 -4 -20 4 -37
2 -47 -6 -12 -10 -17 -9 -28 6 -7 10 -18 15 -24 11 -7 -4 -12 -1 -12 8 0 9 -4
16 -9 16 -9 0 -19 40 -27 110 -3 19 -9 36 -14 38 -5 2 -7 9 -4 17 3 7 1 16 -4
19 -6 3 -9 14 -7 24 1 9 0 11 -2 5 -3 -7 -9 -13 -14 -13 -15 0 -10 -46 6 -60
20 -17 19 -32 -6 -59 -14 -15 -18 -25 -11 -30 12 -7 19 -101 9 -118 -8 -13
-58 -14 -74 -1 -20 16 -16 48 6 48 18 0 19 2 6 27 -8 15 -12 36 -10 48 3 11
-1 40 -9 65 -13 38 -15 41 -15 17 l-1 -29 -32 27 c-18 15 -38 37 -45 49 -11
18 -12 19 -13 3 0 -10 -12 -30 -26 -44 -15 -15 -22 -28 -16 -32 10 -6 23 -45
27 -80 1 -9 5 -24 9 -33 4 -9 3 -25 -3 -36 -12 -23 -64 -39 -69 -22 -2 6 -14
22 -27 36 -18 20 -22 32 -18 63 5 33 2 40 -16 46 -16 5 -22 18 -27 56 -6 45
-10 51 -40 64 -26 11 -34 20 -34 39 0 14 -4 27 -9 30 -11 7 -2 46 10 46 5 0 9
-9 9 -19 0 -14 8 -21 28 -23 22 -2 27 -7 24 -28 -2 -15 5 -36 16 -48 26 -29
34 -28 22 4 -13 33 -13 131 0 139 6 4 4 12 -5 22 -12 12 -13 18 -4 29 9 11 9
20 -1 39 -7 13 -17 22 -23 18 -5 -3 -13 1 -18 8 -7 11 -9 11 -9 -3 0 -9 -3
-25 -7 -35 -5 -15 -4 -16 8 -6 11 9 14 7 15 -13 1 -13 -2 -24 -7 -24 -9 0 -6
-22 8 -73 5 -18 4 -18 -16 0 -17 14 -21 29 -21 81 0 51 -3 63 -14 59 -26 -10
-25 21 0 48 14 15 23 32 20 39 -3 7 -5 7 -5 -1 -2 -22 -21 -14 -21 8 0 16 4
19 20 14 14 -5 20 -2 20 10 0 10 -7 15 -17 13 -13 -2 -17 3 -15 19 2 12 -2 24
-8 28 -5 3 -10 16 -10 28 0 21 0 21 -19 2 -16 -17 -21 -46 -30 -165 -15 -202
-16 -302 -3 -327 6 -11 14 -40 18 -63 l7 -43 -26 19 c-32 24 -35 30 -53 129
-22 119 -23 139 -12 153 6 7 8 29 4 51 -3 22 -2 42 3 45 5 3 14 28 21 56 7 27
16 50 21 50 5 0 7 11 3 25 -3 14 -2 25 2 25 5 0 9 33 9 73 0 106 4 125 29 130
21 4 20 4 -1 6 -23 1 -31 25 -13 36 6 3 10 19 10 35 0 22 4 28 15 24 10 -4 18
3 25 21 13 35 13 35 -11 35 -15 0 -19 4 -15 16 3 9 6 23 7 32 1 10 4 7 9 -8 5
-16 8 -19 9 -8 1 9 14 25 30 34 17 10 28 21 25 26 -3 4 1 8 8 8 8 1 7 5 -5 14
-10 8 -14 17 -9 20 5 3 13 38 16 77 9 85 13 99 34 99 13 0 13 2 -1 18 -10 10
-17 24 -17 30 0 7 -7 12 -15 12 -8 0 -15 4 -15 9 0 4 10 6 23 4 17 -3 25 2 33
25 7 17 9 42 7 56 -4 19 -1 26 11 27 41 3 63 19 68 47 1 12 6 21 9 20 14 -7
37 25 33 45 -2 12 0 33 5 47 5 14 12 34 16 45 l7 20 8 -20 c4 -12 1 -29 -8
-43 -8 -12 -11 -26 -7 -30 4 -4 10 -1 12 5 9 24 41 58 48 51 13 -13 11 -52 -3
-67 -7 -7 -11 -20 -8 -28 3 -8 -5 -29 -19 -47 -23 -30 -32 -56 -20 -56 2 0 20
16 39 35 21 21 41 32 50 29 8 -3 19 3 25 14 8 16 7 21 -4 26 -21 8 -19 50 4
70 14 13 24 14 44 7 18 -7 30 -6 42 3 17 12 16 13 -5 19 -12 3 -19 10 -16 16
3 5 -2 11 -11 13 -12 2 -14 6 -6 11 6 4 19 0 27 -9 15 -14 19 -14 54 8 l37 23
-30 6 c-36 8 -32 10 18 13 22 2 42 9 47 16 12 20 -1 50 -22 50 -10 0 -17 4
-14 9 3 5 0 9 -7 8 -28 -1 -47 3 -46 11 1 4 1 19 0 33 -1 26 -4 27 -98 39 -54
7 -105 15 -113 19 -25 13 -65 -3 -68 -27 -2 -12 -8 -22 -14 -22 -5 0 -20 -8
-32 -17 -22 -18 -24 -53 -3 -53 7 0 7 -4 -1 -12 -10 -10 -15 -10 -22 2 -7 12
-12 12 -22 2 -6 -6 -26 -12 -42 -13 l-31 -1 27 -12 27 -12 -30 -13 c-19 -8
-28 -19 -25 -27 3 -7 1 -16 -5 -20 -6 -3 -8 -13 -5 -21 5 -12 0 -14 -24 -11
-17 3 -33 1 -36 -4 -3 -4 0 -8 5 -8 16 0 13 -26 -4 -40 -13 -10 -19 -10 -35 5
-19 17 -18 18 10 49 17 17 30 39 30 49 0 9 5 17 10 17 6 0 14 8 17 18 4 9 30
41 59 71 29 30 70 78 91 107 37 52 63 68 63 40 0 -27 101 -34 215 -16 33 5 88
11 123 13 104 7 94 15 -53 38 -38 6 -92 14 -118 16 -43 4 -48 3 -45 -13 2 -13
-2 -18 -13 -16 -9 1 -22 -5 -29 -13 -7 -8 -24 -15 -39 -15 l-26 1 33 27 c36
30 42 47 12 39 -21 -5 -98 17 -84 25 5 2 25 5 44 7 21 2 44 12 58 27 19 20 29
23 65 19 l42 -6 -47 23 c-26 13 -46 27 -45 33 2 5 23 11 48 13 27 2 53 12 67
25 21 20 21 22 5 31 -10 6 -58 14 -108 18 -49 4 -115 13 -145 19 -81 16 -240
23 -240 10 0 -11 12 -15 43 -12 9 1 17 -3 17 -8 0 -6 -21 -11 -50 -11 -43 0
-50 3 -50 20 0 17 -7 20 -42 22 -24 1 -55 1 -70 0 -28 -2 -39 13 -16 20 7 3
-15 3 -50 0 -38 -3 -62 -1 -62 6 0 5 -15 12 -34 14 -19 2 -32 0 -30 -4 8 -12
-282 2 -331 16 -25 8 -47 11 -50 6 -7 -11 6 -20 32 -20 13 0 23 -4 23 -9 0
-16 -38 -23 -74 -13 -19 6 -37 8 -40 5 -3 -3 -11 -1 -18 4 -15 13 -98 22 -98
11 0 -10 -33 3 -42 16 -12 18 25 24 50 8 20 -13 22 -13 22 2 0 19 2 19 36 4
22 -10 28 -10 39 5 12 16 13 16 18 -5 5 -16 9 -20 17 -12 14 14 3 42 -21 49
-24 8 -40 -2 -32 -20 4 -11 1 -13 -11 -9 -9 3 -13 10 -10 15 5 8 -9 11 -56 11
-53 0 -59 -2 -65 -32 -4 -16 -11 -30 -16 -30 -5 0 -11 -11 -15 -25 -3 -14 -10
-25 -14 -25 -5 0 -4 15 1 33 21 66 19 72 -33 75 -27 2 -48 -1 -48 -7 0 -5 -3
-17 -6 -25 -5 -13 -1 -15 17 -12 13 3 30 5 37 5 7 1 11 5 8 9 -3 5 2 9 10 9 8
0 13 -7 12 -16 -2 -12 -17 -17 -52 -19 -27 -1 -55 -7 -62 -13 -19 -15 -24 12
-7 38 14 21 13 23 -14 30 -15 4 -36 6 -46 4 -14 -2 -18 3 -15 21 2 16 12 25
33 29 21 5 14 7 -24 5 -31 0 -56 -6 -58 -13 -3 -7 3 -9 17 -6 16 4 19 2 14
-12 -4 -10 -14 -15 -25 -12 -11 3 -19 2 -19 -2 0 -4 -11 -14 -25 -21 -13 -7
-22 -17 -19 -22 3 -5 -18 -32 -47 -59 -56 -54 -223 -142 -289 -153 -28 -5 -26
-2 15 13 71 26 181 87 175 97 -7 13 -29 6 -53 -17 -23 -21 -42 -26 -31 -7 5 8
-8 9 -52 4 -32 -4 -81 -9 -109 -11 -48 -4 -48 -4 -10 4 47 10 108 35 127 54 7
7 30 21 51 30 20 10 35 22 32 27 -3 5 10 12 30 16 47 9 55 24 11 24 -19 0 -37
4 -40 8 -7 12 -80 -1 -146 -26 -73 -27 -268 -74 -289 -69 -13 3 -13 5 4 12 11
5 23 13 27 19 4 6 22 11 41 12 68 5 237 69 237 91 0 7 18 16 40 19 22 4 45 13
51 20 9 12 4 11 -30 -1 -23 -8 -41 -10 -41 -5 0 6 9 10 20 10 33 0 26 35 -7
38 -16 1 -44 4 -63 7 -51 8 -290 11 -290 4 0 -3 -13 -6 -29 -7 -20 0 -31 5
-34 16 -4 14 -5 14 -6 -2 -1 -16 -6 -17 -38 -11 -33 6 -94 12 -143 15 -8 0
-43 0 -77 0 -50 -1 -61 -4 -56 -15 6 -17 -9 -19 -53 -6 -17 5 -75 12 -130 16
-54 4 -101 8 -104 9 -3 1 -27 -2 -55 -7z m405 -15 c0 -10 -80 -46 -87 -39 -3
3 12 15 34 26 42 22 53 25 53 13z m-515 -21 c-20 -18 -104 -55 -111 -48 -4 3
114 65 126 67 2 0 -4 -8 -15 -19z m935 -2 c0 -6 -4 -7 -10 -4 -5 3 -10 11 -10
16 0 6 5 7 10 4 6 -3 10 -11 10 -16z m125 1 c3 -5 1 -10 -4 -10 -6 0 -11 5
-11 10 0 6 2 10 4 10 3 0 8 -4 11 -10z m71 -36 c-19 -18 -21 -11 -4 19 7 14
13 17 15 10 3 -7 -3 -20 -11 -29z m-446 22 c0 -3 -4 -8 -10 -11 -5 -3 -10 -1
-10 4 0 6 5 11 10 11 6 0 10 -2 10 -4z m200 -12 c0 -8 -5 -12 -10 -9 -6 4 -8
11 -5 16 9 14 15 11 15 -7z m-1133 -80 c-3 -3 -12 -4 -19 -1 -8 3 -5 6 6 6 11
1 17 -2 13 -5z m-630 -50 c-3 -3 -12 -4 -19 -1 -8 3 -5 6 6 6 11 1 17 -2 13
-5z m138 -4 c3 -6 -4 -10 -17 -10 -18 0 -20 2 -8 10 19 12 18 12 25 0z m-295
-36 c0 -2 -14 -4 -31 -4 -16 0 -28 4 -25 9 5 8 56 3 56 -5z m80 0 c0 -2 -14
-4 -31 -4 -16 0 -28 4 -25 9 5 8 56 3 56 -5z m3530 -9 c0 -9 -6 -12 -15 -9 -8
4 -15 10 -15 15 0 5 7 9 15 9 8 0 15 -7 15 -15z m-4192 -2 c-10 -2 -26 -2 -35
0 -10 3 -2 5 17 5 19 0 27 -2 18 -5z m87 -47 c65 -18 28 -19 -50 -2 -41 10
-51 14 -30 15 17 0 53 -6 80 -13z m285 -31 c26 -10 29 -14 14 -14 -34 -1 -84
11 -84 20 0 12 29 10 70 -6z m77 -11 c-3 -3 -12 -4 -19 -1 -8 3 -5 6 6 6 11 1
17 -2 13 -5z m-382 -37 c13 -4 9 -5 -9 -4 -16 1 -32 9 -34 17 -4 12 -2 13 9 4
8 -7 23 -14 34 -17z m4545 -7 c0 -5 -5 -10 -11 -10 -5 0 -7 5 -4 10 3 6 8 10
11 10 2 0 4 -4 4 -10z m80 -10 c0 -14 -39 -18 -50 -6 -5 7 -8 15 -5 18 8 7 55
-3 55 -12z m-4422 -7 c-10 -2 -26 -2 -35 0 -10 3 -2 5 17 5 19 0 27 -2 18 -5z
m487 -3 c-3 -5 -13 -10 -21 -10 -8 0 -14 5 -14 10 0 6 9 10 21 10 11 0 17 -4
14 -10z m3570 -20 c18 -8 17 -9 -7 -9 -15 -1 -30 4 -33 9 -7 12 12 12 40 0z
m240 -60 c3 -6 -1 -7 -9 -4 -18 7 -21 14 -7 14 6 0 13 -4 16 -10z m58 -7 c-7
-2 -21 -2 -30 0 -10 3 -4 5 12 5 17 0 24 -2 18 -5z m-4480 -20 c-7 -2 -19 -2
-25 0 -7 3 -2 5 12 5 14 0 19 -2 13 -5z m1097 -3 c-8 -5 -24 -9 -35 -9 l-20 0
20 9 c11 5 27 9 35 9 13 1 13 0 0 -9z m3465 -10 c-3 -5 -10 -10 -16 -10 -5 0
-9 5 -9 10 0 6 7 10 16 10 8 0 12 -4 9 -10z m-6655 -20 c0 -5 -4 -10 -10 -10
-5 0 -10 5 -10 10 0 6 5 10 10 10 6 0 10 -4 10 -10z m3070 -5 c-14 -8 -36 -15
-50 -15 -14 0 -50 -7 -80 -16 -54 -15 -79 -21 -190 -43 -62 -11 -192 -20 -383
-26 -71 -2 -138 -6 -150 -9 -13 -3 -43 1 -67 8 -64 19 -36 25 150 31 85 3 196
7 245 10 50 3 127 7 173 9 66 3 86 7 97 22 13 17 16 17 26 4 7 -10 12 -11 15
-4 3 6 15 9 27 7 12 -2 54 5 92 16 39 11 81 19 95 20 l25 0 -25 -14z m-2103
-47 c-3 -8 -6 -5 -6 6 -1 11 2 17 5 13 3 -3 4 -12 1 -19z m5513 -38 c0 -5 -2
-10 -4 -10 -3 0 -8 5 -11 10 -3 6 -1 10 4 10 6 0 11 -4 11 -10z m-6384 -102
c-14 -9 -20 7 -11 30 6 15 8 15 15 -3 4 -12 3 -23 -4 -27z m1210 -4 c-30 -21
-44 -16 -17 7 13 11 27 17 30 13 3 -3 -3 -12 -13 -20z m5594 11 c0 -8 -9 -15
-19 -15 -10 0 -33 -16 -50 -35 -17 -19 -35 -35 -41 -35 -5 0 -10 -7 -10 -15 0
-8 -9 -15 -20 -15 -26 0 -26 16 1 31 14 7 19 17 16 30 -4 15 0 19 18 19 13 0
33 11 46 25 27 27 59 33 59 10z m-5538 -37 c-7 -7 -12 -8 -12 -2 0 14 12 26
19 19 2 -3 -1 -11 -7 -17z m-1615 -218 c9 -24 9 -30 -3 -30 -17 0 -36 34 -29
52 3 8 -7 18 -27 26 -26 10 -30 14 -18 22 19 12 60 -26 77 -70z m6577 49 c-3
-5 -1 -16 6 -24 8 -9 8 -15 0 -20 -6 -3 -8 -10 -5 -15 7 -11 -25 -23 -52 -21
-26 3 -29 -5 -9 -25 21 -21 -1 -77 -25 -64 -9 5 -19 6 -23 3 -10 -10 -7 17 5
40 28 54 93 146 101 141 4 -3 6 -10 2 -15z m446 -49 c0 -5 -4 -10 -10 -10 -5
0 -10 5 -10 10 0 6 5 10 10 10 6 0 10 -4 10 -10z m-7015 -70 c-3 -5 -12 -10
-18 -10 -7 0 -6 4 3 10 19 12 23 12 15 0z m6555 -20 c0 -5 -5 -10 -11 -10 -5
0 -7 5 -4 10 3 6 8 10 11 10 2 0 4 -4 4 -10z m-96 -59 c9 -15 -5 -41 -21 -41
-13 0 -13 -3 -3 -15 9 -10 9 -15 1 -15 -6 0 -11 -9 -11 -20 0 -11 -4 -20 -10
-20 -5 0 -10 -7 -10 -15 0 -8 -4 -15 -10 -15 -5 0 -9 -3 -8 -7 4 -13 -24 -73
-33 -73 -15 0 -10 30 6 37 11 4 14 14 11 36 -3 20 3 44 17 71 46 84 59 98 71
77z m-6566 -24 c3 -16 1 -17 -17 -7 -25 13 -28 33 -4 28 10 -2 19 -11 21 -21z
m6742 -21 c0 -3 -4 -8 -10 -11 -5 -3 -10 -1 -10 4 0 6 5 11 10 11 6 0 10 -2
10 -4z m-38 -58 c-7 -7 -12 -8 -12 -2 0 14 12 26 19 19 2 -3 -1 -11 -7 -17z
m98 -29 c-7 -11 -14 -19 -16 -16 -7 7 7 37 17 37 6 0 5 -9 -1 -21z m-122 -14
c-6 -14 -13 -23 -16 -21 -7 7 9 46 18 46 5 0 4 -11 -2 -25z m-18 -45 c0 -5 -7
-10 -16 -10 -8 0 -12 5 -9 10 3 6 10 10 16 10 5 0 9 -4 9 -10z m-6610 -30 c9
-16 8 -20 -5 -20 -8 0 -15 9 -15 20 0 11 2 20 5 20 2 0 9 -9 15 -20z m6589
-19 c-15 -5 -22 6 -14 19 6 9 10 9 16 -1 5 -8 4 -15 -2 -18z m111 25 c0 -3 -4
-8 -10 -11 -5 -3 -10 -1 -10 4 0 6 5 11 10 11 6 0 10 -2 10 -4z m-297 -49 c-4
-7 -9 -20 -10 -30 -4 -25 -27 -47 -49 -47 -14 0 -15 3 -6 12 7 7 12 20 12 30
0 20 39 60 52 52 4 -3 5 -11 1 -17z m167 3 c0 -5 -5 -10 -11 -10 -5 0 -7 5 -4
10 3 6 8 10 11 10 2 0 4 -4 4 -10z m-6540 -21 c0 -14 -17 -10 -23 5 -4 10 -1
13 9 9 7 -3 14 -9 14 -14z m6402 -11 c-7 -7 -12 -8 -12 -2 0 14 12 26 19 19 2
-3 -1 -11 -7 -17z m231 -8 c-5 -19 -23 -39 -23 -25 0 9 20 45 24 45 2 0 2 -9
-1 -20z m-6793 -4 c0 -3 -4 -8 -10 -11 -5 -3 -10 -1 -10 4 0 6 5 11 10 11 6 0
10 -2 10 -4z m6560 -26 c0 -5 -4 -10 -10 -10 -5 0 -10 5 -10 10 0 6 5 10 10
10 6 0 10 -4 10 -10z m267 -12 c-3 -8 -6 -5 -6 6 -1 11 2 17 5 13 3 -3 4 -12
1 -19z m-6845 -43 c15 -16 26 -36 23 -42 -2 -7 2 -13 10 -13 13 0 19 -12 13
-25 -2 -2 7 -12 20 -20 24 -17 21 -38 -3 -28 -9 3 -15 -1 -15 -11 0 -9 -6 -13
-13 -10 -15 5 -19 36 -5 45 4 3 -3 12 -17 19 -18 9 -25 20 -22 32 3 10 1 18
-4 18 -5 0 -9 7 -9 15 0 8 -4 15 -9 15 -11 0 -19 31 -13 50 5 13 6 13 10 0 3
-8 18 -28 34 -45z m6518 17 c0 -5 -9 -17 -20 -27 -12 -10 -18 -25 -15 -33 3
-9 -1 -12 -12 -10 -26 5 -24 36 4 58 27 21 43 25 43 12z m36 -18 c-4 -9 -9
-15 -11 -12 -3 3 -3 13 1 22 4 9 9 15 11 12 3 -3 3 -13 -1 -22z m126 11 c0 -5
-5 -11 -11 -13 -6 -2 -11 4 -11 13 0 9 5 15 11 13 6 -2 11 -8 11 -13z m94 -12
c-4 -16 -9 -39 -12 -53 -3 -14 -7 -60 -9 -102 -4 -83 -12 -109 -25 -87 -7 10
-11 10 -24 0 -14 -12 -15 -10 -10 20 4 19 15 60 24 92 10 31 14 59 9 62 -12 8
1 35 16 35 7 0 16 14 20 30 4 17 9 30 12 30 2 0 2 -12 -1 -27z m-26 7 c0 -5
-7 -10 -15 -10 -8 0 -15 5 -15 10 0 6 7 10 15 10 8 0 15 -4 15 -10z m-80 -43
c0 -1 -9 -20 -20 -42 -21 -41 -24 -38 -14 14 4 17 13 31 20 31 8 0 14 -1 14
-3z m-6460 -49 c0 -6 -6 -5 -15 2 -8 7 -15 14 -15 16 0 2 7 1 15 -2 8 -4 15
-11 15 -16z m6260 12 c0 -5 -7 -10 -16 -10 -8 0 -12 5 -9 10 3 6 10 10 16 10
5 0 9 -4 9 -10z m-6460 -24 c0 -3 -4 -8 -10 -11 -5 -3 -10 -1 -10 4 0 6 5 11
10 11 6 0 10 -2 10 -4z m6458 -15 c3 -8 -1 -12 -9 -9 -7 2 -15 10 -17 17 -3 8
1 12 9 9 7 -2 15 -10 17 -17z m200 -40 c4 -23 3 -23 -13 -8 -9 10 -21 17 -26
17 -5 0 -9 5 -9 11 0 6 10 9 23 7 14 -2 23 -11 25 -27z m-6311 -13 c-3 -7 -5
-2 -5 12 0 14 2 19 5 13 2 -7 2 -19 0 -25z m6103 -8 c0 -5 -7 -10 -15 -10 -8
0 -15 5 -15 10 0 6 7 10 15 10 8 0 15 -4 15 -10z m172 -2 c-14 -14 -16 -98 -2
-98 6 0 10 -4 10 -10 0 -13 -37 -13 -45 0 -11 18 18 120 34 120 12 0 12 -3 3
-12z m-198 -42 c-3 -8 -1 -17 4 -20 12 -7 3 -46 -10 -46 -6 0 -8 -11 -6 -25 3
-14 0 -29 -7 -35 -9 -7 -12 1 -13 34 -1 25 2 48 8 51 5 3 10 17 10 31 0 13 4
24 10 24 5 0 7 -6 4 -14z m-6207 -32 c-3 -3 -12 -4 -19 -1 -8 3 -5 6 6 6 11 1
17 -2 13 -5z m6120 -26 c-3 -8 -6 -5 -6 6 -1 11 2 17 5 13 3 -3 4 -12 1 -19z
m-5937 -49 c0 -11 -28 -19 -45 -13 -25 10 -17 21 15 21 17 0 30 -4 30 -8z
m6185 -29 c6 -20 -9 -50 -24 -50 -4 0 -5 16 -3 35 5 39 17 46 27 15z m-6115
-6 c0 -2 -9 -4 -21 -4 -11 0 -18 4 -14 10 5 8 35 3 35 -6z m5953 -30 c3 -18
-2 -33 -16 -47 l-20 -20 24 -10 24 -9 -25 -11 c-33 -15 -41 -27 -29 -48 5 -10
9 -37 8 -61 l0 -43 -19 45 c-21 50 -27 150 -9 150 6 0 8 7 5 16 -7 18 21 64
39 64 7 0 15 -12 18 -26z m-5870 1 c1 -5 -10 -11 -25 -13 -16 -2 -28 1 -28 7
0 20 49 26 53 6z m5777 -41 c0 -8 -4 -12 -10 -9 -5 3 -10 13 -10 21 0 8 5 12
10 9 6 -3 10 -13 10 -21z m-5690 6 c12 -8 9 -10 -13 -10 -16 0 -26 4 -22 10 8
12 16 12 35 0z m5937 -28 c-2 -20 -10 -49 -17 -62 l-14 -25 -6 25 c-6 24 5 63
25 87 15 18 15 17 12 -25z m-6341 5 c4 -4 -2 -7 -14 -7 -12 0 -22 4 -22 9 0
10 26 9 36 -2z m439 -17 c-3 -5 -13 -10 -21 -10 -8 0 -14 5 -14 10 0 6 9 10
21 10 11 0 17 -4 14 -10z m5642 -22 c-3 -7 -5 -2 -5 12 0 14 2 19 5 13 2 -7 2
-19 0 -25z m-5962 -8 c3 -5 1 -10 -4 -10 -6 0 -11 5 -11 10 0 6 2 10 4 10 3 0
8 -4 11 -10z m32 -22 c-3 -8 -6 -5 -6 6 -1 11 2 17 5 13 3 -3 4 -12 1 -19z
m6033 -2 c0 -3 -4 -8 -10 -11 -5 -3 -10 -1 -10 4 0 6 5 11 10 11 6 0 10 -2 10
-4z m-6060 -16 c0 -5 -4 -10 -10 -10 -5 0 -10 5 -10 10 0 6 5 10 10 10 6 0 10
-4 10 -10z m478 -12 c-3 -7 -12 -14 -21 -16 -12 -2 -15 1 -11 12 7 19 38 22
32 4z m5569 -50 c-3 -8 -6 -5 -6 6 -1 11 2 17 5 13 3 -3 4 -12 1 -19z m-5446
-18 c10 0 19 -4 19 -9 0 -8 -19 -9 -62 -2 -5 0 -8 6 -8 12 0 6 7 8 16 5 9 -3
24 -6 35 -6z m5600 -71 c-3 -54 -17 -54 -15 0 3 75 5 86 12 69 4 -9 5 -40 3
-69z m-6201 30 c0 -4 -6 -6 -14 -3 -11 4 -13 0 -10 -18 5 -23 5 -23 -11 -3 -9
11 -24 19 -33 18 -9 -1 -4 4 13 11 29 14 55 11 55 -5z m90 -9 c0 -5 -7 -10
-15 -10 -8 0 -15 5 -15 10 0 6 7 10 15 10 8 0 15 -4 15 -10z m55 0 c18 -8 17
-9 -7 -9 -16 -1 -28 4 -28 9 0 12 8 12 35 0z m475 0 c0 -5 -2 -10 -4 -10 -3 0
-8 5 -11 10 -3 6 -1 10 4 10 6 0 11 -4 11 -10z m40 6 c0 -2 -7 -6 -15 -10 -8
-3 -15 -1 -15 4 0 6 7 10 15 10 8 0 15 -2 15 -4z m5579 -38 c0 -28 -2 -30 -9
-13 -12 28 -12 45 0 45 6 0 10 -15 9 -32z m-6232 -20 c-3 -7 -5 -2 -5 12 0 14
2 19 5 13 2 -7 2 -19 0 -25z m644 9 c-10 -9 -11 -8 -5 6 3 10 9 15 12 12 3 -3
0 -11 -7 -18z m79 -37 c0 -5 -5 -10 -11 -10 -5 0 -7 5 -4 10 3 6 8 10 11 10 2
0 4 -4 4 -10z m-493 -6 c-3 -3 -12 -4 -19 -1 -8 3 -5 6 6 6 11 1 17 -2 13 -5z
m541 -41 c2 -7 -1 -13 -8 -13 -6 0 -9 4 -5 9 3 5 -5 12 -17 14 -21 4 -21 4 1
3 14 -1 26 -7 29 -13z m-501 1 c-3 -3 -12 -4 -19 -1 -8 3 -5 6 6 6 11 1 17 -2
13 -5z m78 -44 c14 -6 6 -8 -27 -7 -27 1 -48 5 -48 10 0 9 50 8 75 -3z m462
-7 c3 -7 -3 -9 -16 -6 -12 3 -21 10 -21 15 0 13 32 6 37 -9z m6566 -12 c3 -11
-1 -22 -8 -25 -18 -6 -24 2 -18 25 7 24 19 24 26 0z m-7008 -11 c3 -5 1 -10
-4 -10 -6 0 -11 5 -11 10 0 6 2 10 4 10 3 0 8 -4 11 -10z m-210 -20 c3 -6 -4
-10 -17 -10 -18 0 -20 2 -8 10 19 12 18 12 25 0z m686 -11 c12 -6 18 -17 15
-25 -4 -10 3 -14 27 -15 18 0 26 -3 20 -6 -7 -2 -13 -11 -13 -18 0 -7 -6 -15
-14 -18 -8 -3 -13 1 -12 11 0 10 -8 18 -20 20 -16 2 -20 8 -17 23 4 13 0 19
-10 19 -9 0 -19 5 -22 10 -8 13 21 13 46 -1z m-756 -9 c3 -5 -1 -10 -10 -10
-9 0 -13 5 -10 10 3 6 8 10 10 10 2 0 7 -4 10 -10z m495 -5 c7 -8 19 -15 26
-15 8 0 14 -5 14 -11 0 -6 9 -23 21 -37 12 -16 16 -28 9 -30 -16 -6 -40 18
-40 40 0 10 -8 21 -17 24 -30 9 -47 20 -51 32 -5 17 23 15 38 -3z m70 5 c0 -5
-7 -10 -15 -10 -8 0 -15 5 -15 10 0 6 7 10 15 10 8 0 15 -4 15 -10z m-447 -10
c8 0 8 -3 1 -10 -12 -12 -44 -3 -44 12 0 6 7 7 16 4 9 -3 21 -6 27 -6z m-133
-15 c0 -12 -19 -12 -23 0 -4 9 -1 12 9 8 7 -3 14 -7 14 -8z m170 -40 c11 -13
10 -14 -4 -9 -9 3 -16 10 -16 15 0 13 6 11 20 -6z m117 9 c-3 -3 -12 -4 -19
-1 -8 3 -5 6 6 6 11 1 17 -2 13 -5z m-200 -16 c0 -8 -12 -12 -31 -11 -42 2
-44 3 -21 13 30 13 52 12 52 -2z m372 -55 c2 -2 -8 -3 -22 -3 -20 0 -25 4 -21
15 5 13 9 13 23 3 9 -7 18 -14 20 -15z m7021 12 c7 -8 8 -15 2 -15 -5 0 -15 7
-22 15 -7 8 -8 15 -2 15 5 0 15 -7 22 -15z m-7260 -10 c14 -16 10 -18 -14 -9
-9 3 -16 10 -16 15 0 14 16 11 30 -6z m406 -31 c8 -19 19 -34 24 -34 6 0 10
-7 10 -15 0 -8 -6 -15 -12 -15 -22 0 -41 17 -33 29 4 7 2 18 -5 25 -6 8 -13
24 -15 35 -6 32 14 15 31 -25z m218 20 c6 -15 4 -15 -11 -3 -10 7 -20 15 -22
16 -2 2 3 3 11 3 9 0 19 -7 22 -16z m-664 -34 c0 -5 -4 -10 -10 -10 -5 0 -10
5 -10 10 0 6 5 10 10 10 6 0 10 -4 10 -10z m514 -5 c3 -8 1 -15 -4 -15 -6 0
-10 7 -10 15 0 8 2 15 4 15 2 0 6 -7 10 -15z m186 -3 c0 -10 5 -23 11 -29 7
-7 4 -12 -10 -16 -12 -3 -18 -1 -15 4 3 6 0 16 -6 24 -12 15 -6 35 11 35 5 0
9 -8 9 -18z m-613 -8 c-3 -3 -12 -4 -19 -1 -8 3 -5 6 6 6 11 1 17 -2 13 -5z
m6513 -14 c0 -5 -5 -10 -11 -10 -5 0 -7 5 -4 10 3 6 8 10 11 10 2 0 4 -4 4
-10z m-6474 -24 c16 -17 18 -26 4 -26 -5 0 -14 9 -20 20 -12 23 -5 26 16 6z
m364 -36 c-8 -5 -17 -7 -19 -4 -3 3 1 9 9 14 8 5 17 7 19 4 3 -3 -1 -9 -9 -14z
m224 2 c3 -5 -1 -9 -9 -9 -8 0 -12 4 -9 9 3 4 7 8 9 8 2 0 6 -4 9 -8z m-179
-53 c11 -17 2 -18 -30 -4 l-30 13 27 1 c15 1 30 -4 33 -10z m65 -49 c0 -5 -2
-10 -4 -10 -3 0 -8 5 -11 10 -3 6 -1 10 4 10 6 0 11 -4 11 -10z m-40 -23 c9
-3 3 -6 -12 -6 -20 -1 -28 4 -28 15 0 12 4 14 13 7 6 -6 19 -13 27 -16z m6640
8 c0 -10 -11 -15 -35 -15 -40 0 -45 7 -12 20 33 13 47 12 47 -5z m-6941 -53
c-12 -5 -39 17 -39 30 0 5 11 1 24 -9 13 -10 20 -20 15 -21z m321 -42 c0 -5
-2 -10 -4 -10 -3 0 -8 5 -11 10 -3 6 -1 10 4 10 6 0 11 -4 11 -10z m-150 -79
c5 -19 5 -31 -1 -31 -5 0 -9 6 -9 13 0 6 -3 23 -7 37 -9 36 6 19 17 -19z m160
19 c0 -5 -4 -10 -10 -10 -5 0 -10 5 -10 10 0 6 5 10 10 10 6 0 10 -4 10 -10z
m70 -35 c0 -8 -4 -15 -10 -15 -5 0 -10 7 -10 15 0 8 5 15 10 15 6 0 10 -7 10
-15z m-320 -10 c10 -12 10 -15 -4 -15 -9 0 -16 7 -16 15 0 8 2 15 4 15 2 0 9
-7 16 -15z m-70 -19 c0 -3 -4 -8 -10 -11 -5 -3 -10 -1 -10 4 0 6 5 11 10 11 6
0 10 -2 10 -4z m6902 -26 c21 0 22 -9 4 -32 -19 -26 -41 -22 -55 9 -10 21 -9
28 1 34 7 5 17 4 22 -1 6 -6 18 -10 28 -10z m-6487 -1 c11 -17 -1 -21 -15 -4
-8 9 -8 15 -2 15 6 0 14 -5 17 -11z m6415 -24 c0 -8 -8 -15 -18 -15 -10 0 -28
-7 -40 -16 -13 -9 -25 -14 -28 -12 -5 5 67 58 78 58 5 0 8 -7 8 -15z m-6786
-21 c8 -21 8 -24 -3 -24 -5 0 -11 9 -14 20 -6 24 8 27 17 4z m6672 -51 c-10
-10 -19 5 -10 18 6 11 8 11 12 0 2 -7 1 -15 -2 -18z m104 23 c0 -3 -4 -8 -10
-11 -5 -3 -10 -1 -10 4 0 6 5 11 10 11 6 0 10 -2 10 -4z m-6566 -71 c-3 -7 2
-15 10 -18 9 -4 16 -14 16 -23 0 -30 -23 -8 -47 46 l-24 54 25 -23 c13 -13 22
-29 20 -36z m6415 23 c-9 -17 -9 -24 5 -33 15 -12 15 -13 -3 -18 -10 -2 -25
-1 -32 4 -7 4 -22 3 -32 -3 -33 -17 -15 9 28 41 48 37 49 37 34 9z m-6543 -28
c18 0 21 -4 17 -21 -4 -16 -8 -17 -14 -7 -5 7 -16 13 -26 13 -10 0 -19 9 -21
20 -3 16 -1 18 9 8 7 -7 23 -13 35 -13z m309 -30 c3 -5 1 -10 -4 -10 -6 0 -11
5 -11 10 0 6 2 10 4 10 3 0 8 -4 11 -10z m6097 -52 c-23 -23 -44 -39 -48 -35
-4 4 -5 8 -3 10 2 1 21 17 42 35 53 45 57 40 9 -10z m-6389 15 c-7 -3 -9 -11
-6 -19 3 -8 1 -14 -5 -14 -9 0 -22 23 -22 40 0 4 10 6 22 2 12 -3 17 -7 11 -9z
m6482 -3 c3 -5 -1 -10 -10 -10 -9 0 -13 5 -10 10 3 6 8 10 10 10 2 0 7 -4 10
-10z m-6028 -52 c-3 -8 -6 -5 -6 6 -1 11 2 17 5 13 3 -3 4 -12 1 -19z m-449
-19 c-3 -8 -7 -3 -11 10 -4 17 -3 21 5 13 5 -5 8 -16 6 -23z m6402 16 c0 -16
-27 -32 -37 -22 -3 4 -3 13 0 22 8 20 37 20 37 0z m-113 -42 c-9 -9 -20 -13
-24 -9 -4 4 -1 11 7 16 25 16 35 11 17 -7z m65 -14 c-16 -18 -18 -18 -29 -3
-16 23 -9 32 21 27 23 -5 23 -6 8 -24z m-6177 11 c8 -13 -5 -13 -25 0 -13 8
-13 10 2 10 9 0 20 -4 23 -10z m-8 -52 c-3 -8 -6 -5 -6 6 -1 11 2 17 5 13 3
-3 4 -12 1 -19z m6125 0 c-8 -8 -9 -15 -1 -25 9 -10 7 -13 -9 -13 -11 0 -25
-7 -32 -15 -7 -8 -21 -15 -32 -15 -15 0 -10 8 23 40 23 22 47 40 53 40 6 0 5
-5 -2 -12z m-6104 -38 c10 -16 10 -20 -2 -20 -7 0 -16 9 -19 20 -3 11 -2 20 2
20 3 0 12 -9 19 -20z m6012 10 c0 -5 -5 -10 -11 -10 -5 0 -7 5 -4 10 3 6 8 10
11 10 2 0 4 -4 4 -10z m-6155 -18 c-3 -3 -11 0 -18 7 -9 10 -8 11 6 5 10 -3
15 -9 12 -12z m39 -37 c4 -10 -1 -15 -14 -15 -11 0 -20 7 -20 15 0 8 6 15 14
15 8 0 16 -7 20 -15z m121 5 c3 -5 2 -10 -4 -10 -5 0 -13 5 -16 10 -3 6 -2 10
4 10 5 0 13 -4 16 -10z m1 -47 c17 -22 18 -46 2 -41 -12 4 -31 58 -21 58 3 0
12 -8 19 -17z m6289 7 c3 -5 1 -10 -4 -10 -6 0 -11 5 -11 10 0 6 2 10 4 10 3
0 8 -4 11 -10z m-6410 -20 c3 -5 1 -10 -4 -10 -6 0 -11 5 -11 10 0 6 2 10 4
10 3 0 8 -4 11 -10z m6375 -20 c0 -5 -5 -10 -11 -10 -5 0 -7 5 -4 10 3 6 8 10
11 10 2 0 4 -4 4 -10z m-6246 -67 c4 -27 2 -43 -4 -43 -5 0 -10 21 -10 47 0
55 5 54 14 -4z m241 -43 c3 -5 1 -10 -4 -10 -6 0 -11 5 -11 10 0 6 2 10 4 10
3 0 8 -4 11 -10z m-233 -40 c3 -16 1 -30 -4 -30 -4 0 -8 14 -8 30 0 17 2 30 4
30 2 0 6 -13 8 -30z m6185 -36 c-3 -3 -12 -4 -19 -1 -8 3 -5 6 6 6 11 1 17 -2
13 -5z m-6181 -41 c-10 -10 -19 5 -10 18 6 11 8 11 12 0 2 -7 1 -15 -2 -18z
m5997 7 c3 -11 1 -20 -4 -20 -5 0 -9 9 -9 20 0 11 2 20 4 20 2 0 6 -9 9 -20z
m-5993 -71 c0 -5 -4 -9 -10 -9 -5 0 -10 7 -10 16 0 8 5 12 10 9 6 -3 10 -10
10 -16z m0 -44 c0 -8 -4 -15 -10 -15 -5 0 -10 7 -10 15 0 8 5 15 10 15 6 0 10
-7 10 -15z m5768 -103 c-28 -67 -56 -112 -71 -112 -15 0 -16 3 -7 20 6 11 14
20 19 20 4 0 15 18 24 40 8 22 21 40 27 40 6 0 10 -4 8 -8z m-4979 -111 c-11
-22 -25 -41 -31 -41 -8 0 12 44 36 78 19 27 16 3 -5 -37z m-609 -41 c0 -5 -2
-10 -4 -10 -3 0 -8 5 -11 10 -3 6 -1 10 4 10 6 0 11 -4 11 -10z m668 -25 c-6
-14 -15 -25 -19 -25 -5 0 -3 11 3 25 6 14 15 25 19 25 5 0 3 -11 -3 -25z m-88
5 c0 -5 -7 -10 -15 -10 -8 0 -15 5 -15 10 0 6 7 10 15 10 8 0 15 -4 15 -10z
m-620 -95 c0 -8 -4 -15 -10 -15 -5 0 -7 7 -4 15 4 8 8 15 10 15 2 0 4 -7 4
-15z m-367 -35 c-3 -11 -7 -20 -9 -20 -2 0 -4 9 -4 20 0 11 4 20 9 20 5 0 7
-9 4 -20z m1437 -110 c0 -5 -9 -10 -19 -10 -11 0 -23 5 -26 10 -4 6 5 10 19
10 14 0 26 -4 26 -10z m2915 -41 c-28 -10 -67 -18 -87 -18 -20 -1 -40 -5 -43
-11 -8 -12 -45 -13 -45 -1 0 5 24 14 53 21 28 7 70 18 91 25 21 7 48 10 60 7
16 -4 10 -9 -29 -23z m75 27 c0 -3 -4 -8 -10 -11 -5 -3 -10 -1 -10 4 0 6 5 11
10 11 6 0 10 -2 10 -4z m-3043 -12 c-3 -3 -12 -4 -19 -1 -8 3 -5 6 6 6 11 1
17 -2 13 -5z m-1477 -8 c0 -2 -7 -7 -16 -10 -8 -3 -12 -2 -9 4 6 10 25 14 25
6z m1617 -7 c-14 -8 -22 -8 -30 0 -8 8 -3 11 19 11 25 -1 27 -2 11 -11z m83
-25 c0 -2 -9 -4 -21 -4 -11 0 -18 4 -14 10 5 8 35 3 35 -6z m2560 -2 c0 -5
-11 -14 -25 -20 -14 -6 -25 -18 -25 -27 0 -11 -11 -15 -38 -15 -44 0 -86 -25
-78 -47 3 -8 1 -11 -4 -8 -6 3 -24 -3 -40 -15 -17 -12 -30 -18 -30 -15 0 4
-11 0 -25 -9 -35 -23 -40 -20 -16 10 20 25 20 25 0 45 -11 11 -25 17 -31 13
-6 -4 -8 -3 -4 4 3 6 32 13 64 17 31 3 66 11 77 16 12 6 27 11 35 13 8 2 22 5
30 8 40 13 105 36 108 37 1 0 2 -3 2 -7z m-4353 -8 c-3 -3 -12 -4 -19 -1 -8 3
-5 6 6 6 11 1 17 -2 13 -5z m60 0 c-3 -3 -12 -4 -19 -1 -8 3 -5 6 6 6 11 1 17
-2 13 -5z m1817 -25 c-3 -5 -17 -9 -32 -9 -25 1 -26 2 -9 15 20 14 51 10 41
-6z m2726 1 c0 -5 -7 -10 -15 -10 -8 0 -15 5 -15 10 0 6 7 10 15 10 8 0 15 -4
15 -10z m-4290 -20 c0 -5 -7 -10 -15 -10 -8 0 -15 5 -15 10 0 6 7 10 15 10 8
0 15 -4 15 -10z m1125 0 c7 -12 -2 -12 -30 0 -19 8 -19 9 2 9 12 1 25 -3 28
-9z m3163 -22 c10 -10 15 -10 21 1 7 11 10 9 16 -8 6 -20 9 -21 23 -8 25 21
60 27 72 12 13 -15 -21 -25 -99 -30 -25 -2 -55 -6 -66 -11 -17 -7 -18 -5 -8 7
11 13 5 15 -47 11 -39 -3 -60 -1 -60 6 0 14 62 26 88 18 11 -4 23 -2 27 4 8
13 18 13 33 -2z m-2698 -8 c0 -5 -4 -10 -10 -10 -5 0 -10 5 -10 10 0 6 5 10
10 10 6 0 10 -4 10 -10z m1900 -8 c0 -9 -9 -23 -20 -30 -11 -7 -20 -8 -20 -3
0 6 5 13 11 16 6 4 8 13 5 21 -3 8 1 14 9 14 8 0 15 -8 15 -18z m970 8 c0 -5
-4 -10 -10 -10 -5 0 -10 5 -10 10 0 6 5 10 10 10 6 0 10 -4 10 -10z m-330 -21
c0 -5 -10 -10 -22 -10 -72 -5 -98 -3 -98 8 0 7 13 10 35 8 19 -2 35 0 35 4 0
5 11 6 25 3 14 -2 25 -8 25 -13z m-889 -17 c-7 -2 -19 -1 -29 3 -14 5 -14 7
-2 15 9 5 20 4 28 -3 10 -8 11 -12 3 -15z m459 14 c0 -2 -7 -6 -15 -10 -8 -3
-15 -1 -15 4 0 6 7 10 15 10 8 0 15 -2 15 -4z m-520 -10 c0 -3 -4 -8 -10 -11
-5 -3 -10 -1 -10 4 0 6 5 11 10 11 6 0 10 -2 10 -4z m810 -11 c0 -12 -19 -12
-23 0 -4 9 -1 12 9 8 7 -3 14 -7 14 -8z m-2183 -21 c-3 -3 -12 -4 -19 -1 -8 3
-5 6 6 6 11 1 17 -2 13 -5z m1448 -19 c-16 -7 -34 -10 -40 -7 -5 3 1 9 15 13
42 12 57 8 25 -6z m302 -11 c-3 -3 -21 -9 -39 -13 -18 -4 -34 -12 -34 -19 -3
-24 -4 -26 -14 -16 -7 7 -6 19 3 37 9 17 17 23 23 17 7 -7 17 -5 30 4 18 14
46 5 31 -10z m-520 10 c-3 -3 -12 -4 -19 -1 -8 3 -5 6 6 6 11 1 17 -2 13 -5z
m957 -9 c-4 -8 -14 -15 -23 -15 -14 1 -13 3 3 15 25 19 27 19 20 0z m-2148 -4
c5 -5 18 -11 29 -14 11 -3 4 -5 -17 -6 -28 -1 -38 3 -38 14 0 17 11 20 26 6z
m-36 -11 c0 -5 -2 -10 -4 -10 -3 0 -8 5 -11 10 -3 6 -1 10 4 10 6 0 11 -4 11
-10z m2130 -4 c-19 -18 -70 -30 -70 -16 0 5 11 10 24 10 14 0 28 5 31 10 3 6
11 10 18 10 7 0 6 -5 -3 -14z m-1095 -16 c-3 -5 -11 -10 -16 -10 -6 0 -7 5 -4
10 3 6 11 10 16 10 6 0 7 -4 4 -10z m524 -11 c-22 -14 -33 -10 -19 6 7 8 17
12 22 9 6 -4 5 -10 -3 -15z m-569 1 c0 -5 -8 -10 -17 -10 -15 0 -16 2 -3 10
19 12 20 12 20 0z m200 -5 c0 -8 -6 -15 -14 -15 -8 0 -16 7 -20 15 -4 10 1 15
14 15 11 0 20 -7 20 -15z m-1105 -14 c17 -7 15 -9 -13 -13 -31 -4 -40 1 -25
15 8 8 12 8 38 -2z m995 -11 c-26 -20 -41 -21 -47 -3 -4 10 11 15 62 21 6 1
-1 -7 -15 -18z m-900 -12 c0 -13 -63 -6 -67 8 -2 6 10 8 32 6 19 -2 35 -8 35
-14z m726 6 c-21 -7 -43 -11 -49 -7 -14 9 20 22 58 22 29 0 29 -1 -9 -15z
m1021 -1 c-9 -9 -20 -13 -24 -9 -4 4 -1 11 7 16 25 16 35 11 17 -7z m-930 -9
c-3 -3 -12 -4 -19 -1 -8 3 -5 6 6 6 11 1 17 -2 13 -5z m413 -21 c-12 -8 -24
-12 -28 -8 -9 9 28 36 40 29 5 -4 0 -13 -12 -21z m-1467 -3 c-3 -11 -12 -20
-19 -20 -18 0 -18 5 2 24 20 21 23 20 17 -4z m979 -15 c-5 -30 -27 -33 -42 -6
-10 20 -2 29 31 30 12 1 15 -6 11 -24z m-1277 5 c3 -5 -3 -10 -15 -10 -12 0
-18 5 -15 10 3 6 10 10 15 10 5 0 12 -4 15 -10z m569 -1 c-3 -5 -16 -9 -30 -9
-33 0 -24 15 10 16 14 1 23 -2 20 -7z m506 -4 c-46 -18 -61 -18 -30 0 14 8 34
14 45 14 13 0 8 -5 -15 -14z m990 -19 c0 -16 -33 -27 -50 -16 -10 6 4 16 48
29 1 1 2 -5 2 -13z m30 -7 c0 -6 -4 -7 -10 -4 -5 3 -10 11 -10 16 0 6 5 7 10
4 6 -3 10 -11 10 -16z m-1823 -14 c-4 -8 -11 -15 -17 -15 -7 0 -7 6 0 21 13
23 26 19 17 -6z m313 11 c0 -2 -7 -7 -16 -10 -8 -3 -12 -2 -9 4 6 10 25 14 25
6z m370 -11 c-7 -8 -17 -12 -22 -9 -6 4 -5 10 3 15 22 14 33 10 19 -6z m-614
-41 c-10 -14 -20 -23 -23 -20 -3 3 2 17 11 32 10 14 20 23 23 20 3 -3 -2 -17
-11 -32z m-86 6 c-19 -13 -30 -13 -30 0 0 6 10 10 23 10 18 0 19 -2 7 -10z
m412 -42 c-9 -9 -15 -9 -24 0 -9 9 -7 12 12 12 19 0 21 -3 12 -12z m91 -5 c-7
-2 -19 -2 -25 0 -7 3 -2 5 12 5 14 0 19 -2 13 -5z"/>
<path d="M6556 5938 c3 -5 10 -6 15 -3 13 9 11 12 -6 12 -8 0 -12 -4 -9 -9z"/>
<path d="M6740 5909 c0 -17 -5 -20 -21 -16 -19 5 -89 -29 -89 -43 0 -3 19 -5
43 -4 29 0 50 7 64 21 27 27 35 50 17 57 -9 4 -14 -1 -14 -15z"/>
<path d="M6978 5873 c6 -2 18 -2 25 0 6 3 1 5 -13 5 -14 0 -19 -2 -12 -5z"/>
<path d="M3900 5860 c0 -5 9 -10 21 -10 11 0 17 5 14 10 -3 6 -13 10 -21 10
-8 0 -14 -4 -14 -10z"/>
<path d="M3763 5833 c9 -2 25 -2 35 0 9 3 1 5 -18 5 -19 0 -27 -2 -17 -5z"/>
<path d="M7450 5821 c-24 -7 -25 -7 -4 -18 13 -8 25 -8 35 -2 7 5 28 7 44 4
20 -4 25 -3 15 3 -24 15 -63 20 -90 13z"/>
<path d="M7660 5790 c0 -5 4 -10 9 -10 6 0 13 5 16 10 3 6 -1 10 -9 10 -9 0
-16 -4 -16 -10z"/>
<path d="M3568 5783 c6 -2 18 -2 25 0 6 3 1 5 -13 5 -14 0 -19 -2 -12 -5z"/>
<path d="M6714 5759 c-3 -6 -1 -16 4 -21 8 -8 11 -5 9 11 -1 24 -3 25 -13 10z"/>
<path d="M6672 5723 c-6 -2 -10 -8 -7 -13 6 -10 45 -1 45 11 0 10 -17 11 -38
2z"/>
<path d="M8070 5710 c0 -5 5 -10 10 -10 6 0 10 5 10 10 0 6 -4 10 -10 10 -5 0
-10 -4 -10 -10z"/>
<path d="M2229 5654 c-11 -13 -9 -15 12 -10 13 4 31 2 39 -4 13 -9 13 -11 0
-20 -12 -7 -12 -12 -2 -22 10 -10 18 -6 42 22 17 19 30 38 30 43 0 15 -107 7
-121 -9z"/>
<path d="M8634 5639 c-5 -9 9 -13 34 -10 8 1 19 -2 25 -7 7 -5 26 -12 42 -16
l30 -7 -24 17 c-28 20 -99 35 -107 23z"/>
<path d="M8600 5620 c0 -5 5 -10 10 -10 6 0 10 5 10 10 0 6 -4 10 -10 10 -5 0
-10 -4 -10 -10z"/>
<path d="M3370 5595 c0 -7 13 -15 30 -18 21 -5 28 -11 24 -22 -4 -9 1 -17 10
-21 28 -11 28 2 2 34 -28 32 -66 48 -66 27z"/>
<path d="M2480 5589 c0 -5 5 -7 10 -4 6 3 10 8 10 11 0 2 -4 4 -10 4 -5 0 -10
-5 -10 -11z"/>
<path d="M1815 5544 c-21 -15 -29 -93 -10 -106 5 -4 10 -13 11 -20 0 -7 2 -21
2 -30 4 -38 19 -15 28 42 9 55 8 61 -10 75 -20 14 -20 14 7 14 31 1 36 16 9
30 -12 6 -23 5 -37 -5z"/>
<path d="M8594 5535 c-19 -14 -19 -14 2 -15 12 0 24 7 28 15 7 19 -5 19 -30 0z"/>
<path d="M1720 5521 c0 -6 5 -13 10 -16 6 -3 10 1 10 9 0 9 -4 16 -10 16 -5 0
-10 -4 -10 -9z"/>
<path d="M8675 5510 c3 -5 8 -10 11 -10 2 0 4 5 4 10 0 6 -5 10 -11 10 -5 0
-7 -4 -4 -10z"/>
<path d="M8470 5500 c0 -5 8 -10 18 -10 9 0 28 -3 42 -5 22 -5 21 -3 -5 9 -36
18 -55 20 -55 6z"/>
<path d="M1680 5440 c0 -10 4 -21 9 -24 5 -3 7 -15 4 -26 -3 -11 -1 -20 5 -20
17 0 25 20 13 34 -6 7 -9 20 -6 28 4 9 -1 18 -9 21 -11 5 -16 0 -16 -13z"/>
<path d="M2340 5440 c0 -5 5 -10 10 -10 6 0 10 5 10 10 0 6 -4 10 -10 10 -5 0
-10 -4 -10 -10z"/>
<path d="M2960 5419 c-12 -16 -19 -33 -15 -37 7 -7 55 46 55 61 0 17 -20 5
-40 -24z"/>
<path d="M2170 5410 c0 -5 5 -10 11 -10 5 0 7 5 4 10 -3 6 -8 10 -11 10 -2 0
-4 -4 -4 -10z"/>
<path d="M2015 5399 c-7 -11 22 -49 37 -49 4 0 8 9 8 21 0 11 -4 17 -10 14 -5
-3 -10 -2 -10 4 0 5 6 12 13 14 6 3 2 6 -10 6 -12 1 -25 -4 -28 -10z"/>
<path d="M8331 5364 c-26 -30 -22 -41 8 -24 12 6 21 20 21 30 0 26 -2 25 -29
-6z"/>
<path d="M2865 5350 c-3 -5 -1 -10 4 -10 6 0 11 5 11 10 0 6 -2 10 -4 10 -3 0
-8 -4 -11 -10z"/>
<path d="M8678 5313 c7 -3 16 -2 19 1 4 3 -2 6 -13 5 -11 0 -14 -3 -6 -6z"/>
<path d="M8770 5300 c-12 -8 -11 -10 8 -10 12 0 22 5 22 10 0 13 -11 13 -30 0z"/>
<path d="M8265 5279 c-4 -6 -5 -13 -2 -16 7 -7 27 6 27 18 0 12 -17 12 -25 -2z"/>
<path d="M1563 5223 c1 -14 9 -29 16 -31 10 -3 12 0 8 12 -4 10 -7 24 -7 32 0
8 -4 14 -9 14 -6 0 -9 -12 -8 -27z"/>
<path d="M1459 5208 c4 -12 13 -24 20 -26 9 -3 9 2 0 22 -15 32 -32 35 -20 4z"/>
<path d="M1222 5210 c-12 -5 -30 -6 -39 -3 -11 5 -14 3 -8 -6 5 -9 19 -11 41
-8 29 5 34 3 34 -14 0 -24 28 -25 37 -1 4 9 11 21 17 25 7 6 4 7 -6 3 -10 -3
-20 -1 -23 4 -7 12 -22 12 -53 0z"/>
<path d="M1410 5195 c0 -8 7 -15 15 -15 9 0 12 6 9 15 -4 8 -10 15 -15 15 -5
0 -9 -7 -9 -15z"/>
<path d="M942 5178 c-8 -10 -3 -13 21 -12 75 2 88 4 82 14 -9 14 -91 12 -103
-2z"/>
<path d="M1425 5160 c-3 -5 -1 -10 4 -10 6 0 11 5 11 10 0 6 -2 10 -4 10 -3 0
-8 -4 -11 -10z"/>
<path d="M8841 5154 c-12 -14 -11 -16 4 -12 10 1 20 9 23 16 5 17 -10 15 -27
-4z"/>
<path d="M1530 5131 c0 -5 5 -13 10 -16 6 -3 10 -2 10 4 0 5 -4 13 -10 16 -5
3 -10 2 -10 -4z"/>
<path d="M1395 5120 c-3 -5 1 -10 9 -10 9 0 16 5 16 10 0 6 -4 10 -9 10 -6 0
-13 -4 -16 -10z"/>
<path d="M1246 5035 c4 -8 8 -15 10 -15 2 0 4 7 4 15 0 8 -4 15 -10 15 -5 0
-7 -7 -4 -15z"/>
<path d="M8440 5041 c0 -17 18 -21 24 -6 3 9 0 15 -9 15 -8 0 -15 -4 -15 -9z"/>
<path d="M1160 5030 c0 -5 12 -10 28 -9 24 0 25 1 7 9 -27 12 -35 12 -35 0z"/>
<path d="M8736 5001 c-4 -7 -5 -15 -2 -18 9 -9 19 4 14 18 -4 11 -6 11 -12 0z"/>
<path d="M8761 4993 c-1 -13 3 -23 8 -23 13 0 35 30 27 37 -4 4 -11 1 -15 -6
-7 -11 -10 -11 -14 0 -3 8 -6 4 -6 -8z"/>
<path d="M1168 4953 c-27 -2 -48 -7 -48 -11 0 -4 -21 -8 -47 -10 -76 -4 -71
-19 9 -25 103 -9 157 -2 182 22 15 16 17 21 6 21 -8 0 -24 2 -35 4 -11 1 -41
1 -67 -1z"/>
<path d="M8710 4948 c0 -9 -9 -20 -21 -23 -23 -8 -18 -18 11 -20 23 -2 34 20
20 43 -9 16 -9 16 -10 0z"/>
<path d="M8651 4881 c-8 -5 -11 -16 -8 -25 7 -18 27 -22 27 -5 0 6 12 9 27 7
18 -2 29 2 31 12 3 17 -54 25 -77 11z"/>
<path d="M1159 4863 c-23 -12 -23 -13 12 -13 19 0 44 7 55 15 18 13 17 14 -12
12 -16 -1 -41 -8 -55 -14z"/>
<path d="M8502 4752 c-14 -31 -15 -42 -3 -42 8 0 25 60 18 66 -1 1 -8 -9 -15
-24z"/>
<path d="M1258 4763 c7 -3 16 -2 19 1 4 3 -2 6 -13 5 -11 0 -14 -3 -6 -6z"/>
<path d="M930 4746 c0 -2 9 -6 20 -9 11 -3 20 -1 20 4 0 5 -9 9 -20 9 -11 0
-20 -2 -20 -4z"/>
<path d="M8450 4640 c0 -5 5 -10 10 -10 6 0 10 5 10 10 0 6 -4 10 -10 10 -5 0
-10 -4 -10 -10z"/>
<path d="M1190 4615 c0 -9 5 -15 11 -13 6 2 11 8 11 13 0 5 -5 11 -11 13 -6 2
-11 -4 -11 -13z"/>
<path d="M8442 4598 c-7 -7 -12 -21 -12 -31 0 -11 -9 -28 -21 -38 -13 -11 -18
-23 -13 -31 12 -19 15 -78 3 -78 -5 0 -9 5 -9 10 0 6 -7 10 -15 10 -21 0 -19
-16 5 -40 33 -33 24 -78 -11 -59 -14 7 -19 6 -19 -4 0 -8 -7 -20 -15 -27 -18
-15 -11 -30 16 -30 10 0 18 -3 18 -7 -3 -20 2 -24 17 -12 13 10 17 10 24 -2
14 -22 29 0 35 51 3 25 12 50 20 56 16 12 20 34 7 34 -5 0 -14 17 -20 37 -10
31 -9 41 7 67 31 52 17 128 -17 94z m-34 -291 c10 4 13 2 8 -5 -8 -14 -66 -16
-66 -3 0 13 23 20 34 11 5 -5 15 -6 24 -3z"/>
<path d="M1030 4579 c0 -5 5 -7 10 -4 6 3 10 8 10 11 0 2 -4 4 -10 4 -5 0 -10
-5 -10 -11z"/>
<path d="M1175 4580 c-3 -5 -2 -10 4 -10 5 0 13 5 16 10 3 6 2 10 -4 10 -5 0
-13 -4 -16 -10z"/>
<path d="M1190 4520 c-12 -8 -11 -10 8 -10 12 0 22 5 22 10 0 13 -11 13 -30 0z"/>
<path d="M8613 4504 c-3 -8 -1 -20 6 -27 8 -8 11 -4 11 16 0 30 -7 35 -17 11z"/>
<path d="M1130 4500 c0 -5 5 -10 10 -10 6 0 10 5 10 10 0 6 -4 10 -10 10 -5 0
-10 -4 -10 -10z"/>
<path d="M8572 4458 c-14 -14 -16 -38 -4 -38 5 0 14 11 20 25 12 26 4 33 -16
13z"/>
<path d="M1120 4390 c0 -5 5 -10 10 -10 6 0 10 5 10 10 0 6 -4 10 -10 10 -5 0
-10 -4 -10 -10z"/>
<path d="M1180 4381 c0 -6 -7 -8 -16 -4 -11 4 -15 2 -12 -7 5 -17 48 -21 48
-4 0 7 -4 16 -10 19 -5 3 -10 2 -10 -4z"/>
<path d="M8687 4370 c-9 -11 -17 -26 -17 -33 0 -7 5 -4 11 5 5 10 16 15 24 12
16 -7 19 4 7 23 -6 9 -12 7 -25 -7z"/>
<path d="M1164 4316 c-8 -22 3 -33 18 -18 9 9 9 15 0 24 -9 9 -13 7 -18 -6z"/>
<path d="M8206 4321 c-8 -12 3 -41 15 -41 5 0 9 11 9 25 0 25 -14 34 -24 16z"/>
<path d="M1405 4251 c-3 -5 -1 -12 5 -16 5 -3 10 1 10 9 0 18 -6 21 -15 7z"/>
<path d="M8405 4230 c-3 -5 -3 -14 0 -20 3 -5 1 -10 -4 -10 -6 0 -11 4 -11 9
0 5 -8 8 -17 7 -16 -3 -18 -13 -14 -77 2 -41 7 -78 11 -84 4 -5 3 -50 -2 -99
-10 -91 -6 -105 30 -106 10 0 12 11 8 45 -5 31 -3 45 5 45 8 0 9 4 0 13 -6 8
-8 17 -4 20 3 4 1 7 -7 7 -9 0 -10 3 -1 14 7 8 9 25 5 40 -5 20 -3 25 8 21 10
-4 14 4 13 32 0 30 -4 37 -17 35 -9 -1 -19 2 -23 8 -3 5 3 10 13 10 23 0 32
18 32 66 0 33 -12 45 -25 24z m-15 -350 c0 -5 -2 -10 -4 -10 -3 0 -8 5 -11 10
-3 6 -1 10 4 10 6 0 11 -4 11 -10z"/>
<path d="M1428 4213 c7 -3 16 -2 19 1 4 3 -2 6 -13 5 -11 0 -14 -3 -6 -6z"/>
<path d="M1310 4195 c-10 -12 -9 -16 3 -21 20 -7 37 3 37 22 0 18 -24 18 -40
-1z"/>
<path d="M8640 4195 c0 -8 5 -15 11 -15 6 0 9 -9 6 -20 -5 -19 9 -38 19 -27
11 10 -9 77 -22 77 -8 0 -14 -7 -14 -15z"/>
<path d="M8213 4161 c-4 -15 -2 -26 5 -29 7 -2 12 -20 12 -39 0 -55 10 -34 15
34 4 49 2 60 -10 60 -9 0 -18 -12 -22 -26z"/>
<path d="M1360 4114 c-13 -33 -13 -34 5 -34 9 0 18 -7 21 -15 11 -27 21 -16
18 20 -4 59 -27 74 -44 29z"/>
<path d="M1500 4136 c0 -2 7 -9 15 -16 12 -10 15 -10 15 4 0 9 -7 16 -15 16
-8 0 -15 -2 -15 -4z"/>
<path d="M8896 4125 c-9 -26 -7 -35 9 -35 8 0 19 10 26 21 8 17 8 20 -1 14 -7
-4 -16 -2 -20 5 -5 8 -9 7 -14 -5z"/>
<path d="M8586 4102 c-12 -11 -5 -22 14 -22 14 0 20 -7 20 -21 0 -16 -4 -20
-17 -15 -16 5 -16 5 -3 -6 9 -7 14 -21 12 -32 -6 -26 20 -40 36 -19 11 15 12
15 12 1 0 -9 -6 -19 -12 -21 -10 -4 -10 -7 -1 -14 18 -13 12 -131 -7 -144 -12
-8 -9 -9 10 -7 23 3 25 7 26 58 0 30 4 97 7 148 5 59 3 92 -3 92 -6 0 -10 -4
-10 -10 0 -14 -20 -12 -52 4 -15 8 -29 12 -32 8z m84 -63 c0 -10 -7 -19 -15
-19 -15 0 -21 31 -9 43 11 10 24 -3 24 -24z"/>
<path d="M1369 4038 c-7 -25 -4 -40 12 -49 22 -11 39 -4 39 16 0 16 -47 46
-51 33z"/>
<path d="M9004 3895 c11 -8 14 -15 8 -15 -7 0 -12 -4 -12 -10 0 -5 14 -10 30
-10 17 0 30 5 30 10 0 6 -4 10 -10 10 -5 0 -9 6 -7 13 1 7 -10 13 -28 15 -29
2 -29 2 -11 -13z"/>
<path d="M1316 3881 c16 -14 74 -31 74 -20 0 5 -9 9 -20 9 -11 0 -20 5 -20 10
0 6 -10 10 -22 10 -13 0 -18 -4 -12 -9z"/>
<path d="M8990 3837 c0 -7 6 -19 13 -26 10 -11 10 -13 0 -7 -7 4 -13 3 -13 -2
0 -6 7 -12 15 -16 8 -3 12 -12 9 -21 -4 -9 0 -15 9 -15 18 0 33 59 23 85 -7
18 -56 20 -56 2z"/>
<path d="M8880 3784 c0 -16 5 -24 13 -22 18 7 20 35 2 41 -11 5 -15 0 -15 -19z"/>
<path d="M1460 3738 c0 -4 6 -8 14 -8 7 0 19 -7 26 -15 7 -8 25 -15 40 -15 15
0 34 -8 41 -19 8 -10 31 -21 52 -24 33 -5 37 -4 27 8 -7 8 -21 15 -32 15 -11
0 -22 8 -25 19 -3 11 -12 23 -21 27 -27 11 -122 21 -122 12z"/>
<path d="M8890 3730 c0 -11 4 -20 9 -20 11 0 22 26 14 34 -12 12 -23 5 -23
-14z"/>
<path d="M9320 3736 c0 -8 5 -18 10 -21 6 -3 10 3 10 14 0 12 -4 21 -10 21 -5
0 -10 -6 -10 -14z"/>
<path d="M9220 3725 c0 -8 4 -15 10 -15 5 0 7 7 4 15 -4 8 -8 15 -10 15 -2 0
-4 -7 -4 -15z"/>
<path d="M8530 3680 c0 -5 4 -10 9 -10 6 0 13 5 16 10 3 6 -1 10 -9 10 -9 0
-16 -4 -16 -10z"/>
<path d="M1457 3664 c3 -11 11 -22 17 -26 14 -10 32 -10 23 -1 -4 3 -2 12 4
20 9 10 8 13 -4 13 -8 0 -23 3 -31 6 -13 5 -15 2 -9 -12z"/>
<path d="M1538 3633 c7 -3 16 -2 19 1 4 3 -2 6 -13 5 -11 0 -14 -3 -6 -6z"/>
<path d="M9330 3631 c0 -5 5 -13 10 -16 6 -3 10 -2 10 4 0 5 -4 13 -10 16 -5
3 -10 2 -10 -4z"/>
<path d="M8645 3608 c-7 -27 18 -88 35 -88 13 0 13 17 0 25 -6 4 -8 15 -5 26
4 10 -1 28 -9 40 l-15 22 -6 -25z"/>
<path d="M9251 3604 c0 -11 3 -14 6 -6 3 7 2 16 -1 19 -3 4 -6 -2 -5 -13z"/>
<path d="M9121 3594 c0 -11 3 -14 6 -6 3 7 2 16 -1 19 -3 4 -6 -2 -5 -13z"/>
<path d="M9276 3595 c4 -8 13 -15 21 -15 13 0 13 3 3 15 -7 8 -16 15 -21 15
-5 0 -6 -7 -3 -15z"/>
<path d="M8760 3571 c0 -17 5 -33 11 -36 15 -10 17 -4 12 33 -6 40 -23 42 -23
3z"/>
<path d="M9510 3559 c11 -8 12 -12 3 -16 -7 -2 -13 -16 -13 -29 0 -15 -4 -23
-10 -19 -7 4 -10 -7 -8 -30 3 -42 13 -54 21 -25 3 11 13 20 24 20 10 0 26 7
37 15 18 13 18 15 -3 48 -12 19 -28 38 -37 41 -24 9 -31 7 -14 -5z m34 -50
c-8 -14 -34 -11 -34 4 0 8 3 17 7 20 9 9 34 -13 27 -24z"/>
<path d="M9466 3525 c4 -8 8 -15 10 -15 2 0 4 7 4 15 0 8 -4 15 -10 15 -5 0
-7 -7 -4 -15z"/>
<path d="M8730 3478 c0 -9 5 -20 10 -23 13 -8 13 5 0 25 -8 13 -10 13 -10 -2z"/>
<path d="M8740 3430 c0 -5 5 -10 11 -10 5 0 7 5 4 10 -3 6 -8 10 -11 10 -2 0
-4 -4 -4 -10z"/>
<path d="M1585 3410 c3 -5 11 -10 16 -10 6 0 7 5 4 10 -3 6 -11 10 -16 10 -6
0 -7 -4 -4 -10z"/>
<path d="M9438 3263 c7 -3 16 -2 19 1 4 3 -2 6 -13 5 -11 0 -14 -3 -6 -6z"/>
<path d="M9271 3234 c0 -11 3 -14 6 -6 3 7 2 16 -1 19 -3 4 -6 -2 -5 -13z"/>
<path d="M1496 3143 c-11 -11 -6 -23 9 -23 8 0 15 4 15 9 0 13 -16 22 -24 14z"/>
<path d="M1422 3129 c2 -6 8 -10 13 -10 5 0 11 4 13 10 2 6 -4 11 -13 11 -9 0
-15 -5 -13 -11z"/>
<path d="M1590 3110 c0 -5 10 -10 23 -10 18 0 19 2 7 10 -19 13 -30 13 -30 0z"/>
<path d="M1520 3090 c0 -5 5 -10 10 -10 6 0 10 5 10 10 0 6 -4 10 -10 10 -5 0
-10 -4 -10 -10z"/>
<path d="M9310 3038 c-36 -10 -57 -24 -49 -32 3 -3 27 6 54 19 53 26 52 29 -5
13z"/>
<path d="M1548 3023 c7 -3 16 -2 19 1 4 3 -2 6 -13 5 -11 0 -14 -3 -6 -6z"/>
<path d="M1841 3014 c6 -8 18 -14 25 -14 8 0 14 6 14 14 0 8 -10 14 -25 14
-20 0 -23 -3 -14 -14z"/>
<path d="M9335 3009 c-9 -14 -2 -20 14 -10 8 6 9 11 3 15 -6 3 -14 1 -17 -5z"/>
<path d="M1510 2998 c1 -7 12 -26 25 -43 18 -21 33 -30 59 -31 26 0 33 3 28
14 -4 11 -1 13 8 7 10 -6 12 -4 7 9 -5 14 -3 17 8 12 8 -3 15 -1 15 4 0 16
-50 12 -56 -4 -9 -23 -36 -29 -32 -7 2 10 -3 25 -11 34 -16 20 -51 23 -51 5z"/>
<path d="M1670 2974 c0 -17 17 -27 25 -14 3 5 15 10 26 10 10 0 19 4 19 8 0 4
-16 8 -35 8 -21 0 -35 -5 -35 -12z"/>
<path d="M9190 2975 c-8 -9 -8 -15 -2 -15 12 0 26 19 19 26 -2 2 -10 -2 -17
-11z"/>
<path d="M1745 2961 c-3 -6 -4 -15 -1 -20 8 -12 58 -1 53 13 -5 15 -43 20 -52
7z"/>
<path d="M9230 2960 c0 -5 4 -10 9 -10 6 0 13 5 16 10 3 6 -1 10 -9 10 -9 0
-16 -4 -16 -10z"/>
<path d="M1643 2910 c-1 -11 4 -20 13 -20 16 0 16 2 8 24 -8 22 -19 20 -21 -4z"/>
<path d="M1615 2900 c3 -5 8 -10 11 -10 2 0 4 5 4 10 0 6 -5 10 -11 10 -5 0
-7 -4 -4 -10z"/>
<path d="M1820 2872 c0 -16 24 -32 47 -32 21 0 22 2 11 20 -12 19 -58 29 -58
12z"/>
<path d="M1709 2863 c-7 -44 -6 -63 2 -63 5 0 9 16 9 35 0 30 -8 49 -11 28z"/>
<path d="M9270 2830 c-9 -6 -10 -10 -3 -10 6 0 15 5 18 10 8 12 4 12 -15 0z"/>
<path d="M1730 2811 c0 -12 -3 -21 -7 -21 -5 0 -7 -54 -5 -120 2 -80 0 -120
-7 -120 -6 0 -11 -5 -11 -11 0 -5 5 -7 10 -4 6 3 10 1 10 -4 0 -6 -6 -11 -13
-11 -9 0 -13 -17 -13 -52 -1 -48 -52 -226 -73 -253 -5 -5 -14 -27 -20 -47 -7
-21 -16 -38 -20 -38 -4 0 -17 -18 -30 -40 -12 -22 -26 -40 -32 -40 -5 0 -9 -5
-9 -11 0 -6 -7 -18 -16 -27 -15 -15 -15 -16 1 -22 14 -5 13 -8 -9 -25 -14 -11
-26 -29 -26 -41 0 -19 5 -20 53 -19 28 1 38 0 20 -2 -17 -2 -37 -11 -45 -20
-12 -14 -8 -16 40 -11 28 3 52 1 52 -3 0 -5 -9 -9 -20 -9 -27 0 -26 -19 2 -29
31 -11 2 -18 -47 -10 -22 3 -30 7 -18 8 12 0 25 6 28 12 5 7 -8 9 -37 7 -35
-2 -44 -7 -46 -24 -4 -27 35 -34 147 -27 74 5 80 7 67 22 -12 14 -12 18 1 30
11 10 12 15 3 21 -8 5 -9 10 -2 14 6 4 8 14 5 23 -5 13 -2 12 15 -3 17 -14 19
-21 10 -37 -7 -15 -7 -22 3 -28 10 -6 11 -9 2 -9 -29 0 -11 -29 20 -33 31 -4
31 -4 -6 -5 -34 -2 -37 -4 -33 -27 3 -14 0 -25 -5 -25 -5 0 -9 -4 -9 -8 0 -5
29 -14 64 -21 55 -11 73 -10 126 3 34 9 79 29 99 45 20 15 50 35 67 44 32 16
48 40 36 51 -14 15 -9 36 9 36 14 0 19 7 19 28 0 16 8 34 20 42 13 9 20 26 20
47 0 23 5 33 15 33 18 0 20 17 3 22 -6 2 -8 10 -4 16 4 7 16 10 27 7 11 -4 19
-2 19 4 0 6 -9 11 -20 11 -11 0 -20 6 -20 14 0 8 -4 16 -10 18 -6 2 -5 17 2
41 8 26 8 41 2 45 -15 10 -13 80 2 86 7 3 15 -1 18 -9 3 -8 0 -15 -6 -17 -6
-2 1 -12 16 -21 14 -10 26 -13 26 -8 0 26 -22 62 -45 73 -19 8 -22 14 -14 24
8 10 5 16 -10 26 -25 15 -27 28 -5 28 14 0 14 1 0 16 -9 8 -16 23 -16 31 0 9
-7 25 -16 35 -13 14 -14 21 -5 32 10 12 8 17 -9 26 -11 6 -30 8 -40 5 -14 -4
-22 -1 -27 11 -4 10 -2 19 5 22 15 5 16 34 1 49 -6 6 -17 9 -25 6 -7 -2 -21 0
-31 7 -16 10 -14 11 10 7 15 -2 30 -1 33 4 4 8 -10 13 -58 21 -14 3 -15 6 -3
21 11 15 17 16 34 7 17 -9 21 -8 21 4 0 17 -17 30 -40 32 -45 3 -51 5 -45 14
4 6 -7 13 -23 16 -17 3 -32 14 -35 24 -3 11 -18 19 -45 23 -22 4 -47 10 -56
13 -12 4 -16 0 -16 -15z m17 -483 c-3 -8 -6 -5 -6 6 -1 11 2 17 5 13 3 -3 4
-12 1 -19z m-17 -19 c0 -5 -7 -9 -15 -9 -15 0 -20 12 -9 23 8 8 24 -1 24 -14z
m-20 -101 c-12 -10 -26 -15 -31 -12 -14 8 1 26 17 20 8 -3 14 1 14 9 0 8 -8
15 -17 16 -15 0 -15 2 2 8 32 13 44 -18 15 -41z m20 -38 c13 -1 13 -2 -1 -10
-20 -12 -52 -7 -57 10 -3 9 2 11 19 7 13 -4 31 -7 39 -7z m0 -66 c0 -41 -2
-45 -15 -34 -9 8 -13 20 -9 29 3 9 7 23 9 31 5 21 4 20 10 20 3 0 5 -21 5 -46z
m-16 -90 c12 -4 14 -10 6 -18 -5 -7 -14 -30 -19 -52 -9 -39 -9 -39 -10 -7 -1
18 -7 38 -14 45 -10 9 -11 16 -3 25 13 14 18 15 40 7z m-153 -35 c-16 -6 -28
-6 -35 1 -7 7 1 10 25 9 32 0 33 -1 10 -10z m379 -169 c0 -5 -8 -10 -17 -10
-15 0 -16 2 -3 10 19 12 20 12 20 0z m36 -1 c3 -6 1 -16 -6 -22 -10 -9 -11 -9
-6 1 4 6 2 12 -3 12 -6 0 -11 5 -11 10 0 13 17 13 26 -1z m-119 -6 c-20 -2
-52 -2 -70 0 -17 2 0 4 38 4 39 0 53 -2 32 -4z m93 -22 c0 -5 -7 -11 -15 -15
-15 -5 -20 5 -8 17 9 10 23 9 23 -2z"/>
<path d="M1681 2784 c0 -11 3 -14 6 -6 3 7 2 16 -1 19 -3 4 -6 -2 -5 -13z"/>
<path d="M1370 2581 c0 -11 26 -22 34 -14 3 3 3 10 0 14 -7 12 -34 11 -34 0z"/>
<path d="M9110 2580 c-12 -8 -11 -10 8 -10 12 0 22 5 22 10 0 13 -11 13 -30 0z"/>
<path d="M9060 2541 c0 -5 7 -12 16 -15 22 -9 24 -8 18 9 -7 16 -34 21 -34 6z"/>
<path d="M1625 2528 c-5 -15 -35 -164 -35 -173 0 -4 -7 1 -16 9 -8 9 -12 20
-9 26 3 5 1 10 -5 10 -7 0 -10 7 -6 15 3 8 1 15 -4 15 -16 0 -52 -176 -53
-260 0 -39 -4 -50 -16 -50 -13 0 -14 -2 -2 -9 8 -5 15 -19 16 -30 1 -11 -2
-18 -7 -15 -4 3 -8 -3 -8 -12 0 -16 -1 -16 -15 2 -8 10 -15 29 -15 42 0 21 -3
23 -31 17 -17 -4 -38 -8 -45 -9 -7 -1 -17 -6 -21 -11 -4 -4 2 -5 14 -2 13 3
26 1 29 -4 3 -5 10 -7 15 -3 6 3 5 -3 -3 -15 -8 -13 -24 -22 -43 -23 -19 -1
-12 -3 20 -7 28 -4 55 -3 62 2 6 4 14 3 18 -3 13 -22 32 -8 63 49 34 61 67
145 54 138 -4 -3 -16 -1 -27 4 -17 6 -14 8 12 8 21 1 33 7 37 19 7 27 19 104
21 137 1 17 5 56 10 88 7 51 1 77 -10 45z m-55 -199 c0 -11 -4 -18 -10 -14 -5
3 -7 12 -3 20 7 21 13 19 13 -6z m30 -4 c0 -8 -4 -15 -10 -15 -5 0 -7 7 -4 15
4 8 8 15 10 15 2 0 4 -7 4 -15z"/>
<path d="M9115 2520 c3 -5 14 -10 23 -10 15 0 15 2 2 10 -20 13 -33 13 -25 0z"/>
<path d="M1410 2500 c0 -6 5 -10 11 -10 8 0 8 -4 1 -13 -7 -8 -6 -17 3 -30 16
-23 28 -7 19 27 -6 24 -34 45 -34 26z"/>
<path d="M1376 2471 c-4 -6 -3 -11 3 -11 13 0 1 -33 -16 -43 -20 -12 -16 -33
10 -46 16 -8 16 -10 2 -5 -11 4 -37 9 -59 12 -29 3 -37 1 -34 -9 5 -15 55 -31
80 -25 12 3 15 -2 13 -15 -2 -12 2 -19 11 -19 8 0 14 -5 14 -11 0 -5 -4 -8 -9
-5 -5 3 -11 -3 -14 -14 -3 -11 0 -20 6 -20 7 0 4 -5 -6 -11 -9 -5 -22 -7 -27
-4 -17 11 -11 -7 7 -20 21 -15 32 -5 52 45 14 35 22 114 13 138 -6 17 -22 15
-22 -4 0 -8 -4 -13 -9 -10 -5 4 -5 18 2 36 8 22 8 33 0 41 -8 8 -13 8 -17 0z"/>
<path d="M1300 2311 c0 -5 9 -7 20 -4 11 3 20 7 20 9 0 2 -9 4 -20 4 -11 0
-20 -4 -20 -9z"/>
<path d="M1455 2281 c-4 -7 -4 -24 0 -39 l7 -27 9 23 c10 27 -3 63 -16 43z"/>
<path d="M1420 2238 c0 -7 -18 -30 -40 -50 -41 -39 -41 -42 -1 -38 13 1 27 -4
32 -11 11 -19 39 7 39 36 0 13 6 26 13 28 6 3 2 6 -11 6 -19 1 -22 5 -17 21 4
11 2 20 -4 20 -6 0 -11 -6 -11 -12z"/>
<path d="M2135 2240 c-3 -5 -1 -10 4 -10 6 0 11 5 11 10 0 6 -2 10 -4 10 -3 0
-8 -4 -11 -10z"/>
<path d="M1460 2176 c0 -17 14 -29 23 -20 8 8 -3 34 -14 34 -5 0 -9 -6 -9 -14z"/>
<path d="M928 2143 c7 -3 16 -2 19 1 4 3 -2 6 -13 5 -11 0 -14 -3 -6 -6z"/>
<path d="M8290 2100 c0 -5 7 -7 15 -4 8 4 15 8 15 10 0 2 -7 4 -15 4 -8 0 -15
-4 -15 -10z"/>
<path d="M3367 2083 c-4 -3 -7 -11 -7 -17 0 -6 5 -5 12 2 6 6 9 14 7 17 -3 3
-9 2 -12 -2z"/>
<path d="M1265 2040 c4 -6 17 -9 30 -7 40 5 41 17 1 17 -23 0 -35 -4 -31 -10z"/>
<path d="M3343 2043 c-7 -3 -13 -11 -13 -20 0 -12 2 -12 16 2 18 17 16 25 -3
18z"/>
<path d="M8165 2020 c-3 -5 1 -10 9 -10 9 0 16 5 16 10 0 6 -4 10 -9 10 -6 0
-13 -4 -16 -10z"/>
<path d="M1410 2010 c-13 -8 -13 -10 2 -10 9 0 20 5 23 10 8 13 -5 13 -25 0z"/>
<path d="M1320 2000 c0 -5 7 -7 15 -4 8 4 15 8 15 10 0 2 -7 4 -15 4 -8 0 -15
-4 -15 -10z"/>
<path d="M8796 1951 c-9 -14 4 -41 20 -41 8 0 14 4 14 9 0 5 3 16 6 25 4 11 0
16 -14 16 -12 0 -23 -4 -26 -9z"/>
<path d="M1417 1939 c-9 -6 -21 -8 -26 -4 -5 3 -12 -5 -14 -17 l-4 -23 -2 23
c-1 22 -4 23 -63 17 -35 -3 -71 -6 -81 -6 -10 0 -17 -5 -15 -11 5 -13 66 -18
90 -6 9 4 18 4 20 -2 2 -5 24 -13 50 -16 36 -5 51 -3 62 9 28 28 15 54 -17 36z"/>
<path d="M8855 1940 c4 -6 11 -8 16 -5 14 9 11 15 -7 15 -8 0 -12 -5 -9 -10z"/>
<path d="M1368 1843 c-59 -5 -61 -17 -6 -31 32 -8 44 -8 50 1 7 11 11 39 6 35
-2 -1 -24 -3 -50 -5z"/>
<path d="M2130 1825 c-65 -63 -147 -119 -209 -140 -200 -71 -204 -75 -90 -76
l84 -2 -65 -11 -65 -11 54 -3 c57 -3 114 16 125 43 3 9 18 15 35 15 21 0 38
11 65 40 20 22 36 45 36 50 0 6 5 10 11 10 21 0 40 31 44 70 2 22 3 40 2 39
-1 0 -13 -11 -27 -24z"/>
<path d="M8386 1813 c-8 -20 -5 -22 15 -14 14 5 15 8 4 18 -10 10 -15 9 -19
-4z"/>
<path d="M8643 1815 c-8 -22 6 -33 17 -15 13 20 12 30 0 30 -6 0 -13 -7 -17
-15z"/>
<path d="M8365 1741 c-3 -5 -1 -12 5 -16 5 -3 10 1 10 9 0 18 -6 21 -15 7z"/>
<path d="M1529 1729 c-10 -6 -7 -9 14 -9 29 0 35 5 14 13 -8 3 -20 1 -28 -4z"/>
<path d="M1580 1730 c0 -5 9 -10 20 -10 11 0 20 5 20 10 0 6 -9 10 -20 10 -11
0 -20 -4 -20 -10z"/>
<path d="M1448 1723 c7 -3 16 -2 19 1 4 3 -2 6 -13 5 -11 0 -14 -3 -6 -6z"/>
<path d="M3395 1690 c-3 -5 -1 -10 4 -10 6 0 11 5 11 10 0 6 -2 10 -4 10 -3 0
-8 -4 -11 -10z"/>
<path d="M1700 1668 c-57 -10 -91 -28 -53 -28 35 0 123 23 123 32 0 4 -3 7 -7
7 -5 -1 -33 -6 -63 -11z"/>
<path d="M1468 1643 c6 -2 18 -2 25 0 6 3 1 5 -13 5 -14 0 -19 -2 -12 -5z"/>
<path d="M1538 1643 c7 -3 16 -2 19 1 4 3 -2 6 -13 5 -11 0 -14 -3 -6 -6z"/>
<path d="M3205 1630 c-3 -5 1 -10 9 -10 9 0 16 5 16 10 0 6 -4 10 -9 10 -6 0
-13 -4 -16 -10z"/>
<path d="M2067 1615 c-4 -8 -2 -17 2 -20 5 -2 11 4 14 15 6 23 -8 27 -16 5z"/>
<path d="M1473 1613 c15 -2 39 -2 55 0 15 2 2 4 -28 4 -30 0 -43 -2 -27 -4z"/>
<path d="M2025 1570 c-8 -13 5 -13 25 0 13 8 13 10 -2 10 -9 0 -20 -4 -23 -10z"/>
<path d="M1760 1547 c0 -16 29 -18 61 -3 l34 15 -47 -2 c-27 -1 -48 -6 -48
-10z"/>
<path d="M1595 1540 c-3 -5 0 -10 7 -10 7 0 23 -3 36 -6 16 -5 22 -2 22 10 0
18 -54 23 -65 6z"/>
<path d="M1473 1533 c9 -2 25 -2 35 0 9 3 1 5 -18 5 -19 0 -27 -2 -17 -5z"/>
<path d="M3475 1530 c-3 -5 -1 -10 4 -10 6 0 11 5 11 10 0 6 -2 10 -4 10 -3 0
-8 -4 -11 -10z"/>
<path d="M1595 1499 c-34 -5 -29 -6 27 -8 37 0 69 3 73 8 6 10 -34 10 -100 0z"/>
<path d="M1760 1501 l-45 -6 64 -8 c37 -4 67 -3 70 2 3 5 17 11 31 14 37 7
-68 5 -120 -2z"/>
<path d="M1568 1413 c7 -3 16 -2 19 1 4 3 -2 6 -13 5 -11 0 -14 -3 -6 -6z"/>
<path d="M7482 1385 c-11 -13 -9 -15 13 -15 16 0 25 5 23 12 -6 18 -21 19 -36
3z"/>
<path d="M2346 1383 c-3 -4 -27 -6 -51 -4 -27 1 -45 -2 -45 -9 0 -6 10 -10 23
-9 12 1 40 1 62 0 l40 -2 -30 -14 -30 -13 50 0 c28 0 44 2 37 5 -21 8 -2 23
31 23 27 1 29 2 14 11 -10 6 -29 8 -42 5 -13 -3 -27 -2 -30 4 -7 12 -19 13
-29 3z"/>
<path d="M2030 1360 c-22 -7 -21 -8 13 -9 23 -1 36 3 32 9 -7 11 -10 11 -45 0z"/>
<path d="M2175 1360 c-3 -5 3 -10 15 -10 12 0 18 5 15 10 -3 6 -10 10 -15 10
-5 0 -12 -4 -15 -10z"/>
<path d="M4190 1350 c-8 -5 -12 -11 -9 -14 2 -3 11 -1 19 4 8 5 12 11 9 14 -2
3 -11 1 -19 -4z"/>
<path d="M7456 1351 c-4 -6 -13 -8 -21 -4 -9 3 -21 1 -28 -4 -16 -13 -53 -23
-105 -29 -28 -3 -52 -13 -68 -29 l-25 -25 33 -1 c18 -1 38 0 43 1 6 1 21 4 34
6 13 3 32 9 41 14 9 5 35 11 57 14 22 2 55 11 74 19 19 7 40 12 47 9 9 -3 13
2 10 14 -2 14 -14 20 -45 22 -22 2 -44 -1 -47 -7z"/>
<path d="M2575 1279 c-27 -3 -38 -7 -23 -7 14 -1 32 -4 40 -7 13 -5 47 11 38
17 -3 2 -27 1 -55 -3z"/>
<path d="M7495 1269 c-5 -15 -10 -17 -19 -9 -8 6 -31 7 -57 3 -24 -3 -56 -7
-71 -7 -16 -1 -28 -4 -28 -8 0 -3 -8 -4 -17 -2 -10 3 -27 -2 -38 -10 -17 -13
-18 -17 -6 -25 8 -5 22 -6 30 -2 9 4 30 7 46 6 17 -1 40 5 53 12 13 8 41 15
63 15 28 0 49 8 67 24 26 23 26 23 5 24 -13 0 -24 -8 -28 -21z m-117 -36 c-10
-2 -26 -2 -35 0 -10 3 -2 5 17 5 19 0 27 -2 18 -5z"/>
<path d="M3490 1272 c0 -16 79 -37 91 -25 6 6 8 16 5 22 -8 13 -96 15 -96 3z"/>
<path d="M7103 1223 c-7 -2 -13 -8 -13 -12 0 -10 69 -1 76 10 5 9 -42 11 -63
2z"/>
<path d="M6505 1194 c-19 -20 -6 -31 19 -17 9 5 12 13 7 21 -6 11 -12 10 -26
-4z"/>
<path d="M6316 1174 c-7 -19 14 -29 25 -13 12 20 11 26 -6 26 -8 0 -16 -6 -19
-13z"/>
<path d="M6193 1152 c-29 -15 -53 -30 -53 -35 0 -8 52 2 60 12 5 6 11 7 66 10
l37 1 -26 20 c-14 11 -27 20 -29 20 -1 -1 -27 -13 -55 -28z"/>
<path d="M5736 1092 c-9 -15 23 -24 42 -12 10 5 12 10 5 10 -6 0 -18 3 -26 6
-8 3 -18 1 -21 -4z"/>
<path d="M5695 1070 c-3 -5 -1 -10 4 -10 6 0 11 5 11 10 0 6 -2 10 -4 10 -3 0
-8 -4 -11 -10z"/>
<path d="M3610 1062 c0 -12 67 -28 77 -18 10 9 2 14 -39 21 -25 5 -38 3 -38
-3z"/>
<path d="M4305 1010 c-3 -5 -1 -10 4 -10 6 0 11 5 11 10 0 6 -2 10 -4 10 -3 0
-8 -4 -11 -10z"/>
<path d="M5358 1005 c-3 -3 -15 -7 -26 -10 -21 -4 -72 -34 -72 -42 0 -12 119
37 120 50 0 8 -14 10 -22 2z"/>
<path d="M4168 993 c7 -3 16 -2 19 1 4 3 -2 6 -13 5 -11 0 -14 -3 -6 -6z"/>
<path d="M5790 990 c0 -5 9 -10 20 -10 11 0 20 5 20 10 0 6 -9 10 -20 10 -11
0 -20 -4 -20 -10z"/>
<path d="M4273 983 c9 -2 23 -2 30 0 6 3 -1 5 -18 5 -16 0 -22 -2 -12 -5z"/>
<path d="M5700 975 c0 -18 65 -21 76 -4 5 8 -1 10 -19 5 -14 -3 -29 -2 -32 4
-9 15 -25 12 -25 -5z"/>
<path d="M5514 948 c-3 -4 1 -8 10 -8 8 0 16 -5 18 -12 5 -13 38 -4 38 11 0
11 -59 20 -66 9z"/>
<path d="M4595 930 c28 -12 57 -12 50 0 -3 6 -21 10 -38 9 -27 0 -29 -2 -12
-9z"/>
<path d="M4740 916 c0 -10 28 -13 41 -5 10 6 7 9 -13 9 -16 0 -28 -2 -28 -4z"/>
<path d="M4845 900 c3 -5 10 -10 16 -10 5 0 9 5 9 10 0 6 -7 10 -16 10 -8 0
-12 -4 -9 -10z"/>
<path d="M4945 890 c-4 -6 3 -10 14 -10 25 0 27 6 6 13 -8 4 -17 2 -20 -3z"/>
</g>
</svg>
