<?xml version="1.0" standalone="no"?>
<!DOCTYPE svg PUBLIC "-//W3C//DTD SVG 20010904//EN"
 "http://www.w3.org/TR/2001/REC-SVG-20010904/DTD/svg10.dtd">
<svg version="1.0" xmlns="http://www.w3.org/2000/svg"
 width="1024.000000pt" height="702.000000pt" viewBox="0 0 1024.000000 702.000000"
 preserveAspectRatio="xMidYMid meet">
<metadata>
Created by potrace 1.16, written by Peter Selinger 2001-2019
</metadata>
<g transform="translate(0.000000,702.000000) scale(0.100000,-0.100000)"
fill="#000000" stroke="none">
<path d="M6182 6998 c-18 -18 -15 -36 9 -43 23 -8 41 9 36 35 -3 19 -29 24
-45 8z"/>
<path d="M6990 6950 c0 -5 5 -10 10 -10 6 0 10 5 10 10 0 6 -4 10 -10 10 -5 0
-10 -4 -10 -10z"/>
<path d="M5517 6913 c-4 -3 -7 -15 -7 -25 0 -22 26 -24 34 -2 10 25 -10 45
-27 27z"/>
<path d="M9537 6903 c-2 -1 -41 -5 -87 -8 -47 -3 -111 -10 -143 -16 -43 -7
-62 -7 -72 1 -11 9 -21 6 -43 -10 -17 -12 -35 -19 -41 -16 -6 4 -18 0 -27 -9
-9 -9 -23 -14 -30 -11 -8 3 -14 1 -14 -4 0 -6 -6 -10 -14 -10 -8 0 -16 -6 -19
-14 -3 -8 -26 -18 -52 -21 -25 -4 -48 -11 -51 -16 -11 -18 -24 -8 -24 19 0 45
-12 55 -45 38 -16 -9 -36 -12 -49 -7 -30 10 -96 8 -98 -4 -1 -5 7 -11 18 -13
34 -5 74 -24 74 -34 0 -7 -5 -6 -14 1 -17 14 -76 3 -83 -15 -3 -9 -10 -11 -21
-5 -10 5 -34 8 -55 8 -22 -1 -42 5 -47 12 -4 8 -15 11 -25 8 -9 -4 -13 -3 -10
2 11 18 -134 11 -168 -8 -31 -17 -36 -17 -122 -1 -49 10 -121 21 -160 25 -38
4 -76 12 -83 17 -9 8 -20 7 -36 -1 -28 -16 -78 -10 -129 15 -34 16 -43 17 -85
5 -26 -8 -69 -15 -97 -17 -195 -13 -193 -12 -265 -53 -38 -22 -94 -45 -125
-51 -72 -15 -204 -21 -181 -8 21 12 22 42 1 34 -8 -3 -15 -1 -15 5 0 6 -7 18
-16 26 -14 15 -14 17 0 25 23 13 10 27 -21 24 -33 -4 -40 -20 -19 -42 9 -8 16
-22 16 -29 0 -10 6 -12 18 -8 15 6 15 5 4 -10 -13 -15 -16 -15 -38 0 -14 9
-28 29 -31 45 -6 31 -11 33 -47 17 -19 -9 -31 -8 -57 5 -40 20 -39 20 -39 -1
0 -13 -3 -14 -12 -5 -8 8 -15 8 -23 2 -8 -7 -20 -4 -37 9 -30 24 -68 18 -68
-10 0 -15 -7 -19 -35 -19 -19 0 -35 5 -35 10 0 6 5 10 11 10 12 0 1 42 -14 52
-6 3 -21 0 -33 -9 -13 -8 -32 -12 -43 -8 -10 3 -22 1 -26 -5 -8 -12 -85 -10
-85 2 0 6 -6 8 -12 5 -7 -2 -12 -10 -10 -16 1 -6 -7 -11 -19 -11 -12 0 -19 -5
-16 -12 2 -7 12 -12 21 -10 13 2 17 -2 14 -15 -4 -22 39 -43 89 -43 35 0 35
-1 30 -34 -5 -31 -3 -33 16 -29 13 3 18 1 11 -4 -6 -4 -13 -16 -17 -25 -9 -24
-74 -24 -152 1 -33 10 -79 24 -101 30 -39 11 -41 13 -40 49 1 32 -2 37 -22 40
-14 2 -33 -5 -45 -16 -12 -12 -44 -28 -72 -37 -27 -9 -62 -22 -77 -30 -14 -8
-30 -15 -35 -15 -11 0 -34 50 -28 61 7 11 -50 66 -64 61 -6 -2 -11 1 -11 7 0
6 -11 11 -24 11 -14 0 -27 4 -31 10 -7 11 -194 9 -202 -3 -3 -5 -22 -6 -43 -2
-34 6 -39 4 -45 -17 -10 -30 -24 -38 -55 -32 -20 4 -22 3 -10 -5 18 -13 12
-14 -64 -11 -38 1 -72 -4 -96 -15 l-38 -17 -56 45 c-60 50 -109 65 -154 49
-22 -7 -49 -5 -108 9 -109 26 -210 35 -228 20 -11 -9 -28 -8 -77 4 -48 13 -72
14 -99 7 -61 -18 -140 -32 -176 -32 -47 0 -174 -26 -254 -52 -229 -74 -448
-227 -660 -463 -104 -114 -153 -183 -145 -203 3 -7 -19 -43 -48 -80 -29 -37
-74 -110 -99 -164 l-46 -96 29 8 28 8 -35 -71 -36 -71 -27 54 c-96 192 -235
414 -348 555 -228 286 -478 444 -816 517 -88 19 -133 22 -327 22 -196 0 -238
-3 -328 -22 -132 -29 -253 -66 -319 -99 -48 -23 -54 -24 -68 -9 -9 9 -28 16
-43 16 -23 1 -19 5 28 30 30 16 51 29 47 30 -17 0 -107 -43 -107 -52 0 -5 -12
-20 -26 -33 -31 -29 -29 -30 21 -9 20 8 39 13 42 11 6 -7 -57 -44 -87 -52 -14
-4 -43 -29 -65 -56 -42 -52 -145 -139 -164 -139 -7 0 -14 -8 -18 -17 -3 -10
-31 -46 -62 -79 -130 -142 -150 -164 -140 -159 5 4 -12 -27 -38 -69 -52 -81
-67 -94 -51 -43 30 96 120 237 152 237 6 0 30 18 51 40 21 22 35 40 29 40 -5
0 -15 -5 -22 -12 -7 -7 -12 -8 -12 -3 0 14 81 114 119 147 30 26 31 28 7 13
-16 -9 -56 -46 -88 -81 -33 -34 -93 -96 -134 -135 -41 -40 -74 -78 -74 -85 0
-6 -7 -17 -15 -24 -8 -7 -15 -17 -15 -22 0 -6 7 -5 15 2 9 7 -5 -29 -30 -80
-25 -52 -49 -96 -54 -100 -5 -3 -13 -18 -16 -33 -4 -15 -19 -37 -34 -50 -62
-53 -113 -222 -131 -442 -11 -140 -9 -405 4 -405 5 0 6 -32 4 -71 -4 -52 -1
-86 13 -131 11 -33 23 -99 29 -147 5 -48 19 -122 31 -166 12 -44 25 -100 29
-125 15 -81 119 -343 145 -365 6 -5 37 -58 68 -117 32 -58 64 -109 73 -112 8
-3 53 -84 100 -180 62 -127 108 -206 172 -293 48 -66 107 -152 132 -192 25
-40 58 -88 73 -107 16 -18 26 -38 23 -43 -4 -5 -1 -21 5 -35 11 -24 23 -30 57
-29 7 1 29 -24 50 -55 20 -30 47 -70 59 -88 12 -18 59 -70 104 -116 95 -97
149 -161 149 -176 0 -6 19 -25 43 -43 51 -40 56 -47 63 -79 3 -14 37 -53 79
-90 40 -36 74 -70 74 -76 1 -5 17 -26 37 -45 20 -18 60 -65 90 -104 29 -38 68
-86 86 -105 19 -19 103 -111 188 -205 85 -93 187 -203 227 -244 40 -41 73 -80
73 -86 0 -6 45 -57 100 -115 55 -57 100 -109 100 -117 0 -7 11 -20 25 -29 18
-12 24 -22 20 -35 -7 -20 19 -28 30 -9 13 21 51 9 78 -25 15 -19 41 -42 58
-50 22 -12 28 -21 24 -34 -4 -13 3 -24 20 -35 14 -9 35 -31 45 -49 11 -18 22
-31 25 -29 11 6 105 -86 105 -103 0 -9 5 -13 11 -9 16 9 69 -46 69 -73 0 -17
6 -23 23 -23 13 0 34 -11 47 -25 13 -14 29 -25 36 -25 6 0 17 -6 24 -14 8 -11
24 -13 61 -9 43 5 49 4 43 -11 -4 -11 -1 -16 10 -16 9 0 16 7 16 16 0 14 9 15
63 9 34 -4 85 -7 114 -7 50 0 51 0 57 -32 8 -40 43 -59 92 -50 22 4 34 2 34
-5 0 -16 25 -14 39 3 8 9 8 16 2 20 -5 4 -12 2 -16 -4 -14 -22 -23 -8 -23 35
0 40 2 45 23 45 14 0 25 -7 28 -21 5 -18 8 -19 26 -7 16 10 23 10 33 0 8 -8 8
-12 1 -12 -6 0 -23 -16 -38 -35 -24 -32 -25 -39 -15 -70 6 -19 20 -40 30 -45
40 -21 130 -3 130 27 0 7 11 13 23 13 13 0 27 3 31 7 4 4 21 8 39 8 25 1 35 7
45 28 12 25 56 47 69 33 3 -3 -1 -14 -10 -24 -10 -10 -17 -24 -17 -30 0 -6
-10 -12 -22 -14 -31 -4 -32 -21 -3 -52 30 -33 32 -46 5 -39 -26 7 -27 -18 0
-42 21 -19 55 -13 47 9 -3 7 0 19 6 25 9 9 9 14 1 19 -14 9 -16 72 -3 72 5 0
9 -11 9 -24 0 -14 10 -30 26 -41 26 -17 54 -14 54 5 0 15 -42 60 -57 60 -7 0
-13 7 -13 16 0 13 3 14 13 5 16 -12 103 -12 130 1 27 13 22 41 -7 36 -19 -4
-25 1 -35 28 -15 40 -92 85 -101 58 -5 -13 -8 -12 -24 5 -23 25 -18 27 84 35
41 4 96 9 123 12 l47 7 0 -49 c0 -64 -9 -94 -27 -94 -8 0 -12 -4 -8 -9 3 -5
-5 -17 -17 -25 -18 -13 -19 -16 -5 -16 9 0 17 -5 17 -11 0 -6 7 -8 16 -5 9 4
28 -1 42 -10 19 -13 26 -13 32 -4 5 7 16 10 25 6 14 -5 16 -2 12 14 -3 11 -2
20 3 20 15 0 29 -27 36 -68 5 -35 4 -42 -10 -42 -10 0 -14 -4 -11 -10 15 -25
35 -9 35 28 0 46 9 82 21 82 5 0 6 -13 3 -30 -7 -31 3 -39 25 -17 10 10 11 9
6 -5 -4 -10 -11 -18 -16 -18 -5 0 -9 -4 -9 -10 0 -19 39 -10 45 11 6 17 12 19
33 14 35 -9 37 -12 23 -29 -9 -11 -7 -15 9 -19 27 -7 25 -25 -4 -36 -13 -5
-26 -19 -29 -30 -3 -14 -10 -19 -20 -15 -17 6 -31 -11 -22 -26 5 -7 11 -8 19
-1 6 5 25 8 41 5 83 -14 93 -13 111 8 12 12 21 41 24 76 4 46 9 58 24 60 14 3
17 0 13 -12 -9 -24 36 -21 58 4 12 13 28 19 49 17 25 -2 32 2 34 21 4 26 6 27
36 7 30 -20 66 -7 91 31 14 21 15 31 6 45 -9 16 -7 21 14 35 19 13 49 16 128
16 63 -1 122 5 154 14 46 13 60 13 140 -1 48 -9 155 -18 237 -21 82 -2 155 -9
162 -15 7 -6 31 -10 53 -11 34 0 41 -4 41 -20 0 -17 5 -19 30 -13 24 5 38 1
63 -18 29 -22 33 -23 48 -8 9 9 19 24 22 34 8 21 23 22 31 2 8 -21 23 -19 29
5 6 24 29 26 47 5 10 -12 10 -15 -4 -15 -9 0 -33 -9 -53 -20 -21 -11 -44 -20
-51 -20 -7 0 -15 -6 -18 -13 -3 -9 -16 -12 -34 -9 -25 4 -30 1 -30 -16 0 -25
35 -35 54 -16 20 20 26 18 26 -10 0 -20 4 -22 25 -18 24 4 25 6 10 22 -19 21
-19 30 3 46 25 20 30 17 46 -21 8 -19 22 -35 30 -35 21 0 20 24 0 55 -10 15
-12 25 -5 25 6 0 11 -4 11 -10 0 -5 5 -10 10 -10 6 0 10 9 10 20 0 11 5 20 10
20 6 0 10 -30 10 -70 0 -54 3 -70 14 -70 24 0 31 22 12 36 -15 10 -17 22 -11
71 4 32 12 66 17 76 15 29 27 19 22 -20 -4 -31 -3 -35 6 -20 14 21 30 22 30 2
0 -20 13 -19 34 4 10 11 25 17 37 14 13 -4 19 0 19 11 0 9 5 15 11 13 6 -1 14
4 16 11 3 6 -3 12 -14 13 -11 0 -13 3 -5 6 7 3 21 -2 30 -10 21 -19 112 -20
112 -1 0 25 30 24 40 -1 11 -28 28 -33 36 -10 4 8 10 15 15 15 13 0 -3 -33
-26 -52 -11 -9 -44 -22 -72 -28 -29 -6 -53 -15 -53 -20 0 -15 52 -21 87 -9 40
13 46 9 49 -29 1 -15 2 -35 3 -44 3 -45 122 -118 141 -87 4 5 17 8 30 7 17 -2
25 3 28 16 2 11 10 26 18 33 13 13 13 76 -1 119 -6 20 -2 22 54 29 48 5 65 12
78 31 10 13 29 25 43 26 14 2 28 7 32 13 4 5 11 -2 17 -15 9 -24 10 -24 10 8
1 34 24 45 35 16 4 -10 12 -14 23 -10 9 4 20 1 25 -6 5 -9 8 -6 8 10 0 12 -4
22 -9 22 -5 0 -7 9 -4 21 4 12 11 18 20 15 8 -3 11 -1 8 4 -15 24 24 7 40 -17
16 -23 19 -24 27 -9 6 11 6 22 -2 32 -9 10 -9 14 -1 14 6 0 11 16 11 35 0 33
-2 35 -36 35 -21 0 -33 4 -29 10 3 6 15 10 26 10 10 0 19 4 19 8 0 5 33 10 73
12 39 1 88 3 107 4 29 1 35 -3 40 -24 14 -68 68 -94 89 -42 6 15 10 39 9 52
-3 23 1 25 37 27 22 0 98 4 168 6 71 3 131 8 134 11 3 3 13 1 22 -4 11 -5 33
-5 57 1 21 5 72 11 113 14 41 3 80 10 87 16 20 17 73 29 80 18 3 -6 12 -2 20
8 12 16 13 16 14 2 0 -21 -62 -69 -89 -69 -11 0 -29 -12 -41 -27 l-21 -28 29
-13 c25 -13 34 -12 75 7 25 12 49 21 53 21 4 0 13 8 20 18 13 16 15 16 28 0
19 -26 27 -22 20 9 -6 22 -4 25 10 20 10 -4 21 -7 26 -7 5 0 11 -8 13 -17 4
-14 5 -13 6 4 1 23 28 43 47 36 6 -2 14 5 17 17 6 22 -1 22 130 -1 74 -12 90
-7 77 28 -7 16 -23 24 -67 33 -97 19 -103 22 -103 36 0 10 -7 13 -24 8 -19 -4
-26 -1 -31 16 -6 18 -9 20 -16 9 -8 -12 -10 -12 -18 0 -5 8 -7 21 -4 30 3 9
-9 1 -26 -17 -16 -19 -35 -31 -40 -28 -5 4 -12 2 -16 -4 -3 -5 -18 -10 -32
-10 -22 0 -24 3 -19 25 8 32 -2 33 -14 1 -11 -31 -61 -56 -101 -51 -17 2 -39
0 -50 -5 -10 -6 -28 -15 -39 -20 -12 -6 -24 -8 -29 -6 -4 3 -23 1 -42 -4 -18
-6 -65 -11 -104 -11 -38 -1 -86 -8 -105 -16 -22 -10 -95 -18 -195 -23 -88 -5
-184 -13 -212 -17 -42 -8 -53 -7 -53 4 0 7 -7 13 -15 13 -8 0 -15 6 -15 14 0
16 -77 14 -109 -4 -12 -6 -26 -8 -31 -5 -5 3 -11 1 -15 -5 -11 -18 -56 -12
-62 9 -3 13 -11 17 -24 14 -15 -4 -18 -2 -13 13 4 11 4 16 0 13 -4 -4 -20 5
-37 20 -16 14 -35 26 -42 26 -6 1 -37 8 -67 18 -38 11 -83 16 -147 14 -63 -2
-93 1 -93 8 0 22 41 96 50 90 6 -4 10 5 10 20 0 18 8 29 26 37 22 10 32 8 72
-14 47 -26 49 -26 237 -24 105 2 197 6 206 10 9 4 21 23 27 43 14 45 -6 90
-43 99 -14 3 -25 10 -25 14 0 5 -11 3 -25 -3 -29 -14 -45 -46 -45 -93 l0 -34
-77 5 c-43 3 -81 9 -84 13 -15 16 22 101 61 141 46 48 50 61 15 61 -39 0 -40
0 -37 -15 1 -7 -4 -15 -12 -18 -15 -6 -96 -124 -96 -139 0 -15 -37 -8 -53 10
-10 10 -17 29 -18 43 l-1 24 -6 -23 -7 -23 -18 22 c-24 27 -15 69 13 69 11 0
20 5 20 11 0 6 -9 9 -20 6 -22 -6 -22 -3 -24 96 -1 34 3 49 14 52 31 10 112 8
119 -3 8 -14 83 -8 164 13 33 8 63 12 69 9 12 -8 48 24 59 54 5 12 15 22 24
22 8 0 15 9 15 20 0 26 41 42 88 34 88 -14 232 -23 292 -18 127 10 252 52 207
70 -10 3 -23 2 -30 -4 -51 -41 -369 -42 -401 -1 -12 15 -108 18 -139 5 -9 -5
-27 -6 -40 -2 -18 4 -25 -1 -36 -26 -13 -29 -15 -30 -22 -11 -9 24 -38 38 -52
24 -17 -17 -34 -1 -29 26 4 23 2 25 -21 21 -24 -5 -26 -2 -29 36 -2 26 -7 40
-15 39 -7 -2 -13 5 -13 16 0 13 -9 20 -30 24 -39 8 -41 36 -2 39 15 0 34 1 42
0 8 -1 31 -3 50 -5 19 -1 40 -6 47 -10 6 -4 18 -4 27 -1 9 3 22 2 29 -4 6 -5
23 -13 37 -17 13 -4 31 -14 38 -22 11 -11 17 -12 22 -2 6 8 16 4 36 -15 81
-75 189 -52 225 48 11 31 38 64 99 121 l22 20 -22 3 c-12 2 -30 -4 -39 -12
-10 -9 -22 -16 -27 -16 -8 0 -28 -21 -107 -115 l-25 -30 -65 33 c-35 17 -71
32 -79 32 -9 0 -21 7 -28 15 -7 9 -26 15 -44 13 -18 -1 -37 2 -44 6 -7 4 -40
7 -73 7 -46 0 -61 4 -66 16 -6 14 -7 14 -17 0 -15 -20 -67 -11 -64 11 2 8 -2
17 -9 19 -7 3 -9 -3 -6 -17 5 -19 3 -20 -23 -14 -41 10 -44 12 -45 42 -2 24
-2 24 -6 5 -4 -23 -23 -33 -23 -12 0 5 -5 7 -11 4 -16 -10 -92 44 -85 61 4 11
0 13 -19 8 -18 -4 -31 1 -49 19 -14 14 -27 23 -30 20 -2 -2 -14 0 -26 7 -11 6
-53 13 -93 14 -71 3 -115 -7 -129 -30 -6 -9 -17 -9 -45 -1 -28 9 -37 9 -41 -1
-2 -7 -13 -10 -28 -6 -17 4 -24 2 -24 -8 0 -22 11 -28 29 -18 10 5 21 6 27 2
12 -9 15 -62 3 -62 -5 0 -9 -6 -9 -14 0 -25 -16 -27 -43 -6 -32 26 -111 37
-132 20 -9 -8 -15 -8 -15 -2 0 14 20 26 45 27 11 0 19 5 18 12 -2 7 4 10 12 7
27 -11 16 16 -21 48 -23 21 -34 37 -31 50 6 22 -11 34 -26 19 -16 -16 -35 -13
-41 7 -3 10 -14 19 -23 20 -98 11 -105 14 -99 37 7 28 -24 58 -56 53 -19 -2
-23 -9 -23 -36 0 -19 4 -36 8 -39 4 -3 3 -11 -4 -19 -19 -23 7 -44 47 -39 18
2 36 0 39 -5 4 -6 17 -10 30 -10 13 0 27 -5 30 -11 5 -7 13 -5 25 6 18 16 20
16 45 -9 14 -14 30 -26 35 -26 6 0 10 -4 10 -8 0 -12 -46 -32 -71 -32 -11 0
-24 -11 -31 -25 -13 -28 -4 -45 14 -27 16 16 28 15 28 -3 0 -8 -6 -15 -14 -15
-7 0 -27 -7 -42 -15 -44 -23 -64 -19 -64 10 0 32 -13 31 -79 -1 -41 -21 -55
-24 -64 -14 -9 10 -7 11 11 5 18 -5 22 -3 22 17 0 13 -5 29 -12 36 -9 9 -8 15
8 26 10 8 15 18 11 22 -11 11 -60 -20 -72 -45 -11 -23 -61 -45 -70 -30 -4 5
-14 9 -23 9 -13 0 -13 -2 4 -15 15 -11 16 -14 3 -15 -8 0 -21 6 -28 13 -11 9
-14 9 -18 0 -8 -22 -36 -15 -30 7 6 24 -15 27 -33 5 -20 -24 -58 -19 -62 7 -2
13 -16 29 -33 38 -16 8 -31 18 -33 23 -6 12 -22 8 -19 -5 1 -6 -6 -14 -15 -16
-22 -4 -23 17 -4 43 14 19 15 19 35 1 13 -12 38 -20 64 -21 23 -1 52 -5 64 -9
18 -6 21 -4 16 14 -4 14 -1 20 11 20 9 0 16 5 16 10 0 17 45 4 88 -25 23 -15
46 -24 51 -20 17 10 13 33 -9 45 -11 6 -20 17 -20 24 0 18 27 28 33 13 3 -7
10 0 16 16 6 15 16 26 22 25 6 -2 20 12 31 31 15 26 16 36 7 47 -7 8 -17 13
-24 11 -6 -3 -19 1 -29 8 -16 12 -16 14 6 35 13 12 34 27 48 34 29 15 173 30
184 19 10 -10 146 -5 160 6 6 5 29 12 51 16 22 4 45 12 52 17 8 6 26 5 50 -3
21 -7 49 -14 63 -16 14 -1 52 -7 85 -13 33 -5 112 -14 175 -19 63 -5 129 -16
147 -22 28 -11 35 -11 51 4 13 12 21 14 29 6 7 -7 30 -9 60 -5 57 7 172 9 228
3 22 -2 50 -4 62 -5 20 -2 22 -6 16 -32 -11 -57 54 -99 108 -70 14 8 19 21 19
56 0 49 -7 46 75 29 15 -3 56 5 96 20 66 24 140 28 170 9 6 -3 19 2 30 12 25
23 122 31 154 14 20 -11 27 -11 40 0 18 15 179 15 220 0 14 -5 38 -10 53 -10
23 -1 25 -2 10 -11 -10 -5 -18 -18 -19 -27 -1 -32 -62 -70 -127 -81 -70 -11
-82 -16 -82 -35 0 -17 79 -31 94 -16 5 5 19 10 30 10 12 0 41 7 66 16 24 8 53
13 63 10 28 -7 47 3 47 25 0 10 7 19 15 19 8 0 19 9 25 20 11 21 40 17 40 -5
0 -7 17 -20 38 -28 30 -12 38 -12 40 -2 2 10 11 11 32 5 16 -5 38 -6 50 -3 13
3 20 0 20 -8 0 -9 3 -10 8 -3 4 6 26 14 50 17 24 3 51 12 61 21 36 33 15 136
-28 136 -9 0 -21 4 -27 10 -6 6 -24 5 -49 -1 -74 -18 -80 -19 -119 -24 -21 -3
-44 -1 -51 5 -8 7 -23 6 -45 -2 -26 -9 -35 -9 -38 0 -2 7 -23 12 -46 12 -24 0
-45 3 -48 6 -3 3 -116 7 -250 9 -133 1 -258 6 -276 10 -28 6 -38 3 -61 -19
-25 -24 -36 -27 -92 -26 -35 0 -115 -1 -177 -3 -130 -6 -192 0 -192 18 0 14
-61 12 -104 -5 -15 -5 -38 -7 -52 -4 -13 3 -30 1 -37 -5 -16 -13 -91 5 -82 20
4 5 -1 9 -9 9 -9 0 -16 5 -16 10 0 6 -6 10 -14 10 -7 0 -19 6 -25 14 -7 8 -21
12 -31 9 -11 -3 -27 0 -35 7 -16 13 -69 14 -317 7 -144 -4 -149 -1 -141 77 l6
58 32 -6 c23 -5 37 -1 52 13 25 23 59 18 66 -10 4 -14 14 -19 42 -19 46 0 147
-29 140 -40 -8 -12 17 -18 40 -9 11 4 33 8 48 8 29 1 47 25 30 42 -5 5 -31 10
-57 11 -25 0 -49 4 -52 9 -2 4 -10 6 -17 3 -7 -2 -24 7 -37 21 -23 24 -24 27
-7 36 9 6 17 16 17 23 0 15 27 29 40 21 4 -3 6 -13 3 -24 -4 -17 2 -18 97 -15
56 1 105 6 109 9 3 4 6 16 6 28 0 17 7 21 42 24 34 2 45 -1 53 -18 9 -15 20
-20 43 -18 18 2 36 5 41 8 14 7 56 8 56 1 0 -3 -8 -16 -17 -30 -12 -17 -13
-25 -5 -28 7 -2 12 -11 12 -19 0 -13 -3 -13 -15 -3 -19 16 -54 5 -37 -12 7 -7
12 -21 12 -31 0 -15 -5 -18 -25 -13 -18 5 -27 2 -31 -9 -9 -22 1 -29 23 -17
11 6 25 7 34 1 23 -12 48 10 51 43 3 32 14 34 53 14 25 -13 32 -13 57 0 50 26
30 62 -57 103 -36 17 -1 12 50 -8 45 -17 51 -22 57 -57 4 -22 11 -63 17 -92 5
-29 7 -60 4 -68 -3 -8 1 -14 10 -14 9 0 19 9 22 20 4 13 15 20 31 20 28 0 33
24 7 35 -15 6 -13 9 12 21 17 7 48 13 70 14 49 0 81 35 77 81 -3 23 1 29 16
29 10 0 22 3 25 7 4 3 44 7 89 9 46 1 91 5 101 9 9 4 29 4 45 0 l27 -8 -24 -6
c-14 -4 -26 -12 -28 -18 -8 -22 49 -26 141 -13 50 8 113 14 139 14 30 1 51 6
56 15 14 22 89 25 133 5 26 -12 41 -14 50 -7 7 6 24 8 38 6 14 -2 36 -4 50 -4
14 -1 28 -6 32 -12 4 -6 10 8 14 32 4 23 12 45 19 47 6 3 45 -5 86 -17 62 -19
99 -23 224 -24 139 -1 153 -3 193 -25 23 -13 42 -27 42 -32 0 -4 7 -8 15 -8 8
0 15 -6 15 -14 0 -9 17 -16 46 -21 26 -4 54 -11 63 -15 52 -29 95 -41 141 -42
41 -1 54 -5 57 -19 4 -14 15 -17 59 -16 30 1 59 -4 66 -11 8 -8 15 -9 25 -1
16 14 28 -11 20 -41 -10 -38 10 -20 22 20 6 22 20 44 31 50 27 15 57 12 64 -5
7 -20 32 -19 40 1 5 13 16 15 51 12 33 -4 45 -2 47 9 3 12 6 12 22 0 14 -10
20 -31 25 -78 l6 -64 13 65 c16 77 34 100 77 100 17 0 36 5 41 10 16 16 44 1
45 -24 0 -15 4 -12 13 14 10 26 19 35 35 34 12 0 20 4 18 10 -2 6 -14 10 -26
9 -18 -2 -21 3 -23 35 -1 20 -1 52 1 71 1 18 -1 41 -6 50 -5 10 -10 -19 -13
-74 -5 -89 -5 -90 -30 -88 -69 5 -120 15 -120 25 0 13 -30 37 -47 38 -7 0 -13
-6 -13 -14 0 -23 -14 -26 -56 -15 -28 8 -39 8 -42 0 -5 -16 -29 -14 -39 3 -10
18 -63 9 -63 -10 0 -20 -14 -17 -44 11 -18 17 -26 20 -26 10 0 -23 -18 -18
-25 6 -5 15 -9 18 -15 9 -6 -10 -9 -10 -15 0 -6 10 -12 8 -23 -6 -13 -18 -14
-17 -8 14 6 36 -10 45 -19 9 -8 -31 -39 -49 -67 -38 -13 4 -50 12 -82 16 -55
6 -157 52 -172 76 -3 5 -9 7 -13 4 -5 -2 -45 3 -91 11 -59 11 -89 13 -105 6
-29 -14 -266 -8 -293 7 -11 6 -46 11 -76 11 -45 0 -56 3 -56 17 0 14 -2 14
-20 -2 -15 -14 -23 -15 -34 -6 -12 10 -65 13 -203 11 -29 0 -53 3 -53 8 0 5
-21 10 -47 11 -75 2 -71 17 7 28 57 7 73 7 77 -4 8 -21 43 -16 43 6 0 15 10
20 56 26 30 3 70 12 87 19 18 8 57 14 87 15 30 1 64 8 75 15 24 16 105 33 190
41 33 3 70 11 83 17 18 10 25 8 36 -8 14 -18 15 -18 43 9 20 18 41 27 64 28
47 1 82 12 87 27 2 8 -7 12 -27 12 -17 0 -31 4 -31 9 0 11 25 21 51 21 14 0
19 7 19 26 0 25 -2 25 -41 19 -23 -4 -58 -9 -78 -10 -48 -5 -158 -38 -172 -52
-16 -16 -1 -35 23 -27 15 4 19 2 16 -7 -3 -8 -20 -14 -39 -15 -19 -1 -46 -4
-61 -9 -26 -7 -28 -5 -28 25 0 25 -3 31 -16 26 -9 -3 -30 -6 -48 -6 -29 0 -35
-5 -51 -40 -10 -22 -21 -40 -24 -41 -3 0 -13 -2 -21 -5 -18 -4 -216 -44 -245
-48 -11 -2 -56 -10 -100 -19 -171 -33 -304 -50 -393 -49 -90 0 -93 1 -119 31
-15 17 -31 31 -36 31 -10 0 -52 32 -56 42 -2 4 -5 17 -8 28 -6 23 -38 27 -46
6 -5 -12 -12 -12 -42 -3 -29 9 -38 8 -45 -3 -5 -8 -6 -18 -4 -22 3 -4 1 -8 -4
-8 -6 0 -13 7 -16 16 -4 10 -14 14 -25 11 -16 -4 -21 4 -31 47 -6 28 -12 61
-13 73 -3 32 -17 40 -33 19 -11 -16 -17 -17 -26 -8 -7 7 -20 12 -30 12 -10 0
-18 6 -18 14 0 8 11 13 28 13 15 0 113 9 217 21 262 30 295 33 500 37 252 6
248 6 256 -7 5 -8 18 -8 48 0 37 9 43 8 52 -9 12 -23 29 -25 29 -3 0 14 3 14
16 3 21 -17 44 -63 44 -88 0 -13 5 -18 18 -14 10 2 28 -5 41 -16 33 -29 38
-27 45 19 4 25 10 38 17 34 11 -7 79 25 79 38 0 4 -8 12 -17 18 -16 10 -16 11
3 7 29 -6 48 31 29 56 -7 9 -18 17 -25 17 -7 0 -10 6 -6 15 3 8 9 22 12 30 4
10 0 15 -11 15 -13 0 -16 6 -12 22 12 43 -35 82 -50 41 -16 -47 -71 -80 -88
-53 -4 6 5 10 19 10 20 0 26 5 26 21 0 19 -4 20 -76 14 -77 -7 -77 -7 -71 17
4 13 7 31 7 42 0 14 3 16 13 7 10 -8 25 -6 56 6 39 15 41 18 25 30 -17 12 -17
13 3 13 11 0 26 7 33 15 15 18 66 20 73 3 4 -9 11 -6 24 9 12 15 27 21 45 19
16 -2 33 3 39 10 6 8 30 14 54 14 26 0 45 5 48 13 3 9 9 9 26 -1 12 -7 21 -8
21 -2 0 5 5 10 11 10 6 0 31 17 57 39 54 44 88 56 96 34 4 -10 12 -13 24 -8 9
4 24 7 32 7 8 0 40 8 71 19 l56 20 38 -21 c30 -17 36 -18 32 -6 -5 12 0 16 21
16 55 0 73 11 70 39 -2 21 -8 26 -28 24 -14 0 -90 -4 -170 -8 -80 -4 -163 -10
-186 -14 -22 -4 -67 -6 -98 -5 -40 2 -65 -1 -82 -12 -13 -9 -31 -13 -40 -10
-10 4 -25 -1 -34 -9 -10 -9 -24 -15 -32 -14 -16 3 -64 -17 -72 -29 -3 -6 -29
-13 -56 -17 -27 -4 -52 -11 -56 -16 -3 -5 -14 -9 -26 -9 -16 0 -19 5 -14 23 3
13 0 31 -7 41 -11 16 -15 16 -50 1 -21 -9 -43 -13 -48 -9 -17 10 -123 14 -138
5 -11 -7 -10 -11 6 -20 11 -5 23 -8 26 -5 3 3 16 3 28 -1 l22 -7 -23 -13 c-13
-7 -31 -10 -41 -8 -11 3 -21 -1 -25 -10 -4 -12 -12 -14 -27 -8 -12 5 -41 8
-64 8 -23 0 -48 5 -57 12 -9 7 -25 10 -38 6 -16 -4 -19 -3 -9 3 9 7 4 11 -20
15 -19 2 -38 2 -44 -1 -17 -11 -80 -1 -88 14 -13 23 -37 16 -37 -11 0 -18 -5
-25 -19 -25 -11 0 -22 -4 -25 -9 -7 -11 -48 -2 -58 13 -6 8 -10 7 -16 -1 -6
-9 -26 -9 -87 3 -44 8 -118 17 -164 20 -47 3 -93 10 -103 15 -13 7 -30 6 -53
-2 -29 -11 -37 -11 -47 0 -11 11 -9 12 8 7 16 -5 27 0 40 17 11 13 27 26 37
30 9 3 20 20 23 37 4 17 11 33 15 36 14 8 11 25 -3 23 -7 -1 -26 3 -41 9 -25
10 -33 9 -58 -9 -17 -12 -28 -27 -25 -34 5 -14 -15 -65 -25 -65 -11 0 -79 66
-79 77 0 5 10 9 23 9 17 -1 22 5 22 24 0 23 -3 25 -37 22 -29 -3 -38 0 -38 12
0 9 -7 16 -15 16 -8 0 -15 5 -15 10 0 15 21 12 34 -6 10 -14 15 -13 39 6 l27
21 32 -23 c19 -14 46 -23 63 -22 16 0 37 -4 47 -9 12 -8 21 -7 33 3 23 19 15
53 -15 61 l-25 7 25 3 c14 1 35 1 48 0 30 -2 39 25 17 49 -16 17 -20 18 -38 5
-27 -19 -67 -19 -67 -1 0 8 10 18 23 22 12 4 24 10 27 15 7 10 80 -11 80 -23
0 -4 4 -8 8 -8 10 0 8 67 -1 76 -3 3 -3 12 0 20 7 19 -26 30 -48 16 -10 -7
-26 -12 -34 -12 -9 0 -28 -8 -42 -17 -15 -10 -24 -12 -20 -5 5 6 4 12 -2 12
-5 0 -12 -4 -16 -10 -3 -5 -13 -6 -21 -3 -9 3 -19 0 -24 -7 -10 -15 -32 44
-24 65 4 9 0 15 -8 15 -9 0 -19 13 -24 30 -7 24 -12 27 -24 19 -11 -8 -12 -12
-2 -16 21 -8 12 -27 -24 -50 -42 -27 -60 -29 -68 -7 -4 11 -14 15 -33 11 -24
-4 -53 11 -53 28 0 12 28 35 43 35 16 0 27 21 27 51 0 12 -7 19 -19 19 -12 0
-18 7 -17 17 0 11 -6 18 -18 18 -11 0 -21 5 -23 10 -2 6 12 10 34 9 21 -1 42
1 48 4 5 4 29 8 52 10 l42 3 -1 -46 c0 -34 4 -49 18 -60 16 -12 19 -12 22 1 4
18 20 18 38 -1 9 -8 33 -16 55 -16 61 -3 64 -3 71 -14 4 -6 8 -2 8 8 0 27 32
52 63 49 15 -2 27 -7 27 -11 0 -4 16 -16 35 -27 28 -15 37 -16 47 -6 11 11 8
17 -11 31 -16 12 -22 24 -18 35 7 19 27 22 27 4 0 -6 7 -3 15 8 13 18 14 16
16 -21 l2 -40 6 40 c6 37 8 40 36 38 43 -3 97 -13 120 -23 39 -16 68 -19 87
-7 16 10 23 8 42 -14 12 -14 29 -28 37 -31 9 -3 2 -11 -19 -22 -19 -10 -40
-15 -48 -12 -7 3 -18 -3 -24 -14 -16 -31 -12 -41 15 -34 34 8 32 -10 -5 -36
-31 -22 -31 -45 -1 -55 13 -4 16 -13 13 -34 -4 -32 22 -81 44 -81 7 0 18 9 24
20 12 22 45 27 56 9 4 -8 9 -7 16 2 5 9 6 5 2 -13 -5 -24 -3 -27 18 -24 13 1
30 6 37 10 7 4 15 5 18 2 3 -3 12 -1 19 5 22 18 33 -27 18 -70 -7 -20 -10 -49
-7 -64 5 -25 9 -27 33 -22 21 5 31 2 39 -12 6 -10 11 -12 11 -5 0 6 7 12 15
12 8 0 15 5 15 10 0 6 -4 10 -10 10 -5 0 -10 11 -10 25 0 14 -9 33 -20 42 -11
10 -20 23 -20 30 0 7 -6 13 -13 13 -7 0 -14 13 -15 30 -3 33 17 41 39 14 8 -9
21 -13 35 -10 13 4 24 1 27 -7 3 -6 6 -2 6 11 1 12 -4 22 -9 22 -6 0 -6 7 2
19 6 11 18 17 26 13 10 -3 13 -1 8 6 -15 24 32 11 48 -13 23 -35 40 -32 33 5
-4 17 -2 30 3 30 6 0 10 16 10 36 l0 37 -40 -6 c-29 -4 -40 -2 -40 8 0 15 41
22 200 34 106 9 144 2 134 -22 -8 -23 35 -67 66 -67 36 0 54 23 53 66 -1 32 1
34 35 35 300 8 487 15 607 23 106 8 117 9 140 22 29 16 94 24 101 13 3 -6 11
-3 18 7 9 11 15 13 20 6 8 -13 -23 -45 -39 -39 -6 3 -17 -4 -23 -14 -7 -11
-23 -19 -38 -19 -26 0 -84 -34 -84 -50 0 -5 15 -13 33 -19 28 -10 46 -7 107
13 41 13 76 29 78 35 5 16 32 13 38 -4 9 -23 26 -18 22 8 -2 18 1 22 22 19 14
-1 31 -10 38 -19 11 -15 12 -15 12 5 0 24 31 45 53 36 9 -3 16 3 20 16 6 23 3
23 174 -2 40 -6 79 -8 87 -5 21 8 8 46 -18 51 -11 3 -54 10 -95 16 -44 8 -80
19 -91 30 -11 11 -27 16 -38 13 -13 -3 -25 3 -35 17 -9 13 -17 17 -22 11 -12
-21 -27 -11 -23 14 7 33 -4 32 -41 -6 -18 -18 -38 -29 -46 -25 -8 3 -17 1 -20
-4 -6 -11 -75 -14 -75 -4 0 3 5 14 10 25 7 13 7 19 1 19 -6 0 -13 -11 -17 -25
-4 -15 -15 -27 -28 -30 -81 -18 -107 -22 -130 -18 -17 4 -26 1 -26 -7 0 -8 -8
-10 -22 -7 -12 4 -28 1 -35 -5 -16 -13 -40 -16 -190 -22 -62 -2 -116 -6 -120
-9 -11 -6 -105 -26 -123 -26 -136 1 -374 -13 -467 -27 -25 -4 -33 -1 -33 10 0
10 -6 13 -15 10 -9 -4 -15 0 -15 9 0 24 -53 25 -157 2 -105 -24 -129 -20 -135
20 -2 13 -10 20 -26 20 -12 0 -26 5 -30 10 -9 13 -50 32 -82 39 -14 2 -52 11
-85 20 -33 8 -88 20 -123 27 -53 10 -60 14 -50 27 10 12 7 19 -15 38 -35 30
-35 61 -1 74 29 11 84 10 84 -2 0 -4 16 -14 36 -23 28 -12 73 -14 222 -11 112
2 200 -1 218 -7 38 -12 72 -5 102 23 48 45 34 116 -28 136 -33 11 -31 12 43
15 51 3 82 0 88 -7 5 -7 18 -10 28 -7 10 2 26 -4 36 -14 10 -10 20 -17 22 -15
15 11 63 -16 63 -37 0 -3 -14 -12 -31 -18 -27 -11 -30 -15 -19 -28 17 -20 57
-19 69 3 9 16 11 16 23 1 11 -14 24 -15 93 -7 71 8 104 13 207 34 15 4 29 13
32 21 4 11 1 13 -14 8 -15 -5 -20 -2 -20 13 0 15 -6 18 -28 14 -22 -3 -30 1
-40 22 -6 14 -18 26 -27 26 -8 0 -15 7 -15 15 0 8 -4 15 -10 15 -5 0 -10 -5
-10 -11 0 -5 -5 -7 -10 -4 -12 8 -30 -36 -30 -74 0 -25 -5 -30 -40 -39 -33 -8
-42 -7 -55 7 -8 10 -15 21 -15 25 0 11 -33 41 -60 53 -31 14 -148 38 -175 36
-11 -1 -80 -5 -152 -9 -121 -6 -133 -6 -133 10 0 9 -6 19 -14 22 -8 3 -12 12
-9 20 3 10 -3 14 -21 16 -14 0 -32 1 -38 2 -7 1 -12 -6 -10 -15 2 -17 -31 -32
-72 -33 -23 -1 -34 -26 -12 -26 21 0 20 -16 -2 -32 -10 -7 -27 -28 -37 -45
-12 -21 -27 -33 -40 -33 -28 1 -65 34 -65 60 0 12 -4 19 -10 15 -5 -3 -7 -12
-3 -20 8 -22 -10 -18 -31 6 -25 30 -14 69 19 69 16 0 25 6 25 15 0 8 -9 15
-21 15 -16 0 -19 4 -14 20 4 14 2 20 -7 18 -9 -2 -12 8 -10 37 4 65 4 65 92
65 44 0 80 -4 80 -9 0 -12 125 -4 214 14 38 8 73 12 77 9 12 -7 67 35 72 57 3
11 14 19 26 19 12 0 21 6 21 14 0 7 7 19 15 26 19 15 101 20 135 7 24 -9 77
-13 250 -17 82 -2 235 15 276 30 14 6 29 8 34 5 14 -8 40 6 40 22 0 12 -7 14
-32 9 -18 -4 -58 -12 -88 -18 -89 -17 -414 -7 -435 14 -3 2 -6 14 -8 26 -4 30
-17 40 -17 13 0 -29 -23 -36 -78 -23 -31 7 -51 7 -59 0 -7 -5 -27 -8 -46 -7
-28 3 -39 -3 -60 -26 -21 -24 -26 -26 -27 -12 0 22 -47 42 -65 27 -21 -17 -43
-2 -37 27 5 25 3 25 -30 19 -34 -6 -35 -5 -32 21 5 41 -4 63 -23 56 -12 -5
-14 -1 -8 16 3 12 3 20 -2 19 -21 -6 -73 13 -73 27 0 13 40 22 74 16 5 -1 34
-3 65 -5 31 -2 63 -5 71 -9 8 -3 22 -5 30 -5 25 1 102 -23 127 -40 21 -13 26
-13 34 -1 6 9 12 10 17 4 4 -5 23 -21 42 -35 31 -22 45 -25 119 -25 76 0 85 3
99 23 8 12 20 22 27 22 6 0 18 17 25 39 8 26 28 50 60 75 26 20 52 36 58 36 9
0 22 22 22 37 0 9 -65 -9 -80 -22 -8 -7 -24 -15 -36 -19 -11 -3 -47 -33 -80
-66 -59 -60 -85 -71 -122 -51 -41 22 -84 40 -114 46 -18 4 -38 11 -44 16 -10
8 -56 15 -164 24 -19 2 -37 4 -40 5 -3 1 -24 1 -47 0 -33 -1 -43 2 -43 14 0 9
-4 16 -10 16 -5 0 -10 -6 -10 -14 0 -10 -12 -14 -40 -13 -30 2 -40 6 -40 19 0
9 -4 20 -10 23 -5 3 -10 -4 -10 -15 0 -16 -4 -20 -16 -16 -9 3 -27 6 -40 6
-20 0 -24 5 -24 30 0 17 -5 30 -11 30 -6 0 -8 -8 -4 -19 7 -23 -13 -39 -21
-17 -3 8 -12 12 -19 10 -7 -3 -35 7 -62 21 -60 34 -60 34 -43 46 11 7 4 8 -21
4 -29 -5 -41 -2 -66 19 -17 14 -41 26 -53 26 -11 0 -19 4 -15 9 3 6 -4 15 -15
21 -16 9 -22 8 -26 -5 -5 -13 -20 -14 -89 -9 -73 5 -87 3 -126 -17 -24 -12
-60 -23 -79 -23 -24 -1 -35 -6 -35 -16 0 -8 -4 -18 -9 -22 -6 -4 -4 -14 5 -24
13 -16 11 -17 -35 -11 -53 8 -66 14 -51 25 23 17 36 58 26 84 -8 23 -7 25 9
21 12 -3 24 4 35 21 10 14 23 26 30 26 7 0 19 13 26 28 l12 28 71 -13 c39 -8
105 -18 146 -23 80 -10 263 -6 294 6 16 6 18 4 13 -18 -5 -19 -2 -28 9 -32 11
-4 18 1 21 14 5 18 32 27 58 19 6 -1 22 -3 36 -4 14 -1 31 -5 37 -9 7 -4 17
-4 22 -1 6 4 10 -11 10 -39 0 -38 4 -48 25 -62 22 -14 30 -15 50 -4 21 11 25
21 25 60 l0 48 44 -10 c37 -8 51 -6 85 12 41 20 118 29 140 16 6 -4 24 2 40
13 32 23 90 28 109 9 9 -9 17 -9 35 1 24 13 138 11 203 -4 l31 -7 -16 -32
c-30 -57 -85 -98 -120 -89 -11 3 -21 1 -21 -5 0 -5 -9 -12 -21 -15 -12 -3 -19
-12 -17 -19 7 -21 64 -21 124 1 30 12 69 21 85 21 22 0 32 6 36 20 3 11 9 20
14 20 5 0 14 12 19 26 10 25 30 25 30 -1 0 -8 12 -22 26 -31 21 -14 27 -15 34
-4 5 8 17 10 34 6 37 -9 124 4 141 21 22 21 30 81 14 109 -16 31 -70 59 -80
43 -4 -6 -11 -9 -17 -5 -6 3 -12 2 -14 -4 -4 -12 -188 -22 -188 -10 0 4 -14 6
-30 5 -17 -1 -33 1 -35 6 -4 6 -178 13 -235 10 -54 -4 -165 2 -190 9 -24 7
-32 5 -42 -9 -23 -32 -56 -44 -90 -32 -17 6 -35 8 -41 4 -15 -9 -277 -20 -277
-11 0 8 -111 16 -125 9 -5 -3 -26 -6 -45 -6 -19 -1 -79 -5 -132 -10 -80 -6
-98 -5 -103 6 -4 10 -27 15 -81 16 -50 1 -82 7 -93 16 -9 8 -47 18 -84 22 -54
5 -73 3 -93 -10 -26 -17 -44 -13 -44 10 0 7 -6 15 -12 18 -20 7 -50 -13 -44
-28 6 -17 -9 -22 -46 -17 -21 3 -28 9 -24 19 3 8 6 22 7 31 1 10 4 7 8 -7 10
-37 31 -38 31 -2 0 25 -4 31 -21 31 -18 0 -19 2 -9 15 20 24 99 20 127 -7 13
-12 38 -22 60 -24 21 -1 48 -6 60 -9 18 -6 25 -2 33 20 13 33 6 45 -26 45 -47
0 -23 15 28 18 29 2 54 5 56 7 2 2 -2 13 -8 25 -9 16 -17 20 -33 15 -46 -15
-75 -16 -82 -5 -4 6 -5 13 -3 15 6 6 61 18 91 19 15 0 27 4 27 9 0 4 9 7 20 7
11 0 20 -4 20 -10 0 -5 -4 -10 -10 -10 -5 0 -10 -4 -10 -8 0 -5 20 -10 45 -10
54 -2 127 -30 119 -44 -5 -7 9 -8 42 -3 60 9 64 11 64 36 0 18 -19 24 -69 21
-19 -1 -65 44 -57 56 7 12 66 22 66 11 0 -4 -6 -10 -12 -12 -8 -4 -7 -6 3 -6
9 -1 22 -8 29 -16 21 -25 33 -17 26 16 -6 31 -6 32 29 26 19 -3 35 -2 35 2 0
4 6 8 14 8 8 0 11 -7 9 -17 -7 -27 64 -38 83 -13 17 23 17 28 -2 43 -13 11
-16 10 -21 -8 -3 -12 -7 -22 -9 -22 -8 0 -54 49 -54 58 0 17 72 6 82 -13 7
-12 17 -15 36 -10 57 16 74 15 66 -3 -4 -9 -7 -30 -7 -45 0 -17 -3 -24 -7 -17
-15 24 -31 -1 -24 -37 6 -32 5 -35 -14 -29 -11 4 -23 2 -27 -4 -10 -16 10 -34
27 -24 7 5 23 7 36 5 21 -2 26 8 25 56 -1 18 24 23 37 7 17 -20 46 -17 68 6
19 21 19 21 32 -24 7 -25 10 -52 7 -60 -4 -9 -2 -18 3 -21 6 -4 10 -11 10 -17
0 -6 -9 -3 -20 7 -18 16 -20 16 -26 1 -4 -11 -13 -15 -25 -11 -13 4 -19 1 -19
-9 0 -9 6 -16 14 -16 8 0 17 -6 20 -12 3 -10 8 -9 18 2 7 9 21 14 31 12 12 -2
20 3 24 17 3 12 13 21 24 21 21 0 26 25 7 36 -17 11 20 34 54 34 41 0 79 43
72 80 -8 37 5 41 159 53 37 3 70 1 73 -4 3 -5 -4 -9 -15 -9 -12 0 -21 -6 -21
-14 0 -20 58 -28 115 -15 28 5 76 13 108 16 39 4 57 10 57 19 0 19 69 18 106
-1 17 -9 30 -11 32 -5 2 6 25 7 58 4 l54 -7 0 36 c0 38 19 53 48 37 75 -41
114 -50 201 -44 114 7 158 -5 204 -56 20 -23 39 -41 41 -41 12 1 43 -12 92
-35 28 -14 69 -27 90 -28 21 -2 42 -4 47 -5 4 -1 7 -7 7 -15 0 -9 13 -13 42
-12 26 0 43 -4 46 -12 3 -9 7 -10 17 -2 10 8 15 6 19 -8 4 -11 4 -28 1 -38 -3
-10 1 -5 9 11 8 17 15 36 16 43 0 7 12 18 26 24 22 10 28 10 39 -5 16 -22 35
-22 35 -1 0 14 7 16 40 11 32 -4 40 -2 40 11 0 15 1 15 16 0 9 -9 19 -42 23
-75 l7 -58 8 60 c9 66 27 95 61 95 11 0 26 5 32 11 15 15 33 3 34 -24 1 -14 5
-9 11 16 7 26 15 37 29 37 10 0 19 5 19 11 0 6 -9 9 -20 6 -17 -4 -20 0 -22
31 -1 21 0 59 1 86 2 33 0 46 -8 42 -7 -4 -11 -40 -11 -87 0 -77 -1 -79 -24
-79 -46 0 -88 13 -94 29 -11 31 -52 43 -52 16 0 -17 -45 -21 -55 -5 -4 6 -11
8 -16 4 -5 -3 -7 -10 -4 -15 4 -5 0 -9 -8 -9 -8 0 -19 10 -25 23 -6 12 -11 16
-11 10 -1 -7 -10 -13 -20 -13 -11 0 -22 -6 -25 -12 -3 -9 -11 -6 -25 11 -12
13 -21 18 -21 12 0 -6 -4 -11 -10 -11 -5 0 -10 6 -10 13 0 14 -27 16 -48 3 -9
-5 -10 -1 -2 18 6 17 6 26 0 26 -5 0 -12 -11 -16 -25 -7 -29 -47 -44 -68 -26
-7 6 -21 9 -29 5 -9 -3 -22 -2 -29 2 -7 4 -20 9 -29 9 -15 1 -87 50 -100 69
-4 5 -12 5 -19 1 -7 -4 -16 -2 -21 6 -6 10 -32 13 -101 11 -166 -5 -245 0
-277 17 -14 8 -37 10 -57 6 -27 -5 -34 -3 -34 10 0 20 -16 19 -24 -1 -5 -14
-9 -14 -22 -3 -9 7 -43 14 -78 15 -92 2 -189 15 -205 28 -11 8 0 13 50 22 35
7 98 19 139 29 41 9 104 22 140 30 35 7 66 18 68 24 2 6 17 11 32 11 16 0 31
4 34 9 3 4 33 11 66 14 33 3 68 11 76 18 14 11 18 10 30 -6 14 -19 15 -19 37
7 16 19 36 28 70 33 31 4 47 11 47 21 0 8 -9 14 -21 14 -27 0 -19 24 9 28 16
3 22 10 22 29 0 24 -2 25 -37 18 -21 -5 -47 -8 -58 -9 -11 -1 -48 -12 -83 -25
-46 -17 -62 -28 -60 -40 2 -9 11 -15 21 -13 10 2 17 -4 17 -14 0 -12 -6 -15
-27 -11 -15 3 -36 1 -46 -5 -21 -11 -30 -6 -32 20 -1 20 -5 22 -45 22 -25 0
-32 -6 -49 -45 -11 -25 -24 -45 -28 -45 -9 -1 -136 -31 -255 -61 -46 -11 -105
-24 -133 -28 -27 -3 -57 -11 -65 -16 -8 -5 -59 -10 -114 -11 -91 -2 -101 0
-117 20 -10 11 -18 27 -19 34 0 6 -6 12 -13 12 -19 0 -44 30 -52 63 -8 29 -32
37 -41 13 -4 -11 -12 -13 -31 -5 -29 11 -43 5 -43 -19 -1 -15 -2 -15 -15 2 -8
11 -18 17 -21 13 -4 -3 -21 4 -38 16 -17 12 -35 22 -39 22 -4 0 -11 6 -16 13
-5 8 -19 12 -32 10 -32 -4 -33 -42 -1 -46 12 -2 22 -9 22 -17 0 -7 7 -15 15
-19 8 -3 15 -10 15 -16 0 -7 -6 -7 -21 0 -25 14 -29 10 -38 -30 l-6 -31 -24
22 -23 22 -23 -29 c-13 -16 -21 -32 -18 -36 7 -13 -22 -9 -35 4 -10 10 -17 10
-33 0 -22 -14 -39 -8 -39 14 0 8 -9 14 -20 14 -11 0 -40 5 -65 12 -46 12 -55
31 -17 36 23 4 48 29 38 39 -3 3 -17 1 -30 -5 -19 -9 -32 -8 -55 4 -36 18 -51
12 -51 -22 0 -29 -16 -32 -23 -5 -3 12 -15 21 -33 23 -22 2 -33 12 -47 42 -20
43 -9 63 25 45 12 -7 25 -6 41 2 12 7 34 12 50 11 15 -1 27 2 27 7 0 5 21 12
48 16 92 11 187 28 212 39 14 5 54 11 90 12 36 1 103 6 150 12 112 15 272 18
290 7 8 -5 22 -8 31 -7 9 2 22 -4 29 -13 7 -8 23 -15 36 -15 12 0 30 -10 38
-22 15 -21 14 -23 -15 -35 -37 -15 -34 -37 6 -41 19 -3 33 2 42 14 11 16 13
16 19 1 4 -11 14 -15 28 -12 11 3 68 9 125 15 57 6 109 14 115 19 6 5 22 11
35 13 14 1 26 9 29 16 2 7 -2 10 -12 6 -11 -4 -16 -1 -16 10 0 22 -59 21 -108
-1 -20 -9 -44 -17 -52 -19 -8 -1 -35 -6 -59 -12 -42 -10 -44 -10 -54 17 -14
38 -74 77 -129 85 -27 4 -48 12 -48 18 0 6 36 8 103 5 56 -3 125 -1 154 3 54
9 96 4 87 -11 -4 -8 55 -1 65 7 2 2 10 -4 18 -14 10 -12 16 -14 19 -4 3 6 10
10 15 6 13 -8 39 -72 39 -96 0 -11 4 -16 11 -13 6 4 21 -3 34 -15 24 -23 28
-21 39 23 3 15 12 27 19 27 6 1 23 10 37 21 24 20 24 21 5 35 -18 14 -18 14 2
14 24 0 37 27 27 54 -3 9 -12 16 -20 16 -17 0 -17 1 -5 34 7 17 7 26 -2 29 -6
2 -12 20 -13 40 0 21 -4 40 -7 43 -8 9 -37 -15 -37 -30 -1 -6 -10 -22 -21 -35
-15 -18 -23 -21 -31 -13 -9 9 -8 12 4 12 13 0 28 19 28 35 0 9 -32 12 -67 5
-52 -9 -62 -3 -56 37 3 18 9 30 14 27 11 -6 79 17 79 28 0 4 -8 12 -17 17 -16
9 -16 10 3 11 12 0 24 7 28 15 8 21 54 19 59 -2 3 -15 6 -13 17 9 10 21 19 27
36 24 13 -3 28 2 35 10 6 8 26 14 44 14 19 0 35 6 38 13 4 9 7 9 18 0 10 -10
22 -3 60 36 51 52 84 68 93 44 5 -12 9 -13 21 -3 8 7 21 10 29 7 7 -3 28 3 45
14 40 24 52 24 79 -1 25 -23 33 -25 26 -6 -4 9 7 15 35 20 37 6 41 9 41 35 0
29 -1 30 -51 28 -28 -1 -51 -3 -52 -4z m-2767 -113 c0 -5 -5 -10 -11 -10 -5 0
-7 5 -4 10 3 6 8 10 11 10 2 0 4 -4 4 -10z m959 -8 c15 9 25 9 47 -1 16 -7 66
-14 114 -16 47 -2 111 -12 145 -23 79 -26 227 -43 405 -48 89 -2 146 -7 148
-14 2 -5 15 -10 28 -10 14 0 40 -7 60 -15 19 -8 40 -12 47 -9 15 5 46 -45 40
-63 -3 -8 4 -13 19 -13 19 0 58 -29 58 -44 0 -2 -21 -9 -47 -15 -27 -7 -63
-19 -81 -27 -19 -9 -41 -12 -50 -8 -22 10 -86 7 -90 -5 -14 -42 -38 -49 -112
-32 -80 18 -214 30 -224 20 -17 -16 -80 -9 -106 11 -32 25 -42 25 -92 -1 -23
-12 -60 -23 -82 -25 -73 -7 -119 -15 -130 -22 -49 -32 -126 -35 -126 -5 0 12
-3 13 -14 4 -12 -10 -18 -7 -32 14 -12 18 -20 23 -27 16 -17 -17 -57 -13 -57
4 0 8 -5 15 -11 15 -5 0 -7 5 -4 10 7 12 -16 14 -101 11 -55 -3 -62 -1 -67 18
-3 12 -1 24 4 27 5 3 9 12 9 20 0 14 -2 13 -16 0 -8 -9 -25 -16 -37 -15 -21 1
-20 1 3 10 14 5 34 23 45 39 22 33 35 38 35 14 0 -25 44 -13 48 14 2 14 10 22
23 22 12 0 19 7 19 20 0 24 -15 25 -54 5 -15 -8 -37 -15 -48 -15 -11 0 -27 -4
-37 -10 -13 -6 -24 -5 -39 6 -26 18 -29 34 -6 34 8 0 58 21 111 46 72 34 111
46 156 49 33 2 62 6 65 9 2 3 13 1 23 -5 13 -6 25 -6 38 3z m-729 -32 c12 -8
9 -10 -13 -10 -16 0 -26 4 -22 10 8 12 16 12 35 0z m-1259 -24 c-12 -15 -61
-28 -61 -17 0 15 25 31 48 31 20 0 22 -3 13 -14z m118 -27 c35 -34 40 -52 14
-47 -10 2 -19 13 -21 26 -2 12 -8 20 -13 17 -5 -4 -9 -1 -9 4 0 6 -7 11 -15
11 -8 0 -15 5 -15 10 0 20 29 9 59 -21z m1059 11 c10 0 10 -4 0 -20 -15 -24
-53 -26 -62 -4 -9 23 3 37 28 30 11 -3 27 -6 34 -6z m-216 -32 c-7 -7 -12 -8
-12 -2 0 14 12 26 19 19 2 -3 -1 -11 -7 -17z m54 -3 c-11 -8 -25 -15 -30 -15
-6 0 -2 7 8 15 11 8 25 15 30 15 6 0 2 -7 -8 -15z m554 -26 c0 -5 -19 -7 -42
-5 -56 6 -56 6 -34 15 23 9 76 2 76 -10z m-106 -3 c-3 -8 -1 -17 5 -21 18 -11
12 -23 -11 -23 -13 0 -32 -3 -43 -7 -17 -5 -21 -2 -20 17 0 35 13 48 45 48 21
0 28 -4 24 -14z m-90 -11 c-4 -8 -7 -15 -9 -15 -2 0 -5 7 -9 15 -3 9 0 15 9
15 9 0 12 -6 9 -15z m-194 -11 c0 -11 -5 -14 -16 -10 -11 4 -14 1 -9 -13 6
-21 -19 -49 -30 -31 -3 5 -1 10 5 10 8 0 10 9 6 24 -4 18 -1 26 11 29 31 8 33
7 33 -9z m-517 -31 c15 -3 30 -9 33 -14 3 -5 13 -9 23 -9 14 0 17 -6 13 -29
-3 -23 1 -33 19 -44 53 -33 64 -31 78 18 15 51 41 60 59 20 8 -16 17 -23 27
-19 8 4 22 1 30 -6 14 -12 16 -10 19 15 2 14 46 58 46 46 0 -6 -5 -13 -11 -17
-6 -3 -9 -19 -6 -34 3 -15 1 -32 -5 -38 -9 -9 -2 -11 25 -10 24 1 37 6 37 15
0 17 20 17 20 1 0 -7 5 -5 11 5 8 13 14 15 30 7 23 -13 43 -4 35 16 -7 19 12
28 29 14 11 -9 19 -8 37 4 25 18 53 22 43 6 -9 -15 24 -12 86 6 76 24 99 25
99 7 0 -8 9 -17 20 -20 27 -7 25 -19 -5 -48 -18 -16 -22 -25 -13 -28 10 -4 8
-9 -4 -17 -21 -13 -24 -40 -4 -40 7 0 19 -7 27 -16 10 -13 10 -17 -1 -24 -19
-12 -60 10 -66 36 -6 24 -36 42 -42 25 -2 -7 -11 -6 -25 4 -18 13 -24 13 -43
0 -14 -9 -25 -11 -29 -5 -3 6 -1 10 4 10 6 0 11 4 11 10 0 5 -7 7 -15 4 -8 -4
-21 -1 -29 5 -7 6 -16 8 -19 5 -3 -4 -13 1 -22 10 -20 20 -31 20 -38 2 -7 -19
-106 -66 -137 -66 -13 0 -20 3 -16 7 4 4 13 8 19 8 28 0 9 18 -20 20 -30 2
-33 -1 -33 -26 0 -21 -4 -27 -15 -23 -8 4 -15 2 -15 -4 0 -14 -69 3 -88 21
-12 13 -11 16 9 22 13 5 40 8 59 9 20 1 33 5 30 11 -6 12 -160 15 -160 3 0 -4
-11 -8 -23 -8 -26 0 -47 34 -47 75 0 29 -32 65 -57 65 -10 1 -29 8 -43 16
l-25 15 25 -6 c14 -4 37 -9 53 -12z m967 -94 c0 -11 -4 -18 -10 -14 -5 3 -7
12 -3 20 7 21 13 19 13 -6z m1530 -69 c0 -5 -4 -10 -10 -10 -5 0 -10 5 -10 10
0 6 5 10 10 10 6 0 10 -4 10 -10z m-1920 -10 c0 -5 -4 -10 -10 -10 -5 0 -10 5
-10 10 0 6 5 10 10 10 6 0 10 -4 10 -10z m1066 -11 c4 -7 22 -9 50 -4 39 5
147 -7 184 -22 30 -12 -156 -39 -240 -36 -40 2 -95 9 -95 13 0 1 -17 4 -37 5
-28 3 -38 0 -38 -11 0 -8 10 -14 23 -15 20 0 20 -1 3 -8 -22 -9 -64 -3 -72 10
-3 5 2 9 10 9 9 0 16 8 16 19 0 13 10 20 38 25 20 3 55 10 77 15 57 12 73 13
81 0z m-716 -16 c-1 -26 -18 -33 -56 -24 -21 5 -31 9 -21 10 9 1 17 6 17 11 0
6 14 10 30 10 17 0 30 -3 30 -7z m-970 -65 c0 -9 -9 -13 -52 -22 -33 -7 -38
11 -8 22 27 10 60 10 60 0z m245 2 c-8 -13 1 -13 25 2 16 10 23 9 44 -11 14
-13 23 -28 20 -32 -3 -5 -50 -9 -105 -9 -97 0 -99 0 -99 23 0 13 3 27 7 30 11
11 115 8 108 -3z m195 -28 c0 -11 -37 -32 -44 -25 -3 3 2 12 12 19 19 15 32
18 32 6z m-819 -58 c11 -13 25 -15 77 -9 40 4 62 3 58 -3 -6 -10 -103 -28
-121 -22 -5 2 -19 4 -31 5 -24 2 -44 13 -44 25 0 7 14 14 41 19 4 0 13 -6 20
-15z m1264 -4 c3 -5 -1 -10 -9 -10 -8 0 -18 5 -21 10 -3 6 1 10 9 10 8 0 18
-4 21 -10z m-995 -55 c0 -8 9 -19 19 -24 15 -8 22 -6 34 12 14 19 18 20 26 7
6 -8 11 -29 11 -46 0 -26 -5 -32 -35 -42 -33 -10 -35 -9 -30 9 4 13 1 21 -12
26 -10 4 -23 14 -30 22 -10 14 -16 14 -48 2 -55 -19 -54 -6 1 22 60 30 64 31
64 12z m-223 -31 c-3 -3 -12 -4 -19 -1 -8 3 -5 6 6 6 11 1 17 -2 13 -5z m667
-20 c25 -9 2 -41 -33 -46 -40 -6 -50 2 -40 30 8 22 39 29 73 16z m474 -30 c12
-4 22 -10 22 -14 0 -14 -32 -21 -45 -10 -7 6 -17 10 -21 9 -5 -1 -20 0 -34 1
l-25 2 25 8 c32 10 50 11 78 4z m1052 -36 c0 -15 -27 -8 -45 12 -17 19 -17 19
14 7 17 -6 31 -15 31 -19z m-1146 -9 c-3 -5 -17 -9 -31 -9 -21 0 -23 3 -14 14
12 15 55 10 45 -5z m-67 5 c-3 -3 -12 -4 -19 -1 -8 3 -5 6 6 6 11 1 17 -2 13
-5z m204 -14 c6 0 7 -4 4 -10 -10 -16 -45 -12 -45 6 0 11 5 14 16 10 9 -3 20
-6 25 -6z m-238 -16 c12 -13 -6 -34 -31 -34 -24 0 -25 0 -7 20 19 21 28 24 38
14z m54 -58 c-2 -6 -11 -12 -20 -14 -11 -2 -14 2 -10 17 3 12 11 17 19 14 8
-3 13 -11 11 -17z m91 -43 c4 -7 25 -13 47 -14 98 -3 122 -21 43 -32 -26 -4
-48 -1 -57 6 -11 9 -13 9 -8 0 13 -21 -25 -33 -115 -35 -16 -1 -28 -4 -28 -8
0 -16 -94 -17 -112 -2 -16 14 -16 16 6 33 13 11 31 19 39 19 8 0 18 7 21 15 4
12 14 14 39 10 24 -5 36 -3 39 7 7 16 76 17 86 1z m1444 -4 c9 -5 29 -9 44 -9
26 0 26 -1 11 -18 -10 -10 -17 -24 -17 -31 0 -7 -7 -10 -18 -6 -11 3 -48 7
-84 9 -36 1 -70 6 -76 10 -6 3 -23 1 -38 -4 -15 -6 -37 -10 -48 -9 -12 1 -25
0 -31 -1 -21 -4 -90 2 -97 9 -4 4 14 13 40 20 26 7 63 19 82 26 19 8 49 16 65
18 44 4 147 -4 167 -14z m-1275 5 c-3 -3 -12 -4 -19 -1 -8 3 -5 6 6 6 11 1 17
-2 13 -5z m-647 -64 c-20 -12 -33 -1 -19 16 9 11 15 12 23 4 8 -8 7 -13 -4
-20z m-220 0 c0 -10 -14 -14 -38 -11 -8 1 -19 -3 -27 -9 -9 -8 -15 -8 -20 0
-7 11 4 16 45 23 14 2 28 5 33 6 4 0 7 -3 7 -9z m324 0 c-6 -6 -21 -6 -39 -1
-30 9 -30 9 10 10 25 1 36 -2 29 -9z m772 -55 c-21 -16 -32 -13 -21 4 3 6 14
11 23 11 15 -1 15 -2 -2 -15z m494 -27 c0 -15 -25 -8 -55 17 l-30 24 43 -16
c23 -9 42 -20 42 -25z m-1554 -45 c-11 -11 -17 4 -9 23 7 18 8 18 11 1 2 -10
1 -21 -2 -24z m-6322 -28 c3 -8 -2 -34 -10 -57 -28 -81 -68 -456 -54 -513 5
-22 9 -56 9 -75 0 -61 -17 -11 -35 99 -12 78 -13 108 -5 129 6 15 15 99 20
187 6 111 14 173 26 203 17 42 38 54 49 27z m6770 -29 c31 -1 33 -7 6 -24 -17
-10 -20 -10 -20 3 0 8 -7 15 -15 15 -8 0 -15 -3 -15 -8 0 -7 -29 -21 -72 -36
-23 -7 -23 -30 -1 -67 15 -26 16 -31 2 -44 -11 -12 -22 -13 -52 -4 -27 7 -42
7 -51 0 -10 -8 -20 -6 -39 9 -14 11 -35 20 -46 20 -40 0 -21 19 27 25 97 14
117 21 120 39 3 16 -2 18 -42 15 -32 -3 -46 0 -46 8 0 21 -21 15 -27 -7 -6
-24 -23 -17 -23 10 0 10 14 27 30 37 17 9 30 21 30 25 0 4 11 8 25 8 18 0 25
-5 25 -19 0 -42 88 -38 110 4 12 23 15 24 31 9 10 -9 29 -17 43 -18z m94 -43
c-4 -22 -22 -20 -26 1 -2 10 3 16 13 16 10 0 15 -7 13 -17z m-408 -29 c0 -8
-4 -14 -10 -14 -5 0 -10 9 -10 21 0 11 5 17 10 14 6 -3 10 -13 10 -21z m576 1
c20 -19 5 -19 -20 0 -11 9 -14 15 -7 15 7 0 19 -7 27 -15z m-496 -126 c0 -5
-12 -9 -27 -9 -22 0 -25 2 -13 10 8 5 11 10 7 10 -5 0 -5 5 -2 10 7 12 35 -5
35 -21z m483 -26 c-7 -2 -13 -14 -13 -26 -1 -21 -1 -21 -11 -3 -11 19 2 37 26
35 6 0 4 -3 -2 -6z m-122 -17 c46 -19 102 -96 70 -96 -6 0 -13 5 -16 10 -10
16 -55 12 -61 -5 -8 -20 13 -45 37 -45 32 0 69 -23 69 -42 0 -11 -4 -16 -10
-13 -5 3 -10 1 -10 -5 0 -7 -6 -8 -18 -1 -19 10 -117 -4 -209 -30 -38 -10 -47
-9 -95 15 -28 14 -62 26 -75 26 -28 0 -30 21 -4 44 11 10 17 24 14 32 -3 9 2
14 16 14 12 0 21 5 21 11 0 6 7 8 15 5 9 -3 18 0 21 8 7 19 114 18 114 0 0
-21 17 -17 23 5 6 25 0 31 -32 31 -39 0 -56 14 -37 29 8 7 19 10 24 8 4 -3 14
-2 22 4 22 13 83 11 121 -5z m486 -148 c15 -6 34 -10 41 -9 6 1 12 -3 12 -9 0
-5 6 -10 14 -10 16 0 66 -25 75 -37 17 -23 84 -64 96 -59 8 3 15 1 15 -4 0 -5
10 -12 23 -16 12 -3 30 -15 40 -25 21 -23 39 -25 31 -4 -8 19 15 19 39 1 25
-20 22 -23 -32 -30 -39 -5 -50 -11 -54 -28 -8 -28 3 -45 15 -24 14 24 28 19
28 -10 0 -17 -6 -28 -19 -31 -11 -3 -22 -11 -25 -19 -3 -8 -14 -14 -25 -14
-10 0 -21 -7 -25 -15 -3 -8 -14 -15 -25 -15 -11 0 -23 -5 -26 -11 -4 -6 -19
-7 -37 -3 -25 5 -30 3 -25 -9 4 -11 -4 -16 -36 -21 -49 -6 -165 -2 -174 7 -3
3 -17 0 -32 -7 -22 -11 -175 -36 -224 -36 -9 0 -17 7 -17 15 0 9 -9 15 -21 15
-14 0 -19 -5 -16 -14 4 -9 -3 -16 -16 -20 -40 -10 -59 -6 -89 19 -17 15 -43
25 -61 26 -30 0 -31 1 -9 11 12 6 22 15 22 19 0 4 27 7 59 5 47 -1 61 2 64 14
2 8 29 28 60 43 32 15 57 34 57 42 0 8 4 15 10 15 5 0 7 -6 4 -14 -3 -7 2 -16
10 -19 12 -5 16 1 17 21 1 15 3 20 6 10 3 -14 13 -16 61 -11 31 3 62 10 67 17
6 6 38 11 72 11 33 0 59 3 56 7 -2 5 6 8 19 8 40 0 79 23 76 45 -3 17 -11 19
-71 20 -38 0 -71 -3 -74 -7 -6 -11 -53 -10 -53 0 0 13 -47 35 -59 28 -14 -9
-1 -38 15 -32 7 3 16 1 19 -4 4 -6 -6 -11 -22 -11 -38 -2 -82 -7 -116 -13 -15
-3 -26 -2 -23 3 3 5 21 12 40 15 24 5 37 14 42 29 8 28 65 107 76 107 4 0 8
-6 8 -12 0 -19 51 -41 64 -28 7 7 1 18 -18 35 -32 27 -32 29 4 44 33 13 34 13
67 -1z m-787 -113 c0 -9 -18 -15 -52 -17 -56 -5 -74 2 -66 24 7 18 118 12 118
-7z m294 0 c7 -18 32 -20 39 -2 3 6 6 2 6 -10 1 -16 -3 -21 -14 -17 -9 4 -15
0 -15 -10 0 -9 6 -16 14 -16 7 0 19 -6 25 -14 10 -12 7 -18 -13 -31 -14 -10
-35 -15 -46 -12 -12 3 -23 -1 -28 -9 -5 -8 -19 -16 -33 -16 -13 -1 -28 -4 -34
-8 -5 -3 -38 -7 -71 -9 -55 -2 -62 -1 -67 19 -5 21 -6 21 -31 5 -14 -10 -33
-14 -42 -11 -9 4 -23 1 -31 -5 -10 -9 -23 -9 -52 1 -22 7 -51 10 -66 8 -21 -5
-25 -2 -19 11 3 9 9 26 11 39 4 14 13 22 27 22 11 0 30 3 42 6 18 5 22 0 27
-26 6 -27 10 -31 34 -28 22 2 29 9 31 29 3 25 24 37 77 44 6 0 20 6 32 13 12
7 31 12 43 12 17 0 19 -4 14 -24 -3 -13 -1 -26 4 -30 14 -8 55 41 49 58 -4 10
2 16 21 19 52 8 60 7 66 -8z m-599 -185 c-54 -22 -106 -27 -89 -10 10 10 81
27 119 28 11 1 -2 -8 -30 -18z m1835 -92 c0 -7 -12 -22 -27 -32 l-26 -19 23
31 c26 35 30 38 30 20z m-1615 -68 c18 -20 17 -20 -21 -22 -110 -6 -153 9 -79
28 70 17 80 17 100 -6z m672 -1 c-10 -6 -17 -20 -16 -32 4 -56 -15 -67 -24
-14 -5 34 12 57 42 57 13 -1 13 -3 -2 -11z m259 -29 c9 0 18 9 21 20 4 16 14
20 45 20 35 0 39 -2 28 -15 -7 -9 -11 -18 -8 -21 9 -8 92 -9 116 -1 14 5 22 4
22 -2 0 -6 -6 -11 -14 -11 -8 0 -16 -4 -18 -9 -1 -5 -34 -12 -72 -16 -38 -3
-73 -8 -77 -11 -4 -2 -32 -5 -63 -5 -31 -1 -56 -6 -56 -10 0 -10 -71 -6 -89 6
-21 12 25 37 57 31 23 -5 31 -1 51 30 23 34 25 35 33 15 4 -12 15 -21 24 -21z
m671 7 c-8 -24 -169 -47 -211 -31 -9 3 -16 17 -16 29 0 18 5 23 20 20 29 -6
41 -15 35 -26 -7 -11 28 -12 39 -1 4 4 26 14 49 23 31 12 47 14 65 6 12 -6 21
-15 19 -20z m-345 -9 c6 -10 11 -9 19 5 19 33 78 18 79 -20 0 -10 -173 -3
-184 7 -5 5 -2 15 5 23 15 16 66 7 81 -15z m-747 -12 c15 4 25 2 25 -5 0 -21
-58 -17 -80 6 -13 14 -13 14 7 4 13 -6 34 -9 48 -5z m214 -15 c17 -11 7 -41
-12 -41 -9 0 -14 10 -14 25 0 27 4 30 26 16z m-333 -47 c56 -27 71 -79 21 -73
-12 2 -33 -3 -46 -10 -32 -18 -100 -19 -110 -3 -4 7 -16 12 -27 11 -44 -4 -74
2 -74 15 0 21 28 40 89 57 74 22 106 22 147 3z m754 -54 c0 -63 -14 -80 -25
-31 -3 16 -13 36 -22 43 -20 16 -126 20 -173 5 -49 -15 -168 -16 -180 -1 -8 9
9 12 70 12 45 1 98 6 118 11 20 6 61 9 90 8 30 -2 56 1 58 5 3 4 18 8 35 8 29
0 29 0 29 -60z m-557 33 c-7 -2 -19 -2 -25 0 -7 3 -2 5 12 5 14 0 19 -2 13 -5z
m147 -33 c0 -5 -5 -10 -11 -10 -5 0 -7 5 -4 10 3 6 8 10 11 10 2 0 4 -4 4 -10z
m-813 -32 c-9 -5 -29 -5 -44 -1 l-28 7 35 6 c41 7 59 1 37 -12z m563 -5 c0
-17 -18 -35 -28 -29 -6 3 -32 2 -57 -4 -33 -7 -51 -7 -63 1 -15 9 -14 10 4 6
12 -2 31 1 44 8 13 7 31 10 40 8 10 -3 21 0 24 6 8 12 36 15 36 4z m650 -55
c0 -6 -7 -7 -16 -4 -9 3 -20 6 -25 6 -6 0 -8 4 -5 9 8 12 46 2 46 -11z m-954
-38 c8 0 14 -4 14 -9 0 -5 18 -9 41 -9 22 -1 46 -5 52 -10 7 -5 29 -12 50 -16
20 -4 37 -10 37 -14 0 -4 26 -6 57 -5 44 2 61 -1 70 -13 8 -12 20 -14 39 -10
18 5 30 3 36 -6 6 -10 10 -10 17 2 12 18 26 7 18 -15 -4 -8 -17 -15 -31 -15
-13 0 -27 -7 -30 -16 -8 -21 -3 -26 28 -28 23 -1 26 -6 26 -35 0 -25 -3 -31
-12 -24 -21 16 -61 14 -54 -3 3 -9 -1 -14 -14 -14 -13 0 -18 5 -14 15 4 10 0
15 -14 15 -14 0 -19 7 -19 25 0 15 5 25 13 25 8 0 14 -4 14 -10 0 -5 7 -10 15
-10 11 0 14 9 12 30 -5 43 -13 47 -53 25 -28 -15 -43 -17 -81 -9 -38 7 -49 14
-54 34 -4 14 -7 19 -8 11 -1 -10 -11 -12 -42 -7 -32 5 -44 3 -53 -10 -11 -15
-17 -15 -50 -3 -21 8 -35 18 -32 25 6 16 -34 23 -56 10 -12 -7 -22 -5 -36 7
-10 9 -24 17 -31 17 -7 0 -11 8 -9 18 4 22 51 28 68 8 17 -22 40 -20 40 2 0
21 23 48 28 32 2 -5 10 -10 18 -10z m1394 -13 c55 0 77 -2 63 -8 -28 -10 -45
-43 -45 -85 l0 -34 -101 5 c-55 3 -102 7 -105 9 -8 9 21 81 41 104 14 15 27
20 41 16 12 -4 59 -7 106 -7z m-620 -36 c15 -29 12 -68 -6 -97 -13 -19 -20
-22 -30 -13 -11 9 -15 7 -19 -5 -3 -9 -7 -23 -10 -32 -3 -8 -13 -14 -22 -12
-13 2 -18 14 -19 53 0 28 -2 55 -4 60 -9 34 34 53 46 20 4 -8 14 -15 24 -15
20 0 37 33 21 38 -14 5 -14 22 -1 22 5 0 14 -9 20 -19z m-7410 -31 c0 -13 -1
-13 -10 0 -5 8 -10 22 -10 30 0 13 1 13 10 0 5 -8 10 -22 10 -30z m7490 13
l25 -12 -27 0 c-16 -1 -28 1 -28 3 0 2 -3 13 -6 23 -3 10 -2 14 3 8 4 -6 19
-16 33 -22z m-1040 -59 c0 -2 -7 -4 -15 -4 -8 0 -15 4 -15 10 0 5 7 7 15 4 8
-4 15 -8 15 -10z m107 -30 c-3 -3 -12 -4 -19 -1 -8 3 -5 6 6 6 11 1 17 -2 13
-5z m-127 -14 c12 -8 11 -10 -7 -10 -12 0 -25 5 -28 10 -8 13 15 13 35 0z
m453 -37 c-9 -16 -17 -29 -17 -29 -1 -1 -11 -5 -23 -8 -18 -6 -23 -3 -23 9 0
13 6 16 21 12 13 -3 19 -1 16 6 -2 7 5 17 17 24 29 17 29 17 9 -14z m-459 -14
c-3 -5 -1 -9 5 -9 5 0 13 5 16 10 9 15 25 2 18 -15 -5 -16 -49 -18 -91 -7 -23
7 -27 27 -5 27 6 0 14 3 18 7 9 9 46 -3 39 -13z m222 -35 c-3 -8 3 -10 17 -7
18 5 20 3 10 -7 -10 -10 -18 -11 -37 -2 -19 8 -26 8 -30 -1 -3 -9 -9 -7 -18 4
-7 9 -19 14 -25 12 -7 -3 -13 2 -13 10 0 10 7 13 20 10 11 -3 20 -1 20 5 0 7
10 6 30 -1 17 -6 28 -17 26 -23z m284 26 c0 -5 -9 -10 -20 -10 -11 0 -20 5
-20 10 0 6 9 10 20 10 11 0 20 -4 20 -10z m546 -32 c-1 -25 -6 -33 -20 -33
-25 0 -31 19 -11 38 8 9 15 21 15 27 0 6 4 9 9 6 5 -3 8 -20 7 -38z m-1293
-37 c5 -22 -17 -31 -57 -24 -17 4 -26 12 -26 24 0 28 75 28 83 0z m-229 -6
c-6 -16 -44 -21 -44 -7 0 14 12 22 31 22 12 0 16 -5 13 -15z m783 -28 c-11
-11 -16 -25 -12 -38 4 -10 2 -19 -4 -19 -5 0 -12 -13 -16 -29 -8 -36 -29 -45
-58 -26 -22 14 -50 15 -63 2 -4 -4 -14 -7 -23 -7 -11 0 -12 3 -3 12 9 9 8 14
-4 22 -13 10 -13 16 -1 51 13 38 16 40 63 45 27 3 69 5 94 5 43 0 44 -1 27
-18z m-202 -16 c-8 -13 -42 -14 -50 -2 -3 5 7 11 22 13 33 4 37 3 28 -11z
m1225 -11 c0 -5 11 -10 25 -10 14 0 35 -10 47 -22 22 -22 22 -23 3 -27 -10 -2
-21 2 -23 8 -2 6 -9 11 -16 11 -7 0 -23 11 -36 25 -13 14 -18 25 -12 25 7 0
12 -4 12 -10z m-7599 -145 c11 -25 17 -50 14 -55 -3 -6 -1 -10 4 -10 9 0 61
-89 61 -105 0 -3 -9 -5 -19 -5 -20 0 -45 52 -71 148 -6 24 -14 50 -17 58 -3 8
-2 14 1 14 4 0 16 -20 27 -45z m7733 36 c7 -10 -27 -21 -66 -21 -39 0 -35 18
5 23 17 2 37 5 44 5 6 1 14 -2 17 -7z m136 -11 c0 -5 -4 -10 -9 -10 -6 0 -13
5 -16 10 -3 6 1 10 9 10 9 0 16 -4 16 -10z m20 -25 c0 -16 -26 -55 -37 -55
-16 0 -16 1 -3 34 5 14 16 26 25 26 8 0 15 -2 15 -5z m-1670 -25 c0 -5 -5 -10
-11 -10 -5 0 -7 5 -4 10 3 6 8 10 11 10 2 0 4 -4 4 -10z m-382 -40 c12 0 22
-4 22 -10 0 -5 7 -10 15 -10 8 0 15 -4 15 -9 0 -8 -83 3 -101 14 -5 4 -9 16
-9 27 0 20 1 20 18 5 10 -10 28 -17 40 -17z m1752 -35 c0 -14 -4 -25 -10 -25
-5 0 -10 11 -10 25 0 14 5 25 10 25 6 0 10 -11 10 -25z m-820 -74 c0 -6 -4
-13 -10 -16 -5 -3 -10 1 -10 9 0 9 5 16 10 16 6 0 10 -4 10 -9z m176 -48 c-7
-7 -26 7 -26 19 0 6 6 6 15 -2 9 -7 13 -15 11 -17z m-406 -23 c-8 -5 -25 -10
-38 -10 -12 0 -25 -7 -28 -15 -9 -23 -33 -19 -27 5 3 12 17 23 32 26 14 3 33
9 41 14 21 11 40 -8 20 -20z m-106 -24 c-3 -8 -15 -11 -30 -8 -22 4 -25 2 -22
-19 2 -20 10 -25 41 -27 26 -2 39 1 43 12 10 25 26 19 18 -6 -9 -30 -5 -28
-52 -32 -84 -8 -127 73 -52 98 37 13 62 4 54 -18z m348 -10 c3 -15 0 -27 -8
-30 -18 -7 -21 0 -16 34 5 34 17 32 24 -4z m-212 -5 c0 -28 -26 -47 -44 -31
-24 19 -7 42 37 49 4 0 7 -7 7 -18z m228 -68 c-8 -9 -2 -17 21 -30 17 -10 31
-23 31 -30 0 -6 6 -13 13 -16 6 -2 9 -7 5 -11 -3 -4 -21 0 -39 9 -22 12 -45
15 -73 12 -23 -3 -75 1 -116 10 -41 8 -85 16 -98 18 -47 5 -42 27 7 30 22 1
28 -2 23 -13 -4 -12 -1 -14 14 -7 18 8 25 8 69 6 40 -3 75 2 81 10 2 4 11 6
19 3 10 -4 18 4 25 22 9 22 13 25 20 14 5 -9 5 -19 -2 -27z m-173 7 c-3 -5
-10 -10 -16 -10 -5 0 -9 5 -9 10 0 6 7 10 16 10 8 0 12 -4 9 -10z m-34 -80 c5
0 9 -4 9 -10 0 -5 -13 -10 -30 -10 -29 0 -38 9 -23 24 4 3 13 4 21 1 7 -3 18
-5 23 -5z m-71 -10 c0 -5 -4 -10 -10 -10 -5 0 -10 5 -10 10 0 6 5 10 10 10 6
0 10 -4 10 -10z m-156 -17 c-10 -7 -24 -13 -31 -13 -7 0 -13 6 -13 13 0 9 12
14 31 14 29 0 30 -2 13 -14z m366 -28 c23 -8 46 -12 51 -9 5 3 16 -2 25 -10 8
-9 25 -16 37 -16 12 0 31 -7 41 -15 23 -17 60 -20 51 -4 -7 11 22 38 42 39 6
0 19 -7 27 -16 9 -8 24 -13 33 -10 27 8 98 -17 98 -34 0 -8 7 -14 16 -12 9 1
19 -4 23 -13 3 -8 12 -15 21 -15 8 0 15 -4 15 -10 0 -5 7 -10 15 -10 25 0 17
27 -17 56 -26 21 -28 25 -11 20 39 -12 173 -19 521 -26 13 0 21 -4 18 -8 -3
-5 8 -9 23 -10 42 -1 115 -22 123 -36 6 -8 8 -8 8 2 0 6 6 12 14 12 15 0 46
-42 46 -62 0 -7 12 -14 26 -15 15 0 29 -5 33 -10 3 -6 15 -15 26 -21 18 -10
18 -11 -10 -17 -81 -17 -161 -39 -168 -45 -10 -9 -47 -1 -47 10 0 4 -19 4 -42
0 -24 -5 -46 -6 -50 -4 -3 2 -10 -5 -13 -16 -9 -27 -50 -43 -89 -33 -17 4 -35
7 -39 7 -4 1 -12 7 -16 15 -6 9 -15 11 -27 6 -11 -4 -29 -8 -41 -9 -18 -1 -21
2 -17 21 5 19 2 23 -19 23 -14 0 -29 5 -32 10 -7 12 -25 4 -25 -11 0 -5 9 -9
20 -9 13 0 20 -7 20 -19 0 -17 -5 -19 -37 -15 -21 3 -50 10 -66 16 -20 8 -31
7 -43 -3 -22 -18 -109 -15 -139 5 -25 17 -105 22 -105 8 0 -13 -69 -32 -132
-35 -44 -3 -58 -1 -58 9 0 8 -4 14 -10 14 -5 0 -10 -6 -10 -14 0 -16 -12 -21
-75 -32 -22 -4 -49 -13 -61 -20 -20 -14 -27 -13 -116 19 -16 5 -28 16 -28 24
0 11 -6 13 -22 8 -59 -18 -73 -17 -85 10 -10 23 -9 27 11 35 32 12 42 41 19
58 -29 21 -48 10 -48 -26 0 -30 -2 -32 -40 -34 -154 -6 -153 -6 -164 19 -7 14
-7 23 -1 23 6 0 10 8 10 18 0 11 -3 13 -8 5 -10 -16 -62 -28 -62 -14 0 6 7 8
16 4 12 -4 15 -2 12 8 -3 8 -16 15 -29 16 -48 4 -84 16 -103 35 -28 25 -12 38
82 64 42 12 98 29 125 37 l47 15 34 -39 c18 -21 38 -39 44 -39 7 0 12 -4 12
-8 0 -4 16 -9 36 -9 20 -1 47 -7 61 -14 17 -9 26 -10 34 -2 8 8 19 7 37 -3 15
-8 39 -14 55 -14 40 0 34 27 -8 39 -49 13 -95 34 -95 43 0 5 -13 8 -29 8 -38
0 -47 14 -23 38 11 11 21 25 24 32 8 26 169 36 228 15z m1290 -5 c0 -5 -4 -10
-10 -10 -5 0 -10 5 -10 10 0 6 5 10 10 10 6 0 10 -4 10 -10z m-1830 -45 c0 -3
-9 -5 -20 -5 -11 0 -20 7 -20 15 0 13 4 14 20 5 11 -6 20 -13 20 -15z m1745
15 c-3 -5 -12 -10 -18 -10 -7 0 -6 4 3 10 19 12 23 12 15 0z m-7604 -123 c33
-29 119 -147 119 -162 0 -15 -97 75 -110 102 -8 15 -25 43 -38 61 -29 41 -17
40 29 -1z m5604 12 c-10 -15 -25 -10 -19 6 4 8 10 12 15 9 5 -3 7 -10 4 -15z
m-210 -100 c13 -20 -3 -21 -67 -6 l-63 15 62 1 c34 0 65 -4 68 -10z m485 -24
c0 -8 -4 -15 -10 -15 -5 0 -10 7 -10 15 0 8 5 15 10 15 6 0 10 -7 10 -15z
m-200 1 c0 -3 -4 -8 -10 -11 -5 -3 -10 -1 -10 4 0 6 5 11 10 11 6 0 10 -2 10
-4z m-108 -94 c-4 -13 -7 -12 -12 4 -4 10 -5 23 -2 28 7 13 21 -16 14 -32z
m323 29 c3 -5 1 -12 -5 -16 -5 -3 -10 1 -10 9 0 18 6 21 15 7z m1895 -5 c0
-11 -19 -15 -25 -6 -3 5 1 10 9 10 9 0 16 -2 16 -4z m-1059 -22 c24 -12 37
-13 63 -4 32 10 139 1 211 -19 29 -8 29 -8 -17 -15 -26 -4 -93 -11 -150 -16
-57 -5 -152 -14 -212 -20 -111 -11 -165 -7 -178 14 -12 18 -9 23 23 36 26 11
32 11 40 -1 7 -10 11 -11 17 -2 8 12 73 30 132 36 19 2 36 5 38 5 2 1 17 -5
33 -14z m-946 -14 c-3 -5 -11 -10 -16 -10 -6 0 -7 5 -4 10 3 6 11 10 16 10 6
0 7 -4 4 -10z m-115 -15 c10 -12 7 -15 -15 -21 -32 -8 -42 0 -25 21 16 19 24
19 40 0z m143 -12 c-7 -2 -19 -2 -25 0 -7 3 -2 5 12 5 14 0 19 -2 13 -5z m782
-85 c7 -7 3 -8 -11 -4 -26 8 -74 -9 -74 -26 0 -17 80 -42 93 -29 6 6 18 -1 35
-20 13 -16 22 -33 18 -36 -3 -3 -8 2 -12 11 -4 10 -18 16 -41 16 -30 0 -34 -3
-31 -22 2 -17 11 -24 31 -26 15 -2 27 -9 27 -18 0 -8 7 -14 15 -14 8 0 15 -4
15 -9 0 -6 -10 -8 -22 -6 -14 3 -29 -4 -44 -20 -26 -29 -37 -31 -53 -11 -10
11 -17 9 -41 -16 -17 -16 -30 -34 -30 -39 0 -13 -17 -11 -40 4 -17 10 -22 9
-29 -2 -13 -20 -131 -9 -143 14 -7 11 -13 13 -22 6 -17 -14 -78 42 -70 63 4
12 0 16 -16 16 -12 0 -18 -4 -15 -10 4 -6 11 -7 17 -4 6 4 8 2 5 -4 -10 -16
-95 -12 -101 5 -8 21 -26 5 -26 -23 0 -15 -6 -24 -15 -24 -12 0 -13 4 -5 19
17 33 12 51 -15 51 -14 0 -25 -5 -25 -10 0 -6 -8 -5 -20 2 -16 10 -24 10 -40
0 -11 -6 -29 -12 -40 -12 -11 0 -20 -4 -20 -9 0 -13 30 -22 51 -16 34 11 20
-14 -16 -29 -52 -22 -105 -30 -105 -17 0 6 11 11 25 11 14 0 25 5 25 10 0 6
-13 10 -30 10 -17 0 -29 5 -28 11 5 21 -19 20 -25 -1 -3 -13 -13 -20 -28 -20
-12 0 -30 -6 -38 -14 -14 -12 -22 -12 -56 0 -22 7 -46 12 -54 9 -7 -3 -19 -1
-26 5 -7 6 -21 9 -31 9 -11 -1 -30 -1 -44 0 -18 1 -21 4 -11 10 7 5 30 6 51 4
22 -3 40 -1 44 6 5 7 -3 11 -21 11 -25 1 -24 2 12 15 22 8 53 15 69 15 16 0
52 14 80 32 46 29 58 32 124 31 51 -2 85 3 115 16 28 12 49 16 64 10 14 -5 35
-3 55 5 35 14 128 10 128 -5 0 -5 5 -9 11 -9 7 0 9 10 5 26 l-7 26 54 -7 c36
-5 57 -3 61 4 8 13 75 15 94 2 19 -11 62 -1 62 15 0 28 108 38 135 12z m-1271
-34 c8 -3 12 -12 9 -20 -8 -20 37 -18 52 3 8 11 18 14 31 8 24 -10 88 -6 92 6
4 10 33 12 56 3 15 -6 15 -8 -1 -19 -10 -8 -15 -17 -11 -21 4 -4 14 -1 22 5
11 10 23 9 55 -1 l41 -14 -48 -17 c-26 -9 -74 -21 -107 -26 -33 -5 -76 -13
-95 -18 -44 -12 -165 -2 -182 15 -17 17 2 66 27 71 11 2 24 9 28 17 9 16 10
16 31 8z m396 -7 c1 -4 -6 -15 -15 -23 -8 -9 -15 -11 -15 -5 0 5 -10 11 -22
13 -39 6 -30 24 12 24 22 -1 40 -5 40 -9z m2560 -41 c0 -2 -7 -7 -16 -10 -8
-3 -12 -2 -9 4 6 10 25 14 25 6z m-8020 -58 c0 -6 -7 -5 -15 2 -8 7 -15 17
-15 22 0 6 7 5 15 -2 8 -7 15 -17 15 -22z m4898 -35 c-10 -2 -28 -2 -40 0 -13
2 -5 4 17 4 22 1 32 -1 23 -4z m1771 -23 c11 -6 10 -8 -2 -13 -9 -3 -26 3 -39
14 l-23 20 25 -7 c14 -3 31 -10 39 -14z m-1508 -18 c-7 -2 -18 1 -23 6 -8 8
-4 9 13 5 13 -4 18 -8 10 -11z m-88 -15 c31 -7 56 -16 54 -22 -2 -5 -29 -11
-60 -13 -46 -2 -57 0 -57 13 0 8 -7 15 -15 15 -8 0 -15 -7 -15 -15 0 -22 -17
-18 -23 5 -6 23 19 43 43 34 8 -3 41 -11 73 -17z m334 -53 c-3 -3 -12 -4 -19
-1 -8 3 -5 6 6 6 11 1 17 -2 13 -5z m49 -46 c-5 -30 -4 -31 8 -15 11 14 21 17
38 11 l23 -7 -23 -8 c-12 -5 -22 -13 -22 -19 0 -5 -16 -10 -36 -10 -19 0 -45
-5 -56 -11 -18 -9 -24 -8 -35 7 -12 17 -13 17 -13 -4 0 -17 -6 -22 -26 -22
l-25 0 25 33 c14 19 23 37 20 40 -4 3 10 3 30 0 28 -4 36 -2 36 10 0 15 16 23
49 26 10 1 12 -7 7 -31z m1657 -17 c16 -6 40 -11 55 -11 23 -1 25 -2 10 -11
-10 -5 -18 -17 -18 -24 0 -17 -40 -19 -109 -6 -24 5 -56 5 -71 1 -19 -6 -32
-4 -42 6 -11 11 -21 12 -39 6 -44 -17 -239 -20 -239 -4 0 4 33 14 73 20 41 7
78 17 83 21 5 5 18 11 29 14 33 9 238 0 268 -12z m-540 -46 c1 -5 -15 -10 -35
-10 -31 -2 -36 1 -26 12 12 15 57 14 61 -2z m-1327 -14 c-5 -8 -56 -3 -56 5 0
2 14 4 31 4 16 0 28 -4 25 -9z m1789 -41 c3 -5 2 -10 -4 -10 -5 0 -13 5 -16
10 -3 6 -2 10 4 10 5 0 13 -4 16 -10z m-1678 -104 c11 -36 2 -56 -24 -56 -7 0
-13 -6 -13 -14 0 -17 -33 -31 -38 -17 -4 12 -52 16 -52 5 0 -20 46 -44 77 -40
18 2 36 -1 39 -6 3 -5 12 -7 19 -4 7 2 16 2 20 -2 10 -10 68 -13 267 -13 112
0 190 -3 193 -9 3 -6 19 -10 36 -10 16 0 29 -4 29 -10 0 -5 11 -10 23 -10 13
0 32 -8 41 -19 16 -18 16 -19 -16 -24 -68 -12 -350 17 -384 40 -29 19 -188 27
-217 12 -33 -18 -268 -25 -298 -9 -11 7 -45 5 -96 -4 -77 -13 -138 -11 -158 5
-6 4 -17 4 -25 -1 -23 -15 -56 -12 -70 5 -7 9 -15 14 -17 11 -3 -2 -17 0 -33
4 -35 10 -95 -9 -127 -40 -16 -15 -21 -17 -17 -6 4 10 1 16 -9 16 -8 0 -20 6
-26 14 -15 18 -6 21 104 36 44 6 88 14 98 16 19 6 60 81 51 95 -10 17 10 9 32
-12 25 -23 44 -18 44 12 0 15 7 19 32 19 30 0 31 -1 12 -14 -25 -19 -18 -24
36 -27 41 -3 45 -1 44 19 -1 25 18 29 189 36 91 3 106 2 96 -10 -9 -11 -9 -14
0 -14 18 0 99 38 106 50 11 18 22 10 32 -24z m-4829 -147 c12 -19 11 -19 -8
-9 -11 6 -20 15 -20 20 0 17 15 11 28 -11z m4206 -65 c21 -21 13 -32 -19 -26
-18 3 -25 0 -25 -12 0 -9 -4 -16 -10 -16 -5 0 -10 9 -10 20 0 13 7 20 20 20
13 0 18 5 14 15 -8 20 10 19 30 -1z m-359 -54 c3 -5 1 -10 -4 -10 -6 0 -11 5
-11 10 0 6 2 10 4 10 3 0 8 -4 11 -10z m465 -100 c0 -5 -4 -10 -10 -10 -5 0
-10 -10 -11 -22 l0 -23 -10 23 c-5 13 -7 28 -3 33 7 12 34 11 34 -1z m-138
-73 c4 -6 4 -16 0 -22 -4 -6 -8 -2 -10 8 -3 14 -10 17 -28 13 -18 -5 -24 -2
-24 10 0 13 6 15 27 9 15 -3 31 -12 35 -18z m-312 9 c0 -2 3 -11 6 -20 5 -12
0 -16 -20 -16 -14 0 -26 2 -26 4 0 2 -3 11 -6 20 -5 12 0 16 20 16 14 0 26 -2
26 -4z m-95 -26 c3 -5 2 -10 -4 -10 -5 0 -13 5 -16 10 -3 6 -2 10 4 10 5 0 13
-4 16 -10z m235 -32 c0 -60 -9 -88 -26 -81 -21 8 -17 -24 4 -36 12 -7 -4 -9
-56 -6 -41 2 -76 6 -79 9 -9 9 18 36 29 30 5 -3 15 2 23 12 9 13 23 18 49 16
42 -4 44 0 14 28 -13 12 -29 18 -40 14 -14 -4 -18 0 -18 21 0 22 4 26 20 22
11 -3 23 -1 26 4 3 5 16 9 30 9 22 0 24 -4 24 -42z m-373 26 c-3 -3 -12 -4
-19 -1 -8 3 -5 6 6 6 11 1 17 -2 13 -5z m1000 0 c-3 -3 -12 -4 -19 -1 -8 3 -5
6 6 6 11 1 17 -2 13 -5z m-951 -31 c-10 -10 -19 5 -10 18 6 11 8 11 12 0 2 -7
1 -15 -2 -18z m201 -5 c-3 -8 -6 -5 -6 6 -1 11 2 17 5 13 3 -3 4 -12 1 -19z
m-137 -18 c0 -10 -7 -21 -16 -24 -23 -9 -26 -4 -12 26 14 29 28 28 28 -2z
m1457 -53 c4 -6 21 -19 38 -27 16 -8 44 -32 63 -52 19 -21 42 -38 52 -38 10 0
32 -13 48 -30 33 -33 47 -38 38 -15 -7 18 15 20 32 3 16 -16 15 -28 -3 -28
-33 0 -65 -23 -65 -49 0 -24 1 -24 15 -5 8 10 15 15 16 9 2 -19 -2 -80 -7 -98
-6 -17 -7 -18 -25 -1 -18 16 -20 15 -54 -22 -32 -35 -37 -37 -46 -21 -12 21
-29 22 -29 2 0 -19 -41 -29 -86 -22 -19 3 -67 0 -107 -8 -115 -22 -119 -23
-200 -30 -67 -6 -77 -5 -77 9 0 9 -4 16 -10 16 -5 0 -10 -6 -10 -12 0 -10 -25
-13 -93 -13 -76 0 -101 -4 -142 -24 -43 -20 -60 -23 -119 -18 -77 7 -97 18
-80 45 13 21 86 29 168 18 26 -3 44 0 53 10 18 17 70 19 75 2 3 -8 9 -4 17 10
6 12 21 22 34 22 12 0 31 7 41 15 11 8 30 15 42 15 13 0 26 5 29 10 4 6 10 8
15 5 14 -8 46 11 81 48 27 27 38 32 83 33 31 1 67 10 90 22 33 18 40 19 64 6
16 -8 28 -10 30 -4 2 6 9 10 16 10 7 0 24 6 39 13 33 15 34 53 2 50 -33 -4
-96 -12 -142 -19 -40 -6 -43 -5 -43 16 0 13 -5 20 -12 17 -7 -2 -13 -14 -12
-26 0 -15 -5 -21 -20 -21 -12 0 -46 -7 -76 -15 -32 -8 -58 -11 -64 -5 -9 9
-37 2 -47 -12 -3 -5 -18 -10 -32 -12 -14 -1 -32 -7 -39 -13 -7 -6 -25 -14 -41
-18 -15 -4 -27 -11 -27 -15 0 -5 -17 -14 -37 -20 -21 -6 -48 -16 -60 -22 -16
-8 -29 -7 -52 3 -17 8 -31 16 -31 19 0 11 -138 11 -145 0 -3 -5 0 -11 7 -12 7
0 18 -2 23 -3 6 -2 22 -3 38 -4 52 -2 26 -44 -33 -52 -19 -3 -28 3 -40 26 -18
36 -65 45 -86 17 -12 -16 -13 -16 -19 3 -4 11 -11 28 -16 38 -9 16 -6 17 41
12 44 -5 50 -3 48 12 -3 36 2 53 16 53 8 0 16 -4 18 -9 2 -4 13 -11 25 -15 18
-6 24 -2 29 18 5 22 10 24 40 19 22 -4 34 -2 34 6 0 6 18 11 45 11 25 0 45 5
45 10 0 6 11 10 23 10 13 0 27 3 31 7 3 4 22 12 41 19 31 10 35 10 33 -5 -5
-27 26 -18 40 12 18 38 50 35 92 -8 19 -19 42 -35 51 -35 10 0 21 -4 24 -10
11 -18 63 -11 88 13 13 12 28 35 34 52 5 16 23 36 39 45 16 9 29 25 29 35 0
10 9 22 20 26 32 12 83 10 92 -4z m-1513 -13 c22 -9 20 -24 -3 -24 -21 0 -34
13 -24 24 8 7 8 7 27 0z m261 -74 c3 -5 1 -10 -4 -10 -6 0 -11 5 -11 10 0 6 2
10 4 10 3 0 8 -4 11 -10z m-495 -31 c0 -15 -29 -17 -34 -3 -11 28 -6 34 14 22
11 -7 20 -16 20 -19z m1100 15 c0 -8 -4 -12 -10 -9 -5 3 -10 10 -10 16 0 5 5
9 10 9 6 0 10 -7 10 -16z m-380 -4 c12 -8 11 -10 -7 -10 -13 0 -23 5 -23 10 0
13 11 13 30 0z m330 -8 c0 -4 -9 -8 -20 -9 -11 -1 -18 2 -15 8 7 11 35 12 35
1z m-926 -44 c-3 -4 -12 -8 -20 -8 -8 0 -14 4 -14 8 0 4 9 8 19 8 11 0 17 -4
15 -8z m96 -53 c7 -19 17 -25 40 -25 17 0 29 -4 26 -8 -3 -5 -22 -6 -43 -4
-69 8 -97 3 -115 -19 -10 -12 -18 -19 -18 -16 0 3 -3 12 -6 20 -3 10 10 26 38
46 53 37 66 38 78 6z m100 -31 c0 -8 -5 -12 -10 -9 -6 4 -8 11 -5 16 9 14 15
11 15 -7z m260 6 c0 -5 -5 -10 -11 -10 -5 0 -7 5 -4 10 3 6 8 10 11 10 2 0 4
-4 4 -10z m-84 -11 c3 -6 2 -15 -4 -21 -7 -7 -14 -3 -21 11 -10 17 -9 21 3 21
8 0 18 -5 22 -11z m254 -19 c0 -5 -4 -10 -10 -10 -5 0 -10 5 -10 10 0 6 5 10
10 10 6 0 10 -4 10 -10z m-670 -10 c0 -5 -4 -10 -10 -10 -5 0 -10 5 -10 10 0
6 5 10 10 10 6 0 10 -4 10 -10z m575 0 c3 -5 -1 -10 -9 -10 -9 0 -16 5 -16 10
0 6 4 10 9 10 6 0 13 -4 16 -10z m-37 -23 c9 -9 13 -20 9 -24 -4 -4 -15 1 -24
10 -16 16 -19 15 -45 -10 -28 -27 -29 -27 -34 -6 -4 12 -13 24 -23 26 -12 3
-10 6 9 14 34 15 88 9 108 -10z m-127 -70 c-13 -13 -15 11 -4 40 7 16 8 15 11
-6 2 -13 -1 -28 -7 -34z m1449 14 c0 -6 -4 -13 -10 -16 -5 -3 -10 1 -10 9 0 9
5 16 10 16 6 0 10 -4 10 -9z m365 -30 c-3 -6 -11 -11 -17 -11 -6 0 -6 6 2 15
14 17 26 13 15 -4z m-1481 -57 c4 -9 13 -14 21 -10 8 3 15 1 15 -4 0 -15 -29
-12 -46 4 -16 17 -18 26 -5 26 5 0 12 -7 15 -16z m959 7 c39 -1 47 -4 47 -20
0 -12 9 -20 27 -24 16 -3 30 -2 33 2 7 9 50 12 50 3 0 -13 -42 -34 -74 -37
-17 -2 -55 -8 -83 -14 -29 -6 -60 -8 -68 -5 -8 4 -15 2 -15 -4 0 -5 -18 -9
-40 -8 -22 0 -40 4 -40 8 0 5 -8 3 -19 -3 -11 -7 -26 -9 -37 -4 -11 5 -23 7
-27 6 -27 -5 -138 23 -153 40 -9 10 -15 21 -12 24 3 3 41 10 84 16 44 5 99 13
124 18 25 4 70 7 100 5 30 -1 76 -3 103 -3z m514 -24 c7 -7 -21 -23 -63 -36
-36 -11 -189 -9 -201 3 -2 2 -1 11 3 20 8 20 50 21 58 1 8 -22 23 -18 30 8 l6
22 19 -23 c19 -22 20 -22 50 -5 17 10 31 21 31 25 0 6 58 -7 67 -15z m-293 -3
c30 -12 18 -34 -19 -34 -38 0 -38 0 -29 24 6 17 22 20 48 10z m-2212 -54 c4
-29 -12 -57 -25 -43 -4 3 -7 21 -7 40 0 43 26 45 32 3z m213 20 c3 -5 1 -10
-4 -10 -6 0 -11 5 -11 10 0 6 2 10 4 10 3 0 8 -4 11 -10z m465 0 c0 -3 -9 -13
-19 -22 -18 -15 -19 -15 -23 7 -4 19 -1 22 19 21 12 0 23 -3 23 -6z m94 -6 c3
-8 10 -13 15 -9 6 3 15 -4 21 -15 14 -25 5 -25 -50 1 -32 16 -40 23 -29 30 21
13 36 11 43 -7z m246 -14 c0 -26 34 -27 52 -1 14 19 14 19 26 0 10 -16 10 -20
-5 -26 -10 -3 -39 -14 -64 -24 -26 -10 -56 -15 -68 -12 -15 4 -21 1 -21 -11 0
-12 -9 -16 -35 -16 -33 0 -46 12 -26 24 5 3 7 14 4 24 -7 27 30 56 55 43 21
-11 52 -5 52 10 0 5 7 9 15 9 8 0 15 -9 15 -20z m-714 -46 c-5 -13 -9 -12 -31
3 -30 22 -33 48 -5 40 11 -3 23 0 27 6 10 15 17 -28 9 -49z m929 47 c37 -7 38
-8 14 -15 -38 -11 -122 -3 -127 12 -4 14 49 16 113 3z m-505 -36 c0 -28 -3
-29 -31 -15 -16 9 -17 13 -7 25 20 22 38 17 38 -10z m717 12 c3 -4 21 -4 40
-1 28 5 38 1 68 -29 38 -38 40 -73 3 -62 -11 4 -34 -2 -55 -15 -33 -19 -37
-20 -59 -5 -14 9 -29 13 -34 10 -5 -3 -12 0 -15 6 -4 5 -13 8 -21 5 -8 -3 -14
1 -14 8 0 16 25 78 36 88 8 9 40 5 51 -5z m-944 -13 c27 -10 43 -11 57 -4 24
13 47 4 84 -32 17 -15 37 -28 47 -28 23 0 89 -29 67 -30 -10 0 -18 -5 -18 -11
0 -7 12 -10 30 -7 19 3 29 1 27 -6 -2 -6 -10 -11 -18 -12 -8 0 -21 -3 -29 -7
-58 -22 -85 -26 -94 -17 -5 5 -18 10 -28 10 -11 0 -18 7 -18 20 0 11 -4 20
-10 20 -5 0 -10 -6 -10 -14 0 -15 -72 -17 -87 -2 -4 4 -3 7 2 6 18 -4 35 0 35
8 0 10 -60 36 -67 28 -3 -3 -12 -1 -20 5 -10 9 -17 8 -28 -1 -25 -21 -40 3
-15 25 11 10 20 28 20 40 0 26 20 29 73 9z m769 -19 c-5 -29 -14 -31 -36 -9
-24 23 -19 34 13 34 25 0 28 -3 23 -25z m868 -41 c0 -38 -4 -63 -9 -59 -5 3
-12 1 -16 -5 -3 -5 1 -10 10 -10 9 0 14 -4 11 -9 -3 -5 -15 -7 -26 -4 -19 5
-19 7 -5 23 18 20 19 59 2 81 -14 19 -119 20 -154 1 -24 -13 -121 -14 -129 -1
-5 8 8 10 86 14 14 1 43 6 65 12 22 6 57 10 78 9 20 -1 37 2 37 6 0 4 11 8 25
8 24 0 25 -2 25 -66z m-1919 36 c10 -6 26 -26 34 -45 7 -19 21 -35 29 -35 8 0
18 -4 21 -10 8 -14 -13 -50 -30 -50 -7 0 -15 -4 -17 -10 -1 -5 -24 -13 -50
-16 l-48 -7 0 32 c0 62 -70 102 -112 64 -17 -15 -18 -15 -18 12 0 23 3 26 21
22 15 -4 23 0 26 14 4 14 11 18 22 13 34 -14 81 -8 81 11 0 18 14 19 41 5z
m1503 1 c3 -4 -6 -7 -20 -5 -35 3 -43 14 -11 14 14 0 28 -4 31 -9z m-556 -42
c7 -12 11 -23 8 -26 -8 -9 -66 21 -66 34 0 21 44 15 58 -8z m-98 -9 c0 -5 -15
-10 -32 -9 -31 1 -32 1 -8 9 35 11 40 11 40 0z m890 6 c0 -2 -7 -9 -15 -16
-13 -11 -14 -10 -9 4 5 14 24 23 24 12z m-309 -58 c7 -2 9 -9 5 -16 -7 -12
-62 -6 -82 9 -6 5 -26 7 -45 4 -34 -6 -34 -6 6 10 22 9 47 20 55 25 10 5 21 1
32 -10 9 -10 22 -20 29 -22z m-680 -11 c-1 -4 -1 -14 -1 -23 0 -8 -4 -12 -10
-9 -13 8 -13 48 1 43 6 -2 10 -7 10 -11z m471 -77 c9 0 20 -4 23 -10 3 -5 17
-10 30 -10 13 0 27 -5 30 -10 4 -6 26 -8 51 -6 33 3 46 0 53 -11 5 -10 16 -14
30 -10 15 3 24 0 28 -10 5 -12 7 -12 14 -2 15 25 20 1 13 -67 -4 -38 -9 -64
-11 -58 -4 13 -43 7 -43 -7 0 -5 -4 -9 -10 -9 -5 0 -10 7 -10 15 0 8 -6 14
-12 12 -7 -1 -12 6 -10 16 4 21 -11 22 -32 1 -22 -21 -20 -32 7 -36 12 -2 -11
-11 -57 -22 -56 -13 -81 -15 -89 -7 -8 8 -5 11 11 11 14 0 20 5 16 14 -4 10 1
15 13 14 29 -1 75 21 70 35 -3 11 -9 13 -49 16 -11 1 -15 7 -11 20 3 10 1 21
-5 24 -13 9 -82 -12 -82 -24 0 -6 -4 -7 -10 -4 -6 4 -5 13 2 25 15 23 5 35
-34 44 -36 8 -46 -11 -13 -24 30 -12 25 -30 -10 -30 -12 0 -25 -7 -29 -15 -7
-18 -40 -14 -88 10 -39 19 -66 3 -34 -20 23 -17 14 -21 -57 -28 -60 -6 -87 1
-87 20 0 13 3 13 15 3 12 -10 15 -10 15 4 0 9 -7 16 -15 16 -8 0 -15 7 -15 15
0 10 10 15 30 15 17 0 43 6 58 13 15 8 44 13 64 11 24 -1 39 3 42 12 3 8 12
14 21 14 8 0 15 7 15 16 0 11 -5 14 -16 10 -10 -4 -14 -1 -11 6 2 8 18 12 38
11 22 -1 37 5 46 17 12 17 14 17 50 -1 20 -10 45 -19 55 -19z m-788 -6 c9 -3
16 -12 16 -19 0 -8 9 -10 26 -7 19 3 25 1 20 -7 -4 -6 -2 -11 4 -11 6 0 13 7
16 15 8 20 51 19 71 -1 10 -10 25 -13 44 -9 18 4 29 2 29 -4 0 -6 15 -11 34
-11 29 0 34 -4 40 -30 6 -33 42 -54 73 -43 15 5 16 3 6 -7 -8 -9 -32 -13 -65
-12 -49 3 -67 7 -123 28 -11 4 -24 6 -29 5 -4 -1 -14 6 -20 15 -10 13 -17 14
-34 5 -30 -16 -42 -14 -52 12 -7 17 -9 18 -9 5 -1 -20 -16 -24 -26 -8 -3 6
-16 10 -28 10 -30 0 -65 39 -46 51 9 5 16 2 21 -9 5 -12 7 -10 7 11 1 29 2 30
25 21z m1340 -20 c10 -25 7 -84 -4 -84 -5 0 -10 -6 -10 -14 0 -10 -7 -12 -22
-8 -22 5 -22 9 -2 -59 5 -14 3 -20 -7 -18 -8 2 -24 -3 -37 -10 -22 -12 -23
-11 -13 7 5 10 9 55 7 100 -3 85 2 96 35 66 21 -19 43 -9 36 17 -6 23 8 26 17
3z m61 -12 c19 -11 19 -11 -2 -12 -13 0 -23 2 -23 4 0 2 -3 13 -6 23 -3 11 -2
14 3 7 4 -6 17 -16 28 -22z m-1097 -1 c3 -8 -1 -12 -9 -9 -7 2 -15 10 -17 17
-3 8 1 12 9 9 7 -2 15 -10 17 -17z m-2988 -66 c10 -12 10 -15 -3 -15 -8 0 -20
7 -27 15 -10 12 -10 15 3 15 8 0 20 -7 27 -15z m2270 -38 c0 -11 -9 -21 -19
-24 -31 -8 -37 -83 -7 -83 18 0 39 17 33 27 -3 5 7 7 24 5 22 -3 36 1 50 17
26 28 33 27 63 -11 23 -30 24 -34 8 -40 -9 -4 -32 -7 -49 -7 -28 -1 -33 -5
-33 -26 0 -19 7 -26 37 -34 20 -6 40 -8 44 -5 4 2 10 0 14 -6 4 -6 11 -7 17
-4 6 4 17 -1 24 -10 7 -10 15 -13 18 -7 4 6 -3 20 -15 32 -15 15 -18 24 -10
32 9 9 16 8 29 -1 47 -33 102 -38 102 -8 0 17 61 17 80 1 8 -8 27 -13 42 -12
25 2 28 6 28 35 0 17 -5 32 -11 32 -5 0 -7 5 -4 10 4 6 23 -4 45 -22 22 -18
35 -34 30 -36 -37 -13 40 -60 78 -48 12 4 27 -3 44 -21 14 -16 34 -33 44 -39
18 -10 16 -13 -16 -33 -35 -21 -58 -25 -115 -22 -16 0 -47 2 -68 2 -21 1 -40
6 -43 10 -3 5 -36 9 -74 9 -51 0 -71 -4 -77 -15 -9 -15 -101 -38 -115 -29 -4
3 -20 -2 -36 -10 -30 -16 -103 -14 -161 3 -21 7 -40 7 -51 1 -10 -5 -21 -6
-25 -2 -8 8 -105 10 -105 1 0 -3 -24 -5 -53 -5 -48 1 -53 3 -49 21 2 11 -1 38
-5 60 -5 22 -5 64 0 95 10 61 15 100 16 115 1 6 15 19 32 29 34 20 31 3 -3
-22 -27 -20 -23 -60 7 -74 21 -10 27 -8 39 8 17 22 29 14 34 -24 4 -34 7 -36
43 -38 19 -1 29 3 29 12 0 8 -9 14 -20 14 -21 0 -23 3 -14 36 4 14 12 20 23
17 13 -3 17 3 18 29 1 18 6 45 12 60 8 22 16 27 41 25 22 -1 30 -7 30 -20z
m-147 -27 c3 -11 1 -18 -4 -14 -5 3 -9 12 -9 20 0 20 7 17 13 -6z m327 4 c0
-10 6 -14 15 -10 9 3 15 0 15 -9 0 -21 -22 -18 -48 5 -27 26 -27 30 -2 30 12
0 20 -7 20 -16z m-729 -7 l59 6 0 -37 c0 -33 2 -37 20 -31 11 3 20 3 20 -2 1
-19 32 -47 53 -48 12 -1 32 -7 45 -14 20 -10 21 -15 11 -28 -11 -12 -10 -17 4
-28 20 -15 23 -29 3 -22 -7 3 -56 -1 -107 -9 -118 -17 -150 -18 -144 -1 2 6 1
28 -3 47 -6 25 -13 35 -27 36 -48 2 -56 5 -65 29 -11 29 -29 34 -146 43 l-89
7 60 22 c57 21 63 21 115 7 30 -8 70 -12 88 -9 28 5 33 10 29 27 -4 14 -3 18
5 10 6 -6 34 -8 69 -5z m1109 -24 c8 -3 36 -5 63 -4 26 2 47 -1 47 -6 0 -4 15
-8 33 -9 75 -2 136 -11 149 -21 7 -6 27 -13 43 -16 17 -3 57 -12 90 -20 33 -9
64 -13 69 -10 10 6 2 -69 -10 -102 -5 -12 -4 -16 3 -12 6 4 16 26 22 51 10 42
13 44 54 50 24 4 51 4 59 1 9 -4 29 0 45 8 16 9 46 14 66 12 21 -2 52 1 69 6
25 7 36 5 51 -8 18 -17 19 -16 36 6 17 22 19 23 28 6 7 -12 18 -16 32 -12 11
3 21 2 21 -3 0 -4 26 -5 58 -2 66 6 55 6 237 -3 77 -4 142 -11 143 -16 2 -5
14 -9 27 -9 12 0 28 -7 35 -15 7 -8 21 -15 31 -15 25 0 46 -39 28 -51 -8 -5
-22 -9 -33 -9 -12 0 -16 -5 -12 -15 3 -8 1 -15 -3 -15 -5 0 -11 7 -15 15 -3 8
-10 15 -16 15 -6 0 -8 -5 -5 -10 8 -12 -23 -65 -32 -56 -10 10 -43 -25 -43
-45 0 -10 9 -21 21 -24 15 -5 18 -10 10 -18 -6 -6 -11 -19 -11 -28 0 -24 -23
-29 -95 -24 -33 2 -118 7 -190 11 -71 3 -135 10 -142 15 -7 7 -14 6 -18 -1
-10 -16 -39 -7 -47 15 -3 11 -6 49 -7 84 -1 81 -11 75 -14 -10 -2 -52 -5 -64
-19 -67 -12 -2 -18 3 -18 15 0 15 -13 22 -60 32 -62 14 -68 19 -48 39 9 9 6
16 -12 32 -13 11 -32 20 -42 20 -17 0 -19 -6 -17 -43 2 -24 0 -48 -4 -54 -4
-6 -3 -14 2 -17 10 -7 3 -46 -9 -46 -4 0 -10 6 -13 14 -7 17 -35 15 -47 -3 -5
-9 -10 -9 -14 -3 -9 15 11 63 25 60 6 -2 20 11 30 29 20 35 20 33 -35 64 -33
17 -60 9 -104 -31 -12 -11 -22 -16 -22 -10 0 9 -57 50 -71 50 -3 0 -22 -11
-42 -25 -22 -14 -39 -20 -43 -14 -7 12 -66 1 -76 -15 -6 -8 -11 -7 -18 4 -13
20 -30 79 -30 107 0 12 -4 24 -9 27 -5 3 -7 15 -4 26 6 22 -15 28 -35 8 -8 -8
-15 -8 -26 1 -7 6 -20 10 -27 9 -8 -2 -14 5 -14 17 0 11 -8 21 -18 23 -20 4
-24 -24 -4 -31 6 -3 0 -6 -14 -6 -18 -1 -34 10 -55 37 -51 63 -49 68 16 45z
m407 0 c4 -10 9 -11 18 -3 10 9 19 6 34 -9 l20 -20 15 20 14 21 7 -22 c10 -31
-9 -48 -35 -32 -10 6 -26 9 -34 6 -8 -3 -17 -1 -21 5 -3 6 -21 11 -40 11 -19
0 -37 5 -40 10 -3 6 -18 10 -33 10 -15 0 -33 4 -41 9 -9 6 12 9 58 9 52 -1 74
-5 78 -15z m-637 -27 c0 -17 -7 -25 -25 -28 -17 -4 -25 -1 -25 8 0 8 4 14 9
14 5 0 11 9 14 21 7 27 27 15 27 -15z m824 11 c29 6 33 -4 12 -33 -11 -14 -17
-16 -27 -7 -6 6 -17 9 -24 7 -18 -7 -28 12 -20 36 5 17 8 18 20 6 8 -7 25 -11
39 -9z m-1298 -24 c-10 -10 -19 5 -10 18 6 11 8 11 12 0 2 -7 1 -15 -2 -18z
m134 17 c0 -5 -4 -10 -10 -10 -5 0 -10 5 -10 10 0 6 5 10 10 10 6 0 10 -4 10
-10z m1757 -36 c-3 -3 -12 -4 -19 -1 -8 3 -5 6 6 6 11 1 17 -2 13 -5z m393
-183 c0 -11 -25 -21 -51 -21 -26 0 -24 18 4 23 39 8 47 7 47 -2z m110 -1 c0
-5 -8 -10 -17 -10 -15 0 -16 2 -3 10 19 12 20 12 20 0z m-1323 -48 c7 -7 13
-18 13 -23 0 -15 -17 -10 -24 7 -3 8 -10 13 -15 9 -16 -9 -24 15 -10 32 11 12
14 12 18 2 2 -8 10 -20 18 -27z m1113 34 c0 -3 -4 -8 -10 -11 -5 -3 -10 -1
-10 4 0 6 5 11 10 11 6 0 10 -2 10 -4z m-1602 -36 c10 0 28 -7 41 -16 15 -11
34 -14 56 -11 20 3 41 0 53 -9 20 -14 52 -10 52 7 0 24 68 -4 105 -44 22 -23
45 -40 50 -39 6 2 5 -2 -1 -8 -14 -14 -120 -20 -150 -9 -12 4 -45 8 -75 10
-30 1 -65 8 -77 16 -18 11 -43 13 -95 9 -56 -4 -251 -13 -387 -17 -42 -1 -109
7 -116 14 -12 12 -77 8 -105 -7 -29 -15 -42 -11 -52 17 -5 13 0 20 20 28 15 5
32 8 39 5 8 -3 16 -1 20 5 3 5 20 8 37 5 17 -3 36 -1 42 3 5 5 48 5 95 2 54
-4 116 -2 170 6 47 8 94 15 105 16 31 5 98 26 114 36 9 6 19 4 28 -5 8 -8 22
-14 31 -14z m1815 -15 c-16 -33 -33 -46 -33 -26 0 24 21 61 35 61 13 0 13 -5
-2 -35z m-2712 -45 c32 -17 46 -19 75 -11 31 8 35 8 32 -7 -2 -9 -14 -18 -26
-20 -29 -4 -26 -32 6 -48 50 -25 57 -53 10 -35 -17 6 -29 6 -37 -2 -17 -17
-24 -2 -23 48 1 40 -1 45 -21 45 -30 -1 -59 -24 -46 -37 6 -6 -10 -14 -48 -23
-32 -7 -61 -17 -64 -23 -4 -5 -14 -7 -23 -4 -12 5 -16 20 -16 61 0 54 0 55 33
60 51 9 81 13 95 15 7 0 31 -8 53 -19z m1579 0 c0 -5 -5 -10 -11 -10 -5 0 -7
5 -4 10 3 6 8 10 11 10 2 0 4 -4 4 -10z m230 6 c0 -3 -4 -8 -10 -11 -5 -3 -10
-1 -10 4 0 6 5 11 10 11 6 0 10 -2 10 -4z m-60 -17 c0 -5 -9 -9 -19 -9 -11 0
-22 4 -25 9 -3 5 6 9 19 9 14 0 25 -4 25 -9z m733 -4 c4 -8 2 -17 -3 -20 -6
-4 -10 3 -10 14 0 25 6 27 13 6z m-618 -15 c3 -5 2 -10 -4 -10 -5 0 -13 5 -16
10 -3 6 -2 10 4 10 5 0 13 -4 16 -10z m-1485 -41 c0 -5 -6 -9 -14 -9 -8 0 -23
-3 -33 -7 -16 -5 -16 -4 2 14 19 19 45 20 45 2z m1690 -3 c0 -3 -4 -8 -10 -11
-5 -3 -10 -1 -10 4 0 6 5 11 10 11 6 0 10 -2 10 -4z m-2652 -28 c24 -24 14
-43 -23 -45 -19 -1 -35 3 -35 8 0 5 7 9 16 9 11 0 14 6 9 20 -7 23 13 28 33 8z
m2342 -29 c0 -5 -4 -9 -10 -9 -5 0 -10 7 -10 16 0 8 5 12 10 9 6 -3 10 -10 10
-16z m-1878 -11 c-9 -9 -15 -9 -24 0 -9 9 -7 12 12 12 19 0 21 -3 12 -12z
m-22 -38 c0 -5 -7 -7 -15 -4 -8 4 -15 8 -15 10 0 2 7 4 15 4 8 0 15 -4 15 -10z
m190 -32 c0 -6 -7 -7 -16 -4 -9 3 -23 6 -32 7 -13 0 -13 2 3 8 23 9 45 4 45
-11z m274 11 c-3 -5 -16 -9 -30 -9 -14 0 -23 4 -20 9 3 5 17 9 31 9 13 0 22
-4 19 -9z m-190 -15 c3 -9 6 -23 5 -32 0 -11 -2 -12 -6 -4 -2 6 -13 12 -23 12
-35 0 -52 11 -39 26 16 19 55 18 63 -2z m86 -4 c0 -5 -4 -10 -10 -10 -5 0 -10
5 -10 10 0 6 5 10 10 10 6 0 10 -4 10 -10z"/>
<path d="M7664 6735 c-10 -8 -27 -15 -37 -15 -22 0 -77 -31 -77 -42 0 -12 48
-10 55 2 3 6 16 10 28 10 29 1 73 38 61 50 -7 7 -17 5 -30 -5z"/>
<path d="M7588 6657 c-15 -6 -28 -20 -31 -34 -3 -19 1 -24 31 -32 57 -16 106
31 70 67 -14 14 -33 14 -70 -1z"/>
<path d="M6630 6306 c0 -9 7 -16 16 -16 9 0 14 5 12 12 -6 18 -28 21 -28 4z"/>
<path d="M7060 5884 c0 -8 5 -12 10 -9 6 3 10 10 10 16 0 5 -4 9 -10 9 -5 0
-10 -7 -10 -16z"/>
<path d="M6950 5375 c-16 -19 13 -26 44 -12 14 7 26 15 26 18 0 11 -60 6 -70
-6z"/>
<path d="M7480 5285 c0 -9 5 -15 11 -13 6 2 11 8 11 13 0 5 -5 11 -11 13 -6 2
-11 -4 -11 -13z"/>
<path d="M7637 5084 c-12 -12 -8 -24 8 -24 9 0 18 -7 21 -15 9 -22 34 -18 34
5 0 13 -7 20 -18 20 -10 0 -23 5 -28 10 -6 6 -13 7 -17 4z"/>
<path d="M7590 5041 c0 -6 5 -13 10 -16 6 -3 10 1 10 9 0 9 -4 16 -10 16 -5 0
-10 -4 -10 -9z"/>
<path d="M7753 5024 c-7 -18 17 -38 31 -24 11 11 1 40 -14 40 -6 0 -13 -7 -17
-16z"/>
<path d="M7325 4980 c3 -5 8 -10 11 -10 2 0 4 5 4 10 0 6 -5 10 -11 10 -5 0
-7 -4 -4 -10z"/>
<path d="M6730 5090 c0 -5 7 -10 15 -10 8 0 15 5 15 10 0 6 -7 10 -15 10 -8 0
-15 -4 -15 -10z"/>
<path d="M7075 4460 c-3 -5 1 -10 9 -10 9 0 16 5 16 10 0 6 -4 10 -9 10 -6 0
-13 -4 -16 -10z"/>
<path d="M7310 3500 c0 -5 7 -10 15 -10 8 0 15 5 15 10 0 6 -7 10 -15 10 -8 0
-15 -4 -15 -10z"/>
<path d="M7260 3481 c0 -8 -3 -12 -6 -9 -3 3 -16 -4 -30 -17 -17 -16 -24 -33
-25 -61 0 -22 -3 -33 -6 -26 -7 17 -33 15 -33 -3 0 -8 9 -15 20 -15 11 0 25
-9 32 -20 9 -14 24 -20 50 -20 20 0 39 -4 43 -10 8 -13 35 -1 35 15 0 7 5 15
11 17 6 2 14 26 16 53 6 58 -14 84 -63 88 -16 1 -32 7 -36 12 -5 6 -8 4 -8 -4z"/>
<path d="M6512 3433 c2 -10 10 -18 18 -18 8 0 16 8 18 18 2 12 -3 17 -18 17
-15 0 -20 -5 -18 -17z"/>
<path d="M7145 3421 c-8 -15 3 -31 21 -31 9 0 14 7 12 17 -4 20 -24 28 -33 14z"/>
<path d="M7012 3375 c-10 -21 -9 -27 4 -32 15 -6 43 22 44 45 0 22 -37 12 -48
-13z"/>
<path d="M7385 3389 c-4 -6 -5 -11 -4 -12 2 -1 14 -7 25 -14 27 -15 36 -7 21
18 -13 21 -32 25 -42 8z"/>
<path d="M7490 3390 c-7 -4 -10 -15 -7 -25 4 -9 12 -13 17 -10 6 4 17 2 25 -5
23 -19 25 4 1 27 -14 14 -27 19 -36 13z"/>
<path d="M7593 3350 c-12 -17 -10 -20 13 -26 17 -4 29 -2 35 7 11 18 11 29 0
29 -5 0 -15 2 -23 5 -7 3 -19 -4 -25 -15z"/>
<path d="M7661 3331 c-8 -5 -9 -11 -3 -15 13 -8 42 3 42 15 0 11 -21 11 -39 0z"/>
<path d="M7256 3272 c-3 -6 -1 -14 5 -17 15 -10 25 3 12 16 -7 7 -13 7 -17 1z"/>
<path d="M7035 3010 c3 -5 10 -10 16 -10 5 0 9 5 9 10 0 6 -7 10 -16 10 -8 0
-12 -4 -9 -10z"/>
<path d="M6793 3003 c-18 -7 -16 -40 3 -47 22 -9 64 -7 64 2 0 4 -7 18 -16 30
-15 22 -27 25 -51 15z"/>
<path d="M7150 2994 c0 -17 22 -14 28 4 2 7 -3 12 -12 12 -9 0 -16 -7 -16 -16z"/>
<path d="M6570 2963 c8 -3 20 -13 27 -22 9 -12 16 -13 28 -6 30 18 21 30 -25
32 -25 1 -38 -1 -30 -4z"/>
<path d="M6455 2940 c3 -5 8 -10 11 -10 2 0 4 5 4 10 0 6 -5 10 -11 10 -5 0
-7 -4 -4 -10z"/>
<path d="M6887 2923 c-4 -3 -7 -12 -7 -20 0 -20 44 -15 58 7 11 18 10 20 -16
20 -16 0 -32 -3 -35 -7z"/>
<path d="M6481 2891 c-9 -6 -10 -11 -2 -15 13 -8 31 1 31 15 0 11 -11 11 -29
0z"/>
<path d="M6326 2882 c-3 -6 -1 -14 5 -17 15 -10 25 3 12 16 -7 7 -13 7 -17 1z"/>
<path d="M6375 2870 c3 -5 10 -10 16 -10 5 0 9 5 9 10 0 6 -7 10 -16 10 -8 0
-12 -4 -9 -10z"/>
<path d="M5906 2485 c-3 -9 1 -18 10 -22 19 -7 28 2 21 22 -8 19 -23 19 -31 0z"/>
<path d="M5950 2480 c0 -5 5 -10 10 -10 6 0 10 5 10 10 0 6 -4 10 -10 10 -5 0
-10 -4 -10 -10z"/>
<path d="M5990 2465 c0 -8 7 -15 15 -15 8 0 15 7 15 15 0 8 -7 15 -15 15 -8 0
-15 -7 -15 -15z"/>
<path d="M6087 2462 c-25 -27 -21 -32 23 -32 22 0 40 5 40 10 0 6 -9 10 -20
10 -13 0 -18 5 -14 15 8 21 -9 19 -29 -3z"/>
<path d="M6040 2459 c0 -5 5 -7 10 -4 6 3 10 8 10 11 0 2 -4 4 -10 4 -5 0 -10
-5 -10 -11z"/>
<path d="M6535 1879 c-10 -15 3 -25 16 -12 7 7 7 13 1 17 -6 3 -14 1 -17 -5z"/>
<path d="M6080 1770 c0 -13 5 -20 13 -17 6 2 12 10 12 17 0 7 -6 15 -12 18 -8
2 -13 -5 -13 -18z"/>
<path d="M5993 1754 c-8 -22 18 -37 36 -20 7 8 10 19 7 25 -10 16 -36 13 -43
-5z"/>
<path d="M6025 1689 c-4 -11 -4 -23 -1 -27 10 -9 39 25 32 37 -11 17 -24 13
-31 -10z"/>
<path d="M6080 1690 c0 -5 4 -10 9 -10 6 0 13 5 16 10 3 6 -1 10 -9 10 -9 0
-16 -4 -16 -10z"/>
<path d="M6402 1655 c-8 -18 -8 -26 0 -31 12 -8 38 22 38 43 0 22 -26 14 -38
-12z"/>
<path d="M6630 1610 c0 -5 5 -10 10 -10 6 0 10 5 10 10 0 6 -4 10 -10 10 -5 0
-10 -4 -10 -10z"/>
<path d="M6310 1585 c0 -9 5 -15 11 -13 6 2 11 8 11 13 0 5 -5 11 -11 13 -6 2
-11 -4 -11 -13z"/>
<path d="M5905 1520 c3 -5 10 -10 16 -10 5 0 9 5 9 10 0 6 -7 10 -16 10 -8 0
-12 -4 -9 -10z"/>
<path d="M5620 1420 c0 -5 5 -10 10 -10 6 0 10 5 10 10 0 6 -4 10 -10 10 -5 0
-10 -4 -10 -10z"/>
<path d="M5170 1370 c0 -22 20 -26 38 -8 18 18 15 23 -13 26 -19 1 -25 -3 -25
-18z"/>
<path d="M5265 1300 c-3 -5 1 -10 10 -10 9 0 13 5 10 10 -3 6 -8 10 -10 10 -2
0 -7 -4 -10 -10z"/>
<path d="M5340 1290 c0 -5 5 -10 10 -10 6 0 10 5 10 10 0 6 -4 10 -10 10 -5 0
-10 -4 -10 -10z"/>
<path d="M5370 1290 c0 -5 5 -10 10 -10 6 0 10 5 10 10 0 6 -4 10 -10 10 -5 0
-10 -4 -10 -10z"/>
<path d="M5550 1100 c0 -5 5 -10 10 -10 6 0 10 5 10 10 0 6 -4 10 -10 10 -5 0
-10 -4 -10 -10z"/>
<path d="M4695 891 c-6 -11 9 -23 19 -14 9 9 7 23 -3 23 -6 0 -12 -4 -16 -9z"/>
<path d="M4912 884 c4 -21 22 -23 26 -1 2 10 -3 17 -13 17 -10 0 -15 -6 -13
-16z"/>
<path d="M4730 862 c0 -17 38 -44 45 -32 4 6 -1 18 -11 25 -22 16 -34 19 -34
7z"/>
<path d="M5330 850 c0 -5 5 -10 10 -10 6 0 10 5 10 10 0 6 -4 10 -10 10 -5 0
-10 -4 -10 -10z"/>
<path d="M5440 835 c0 -8 7 -15 15 -15 8 0 15 7 15 15 0 8 -7 15 -15 15 -8 0
-15 -7 -15 -15z"/>
<path d="M5126 818 c-9 -33 -8 -38 8 -38 10 0 14 10 14 30 -1 35 -13 40 -22 8z"/>
<path d="M4710 805 c0 -8 5 -15 10 -15 6 0 10 7 10 15 0 8 -4 15 -10 15 -5 0
-10 -7 -10 -15z"/>
<path d="M4810 750 c0 -5 7 -10 15 -10 8 0 15 5 15 10 0 6 -7 10 -15 10 -8 0
-15 -4 -15 -10z"/>
<path d="M4394 983 c13 -28 36 -30 36 -4 0 12 -9 20 -23 23 -21 4 -23 2 -13
-19z"/>
<path d="M4277 948 c-6 -19 11 -48 28 -48 20 0 19 46 -1 54 -21 8 -22 8 -27
-6z"/>
<path d="M4343 927 c-3 -4 3 -14 13 -21 21 -16 94 -1 94 19 0 15 -98 17 -107
2z"/>
<path d="M5724 889 c-10 -17 13 -36 27 -22 12 12 4 33 -11 33 -5 0 -12 -5 -16
-11z"/>
<path d="M6692 850 c0 -14 2 -19 5 -12 2 6 2 18 0 25 -3 6 -5 1 -5 -13z"/>
<path d="M6391 837 c0 -16 3 -26 8 -22 5 3 12 1 16 -5 12 -19 45 -11 45 10 0
25 -25 37 -44 21 -11 -10 -15 -8 -19 6 -3 11 -5 8 -6 -10z"/>
<path d="M5726 843 c-3 -4 -6 -15 -6 -25 0 -24 33 -21 38 3 3 17 -21 33 -32
22z"/>
<path d="M6345 701 c-3 -5 -1 -12 5 -16 5 -3 10 1 10 9 0 18 -6 21 -15 7z"/>
<path d="M6815 670 c-3 -5 -1 -10 4 -10 6 0 11 5 11 10 0 6 -2 10 -4 10 -3 0
-8 -4 -11 -10z"/>
<path d="M6553 644 c-7 -18 12 -34 40 -34 23 0 22 27 -2 40 -26 13 -31 13 -38
-6z"/>
<path d="M6840 615 c0 -8 9 -15 20 -15 11 0 20 7 20 15 0 8 -9 15 -20 15 -11
0 -20 -7 -20 -15z"/>
<path d="M5445 639 c-10 -15 3 -25 16 -12 7 7 7 13 1 17 -6 3 -14 1 -17 -5z"/>
<path d="M7324 6876 c-18 -8 -35 -19 -39 -26 -6 -9 -9 -9 -15 0 -6 10 -15 9
-44 -1 -20 -7 -36 -18 -36 -24 0 -13 77 -7 86 6 3 5 15 9 26 9 33 0 89 23 85
35 -5 15 -29 16 -63 1z"/>
<path d="M6610 6870 c0 -5 4 -10 9 -10 6 0 13 5 16 10 3 6 -1 10 -9 10 -9 0
-16 -4 -16 -10z"/>
<path d="M1330 6860 c-21 -7 -19 -8 18 -9 23 -1 42 4 42 9 0 12 -24 12 -60 0z"/>
<path d="M6312 6843 c4 -24 78 -49 90 -31 12 21 3 33 -25 33 -14 0 -29 3 -33
8 -14 14 -35 7 -32 -10z"/>
<path d="M6068 6839 c-28 -16 -42 -48 -27 -65 18 -22 26 -17 39 21 14 44 11
57 -12 44z"/>
<path d="M1898 6833 c7 -3 16 -2 19 1 4 3 -2 6 -13 5 -11 0 -14 -3 -6 -6z"/>
<path d="M1310 6820 c-20 -6 -21 -8 -5 -8 11 0 29 3 40 8 25 11 -1 11 -35 0z"/>
<path d="M1788 6823 c6 -2 18 -2 25 0 6 3 1 5 -13 5 -14 0 -19 -2 -12 -5z"/>
<path d="M7112 6813 c5 -25 28 -28 28 -4 0 12 -6 21 -16 21 -9 0 -14 -7 -12
-17z"/>
<path d="M7470 6820 c0 -5 5 -10 10 -10 6 0 10 5 10 10 0 6 -4 10 -10 10 -5 0
-10 -4 -10 -10z"/>
<path d="M1400 6790 c-20 -6 -21 -8 -5 -8 11 0 34 4 50 8 27 7 27 8 5 8 -14 0
-36 -4 -50 -8z"/>
<path d="M1805 6786 c17 -8 32 -12 34 -10 7 7 -3 12 -34 18 l-30 6 30 -14z"/>
<path d="M1940 6786 c0 -9 30 -14 35 -6 4 6 -3 10 -14 10 -12 0 -21 -2 -21 -4z"/>
<path d="M5347 6784 c-4 -4 -7 -16 -7 -26 0 -14 6 -19 23 -16 14 2 22 10 22
23 0 20 -25 32 -38 19z"/>
<path d="M1100 6764 l-25 -15 25 7 25 7 -25 -21 c-14 -12 -19 -21 -12 -22 22
0 93 40 87 50 -9 15 -46 11 -75 -6z"/>
<path d="M1885 6770 c3 -5 11 -10 16 -10 6 0 7 5 4 10 -3 6 -11 10 -16 10 -6
0 -7 -4 -4 -10z"/>
<path d="M2270 6741 c8 -5 26 -12 40 -16 24 -7 24 -7 5 9 -11 8 -29 15 -40 15
-16 0 -17 -1 -5 -8z"/>
<path d="M2390 6666 c0 -2 7 -12 16 -20 17 -18 39 -22 29 -6 -7 11 -45 33 -45
26z"/>
<path d="M554 6409 c-21 -23 -23 -29 -9 -21 25 13 62 52 48 52 -5 0 -22 -14
-39 -31z"/>
<path d="M2680 6395 c19 -19 36 -35 39 -35 3 0 -10 16 -29 35 -19 19 -36 35
-39 35 -3 0 10 -16 29 -35z"/>
<path d="M2776 6298 c27 -31 51 -55 53 -52 3 3 -19 28 -49 57 l-53 52 49 -57z"/>
<path d="M7557 6203 c-11 -10 -8 -41 4 -49 16 -9 43 21 36 40 -7 16 -28 21
-40 9z"/>
<path d="M7735 6070 c4 -6 11 -8 16 -5 14 9 11 15 -7 15 -8 0 -12 -5 -9 -10z"/>
<path d="M10192 5990 c0 -19 2 -27 5 -17 2 9 2 25 0 35 -3 9 -5 1 -5 -18z"/>
<path d="M171 5983 c-1 -6 -4 -20 -7 -30 -5 -17 -5 -17 6 0 6 10 9 23 6 30 -3
9 -5 9 -5 0z"/>
<path d="M7805 5791 c-7 -12 12 -24 25 -16 11 7 4 25 -10 25 -5 0 -11 -4 -15
-9z"/>
<path d="M7790 5744 c0 -9 5 -14 12 -12 18 6 21 28 4 28 -9 0 -16 -7 -16 -16z"/>
<path d="M7673 5735 c-15 -17 -17 -32 -4 -40 5 -3 16 8 24 25 17 32 3 42 -20
15z"/>
<path d="M7706 5682 c-2 -4 -1 -14 4 -22 7 -11 12 -12 21 -3 6 6 8 16 5 22 -8
13 -23 14 -30 3z"/>
<path d="M7960 5675 c0 -8 7 -15 15 -15 8 0 15 7 15 15 0 8 -7 15 -15 15 -8 0
-15 -7 -15 -15z"/>
<path d="M7609 5636 c-13 -27 -4 -50 10 -27 5 7 14 10 20 7 17 -11 13 20 -4
34 -12 10 -17 7 -26 -14z"/>
<path d="M7911 5641 c-17 -13 -20 -20 -11 -26 7 -4 20 1 32 13 26 26 9 36 -21
13z"/>
<path d="M7665 5630 c4 -6 11 -8 16 -5 14 9 11 15 -7 15 -8 0 -12 -5 -9 -10z"/>
<path d="M7466 5621 c-4 -7 -5 -15 -2 -18 9 -9 19 4 14 18 -4 11 -6 11 -12 0z"/>
<path d="M7310 5580 c0 -15 5 -20 18 -18 9 2 17 10 17 18 0 8 -8 16 -17 18
-13 2 -18 -3 -18 -18z"/>
<path d="M7580 5565 c0 -8 5 -15 10 -15 6 0 10 7 10 15 0 8 -4 15 -10 15 -5 0
-10 -7 -10 -15z"/>
<path d="M8220 5550 c0 -5 5 -10 10 -10 6 0 10 5 10 10 0 6 -4 10 -10 10 -5 0
-10 -4 -10 -10z"/>
<path d="M7524 5536 c-10 -26 4 -48 28 -44 17 2 23 10 23 28 0 18 -6 26 -23
28 -13 2 -25 -3 -28 -12z"/>
<path d="M7830 5534 c0 -9 5 -14 12 -12 18 6 21 28 4 28 -9 0 -16 -7 -16 -16z"/>
<path d="M7892 5529 c2 -6 8 -10 13 -10 5 0 11 4 13 10 2 6 -4 11 -13 11 -9 0
-15 -5 -13 -11z"/>
<path d="M7335 5430 c-9 -15 -1 -23 21 -18 15 3 16 4 1 16 -11 9 -17 10 -22 2z"/>
<path d="M7430 5420 c0 -5 4 -10 9 -10 6 0 13 5 16 10 3 6 -1 10 -9 10 -9 0
-16 -4 -16 -10z"/>
<path d="M7740 5370 c0 -11 7 -20 15 -20 8 0 15 9 15 20 0 11 -7 20 -15 20 -8
0 -15 -9 -15 -20z"/>
<path d="M7206 5371 c-4 -5 -2 -12 3 -15 5 -4 12 -2 15 3 4 5 2 12 -3 15 -5 4
-12 2 -15 -3z"/>
<path d="M9487 4974 c-7 -21 -39 -38 -64 -35 -7 1 -23 -5 -35 -12 -13 -8 -40
-18 -60 -21 -20 -4 -38 -10 -40 -15 -2 -5 -39 -15 -83 -24 -44 -9 -107 -23
-140 -31 -33 -9 -86 -16 -117 -16 -31 0 -59 -4 -62 -9 -4 -7 -135 -34 -171
-36 -5 0 -15 -6 -21 -13 -8 -11 -14 -5 -29 28 -17 38 -20 40 -32 24 -7 -10
-13 -28 -13 -40 0 -29 -37 -40 -45 -13 -4 11 -10 17 -15 14 -5 -3 -11 1 -13 7
-3 8 -6 6 -6 -5 -1 -9 -12 -27 -26 -39 -25 -21 -34 -58 -15 -58 6 0 10 -11 10
-25 0 -27 19 -75 30 -75 4 0 11 10 14 23 6 22 6 22 22 2 19 -25 62 -27 70 -3
6 19 24 25 24 8 0 -5 9 -10 21 -10 15 0 19 5 15 15 -3 9 0 25 7 35 12 20 12
20 29 -2 22 -30 25 -24 20 40 -3 46 -6 52 -23 47 -11 -4 -19 -2 -19 4 0 6 7
11 15 11 8 0 15 4 15 9 0 6 8 9 18 9 9 -1 41 2 70 6 43 7 52 5 52 -8 0 -8 5
-27 12 -41 9 -20 18 -25 47 -25 29 1 33 2 19 11 -19 11 -26 79 -9 79 5 0 43 4
83 10 40 5 98 12 128 14 72 6 147 22 188 42 18 8 36 13 41 9 5 -3 12 1 14 7 4
9 6 8 6 -2 1 -18 -36 -53 -48 -46 -10 7 -44 -52 -36 -64 9 -15 51 -12 65 5 7
8 17 15 23 15 5 0 16 8 23 18 8 10 13 12 14 5 0 -7 4 -13 10 -13 5 0 7 7 4 15
-4 9 0 15 10 15 9 0 16 -6 17 -12 0 -7 4 -3 9 10 5 12 14 22 20 22 5 0 10 7
10 16 0 14 8 16 48 11 26 -3 58 -9 70 -13 21 -6 23 -4 20 17 -2 19 -13 27 -50
39 -26 8 -52 20 -59 27 -6 6 -18 9 -25 6 -8 -3 -14 0 -14 7 0 7 -6 10 -14 7
-10 -4 -16 2 -18 16 l-4 22 -7 -21z m-777 -238 c0 -14 -21 -58 -26 -54 -8 8 7
58 17 58 5 0 9 -2 9 -4z m-150 -91 c0 -8 -2 -15 -4 -15 -2 0 -6 7 -10 15 -3 8
-1 15 4 15 6 0 10 -7 10 -15z"/>
<path d="M9186 4957 c-17 -15 -18 -20 -6 -27 10 -7 19 -5 27 6 7 10 19 13 32
9 27 -8 61 3 61 19 0 20 -88 15 -114 -7z"/>
<path d="M8400 4686 c0 -2 7 -6 15 -10 8 -3 15 -1 15 4 0 6 -7 10 -15 10 -8 0
-15 -2 -15 -4z"/>
<path d="M9120 4670 c0 -5 7 -10 16 -10 8 0 12 5 9 10 -3 6 -10 10 -16 10 -5
0 -9 -4 -9 -10z"/>
<path d="M8443 4653 c-18 -7 -16 -20 3 -27 19 -7 57 11 49 25 -6 10 -31 11
-52 2z"/>
<path d="M7892 4611 l-23 -6 21 -18 c22 -19 40 -15 40 8 0 19 -11 23 -38 16z"/>
<path d="M7937 4578 c-9 -33 3 -42 25 -19 20 22 17 41 -6 41 -8 0 -16 -10 -19
-22z"/>
<path d="M9656 4471 c-4 -5 -2 -12 3 -15 5 -4 12 -2 15 3 4 5 2 12 -3 15 -5 4
-12 2 -15 -3z"/>
<path d="M9063 4344 c-8 -21 13 -42 28 -27 13 13 5 43 -11 43 -6 0 -13 -7 -17
-16z"/>
<path d="M7860 4290 c0 -5 5 -10 10 -10 6 0 10 5 10 10 0 6 -4 10 -10 10 -5 0
-10 -4 -10 -10z"/>
<path d="M8421 4268 c-17 -27 3 -52 22 -28 7 9 24 14 45 12 26 -3 32 0 32 16
0 28 -81 28 -99 0z"/>
<path d="M7100 4166 c0 -15 37 -32 47 -22 3 3 3 12 0 21 -8 19 -47 20 -47 1z"/>
<path d="M7856 4171 c-4 -7 -5 -15 -2 -18 9 -9 19 4 14 18 -4 11 -6 11 -12 0z"/>
<path d="M8183 4164 c-3 -8 -1 -20 6 -27 14 -14 47 15 37 32 -10 16 -36 13
-43 -5z"/>
<path d="M7609 4134 c-35 -18 -42 -40 -23 -70 18 -26 22 -28 44 -14 12 7 12
12 0 35 -12 22 -12 28 -1 34 26 16 7 30 -20 15z"/>
<path d="M7756 4082 c-3 -6 -22 -13 -43 -17 -20 -4 -48 -15 -61 -26 -14 -10
-35 -19 -48 -19 -13 0 -25 -8 -28 -18 -4 -13 -16 -18 -39 -18 -26 1 -32 -3
-32 -19 0 -33 74 -30 76 4 0 11 3 9 9 -6 6 -16 18 -23 35 -23 24 0 25 1 11 16
-23 22 -20 39 8 52 23 10 27 8 46 -23 12 -19 26 -35 31 -35 18 0 21 31 5 49
-9 10 -16 24 -16 32 0 8 8 2 18 -13 23 -38 32 -35 25 8 -5 31 -3 35 13 32 11
-2 19 3 19 11 0 17 -21 26 -29 13z"/>
<path d="M9326 4019 c-26 -4 -98 -10 -160 -14 -61 -3 -126 -11 -144 -17 -24
-7 -37 -7 -45 1 -15 15 -36 14 -54 -5 -9 -8 -25 -14 -38 -12 -12 1 -30 -5 -39
-15 -10 -9 -22 -15 -26 -12 -5 3 -27 -6 -49 -20 -21 -15 -53 -27 -70 -27 -17
-1 -36 -7 -41 -13 -11 -13 -50 -9 -50 5 0 4 -9 10 -20 13 -11 3 -20 11 -20 19
0 9 -21 14 -81 16 -61 2 -80 -1 -76 -10 2 -7 13 -13 25 -13 11 0 24 -4 28 -8
4 -4 15 -7 25 -7 10 0 21 -5 25 -12 9 -14 -23 -38 -53 -38 -13 0 -23 -6 -23
-12 0 -8 -5 -6 -11 4 -5 9 -15 15 -22 13 -6 -3 -25 -1 -42 3 -27 8 -31 5 -48
-27 -13 -24 -16 -36 -8 -39 6 -2 18 -10 25 -18 8 -8 22 -11 30 -8 10 4 18 0
22 -10 5 -14 9 -14 25 5 11 12 19 26 19 31 0 13 22 9 42 -9 17 -15 18 -15 18
1 0 14 8 15 58 10 32 -4 62 -13 69 -21 10 -13 14 -13 35 1 27 19 85 21 90 4 3
-8 9 -4 17 10 8 15 21 22 41 22 16 0 32 5 35 10 3 6 21 10 40 10 19 0 37 5 40
11 4 6 13 8 21 5 19 -7 49 11 93 56 35 37 64 48 75 29 8 -12 86 -1 111 15 23
16 65 19 65 4 0 -5 7 -10 15 -10 8 0 15 -4 15 -10 0 -5 5 -10 11 -10 6 0 9 6
6 14 -4 10 6 16 34 20 42 7 59 28 42 54 -12 20 -18 21 -77 11z"/>
<path d="M7779 3954 c-10 -12 -9 -18 5 -32 15 -15 18 -15 26 -2 5 8 10 20 10
26 0 19 -28 24 -41 8z"/>
<path d="M8376 3941 c-4 -7 -5 -15 -2 -18 9 -9 19 4 14 18 -4 11 -6 11 -12 0z"/>
<path d="M7707 3923 c-4 -3 -7 -15 -7 -26 0 -14 -5 -17 -17 -13 -15 6 -79 -18
-93 -35 -3 -3 -15 -11 -27 -17 -19 -10 -21 -18 -16 -62 4 -46 3 -50 -16 -50
-14 0 -21 -6 -21 -20 0 -24 25 -27 38 -4 8 14 10 13 15 -8 4 -14 18 -30 32
-36 14 -6 25 -16 25 -21 0 -6 15 -13 34 -17 24 -4 33 -10 29 -20 -3 -8 1 -14
11 -14 9 0 19 0 24 0 4 0 7 6 7 13 0 18 23 29 45 22 15 -5 22 0 30 19 5 14 16
26 25 26 34 0 9 154 -27 165 -10 4 -18 13 -18 21 0 8 -11 19 -25 26 -19 9 -22
14 -15 29 6 10 10 20 10 23 0 8 -35 7 -43 -1z"/>
<path d="M7513 3892 c-10 -7 -10 -12 0 -26 15 -21 49 -11 45 13 -4 18 -27 25
-45 13z"/>
<path d="M7790 3850 c0 -5 5 -10 10 -10 6 0 10 5 10 10 0 6 -4 10 -10 10 -5 0
-10 -4 -10 -10z"/>
<path d="M7442 3818 c-18 -18 -14 -38 8 -38 13 0 20 7 20 19 0 25 -13 34 -28
19z"/>
<path d="M7860 3770 c0 -5 7 -10 16 -10 8 0 12 5 9 10 -3 6 -10 10 -16 10 -5
0 -9 -4 -9 -10z"/>
<path d="M8020 3750 c0 -5 5 -10 10 -10 6 0 10 5 10 10 0 6 -4 10 -10 10 -5 0
-10 -4 -10 -10z"/>
<path d="M7430 3720 c0 -5 7 -10 15 -10 8 0 15 5 15 10 0 6 -7 10 -15 10 -8 0
-15 -4 -15 -10z"/>
<path d="M7956 3713 c-11 -11 -6 -23 9 -23 8 0 15 4 15 9 0 13 -16 22 -24 14z"/>
<path d="M7460 3645 c0 -8 7 -15 15 -15 8 0 15 4 15 9 0 5 -7 11 -15 15 -9 3
-15 0 -15 -9z"/>
<path d="M7932 3644 c4 -21 22 -23 26 -1 2 10 -3 17 -13 17 -10 0 -15 -6 -13
-16z"/>
<path d="M7550 3640 c0 -5 7 -10 15 -10 8 0 15 5 15 10 0 6 -7 10 -15 10 -8 0
-15 -4 -15 -10z"/>
<path d="M8065 3100 c-8 -13 3 -30 20 -30 14 0 27 24 18 34 -10 9 -31 7 -38
-4z"/>
<path d="M7430 3046 c0 -8 4 -17 8 -20 13 -8 35 11 28 23 -10 16 -36 14 -36
-3z"/>
<path d="M7427 2997 c-3 -8 -2 -19 2 -26 11 -16 43 -2 39 18 -4 20 -34 26 -41
8z"/>
<path d="M8122 2988 c2 -15 10 -23 23 -23 30 0 27 39 -3 43 -20 3 -23 0 -20
-20z"/>
<path d="M10074 2786 c-3 -21 -4 -39 -1 -42 3 -4 9 10 13 30 3 21 4 39 1 42
-3 4 -9 -10 -13 -30z"/>
<path d="M6978 2606 c-10 -10 -18 -21 -18 -26 0 -5 -3 -15 -6 -24 -4 -11 -1
-16 11 -16 12 0 15 5 11 16 -5 14 -1 15 29 10 37 -7 50 8 16 19 -11 3 -21 13
-23 22 -3 15 -5 15 -20 -1z"/>
<path d="M7107 2603 c-13 -12 -7 -23 12 -23 26 0 35 16 15 24 -19 7 -19 7 -27
-1z"/>
<path d="M7087 2563 c-13 -12 -7 -23 13 -23 11 0 20 7 20 15 0 15 -21 21 -33
8z"/>
<path d="M6982 2483 c2 -10 10 -18 18 -18 22 0 18 29 -3 33 -14 3 -18 -1 -15
-15z"/>
<path d="M7297 2494 c-9 -10 2 -24 19 -24 8 0 14 7 14 15 0 15 -21 21 -33 9z"/>
<path d="M7237 2454 c-15 -8 -25 -19 -22 -24 8 -13 35 -13 35 0 0 6 7 10 15
10 8 0 15 4 15 9 0 18 -15 19 -43 5z"/>
<path d="M6897 2443 c-4 -3 -7 -11 -7 -17 0 -6 5 -5 12 2 6 6 9 14 7 17 -3 3
-9 2 -12 -2z"/>
<path d="M6677 2434 c-8 -8 1 -24 14 -24 5 0 9 7 9 15 0 15 -12 20 -23 9z"/>
<path d="M7285 2409 c-10 -15 1 -23 20 -15 9 3 13 10 10 16 -8 13 -22 13 -30
-1z"/>
<path d="M7130 2344 c0 -9 7 -14 17 -12 25 5 28 28 4 28 -12 0 -21 -6 -21 -16z"/>
<path d="M6150 2130 c0 -5 5 -10 10 -10 6 0 10 5 10 10 0 6 -4 10 -10 10 -5 0
-10 -4 -10 -10z"/>
<path d="M6140 2000 c0 -5 5 -10 10 -10 6 0 10 5 10 10 0 6 -4 10 -10 10 -5 0
-10 -4 -10 -10z"/>
<path d="M6050 1905 c0 -8 7 -15 15 -15 8 0 15 7 15 15 0 8 -7 15 -15 15 -8 0
-15 -7 -15 -15z"/>
<path d="M8201 1660 c-1 -17 -36 -51 -49 -48 -8 2 -43 -13 -115 -48 -27 -13
-63 -24 -81 -24 -17 0 -41 -6 -52 -14 -22 -16 -141 -42 -151 -33 -3 4 -17 0
-32 -7 -14 -7 -53 -19 -86 -26 -33 -8 -63 -18 -67 -24 -6 -9 -28 33 -28 55 0
5 -4 9 -9 9 -11 0 -24 -47 -16 -59 12 -20 -28 -20 -46 0 l-18 21 -7 -26 c-3
-14 -10 -26 -14 -26 -15 0 -22 -40 -10 -55 6 -7 10 -19 9 -27 -5 -21 10 -68
21 -68 6 0 10 7 10 15 0 21 18 19 25 -4 7 -22 43 -18 52 6 4 9 9 10 17 4 16
-14 31 0 31 28 0 13 6 26 13 29 6 2 12 -3 12 -12 0 -8 4 -17 9 -20 5 -3 8 19
7 49 -1 48 -4 55 -21 55 -36 0 6 27 60 38 55 12 65 9 65 -18 0 -37 12 -50 44
-50 17 0 26 4 20 8 -7 4 -14 23 -15 42 -4 33 -3 35 36 42 22 3 72 9 110 13 39
3 74 10 80 16 5 5 18 9 30 9 11 0 37 9 58 20 20 11 37 17 37 13 0 -5 5 -1 10
7 8 13 10 13 10 -1 0 -9 -9 -24 -20 -34 -11 -10 -20 -14 -20 -9 0 5 -7 -4 -15
-20 -29 -56 8 -77 51 -30 13 14 29 22 34 19 6 -3 10 1 10 9 0 19 20 22 21 4 0
-7 4 -3 9 10 5 12 14 22 20 22 6 0 8 5 5 10 -11 18 25 23 67 11 45 -14 53 -11
43 18 -4 13 -20 24 -45 31 -22 6 -44 18 -49 28 -6 9 -11 13 -11 8 0 -5 -7 -3
-15 4 -8 7 -15 9 -16 4 -1 -5 -5 2 -9 16 -4 14 -8 18 -9 10z m-630 -287 c-9
-16 -10 -16 -11 -1 0 9 3 25 7 35 7 16 8 17 11 1 2 -10 -1 -25 -7 -35z m-114
-55 c-3 -8 -6 -5 -6 6 -1 11 2 17 5 13 3 -3 4 -12 1 -19z"/>
<path d="M7460 1649 c0 -5 5 -7 10 -4 6 3 10 8 10 11 0 2 -4 4 -10 4 -5 0 -10
-5 -10 -11z"/>
<path d="M8003 1653 c-34 -4 -59 -26 -48 -43 9 -15 25 -12 25 4 0 9 11 13 32
12 23 -1 33 4 36 17 2 9 0 16 -5 15 -4 0 -22 -3 -40 -5z"/>
<path d="M7910 1340 c0 -5 5 -10 10 -10 6 0 10 5 10 10 0 6 -4 10 -10 10 -5 0
-10 -4 -10 -10z"/>
<path d="M7372 1323 c-17 -7 -5 -23 19 -23 10 0 19 7 19 15 0 15 -14 18 -38 8z"/>
<path d="M6925 1270 c-3 -5 1 -10 9 -10 9 0 16 5 16 10 0 6 -4 10 -9 10 -6 0
-13 -4 -16 -10z"/>
<path d="M7701 1253 c-1 -7 -7 -13 -15 -13 -15 0 -29 -51 -19 -76 4 -10 13
-14 29 -10 12 3 25 2 28 -3 7 -11 46 -2 46 10 0 5 -4 9 -10 9 -5 0 -10 7 -10
15 0 8 -8 23 -19 34 -10 10 -21 25 -24 32 -4 10 -6 10 -6 2z"/>
<path d="M6960 1230 c0 -5 7 -10 15 -10 8 0 15 5 15 10 0 6 -7 10 -15 10 -8 0
-15 -4 -15 -10z"/>
<path d="M8335 1151 c-3 -5 -1 -12 5 -16 5 -3 10 1 10 9 0 18 -6 21 -15 7z"/>
<path d="M7870 1010 c0 -24 15 -27 24 -4 9 22 8 24 -9 24 -8 0 -15 -9 -15 -20z"/>
<path d="M7416 962 c-3 -5 -16 -7 -30 -5 -18 4 -26 0 -31 -17 -8 -26 11 -52
20 -28 4 10 15 13 30 10 17 -3 27 1 31 13 7 18 -10 43 -20 27z"/>
<path d="M2623 943 c-16 -6 -5 -33 13 -33 8 0 14 6 14 14 0 18 -11 25 -27 19z"/>
<path d="M2550 880 c0 -5 5 -10 10 -10 6 0 10 5 10 10 0 6 -4 10 -10 10 -5 0
-10 -4 -10 -10z"/>
<path d="M2680 870 c0 -5 5 -10 10 -10 6 0 10 5 10 10 0 6 -4 10 -10 10 -5 0
-10 -4 -10 -10z"/>
<path d="M2600 804 c0 -9 5 -14 12 -12 18 6 21 28 4 28 -9 0 -16 -7 -16 -16z"/>
<path d="M2540 765 c0 -9 5 -15 11 -13 6 2 11 8 11 13 0 5 -5 11 -11 13 -6 2
-11 -4 -11 -13z"/>
<path d="M2480 730 c0 -5 5 -10 10 -10 6 0 10 5 10 10 0 6 -4 10 -10 10 -5 0
-10 -4 -10 -10z"/>
<path d="M8047 693 c-1 -1 -36 -5 -77 -8 -41 -3 -93 -10 -115 -15 -23 -5 -51
-7 -63 -4 -13 4 -28 0 -38 -10 -9 -10 -24 -14 -35 -11 -10 4 -19 2 -19 -4 0
-6 -15 -18 -32 -26 -18 -9 -44 -22 -58 -30 -14 -8 -33 -15 -42 -15 -9 0 -20
-4 -23 -10 -10 -15 -35 -12 -35 5 0 8 -7 15 -15 15 -8 0 -15 6 -15 14 0 8 -10
14 -22 14 -13 0 -41 2 -63 4 -30 2 -40 -1 -40 -12 0 -8 7 -15 15 -16 8 0 28
-6 44 -13 27 -11 28 -12 12 -30 -18 -19 -66 -34 -66 -21 0 4 -15 10 -34 12
-29 3 -37 -1 -50 -23 -22 -37 -20 -45 12 -57 15 -5 35 -13 44 -17 12 -5 21 1
30 20 13 24 16 25 27 11 15 -18 36 -22 25 -5 -5 9 6 10 41 7 26 -3 51 -12 56
-19 7 -11 13 -11 36 2 28 16 52 15 64 -4 4 -5 10 0 14 12 5 18 25 27 39 19 2
-2 12 5 22 14 11 9 37 18 59 20 39 3 50 10 102 72 18 22 27 25 66 21 34 -3 51
0 70 15 31 25 32 25 70 -2 23 -17 29 -18 25 -6 -5 12 2 18 28 22 29 6 34 11
34 36 0 28 -1 29 -46 27 -25 -1 -46 -3 -47 -4z"/>
<path d="M2888 669 c-27 -15 -22 -51 11 -82 l29 -27 22 35 c21 33 21 37 6 60
-17 26 -40 31 -68 14z"/>
<path d="M7315 611 c-3 -5 -1 -12 5 -16 5 -3 10 1 10 9 0 18 -6 21 -15 7z"/>
<path d="M3035 590 c-10 -17 20 -44 40 -36 9 3 15 14 13 23 -4 21 -43 30 -53
13z"/>
<path d="M3094 548 c-4 -6 0 -16 9 -23 10 -7 17 -20 17 -29 0 -23 37 -20 45 4
8 24 -3 43 -20 36 -7 -2 -16 2 -19 10 -6 17 -22 18 -32 2z"/>
<path d="M3250 523 c-14 -3 -36 -15 -50 -27 -39 -36 -59 -39 -98 -16 -43 26
-63 14 -42 -24 11 -22 18 -25 64 -22 28 1 65 9 81 16 17 7 44 14 60 14 47 2
58 13 39 42 -9 13 -19 23 -23 23 -3 -1 -17 -4 -31 -6z"/>
<path d="M7117 499 c-27 -25 -20 -104 8 -104 11 0 25 -3 30 -7 6 -4 17 -2 25
3 12 8 12 12 2 16 -6 2 -10 8 -7 13 5 8 -6 37 -28 76 -11 19 -13 20 -30 3z"/>
<path d="M2903 474 c-10 -26 14 -41 35 -21 15 16 15 19 2 27 -21 14 -30 12
-37 -6z"/>
<path d="M2960 450 c0 -13 7 -20 20 -20 13 0 20 7 20 20 0 13 -7 20 -20 20
-13 0 -20 -7 -20 -20z"/>
<path d="M6346 428 c-8 -33 -8 -38 8 -38 14 0 26 21 26 46 0 23 -27 16 -34 -8z"/>
<path d="M6910 440 c0 -5 5 -10 10 -10 6 0 10 5 10 10 0 6 -4 10 -10 10 -5 0
-10 -4 -10 -10z"/>
<path d="M2775 427 c-4 -10 -5 -21 -1 -24 10 -10 18 4 13 24 -4 17 -4 17 -12
0z"/>
<path d="M3273 433 c-25 -5 -42 -48 -25 -65 16 -16 57 -6 54 14 -2 12 6 20 23
24 14 3 25 10 25 14 0 7 -38 21 -50 19 -3 -1 -15 -4 -27 -6z"/>
<path d="M3412 413 c2 -10 10 -18 18 -18 22 0 18 29 -3 33 -14 3 -18 -1 -15
-15z"/>
<path d="M3570 420 c0 -5 7 -10 15 -10 8 0 15 5 15 10 0 6 -7 10 -15 10 -8 0
-15 -4 -15 -10z"/>
<path d="M6570 385 c0 -8 5 -15 10 -15 6 0 10 7 10 15 0 8 -4 15 -10 15 -5 0
-10 -7 -10 -15z"/>
<path d="M6637 383 c-13 -12 -7 -33 8 -33 8 0 15 9 15 20 0 20 -11 26 -23 13z"/>
<path d="M6557 228 c-3 -12 -4 -25 -1 -30 9 -13 34 12 34 33 0 26 -26 24 -33
-3z"/>
<path d="M6472 171 c2 -7 7 -12 11 -12 12 1 9 15 -3 20 -7 2 -11 -2 -8 -8z"/>
<path d="M6765 170 c-3 -5 1 -10 10 -10 9 0 13 5 10 10 -3 6 -8 10 -10 10 -2
0 -7 -4 -10 -10z"/>
<path d="M6420 125 c0 -8 5 -15 10 -15 6 0 10 7 10 15 0 8 -4 15 -10 15 -5 0
-10 -7 -10 -15z"/>
<path d="M6392 73 c5 -25 28 -28 28 -4 0 12 -6 21 -16 21 -9 0 -14 -7 -12 -17z"/>
</g>
</svg>
