<?xml version="1.0" standalone="no"?>
<!DOCTYPE svg PUBLIC "-//W3C//DTD SVG 20010904//EN"
 "http://www.w3.org/TR/2001/REC-SVG-20010904/DTD/svg10.dtd">
<svg version="1.0" xmlns="http://www.w3.org/2000/svg"
 width="1024.000000pt" height="1024.000000pt" viewBox="0 0 1024.000000 1024.000000"
 preserveAspectRatio="xMidYMid meet">
<metadata>
Created by potrace 1.16, written by Peter Selinger 2001-2019
</metadata>
<g transform="translate(0.000000,1024.000000) scale(0.100000,-0.100000)"
fill="#000000" stroke="none">
<path d="M5775 9523 c-12 -9 -17 -63 -6 -63 4 0 12 5 18 11 6 6 26 14 45 18
48 10 44 35 -7 39 -22 1 -45 -1 -50 -5z"/>
<path d="M6120 9445 c-14 -8 -32 -14 -41 -15 -8 0 -45 -15 -82 -34 -59 -29
-77 -34 -148 -34 -57 -1 -87 3 -104 14 -27 17 -31 16 -92 -35 -38 -31 -41 -37
-28 -51 8 -9 18 -31 21 -48 6 -32 -3 -41 -22 -22 -7 7 -16 4 -28 -8 -13 -16
-15 -25 -6 -47 7 -19 7 -31 0 -40 -7 -9 -7 -20 1 -38 10 -21 9 -29 -5 -42 -9
-9 -19 -28 -22 -41 -6 -23 -10 -25 -48 -19 -22 4 -54 13 -71 21 -33 16 -33 16
-67 -45 -9 -17 -29 -36 -44 -41 -32 -13 -31 -22 20 -169 39 -113 44 -140 23
-122 -8 6 -29 61 -47 121 -24 79 -37 109 -47 106 -8 -3 -13 2 -13 13 0 10 -9
21 -20 24 -13 3 -20 0 -20 -9 0 -29 -20 -12 -45 36 -14 27 -25 54 -25 60 0 21
20 9 36 -22 22 -43 21 -43 39 -28 8 7 24 10 35 7 34 -9 21 7 -23 29 -29 14
-48 32 -60 58 -18 38 -18 39 5 63 13 14 37 32 53 40 29 13 29 14 3 9 -30 -7
-118 27 -118 44 0 6 -4 9 -9 6 -4 -3 -6 -17 -3 -31 2 -14 -3 -36 -13 -51 -15
-23 -22 -26 -55 -20 -33 5 -42 2 -67 -22 -37 -37 -132 -52 -171 -26 -21 14
-26 14 -39 1 -12 -12 -13 -19 -3 -37 14 -27 3 -41 -14 -17 -7 9 -25 17 -39 17
-19 0 -27 -7 -33 -27 -4 -16 -6 -36 -5 -45 3 -23 -15 -23 -27 -2 -19 34 -21
-5 -2 -42 11 -21 21 -45 22 -54 0 -8 4 5 7 30 6 43 7 44 44 47 35 2 49 -9 28
-22 -6 -3 -6 -17 1 -35 7 -23 7 -34 -2 -45 -15 -18 -56 -20 -63 -2 -3 6 -6
-19 -6 -56 -1 -39 5 -83 14 -104 8 -19 15 -43 14 -52 0 -9 -7 3 -16 27 -14 39
-33 49 -33 17 0 -27 -61 -85 -88 -85 -78 0 -179 90 -252 225 -21 39 -46 71
-54 73 -14 3 -15 0 -5 -22 7 -14 16 -26 21 -26 4 0 8 -5 8 -11 0 -6 9 -22 20
-36 11 -14 20 -34 20 -44 0 -11 6 -29 13 -40 10 -17 10 -23 0 -26 -9 -3 -13
-25 -13 -63 0 -55 2 -60 32 -82 18 -12 48 -23 67 -24 41 -1 81 -41 81 -82 0
-15 11 -60 25 -100 32 -96 33 -122 1 -122 -35 0 -49 46 -21 73 11 12 12 22 3
53 -8 32 -12 36 -22 23 -6 -9 -25 -20 -43 -27 -18 -6 -53 -32 -79 -59 l-46
-48 16 -85 c22 -117 18 -123 -9 -15 l-22 90 -32 -3 c-48 -5 -98 16 -130 54
l-28 35 -6 -48 c-3 -26 -9 -59 -13 -72 -6 -20 -4 -23 8 -18 23 8 31 -4 12 -17
-23 -17 -9 -86 17 -86 14 0 19 -7 19 -25 0 -18 -4 -23 -16 -18 -14 5 -15 1 -9
-28 4 -19 16 -40 26 -47 25 -17 24 -57 -1 -82 -24 -24 -34 -25 -50 -5 -9 11
-9 22 0 50 12 36 12 40 -17 148 -2 9 -8 15 -13 12 -4 -3 -13 1 -19 9 -15 18
-4 46 16 39 13 -5 13 -2 -2 20 -22 35 -47 36 -41 2 3 -13 0 -27 -5 -31 -6 -3
-8 -13 -5 -21 4 -9 1 -22 -5 -29 -9 -11 -7 -20 5 -39 26 -40 21 -57 -16 -53
-31 3 -33 1 -36 -30 l-3 -33 -20 25 c-17 21 -24 24 -40 16 -15 -9 -21 -7 -25
5 -10 25 -27 17 -22 -10 3 -16 1 -25 -7 -25 -20 0 -36 27 -42 69 -3 23 -12 46
-19 52 -8 6 -14 27 -14 47 0 22 -9 47 -24 67 -13 17 -26 42 -28 55 -1 13 -8
25 -15 27 -8 3 -10 -11 -6 -51 4 -36 2 -56 -5 -56 -12 0 -42 83 -42 115 0 14
-10 26 -25 33 -32 15 -40 0 -32 -58 8 -63 -6 -47 -31 35 -25 79 -24 117 2 96
11 -10 16 -8 21 8 3 12 13 28 22 36 10 10 13 24 9 41 -6 24 -8 25 -30 11 -22
-15 -24 -14 -36 8 -7 14 -16 41 -19 62 -5 29 -11 39 -29 41 -12 2 -29 16 -37
32 -21 41 -30 43 -80 21 -52 -23 -56 -35 -18 -53 36 -18 41 -38 9 -38 -26 0
-30 -9 -20 -46 4 -17 13 -21 37 -20 18 1 43 -4 55 -13 20 -12 28 -12 44 -2 15
9 23 9 34 0 16 -13 19 -60 5 -74 -6 -6 -2 -39 10 -85 10 -41 19 -87 19 -102 0
-20 6 -27 23 -30 26 -4 67 -77 67 -123 l1 -30 14 33 c14 32 36 40 65 22 12 -7
12 -18 2 -67 -9 -46 -9 -75 2 -143 22 -135 30 -233 18 -226 -9 5 -17 55 -41
248 -7 57 -15 82 -31 100 l-23 23 8 -30 c4 -16 9 -46 11 -65 2 -19 9 -73 15
-120 17 -133 6 -161 -14 -35 -10 61 -18 121 -18 134 -1 18 -3 21 -10 10 -5 -8
-9 -9 -9 -3 0 6 -11 16 -25 22 -35 16 -57 75 -61 162 -4 71 -52 264 -71 280
-4 4 -32 29 -62 56 l-54 49 6 -45 c6 -45 6 -45 -22 23 -9 20 -10 20 -10 -10
-1 -20 -13 -45 -36 -73 -25 -30 -35 -53 -36 -78 -3 -76 -9 -117 -19 -143 -13
-29 -85 -75 -113 -70 -12 1 -20 -5 -24 -19 l-6 -21 -14 21 c-18 26 -33 26 -33
0 0 -12 -7 -20 -17 -20 -38 0 -97 -125 -70 -145 8 -6 16 -24 19 -40 3 -17 15
-60 26 -96 20 -66 16 -111 -7 -73 -8 15 -10 3 -8 -53 1 -40 6 -75 10 -79 4 -4
14 10 22 32 9 21 20 46 25 54 24 38 69 138 75 168 4 17 12 32 18 32 6 0 19 8
30 18 19 17 20 16 13 -10 -3 -15 -1 -38 5 -51 9 -21 7 -32 -14 -68 -13 -24
-23 -48 -22 -54 2 -5 6 -23 10 -38 4 -19 11 -27 19 -24 23 9 26 -4 10 -36 -12
-23 -18 -27 -25 -16 -5 8 -6 21 -3 31 2 9 0 19 -6 23 -5 3 -10 15 -10 26 0 24
-16 25 -29 2 -5 -10 -13 -15 -16 -11 -4 4 3 21 15 38 30 41 19 49 -19 14 -20
-20 -32 -43 -37 -71 -7 -47 6 -58 24 -20 6 12 11 16 11 8 1 -11 6 -10 21 4 22
20 27 7 10 -25 -7 -13 -5 -26 5 -47 8 -15 15 -43 15 -61 0 -29 3 -32 20 -27
11 4 20 2 20 -4 0 -6 -6 -10 -12 -8 -8 1 -15 -16 -19 -48 -16 -118 -21 -137
-40 -156 -16 -16 -20 -29 -15 -52 16 -92 17 -108 8 -120 -19 -24 -23 -67 -8
-73 33 -13 80 -124 52 -124 -15 0 -26 21 -26 50 0 16 -18 30 -41 30 -5 0 -9
-12 -9 -26 0 -23 -2 -25 -16 -14 -12 11 -17 11 -28 -1 -17 -18 -29 -149 -16
-169 7 -11 10 -7 10 18 0 33 19 41 28 12 3 -7 0 -10 -7 -6 -17 11 -13 -5 9
-42 24 -40 25 -49 4 -31 -15 12 -16 11 -10 -11 7 -24 6 -24 -8 -6 -23 29 -50
30 -41 3 18 -59 18 -70 1 -64 -9 4 -16 2 -16 -3 0 -6 -7 -10 -15 -10 -11 0
-15 11 -15 40 0 22 3 40 8 40 4 0 8 26 10 58 l3 57 -21 -33 c-12 -20 -20 -50
-20 -78 0 -28 -4 -43 -10 -39 -5 3 -10 17 -10 31 0 13 -2 24 -4 24 -3 0 -19
-14 -38 -31 -58 -54 -64 -59 -75 -59 -6 0 -16 14 -23 31 -10 22 -15 27 -21 17
-7 -10 -9 -9 -9 4 0 10 -5 17 -12 15 -6 -1 -14 7 -17 18 -3 11 -13 20 -21 20
-10 0 -16 12 -18 38 -3 31 -7 37 -27 37 -12 0 -25 -7 -29 -15 -3 -8 -17 -20
-31 -25 -19 -7 -25 -15 -21 -28 7 -22 -8 -47 -23 -38 -8 5 -6 16 5 37 8 17 13
38 9 47 -5 13 -8 12 -22 -7 -12 -18 -18 -20 -24 -10 -5 9 -10 5 -14 -14 -8
-29 -35 -59 -35 -37 0 6 -6 10 -12 7 -9 -2 -12 -22 -10 -63 3 -43 0 -64 -10
-72 -12 -10 -90 -30 -188 -48 -44 -9 -94 -28 -113 -43 -21 -18 -47 -74 -47
-102 0 -10 -11 -26 -25 -35 -13 -9 -27 -24 -30 -35 -4 -10 -16 -21 -29 -25
-20 -5 -23 -14 -35 -122 -16 -154 -31 -233 -43 -226 -16 10 -36 -16 -43 -56
-4 -22 -15 -50 -26 -63 -12 -16 -20 -47 -24 -88 -3 -35 -6 -71 -7 -79 -3 -29
2 -50 12 -50 6 0 10 8 10 18 0 9 10 33 21 52 l21 34 23 -26 c28 -33 50 -163
35 -204 -8 -20 -7 -31 4 -43 8 -9 16 -29 18 -46 2 -25 7 -29 25 -27 29 4 32
-31 4 -50 -17 -12 -20 -30 -24 -153 -5 -130 -11 -175 -24 -175 -3 0 -12 8 -19
18 -13 16 -13 16 -14 0 0 -10 -4 -18 -10 -18 -14 0 -27 -60 -22 -103 9 -79
-19 -167 -35 -107 -6 21 -23 28 -23 9 0 -6 -6 -9 -12 -7 -7 3 -16 27 -19 54
-4 27 -15 78 -25 113 -13 50 -19 60 -25 45 -5 -13 -8 -4 -8 29 -1 29 3 47 10
47 8 0 10 16 6 50 -4 34 -3 49 4 44 6 -3 17 3 25 14 9 13 21 19 30 15 13 -5
15 4 15 53 -1 33 1 121 3 197 2 75 0 137 -5 137 -4 0 -10 8 -12 18 -4 16 -5
16 -6 0 0 -10 -8 -18 -16 -18 -9 0 -13 7 -9 18 2 9 -1 7 -7 -5 -7 -13 -16 -23
-21 -23 -9 0 -10 20 -8 150 0 60 -2 81 -10 70 -5 -8 -10 -32 -10 -53 0 -43
-18 -47 -35 -9 -14 31 -40 27 -55 -8 -10 -25 -10 -33 1 -47 8 -10 9 -14 2 -10
-19 12 -28 -14 -28 -82 0 -40 -4 -66 -11 -68 -8 -3 -10 -18 -7 -42 3 -23 1
-41 -6 -45 -7 -5 -11 9 -11 43 0 50 -14 77 -23 44 -3 -10 -6 7 -7 37 -1 41 -4
50 -10 35 -5 -11 -9 -15 -9 -10 -1 6 -5 3 -11 -5 -12 -20 -19 -11 -24 33 -6
41 -35 103 -36 75 0 -10 -4 -18 -10 -18 -5 0 -10 -5 -10 -11 0 -6 7 -9 15 -5
18 7 18 13 0 -74 -16 -77 -13 -95 13 -81 9 4 23 6 30 4 6 -3 12 4 13 14 1 13
3 11 8 -7 4 -14 13 -24 20 -22 15 3 24 -20 19 -50 l-5 -23 -11 25 -11 25 0
-26 c-1 -15 5 -32 13 -39 11 -8 14 -31 12 -90 -3 -76 -17 -117 -37 -104 -5 3
-9 -2 -9 -12 0 -12 -6 -15 -21 -11 -27 7 -34 -13 -19 -59 16 -48 17 -252 2
-281 -7 -12 -12 -28 -12 -36 0 -8 -7 -20 -15 -27 -8 -7 -15 -24 -15 -38 0 -20
-3 -23 -12 -14 -17 17 -28 15 -29 -5 0 -14 -2 -15 -6 -3 -18 55 -45 102 -54
93 -5 -5 -23 -49 -40 -99 -32 -91 -52 -124 -76 -124 -9 0 -13 -13 -13 -40 0
-28 -4 -40 -14 -40 -17 0 -26 22 -26 65 0 22 -14 56 -41 100 -23 36 -43 64
-44 63 -8 -10 -12 -257 -4 -253 5 4 9 -1 9 -9 0 -9 -4 -16 -9 -16 -4 0 -12
-32 -15 -71 -4 -38 -18 -98 -30 -132 -13 -34 -33 -109 -46 -167 -21 -99 -44
-160 -62 -160 -4 0 -8 -20 -8 -45 0 -33 -4 -45 -15 -45 -11 0 -15 12 -15 45 0
31 -5 47 -14 51 -8 3 -36 31 -61 62 -25 32 -58 64 -73 72 -30 18 -71 91 -72
130 -1 24 -1 24 -15 6 -13 -17 -15 -17 -15 -4 0 9 4 27 9 40 11 28 -3 68 -24
68 -8 0 -15 5 -15 10 0 6 4 10 9 10 6 0 6 10 1 28 -14 41 -41 215 -50 322 -4
52 -15 113 -24 134 -16 38 -17 38 -36 21 -18 -16 -20 -17 -26 -1 -4 9 -4 38 0
64 3 26 8 72 9 103 2 30 11 70 20 89 20 40 20 40 3 40 -19 0 -26 22 -26 82 0
44 -2 49 -15 38 -13 -11 -15 -8 -15 17 0 17 5 45 11 63 9 24 9 34 0 39 -7 5
-11 29 -10 62 3 73 -19 179 -37 179 -10 0 -14 12 -13 38 1 31 2 33 8 12 11
-38 24 -7 24 54 0 28 2 40 4 26 3 -14 11 -32 20 -41 8 -10 17 -42 20 -73 4
-42 9 -56 19 -52 8 3 14 1 14 -4 0 -6 -4 -10 -10 -10 -5 0 -10 -13 -10 -30 0
-16 -6 -50 -12 -76 -11 -41 -11 -47 6 -60 15 -10 17 -21 13 -51 -3 -21 -1 -47
3 -58 8 -18 9 -18 10 5 l1 25 11 -25 c14 -31 12 -26 22 -82 4 -27 11 -48 16
-48 13 0 23 64 15 102 -4 21 -3 28 3 20 7 -11 11 -8 15 10 4 12 7 33 7 45 0
12 9 28 20 36 18 13 21 27 23 118 2 102 2 104 -20 102 -17 -2 -23 2 -23 18 0
13 6 19 17 17 14 -2 18 6 19 42 1 25 0 35 -3 22 -7 -35 -23 -16 -23 28 0 49 8
70 24 64 8 -3 11 -15 8 -31 -4 -19 -1 -24 9 -21 8 3 16 15 17 28 5 31 -17 98
-34 104 -8 3 -14 13 -14 22 0 10 5 14 15 10 19 -7 19 -6 -1 60 -24 83 -38 80
-31 -7 4 -41 9 -87 11 -104 3 -16 0 -10 -7 15 -10 34 -18 45 -32 45 -16 0 -21
-8 -23 -42 -2 -24 4 -55 12 -72 19 -36 22 -126 5 -115 -8 5 -10 -3 -5 -27 17
-84 18 -104 7 -93 -7 6 -14 29 -16 50 -2 22 -10 57 -19 79 -24 61 -35 166 -29
266 4 64 3 89 -6 89 -7 0 -11 -23 -11 -67 0 -72 -7 -113 -20 -113 -16 0 -31
58 -32 123 0 40 -5 64 -10 59 -10 -10 -13 -95 -4 -111 4 -6 5 -11 1 -11 -3 0
-10 10 -15 23 -8 21 -9 21 -9 -5 -1 -15 -6 -30 -12 -33 -6 -4 -9 2 -8 17 3 38
0 58 -11 58 -6 0 -10 -19 -9 -42 0 -24 -2 -61 -5 -83 -3 -22 -6 -77 -5 -122 0
-53 -4 -83 -10 -83 -6 0 -11 -12 -12 -27 l-1 -28 -10 30 c-8 21 -8 30 1 33 7
2 11 31 11 80 0 72 -1 75 -14 50 -8 -15 -16 -35 -18 -45 -8 -34 -21 99 -15
159 3 33 3 76 0 94 -5 29 -10 34 -32 34 -34 0 -46 9 -66 45 -15 29 -15 25 -13
-83 2 -84 7 -115 17 -121 11 -7 13 -26 9 -83 -6 -75 11 -215 25 -202 4 4 7 64
7 132 0 69 2 123 4 121 2 -2 6 -74 9 -159 5 -150 -3 -239 -26 -288 -7 -15 -8
-26 -2 -30 6 -4 10 -46 10 -94 0 -69 4 -90 18 -106 17 -18 18 -34 11 -181 -7
-154 -17 -199 -29 -129 -3 18 -9 56 -14 83 l-9 50 -1 -63 c-1 -57 21 -154 39
-175 4 -5 16 38 27 95 l21 103 1 -85 c0 -50 -3 -79 -8 -72 -6 10 -10 7 -13
-12 -4 -20 -1 -26 13 -26 13 0 21 -12 29 -42 6 -24 15 -59 20 -79 6 -20 10
-52 10 -70 0 -45 10 -80 21 -73 13 7 11 -1 -6 -43 -12 -28 -13 -38 -3 -44 9
-6 9 -11 0 -21 -11 -14 -1 -286 12 -307 12 -19 36 -12 36 11 0 35 12 12 15
-27 1 -20 -2 -38 -7 -41 -4 -3 -8 -26 -8 -51 0 -36 -6 -52 -30 -80 -31 -35
-35 -51 -30 -146 2 -53 -25 -158 -51 -192 -4 -5 -17 -43 -29 -84 -12 -41 -28
-84 -35 -95 -7 -12 -21 -49 -30 -84 -14 -51 -22 -63 -42 -68 -17 -5 -31 0 -47
15 -12 11 -31 21 -41 21 -10 0 -27 8 -38 17 -19 17 -19 17 -11 -7 4 -14 7 -54
6 -90 0 -36 3 -84 9 -108 7 -33 6 -47 -5 -65 -20 -29 -33 -127 -17 -127 6 0
12 6 12 13 1 6 5 -10 9 -38 10 -63 3 -160 -15 -205 -14 -36 -35 -205 -35 -286
0 -34 3 -43 13 -37 24 15 37 11 43 -15 4 -15 10 -31 14 -37 10 -14 24 -147 24
-220 0 -90 -23 -197 -40 -191 -8 3 -14 0 -15 -7 0 -13 -24 70 -32 113 -2 14
-5 -397 -6 -912 l-1 -938 5120 0 5121 0 -2 1158 c-1 637 -5 1191 -9 1232 -4
41 -3 79 1 84 5 6 9 42 9 80 0 75 -10 76 -30 5 -6 -20 -21 -44 -35 -53 -36
-24 -62 -6 -76 49 -6 24 -17 50 -25 56 -8 6 -14 24 -14 40 0 15 -4 39 -9 52
-5 13 -12 66 -16 118 -3 51 -8 96 -11 98 -2 3 -10 -10 -16 -27 -17 -45 -28
-40 -28 13 0 43 1 45 25 39 24 -6 25 -4 25 37 0 24 -7 73 -16 109 -23 93 -19
280 5 280 4 0 16 -9 26 -20 10 -11 21 -20 25 -20 8 0 20 116 19 183 0 22 4 36
10 33 5 -3 12 0 14 6 3 8 6 6 6 -5 1 -10 5 -16 10 -13 5 3 14 -1 21 -9 20 -24
33 -6 25 34 -4 20 -7 71 -7 113 l1 78 -24 -28 c-18 -20 -24 -23 -25 -11 0 9 6
22 14 28 7 6 11 22 9 34 -3 14 2 31 13 41 14 15 16 23 6 49 -6 18 -9 57 -7 89
3 53 1 57 -21 62 -14 4 -22 11 -19 17 4 5 15 7 25 4 25 -8 31 11 45 162 9 105
16 137 31 154 18 20 19 40 19 335 0 221 -3 317 -11 322 -6 4 -14 18 -18 32
-17 60 -29 81 -37 68 -5 -7 -9 -26 -9 -43 -1 -29 -1 -29 -15 -11 -15 20 -15
20 -16 0 0 -14 -3 -12 -11 9 -5 15 -13 27 -18 27 -8 0 -23 -33 -25 -52 -2 -32
-44 -2 -45 32 0 13 1 13 11 0 8 -11 9 -9 3 10 -4 14 -10 27 -14 30 -4 3 -9 12
-12 20 -3 8 -9 -9 -13 -37 -4 -29 -12 -53 -17 -53 -5 0 -8 -26 -7 -57 2 -68
-15 -123 -33 -105 -17 17 -13 80 6 101 9 10 14 20 11 23 -11 11 -56 -5 -66
-24 -8 -15 -14 -17 -24 -8 -9 8 -15 8 -20 0 -9 -15 -22 -4 -45 38 l-19 37 -1
-32 c0 -17 -5 -35 -10 -38 -7 -5 -9 11 -5 45 6 49 -20 187 -37 200 -3 3 -9 22
-13 43 -9 44 -24 58 -32 28 -3 -12 -10 -21 -15 -21 -6 0 -7 11 -4 25 7 29 -2
75 -15 75 -5 0 -14 -10 -19 -22 -7 -19 -9 -20 -9 -4 -1 12 -6 16 -16 12 -11
-4 -15 2 -14 27 0 25 2 28 8 13 5 -13 10 -16 15 -8 3 6 13 9 20 6 11 -4 15 19
17 115 3 78 8 124 16 133 10 9 13 7 13 -15 0 -26 19 -39 21 -14 7 69 -16 137
-54 161 -23 14 -33 -1 -41 -63 -4 -25 -9 -59 -11 -76 -3 -17 3 -7 15 24 27 75
34 76 25 6 -4 -33 -8 -70 -7 -83 0 -17 -4 -21 -18 -17 -11 3 -20 0 -23 -10 -4
-8 -13 -12 -22 -9 -17 7 -21 -11 -5 -21 6 -3 10 -25 9 -48 0 -23 -3 -36 -6
-29 -7 18 -32 -15 -33 -43 0 -11 -8 -37 -18 -59 l-17 -38 -25 20 c-23 18 -25
28 -29 111 -2 58 1 96 8 105 6 7 9 21 5 30 -4 11 -1 16 10 16 9 0 16 7 16 15
0 8 4 15 9 15 5 0 9 13 9 29 -1 15 2 33 5 39 4 5 0 12 -8 16 -10 3 -15 19 -15
47 0 36 -2 40 -16 28 -9 -7 -13 -21 -10 -35 4 -13 0 -27 -9 -34 -12 -10 -14
-5 -12 32 1 24 4 45 7 48 10 10 40 117 40 144 0 17 4 25 11 21 6 -4 8 -13 5
-21 -3 -8 1 -14 9 -14 11 0 15 13 15 50 0 28 4 50 9 50 5 0 7 9 4 21 -4 16 -8
17 -14 7 -6 -9 -9 -2 -9 19 0 21 5 32 13 30 8 -1 12 11 12 38 0 29 -4 40 -15
40 -11 0 -14 -10 -13 -35 1 -19 -1 -27 -3 -17 -3 9 -10 17 -15 17 -13 0 -23
-51 -13 -69 14 -24 1 -113 -21 -147 -11 -16 -20 -38 -21 -49 0 -11 -2 -33 -3
-50 -2 -26 -4 -27 -11 -10 -4 11 -5 34 -2 50 l5 30 -22 -20 c-37 -33 -64 -96
-37 -87 5 2 5 -18 0 -45 -4 -26 -8 -69 -10 -95 -2 -63 -3 -65 -13 -49 -7 11
-11 4 -16 -25 -13 -77 -17 -83 -31 -49 -14 34 -9 74 13 92 11 8 13 23 8 56 -4
29 -3 47 4 51 13 9 15 76 2 76 -6 0 -17 -10 -25 -21 -9 -14 -22 -20 -34 -17
-30 8 -52 -10 -52 -41 0 -16 9 -64 20 -107 40 -158 18 -402 -39 -430 -42 -21
-56 -8 -86 84 -16 47 -28 107 -29 132 0 25 -4 48 -9 51 -5 3 -2 27 7 53 9 26
16 64 16 85 0 50 20 108 31 90 6 -10 11 -6 18 14 14 35 14 70 2 82 -6 6 -11
30 -13 54 -2 33 -7 45 -20 47 -15 2 -18 -6 -19 -39 0 -38 -1 -40 -10 -18 -7
17 -6 34 3 55 9 24 9 31 -1 34 -6 2 -23 16 -36 30 l-24 26 -9 -25 c-5 -13 -13
-52 -17 -86 -4 -35 -11 -63 -16 -63 -4 0 -15 -12 -23 -27 l-15 -28 -1 37 c0
20 -3 44 -7 54 -4 11 -3 15 5 11 6 -4 13 1 15 10 3 12 5 8 6 -9 0 -15 5 -29
10 -33 12 -7 18 136 8 176 -5 18 -16 33 -27 36 -10 3 -22 12 -25 21 -6 15 -8
15 -16 -3 -6 -15 -8 -8 -8 25 1 57 -21 180 -31 180 -4 0 -15 -15 -23 -32 -9
-18 -18 -32 -21 -30 -12 5 -26 2 -23 -6 3 -10 -39 -63 -46 -56 -3 3 7 28 23
54 18 30 26 56 23 69 -4 17 0 22 26 27 29 6 54 24 32 24 -5 0 -8 15 -7 33 1
17 -2 37 -7 44 -6 8 -3 18 7 28 19 20 20 27 4 44 -11 11 -9 12 8 7 29 -9 49
16 35 43 -6 11 -12 33 -12 48 -2 46 -9 63 -26 63 -12 0 -14 -7 -10 -30 8 -39
-14 -31 -30 11 -7 17 -21 33 -31 36 -18 4 -19 9 -10 40 8 29 7 39 -7 52 -15
15 -16 13 -10 -20 7 -35 6 -36 -19 -32 -21 4 -25 2 -20 -11 3 -9 1 -16 -5 -16
-7 0 -9 14 -6 39 3 29 1 41 -10 45 -8 3 -15 15 -15 26 0 18 -3 19 -21 10 -26
-14 -27 -12 -18 25 4 17 7 22 8 12 0 -10 7 -17 14 -14 13 5 14 116 0 126 -4 3
-9 14 -11 25 -3 14 1 17 12 13 12 -5 16 0 16 18 0 13 -5 27 -10 30 -10 6 -3
54 10 69 5 4 11 -2 15 -15 10 -32 12 -130 3 -135 -4 -3 -8 -28 -8 -55 0 -44 3
-51 25 -59 27 -10 33 -38 13 -58 -6 -6 -9 -15 -5 -18 3 -4 14 7 24 25 10 17
26 31 36 31 17 0 18 -4 23 -73 1 -26 10 -45 28 -62 l25 -23 -6 30 c-5 25 -3
29 8 23 9 -6 9 -2 -2 11 -39 45 -77 156 -48 139 7 -5 8 7 3 41 -6 41 -5 46 9
41 9 -3 18 -1 21 6 3 7 3 -6 -1 -27 -5 -31 -2 -42 12 -52 14 -11 16 -16 6 -28
-12 -14 -7 -76 7 -101 13 -22 19 49 10 112 -5 38 -10 79 -9 93 1 32 -28 110
-40 110 -6 0 -7 5 -4 10 4 6 11 8 16 5 5 -4 9 3 9 14 0 25 -18 37 -33 22 -17
-17 -26 -13 -20 9 4 15 0 20 -13 20 -38 0 -47 -15 -40 -65 7 -45 8 -46 37 -40
41 9 37 -11 -6 -26 -19 -7 -35 -20 -35 -29 0 -8 -7 -24 -15 -34 -13 -17 -14
-14 -9 35 3 30 2 75 -1 100 -6 42 -9 47 -32 47 -17 0 -27 -7 -30 -19 -3 -11
-12 -19 -19 -19 -8 0 -14 -9 -14 -19 0 -12 -7 -18 -17 -17 -14 1 -17 -6 -15
-32 1 -19 -2 -31 -7 -27 -10 6 -31 -54 -31 -88 0 -14 -4 -16 -19 -7 -21 11
-37 50 -47 118 -4 23 -10 42 -15 42 -5 0 -9 -5 -9 -11 0 -5 -4 -8 -9 -4 -10 6
-51 -41 -51 -59 0 -6 -9 -20 -21 -29 -13 -12 -18 -24 -14 -35 14 -33 26 -96
21 -109 -8 -20 -46 6 -46 31 0 18 -1 18 -18 3 -10 -10 -26 -17 -35 -17 -9 0
-24 -16 -33 -35 -15 -32 -20 -35 -45 -30 -35 8 -47 -12 -28 -46 l12 -23 21 25
c12 13 30 31 41 39 12 8 8 1 -8 -16 -23 -25 -25 -33 -14 -42 7 -6 22 -9 33 -6
19 5 23 -2 37 -63 10 -37 17 -85 17 -105 0 -20 4 -39 8 -42 15 -9 4 -176 -13
-202 -8 -13 -15 -31 -15 -41 0 -23 -35 -54 -46 -43 -5 5 -18 2 -29 -6 -13 -10
-16 -17 -9 -22 17 -11 25 -50 31 -146 5 -84 -8 -166 -27 -166 -4 0 -10 -9 -13
-21 -5 -17 -8 -18 -24 -8 -31 19 -52 66 -59 134 -6 62 -7 63 -39 69 -18 4 -38
13 -45 21 -17 21 -34 19 -56 -6 -17 -18 -19 -35 -17 -131 1 -86 -2 -116 -14
-135 -14 -21 -17 -22 -33 -8 -15 14 -18 13 -29 -11 -8 -18 -16 -24 -28 -20 -9
4 -25 -1 -36 -11 -15 -13 -21 -15 -24 -5 -3 6 -13 12 -22 12 -27 0 -81 91 -90
152 -6 35 -16 58 -31 70 -28 23 -53 103 -45 146 3 18 16 53 29 76 19 36 23 57
21 120 -1 41 2 73 5 71 9 -5 24 30 39 89 9 36 8 41 -19 66 -27 25 -43 59 -22
46 4 -2 6 11 4 30 -2 18 -8 32 -12 29 -5 -3 -6 -15 -3 -28 5 -21 5 -21 -9 -3
-14 18 -19 18 -47 6 -23 -9 -34 -21 -38 -42 -3 -15 -9 -31 -14 -33 -13 -9 -22
16 -10 28 6 6 11 18 11 26 -1 11 -8 7 -25 -12 -21 -24 -25 -38 -25 -93 0 -35
4 -64 9 -64 5 0 8 -38 7 -84 0 -47 -3 -84 -6 -84 -43 3 -56 -5 -72 -42 -9 -22
-23 -40 -31 -40 -8 0 -20 -14 -26 -31 -8 -22 -15 -29 -26 -25 -9 3 -24 1 -34
-5 -28 -18 -87 26 -103 76 -10 29 -19 41 -36 43 -54 8 -78 106 -46 193 17 50
11 199 -9 199 -6 0 -3 6 7 13 14 10 20 35 27 97 8 83 8 84 58 134 56 57 65 90
31 121 -14 13 -20 31 -20 60 0 27 7 51 20 68 11 14 20 29 20 34 0 5 14 22 30
38 17 16 30 37 30 47 0 26 -18 22 -23 -4 l-4 -23 -2 22 c-1 25 34 51 42 30 3
-9 8 -9 21 2 14 12 21 12 41 1 22 -12 27 -11 40 6 8 10 15 30 15 44 l0 24 16
-22 c20 -29 26 -28 47 9 10 18 20 29 24 26 3 -4 1 -12 -4 -19 -6 -7 -14 -27
-17 -45 -4 -17 -14 -34 -22 -37 -16 -6 -19 -42 -4 -51 6 -3 10 -3 10 2 0 4 10
19 21 33 l20 25 -6 -23 c-6 -21 -4 -23 15 -17 16 5 21 3 18 -6 -3 -8 -14 -15
-25 -17 -25 -4 -40 -32 -18 -32 8 0 15 -5 15 -11 0 -6 -7 -9 -15 -5 -19 7 -19
7 4 -40 11 -21 15 -41 10 -45 -5 -3 -10 -17 -11 -32 -1 -15 -6 -27 -10 -27 -4
0 -8 -4 -8 -10 0 -5 7 -10 15 -10 8 0 15 7 15 15 0 7 7 18 16 23 16 9 22 60
10 80 -5 8 -1 10 11 5 15 -5 16 -4 7 8 -15 19 -24 59 -14 59 4 0 13 13 20 29
9 23 9 38 0 66 -7 21 -10 52 -7 71 5 31 1 39 -46 84 -29 27 -60 50 -70 50 -9
0 -26 -15 -36 -32 -25 -42 -51 -68 -69 -68 -23 0 -130 100 -141 132 -6 17 -11
66 -11 109 0 57 -4 82 -16 93 -18 19 -28 20 -56 5 -24 -13 -141 -39 -174 -39
-38 0 -47 42 -23 108 50 141 45 170 -36 188 -51 12 -95 25 -95 28 0 2 11 31
26 65 32 81 31 154 -3 156 -22 2 -23 -1 -24 -89 0 -60 -3 -84 -9 -71 -5 11 -9
31 -9 43 -1 13 -10 31 -22 40 -22 19 -18 52 7 52 18 0 18 31 0 75 -9 21 -11
37 -5 40 5 4 9 15 9 25 0 26 36 43 76 37 28 -5 34 -3 34 13 0 10 5 20 12 22
10 4 9 15 0 54 -28 109 -32 147 -17 164 23 26 19 73 -7 85 -34 15 -36 59 -4
81 14 9 26 22 26 30 0 7 5 16 12 20 7 5 8 3 3 -6 -5 -7 -7 -56 -6 -109 2 -117
10 -130 66 -107 l38 16 -7 50 c-5 35 -3 50 5 50 7 0 5 10 -6 27 -10 14 -18 44
-19 66 0 31 5 44 27 63 18 15 27 33 27 52 0 21 7 32 25 40 14 6 25 8 25 3 0
-5 11 -12 25 -15 14 -4 25 -11 25 -16 0 -13 -42 -40 -63 -40 -17 0 -17 -1 0
-24 21 -30 40 -35 70 -21 26 11 28 18 12 48 -7 11 -8 22 -3 24 5 2 7 28 6 58
-3 35 0 55 7 55 6 0 11 -22 12 -52 1 -66 12 -108 23 -90 4 7 12 9 18 6 5 -4
21 0 35 7 19 10 28 10 43 1 27 -17 27 -17 29 31 4 77 8 112 15 128 5 12 1 18
-19 21 -29 6 -42 -13 -54 -81 l-6 -34 -14 29 c-8 16 -28 41 -44 55 -22 19 -30
37 -34 71 -6 55 -28 69 -115 73 -45 2 -61 -1 -74 -16 -9 -11 -26 -19 -37 -19
-17 0 -13 -5 16 -27 40 -30 74 -73 59 -73 -18 0 -91 65 -97 85 -8 27 -84 82
-180 129 -28 14 -33 13 -73 -10 -52 -30 -86 -29 -90 5 -2 13 1 28 7 34 21 21
11 33 -41 52 -29 10 -67 27 -83 36 -49 29 -201 79 -241 79 -13 0 -13 -4 1 -30
9 -18 23 -30 35 -30 37 0 67 -22 88 -66 26 -53 28 -96 6 -115 -11 -9 -14 -22
-9 -46 7 -36 -9 -46 -20 -12 -5 14 -12 18 -23 14 -9 -3 -35 4 -58 17 -35 18
-43 28 -48 59 -3 21 1 58 9 87 14 46 14 54 -2 89 -10 21 -22 41 -28 45 -16 12
-58 8 -85 -7z m-215 -115 c3 -5 -1 -10 -9 -10 -9 0 -16 5 -16 10 0 6 4 10 9
10 6 0 13 -4 16 -10z m-99 -19 c5 -6 29 -14 54 -20 36 -8 46 -7 53 5 4 7 20
14 34 14 21 0 24 -2 13 -15 -7 -8 -21 -15 -32 -15 -17 0 -19 -5 -14 -25 5 -18
2 -27 -9 -31 -20 -8 -11 -88 17 -153 l19 -44 28 29 c22 21 27 32 19 42 -15 18
0 28 22 15 13 -9 28 -9 52 -3 49 15 108 12 164 -6 63 -21 82 -38 107 -94 11
-25 26 -50 34 -55 15 -11 42 -113 42 -160 1 -56 -13 -62 -54 -22 -32 31 -35
38 -21 43 16 6 16 8 0 25 -9 11 -21 19 -26 19 -19 0 -91 -55 -99 -77 -7 -19
-15 -22 -55 -21 -40 0 -47 4 -55 27 -6 16 -25 33 -49 44 -21 10 -49 29 -62 42
-27 29 -38 31 -38 10 0 -16 -71 -54 -102 -55 -26 0 -83 37 -96 62 -53 103 -58
322 -7 342 10 3 15 19 15 46 0 32 4 40 18 40 10 0 22 -4 28 -9z m700 -40 c26
-16 30 -24 26 -50 -4 -26 -1 -31 16 -31 12 0 27 -9 35 -20 14 -21 15 -21 45 5
32 27 42 31 42 15 0 -10 -33 -51 -82 -103 l-27 -28 -21 21 c-21 21 -27 55 -10
65 17 10 11 25 -10 25 -11 0 -30 -11 -42 -25 -12 -14 -28 -25 -35 -25 -19 0
14 57 45 77 31 21 28 28 -18 42 -36 11 -39 14 -27 31 15 25 24 25 63 1z m328
-103 c4 -18 10 -68 13 -110 6 -72 8 -78 28 -78 40 0 43 -53 4 -65 -30 -10 -51
13 -44 47 4 17 2 28 -4 28 -11 0 -18 -26 -19 -77 l-1 -33 74 0 c66 0 76 2 86
22 11 20 8 26 -27 56 -39 34 -39 34 -6 15 19 -10 48 -31 65 -46 27 -24 29 -27
10 -22 -16 5 -23 2 -23 -8 0 -9 6 -18 13 -20 7 -4 6 -6 -4 -6 -9 -1 -24 -11
-33 -23 -15 -21 -16 -22 -14 -3 3 18 -4 20 -62 23 -36 2 -88 1 -117 -3 l-52
-6 39 -38 c22 -21 40 -46 40 -55 0 -32 -31 -77 -60 -88 -19 -6 -27 -14 -23
-24 9 -24 -17 -74 -38 -74 -14 0 -21 -9 -26 -30 -3 -17 -10 -33 -16 -37 -6 -4
-7 7 -3 29 5 27 3 37 -8 41 -26 10 -37 75 -25 142 16 87 28 108 73 120 l38 11
-27 18 c-24 16 -27 22 -21 57 3 21 3 39 -2 39 -5 0 -23 -20 -42 -45 -40 -53
-58 -50 -30 5 26 51 25 56 -7 69 -25 9 -24 9 12 5 30 -4 44 -2 54 10 19 22 34
20 26 -4 -4 -11 -2 -20 4 -20 15 0 14 87 -1 96 -6 4 -21 -5 -35 -22 -17 -21
-23 -25 -23 -12 0 9 5 20 10 23 6 3 10 19 10 36 0 22 5 29 19 29 11 0 23 5 26
10 9 14 23 12 22 -2 -2 -55 3 -69 23 -63 25 8 74 -38 66 -63 -3 -9 -2 -23 3
-31 22 -35 30 56 15 167 -7 50 10 58 20 10z m-59 -38 c-3 -5 -10 -10 -16 -10
-5 0 -9 5 -9 10 0 6 7 10 16 10 8 0 12 -4 9 -10z m-404 -81 c8 -15 8 -24 0
-32 -13 -13 -18 -9 -26 26 -9 33 9 37 26 6z m-1284 -41 c35 -39 85 -168 79
-206 -3 -20 2 -49 13 -75 21 -51 44 -138 37 -144 -7 -8 -111 251 -120 301 -2
12 -16 47 -30 79 -14 32 -26 60 -26 62 0 13 29 2 47 -17z m573 12 c0 -5 -4
-10 -10 -10 -5 0 -10 5 -10 10 0 6 5 10 10 10 6 0 10 -4 10 -10z m1510 -26 c0
-8 -5 -12 -11 -9 -6 4 -17 -1 -24 -11 -12 -16 -14 -16 -15 -3 0 18 19 39 37
39 7 0 13 -7 13 -16z m-714 -25 c8 -14 -14 -29 -33 -22 -7 3 -13 11 -13 19 0
17 36 19 46 3z m-1447 -35 c3 -16 1 -17 -13 -5 -19 16 -21 34 -3 29 6 -3 14
-13 16 -24z m451 -20 c11 -25 20 -51 20 -57 -1 -14 -34 47 -44 81 -13 39 4 23
24 -24z m125 21 c0 -22 -31 -33 -47 -17 -17 17 -1 44 24 40 15 -2 23 -10 23
-23z m-582 -29 c13 13 54 -7 77 -38 18 -25 24 -44 22 -78 -1 -26 8 -77 23
-120 13 -41 26 -86 28 -100 1 -14 9 -35 16 -48 18 -33 11 -67 -14 -67 -17 0
-20 6 -19 38 1 30 -2 37 -18 37 -20 0 -70 71 -88 125 -9 27 -15 31 -35 27 -36
-6 -51 36 -36 102 6 27 8 54 3 60 -5 6 -12 20 -15 31 -7 19 -6 19 7 3 27 -36
30 -20 8 42 -4 12 -1 11 15 -3 11 -9 22 -14 26 -11z m611 -28 c5 -21 3 -28 -8
-28 -8 0 -18 -5 -22 -11 -9 -16 36 -182 54 -196 14 -12 14 -13 0 -13 -22 0
-23 3 -69 136 -43 129 -47 150 -20 115 l18 -24 18 27 c20 30 20 30 29 -6z
m842 -5 c-10 -10 -19 5 -10 18 6 11 8 11 12 0 2 -7 1 -15 -2 -18z m98 -33 c7
-7 2 -10 -14 -10 -39 0 -70 11 -64 22 7 11 63 3 78 -12z m-50 -41 c41 -24 45
-36 13 -41 -21 -3 -22 -5 -14 -66 7 -53 12 -62 26 -57 24 7 48 -15 54 -52 5
-25 3 -31 -7 -27 -20 8 -29 -12 -16 -36 18 -33 -12 -73 -48 -66 -45 10 -51 -2
-43 -74 4 -36 5 -76 1 -90 -6 -21 -8 -17 -15 25 -4 28 -11 55 -15 60 -5 6 -5
44 -1 85 5 41 9 67 10 58 1 -20 16 -24 27 -6 4 6 8 31 9 55 1 43 1 44 -29 41
-17 -2 -31 2 -33 10 -3 8 7 12 32 12 34 0 36 2 31 28 -2 15 -7 44 -11 65 -4
28 -13 40 -31 47 -23 9 -31 29 -17 43 12 13 42 7 77 -14z m-704 -56 c-12 -32
-26 -63 -31 -70 -7 -7 -4 -31 7 -70 15 -50 18 -55 24 -33 13 48 63 -212 58
-300 l-3 -55 -17 55 c-9 30 -19 67 -22 81 -3 16 -15 29 -27 32 -18 5 -20 11
-14 36 7 34 2 38 -50 43 -16 2 -33 10 -37 18 -10 23 -9 70 2 70 6 0 10 26 10
58 0 36 6 66 15 80 11 15 14 34 10 59 -4 32 -4 34 5 15 l10 -24 35 38 c19 20
38 34 41 31 3 -3 -4 -32 -16 -64z m187 50 c4 3 9 -12 9 -34 1 -27 -3 -39 -12
-39 -17 0 -18 -17 -4 -57 9 -24 15 -29 35 -25 18 3 25 12 27 36 3 27 5 24 15
-24 28 -125 46 -280 37 -311 -12 -40 -25 -40 -46 0 -9 18 -19 28 -22 23 -3 -5
-19 -9 -36 -10 -25 -1 -30 3 -30 22 0 12 5 27 11 33 16 16 -20 315 -38 309
-17 -7 -17 -3 8 51 14 31 23 42 29 33 4 -7 12 -10 17 -7z m-474 -33 c3 -12 0
-20 -7 -20 -6 0 -12 9 -12 20 0 11 3 20 7 20 4 0 9 -9 12 -20z m588 -137 c7
-43 13 -79 14 -81 1 -1 15 4 31 13 41 21 57 19 87 -13 28 -29 48 -92 29 -92
-6 0 -13 -9 -17 -19 -3 -10 -19 -24 -34 -31 -24 -10 -35 -9 -65 5 -30 14 -36
23 -40 58 -3 23 -5 49 -4 57 0 8 -9 68 -21 132 -11 64 -21 121 -20 125 2 18
29 -83 40 -154z m-441 49 c0 -26 -25 -5 -28 24 -2 28 -2 28 13 10 8 -11 15
-26 15 -34z m-953 6 c-3 -7 -5 -2 -5 12 0 14 2 19 5 13 2 -7 2 -19 0 -25z
m1873 22 c0 -5 -4 -10 -10 -10 -5 0 -10 5 -10 10 0 6 5 10 10 10 6 0 10 -4 10
-10z m-1289 -99 c11 -31 27 -80 35 -110 21 -81 15 -189 -12 -198 -8 -3 -15 18
-41 140 -3 16 -12 31 -19 34 -10 4 -13 15 -9 37 3 17 2 60 -3 96 -16 113 6
114 49 1z m1093 83 c24 -9 19 -33 -10 -44 -47 -18 -116 16 -77 39 20 12 63 14
87 5z m-1554 -19 c0 -8 -4 -15 -10 -15 -5 0 -10 7 -10 15 0 8 5 15 10 15 6 0
10 -7 10 -15z m1990 -11 c0 -16 -16 -19 -25 -4 -8 13 4 32 16 25 5 -4 9 -13 9
-21z m-402 -97 c2 -10 -3 -17 -12 -17 -10 0 -16 9 -16 21 0 24 23 21 28 -4z
m-1978 3 c0 -5 -4 -10 -10 -10 -5 0 -10 5 -10 10 0 6 5 10 10 10 6 0 10 -4 10
-10z m919 -77 c12 -45 21 -92 20 -105 -1 -23 -48 153 -49 181 0 28 9 5 29 -76z
m1371 67 c0 -5 -4 -10 -9 -10 -6 0 -13 5 -16 10 -3 6 1 10 9 10 9 0 16 -4 16
-10z m-1316 -21 c-3 -5 -10 -7 -15 -3 -5 3 -7 10 -3 15 3 5 10 7 15 3 5 -3 7
-10 3 -15z m-854 1 c0 -5 -4 -10 -10 -10 -5 0 -10 5 -10 10 0 6 5 10 10 10 6
0 10 -4 10 -10z m433 -22 c6 -18 -11 -48 -27 -48 -20 0 -37 25 -30 44 7 19 50
22 57 4z m1372 2 c-27 -12 -35 -12 -35 0 0 6 12 10 28 9 24 0 25 -1 7 -9z
m-1753 -202 c13 -62 8 -79 -18 -57 -15 12 -16 11 -10 -9 4 -12 3 -22 -1 -22
-10 0 -33 79 -33 108 1 10 6 6 15 -13 18 -39 18 -34 0 58 -8 43 -15 93 -14
110 0 25 6 15 25 -43 13 -41 29 -101 36 -132z m-1087 172 c0 -8 -8 -16 -17
-18 -13 -2 -18 3 -18 18 0 15 5 20 18 18 9 -2 17 -10 17 -18z m1365 -7 c39
-85 70 -257 40 -227 -17 17 -61 150 -67 205 -6 55 6 65 27 22z m1530 -2 c14
-27 2 -53 -23 -49 -29 4 -44 32 -28 52 18 21 38 20 51 -3z m-1370 -33 c24 -52
25 -87 5 -94 -28 -11 -45 16 -45 71 0 46 5 65 17 65 2 0 13 -19 23 -42z m1719
-17 c-4 -9 -15 -38 -23 -66 -15 -48 -15 -49 -11 -10 3 22 8 50 11 62 4 15 1
22 -13 26 -15 4 -14 5 5 6 12 0 22 7 22 14 0 8 3 8 9 -2 5 -8 5 -21 0 -30z
m-144 4 c23 -24 25 -32 23 -113 -1 -48 -3 -70 -5 -49 -4 32 -7 36 -19 26 -8
-6 -14 -24 -14 -40 0 -41 -22 -37 -73 15 -46 46 -61 85 -46 123 24 64 89 82
134 38z m-1465 -5 c0 -5 -4 -10 -10 -10 -5 0 -10 5 -10 10 0 6 5 10 10 10 6 0
10 -4 10 -10z m1520 0 c0 -5 -4 -10 -10 -10 -5 0 -10 5 -10 10 0 6 5 10 10 10
6 0 10 -4 10 -10z m-1957 -47 c8 -21 22 -72 32 -113 10 -41 26 -84 35 -95 19
-20 43 -104 55 -185 3 -25 9 -58 12 -74 3 -18 1 -26 -5 -22 -6 3 -13 30 -17
59 -9 62 -20 87 -40 87 -8 0 -15 1 -15 3 0 34 -68 336 -81 360 -5 9 -5 17 0
17 5 0 15 -17 24 -37z m1562 2 c0 -11 -8 -21 -17 -23 -14 -3 -18 3 -18 23 0
20 4 26 18 23 9 -2 17 -12 17 -23z m-38 -77 c-3 -8 -6 -5 -6 6 -1 11 2 17 5
13 3 -3 4 -12 1 -19z m-116 -31 c44 -33 53 -113 17 -147 -40 -37 -118 -16
-118 32 0 11 -9 22 -20 25 -23 6 -36 41 -21 56 8 8 14 6 24 -7 12 -16 14 -16
26 8 8 14 26 30 40 35 34 12 33 12 52 -2z m-745 -21 c3 -14 4 -33 2 -43 -3
-14 -7 -10 -21 16 -21 42 -21 51 -2 51 8 0 17 -11 21 -24z m1009 -22 c0 -22
-5 -29 -20 -29 -23 0 -32 30 -14 51 18 22 34 11 34 -22z m365 -9 c0 -14 -4
-25 -10 -25 -11 0 -14 33 -3 43 11 11 13 8 13 -18z m-1780 -73 c12 -46 13
-129 1 -136 -31 -20 -83 179 -54 208 11 11 41 -30 53 -72z m90 53 c0 -8 -4
-15 -10 -15 -5 0 -10 7 -10 15 0 8 5 15 10 15 6 0 10 -7 10 -15z m193 -72 c2
-29 1 -53 -4 -53 -10 0 -22 97 -13 112 9 15 11 8 17 -59z m-1947 21 c-5 -13
-10 -14 -18 -6 -6 6 -8 18 -4 28 5 13 10 14 18 6 6 -6 8 -18 4 -28z m84 22 c0
-3 -4 -8 -10 -11 -5 -3 -10 -1 -10 4 0 6 5 11 10 11 6 0 10 -2 10 -4z m40 -78
c9 -55 20 -81 41 -105 35 -41 45 -93 31 -163 -9 -43 -19 -62 -47 -86 -34 -30
-48 -74 -24 -74 12 0 6 -96 -6 -109 -11 -10 -24 23 -32 79 -4 30 -8 58 -9 63
-1 4 -2 14 -3 22 0 8 -7 15 -14 15 -17 0 -47 89 -47 139 0 57 38 124 78 136
28 8 32 13 28 35 -11 55 -18 120 -13 120 3 0 11 -33 17 -72z m844 47 c3 -8 1
-15 -4 -15 -6 0 -10 7 -10 15 0 8 2 15 4 15 2 0 6 -7 10 -15z m816 -107 c0
-33 -4 -48 -13 -48 -9 0 -13 20 -15 68 -2 61 -1 65 13 48 9 -11 15 -41 15 -68z
m78 -26 c16 -87 18 -90 36 -76 16 11 17 17 8 26 -7 7 -12 19 -12 27 0 11 3 12
12 3 9 -9 14 -7 24 6 9 13 16 14 24 6 7 -7 35 -10 74 -7 60 5 64 4 84 -23 12
-16 28 -36 35 -44 8 -8 17 -28 21 -45 4 -16 16 -38 27 -48 14 -13 19 -31 19
-72 0 -30 4 -56 10 -60 5 -3 7 -12 3 -20 -3 -9 2 -26 10 -39 9 -13 14 -32 11
-43 -3 -11 2 -25 10 -32 19 -16 21 -43 4 -40 -21 4 -88 -29 -88 -43 0 -8 -8
-21 -17 -29 -10 -9 -26 -31 -36 -48 -9 -18 -26 -35 -37 -38 -13 -4 -20 -14
-20 -30 0 -13 -4 -21 -10 -18 -5 3 -10 15 -10 26 0 12 -7 19 -20 19 -11 0 -20
-6 -20 -12 0 -9 -2 -10 -8 -2 -4 7 -14 13 -23 15 -29 7 -119 117 -119 147 0
15 -10 46 -22 69 -20 37 -21 46 -10 76 7 18 12 59 12 91 0 42 5 65 20 83 13
17 17 30 11 42 -12 22 -31 151 -30 203 1 55 6 42 27 -70z m187 89 c3 -5 1 -12
-5 -16 -5 -3 -10 1 -10 9 0 18 6 21 15 7z m215 -38 c13 -50 38 -245 45 -353 8
-132 -11 -54 -25 106 -9 91 -18 143 -27 150 -17 14 -30 134 -15 134 6 0 16
-17 22 -37z m-1120 -4 c0 -10 -7 -19 -15 -19 -15 0 -21 31 -9 43 11 10 24 -3
24 -24z m440 0 c0 -10 -4 -19 -10 -19 -5 0 -10 12 -10 26 0 14 4 23 10 19 6
-3 10 -15 10 -26z m-1366 -2 c6 -9 7 -19 3 -23 -9 -9 -37 15 -37 33 0 18 20
12 34 -10z m186 3 c0 -5 9 -10 20 -10 11 0 20 -4 20 -10 0 -11 -6 -12 -37 -4
-22 6 -33 34 -13 34 6 0 10 -4 10 -10z m2244 -33 c-7 -20 -30 -23 -37 -4 -2 6
0 20 5 31 9 16 12 16 24 4 8 -8 12 -22 8 -31z m-916 4 c3 -8 -1 -12 -9 -9 -7
2 -15 10 -17 17 -3 8 1 12 9 9 7 -2 15 -10 17 -17z m1190 7 c26 -26 6 -118
-25 -118 -16 0 -43 36 -43 56 0 57 38 92 68 62z m-2017 -49 l-8 -23 -12 21
c-14 27 -14 36 -1 28 6 -3 10 2 10 12 1 16 1 16 10 1 6 -9 6 -26 1 -39z m689
1 c0 -5 -4 -10 -10 -10 -5 0 -10 5 -10 10 0 6 5 10 10 10 6 0 10 -4 10 -10z
m-1690 -51 c0 -27 20 -34 21 -7 2 35 18 -54 33 -185 11 -96 18 -122 35 -138
22 -21 35 -57 29 -85 -5 -28 -25 -27 -32 1 -10 38 -26 30 -26 -13 0 -45 8 -56
27 -41 10 9 13 8 13 -5 0 -9 -7 -16 -16 -16 -9 0 -14 -7 -12 -17 2 -10 10 -18
18 -18 20 0 30 -42 36 -157 6 -107 -9 -137 -21 -43 -5 47 -9 55 -27 55 -12 0
-18 3 -14 8 4 4 13 7 19 7 5 0 12 6 15 13 2 6 -3 12 -11 12 -11 0 -17 17 -22
64 -6 49 -10 63 -21 59 -17 -6 -18 9 -3 24 8 8 7 17 -5 34 -8 13 -18 43 -22
67 -6 42 -18 54 -27 30 -3 -8 -6 -6 -6 5 -1 11 6 17 19 17 11 0 20 -6 20 -14
0 -8 5 -18 12 -22 8 -5 9 8 4 52 -19 147 -21 172 -14 168 9 -6 10 31 2 64 -4
14 -14 22 -28 23 -11 0 -15 3 -8 6 9 4 7 13 -8 39 -12 18 -18 38 -15 44 9 15
35 -7 35 -31z m1500 16 c0 -15 -18 -30 -27 -22 -2 3 -2 15 2 26 7 23 25 19 25
-4z m301 15 c14 -8 19 -21 19 -53 0 -69 -42 -91 -78 -39 -16 22 -17 32 -8 52
24 53 32 58 67 40z m-597 -19 c35 -38 14 -136 -31 -147 -57 -15 -93 69 -58
136 18 36 62 41 89 11z m-1304 -41 c-11 -27 -25 -59 -32 -70 -11 -17 -10 -22
2 -30 12 -8 12 -10 -3 -15 -22 -9 -47 17 -46 47 l0 23 10 -24 c10 -24 10 -24
29 12 11 20 20 44 20 52 0 18 22 55 32 55 4 0 -1 -22 -12 -50z m3631 30 c29 0
23 -25 -16 -59 -19 -17 -35 -35 -35 -40 0 -19 -21 -22 -45 -7 -14 9 -25 26
-25 38 0 27 27 58 50 58 10 0 24 7 31 16 8 10 15 12 17 5 2 -6 12 -11 23 -11z
m53 -21 c-3 -5 -10 -7 -15 -3 -5 3 -7 10 -3 15 3 5 10 7 15 3 5 -3 7 -10 3
-15z m-2245 -133 c12 -65 21 -132 21 -147 0 -51 -18 -31 -29 34 -13 76 -26
244 -18 237 3 -3 15 -59 26 -124z m371 93 c0 -11 -4 -17 -10 -14 -5 3 -10 15
-10 26 0 11 5 17 10 14 6 -3 10 -15 10 -26z m1642 4 c29 -26 17 -93 -17 -93
-30 0 -47 74 -23 98 15 15 18 15 40 -5z m-2942 -96 c0 -19 -4 -27 -12 -25 -15
5 -48 89 -40 102 9 16 52 -47 52 -77z m263 69 c3 -8 -1 -17 -9 -20 -9 -4 -14
1 -14 14 0 23 15 27 23 6z m-726 -38 c-3 -8 -6 -5 -6 6 -1 11 2 17 5 13 3 -3
4 -12 1 -19z m1903 -8 c0 -11 -7 -20 -15 -20 -8 0 -15 9 -15 20 0 11 7 20 15
20 8 0 15 -9 15 -20z m988 -15 c16 -35 15 -60 -4 -96 -38 -74 -113 7 -79 87
11 28 19 34 43 34 21 0 32 -7 40 -25z m308 -9 c9 -37 1 -61 -20 -61 -29 0 -42
28 -28 59 15 33 40 34 48 2z m-536 -72 c20 -58 -7 -144 -45 -144 -18 0 -45 34
-55 71 -13 45 3 103 32 116 32 14 54 0 68 -43z m-1940 3 c0 -5 -7 -4 -15 3 -8
7 -15 20 -15 29 1 13 3 13 15 -3 8 -11 15 -24 15 -29z m735 13 c-5 -8 -11 -8
-17 -2 -6 6 -7 16 -3 22 5 8 11 8 17 2 6 -6 7 -16 3 -22z m2155 2 c0 -34 -7
-43 -26 -35 -14 5 -19 44 -7 56 16 16 33 5 33 -21z m-2713 -4 c-3 -8 -6 -5 -6
6 -1 11 2 17 5 13 3 -3 4 -12 1 -19z m2401 -10 c31 -34 44 -77 37 -123 -8 -53
-37 -125 -51 -125 -15 0 -59 49 -78 87 -51 101 24 232 92 161z m-803 -8 c3 -5
1 -10 -4 -10 -6 0 -11 5 -11 10 0 6 2 10 4 10 3 0 8 -4 11 -10z m-2161 -66
c10 -59 10 -58 32 -46 42 24 93 -83 65 -136 -7 -12 -8 -43 -5 -80 6 -52 9 -59
26 -54 11 2 21 16 25 33 5 24 8 26 24 16 11 -7 22 -21 26 -32 3 -11 11 -24 18
-30 23 -19 38 -92 31 -146 -12 -92 -50 -143 -98 -134 -15 2 -30 -1 -34 -7 -12
-19 -26 38 -33 130 -4 51 -2 83 4 85 14 5 8 129 -7 138 -6 4 -8 14 -5 22 4 11
1 14 -8 11 -45 -18 -79 57 -90 200 -6 73 -5 88 6 84 8 -3 18 -27 23 -54z m156
13 c0 -18 -2 -19 -10 -7 -13 20 -13 43 0 35 6 -3 10 -16 10 -28z m270 -11 c0
-6 -7 -2 -15 8 -8 11 -15 25 -15 30 0 6 7 2 15 -8 8 -11 15 -25 15 -30z m2988
-13 c-4 -34 -28 -43 -28 -10 0 25 7 37 22 37 5 0 8 -12 6 -27z m-888 -44 c0
-10 -7 -19 -15 -19 -15 0 -21 31 -9 43 11 10 24 -3 24 -24z m-2336 -21 c3 -13
6 -40 6 -61 0 -51 -23 -45 -31 8 -10 61 11 105 25 53z m300 -17 c8 -13 -4 -42
-15 -35 -12 7 -12 44 0 44 6 0 12 -4 15 -9z m-100 -97 c4 -50 3 -59 -3 -34
-14 58 -22 137 -11 119 5 -8 11 -47 14 -85z m140 10 c8 -22 -4 -66 -18 -61
-18 6 -20 77 -3 77 8 0 18 -7 21 -16z m3056 -47 c0 -7 -7 -22 -15 -33 -14 -18
-14 -18 -15 7 0 14 3 29 7 32 11 11 23 8 23 -6z m-1520 -13 c0 -8 -4 -12 -10
-9 -5 3 -10 10 -10 16 0 5 5 9 10 9 6 0 10 -7 10 -16z m1209 -38 c-9 -8 -10
-7 -5 7 3 10 7 26 7 35 1 9 4 6 6 -7 3 -13 -1 -28 -8 -35z m-3361 18 c-4 -3
-19 -4 -35 -2 l-28 4 25 11 c23 10 51 1 38 -13z m4081 -48 c-9 -8 -10 -7 -5 7
3 10 7 26 7 35 1 9 4 6 6 -7 3 -13 -1 -28 -8 -35z m-575 -13 c-15 -51 -34 -79
-34 -51 0 9 5 20 11 23 6 4 8 14 4 22 -4 13 19 53 31 53 1 0 -4 -21 -12 -47z
m193 -16 c5 -39 8 -43 28 -39 17 3 25 -2 31 -20 18 -54 -9 -144 -40 -132 -27
10 -41 62 -27 101 8 21 9 38 3 46 -16 21 -31 77 -25 93 9 25 25 0 30 -49z
m185 -22 l-8 -70 -9 50 c-8 50 -8 68 1 94 3 9 8 11 14 5 5 -5 6 -39 2 -79z
m-2032 66 c0 -6 -4 -13 -10 -16 -5 -3 -10 1 -10 9 0 9 5 16 10 16 6 0 10 -4
10 -9z m1980 -21 c0 -22 -16 -35 -25 -20 -9 14 4 52 16 45 5 -4 9 -15 9 -25z
m220 6 c0 -14 -4 -27 -9 -30 -10 -7 -20 23 -14 42 8 21 23 13 23 -12z m70 -7
c0 -6 -4 -7 -10 -4 -5 3 -10 11 -10 16 0 6 5 7 10 4 6 -3 10 -11 10 -16z
m-709 -36 c-8 -14 -11 -15 -11 -3 0 12 -4 10 -15 -4 -15 -19 -15 -19 -15 3 0
12 4 20 9 16 6 -3 16 1 23 9 16 18 23 3 9 -21z m46 -15 c-3 -7 -5 -2 -5 12 0
14 2 19 5 13 2 -7 2 -19 0 -25z m-1520 -10 c-3 -8 -6 -5 -6 6 -1 11 2 17 5 13
3 -3 4 -12 1 -19z m1613 0 c0 -16 -3 -19 -11 -11 -6 6 -8 16 -5 22 11 17 16
13 16 -11z m428 0 c-5 -15 -23 -11 -26 6 -2 11 2 14 13 10 9 -4 14 -11 13 -16z
m-3929 -15 c0 -25 -1 -25 -8 -8 -5 11 -7 23 -4 28 8 14 13 7 12 -20z m-179
-27 c-16 -43 -12 -66 13 -76 l22 -9 -23 0 c-20 -1 -23 -6 -20 -28 3 -25 0 -28
-32 -31 -24 -2 -31 0 -21 7 21 14 26 81 6 81 -11 0 -14 -6 -9 -24 7 -29 -7
-40 -31 -22 -15 11 -16 15 -4 35 8 12 26 25 42 28 20 4 27 11 27 29 0 13 8 27
17 33 23 13 26 9 13 -23z m3573 -1 c-3 -20 -1 -35 4 -35 6 0 22 -9 37 -21 18
-14 24 -25 17 -33 -5 -6 -12 -29 -17 -50 -7 -38 -6 -39 17 -33 22 5 22 5 7 -7
-20 -15 -24 -36 -7 -36 6 0 4 -6 -4 -14 -8 -8 -17 -43 -21 -77 -3 -34 -13 -70
-21 -79 -20 -23 -19 -37 5 -43 16 -4 20 -14 20 -45 0 -68 -35 -68 -50 0 l-7
33 -11 -28 c-7 -15 -17 -26 -24 -25 -8 2 -12 -6 -11 -22 1 -14 0 -18 -3 -7 -3
9 -12 17 -20 17 -8 0 -19 11 -24 25 -5 14 -20 29 -34 34 -13 5 -26 21 -30 35
-4 17 -13 26 -26 26 -10 0 -22 9 -25 22 -10 31 -8 94 4 117 6 11 11 28 11 38
0 16 23 82 56 161 9 20 21 32 33 32 11 0 23 5 26 11 5 7 13 5 26 -7 23 -20 45
-13 61 21 15 34 18 32 11 -10z m174 -60 c-12 -33 -18 -39 -42 -40 -35 0 -54
42 -36 82 11 24 12 24 36 9 25 -16 26 -16 37 11 l12 28 3 -25 c2 -14 -2 -43
-10 -65z m-329 64 c-2 -6 -8 -10 -13 -10 -5 0 -11 4 -13 10 -2 6 4 11 13 11 9
0 15 -5 13 -11z m-3508 -3 c0 -3 -4 -8 -10 -11 -5 -3 -10 -1 -10 4 0 6 5 11
10 11 6 0 10 -2 10 -4z m2010 -11 c0 -8 -4 -15 -10 -15 -5 0 -7 7 -4 15 4 8 8
15 10 15 2 0 4 -7 4 -15z m1690 5 c0 -5 -5 -10 -11 -10 -5 0 -7 5 -4 10 3 6 8
10 11 10 2 0 4 -4 4 -10z m317 -22 c-3 -7 -5 -2 -5 12 0 14 2 19 5 13 2 -7 2
-19 0 -25z m-3177 2 c0 -5 -4 -10 -10 -10 -5 0 -10 5 -10 10 0 6 5 10 10 10 6
0 10 -4 10 -10z m-572 -48 c3 -9 -2 -13 -14 -10 -9 1 -19 9 -22 16 -3 9 2 13
14 10 9 -1 19 -9 22 -16z m3617 -9 c-8 -35 -13 -39 -26 -26 -8 8 -7 17 3 32
18 30 31 26 23 -6z m-3915 -13 c0 -5 -4 -10 -10 -10 -5 0 -10 5 -10 10 0 6 5
10 10 10 6 0 10 -4 10 -10z m2200 -25 c0 -14 -4 -25 -10 -25 -5 0 -10 11 -10
25 0 14 5 25 10 25 6 0 10 -11 10 -25z m-150 -6 c0 -5 -4 -9 -10 -9 -5 0 -10
7 -10 16 0 8 5 12 10 9 6 -3 10 -10 10 -16z m1817 -21 c-3 -8 -6 -5 -6 6 -1
11 2 17 5 13 3 -3 4 -12 1 -19z m-3558 -60 c13 -56 14 -78 2 -78 -13 0 -18 18
-26 86 -8 69 6 64 24 -8z m681 21 c0 -25 3 -29 19 -24 31 10 40 -21 34 -120
-6 -95 -6 -128 -1 -160 2 -16 -2 -19 -20 -18 -12 2 -25 -4 -28 -12 -5 -11 -10
-12 -26 -2 -62 36 -78 72 -83 182 -3 72 4 92 42 131 16 16 32 37 36 47 10 26
27 11 27 -24z m3045 31 c3 -5 2 -10 -4 -10 -5 0 -13 5 -16 10 -3 6 -2 10 4 10
5 0 13 -4 16 -10z m-3854 -10 c24 -14 24 -26 0 -33 -18 -4 -31 10 -31 34 0 12
7 11 31 -1z m3819 -15 c0 -8 -9 -23 -20 -33 -14 -13 -18 -25 -14 -38 9 -24 0
-16 -16 15 -8 15 -8 21 -1 17 7 -5 11 2 11 17 0 13 3 27 7 30 12 12 33 7 33
-8z m-3880 -45 c13 -8 13 -10 -2 -10 -9 0 -20 5 -23 10 -8 13 5 13 25 0z
m-111 -43 c0 -27 -2 -29 -9 -12 -12 28 -12 57 0 50 6 -3 10 -21 9 -38z m67 7
c-5 -13 -10 -14 -18 -6 -6 6 -8 18 -4 28 5 13 10 14 18 6 6 -6 8 -18 4 -28z
m3934 24 c0 -7 3 -24 6 -38 5 -24 5 -24 -10 -6 -18 22 -21 56 -6 56 6 0 10 -6
10 -12z m60 -25 c0 -7 -4 -13 -10 -13 -5 0 -10 12 -10 28 0 21 2 24 10 12 5
-8 10 -21 10 -27z m1242 -10 c1 -16 1 -37 1 -48 0 -11 5 -23 11 -27 8 -6 7 -8
-1 -8 -7 0 -13 -8 -13 -17 0 -15 -2 -16 -10 -3 -5 8 -15 15 -21 15 -16 0 -35
55 -22 64 6 3 15 16 22 29 16 30 31 28 33 -5z m325 -50 c-3 -10 -5 -4 -5 12 0
17 2 24 5 18 2 -7 2 -21 0 -30z m-5387 -15 c0 -14 -23 -9 -42 9 -28 26 -21 36
12 16 17 -9 30 -21 30 -25z m3696 5 c-4 -4 -11 -1 -16 7 -16 25 -11 35 7 17 9
-9 13 -20 9 -24z m149 15 c-10 -32 -45 -88 -55 -88 -9 0 -20 25 -20 44 0 23
41 66 61 66 16 0 19 -4 14 -22z m-690 -8 c-3 -5 -11 -10 -16 -10 -6 0 -7 5 -4
10 3 6 11 10 16 10 6 0 7 -4 4 -10z m2029 -19 c8 -13 -4 -42 -15 -35 -12 7
-12 44 0 44 6 0 12 -4 15 -9z m33 -28 c-3 -10 -5 -4 -5 12 0 17 2 24 5 18 2
-7 2 -21 0 -30z m-5403 17 c19 -7 26 -17 26 -35 0 -36 -24 -31 -49 10 -22 37
-18 41 23 25z m806 0 c0 -5 -2 -10 -4 -10 -3 0 -8 5 -11 10 -3 6 -1 10 4 10 6
0 11 -4 11 -10z m-700 -22 c0 -6 -6 -5 -15 2 -8 7 -15 14 -15 16 0 2 7 1 15
-2 8 -4 15 -11 15 -16z m686 -12 c3 -14 0 -42 -6 -62 -12 -35 -14 -36 -26 -19
-8 10 -14 38 -14 62 0 36 3 43 20 43 12 0 22 -9 26 -24z m2514 4 c0 -11 -4
-20 -10 -20 -5 0 -10 9 -10 20 0 11 5 20 10 20 6 0 10 -9 10 -20z m-1419 -12
c7 -13 18 -29 26 -36 7 -7 13 -20 13 -28 0 -8 9 -27 19 -42 14 -19 23 -56 29
-122 8 -79 14 -97 31 -108 28 -19 26 -33 -9 -62 -16 -14 -30 -34 -30 -45 0
-12 -7 -30 -15 -41 -8 -10 -15 -31 -15 -45 0 -15 -10 -39 -22 -55 -13 -15 -21
-37 -20 -47 2 -12 -1 -17 -7 -13 -6 4 -11 15 -11 24 0 12 -3 13 -12 4 -7 -7
-20 -12 -30 -12 -24 0 -98 96 -98 126 0 14 -6 37 -14 52 -14 29 -18 244 -3
258 4 4 7 26 7 49 0 45 41 120 81 149 33 23 66 20 80 -6z m3319 -47 c0 -25
-18 1 -25 34 l-6 30 15 -25 c8 -14 15 -32 16 -39z m-3575 29 c3 -5 2 -10 -4
-10 -5 0 -13 5 -16 10 -3 6 -2 10 4 10 5 0 13 -4 16 -10z m112 -22 c-3 -8 -6
-5 -6 6 -1 11 2 17 5 13 3 -3 4 -12 1 -19z m3803 12 c0 -5 -4 -10 -10 -10 -5
0 -10 5 -10 10 0 6 5 10 10 10 6 0 10 -4 10 -10z m-271 -40 c0 -10 -3 -8 -9 5
-12 27 -12 43 0 25 5 -8 9 -22 9 -30z m-5123 -38 c-7 -6 -30 20 -47 53 -6 11
4 5 21 -13 17 -19 29 -37 26 -40z m5088 4 c-15 -40 -41 -3 -29 42 l7 27 14
-27 c8 -15 11 -34 8 -42z m120 48 c3 -8 2 -12 -4 -9 -6 3 -10 10 -10 16 0 14
7 11 14 -7z m-5455 -43 c23 -54 27 -76 11 -66 -5 3 -10 15 -10 25 0 10 -11 32
-25 48 -29 34 -31 42 -11 42 7 0 23 -22 35 -49z m4002 22 c13 -16 12 -17 -3
-4 -10 7 -18 15 -18 17 0 8 8 3 21 -13z m-3941 -24 c0 -6 -4 -7 -10 -4 -5 3
-10 11 -10 16 0 6 5 7 10 4 6 -3 10 -11 10 -16z m3886 4 c-3 -10 -10 -40 -15
-66 -10 -56 -27 -80 -40 -58 -8 12 15 101 34 131 10 17 27 11 21 -7z m-3748
-37 c2 -28 0 -37 -10 -34 -7 3 -14 22 -16 42 -2 28 0 37 10 34 7 -3 14 -22 16
-42z m5086 18 c9 -3 16 -12 16 -20 0 -8 6 -14 13 -14 18 0 43 -29 52 -60 4
-14 16 -33 26 -43 18 -17 19 -17 19 1 0 11 7 25 15 32 8 7 15 22 15 34 0 17 2
18 10 6 8 -12 10 -12 10 5 1 14 6 10 17 -15 34 -78 42 -100 47 -136 l6 -39
-21 44 -21 45 -13 -39 c-15 -43 -45 -80 -45 -55 0 17 -37 44 -44 32 -2 -4 -9
-26 -16 -50 -11 -41 -13 -43 -41 -37 -23 5 -29 3 -29 -10 0 -9 5 -13 10 -10
17 11 11 -6 -25 -70 -32 -58 -65 -98 -65 -79 0 22 28 81 50 105 29 32 30 60 6
139 -17 56 -14 132 6 157 12 15 0 76 -13 67 -5 -3 -9 0 -9 5 0 13 3 13 24 5z
m-5154 -85 c10 -22 10 -33 2 -41 -12 -12 -22 6 -36 66 -6 25 -5 28 7 17 8 -6
20 -25 27 -42z m-591 29 c-1 -7 -1 -24 0 -38 1 -20 3 -22 12 -10 8 12 9 8 7
-15 -2 -16 -6 -32 -9 -35 -4 -3 -14 -21 -22 -40 l-15 -35 -1 38 c-1 20 4 37 9
37 6 0 10 7 10 15 0 18 -12 19 -28 3 -10 -10 -15 -10 -21 1 -11 17 -3 43 10
35 5 -3 12 3 16 13 7 20 23 43 30 43 2 0 3 -6 2 -12z m6011 8 c0 -3 -4 -8 -10
-11 -5 -3 -10 -1 -10 4 0 6 5 11 10 11 6 0 10 -2 10 -4z m-1812 -53 c18 -34
20 -35 26 -15 14 44 56 18 56 -36 0 -50 -16 -74 -48 -70 -19 2 -27 -2 -32 -17
-7 -26 -33 -65 -42 -65 -5 0 -8 8 -8 18 0 10 -5 23 -11 29 -6 6 -10 38 -10 72
0 46 5 69 21 91 12 17 23 30 25 30 3 0 13 -17 23 -37z m-3656 -15 c-9 -9 -12
-7 -12 12 0 19 3 21 12 12 9 -9 9 -15 0 -24z m2053 23 c3 -5 1 -12 -5 -16 -5
-3 -10 1 -10 9 0 18 6 21 15 7z m3502 -27 c-9 -9 -27 6 -27 22 0 13 2 13 16
-1 9 -9 14 -18 11 -21z m50 -26 c13 -12 23 -33 23 -46 0 -22 -3 -24 -30 -18
-16 3 -30 2 -30 -3 0 -14 -52 -20 -77 -8 -28 13 -31 37 -3 30 19 -5 50 17 50
36 0 6 7 8 15 5 9 -4 15 0 15 10 0 22 9 20 37 -6z m-5286 -57 c9 -42 -6 -117
-26 -125 -36 -13 -52 122 -20 170 16 25 18 26 28 9 5 -10 13 -34 18 -54z
m-795 -13 c-5 -73 -28 -149 -39 -131 -4 6 -2 38 5 73 8 50 8 64 -3 71 -10 6
-8 13 11 32 14 14 26 25 28 26 1 1 1 -32 -2 -71z m21 40 c-3 -8 -6 -5 -6 6 -1
11 2 17 5 13 3 -3 4 -12 1 -19z m160 0 c-3 -8 -6 -5 -6 6 -1 11 2 17 5 13 3
-3 4 -12 1 -19z m-50 -10 c-3 -8 -6 -5 -6 6 -1 11 2 17 5 13 3 -3 4 -12 1 -19z
m4203 12 c0 -5 -4 -10 -9 -10 -6 0 -13 5 -16 10 -3 6 1 10 9 10 9 0 16 -4 16
-10z m-3980 -21 c0 -11 -4 -17 -10 -14 -5 3 -10 13 -10 21 0 8 5 14 10 14 6 0
10 -9 10 -21z m135 -26 c10 -40 -3 -40 -20 0 -19 45 -19 53 -1 38 8 -7 17 -23
21 -38z m-98 15 c-3 -8 -6 -5 -6 6 -1 11 2 17 5 13 3 -3 4 -12 1 -19z m-497
-10 c0 -33 -17 -55 -30 -42 -7 7 -6 18 2 37 16 33 28 35 28 5z m298 -27 c4
-43 -4 -62 -23 -55 -25 10 -17 99 9 91 6 -2 12 -18 14 -36z m62 -2 c0 -5 -4
-9 -10 -9 -5 0 -10 7 -10 16 0 8 5 12 10 9 6 -3 10 -10 10 -16z m5815 -36
c-10 -18 -22 -33 -27 -33 -14 0 -5 33 15 54 9 11 17 25 18 30 0 6 3 5 6 -3 3
-8 -2 -29 -12 -48z m-6025 35 c0 -21 -17 -41 -29 -34 -7 4 -4 13 7 26 21 23
22 23 22 8z m5943 -12 c-4 -6 -6 -23 -4 -38 2 -23 -1 -28 -21 -28 -17 0 -19 3
-9 9 9 6 11 18 7 35 -8 32 -1 47 19 40 8 -4 12 -11 8 -18z m-6192 -29 c-8 -8
-11 -7 -11 4 0 20 13 34 18 19 3 -7 -1 -17 -7 -23z m553 16 c43 -124 44 -134
12 -100 -24 26 -46 117 -28 117 5 0 12 -8 16 -17z m5442 -20 c-11 -11 -19 6
-11 24 8 17 8 17 12 0 3 -10 2 -21 -1 -24z m319 7 c3 -5 2 -10 -4 -10 -5 0
-13 5 -16 10 -3 6 -2 10 4 10 5 0 13 -4 16 -10z m-6235 -23 c0 -13 -7 -32 -15
-43 -14 -18 -14 -18 -15 8 0 32 9 58 21 58 5 0 9 -10 9 -23z m66 -23 c-4 -14
-9 -24 -12 -21 -3 2 -2 17 2 31 3 15 9 25 11 22 3 -3 2 -17 -1 -32z m582 -28
c4 -67 -11 -93 -34 -62 -14 20 -19 82 -8 111 4 9 14 15 23 13 12 -2 17 -17 19
-62z m-299 -14 c1 -33 -15 -19 -23 19 -7 39 5 64 15 29 4 -14 7 -35 8 -48z
m5441 59 c0 -5 -7 -12 -16 -15 -14 -5 -15 -4 -4 9 14 17 20 19 20 6z m207 -38
c-3 -10 -5 -4 -5 12 0 17 2 24 5 18 2 -7 2 -21 0 -30z m-1672 17 c-3 -5 -11
-10 -16 -10 -6 0 -7 5 -4 10 3 6 11 10 16 10 6 0 7 -4 4 -10z m-4104 -88 c-6
-2 -12 -20 -12 -40 l-1 -37 -8 30 c-6 24 -8 26 -9 8 -2 -40 -21 -24 -21 17 0
22 5 40 10 40 6 0 10 10 10 21 0 12 8 28 18 35 15 11 17 9 20 -29 2 -23 -1
-43 -7 -45z m5895 61 c-4 -9 -1 -21 5 -29 13 -15 8 -56 -6 -52 -5 2 -9 16 -8
32 0 15 -3 24 -7 20 -12 -13 -14 -36 -5 -67 5 -19 3 -32 -5 -40 -10 -10 -11
-6 -6 16 7 30 -4 36 -25 11 -10 -13 -14 -13 -20 -1 -12 21 26 113 45 109 9 -2
16 4 16 13 0 9 5 13 11 10 6 -4 8 -14 5 -22z m-5696 -13 c0 -16 -4 -30 -8 -30
-5 0 -7 14 -4 30 2 17 6 30 8 30 2 0 4 -13 4 -30z m4577 15 c8 -22 -6 -33 -17
-15 -8 13 -10 13 -10 1 0 -8 -2 -12 -5 -9 -8 7 5 38 16 38 5 0 12 -7 16 -15z
m955 -17 c-7 -7 -12 -8 -12 -2 0 14 12 26 19 19 2 -3 -1 -11 -7 -17z m-6372
-9 c0 -5 -4 -9 -10 -9 -5 0 -10 7 -10 16 0 8 5 12 10 9 6 -3 10 -10 10 -16z
m520 -39 c0 -22 -4 -40 -10 -40 -11 0 -13 39 -4 64 10 26 14 19 14 -24z m276
13 c-4 -14 -3 -29 2 -32 5 -3 12 -28 15 -56 6 -45 5 -47 -5 -20 -6 17 -15 32
-19 35 -14 10 -23 70 -10 70 6 0 11 7 11 15 0 8 3 15 6 15 3 0 3 -12 0 -27z
m5794 12 c0 -8 -4 -15 -10 -15 -5 0 -10 7 -10 15 0 8 5 15 10 15 6 0 10 -7 10
-15z m-1715 -15 c-10 -11 -21 -18 -23 -15 -3 3 3 12 14 20 27 20 30 18 9 -5z
m1765 4 c0 -14 -3 -15 -17 -3 -10 7 -20 15 -22 16 -2 2 5 3 17 3 14 0 22 -6
22 -16z m-390 -22 c0 -5 -7 -17 -15 -28 -14 -19 -14 -19 -15 2 0 11 3 24 7 27
9 10 23 9 23 -1z m-6300 -23 c0 -5 -4 -9 -10 -9 -5 0 -10 7 -10 16 0 8 5 12
10 9 6 -3 10 -10 10 -16z m977 -1 c-3 -8 -6 -5 -6 6 -1 11 2 17 5 13 3 -3 4
-12 1 -19z m-179 -45 l-1 -58 -6 45 c-6 42 -4 70 5 70 2 0 3 -26 2 -57z m-851
15 c-3 -8 -6 -5 -6 6 -1 11 2 17 5 13 3 -3 4 -12 1 -19z m6420 -30 c10 -54 6
-81 -7 -57 -4 8 -11 35 -14 62 -10 66 10 61 21 -5z m94 25 c-12 -20 -14 -14
-5 12 4 9 9 14 11 11 3 -2 0 -13 -6 -23z m-5898 -39 c-6 -16 -7 -16 -14 2 -13
34 -11 47 6 30 9 -8 12 -22 8 -32z m4307 20 c0 -14 -4 -23 -10 -19 -5 3 -10
15 -10 26 0 10 5 19 10 19 6 0 10 -12 10 -26z m1662 4 c-7 -7 -12 -8 -12 -2 0
14 12 26 19 19 2 -3 -1 -11 -7 -17z m82 6 c7 -18 -11 -57 -23 -50 -10 6 -2 66
9 66 4 0 11 -7 14 -16z m-1194 -4 c0 -5 -4 -10 -10 -10 -5 0 -10 5 -10 10 0 6
5 10 10 10 6 0 10 -4 10 -10z m-410 -34 c0 -3 -4 -8 -10 -11 -5 -3 -10 -1 -10
4 0 6 5 11 10 11 6 0 10 -2 10 -4z m1406 -50 c-9 -22 -13 -49 -9 -68 4 -22 3
-29 -5 -24 -7 4 -12 18 -12 31 0 27 30 109 37 101 2 -2 -3 -20 -11 -40z
m-6506 -13 c0 -24 -25 -9 -28 17 -3 21 -2 22 12 11 9 -7 16 -20 16 -28z m5071
10 c-12 -20 -14 -14 -5 12 4 9 9 14 11 11 3 -2 0 -13 -6 -23z m86 -5 c-3 -8
-6 -5 -6 6 -1 11 2 17 5 13 3 -3 4 -12 1 -19z m-4420 -33 c2 -20 -1 -35 -7
-35 -5 0 -10 19 -10 42 0 49 11 44 17 -7z m4796 38 c-7 -2 -19 -2 -25 0 -7 3
-2 5 12 5 14 0 19 -2 13 -5z m1103 -20 c-10 -10 -19 5 -10 18 6 11 8 11 12 0
2 -7 1 -15 -2 -18z m158 4 c-2 -24 13 -21 21 3 3 11 10 20 15 20 5 0 2 -17 -7
-37 -9 -21 -17 -64 -19 -96 -2 -33 -12 -73 -24 -95 l-21 -37 6 55 c3 30 8 71
10 90 3 19 -4 2 -15 -39 -39 -140 -60 -169 -73 -101 -11 50 27 206 58 240 22
24 51 22 49 -3z m-1627 -29 c-3 -8 -6 -5 -6 6 -1 11 2 17 5 13 3 -3 4 -12 1
-19z m293 -3 c0 -14 -4 -25 -10 -25 -5 0 -10 11 -10 25 0 14 5 25 10 25 6 0
10 -11 10 -25z m1201 2 c-10 -9 -11 -8 -5 6 3 10 9 15 12 12 3 -3 0 -11 -7
-18z m11 -56 c-7 -4 -10 -15 -7 -23 4 -9 2 -19 -3 -22 -18 -11 -23 27 -6 46
10 10 20 16 23 13 3 -4 0 -10 -7 -14z m212 -52 c-3 -5 -10 -7 -15 -3 -5 3 -7
10 -3 15 3 5 10 7 15 3 5 -3 7 -10 3 -15z m-3817 -26 c-3 -10 -5 -4 -5 12 0
17 2 24 5 18 2 -7 2 -21 0 -30z m2913 27 c0 -5 -2 -10 -4 -10 -3 0 -8 5 -11
10 -3 6 -1 10 4 10 6 0 11 -4 11 -10z m-419 -52 c-25 -26 -27 -17 -4 19 9 14
19 21 21 15 2 -6 -6 -21 -17 -34z m1345 6 c-4 -14 -9 -24 -12 -21 -3 2 -2 17
2 31 3 15 9 25 11 22 3 -3 2 -17 -1 -32z m-1872 0 c-5 -19 -3 -25 4 -20 8 5
10 2 6 -8 -5 -14 -8 -14 -20 -1 -12 11 -12 19 -4 35 15 28 22 25 14 -6z m1802
-11 c-10 -10 -19 5 -10 18 6 11 8 11 12 0 2 -7 1 -15 -2 -18z m-3866 13 c0 -3
-4 -8 -10 -11 -5 -3 -10 -1 -10 4 0 6 5 11 10 11 6 0 10 -2 10 -4z m-4813 -38
c-3 -7 -5 -2 -5 12 0 14 2 19 5 13 2 -7 2 -19 0 -25z m2784 -111 c1 -56 -12
-117 -25 -117 -17 0 -56 60 -61 94 -4 23 -11 56 -17 75 -6 20 -7 36 -1 40 5 3
12 14 16 23 3 9 16 18 29 20 32 4 57 -54 59 -135z m6069 106 c-11 -17 -11 -17
-6 0 3 10 6 24 7 30 0 9 2 9 5 0 3 -7 0 -20 -6 -30z m-1719 -146 c-13 -13 -14
28 -3 88 7 39 7 39 10 -19 2 -32 -2 -64 -7 -69z m343 108 c-4 -8 -8 -15 -10
-15 -2 0 -4 7 -4 15 0 8 4 15 10 15 5 0 7 -7 4 -15z m-5620 -92 c-5 -70 -16
-83 -45 -57 -18 16 -20 26 -16 66 3 26 11 57 18 70 l12 22 17 -22 c14 -17 17
-35 14 -79z m5547 60 c-12 -20 -14 -14 -5 12 4 9 9 14 11 11 3 -2 0 -13 -6
-23z m434 -13 c3 -5 1 -10 -4 -10 -6 0 -11 5 -11 10 0 6 2 10 4 10 3 0 8 -4
11 -10z m865 -7 c0 -5 -5 -15 -10 -23 -8 -12 -10 -11 -10 8 0 12 5 22 10 22 6
0 10 -3 10 -7z m117 -25 c-3 -7 -5 -2 -5 12 0 14 2 19 5 13 2 -7 2 -19 0 -25z
m-1486 -31 c-16 -16 -26 0 -10 19 9 11 15 12 17 4 2 -6 -1 -17 -7 -23z m1225
-1 c7 -28 -2 -49 -17 -41 -12 8 -12 65 1 65 5 0 12 -11 16 -24z m-8342 -41
c-4 -17 -10 -23 -16 -17 -6 6 -6 18 2 32 15 28 23 20 14 -15z m8414 19 c-4 -3
2 -14 13 -25 19 -19 27 -79 10 -79 -5 0 -14 7 -21 15 -7 8 -17 12 -23 8 -6 -4
-7 7 -2 33 7 42 13 54 22 54 4 0 4 -3 1 -6z m182 -56 c0 -20 -4 -26 -15 -22
-15 6 -21 55 -8 67 10 11 23 -14 23 -45z m-8510 27 c0 -8 -4 -15 -10 -15 -5 0
-10 7 -10 15 0 8 5 15 10 15 6 0 10 -7 10 -15z m8277 -7 c-3 -8 -6 -5 -6 6 -1
11 2 17 5 13 3 -3 4 -12 1 -19z m-1530 -30 c-3 -8 -6 -5 -6 6 -1 11 2 17 5 13
3 -3 4 -12 1 -19z m145 -10 c-9 -9 -12 -7 -12 12 0 19 3 21 12 12 9 -9 9 -15
0 -24z m1529 -26 c-4 -29 -13 -58 -21 -65 -10 -10 -11 -8 -5 8 4 11 10 36 12
55 5 40 12 65 17 59 2 -2 0 -28 -3 -57z m466 -104 c-2 -29 -3 -6 -3 52 0 58 1
81 3 53 2 -29 2 -77 0 -105z m-8790 110 c-3 -7 -5 -2 -5 12 0 14 2 19 5 13 2
-7 2 -19 0 -25z m6740 -40 c-2 -13 -4 -3 -4 22 0 25 2 35 4 23 2 -13 2 -33 0
-45z m1720 -10 c-2 -13 -4 -3 -4 22 0 25 2 35 4 23 2 -13 2 -33 0 -45z m373
26 c0 -8 -5 -12 -10 -9 -6 4 -8 11 -5 16 9 14 15 11 15 -7z m-9133 -51 c-3
-10 -5 -2 -5 17 0 19 2 27 5 18 2 -10 2 -26 0 -35z m1370 -15 c-2 -13 -4 -5
-4 17 -1 22 1 32 4 23 2 -10 2 -28 0 -40z m6060 20 c-3 -7 -5 -2 -5 12 0 14 2
19 5 13 2 -7 2 -19 0 -25z m-7340 -30 c-2 -13 -4 -5 -4 17 -1 22 1 32 4 23 2
-10 2 -28 0 -40z m8315 12 c-5 -13 -11 -19 -14 -14 -3 5 -1 20 4 34 13 31 22
12 10 -20z m922 -11 c6 -32 1 -49 -14 -49 -11 0 -23 56 -15 70 11 18 22 10 29
-21z m-7884 -15 c0 -8 -4 -14 -10 -14 -5 0 -10 9 -10 21 0 11 5 17 10 14 6 -3
10 -13 10 -21z m6370 -7 c0 -5 -4 -5 -10 -2 -5 3 -10 14 -10 23 0 15 2 15 10
2 5 -8 10 -19 10 -23z m-6633 -9 c-3 -8 -6 -5 -6 6 -1 11 2 17 5 13 3 -3 4
-12 1 -19z m570 -15 c-3 -10 -5 -4 -5 12 0 17 2 24 5 18 2 -7 2 -21 0 -30z
m6730 -10 c-3 -10 -5 -4 -5 12 0 17 2 24 5 18 2 -7 2 -21 0 -30z m62 25 c0 -7
-4 -22 -9 -33 -7 -17 -9 -15 -9 13 -1 17 4 32 9 32 6 0 10 -6 9 -12z m-1074
-57 c-4 -28 -11 -51 -16 -51 -11 0 -11 -2 2 60 14 65 23 58 14 -9z m-5590 -19
c-10 -10 -35 28 -35 52 0 17 4 15 21 -12 12 -18 18 -36 14 -40z m7157 38 c3
-16 1 -35 -4 -42 -4 -8 -8 4 -8 30 0 49 6 55 12 12z m-7535 -33 c-3 -7 -6 -5
-6 6 -1 9 -5 17 -11 17 -5 0 -10 8 -10 17 0 14 3 13 16 -5 8 -12 13 -28 11
-35z m-51 0 c-3 -12 -6 -29 -6 -37 -1 -14 -30 56 -30 73 0 4 9 3 21 -4 15 -8
19 -17 15 -32z m-1435 -7 c4 -14 7 -39 8 -57 1 -21 8 -36 20 -43 12 -6 26 -33
36 -66 15 -52 15 -59 -1 -100 -9 -24 -25 -54 -35 -66 -20 -22 -24 -79 -10
-128 7 -25 7 -25 13 -3 4 14 13 21 25 20 19 -1 20 -8 17 -92 -2 -49 -7 -89
-10 -88 -13 4 -34 56 -34 84 0 29 -14 39 -23 17 -3 -7 -6 16 -7 52 -9 334 -17
450 -31 450 -5 0 -9 12 -9 26 0 34 31 29 41 -6z m119 -22 c0 -23 -16 -24 -23
0 -2 9 -8 26 -13 37 -7 20 -7 20 14 1 12 -11 22 -27 22 -38z m8870 -42 c0 -88
-9 -122 -25 -95 -10 15 5 189 16 189 5 0 9 -42 9 -94z m-7650 76 c0 -3 -7 -10
-16 -17 -15 -10 -15 -13 1 -28 9 -9 15 -25 12 -35 -2 -12 -8 -7 -22 20 -19 39
-16 65 9 65 9 0 16 -2 16 -5z m7250 -67 c-13 -79 -29 -118 -29 -70 -1 28 13
103 25 134 11 33 14 -2 4 -64z m357 43 c-3 -7 -5 -2 -5 12 0 14 2 19 5 13 2
-7 2 -19 0 -25z m293 28 c0 -3 -4 -8 -10 -11 -5 -3 -10 -1 -10 4 0 6 5 11 10
11 6 0 10 -2 10 -4z m-9170 -47 c0 -5 -4 -9 -10 -9 -5 0 -10 7 -10 16 0 8 5
12 10 9 6 -3 10 -10 10 -16z m8395 -25 c-8 -59 -15 -75 -26 -68 -12 7 -11 44
2 83 17 48 32 39 24 -15z m767 -6 c-15 -15 -27 14 -17 40 6 15 8 15 18 -6 7
-16 7 -26 -1 -34z m39 -50 c-9 -20 -10 -18 -10 17 0 31 2 36 9 23 6 -10 7 -25
1 -40z m-9059 20 c-7 -7 -12 -8 -12 -2 0 14 12 26 19 19 2 -3 -1 -11 -7 -17z
m1069 -91 c-8 -8 -11 2 -10 39 l1 49 10 -38 c7 -28 7 -42 -1 -50z m7876 -332
c-3 -30 -4 -26 -5 18 -2 42 -6 57 -16 57 -20 0 -31 93 -21 174 4 33 7 75 7 91
-1 17 2 41 5 55 7 29 35 -335 30 -395z m93 378 c0 -21 -5 -45 -10 -53 -7 -11
-10 0 -10 38 0 28 5 52 10 52 6 0 10 -17 10 -37z m77 15 c-3 -8 -6 -5 -6 6 -1
11 2 17 5 13 3 -3 4 -12 1 -19z m-9057 -14 c0 -8 -4 -12 -10 -9 -5 3 -10 13
-10 21 0 8 5 12 10 9 6 -3 10 -13 10 -21z m7630 0 c20 -52 7 -134 -18 -110
-12 13 -15 136 -3 136 6 0 16 -12 21 -26z m620 -21 c-11 -17 -11 -17 -6 0 3
10 7 26 7 35 1 15 2 15 6 0 2 -10 -1 -25 -7 -35z m682 -60 c5 -97 -8 -70 -16
32 -3 48 -2 72 3 60 5 -11 10 -53 13 -92z m-7895 65 c-3 -8 -6 -5 -6 6 -1 11
2 17 5 13 3 -3 4 -12 1 -19z m92 -36 c-1 -42 -2 -44 -9 -17 l-8 30 -1 -32 c-2
-53 -21 -38 -21 16 0 30 5 51 13 54 21 8 27 -3 26 -51z m6038 11 c-3 -10 -5
-2 -5 17 0 19 2 27 5 18 2 -10 2 -26 0 -35z m-6000 15 c-3 -8 -6 -5 -6 6 -1
11 2 17 5 13 3 -3 4 -12 1 -19z m6050 0 c-3 -8 -6 -5 -6 6 -1 11 2 17 5 13 3
-3 4 -12 1 -19z m1443 -68 c0 -40 -4 -70 -10 -70 -11 0 -13 81 -4 118 10 37
14 25 14 -48z m-213 18 c-3 -7 -5 -2 -5 12 0 14 2 19 5 13 2 -7 2 -19 0 -25z
m303 -74 c-8 -15 -17 -21 -23 -15 -5 5 -5 17 2 29 6 11 12 38 12 59 l1 38 11
-43 c8 -33 7 -49 -3 -68z m68 31 c-4 -56 -28 -58 -28 -2 0 24 3 47 7 50 13 14
24 -11 21 -48z m-7772 20 c6 -24 0 -44 -10 -34 -11 11 -17 59 -7 59 6 0 13
-11 17 -25z m-1346 -69 c0 -64 -6 -56 -14 19 -5 42 -4 56 3 45 6 -8 11 -37 11
-64z m9377 42 c-3 -7 -5 -2 -5 12 0 14 2 19 5 13 2 -7 2 -19 0 -25z m-7630 0
c-3 -8 -6 -5 -6 6 -1 11 2 17 5 13 3 -3 4 -12 1 -19z m-1636 -39 c-5 -13 -10
-19 -10 -12 -1 15 10 45 15 40 3 -2 0 -15 -5 -28z m9200 -60 c-6 -27 -11 -69
-11 -92 -1 -41 -1 -42 -15 -17 -15 27 -19 68 -8 96 6 16 7 16 13 -2 5 -13 10
3 16 46 4 36 10 55 12 42 2 -12 -1 -45 -7 -73z m-622 44 c0 -21 -4 -47 -9 -58
-6 -14 -9 -4 -9 38 -1 32 3 57 9 57 6 0 10 -17 9 -37z m671 -3 c0 -22 -4 -40
-10 -40 -11 0 -13 39 -4 64 10 26 14 19 14 -24z m-8000 -22 c0 -48 -8 -45 -20
6 -6 28 -5 36 6 36 10 0 14 -13 14 -42z m89 0 c0 -27 -2 -29 -8 -13 -5 11 -6
26 -4 33 8 21 13 13 12 -20z m8428 10 c-3 -8 -6 -5 -6 6 -1 11 2 17 5 13 3 -3
4 -12 1 -19z m-8154 -18 c-7 -28 -13 -25 -13 6 0 14 4 23 9 20 5 -3 7 -15 4
-26z m-447 -37 c-10 -10 -19 5 -10 18 6 11 8 11 12 0 2 -7 1 -15 -2 -18z
m7841 -5 c-3 -7 -5 -2 -5 12 0 14 2 19 5 13 2 -7 2 -19 0 -25z m-565 -20 c-8
-8 -9 -4 -5 13 4 13 8 18 11 10 2 -7 -1 -18 -6 -23z m-7302 7 c6 -8 9 -19 5
-25 -7 -11 -34 15 -35 33 0 12 17 8 30 -8z m620 -41 c8 -44 -3 -99 -20 -99
-20 0 -35 88 -20 116 15 27 34 19 40 -17z m-1674 0 c-4 -9 -9 -15 -11 -12 -3
3 -3 13 1 22 4 9 9 15 11 12 3 -3 3 -13 -1 -22z m1211 -51 c-2 -16 -4 -3 -4
27 0 30 2 43 4 28 2 -16 2 -40 0 -55z m7259 -25 c-3 -51 -11 -97 -17 -103 -9
-7 -10 13 -5 77 6 84 13 118 24 118 3 0 2 -41 -2 -92z m264 22 c0 -40 -4 -70
-10 -70 -11 0 -13 61 -4 109 10 48 14 37 14 -39z m797 38 c-3 -7 -5 -2 -5 12
0 14 2 19 5 13 2 -7 2 -19 0 -25z m112 -5 c6 -20 8 -39 6 -42 -9 -9 -25 14
-31 47 -9 45 12 41 25 -5z m-8572 -65 c-3 -8 -6 -5 -6 6 -1 11 2 17 5 13 3 -3
4 -12 1 -19z m8613 6 c0 -8 -7 -22 -15 -30 -16 -17 -18 -12 -9 24 7 25 24 30
24 6z m-8503 -31 c-3 -10 -5 -4 -5 12 0 17 2 24 5 18 2 -7 2 -21 0 -30z m8353
0 c0 -10 -4 -24 -9 -32 -7 -11 -10 -9 -16 8 -7 22 0 41 16 41 5 0 9 -8 9 -17z
m-51 -68 c-1 -40 -3 -45 -9 -25 -12 38 -12 109 0 90 5 -8 9 -37 9 -65z m-162
8 c-3 -10 -5 -4 -5 12 0 17 2 24 5 18 2 -7 2 -21 0 -30z m24 -20 c-9 -16 -10
-16 -11 -1 0 9 3 25 7 35 7 16 8 17 11 1 2 -10 -1 -25 -7 -35z m366 -54 c2
-46 2 -93 -2 -106 -5 -22 -6 -23 -24 -6 -11 10 -23 31 -27 47 -6 25 -5 28 10
23 15 -6 17 0 16 46 -3 90 -1 102 12 89 6 -6 13 -48 15 -93z m-567 81 c0 -5
-5 -10 -11 -10 -5 0 -7 5 -4 10 3 6 8 10 11 10 2 0 4 -4 4 -10z m-7970 -38 c0
-15 -2 -15 -10 -2 -13 20 -13 33 0 25 6 -3 10 -14 10 -23z m8087 6 c-3 -8 -6
-5 -6 6 -1 11 2 17 5 13 3 -3 4 -12 1 -19z m305 -48 c-5 -81 -22 -77 -22 5 0
47 3 63 13 60 8 -4 11 -24 9 -65z m-9692 30 c0 -16 5 -30 10 -30 6 0 10 -12
10 -27 -1 -27 -1 -27 -15 -9 -8 11 -15 14 -15 8 0 -7 -4 -12 -10 -12 -11 0
-14 59 -4 84 10 26 24 18 24 -14z m110 20 c0 -5 -4 -10 -10 -10 -5 0 -10 5
-10 10 0 6 5 10 10 10 6 0 10 -4 10 -10z m3800 -42 c0 -9 7 -21 15 -25 13 -7
16 -43 19 -208 2 -158 10 -247 35 -420 17 -121 30 -227 28 -235 -4 -16 -4 -10
-43 275 -13 99 -26 195 -29 212 l-6 33 -21 -20 c-32 -29 -41 -25 -65 33 -29
67 -38 188 -23 297 13 98 28 119 66 92 13 -9 24 -25 24 -34z m-2053 -5 c10
-35 9 -113 -1 -139 -7 -19 -8 -19 -22 0 -22 31 -16 166 7 166 5 0 12 -12 16
-27z m7493 -19 c-16 -29 -25 -16 -15 23 4 19 9 23 17 15 9 -9 8 -18 -2 -38z
m-9242 -33 c3 -58 -12 -111 -33 -111 -26 0 -33 66 -14 133 7 28 15 37 27 35
13 -2 18 -16 20 -57z m9452 38 c0 -6 -4 -7 -10 -4 -5 3 -10 11 -10 16 0 6 5 7
10 4 6 -3 10 -11 10 -16z m-6170 0 c0 -6 7 -9 14 -6 16 7 19 0 36 -86 7 -33
18 -73 25 -90 13 -33 10 -93 -7 -114 -5 -6 -8 -22 -6 -35 5 -47 -15 -145 -40
-196 -26 -52 -47 -63 -62 -32 -35 70 -43 136 -42 323 0 122 3 141 20 160 10
12 25 37 32 55 12 31 30 44 30 21z m-1850 -161 c0 -65 -7 -88 -26 -88 -8 0
-14 1 -14 3 0 1 -4 28 -10 61 -7 46 -6 66 6 95 l15 36 14 -25 c8 -14 14 -51
15 -82z m-1553 55 c-3 -10 -5 -4 -5 12 0 17 2 24 5 18 2 -7 2 -21 0 -30z m992
-47 c-5 -6 -9 7 -8 35 l1 44 8 -35 c5 -20 5 -39 -1 -44z m-924 -19 c7 -34 -8
-87 -24 -87 -16 0 -23 70 -9 100 15 34 25 30 33 -13z m1360 -14 c23 -110 1
-273 -36 -273 -29 0 -44 58 -43 170 0 84 4 110 18 132 24 36 51 23 61 -29z
m8205 -12 c0 -11 -5 -10 -20 4 -11 10 -20 22 -20 27 0 4 9 3 20 -4 11 -7 20
-19 20 -27z m-9437 14 c4 -8 2 -17 -3 -20 -6 -4 -10 3 -10 14 0 25 6 27 13 6z
m9284 -22 c-3 -10 -5 -4 -5 12 0 17 2 24 5 18 2 -7 2 -21 0 -30z m-8700 -35
c-2 -13 -4 -3 -4 22 0 25 2 35 4 23 2 -13 2 -33 0 -45z m348 38 c12 17 13 17
22 -2 26 -50 23 -181 -4 -191 -21 -8 -25 0 -34 87 -4 44 -10 90 -14 102 -5 21
-5 21 5 5 11 -17 12 -18 25 -1z m8655 -57 c0 -26 7 -50 20 -66 11 -14 20 -30
20 -34 0 -20 -17 -6 -48 40 -25 37 -31 55 -26 75 10 43 34 32 34 -15z m50 -5
c0 -8 -4 -12 -10 -9 -5 3 -10 10 -10 16 0 5 5 9 10 9 6 0 10 -7 10 -16z
m-9710 -19 c0 -29 7 -31 32 -8 18 16 18 16 12 -2 -6 -15 -4 -17 19 -11 25 6
26 5 17 -16 -5 -13 -12 -45 -15 -71 -9 -70 -30 -55 -30 21 0 66 -7 76 -26 40
-31 -58 -75 -57 -64 1 9 47 22 71 40 71 9 0 15 -10 15 -25z m840 -33 c0 -15
-2 -15 -10 -2 -13 20 -13 33 0 25 6 -3 10 -14 10 -23z m8760 -57 c0 -4 -7 -1
-17 6 -15 13 -16 10 -10 -29 8 -62 -24 -98 -63 -72 -12 8 -13 12 -2 19 12 7
12 12 0 31 -10 18 -10 24 0 27 6 3 12 14 12 24 0 11 5 29 10 40 11 19 12 18
40 -10 17 -16 30 -33 30 -36z m-7570 -10 c0 -53 -12 -77 -26 -53 -4 6 -7 30
-7 53 0 23 3 47 7 53 14 24 26 0 26 -53z m7390 16 c7 -13 7 -22 0 -26 -15 -9
-30 4 -30 26 0 25 16 25 30 0z m256 -13 l17 -33 -27 24 c-27 25 -33 41 -16 41
5 0 17 -15 26 -32z m-8869 -40 c-2 -13 -4 -5 -4 17 -1 22 1 32 4 23 2 -10 2
-28 0 -40z m8831 13 c2 -14 9 -21 20 -19 21 4 28 -45 12 -88 -10 -26 -13 -27
-24 -12 -7 10 -15 15 -18 13 -3 -3 -12 5 -20 17 -13 19 -13 32 -4 71 11 48 28
58 34 18z m-8659 -95 c1 -12 -3 -16 -8 -10 -5 5 -11 36 -14 69 l-6 60 14 -50
c7 -27 14 -59 14 -69z m870 57 c14 -37 1 -128 -19 -128 -20 0 -34 56 -26 109
8 52 28 60 45 19z m7626 -3 c3 -5 -3 -10 -15 -10 -12 0 -18 5 -15 10 3 6 10
10 15 10 5 0 12 -4 15 -10z m-9478 -44 c-7 -14 -13 -23 -15 -21 -7 6 9 45 18
45 4 0 3 -11 -3 -24z m1620 -47 c12 -47 15 -184 4 -234 -3 -16 -14 -31 -23
-33 -34 -7 -54 204 -27 286 14 43 31 36 46 -19z m7961 6 c6 -14 17 -25 23 -25
8 0 8 -4 1 -13 -6 -7 -9 -22 -6 -33 4 -15 0 -20 -21 -22 -37 -3 -47 5 -35 29
8 14 7 19 -2 19 -27 0 -39 17 -32 43 9 37 56 38 72 2z m-9544 -33 c-17 -16
-18 -32 -3 -32 6 0 9 -9 6 -20 -3 -11 -1 -20 4 -20 5 0 9 -6 9 -12 0 -9 -19
-13 -60 -13 l-60 0 0 35 c0 29 6 39 35 58 19 12 35 26 35 31 0 5 11 4 24 -2
20 -9 21 -13 10 -25z m1327 -75 c-8 -8 -11 1 -11 29 0 53 14 67 18 19 2 -21
-1 -42 -7 -48z m-1241 47 c15 -38 12 -117 -4 -140 -14 -18 -15 -18 -26 11 -15
40 -10 155 8 155 7 0 17 -12 22 -26z m40 11 c0 -8 -4 -15 -10 -15 -5 0 -10 7
-10 15 0 8 5 15 10 15 6 0 10 -7 10 -15z m9334 -21 c28 -11 17 -24 -19 -24
-33 0 -43 8 -28 23 8 9 27 9 47 1z m-7793 -31 c21 -56 10 -227 -15 -236 -24
-10 -40 41 -40 131 -1 115 29 172 55 105z m-1535 -59 c-10 -40 -28 -28 -20 14
4 20 9 42 13 47 9 14 14 -32 7 -61z m558 -15 c9 -48 7 -125 -5 -156 -10 -27
-11 -27 -25 -9 -8 11 -14 31 -15 45 0 20 -2 22 -7 9 -4 -10 -7 14 -8 52 0 39
3 65 7 59 3 -6 8 -2 12 10 8 32 34 25 41 -10z m285 -20 c14 -41 14 -137 0
-177 -9 -28 -13 -30 -25 -17 -17 16 -25 190 -11 213 13 20 24 14 36 -19z
m-967 -12 c-2 -16 2 -35 8 -43 10 -11 8 -14 -10 -14 -20 0 -22 3 -15 36 4 24
3 34 -4 29 -6 -3 -11 1 -11 10 0 10 7 15 18 13 12 -2 16 -11 14 -31z m3215 11
c-3 -8 -6 -5 -6 6 -1 11 2 17 5 13 3 -3 4 -12 1 -19z m6400 -35 c-3 -10 -5 -4
-5 12 0 17 2 24 5 18 2 -7 2 -21 0 -30z m-7736 -14 c9 -41 0 -127 -14 -136 -5
-3 -13 1 -18 8 -10 16 -12 129 -3 154 10 25 28 12 35 -26z m-1821 -40 c0 -6
-4 -7 -10 -4 -5 3 -10 11 -10 16 0 6 5 7 10 4 6 -3 10 -11 10 -16z m1415 -26
c3 -21 7 -48 9 -61 5 -33 -14 -100 -29 -106 -19 -7 -35 45 -35 111 0 86 43
130 55 56z m-1278 5 c-3 -8 -6 -5 -6 6 -1 11 2 17 5 13 3 -3 4 -12 1 -19z
m1017 -35 c7 -51 -2 -101 -19 -105 -15 -4 -28 94 -16 125 16 40 28 33 35 -20z
m-1162 24 c20 -16 33 -63 19 -71 -8 -6 -43 32 -65 72 -10 16 24 15 46 -1z
m-78 -24 c14 -18 16 -28 8 -31 -7 -2 -12 -10 -12 -18 0 -9 -5 -12 -11 -8 -6 3
-9 15 -6 25 3 11 2 19 -2 19 -3 0 -12 9 -19 20 -20 32 19 25 42 -7z m526 -8
c0 -8 -4 -15 -10 -15 -5 0 -10 7 -10 15 0 8 5 15 10 15 6 0 10 -7 10 -15z
m-359 -47 c15 -28 -9 -19 -29 10 -13 20 -13 22 2 16 9 -3 21 -15 27 -26z m498
-83 c1 -36 -16 6 -22 55 l-6 45 14 -40 c7 -22 14 -49 14 -60z m-561 32 c4 -31
-12 -36 -28 -8 -15 29 -12 43 8 39 10 -2 18 -14 20 -31z m274 -9 c-13 -13 -24
5 -16 27 7 16 8 16 17 0 6 -11 6 -20 -1 -27z m1302 10 c9 -36 7 -94 -5 -125
-8 -22 -12 -24 -19 -13 -18 28 -9 160 10 160 4 0 10 -10 14 -22z m-1644 -29
c0 -10 11 -30 24 -46 26 -31 30 -49 28 -130 -2 -44 -5 -52 -21 -50 -21 1 -31
47 -31 137 0 39 -4 49 -20 53 -13 3 -20 14 -20 29 0 17 6 24 20 24 12 0 20 -7
20 -17z m277 -26 c-3 -10 -5 -2 -5 17 0 19 2 27 5 18 2 -10 2 -26 0 -35z m190
5 c-3 -7 -5 -2 -5 12 0 14 2 19 5 13 2 -7 2 -19 0 -25z m9093 28 c0 -2 -6 -18
-14 -36 -10 -25 -14 -29 -20 -15 -12 33 -7 55 14 55 11 0 20 -2 20 -4z m-9660
-43 c0 -13 -3 -13 -15 -3 -8 7 -15 19 -15 27 0 13 3 13 15 3 8 -7 15 -19 15
-27z m303 -15 c3 -13 19 -61 35 -107 22 -60 28 -94 24 -123 -3 -28 -1 -43 9
-49 8 -5 9 -9 3 -9 -6 0 -11 -43 -12 -117 -2 -79 -7 -126 -17 -146 -8 -17 -15
-43 -15 -59 0 -18 -5 -28 -15 -28 -9 0 -15 -9 -15 -24 0 -14 -4 -28 -10 -31
-5 -3 -10 -1 -10 6 0 13 -29 38 -44 39 -14 0 2 -159 17 -175 12 -11 11 -24 -4
-87 -10 -40 -19 -96 -19 -125 0 -53 -5 -71 -43 -153 -34 -74 -43 -77 -58 -17
-6 28 -17 55 -23 59 -6 4 -13 61 -16 133 -5 94 -10 129 -21 136 -10 7 -11 11
-2 17 7 4 14 45 17 100 3 51 12 107 20 125 8 17 16 48 18 67 3 29 8 36 33 44
30 9 30 10 32 82 1 61 -1 74 -14 74 -11 0 -13 3 -5 13 10 11 27 115 36 217 6
78 29 145 48 142 9 -1 19 2 23 8 10 17 22 11 28 -12z m9197 -23 c0 -5 -5 -3
-10 5 -5 8 -10 20 -10 25 0 6 5 3 10 -5 5 -8 10 -19 10 -25z m87 -77 c-3 -22
-4 -22 -15 5 -9 22 -9 31 1 41 10 12 13 11 15 -5 2 -10 2 -29 -1 -41z m-9170
30 c-3 -8 -6 -5 -6 6 -1 11 2 17 5 13 3 -3 4 -12 1 -19z m-22 -107 c3 -5 1
-12 -5 -16 -5 -3 -10 1 -10 9 0 18 6 21 15 7z m9082 -73 c-3 -8 -6 -5 -6 6 -1
11 2 17 5 13 3 -3 4 -12 1 -19z m-9047 -134 c0 -8 -4 -12 -10 -9 -5 3 -10 10
-10 16 0 5 5 9 10 9 6 0 10 -7 10 -16z m-285 -92 c-5 -5 -18 26 -29 68 -3 14
3 5 14 -19 11 -24 18 -46 15 -49z m-262 -67 c5 -33 4 -46 -3 -39 -5 5 -12 39
-15 74 -6 73 7 48 18 -35z m87 28 c0 -32 -5 -28 -14 10 -4 19 -3 26 4 22 5 -3
10 -18 10 -32z m-26 -33 c4 -20 3 -30 -2 -25 -5 6 -12 26 -16 45 -4 20 -3 30
2 25 5 -6 12 -26 16 -45z m-25 -64 c14 -81 7 -102 -7 -24 -18 90 -20 110 -12
101 4 -4 13 -39 19 -77z m9621 63 c0 -11 -3 -11 -24 -3 -23 9 -20 23 4 17 11
-3 20 -9 20 -14z m26 -46 c-5 -12 -9 -13 -21 -3 -13 10 -12 15 3 35 16 22 17
22 20 3 2 -11 1 -26 -2 -35z m-9916 27 c0 -5 -2 -10 -4 -10 -3 0 -8 5 -11 10
-3 6 -1 10 4 10 6 0 11 -4 11 -10z m790 -33 c0 -18 -2 -19 -10 -7 -13 20 -13
43 0 35 6 -3 10 -16 10 -28z m-430 -13 c0 -13 -4 -24 -10 -24 -5 0 -10 14 -10
31 0 17 4 28 10 24 6 -3 10 -17 10 -31z m-330 -4 c0 -5 -4 -10 -10 -10 -5 0
-10 5 -10 10 0 6 5 10 10 10 6 0 10 -4 10 -10z m70 -174 c-7 -7 -10 -6 -10 3
0 8 -6 11 -15 7 -19 -7 -19 13 0 50 8 16 15 38 15 50 0 11 3 24 8 28 4 4 8
-23 10 -60 2 -38 -2 -72 -8 -78z m217 72 c-3 -8 -6 -5 -6 6 -1 11 2 17 5 13 3
-3 4 -12 1 -19z m-120 -45 c-3 -10 -5 -2 -5 17 0 19 2 27 5 18 2 -10 2 -26 0
-35z m161 -70 c14 -25 16 -121 2 -143 -16 -26 -25 0 -27 76 -1 41 -4 96 -7
122 l-6 47 13 -40 c6 -22 18 -50 25 -62z m-211 65 c-3 -8 -6 -5 -6 6 -1 11 2
17 5 13 3 -3 4 -12 1 -19z m10 -50 c-3 -7 -5 -2 -5 12 0 14 2 19 5 13 2 -7 2
-19 0 -25z m9673 -78 c0 -16 -4 -30 -10 -30 -5 0 -10 14 -10 30 0 17 5 30 10
30 6 0 10 -13 10 -30z m-9661 -92 c-1 -42 -3 -48 -9 -28 -12 36 -12 80 0 80 6
0 10 -24 9 -52z m168 -75 c-3 -10 -5 -2 -5 17 0 19 2 27 5 18 2 -10 2 -26 0
-35z m303 -23 c0 -5 -2 -10 -4 -10 -3 0 -8 5 -11 10 -3 6 -1 10 4 10 6 0 11
-4 11 -10z m9277 -42 c-3 -8 -6 -5 -6 6 -1 11 2 17 5 13 3 -3 4 -12 1 -19z
m-9268 -58 c0 -10 -3 -8 -9 5 -12 27 -12 43 0 25 5 -8 9 -22 9 -30z m-560
-114 c0 -49 -2 -86 -6 -83 -12 13 -22 122 -16 177 6 49 8 52 14 25 4 -16 7
-70 8 -119z m-72 112 c-3 -8 -6 -5 -6 6 -1 11 2 17 5 13 3 -3 4 -12 1 -19z
m10030 -70 c-3 -7 -5 -2 -5 12 0 14 2 19 5 13 2 -7 2 -19 0 -25z m-10078 -58
c0 -9 -4 -8 -9 5 -5 11 -9 27 -9 35 0 9 4 8 9 -5 5 -11 9 -27 9 -35z m678 18
c-3 -8 -6 -5 -6 6 -1 11 2 17 5 13 3 -3 4 -12 1 -19z m9283 -34 c0 -19 -4 -34
-10 -34 -5 0 -10 18 -10 41 0 24 4 38 10 34 6 -3 10 -22 10 -41z m-9910 -24
c0 -16 -4 -32 -10 -35 -6 -4 -10 10 -10 35 0 25 4 39 10 35 6 -3 10 -19 10
-35z m10087 -52 c-2 -13 -4 -3 -4 22 0 25 2 35 4 23 2 -13 2 -33 0 -45z
m-9620 -20 c-3 -8 -6 -5 -6 6 -1 11 2 17 5 13 3 -3 4 -12 1 -19z m428 -64 c4
-57 -6 -96 -20 -82 -10 10 -19 124 -11 144 12 31 27 0 31 -62z m9122 19 c-3
-10 -5 -4 -5 12 0 17 2 24 5 18 2 -7 2 -21 0 -30z m53 -93 c0 -55 -4 -100 -9
-100 -12 0 -18 19 -16 55 0 17 2 56 3 88 3 100 22 64 22 -43z m-10063 8 c-2
-13 -4 -3 -4 22 0 25 2 35 4 23 2 -13 2 -33 0 -45z m9994 -19 l-9 -54 -1 51
c0 28 2 54 6 57 12 13 13 0 4 -54z m-9464 -1 c-3 -7 -5 -2 -5 12 0 14 2 19 5
13 2 -7 2 -19 0 -25z m9580 0 c-3 -8 -6 -5 -6 6 -1 11 2 17 5 13 3 -3 4 -12 1
-19z m-9969 -99 c11 -56 3 -122 -16 -141 -19 -19 -30 26 -27 107 4 132 23 147
43 34z m-64 -87 c-3 -18 -9 -30 -15 -27 -11 7 -12 108 -2 119 12 11 24 -54 17
-92z m409 -159 c7 -40 0 -83 -13 -83 -12 0 -22 68 -15 101 8 38 21 30 28 -18z
m-372 -133 c14 -54 4 -180 -15 -180 -28 0 -47 159 -26 216 13 34 25 23 41 -36z
m9939 -21 c0 -62 -13 -79 -23 -30 -8 36 3 102 14 95 5 -3 9 -32 9 -65z m-9750
6 c12 -59 3 -160 -15 -160 -5 0 -13 14 -16 30 -9 41 -11 170 -2 178 15 15 22
4 33 -48z m9487 -392 c-3 -10 -5 -4 -5 12 0 17 2 24 5 18 2 -7 2 -21 0 -30z
m47 -286 c9 -38 13 -73 10 -79 -4 -6 -10 -44 -15 -87 -13 -113 -18 -131 -39
-131 -25 0 -35 73 -35 268 0 142 2 155 20 168 22 17 23 16 59 -139z"/>
<path d="M6554 9145 c-4 -9 -2 -21 3 -26 7 -7 12 -3 16 10 6 25 -11 39 -19 16z"/>
<path d="M5056 8707 c-16 -12 -16 -15 -1 -51 11 -27 20 -36 31 -32 9 3 20 6
25 6 5 0 4 10 -3 23 -12 21 -14 27 -17 55 -1 15 -13 15 -35 -1z"/>
<path d="M5955 8759 c-4 -6 -5 -12 -2 -15 2 -3 7 2 10 11 7 17 1 20 -8 4z"/>
<path d="M3301 7364 c0 -11 3 -14 6 -6 3 7 2 16 -1 19 -3 4 -6 -2 -5 -13z"/>
<path d="M640 3035 c0 -8 4 -15 10 -15 5 0 7 7 4 15 -4 8 -8 15 -10 15 -2 0
-4 -7 -4 -15z"/>
<path d="M4480 9237 c0 -7 19 -32 43 -55 l43 -43 26 21 c15 11 33 17 42 14 9
-3 16 -1 16 5 0 15 -117 71 -147 71 -13 0 -23 -6 -23 -13z"/>
<path d="M5433 9239 c-6 -6 -9 -18 -6 -25 3 -8 0 -14 -6 -14 -16 0 -61 -46
-61 -62 0 -7 11 -21 24 -30 22 -16 26 -15 84 13 68 32 89 58 71 87 -11 17 -61
42 -85 42 -6 0 -15 -5 -21 -11z"/>
<path d="M5574 9235 c-17 -13 -17 -14 -2 -15 9 0 20 5 23 11 11 17 0 20 -21 4z"/>
<path d="M5325 9200 c-3 -5 -2 -10 4 -10 5 0 13 5 16 10 3 6 2 10 -4 10 -5 0
-13 -4 -16 -10z"/>
<path d="M7260 9071 c0 -5 5 -13 10 -16 6 -3 10 -2 10 4 0 5 -4 13 -10 16 -5
3 -10 2 -10 -4z"/>
<path d="M4094 9015 c-40 -31 -133 -57 -203 -56 -61 1 -92 -21 -112 -78 -8
-23 -19 -34 -40 -38 -32 -6 -36 -15 -16 -35 7 -7 30 -37 51 -66 21 -29 43 -51
50 -49 6 2 12 21 14 43 4 49 21 67 75 84 23 8 49 19 57 26 8 7 27 10 43 7 16
-3 47 0 68 7 38 13 41 12 65 -13 16 -18 35 -27 55 -27 l30 0 -16 30 c-9 17
-22 30 -30 30 -9 0 -15 10 -15 26 0 14 -8 44 -19 67 -10 23 -20 48 -22 54 -3
8 -14 4 -35 -12z"/>
<path d="M8540 9010 c0 -5 5 -10 10 -10 6 0 10 5 10 10 0 6 -4 10 -10 10 -5 0
-10 -4 -10 -10z"/>
<path d="M8381 8991 c-6 -11 -11 -27 -11 -36 0 -13 4 -14 20 -5 21 11 27 44
11 55 -6 3 -15 -3 -20 -14z"/>
<path d="M7983 8973 c-13 -8 -23 -21 -23 -28 0 -8 -16 -23 -35 -35 -32 -20
-65 -60 -49 -60 18 0 74 43 74 57 0 11 6 14 21 10 13 -3 22 0 26 10 5 12 7 12
14 1 5 -7 9 -22 9 -33 1 -39 15 -49 44 -30 36 24 33 44 -12 88 -43 42 -40 41
-69 20z"/>
<path d="M8214 8935 c-10 -8 -27 -15 -36 -15 -35 0 -17 -18 21 -22 48 -4 61
-1 61 17 0 25 -25 36 -46 20z"/>
<path d="M8469 8920 c-10 -6 -33 -11 -53 -12 -20 -2 -36 -8 -36 -15 0 -20 140
3 148 25 4 14 -36 16 -59 2z"/>
<path d="M7521 8853 c0 -25 1 -26 9 -8 12 27 12 35 0 35 -5 0 -10 -12 -9 -27z"/>
<path d="M7978 8858 c-2 -15 -11 -24 -25 -26 -12 -2 -27 -10 -35 -19 -12 -15
-9 -16 26 -10 49 8 70 27 61 56 -8 28 -23 27 -27 -1z"/>
<path d="M8612 8872 c-9 -6 -4 -14 18 -30 16 -12 34 -22 40 -22 6 0 8 -5 4
-11 -4 -7 -1 -10 7 -7 28 9 22 46 -10 62 -34 18 -41 19 -59 8z"/>
<path d="M7771 8846 c-56 -12 -79 -31 -38 -32 12 0 36 -3 52 -7 35 -8 50 -1
59 31 8 25 8 25 -73 8z"/>
<path d="M7345 8840 c3 -5 8 -10 11 -10 2 0 4 5 4 10 0 6 -5 10 -11 10 -5 0
-7 -4 -4 -10z"/>
<path d="M7660 8841 c0 -13 26 -32 33 -24 14 13 6 33 -13 33 -11 0 -20 -4 -20
-9z"/>
<path d="M7888 8833 c-30 -15 -40 -50 -12 -39 9 3 18 6 20 6 2 0 4 5 4 11 0 7
8 18 18 25 22 17 5 16 -30 -3z"/>
<path d="M3479 8722 c14 -25 38 -45 44 -35 7 10 -28 53 -42 53 -8 0 -9 -6 -2
-18z"/>
<path d="M8775 8715 c-3 -8 -7 -22 -10 -30 -2 -9 2 -15 10 -15 8 0 15 -7 15
-15 0 -8 4 -15 9 -15 11 0 24 67 16 80 -9 15 -35 12 -40 -5z"/>
<path d="M3636 8536 c-18 -29 -20 -54 -5 -76 7 -11 8 -4 4 25 -4 32 -3 35 4
18 6 -13 18 -23 26 -23 13 0 15 6 10 33 -10 46 -20 52 -39 23z"/>
<path d="M3330 8457 c0 -14 5 -29 10 -32 7 -4 8 3 4 22 -9 38 -14 42 -14 10z"/>
<path d="M3673 8453 c-7 -3 -10 -18 -7 -41 l4 -37 -11 34 c-5 18 -13 31 -16
28 -9 -10 8 -67 20 -67 15 -1 67 -102 67 -130 0 -18 3 -19 22 -9 18 10 24 8
35 -7 7 -10 13 -24 13 -31 0 -21 18 -15 25 9 6 16 -1 28 -31 55 -22 19 -29 29
-17 23 12 -5 28 -9 35 -8 6 2 12 -2 13 -8 0 -6 8 -19 18 -29 16 -15 20 -16 28
-4 14 22 12 28 -35 93 -56 79 -74 94 -82 72 -12 -31 -43 -19 -50 19 -7 38 -12
45 -31 38z m99 -100 c2 -10 12 -18 22 -18 12 0 20 -8 22 -22 2 -13 -1 -23 -6
-23 -6 0 -10 7 -10 15 0 8 -8 15 -18 15 -10 0 -28 7 -41 16 -18 13 -20 18 -10
25 22 14 37 10 41 -8z"/>
<path d="M9402 7915 c-14 -31 -15 -35 -3 -35 5 0 14 14 20 30 12 36 -1 40 -17
5z"/>
<path d="M2730 7720 c0 -5 5 -10 11 -10 5 0 7 5 4 10 -3 6 -8 10 -11 10 -2 0
-4 -4 -4 -10z"/>
<path d="M8570 7706 c0 -8 5 -27 10 -42 8 -20 14 -24 22 -16 8 8 7 19 -2 41
-13 32 -30 41 -30 17z"/>
<path d="M2761 7684 c0 -11 3 -14 6 -6 3 7 2 16 -1 19 -3 4 -6 -2 -5 -13z"/>
<path d="M2400 7660 c0 -5 5 -10 10 -10 6 0 10 5 10 10 0 6 -4 10 -10 10 -5 0
-10 -4 -10 -10z"/>
<path d="M2872 7648 c2 -17 9 -22 23 -20 29 5 31 10 9 27 -27 20 -36 18 -32
-7z"/>
<path d="M2523 7622 c-13 -2 -23 -12 -25 -24 -4 -30 -26 -34 -37 -6 -10 23
-10 23 -10 1 -1 -12 9 -34 22 -48 18 -22 28 -25 50 -19 22 5 27 11 24 25 -3
11 -1 17 4 13 10 -6 10 11 1 41 -5 13 -14 19 -29 17z"/>
<path d="M2651 7614 c0 -11 3 -14 6 -6 3 7 2 16 -1 19 -3 4 -6 -2 -5 -13z"/>
<path d="M2676 7535 c4 -35 3 -55 -3 -55 -6 0 -13 9 -16 20 -3 11 -10 20 -16
20 -8 0 -6 -13 4 -37 19 -44 22 -48 43 -48 9 0 19 -11 23 -25 8 -29 10 -81 2
-62 -2 6 -10 12 -16 12 -12 0 -97 132 -97 149 0 5 -7 15 -17 22 -15 13 -16 11
-9 -13 6 -27 -8 -40 -17 -15 -2 6 -8 9 -12 5 -4 -4 -3 -13 3 -21 6 -7 10 -26
9 -42 -2 -23 -8 -30 -24 -29 -14 0 -19 -4 -16 -14 4 -8 14 -11 28 -8 25 6 39
-12 25 -34 -7 -11 -12 -11 -23 -2 -21 18 -28 -15 -27 -117 1 -61 6 -90 18
-107 21 -29 36 -31 29 -4 -3 13 0 20 8 20 7 0 15 6 18 13 3 9 13 10 45 1 51
-14 56 1 7 22 -26 11 -35 20 -35 39 0 13 -4 27 -10 30 -5 3 -10 16 -10 28 -3
74 -2 88 4 94 11 11 39 -11 56 -43 15 -29 39 -53 53 -54 4 0 7 12 7 26 0 14 4
23 10 19 6 -3 10 2 10 12 1 31 44 118 59 118 19 0 23 16 11 35 -9 13 -12 13
-23 -2 -9 -11 -18 -14 -27 -8 -12 7 -12 12 -2 22 14 14 16 58 2 58 -10 0 -14
-13 -11 -42 1 -10 -3 -18 -8 -18 -10 0 -13 9 -15 54 -1 10 -12 23 -24 27 -22
8 -22 7 -16 -46z m19 -215 c3 -5 2 -10 -4 -10 -5 0 -13 5 -16 10 -3 6 -2 10 4
10 5 0 13 -4 16 -10z m-135 -10 c0 -5 -5 -10 -11 -10 -5 0 -7 5 -4 10 3 6 8
10 11 10 2 0 4 -4 4 -10z"/>
<path d="M2185 7561 c-6 -11 9 -23 19 -14 9 9 7 23 -3 23 -6 0 -12 -4 -16 -9z"/>
<path d="M2817 7535 c3 -22 7 -42 9 -44 8 -9 2 45 -6 64 -7 14 -8 8 -3 -20z"/>
<path d="M2442 7478 c2 -40 -1 -57 -14 -70 -25 -25 -23 -65 3 -73 20 -7 18
-20 -4 -20 -7 0 -13 -9 -16 -20 -2 -11 -12 -28 -23 -37 -20 -17 -20 -24 -4
-73 4 -11 -9 12 -28 50 -20 39 -36 84 -37 100 -1 29 -1 29 -9 5 l-7 -25 -12
30 c-20 48 -25 85 -12 85 12 0 16 29 4 31 -56 9 -61 7 -66 -17 -2 -13 -1 -27
4 -29 4 -3 5 -21 2 -40 -4 -23 0 -43 11 -59 9 -14 16 -31 16 -38 -1 -7 -6 -3
-13 10 -14 24 -27 20 -27 -9 0 -17 40 -49 40 -32 0 4 10 -6 21 -24 11 -18 19
-40 17 -50 -3 -16 -7 -15 -28 8 -14 14 -35 29 -47 33 -13 4 -23 11 -23 16 0 5
8 7 18 4 9 -3 5 2 -10 12 -36 24 -46 48 -18 41 19 -5 20 -2 14 31 -4 21 -8 39
-10 41 -10 11 -44 -36 -44 -60 0 -15 -5 -40 -11 -56 -6 -15 -12 -46 -13 -68
-2 -22 -4 -44 -6 -50 -1 -5 -2 -21 -1 -34 1 -20 5 -22 27 -17 27 7 27 7 22
-44 -6 -56 24 -186 35 -157 12 31 24 18 30 -30 3 -27 13 -79 22 -118 9 -38 19
-87 22 -107 5 -32 10 -38 30 -38 13 0 38 6 56 14 l32 13 -3 99 c-4 124 -5 141
-14 150 -5 4 -8 12 -8 18 0 6 5 4 10 -4 7 -12 12 -12 21 -3 10 10 9 21 -1 53
-9 27 -16 36 -21 28 -4 -7 -11 -10 -14 -6 -10 10 26 119 41 125 8 3 12 9 9 13
-3 5 -2 35 2 67 6 51 7 55 14 29 4 -16 5 -42 2 -57 -3 -16 -1 -29 4 -29 5 0
19 -18 31 -39 18 -32 39 -51 57 -51 2 0 3 11 2 24 -1 13 -19 41 -39 61 -39 37
-46 51 -28 57 7 2 5 21 -4 52 -16 53 -13 71 10 62 8 -3 18 2 21 11 6 15 7 14
13 -3 4 -10 7 27 6 84 0 91 -2 102 -18 102 -10 0 -18 4 -18 9 0 5 -3 17 -7 27
-5 13 -3 15 7 9 10 -6 12 -4 7 9 -4 10 -7 20 -7 22 0 2 -5 4 -11 4 -7 0 -10
-19 -7 -52z m48 -129 c0 -6 -4 -7 -10 -4 -5 3 -10 11 -10 16 0 6 5 7 10 4 6
-3 10 -11 10 -16z m-193 -81 c-3 -8 -6 -5 -6 6 -1 11 2 17 5 13 3 -3 4 -12 1
-19z m-77 -92 c0 -3 -4 -8 -10 -11 -5 -3 -10 -1 -10 4 0 6 5 11 10 11 6 0 10
-2 10 -4z m-40 -30 c0 -8 -4 -18 -10 -21 -5 -3 -10 3 -10 14 0 12 5 21 10 21
6 0 10 -6 10 -14z m200 -2 c0 -8 -4 -12 -10 -9 -5 3 -10 10 -10 16 0 5 5 9 10
9 6 0 10 -7 10 -16z m-110 -29 c7 -9 8 -15 2 -15 -5 0 -12 7 -16 15 -3 8 -4
15 -2 15 2 0 9 -7 16 -15z m25 -98 c12 4 15 -4 15 -35 0 -26 5 -42 15 -46 17
-6 20 -36 4 -36 -6 0 -9 -9 -6 -20 4 -16 2 -18 -13 -10 -15 8 -19 6 -22 -12
-5 -32 -25 -33 -29 -1 -7 46 1 75 17 69 10 -4 14 3 14 28 0 26 -10 45 -40 77
-21 23 -37 46 -34 51 3 5 19 -9 35 -31 19 -25 35 -38 44 -34z m42 31 c-3 -8
-6 -5 -6 6 -1 11 2 17 5 13 3 -3 4 -12 1 -19z m-108 -112 c5 -22 6 -35 2 -30
-9 9 -27 83 -18 74 3 -3 10 -23 16 -44z m135 -177 c10 -17 15 -33 12 -36 -3
-4 -6 -1 -6 6 0 7 -4 9 -10 6 -5 -3 -10 3 -10 15 0 12 -4 18 -10 15 -5 -3 -10
1 -10 9 0 25 14 19 34 -15z m-84 7 c0 -3 -4 -8 -10 -11 -5 -3 -10 -1 -10 4 0
6 5 11 10 11 6 0 10 -2 10 -4z"/>
<path d="M2307 7389 c4 -13 8 -18 11 -10 2 7 -1 18 -6 23 -8 8 -9 4 -5 -13z"/>
<path d="M7646 7314 c-7 -18 0 -34 15 -34 5 0 9 11 9 25 0 28 -15 34 -24 9z"/>
<path d="M2620 7292 c0 -27 54 -103 64 -91 16 18 14 48 -4 64 -20 18 -20 18
-20 -6 0 -19 -2 -21 -10 -9 -5 8 -7 23 -4 33 3 11 0 17 -10 17 -9 0 -16 -4
-16 -8z"/>
<path d="M8560 7270 c0 -5 5 -10 10 -10 6 0 10 5 10 10 0 6 -4 10 -10 10 -5 0
-10 -4 -10 -10z"/>
<path d="M1372 7209 c3 -44 13 -55 36 -40 12 7 11 14 -2 39 -25 49 -38 50 -34
1z"/>
<path d="M8530 7220 c-7 -16 -10 -40 -7 -52 4 -12 1 -28 -5 -35 -6 -8 -8 -17
-4 -21 14 -13 29 32 30 85 1 29 0 53 0 53 -1 0 -7 -13 -14 -30z"/>
<path d="M1298 7189 c-35 -77 -42 -109 -23 -109 10 0 15 -9 15 -26 0 -18 -4
-25 -14 -21 -9 4 -16 -3 -20 -16 -9 -34 -7 -67 4 -67 6 0 10 5 10 11 0 8 5 8
15 -1 8 -7 15 -9 15 -4 0 5 6 46 14 91 8 48 9 80 3 76 -13 -8 2 38 18 57 11
12 11 19 0 39 -13 24 -13 24 -37 -30z m-1 -51 c-3 -8 -6 -5 -6 6 -1 11 2 17 5
13 3 -3 4 -12 1 -19z"/>
<path d="M2479 7165 c20 -53 31 -66 31 -36 0 12 -7 29 -15 37 -8 8 -12 21 -9
29 4 9 0 15 -9 15 -13 0 -13 -6 2 -45z"/>
<path d="M8607 7175 c-4 -9 -7 -26 -7 -37 0 -11 -5 -18 -12 -16 -7 3 -21 -6
-31 -19 -18 -22 -18 -23 2 -45 12 -12 21 -28 21 -35 0 -7 4 -13 8 -13 15 0 32
24 32 45 0 11 7 33 15 49 19 35 19 36 -4 65 -16 21 -19 21 -24 6z"/>
<path d="M730 7143 c1 -5 7 -19 15 -33 19 -33 19 -67 -1 -78 -14 -8 -14 -10 0
-21 14 -12 16 -10 16 8 0 25 8 26 38 5 20 -14 22 -14 22 0 0 9 7 16 15 16 8 0
15 -4 15 -10 0 -5 5 -10 11 -10 6 0 9 14 7 33 -2 23 -8 32 -20 31 -10 -1 -18
3 -18 8 0 6 -9 8 -20 5 -14 -4 -26 3 -41 24 -19 27 -39 38 -39 22z"/>
<path d="M854 7136 c-10 -8 -15 -18 -11 -22 4 -4 15 0 24 9 22 21 12 31 -13
13z"/>
<path d="M1393 7143 c-7 -3 -13 -9 -13 -15 0 -5 6 -8 13 -5 6 2 17 -3 24 -12
11 -15 12 -15 13 0 0 20 -21 38 -37 32z"/>
<path d="M2597 7134 c-6 -7 36 -84 46 -84 11 0 9 28 -3 35 -5 3 -10 14 -10 25
0 17 -23 34 -33 24z"/>
<path d="M1437 7080 c-6 -23 3 -26 21 -8 16 16 15 28 -2 28 -7 0 -16 -9 -19
-20z"/>
<path d="M2576 7088 c-4 -9 -1 -29 8 -45 12 -22 15 -24 15 -8 -1 11 -4 31 -9
45 -6 21 -8 22 -14 8z"/>
<path d="M1395 7070 c-3 -5 -1 -10 4 -10 6 0 11 5 11 10 0 6 -2 10 -4 10 -3 0
-8 -4 -11 -10z"/>
<path d="M2039 7039 c-20 -28 -20 -32 -5 -47 21 -21 35 -7 43 41 7 46 -8 48
-38 6z"/>
<path d="M1322 7020 c0 -14 2 -19 5 -12 2 6 2 18 0 25 -3 6 -5 1 -5 -13z"/>
<path d="M1330 6974 c0 -8 5 -12 10 -9 6 4 8 11 5 16 -9 14 -15 11 -15 -7z"/>
<path d="M2112 6970 c1 -14 -1 -30 -5 -37 -4 -7 1 -17 11 -25 10 -7 24 -24 31
-36 7 -13 15 -21 18 -19 9 10 -7 62 -33 102 -21 35 -24 37 -22 15z"/>
<path d="M810 6975 c-5 -25 4 -50 23 -65 17 -14 20 -27 18 -69 -1 -28 2 -51 7
-51 11 0 22 48 22 91 0 17 7 34 19 40 11 7 16 19 14 30 -5 17 -7 17 -26 4 -30
-21 -52 -19 -65 8 -6 12 -11 18 -12 12z"/>
<path d="M933 6963 c-13 -4 -12 -16 4 -80 5 -25 7 -22 14 22 8 51 3 66 -18 58z"/>
<path d="M975 6960 c3 -5 8 -10 11 -10 2 0 4 5 4 10 0 6 -5 10 -11 10 -5 0 -7
-4 -4 -10z"/>
<path d="M2607 6893 c-15 -14 -5 -23 26 -23 26 -1 29 -3 15 -10 -14 -9 -15
-16 -6 -40 13 -40 24 -38 33 6 4 25 2 41 -7 49 -17 17 -53 27 -61 18z"/>
<path d="M7786 6825 c-9 -13 -16 -28 -16 -32 0 -4 5 -1 10 7 8 12 10 11 10 -7
0 -14 6 -23 15 -23 8 0 15 -6 15 -14 0 -7 6 -18 13 -24 8 -7 12 -29 10 -61 -2
-39 0 -51 11 -51 20 0 31 19 18 32 -7 7 0 19 20 39 26 24 29 31 18 44 -7 9
-23 37 -35 63 -26 57 -62 68 -89 27z"/>
<path d="M2154 6823 c2 -10 7 -33 11 -50 4 -19 13 -33 21 -33 8 0 14 -5 14
-11 0 -6 7 -25 15 -42 8 -18 15 -51 17 -74 2 -32 6 -40 16 -34 10 6 7 28 -14
102 -14 52 -29 108 -34 124 -4 17 -8 24 -9 17 -1 -10 -5 -10 -17 2 -20 21 -27
20 -20 -1z"/>
<path d="M7733 6796 c2 -38 16 -50 19 -16 0 11 1 25 2 32 1 6 -4 13 -11 15 -8
3 -11 -8 -10 -31z"/>
<path d="M891 6764 c0 -11 3 -14 6 -6 3 7 2 16 -1 19 -3 4 -6 -2 -5 -13z"/>
<path d="M7490 6769 c0 -5 5 -7 10 -4 6 3 10 8 10 11 0 2 -4 4 -10 4 -5 0 -10
-5 -10 -11z"/>
<path d="M7951 6732 c-13 -25 -4 -53 10 -31 5 8 7 -13 4 -51 -5 -68 -33 -170
-47 -170 -12 0 26 -71 56 -107 20 -24 24 -36 19 -71 -5 -34 -3 -42 11 -42 11
0 16 9 16 28 0 16 13 41 30 61 34 38 36 48 15 75 -19 25 -38 10 -31 -24 6 -33
-19 -64 -30 -37 -10 27 0 72 16 72 8 0 16 8 18 19 3 13 0 16 -9 11 -6 -5 -10
-4 -7 1 8 13 -9 201 -22 240 -7 19 -15 32 -20 29 -5 -3 -10 1 -12 7 -3 8 -9 4
-17 -10z m36 -84 c-3 -8 -6 -5 -6 6 -1 11 2 17 5 13 3 -3 4 -12 1 -19z m3 -72
c0 -8 -4 -18 -10 -21 -5 -3 -10 3 -10 14 0 12 5 21 10 21 6 0 10 -6 10 -14z
m-13 -143 c-3 -10 -5 -4 -5 12 0 17 2 24 5 18 2 -7 2 -21 0 -30z"/>
<path d="M890 6703 c0 -24 2 -43 4 -43 8 0 12 60 4 72 -4 8 -8 -4 -8 -29z"/>
<path d="M1122 6670 c0 -19 2 -27 5 -17 2 9 2 25 0 35 -3 9 -5 1 -5 -18z"/>
<path d="M7497 6661 c-5 -21 9 -41 30 -41 16 0 16 2 1 35 -13 30 -24 32 -31 6z"/>
<path d="M820 6654 c0 -8 5 -12 10 -9 6 4 8 11 5 16 -9 14 -15 11 -15 -7z"/>
<path d="M743 6596 c-1 -46 9 -61 21 -30 9 24 7 38 -7 58 -12 17 -14 14 -14
-28z"/>
<path d="M2416 6633 c-11 -11 -6 -23 9 -23 8 0 15 4 15 9 0 13 -16 22 -24 14z"/>
<path d="M870 6618 c0 -9 -5 -18 -11 -20 -8 -3 -7 -17 2 -48 l12 -45 9 48 c5
30 5 54 -1 65 -10 16 -10 16 -11 0z"/>
<path d="M922 6600 c0 -14 2 -19 5 -12 2 6 2 18 0 25 -3 6 -5 1 -5 -13z"/>
<path d="M820 6603 c1 -5 8 -19 16 -33 8 -14 13 -17 10 -7 -3 10 -6 25 -6 33
0 8 -4 14 -10 14 -5 0 -10 -3 -10 -7z"/>
<path d="M8158 6577 c-3 -19 -2 -25 4 -19 6 6 8 18 6 28 -3 14 -5 12 -10 -9z"/>
<path d="M920 6523 c0 -23 5 -33 15 -33 8 0 15 -7 15 -15 0 -19 16 -19 24 0 3
8 -2 18 -10 23 -9 5 -17 20 -17 34 -3 38 -27 30 -27 -9z"/>
<path d="M737 6520 c3 -11 7 -20 9 -20 2 0 4 9 4 20 0 11 -4 20 -9 20 -5 0 -7
-9 -4 -20z"/>
<path d="M727 6451 c-3 -14 0 -35 8 -50 l14 -26 0 25 c-1 14 -4 36 -8 50 l-7
25 -7 -24z"/>
<path d="M8109 6423 c-5 -14 -6 -29 -1 -32 5 -3 11 -14 15 -23 13 -36 27 -17
25 32 -3 56 -22 68 -39 23z"/>
<path d="M834 6409 c-3 -6 -1 -16 5 -22 8 -8 11 -5 11 11 0 24 -5 28 -16 11z"/>
<path d="M735 6315 c4 -16 9 -41 10 -55 5 -43 21 -84 33 -88 20 -6 25 27 8 53
-9 13 -16 37 -16 53 0 17 -9 37 -21 48 l-22 19 8 -30z"/>
<path d="M712 6280 c0 -14 2 -19 5 -12 2 6 2 18 0 25 -3 6 -5 1 -5 -13z"/>
<path d="M592 6228 c-14 -14 -16 -38 -3 -38 8 0 23 41 17 47 -1 1 -8 -3 -14
-9z"/>
<path d="M690 6202 c0 -10 6 -41 14 -68 19 -65 26 -134 15 -134 -5 0 -9 -7 -9
-15 0 -8 6 -15 14 -15 21 0 31 -21 15 -31 -11 -8 -10 -12 6 -24 10 -8 19 -25
20 -38 0 -12 4 -23 9 -25 15 -4 16 79 2 108 -7 14 -16 39 -20 55 -7 28 -7 29
8 10 14 -19 14 -18 7 15 -11 47 -19 65 -49 128 -28 57 -32 61 -32 34z"/>
<path d="M730 6211 c0 -6 5 -13 10 -16 6 -3 10 1 10 9 0 9 -4 16 -10 16 -5 0
-10 -4 -10 -9z"/>
<path d="M621 6171 c-1 -24 2 -32 9 -25 7 7 7 19 1 35 -9 23 -10 22 -10 -10z"/>
<path d="M507 6168 c2 -13 -3 -54 -10 -93 -12 -56 -15 -63 -17 -35 -2 33 -3
33 -10 10 -4 -14 -8 -41 -8 -60 -1 -31 0 -32 8 -12 11 26 30 29 31 5 1 -10 5
-3 9 14 10 45 11 193 1 193 -4 0 -6 -10 -4 -22z"/>
<path d="M7990 6155 c0 -21 18 -55 29 -55 13 0 -3 63 -17 68 -6 2 -12 -4 -12
-13z"/>
<path d="M8203 6133 l0 -38 12 30 c13 29 11 45 -4 45 -4 0 -7 -17 -8 -37z"/>
<path d="M28 6117 l-28 -11 1 -233 c0 -139 4 -233 10 -233 5 0 9 -17 8 -37 0
-31 -2 -34 -9 -18 -6 13 -9 -22 -8 -97 0 -73 4 -118 10 -118 7 0 8 -28 3 -79
-5 -53 -3 -81 4 -85 6 -4 11 -16 11 -26 0 -12 6 -17 18 -16 15 3 17 19 17 167
0 90 -3 175 -8 188 -11 36 2 93 24 98 11 3 19 12 19 19 0 8 4 14 9 14 5 0 7
-44 3 -102 -5 -95 -4 -102 11 -89 9 7 24 11 32 7 14 -5 15 5 9 82 -7 97 -7 88
-5 122 l1 25 20 -25 20 -25 0 31 c0 18 -8 38 -19 48 -17 16 -19 16 -24 -5 -8
-30 -27 -14 -27 24 l-1 32 -19 -23 -18 -22 -7 65 c-10 92 -19 72 -17 -35 2
-73 0 -88 -12 -84 -19 7 -19 137 0 183 10 24 14 69 12 152 -1 66 -4 119 -7
118 -3 -1 -18 -6 -33 -12z m-1 -219 c-3 -8 -6 -5 -6 6 -1 11 2 17 5 13 3 -3 4
-12 1 -19z m10 -410 c-3 -7 -5 -2 -5 12 0 14 2 19 5 13 2 -7 2 -19 0 -25z"/>
<path d="M532 6039 c1 -63 6 -99 15 -107 11 -10 13 -7 13 18 0 29 14 42 22 18
7 -20 28 2 28 29 0 18 -4 24 -15 19 -11 -4 -17 3 -22 24 -3 16 -9 27 -14 24
-5 -3 -9 5 -9 18 0 13 -5 30 -10 38 -8 11 -10 -13 -8 -81z"/>
<path d="M595 6121 c-6 -11 9 -23 19 -14 9 9 7 23 -3 23 -6 0 -12 -4 -16 -9z"/>
<path d="M10192 6094 c-32 -22 -28 -44 7 -44 28 0 30 -3 34 -42 2 -29 4 -18 5
30 2 78 -4 86 -46 56z"/>
<path d="M590 6040 c0 -5 5 -10 10 -10 6 0 10 5 10 10 0 6 -4 10 -10 10 -5 0
-10 -4 -10 -10z"/>
<path d="M86 6025 c-3 -8 -1 -15 4 -15 6 0 10 7 10 15 0 8 -2 15 -4 15 -2 0
-6 -7 -10 -15z"/>
<path d="M128 6033 c-24 -6 -23 -38 2 -63 11 -11 21 -32 21 -47 1 -18 3 -21 6
-10 2 9 9 14 15 11 7 -4 8 11 3 47 -10 73 -9 72 -47 62z"/>
<path d="M407 5989 c-17 -26 -15 -83 4 -95 16 -9 29 45 21 84 l-8 37 -17 -26z"/>
<path d="M9953 5963 c-11 -28 -11 -28 -18 -6 -10 32 -27 18 -19 -15 8 -34 33
-81 34 -64 0 7 7 20 15 28 16 16 17 13 20 -71 0 -16 9 -57 19 -89 15 -48 20
-56 28 -42 6 11 6 35 -1 68 -6 28 -8 73 -5 99 5 34 3 49 -5 49 -6 0 -11 -5
-11 -12 0 -6 -3 -8 -7 -4 -5 4 0 14 11 21 13 10 17 21 12 40 -8 32 -32 28 -28
-5 2 -14 0 -20 -7 -16 -6 4 -11 16 -11 27 0 28 -14 23 -27 -8z"/>
<path d="M88 5950 c-12 -38 -10 -66 3 -53 6 6 9 26 7 44 -3 32 -3 33 -10 9z"/>
<path d="M796 5935 c8 -35 19 -51 27 -38 3 5 -3 22 -14 39 l-20 29 7 -30z"/>
<path d="M338 5923 c-13 -3 -18 -14 -18 -36 0 -22 3 -28 9 -18 5 7 14 10 20 7
7 -5 11 4 11 23 0 17 -1 30 -2 30 -2 -1 -11 -3 -20 -6z"/>
<path d="M701 5914 c0 -11 3 -14 6 -6 3 7 2 16 -1 19 -3 4 -6 -2 -5 -13z"/>
<path d="M711 5879 c0 -9 2 -18 5 -21 10 -10 10 -142 1 -165 -11 -25 -1 -93
13 -93 6 0 11 12 11 28 2 23 2 24 6 4 5 -27 23 -19 24 11 1 20 2 20 9 -3 5
-17 8 3 8 60 0 47 -3 94 -8 105 -8 19 -9 19 -9 -3 -1 -36 -18 -17 -25 28 -3
23 -10 38 -15 35 -5 -3 -12 3 -14 12 -4 14 -5 15 -6 2z"/>
<path d="M10232 5850 c0 -19 2 -27 5 -17 2 9 2 25 0 35 -3 9 -5 1 -5 -18z"/>
<path d="M163 5824 c-3 -8 -1 -25 5 -37 10 -20 11 -18 11 16 1 39 -5 48 -16
21z"/>
<path d="M9482 5820 c0 -14 2 -19 5 -12 2 6 2 18 0 25 -3 6 -5 1 -5 -13z"/>
<path d="M9570 5806 c-12 -32 -9 -38 20 -43 24 -3 27 24 6 53 -14 18 -15 18
-26 -10z"/>
<path d="M10232 5765 c0 -16 2 -22 5 -12 2 9 2 23 0 30 -3 6 -5 -1 -5 -18z"/>
<path d="M9570 5731 c0 -6 5 -13 10 -16 6 -3 10 1 10 9 0 9 -4 16 -10 16 -5 0
-10 -4 -10 -9z"/>
<path d="M10215 5698 c4 -13 11 -45 15 -73 7 -50 7 -49 9 23 1 60 -2 72 -15
72 -12 0 -15 -5 -9 -22z"/>
<path d="M9581 5684 c0 -11 3 -14 6 -6 3 7 2 16 -1 19 -3 4 -6 -2 -5 -13z"/>
<path d="M10174 5666 c-3 -8 -1 -31 5 -53 6 -21 11 -55 11 -76 0 -39 12 -71
37 -95 11 -11 13 -7 13 25 -1 38 -21 79 -33 66 -4 -3 -7 28 -7 70 0 46 -4 77
-10 77 -6 0 -13 -6 -16 -14z"/>
<path d="M1595 5540 c3 -5 8 -10 11 -10 2 0 4 5 4 10 0 6 -5 10 -11 10 -5 0
-7 -4 -4 -10z"/>
<path d="M194 5505 c-3 -19 -1 -79 5 -132 11 -94 21 -131 21 -82 0 19 2 21 10
9 8 -13 10 -12 10 3 0 10 -7 25 -16 34 -13 13 -14 31 -8 103 4 58 3 90 -4 94
-7 4 -14 -7 -18 -29z"/>
<path d="M837 5453 c9 -62 23 -75 21 -19 -2 28 -8 51 -15 53 -9 3 -10 -7 -6
-34z"/>
<path d="M1437 5460 c-4 -14 -4 -68 0 -120 6 -85 8 -90 14 -52 10 53 -3 209
-14 172z"/>
<path d="M0 5176 c0 -8 5 -18 10 -21 8 -5 7 -11 -1 -21 -8 -9 -9 -29 -4 -57
10 -58 15 -232 5 -187 -4 19 -8 -82 -8 -225 -1 -151 2 -254 7 -245 5 8 16 62
25 119 9 57 22 113 28 124 18 35 29 80 38 166 7 68 6 88 -5 105 -17 24 -20 89
-4 117 11 22 3 62 -12 53 -5 -3 -7 -14 -4 -25 4 -11 0 -26 -9 -35 -15 -14 -17
-13 -26 11 -6 15 -8 30 -6 34 7 11 -15 101 -25 101 -5 0 -9 -6 -9 -14z m59
-248 c9 -42 9 -62 2 -75 -10 -15 -10 -14 -5 8 3 17 0 30 -10 38 -10 9 -16 30
-16 59 0 58 13 44 29 -30z m-40 -252 c-5 -6 -9 10 -8 40 l1 49 8 -40 c5 -22 4
-44 -1 -49z m28 42 c-3 -7 -5 -2 -5 12 0 14 2 19 5 13 2 -7 2 -19 0 -25z"/>
<path d="M10180 5167 c0 -13 10 -37 22 -52 14 -18 21 -41 21 -64 l-1 -36 9 40
c8 33 6 47 -11 82 -26 52 -40 62 -40 30z"/>
<path d="M1443 5145 c0 -22 2 -30 4 -17 2 12 2 30 0 40 -3 9 -5 -1 -4 -23z"/>
<path d="M207 5153 c-11 -18 -28 -126 -23 -140 4 -9 2 -30 -4 -47 -12 -39 -39
-256 -31 -256 18 0 41 68 36 108 -5 33 -2 47 15 64 15 17 20 35 20 79 0 32 4
69 10 84 6 16 6 24 0 20 -5 -3 -7 14 -3 45 4 33 2 50 -5 50 -6 0 -13 -3 -15
-7z"/>
<path d="M1 2624 c0 -11 3 -14 6 -6 3 7 2 16 -1 19 -3 4 -6 -2 -5 -13z"/>
<path d="M3 2530 c0 -25 2 -35 4 -22 2 12 2 32 0 45 -2 12 -4 2 -4 -23z"/>
</g>
</svg>
