<?xml version="1.0" standalone="no"?>
<!DOCTYPE svg PUBLIC "-//W3C//DTD SVG 20010904//EN"
 "http://www.w3.org/TR/2001/REC-SVG-20010904/DTD/svg10.dtd">
<svg version="1.0" xmlns="http://www.w3.org/2000/svg"
 width="1024.000000pt" height="539.000000pt" viewBox="0 0 1024.000000 539.000000"
 preserveAspectRatio="xMidYMid meet">
<metadata>
Created by potrace 1.16, written by Peter Selinger 2001-2019
</metadata>
<g transform="translate(0.000000,539.000000) scale(0.100000,-0.100000)"
fill="#000000" stroke="none">
<path d="M3305 4843 c-17 -16 -17 -51 1 -98 6 -16 0 -14 -27 10 -33 29 -33 28
4 -10 20 -23 37 -47 37 -54 0 -10 -10 -12 -37 -8 l-38 5 33 -14 c33 -14 44
-44 16 -44 -14 0 -14 -1 0 -16 20 -20 20 -30 1 -38 -14 -5 -14 -9 0 -36 17
-34 41 -39 61 -12 15 18 19 52 7 52 -5 0 -9 20 -10 44 -1 39 2 45 20 49 18 3
17 5 -5 6 -37 1 -36 23 2 54 17 14 30 29 30 33 0 4 -12 -3 -26 -17 l-26 -24 7
30 c4 17 9 36 11 44 5 16 -22 61 -36 61 -4 0 -16 -8 -25 -17z"/>
<path d="M4801 4762 c-6 -11 -5 -30 4 -56 8 -22 12 -43 10 -47 -3 -4 2 -9 10
-13 8 -3 15 -15 15 -27 0 -18 -5 -21 -34 -17 -19 2 -32 0 -30 -4 3 -4 16 -8
29 -8 29 0 41 -16 26 -34 -8 -10 -7 -16 3 -26 12 -9 13 -16 3 -30 -9 -15 -8
-23 7 -39 27 -30 51 -26 67 10 11 27 10 33 -2 43 -8 6 -13 18 -11 28 2 9 -2
19 -7 23 -19 11 -12 31 14 43 13 6 31 26 40 44 8 18 10 24 3 14 -25 -37 -49
-57 -66 -54 -14 3 -16 14 -14 65 2 34 -2 71 -8 83 -13 25 -46 26 -59 2z"/>
<path d="M3226 4737 c3 -10 9 -15 12 -12 3 3 0 11 -7 18 -10 9 -11 8 -5 -6z"/>
<path d="M3429 4723 c-13 -16 -12 -17 4 -4 9 7 17 15 17 17 0 8 -8 3 -21 -13z"/>
<path d="M4884 4678 l-19 -23 23 19 c21 18 27 26 19 26 -2 0 -12 -10 -23 -22z"/>
<path d="M3770 4656 c-9 -25 -7 -103 4 -113 3 -4 6 -13 6 -21 0 -11 -9 -13
-37 -10 -36 5 -36 5 -10 -5 29 -12 37 -37 12 -37 -9 0 -26 -11 -39 -25 -20
-22 -25 -23 -36 -10 -9 10 -17 12 -30 5 -9 -5 -20 -7 -23 -4 -6 6 6 -47 18
-81 5 -15 -1 -12 -21 10 -26 29 -26 29 -11 3 20 -32 13 -65 -10 -46 -16 13
-63 18 -63 7 0 -4 -3 -16 -7 -26 -6 -17 -6 -17 15 0 22 20 45 15 36 -7 -3 -8
-13 -17 -22 -20 -9 -3 -23 -9 -29 -12 -8 -3 -13 1 -13 10 0 24 -38 40 -57 24
-21 -17 -54 -95 -47 -112 8 -20 -12 -29 -36 -16 -17 9 -19 14 -9 26 10 12 14
12 22 2 6 -10 7 -9 4 4 -3 9 -1 18 5 20 8 3 8 12 -1 34 -10 26 -11 27 -6 3 3
-18 -2 -32 -15 -44 -11 -10 -20 -15 -20 -10 0 4 -7 2 -15 -5 -21 -17 -20 4 1
25 13 13 15 23 7 48 -10 37 -32 44 -73 23 -32 -16 -35 -14 -20 13 13 25 -34
48 -57 29 -19 -16 -37 -57 -35 -83 1 -14 -2 -11 -9 8 -9 23 -14 26 -25 16 -12
-9 -12 -14 -3 -20 10 -6 10 -11 0 -23 -15 -18 -35 -11 -24 7 4 7 6 23 5 37 -2
20 -1 22 7 10 9 -13 11 -13 11 3 0 9 -4 17 -8 17 -4 0 -13 14 -19 30 -12 32
-39 40 -61 18 -9 -9 -16 -8 -29 5 -14 14 -15 21 -6 36 10 15 9 20 -2 25 -24 9
-17 21 25 45 46 25 55 39 11 17 l-28 -15 14 41 c15 45 11 73 -15 83 -29 11
-55 -32 -47 -79 l6 -40 -28 24 c-20 18 -19 15 6 -12 22 -24 31 -42 27 -53 -7
-20 -44 -12 -65 14 -10 13 -12 13 -9 1 3 -8 17 -21 31 -28 15 -7 27 -19 27
-27 0 -13 -29 -28 -46 -23 -5 1 -19 -3 -31 -10 -27 -15 -26 -15 -12 27 16 45
5 81 -26 81 -31 0 -38 -13 -37 -67 l0 -45 -26 23 c-17 15 -14 9 7 -13 33 -36
37 -68 9 -68 -22 0 -41 17 -36 31 9 24 -10 59 -31 59 -27 0 -44 -34 -39 -76 2
-19 1 -34 -3 -34 -15 0 -39 45 -39 71 0 15 -7 33 -17 40 -15 13 -15 12 -6 -6
24 -46 25 -144 2 -130 -4 3 -5 13 -2 23 3 9 3 14 -2 10 -4 -4 -16 4 -27 17
-24 31 -42 32 -62 3 -19 -27 -32 -18 -16 12 6 11 10 35 8 53 -2 25 -8 33 -27
35 -29 5 -41 -12 -41 -60 0 -42 -13 -48 -42 -21 -17 15 -18 15 -13 1 4 -9 13
-19 21 -22 8 -3 14 -19 14 -36 0 -17 -4 -29 -8 -26 -4 2 -14 1 -22 -5 -11 -6
-11 -9 -2 -10 6 -1 17 -2 24 -3 14 -1 23 -26 9 -26 -5 0 -13 5 -16 10 -10 16
-25 12 -25 -7 0 -29 -22 2 -24 34 -4 42 -13 53 -46 53 -39 0 -44 -11 -49 -90
-1 -19 -4 -22 -10 -11 -6 9 -5 24 0 39 8 20 7 23 -7 18 -14 -5 -15 -1 -10 30
10 51 0 90 -24 90 -11 0 -20 -4 -20 -8 0 -4 -16 -8 -35 -8 -45 0 -47 23 -2 50
29 18 79 29 64 13 -12 -12 15 -33 43 -33 34 0 45 23 27 58 -9 19 -19 26 -35
24 -17 -3 -22 2 -22 19 0 17 -3 19 -14 10 -10 -9 -16 -8 -26 4 -11 13 -9 19 6
38 19 22 19 22 -7 -1 -35 -31 -59 -20 -60 27 -2 28 -3 30 -6 10 l-4 -26 -29
28 c-31 32 -77 39 -86 14 -7 -18 16 -80 25 -67 4 5 16 4 31 -2 22 -10 25 -17
25 -61 0 -27 4 -58 10 -67 15 -26 -6 -43 -35 -28 -12 6 -24 9 -27 6 -3 -3 5
-10 19 -15 37 -14 43 -39 11 -47 -14 -4 -39 -21 -55 -38 l-29 -31 4 29 c7 46
-11 86 -38 86 -13 0 -29 -8 -34 -17 -9 -16 -10 -16 -11 4 0 12 6 24 13 26 6 3
0 6 -15 6 -33 1 -35 15 -8 56 11 17 20 35 20 40 -1 6 -8 -3 -17 -20 l-17 -30
-8 44 c-9 54 -28 76 -57 66 -25 -8 -28 -50 -6 -82 15 -21 5 -41 -14 -29 -5 4
-11 0 -14 -6 -4 -10 -7 -11 -18 0 -8 7 -9 12 -2 12 16 0 -28 110 -48 123 -47
30 -65 -32 -24 -81 18 -22 22 -32 13 -35 -7 -3 -3 -6 8 -6 12 -1 27 -7 33 -15
10 -12 7 -18 -14 -32 -14 -9 -23 -19 -21 -22 3 -3 13 1 22 8 13 12 17 11 25
-1 5 -8 7 -19 4 -26 -2 -6 2 -17 10 -23 8 -6 12 -17 9 -25 -3 -7 -1 -16 5 -20
6 -3 11 -17 11 -31 0 -28 -20 -24 -20 4 -1 9 -7 31 -16 47 -14 30 -13 8 2 -30
7 -19 7 -19 -13 -2 -11 9 -29 17 -42 17 -12 0 -24 -8 -28 -17 -3 -10 -12 -26
-20 -35 -11 -12 -12 -21 -4 -36 8 -15 7 -21 -4 -26 -8 -3 -17 0 -21 6 -4 7 -3
8 4 4 7 -4 12 -5 12 -3 0 12 -33 68 -43 73 -8 5 -8 3 1 -7 14 -16 16 -65 2
-74 -14 -9 -38 17 -46 49 -3 14 -10 29 -15 32 -5 3 -4 -7 1 -21 6 -15 10 -28
10 -29 0 -2 -18 5 -40 16 -61 31 -108 2 -75 -45 8 -12 15 -30 15 -39 0 -17 -2
-18 -31 -3 -38 20 -83 16 -87 -8 -6 -30 17 -47 64 -47 49 0 55 -11 21 -37
l-23 -17 20 -23 c11 -13 26 -23 33 -23 9 0 11 -8 7 -24 -3 -13 -1 -27 5 -30 6
-4 11 -13 11 -21 0 -11 -8 -10 -39 3 -22 9 -36 21 -33 27 3 5 -5 3 -18 -6 -34
-22 -36 -50 -5 -79 24 -23 36 -58 14 -45 -17 11 -80 8 -92 -4 -6 -6 -10 -28
-8 -47 l3 -36 -36 36 c-40 39 -57 44 -76 21 -20 -24 -7 -49 40 -71 27 -13 38
-24 30 -26 -8 -3 -4 -3 10 -1 14 1 32 -2 40 -7 13 -9 11 -14 -13 -35 -30 -27
-24 -35 9 -10 26 20 44 19 44 -4 0 -14 6 -19 24 -17 18 2 22 -1 19 -15 -6 -23
57 -44 70 -23 5 9 13 11 25 5 29 -16 56 -24 72 -22 11 1 10 -1 -3 -9 -9 -6
-22 -8 -29 -4 -7 4 -8 3 -4 -5 8 -13 -7 -30 -49 -51 -15 -8 -30 -20 -32 -26
-6 -19 28 -46 51 -41 12 3 32 8 46 12 23 6 24 5 5 -6 -11 -7 -29 -21 -39 -31
-18 -16 -21 -16 -37 -2 -13 11 -18 12 -21 3 -7 -21 -38 -1 -38 24 0 14 -13 35
-33 53 l-32 29 28 -31 c28 -31 36 -77 15 -90 -7 -4 -16 0 -22 11 -6 10 -22 30
-34 44 l-24 26 22 -32 c25 -38 25 -38 -25 -17 -45 19 -85 7 -85 -25 0 -28 36
-44 84 -38 l41 6 -28 -25 c-15 -13 -24 -24 -19 -24 4 0 21 14 37 30 41 43 59
40 52 -7 l-6 -38 15 28 c17 32 44 36 44 6 0 -18 2 -19 15 -5 14 13 18 12 39
-7 13 -12 26 -29 28 -37 3 -8 4 -3 2 12 -3 24 10 38 36 38 15 0 18 -39 4 -44
-10 -4 -12 -14 -8 -31 5 -21 3 -24 -10 -19 -9 3 -22 1 -30 -5 -11 -9 -18 -6
-35 15 -27 34 -26 42 2 47 16 3 13 5 -11 6 l-33 1 16 -29 15 -30 -36 15 c-61
26 -110 -1 -79 -43 10 -13 25 -18 60 -16 l47 2 -18 -22 c-11 -13 -6 -11 12 6
33 29 50 34 57 15 9 -29 -5 -47 -42 -50 -28 -2 -37 -8 -39 -25 -4 -28 29 -46
74 -41 61 7 19 -33 -50 -47 -15 -3 -27 -8 -24 -10 2 -2 22 0 45 5 26 6 51 6
65 1 l23 -10 -22 0 c-13 -1 -23 -6 -23 -12 0 -6 -7 -17 -15 -25 -21 -22 -19
-52 5 -59 11 -3 20 -11 20 -17 0 -6 -9 -8 -22 -3 -57 18 -81 18 -94 0 -22 -30
0 -55 46 -55 43 0 58 -13 40 -35 -7 -9 -8 -15 -2 -15 5 0 12 7 16 15 6 17 56
21 56 5 0 -6 13 -17 30 -24 l30 -12 -45 -22 c-25 -12 -45 -18 -45 -14 0 5 -7
9 -16 9 -15 0 -15 -1 0 -12 23 -17 22 -56 -1 -49 -10 3 -4 -3 12 -13 l30 -18
-37 -3 c-21 -2 -38 -7 -38 -12 0 -15 -32 -20 -48 -8 -13 11 -13 9 1 -12 24
-35 22 -38 -21 -27 -43 11 -69 5 -78 -18 -12 -29 16 -47 67 -43 l48 3 -22 -25
c-19 -22 -18 -22 9 3 38 34 64 36 64 2 0 -18 4 -23 15 -19 8 4 15 1 15 -5 0
-6 8 -8 18 -5 16 5 16 5 -1 -6 -9 -6 -22 -8 -27 -5 -42 26 -100 13 -100 -21 0
-29 39 -48 80 -39 35 8 84 -29 60 -45 -24 -16 -36 -12 -14 6 18 14 18 15 -6 8
-14 -4 -43 -7 -65 -8 -40 -1 -67 -14 -58 -29 2 -4 -3 -10 -13 -14 -11 -4 -23
2 -36 18 -17 22 -18 22 -9 2 26 -52 4 -69 -42 -33 -14 11 -29 20 -34 20 -4 0
3 -9 17 -20 l25 -20 -38 0 c-51 0 -77 -15 -77 -45 0 -34 32 -41 80 -17 45 22
46 22 25 -18 -9 -17 -13 -30 -10 -30 4 0 15 20 26 45 22 50 29 57 48 45 9 -5
12 -20 9 -39 -3 -17 -1 -28 3 -24 4 4 9 21 11 37 2 16 8 31 15 33 15 5 39 -37
25 -46 -5 -3 -13 -28 -17 -56 -4 -27 -12 -54 -18 -58 -8 -5 -7 -7 3 -6 19 3
66 -16 75 -30 3 -7 -3 -11 -17 -12 -20 -1 -21 -2 -3 -6 24 -6 45 -22 45 -34 0
-5 -13 -3 -30 6 -57 30 -119 7 -92 -35 9 -14 7 -21 -9 -36 -12 -11 -17 -25
-14 -38 6 -21 6 -21 -9 -2 -9 11 -16 15 -16 8 0 -16 40 -41 56 -35 10 4 11 0
1 -21 -7 -14 -17 -26 -24 -26 -6 0 -13 -5 -15 -12 -6 -16 -26 -2 -49 36 -20
33 -27 29 -8 -5 9 -18 8 -19 -9 -10 -25 13 -74 17 -90 7 -19 -12 -14 -44 9
-57 12 -6 37 -9 57 -5 l35 5 -24 -27 c-19 -20 -16 -19 14 6 22 18 44 31 50 29
7 -2 12 -20 12 -40 -1 -19 3 -33 7 -31 4 3 8 16 8 29 0 18 4 22 19 18 27 -7
32 -37 10 -52 -23 -13 -25 -60 -4 -66 50 -16 47 -13 31 -36 -8 -12 -12 -27
-10 -34 6 -15 -47 -28 -60 -14 -6 5 -14 9 -19 9 -5 0 1 -9 14 -20 14 -12 17
-18 8 -14 -22 7 -88 -21 -95 -41 -8 -20 13 -45 38 -45 10 0 30 7 44 16 13 9
27 14 30 11 8 -7 -14 -47 -26 -47 -6 0 -10 -5 -10 -11 0 -5 4 -8 9 -5 12 8 9
-47 -4 -56 -6 -5 -2 -8 8 -8 25 0 21 -13 -13 -38 -50 -37 -32 -100 21 -72 20
11 28 -3 9 -15 -16 -10 -11 -43 7 -54 13 -7 26 -4 49 10 l32 19 5 -22 c4 -14
0 -30 -11 -42 -9 -11 -12 -16 -5 -13 6 4 14 1 17 -5 3 -7 4 -4 3 7 -1 15 5 21
26 23 16 2 31 10 34 18 7 18 23 18 23 0 0 -8 -15 -27 -32 -42 -31 -25 -31 -25
-4 -9 28 17 29 17 22 -1 -18 -44 -18 -81 -1 -97 22 -23 32 -21 49 6 13 20 14
30 1 82 -18 76 -18 85 0 61 14 -18 15 -18 15 -2 0 13 5 16 23 11 21 -6 21 -5
2 7 -26 16 -26 27 1 54 24 24 44 21 37 -7 -3 -11 -2 -19 3 -18 15 4 73 -12 80
-22 3 -5 0 -26 -6 -45 -10 -30 -10 -39 4 -52 12 -13 20 -13 41 -4 14 6 25 8
25 4 0 -24 27 -43 52 -37 21 5 28 15 33 46 6 35 25 56 25 27 0 -6 2 -9 5 -6 8
7 -6 39 -14 34 -4 -3 -7 5 -7 16 0 19 1 19 18 -2 10 -12 18 -18 18 -12 0 11
30 25 37 18 3 -2 -3 -18 -11 -35 -22 -42 -20 -68 6 -77 16 -5 27 -1 40 16 10
12 18 28 18 36 0 8 5 14 11 14 5 0 7 5 3 12 -5 7 -3 8 6 3 10 -6 11 -4 5 11
-12 30 -11 57 4 62 10 3 12 -3 6 -26 -4 -19 -2 -33 5 -37 9 -6 9 -10 -1 -16
-11 -6 -11 -13 -3 -26 14 -23 7 -43 -14 -43 -9 0 -23 -4 -31 -9 -8 -5 0 -8 24
-7 51 1 54 -17 8 -48 -21 -14 -32 -26 -26 -26 7 0 15 5 18 10 15 23 21 7 12
-28 -11 -43 -5 -69 18 -78 29 -12 47 16 43 67 l-3 48 30 -27 c17 -15 13 -9 -9
15 -42 45 -44 75 -4 66 13 -3 29 -13 37 -22 11 -13 12 -13 9 -1 -3 8 -17 21
-31 28 -28 13 -37 41 -14 43 6 0 26 2 42 2 26 2 30 6 33 35 2 19 9 32 17 32
12 0 12 -6 -1 -36 -21 -50 -11 -74 31 -74 24 0 39 7 54 26 11 15 18 31 14 37
-3 6 -1 7 5 3 7 -4 12 -15 13 -24 0 -14 2 -13 8 3 7 17 8 17 13 -8 3 -15 2
-27 -1 -27 -3 0 -12 -10 -20 -22 -13 -22 -13 -23 6 -6 28 25 33 22 27 -12 -10
-47 3 -80 31 -80 28 0 40 27 31 73 -3 18 -2 39 3 46 6 9 6 22 0 33 -8 15 -6
18 11 18 15 0 20 -7 20 -24 0 -14 -4 -27 -9 -30 -4 -3 3 -28 16 -56 27 -57 39
-68 17 -15 -7 19 -13 49 -13 67 1 18 3 26 5 18 5 -17 58 -50 80 -50 8 0 19 13
25 28 11 31 54 53 84 42 13 -4 15 -9 7 -14 -7 -4 -12 -12 -12 -18 0 -6 8 -4
18 5 10 10 20 17 23 17 2 0 4 -24 4 -52 0 -50 2 -53 27 -56 32 -4 43 22 33 74
-3 19 -2 34 4 34 10 0 9 25 -2 36 -15 15 -7 32 13 27 21 -6 26 -28 11 -51 -5
-8 1 -31 16 -59 29 -59 40 -69 19 -19 -9 21 -16 51 -16 67 0 30 13 38 26 17 4
-7 3 -8 -4 -4 -7 4 -12 2 -12 -3 0 -6 6 -11 14 -11 7 0 19 -7 26 -15 16 -19
49 -19 55 0 16 51 17 51 28 28 16 -36 67 -24 67 17 0 8 10 20 22 25 12 6 24
17 26 25 3 10 -2 8 -13 -5 -15 -18 -16 -18 -11 -2 3 10 7 31 7 45 1 21 2 23 6
7 3 -11 17 -33 31 -49 17 -19 21 -27 11 -23 -13 4 -16 1 -12 -14 4 -15 9 -17
16 -10 17 17 27 13 27 -12 0 -13 -9 -32 -20 -42 -11 -10 -20 -26 -20 -36 0
-19 26 -37 48 -33 6 1 17 2 22 3 6 0 10 7 10 14 0 7 9 13 21 13 16 0 20 -5 16
-23 -2 -13 1 -23 7 -23 6 0 17 -9 24 -21 19 -30 56 -22 60 14 2 16 -3 36 -11
45 -26 31 -27 40 -7 45 11 3 18 1 14 -4 -3 -5 2 -9 10 -9 9 0 16 -9 16 -20 0
-12 5 -17 14 -14 19 7 45 -32 40 -59 -2 -12 2 -7 9 11 13 35 27 33 27 -4 0
-53 22 -66 75 -42 18 8 24 16 19 27 -11 25 -13 77 -3 92 6 10 9 10 9 2 0 -16
29 -51 53 -64 13 -7 23 -7 33 2 22 18 17 40 -18 76 l-32 33 32 0 c25 0 33 5
37 23 5 19 12 23 35 19 30 -4 35 3 42 68 2 14 8 23 13 20 6 -3 9 -11 9 -17 -1
-7 2 -10 7 -8 10 7 49 -30 49 -46 0 -5 -3 -8 -8 -5 -4 2 -12 -6 -18 -19 -11
-24 -11 -24 14 -7 l25 16 -7 -37 c-8 -43 7 -77 34 -77 29 0 43 34 31 75 -5 19
-6 35 -1 35 14 0 50 -51 50 -71 0 -11 5 -19 10 -19 6 0 4 15 -5 36 -20 47 -19
81 0 81 9 0 14 -6 11 -14 -5 -13 41 -43 68 -43 8 0 19 14 25 30 5 17 14 30 18
30 5 0 9 10 10 22 1 11 7 24 14 28 17 11 49 0 49 -16 0 -19 -19 -18 -27 2 -5
13 -7 13 -14 2 -12 -18 -11 -31 1 -23 6 3 10 1 10 -4 0 -6 -4 -11 -10 -11 -5
0 -10 -5 -10 -10 0 -6 11 -3 25 6 14 9 25 12 25 6 0 -6 -4 -13 -8 -16 -11 -6
-3 -67 10 -83 6 -7 26 -13 45 -13 l35 0 -32 -31 c-22 -22 -30 -39 -28 -58 6
-53 70 -30 83 30 4 17 11 26 17 23 7 -5 9 2 4 19 -8 34 7 42 41 20 15 -10 24
-12 19 -5 -4 7 -2 20 5 28 7 9 12 29 11 44 -2 21 2 27 15 26 13 -1 19 8 22 29
4 29 4 30 10 5 14 -51 66 -33 77 26 3 19 9 34 13 34 12 0 29 -57 21 -71 -4 -8
-4 -25 1 -39 7 -24 7 -24 8 6 1 26 6 33 27 37 28 5 44 -17 26 -35 -6 -6 -8
-17 -5 -24 3 -8 0 -14 -7 -14 -6 0 -8 5 -5 10 3 6 2 10 -3 10 -18 0 -63 -68
-51 -76 8 -5 6 -10 -7 -18 -11 -6 -19 -20 -19 -31 0 -17 -6 -20 -35 -18 l-35
3 33 -15 c38 -16 38 -36 1 -46 -13 -4 -18 -7 -10 -8 8 -1 2 -14 -18 -36 -17
-20 -31 -44 -31 -55 0 -21 28 -40 48 -33 17 6 42 57 42 85 0 19 2 20 10 8 7
-11 8 -6 4 18 -5 25 -3 32 10 32 9 0 25 -9 36 -20 27 -27 26 -12 -1 16 -21 23
-19 44 5 44 9 0 12 9 8 26 -4 24 -3 25 17 14 15 -7 20 -17 17 -27 -4 -9 7 -2
24 14 27 27 30 35 27 76 -2 26 -10 53 -17 62 -22 26 -6 45 30 35 27 -8 30 -7
20 5 -15 18 -5 65 15 65 8 0 18 -6 22 -14 12 -21 59 23 68 63 4 17 11 28 16
25 6 -3 9 6 7 22 -5 43 25 43 42 0 7 -19 17 -33 22 -30 4 3 8 0 8 -5 0 -6 -5
-11 -11 -11 -5 0 -8 -4 -5 -8 2 -4 -6 -9 -19 -10 -15 -1 -25 5 -28 16 -4 16
-5 16 -6 0 0 -10 -7 -18 -13 -18 -10 0 -9 -3 1 -9 7 -5 23 -7 35 -5 l21 5 -22
-12 c-11 -6 -29 -26 -39 -44 -15 -28 -16 -36 -5 -49 18 -22 36 -20 62 7 15 15
23 18 26 10 3 -9 17 -11 44 -7 l40 7 -33 -35 c-18 -18 -36 -32 -40 -30 -13 5
-9 -12 8 -36 18 -26 34 -27 75 -6 17 8 33 13 35 11 3 -2 -3 -20 -12 -40 -18
-38 -14 -64 12 -74 23 -9 47 21 54 69 l6 43 16 -30 c10 -16 17 -26 18 -21 0 5
-9 24 -21 43 -12 18 -18 40 -15 49 5 13 9 13 38 -1 31 -15 32 -14 11 1 -34 24
-30 54 6 54 21 0 30 6 34 22 8 29 1 36 -8 9 -7 -23 -31 -28 -38 -8 -6 18 44
67 68 67 12 0 27 6 33 12 10 10 15 10 22 -2 6 -10 -2 -23 -28 -48 -27 -25 -30
-30 -11 -19 l26 16 -5 -46 c-4 -39 -1 -48 22 -69 29 -28 32 -39 12 -47 -9 -4
-12 -14 -9 -25 6 -24 -14 -39 -30 -23 -6 6 -15 11 -20 11 -4 0 4 -11 19 -23
27 -24 26 -47 -2 -47 -8 0 -13 -4 -10 -9 3 -5 -3 -19 -13 -32 -29 -37 -34 -65
-16 -83 9 -9 20 -16 24 -16 17 0 42 39 48 75 6 37 6 37 19 14 19 -35 17 -14
-2 24 -16 30 -16 32 5 45 11 8 21 21 21 28 0 8 5 14 10 14 6 0 10 11 10 25 0
16 6 25 15 25 13 0 19 -19 18 -57 -1 -7 8 -13 18 -13 11 0 19 -4 19 -9 0 -11
-39 -21 -65 -17 -11 2 -14 1 -7 -1 15 -6 15 -13 -3 -36 -38 -51 37 -66 78 -17
l26 30 4 -32 c3 -25 4 -22 5 15 2 58 21 70 60 36 20 -18 23 -19 9 -3 -23 27
-22 33 8 44 14 5 25 16 25 23 0 10 8 13 24 10 13 -3 27 0 30 6 11 17 24 13 37
-11 6 -13 8 -20 4 -16 -12 12 -42 -25 -47 -59 -2 -18 -1 -30 4 -27 4 3 8 18 8
35 0 20 5 29 16 29 8 0 12 -5 9 -10 -10 -16 7 -12 28 7 19 17 20 17 14 -7 -4
-14 -9 -36 -12 -50 -4 -21 -3 -20 6 4 l12 29 21 -44 c22 -47 53 -61 75 -35 10
12 9 21 -5 48 -9 18 -22 36 -28 41 -6 4 0 6 14 5 21 -3 26 2 28 24 4 33 42 41
42 9 0 -11 9 -22 19 -26 13 -4 18 -12 15 -23 -5 -13 -4 -14 4 -3 5 7 15 10 21
7 6 -4 10 -2 9 4 -2 7 5 14 15 15 21 4 23 -24 2 -51 -8 -10 -14 -23 -14 -29
-1 -5 8 1 19 15 l20 25 0 -36 c0 -44 29 -85 54 -76 28 11 31 38 9 79 -12 21
-20 38 -18 38 2 0 16 -5 32 -10 26 -9 27 -9 9 5 -11 8 -28 15 -38 15 -10 0
-18 7 -18 18 0 14 -2 15 -10 2 -8 -12 -10 -11 -10 6 0 15 8 23 25 26 14 3 27
2 30 -2 2 -4 18 -5 34 -2 22 3 33 0 37 -11 5 -13 10 -14 30 -5 13 6 24 17 24
25 0 16 5 16 29 1 15 -9 23 -9 34 0 15 13 29 85 15 76 -13 -8 -37 22 -28 36 6
10 9 10 13 -1 4 -9 6 -10 6 -2 1 7 8 10 16 7 8 -4 13 -10 10 -14 -3 -4 7 -10
22 -13 27 -5 27 -5 8 10 -18 14 -18 15 -2 9 10 -3 26 -6 35 -6 12 0 9 -8 -13
-30 -15 -16 -32 -27 -36 -24 -5 3 -6 -2 -3 -11 5 -13 9 -13 24 5 24 28 33 25
25 -8 -13 -61 32 -107 65 -67 11 14 10 34 -7 90 -5 18 -4 19 13 5 18 -14 19
-14 1 7 -15 18 -16 24 -6 41 10 16 10 24 1 35 -10 11 -9 17 4 27 8 8 21 27 29
44 l13 31 11 -25 11 -25 -5 28 c-4 21 -2 27 13 27 10 0 23 5 30 12 21 21 14
-10 -9 -41 -26 -35 -22 -65 9 -69 31 -5 50 13 58 54 3 19 10 34 15 34 5 0 8
10 6 21 -2 25 26 34 43 14 8 -10 6 -15 -9 -20 -25 -8 -36 -39 -21 -62 11 -17
11 -17 6 0 -7 20 9 57 24 57 6 0 10 -18 10 -39 0 -35 19 -71 38 -71 4 0 22 9
40 20 l32 20 -5 -23 c-3 -12 -1 -28 4 -35 11 -17 52 -12 61 8 4 8 12 25 19 38
7 15 8 22 0 22 -5 0 -7 5 -3 11 5 8 10 6 16 -5 5 -9 6 -21 3 -26 -3 -6 1 -7 9
-4 13 5 16 -2 17 -32 1 -34 2 -36 9 -14 7 21 8 22 9 5 2 -47 54 -61 73 -20 9
20 8 31 -2 53 -8 15 -16 30 -18 35 -2 4 2 7 7 7 6 0 11 -6 11 -14 0 -7 11 -25
24 -39 20 -22 22 -28 10 -38 -11 -9 -11 -15 -3 -25 13 -16 3 -34 -20 -34 -9 0
-26 -7 -37 -15 -18 -14 -17 -15 8 -4 55 24 82 -18 29 -46 -17 -8 -33 -20 -37
-27 -4 -6 3 -4 17 5 35 25 41 21 22 -17 -21 -46 -11 -86 22 -86 31 0 38 13 37
69 l0 46 24 -28 c13 -15 24 -25 24 -21 0 5 -14 23 -31 40 -30 31 -35 64 -8 64
6 0 8 -7 5 -16 -5 -14 -4 -15 8 -5 8 7 21 9 28 5 10 -6 9 -3 -1 9 -7 9 -20 17
-28 17 -28 0 -9 35 19 36 15 1 34 7 43 14 21 17 29 7 15 -20 -18 -34 -9 -84
16 -88 31 -4 47 21 43 72 l-4 45 25 -22 c22 -19 22 -18 -2 9 -30 33 -37 64
-14 64 30 0 43 -11 39 -34 -5 -22 18 -56 37 -56 20 0 42 49 35 80 -8 36 7 40
29 8 16 -22 16 -22 16 10 0 22 5 32 16 32 8 0 12 -5 9 -11 -7 -10 11 -28 47
-49 14 -8 22 -6 35 10 23 26 37 26 23 0 -6 -12 -10 -37 -8 -58 6 -69 68 -48
68 23 0 41 9 49 32 28 17 -15 18 -15 17 8 0 13 -3 18 -6 11 -8 -21 -23 -3 -23
29 0 23 4 29 22 29 24 0 19 10 -8 14 -10 2 -20 8 -22 14 -5 15 14 16 23 2 7
-12 26 -14 24 -2 -5 33 5 29 21 -7 11 -24 18 -53 15 -65 -5 -18 -4 -19 7 -6
18 21 57 21 52 1 -3 -9 1 -6 7 7 18 33 32 27 27 -12 -2 -19 0 -33 4 -30 14 9
28 -32 15 -46 -10 -11 -9 -12 3 -4 8 6 23 14 33 17 15 5 16 3 7 -12 -12 -24
-16 -73 -6 -89 12 -19 44 -14 57 9 6 13 8 38 5 62 l-7 41 23 -20 c17 -14 16
-11 -5 15 -29 35 -25 56 9 49 13 -2 21 -14 24 -37 11 -77 70 -62 70 19 0 25 3
50 7 54 4 4 7 19 8 34 0 20 6 28 23 30 12 2 22 -2 22 -8 0 -7 -8 -9 -21 -5
l-21 7 21 -21 c12 -12 21 -28 21 -37 0 -9 5 -12 13 -8 8 5 7 2 -2 -9 -8 -10
-11 -20 -7 -24 3 -3 6 0 6 7 0 9 9 5 24 -9 26 -25 66 -22 66 5 0 8 5 14 11 14
7 0 9 -8 4 -22 -16 -52 -17 -69 -5 -83 31 -37 70 -3 70 61 0 26 18 31 40 11 8
-6 6 -2 -4 11 -28 32 -30 72 -5 72 11 0 17 5 14 10 -14 23 23 7 47 -20 15 -17
36 -30 50 -30 23 -1 23 -1 -3 -15 -19 -10 -28 -24 -31 -49 -2 -19 0 -32 4 -30
4 3 8 18 8 35 0 19 5 29 15 29 9 0 12 -6 8 -18 -5 -14 -2 -13 18 5 l24 22 13
-42 c19 -61 39 -87 66 -87 30 0 40 24 22 58 -14 28 -11 56 5 46 5 -3 9 9 9 25
0 25 4 31 21 31 17 0 20 -5 17 -25 -3 -13 -2 -22 3 -20 14 10 38 -7 32 -22 -5
-12 -2 -12 15 3 44 37 72 14 37 -32 -8 -10 -14 -23 -14 -29 -1 -5 8 1 19 15
l20 25 0 -40 c1 -67 45 -98 74 -52 9 14 6 26 -12 57 -25 44 -25 44 13 30 15
-6 24 -6 20 -1 -3 5 -19 12 -35 16 -19 4 -30 13 -30 23 0 15 -2 15 -11 2 -8
-12 -10 -12 -7 5 4 27 44 31 71 8 22 -18 22 -18 5 3 -18 20 -17 20 13 16 19
-3 34 -12 39 -26 5 -11 9 -15 9 -8 1 6 8 12 17 12 9 0 18 9 21 20 6 21 18 26
28 10 3 -5 22 -9 41 -8 48 2 60 -19 31 -52 -20 -22 -20 -23 -1 -7 25 20 54 22
54 3 0 -7 -7 -30 -15 -49 -21 -51 -17 -60 5 -12 15 32 19 35 19 17 1 -29 26
-79 43 -85 20 -7 48 12 48 33 0 11 -13 35 -30 53 -16 19 -27 37 -23 41 3 3 -3
6 -15 6 -36 0 -28 35 11 48 l32 11 -36 -5 c-42 -7 -58 8 -35 32 17 17 21 28 7
20 -5 -4 -16 -3 -25 0 -12 4 -13 11 -6 24 7 13 6 20 -7 24 -9 4 -14 9 -11 11
9 9 38 -7 38 -20 0 -8 5 -17 11 -21 7 -4 9 0 5 13 -5 17 -2 19 22 15 21 -3 31
1 36 13 11 30 -13 54 -75 73 l-61 19 30 12 c17 7 39 22 49 33 15 18 11 17 -28
-5 -25 -15 -49 -27 -52 -27 -14 0 32 38 49 42 24 4 37 56 20 74 -8 7 -24 11
-36 9 -42 -8 -117 16 -129 42 -6 12 -15 23 -21 23 -7 0 -6 6 1 18 9 14 6 25
-15 57 -30 43 -21 72 13 41 11 -10 31 -16 47 -14 24 3 29 -1 28 -20 -1 -20 1
-21 16 -7 25 22 40 -1 35 -51 -3 -29 -3 -32 3 -11 l7 29 23 -32 c20 -27 22
-34 10 -48 -11 -15 -11 -15 2 -5 8 6 29 13 45 15 54 6 35 73 -26 94 l-24 8 30
8 c25 6 23 7 -12 4 -51 -5 -70 10 -46 36 9 10 21 18 26 18 5 0 15 7 22 17 7 9
19 14 29 10 20 -8 21 -27 2 -27 -8 0 -16 -7 -20 -15 -4 -13 -2 -13 14 -5 10 5
22 15 25 20 3 6 13 10 22 10 13 0 15 -9 10 -47 -5 -46 -5 -47 6 -16 l12 33 28
-35 c18 -23 36 -35 52 -35 54 0 44 58 -16 85 l-40 19 33 17 c18 10 29 18 23
18 -5 0 -21 -6 -35 -14 -35 -20 -57 -18 -63 5 -3 11 -12 20 -21 20 -9 0 -16 2
-16 4 0 14 24 66 30 66 4 0 11 8 14 17 6 16 6 16 -11 1 -13 -12 -23 -14 -38
-7 -19 10 -19 9 -2 -4 22 -18 12 -47 -15 -47 -13 0 -18 5 -15 14 8 19 -12 36
-44 36 -28 0 -42 -20 -33 -45 4 -11 0 -15 -16 -15 -19 0 -22 4 -17 29 8 40
-14 66 -68 80 -42 11 -46 14 -43 39 3 25 7 27 50 30 59 4 73 19 59 67 -9 34
-8 37 8 32 13 -3 23 4 32 20 12 23 11 27 -10 44 -22 18 -41 23 -68 20 -7 -1
-13 3 -13 9 0 6 5 8 10 5 6 -3 10 -1 10 5 0 6 5 8 10 5 16 -10 7 18 -10 32
-13 11 -13 12 1 13 9 0 20 -8 24 -17 6 -16 7 -17 18 -2 7 9 22 19 34 23 28 9
37 35 19 55 -12 13 -12 19 -2 34 19 25 46 11 46 -23 0 -16 3 -31 8 -34 4 -2 6
13 4 35 -5 53 19 52 53 -1 14 -22 28 -40 30 -40 3 0 -2 11 -11 25 -20 31 -14
41 16 25 48 -26 110 9 80 45 -10 12 -26 16 -62 13 -26 -1 -48 0 -48 5 0 4 -9
2 -20 -5 -29 -18 -43 1 -25 35 7 15 10 27 5 27 -5 0 -12 -11 -16 -25 -7 -29
-44 -35 -45 -7 0 10 -3 12 -6 5 -6 -17 -28 -16 -43 2 -11 13 -16 13 -42 -1
-34 -17 -33 -18 -43 15 -5 16 -4 21 4 17 7 -5 11 4 11 23 0 29 20 46 20 19 0
-7 5 -5 11 5 16 28 36 20 56 -23 10 -22 21 -40 26 -40 4 0 0 14 -9 31 -15 30
-15 32 2 24 11 -5 37 -9 59 -9 36 -1 40 2 43 26 3 22 -2 29 -22 34 -15 3 -40
4 -56 2 -36 -5 -36 -5 -7 23 19 19 19 20 2 11 -11 -6 -28 -20 -37 -31 -19 -23
-33 -26 -43 -11 -13 22 6 49 37 52 38 4 57 30 39 52 -9 10 -30 16 -59 16 -44
0 -45 1 -28 19 10 11 34 24 54 29 30 8 24 9 -32 4 -63 -5 -68 -4 -55 10 8 9
16 14 18 12 9 -8 51 40 51 57 0 10 -9 23 -20 29 -37 20 -20 28 24 12 37 -14
47 -14 60 -3 38 31 8 71 -53 71 -34 0 -39 11 -16 30 9 7 13 15 10 18 -3 3 -13
-2 -22 -10 -22 -20 -69 -28 -66 -11 1 6 -11 14 -27 18 -40 9 -38 18 8 35 20 8
41 17 46 19 5 2 6 -1 3 -6 -3 -5 3 -9 14 -9 18 0 18 2 5 12 -19 13 -21 54 -3
54 6 1 1 7 -12 14 l-24 13 28 7 c16 4 33 2 43 -6 14 -10 15 -10 5 2 -18 19 15
44 36 27 12 -10 12 -9 2 11 -16 31 -11 35 28 21 24 -9 39 -9 57 0 53 24 0 77
-66 65 l-35 -6 20 23 c16 19 14 18 -13 -4 -37 -30 -48 -33 -55 -14 -9 29 5 47
39 47 38 0 54 22 37 49 -7 11 -25 16 -57 16 -26 0 -45 4 -43 10 5 13 44 32 81
40 15 3 27 8 24 10 -2 2 -22 0 -44 -5 -23 -5 -53 -6 -70 0 l-29 8 28 1 c15 1
27 6 27 13 0 6 7 19 16 29 18 20 11 59 -12 59 -8 0 -14 5 -14 11 0 7 8 9 23 4
12 -4 38 -8 57 -9 32 -1 35 1 35 29 0 28 -3 30 -40 33 -48 4 -63 16 -45 37 11
13 9 15 -11 17 -13 0 -30 2 -38 2 -26 2 -24 26 3 26 13 0 27 4 30 9 3 5 28 -3
55 -18 43 -22 52 -24 63 -12 10 10 10 12 1 7 -18 -10 -33 2 -27 19 5 11 11 12
25 4 14 -7 19 -6 19 2 0 7 10 9 25 7 17 -4 25 -1 25 8 0 23 35 16 60 -11 13
-14 27 -25 32 -25 5 0 -4 11 -19 24 l-28 25 41 -6 c48 -6 84 10 84 37 0 30
-31 41 -76 28 -21 -5 -41 -10 -44 -11 -3 0 -10 -7 -16 -15 -15 -20 -41 -9 -47
20 -4 22 -4 22 -6 2 -1 -26 -29 -40 -38 -19 -4 13 -9 11 -26 -7 -17 -19 -19
-20 -13 -4 6 17 3 18 -30 13 -64 -11 -116 24 -55 38 16 3 36 14 45 24 14 15
14 19 0 39 -10 15 -24 22 -41 20 -16 -2 -30 4 -39 17 -13 19 -11 20 44 20 53
0 57 2 60 25 2 14 8 29 13 34 14 15 11 46 -6 52 -8 4 -13 10 -10 14 3 5 -11 3
-30 -3 -48 -14 -54 -2 -17 34 24 23 32 39 30 60 -2 20 -7 28 -15 25 -21 -8
-63 16 -63 36 0 15 9 18 53 19 43 1 47 3 19 8 l-32 6 35 28 c37 30 44 57 20
77 -20 17 -62 -11 -80 -53 -11 -27 -14 -28 -18 -12 -2 11 -3 8 -2 -8 1 -15 -5
-33 -13 -39 -11 -10 -18 -8 -32 10 -15 18 -20 19 -29 8 -9 -11 -8 -14 6 -12
12 0 18 -6 18 -19 0 -14 -6 -20 -21 -19 -17 0 -20 -5 -16 -25 4 -19 2 -23 -11
-18 -8 3 -21 0 -27 -8 -6 -8 -18 -11 -27 -8 -12 5 -8 11 16 30 38 30 41 46 5
33 -38 -15 -46 -12 -32 11 35 57 37 63 27 81 -12 21 -42 24 -58 4 -7 -8 -15
-31 -18 -52 -6 -35 -7 -36 -21 -18 -14 18 -14 18 -8 1 8 -26 -11 -57 -36 -57
-17 0 -19 4 -13 23 16 50 11 72 -17 75 -22 3 -30 -3 -43 -28 -14 -26 -19 -29
-31 -19 -13 11 -10 17 22 48 23 23 38 32 41 24 6 -17 41 -16 59 1 18 18 19 70
2 60 -7 -4 -5 2 5 13 9 11 14 23 10 27 -4 4 -8 25 -9 47 -2 34 2 41 26 54 16
8 32 20 36 26 3 6 -6 3 -21 -7 l-28 -18 9 24 c4 14 8 41 9 60 0 29 -4 36 -24
38 -30 5 -41 -12 -41 -68 l-1 -45 -25 30 c-14 17 -21 21 -16 10 6 -11 20 -29
31 -39 24 -22 27 -44 7 -52 -8 -3 -11 -15 -8 -30 3 -15 0 -24 -8 -24 -7 0 -10
-6 -7 -14 3 -8 -1 -22 -8 -33 -14 -17 -14 -17 -16 7 -1 18 -3 20 -6 7 -3 -10
1 -25 8 -33 10 -13 8 -20 -15 -42 l-28 -27 7 42 c8 48 -7 83 -35 83 -29 0 -43
-33 -31 -77 6 -20 8 -39 6 -42 -3 -2 3 -13 12 -24 18 -19 17 -20 -5 -8 -13 7
-21 18 -19 25 3 7 -4 18 -14 24 -10 7 -19 8 -19 3 0 -5 -11 -12 -24 -15 -16
-4 -26 -15 -31 -35 -3 -16 -19 -40 -35 -54 l-29 -26 -21 27 c-12 15 -18 21
-15 14 8 -15 -22 -52 -42 -52 -7 0 -13 -10 -13 -22 0 -34 -11 -43 -57 -46 -34
-2 -43 1 -43 14 0 10 5 14 15 10 8 -3 15 -1 15 4 0 13 27 13 32 1 2 -5 9 -3
16 5 11 12 8 14 -15 14 l-28 1 28 20 c20 15 27 29 27 54 0 19 4 36 9 40 10 6
62 -14 72 -28 3 -5 9 -2 12 7 5 12 0 16 -17 16 -29 0 -63 34 -45 45 6 5 34 8
62 9 32 1 51 6 53 14 1 7 0 8 -3 2 -2 -5 -23 -10 -46 -10 l-42 0 38 25 c55 38
61 94 10 95 -13 0 -63 -56 -64 -73 0 -7 -4 -3 -9 8 -7 16 -9 13 -9 -17 -1 -47
-18 -58 -42 -27 -10 13 -19 19 -19 13 0 -5 5 -15 10 -20 15 -15 2 -44 -16 -37
-9 3 -14 -2 -14 -16 0 -14 -6 -21 -19 -21 -25 0 -45 -25 -38 -49 3 -13 -1 -21
-13 -24 -15 -4 -17 0 -13 17 11 42 8 69 -9 79 -23 15 -56 -15 -64 -59 -3 -19
-10 -31 -15 -28 -6 3 -7 -5 -4 -19 4 -14 2 -28 -4 -31 -6 -4 -11 -2 -11 3 0 6
-6 10 -12 8 -7 -1 -12 6 -12 15 1 10 -2 15 -7 12 -5 -3 -9 15 -9 39 0 27 -6
49 -15 57 -22 18 -73 3 -90 -28 -19 -35 -19 -24 0 20 14 34 13 36 -10 48 -22
12 -28 11 -45 -5 -11 -10 -20 -27 -20 -38 0 -13 -5 -17 -16 -13 -10 4 -13 2
-8 -7 5 -8 2 -7 -9 2 -10 8 -18 29 -18 50 -1 36 -1 36 -8 6 l-7 -30 -6 31 c-8
37 -34 51 -57 30 -13 -12 -19 -12 -34 -2 -23 18 -12 44 21 49 24 4 23 4 -5 6
-44 2 -43 26 2 52 43 26 46 35 4 14 l-30 -16 16 31 c19 37 16 79 -7 93 -28 18
-48 -9 -48 -67 l-1 -51 -24 30 c-14 17 -25 27 -25 23 0 -4 14 -24 32 -44 27
-30 30 -39 20 -55 -7 -10 -12 -26 -12 -34 0 -8 -5 -15 -11 -15 -6 0 -8 -8 -4
-19 3 -10 -1 -23 -9 -30 -13 -11 -13 -17 0 -47 8 -19 13 -34 12 -35 -28 -7
-48 -7 -43 1 4 6 -7 10 -24 10 -40 0 -40 15 0 26 28 8 31 13 33 52 1 23 1 42
-1 42 -2 0 -16 -8 -30 -17 -26 -18 -27 -17 -18 2 5 11 9 38 9 60 1 36 -2 40
-26 43 -22 3 -29 -2 -34 -23 -3 -14 -4 -42 -1 -62 l6 -35 -22 18 c-22 19 -22
19 1 -7 27 -31 29 -59 5 -54 -10 2 -21 4 -25 4 -5 1 -8 14 -8 29 0 32 -16 52
-42 52 -23 0 -41 -44 -33 -82 8 -36 -10 -37 -29 0 l-15 27 -1 -37 c0 -27 -4
-38 -15 -38 -9 0 -15 6 -13 13 4 17 -33 57 -54 57 -9 0 -24 -10 -32 -22 -23
-32 -29 -17 -11 26 18 42 7 76 -25 76 -24 0 -40 -28 -40 -69 0 -35 -19 -42
-27 -11 -3 11 -9 20 -14 20 -5 0 -7 11 -3 25 3 14 2 25 -4 25 -19 0 0 39 22
43 17 4 16 5 -6 6 -41 2 -43 19 -6 54 19 18 27 27 19 21 -38 -27 -44 -27 -31
-5 6 12 10 39 8 59 -3 34 -6 37 -33 37 -30 0 -30 0 -29 -57 1 -32 7 -64 14
-72 6 -9 9 -20 5 -26 -8 -14 -48 -13 -63 2 -9 9 -12 9 -12 0 0 -7 14 -15 30
-18 21 -5 30 -12 30 -25 0 -11 -5 -19 -11 -19 -7 0 -5 -10 5 -25 14 -22 15
-25 1 -25 -17 0 -21 -35 -5 -45 15 -9 2 -25 -21 -25 -13 0 -19 7 -20 23 -1 17
-3 14 -10 -11 -5 -18 -14 -30 -19 -27 -12 7 -13 47 -2 60 4 6 3 7 -2 3 -5 -4
-15 0 -22 10 -9 13 -10 20 -1 31 10 12 9 12 -11 2 -31 -16 -34 -12 -22 30 13
44 13 45 -5 62 -23 24 -54 10 -61 -28 -3 -18 -3 -44 1 -57 l7 -23 -28 25 c-26
23 -26 22 4 -13 35 -41 39 -53 20 -60 -29 -9 -47 5 -50 41 -6 68 -68 51 -68
-18 0 -48 -9 -72 -24 -63 -6 3 -6 1 2 -8 14 -15 16 -39 3 -39 -18 0 -41 32
-41 56 0 14 -6 24 -14 24 -7 0 -19 7 -26 15 -18 22 -45 18 -64 -7 l-17 -23 6
25 c3 14 8 37 11 51 8 34 -19 63 -46 49 -20 -11 -33 -50 -24 -73 8 -23 -15
-31 -36 -12 -18 16 -18 16 -13 -4 3 -11 10 -19 16 -18 6 1 12 -13 14 -31 2
-20 -1 -31 -7 -27 -6 3 -10 16 -10 28 0 18 -3 16 -17 -11 -18 -38 -24 -36 -25
7 -1 18 -5 34 -9 37 -9 5 6 38 29 62 6 7 12 21 12 30 0 15 -2 15 -10 2 -6 -9
-10 -11 -10 -3 0 7 -7 10 -16 6 -14 -5 -15 -3 -5 14 8 17 7 22 -5 27 -12 4
-13 10 -4 26 8 16 8 20 -4 20 -29 0 -28 22 3 54 17 18 31 35 31 40 0 4 -11 -6
-25 -21 l-26 -28 6 35 c9 50 -8 90 -39 90 -16 0 -27 -7 -31 -20 -4 -13 -15
-20 -31 -20 -31 0 -30 2 6 38 35 35 38 57 10 72 -25 14 -55 -4 -71 -42 -6 -16
-15 -28 -20 -28 -5 0 -9 -11 -9 -25 0 -29 -34 -36 -44 -9 -4 9 -9 14 -13 11
-3 -4 -1 -13 6 -20 15 -19 4 -47 -15 -40 -8 3 -14 2 -13 -3 5 -28 -2 -42 -20
-37 -26 7 -40 -52 -18 -74 13 -13 19 -13 43 -1 18 8 28 20 26 31 -2 9 2 17 7
17 5 0 16 12 24 28 7 15 19 26 27 24 10 -2 11 0 2 10 -18 23 1 36 51 36 43 0
49 -3 59 -26 5 -15 11 -32 12 -38 1 -7 8 -19 15 -28 7 -8 10 -20 6 -26 -9 -14
-48 -13 -65 3 -12 10 -12 9 -1 -5 7 -10 24 -18 36 -18 26 0 42 -28 20 -36 -13
-5 -13 -8 1 -21 11 -11 12 -19 4 -28 -8 -10 -8 -19 -1 -34 7 -13 8 -22 1 -26
-5 -3 -10 -16 -10 -28 0 -12 -7 -34 -14 -49 -10 -19 -11 -28 -4 -28 6 0 9 -2
6 -5 -3 -3 -18 -1 -34 5 l-29 11 24 18 c22 17 22 18 4 23 -10 3 -27 20 -36 39
-10 20 -17 27 -17 17 0 -27 -19 -22 -26 6 -13 52 -74 75 -82 32 -2 -11 -10
-26 -18 -34 -8 -7 -14 -21 -14 -31 0 -32 -24 -68 -52 -79 -47 -18 -47 19 1 62
23 21 27 41 10 51 -6 4 -9 0 -7 -11 2 -11 -4 -20 -14 -22 -14 -3 -18 3 -18 27
0 27 -21 61 -38 61 -18 -1 -34 -20 -35 -44 -2 -21 -6 -26 -20 -22 -10 2 -21
-2 -24 -10 -5 -13 -37 -11 -52 2 -7 7 21 34 30 28 5 -3 6 2 3 11 -5 13 -9 12
-25 -6 -26 -30 -30 -22 -20 38 l8 50 -36 -1 c-34 -1 -36 -3 -39 -38 -2 -21 -9
-39 -19 -42 -11 -5 -13 -2 -8 11 27 67 21 113 -15 113 -26 0 -43 -34 -38 -80
3 -34 1 -37 -14 -29 -10 5 -15 16 -12 24 5 11 2 13 -10 9 -9 -3 -16 -13 -16
-21 0 -8 4 -12 9 -9 4 3 17 -4 27 -15 16 -17 16 -22 4 -29 -12 -8 -11 -10 4
-10 11 0 17 -3 13 -6 -3 -3 -20 -3 -37 1 -27 6 -31 11 -26 29 3 13 3 26 -1 30
-4 4 -9 19 -11 34 -4 34 -28 72 -45 72 -18 0 -37 -21 -37 -41 0 -9 11 -33 25
-53 24 -35 24 -36 4 -36 -15 0 -19 5 -15 15 3 8 1 15 -4 15 -6 0 -10 7 -10 15
0 9 -7 18 -15 21 -21 8 -19 52 3 72 9 10 13 14 8 10 -18 -14 -66 -9 -66 7 0 8
4 15 8 15 5 0 9 14 10 30 0 17 3 39 7 50 8 26 -11 60 -35 60 -37 0 -46 -44
-23 -107 6 -17 6 -17 -14 0 -11 9 -23 17 -28 17 -4 0 5 -10 21 -22 54 -41 53
-62 -1 -56 -19 2 -32 1 -30 -3 2 -3 -1 -23 -7 -45 -17 -55 -16 -56 9 -88 24
-28 24 -51 1 -28 -14 14 -28 16 -28 4 0 -4 14 -13 30 -19 20 -8 30 -18 30 -32
l0 -21 -20 20 c-12 12 -25 18 -31 15 -5 -4 -16 -2 -23 4 -10 8 -20 6 -39 -9
l-26 -20 -3 21 c-4 31 -35 49 -48 29 -9 -13 -12 -13 -24 3 -7 9 -24 17 -37 17
-23 1 -23 1 -5 15 11 8 16 15 11 15 -5 0 -18 -8 -29 -19 -25 -22 -72 -39 -62
-22 4 6 2 11 -3 11 -21 0 -11 25 21 53 28 24 29 26 6 12 l-28 -17 14 40 c16
44 12 78 -10 86 -38 15 -60 -23 -49 -82 l7 -37 -29 25 c-21 19 -20 16 6 -12
l34 -37 -18 -38 c-10 -21 -23 -41 -29 -45 -6 -4 -28 9 -49 30 -21 20 -35 29
-32 20 5 -13 2 -18 -9 -18 -9 0 -19 7 -22 15 -4 8 -12 15 -19 15 -24 0 -26 31
-3 52 20 17 19 17 -9 -2 -18 -12 -38 -18 -43 -15 -6 4 -9 27 -7 53 3 26 2 35
0 20 -6 -36 -15 -35 -32 3 -18 41 -56 59 -78 36 -25 -25 -4 -60 56 -93 l50
-28 -16 -27 c-9 -15 -26 -29 -39 -32 -19 -3 -23 1 -26 30 -3 28 -1 33 17 34
11 1 2 5 -20 9 -33 7 -43 5 -56 -10 -17 -19 -17 -19 -33 3 -15 21 -15 20 -1
-10 21 -44 3 -42 -21 2 -10 19 -24 35 -31 35 -20 0 -16 21 10 49 19 22 19 23
1 8 -43 -36 -73 -8 -39 37 8 11 15 24 15 30 0 5 -6 1 -14 -9 -13 -18 -15 -17
-25 22 -14 50 -36 71 -59 56 -26 -16 -25 -45 2 -86 14 -20 22 -37 18 -38 -4 0
3 -4 16 -9 31 -13 28 -29 -9 -44 -23 -10 -27 -15 -15 -19 8 -3 18 -2 22 4 4 6
11 6 20 -2 13 -10 12 -15 -7 -35 -11 -12 -18 -28 -14 -34 4 -6 -1 -22 -10 -36
-13 -21 -19 -23 -31 -13 -13 10 -13 14 1 29 18 20 19 31 4 28 -6 -2 -14 3 -17
11 -3 9 0 11 9 7 8 -4 6 -1 -4 8 -11 8 -24 13 -30 10 -7 -2 -19 1 -27 6 -13 9
-12 12 4 25 11 8 27 15 37 15 9 0 23 7 30 16 12 15 10 15 -24 0 l-38 -15 21
29 c28 39 24 94 -6 98 -29 4 -46 -21 -46 -68 0 -22 -1 -40 -4 -40 -2 0 -13 15
-24 33 -11 17 -20 26 -20 19 0 -7 12 -29 26 -47 27 -36 25 -55 -5 -55 -24 0
-41 20 -42 50 -1 15 -3 19 -6 8 -5 -19 -33 -13 -33 7 0 25 -29 39 -55 27 -21
-10 -24 -8 -27 11 -2 13 -13 24 -28 28 -14 4 -21 7 -16 8 5 1 4 7 -2 14 -13
16 -3 33 23 40 15 4 14 5 -7 6 -21 1 -28 6 -28 21 0 11 3 20 8 20 4 0 21 12
37 26 21 18 23 21 5 10 -36 -24 -39 -20 -22 28 14 37 14 47 3 60 -20 24 -50
20 -61 -8z m-1583 -219 c-2 -6 -13 -17 -25 -25 -20 -13 -21 -13 -10 16 7 19
17 28 25 25 8 -3 12 -10 10 -16z m-332 -80 c-16 -12 -16 -14 -1 -20 9 -4 16
-12 16 -18 0 -8 -4 -9 -13 0 -8 6 -18 7 -22 3 -5 -4 -5 -1 -1 5 4 7 -2 20 -14
30 -11 10 -20 23 -20 29 0 20 34 21 54 2 19 -17 19 -18 1 -31z m3312 -9 c-3
-7 -5 -2 -5 12 0 14 2 19 5 13 2 -7 2 -19 0 -25z m-1301 -36 c-12 -11 -17 7
-9 34 l8 29 3 -28 c2 -16 1 -31 -2 -35z m-967 26 c1 21 24 31 35 13 9 -14 -39
-52 -70 -54 -40 -3 -44 27 -7 47 26 14 28 13 35 -7 l6 -22 1 23z m121 -18 c0
-10 5 -22 10 -25 6 -3 10 -10 10 -16 0 -5 -9 -4 -19 3 -11 7 -17 16 -15 20 3
5 -2 11 -11 14 -12 5 -13 10 -4 20 14 17 29 9 29 -16z m-838 -29 c3 -46 2 -48
-14 -35 -31 29 -34 84 -3 84 9 0 14 -16 17 -49z m1574 26 c8 3 14 0 14 -6 0
-6 -6 -11 -12 -12 -10 0 -10 -2 -1 -5 7 -3 9 -12 6 -20 -7 -20 -22 -18 -22 4
1 9 -1 26 -4 37 -2 11 -2 15 0 8 2 -7 11 -9 19 -6z m255 -35 c-16 -5 -41 5
-41 17 0 7 10 6 26 -1 15 -7 21 -14 15 -16z m-1241 8 c0 -5 -2 -10 -4 -10 -2
0 -12 -3 -20 -6 -12 -5 -15 -2 -10 10 7 17 34 22 34 6z m154 -6 c8 -21 8 -49
-1 -41 -3 4 -13 1 -21 -6 -13 -10 -15 -9 -9 6 5 14 0 17 -30 17 -41 0 -37 9
10 26 44 16 44 16 51 -2z m-840 -9 c3 -9 -1 -18 -9 -22 -10 -3 -13 -12 -10
-24 5 -15 1 -19 -18 -19 -14 0 -27 -7 -31 -15 -8 -21 -26 -19 -26 3 0 10 12
29 26 43 l27 24 -12 -25 c-11 -24 -11 -24 3 -6 9 11 16 28 16 38 0 22 26 24
34 3z m588 -30 c-4 -23 -21 -33 -34 -19 -3 3 -1 18 5 34 13 35 37 23 29 -15z
m-792 21 c0 -8 -4 -18 -10 -21 -5 -3 -10 3 -10 14 0 12 5 21 10 21 6 0 10 -6
10 -14z m910 -1 c0 -10 -10 -15 -27 -15 -26 0 -26 1 -7 15 25 19 34 19 34 0z
m230 5 c0 -5 -4 -10 -9 -10 -6 0 -13 5 -16 10 -3 6 1 10 9 10 9 0 16 -4 16
-10z m670 6 c0 -2 -11 -6 -25 -8 -14 -3 -25 -1 -25 3 0 5 11 9 25 9 14 0 25
-2 25 -4z m-1517 -37 c20 -24 23 -34 14 -44 -6 -6 -19 -10 -29 -7 -13 3 -16
11 -11 33 3 18 1 29 -6 29 -6 0 -11 5 -11 10 0 19 17 10 43 -21z m2040 17 c3
-8 0 -19 -7 -26 -10 -8 -15 -6 -20 6 -7 17 0 34 14 34 4 0 10 -6 13 -14z
m3033 -59 c-47 -19 -64 23 -18 47 26 14 27 13 32 -12 4 -21 1 -29 -14 -35z
m144 27 c0 -13 5 -24 10 -24 6 0 10 -7 10 -16 0 -13 -2 -13 -12 -2 -30 31 -38
46 -32 62 9 22 24 10 24 -20z m-5565 -71 c-2 -7 -9 -13 -15 -13 -12 0 -13 33
-3 81 l7 34 8 -45 c4 -25 6 -51 3 -57z m1695 81 c0 -16 -26 -43 -42 -44 -3 0
0 14 8 30 17 33 34 40 34 14z m1930 -5 c0 -6 -4 -7 -10 -4 -5 3 -10 11 -10 16
0 6 5 7 10 4 6 -3 10 -11 10 -16z m-2670 1 c0 -5 -7 -10 -15 -10 -8 0 -15 5
-15 10 0 6 7 10 15 10 8 0 15 -4 15 -10z m1713 4 c23 -8 9 -41 -20 -49 -36 -9
-47 13 -20 36 26 22 22 20 40 13z m318 -7 c-6 -8 -8 -17 -4 -20 3 -4 2 -7 -4
-7 -19 0 -22 13 -5 26 22 17 27 17 13 1z m609 9 c0 -2 -7 -7 -16 -10 -8 -3
-12 -2 -9 4 6 10 25 14 25 6z m-3175 -28 c-2 -23 -4 -24 -28 -14 -8 3 -6 10 7
20 24 20 23 20 21 -6z m3035 7 c0 -8 -4 -15 -9 -15 -5 0 -11 7 -15 15 -3 9 0
15 9 15 8 0 15 -7 15 -15z m-2610 -11 c0 -2 -12 -4 -26 -4 -14 0 -23 4 -20 9
6 8 46 4 46 -5z m227 -6 c-3 -8 -6 -5 -6 6 -1 11 2 17 5 13 3 -3 4 -12 1 -19z
m-987 3 c0 -4 14 -7 30 -5 17 2 30 -1 30 -6 0 -12 -48 -32 -60 -25 -12 7 -19
45 -9 45 5 0 9 -4 9 -9z m4889 -34 c0 -27 -2 -29 -9 -12 l-9 20 -1 -20 c-2
-11 -2 -23 -1 -27 0 -5 -3 -8 -9 -8 -5 0 -9 -3 -9 -7 5 -30 -4 -32 -15 -3 -7
19 -17 44 -21 55 l-8 20 17 -20 c13 -16 15 -17 10 -2 -4 12 -1 17 10 17 9 0
19 7 22 15 10 24 24 6 23 -28z m-4379 13 c0 -11 0 -23 1 -27 0 -4 -4 -9 -10
-11 -6 -2 -11 10 -11 27 0 17 5 31 10 31 6 0 10 -9 10 -20z m337 0 c-3 -11 -1
-20 4 -20 5 0 9 -4 9 -10 0 -15 -17 -12 -24 5 -5 15 2 45 11 45 3 0 3 -9 0
-20z m2593 4 c0 -8 -4 -12 -10 -9 -5 3 -10 10 -10 16 0 5 5 9 10 9 6 0 10 -7
10 -16z m1130 7 c0 -12 -20 -25 -27 -18 -7 7 6 27 18 27 5 0 9 -4 9 -9z m656
-6 c-21 -16 -32 -13 -21 4 3 6 14 11 23 11 15 -1 15 -2 -2 -15z m346 -17 c-9
-9 -12 -7 -12 12 0 19 3 21 12 12 9 -9 9 -15 0 -24z m-4466 -5 c-7 -7 -26 7
-26 19 0 6 6 6 15 -2 9 -7 13 -15 11 -17z m954 17 c0 -5 -4 -10 -9 -10 -6 0
-13 5 -16 10 -3 6 1 10 9 10 9 0 16 -4 16 -10z m570 6 c0 -3 -4 -8 -10 -11 -5
-3 -10 -1 -10 4 0 6 5 11 10 11 6 0 10 -2 10 -4z m2506 -41 c2 -16 -2 -25 -11
-25 -20 0 -27 15 -19 45 8 31 26 20 30 -20z m-4869 20 c8 -22 -6 -33 -17 -15
-13 20 -12 30 0 30 6 0 13 -7 17 -15z m1179 -12 c1 -20 0 -21 -22 -6 -26 16
-23 36 4 31 10 -2 17 -13 18 -25z m1334 17 c0 -5 -4 -10 -10 -10 -5 0 -10 5
-10 10 0 6 5 10 10 10 6 0 10 -4 10 -10z m1814 1 c3 -5 -1 -11 -9 -15 -9 -3
-15 0 -15 9 0 16 16 20 24 6z m66 -1 c0 -5 -4 -10 -10 -10 -5 0 -10 5 -10 10
0 6 5 10 10 10 6 0 10 -4 10 -10z m592 -5 c0 -5 -5 -11 -11 -13 -6 -2 -11 4
-11 13 0 9 5 15 11 13 6 -2 11 -8 11 -13z m228 5 c0 -5 -7 -7 -15 -4 -8 4 -15
8 -15 10 0 2 7 4 15 4 8 0 15 -4 15 -10z m-4321 -7 c0 -5 -4 -17 -8 -28 -7
-17 -8 -17 -13 8 -4 19 -1 27 8 27 8 0 14 -3 13 -7z m391 3 c0 -2 -3 -11 -6
-20 -9 -23 -24 -20 -24 4 0 11 7 20 15 20 8 0 15 -2 15 -4z m2334 -12 c4 -9 4
-19 1 -22 -7 -8 -35 19 -29 29 8 14 21 11 28 -7z m1746 6 c0 -5 -5 -10 -11
-10 -5 0 -7 5 -4 10 3 6 8 10 11 10 2 0 4 -4 4 -10z m-5580 -4 c0 -3 -4 -8
-10 -11 -5 -3 -10 -1 -10 4 0 6 5 11 10 11 6 0 10 -2 10 -4z m1650 -7 c0 -5
-11 -11 -25 -15 -13 -3 -27 -15 -30 -25 -4 -10 -11 -19 -16 -19 -12 0 -12 17
1 25 6 3 10 14 10 24 0 13 8 18 30 18 17 0 30 -4 30 -8z m30 -22 c0 -5 -4 -5
-10 -2 -5 3 -10 14 -10 23 0 15 2 15 10 2 5 -8 10 -19 10 -23z m3850 8 c-7 -9
-15 -13 -18 -10 -3 2 1 11 8 20 7 9 15 13 18 10 3 -2 -1 -11 -8 -20z m-5132
-5 c-13 -21 -30 -24 -63 -11 -18 7 -17 9 10 19 17 6 38 11 48 11 15 1 15 -2 5
-19z m679 -21 c1 -36 0 -38 -19 -28 -19 10 -19 11 -1 32 12 15 13 18 2 9 -9
-6 -19 -9 -23 -5 -4 4 -11 1 -16 -7 -8 -12 -10 -12 -10 -2 0 8 9 16 20 19 11
3 18 8 16 12 -3 4 3 7 12 8 13 1 17 -8 19 -38z m1519 26 c4 -8 3 -23 -2 -32
-4 -10 -8 -27 -9 -38 0 -11 -6 -19 -13 -17 -7 1 -12 -2 -12 -8 0 -5 -8 -10
-17 -10 -15 1 -14 4 7 23 27 24 41 65 18 52 -10 -6 -10 -5 -1 5 6 7 9 19 6 26
-3 8 0 14 6 14 7 0 14 -7 17 -15z m3920 -22 c-11 -11 -17 4 -9 23 7 18 8 18
11 1 2 -10 1 -21 -2 -24z m-6992 12 c-4 -8 -8 -15 -10 -15 -2 0 -4 7 -4 15 0
8 4 15 10 15 5 0 7 -7 4 -15z m111 4 c12 -19 -5 -23 -22 -6 -16 16 -16 17 -1
17 9 0 20 -5 23 -11z m315 1 c0 -5 -5 -10 -11 -10 -5 0 -7 5 -4 10 3 6 8 10
11 10 2 0 4 -4 4 -10z m2470 -5 c0 -8 -4 -15 -10 -15 -5 0 -10 7 -10 15 0 8 5
15 10 15 6 0 10 -7 10 -15z m578 -2 c-2 -9 -8 -18 -15 -20 -7 -3 -9 3 -6 16 6
25 26 28 21 4z m1532 9 c0 -5 -7 -9 -15 -9 -8 0 -15 4 -15 9 0 4 7 8 15 8 8 0
15 -4 15 -8z m170 -13 c0 -5 -4 -9 -10 -9 -5 0 -10 7 -10 16 0 8 5 12 10 9 6
-3 10 -10 10 -16z m-1078 -46 c20 -18 15 -35 -7 -28 -53 17 -51 15 -33 29 16
12 16 14 -7 26 -13 7 -22 17 -19 21 4 8 14 0 66 -48z m227 23 c7 -8 10 -20 6
-26 -9 -14 -28 -1 -21 15 8 22 -34 25 -55 4 -14 -14 -19 -15 -19 -5 0 8 9 18
20 21 11 3 20 11 20 16 0 12 32 -4 49 -25z m304 14 c-3 -11 -9 -17 -15 -14 -5
3 -4 12 3 20 16 19 18 18 12 -6z m40 7 c3 -7 -4 -19 -14 -25 -12 -8 -19 -8
-19 -2 0 5 4 10 10 10 5 0 7 7 4 15 -4 8 -2 15 4 15 5 0 12 -6 15 -13z m654
-13 c-9 -9 -28 6 -21 18 4 6 10 6 17 -1 6 -6 8 -13 4 -17z m469 0 c-4 -9 -9
-15 -11 -12 -3 3 -3 13 1 22 4 9 9 15 11 12 3 -3 3 -13 -1 -22z m1162 -4 c7 0
12 -5 12 -11 0 -5 -4 -7 -10 -4 -5 3 -10 1 -10 -4 0 -6 -4 -11 -10 -11 -5 0
-10 7 -10 15 0 9 -9 15 -21 15 -18 0 -19 2 -9 15 12 14 15 14 30 0 9 -8 22
-15 28 -15z m112 22 c0 -14 -23 -32 -42 -32 -21 0 -23 11 -6 28 13 13 48 16
48 4z m180 -11 c-1 -13 -31 -45 -45 -47 -11 -2 -13 4 -8 24 3 15 11 30 16 34
11 7 37 0 37 -11z m-2352 0 c11 -7 10 -10 -3 -15 -19 -7 -35 0 -35 15 0 11 20
12 38 0z m652 -1 c12 -8 11 -10 -7 -10 -13 0 -23 5 -23 10 0 13 11 13 30 0z
m671 -13 c-10 -9 -11 -8 -5 6 3 10 9 15 12 12 3 -3 0 -11 -7 -18z m-6064 -2
c0 -8 -4 -15 -9 -15 -4 0 -8 7 -8 15 0 8 4 15 8 15 5 0 9 -7 9 -15z m3138 5
c3 -5 2 -10 -4 -10 -5 0 -13 5 -16 10 -3 6 -2 10 4 10 5 0 13 -4 16 -10z
m1265 -14 c22 -24 22 -25 2 -23 -11 0 -19 4 -16 8 2 4 0 10 -6 14 -9 6 -14 25
-7 25 2 0 14 -11 27 -24z m-1735 4 c3 -5 2 -10 -4 -10 -5 0 -13 5 -16 10 -3 6
-2 10 4 10 5 0 13 -4 16 -10z m285 -45 c-7 -8 -20 -17 -31 -20 -11 -4 -17 -11
-14 -16 4 -5 1 -9 -4 -9 -14 0 -14 6 -1 31 6 10 20 19 32 19 21 0 21 1 3 13
-10 8 -15 19 -10 26 5 9 11 7 22 -9 11 -16 12 -24 3 -35z m1877 33 c-3 -8 -6
-5 -6 6 -1 11 2 17 5 13 3 -3 4 -12 1 -19z m328 2 c7 -21 0 -40 -16 -40 -5 0
-9 14 -9 30 0 34 15 40 25 10z m332 -2 c-3 -8 -6 -5 -6 6 -1 11 2 17 5 13 3
-3 4 -12 1 -19z m1128 12 c-3 -5 -12 -10 -18 -10 -7 0 -6 4 3 10 19 12 23 12
15 0z m-5605 -10 c0 -5 -2 -10 -4 -10 -3 0 -8 5 -11 10 -3 6 -1 10 4 10 6 0
11 -4 11 -10z m356 -17 c1 -19 -2 -20 -22 -11 -25 12 -29 20 -17 32 14 13 38
0 39 -21z m734 6 c0 -6 -4 -7 -10 -4 -5 3 -10 11 -10 16 0 6 5 7 10 4 6 -3 10
-11 10 -16z m70 11 c0 -5 -5 -10 -11 -10 -5 0 -7 5 -4 10 3 6 8 10 11 10 2 0
4 -4 4 -10z m2040 6 c0 -3 -4 -8 -10 -11 -5 -3 -10 -1 -10 4 0 6 5 11 10 11 6
0 10 -2 10 -4z m1535 -16 c-3 -5 -1 -11 4 -14 5 -4 12 -2 16 4 10 15 35 12 35
-5 0 -18 -20 -20 -20 -2 0 6 -5 4 -11 -6 -6 -10 -8 -29 -5 -42 5 -21 3 -23
-32 -23 -30 0 -33 2 -16 8 12 5 25 14 30 21 4 7 3 10 -3 6 -5 -3 -9 11 -10 34
0 21 3 36 8 33 5 -3 7 -9 4 -14z m438 -31 c-4 -4 -14 -5 -21 -1 -9 6 -8 13 6
30 l17 21 3 -20 c2 -12 0 -25 -5 -30z m-5294 20 c-22 -13 -31 -11 -17 5 7 8
17 12 22 9 4 -3 2 -9 -5 -14z m1141 11 c0 -5 -7 -10 -16 -10 -8 0 -12 5 -9 10
3 6 10 10 16 10 5 0 9 -4 9 -10z m3045 0 c3 -5 -1 -10 -9 -10 -8 0 -18 5 -21
10 -3 6 1 10 9 10 8 0 18 -4 21 -10z m1015 -5 c10 -12 10 -15 -1 -15 -11 0
-11 -2 1 -10 9 -6 10 -10 3 -10 -7 0 -17 8 -22 18 -6 9 -11 13 -11 9 0 -5 -5
-5 -11 -1 -8 4 -7 9 2 15 19 12 25 11 39 -6z m937 -35 c3 -35 1 -40 -16 -40
-12 0 -21 2 -21 4 0 2 -3 11 -6 20 -4 11 -1 16 10 16 11 0 16 9 16 27 0 39 12
20 17 -27z m-5142 21 c-8 -14 -25 -14 -25 0 0 5 5 7 10 4 6 -3 10 -1 10 6 0 7
3 10 6 6 3 -3 3 -10 -1 -16z m1275 -1 c-6 -11 -13 -20 -15 -20 -3 0 -5 9 -5
20 0 11 7 20 15 20 13 0 14 -4 5 -20z m1344 11 c3 -5 -1 -11 -9 -15 -9 -3 -15
0 -15 9 0 16 16 20 24 6z m-4626 -32 c13 -16 19 -29 12 -29 -6 0 -13 6 -16 13
-2 7 -14 13 -25 14 -26 2 -33 8 -24 22 11 18 29 11 53 -20z m4962 21 c0 -5 -5
-10 -11 -10 -5 0 -7 5 -4 10 3 6 8 10 11 10 2 0 4 -4 4 -10z m660 0 c0 -5 -4
-10 -10 -10 -5 0 -10 5 -10 10 0 6 5 10 10 10 6 0 10 -4 10 -10z m-3290 -40
c13 -24 13 -40 0 -20 -8 13 -12 13 -32 1 -21 -13 -22 -13 -9 2 13 17 12 18
-11 21 -6 0 -13 7 -16 15 -3 8 0 11 7 7 6 -4 11 -2 11 4 0 16 37 -6 50 -30z
m278 22 c2 -7 -5 -12 -17 -12 -14 0 -19 5 -14 15 6 17 25 15 31 -3z m-1588
-46 c-14 -14 -19 -5 -13 28 6 30 6 30 15 6 5 -14 5 -27 -2 -34z m637 39 c0 -8
-4 -15 -9 -15 -10 0 -11 14 -1 23 9 10 10 9 10 -8z m2093 5 c0 -5 -2 -10 -4
-10 -3 0 -8 5 -11 10 -3 6 -1 10 4 10 6 0 11 -4 11 -10z m90 0 c0 -5 -2 -10
-4 -10 -3 0 -8 5 -11 10 -3 6 -1 10 4 10 6 0 11 -4 11 -10z m720 -9 c0 -5 -11
-16 -24 -25 l-25 -16 17 29 c15 27 32 33 32 12z m663 2 c-3 -7 -6 -13 -8 -13
-2 0 -5 6 -8 13 -3 8 1 14 8 14 7 0 11 -6 8 -14z m-5146 -30 c-8 -7 -47 7 -47
17 0 14 45 16 48 2 2 -8 1 -16 -1 -19z m1078 17 c-3 -4 1 -10 7 -13 7 -2 10
-8 6 -12 -11 -11 -28 4 -28 26 0 11 5 17 10 14 6 -4 8 -10 5 -15z m1949 12 c2
-4 1 -14 -4 -21 -6 -11 -10 -9 -19 8 -10 17 -9 21 3 21 8 0 17 -4 20 -8z m616
-2 c0 -5 -5 -10 -11 -10 -5 0 -7 5 -4 10 3 6 8 10 11 10 2 0 4 -4 4 -10z
m2112 -12 c-7 -7 -12 -8 -12 -2 0 14 12 26 19 19 2 -3 -1 -11 -7 -17z m-5625
-15 c-3 -3 -11 -2 -17 2 -9 6 -9 10 1 16 14 8 27 -7 16 -18z m980 5 c-3 -8 -6
-5 -6 6 -1 11 2 17 5 13 3 -3 4 -12 1 -19z m3948 10 c3 -3 -1 -8 -9 -11 -8 -3
-17 0 -19 8 -5 13 16 15 28 3z m1273 0 c-2 -6 -10 -14 -16 -16 -7 -2 -10 2 -6
12 7 18 28 22 22 4z m-5548 -6 c0 -13 -12 -22 -22 -16 -10 6 -1 24 13 24 5 0
9 -4 9 -8z m935 -2 c3 -5 1 -10 -4 -10 -6 0 -11 5 -11 10 0 6 2 10 4 10 3 0 8
-4 11 -10z m245 0 c0 -5 -9 -10 -21 -10 -11 0 -17 5 -14 10 3 6 13 10 21 10 8
0 14 -4 14 -10z m560 6 c0 -11 -19 -15 -25 -6 -3 5 1 10 9 10 9 0 16 -2 16 -4z
m4080 -12 c0 -17 -22 -14 -28 4 -2 7 3 12 12 12 9 0 16 -7 16 -16z m-2820 -4
c0 -5 -12 -10 -27 -9 -25 0 -26 1 -8 9 27 12 35 12 35 0z m985 0 c3 -5 -1 -10
-10 -10 -9 0 -13 5 -10 10 3 6 8 10 10 10 2 0 7 -4 10 -10z m2265 -11 c0 -5
-4 -9 -10 -9 -5 0 -10 7 -10 16 0 8 5 12 10 9 6 -3 10 -10 10 -16z m-5447 4
c-7 -2 -21 -2 -30 0 -10 3 -4 5 12 5 17 0 24 -2 18 -5z m5527 -7 c0 -18 -17
-29 -30 -21 -8 5 -7 11 1 21 15 18 29 18 29 0z m27 -18 c-12 -13 -24 -19 -25
-15 -5 11 18 37 34 37 9 0 5 -8 -9 -22z m-7157 -20 c0 -13 -23 -5 -28 10 -2 7
2 10 12 6 9 -3 16 -11 16 -16z m7100 -8 c0 -5 -8 -10 -17 -10 -15 0 -16 2 -3
10 19 12 20 12 20 0z m-7155 -54 c18 -13 18 -13 -5 -12 -13 0 -25 7 -28 14 -5
16 10 15 33 -2z m-81 -77 c-4 -6 -11 -6 -20 2 -21 17 -17 31 6 19 11 -6 18
-15 14 -21z m34 -17 c2 -7 -6 -12 -17 -12 -21 0 -27 11 -14 24 9 9 26 2 31
-12z m39 2 c-3 -3 -12 -4 -19 -1 -8 3 -5 6 6 6 11 1 17 -2 13 -5z m-44 -74 c0
-19 1 -27 4 -17 2 9 9 17 14 17 6 0 8 4 5 9 -3 5 1 11 9 15 21 8 25 -6 10 -33
-11 -21 -10 -29 6 -58 19 -33 16 -40 -10 -24 -10 7 -19 4 -28 -7 -12 -16 -14
-16 -24 1 -7 12 -17 16 -30 12 -14 -5 -19 -2 -19 10 0 12 6 16 19 12 14 -3 18
-1 14 9 -6 17 -5 17 -39 -1 -25 -13 -30 -13 -37 0 -12 22 3 66 27 75 29 11 33
4 10 -23 -10 -13 -5 -8 11 10 38 42 61 39 58 -7z m-113 0 c0 -22 -14 -40 -31
-40 -14 0 -19 7 -19 29 0 25 3 28 25 23 14 -2 25 -8 25 -12z m7364 -106 c25
-10 8 -24 -27 -24 -30 1 -31 1 -13 15 23 17 20 17 40 9z m-64 -13 c0 -6 -4
-13 -10 -16 -5 -3 -10 1 -10 9 0 9 5 16 10 16 6 0 10 -4 10 -9z m-7071 -117
c3 -16 1 -17 -13 -5 -19 16 -21 34 -3 29 6 -3 14 -13 16 -24z m-29 -4 c0 -4
-9 -6 -21 -3 -15 4 -17 8 -8 14 14 8 29 3 29 -11z m-6 -95 c-4 -8 -10 -12 -15
-9 -11 6 -2 24 11 24 5 0 7 -7 4 -15z m7091 -16 c-6 -16 -9 -18 -16 -8 -4 8
-3 19 3 26 15 18 21 9 13 -18z m69 -10 c-5 -9 -64 -13 -64 -5 0 26 14 34 41
24 16 -5 26 -14 23 -19z m16 -95 c0 -8 -4 -14 -10 -14 -5 0 -10 2 -10 4 0 2
-3 12 -6 20 -5 12 -2 15 10 10 9 -3 16 -12 16 -20z m-7113 10 c-3 -3 -12 -4
-19 -1 -8 3 -5 6 6 6 11 1 17 -2 13 -5z m7088 -42 c-8 -8 -25 17 -25 38 0 9 6
6 16 -8 9 -13 13 -26 9 -30z m-35 28 c0 -5 -5 -10 -11 -10 -5 0 -7 5 -4 10 3
6 8 10 11 10 2 0 4 -4 4 -10z m35 -79 c3 -5 1 -12 -5 -16 -5 -3 -10 1 -10 9 0
18 6 21 15 7z m-7142 -33 c8 -30 5 -30 -16 -2 -14 19 -15 24 -4 24 8 0 17 -10
20 -22z m32 3 c3 -5 1 -12 -5 -16 -5 -3 -10 1 -10 9 0 18 6 21 15 7z m-45 -32
c0 -5 -7 -6 -15 -3 -8 4 -15 13 -15 21 0 13 3 13 15 3 8 -7 15 -16 15 -21z
m7120 -28 c0 -5 -7 -11 -15 -15 -9 -3 -15 0 -15 9 0 8 7 15 15 15 8 0 15 -4
15 -9z m-7070 -46 c0 -25 -14 -33 -41 -23 -16 5 -27 13 -24 17 4 8 65 13 65 6z
m11 -38 c-13 -13 -15 1 -4 30 7 17 8 17 11 -1 2 -10 -1 -23 -7 -29z m7039 -77
c-18 -11 -22 -7 -14 14 5 13 10 14 18 6 8 -8 7 -13 -4 -20z m-7036 -125 c-6
-16 -24 -21 -24 -7 0 11 11 22 21 22 5 0 6 -7 3 -15z m7036 -72 c0 -5 -5 -15
-10 -23 -8 -12 -10 -11 -10 8 0 12 5 22 10 22 6 0 10 -3 10 -7z m57 -13 c11 0
13 -3 5 -13 -15 -17 -62 -20 -62 -4 0 19 12 28 28 22 7 -3 21 -5 29 -5z
m-7097 -60 c0 -5 -10 -10 -22 -10 -19 0 -20 2 -8 10 19 13 30 13 30 0z m7117
-45 c9 -25 -4 -29 -17 -6 -7 15 -7 21 0 21 6 0 13 -7 17 -15z m-57 -10 c0 -8
-4 -15 -8 -15 -5 0 -9 7 -9 15 0 8 4 15 9 15 4 0 8 -7 8 -15z m40 -21 c0 -17
-22 -14 -28 4 -2 7 3 12 12 12 9 0 16 -7 16 -16z m-7150 -14 c0 -5 -4 -10 -10
-10 -5 0 -10 5 -10 10 0 6 5 10 10 10 6 0 10 -4 10 -10z m-4 -77 c-10 -10 -19
5 -10 18 6 11 8 11 12 0 2 -7 1 -15 -2 -18z m41 -8 c0 -8 -4 -15 -8 -15 -4 0
-9 7 -13 15 -3 9 0 15 8 15 7 0 13 -7 13 -15z m7054 -23 c-7 -2 -18 1 -23 6
-8 8 -4 9 13 5 13 -4 18 -8 10 -11z m-7041 -73 c0 8 2 12 5 9 3 -3 1 -16 -4
-29 -5 -13 -10 -19 -10 -12 -1 6 -4 20 -7 30 -5 15 -4 15 5 3 9 -12 11 -13 11
-1z m7168 -18 c21 -13 -8 -29 -38 -20 -16 4 -19 7 -7 8 9 1 17 6 17 11 0 12
10 13 28 1z m-68 -11 c0 -5 -5 -10 -11 -10 -5 0 -7 5 -4 10 3 6 8 10 11 10 2
0 4 -4 4 -10z m17 -26 c-3 -3 -12 -4 -19 -1 -8 3 -5 6 6 6 11 1 17 -2 13 -5z
m-7099 -49 c-1 -14 -6 -25 -11 -25 -5 0 -6 7 -3 16 3 9 6 20 6 25 0 5 2 9 5 9
3 0 4 -11 3 -25z m7058 -42 c-7 -7 -26 7 -26 19 0 6 6 6 15 -2 9 -7 13 -15 11
-17z m-7196 13 c0 -11 -19 -15 -25 -6 -3 5 1 10 9 10 9 0 16 -2 16 -4z m74
-15 c7 -11 -3 -41 -13 -41 -3 0 -17 10 -31 21 -14 11 -20 18 -15 16 6 -3 17
-2 25 4 19 11 27 11 34 0z m42 -43 c-3 -13 -6 -32 -6 -43 -1 -19 -1 -19 -14
-2 -8 10 -13 26 -11 35 2 9 4 20 4 25 1 4 8 7 17 7 12 0 15 -6 10 -22z m24
-18 c0 -5 -5 -10 -11 -10 -5 0 -7 5 -4 10 3 6 8 10 11 10 2 0 4 -4 4 -10z
m-56 -65 c-4 -9 0 -15 10 -15 9 0 16 -4 16 -10 0 -14 -13 -13 -28 2 -14 14
-16 38 -2 38 5 0 7 -7 4 -15z m-17 -58 c-6 -19 -25 -19 -36 1 -9 17 -7 18 15
14 14 -2 23 -9 21 -15z m7088 -25 c-3 -3 -11 0 -18 7 -9 10 -8 11 6 5 10 -3
15 -9 12 -12z m-7067 -150 c2 -7 -6 -12 -17 -12 -21 0 -27 11 -14 24 9 9 26 2
31 -12z m7069 -8 c4 0 21 -4 38 -9 50 -14 88 -75 46 -75 -13 0 -20 10 -25 31
-5 28 -9 31 -35 27 -21 -3 -31 0 -35 11 -3 9 -9 23 -12 31 -5 13 -4 13 5 0 6
-8 14 -15 18 -16z m-7127 -14 c0 -5 -5 -10 -11 -10 -5 0 -7 5 -4 10 3 6 8 10
11 10 2 0 4 -4 4 -10z m91 -48 c-10 -18 -58 -42 -85 -42 -11 0 22 21 62 39 12
6 22 16 22 22 0 7 3 10 6 7 3 -4 1 -15 -5 -26z m7173 11 c4 -4 15 -8 24 -8 29
0 24 -30 -8 -49 -40 -23 -66 -15 -50 15 6 11 9 27 6 35 -6 15 15 20 28 7z
m-7349 -253 c-3 -5 -12 -10 -20 -10 -8 0 -17 5 -20 10 -4 6 5 10 20 10 15 0
24 -4 20 -10z m-23 -72 c-7 -7 -12 -8 -12 -2 0 6 3 14 7 17 3 4 9 5 12 2 2 -3
-1 -11 -7 -17z m858 -98 c0 -21 -33 -29 -45 -10 -3 6 1 10 9 10 9 0 16 5 16
10 0 6 5 10 10 10 6 0 10 -9 10 -20z m100 10 c0 -5 -4 -10 -10 -10 -5 0 -10 5
-10 10 0 6 5 10 10 10 6 0 10 -4 10 -10z m227 4 c-3 -3 -12 -4 -19 -1 -8 3 -5
6 6 6 11 1 17 -2 13 -5z m163 -22 c0 -8 -1 -13 -3 -11 -1 2 -9 12 -16 22 -12
15 -12 17 3 11 9 -3 16 -13 16 -22z m1664 12 c3 -8 2 -12 -4 -9 -6 3 -10 10
-10 16 0 14 7 11 14 -7z m1676 6 c-20 -13 -67 -13 -75 0 -4 6 12 10 42 10 35
0 44 -3 33 -10z m724 1 c3 -5 0 -11 -8 -14 -8 -3 -17 1 -20 9 -6 15 19 20 28
5z m754 -26 c-9 -9 -30 14 -23 25 6 9 10 8 17 -4 6 -10 8 -19 6 -21z m-3051
19 c-3 -3 -12 -4 -19 -1 -8 3 -5 6 6 6 11 1 17 -2 13 -5z m198 -4 c-3 -5 -13
-10 -21 -10 -8 0 -14 5 -14 10 0 6 9 10 21 10 11 0 17 -4 14 -10z m385 0 c0
-5 -4 -10 -10 -10 -5 0 -10 5 -10 10 0 6 5 10 10 10 6 0 10 -4 10 -10z m1030
-5 c-7 -8 -16 -12 -21 -9 -13 8 -1 24 18 24 13 0 13 -3 3 -15z m152 3 c-7 -7
-12 -22 -12 -35 0 -19 -5 -23 -30 -23 -16 0 -30 4 -30 10 0 11 40 34 41 23 0
-4 4 2 9 15 5 12 15 22 22 22 9 0 9 -3 0 -12z m-4122 -14 c0 -8 -5 -12 -11 -8
-8 4 -9 0 -4 -15 4 -12 2 -21 -4 -21 -15 0 -14 33 1 48 16 16 18 15 18 -4z
m248 -2 c2 -7 -3 -12 -11 -12 -9 0 -17 -6 -20 -12 -2 -8 -8 -9 -13 -4 -5 5 -4
11 4 13 6 3 12 11 12 20 0 17 22 13 28 -5z m307 8 c3 -5 1 -10 -4 -10 -6 0
-11 5 -11 10 0 6 2 10 4 10 3 0 8 -4 11 -10z m1603 -15 c0 -13 -4 -22 -8 -20
-5 3 -10 1 -12 -4 -1 -5 -9 -3 -16 5 -11 12 -10 14 3 14 8 0 15 7 15 15 0 8 4
15 9 15 5 0 9 -11 9 -25z m297 10 c0 -5 -10 -11 -22 -13 -16 -2 -23 2 -23 13
0 11 7 15 23 13 12 -2 22 -7 22 -13z m2228 0 c-3 -9 -8 -14 -10 -11 -3 3 -2 9
2 15 9 16 15 13 8 -4z m1437 -10 c0 -16 -6 -25 -15 -25 -9 0 -15 9 -15 25 0
16 6 25 15 25 9 0 15 -9 15 -25z m433 8 c-4 -11 -3 -14 5 -9 7 4 12 1 12 -8 0
-22 -17 -20 -30 3 -13 26 -13 31 5 31 9 0 12 -6 8 -17z m-6900 -12 c-4 -3 -11
-10 -15 -15 -5 -5 -8 0 -8 12 0 15 4 20 16 15 9 -3 12 -9 7 -12z m791 4 c-4
-8 -11 -12 -16 -9 -6 4 -5 10 3 15 19 12 19 11 13 -6z m3595 -27 c1 -5 -5 -8
-13 -8 -9 0 -12 8 -8 27 5 25 6 25 13 8 4 -11 8 -23 8 -27z m618 24 c0 -10 -9
-19 -19 -19 -18 -2 -20 17 -3 29 16 12 24 9 22 -10z m653 -1 c0 -4 -7 -8 -15
-8 -16 0 -20 9 -9 20 8 8 24 -1 24 -12z m680 10 c0 -10 -24 -21 -46 -21 -8 0
-14 7 -14 15 0 10 10 15 30 15 17 0 30 -4 30 -9z m-3480 -10 c0 -12 -20 -25
-27 -18 -7 7 6 27 18 27 5 0 9 -4 9 -9z m1723 -22 c-3 -10 -12 -19 -19 -19
-15 0 -17 10 -8 34 8 21 33 9 27 -15z m87 6 c0 -9 6 -12 18 -8 16 5 16 5 0
-12 -14 -15 -20 -16 -33 -5 -10 9 -12 16 -5 25 5 6 6 16 2 20 -4 5 -1 5 6 1 6
-4 12 -14 12 -21z m-2615 5 c3 -5 2 -10 -4 -10 -5 0 -13 5 -16 10 -3 6 -2 10
4 10 5 0 13 -4 16 -10z m630 0 c3 -6 -1 -7 -9 -4 -18 7 -21 14 -7 14 6 0 13
-4 16 -10z m912 3 c-4 -3 -2 -12 4 -19 7 -9 4 -17 -13 -29 l-23 -17 23 5 c21
5 23 3 18 -16 -17 -56 -18 -83 -3 -95 11 -10 19 -8 40 8 14 11 31 20 39 20 7
0 -1 -9 -18 -21 -22 -13 -30 -25 -27 -38 3 -13 -2 -20 -18 -24 -15 -4 -20 -11
-17 -24 4 -13 -1 -19 -13 -20 -19 -2 -25 15 -11 33 4 5 1 3 -7 -6 -13 -14 -18
-12 -50 17 -32 29 -34 35 -24 52 7 11 10 28 6 37 -5 13 -3 16 10 11 10 -4 17
-1 18 6 0 7 4 3 9 -8 7 -15 9 -9 9 26 1 31 7 52 21 67 12 12 18 22 15 22 -3 0
-3 5 0 10 3 6 9 10 12 10 4 0 3 -3 0 -7z m1359 -30 c-11 -11 -19 6 -11 24 8
17 8 17 12 0 3 -10 2 -21 -1 -24z m296 15 c-7 -7 -12 -8 -12 -2 0 14 12 26 19
19 2 -3 -1 -11 -7 -17z m1178 12 c0 -5 -5 -10 -11 -10 -5 0 -7 5 -4 10 3 6 8
10 11 10 2 0 4 -4 4 -10z m65 0 c3 -5 1 -10 -4 -10 -6 0 -11 5 -11 10 0 6 2
10 4 10 3 0 8 -4 11 -10z m385 0 c0 -5 -4 -10 -10 -10 -5 0 -10 5 -10 10 0 6
5 10 10 10 6 0 10 -4 10 -10z m-6426 -15 c-4 -8 -11 -12 -16 -9 -6 4 -5 10 3
15 19 12 19 11 13 -6z m146 5 c0 -5 -5 -10 -11 -10 -5 0 -7 5 -4 10 3 6 8 10
11 10 2 0 4 -4 4 -10z m1996 -16 c-4 -9 -9 -15 -11 -12 -3 3 -3 13 1 22 4 9 9
15 11 12 3 -3 3 -13 -1 -22z m482 -5 c-6 -4 -18 -4 -27 -1 -14 6 -14 7 2 10 9
2 17 9 17 15 0 7 4 6 10 -3 6 -9 5 -17 -2 -21z m562 21 c0 -5 -4 -10 -10 -10
-5 0 -10 5 -10 10 0 6 5 10 10 10 6 0 10 -4 10 -10z m1970 -15 c0 -28 -15 -34
-24 -9 -10 25 -7 34 9 34 9 0 15 -9 15 -25z m309 -15 c0 -10 -3 -8 -9 5 -12
27 -12 43 0 25 5 -8 9 -22 9 -30z m348 20 c-3 -12 1 -24 11 -29 9 -5 13 -13 9
-17 -5 -5 -12 -2 -17 6 -7 12 -11 10 -18 -9 -7 -20 -9 -21 -21 -7 -11 14 -11
16 3 16 18 0 20 8 7 30 -12 17 -5 30 16 30 10 0 14 -6 10 -20z m423 1 c0 -14
-18 -23 -31 -15 -8 4 -7 9 2 15 18 11 29 11 29 0z m-4440 -22 c0 -5 -4 -9 -10
-9 -5 0 -10 7 -10 16 0 8 5 12 10 9 6 -3 10 -10 10 -16z m2760 11 c0 -5 -7 -7
-15 -4 -8 4 -15 8 -15 10 0 2 7 4 15 4 8 0 15 -4 15 -10z m253 -10 c-3 -12 -8
-19 -11 -16 -5 6 5 36 12 36 2 0 2 -9 -1 -20z m437 16 c0 -11 -19 -15 -25 -6
-3 5 1 10 9 10 9 0 16 -2 16 -4z m831 -9 c-1 -4 -1 -15 -1 -24 -1 -17 -2 -16
-15 1 -8 10 -12 23 -9 28 7 10 26 6 25 -5z m-5541 -7 c0 -5 -4 -10 -10 -10 -5
0 -10 5 -10 10 0 6 5 10 10 10 6 0 10 -4 10 -10z m1534 -11 c-1 -12 5 -14 24
-11 l25 5 -22 -31 c-20 -28 -25 -31 -44 -20 -21 11 -21 11 -2 19 17 6 17 8 3
8 -12 1 -16 7 -13 19 3 9 -2 2 -10 -15 -14 -31 -35 -45 -35 -23 0 6 5 10 10
10 6 0 10 11 10 23 0 13 3 27 7 31 13 12 48 1 47 -15z m606 6 c0 -2 -4 -15
-10 -29 -10 -27 -43 -27 -34 0 2 8 6 21 9 29 3 12 35 12 35 0z m1300 11 c0
-11 -19 -15 -25 -6 -3 5 1 10 9 10 9 0 16 -2 16 -4z m-3780 -38 c0 -5 -4 -8
-10 -8 -5 0 -10 10 -10 23 0 18 2 19 10 7 5 -8 10 -18 10 -22z m620 22 c0 -5
-7 -10 -15 -10 -8 0 -15 5 -15 10 0 6 7 10 15 10 8 0 15 -4 15 -10z m1001 -13
c-13 -13 -26 -3 -16 12 3 6 11 8 17 5 6 -4 6 -10 -1 -17z m2845 7 c-3 -8 -3
-27 0 -41 5 -20 11 -23 30 -19 17 5 24 2 24 -8 0 -8 -12 -16 -27 -19 -26 -4
-26 -4 5 -6 38 -1 43 -22 10 -45 -30 -21 -38 -20 -38 4 0 11 -6 23 -14 26 -21
8 -39 64 -22 64 8 0 16 14 20 30 3 17 8 30 12 30 3 0 3 -7 0 -16z m-3180 -32
c-22 -23 -29 -10 -9 18 11 16 18 19 21 11 2 -7 -3 -20 -12 -29z m1094 29 c0
-5 -7 -11 -15 -15 -15 -5 -20 5 -8 17 9 10 23 9 23 -2z m350 -13 c0 -16 -3
-19 -11 -11 -6 6 -8 16 -5 22 11 17 16 13 16 -11z m1304 7 c-4 -8 -8 -15 -10
-15 -2 0 -4 7 -4 15 0 8 4 15 10 15 5 0 7 -7 4 -15z m1801 5 c3 -5 2 -10 -4
-10 -5 0 -13 5 -16 10 -3 6 -2 10 4 10 5 0 13 -4 16 -10z m-6675 -19 c0 -4 -7
-8 -15 -8 -16 0 -20 9 -9 20 8 8 24 -1 24 -12z m2433 5 c6 -14 -1 -26 -14 -26
-4 0 -7 9 -6 20 1 23 12 26 20 6z m167 -11 c19 -20 21 -27 10 -40 -7 -8 -15
-13 -18 -10 -3 2 -11 -3 -18 -13 -12 -15 -13 -15 -14 10 0 22 4 26 25 24 13
-2 22 1 19 5 -3 5 -13 9 -22 9 -15 0 -15 2 -2 11 12 9 11 10 -7 6 -16 -3 -23
0 -23 9 0 22 24 17 50 -11z m1130 11 c0 -8 -4 -17 -9 -21 -12 -7 -24 12 -16
25 9 15 25 12 25 -4z m1834 -13 c-15 -61 -19 -66 -33 -49 -9 11 -10 16 -2 16
9 0 9 5 1 20 -13 25 -5 40 21 40 16 0 18 -5 13 -27z m363 12 c9 -25 -4 -29
-17 -6 -7 15 -7 21 0 21 6 0 13 -7 17 -15z m1123 -28 c0 -5 -7 -4 -15 3 -8 7
-15 20 -15 29 1 13 3 13 15 -3 8 -11 15 -24 15 -29z m-6574 22 c3 -6 1 -16 -6
-22 -10 -9 -12 -8 -7 5 3 9 1 19 -6 22 -9 3 -9 5 0 5 6 1 15 -4 19 -10z m5625
-3 c5 3 9 0 9 -5 0 -6 -7 -11 -15 -11 -8 0 -15 8 -14 18 0 10 3 12 6 4 2 -6 9
-10 14 -6z m-1010 -20 c-9 -11 -9 -15 0 -18 7 -2 10 -11 7 -18 -3 -11 -8 -9
-17 8 -10 18 -10 26 0 38 6 8 14 12 17 9 3 -2 0 -11 -7 -19z m359 16 c0 -5 -7
-9 -15 -9 -8 0 -15 4 -15 9 0 4 7 8 15 8 8 0 15 -4 15 -8z m-5050 -22 c0 -11
-7 -20 -15 -20 -15 0 -21 21 -8 33 12 13 23 7 23 -13z m640 9 c0 -8 4 -8 14 1
13 10 14 7 10 -15 -3 -17 -1 -24 6 -20 13 8 13 -5 0 -25 -9 -13 -10 -13 -10 0
0 8 -11 24 -25 34 -28 21 -32 36 -10 36 8 0 15 -5 15 -11z m3500 1 c0 -5 -9
-10 -21 -10 -11 0 -17 5 -14 10 3 6 13 10 21 10 8 0 14 -4 14 -10z m-4270 -16
c0 -8 -4 -12 -10 -9 -5 3 -10 10 -10 16 0 5 5 9 10 9 6 0 10 -7 10 -16z m1870
0 c0 -8 -5 -12 -10 -9 -6 4 -8 11 -5 16 9 14 15 11 15 -7z m120 6 c0 -12 -28
-25 -36 -17 -9 9 6 27 22 27 8 0 14 -5 14 -10z m1020 -22 c0 -11 -7 -18 -20
-18 -22 0 -23 1 -15 23 8 20 35 17 35 -5z m310 -9 c0 -13 7 -19 21 -19 11 0
17 5 14 10 -4 6 -12 8 -18 4 -7 -3 -3 2 7 10 27 22 39 20 33 -4 -3 -11 -1 -23
4 -26 20 -12 1 -29 -33 -29 -29 -1 -36 3 -36 20 0 11 -3 31 -7 44 -6 17 -5 22
3 17 7 -4 12 -16 12 -27z m1844 15 c-18 -15 -18 -15 4 -9 12 4 22 2 22 -3 0
-17 -13 -21 -31 -11 -26 14 -24 39 3 39 21 0 21 0 2 -16z m586 6 c0 -5 -4 -10
-10 -10 -5 0 -10 5 -10 10 0 6 5 10 10 10 6 0 10 -4 10 -10z m66 -6 c-4 -12
-1 -14 14 -9 15 5 18 3 14 -9 -8 -20 -13 -20 -36 1 -22 20 -23 33 -2 33 11 0
14 -5 10 -16z m-5546 2 c0 -3 -4 -8 -10 -11 -5 -3 -10 -1 -10 4 0 6 5 11 10
11 6 0 10 -2 10 -4z m65 -6 c3 -5 1 -10 -4 -10 -6 0 -11 5 -11 10 0 6 2 10 4
10 3 0 8 -4 11 -10z m95 -1 c0 -8 5 -8 15 1 8 7 15 11 16 9 8 -45 8 -79 -2
-79 -6 0 -9 9 -6 20 3 11 1 18 -3 15 -10 -6 -50 24 -50 37 0 5 7 8 15 8 8 0
15 -5 15 -11z m2260 -5 c0 -17 -22 -14 -28 4 -2 7 3 12 12 12 9 0 16 -7 16
-16z m2245 6 c3 -5 -1 -10 -9 -10 -9 0 -16 5 -16 10 0 6 4 10 9 10 6 0 13 -4
16 -10z m1715 0 c0 -5 -9 -10 -21 -10 -11 0 -17 5 -14 10 3 6 13 10 21 10 8 0
14 -4 14 -10z m-5869 -63 c9 -9 19 -14 22 -11 2 3 7 -2 10 -11 9 -23 -12 -18
-36 9 l-22 24 -12 -26 c-8 -15 -11 -19 -8 -9 3 10 5 35 6 55 1 37 1 37 12 11
7 -14 19 -33 28 -42z m547 44 c3 -8 -1 -12 -9 -9 -7 2 -15 10 -17 17 -3 8 1
12 9 9 7 -2 15 -10 17 -17z m655 -24 c-4 -26 -9 -34 -17 -28 -19 16 -18 59 2
63 23 6 22 7 15 -35z m1747 18 c0 -16 -6 -25 -15 -25 -9 0 -15 9 -15 25 0 16
6 25 15 25 9 0 15 -9 15 -25z m448 -3 c2 -12 -2 -22 -8 -22 -7 0 -9 9 -6 23 3
12 3 16 0 9 -6 -13 -24 -7 -24 9 0 21 35 3 38 -19z m-3250 1 c2 -8 -5 -13 -17
-13 -21 0 -35 13 -24 24 10 10 36 3 41 -11z m2140 -6 c2 -12 -3 -17 -17 -17
-12 0 -21 6 -21 13 0 31 32 34 38 4z m3347 1 c-19 -11 -30 -5 -21 11 4 6 14 7
22 4 15 -5 14 -7 -1 -15z m-4082 -9 c-4 -15 -9 -17 -17 -9 -8 8 -7 13 4 20 8
5 16 10 17 10 0 0 -1 -9 -4 -21z m-1915 -19 c9 -24 7 -33 -9 -52 -17 -18 -20
-19 -15 -5 3 10 6 34 6 53 0 42 5 43 18 4z m945 10 c-3 -11 -7 -20 -9 -20 -2
0 -4 9 -4 20 0 11 4 20 9 20 5 0 7 -9 4 -20z m2327 10 c0 -5 -5 -10 -11 -10
-5 0 -7 5 -4 10 3 6 8 10 11 10 2 0 4 -4 4 -10z m70 0 c0 -5 -4 -10 -10 -10
-5 0 -10 5 -10 10 0 6 5 10 10 10 6 0 10 -4 10 -10z m380 0 c0 -5 -4 -10 -10
-10 -5 0 -10 5 -10 10 0 6 5 10 10 10 6 0 10 -4 10 -10z m70 -5 c11 -13 10
-14 -4 -9 -9 3 -16 10 -16 15 0 13 6 11 20 -6z m-3629 -10 c0 -5 -9 -11 -21
-13 -15 -3 -18 1 -14 13 7 17 35 17 35 0z m4449 -10 c0 -15 -6 -25 -14 -25
-24 0 -29 20 -10 35 25 19 24 19 24 -10z m-4780 0 c0 -8 -2 -15 -4 -15 -2 0
-6 7 -10 15 -3 8 -1 15 4 15 6 0 10 -7 10 -15z m2080 -16 c0 -12 -27 -11 -35
1 -11 17 5 32 21 19 8 -6 14 -15 14 -20z m4077 25 c-3 -3 -12 -4 -19 -1 -8 3
-5 6 6 6 11 1 17 -2 13 -5z m-3367 -16 c0 6 7 12 15 12 9 0 15 -9 15 -21 0
-12 -5 -19 -12 -17 -7 3 -19 -1 -26 -9 -23 -22 -31 -14 -20 18 8 23 13 27 19
17 6 -10 9 -10 9 0z m751 -1 c-1 -4 -1 -15 -1 -24 -1 -17 -2 -16 -15 1 -8 10
-12 23 -9 28 7 10 26 6 25 -5z m-2409 -14 c-6 -3 -9 -9 -6 -15 4 -6 1 -9 -6
-6 -23 7 -21 24 2 25 13 0 17 -1 10 -4z m2090 -51 c11 -20 10 -25 -5 -33 -9
-6 -17 -17 -17 -24 0 -8 -7 -15 -15 -15 -9 0 -12 6 -9 15 4 8 10 15 15 15 4 0
2 19 -6 41 -8 23 -15 43 -15 45 0 11 41 -23 52 -44z m278 38 c0 -5 -4 -10 -9
-10 -6 0 -13 5 -16 10 -3 6 1 10 9 10 9 0 16 -4 16 -10z m-1435 -20 c0 -7 -6
-15 -12 -17 -8 -3 -13 4 -13 17 0 13 5 20 13 18 6 -3 12 -11 12 -18z m1805
-23 c0 -5 -7 -4 -15 3 -8 7 -15 20 -15 29 1 13 3 13 15 -3 8 -11 15 -24 15
-29z m-2665 12 c11 -17 0 -20 -21 -4 -17 13 -17 14 -2 15 9 0 20 -5 23 -11z
m105 -9 c0 -5 -2 -10 -4 -10 -3 0 -8 5 -11 10 -3 6 -1 10 4 10 6 0 11 -4 11
-10z m38 -9 c3 -8 -1 -12 -9 -9 -7 2 -15 10 -17 17 -3 8 1 12 9 9 7 -2 15 -10
17 -17z m-105 -38 c-5 -13 -7 -13 -21 0 -8 8 -11 20 -7 27 10 16 35 -7 28 -27z
m2262 1 c13 -5 14 -8 3 -15 -19 -13 -28 -11 -28 6 0 17 2 18 25 9z"/>
<path d="M5350 1196 c0 -2 9 -6 20 -9 11 -3 18 -1 14 4 -5 9 -34 13 -34 5z"/>
<path d="M7168 1273 c7 -3 16 -2 19 1 4 3 -2 6 -13 5 -11 0 -14 -3 -6 -6z"/>
<path d="M4770 4676 c0 -2 7 -7 16 -10 8 -3 12 -2 9 4 -6 10 -25 14 -25 6z"/>
<path d="M5862 4600 c0 -14 2 -19 5 -12 2 6 2 18 0 25 -3 6 -5 1 -5 -13z"/>
<path d="M3735 4590 c10 -11 20 -20 23 -20 3 0 -3 9 -13 20 -10 11 -20 20 -23
20 -3 0 3 -9 13 -20z"/>
<path d="M3879 4523 l-24 -28 28 24 c25 23 32 31 24 31 -2 0 -14 -12 -28 -27z"/>
<path d="M4796 4531 c-4 -5 -2 -20 3 -33 9 -21 9 -20 8 9 -2 36 -3 38 -11 24z"/>
<path d="M1781 4493 c-1 -6 -4 -20 -7 -30 -5 -17 -5 -17 6 0 6 10 9 23 6 30
-3 9 -5 9 -5 0z"/>
<path d="M1978 4493 c7 -3 16 -2 19 1 4 3 -2 6 -13 5 -11 0 -14 -3 -6 -6z"/>
<path d="M2250 4496 c0 -2 7 -7 16 -10 8 -3 12 -2 9 4 -6 10 -25 14 -25 6z"/>
<path d="M2040 4481 c0 -5 9 -7 20 -4 11 3 20 7 20 9 0 2 -9 4 -20 4 -11 0
-20 -4 -20 -9z"/>
<path d="M5744 4468 l-19 -23 25 20 c14 11 27 21 29 22 2 2 0 3 -6 3 -5 0 -18
-10 -29 -22z"/>
<path d="M5180 4460 c-14 -11 -20 -20 -14 -20 6 0 19 9 29 20 23 25 17 25 -15
0z"/>
<path d="M5946 4461 c-3 -5 5 -11 19 -13 30 -6 32 -2 6 12 -11 6 -22 6 -25 1z"/>
<path d="M3069 4443 c-13 -16 -12 -17 4 -4 16 13 21 21 13 21 -2 0 -10 -8 -17
-17z"/>
<path d="M5919 4436 c14 -15 26 -26 28 -26 9 0 -24 40 -37 45 -8 4 -4 -5 9
-19z"/>
<path d="M2062 4430 c7 -11 17 -20 22 -20 5 0 1 9 -9 20 -10 11 -20 20 -22 20
-2 0 2 -9 9 -20z"/>
<path d="M5229 4433 c-13 -16 -12 -17 4 -4 16 13 21 21 13 21 -2 0 -10 -8 -17
-17z"/>
<path d="M1668 4433 c7 -3 16 -2 19 1 4 3 -2 6 -13 5 -11 0 -14 -3 -6 -6z"/>
<path d="M6685 4420 c10 -11 20 -20 23 -20 3 0 -3 9 -13 20 -10 11 -20 20 -23
20 -3 0 3 -9 13 -20z"/>
<path d="M1956 4405 c-3 -9 -6 -22 -5 -28 0 -7 5 -1 10 12 5 13 8 26 5 28 -2
2 -6 -3 -10 -12z"/>
<path d="M4281 4404 c0 -11 3 -14 6 -6 3 7 2 16 -1 19 -3 4 -6 -2 -5 -13z"/>
<path d="M8519 4393 l-24 -28 28 24 c15 14 27 26 27 28 0 8 -8 1 -31 -24z"/>
<path d="M2358 4403 c7 -3 16 -2 19 1 4 3 -2 6 -13 5 -11 0 -14 -3 -6 -6z"/>
<path d="M4841 4394 c0 -11 3 -14 6 -6 3 7 2 16 -1 19 -3 4 -6 -2 -5 -13z"/>
<path d="M6100 4400 c-9 -6 -10 -10 -3 -10 6 0 15 5 18 10 8 12 4 12 -15 0z"/>
<path d="M2201 4384 c13 -16 29 -19 29 -5 0 5 -9 11 -21 14 -16 4 -18 3 -8 -9z"/>
<path d="M3540 4396 c0 -2 8 -10 18 -17 15 -13 16 -12 3 4 -13 16 -21 21 -21
13z"/>
<path d="M8368 4393 c7 -3 16 -2 19 1 4 3 -2 6 -13 5 -11 0 -14 -3 -6 -6z"/>
<path d="M1658 4363 c7 -3 16 -2 19 1 4 3 -2 6 -13 5 -11 0 -14 -3 -6 -6z"/>
<path d="M2306 4337 c3 -10 9 -15 12 -12 3 3 0 11 -7 18 -10 9 -11 8 -5 -6z"/>
<path d="M7280 4330 c8 -5 20 -10 25 -10 6 0 3 5 -5 10 -8 5 -19 10 -25 10 -5
0 -3 -5 5 -10z"/>
<path d="M5755 4309 c-4 -6 -5 -12 -2 -15 2 -3 7 2 10 11 7 17 1 20 -8 4z"/>
<path d="M8481 4304 c0 -11 3 -14 6 -6 3 7 2 16 -1 19 -3 4 -6 -2 -5 -13z"/>
<path d="M4990 4300 c8 -5 20 -10 25 -10 6 0 3 5 -5 10 -8 5 -19 10 -25 10 -5
0 -3 -5 5 -10z"/>
<path d="M4140 4291 c0 -6 5 -13 10 -16 6 -3 10 1 10 9 0 9 -4 16 -10 16 -5 0
-10 -4 -10 -9z"/>
<path d="M5982 4280 c0 -14 2 -19 5 -12 2 6 2 18 0 25 -3 6 -5 1 -5 -13z"/>
<path d="M6668 4265 c-3 -14 -2 -28 2 -30 4 -3 10 9 12 25 5 36 -8 40 -14 5z"/>
<path d="M6998 4263 c5 -21 7 -23 10 -9 2 10 0 22 -6 28 -6 6 -7 0 -4 -19z"/>
<path d="M6347 4255 c3 -16 6 -48 5 -70 -1 -34 0 -37 8 -17 6 15 14 21 22 16
11 -6 11 -5 0 8 -6 8 -19 33 -27 54 -11 28 -13 31 -8 9z"/>
<path d="M6802 4250 c0 -14 2 -19 5 -12 2 6 2 18 0 25 -3 6 -5 1 -5 -13z"/>
<path d="M4665 4240 c-3 -5 1 -10 10 -10 9 0 13 5 10 10 -3 6 -8 10 -10 10 -2
0 -7 -4 -10 -10z"/>
<path d="M7898 4222 c-4 -30 -4 -30 18 -14 13 10 17 19 11 21 -7 2 -15 8 -18
14 -4 5 -8 -5 -11 -21z"/>
<path d="M8447 4213 c-4 -3 -7 -16 -6 -27 0 -19 1 -19 10 3 10 24 8 36 -4 24z"/>
<path d="M5971 4194 c0 -11 3 -14 6 -6 3 7 2 16 -1 19 -3 4 -6 -2 -5 -13z"/>
<path d="M8126 4192 c7 -4 14 -16 17 -27 4 -15 5 -14 6 8 1 20 -4 27 -16 27
-12 0 -14 -3 -7 -8z"/>
<path d="M7753 4133 c0 -37 0 -38 9 -10 6 18 7 32 1 38 -5 5 -9 -6 -10 -28z"/>
<path d="M9059 3813 c-13 -16 -12 -17 4 -4 16 13 21 21 13 21 -2 0 -10 -8 -17
-17z"/>
<path d="M8803 3743 c9 -2 25 -2 35 0 9 3 1 5 -18 5 -19 0 -27 -2 -17 -5z"/>
<path d="M1208 3643 c7 -3 16 -2 19 1 4 3 -2 6 -13 5 -11 0 -14 -3 -6 -6z"/>
<path d="M8920 3631 c0 -6 4 -13 10 -16 6 -3 7 1 4 9 -7 18 -14 21 -14 7z"/>
<path d="M8970 3596 c0 -2 8 -10 18 -17 15 -13 16 -12 3 4 -13 16 -21 21 -21
13z"/>
<path d="M1360 3546 c0 -2 8 -10 18 -17 15 -13 16 -12 3 4 -13 16 -21 21 -21
13z"/>
<path d="M1480 3526 c0 -2 7 -9 15 -16 13 -11 14 -10 9 4 -5 14 -24 23 -24 12z"/>
<path d="M1476 3497 c3 -10 9 -15 12 -12 3 3 0 11 -7 18 -10 9 -11 8 -5 -6z"/>
<path d="M1315 3250 c-3 -6 1 -7 9 -4 18 7 21 14 7 14 -6 0 -13 -4 -16 -10z"/>
<path d="M1236 2905 c4 -11 8 -30 8 -42 1 -14 5 -18 10 -13 6 6 3 22 -7 42
-10 18 -15 24 -11 13z"/>
<path d="M1169 2887 c17 -45 13 -48 -26 -21 -47 31 -77 29 -81 -8 -4 -30 17
-46 66 -50 26 -2 29 -5 19 -17 -10 -12 -9 -13 10 -3 36 20 53 15 54 -15 0 -16
3 -22 6 -15 7 17 43 15 43 -2 0 -9 7 -12 20 -9 14 4 20 0 20 -11 0 -23 66 -22
79 2 14 26 -19 67 -48 59 -11 -3 -23 -2 -26 3 -5 8 -56 21 -89 24 -14 1 -22
12 -29 36 -5 19 -13 40 -18 45 -6 6 -6 -1 0 -18z"/>
<path d="M1415 2760 c3 -5 13 -10 21 -10 8 0 12 5 9 10 -3 6 -13 10 -21 10 -8
0 -12 -4 -9 -10z"/>
<path d="M1160 2720 c-8 -5 -10 -10 -5 -10 6 0 17 5 25 10 8 5 11 10 5 10 -5
0 -17 -5 -25 -10z"/>
<path d="M1280 2710 c8 -5 22 -9 30 -9 10 0 8 3 -5 9 -27 12 -43 12 -25 0z"/>
<path d="M1380 2696 c0 -2 7 -7 16 -10 8 -3 12 -2 9 4 -6 10 -25 14 -25 6z"/>
<path d="M1470 2661 c0 -6 4 -13 10 -16 6 -3 7 1 4 9 -7 18 -14 21 -14 7z"/>
<path d="M8721 2474 c0 -11 3 -14 6 -6 3 7 2 16 -1 19 -3 4 -6 -2 -5 -13z"/>
<path d="M8758 2463 c7 -3 16 -2 19 1 4 3 -2 6 -13 5 -11 0 -14 -3 -6 -6z"/>
<path d="M8930 2430 c-8 -5 -12 -12 -9 -15 4 -3 12 1 19 10 14 17 11 19 -10 5z"/>
<path d="M1519 2373 c-13 -16 -12 -17 4 -4 9 7 17 15 17 17 0 8 -8 3 -21 -13z"/>
<path d="M8768 2243 c7 -3 16 -2 19 1 4 3 -2 6 -13 5 -11 0 -14 -3 -6 -6z"/>
<path d="M9159 2153 c-13 -16 -12 -17 4 -4 16 13 21 21 13 21 -2 0 -10 -8 -17
-17z"/>
<path d="M1438 2078 c5 -5 16 -8 23 -6 8 3 3 7 -10 11 -17 4 -21 3 -13 -5z"/>
<path d="M9158 2066 l-37 -25 -4 22 c-3 18 -5 17 -6 -6 -1 -35 -27 -46 -47
-21 -10 14 -13 15 -8 3 8 -25 -22 -30 -42 -8 -9 10 -24 19 -33 18 -10 0 -8 -3
7 -9 26 -11 28 -23 7 -40 -10 -9 -15 -9 -15 -1 0 20 -29 12 -45 -13 -19 -29
-11 -52 21 -60 29 -8 44 -1 44 19 0 22 38 5 43 -19 3 -14 5 -10 6 12 1 28 9
37 34 33 4 0 7 6 7 14 0 22 30 18 59 -7 22 -20 23 -20 8 -2 -24 29 -22 34 17
34 46 0 85 32 70 57 -17 27 -46 27 -86 -1z"/>
<path d="M1378 2073 c7 -3 16 -2 19 1 4 3 -2 6 -13 5 -11 0 -14 -3 -6 -6z"/>
<path d="M8878 1983 c7 -3 16 -2 19 1 4 3 -2 6 -13 5 -11 0 -14 -3 -6 -6z"/>
<path d="M8650 1970 c7 -4 8 -10 4 -12 -5 -3 -3 -3 4 -1 8 1 23 3 34 3 33 0
11 15 -24 16 -18 1 -25 -1 -18 -6z"/>
<path d="M8771 1944 c0 -11 3 -14 6 -6 3 7 2 16 -1 19 -3 4 -6 -2 -5 -13z"/>
<path d="M1381 1864 c0 -11 3 -14 6 -6 3 7 2 16 -1 19 -3 4 -6 -2 -5 -13z"/>
<path d="M8926 1834 c-9 -23 -4 -24 17 -2 13 14 14 18 3 18 -8 0 -17 -7 -20
-16z"/>
<path d="M9078 1783 c7 -3 16 -2 19 1 4 3 -2 6 -13 5 -11 0 -14 -3 -6 -6z"/>
<path d="M1329 1713 c-13 -16 -12 -17 4 -4 9 7 17 15 17 17 0 8 -8 3 -21 -13z"/>
<path d="M8703 1645 c-10 -10 -9 -14 2 -19 21 -8 19 -34 -2 -39 -14 -4 -12 -5
5 -6 23 -1 26 13 14 55 -6 18 -9 19 -19 9z"/>
<path d="M1384 1636 c11 -9 24 -16 30 -16 12 0 7 5 -24 19 -24 11 -24 11 -6
-3z"/>
<path d="M8770 1580 c0 -6 7 -10 15 -10 8 0 15 2 15 4 0 2 -7 6 -15 10 -8 3
-15 1 -15 -4z"/>
<path d="M8868 1433 c6 -2 18 -2 25 0 6 3 1 5 -13 5 -14 0 -19 -2 -12 -5z"/>
<path d="M1312 1408 c-15 -15 -15 -28 0 -28 6 0 8 3 5 7 -4 3 -2 12 4 20 14
16 7 17 -9 1z"/>
<path d="M7840 1219 c0 -19 -2 -20 -17 -8 -16 12 -17 12 -6 -2 7 -8 16 -26 21
-40 8 -20 9 -17 10 24 1 26 -1 47 -3 47 -3 0 -5 -10 -5 -21z"/>
<path d="M3717 1177 c-10 -16 -12 -28 -6 -38 8 -12 9 -12 7 1 -1 8 3 25 10 38
17 29 9 28 -11 -1z"/>
<path d="M4336 1144 c-9 -24 -2 -26 12 -4 7 11 8 20 3 20 -5 0 -12 -7 -15 -16z"/>
<path d="M4429 1143 c-13 -16 -12 -17 4 -4 16 13 21 21 13 21 -2 0 -10 -8 -17
-17z"/>
<path d="M7190 1136 c0 -14 4 -27 8 -30 5 -3 6 8 4 25 -5 35 -12 38 -12 5z"/>
<path d="M1620 1125 c13 -14 26 -25 28 -25 3 0 -5 11 -18 25 -13 14 -26 25
-28 25 -3 0 5 -11 18 -25z"/>
<path d="M8216 1135 c-3 -9 -6 -24 -5 -33 0 -9 5 -4 10 12 9 32 6 48 -5 21z"/>
<path d="M7851 1124 c0 -11 3 -14 6 -6 3 7 2 16 -1 19 -3 4 -6 -2 -5 -13z"/>
<path d="M4590 1126 c0 -2 8 -10 18 -17 15 -13 16 -12 3 4 -13 16 -21 21 -21
13z"/>
<path d="M5151 1094 c0 -11 3 -14 6 -6 3 7 2 16 -1 19 -3 4 -6 -2 -5 -13z"/>
<path d="M3045 1089 c-9 -14 0 -22 18 -17 13 2 13 5 2 15 -10 9 -16 9 -20 2z"/>
<path d="M1942 1050 c0 -14 2 -19 5 -12 2 6 2 18 0 25 -3 6 -5 1 -5 -13z"/>
<path d="M2949 1051 c-19 -15 -21 -21 -11 -34 10 -12 9 -16 -4 -21 -10 -4 -14
-13 -11 -26 6 -24 -9 -35 -48 -33 -25 1 -26 1 -5 -4 62 -12 58 -38 -8 -60 -22
-8 -26 -11 -9 -8 32 6 33 3 6 -34 -28 -38 -22 -75 12 -79 21 -2 28 3 37 25 6
15 13 39 14 53 l3 25 18 -30 c18 -29 16 -18 -6 37 -14 34 -4 45 27 30 19 -8
26 -21 29 -49 l4 -38 1 36 c1 25 -4 42 -18 54 -29 26 -25 45 10 45 19 0 33 7
40 21 7 11 9 23 7 26 -3 2 -8 -5 -12 -16 -8 -26 -40 -28 -42 -2 -1 12 6 21 19
24 17 5 19 11 13 34 -11 45 -31 53 -66 24z"/>
<path d="M1999 1043 c-13 -16 -12 -17 4 -4 16 13 21 21 13 21 -2 0 -10 -8 -17
-17z"/>
<path d="M2906 1025 c-9 -26 -7 -32 5 -12 6 10 9 21 6 23 -2 3 -7 -2 -11 -11z"/>
<path d="M5466 1025 c-11 -8 -16 -15 -10 -15 5 0 18 7 28 15 11 8 16 15 10 15
-5 0 -18 -7 -28 -15z"/>
<path d="M3510 1026 c0 -2 8 -10 18 -17 15 -13 16 -12 3 4 -13 16 -21 21 -21
13z"/>
<path d="M4671 1014 c0 -11 3 -14 6 -6 3 7 2 16 -1 19 -3 4 -6 -2 -5 -13z"/>
<path d="M3332 995 c0 -16 2 -22 5 -12 2 9 2 23 0 30 -3 6 -5 -1 -5 -18z"/>
<path d="M4231 1004 c0 -11 3 -14 6 -6 3 7 2 16 -1 19 -3 4 -6 -2 -5 -13z"/>
<path d="M4751 1004 c0 -11 3 -14 6 -6 3 7 2 16 -1 19 -3 4 -6 -2 -5 -13z"/>
<path d="M3089 983 c-13 -16 -12 -17 4 -4 16 13 21 21 13 21 -2 0 -10 -8 -17
-17z"/>
<path d="M4320 980 c-8 -5 -10 -10 -5 -10 6 0 17 5 25 10 8 5 11 10 5 10 -5 0
-17 -5 -25 -10z"/>
<path d="M5031 974 c0 -11 3 -14 6 -6 3 7 2 16 -1 19 -3 4 -6 -2 -5 -13z"/>
<path d="M4679 952 c-18 -23 -18 -27 -4 -43 11 -11 13 -19 6 -23 -6 -4 -8 -20
-4 -36 5 -27 3 -30 -19 -30 -14 0 -33 -10 -44 -22 -19 -23 -19 -23 2 -5 29 24
74 23 74 -3 0 -11 -3 -20 -7 -20 -5 0 -21 -12 -38 -26 l-30 -26 34 23 c32 21
34 21 26 3 -5 -10 -9 -39 -9 -64 -1 -35 3 -45 17 -48 35 -7 50 18 43 72 l-5
49 27 -24 c17 -15 14 -10 -7 13 -32 34 -33 40 -22 62 8 13 11 29 7 34 -3 6 8
15 24 21 22 7 30 16 29 33 l-2 23 -4 -22 c-2 -13 -10 -23 -18 -23 -19 0 -24
23 -7 36 12 9 12 14 -1 41 -19 36 -42 38 -68 5z"/>
<path d="M6538 967 c-25 -19 -29 -56 -9 -69 11 -7 16 -19 13 -30 -2 -10 0 -18
6 -18 18 0 21 -39 3 -43 -9 -3 -4 -5 12 -6 33 -1 35 -18 5 -57 l-22 -29 22 19
c22 19 22 19 22 -1 0 -32 20 -81 36 -87 45 -17 60 44 23 96 l-22 30 34 -5 c31
-6 31 -5 -6 7 -36 12 -62 46 -35 46 7 0 5 7 -5 16 -9 9 -14 23 -11 30 3 7 -1
20 -10 28 -9 9 -10 17 -4 21 16 10 11 29 -14 47 -19 14 -27 15 -38 5z"/>
<path d="M5736 957 c3 -10 9 -15 12 -12 3 3 0 11 -7 18 -10 9 -11 8 -5 -6z"/>
<path d="M5076 951 c-4 -5 3 -7 14 -4 23 6 26 13 6 13 -8 0 -17 -4 -20 -9z"/>
<path d="M1770 940 c-17 -4 -25 -13 -24 -28 0 -12 -5 -22 -13 -22 -8 0 -17 -8
-20 -17 -10 -28 -25 -33 -47 -17 -11 8 -25 14 -31 14 -5 -1 3 -8 18 -16 17 -9
27 -22 25 -32 -3 -14 -14 -17 -58 -15 -48 1 -50 0 -16 -5 l39 -7 -39 -25 c-47
-30 -59 -74 -24 -85 25 -8 65 24 76 59 7 21 7 21 15 1 6 -15 8 -11 8 18 1 41
14 47 44 20 19 -17 20 -17 9 3 -17 32 -1 48 32 33 24 -11 29 -10 49 11 l22 24
-22 -18 c-27 -22 -54 -15 -47 12 3 11 14 18 26 18 15 -1 23 7 29 26 9 35 -15
58 -51 48z"/>
<path d="M6616 925 c8 -37 14 -45 14 -19 0 10 -5 26 -10 34 -8 11 -9 7 -4 -15z"/>
<path d="M5401 924 c0 -11 3 -14 6 -6 3 7 2 16 -1 19 -3 4 -6 -2 -5 -13z"/>
<path d="M2820 920 c-9 -6 -10 -10 -3 -10 6 0 15 5 18 10 8 12 4 12 -15 0z"/>
<path d="M4221 914 c0 -11 3 -14 6 -6 3 7 2 16 -1 19 -3 4 -6 -2 -5 -13z"/>
<path d="M4338 923 c7 -3 16 -2 19 1 4 3 -2 6 -13 5 -11 0 -14 -3 -6 -6z"/>
<path d="M6645 840 c-3 -6 1 -7 9 -4 18 7 21 14 7 14 -6 0 -13 -4 -16 -10z"/>
<path d="M4740 806 c0 -2 9 -6 20 -9 11 -3 18 -1 14 4 -5 9 -34 13 -34 5z"/>
<path d="M2951 724 c0 -11 3 -14 6 -6 3 7 2 16 -1 19 -3 4 -6 -2 -5 -13z"/>
</g>
</svg>
