<?xml version="1.0" standalone="no"?>
<!DOCTYPE svg PUBLIC "-//W3C//DTD SVG 20010904//EN"
 "http://www.w3.org/TR/2001/REC-SVG-20010904/DTD/svg10.dtd">
<svg version="1.0" xmlns="http://www.w3.org/2000/svg"
 width="1024.000000pt" height="876.000000pt" viewBox="0 0 1024.000000 876.000000"
 preserveAspectRatio="xMidYMid meet">
<metadata>
Created by potrace 1.16, written by Peter Selinger 2001-2019
</metadata>
<g transform="translate(0.000000,876.000000) scale(0.100000,-0.100000)"
fill="#000000" stroke="none">
<path d="M7700 7806 c0 -2 9 -6 20 -9 11 -3 18 -1 14 4 -5 9 -34 13 -34 5z"/>
<path d="M7385 7725 c-5 -1 -73 -11 -150 -20 -77 -9 -157 -24 -177 -32 -24
-10 -51 -13 -77 -9 -27 4 -41 2 -43 -6 -3 -9 -9 -8 -22 4 -9 10 -23 15 -31 12
-18 -7 -20 -44 -2 -44 23 -1 -17 -17 -55 -23 -23 -3 -38 -2 -38 4 0 6 -7 3
-16 -6 -9 -9 -23 -14 -31 -11 -9 4 -17 -1 -20 -13 -3 -13 -20 -23 -51 -31
-216 -56 -246 -68 -622 -247 -151 -72 -351 -209 -522 -357 -77 -66 -88 -73
-88 -53 0 13 5 28 12 35 7 7 8 12 2 12 -9 0 -49 -63 -42 -67 1 -1 -7 -12 -18
-25 -12 -13 -25 -33 -29 -45 -3 -13 -10 -23 -15 -23 -10 0 6 44 23 67 5 8 3
20 -6 34 -15 21 -16 20 -41 -35 -29 -63 -32 -82 -13 -89 7 -4 2 -9 -12 -13
-34 -10 -96 -147 -82 -183 21 -58 21 -61 1 -61 -10 0 -21 9 -25 19 -3 12 -12
18 -20 15 -15 -6 -35 25 -35 55 0 24 -18 28 -26 7 -3 -8 -13 -17 -21 -20 -13
-5 -14 -4 -4 8 8 10 9 16 1 21 -6 4 -13 -6 -16 -24 -4 -17 -9 -31 -13 -31 -3
0 -50 43 -103 95 -54 52 -102 95 -107 95 -5 0 -11 6 -14 14 -4 10 0 14 12 13
12 -1 17 -6 13 -16 -4 -10 -1 -13 11 -8 17 6 81 -52 92 -83 8 -22 55 -55 55
-38 0 8 13 13 37 13 29 0 39 4 41 19 3 14 0 17 -13 12 -21 -8 -58 11 -49 26 4
7 3 8 -4 4 -13 -8 -21 36 -20 107 0 33 4 47 14 47 9 0 14 11 14 30 0 34 -19
41 -27 10 -13 -49 -42 1 -49 83 -3 34 -9 66 -13 70 -13 13 -24 -12 -13 -26 16
-20 22 -85 9 -91 -9 -5 -9 -7 1 -12 16 -8 15 -29 -3 -44 -12 -10 -18 -10 -30
0 -8 7 -15 8 -15 3 0 -5 -15 -15 -34 -23 -19 -7 -37 -21 -39 -32 -8 -29 -29
-22 -102 35 -37 28 -75 57 -84 62 -9 6 -18 12 -21 15 -28 30 -310 199 -490
293 -270 142 -534 217 -765 217 -25 0 -83 9 -128 20 -45 10 -136 31 -202 45
-66 14 -167 40 -225 57 -58 16 -130 35 -160 40 -75 13 -253 6 -273 -10 -9 -8
-58 -24 -110 -37 -51 -12 -138 -43 -193 -67 -126 -55 -138 -63 -130 -77 13
-21 126 -4 250 38 65 22 123 38 129 34 5 -3 17 -12 26 -20 9 -7 33 -28 54 -45
36 -29 38 -33 21 -45 -16 -12 -16 -13 -1 -13 9 0 21 -9 27 -19 6 -13 23 -21
48 -23 l37 -3 -67 -32 c-37 -17 -78 -35 -90 -38 -39 -12 -250 -106 -318 -143
-151 -80 -270 -149 -350 -201 -47 -31 -90 -58 -96 -61 -15 -6 -102 -79 -123
-102 -9 -10 -29 -33 -45 -52 -17 -19 -33 -33 -36 -31 -4 2 -13 -7 -20 -20 -7
-14 -19 -25 -26 -25 -7 0 -15 -6 -17 -12 -4 -10 -6 -10 -6 0 -2 22 -28 12 -27
-10 1 -13 -4 -22 -11 -21 -15 3 -17 -13 -3 -22 6 -3 10 -1 10 5 0 7 7 10 15 6
8 -3 15 -1 15 3 0 14 32 23 44 11 15 -15 26 -12 20 5 -4 8 -1 15 4 15 20 0 24
-21 7 -40 -22 -24 -2 -36 27 -16 12 9 32 13 44 10 18 -5 40 11 109 75 69 64
94 81 117 81 l30 0 -24 -27 c-13 -16 -32 -38 -43 -50 -11 -13 -27 -23 -37 -23
-10 0 -18 -7 -18 -15 0 -8 4 -15 9 -15 5 0 12 -13 16 -29 5 -22 -3 -44 -31
-96 -20 -36 -43 -69 -50 -72 -8 -3 -12 -9 -9 -13 2 -4 -11 -29 -31 -56 -45
-62 -90 -165 -49 -110 15 20 15 20 16 0 2 -38 -3 -58 -32 -114 -16 -32 -29
-67 -29 -79 0 -11 -6 -21 -12 -21 -9 0 -8 -4 2 -10 12 -7 12 -10 1 -10 -7 0
-11 -6 -7 -15 3 -9 0 -15 -8 -15 -23 0 -26 -37 -4 -56 16 -15 18 -26 12 -73
-4 -31 -22 -105 -40 -165 -23 -76 -30 -114 -24 -126 5 -10 7 -19 5 -22 -3 -3
4 -13 16 -24 20 -18 21 -18 31 -1 8 14 13 16 24 6 22 -18 17 -58 -8 -69 -18
-7 -19 -9 -5 -9 14 -1 16 -5 7 -20 -17 -33 -12 -79 10 -91 14 -7 20 -7 20 0 0
5 -7 10 -15 10 -16 0 -19 9 -9 34 19 49 42 -26 24 -79 -7 -20 -9 -43 -5 -53 5
-13 9 -10 23 17 l16 34 21 -64 c12 -35 26 -73 32 -84 11 -22 6 -92 -8 -101 -5
-3 -9 -13 -9 -22 1 -9 10 1 22 23 21 39 22 39 28 15 4 -17 2 -26 -8 -28 -8 -2
-12 -12 -9 -23 3 -10 1 -22 -5 -25 -5 -3 -8 -15 -5 -25 3 -13 0 -19 -11 -19
-13 0 -12 -4 5 -22 32 -35 80 -141 91 -200 10 -50 39 -235 45 -288 2 -14 8
-34 14 -45 11 -20 16 -48 14 -72 0 -7 -12 -13 -26 -13 -14 0 -25 -3 -25 -7 1
-14 55 -60 78 -68 19 -5 23 -13 20 -37 -2 -16 2 -30 7 -30 10 0 17 -12 76
-130 46 -93 97 -99 70 -9 -18 60 -15 74 14 69 21 -4 23 -2 15 13 -14 26 -12
33 5 19 8 -7 15 -21 15 -31 0 -9 6 -24 13 -31 6 -7 17 -24 23 -38 6 -14 20
-45 31 -70 11 -25 21 -49 23 -55 1 -5 11 -22 21 -37 22 -31 23 -35 7 -41 -7
-2 -3 -2 9 -1 16 3 30 -7 54 -41 18 -25 36 -45 40 -45 5 0 6 -7 3 -15 -4 -9 0
-15 8 -15 14 0 43 -47 40 -62 -1 -5 2 -8 8 -8 5 0 10 -11 10 -25 0 -18 8 -29
25 -37 14 -6 24 -17 21 -24 -3 -7 2 -18 10 -24 8 -7 14 -19 14 -26 0 -8 5 -14
11 -14 5 0 17 -16 25 -35 8 -19 18 -35 23 -35 11 0 38 -42 43 -65 2 -10 22
-37 45 -60 24 -23 40 -45 37 -48 -4 -3 7 -17 22 -31 16 -13 36 -40 43 -59 10
-26 18 -33 32 -30 11 3 19 1 19 -5 0 -6 12 -17 27 -24 34 -17 45 -43 14 -35
-14 3 -21 0 -21 -9 0 -8 7 -14 15 -14 8 0 15 -7 15 -15 0 -19 9 -19 29 -1 24
20 76 9 92 -20 7 -13 19 -24 26 -24 10 0 12 -7 8 -20 -3 -11 -2 -20 4 -20 5 0
26 -24 45 -53 56 -85 112 -125 146 -107 17 9 22 5 40 -29 11 -22 20 -53 20
-68 0 -22 8 -34 33 -48 17 -11 35 -19 40 -17 4 1 7 -3 7 -8 0 -15 55 -67 79
-75 12 -3 21 -11 21 -16 0 -11 42 -29 77 -31 14 -2 28 -8 30 -15 3 -7 14 -13
24 -13 10 0 19 -5 19 -11 0 -6 7 -8 15 -5 47 19 50 19 30 2 -16 -14 -17 -17
-3 -12 11 3 23 -3 31 -15 12 -17 15 -17 20 -5 4 9 0 21 -7 28 -7 7 -16 27 -20
43 -4 17 -28 48 -54 72 -26 23 -41 43 -34 43 10 0 10 5 2 20 -10 18 -7 24 13
21 15 -2 6 20 -10 26 -33 13 -52 45 -40 70 5 12 14 20 18 17 5 -3 9 0 9 6 0 7
-9 14 -21 17 -16 4 -17 8 -7 14 9 6 4 9 -14 9 -21 0 -28 5 -28 20 0 11 -6 20
-14 20 -8 0 -13 8 -12 17 0 12 -7 19 -22 21 -18 3 -22 9 -20 29 5 40 -20 39
-37 -1 -9 -20 -20 -36 -26 -36 -7 0 -8 7 -4 18 4 9 14 37 22 62 8 25 18 53 24
63 16 30 -6 18 -25 -13 -9 -17 -22 -28 -27 -25 -5 4 -9 -1 -9 -9 0 -24 -33
-71 -50 -71 -11 0 -14 10 -12 37 3 35 2 36 -33 35 -33 -1 -45 7 -110 73 -41
41 -77 83 -80 92 -3 9 -16 18 -27 20 -25 4 -37 28 -14 28 9 0 16 5 16 10 0 6
-15 10 -34 10 -18 0 -39 7 -46 15 -7 8 -17 15 -23 15 -20 0 -36 34 -25 54 8
15 8 21 -1 24 -6 2 -9 8 -5 13 3 5 0 9 -6 9 -6 0 -8 5 -5 11 4 6 14 8 22 5 9
-4 13 -1 10 6 -2 7 -20 13 -40 13 -40 0 -45 6 -22 25 22 18 11 24 -17 10 l-23
-11 23 20 c12 10 22 24 22 30 0 6 7 11 15 11 9 0 12 6 8 16 -3 8 -12 13 -19
10 -16 -6 -19 10 -5 19 12 7 78 -32 85 -50 3 -8 12 -15 21 -15 8 0 15 -4 15
-10 0 -5 6 -7 13 -4 17 6 103 -42 111 -61 3 -8 11 -12 19 -9 8 3 20 -3 28 -12
13 -16 12 -16 -8 -5 -16 8 -23 8 -23 1 0 -6 -4 -8 -10 -5 -5 3 -10 -1 -10 -9
0 -9 6 -16 13 -16 21 0 81 -31 90 -47 11 -18 31 -17 23 2 -3 8 -8 21 -12 29
-3 7 21 -11 53 -41 32 -30 91 -82 131 -116 39 -34 75 -69 78 -79 3 -10 13 -18
23 -18 10 0 26 -10 37 -21 10 -12 48 -42 84 -68 78 -55 148 -106 175 -129 11
-9 42 -28 69 -42 26 -14 48 -30 49 -36 0 -5 6 -14 14 -19 12 -9 11 -14 -5 -35
-11 -14 -22 -35 -26 -47 -7 -21 -31 -29 -73 -24 -6 1 -10 -4 -9 -11 9 -43 20
-68 30 -70 6 0 16 -2 21 -3 6 -2 22 -3 36 -4 20 -1 29 -8 33 -26 4 -16 11 -23
18 -19 13 8 49 14 86 14 23 0 80 -37 81 -52 1 -5 -8 -8 -18 -8 -31 0 -50 -11
-45 -24 4 -9 18 -11 52 -5 32 5 53 3 67 -6 26 -16 131 -110 272 -244 61 -58
150 -140 198 -181 47 -41 109 -96 138 -122 72 -65 200 -168 209 -168 4 0 18
-19 30 -43 15 -28 23 -37 26 -25 3 14 8 12 31 -10 50 -48 93 -82 102 -82 4 0
12 -6 16 -14 10 -17 126 -76 150 -76 22 0 83 -56 83 -76 0 -8 -4 -13 -9 -10
-4 3 -6 -6 -3 -20 3 -19 9 -23 23 -19 13 4 19 1 19 -9 0 -17 39 -87 55 -98 5
-4 15 -6 22 -3 17 6 28 -16 13 -25 -10 -6 -8 -20 8 -61 11 -30 26 -69 33 -88
12 -31 13 -32 20 -12 5 11 15 21 24 21 22 0 19 -41 -10 -135 -26 -85 -34 -141
-13 -98 18 38 28 26 29 -34 1 -54 2 -55 9 -23 5 19 12 56 15 82 5 35 10 46 21
41 7 -3 14 -15 15 -27 0 -18 2 -17 11 7 17 46 43 31 44 -26 1 -47 14 -81 14
-36 0 18 3 20 9 10 6 -9 11 0 16 30 4 24 13 55 20 69 8 15 11 47 9 76 -2 32 2
65 11 87 8 19 11 37 8 41 -3 3 1 14 9 23 9 10 23 42 33 71 9 28 18 52 20 52 3
0 20 -9 40 -20 19 -11 35 -16 35 -10 0 5 -5 12 -11 16 -8 4 -7 9 2 15 11 7 11
9 -2 9 -12 0 -15 7 -11 25 2 14 11 25 19 25 10 0 13 -6 9 -16 -3 -8 -2 -13 3
-10 11 7 33 -18 24 -27 -3 -4 1 -7 10 -7 22 0 21 9 -3 40 -11 14 -20 31 -20
38 0 6 -5 12 -11 12 -13 0 -7 68 10 113 14 36 37 34 45 -3 5 -26 26 -44 26
-22 0 4 7 44 15 90 14 80 16 85 91 178 42 53 83 98 91 101 7 3 54 52 103 110
50 57 90 101 90 96 0 -4 -25 -53 -55 -107 -31 -55 -54 -104 -52 -110 2 -5 52
69 113 164 84 134 127 190 189 250 114 112 153 146 215 189 57 40 100 81 84
81 -20 0 23 20 44 20 13 0 36 7 53 15 27 15 26 11 -23 -57 -29 -40 -57 -76
-63 -80 -7 -5 -7 -8 0 -8 14 0 190 179 204 207 6 13 26 30 44 39 l32 17 -21
-24 c-11 -13 -56 -66 -100 -118 -43 -52 -94 -110 -111 -129 -32 -34 -44 -60
-23 -47 16 10 12 -11 -4 -25 -8 -6 -25 -28 -36 -48 -19 -31 -19 -34 -3 -21 10
8 22 20 26 27 11 16 177 210 281 327 45 50 94 106 109 124 16 18 42 37 58 43
16 5 29 16 29 24 0 7 6 11 14 8 8 -3 76 27 153 66 125 65 134 69 99 36 -21
-19 -44 -37 -50 -39 -6 -2 -8 -8 -4 -12 4 -4 38 10 77 31 98 54 100 49 21 -83
-32 -53 -35 -65 -35 -138 0 -83 -15 -123 -68 -183 -36 -40 5 -26 45 16 58 60
71 95 64 170 -7 63 -6 64 30 104 20 23 82 75 138 116 116 85 432 399 463 458
11 22 33 46 49 54 16 9 54 39 84 68 30 29 67 58 83 64 15 7 27 17 27 21 0 5
60 72 133 149 72 77 137 149 144 161 17 31 16 12 -2 -22 -8 -16 -26 -73 -40
-127 -29 -111 -87 -283 -120 -359 -23 -53 -74 -180 -82 -205 -15 -48 49 55
108 172 79 158 126 268 164 386 15 45 31 82 36 82 5 0 9 12 9 27 0 57 42 300
61 348 10 28 26 75 35 105 l17 55 9 -34 c5 -18 16 -44 24 -57 14 -20 13 -32
-6 -116 -12 -51 -22 -100 -21 -108 0 -8 2 -71 5 -140 3 -69 1 -163 -4 -210 -5
-47 -12 -119 -15 -160 -3 -41 -13 -130 -21 -197 -19 -160 -18 -180 5 -128 42
96 113 387 137 570 20 143 80 329 98 298 11 -20 14 -75 4 -83 -3 -3 -9 -23
-13 -44 -6 -28 -5 -37 4 -32 6 4 11 18 11 32 0 14 4 22 10 19 6 -3 10 -2 10 4
0 5 12 16 27 23 56 27 65 90 36 266 -15 96 -15 108 0 175 10 40 17 80 17 89 0
11 5 15 14 12 9 -3 17 3 21 16 4 11 16 29 27 39 18 17 23 18 53 5 40 -16 53
-4 25 21 -14 13 -20 14 -20 5 0 -7 -3 -10 -7 -6 -4 4 3 16 17 26 l24 18 -40
-7 c-37 -7 -40 -6 -42 17 -3 33 -10 42 -28 35 -12 -5 -15 -1 -10 13 8 28 26
236 27 329 1 82 16 73 18 -11 1 -28 8 -47 22 -60 23 -20 51 -69 55 -94 1 -8
14 -49 29 -90 14 -41 27 -83 28 -92 1 -10 4 -18 8 -18 4 0 15 -3 25 -7 15 -6
16 -1 10 48 -12 100 -48 243 -78 308 -16 35 -32 83 -34 105 -6 45 -21 69 -38
59 -6 -3 -8 -3 -4 2 5 5 -8 36 -27 70 -23 42 -37 82 -41 121 -4 33 -24 133
-46 224 -44 181 -59 270 -58 342 1 33 -19 106 -70 255 -39 114 -89 262 -111
328 -23 66 -47 127 -55 136 -8 8 -14 21 -14 28 0 14 -50 90 -76 116 -31 31 -6
25 67 -15 129 -72 140 -80 222 -161 44 -43 84 -79 89 -79 16 0 -55 102 -124
175 -90 96 -221 195 -372 279 -84 47 -143 89 -198 141 -44 41 -92 82 -109 92
l-29 17 61 13 c36 7 67 9 77 3 30 -15 152 -50 175 -50 13 0 27 -4 32 -8 6 -5
39 -17 75 -27 63 -18 100 -39 148 -85 34 -32 37 -18 5 21 -23 27 -25 32 -8 25
50 -20 76 -25 73 -13 -2 7 -53 37 -113 67 -112 56 -131 65 -265 120 -41 17
-88 37 -105 44 -16 8 -82 33 -145 56 -63 23 -125 45 -138 50 -82 34 -431 119
-579 141 -89 14 -109 29 -40 30 125 2 187 23 187 64 0 32 -29 46 -176 86 -65
17 -120 35 -122 40 -2 4 -9 6 -17 3 -12 -5 -48 3 -95 19 -8 3 -19 4 -25 2z
m-2469 -909 c-3 -11 -6 -24 -6 -28 0 -14 -27 -9 -40 7 -10 13 -10 19 5 35 22
24 49 15 41 -14z m469 -477 c-10 -15 -25 -10 -19 6 4 8 10 12 15 9 5 -3 7 -10
4 -15z m-1727 -599 c12 -12 22 -25 22 -30 0 -16 -63 -58 -79 -52 -13 5 -14 3
-4 -10 7 -8 10 -18 6 -21 -8 -8 -32 23 -33 42 0 8 6 11 15 7 8 -3 15 -1 15 5
0 6 5 7 10 4 6 -3 10 -2 10 4 0 5 -7 14 -15 18 -19 11 -8 53 14 53 10 0 27 -9
39 -20z m40 -95 c1 -25 -3 -45 -8 -45 -9 0 -12 67 -3 83 8 14 10 6 11 -38z
m-33 -45 c0 -9 -11 -16 -27 -18 -16 -2 -28 -9 -28 -15 0 -8 -4 -7 -9 2 -12 18
-4 39 17 44 28 8 47 3 47 -13z m-325 -42 c0 -5 -4 -8 -10 -8 -5 0 -10 10 -10
23 0 18 2 19 10 7 5 -8 10 -18 10 -22z m361 -15 c0 -5 2 -18 5 -31 2 -15 0
-21 -6 -17 -6 4 -18 4 -27 1 -12 -5 -13 -9 -3 -21 7 -8 8 -15 2 -15 -5 0 -15
7 -22 15 -11 13 -9 19 8 36 12 11 22 15 22 9 0 -6 5 -8 10 -5 8 5 7 11 -1 21
-8 10 -8 14 0 14 6 0 11 -3 12 -7z m357 -295 c0 -13 1 -28 3 -34 2 -7 0 -12
-6 -13 -5 -1 -10 5 -10 12 0 6 -6 16 -13 20 -11 7 -10 12 5 23 10 7 19 14 19
14 1 0 2 -10 2 -22z m54 -63 c4 -20 3 -23 -8 -14 -15 12 -20 54 -5 45 5 -3 11
-17 13 -31z m-7 -43 c-3 -3 -11 0 -18 7 -9 10 -8 11 6 5 10 -3 15 -9 12 -12z
m5055 -17 c0 -14 -4 -25 -10 -25 -11 0 -14 33 -3 43 11 11 13 8 13 -18z
m-3545 -15 c3 -6 -4 -10 -17 -10 -18 0 -20 2 -8 10 19 12 18 12 25 0z m3539
-268 c-1 -303 0 -282 -25 -282 -11 0 -18 -3 -16 -7 3 -5 -2 -15 -11 -23 -14
-13 -15 -12 -9 3 5 12 1 17 -12 17 -23 0 -32 40 -20 86 6 18 14 61 19 96 5 35
14 83 20 108 15 64 19 87 26 160 5 52 17 90 28 90 0 0 1 -111 0 -248z m-3276
221 c0 -5 2 -16 7 -26 8 -20 -25 -74 -43 -70 -6 1 -15 -11 -21 -27 -14 -41
-41 -40 -41 1 0 33 34 99 52 99 5 0 16 7 24 15 17 16 25 19 22 8z m-258 -55
c0 -19 -2 -20 -10 -8 -13 19 -13 30 0 30 6 0 10 -10 10 -22z m-269 5 c-11 -4
-11 -7 0 -14 7 -4 14 -27 15 -51 1 -24 3 -43 4 -43 1 0 3 -13 5 -30 4 -30 -17
-65 -40 -65 -18 0 -58 47 -50 59 3 6 -1 11 -9 11 -9 0 -16 4 -16 9 0 5 -3 16
-6 24 -3 8 2 22 11 31 15 15 18 15 39 -1 13 -10 21 -24 19 -31 -4 -8 0 -10 11
-6 17 6 22 24 7 24 -11 0 -61 50 -61 61 0 5 5 9 11 9 5 0 8 -4 5 -8 -3 -5 11
-14 32 -20 33 -10 35 -9 18 3 -20 15 -16 46 6 44 10 0 10 -2 -1 -6z m-1770
-29 c28 -14 36 -42 10 -36 -6 1 -11 -4 -11 -12 0 -27 -17 -26 -31 2 -8 15 -18
30 -24 35 -6 4 -4 11 5 17 19 12 16 13 51 -6z m2068 -36 c1 -4 -5 -5 -13 -2
-9 3 -13 -1 -13 -12 1 -9 -3 -19 -10 -21 -8 -3 -12 6 -10 26 1 17 8 31 15 31
6 0 12 6 13 13 0 11 17 -19 18 -35z m246 22 c-3 -5 -11 -10 -16 -10 -6 0 -7 5
-4 10 3 6 11 10 16 10 6 0 7 -4 4 -10z m25 -59 c0 -17 -4 -22 -16 -17 -9 3
-22 6 -30 6 -20 0 -17 12 7 39 24 26 39 15 39 -28z m-2318 -15 c-15 -28 -21
-33 -26 -20 -4 10 3 25 16 39 30 31 33 25 10 -19z m2062 -31 c8 -48 1 -70 -16
-59 -7 4 -8 2 -4 -5 4 -7 -2 -20 -16 -31 -31 -26 -8 -25 26 1 26 20 26 20 26
0 0 -11 -6 -24 -14 -28 -7 -4 -25 -27 -40 -50 -25 -41 -27 -42 -53 -30 l-27
12 34 6 c19 4 26 7 15 8 -19 2 -19 3 3 18 12 8 22 19 22 24 0 14 -38 10 -47
-4 -4 -8 -16 -17 -26 -20 -11 -4 -15 -12 -11 -19 5 -10 4 -10 -5 -2 -9 8 -9
18 3 40 8 16 20 42 26 59 11 27 13 28 22 11 7 -13 7 -20 -2 -26 -8 -5 -9 -10
-2 -14 6 -3 13 3 17 14 3 11 13 20 21 20 8 0 14 5 14 10 0 14 -27 12 -33 -2
-3 -7 -2 7 0 32 10 84 57 108 67 35z m146 -15 c0 -5 -2 -10 -4 -10 -3 0 -8 5
-11 10 -3 6 -1 10 4 10 6 0 11 -4 11 -10z m59 -9 c9 -6 10 -11 2 -15 -13 -8
-31 1 -31 15 0 11 11 11 29 0z m114 -32 c3 -12 10 -19 14 -16 5 3 15 2 23 -3
13 -8 12 -12 -5 -24 -11 -8 -17 -18 -13 -22 4 -4 14 -2 22 5 11 9 15 5 20 -24
4 -20 10 -43 13 -51 3 -8 0 -14 -5 -14 -6 0 -12 7 -14 16 -2 13 -8 10 -28 -11
-18 -19 -20 -24 -7 -19 13 4 16 2 12 -9 -4 -8 0 -21 7 -28 19 -19 32 -50 29
-71 -2 -12 3 -16 13 -12 26 10 20 -47 -7 -71 -13 -11 -26 -28 -30 -38 -4 -10
-11 -16 -15 -13 -4 3 -16 -10 -26 -27 -17 -32 -114 -114 -128 -109 -5 1 -8 -3
-8 -9 0 -5 -4 -8 -9 -5 -5 4 -11 1 -13 -6 -6 -17 -66 12 -72 35 -2 11 -12 17
-22 15 -9 -2 -19 3 -21 10 -3 6 0 12 6 12 8 0 7 7 -1 20 -10 15 -24 20 -58 20
-43 0 -44 0 -22 16 12 8 27 12 32 9 12 -7 12 -3 4 19 -5 13 -9 12 -26 -7 l-19
-22 10 22 c6 12 16 25 21 28 6 4 8 11 5 16 -13 20 8 7 42 -27 36 -36 36 -36
65 -19 l29 17 -6 -36 c-8 -40 -6 -41 27 -26 20 10 23 17 21 62 l-2 50 32 -6
c18 -4 56 -10 85 -13 43 -5 51 -3 47 9 -6 14 -63 51 -135 86 -31 15 -35 22
-35 54 0 20 -3 40 -7 44 -12 11 -9 52 3 60 7 4 7 9 1 13 -19 12 -23 48 -7 55
10 3 14 2 9 -5 -3 -6 3 -5 15 3 12 7 21 18 21 25 0 7 7 13 15 13 8 0 15 5 15
11 0 8 4 8 13 1 8 -7 18 -6 31 4 26 19 33 18 39 -7z m-560 -35 c-8 -23 -36
-17 -30 6 3 11 1 20 -4 20 -5 0 -9 5 -9 10 0 6 11 3 24 -6 15 -9 22 -21 19
-30z m1553 -36 c-4 -24 -7 -52 -7 -63 0 -11 -11 -33 -24 -50 -22 -26 -25 -27
-31 -10 -5 13 0 24 20 40 18 14 24 25 17 29 -6 4 -11 21 -11 38 0 23 4 29 16
24 12 -4 14 -1 9 14 -4 12 -2 20 6 20 8 0 10 -12 5 -42z m-2206 1 c0 -5 -4 -9
-10 -9 -5 0 -10 7 -10 16 0 8 5 12 10 9 6 -3 10 -10 10 -16z m939 -74 c0 -5
-10 -17 -22 -26 -18 -13 -27 -14 -50 -4 l-28 11 38 47 38 47 12 -33 c6 -17 12
-36 12 -42z m-949 -24 c0 -17 -18 -21 -24 -6 -3 9 0 15 9 15 8 0 15 -4 15 -9z
m80 -1 c0 -5 -4 -10 -10 -10 -5 0 -10 5 -10 10 0 6 5 10 10 10 6 0 10 -4 10
-10z m2110 -79 c-13 -49 -35 -57 -25 -8 7 32 24 61 32 53 2 -2 -1 -22 -7 -45z
m-5148 -30 c12 -21 13 -31 5 -34 -9 -3 -8 -9 3 -21 16 -21 22 -46 10 -46 -26
0 -38 13 -34 37 3 17 1 22 -7 17 -9 -5 -10 -2 -6 9 3 9 2 19 -2 22 -10 5 -3
45 8 45 3 0 14 -13 23 -29z m3176 12 c7 -11 5 -21 -4 -31 -8 -7 -14 -19 -14
-25 0 -7 7 -4 15 6 13 18 14 18 35 -3 l22 -22 -30 -31 c-27 -26 -33 -29 -47
-17 -9 7 -14 19 -11 26 3 8 0 13 -6 11 -17 -3 -16 64 0 70 9 4 8 9 -5 19 -17
12 -16 13 9 14 15 0 31 -7 36 -17z m-171 -39 c11 -10 10 -12 -10 -10 -18 1
-23 6 -22 21 3 29 6 32 12 15 3 -8 12 -20 20 -26z m13 16 c0 -5 -2 -10 -4 -10
-3 0 -8 5 -11 10 -3 6 -1 10 4 10 6 0 11 -4 11 -10z m90 -16 c0 -8 -4 -12 -10
-9 -5 3 -10 10 -10 16 0 5 5 9 10 9 6 0 10 -7 10 -16z m-10 -36 c0 -5 -7 -8
-16 -8 -8 0 -12 -5 -9 -11 4 -6 14 -8 23 -4 22 8 31 -12 18 -41 -13 -29 -28
-26 -33 6 -2 13 -8 29 -13 35 -6 7 -5 16 2 23 8 8 7 13 -5 18 -9 3 -15 10 -12
15 6 9 45 -20 45 -33z m705 32 c3 -5 1 -10 -4 -10 -6 0 -11 5 -11 10 0 6 2 10
4 10 3 0 8 -4 11 -10z m95 -16 c0 -8 5 -14 11 -14 5 0 7 -4 4 -10 -4 -6 -17
-4 -35 5 -35 18 -41 19 -35 3 7 -18 -11 -42 -24 -34 -6 4 -11 17 -10 29 0 12
3 16 6 10 7 -19 21 -16 19 4 0 10 4 18 11 18 6 0 14 3 18 7 11 10 35 -2 35
-18z m-1826 -37 c-8 -28 -22 -43 -31 -33 -4 4 -2 11 5 15 10 6 10 15 3 35 -10
25 -9 26 10 16 15 -8 18 -17 13 -33z m1897 3 c4 -3 1 -10 -5 -16 -9 -8 -15 -7
-24 3 -9 9 -9 13 -2 13 7 0 9 9 5 23 -6 21 -5 21 6 2 7 -11 16 -22 20 -25z
m841 15 c1 -14 2 -33 2 -42 1 -12 -8 -17 -31 -19 -28 -2 -33 1 -33 19 0 20 36
67 52 67 4 0 9 -11 10 -25z m-1781 8 c1 -5 3 -19 4 -32 2 -23 2 -24 -11 -6
-16 22 -18 45 -4 45 6 0 11 -3 11 -7z m679 -7 c0 -3 -4 -8 -10 -11 -5 -3 -10
-1 -10 4 0 6 5 11 10 11 6 0 10 -2 10 -4z m3652 -25 c13 18 2 -32 -16 -75 -13
-29 -13 -30 -13 -6 0 14 -4 41 -8 60 -8 33 -7 34 9 21 15 -13 19 -13 28 0z
m-4760 -39 c-7 -2 -9 -8 -6 -14 4 -6 1 -9 -7 -6 -8 3 -16 15 -17 27 -2 15 0
21 7 17 6 -4 11 -1 11 6 0 7 6 4 12 -6 8 -15 8 -21 0 -24z m654 -18 c-13 -28
-36 -40 -36 -18 0 9 5 12 12 8 7 -4 8 -3 4 5 -4 6 -17 9 -29 6 -12 -2 -16 -2
-9 1 6 3 12 10 12 16 0 6 8 16 17 23 25 19 44 -9 29 -41z m464 13 c0 -18 -2
-19 -10 -7 -13 20 -13 43 0 35 6 -3 10 -16 10 -28z m40 23 c0 -5 -7 -10 -16
-10 -8 0 -12 5 -9 10 3 6 10 10 16 10 5 0 9 -4 9 -10z m-3735 -23 c11 -17 13
-37 8 -77 -6 -51 -7 -53 -15 -25 -16 61 -25 125 -17 125 5 0 15 -10 24 -23z
m3023 -12 c-3 -3 -9 2 -12 12 -6 14 -5 15 5 6 7 -7 10 -15 7 -18z m94 3 c-7
-7 -12 -8 -12 -2 0 6 3 14 7 17 3 4 9 5 12 2 2 -3 -1 -11 -7 -17z m546 0 c-2
-6 -10 -14 -16 -16 -7 -2 -10 2 -6 12 7 18 28 22 22 4z m1135 -40 c4 -28 1
-48 -9 -62 -18 -27 -18 -42 1 -26 13 11 15 5 17 -41 2 -74 2 -71 -7 -98 -5
-15 -4 -21 3 -17 6 4 10 -2 9 -14 -1 -11 -5 -20 -9 -20 -4 0 -5 -6 -2 -14 3
-7 -8 -38 -25 -69 -61 -112 -131 -255 -131 -266 0 -11 -11 -14 -40 -12 -8 0
-10 -2 -4 -5 15 -7 5 -56 -15 -71 -20 -14 -48 4 -32 20 7 7 6 14 -4 21 -16 12
-10 60 6 50 5 -3 9 0 9 5 0 10 -7 13 -26 10 -14 -2 -23 26 -11 33 9 5 7 12 -5
24 -16 16 -18 16 -24 1 -3 -9 -10 -15 -14 -12 -4 2 -16 -5 -26 -17 -11 -12
-14 -19 -9 -15 6 3 16 -3 23 -14 11 -17 9 -19 -10 -19 -12 0 -33 -10 -46 -22
-22 -20 -24 -21 -18 -4 6 18 5 18 -18 2 -31 -20 -36 -20 -36 -1 0 22 -21 18
-27 -5 -4 -15 -15 -20 -44 -22 -22 -1 -54 -3 -71 -5 -18 -3 -45 -5 -60 -5 -15
-1 -26 -4 -24 -7 2 -3 -2 -12 -10 -19 -8 -7 -14 -9 -14 -3 0 5 -9 7 -20 4 -11
-3 -26 0 -34 6 -11 10 -16 8 -24 -5 -9 -15 -13 -16 -26 -5 -14 11 -16 11 -16
-3 0 -21 -48 -22 -57 0 -3 8 -12 13 -19 10 -8 -3 -11 0 -7 10 6 17 15 18 32 2
11 -11 11 -9 0 9 -18 29 -4 41 21 18 22 -20 28 -8 8 14 -11 11 -10 13 5 8 22
-8 22 2 0 18 -15 11 -14 15 12 49 32 42 29 46 -9 11 -31 -29 -54 -32 -71 -8
-13 17 -51 11 -40 -7 4 -6 -6 -10 -24 -10 -18 0 -31 -5 -31 -12 0 -9 -3 -9 -9
1 -6 10 -19 12 -42 7 -18 -3 -29 -3 -26 1 4 3 -1 15 -10 25 -15 16 -15 21 -3
28 8 5 17 7 21 4 4 -2 10 2 12 8 8 19 28 -12 22 -32 -4 -12 -3 -12 7 1 12 14
15 14 32 -3 11 -10 22 -15 25 -12 3 3 -3 12 -13 20 -21 15 -17 17 38 16 22 -1
26 2 17 11 -23 23 -13 37 19 26 30 -11 34 -18 31 -51 -1 -10 0 -18 3 -18 10 0
46 34 46 44 0 5 -3 6 -6 3 -10 -9 -46 41 -39 53 3 5 1 10 -6 10 -22 0 0 13 26
16 26 3 33 -10 13 -22 -8 -5 -2 -11 17 -16 16 -4 33 -4 37 0 13 13 -12 74 -28
68 -8 -3 -14 -1 -14 4 0 6 9 10 20 10 22 0 27 16 8 22 -7 3 0 15 16 30 25 23
26 26 9 33 -17 7 -17 8 2 15 22 8 57 2 51 -9 -3 -4 5 -18 16 -31 12 -15 18
-18 14 -8 -3 11 1 18 16 20 13 2 25 16 34 43 17 49 17 48 2 39 -9 -5 -9 -2 1
9 15 18 26 23 16 7 -9 -14 11 -12 23 3 8 9 3 13 -19 14 -19 1 -32 -3 -36 -12
-3 -8 -10 -12 -17 -8 -7 4 -7 1 1 -9 14 -17 8 -28 -17 -28 -25 0 -20 52 7 86
30 36 20 44 -13 11 -26 -26 -54 -27 -54 -1 0 32 63 110 80 99 6 -3 10 4 10 17
0 23 57 98 73 98 13 0 0 -74 -13 -78 -6 -2 -22 -16 -35 -30 -17 -18 -21 -28
-13 -33 7 -5 21 3 34 16 12 13 25 21 29 17 4 -4 5 0 3 8 -7 20 9 50 26 50 24
0 41 -29 29 -50 -10 -14 -9 -17 5 -16 12 1 17 -6 15 -24 -2 -36 -8 -58 -18
-67 -4 -4 -5 -2 -1 5 4 6 2 12 -3 12 -13 0 -14 -10 -2 -28 6 -10 10 -10 21 3
18 21 27 19 32 -10 3 -14 -3 -36 -13 -52 -26 -39 -23 -51 6 -23 22 20 25 21
31 6 3 -9 2 -34 -4 -55 -8 -32 -7 -38 4 -34 8 3 14 13 14 22 0 9 5 23 10 31 9
13 11 13 20 0 9 -13 10 -13 10 1 0 8 -5 20 -11 26 -17 17 -2 48 28 62 23 11
29 10 40 -6 12 -15 15 -16 23 -3 11 18 4 30 -17 30 -14 0 -14 3 2 20 10 11 14
20 10 20 -5 0 0 10 11 23 11 12 26 34 34 50 7 15 17 27 22 27 4 0 8 8 8 19 0
10 6 24 14 30 20 17 56 22 56 8 0 -7 4 -6 10 3 8 13 10 12 10 -4 0 -10 7 -24
16 -31 9 -6 17 -27 19 -46 4 -45 3 -43 20 -29 8 7 15 21 15 31 0 9 7 24 15 32
11 12 12 16 2 20 -9 3 -9 9 0 25 10 16 10 22 0 25 -7 3 7 6 29 6 41 1 41 1 47
-41z m-1662 22 c12 0 19 -7 19 -20 0 -11 5 -20 10 -20 15 0 12 -16 -6 -35 -9
-9 -24 -13 -35 -10 -11 4 -19 2 -19 -4 0 -6 -4 -11 -10 -11 -5 0 -10 5 -10 11
0 7 -7 17 -17 24 -17 12 -11 35 10 35 7 0 6 -4 -3 -10 -8 -5 -10 -10 -4 -10
12 0 34 21 34 33 0 5 -7 7 -15 4 -8 -4 -17 -2 -20 3 -6 10 15 20 33 14 8 -2
22 -4 33 -4z m-86 -9 c3 -5 1 -12 -5 -16 -5 -3 -10 1 -10 9 0 18 6 21 15 7z
m218 -24 c-3 -5 -10 -4 -15 1 -6 6 -7 16 -3 22 6 9 9 9 16 -1 4 -7 5 -17 2
-22z m-82 6 c13 -16 12 -17 -3 -4 -17 13 -22 21 -14 21 2 0 10 -8 17 -17z
m674 -33 c3 -5 1 -10 -4 -10 -6 0 -11 5 -11 10 0 6 2 10 4 10 3 0 8 -4 11 -10z
m-3815 -42 c0 -6 -6 -5 -15 2 -8 7 -15 14 -15 16 0 2 7 1 15 -2 8 -4 15 -11
15 -16z m3254 3 c11 -12 14 -21 7 -26 -19 -11 -12 -35 12 -45 17 -7 18 -9 5
-9 -23 -1 -23 -12 0 -37 23 -24 22 -58 -1 -81 -13 -13 -19 -15 -29 -5 -9 9 -8
12 5 12 21 0 21 1 2 36 -8 16 -15 37 -15 47 0 9 -8 25 -17 35 -50 53 -61 78
-28 66 7 -3 15 2 18 10 8 21 20 20 41 -3z m-591 -17 c10 -14 16 -32 13 -40 -3
-9 -1 -12 4 -9 6 3 10 2 10 -4 0 -5 -8 -15 -17 -20 -17 -10 -17 -10 1 -11 15
0 17 -5 13 -28 -5 -23 0 -31 22 -47 21 -14 26 -22 18 -30 -9 -9 -16 -7 -29 9
l-18 21 6 -26 c4 -19 1 -26 -10 -26 -8 0 -13 4 -10 8 8 13 -25 69 -40 69 -9 0
-12 8 -8 25 2 14 10 25 17 25 26 0 25 30 0 40 -27 10 -33 38 -13 58 16 16 20
15 41 -14z m444 3 c9 0 10 -4 2 -13 -13 -16 4 -29 43 -33 9 -1 9 -4 0 -13 -9
-9 -16 -8 -29 4 -15 16 -17 16 -28 1 -14 -19 -37 -9 -28 12 3 9 0 21 -6 29
-14 16 -2 29 18 20 9 -3 22 -7 28 -7z m-3117 -17 c-8 -5 -7 -11 4 -22 8 -9 13
-18 10 -21 -3 -3 4 -8 15 -12 12 -3 21 -10 21 -15 0 -5 3 -17 7 -27 9 -25 -47
35 -69 74 -19 32 -15 45 9 36 10 -4 11 -8 3 -13z m3810 -5 c0 -8 -4 -15 -9
-15 -5 0 -11 7 -15 15 -3 9 0 15 9 15 8 0 15 -7 15 -15z m-3951 -28 c0 -21 -1
-21 -9 -2 -12 28 -12 37 0 30 6 -3 10 -16 9 -28z m4047 11 c3 -5 11 -5 19 2
16 13 45 2 45 -18 0 -13 -4 -12 -22 4 -13 11 -18 13 -11 3 8 -10 9 -19 3 -25
-7 -7 -2 -15 15 -24 14 -7 25 -17 25 -22 0 -4 7 -8 15 -8 18 0 18 -2 3 -35
-13 -28 -16 -29 -38 -14 -11 8 -12 12 -2 16 17 7 15 26 -3 20 -8 -4 -25 -1
-38 6 -18 10 -23 19 -20 40 4 26 2 27 -17 17 -12 -6 -26 -9 -33 -6 -7 3 -3 8
10 11 18 6 20 11 13 30 -7 20 -6 22 11 18 11 -3 22 -10 25 -15z m-1149 -46
c30 -4 50 -25 30 -31 -7 -2 -22 -13 -34 -24 -18 -16 -25 -18 -38 -7 -8 7 -12
17 -8 24 4 6 6 24 5 41 -2 22 0 26 7 16 5 -8 22 -16 38 -19z m1010 -23 c4 -14
9 -16 23 -9 17 9 18 6 14 -25 -3 -23 0 -35 8 -35 6 0 3 -6 -8 -14 -22 -17 -12
-33 25 -38 14 -1 27 -10 29 -18 4 -12 2 -13 -9 -4 -8 6 -22 10 -31 9 -10 -2
-20 1 -24 6 -10 17 -62 10 -67 -8 -3 -13 -5 -10 -6 7 -2 24 -2 23 -16 -7 -8
-20 -21 -33 -32 -33 -15 0 -16 2 -3 10 12 7 12 10 1 10 -8 0 -11 6 -7 16 3 8
2 13 -3 10 -24 -15 -37 51 -17 83 6 10 5 12 -2 7 -8 -5 -12 1 -12 17 0 27 22
41 50 32 9 -3 23 1 30 10 15 18 50 3 57 -26z m617 26 c-4 -8 -7 -15 -9 -15 -2
0 -5 7 -9 15 -3 9 0 15 9 15 9 0 12 -6 9 -15z m-1810 -10 c-4 -8 -13 -15 -21
-15 -8 0 -11 -5 -7 -11 4 -8 9 -8 17 0 15 15 37 14 37 -2 0 -8 -15 -13 -39
-14 l-39 -2 11 30 c7 17 19 29 29 29 11 0 15 -5 12 -15z m523 9 c-3 -3 -12 -4
-19 -1 -8 3 -5 6 6 6 11 1 17 -2 13 -5z m3 -34 c-7 -5 -2 -9 14 -12 22 -5 26
-2 21 13 -8 23 3 24 33 3 13 -9 21 -22 18 -29 -3 -9 3 -15 16 -17 12 -2 30
-18 39 -35 10 -18 17 -33 15 -33 -12 0 -66 33 -66 40 0 5 -7 7 -15 4 -11 -4
-15 0 -15 16 0 23 0 23 -26 -4 -32 -31 -44 -33 -39 -5 2 12 -2 28 -10 35 -17
18 -9 45 12 37 10 -4 11 -8 3 -13z m-1020 0 c0 -13 32 -9 42 5 4 5 11 6 15 1
9 -9 -24 -36 -44 -36 -7 0 -17 9 -23 20 -7 14 -7 20 0 20 5 0 10 -5 10 -10z
m200 -10 c13 -9 13 -11 0 -19 -8 -6 -11 -13 -7 -17 4 -4 16 1 27 11 22 20 47
14 58 -14 4 -11 12 -19 17 -19 17 2 17 -30 1 -64 -19 -38 -20 -48 -3 -48 6 0
13 14 14 31 3 37 7 43 25 37 7 -3 17 -6 21 -6 14 -1 47 -44 41 -53 -3 -5 0 -9
6 -9 7 0 9 -7 6 -16 -3 -8 0 -22 8 -29 12 -12 15 -12 21 3 6 16 7 16 20 -2 17
-22 35 -13 28 14 -3 12 -8 19 -10 16 -6 -6 -22 7 -63 49 -36 37 -37 44 -5 37
20 -3 24 -1 19 12 -8 21 16 25 80 11 31 -6 42 -5 51 9 19 25 23 20 21 -24 -2
-37 -1 -39 21 -34 18 5 22 3 17 -10 -3 -9 -11 -13 -17 -9 -7 4 -8 -4 -4 -24 5
-25 1 -35 -24 -59 -29 -28 -42 -26 -14 2 23 24 18 39 -6 18 -16 -14 -23 -15
-26 -6 -6 17 -23 15 -23 -3 0 -8 -5 -15 -12 -15 -6 0 -8 -3 -5 -7 4 -3 -3 -11
-15 -17 -29 -15 -34 -36 -10 -43 12 -3 18 -11 15 -18 -6 -17 -33 -8 -54 18
-13 16 -20 17 -35 9 -16 -10 -17 -11 -2 -12 20 0 48 -26 48 -46 0 -24 -27 -16
-54 17 -15 17 -37 32 -53 33 -16 2 -29 11 -34 25 -5 11 -14 21 -20 21 -7 0 -9
3 -6 7 4 3 16 -2 27 -12 28 -26 38 -10 11 18 -14 16 -19 30 -15 41 6 16 5 17
-14 5 -12 -7 -23 -20 -26 -29 -2 -8 -4 -5 -5 8 -2 36 -18 59 -46 66 -15 4 -25
12 -22 19 2 7 -3 17 -11 23 -12 9 -12 13 3 28 10 9 14 20 11 24 -4 3 -11 0
-15 -7 -11 -18 -31 -5 -31 19 0 10 -5 22 -10 25 -18 11 0 25 33 25 18 0 39 -5
47 -10z m-90 -34 c0 -6 9 -28 20 -49 11 -21 17 -43 14 -49 -4 -7 -3 -8 4 -4 7
4 12 1 12 -8 0 -18 -16 -21 -25 -6 -3 6 -14 10 -24 10 -9 0 -37 20 -61 45 -31
32 -39 45 -27 45 9 0 17 5 17 10 0 17 27 11 34 -7 5 -11 10 -13 17 -6 8 8 7
18 -2 34 -11 22 -11 23 4 10 10 -7 17 -19 17 -25z m416 -3 c-3 -3 -12 0 -21 7
-12 10 -15 9 -15 -6 0 -16 -2 -16 -10 -4 -12 20 8 32 33 18 10 -5 16 -12 13
-15z m214 20 c0 -14 -76 -94 -83 -87 -3 4 13 26 36 50 45 46 47 48 47 37z
m515 -73 c7 -21 -2 -60 -13 -60 -4 0 -13 12 -19 27 -9 19 -10 30 -2 40 16 18
27 16 34 -7z m505 10 c-8 -5 -22 -10 -30 -10 -13 0 -13 1 0 10 8 5 22 10 30
10 13 0 13 -1 0 -10z m1674 -47 c-4 -16 -10 -30 -14 -33 -6 -4 -22 -55 -22
-70 0 -3 -5 -11 -11 -19 -15 -18 -35 -52 -43 -73 -3 -9 -12 -19 -20 -22 -8 -3
-14 -12 -14 -21 0 -8 -4 -15 -10 -15 -5 0 -10 2 -10 5 0 4 20 52 43 102 5 11
7 27 5 34 -3 8 3 22 13 32 10 11 16 24 13 31 -2 6 1 18 7 26 8 12 12 12 16 2
3 -9 12 -3 24 17 23 38 31 40 23 4z m-2209 -23 c7 -21 -4 -92 -14 -100 -4 -3
-18 -23 -32 -45 l-24 -40 -3 30 c-3 18 2 33 13 41 9 7 12 15 6 18 -5 3 -17 -1
-26 -10 -12 -13 -19 -14 -28 -5 -8 8 -8 11 1 11 6 0 11 8 9 18 -1 9 3 17 8 17
6 0 9 -3 8 -7 -4 -12 15 -9 22 2 4 6 15 8 25 5 11 -3 20 0 24 11 5 13 2 15
-19 10 -16 -4 -34 -1 -48 9 -17 12 -18 15 -5 15 9 0 19 6 22 13 3 8 9 6 21 -8
15 -18 15 -18 9 13 -5 27 -4 31 9 26 9 -3 19 -14 22 -24z m-515 10 c0 -5 -8
-10 -17 -10 -15 0 -16 2 -3 10 19 12 20 12 20 0z m958 -14 c33 17 39 11 22
-21 -7 -14 -10 -28 -7 -32 4 -3 7 -1 7 5 0 7 5 12 11 12 5 0 7 -5 4 -11 -10
-15 4 -59 17 -56 7 1 21 11 31 22 l18 20 -10 -20 c-14 -30 -80 -90 -88 -81 -4
4 -1 12 7 17 11 8 12 12 3 16 -7 2 -13 9 -13 14 0 6 4 8 9 5 5 -3 12 1 15 9 3
9 -1 18 -9 21 -8 4 -15 14 -15 24 0 11 -5 22 -12 26 -8 5 -9 2 -5 -9 8 -20 -7
-31 -20 -14 -8 11 -8 22 -3 57 2 12 3 12 7 -2 4 -14 7 -15 31 -2z m-797 -55
c13 -26 24 -52 24 -59 0 -7 6 -16 12 -20 7 -4 11 -21 10 -37 -2 -24 2 -29 16
-27 22 4 22 -9 -3 -41 -24 -30 -26 -63 -4 -71 12 -5 13 -10 5 -19 -8 -10 -7
-17 1 -25 9 -9 8 -12 -6 -12 -9 0 -14 5 -11 10 3 6 2 10 -3 10 -6 0 -8 9 -5
19 4 15 -3 23 -31 35 -53 22 -84 56 -51 56 9 0 12 6 9 15 -8 21 -50 19 -66 -3
-16 -23 -46 -25 -44 -3 1 9 7 27 15 40 9 17 10 26 2 34 -8 8 -11 7 -11 -5 0
-8 -7 -22 -17 -29 -14 -12 -16 -12 -11 1 2 8 -1 21 -9 28 -7 7 -13 19 -13 25
0 14 67 87 80 87 5 0 11 9 15 19 4 14 15 19 39 18 30 -1 37 -7 57 -46z m930
22 c-12 -20 -14 -14 -5 12 4 9 9 14 11 11 3 -2 0 -13 -6 -23z m-502 -65 c6
-18 13 -48 16 -67 3 -19 8 -38 10 -42 6 -9 -15 -16 -42 -14 -17 1 -20 -1 -12
-11 7 -8 7 -14 -1 -19 -5 -3 -10 -10 -10 -16 0 -16 19 -10 37 11 31 36 42 25
39 -37 -2 -32 1 -64 6 -70 6 -7 7 -13 3 -13 -4 0 -13 7 -20 16 -14 20 -55 10
-55 -12 0 -8 -4 -12 -10 -9 -5 3 -10 1 -10 -4 0 -6 7 -11 15 -11 9 0 12 -6 9
-15 -5 -12 -12 -8 -34 15 -15 17 -37 30 -48 30 -21 0 -56 45 -47 60 3 5 25 7
48 5 23 -2 49 0 57 5 12 7 12 12 -4 29 -10 11 -15 25 -11 30 3 6 -2 11 -13 11
-10 0 -26 8 -35 18 -15 16 -14 21 20 62 19 25 42 44 50 43 8 0 12 5 9 12 -5
14 2 25 15 25 4 0 12 -15 18 -32z m1451 -82 c-37 -97 -52 -115 -115 -131 -25
-6 -45 -15 -45 -20 1 -5 -7 -12 -17 -16 -15 -6 -15 -8 -2 -8 9 -1 20 -9 23
-18 8 -20 -28 -53 -59 -53 -17 0 -17 2 -5 10 12 8 9 10 -12 10 -16 0 -28 -4
-28 -9 0 -4 -18 -20 -39 -34 -38 -25 -39 -26 -33 -4 3 12 13 30 23 40 11 10
19 22 19 27 0 6 7 10 15 10 9 0 20 11 27 25 6 13 24 28 39 34 16 5 29 13 29
16 0 3 -4 3 -10 0 -18 -11 -10 10 10 28 12 10 25 15 30 12 6 -3 7 0 5 8 -3 7
3 22 15 32 23 21 25 17 8 -20 -9 -20 -9 -28 1 -38 9 -9 14 -9 21 3 11 18 50
68 70 89 8 9 24 35 34 59 33 72 30 38 -4 -52z m-2250 63 c0 -10 -27 -19 -34
-12 -12 12 -5 22 14 20 11 -1 20 -4 20 -8z m150 -23 c0 -8 7 -16 15 -20 8 -3
15 -13 15 -23 0 -12 -3 -14 -11 -6 -6 6 -18 9 -27 6 -10 -4 -13 -2 -8 5 5 8 2
10 -9 6 -12 -5 -13 -9 -4 -20 10 -12 9 -13 -5 -8 -12 4 -15 13 -10 28 12 40
44 63 44 32z m1084 -131 c-4 -8 -1 -21 5 -29 6 -7 8 -16 4 -20 -4 -4 0 -4 10
0 20 7 22 -5 4 -30 -11 -15 -18 -16 -32 -9 -20 12 -55 6 -55 -9 0 -5 5 -6 10
-3 6 3 10 2 10 -4 0 -18 -20 -22 -36 -7 -9 10 -13 24 -9 36 4 11 2 20 -4 20
-6 0 -11 7 -11 15 0 20 9 19 34 -2 20 -18 20 -18 3 9 -12 19 -14 29 -5 34 6 4
8 3 5 -3 -4 -6 0 -16 8 -23 12 -10 18 -10 30 0 8 7 13 16 10 20 -4 7 1 12 22
19 1 1 0 -6 -3 -14z m76 -5 c-24 -15 -37 -11 -16 5 11 8 22 12 25 9 3 -3 -1
-9 -9 -14z m-110 6 c0 -3 -4 -8 -10 -11 -5 -3 -10 -1 -10 4 0 6 5 11 10 11 6
0 10 -2 10 -4z m686 -21 c20 -19 5 -19 -20 0 -11 9 -14 15 -7 15 7 0 19 -7 27
-15z m-1621 -16 c10 -15 -1 -22 -24 -14 -12 3 -19 11 -16 16 8 12 32 11 40 -2z
m852 -13 c-4 -10 -13 -13 -23 -9 -15 6 -15 7 1 20 21 15 30 10 22 -11z m750
-12 c-2 -13 1 -25 9 -28 8 -3 11 -12 7 -22 -5 -13 -3 -15 7 -9 8 5 11 4 7 -2
-10 -16 -60 -23 -75 -10 -11 8 -12 5 -6 -18 6 -24 4 -27 -10 -22 -14 5 -16 3
-11 -12 3 -11 1 -22 -5 -26 -8 -5 -6 -13 6 -26 9 -11 14 -22 11 -26 -4 -3 -7
-1 -7 5 0 25 -32 11 -42 -19 -8 -23 -16 -29 -32 -27 -19 3 -21 10 -24 86 -2
53 1 89 9 98 9 11 7 14 -12 14 -16 0 -4 9 36 26 88 37 96 39 89 20 -4 -11 -1
-16 11 -16 9 0 13 5 10 10 -10 16 3 42 16 34 6 -3 9 -17 6 -30z m1273 22 c0
-8 -170 -119 -175 -115 -3 3 32 31 78 61 76 53 97 64 97 54z m-2610 -26 c0
-25 -75 -38 -84 -15 -3 9 -2 13 4 10 6 -3 19 1 31 9 21 14 49 12 49 -4z m1670
10 c0 -5 -5 -10 -11 -10 -5 0 -7 5 -4 10 3 6 8 10 11 10 2 0 4 -4 4 -10z m660
-30 c23 -14 -31 -66 -70 -66 -39 0 -38 8 8 45 42 34 42 34 62 21z m-2166 -51
c-3 -5 4 -9 15 -9 12 0 21 -4 21 -10 0 -16 -32 -11 -46 8 -18 23 -17 33 1 26
8 -4 12 -10 9 -15z m1460 6 c-4 -8 -18 -15 -33 -15 l-26 0 25 14 c33 19 40 19
34 1z m-583 -36 c-12 -12 -25 -18 -28 -15 -4 3 2 13 13 21 29 22 41 18 15 -6z
m53 -8 c3 -4 -3 -16 -14 -26 -19 -18 -20 -17 -20 8 0 26 22 38 34 18z m490 1
c8 -14 -85 -132 -105 -132 -10 0 -21 -4 -24 -10 -3 -6 1 -7 9 -4 9 3 16 1 16
-4 0 -14 -147 -187 -202 -237 -101 -93 -95 -89 -114 -71 -9 10 -27 24 -40 33
-23 15 -26 35 -11 61 5 6 14 12 20 12 7 0 6 -4 -3 -10 -12 -8 -11 -10 7 -10
25 0 39 15 23 25 -14 9 7 35 27 35 8 0 11 5 8 10 -3 6 1 10 9 10 9 0 16 6 16
13 0 6 14 25 31 41 24 23 33 26 42 16 9 -10 9 -11 0 -6 -7 4 -13 2 -13 -3 0
-6 0 -13 0 -16 0 -3 3 -5 7 -4 4 0 10 -8 14 -18 7 -17 8 -5 10 75 1 21 2 22
14 5 7 -10 11 -21 9 -25 -3 -5 0 -8 6 -8 7 0 9 8 5 21 -5 15 -2 22 14 26 17 4
18 8 8 24 -9 15 -8 22 6 36 17 17 18 17 8 -9 -12 -31 -9 -33 19 -18 12 7 17
16 13 27 -4 10 -2 14 4 10 6 -4 16 0 23 8 10 12 10 15 -1 15 -8 0 1 14 18 32
18 18 35 29 39 25 4 -3 -4 -15 -17 -26 -13 -11 -21 -23 -17 -27 5 -4 27 14 50
39 40 45 61 56 72 39z m681 0 c-6 -5 -40 -34 -77 -66 -38 -32 -68 -54 -68 -48
0 5 7 15 15 22 8 7 15 17 15 23 0 5 11 25 26 44 20 27 32 33 62 33 20 0 32 -4
27 -8z m155 4 c0 -2 -7 -7 -16 -10 -8 -3 -12 -2 -9 4 6 10 25 14 25 6z m-1090
-80 c-31 -45 -57 -64 -57 -41 0 7 11 18 24 24 13 6 23 15 23 21 0 6 -4 8 -10
5 -5 -3 -15 -3 -21 0 -14 9 20 34 48 35 22 0 22 -1 -7 -44z m-1225 -4 c-8 -8
-25 10 -19 20 4 6 9 5 15 -3 4 -7 6 -15 4 -17z m916 19 c-7 -5 -10 -14 -7 -20
4 -6 2 -11 -4 -11 -6 0 -8 -5 -4 -11 5 -8 -1 -10 -20 -7 -26 5 -31 -2 -27 -44
2 -16 -36 -45 -45 -35 -3 2 0 16 5 31 9 22 8 26 -6 26 -13 0 -12 5 7 25 25 27
55 33 63 13 3 -7 6 -3 6 9 1 20 13 31 36 32 6 0 4 -3 -4 -8z m49 -12 c0 -5 -4
-9 -10 -9 -5 0 -10 7 -10 16 0 8 5 12 10 9 6 -3 10 -10 10 -16z m-1026 -5 c15
-6 17 -4 11 7 -8 12 -6 12 8 0 22 -18 14 -29 -20 -27 -32 2 -53 13 -53 28 0
10 16 8 54 -8z m876 -3 c-5 -11 -19 -22 -29 -26 -11 -3 -22 -12 -25 -20 -3 -8
-15 -15 -28 -15 -20 0 -21 1 -4 13 9 7 16 19 14 27 -2 8 9 16 30 20 18 4 36
10 39 14 12 12 14 6 3 -13z m-1120 -19 c0 -11 -8 -13 -30 -8 -22 4 -32 1 -36
-9 -8 -21 -32 -19 -30 3 2 30 96 43 96 14z m1294 2 c8 -22 8 -24 -8 -24 -15 0
-28 24 -19 34 11 10 21 7 27 -10z m-44 -36 c0 -16 -5 -19 -25 -16 -19 4 -25 1
-25 -13 0 -19 -11 -25 -23 -13 -9 9 15 54 29 54 7 0 15 -6 17 -12 3 -7 6 -3 6
10 1 28 21 19 21 -10z m-1480 7 c0 -8 -6 -15 -14 -15 -17 0 -28 14 -19 24 12
12 33 6 33 -9z m516 2 c4 -4 -2 -7 -14 -7 -11 0 -23 4 -26 8 -6 10 30 9 40 -1z
m709 3 c-3 -5 -10 -10 -16 -10 -5 0 -9 5 -9 10 0 6 7 10 16 10 8 0 12 -4 9
-10z m-1015 -11 c0 -4 -8 -9 -18 -11 -10 -3 -19 0 -19 6 0 7 9 12 19 12 10 0
18 -3 18 -7z m244 5 c25 -9 19 -24 -9 -24 -14 0 -25 -5 -25 -11 0 -7 10 -9 25
-5 30 8 31 5 7 -22 -15 -17 -21 -19 -31 -9 -10 9 -12 8 -9 -8 2 -13 -4 -21
-17 -23 -17 -4 -18 -2 -6 12 13 15 12 18 -7 23 -23 6 -27 19 -13 42 7 11 10 9
16 -8 3 -11 11 -21 16 -21 6 0 8 9 4 20 -11 34 10 49 49 34z m1161 -14 c3 -5
-3 -10 -15 -10 -12 0 -18 5 -15 10 3 6 10 10 15 10 5 0 12 -4 15 -10z m-1500
-10 c3 -5 2 -10 -4 -10 -5 0 -13 5 -16 10 -3 6 -2 10 4 10 5 0 13 -4 16 -10z
m1580 -2 c11 -11 -22 -27 -43 -21 -16 4 -20 9 -12 18 10 12 44 14 55 3z
m-1468 -18 c-6 -23 8 -27 17 -5 7 19 46 20 46 0 0 -7 -8 -19 -17 -24 -16 -9
-16 -10 5 -11 25 0 29 -25 8 -52 -12 -16 -14 -16 -36 4 -33 31 -55 88 -38 99
19 13 21 11 15 -11z m1258 0 c3 -5 -3 -10 -15 -10 -12 0 -18 5 -15 10 3 6 10
10 15 10 5 0 12 -4 15 -10z m-1290 -20 c3 -5 1 -10 -4 -10 -6 0 -11 5 -11 10
0 6 2 10 4 10 3 0 8 -4 11 -10z m1122 -6 c-3 -3 -12 -4 -19 -1 -8 3 -5 6 6 6
11 1 17 -2 13 -5z m-1067 -102 c-15 -5 -50 36 -49 58 0 9 12 2 31 -19 21 -24
27 -36 18 -39z m50 -12 c0 -5 -4 -10 -10 -10 -5 0 -10 5 -10 10 0 6 5 10 10
10 6 0 10 -4 10 -10z m1531 -72 c-27 -40 -67 -92 -88 -116 l-38 -42 -34 28
-33 28 53 36 c30 20 83 60 119 91 36 30 67 53 68 51 2 -1 -19 -35 -47 -76z
m-1148 24 c38 -16 34 -20 -19 -20 -30 0 -53 6 -65 17 -18 16 -17 17 19 15 20
0 49 -6 65 -12z m107 8 c0 -5 -5 -10 -11 -10 -5 0 -7 5 -4 10 3 6 8 10 11 10
2 0 4 -4 4 -10z m140 -4 c0 -15 -18 -31 -26 -23 -7 7 7 37 17 37 5 0 9 -6 9
-14z m309 -13 c-8 -10 -20 -24 -26 -31 -7 -7 -13 -16 -13 -20 0 -4 -12 -20
-26 -37 -14 -16 -42 -49 -61 -72 -40 -49 -55 -53 -77 -21 -21 30 -20 48 5 78
14 16 19 19 15 8 -8 -26 11 -22 25 5 18 33 82 97 73 72 -4 -11 -12 -26 -17
-33 -5 -7 -7 -15 -4 -19 10 -9 55 40 50 54 -5 12 8 18 30 14 4 0 7 4 7 9 0 6
7 10 16 10 14 0 15 -2 3 -17z m-449 -33 c0 -5 -5 -10 -11 -10 -5 0 -7 5 -4 10
3 6 8 10 11 10 2 0 4 -4 4 -10z m35 -21 c10 -15 -1 -23 -20 -15 -9 3 -13 10
-10 16 8 13 22 13 30 -1z m740 -40 c-4 -5 -3 -9 2 -8 38 7 45 -17 8 -31 -14
-5 -25 -15 -25 -21 0 -7 7 -8 18 -4 68 29 68 29 95 9 15 -10 27 -22 27 -26 0
-12 -101 -108 -145 -136 -68 -45 -144 -104 -143 -110 3 -27 -6 -53 -28 -83
l-25 -34 7 30 c10 48 56 145 65 140 4 -3 19 9 32 27 37 51 44 66 19 44 -22
-19 -22 -19 -22 0 0 24 14 47 26 42 5 -1 9 9 10 25 1 33 1 33 -29 5 -25 -24
-57 -79 -57 -99 0 -6 -8 -18 -17 -26 -10 -8 -12 -12 -5 -8 8 4 12 -1 12 -15 0
-16 -5 -20 -15 -16 -8 3 -15 2 -15 -3 0 -5 -15 -12 -32 -15 l-33 -7 24 -19
c21 -18 21 -20 4 -20 -12 0 -23 -11 -30 -30 -8 -22 -24 -36 -59 -51 -35 -15
-45 -22 -34 -29 20 -12 21 -39 4 -73 -12 -21 -21 -28 -35 -24 -12 3 -22 0 -25
-8 -7 -16 -44 -7 -44 11 0 19 -21 29 -30 14 -4 -7 -13 -9 -19 -6 -14 9 -14 36
0 36 8 0 8 4 0 14 -12 14 -5 46 13 58 7 5 6 8 -2 8 -8 0 -16 -9 -19 -19 -3
-12 -13 -19 -24 -18 -24 2 -24 0 6 46 16 23 23 44 19 55 -5 13 -9 14 -14 5 -9
-14 -29 1 -49 38 -10 20 -6 28 50 80 33 32 70 64 82 71 12 8 35 31 51 53 17
21 36 39 43 39 7 0 13 4 13 9 0 16 54 19 82 5 28 -15 29 -28 2 -67 -12 -18
-13 -18 -24 2 -9 18 -17 21 -48 15 -42 -8 -74 -22 -84 -38 -4 -6 -8 -39 -8
-73 0 -50 3 -63 15 -63 21 0 31 -30 14 -40 -7 -5 -10 -12 -6 -16 3 -4 13 -1
22 6 8 7 15 9 15 5 0 -5 13 10 29 31 16 21 25 43 21 48 -5 5 14 26 42 48 27
22 47 42 44 46 -4 3 -15 -4 -26 -16 -33 -35 -34 -26 -3 18 31 44 43 50 43 20
0 -23 18 -27 26 -5 4 8 12 15 20 15 8 0 14 5 14 10 0 6 -7 10 -15 10 -8 0 -15
-4 -15 -10 0 -5 -5 -10 -11 -10 -18 0 1 43 29 67 15 13 21 23 14 23 -7 0 -10
5 -7 10 4 6 10 8 15 5 5 -3 11 3 14 12 3 10 4 6 2 -9 -3 -24 0 -27 25 -25 29
2 41 29 19 42 -17 11 -11 30 13 41 25 12 82 -9 72 -27z m416 -79 c-30 -28 -58
-50 -63 -50 -4 0 -17 -9 -29 -21 -16 -16 -23 -18 -35 -9 -16 14 4 33 101 92
82 50 90 46 26 -12z m-1324 4 c-3 -3 -12 -4 -19 -1 -8 3 -5 6 6 6 11 1 17 -2
13 -5z m-94 -15 c27 -15 38 -30 32 -46 -2 -7 2 -13 10 -13 12 0 12 -5 3 -25
-6 -14 -14 -22 -17 -17 -3 5 -14 11 -23 15 -19 7 -25 27 -8 27 6 0 10 4 10 10
0 17 -45 6 -50 -12 -4 -15 -7 -14 -16 6 -9 20 -9 23 2 19 8 -3 16 5 20 21 7
30 8 30 37 15z m425 -1 c-2 -6 -10 -14 -16 -16 -7 -2 -10 2 -6 12 7 18 28 22
22 4z m2313 -15 c-12 -20 -14 -14 -5 12 4 9 9 14 11 11 3 -2 0 -13 -6 -23z
m-2356 -5 c-4 -18 0 -26 22 -35 38 -18 40 -17 35 17 -3 23 0 30 12 30 9 0 15
-6 14 -12 -2 -7 5 -12 15 -10 9 2 17 1 17 -2 0 -9 -64 -71 -71 -69 -5 2 -6 -4
-3 -12 6 -14 -36 -73 -83 -121 -15 -14 -18 -13 -39 13 -13 15 -23 40 -24 55 0
15 -4 30 -10 33 -10 6 -15 45 -6 45 15 0 36 -14 36 -24 0 -14 59 -9 61 5 4 28
3 39 -3 37 -12 -5 -36 35 -31 50 4 9 14 11 29 8 14 -4 24 -2 24 4 0 5 2 10 5
10 3 0 3 -10 0 -22z m-540 2 c-3 -5 -12 -10 -18 -10 -7 0 -6 4 3 10 19 12 23
12 15 0z m51 -73 c3 -11 15 -30 26 -41 11 -12 18 -30 15 -43 -2 -12 -1 -20 3
-18 14 9 17 -30 4 -60 -14 -36 -21 -36 -45 1 -14 22 -16 31 -6 43 10 12 9 14
-4 9 -9 -3 -21 -3 -28 2 -8 5 0 10 23 14 22 4 34 11 30 17 -4 6 -20 8 -39 5
-24 -5 -34 -2 -39 9 -6 18 -36 20 -36 3 0 -7 -12 0 -27 15 -23 22 -26 31 -17
45 13 20 40 23 37 5 -2 -7 2 -13 7 -13 6 0 10 -7 10 -15 0 -8 5 -15 10 -15 6
0 10 9 10 20 0 11 8 28 18 38 19 21 37 13 48 -21z m1379 -4 c0 -7 -15 -23 -32
-36 -18 -13 -31 -26 -28 -29 3 -3 -4 -13 -15 -23 -11 -10 -20 -26 -20 -36 0
-18 -51 -39 -95 -39 -27 0 -70 -30 -56 -39 15 -10 2 -49 -20 -56 -10 -4 -19
-11 -19 -16 0 -5 -43 -37 -95 -70 -52 -34 -95 -65 -95 -70 0 -12 6 -11 41 7
17 8 32 14 34 12 2 -2 -13 -21 -34 -43 -21 -22 -43 -50 -50 -63 -10 -19 -15
-21 -27 -11 -19 16 -18 32 7 63 12 15 19 30 15 33 -3 3 5 20 17 37 13 17 38
57 57 90 38 68 129 173 166 193 15 7 40 13 56 13 16 0 41 9 55 20 14 11 34 20
44 20 11 0 19 6 19 14 0 19 40 47 60 44 8 -2 15 -9 15 -15z m-1305 -20 c-1
-24 -2 -26 -11 -10 -5 9 -7 22 -4 27 10 17 15 11 15 -17z m910 12 c0 -8 -4
-15 -10 -15 -5 0 -7 7 -4 15 4 8 8 15 10 15 2 0 4 -7 4 -15z m-785 -75 c3 -5
1 -10 -4 -10 -6 0 -11 5 -11 10 0 6 2 10 4 10 3 0 8 -4 11 -10z m165 0 c0 -5
-4 -10 -10 -10 -5 0 -10 5 -10 10 0 6 5 10 10 10 6 0 10 -4 10 -10z m-2272
-28 c2 -15 8 -19 20 -15 15 6 15 4 4 -9 -12 -15 -16 -15 -43 0 -30 18 -38 37
-16 45 20 9 32 2 35 -21z m2689 22 c-3 -3 -12 -4 -19 -1 -8 3 -5 6 6 6 11 1
17 -2 13 -5z m-692 -24 c3 -5 2 -10 -4 -10 -5 0 -13 5 -16 10 -3 6 -2 10 4 10
5 0 13 -4 16 -10z m256 -10 c6 0 8 4 5 9 -3 4 5 6 18 4 13 -3 29 -16 35 -29
14 -31 15 -27 -12 -56 -31 -33 -84 -44 -92 -19 -3 12 -12 17 -23 14 -13 -3
-17 3 -18 21 -2 22 2 26 27 26 16 0 29 -5 29 -11 0 -5 -5 -7 -11 -3 -7 4 -10
1 -7 -6 4 -14 48 -22 48 -9 0 3 8 9 18 11 10 3 18 15 19 27 1 12 -2 19 -8 16
-5 -4 -9 -12 -9 -18 0 -7 -9 -13 -20 -13 -16 0 -20 7 -19 31 0 16 3 24 6 18 2
-7 9 -13 14 -13z m-101 -22 c0 -4 -6 -8 -12 -8 -9 0 -8 -4 2 -11 12 -9 12 -10
-3 -5 -10 3 -21 6 -23 6 -2 0 -4 6 -4 13 0 7 9 13 20 13 11 0 20 -4 20 -8z
m-37 -76 c-26 -4 -29 -14 -9 -32 8 -6 12 -18 9 -27 -5 -12 -7 -12 -14 -1 -5 7
-9 10 -9 7 0 -4 -7 -23 -16 -44 -8 -20 -10 -34 -5 -30 6 3 11 13 11 21 0 8 5
14 11 14 5 0 7 -6 3 -12 -6 -10 -3 -9 8 0 12 9 22 10 35 4 10 -6 21 -10 26
-11 7 -1 7 -8 0 -28 -3 -7 -10 -10 -17 -6 -6 3 -8 2 -3 -2 4 -5 0 -19 -9 -33
-19 -29 3 -20 24 10 7 10 21 18 30 18 15 -1 15 -2 -1 -14 -12 -9 -14 -16 -8
-21 6 -3 11 -1 11 4 0 6 6 11 14 11 8 0 17 14 21 30 4 17 13 30 20 30 7 0 15
5 17 11 6 19 34 -1 36 -28 3 -32 -27 -70 -40 -51 -5 9 -8 6 -8 -9 0 -26 -3
-27 -31 -13 -23 13 -26 -2 -4 -20 8 -7 15 -16 15 -21 0 -5 -7 -9 -15 -9 -21 0
-19 -18 3 -23 13 -4 12 -5 -5 -6 -22 -1 -36 -15 -40 -40 -1 -8 -6 -17 -11 -20
-13 -9 -23 -41 -12 -41 6 0 10 -7 10 -15 0 -18 -16 -20 -23 -2 -4 9 -8 9 -15
-2 -6 -9 -17 -11 -33 -6 -35 11 -47 29 -42 58 6 29 18 35 27 15 3 -7 5 -4 3 7
-1 12 -10 20 -22 20 -20 1 -23 14 -10 50 6 16 3 16 -15 -5 -12 -14 -20 -18
-17 -10 5 18 -19 69 -33 71 -6 1 -14 2 -19 3 -24 3 -22 19 4 46 17 18 25 35
21 45 -4 12 -1 15 13 10 13 -4 23 2 35 19 17 26 8 40 -18 30 -10 -4 -16 -1
-16 9 0 8 -6 17 -14 20 -8 3 -19 15 -25 26 -10 18 -8 20 29 19 23 0 43 2 46 4
2 3 26 -2 52 -11 36 -12 42 -17 25 -19z m74 -64 c-6 -21 8 -25 17 -3 3 8 12
12 21 9 8 -4 22 -1 30 6 14 12 18 9 13 -7 -2 -5 -6 -7 -10 -5 -5 1 -8 -2 -8
-8 0 -5 -7 -10 -15 -10 -7 0 -18 -8 -24 -17 -9 -17 -11 -16 -35 6 -13 13 -22
29 -19 37 3 8 -1 14 -11 14 -9 0 -13 6 -10 15 9 22 57 -12 51 -37z m270 36
c-3 -3 -12 -4 -19 -1 -8 3 -5 6 6 6 11 1 17 -2 13 -5z m-1693 -10 c9 -3 14
-10 11 -14 -6 -9 -53 -1 -61 11 -6 10 26 12 50 3z m104 -59 c29 -16 58 -35 65
-43 10 -13 4 -14 -48 -8 -82 10 -89 12 -100 38 -7 16 -20 24 -42 26 -55 5 -37
21 20 18 35 -2 70 -12 105 -31z m1267 25 c3 -5 1 -10 -4 -10 -6 0 -11 5 -11
10 0 6 2 10 4 10 3 0 8 -4 11 -10z m296 -27 c-8 -15 -10 -15 -11 -2 0 17 10
32 18 25 2 -3 -1 -13 -7 -23z m299 -33 c-17 -51 -25 -51 -26 0 -1 33 1 38 12
29 11 -9 14 -8 14 6 0 10 3 15 7 12 3 -4 0 -25 -7 -47z m270 15 c0 -8 -4 -15
-10 -15 -5 0 -7 7 -4 15 4 8 8 15 10 15 2 0 4 -7 4 -15z m-585 -34 c3 -5 1
-12 -5 -16 -5 -3 -10 1 -10 9 0 18 6 21 15 7z m-1389 -42 c25 -17 43 -33 40
-36 -5 -5 -93 44 -102 58 -11 19 19 8 62 -22z m1399 -27 c-3 -3 -11 0 -18 7
-9 10 -8 11 6 5 10 -3 15 -9 12 -12z m83 -26 c-13 -10 -15 -15 -6 -24 9 -9 8
-12 -5 -12 -23 0 -22 36 0 49 24 13 32 3 11 -13z m-238 6 c0 -13 -12 -22 -22
-16 -10 6 -1 24 13 24 5 0 9 -4 9 -8z m182 -18 c-2 -10 -6 -34 -9 -51 -6 -37
-14 -41 -39 -15 -10 9 -22 17 -28 17 -13 0 -20 31 -11 53 5 13 8 14 14 3 7
-11 13 -11 32 3 29 20 45 16 41 -10z m-131 -26 c7 -12 0 -48 -10 -48 -3 0 -16
8 -29 18 -29 23 -21 56 12 46 11 -4 24 -11 27 -16z m-292 -21 c15 -19 2 -29
-15 -12 -8 7 -14 16 -14 19 0 11 17 6 29 -7z m887 -73 c-4 -14 -9 -24 -12 -21
-3 2 -2 17 2 31 3 15 9 25 11 22 3 -3 2 -17 -1 -32z m-623 12 c16 -12 17 -18
7 -36 -10 -18 -9 -24 1 -31 26 -16 -1 -21 -42 -8 -35 11 -43 19 -46 42 -3 19
2 29 14 34 9 4 18 2 21 -5 2 -7 8 -12 14 -12 6 0 8 7 4 15 -7 19 3 19 27 1z
m-3 -151 c0 -8 -2 -15 -4 -15 -2 0 -6 7 -10 15 -3 8 -1 15 4 15 6 0 10 -7 10
-15z m-432 -97 c17 -45 9 -45 -21 1 -21 32 -23 38 -8 34 9 -2 22 -18 29 -35z
m-81 -18 c7 -14 15 -37 18 -52 3 -16 10 -28 15 -28 6 0 8 12 5 28 -3 15 -2 21
1 14 3 -7 16 -24 28 -37 16 -17 21 -33 18 -55 l-4 -30 -31 22 c-18 13 -39 30
-48 39 -9 9 -30 24 -47 34 -17 10 -32 29 -35 42 -5 29 7 30 21 1 7 -15 11 -18
11 -8 1 9 -6 26 -15 38 -16 23 -16 23 17 20 24 -2 37 -10 46 -28z m465 8 c-7
-7 -12 -8 -12 -2 0 14 12 26 19 19 2 -3 -1 -11 -7 -17z m-332 -44 c0 -7 -4
-16 -10 -19 -5 -3 -10 3 -10 14 0 10 -3 28 -6 38 -5 16 -4 16 10 -1 9 -11 16
-25 16 -32z m26 -152 c11 2 20 -4 22 -16 2 -10 0 -16 -6 -12 -6 4 -8 -3 -4
-16 4 -18 -1 -16 -26 13 -33 38 -43 61 -18 40 8 -7 23 -11 32 -9z m64 -52 c11
-11 20 -22 20 -25 0 -2 13 -27 30 -55 l30 -51 -27 4 c-15 2 -33 14 -41 28
l-14 24 21 -24 c14 -15 21 -18 21 -9 0 20 -26 53 -41 53 -7 0 -14 6 -17 14 -3
8 0 11 7 7 6 -4 11 -2 11 3 0 6 -6 11 -14 11 -18 0 -29 16 -21 30 9 14 12 13
35 -10z m684 -254 c-15 -36 -33 -66 -40 -66 -8 0 1 26 24 69 20 38 38 68 40
66 2 -1 -9 -32 -24 -69z m-43 -3 c-12 -20 -14 -14 -5 12 4 9 9 14 11 11 3 -2
0 -13 -6 -23z m-111 -111 c0 -5 -7 -17 -15 -28 -15 -19 -20 -8 -9 20 6 17 24
22 24 8z m-47 -50 c-3 -12 -9 -22 -14 -22 -12 0 -11 7 2 32 13 25 20 19 12
-10z m-83 -46 c0 -3 -4 -8 -10 -11 -5 -3 -10 -1 -10 4 0 6 5 11 10 11 6 0 10
-2 10 -4z m134 -41 c-4 -8 -8 -15 -10 -15 -2 0 -4 7 -4 15 0 8 4 15 10 15 5 0
7 -7 4 -15z m-18 -76 c-8 -19 -19 -50 -25 -69 -6 -19 -9 -25 -7 -12 2 12 1 22
-4 22 -10 0 3 57 19 89 20 37 35 11 17 -30z m84 -19 c0 -5 -5 -10 -11 -10 -5
0 -7 5 -4 10 3 6 8 10 11 10 2 0 4 -4 4 -10z m-83 -182 c-3 -7 -5 -2 -5 12 0
14 2 19 5 13 2 -7 2 -19 0 -25z m-53 -23 c-4 -8 -7 -15 -9 -15 -2 0 -5 7 -9
15 -3 9 0 15 9 15 9 0 12 -6 9 -15z m46 -25 c0 -5 -2 -10 -4 -10 -3 0 -8 5
-11 10 -3 6 -1 10 4 10 6 0 11 -4 11 -10z m-83 -146 c-9 -9 -27 6 -27 22 0 13
2 13 16 -1 9 -9 14 -18 11 -21z"/>
<path d="M5800 4990 c-9 -16 -8 -20 5 -20 8 0 15 9 15 20 0 11 -2 20 -5 20 -2
0 -9 -9 -15 -20z"/>
<path d="M5830 4680 c0 -5 4 -10 9 -10 6 0 13 5 16 10 3 6 -1 10 -9 10 -9 0
-16 -4 -16 -10z"/>
<path d="M5879 4625 c-1 -6 -1 -13 0 -17 0 -5 -7 -8 -16 -8 -15 0 -15 -2 -4
-9 20 -13 48 16 32 32 -6 6 -12 7 -12 2z"/>
<path d="M5941 4616 c-9 -10 -9 -16 -1 -21 16 -10 31 7 21 23 -6 10 -10 10
-20 -2z"/>
<path d="M5950 4561 c0 -5 5 -13 10 -16 6 -3 10 -2 10 4 0 5 -4 13 -10 16 -5
3 -10 2 -10 -4z"/>
<path d="M5876 4368 c6 -10 61 -11 67 0 3 4 -12 7 -33 7 -21 1 -36 -3 -34 -7z"/>
<path d="M5740 4360 c-12 -8 -11 -10 7 -10 12 0 25 5 28 10 8 13 -15 13 -35 0z"/>
<path d="M5766 4343 c-9 -9 -7 -33 3 -33 12 0 22 28 12 34 -5 3 -11 3 -15 -1z"/>
<path d="M6380 4311 c0 -10 24 -21 47 -21 13 0 13 3 3 15 -13 16 -50 21 -50 6z"/>
<path d="M6560 4235 c0 -8 4 -15 10 -15 5 0 7 7 4 15 -4 8 -8 15 -10 15 -2 0
-4 -7 -4 -15z"/>
<path d="M6334 4221 c-11 -12 -2 -22 16 -16 18 6 25 -3 21 -27 0 -5 6 -8 15
-8 13 0 14 3 5 14 -6 7 -9 21 -5 30 5 12 0 15 -21 14 -14 -1 -28 -4 -31 -7z"/>
<path d="M6040 4150 c0 -5 5 -10 11 -10 5 0 7 5 4 10 -3 6 -8 10 -11 10 -2 0
-4 -4 -4 -10z"/>
<path d="M6352 4123 c10 -2 21 -16 24 -29 7 -29 17 -24 18 9 1 18 -4 22 -29
23 -16 1 -22 -1 -13 -3z"/>
<path d="M6084 4051 c1 -22 4 -27 14 -19 10 8 10 14 0 27 -7 9 -13 17 -14 19
-1 1 -1 -11 0 -27z"/>
<path d="M6335 4040 c-3 -6 1 -7 9 -4 18 7 21 14 7 14 -6 0 -13 -4 -16 -10z"/>
<path d="M6001 4011 c-15 -21 -18 -30 -9 -34 10 -3 10 -7 -1 -20 -12 -15 -11
-17 3 -17 9 0 16 -3 16 -7 0 -5 11 -9 24 -9 18 -1 23 2 19 13 -3 8 -14 13 -23
10 -14 -4 -17 2 -16 24 1 16 7 34 14 41 14 14 16 28 3 28 -5 0 -19 -13 -30
-29z"/>
<path d="M6178 3989 c-29 -31 -21 -43 11 -17 15 13 26 26 24 31 -6 11 -16 7
-35 -14z"/>
<path d="M5872 3978 c-15 -15 -16 -38 -2 -38 6 0 10 7 10 16 0 11 6 14 22 8
20 -6 21 -5 9 10 -16 19 -23 20 -39 4z"/>
<path d="M6314 3968 c-4 -6 -3 -8 4 -4 6 3 13 2 17 -4 7 -12 25 -4 25 11 0 13
-37 11 -46 -3z"/>
<path d="M5908 3911 c-43 -44 -44 -48 -20 -68 15 -13 15 -14 0 -9 -12 3 -15 1
-11 -10 7 -19 17 -18 39 7 14 16 15 23 7 26 -20 7 -15 26 12 55 49 53 24 52
-27 -1z"/>
<path d="M6133 3935 c5 -11 3 -22 -5 -27 -8 -5 -9 -8 -2 -8 23 0 33 24 16 40
-14 13 -15 12 -9 -5z"/>
<path d="M6245 3940 c-3 -5 -1 -10 4 -10 6 0 11 5 11 10 0 6 -2 10 -4 10 -3 0
-8 -4 -11 -10z"/>
<path d="M6194 3915 c-10 -8 -14 -15 -7 -15 6 0 15 5 18 11 4 6 14 8 22 5 8
-3 11 -1 8 4 -8 14 -18 13 -41 -5z"/>
<path d="M6077 3899 c7 -7 15 -10 18 -7 3 3 -2 9 -12 12 -14 6 -15 5 -6 -5z"/>
<path d="M5950 3885 c7 -8 16 -15 21 -15 5 0 6 7 3 15 -4 8 -13 15 -21 15 -13
0 -13 -3 -3 -15z"/>
<path d="M6206 3854 l-48 -46 27 -14 c34 -18 41 -18 26 0 -12 15 -5 46 11 46
5 0 6 5 3 10 -3 6 2 10 12 10 12 0 19 7 19 20 0 11 -1 20 -1 20 -1 0 -23 -21
-49 -46z"/>
<path d="M6102 3859 c-7 -10 -8 -19 -3 -19 5 0 11 6 14 13 3 9 8 9 21 -2 14
-12 16 -12 10 2 -9 24 -29 27 -42 6z"/>
<path d="M5836 3825 c4 -8 8 -15 10 -15 2 0 4 7 4 15 0 8 -4 15 -10 15 -5 0
-7 -7 -4 -15z"/>
<path d="M6136 3805 c9 -14 21 -25 28 -24 7 0 6 2 -1 6 -7 2 -13 13 -13 24 0
10 -7 19 -15 19 -14 0 -13 -3 1 -25z"/>
<path d="M6465 3800 c-3 -5 -2 -10 4 -10 5 0 13 5 16 10 3 6 2 10 -4 10 -5 0
-13 -4 -16 -10z"/>
<path d="M5559 3783 c-13 -16 -12 -17 4 -4 16 13 21 21 13 21 -2 0 -10 -8 -17
-17z"/>
<path d="M5913 3777 c2 -7 12 -10 22 -9 11 2 26 -6 36 -19 10 -13 20 -22 22
-19 3 3 -3 15 -13 27 -19 24 -74 40 -67 20z"/>
<path d="M6446 3761 c-4 -5 3 -7 14 -4 23 6 26 13 6 13 -8 0 -17 -4 -20 -9z"/>
<path d="M5907 3735 c-4 -8 -14 -15 -23 -15 -21 0 -13 -23 10 -26 11 -1 16 2
13 11 -3 7 0 18 6 24 6 6 8 13 5 16 -3 3 -8 -1 -11 -10z"/>
<path d="M6410 3740 c0 -5 5 -10 11 -10 5 0 7 5 4 10 -3 6 -8 10 -11 10 -2 0
-4 -4 -4 -10z"/>
<path d="M6094 3715 c-14 -14 -23 -29 -19 -33 4 -4 12 0 18 9 7 8 20 20 31 26
12 7 15 13 7 17 -6 4 -23 -5 -37 -19z"/>
<path d="M5848 3663 c7 -3 16 -2 19 1 4 3 -2 6 -13 5 -11 0 -14 -3 -6 -6z"/>
<path d="M4962 4310 c0 -14 2 -19 5 -12 2 6 2 18 0 25 -3 6 -5 1 -5 -13z"/>
<path d="M4510 4150 c-8 -5 -11 -12 -7 -16 4 -4 13 -2 19 4 15 15 7 24 -12 12z"/>
<path d="M4595 4150 c3 -5 13 -10 21 -10 8 0 14 5 14 10 0 6 -9 10 -21 10 -11
0 -17 -4 -14 -10z"/>
<path d="M5550 4132 c0 -17 21 -25 31 -13 5 6 6 9 3 6 -4 -3 -13 0 -21 6 -9 8
-13 8 -13 1z"/>
<path d="M5592 4066 c2 -17 7 -22 20 -18 18 4 18 6 2 23 -22 24 -24 24 -22 -5z"/>
<path d="M5545 4060 c-3 -6 1 -7 9 -4 18 7 21 14 7 14 -6 0 -13 -4 -16 -10z"/>
<path d="M4436 4017 c3 -10 9 -15 12 -12 3 3 0 11 -7 18 -10 9 -11 8 -5 -6z"/>
<path d="M4382 4004 c3 -17 21 -21 26 -6 1 5 -4 12 -13 16 -11 4 -15 1 -13
-10z"/>
<path d="M4270 3985 c0 -8 7 -15 16 -15 14 0 14 3 4 15 -7 8 -14 15 -16 15 -2
0 -4 -7 -4 -15z"/>
<path d="M4450 3985 c0 -18 19 -40 26 -32 4 4 0 15 -9 24 -9 10 -17 13 -17 8z"/>
<path d="M4310 3910 c0 -5 5 -10 11 -10 5 0 7 5 4 10 -3 6 -8 10 -11 10 -2 0
-4 -4 -4 -10z"/>
<path d="M5635 3850 c3 -5 8 -10 11 -10 2 0 4 5 4 10 0 6 -5 10 -11 10 -5 0
-7 -4 -4 -10z"/>
<path d="M4711 3917 c-13 -15 -19 -30 -15 -40 5 -13 10 -9 25 20 23 44 20 51
-10 20z"/>
<path d="M4675 3860 c3 -5 8 -10 11 -10 2 0 4 5 4 10 0 6 -5 10 -11 10 -5 0
-7 -4 -4 -10z"/>
<path d="M4800 3840 c0 -5 5 -10 10 -10 6 0 10 5 10 10 0 6 -4 10 -10 10 -5 0
-10 -4 -10 -10z"/>
<path d="M4742 3826 c7 -8 17 -12 22 -9 4 3 2 9 -5 14 -22 13 -31 11 -17 -5z"/>
<path d="M5195 3660 c-8 -12 20 -24 35 -15 5 3 10 10 10 16 0 12 -37 12 -45
-1z"/>
<path d="M5110 3640 c0 -5 7 -7 15 -4 8 4 15 8 15 10 0 2 -7 4 -15 4 -8 0 -15
-4 -15 -10z"/>
<path d="M5158 3623 c7 -3 16 -2 19 1 4 3 -2 6 -13 5 -11 0 -14 -3 -6 -6z"/>
<path d="M6460 3629 c-11 -19 -10 -20 9 -9 12 6 21 15 21 20 0 18 -19 11 -30
-11z"/>
<path d="M6180 3570 c-11 -21 -8 -23 28 -14 18 5 20 9 11 20 -16 19 -26 17
-39 -6z"/>
<path d="M6150 3526 c0 -2 8 -10 18 -17 15 -13 16 -12 3 4 -13 16 -21 21 -21
13z"/>
<path d="M6195 3230 c-3 -5 -1 -10 4 -10 6 0 11 5 11 10 0 6 -2 10 -4 10 -3 0
-8 -4 -11 -10z"/>
<path d="M6190 3198 c0 -4 -6 -6 -12 -4 -7 1 -10 1 -5 -1 4 -3 7 -11 7 -19 0
-9 5 -12 10 -9 13 8 13 -1 0 -26 -16 -29 6 -24 26 6 13 19 14 28 5 39 -9 11
-9 15 1 19 7 3 3 4 -9 4 -13 -1 -23 -5 -23 -9z"/>
<path d="M5582 3012 c-1 -24 0 -25 9 -9 7 11 7 23 2 28 -5 5 -9 -3 -11 -19z"/>
<path d="M6040 3051 c0 -6 5 -13 10 -16 6 -3 10 1 10 9 0 9 -4 16 -10 16 -5 0
-10 -4 -10 -9z"/>
<path d="M6070 3050 c0 -5 5 -10 11 -10 5 0 7 5 4 10 -3 6 -8 10 -11 10 -2 0
-4 -4 -4 -10z"/>
<path d="M6050 3010 c-14 -10 -22 -21 -19 -25 3 -3 17 3 30 14 31 25 21 35
-11 11z"/>
<path d="M5808 2770 c-7 -16 -18 -30 -23 -30 -6 0 -11 -8 -11 -17 -1 -10 -4
-27 -8 -38 l-8 -20 16 20 c9 11 22 27 30 36 12 15 30 79 22 79 -3 0 -10 -13
-18 -30z"/>
<path d="M5568 2778 c7 -7 12 -22 12 -35 0 -13 4 -23 10 -23 5 0 7 6 4 14 -3
8 -1 17 5 21 20 12 11 31 -16 33 -21 2 -24 -1 -15 -10z"/>
<path d="M5621 2764 c0 -11 3 -14 6 -6 3 7 2 16 -1 19 -3 4 -6 -2 -5 -13z"/>
<path d="M5546 2744 c-9 -23 -2 -28 13 -10 7 8 8 17 3 20 -6 3 -13 -1 -16 -10z"/>
<path d="M5611 2713 c-2 -34 29 -58 44 -33 3 5 0 7 -8 4 -8 -3 -18 5 -25 18
-6 13 -11 18 -11 11z"/>
<path d="M5680 2639 c0 -5 5 -7 10 -4 6 3 10 8 10 11 0 2 -4 4 -10 4 -5 0 -10
-5 -10 -11z"/>
<path d="M5660 2589 c-11 -7 -7 -9 17 -5 30 4 31 3 23 -20 -10 -27 -6 -30 14
-12 33 31 -15 64 -54 37z"/>
<path d="M5618 2543 c7 -3 16 -2 19 1 4 3 -2 6 -13 5 -11 0 -14 -3 -6 -6z"/>
<path d="M5450 2951 c0 -6 4 -13 10 -16 6 -3 7 1 4 9 -7 18 -14 21 -14 7z"/>
<path d="M5110 2655 c0 -8 5 -15 10 -15 6 0 10 7 10 15 0 8 -4 15 -10 15 -5 0
-10 -7 -10 -15z"/>
<path d="M5111 2468 c-5 -13 -7 -26 -4 -31 7 -12 25 4 19 18 -3 8 0 15 7 18 8
2 8 5 -1 11 -8 5 -15 -1 -21 -16z"/>
<path d="M5196 2441 c-4 -7 -5 -15 -2 -18 9 -9 19 4 14 18 -4 11 -6 11 -12 0z"/>
<path d="M5161 2394 c0 -11 3 -14 6 -6 3 7 2 16 -1 19 -3 4 -6 -2 -5 -13z"/>
<path d="M5185 2350 c-3 -5 -1 -10 4 -10 6 0 11 5 11 10 0 6 -2 10 -4 10 -3 0
-8 -4 -11 -10z"/>
<path d="M2400 7640 c0 -5 4 -10 9 -10 6 0 13 5 16 10 3 6 -1 10 -9 10 -9 0
-16 -4 -16 -10z"/>
<path d="M2520 7630 c0 -5 5 -10 10 -10 6 0 10 5 10 10 0 6 -4 10 -10 10 -5 0
-10 -4 -10 -10z"/>
<path d="M5605 7360 c-3 -5 -1 -10 4 -10 6 0 11 5 11 10 0 6 -2 10 -4 10 -3 0
-8 -4 -11 -10z"/>
<path d="M2418 7333 c7 -3 16 -2 19 1 4 3 -2 6 -13 5 -11 0 -14 -3 -6 -6z"/>
<path d="M2213 7315 c-3 -9 2 -22 13 -30 16 -12 19 -12 22 1 8 36 -22 61 -35
29z"/>
<path d="M2305 7290 c-15 -17 -16 -20 -3 -20 19 0 42 26 30 34 -5 3 -17 -3
-27 -14z"/>
<path d="M2120 7293 c8 -3 22 -9 30 -13 9 -5 20 -2 28 6 11 12 6 14 -30 13
-24 0 -36 -3 -28 -6z"/>
<path d="M1881 7274 c-12 -8 -19 -19 -16 -24 3 -4 -1 -11 -7 -14 -9 -3 -5 -11
11 -26 l24 -21 14 32 c24 56 13 80 -26 53z"/>
<path d="M2260 7260 c0 -5 5 -10 10 -10 6 0 10 5 10 10 0 6 -4 10 -10 10 -5 0
-10 -4 -10 -10z"/>
<path d="M1776 7222 c-3 -6 -1 -14 5 -17 15 -10 25 3 12 16 -7 7 -13 7 -17 1z"/>
<path d="M1820 7221 c0 -5 7 -11 14 -14 10 -4 13 -1 9 9 -6 15 -23 19 -23 5z"/>
<path d="M4940 7215 c0 -8 5 -15 10 -15 6 0 10 7 10 15 0 8 -4 15 -10 15 -5 0
-10 -7 -10 -15z"/>
<path d="M8620 7220 c0 -5 5 -10 11 -10 5 0 7 5 4 10 -3 6 -8 10 -11 10 -2 0
-4 -4 -4 -10z"/>
<path d="M5520 7195 c0 -3 7 -14 16 -23 15 -14 16 -14 13 3 -4 17 -29 35 -29
20z"/>
<path d="M5485 7159 c-11 -17 1 -21 15 -4 8 9 8 15 2 15 -6 0 -14 -5 -17 -11z"/>
<path d="M5491 7087 c-6 -8 -7 -17 -3 -21 4 -4 -1 -14 -12 -21 -10 -8 -15 -18
-11 -24 10 -18 25 -12 25 9 0 11 4 20 9 20 5 0 11 11 13 25 6 27 -3 32 -21 12z"/>
<path d="M5442 7078 c6 -18 28 -21 28 -4 0 9 -7 16 -16 16 -9 0 -14 -5 -12
-12z"/>
<path d="M1437 6973 c-36 -49 -77 -116 -77 -130 0 -1 5 -3 11 -3 10 0 56 45
105 103 24 28 33 87 15 87 -6 0 -30 -26 -54 -57z"/>
<path d="M5415 7016 c-23 -25 -26 -40 -4 -19 12 12 21 24 18 27 -2 2 -9 -1
-14 -8z"/>
<path d="M4970 6973 c0 -5 4 -14 9 -21 6 -10 10 -9 14 7 3 14 0 21 -9 21 -8 0
-14 -3 -14 -7z"/>
<path d="M5379 6952 c-10 -12 -13 -25 -8 -38 4 -11 8 -13 8 -5 1 8 9 20 19 27
12 9 14 16 7 23 -8 8 -15 5 -26 -7z"/>
<path d="M1330 6852 c0 -5 -3 -18 -6 -26 -4 -12 -2 -15 9 -10 8 3 14 12 13 19
-3 18 -16 32 -16 17z"/>
<path d="M5085 6850 c-3 -5 -1 -10 4 -10 6 0 11 5 11 10 0 6 -2 10 -4 10 -3 0
-8 -4 -11 -10z"/>
<path d="M5037 6844 c-8 -8 1 -24 13 -24 4 0 10 7 14 15 5 15 -14 21 -27 9z"/>
<path d="M5031 6724 c0 -11 3 -14 6 -6 3 7 2 16 -1 19 -3 4 -6 -2 -5 -13z"/>
<path d="M5096 6722 c-7 -12 20 -49 29 -40 4 4 0 16 -8 28 -8 12 -17 17 -21
12z"/>
<path d="M5070 6690 c0 -5 5 -10 10 -10 6 0 10 5 10 10 0 6 -4 10 -10 10 -5 0
-10 -4 -10 -10z"/>
<path d="M1256 6605 c-4 -13 -2 -14 14 -5 23 13 26 20 6 20 -8 0 -16 -7 -20
-15z"/>
<path d="M5056 6611 c-4 -7 -5 -15 -2 -18 9 -9 19 4 14 18 -4 11 -6 11 -12 0z"/>
<path d="M1055 6444 c-22 -19 -25 -25 -11 -22 10 2 25 13 34 26 18 28 14 27
-23 -4z"/>
<path d="M1070 6370 c0 -5 5 -10 10 -10 6 0 10 5 10 10 0 6 -4 10 -10 10 -5 0
-10 -4 -10 -10z"/>
<path d="M9268 5908 c5 -12 9 -35 8 -50 -1 -16 2 -28 6 -28 13 0 4 93 -10 98
-9 3 -10 -2 -4 -20z"/>
<path d="M1365 5860 c-3 -5 -2 -17 3 -26 7 -12 10 -13 19 -2 8 9 7 16 -2 25
-9 8 -16 9 -20 3z"/>
<path d="M1165 5669 c-11 -17 1 -21 15 -4 8 9 8 15 2 15 -6 0 -14 -5 -17 -11z"/>
<path d="M1266 5538 c-2 -24 -4 -76 -4 -116 1 -59 3 -70 14 -61 10 9 14 9 14
0 0 -6 9 -11 20 -11 11 0 20 4 20 10 0 5 10 19 23 31 l22 21 -22 -7 c-22 -6
-23 -3 -23 41 0 56 -27 134 -46 134 -8 0 -15 -17 -18 -42z"/>
<path d="M1258 5323 c7 -3 16 -2 19 1 4 3 -2 6 -13 5 -11 0 -14 -3 -6 -6z"/>
<path d="M1290 5319 c0 -5 5 -7 10 -4 6 3 10 8 10 11 0 2 -4 4 -10 4 -5 0 -10
-5 -10 -11z"/>
<path d="M1386 5275 c-3 -8 -1 -15 4 -15 6 0 10 7 10 15 0 8 -2 15 -4 15 -2 0
-6 -7 -10 -15z"/>
<path d="M1300 5265 c0 -8 -13 -21 -30 -30 -16 -9 -30 -20 -30 -25 0 -16 17
-12 24 6 3 8 10 13 15 10 10 -7 34 19 37 40 1 8 -2 14 -7 14 -5 0 -9 -7 -9
-15z"/>
<path d="M1278 5203 c7 -3 16 -2 19 1 4 3 -2 6 -13 5 -11 0 -14 -3 -6 -6z"/>
<path d="M1228 5163 c7 -3 16 -2 19 1 4 3 -2 6 -13 5 -11 0 -14 -3 -6 -6z"/>
<path d="M1441 5154 c0 -11 3 -14 6 -6 3 7 2 16 -1 19 -3 4 -6 -2 -5 -13z"/>
<path d="M1185 5147 c-4 -10 -5 -21 -1 -24 10 -10 18 4 13 24 -4 17 -4 17 -12
0z"/>
<path d="M1245 5110 l-40 -7 37 -2 c20 0 40 4 43 9 3 6 5 9 3 9 -2 -1 -21 -5
-43 -9z"/>
<path d="M1290 5059 c0 -5 5 -7 10 -4 6 3 10 8 10 11 0 2 -4 4 -10 4 -5 0 -10
-5 -10 -11z"/>
<path d="M1407 5053 c-4 -3 -7 -11 -7 -17 0 -6 5 -5 12 2 6 6 9 14 7 17 -3 3
-9 2 -12 -2z"/>
<path d="M1435 5030 c-3 -5 -2 -10 4 -10 5 0 13 5 16 10 3 6 2 10 -4 10 -5 0
-13 -4 -16 -10z"/>
<path d="M1278 5005 c-3 -3 -20 -7 -38 -10 -18 -2 -38 -9 -44 -16 -8 -9 -7
-10 7 -5 10 3 36 9 58 12 21 4 39 10 39 15 0 10 -14 12 -22 4z"/>
<path d="M1295 4971 c-3 -5 -1 -12 4 -15 5 -3 11 1 15 9 6 16 -9 21 -19 6z"/>
<path d="M1245 4961 c-6 -11 9 -23 19 -14 9 9 7 23 -3 23 -6 0 -12 -4 -16 -9z"/>
<path d="M1205 4953 c-11 -3 -24 -10 -30 -15 -12 -13 35 0 50 13 5 5 7 8 5 8
-3 -1 -14 -3 -25 -6z"/>
<path d="M1376 4905 c-11 -8 -15 -15 -9 -15 6 0 16 7 23 15 16 19 11 19 -14 0z"/>
<path d="M1199 4903 c19 -4 21 -7 10 -14 -11 -7 -10 -9 5 -9 14 0 16 -3 7 -14
-9 -11 -7 -12 13 -9 21 4 23 2 18 -23 -4 -24 -3 -26 9 -14 8 7 16 21 17 29 1
9 3 25 4 36 2 12 -3 20 -12 20 -8 0 -14 -8 -14 -17 1 -10 -2 -18 -7 -18 -5 0
-9 6 -9 14 0 15 -22 27 -48 25 -9 -1 -6 -4 7 -6z"/>
<path d="M1180 4871 c0 -5 5 -13 10 -16 6 -3 10 -2 10 4 0 5 -4 13 -10 16 -5
3 -10 2 -10 -4z"/>
<path d="M1365 4870 c-3 -5 -15 -10 -26 -10 -10 0 -19 -7 -19 -15 0 -26 52
-10 64 20 6 17 -9 21 -19 5z"/>
<path d="M1120 4856 c0 -2 7 -6 15 -10 8 -3 15 -1 15 4 0 6 -7 10 -15 10 -8 0
-15 -2 -15 -4z"/>
<path d="M1306 4804 c-9 -24 -7 -62 4 -69 5 -3 9 7 8 22 -1 15 2 36 6 46 5 10
4 17 -2 17 -5 0 -13 -7 -16 -16z"/>
<path d="M1105 4780 c-3 -5 1 -10 9 -10 9 0 16 5 16 10 0 6 -4 10 -9 10 -6 0
-13 -4 -16 -10z"/>
<path d="M1126 4745 c-3 -10 3 -17 19 -21 16 -4 25 -14 26 -28 1 -16 2 -17 6
-4 6 23 33 11 34 -16 l0 -21 16 23 c16 22 43 30 43 12 0 -5 -6 -10 -12 -10 -8
0 -9 -3 -3 -8 6 -4 11 -26 12 -50 1 -54 6 -59 39 -41 14 7 21 15 15 17 -5 2
-7 10 -4 18 3 8 1 14 -4 14 -5 0 -10 7 -10 15 0 8 4 15 9 15 5 0 1 11 -9 24
-13 17 -31 25 -62 29 -23 3 -56 14 -72 26 -34 25 -35 25 -43 6z"/>
<path d="M1110 4700 c0 -5 5 -10 10 -10 6 0 10 5 10 10 0 6 -4 10 -10 10 -5 0
-10 -4 -10 -10z"/>
<path d="M1330 4664 c0 -8 5 -12 10 -9 6 4 8 11 5 16 -9 14 -15 11 -15 -7z"/>
<path d="M1195 4630 c3 -5 8 -10 11 -10 2 0 4 5 4 10 0 6 -5 10 -11 10 -5 0
-7 -4 -4 -10z"/>
<path d="M1135 4590 c-3 -5 -1 -10 4 -10 6 0 11 5 11 10 0 6 -2 10 -4 10 -3 0
-8 -4 -11 -10z"/>
<path d="M1175 4580 c3 -5 11 -10 16 -10 6 0 7 5 4 10 -3 6 -11 10 -16 10 -6
0 -7 -4 -4 -10z"/>
<path d="M1320 4505 c-8 -9 -8 -15 -2 -15 12 0 26 19 19 26 -2 2 -10 -2 -17
-11z"/>
<path d="M9395 4501 c-4 -7 -1 -18 5 -26 6 -8 9 -19 5 -25 -3 -5 -1 -10 4 -10
13 0 14 39 2 59 -6 9 -10 10 -16 2z"/>
<path d="M1115 4490 c3 -5 16 -10 28 -10 18 0 19 -2 7 -10 -12 -8 -12 -10 3
-16 24 -9 31 0 17 25 -6 13 -21 21 -36 21 -14 0 -22 -4 -19 -10z"/>
<path d="M1315 4475 l-30 -15 28 4 c15 2 27 0 27 -4 0 -11 -30 -21 -41 -14 -5
3 -14 2 -20 -2 -16 -10 12 -25 34 -18 16 5 20 -6 16 -43 0 -4 8 -10 18 -14 15
-7 15 -8 -5 -8 -31 -1 -26 -35 6 -39 21 -3 22 0 22 66 0 70 -6 102 -19 102 -3
-1 -19 -7 -36 -15z"/>
<path d="M1230 4326 c0 -9 30 -14 35 -6 4 6 -3 10 -14 10 -12 0 -21 -2 -21 -4z"/>
<path d="M1278 4302 c-21 -2 -38 -7 -38 -11 0 -8 23 -15 98 -28 18 -3 39 -15
47 -26 26 -37 29 -9 3 30 -26 39 -34 42 -110 35z"/>
<path d="M1645 4270 c-3 -5 -1 -10 4 -10 6 0 11 5 11 10 0 6 -2 10 -4 10 -3 0
-8 -4 -11 -10z"/>
<path d="M1260 4243 c0 -5 7 -16 14 -26 11 -14 15 -15 19 -5 4 10 6 10 6 1 1
-19 21 -16 21 2 0 9 -12 20 -26 25 -30 12 -34 12 -34 3z"/>
<path d="M1351 4216 c-10 -12 -7 -15 18 -21 21 -4 32 -15 40 -37 13 -36 6 -49
-12 -25 -13 18 -77 41 -77 27 0 -4 7 -11 16 -14 8 -3 13 -10 9 -16 -9 -14 13
-50 30 -50 8 0 15 -4 15 -8 0 -14 43 -28 73 -24 35 4 31 22 -9 42 -23 11 -31
22 -31 42 0 16 4 28 9 28 18 0 6 29 -14 36 -13 3 -30 13 -39 20 -14 13 -18 12
-28 0z"/>
<path d="M1650 4196 c0 -9 5 -16 10 -16 6 0 10 4 10 9 0 6 -4 13 -10 16 -5 3
-10 -1 -10 -9z"/>
<path d="M1280 4162 c0 -11 5 -24 10 -27 6 -4 9 2 7 14 -4 29 -17 39 -17 13z"/>
<path d="M1650 4148 c0 -16 5 -28 10 -28 13 0 13 20 0 40 -8 12 -10 9 -10 -12z"/>
<path d="M1680 4120 c0 -5 5 -10 11 -10 5 0 7 5 4 10 -3 6 -8 10 -11 10 -2 0
-4 -4 -4 -10z"/>
<path d="M1655 4090 c10 -11 22 -17 28 -13 6 4 3 12 -8 20 -28 20 -41 16 -20
-7z"/>
<path d="M1245 4079 c4 -6 13 -8 21 -5 8 3 14 1 14 -4 0 -6 5 -10 10 -10 6 0
10 7 10 15 0 10 -10 15 -31 15 -19 0 -28 -4 -24 -11z"/>
<path d="M1301 4034 c0 -11 3 -14 6 -6 3 7 2 16 -1 19 -3 4 -6 -2 -5 -13z"/>
<path d="M1760 4020 c0 -6 7 -13 15 -17 24 -9 27 1 5 15 -13 8 -20 8 -20 2z"/>
<path d="M1888 3883 c7 -3 16 -2 19 1 4 3 -2 6 -13 5 -11 0 -14 -3 -6 -6z"/>
<path d="M9190 3840 c0 -5 5 -10 10 -10 6 0 10 5 10 10 0 6 -4 10 -10 10 -5 0
-10 -4 -10 -10z"/>
<path d="M9170 3815 c0 -5 5 -17 10 -25 5 -8 10 -10 10 -5 0 6 -5 17 -10 25
-5 8 -10 11 -10 5z"/>
<path d="M9201 3784 c0 -11 3 -14 6 -6 3 7 2 16 -1 19 -3 4 -6 -2 -5 -13z"/>
<path d="M2177 3614 c-8 -8 3 -34 14 -34 11 0 12 27 0 34 -4 3 -11 3 -14 0z"/>
<path d="M2220 3470 c0 -5 7 -10 15 -10 8 0 15 5 15 10 0 6 -7 10 -15 10 -8 0
-15 -4 -15 -10z"/>
<path d="M2680 3370 c0 -13 28 -25 38 -16 3 4 0 11 -8 16 -20 13 -30 12 -30 0z"/>
<path d="M2705 3340 c-15 -6 -8 -8 25 -8 33 1 39 3 25 9 -25 9 -25 9 -50 -1z"/>
<path d="M3015 3154 c-11 -8 -21 -20 -21 -27 -1 -7 -2 -16 -3 -22 -1 -5 -5 -4
-10 4 -5 7 -14 12 -21 9 -9 -3 -4 -13 14 -32 19 -21 23 -32 16 -41 -8 -9 -7
-15 2 -18 8 -3 6 -6 -6 -6 -15 -1 -16 -4 -7 -15 18 -21 71 -11 101 20 18 19
20 25 8 21 -10 -4 -18 -2 -18 2 0 5 4 11 9 13 11 4 -20 101 -34 105 -5 1 -19
-4 -30 -13z"/>
<path d="M2550 3020 c0 -11 24 -30 37 -30 7 0 13 8 13 18 0 12 -8 17 -25 17
-14 0 -25 -2 -25 -5z"/>
<path d="M3092 3012 c-12 -2 -27 -13 -33 -24 -7 -13 -17 -18 -30 -15 -10 3
-19 1 -19 -4 0 -10 3 -11 42 -13 15 -1 24 2 22 6 -3 4 9 16 26 27 33 20 30 30
-8 23z"/>
<path d="M3217 3003 c-4 -3 -7 -11 -7 -17 0 -6 5 -5 12 2 6 6 9 14 7 17 -3 3
-9 2 -12 -2z"/>
<path d="M2572 2938 c2 -14 12 -24 28 -28 24 -6 24 -6 5 -17 -23 -13 -16 -27
9 -17 9 3 16 15 16 25 0 10 6 19 13 19 10 1 -59 40 -70 40 -3 0 -3 -10 -1 -22z"/>
<path d="M2640 2906 c0 -4 11 -11 25 -16 16 -6 25 -17 25 -31 0 -20 2 -20 23
-7 34 23 34 48 0 48 -15 0 -38 3 -50 6 -13 4 -23 3 -23 0z"/>
<path d="M3275 2890 c3 -5 8 -10 11 -10 2 0 4 5 4 10 0 6 -5 10 -11 10 -5 0
-7 -4 -4 -10z"/>
<path d="M3320 2850 c0 -5 5 -10 11 -10 5 0 7 5 4 10 -3 6 -8 10 -11 10 -2 0
-4 -4 -4 -10z"/>
<path d="M2594 2813 c9 -18 21 -33 27 -33 6 0 7 -4 4 -10 -3 -5 -2 -10 4 -10
24 0 18 19 -16 51 l-35 34 16 -32z"/>
<path d="M2771 2789 c-13 -5 -22 -11 -20 -14 8 -7 49 7 49 16 0 5 -1 9 -2 8
-2 0 -14 -5 -27 -10z"/>
<path d="M2800 2759 c0 -5 5 -7 10 -4 6 3 10 8 10 11 0 2 -4 4 -10 4 -5 0 -10
-5 -10 -11z"/>
<path d="M3634 2674 c2 -10 8 -20 14 -22 17 -5 15 13 -2 27 -12 10 -14 9 -12
-5z"/>
<path d="M3375 2670 c3 -5 8 -10 11 -10 2 0 4 5 4 10 0 6 -5 10 -11 10 -5 0
-7 -4 -4 -10z"/>
<path d="M3634 2618 c3 -13 5 -26 5 -30 1 -5 6 -8 12 -8 6 0 7 5 2 13 -4 6 -6
20 -5 30 2 9 -1 17 -7 17 -6 0 -9 -10 -7 -22z"/>
<path d="M7500 2619 c0 -5 5 -7 10 -4 6 3 10 8 10 11 0 2 -4 4 -10 4 -5 0 -10
-5 -10 -11z"/>
<path d="M3689 2429 c-9 -59 -8 -69 10 -69 11 0 22 6 24 13 3 6 6 3 6 -8 1
-12 -4 -26 -11 -33 -9 -9 -7 -13 6 -18 9 -4 20 -3 24 1 4 4 2 10 -4 12 -13 4
-7 43 7 43 5 0 9 7 9 15 0 8 -8 15 -17 15 -9 0 -25 7 -35 17 -10 9 -18 14 -19
12z"/>
<path d="M3270 2350 c0 -5 7 -10 16 -10 8 0 12 5 9 10 -3 6 -10 10 -16 10 -5
0 -9 -4 -9 -10z"/>
<path d="M3490 2300 c0 -5 5 -10 10 -10 6 0 10 5 10 10 0 6 -4 10 -10 10 -5 0
-10 -4 -10 -10z"/>
<path d="M5337 793 c-4 -3 -7 -13 -7 -22 1 -13 3 -13 11 2 11 19 8 33 -4 20z"/>
<path d="M5281 707 c-7 -14 -11 -31 -8 -39 3 -8 9 -2 16 16 15 38 9 55 -8 23z"/>
</g>
</svg>
