<?xml version="1.0" standalone="no"?>
<!DOCTYPE svg PUBLIC "-//W3C//DTD SVG 20010904//EN"
 "http://www.w3.org/TR/2001/REC-SVG-20010904/DTD/svg10.dtd">
<svg version="1.0" xmlns="http://www.w3.org/2000/svg"
 width="1024.000000pt" height="679.000000pt" viewBox="0 0 1024.000000 679.000000"
 preserveAspectRatio="xMidYMid meet">
<metadata>
Created by potrace 1.16, written by Peter Selinger 2001-2019
</metadata>
<g transform="translate(0.000000,679.000000) scale(0.100000,-0.100000)"
fill="#000000" stroke="none">
<path d="M1355 6780 c4 -6 11 -8 16 -5 14 9 11 15 -7 15 -8 0 -12 -5 -9 -10z"/>
<path d="M2280 6783 c0 -3 7 -15 17 -25 9 -10 19 -44 22 -80 3 -35 9 -61 13
-58 14 9 56 -65 86 -152 17 -48 54 -127 81 -176 28 -49 51 -95 51 -101 0 -6 4
-11 9 -11 15 0 32 -53 82 -250 20 -82 1 -150 -42 -150 -22 0 -116 89 -140 131
-10 18 -13 60 -12 164 3 149 -6 190 -39 199 -47 12 -74 -25 -58 -83 5 -20 7
-76 4 -126 -3 -49 -5 -107 -5 -128 1 -21 -5 -53 -13 -71 -9 -23 -12 -60 -8
-129 6 -124 -4 -153 -60 -162 -22 -4 -44 -3 -48 1 -23 25 -76 251 -87 369 -6
67 -17 95 -38 95 -19 0 -20 -51 -1 -105 32 -89 68 -345 49 -345 -3 0 -21 11
-38 25 -18 13 -48 26 -66 28 -74 9 -114 26 -132 56 -13 23 -65 61 -82 61 -7 0
15 -142 27 -172 12 -33 26 -35 78 -8 42 21 105 27 115 10 8 -12 84 -50 101
-50 23 0 37 -32 40 -93 1 -34 5 -73 8 -87 6 -21 5 -22 -3 -5 -5 11 -10 15 -10
8 -1 -6 -10 -9 -21 -6 -16 4 -19 2 -14 -11 3 -9 10 -13 15 -10 17 10 47 -16
53 -48 4 -18 8 -70 10 -114 2 -45 7 -101 10 -125 4 -32 3 -37 -3 -18 -11 33
-62 122 -75 131 -16 11 -19 2 -6 -21 9 -18 8 -21 -10 -21 -11 0 -20 6 -20 13
0 9 -3 8 -9 -2 -5 -7 -14 -10 -20 -7 -17 11 17 -72 51 -122 33 -51 35 -62 8
-62 -20 0 -25 8 -80 150 -18 47 -38 88 -43 91 -5 4 -12 31 -14 60 -5 66 -20
99 -45 99 -10 0 -18 -4 -18 -9 0 -5 -13 -22 -28 -39 l-29 -30 24 -11 c13 -6
23 -15 23 -19 0 -5 13 -24 29 -43 42 -48 88 -145 102 -214 6 -33 20 -78 30
-101 24 -50 24 -53 -6 -88 -20 -25 -26 -28 -39 -17 -9 8 -16 18 -16 23 0 19
-102 178 -115 178 -16 0 -25 22 -25 66 0 19 -4 34 -10 34 -5 0 -10 6 -10 14 0
19 -29 29 -45 16 -9 -7 -21 -7 -39 0 -17 6 -26 6 -26 0 0 -11 -28 -9 -47 3 -7
5 -13 17 -13 29 0 15 3 18 13 11 6 -6 22 -13 34 -15 16 -4 20 -2 16 8 -3 8
-11 14 -18 14 -7 0 -20 10 -28 23 -11 14 -19 18 -24 11 -18 -24 -42 -23 -58 2
-9 14 -14 31 -11 37 3 9 5 9 5 0 1 -15 61 -18 61 -3 0 6 -7 10 -15 10 -10 0
-14 7 -12 23 2 12 2 16 0 9 -10 -28 -82 21 -83 56 0 14 36 8 54 -9 6 -5 19 -9
30 -9 21 1 21 1 1 16 -17 13 -18 17 -6 36 11 18 11 20 -3 15 -10 -4 -16 -1
-16 8 0 17 -5 17 -35 6 -20 -8 -20 -8 2 -15 11 -4 24 -14 27 -22 5 -12 2 -15
-11 -9 -10 4 -26 8 -36 10 -24 5 -37 14 -37 27 0 7 4 7 13 0 10 -8 13 -6 14 8
1 11 -3 22 -8 25 -5 4 -7 10 -5 14 3 4 -10 32 -29 62 -33 53 -34 53 -32 22 1
-18 5 -33 9 -33 4 0 4 -7 1 -17 -4 -10 -2 -14 5 -9 6 3 16 -2 21 -13 16 -28
14 -30 -16 -22 -17 5 -27 14 -27 24 1 10 -2 17 -6 17 -5 0 -12 9 -15 20 -3 11
-13 20 -21 20 -18 0 -18 -14 1 -30 8 -7 15 -16 15 -21 0 -14 -28 -10 -37 5
-11 18 -47 36 -73 36 -19 0 -21 -4 -15 -27 5 -23 4 -25 -9 -14 -8 7 -12 19 -9
27 3 8 0 21 -7 29 -10 12 -7 14 16 12 15 -1 29 3 31 9 2 6 -9 11 -27 11 -32 0
-46 -21 -34 -52 5 -12 4 -16 -3 -12 -6 4 -16 21 -22 37 -5 17 -6 28 -1 25 5
-3 11 -1 14 4 3 5 -1 11 -9 15 -8 3 -15 12 -15 21 0 8 -7 15 -15 15 -18 0 -19
-12 -3 -28 9 -9 7 -12 -10 -12 -13 0 -22 6 -22 15 0 8 -9 15 -20 15 -12 0 -17
5 -14 14 3 7 -3 22 -13 32 -17 17 -18 17 -21 -4 -2 -12 -8 -22 -14 -22 -6 0
-8 13 -6 30 4 25 -1 33 -34 55 -21 14 -38 30 -38 35 0 6 -9 10 -19 10 -11 0
-21 7 -23 15 -2 12 -8 10 -29 -9 -15 -14 -30 -22 -33 -19 -9 9 -7 -2 4 -31 7
-19 6 -26 -3 -26 -6 -1 -1 -10 12 -20 19 -17 21 -23 11 -35 -11 -13 -7 -15 24
-15 20 0 36 -4 36 -10 0 -5 9 -10 20 -10 22 0 26 -10 10 -26 -8 -8 -6 -15 5
-24 12 -10 15 -10 15 5 0 14 3 15 14 5 26 -21 8 -41 -33 -35 -34 4 -35 4 -6
-5 17 -5 44 -12 60 -16 27 -6 28 -7 10 -14 -19 -8 -19 -9 3 -9 13 -1 22 -7 22
-16 0 -13 -4 -14 -20 -5 -11 6 -20 8 -20 5 0 -3 -9 -1 -20 5 -30 16 -16 -11
18 -34 28 -19 39 -46 18 -46 -6 0 -6 -4 2 -12 6 -6 26 -11 43 -10 37 1 70 -14
66 -30 -1 -6 4 -12 11 -13 7 -2 8 -1 3 1 -11 6 -3 34 9 34 13 0 18 -35 6 -46
-6 -6 -17 -9 -25 -6 -8 3 -12 -2 -9 -12 3 -15 48 -39 176 -91 23 -10 42 -22
42 -28 0 -5 -8 -6 -17 -2 -59 24 -73 28 -79 22 -11 -10 8 -27 36 -32 12 -2 30
-11 39 -19 9 -8 27 -16 41 -18 21 -2 25 -8 23 -35 -2 -29 0 -31 16 -21 20 12
51 5 51 -12 0 -6 -4 -9 -9 -6 -5 4 -11 1 -13 -5 -3 -8 -14 -8 -42 0 -22 5 -44
8 -49 4 -12 -8 31 -32 58 -33 12 0 25 -4 30 -9 6 -4 32 -16 58 -26 27 -10 63
-34 80 -53 18 -19 44 -48 58 -63 14 -16 36 -43 50 -60 13 -18 33 -44 45 -58
36 -44 45 -68 31 -78 -22 -18 -48 -23 -66 -13 -13 7 -84 101 -97 128 -3 7 -34
-12 -34 -21 0 -6 44 -54 98 -107 114 -111 150 -156 134 -172 -8 -8 -23 -1 -52
25 -22 21 -43 37 -48 37 -4 0 -43 34 -87 75 -44 41 -87 77 -96 80 -9 3 -29 23
-43 45 -14 22 -31 40 -36 40 -6 0 -9 4 -8 8 4 10 -43 51 -138 123 -127 98
-214 173 -214 187 0 7 -7 27 -16 43 -12 24 -21 30 -42 27 -45 -5 -39 -34 19
-90 51 -49 184 -156 237 -190 38 -25 255 -250 281 -291 25 -41 26 -56 6 -63
-9 -4 -41 17 -84 54 -39 33 -87 66 -108 73 -20 6 -61 27 -90 45 -28 19 -55 34
-58 34 -13 0 -108 76 -156 125 -57 58 -95 109 -116 153 -13 28 -27 52 -29 52
-14 0 -44 -22 -44 -32 0 -25 327 -328 355 -328 13 0 236 -158 295 -209 35 -31
73 -63 82 -71 10 -8 33 -29 51 -46 17 -17 60 -52 94 -78 56 -42 86 -86 71
-102 -3 -2 -24 3 -48 11 -23 8 -56 15 -71 15 -16 0 -37 4 -47 9 -91 47 -145
71 -158 71 -9 0 -31 9 -48 19 -17 10 -60 27 -96 37 -112 30 -259 106 -325 167
-26 24 -50 37 -68 37 -37 0 -31 -20 12 -42 18 -9 40 -23 49 -30 21 -18 257
-133 292 -143 26 -7 190 -79 275 -121 28 -13 54 -24 59 -24 4 0 36 -19 70 -43
34 -24 69 -46 79 -50 18 -7 38 -46 30 -59 -8 -15 -36 -8 -82 20 -25 15 -80 39
-121 52 -41 13 -85 30 -97 38 -15 9 -23 10 -28 2 -10 -16 2 -24 70 -44 33 -10
83 -33 110 -51 28 -19 63 -36 79 -39 35 -6 66 -33 66 -56 0 -29 -77 -34 -114
-7 -17 12 -56 37 -86 55 -30 19 -59 40 -63 48 -4 8 -27 23 -50 34 -40 20 -42
20 -55 3 -7 -10 -21 -17 -30 -15 -14 2 -14 0 2 -13 11 -8 25 -15 30 -15 16 0
186 -84 186 -91 0 -21 -91 -19 -134 3 -10 6 -35 11 -55 13 -20 1 -83 6 -141
10 -69 4 -119 13 -146 26 -22 10 -67 24 -100 29 -107 19 -209 42 -226 51 -10
5 -36 9 -59 9 -24 0 -55 8 -73 19 -36 22 -94 39 -178 51 -31 4 -60 10 -66 14
-5 3 -12 0 -15 -8 -7 -18 6 -23 89 -36 39 -6 81 -21 104 -36 28 -19 65 -30
132 -40 51 -7 104 -18 118 -23 14 -5 47 -12 73 -16 27 -4 77 -21 112 -39 34
-19 85 -37 111 -41 28 -4 66 -19 89 -36 26 -18 67 -34 119 -44 74 -15 164 -53
211 -88 19 -15 19 -15 -5 -41 -18 -18 -35 -26 -62 -26 -20 0 -49 -6 -65 -12
-15 -7 -57 -13 -93 -13 -60 0 -65 -2 -68 -22 -2 -14 2 -23 10 -24 7 -1 0 -5
-17 -9 -16 -5 -49 -15 -71 -24 -46 -17 -122 -15 -217 4 -46 10 -64 10 -82 0
-13 -7 -28 -9 -34 -6 -6 4 -24 -3 -41 -16 -26 -19 -46 -22 -150 -26 -149 -5
-154 -4 -133 40 9 18 20 35 24 38 4 3 4 12 -2 20 -8 13 -10 13 -19 0 -5 -8
-10 -23 -10 -33 0 -10 -5 -15 -10 -12 -6 4 -9 1 -8 -6 2 -6 -3 -14 -9 -16 -8
-3 -13 4 -13 16 0 12 -5 21 -11 21 -6 0 -8 -8 -4 -19 4 -14 0 -21 -16 -26 -11
-4 -29 -15 -39 -25 -11 -11 -34 -21 -52 -24 -181 -25 -255 -35 -268 -35 -8 0
-66 -3 -128 -6 -62 -3 -117 -5 -122 -5 -6 0 -10 -11 -10 -25 0 -21 4 -25 23
-21 32 7 118 15 227 21 125 7 212 25 206 42 -3 7 -1 13 4 13 6 0 10 -4 10 -8
0 -15 67 -31 79 -19 6 6 11 8 11 3 0 -4 -8 -15 -17 -24 -16 -16 -15 -17 6 -20
12 -2 29 2 37 8 10 9 14 9 14 1 0 -6 5 -11 10 -11 7 0 7 6 0 19 -5 11 -7 22
-3 24 23 14 132 26 233 26 299 1 387 -4 406 -20 11 -8 49 -30 86 -49 47 -23
68 -39 68 -51 0 -21 -2 -22 -86 -19 -39 1 -74 -4 -100 -16 -21 -9 -57 -20 -79
-23 -23 -4 -39 -12 -38 -19 2 -7 -4 -12 -13 -12 -8 0 -13 3 -10 8 2 4 -19 5
-47 2 -29 -3 -51 -10 -53 -18 -1 -7 0 -8 3 -2 2 5 12 10 21 10 15 0 15 -2 2
-10 -12 -8 -10 -10 10 -10 14 0 32 4 40 10 9 5 19 5 27 -1 8 -7 19 -7 33 1 12
6 27 9 34 7 7 -3 23 1 35 8 31 16 94 1 124 -31 30 -32 47 -30 86 10 39 40 84
50 219 48 104 -2 189 -23 234 -60 9 -8 42 -15 73 -17 36 -1 63 -8 73 -18 14
-15 14 -18 -3 -37 -31 -34 -12 -31 59 10 44 26 66 34 62 24 -14 -35 -16 -60
-7 -74 8 -12 13 -12 23 -2 14 14 28 16 28 3 0 -45 -121 -102 -260 -123 -54 -8
-79 -17 -91 -32 -9 -11 -27 -21 -40 -21 -12 0 -24 -6 -26 -12 -6 -16 84 -56
110 -49 10 2 33 -4 50 -14 25 -15 56 -20 144 -22 61 -2 109 -6 107 -10 -8 -13
-111 -29 -165 -26 -48 3 -54 1 -57 -18 -2 -15 4 -23 20 -28 23 -7 22 -8 -7
-21 -16 -8 -47 -14 -67 -15 -21 0 -57 -6 -80 -14 -51 -17 -188 -42 -273 -51
-81 -8 -103 -11 -230 -28 -60 -8 -137 -16 -170 -16 -33 -1 -79 -7 -102 -13
-34 -8 -50 -7 -86 7 -35 13 -49 14 -66 6 -24 -14 -27 -43 -6 -61 15 -12 13
-13 200 20 95 17 260 40 355 50 108 11 215 25 310 40 36 6 119 18 185 26 66 8
136 17 156 20 46 7 78 -16 71 -52 -10 -51 -74 -70 -274 -81 -73 -4 -161 -6
-195 -5 -56 2 -63 0 -63 -17 0 -26 17 -30 80 -20 74 13 376 18 356 7 -17 -10
-104 -35 -231 -67 -44 -11 -125 -25 -180 -30 -258 -25 -380 -43 -391 -57 -9
-11 -30 -14 -79 -13 -72 2 -92 -10 -74 -43 13 -23 46 -23 109 2 28 11 68 20
88 20 21 0 62 6 92 14 77 19 241 37 281 30 83 -14 119 -44 54 -44 -19 0 -35
-4 -35 -8 0 -5 26 -7 58 -5 46 2 51 1 29 -6 -16 -6 -52 -26 -81 -46 -29 -20
-93 -55 -142 -79 -83 -39 -143 -73 -218 -121 -17 -11 -63 -33 -103 -48 -39
-16 -77 -35 -83 -43 -7 -8 -18 -14 -25 -14 -6 0 -44 -16 -84 -35 -39 -19 -80
-35 -90 -35 -25 0 -93 -24 -161 -58 -37 -18 -78 -29 -128 -33 -87 -7 -112 -24
-94 -64 14 -30 40 -32 75 -5 14 11 29 20 33 20 4 0 59 22 123 49 64 26 154 63
201 81 81 32 111 43 173 69 15 6 38 11 50 11 12 0 49 14 82 30 33 16 66 30 73
30 6 0 12 3 12 8 0 13 114 51 150 50 19 0 61 7 94 16 32 10 60 15 63 13 8 -9
-19 -43 -51 -64 -17 -12 -52 -24 -79 -28 -26 -3 -73 -18 -105 -32 -31 -14 -81
-33 -111 -42 -30 -9 -56 -22 -59 -29 -5 -16 24 -15 56 2 15 8 46 22 70 32 37
15 45 16 53 3 5 -8 9 -17 9 -20 0 -15 -130 -95 -174 -107 -26 -6 -61 -21 -76
-32 -15 -11 -35 -20 -43 -20 -8 0 -20 -6 -26 -14 -6 -8 -39 -24 -72 -36 -32
-13 -62 -27 -65 -31 -9 -16 -127 -66 -169 -72 -22 -4 -45 -15 -52 -24 -7 -10
-17 -24 -24 -31 -6 -7 -9 -15 -7 -18 7 -6 82 22 130 49 24 14 77 37 118 52 41
16 87 36 102 47 29 20 109 51 115 44 2 -2 61 27 130 65 69 38 130 69 134 69 5
0 30 14 56 30 26 17 51 30 55 30 28 0 -21 -39 -102 -83 -19 -11 -39 -23 -44
-28 -6 -5 -18 -9 -27 -9 -19 0 -45 -27 -36 -37 9 -8 61 15 88 40 13 12 26 22
29 23 16 1 79 34 84 43 12 19 62 40 75 32 20 -13 -15 -49 -74 -75 -27 -13 -56
-30 -64 -39 -7 -10 -17 -17 -22 -17 -5 0 -36 -13 -69 -29 -33 -16 -84 -37
-111 -46 -28 -10 -63 -24 -78 -31 -14 -8 -30 -14 -34 -14 -11 0 -135 -56 -167
-75 -65 -39 -174 -86 -208 -90 -53 -5 -74 -15 -68 -32 3 -8 6 -19 6 -24 0 -25
68 -5 157 46 53 30 112 59 132 65 20 5 61 25 91 45 30 19 62 35 72 35 9 0 40
9 68 20 28 11 63 20 78 20 35 0 157 61 267 134 67 45 179 95 213 96 45 0 20
-29 -65 -75 -48 -26 -147 -88 -220 -139 -126 -86 -199 -131 -319 -195 -28 -16
-98 -43 -155 -61 -57 -19 -151 -57 -209 -85 -58 -29 -136 -60 -175 -71 -58
-16 -71 -23 -73 -42 -3 -18 4 -26 32 -37 48 -20 51 -20 93 18 21 19 63 47 93
63 30 17 64 35 75 41 21 11 101 30 169 40 21 3 66 21 100 41 33 19 89 50 124
68 35 18 69 37 75 42 7 4 32 14 57 22 71 20 151 49 195 69 85 40 157 63 182
58 19 -3 35 4 62 28 46 41 121 57 121 26 0 -25 -141 -166 -192 -192 -20 -10
-44 -29 -55 -42 -10 -13 -29 -29 -42 -36 -12 -7 -28 -25 -35 -41 -11 -27 -119
-143 -233 -251 -90 -85 -181 -156 -229 -179 -27 -13 -53 -30 -57 -37 -4 -7
-14 -13 -21 -13 -8 0 -19 -7 -27 -16 -7 -9 -44 -31 -82 -50 -57 -29 -68 -39
-65 -57 7 -48 38 -32 223 112 28 21 70 51 95 66 52 33 266 234 262 248 -1 4 1
6 6 3 5 -3 26 13 48 35 21 23 62 58 90 80 29 21 58 52 65 69 8 16 16 30 19 30
3 0 30 20 60 45 30 25 62 45 71 45 9 0 22 6 28 14 17 20 88 56 110 56 10 0 22
-8 25 -17 5 -13 -16 -40 -87 -108 -163 -156 -269 -260 -367 -362 -97 -99 -265
-237 -336 -275 -22 -11 -41 -24 -44 -28 -3 -4 -24 -17 -48 -29 -44 -22 -49
-36 -20 -55 13 -8 28 0 70 36 29 24 63 50 76 57 13 7 54 41 92 75 38 35 108
94 157 132 48 37 91 73 95 79 27 40 77 95 98 108 14 9 37 26 52 38 23 19 30
20 43 9 14 -12 12 -17 -17 -48 -18 -19 -59 -54 -90 -79 -32 -24 -58 -50 -58
-57 0 -30 -139 -185 -215 -241 -22 -16 -46 -37 -53 -48 -8 -10 -37 -36 -65
-58 -95 -75 -140 -114 -202 -174 -34 -33 -94 -87 -134 -120 -130 -106 -244
-205 -324 -281 -43 -41 -96 -83 -118 -94 -34 -18 -40 -25 -37 -48 2 -15 10
-28 19 -30 9 -2 65 45 135 114 65 64 141 133 169 154 27 21 66 55 85 75 19 20
51 47 70 60 19 12 60 43 90 69 30 26 73 57 95 68 22 12 57 38 79 59 21 22 45
39 53 39 7 0 25 7 39 16 33 22 45 8 14 -16 -18 -15 -21 -20 -9 -20 25 0 65 36
110 100 23 33 66 78 96 101 30 23 58 50 64 61 5 10 15 18 22 18 8 0 26 14 42
30 31 32 48 39 39 15 -4 -9 0 -15 8 -15 8 0 21 -11 28 -25 10 -20 11 -27 0
-40 -7 -8 -17 -12 -22 -9 -6 4 -5 10 3 15 11 6 10 9 -3 14 -11 4 -14 13 -10
23 5 16 5 16 -11 0 -18 -17 -24 -43 -8 -34 5 4 12 -7 16 -24 7 -33 35 -41 35
-10 0 10 6 23 13 27 13 9 19 43 7 43 -4 0 -6 12 -4 26 2 18 -2 24 -11 20 -7
-2 -16 1 -18 8 -4 9 0 12 12 9 10 -2 23 3 30 11 9 11 10 16 2 16 -6 0 -11 5
-11 10 0 6 7 10 15 10 8 0 37 20 65 45 28 25 54 45 58 45 4 0 27 27 51 59 48
66 78 97 87 88 10 -10 -30 -121 -63 -174 -18 -29 -33 -55 -33 -58 0 -4 -20
-32 -43 -63 -24 -32 -50 -71 -56 -89 -7 -17 -20 -34 -28 -37 -8 -4 -13 -13
-10 -21 4 -9 1 -12 -7 -9 -17 7 -66 -55 -59 -73 3 -8 2 -13 -3 -11 -14 4 -74
-35 -74 -49 0 -36 42 -23 69 21 11 17 45 56 76 86 31 30 68 75 83 100 14 25
41 61 59 80 18 19 33 40 33 46 0 14 63 74 79 74 8 0 6 -9 -7 -28 -22 -32 -80
-138 -130 -237 -42 -86 -113 -199 -168 -268 -22 -29 -58 -81 -79 -117 -21 -36
-57 -87 -80 -115 -51 -62 -88 -122 -81 -133 2 -4 0 -14 -6 -22 -8 -12 -9 -12
-4 3 9 27 -1 20 -18 -14 -13 -26 -13 -29 -1 -19 18 15 19 6 4 -22 -8 -15 -8
-19 0 -14 20 13 51 84 45 103 -5 14 -4 15 4 4 8 -11 12 -9 22 10 7 13 26 37
42 52 17 16 28 34 24 42 -3 8 -1 14 3 12 11 -3 68 68 92 116 11 21 41 65 68
97 26 33 54 72 62 87 24 48 77 117 98 130 11 7 28 29 37 49 9 20 23 38 31 41
7 3 33 36 58 74 24 37 55 75 68 84 13 8 36 38 51 65 15 28 33 50 41 50 8 0 18
6 22 13 4 7 29 28 55 45 25 17 48 37 50 43 2 7 18 12 35 11 37 -1 43 6 67 70
10 26 26 58 37 70 l20 23 -4 -60 c-3 -63 -31 -130 -87 -215 -30 -46 -45 -74
-76 -145 -9 -22 -26 -51 -36 -65 -50 -65 -67 -98 -53 -104 16 -6 137 153 161
209 8 19 23 39 34 45 24 13 76 100 90 150 13 48 62 137 99 180 17 19 28 27 25
18 -3 -10 -1 -18 4 -18 6 0 20 26 32 58 28 79 54 132 63 132 4 0 7 7 7 16 0
25 33 74 49 74 12 0 12 -3 3 -12 -7 -7 -12 -35 -12 -63 0 -39 -11 -72 -51
-155 -27 -57 -54 -124 -60 -148 -10 -45 -22 -64 -50 -74 -9 -4 -19 -20 -22
-37 -5 -23 -24 -44 -84 -88 -43 -31 -81 -62 -85 -67 -12 -17 -3 -31 20 -34 16
-3 27 5 40 27 9 17 20 31 25 31 11 0 8 -39 -5 -63 -6 -12 -14 -35 -17 -51 -5
-22 -16 -32 -47 -45 -23 -9 -50 -23 -60 -31 -41 -32 -95 -106 -105 -144 -6
-23 -18 -52 -27 -66 -9 -14 -15 -37 -13 -52 1 -16 -9 -49 -24 -76 -14 -27 -28
-55 -29 -63 -17 -87 -47 -169 -77 -213 -15 -23 -31 -55 -35 -71 -4 -17 -20
-58 -36 -93 -16 -34 -26 -68 -22 -74 4 -6 3 -8 -3 -5 -6 4 -13 0 -17 -8 -6
-18 10 -30 20 -14 4 8 9 7 15 -2 7 -11 9 -11 9 -1 0 12 21 62 66 156 13 28 24
55 24 60 1 21 88 108 103 104 13 -2 5 -25 -37 -109 -57 -112 -79 -189 -54
-189 7 0 23 22 36 50 12 27 29 53 36 57 25 15 105 134 99 148 -3 8 -1 15 4 15
20 0 43 58 57 146 6 39 39 159 46 167 4 4 12 2 18 -6 10 -11 7 -20 -10 -43
-21 -28 -21 -28 -1 -11 21 18 22 18 32 -2 16 -29 14 -46 -2 -32 -17 13 -27 4
-26 -23 0 -21 1 -21 9 -1 7 16 9 14 9 -15 0 -19 -8 -55 -19 -79 -11 -24 -20
-50 -20 -57 0 -8 -6 -17 -14 -20 -8 -3 -12 -13 -8 -26 3 -12 -1 -26 -9 -32 -8
-6 -21 -31 -29 -56 -8 -25 -24 -61 -37 -80 -13 -19 -23 -39 -23 -45 0 -6 -9
-27 -20 -48 -11 -20 -20 -39 -20 -42 0 -3 23 -5 50 -5 38 0 50 4 50 15 0 8 7
15 15 15 13 0 14 4 5 20 -6 11 -7 32 -4 47 7 28 48 99 68 118 54 51 166 238
166 276 0 9 7 22 15 29 8 7 15 20 15 30 0 21 17 56 48 95 75 98 95 125 128
168 34 44 64 58 55 26 -2 -8 -3 -29 -2 -47 0 -19 -8 -59 -19 -90 -30 -90 -33
-117 -15 -132 27 -23 41 3 43 82 2 51 8 82 22 105 22 38 41 135 33 174 -7 39
16 47 43 16 20 -23 22 -34 17 -80 -3 -28 -14 -74 -24 -100 -14 -38 -14 -46 -3
-36 22 18 28 4 14 -31 -8 -20 -11 -52 -6 -93 5 -51 0 -85 -24 -182 -16 -66
-29 -136 -28 -155 0 -19 -6 -79 -15 -133 -18 -104 -13 -137 21 -137 35 0 38
14 40 180 2 168 6 195 58 360 9 30 20 84 23 120 4 43 15 80 33 110 14 25 29
65 33 90 7 47 59 163 82 182 10 8 18 6 33 -7 25 -23 25 -36 0 -82 l-20 -37 27
-24 c23 -20 27 -30 26 -70 -1 -26 -2 -60 -2 -77 1 -16 1 -43 1 -60 0 -45 -26
-140 -61 -225 -17 -41 -31 -83 -31 -94 0 -31 -22 -96 -31 -90 -15 9 -29 -34
-29 -88 0 -29 -7 -75 -15 -102 -19 -62 -19 -86 -1 -86 10 0 19 19 26 55 6 30
16 57 21 61 16 9 39 74 39 108 0 34 28 96 59 132 10 12 22 46 26 75 4 33 19
72 36 100 16 26 36 72 44 103 19 71 19 75 0 50 -17 -23 -19 -15 -5 22 6 15 14
24 17 20 4 -4 17 34 29 84 23 90 81 221 102 228 20 6 23 -43 6 -93 -9 -28 -16
-65 -15 -83 1 -18 -5 -51 -13 -75 -16 -48 -16 -169 -1 -174 6 -2 19 2 28 9 15
11 16 18 6 46 -6 19 -9 54 -5 80 15 120 25 170 40 204 9 21 16 52 16 71 0 24
8 41 30 62 25 24 30 37 30 74 0 96 54 201 103 201 16 0 18 -5 14 -32 -2 -19 2
-49 10 -68 10 -21 15 -60 14 -97 -1 -38 2 -63 9 -63 5 0 10 -10 10 -22 0 -33
46 -212 61 -240 7 -12 18 -50 24 -83 8 -43 16 -61 28 -63 25 -5 22 32 -8 108
-14 35 -25 84 -25 108 0 26 -6 49 -14 56 -18 14 -29 63 -16 71 5 3 10 -2 10
-11 0 -14 3 -15 12 -6 14 14 28 16 28 3 0 -5 13 -22 28 -39 15 -16 36 -49 46
-73 10 -24 22 -52 27 -61 4 -9 13 -56 19 -105 11 -90 24 -152 39 -188 15 -33
33 -135 35 -189 2 -59 10 -76 37 -76 23 0 25 27 4 86 -7 23 -23 101 -35 175
-11 74 -25 160 -31 191 -6 31 -8 73 -5 92 5 25 2 43 -10 61 -9 14 -14 32 -10
40 7 18 46 20 46 3 0 -14 50 -94 75 -119 8 -9 15 -20 15 -26 0 -6 6 -13 14
-16 8 -3 17 -20 21 -37 8 -36 28 -48 50 -30 21 17 19 23 -20 70 -49 59 -46
102 3 45 12 -14 28 -25 36 -25 16 0 34 -41 39 -90 2 -19 14 -57 27 -85 53
-119 122 -254 155 -302 l34 -52 -49 -47 c-46 -44 -49 -50 -52 -103 -3 -55 -4
-56 -45 -75 -23 -10 -44 -25 -47 -32 -4 -11 18 -14 117 -14 l122 0 2 56 c1 31
6 61 12 67 13 13 15 31 3 23 -25 -15 55 114 92 150 24 23 52 54 62 68 22 35
95 71 106 54 4 -7 8 -19 8 -26 0 -7 11 -34 24 -60 13 -26 29 -68 35 -92 13
-49 26 -81 75 -177 28 -58 34 -63 63 -63 l33 0 -14 37 c-17 49 -41 134 -56
200 -11 48 -10 57 15 118 36 92 93 192 112 199 19 8 45 -23 37 -44 -3 -8 -10
-41 -15 -72 -5 -32 -14 -69 -19 -83 -7 -19 -4 -35 16 -74 l26 -49 -24 -34
c-12 -18 -37 -50 -55 -70 -24 -28 -31 -43 -27 -65 6 -35 28 -53 57 -45 30 7
37 20 37 71 0 40 31 112 48 111 4 -1 22 -9 41 -19 27 -14 40 -16 62 -7 24 9
32 7 53 -13 21 -20 23 -27 14 -53 -8 -23 -7 -33 5 -45 12 -13 21 -13 52 -3 41
13 55 39 55 100 0 34 -6 44 -40 72 -23 17 -61 56 -85 86 -36 44 -44 59 -39 81
13 54 65 128 138 193 41 37 87 88 103 112 15 25 34 45 41 46 16 0 15 -11 -2
-35 -7 -11 -16 -40 -19 -64 -4 -31 -18 -60 -51 -102 -47 -61 -57 -89 -31 -89
8 0 15 9 15 19 0 11 11 33 25 48 l24 28 1 -24 c0 -14 -9 -44 -21 -68 -26 -53
-22 -77 13 -81 22 -3 29 2 34 22 3 13 3 34 -1 44 -4 14 3 31 25 55 24 28 32
49 38 99 6 43 17 76 35 102 15 21 27 43 27 49 0 6 9 2 20 -8 19 -18 20 -17 20
3 0 18 25 42 43 42 12 0 -30 -69 -42 -70 -8 0 -11 -6 -7 -16 3 -9 6 -18 6 -21
0 -11 50 69 64 101 10 25 19 32 37 31 13 -1 23 -5 23 -9 -3 -12 -25 -70 -49
-126 -40 -94 -55 -139 -55 -168 0 -36 -52 -198 -78 -242 -11 -19 -28 -61 -37
-93 -9 -31 -27 -70 -41 -86 -14 -17 -24 -42 -24 -60 0 -30 1 -31 49 -31 57 0
70 17 50 66 -6 16 -11 41 -11 56 1 25 38 120 87 219 13 25 26 66 30 90 8 45
53 167 83 226 14 28 19 31 30 19 15 -15 33 -132 33 -213 1 -36 5 -53 13 -53
22 0 23 9 10 103 -13 94 -5 134 15 76 13 -38 15 -268 2 -288 -12 -18 -3 -41
15 -41 11 0 14 24 15 118 l1 117 14 -85 c18 -119 12 -360 -10 -372 -9 -5 -16
-16 -16 -23 0 -11 13 -15 50 -15 l50 0 -11 27 c-18 47 10 493 32 517 17 19 23
-7 29 -122 4 -75 13 -136 25 -169 16 -45 17 -62 8 -135 -5 -46 -13 -91 -17
-100 -7 -15 -3 -18 21 -18 28 0 28 1 31 58 4 107 2 155 -9 196 -24 89 -17 246
11 246 11 0 21 -43 26 -115 3 -33 16 -88 29 -122 14 -34 25 -78 25 -98 0 -20
8 -50 17 -66 16 -27 16 -31 0 -58 -23 -40 -23 -41 24 -41 40 0 41 1 35 28 -4
15 -9 47 -13 72 -3 25 -9 50 -13 55 -9 11 -50 217 -50 248 0 10 11 29 25 43
14 14 25 33 25 42 0 35 46 -40 65 -107 10 -36 26 -76 36 -89 21 -28 56 -130
64 -192 4 -25 8 -54 10 -65 2 -11 4 -23 4 -27 1 -5 12 -8 26 -8 29 0 30 5 11
42 -8 14 -19 59 -26 100 -7 40 -24 107 -39 148 -36 97 -51 160 -51 213 0 23
-5 59 -11 81 -13 47 -1 59 50 52 42 -6 83 -44 107 -99 10 -23 28 -55 41 -70
13 -16 26 -39 29 -53 3 -13 11 -24 18 -24 13 -1 121 -133 117 -145 -1 -4 4
-12 12 -18 33 -27 87 -154 87 -206 0 -17 6 -21 31 -21 26 0 30 3 24 18 -4 9
-13 31 -19 47 -6 17 -19 44 -30 59 -17 27 -17 31 -2 63 20 42 32 35 73 -36 15
-25 35 -57 45 -70 10 -13 18 -37 18 -52 l0 -29 89 0 c80 0 89 2 84 18 -3 9
-31 30 -64 45 -32 16 -59 32 -59 37 0 4 -16 32 -35 62 -20 29 -50 85 -68 123
-43 95 -143 290 -172 334 -13 20 -26 59 -30 86 -7 52 -17 86 -42 144 -13 28
-13 35 -2 42 8 5 18 9 22 9 14 0 96 -88 113 -123 9 -17 26 -44 38 -58 12 -15
37 -50 56 -78 20 -28 41 -48 48 -46 7 3 11 1 8 -4 -7 -11 22 -98 43 -131 9
-14 21 -32 26 -41 6 -9 29 -42 53 -73 47 -62 76 -72 86 -30 7 28 -8 54 -31 54
-31 0 -133 132 -133 171 0 6 -22 42 -50 80 -27 38 -50 73 -50 77 0 5 -13 27
-28 48 -38 53 -67 145 -50 155 8 5 18 -1 27 -18 20 -39 138 -151 202 -192 53
-34 99 -69 173 -133 30 -26 83 -92 170 -214 24 -34 68 -81 98 -105 49 -40 98
-93 117 -126 4 -7 21 -15 38 -19 25 -5 32 -2 37 14 7 20 -11 62 -26 62 -12 0
-10 -38 2 -45 6 -3 10 -1 10 6 0 7 3 10 6 6 4 -3 4 -13 1 -21 -4 -11 -13 -13
-34 -7 -22 6 -27 12 -24 32 1 13 8 27 15 31 7 5 6 8 -4 9 -8 1 -1 5 15 9 30 8
30 8 -8 9 -21 0 -52 7 -70 15 -43 19 -158 137 -206 211 -50 78 -150 187 -163
179 -7 -4 -8 -2 -4 4 3 6 0 14 -8 19 -37 22 -270 241 -283 268 -8 16 -25 40
-36 53 -14 15 -17 26 -10 33 14 14 61 -6 101 -44 17 -17 32 -26 32 -19 0 23
42 11 97 -27 30 -22 60 -37 68 -35 7 3 16 1 20 -5 3 -6 1 -11 -6 -11 -25 0 38
-47 92 -69 44 -17 67 -36 117 -94 42 -50 73 -76 99 -85 53 -19 103 -26 103
-15 0 11 -43 53 -54 53 -4 0 -19 9 -33 20 -14 11 -34 20 -43 20 -10 0 -45 25
-79 55 -34 30 -73 58 -86 61 -14 3 -25 10 -25 14 0 4 -12 12 -28 18 -15 5 -84
65 -154 133 -69 68 -133 129 -141 134 -9 6 -17 21 -19 35 -2 20 1 25 17 23 60
-5 213 -81 279 -138 16 -13 33 -22 38 -19 4 3 7 0 6 -8 -2 -7 2 -12 9 -11 7 2
10 -3 7 -10 -5 -14 42 -69 74 -86 18 -10 25 -8 42 9 23 23 19 40 -11 40 -33 0
-213 176 -215 211 -1 10 -7 25 -14 34 -7 8 -9 15 -5 15 4 0 -13 16 -39 35 -47
37 -56 55 -33 73 24 21 83 1 138 -45 30 -25 81 -57 114 -72 33 -16 66 -35 74
-44 7 -10 18 -17 23 -17 5 0 23 -10 41 -22 76 -51 86 -57 113 -64 28 -6 28 -6
9 9 -17 14 -17 16 -4 17 17 0 37 -18 38 -33 0 -16 71 -65 126 -87 50 -20 56
-21 70 -6 15 15 14 17 -7 25 -13 5 -40 20 -60 34 -20 14 -54 33 -75 42 -21 9
-49 23 -63 30 -14 8 -41 22 -60 32 -19 9 -56 32 -81 50 -30 21 -53 30 -66 27
-11 -3 -24 0 -28 6 -5 9 -1 10 15 5 20 -6 19 -2 -15 39 -20 25 -40 46 -44 46
-10 0 -142 85 -166 107 -40 37 -71 76 -54 70 9 -3 40 1 68 9 l50 15 33 -37
c18 -20 37 -43 41 -50 11 -19 27 -18 27 1 0 8 -7 15 -15 15 -21 0 -19 13 5 35
33 29 96 16 177 -38 97 -66 108 -77 132 -124 15 -31 30 -44 57 -53 33 -11 38
-10 65 16 45 43 38 57 -46 97 -74 36 -95 57 -55 57 12 0 33 -6 48 -14 15 -7
49 -19 77 -25 27 -7 82 -28 121 -47 39 -19 79 -34 90 -34 16 0 183 -52 269
-83 17 -6 52 -33 78 -59 26 -26 59 -51 73 -54 33 -8 83 14 90 40 13 54 -39
104 -126 120 -336 65 -526 124 -595 186 -11 9 -52 29 -92 44 -72 27 -123 59
-123 77 0 14 48 11 74 -6 12 -8 36 -16 52 -17 16 -1 39 -10 51 -21 17 -15 25
-16 41 -8 35 18 41 71 9 71 -46 0 -173 107 -186 157 -4 14 -14 29 -22 33 -7 4
-23 11 -34 17 -11 5 -48 18 -82 28 -35 10 -63 22 -63 27 0 12 22 9 50 -7 14
-8 33 -14 42 -15 29 0 126 -49 163 -81 25 -22 40 -29 55 -24 36 11 21 47 -30
72 -73 35 -189 83 -203 83 -6 0 -28 10 -47 21 -32 20 -33 22 -16 35 16 11 23
11 47 -1 15 -8 45 -15 66 -15 25 0 52 -9 76 -26 40 -27 71 -26 65 3 -2 10 -16
20 -34 23 -17 4 -44 14 -60 23 -44 25 -151 67 -169 67 -30 0 -107 51 -101 67
3 8 6 17 6 19 0 14 41 1 50 -16 13 -24 35 -26 44 -5 3 8 17 20 31 25 30 12 32
31 5 55 -18 16 -20 26 -14 74 7 59 36 101 71 101 10 0 55 -36 101 -81 46 -44
89 -78 95 -76 16 5 22 47 7 47 -24 0 -147 119 -165 159 -21 48 -14 61 44 81
22 7 63 35 92 62 44 41 54 47 68 36 29 -23 60 -38 80 -38 24 0 78 -25 166 -77
39 -22 97 -54 130 -70 33 -16 74 -38 92 -49 30 -18 33 -18 49 -2 22 22 13 44
-23 52 -15 4 -35 13 -43 21 -8 7 -38 17 -65 23 -28 6 -93 33 -145 59 -52 27
-124 62 -158 77 l-64 29 47 23 c26 13 52 21 58 17 7 -4 35 -23 62 -43 28 -20
70 -42 95 -49 55 -16 62 -19 180 -74 52 -24 111 -50 130 -57 19 -7 64 -26 100
-42 136 -62 141 -64 156 -43 19 25 -2 57 -42 66 -16 3 -38 10 -49 16 -11 6
-45 14 -75 18 -60 8 -157 42 -228 80 -26 14 -52 25 -59 25 -6 0 -27 9 -45 19
-18 10 -47 22 -64 25 -31 7 -114 74 -114 92 0 23 69 72 125 89 33 10 79 33
102 52 50 40 102 52 210 46 119 -6 119 -7 152 -71 47 -94 95 -98 168 -16 17
20 47 44 65 54 37 20 47 50 22 71 -18 15 -127 19 -181 6 -26 -6 -37 -2 -62 19
-34 29 -39 49 -15 58 25 10 174 -24 229 -51 28 -14 76 -38 107 -54 31 -16 59
-33 63 -39 3 -6 24 -19 46 -30 21 -11 39 -28 39 -36 0 -10 6 -14 15 -10 20 7
224 -96 318 -161 50 -36 84 -68 96 -91 10 -21 29 -46 41 -57 12 -11 40 -46 62
-78 26 -38 52 -64 76 -75 20 -9 48 -26 62 -38 22 -20 65 -51 180 -129 19 -13
53 -40 74 -59 29 -26 49 -36 73 -36 l33 0 -1 103 c-1 56 -3 94 -6 84 -2 -9
-11 -17 -19 -17 -9 0 -12 5 -8 12 5 7 3 8 -5 3 -8 -4 -25 1 -42 14 -15 11 -32
21 -36 21 -4 0 -33 18 -63 40 -52 38 -116 82 -203 139 -21 13 -44 39 -51 56
-14 34 -69 85 -91 85 -15 0 -106 40 -115 51 -6 6 -93 55 -209 117 -47 25 -97
54 -110 64 -13 10 -32 18 -42 18 -9 0 -30 10 -46 23 -28 23 -101 73 -133 92
-10 6 -25 17 -34 24 -9 8 -31 21 -49 30 -19 9 -33 25 -35 38 l-3 22 183 -3
c161 -3 190 -6 238 -26 67 -26 105 -61 132 -118 19 -40 23 -43 52 -37 29 6 66
37 66 56 0 5 -23 34 -50 64 -28 30 -50 59 -50 64 0 5 -16 18 -35 30 -19 11
-39 31 -45 45 -5 13 -21 32 -36 43 -15 10 -49 39 -77 64 -45 41 -48 48 -38 67
9 17 21 22 49 22 21 0 42 -4 48 -9 13 -12 103 -41 128 -41 12 0 44 -12 71 -25
28 -14 60 -25 73 -25 12 0 39 -8 60 -19 20 -10 43 -16 50 -14 12 5 69 -10 192
-49 66 -21 161 -68 193 -96 21 -19 22 -60 1 -112 -15 -38 -15 -45 1 -96 17
-55 36 -74 74 -74 20 0 21 5 21 164 0 98 -4 167 -10 171 -14 9 -165 51 -220
61 -13 3 -30 10 -36 15 -7 5 -25 14 -41 18 -15 5 -37 12 -47 17 -14 5 -17 4
-12 -4 12 -19 -1 -14 -26 11 -14 14 -42 27 -68 31 -85 13 -196 62 -269 118
-13 10 -40 18 -61 18 -50 0 -85 28 -75 59 7 24 26 25 90 3 83 -29 110 -34 150
-28 29 5 55 2 80 -9 21 -8 46 -15 57 -15 10 0 37 -9 60 -21 26 -13 51 -19 69
-15 18 3 47 -3 81 -18 29 -13 77 -29 107 -35 29 -6 65 -20 80 -30 14 -10 41
-20 59 -23 31 -4 32 -4 32 34 0 41 -2 42 -87 51 -23 3 -70 18 -105 35 -35 16
-77 29 -94 30 -16 0 -70 12 -120 27 -140 41 -229 64 -300 76 -55 9 -74 18
-113 53 -26 23 -63 52 -83 64 -20 13 -46 38 -57 57 -11 20 -33 40 -48 45 -16
6 -41 18 -58 27 -35 20 -109 22 -152 4 -25 -10 -39 -9 -94 9 -111 36 -122 39
-219 55 -55 10 -103 24 -114 33 -10 9 -35 26 -56 37 -88 46 -120 66 -120 75 0
5 -22 21 -49 34 -27 14 -51 31 -54 39 -3 7 -31 19 -63 26 -90 19 -91 20 -97
49 -5 23 -14 31 -49 42 -24 7 -46 15 -50 17 -15 8 5 31 30 36 35 7 169 -11
207 -28 34 -16 65 -4 65 25 0 20 -9 23 -114 34 -89 11 -123 24 -130 51 -8 30
-46 48 -98 47 -28 -1 -41 4 -48 19 -10 17 -7 19 30 19 46 0 49 9 17 44 -16 17
-27 22 -38 15 -22 -14 -59 -11 -65 6 -9 22 13 44 52 51 31 6 34 9 34 40 0 41
23 45 64 13 30 -23 56 -19 56 9 0 12 -14 25 -40 37 -41 18 -47 33 -19 45 8 4
24 12 35 18 37 19 143 33 233 32 64 -1 101 4 145 19 94 33 276 13 404 -45 167
-76 165 -75 288 -211 58 -65 89 -78 114 -48 16 19 9 45 -15 59 -112 62 -174
126 -193 199 -8 32 -9 32 -73 33 -46 0 -81 8 -124 26 -56 24 -60 29 -63 62
l-3 35 -94 0 c-52 -1 -98 1 -102 4 -5 3 -58 9 -118 12 -61 4 -112 9 -114 11
-2 2 1 9 7 16 5 7 12 24 14 38 2 17 15 31 43 46 22 11 50 36 63 55 36 53 64
79 107 101 50 25 115 87 115 108 0 18 40 60 57 60 5 0 39 27 75 59 61 57 67
59 105 54 36 -5 44 -2 65 22 45 52 67 75 74 75 3 0 14 11 25 23 10 13 50 39
88 57 39 19 71 37 71 40 0 6 60 37 123 64 31 13 37 21 37 45 0 35 -21 54 -61
54 -23 0 -44 -13 -87 -55 -70 -67 -150 -128 -169 -128 -8 0 -28 -10 -45 -21
-85 -61 -227 -104 -274 -84 -10 4 -23 7 -29 6 -5 -2 -18 -5 -29 -7 -10 -2 -30
-11 -44 -20 -14 -9 -60 -20 -101 -25 -42 -4 -96 -10 -120 -13 -32 -5 -49 -2
-61 9 -15 14 -24 14 -89 0 -59 -12 -90 -13 -169 -5 -53 6 -112 16 -130 21 -18
6 -65 10 -105 9 -40 -1 -109 -2 -154 -1 -73 1 -84 3 -93 22 -9 16 -8 24 4 38
12 13 13 20 4 29 -8 8 -8 16 3 32 13 19 25 22 109 24 52 2 120 9 150 15 30 7
78 17 105 23 28 6 91 24 140 40 50 16 116 30 149 32 44 1 62 6 72 21 18 25 18
31 -5 54 -23 23 -28 22 -171 -33 -111 -43 -242 -76 -305 -76 -24 0 -55 -4 -69
-10 -26 -9 -189 -22 -261 -20 -37 1 -59 15 -50 31 3 3 0 20 -4 37 -9 28 -7 32
24 46 18 9 37 16 42 16 4 0 33 13 63 28 70 36 139 58 216 71 34 5 79 18 100
29 72 36 250 82 318 82 29 0 48 6 60 19 10 10 34 22 54 26 20 4 53 15 74 26
20 10 49 19 62 19 36 0 60 40 52 85 -5 27 -12 35 -28 35 -25 0 -142 -55 -184
-87 -17 -12 -37 -23 -45 -23 -8 0 -39 -12 -69 -26 -30 -14 -84 -35 -120 -46
-36 -11 -78 -27 -95 -36 -36 -19 -179 -60 -254 -73 -29 -5 -72 -18 -95 -28
-22 -10 -62 -22 -88 -25 -26 -4 -50 -11 -53 -16 -3 -5 -31 -14 -63 -21 -31 -7
-68 -19 -82 -26 -20 -10 -27 -10 -39 1 -13 14 -7 41 9 31 4 -3 14 2 21 11 7 9
33 29 57 46 37 25 48 29 67 20 25 -12 35 -7 35 17 0 11 22 25 63 41 34 13 77
36 96 50 34 25 152 88 328 174 50 25 94 49 97 54 3 6 18 13 33 17 15 3 38 14
52 24 35 24 185 90 242 106 26 7 55 18 65 24 11 5 43 17 71 26 58 18 83 45 83
88 0 19 14 43 46 77 53 57 58 93 12 98 -22 3 -30 -2 -37 -20 -11 -27 -49 -64
-112 -106 -25 -17 -51 -38 -59 -47 -7 -9 -27 -22 -44 -29 -17 -8 -73 -45 -125
-84 -65 -50 -154 -101 -295 -170 -110 -55 -212 -103 -226 -107 -14 -4 -56 -22
-93 -41 -37 -19 -72 -32 -77 -29 -6 3 -10 2 -10 -4 0 -13 -82 -51 -109 -51
-12 0 -21 6 -21 13 0 8 -2 9 -8 1 -11 -18 -115 -27 -145 -13 -26 12 -38 39
-17 39 6 0 31 22 56 49 56 61 81 69 96 33 6 -17 12 -22 15 -14 3 7 -2 21 -11
31 -15 16 -15 19 2 34 10 10 26 17 34 17 10 0 18 13 22 38 5 30 15 43 56 72
28 19 72 52 98 73 25 20 50 37 54 37 13 0 181 102 223 134 105 84 337 211 417
230 30 7 64 49 53 66 -3 5 -36 10 -73 10 -60 0 -68 -3 -96 -31 -61 -60 -157
-137 -193 -154 -21 -10 -60 -37 -88 -60 -50 -42 -148 -102 -240 -147 -48 -24
-159 -89 -180 -105 -47 -37 -85 -63 -92 -63 -4 0 -30 -16 -57 -35 -27 -19 -54
-35 -61 -35 -6 0 -18 -9 -28 -20 -20 -24 -47 -16 -48 14 0 19 -1 19 -8 3 -7
-18 -8 -18 -30 0 l-22 18 26 47 c14 26 47 69 73 96 26 26 70 76 97 110 28 33
57 64 66 67 17 6 91 81 123 125 12 17 20 21 23 12 3 -9 12 -5 29 13 13 14 24
29 24 33 0 18 93 77 108 68 4 -2 15 7 25 20 l18 24 -617 0 c-541 0 -615 -2
-604 -15 13 -16 8 -75 -17 -185 -8 -36 -19 -85 -23 -110 -5 -25 -13 -65 -19
-90 -6 -25 -10 -48 -11 -52 0 -3 -14 -14 -32 -22 -25 -13 -33 -14 -40 -4 -9
15 -12 99 -8 263 2 117 3 131 16 188 5 24 3 27 -19 27 -20 0 -24 -5 -24 -27 2
-108 -15 -419 -23 -427 -17 -17 -24 3 -21 62 2 31 3 129 2 216 -1 117 3 162
12 168 7 4 -4 8 -26 8 -32 0 -37 -2 -29 -17 4 -10 5 -56 2 -103 -5 -75 -7 -80
-13 -45 -4 22 -12 54 -18 70 -6 17 -12 38 -12 47 -1 9 -4 15 -8 12 -4 -2 -10
4 -12 13 -3 10 -2 -18 1 -62 11 -143 8 -188 -17 -228 -12 -20 -30 -37 -40 -37
-38 0 -116 164 -135 283 l-10 67 -34 0 c-31 0 -34 -2 -27 -22 4 -13 11 -48 17
-78 17 -102 12 -140 -20 -140 -34 0 -101 119 -110 196 -4 41 -7 44 -33 44 -29
0 -38 -17 -19 -36 5 -5 15 -36 21 -68 6 -33 21 -84 35 -114 25 -57 24 -72 -5
-72 -19 0 -61 39 -61 56 0 6 -11 17 -25 24 -14 7 -25 19 -25 26 0 7 -16 39
-35 71 -19 31 -37 70 -40 85 -6 26 -10 28 -56 28 -27 0 -49 -2 -49 -3 0 -2 9
-30 20 -62 23 -68 16 -85 -35 -85 -27 0 -39 7 -63 41 -17 22 -33 56 -36 75
l-7 34 -534 0 c-294 0 -535 -3 -535 -7 0 -5 17 -24 38 -43 43 -41 67 -102 50
-130 -6 -9 -26 -22 -44 -29 -46 -17 -71 -52 -79 -113 -5 -34 -15 -58 -29 -70
-30 -25 -42 -22 -60 17 -19 38 -26 45 -76 62 -27 9 -36 9 -42 0 -6 -9 -8 -9
-8 1 0 23 -33 8 -49 -22 -25 -44 -35 -32 -36 42 0 60 -2 67 -20 68 -12 1 -30
6 -40 11 -11 6 -26 8 -34 5 -8 -3 -11 0 -7 7 5 7 -2 11 -18 11 -13 0 -31 3
-39 6 -9 3 -25 -4 -37 -16 -20 -20 -22 -29 -16 -79 6 -50 4 -62 -17 -92 -19
-28 -29 -34 -55 -32 -51 2 -62 17 -55 71 8 60 27 89 70 107 23 10 33 20 31 31
-4 23 -32 39 -54 30 -15 -6 -16 -9 -4 -16 8 -5 17 -7 21 -4 4 2 9 -3 13 -11 3
-9 0 -15 -9 -15 -8 0 -15 5 -15 10 0 40 -121 -73 -134 -125 -10 -41 -49 -95
-68 -95 -12 0 -19 11 -23 34 -9 44 21 113 79 180 23 28 49 62 56 76 17 33 40
49 68 50 14 0 27 9 34 24 14 33 4 56 -24 55 -24 0 -71 -53 -175 -194 -28 -38
-67 -90 -86 -115 -19 -25 -42 -68 -51 -97 -9 -28 -23 -53 -30 -56 -6 -3 -27
-32 -44 -65 -33 -61 -55 -78 -86 -66 -13 5 -16 21 -16 83 0 47 5 84 13 96 7
11 21 42 31 68 10 27 31 57 47 69 27 20 38 51 22 61 -5 3 -22 8 -40 11 -31 7
-31 7 -42 -45 -6 -28 -25 -70 -41 -92 -17 -23 -30 -47 -30 -55 0 -7 -5 -10
-10 -7 -6 4 -10 12 -9 18 3 22 -1 37 -8 37 -5 0 -8 -40 -7 -90 1 -94 -6 -108
-39 -72 -10 11 -15 28 -11 43 22 101 54 314 61 407 l5 62 -41 0 c-36 0 -41 -3
-41 -23 0 -13 -5 -28 -11 -34 -8 -8 -8 -13 0 -17 6 -4 11 -18 11 -31 0 -17 4
-23 14 -19 16 6 15 -6 -9 -91 -8 -27 -17 -71 -20 -96 -4 -30 -19 -66 -45 -105
-22 -32 -40 -66 -40 -75 0 -9 -6 -22 -13 -28 -11 -8 -18 -6 -31 8 -25 28 -35
80 -41 211 -2 63 -11 137 -20 163 -9 30 -12 65 -8 93 5 40 4 44 -16 44 -19 0
-21 -6 -21 -54 0 -77 19 -156 37 -149 19 7 16 -22 -4 -43 -14 -13 -18 -35 -19
-88 -1 -94 -3 -104 -12 -89 -4 6 -7 -44 -7 -111 0 -88 -4 -128 -13 -139 -14
-17 -8 -115 9 -148 5 -9 5 -19 2 -23 -10 -10 -33 15 -33 35 0 11 -4 19 -9 19
-16 0 -25 128 -11 145 10 12 9 15 -4 15 -9 0 -16 -4 -16 -10 0 -5 -4 -10 -10
-10 -5 0 -10 9 -10 19 0 11 -5 23 -11 26 -20 13 -33 61 -35 130 -3 97 -11 165
-22 178 -13 16 -15 147 -3 147 5 0 11 -6 13 -12 3 -7 5 7 6 31 1 23 -4 52 -12
63 -14 20 -15 20 -29 -8 -12 -24 -13 -54 -7 -159 4 -71 12 -141 17 -156 7 -15
8 -42 3 -67 -6 -35 -1 -60 26 -141 24 -71 32 -109 27 -131 -12 -61 -48 -49
-87 29 -26 51 -56 162 -56 205 0 15 -6 40 -14 54 -27 50 -44 107 -41 134 2 16
-3 31 -10 36 -14 7 -45 172 -45 237 0 32 -3 35 -29 35 l-29 0 19 -37 c12 -24
19 -59 20 -98 0 -41 3 -54 8 -40 6 15 10 5 15 -40 4 -33 19 -96 33 -140 13
-44 26 -89 27 -100 7 -51 50 -223 62 -247 8 -15 14 -40 14 -55 0 -15 12 -46
25 -68 38 -61 31 -75 -15 -30 -22 21 -40 47 -40 56 0 9 -7 22 -15 29 -8 7 -17
28 -20 49 -9 52 -57 156 -100 216 -40 56 -73 121 -99 194 -14 41 -37 93 -51
117 -33 56 -55 142 -44 172 8 20 6 22 -26 22 -19 0 -35 -3 -35 -7z m3820 -28
c0 -16 -6 -25 -15 -25 -28 0 -18 40 13 49 1 1 2 -10 2 -24z m684 10 c11 -1 22
-7 24 -14 6 -18 -14 -89 -64 -227 -24 -67 -44 -126 -44 -131 0 -19 -30 -37
-42 -25 -14 14 -19 162 -7 237 27 171 32 180 89 168 14 -3 34 -7 44 -8z m854
-5 c17 -27 5 -47 -14 -23 -11 15 -13 15 -14 3 0 -9 5 -21 12 -28 9 -9 9 -12 0
-12 -7 0 -12 -8 -12 -19 0 -10 -7 -24 -15 -31 -8 -7 -15 -16 -15 -21 0 -5 -83
-92 -185 -193 -102 -101 -185 -188 -185 -195 0 -6 -7 -11 -15 -11 -8 0 -15 -5
-15 -11 0 -13 -38 -49 -52 -49 -4 0 -8 17 -8 39 0 28 9 50 33 82 45 60 111
173 137 233 26 61 59 108 71 101 5 -4 9 3 9 15 0 12 4 19 9 15 5 -3 11 4 13
15 2 15 7 17 18 10 13 -9 13 -11 0 -20 -11 -7 -11 -10 -2 -10 7 0 16 8 19 18
7 18 41 52 53 52 5 0 11 -8 15 -17 6 -17 7 -17 20 0 10 13 14 15 18 5 4 -8 6
-7 6 5 1 25 19 21 24 -5 4 -20 4 -19 6 4 1 24 34 68 50 68 4 0 12 -9 19 -20z
m-1718 -30 c0 -13 -1 -13 -10 0 -5 8 -10 22 -10 30 0 13 1 13 10 0 5 -8 10
-22 10 -30z m-183 5 c0 -8 -4 -12 -9 -9 -4 3 -8 9 -8 15 0 5 4 9 8 9 5 0 9 -7
9 -15z m1163 -32 c0 -18 4 -24 15 -19 19 7 19 5 0 -30 -8 -16 -15 -36 -15 -45
0 -8 -11 -26 -24 -38 -14 -13 -33 -48 -42 -79 -18 -57 -68 -132 -93 -140 -16
-5 -16 -5 22 141 15 54 32 110 40 125 36 68 46 84 63 101 23 23 34 18 34 -16z
m403 -17 c-3 -4 -9 -2 -14 5 -13 22 -11 31 5 17 8 -7 12 -17 9 -22z m-279 -10
c9 12 15 14 20 5 4 -6 12 -9 17 -6 5 4 9 -1 9 -10 0 -9 6 -15 13 -12 6 2 11 9
10 15 -2 10 45 27 53 19 2 -2 -5 -15 -16 -30 -11 -14 -20 -30 -20 -37 0 -6
-11 -26 -24 -43 -13 -18 -31 -49 -40 -70 -9 -22 -25 -41 -36 -44 -11 -3 -20
-9 -20 -14 0 -13 -91 -100 -115 -109 -11 -4 -27 -4 -36 1 -14 7 -13 15 7 77
13 38 42 100 64 138 22 38 40 77 40 87 0 10 7 20 15 23 8 4 15 16 15 28 1 19
3 18 16 -7 14 -26 17 -27 28 -11z m249 -21 c4 -6 11 -5 17 5 8 13 10 12 10 -4
0 -40 -93 -201 -159 -273 -68 -76 -151 -129 -177 -115 -12 7 -7 18 24 58 22
27 48 66 58 86 40 77 109 194 133 226 21 26 32 32 56 30 17 -1 33 -7 38 -13z
m-2389 -26 c10 -52 8 -58 -24 -57 -35 1 -38 16 -13 59 22 37 29 37 37 -2z
m-819 -89 c-3 -5 -14 -6 -25 -3 -11 3 -18 9 -15 13 3 5 14 6 25 3 11 -3 18 -9
15 -13z m-1655 -331 c0 -5 -4 -9 -10 -9 -5 0 -10 7 -10 16 0 8 5 12 10 9 6 -3
10 -10 10 -16z m-1365 -509 c3 -5 0 -10 -9 -10 -8 0 -16 -6 -19 -12 -4 -10 -7
-10 -18 0 -12 11 -12 14 1 22 20 13 37 12 45 0z m20 -30 c-4 -11 -2 -20 4 -20
6 0 11 -4 11 -8 0 -5 -7 -9 -15 -9 -19 0 -28 26 -14 43 16 20 21 17 14 -6z
m55 -24 c0 -2 3 -12 7 -21 5 -15 3 -16 -15 -6 -25 13 -29 31 -7 31 8 0 15 -2
15 -4z m-10 -62 c0 -8 -5 -12 -10 -9 -6 4 -8 11 -5 16 9 14 15 11 15 -7z m110
-74 c0 -17 -2 -19 -14 -8 -14 13 -12 28 5 28 5 0 9 -9 9 -20z m40 10 c0 -5 -2
-10 -4 -10 -3 0 -8 5 -11 10 -3 6 -1 10 4 10 6 0 11 -4 11 -10z m1059 -6 c2
-2 2 -6 -1 -9 -9 -9 -58 6 -58 17 0 9 49 3 59 -8z m-45 -31 c3 -8 4 -19 0 -24
-3 -5 0 -9 5 -9 6 0 11 7 11 15 0 19 9 19 32 -2 23 -21 25 -68 2 -59 -9 3 -20
6 -25 6 -5 0 -9 7 -9 15 0 8 -6 12 -13 9 -15 -6 -31 11 -41 41 -4 16 -1 21 13
22 11 1 22 -5 25 -14z m-856 -78 c-3 -3 -9 2 -12 12 -6 14 -5 15 5 6 7 -7 10
-15 7 -18z m-193 -5 c3 -5 1 -10 -4 -10 -6 0 -11 5 -11 10 0 6 2 10 4 10 3 0
8 -4 11 -10z m290 -38 c-2 -3 -11 0 -18 6 -8 7 -17 9 -20 5 -4 -3 -7 -1 -7 5
0 18 24 21 37 4 7 -9 11 -18 8 -20z m813 -8 c1 -14 -2 -23 -7 -20 -5 4 -7 -3
-4 -14 3 -11 1 -20 -5 -20 -6 0 -16 17 -21 38 -14 50 -14 50 12 45 16 -3 23
-12 25 -29z m-1128 22 c0 -2 -3 -11 -6 -20 -9 -24 -33 -20 -27 4 4 16 33 30
33 16z m350 -16 c0 -11 6 -20 13 -20 6 0 13 -11 13 -24 1 -18 -3 -24 -17 -23
-10 1 -19 4 -19 8 0 3 -11 11 -25 17 -14 6 -25 17 -25 24 0 9 3 9 8 2 4 -6 15
-14 25 -17 16 -6 18 -3 12 23 -4 19 -3 30 4 30 6 0 11 -9 11 -20z m6435 -40
c17 -5 63 -14 104 -20 l73 -12 -85 -84 c-47 -46 -97 -86 -111 -90 -15 -3 -36
-20 -48 -38 -35 -49 -50 -57 -70 -39 -15 14 -26 14 -78 4 -33 -7 -65 -9 -70
-6 -5 3 -19 1 -31 -5 -27 -15 -47 1 -24 20 24 20 18 38 -24 65 -36 25 -101
103 -101 123 0 11 47 22 91 22 15 0 54 10 86 22 138 52 206 61 288 38z m815
14 c0 -10 -61 -59 -100 -79 -38 -20 -95 -64 -220 -170 -36 -30 -72 -54 -80
-52 -22 3 -24 32 -5 75 19 42 29 50 117 94 31 15 71 45 90 66 38 44 53 52 128
62 30 4 58 8 63 9 4 0 7 -2 7 -5z m-237 -20 c9 -9 -25 -44 -58 -60 -37 -17
-59 -31 -109 -69 -48 -36 -72 -51 -108 -65 -14 -6 -29 -17 -31 -25 -3 -7 -28
-19 -56 -26 -28 -7 -51 -16 -51 -21 0 -4 -5 -8 -12 -8 -7 0 -28 -15 -47 -32
-21 -21 -32 -26 -28 -15 5 14 3 16 -12 8 -10 -6 -26 -22 -35 -36 -19 -28 -47
-32 -70 -9 -24 24 -20 39 27 86 23 24 65 68 94 98 103 110 132 132 163 125 19
-4 45 1 77 15 34 15 69 22 123 22 41 0 84 4 95 9 25 10 30 10 38 3z m-7133
-14 c0 -5 -2 -10 -4 -10 -3 0 -8 5 -11 10 -3 6 -1 10 4 10 6 0 11 -4 11 -10z
m-100 -20 c0 -5 -2 -10 -4 -10 -3 0 -8 5 -11 10 -3 6 -1 10 4 10 6 0 11 -4 11
-10z m81 -32 c14 -26 1 -38 -15 -16 -7 10 -15 16 -17 13 -3 -2 -5 4 -5 14 0
23 22 16 37 -11z m123 7 c-4 -8 -7 -15 -9 -15 -2 0 -5 7 -9 15 -3 9 0 15 9 15
9 0 12 -6 9 -15z m-197 -10 c3 -9 3 -19 -1 -22 -8 -9 -37 18 -30 28 8 14 24
11 31 -6z m276 -56 c7 -1 15 -1 20 0 4 0 7 -3 7 -9 0 -5 -11 -9 -24 -8 -14 1
-22 6 -20 10 3 4 -6 8 -20 8 -14 0 -26 2 -26 4 0 2 -3 11 -6 19 -10 26 29 26
44 0 7 -13 18 -24 25 -24z m717 35 c0 -9 -5 -14 -12 -12 -18 6 -21 28 -4 28 9
0 16 -7 16 -16z m-950 -14 c0 -5 -2 -10 -4 -10 -3 0 -8 5 -11 10 -3 6 -1 10 4
10 6 0 11 -4 11 -10z m280 -66 c0 -17 -24 -18 -38 -1 -8 9 -4 12 14 13 15 1
24 -4 24 -12z m155 -84 c3 -5 8 -19 10 -30 5 -27 -18 -25 -30 3 -6 12 -16 21
-23 20 -7 -2 -12 2 -12 7 0 13 47 13 55 0z m15 -80 c0 -5 6 -9 12 -7 7 1 20
-18 29 -43 21 -62 37 -97 66 -153 38 -74 21 -80 -20 -7 -20 36 -45 71 -56 77
-13 8 -18 19 -14 30 4 10 2 14 -4 10 -18 -11 -41 3 -46 28 -2 14 -1 23 2 20 4
-2 13 1 21 6 12 8 12 12 3 16 -15 6 -17 33 -3 33 6 0 10 -4 10 -10z m6531
-240 c30 -5 84 -11 121 -13 37 -2 71 -7 75 -10 7 -7 -240 1 -264 9 -17 5 -17
24 0 24 7 0 38 -4 68 -10z m21 -936 c15 -8 35 -14 45 -14 10 0 36 -10 58 -22
40 -21 130 -44 215 -54 51 -6 114 -23 148 -40 l22 -11 -22 -15 c-16 -10 -57
-15 -132 -17 -121 -3 -124 -4 -215 -56 -68 -38 -91 -40 -138 -9 -32 20 -29 29
16 46 50 20 79 61 60 84 -8 10 -22 14 -39 11 -20 -5 -31 2 -56 31 -41 50 -45
58 -38 76 7 18 26 15 76 -10z m-64 -133 c11 -6 7 -13 -14 -30 -14 -11 -31 -21
-35 -21 -16 0 -9 39 9 49 21 13 24 13 40 2z m-6606 -17 c14 -9 9 -29 -10 -40
-12 -8 -37 -8 -82 -2 -36 5 -84 10 -107 10 -24 1 -43 5 -43 9 0 11 -5 10 64
15 32 2 66 9 75 14 15 10 84 6 103 -6z m-1055 -100 c-3 -3 -12 -4 -19 -1 -8 3
-5 6 6 6 11 1 17 -2 13 -5z m753 -5 c58 1 114 2 125 2 11 0 34 0 50 0 69 2 78
0 91 -13 18 -17 4 -72 -19 -76 -10 -2 -46 6 -81 18 -35 11 -95 25 -133 30 -70
9 -171 35 -182 46 -3 4 5 3 19 -1 13 -4 72 -7 130 -6z m-560 -19 c0 -5 -4 -10
-10 -10 -5 0 -10 5 -10 10 0 6 5 10 10 10 6 0 10 -4 10 -10z m-450 -40 c0 -5
-8 -10 -17 -10 -15 0 -16 2 -3 10 19 12 20 12 20 0z m-174 -19 c-3 -5 -15 -7
-26 -4 -28 7 -25 13 6 13 14 0 23 -4 20 -9z m8369 -91 c15 -6 48 -28 73 -50
33 -27 60 -41 92 -46 58 -8 115 -27 181 -59 29 -14 58 -25 64 -25 6 0 20 -8
31 -18 38 -35 76 -54 97 -48 12 2 33 -1 47 -9 24 -13 24 -13 -30 -29 -30 -8
-95 -16 -145 -17 -58 -2 -123 -11 -184 -27 l-93 -25 -49 54 c-26 30 -51 63
-55 74 -4 11 -20 35 -35 53 -16 18 -31 45 -35 60 -3 15 -14 44 -25 64 -11 21
-17 42 -14 48 8 13 46 13 80 0z m1145 -20 c0 -5 -2 -10 -4 -10 -3 0 -8 5 -11
10 -3 6 -1 10 4 10 6 0 11 -4 11 -10z m60 -40 c0 -5 -2 -10 -4 -10 -3 0 -8 5
-11 10 -3 6 -1 10 4 10 6 0 11 -4 11 -10z m-816 -6 c18 -7 61 -72 52 -81 -8
-9 -62 16 -81 38 -28 30 -9 58 29 43z m-609 -144 c3 -6 39 -26 78 -45 87 -42
189 -106 194 -121 5 -14 -41 -34 -78 -34 -41 0 -66 15 -113 64 -21 22 -60 55
-85 71 -45 30 -58 52 -47 81 4 11 10 12 25 4 11 -5 23 -15 26 -20z m-6141 -90
c-6 -29 -6 -29 36 -27 54 3 60 -13 16 -38 -31 -18 -44 -19 -138 -12 -139 11
-170 16 -163 28 4 5 17 9 31 9 14 0 48 13 77 29 56 31 77 38 119 40 25 1 27
-1 22 -29z m5867 -80 c29 0 21 -7 -16 -14 -43 -8 -69 2 -54 20 8 10 16 11 29
4 10 -6 29 -10 41 -10z m-6098 -6 c40 -8 83 -19 97 -24 14 -4 34 -11 44 -14
18 -6 17 -8 -10 -22 -39 -21 -174 -14 -226 11 -21 10 -38 21 -38 24 0 5 46 37
58 40 2 1 35 -6 75 -15z m6358 3 c-1 -12 -15 -9 -19 4 -3 6 1 10 8 8 6 -3 11
-8 11 -12z m-6091 -87 c0 -5 -9 -10 -21 -10 -11 0 -17 5 -14 10 3 6 13 10 21
10 8 0 14 -4 14 -10z m-60 -9 c0 -5 -11 -11 -25 -13 -24 -5 -32 2 -18 15 9 10
43 8 43 -2z m-362 -493 c-3 -7 -15 -14 -29 -16 -24 -4 -24 -3 -4 12 24 19 38
20 33 4z m148 -337 c-3 -5 -16 -11 -28 -14 -22 -6 -22 -5 -4 8 22 17 40 20 32
6z m583 -124 c6 -8 8 -17 4 -20 -7 -8 -33 11 -33 24 0 13 16 11 29 -4z m611
-251 c0 -9 -73 -46 -79 -40 -3 4 0 9 7 11 7 3 18 11 25 19 11 12 47 20 47 10z
m4510 -62 c53 -27 119 -74 103 -74 -6 0 -24 6 -40 14 -112 55 -143 73 -148 84
-6 17 21 9 85 -24z m-4691 -1 c0 -10 -4 -27 -8 -38 -7 -17 -9 -15 -13 13 -2
17 -2 34 0 37 11 11 22 4 21 -12z m189 -20 c2 -15 -4 -22 -23 -27 -46 -12 -64
22 -22 42 29 14 41 10 45 -15z m-234 -15 c16 -78 17 -135 1 -148 -8 -7 -15
-20 -15 -29 0 -10 -10 -27 -23 -39 -28 -26 -138 -94 -144 -88 -11 10 44 122
85 174 30 36 53 79 62 111 7 28 17 51 21 51 4 0 10 -15 13 -32z m102 -56 c-32
-32 -35 -16 -4 23 14 18 23 24 26 16 2 -7 -7 -25 -22 -39z m-1416 -152 c0 -5
-5 -10 -11 -10 -5 0 -7 5 -4 10 3 6 8 10 11 10 2 0 4 -4 4 -10z m1460 -89 c18
-35 11 -45 -15 -21 -14 13 -25 27 -25 32 0 16 29 8 40 -11z m390 -41 c0 -5 -4
-10 -10 -10 -5 0 -10 5 -10 10 0 6 5 10 10 10 6 0 10 -4 10 -10z m-440 -80
c-29 -28 -55 -48 -59 -44 -7 7 100 106 107 99 3 -3 -19 -28 -48 -55z m-130 9
c0 -10 -4 -19 -10 -19 -5 0 -10 12 -10 26 0 14 4 23 10 19 6 -3 10 -15 10 -26z
m980 -56 c0 -20 -3 -24 -11 -16 -7 7 -9 19 -6 27 10 24 17 19 17 -11z m-697
-114 c-19 -39 -37 -69 -39 -66 -3 3 4 22 15 43 11 22 25 51 30 67 6 15 15 27
20 27 5 0 -7 -32 -26 -71z m-389 25 c-9 -13 -21 -24 -26 -24 -12 0 1 42 15 52
21 13 27 -3 11 -28z m-1019 -4 c3 -5 1 -10 -4 -10 -6 0 -11 5 -11 10 0 6 2 10
4 10 3 0 8 -4 11 -10z m2422 -107 c0 -10 4 -34 8 -53 7 -33 7 -34 -8 -15 -17
20 -23 85 -9 85 4 0 8 -8 9 -17z m3017 -8 c3 -8 1 -15 -4 -15 -6 0 -10 7 -10
15 0 8 2 15 4 15 2 0 6 -7 10 -15z m31 -25 c3 -5 1 -10 -4 -10 -6 0 -11 5 -11
10 0 6 2 10 4 10 3 0 8 -4 11 -10z m-2564 -62 c0 -7 3 -26 5 -43 l4 -30 -20
24 c-21 24 -25 43 -13 54 10 11 23 8 24 -5z m-156 -48 c16 -16 36 -30 46 -30
9 0 22 -7 29 -15 7 -9 28 -23 47 -32 19 -8 48 -36 65 -61 28 -41 29 -45 13
-55 -17 -9 -17 -11 4 -26 l22 -17 -33 -44 c-43 -58 -73 -107 -92 -147 -19 -41
-28 -41 -60 0 -14 17 -33 41 -42 51 -10 11 -31 51 -47 90 -24 59 -30 89 -35
178 -2 59 -2 114 1 122 10 26 51 18 82 -14z m258 -36 c43 -42 45 -52 16 -88
-22 -28 -39 -34 -39 -12 0 7 -9 25 -20 39 -23 29 -28 97 -7 97 7 0 29 -16 50
-36z m2457 -74 c0 -5 -4 -10 -10 -10 -5 0 -10 5 -10 10 0 6 5 10 10 10 6 0 10
-4 10 -10z m-1930 -47 c-1 -5 -16 -25 -35 -46 -33 -38 -34 -38 -45 -17 -10 18
-8 26 11 46 21 22 70 34 69 17z m-460 -72 c0 -10 -7 -24 -15 -31 -13 -10 -15
-9 -15 12 0 14 3 28 7 31 12 13 23 7 23 -12z m-195 -255 c-18 -27 -35 -34 -35
-15 0 5 8 21 18 34 23 31 39 14 17 -19z m3080 -126 c8 -13 -5 -13 -25 0 -13 8
-13 10 2 10 9 0 20 -4 23 -10z"/>
<path d="M7480 6675 c0 -8 4 -15 10 -15 5 0 7 7 4 15 -4 8 -8 15 -10 15 -2 0
-4 -7 -4 -15z"/>
<path d="M7561 6654 c0 -11 3 -14 6 -6 3 7 2 16 -1 19 -3 4 -6 -2 -5 -13z"/>
<path d="M7505 6650 c-3 -5 -1 -10 4 -10 6 0 11 5 11 10 0 6 -2 10 -4 10 -3 0
-8 -4 -11 -10z"/>
<path d="M9153 6783 c-7 -3 -13 -13 -13 -23 0 -18 23 -44 32 -35 2 3 4 -5 4
-17 -1 -11 5 -23 13 -26 8 -3 11 0 7 7 -4 6 -2 11 3 11 17 0 13 -21 -6 -36
-17 -13 -17 -13 -1 -14 10 0 36 18 59 40 31 30 39 44 34 60 -4 11 -2 20 4 20
6 0 11 -7 11 -16 0 -8 5 -12 10 -9 6 3 10 -3 10 -15 0 -11 -6 -23 -14 -26 -7
-3 -13 -18 -12 -34 1 -22 4 -26 14 -18 7 6 11 17 8 24 -2 7 3 19 13 28 15 14
16 22 7 51 -13 41 -30 44 -82 13 l-36 -21 6 21 c5 16 3 22 -8 22 -11 0 -13 -9
-10 -35 5 -43 -14 -47 -23 -5 -6 34 -12 39 -30 33z m102 -42 c-3 -6 -11 -11
-17 -11 -6 0 -6 6 2 15 14 17 26 13 15 -4z"/>
<path d="M9357 6769 c4 -15 8 -17 14 -8 8 14 3 29 -11 29 -4 0 -6 -9 -3 -21z"/>
<path d="M2861 6750 c23 -13 48 -16 48 -5 1 5 -13 10 -31 11 -20 1 -27 -1 -17
-6z"/>
<path d="M4247 6753 c-4 -3 -7 -13 -7 -21 0 -12 3 -12 15 -2 8 7 15 16 15 21
0 11 -14 12 -23 2z"/>
<path d="M3630 6679 c0 -5 5 -7 10 -4 6 3 10 8 10 11 0 2 -4 4 -10 4 -5 0 -10
-5 -10 -11z"/>
<path d="M9255 6650 c-3 -6 1 -7 9 -4 18 7 21 14 7 14 -6 0 -13 -4 -16 -10z"/>
<path d="M3281 6634 c0 -11 3 -14 6 -6 3 7 2 16 -1 19 -3 4 -6 -2 -5 -13z"/>
<path d="M1060 6620 c0 -5 5 -10 11 -10 5 0 7 5 4 10 -3 6 -8 10 -11 10 -2 0
-4 -4 -4 -10z"/>
<path d="M9324 6498 c-3 -4 2 -8 10 -8 8 0 17 4 20 8 3 5 -2 9 -10 9 -8 0 -17
-4 -20 -9z"/>
<path d="M9480 6463 c0 -4 5 -15 10 -23 8 -13 10 -13 10 2 0 9 -4 20 -10 23
-5 3 -10 3 -10 -2z"/>
<path d="M2921 6444 c0 -11 3 -14 6 -6 3 7 2 16 -1 19 -3 4 -6 -2 -5 -13z"/>
<path d="M9425 6440 c-3 -5 -1 -10 4 -10 6 0 11 5 11 10 0 6 -2 10 -4 10 -3 0
-8 -4 -11 -10z"/>
<path d="M1590 6116 c0 -10 43 -77 47 -73 2 3 -6 21 -18 41 -19 33 -29 43 -29
32z"/>
<path d="M1646 6044 c-3 -8 5 -36 18 -62 13 -27 31 -72 40 -102 9 -30 29 -74
44 -96 15 -23 32 -50 38 -60 20 -32 23 -12 8 46 -8 30 -21 58 -29 63 -8 4 -15
13 -15 20 0 7 -9 18 -20 25 -11 7 -20 20 -20 30 1 13 3 12 13 -6 7 -12 16 -20
19 -17 9 9 -31 80 -45 80 -6 0 -13 9 -13 20 -2 22 -21 75 -28 75 -2 0 -7 -7
-10 -16z"/>
<path d="M1260 6030 c0 -5 5 -10 11 -10 5 0 7 5 4 10 -3 6 -8 10 -11 10 -2 0
-4 -4 -4 -10z"/>
<path d="M1178 6003 c7 -3 16 -2 19 1 4 3 -2 6 -13 5 -11 0 -14 -3 -6 -6z"/>
<path d="M1120 5985 c0 -8 7 -15 16 -15 14 0 14 3 4 15 -7 8 -14 15 -16 15 -2
0 -4 -7 -4 -15z"/>
<path d="M1223 5983 c4 -3 7 -11 7 -19 0 -18 14 -18 30 1 10 12 10 15 -3 15
-8 0 -21 2 -29 3 -7 2 -10 2 -5 0z"/>
<path d="M1200 5928 c0 -9 5 -20 10 -23 13 -8 13 5 0 25 -8 13 -10 13 -10 -2z"/>
<path d="M1630 5856 c0 -2 7 -7 16 -10 8 -3 12 -2 9 4 -6 10 -25 14 -25 6z"/>
<path d="M958 5822 c-29 -6 -21 -17 13 -18 17 -1 27 2 22 5 -4 3 -10 9 -13 12
-3 3 -13 4 -22 1z"/>
<path d="M1640 5790 c0 -6 7 -10 15 -10 8 0 15 2 15 4 0 2 -7 6 -15 10 -8 3
-15 1 -15 -4z"/>
<path d="M1070 5781 c0 -5 7 -11 15 -15 8 -3 15 -1 15 3 0 5 -7 11 -15 15 -8
3 -15 1 -15 -3z"/>
<path d="M1690 5772 c0 -5 7 -9 15 -9 8 0 12 4 9 9 -3 4 -9 8 -15 8 -5 0 -9
-4 -9 -8z"/>
<path d="M957 5756 c-4 -10 -1 -13 8 -9 8 3 12 9 9 14 -7 12 -11 11 -17 -5z"/>
<path d="M1105 5740 c-3 -6 1 -7 9 -4 18 7 21 14 7 14 -6 0 -13 -4 -16 -10z"/>
<path d="M908 5706 c-13 -10 -15 -15 -6 -24 7 -7 19 -12 28 -12 12 0 12 2 1 9
-9 6 -10 11 -2 15 12 8 15 26 4 26 -5 0 -16 -6 -25 -14z"/>
<path d="M8930 5700 c0 -5 5 -10 10 -10 6 0 10 5 10 10 0 6 -4 10 -10 10 -5 0
-10 -4 -10 -10z"/>
<path d="M1190 5696 c0 -2 7 -7 16 -10 8 -3 12 -2 9 4 -6 10 -25 14 -25 6z"/>
<path d="M1260 5650 c0 -11 2 -20 4 -20 2 0 6 9 9 20 3 11 1 20 -4 20 -5 0 -9
-9 -9 -20z"/>
<path d="M1310 5630 c0 -5 7 -7 15 -4 8 4 15 8 15 10 0 2 -7 4 -15 4 -8 0 -15
-4 -15 -10z"/>
<path d="M1210 5600 c0 -5 5 -10 10 -10 6 0 10 5 10 10 0 6 -4 10 -10 10 -5 0
-10 -4 -10 -10z"/>
<path d="M1305 5590 c3 -5 8 -10 11 -10 2 0 4 5 4 10 0 6 -5 10 -11 10 -5 0
-7 -4 -4 -10z"/>
<path d="M1366 5585 c4 -8 8 -15 10 -15 2 0 4 7 4 15 0 8 -4 15 -10 15 -5 0
-7 -7 -4 -15z"/>
<path d="M1475 5590 c3 -5 8 -10 11 -10 2 0 4 5 4 10 0 6 -5 10 -11 10 -5 0
-7 -4 -4 -10z"/>
<path d="M1950 5575 c0 -18 50 -56 66 -52 17 4 17 6 -3 12 -13 4 -23 13 -23
20 0 7 -7 16 -16 19 -19 7 -24 8 -24 1z"/>
<path d="M9970 5550 c0 -33 -14 -40 -24 -13 -6 15 -8 15 -20 -2 -10 -14 -17
-15 -31 -7 -29 15 -50 -16 -28 -40 11 -12 12 -18 4 -18 -7 0 -9 -4 -6 -10 8
-12 16 -12 35 0 13 9 13 11 0 21 -11 8 -6 8 20 3 19 -3 42 -12 50 -19 11 -10
25 -11 50 -5 l35 8 -35 1 c-34 1 -60 15 -60 33 0 4 5 8 11 8 6 0 21 8 34 18
l23 18 -29 17 -29 16 0 -29z"/>
<path d="M1600 5560 c0 -5 5 -10 11 -10 5 0 7 5 4 10 -3 6 -8 10 -11 10 -2 0
-4 -4 -4 -10z"/>
<path d="M10210 5562 c0 -5 7 -16 16 -23 14 -12 16 -11 13 5 -4 20 -29 35 -29
18z"/>
<path d="M1940 5524 c0 -28 51 -143 57 -127 2 7 11 9 19 6 22 -8 17 35 -6 47
-15 8 -20 8 -20 -2 -1 -17 -20 17 -37 62 -8 25 -12 29 -13 14z"/>
<path d="M10020 5520 c0 -5 5 -10 10 -10 6 0 10 5 10 10 0 6 -4 10 -10 10 -5
0 -10 -4 -10 -10z"/>
<path d="M1820 5498 c0 -10 41 -88 47 -88 6 0 -8 44 -17 50 -4 3 -12 14 -18
25 -6 11 -12 17 -12 13z"/>
<path d="M2052 5473 c15 -15 31 -23 35 -19 4 4 -3 16 -17 26 -37 29 -49 24
-18 -7z"/>
<path d="M1980 5480 c0 -6 12 -10 27 -10 29 0 24 12 -7 17 -11 2 -20 -2 -20
-7z"/>
<path d="M1580 5471 c0 -5 5 -13 10 -16 6 -3 10 -2 10 4 0 5 -4 13 -10 16 -5
3 -10 2 -10 -4z"/>
<path d="M1005 5460 c4 -6 11 -8 16 -5 14 9 11 15 -7 15 -8 0 -12 -5 -9 -10z"/>
<path d="M2050 5453 c0 -9 23 -35 53 -59 7 -6 24 -15 37 -19 22 -7 22 -6 -6
19 -16 14 -34 29 -39 33 -6 5 -18 14 -28 22 -9 7 -17 9 -17 4z"/>
<path d="M2123 5444 c-15 -16 -16 -24 -4 -24 8 0 24 30 19 35 -2 2 -9 -3 -15
-11z"/>
<path d="M9970 5410 c0 -5 5 -10 11 -10 5 0 7 5 4 10 -3 6 -8 10 -11 10 -2 0
-4 -4 -4 -10z"/>
<path d="M9625 5400 c3 -5 8 -10 11 -10 2 0 4 5 4 10 0 6 -5 10 -11 10 -5 0
-7 -4 -4 -10z"/>
<path d="M1062 5381 c-11 -7 -11 -9 2 -14 9 -4 16 -2 16 3 0 5 7 6 17 3 11 -4
14 -3 9 5 -8 14 -26 15 -44 3z"/>
<path d="M9420 5350 c0 -13 5 -20 13 -17 6 2 12 10 12 17 0 7 -6 15 -12 18 -8
2 -13 -5 -13 -18z"/>
<path d="M1130 5310 c0 -5 5 -10 11 -10 5 0 7 5 4 10 -3 6 -8 10 -11 10 -2 0
-4 -4 -4 -10z"/>
<path d="M1188 5306 c-10 -7 -18 -16 -18 -19 0 -8 62 -28 68 -22 3 3 0 5 -6 5
-7 0 -12 11 -12 25 0 28 -7 30 -32 11z"/>
<path d="M1850 5280 c0 -5 5 -10 10 -10 6 0 10 5 10 10 0 6 -4 10 -10 10 -5 0
-10 -4 -10 -10z"/>
<path d="M1855 5250 c3 -5 8 -10 11 -10 2 0 4 5 4 10 0 6 -5 10 -11 10 -5 0
-7 -4 -4 -10z"/>
<path d="M1240 5215 c-10 -12 -10 -15 3 -15 19 0 31 16 18 24 -5 3 -14 -1 -21
-9z"/>
<path d="M1720 5210 c-12 -8 -10 -10 8 -10 13 0 20 4 17 10 -7 12 -6 12 -25 0z"/>
<path d="M1873 5194 c-3 -8 -1 -25 5 -37 10 -20 11 -18 11 16 1 39 -5 48 -16
21z"/>
<path d="M1296 5178 c3 -4 17 -8 31 -8 15 0 23 3 19 8 -10 10 -56 10 -50 0z"/>
<path d="M1458 5073 c7 -3 16 -2 19 1 4 3 -2 6 -13 5 -11 0 -14 -3 -6 -6z"/>
<path d="M1318 5053 c7 -3 16 -2 19 1 4 3 -2 6 -13 5 -11 0 -14 -3 -6 -6z"/>
<path d="M9480 4820 c0 -5 5 -10 10 -10 6 0 10 5 10 10 0 6 -4 10 -10 10 -5 0
-10 -4 -10 -10z"/>
<path d="M660 4760 c0 -5 5 -10 11 -10 5 0 7 5 4 10 -3 6 -8 10 -11 10 -2 0
-4 -4 -4 -10z"/>
<path d="M8455 4616 c-18 -13 -18 -14 4 -21 25 -8 47 7 37 24 -9 14 -18 14
-41 -3z"/>
<path d="M9788 4533 c7 -3 16 -2 19 1 4 3 -2 6 -13 5 -11 0 -14 -3 -6 -6z"/>
<path d="M0 4305 c0 -10 10 -15 30 -15 35 0 40 15 8 24 -34 9 -38 8 -38 -9z"/>
<path d="M73 4296 c0 -9 15 -17 41 -20 23 -4 73 -18 111 -32 39 -14 115 -34
170 -44 55 -10 112 -23 127 -29 22 -8 26 -8 22 4 -7 17 -116 55 -159 55 -17 0
-78 15 -136 33 -137 44 -176 52 -176 33z"/>
<path d="M9201 4249 c-13 -5 -21 -12 -18 -15 9 -10 88 7 81 17 -7 11 -32 11
-63 -2z"/>
<path d="M588 3768 c5 -5 16 -8 23 -6 8 3 3 7 -10 11 -17 4 -21 3 -13 -5z"/>
<path d="M676 3745 c-3 -8 -1 -15 3 -15 5 0 11 7 15 15 3 8 1 15 -3 15 -5 0
-11 -7 -15 -15z"/>
<path d="M620 3725 c0 -8 2 -15 4 -15 2 0 6 7 10 15 3 8 1 15 -4 15 -6 0 -10
-7 -10 -15z"/>
<path d="M705 3730 c3 -5 14 -10 23 -10 15 0 15 2 2 10 -20 13 -33 13 -25 0z"/>
<path d="M635 3690 c-7 -11 13 -33 23 -26 6 3 13 -2 15 -11 2 -10 4 -4 3 14
-1 24 -5 31 -19 30 -10 -1 -20 -4 -22 -7z"/>
<path d="M716 3595 c4 -8 8 -15 10 -15 2 0 4 7 4 15 0 8 -4 15 -10 15 -5 0 -7
-7 -4 -15z"/>
<path d="M867 3276 c4 -5 -1 -7 -11 -3 -10 4 -48 2 -84 -4 -37 -6 -102 -10
-144 -10 -43 1 -78 0 -78 -2 0 -2 5 -18 11 -36 9 -27 16 -31 45 -31 19 0 58
12 87 26 28 14 85 31 126 37 41 7 76 17 78 22 2 6 -5 11 -16 11 -11 0 -17 -5
-14 -10z"/>
<path d="M910 3278 c0 -4 9 -8 20 -8 11 0 20 4 20 8 0 4 -9 8 -20 8 -11 0 -20
-4 -20 -8z"/>
<path d="M9170 2820 c0 -5 5 -10 11 -10 5 0 7 5 4 10 -3 6 -8 10 -11 10 -2 0
-4 -4 -4 -10z"/>
<path d="M9175 2790 c3 -5 8 -10 11 -10 2 0 4 5 4 10 0 6 -5 10 -11 10 -5 0
-7 -4 -4 -10z"/>
<path d="M265 2690 c-19 -7 -18 -9 8 -19 34 -13 58 -15 38 -2 -7 5 -10 14 -7
20 8 13 -10 13 -39 1z"/>
<path d="M9099 2654 c-11 -30 -3 -46 11 -24 10 16 13 50 5 50 -3 0 -10 -12
-16 -26z"/>
<path d="M260 2570 c0 -5 -11 -10 -25 -10 -27 0 -35 -29 -12 -48 16 -13 110
-11 97 2 -13 13 -13 29 0 21 6 -3 10 1 10 9 0 17 -5 21 -42 30 -17 4 -28 2
-28 -4z"/>
<path d="M9700 2535 c0 -8 5 -15 10 -15 6 0 10 7 10 15 0 8 -4 15 -10 15 -5 0
-10 -7 -10 -15z"/>
<path d="M360 2486 c0 -2 7 -9 15 -16 13 -11 14 -10 9 4 -5 14 -24 23 -24 12z"/>
<path d="M336 2465 c4 -8 11 -15 16 -15 6 0 5 6 -2 15 -7 8 -14 15 -16 15 -2
0 -1 -7 2 -15z"/>
<path d="M30 2329 c0 -11 4 -17 10 -14 13 8 13 35 0 35 -5 0 -10 -9 -10 -21z"/>
<path d="M0 2255 c0 -25 4 -35 12 -33 18 6 18 45 2 59 -11 9 -14 5 -14 -26z"/>
<path d="M40 2254 c0 -8 5 -12 10 -9 6 4 8 11 5 16 -9 14 -15 11 -15 -7z"/>
<path d="M10200 1870 c-8 -5 -12 -12 -9 -15 8 -8 39 5 39 16 0 11 -11 11 -30
-1z"/>
<path d="M11 1574 c0 -11 3 -14 6 -6 3 7 2 16 -1 19 -3 4 -6 -2 -5 -13z"/>
<path d="M200 1419 c-13 -8 -13 -10 0 -19 21 -14 30 -12 30 4 0 20 -13 27 -30
15z"/>
<path d="M8105 1410 c3 -5 11 -10 16 -10 6 0 7 5 4 10 -3 6 -11 10 -16 10 -6
0 -7 -4 -4 -10z"/>
<path d="M362 1309 c1 -12 9 -24 16 -27 9 -3 13 3 10 19 -1 12 -9 24 -16 27
-9 3 -13 -3 -10 -19z"/>
<path d="M7998 916 c-16 -12 -16 -14 8 -24 14 -7 33 -12 42 -12 9 0 28 -9 42
-20 14 -11 31 -20 38 -20 47 -1 189 -101 222 -157 22 -37 58 -44 84 -17 31 31
10 71 -42 80 -32 5 -77 26 -157 71 -70 40 -168 81 -183 77 -13 -5 -14 -4 -3 4
11 8 10 12 -7 21 -25 13 -23 13 -44 -3z"/>
<path d="M1699 872 c-7 -15 -15 -30 -17 -34 -1 -4 5 -5 14 -1 12 4 15 3 10 -5
-5 -8 2 -12 21 -11 18 1 21 3 10 6 -14 4 -17 12 -13 34 6 39 -8 45 -25 11z"/>
<path d="M9625 840 c-3 -5 -2 -10 4 -10 5 0 13 5 16 10 3 6 2 10 -4 10 -5 0
-13 -4 -16 -10z"/>
<path d="M2278 813 c-7 -16 -27 -52 -45 -81 -19 -30 -29 -51 -23 -47 5 3 10 0
10 -7 0 -13 60 75 60 89 0 5 9 19 20 33 24 30 25 40 5 40 -9 0 -21 -12 -27
-27z"/>
<path d="M9287 783 c3 -7 9 -13 13 -13 5 0 17 -3 27 -7 17 -6 17 -6 0 14 -19
22 -48 27 -40 6z"/>
<path d="M1682 754 c-2 -22 0 -24 12 -14 8 6 12 18 9 26 -8 22 -18 16 -21 -12z"/>
<path d="M1655 677 c-14 -23 -20 -26 -27 -16 -8 11 -9 10 -5 -2 3 -10 -5 -26
-19 -40 -13 -12 -24 -27 -24 -32 0 -5 -9 -21 -21 -35 -48 -62 -75 -96 -92
-114 -31 -33 -6 -86 28 -60 18 13 55 71 55 85 0 8 13 31 30 52 16 20 32 45 35
56 8 23 21 25 29 4 3 -8 -2 -21 -10 -30 -14 -13 -12 -15 17 -11 22 2 33 9 35
21 4 26 -7 40 -17 24 -8 -12 -11 -11 -19 1 -14 22 -14 22 30 69 23 24 38 46
35 49 -15 16 -44 6 -60 -21z"/>
<path d="M2190 661 c0 -5 5 -13 10 -16 6 -3 10 -2 10 4 0 5 -4 13 -10 16 -5 3
-10 2 -10 -4z"/>
<path d="M1680 616 c0 -9 5 -16 10 -16 6 0 10 4 10 9 0 6 -4 13 -10 16 -5 3
-10 -1 -10 -9z"/>
<path d="M2096 507 c-32 -59 -151 -218 -177 -237 -10 -8 -79 -143 -79 -156 0
-7 -15 -35 -34 -63 l-35 -51 39 0 c37 0 38 0 45 47 10 70 79 203 131 254 24
24 44 47 44 52 0 5 13 26 29 46 16 20 37 55 47 76 10 22 24 48 32 57 9 10 11
22 5 32 -6 11 -18 -3 -47 -57z"/>
<path d="M1620 495 c34 -19 61 -19 54 0 -4 10 -19 15 -43 15 l-36 -1 25 -14z"/>
<path d="M1662 453 c-6 -2 -10 -9 -6 -14 3 -5 -2 -9 -10 -9 -9 0 -16 -4 -16
-10 0 -14 12 -12 38 6 33 23 29 41 -6 27z"/>
<path d="M6870 205 c-8 -9 -8 -15 -2 -15 12 0 26 19 19 26 -2 2 -10 -2 -17
-11z"/>
<path d="M140 200 c0 -5 5 -10 10 -10 6 0 10 5 10 10 0 6 -4 10 -10 10 -5 0
-10 -4 -10 -10z"/>
<path d="M8040 186 c0 -2 6 -9 14 -15 10 -9 16 -8 26 4 11 13 8 15 -14 15 -14
0 -26 -2 -26 -4z"/>
<path d="M8232 183 c-6 -2 -10 -8 -7 -13 6 -10 45 -1 45 11 0 10 -17 11 -38 2z"/>
<path d="M7851 171 c-8 -6 -9 -11 -3 -15 6 -3 14 -1 17 5 9 14 2 20 -14 10z"/>
<path d="M8018 163 c7 -3 16 -2 19 1 4 3 -2 6 -13 5 -11 0 -14 -3 -6 -6z"/>
<path d="M8151 153 c-6 -10 -11 -12 -11 -5 0 6 -5 12 -11 12 -5 0 -7 -4 -4
-10 6 -10 -7 -14 -32 -11 -6 1 -14 -3 -18 -9 -4 -6 7 -10 28 -10 38 0 88 32
69 44 -6 3 -15 -2 -21 -11z"/>
<path d="M1 54 c0 -11 3 -14 6 -6 3 7 2 16 -1 19 -3 4 -6 -2 -5 -13z"/>
<path d="M1407 30 l-26 -29 32 2 c32 2 47 12 47 32 -1 6 -5 2 -11 -8 -6 -9
-15 -15 -20 -11 -6 4 -4 13 7 25 9 10 13 19 7 19 -5 0 -22 -13 -36 -30z"/>
<path d="M7325 10 c3 -5 8 -10 11 -10 2 0 4 5 4 10 0 6 -5 10 -11 10 -5 0 -7
-4 -4 -10z"/>
</g>
</svg>
