<svg width="500" height="150" viewBox="0 0 500 150" fill="none" xmlns="http://www.w3.org/2000/svg">
<mask id="mask0_10_5" style="mask-type:alpha" maskUnits="userSpaceOnUse" x="0" y="0" width="500" height="150">
<rect width="500" height="150" fill="#D9D9D9"/>
</mask>
<g mask="url(#mask0_10_5)">
<path d="M-690 139.5L-629.875 120.929C-569.75 102.009 -449.5 65.3906 -329.25 69.75C-209 74.1094 -88.75 121.191 31.5 125.55C151.75 129.909 272 93.2906 392.25 102.271C512.5 111.6 632.75 167.4 692.875 195.3L753 223.2V0H692.875C632.75 0 512.5 0 392.25 0C272 0 151.75 0 31.5 0C-88.75 0 -209 0 -329.25 0C-449.5 0 -569.75 0 -629.875 0H-690V139.5Z" fill="#0099FF"/>
</g>
</svg>
