<svg width="417" height="113" viewBox="0 0 417 113" fill="none" xmlns="http://www.w3.org/2000/svg">
<path d="M-1670 423.111H-1581.1C-1492.2 423.111 -1314.4 423.111 -1136.6 453.333C-958.8 483.556 -781 544 -603.2 483.556C-425.4 423.111 -247.6 241.778 -69.8 151.111C108 60.4444 285.8 60.4444 463.6 141.1C641.4 221 819.2 383.444 908.1 463.344L997 544V0H908.1C819.2 0 641.4 0 463.6 0C285.8 0 108 0 -69.8 0C-247.6 0 -425.4 0 -603.2 0C-781 0 -958.8 0 -1136.6 0C-1314.4 0 -1492.2 0 -1581.1 0H-1670V423.111Z" fill="#0099FF"/>
</svg>
